$MeshFormat
4.1 0 8
$EndMeshFormat
$PhysicalNames
4
1 1 "Material:Aluminum 6061-T6"
1 2 "Material:Aluminum 7075-T6"
1 3 "Section:CHS 114.3x5"
1 4 "Section:Tube 76.2x2.11"
$EndPhysicalNames
$Entities
0 2 0 0
1 -1.2 0 -1.1 1.3 0 1.1 2 1 4 0
2 -0.7 0 -1.1 0.8 0.6 1.1 2 2 3 0
$EndEntities
$Nodes
1 20 1 20
1 1 0 20
1
2
3
4
5
6
7
8
9
10
11
12
13
14
15
16
17
18
19
20
-1.2 0 -1.1
-0.7 0 -1.1
-0.19999999999999996 0 -1.1
0.30000000000000004 0 -1.1
0.8 0 -1.1
1.3 0 -1.1
-1.2 0 1.1
-0.7 0 1.1
-0.19999999999999996 0 1.1
0.30000000000000004 0 1.1
0.8 0 1.1
1.3 0 1.1
-0.7 0.45 -0.85
-0.7 0.6 -0.45
-0.7 0.6 0.45
-0.7 0.45 0.85
0.8 0.45 -0.85
0.8 0.6 -0.45
0.8 0.6 0.45
0.8 0.45 0.85
$EndNodes
$Elements
2 20 1 20
1 1 1 10
1 1 2
2 2 3
3 3 4
4 4 5
5 5 6
6 7 8
7 8 9
8 9 10
9 10 11
10 11 12
1 2 1 10
11 2 13
12 13 14
13 14 15
14 15 16
15 16 8
16 5 17
17 17 18
18 18 19
19 19 20
20 20 11
$EndElements
$NodeData
1
"Displacement"
1
0
3
0
3
20
1 0 8.74387521385071e-06 -0.0020751063673228125
2 0 0 0
3 -3.0961733308846675e-19 -1.4573125356136347e-05 0.0004611347482939394
4 -6.202450042933774e-19 -1.4573125356133393e-05 -0.0004611347482939968
5 -9.291914269024621e-19 0 0
6 -9.291914269024621e-19 8.743875213837548e-06 0.0020751063673228984
7 -0.01621703980754786 8.743875213903503e-06 -0.005296275363380728
8 -0.01621703980754786 0 0
9 -0.01621703980754786 -1.457312535616775e-05 0.00691024698240959
10 -0.01621703980754786 -1.4573125356159963e-05 0.015203898209701033
11 -0.016217039807547858 0 0.02211414519211055
12 -0.016217039807547858 8.74387521387217e-06 0.02741042055549117
13 -0.0011605019149098362 4.466228554191824e-05 -0.00017283511076732834
14 -0.0035122895746289447 -0.000593309595317718 2.8803517191450994e-05
15 -0.010146533132262136 -0.0005933095953177158 -2.8803517191446986e-05
16 -0.013691850857105876 4.4662285541920404e-05 0.00017283511076733235
17 -0.0011841103779870333 -0.004908161312624647 0.008773046480910816
18 -0.0035437675253985968 -0.011036022699164412 0.011058952842790284
19 -0.010178011083031848 -0.011036022699164436 0.011055192349320214
20 -0.013715459320183141 -0.004908161312624668 0.013341098711199687
$EndNodeData
$NodeData
1
"Rotation"
1
0
3
0
3
20
1 -0.0007274011924570628 -0.004150212734645623 -1.4573125356510692e-05
2 -0.0007274011924570628 -0.004150212734645628 -2.623162564127361e-05
3 0.006182567756928519 0.001383404244881933 -2.0402375498511776e-05
4 0.013092536706314103 0.0013834042448818756 2.040237549852067e-05
5 0.020002505655699682 -0.004150212734645799 2.6231625641247285e-05
6 0.020002505655699682 -0.004150212734645795 1.4573125356484363e-05
7 0.0007274011924570728 -0.01059255072676145 -1.4573125356616278e-05
8 0.0007274011924570728 -0.010592550726761463 -2.6231625641379195e-05
9 -0.006182567756928547 -0.01612616770628897 -2.04023754985337e-05
10 -0.013092536706314164 -0.016126167706288868 2.0402375498557333e-05
11 -0.020002505655699783 -0.010592550726761287 2.623162564131653e-05
12 -0.020002505655699783 -0.01059255072676122 1.457312535655361e-05
13 0.0007872834354763365 -0.005498250864262115 -0.0001762396408193096
14 0.0015790865240702591 -0.006429019467509887 -0.00027264578098456886
15 -0.0015790865240702624 -0.008313743993897216 -0.00027264578098462627
16 -0.0007872834354763318 -0.009244512597144969 -0.00017623964081940545
17 0.0182409430002758 -0.00549825086426228 -0.0001237763895367106
18 0.011189888923286689 -0.006429019467510022 -0.00022018252970191498
19 -0.011189888923286666 -0.008313743993897178 -0.00022018252970187164
20 -0.01824094300027587 -0.009244512597144868 -0.00012377638953664334
$EndNodeData
$ElementData
1
"BeamSectionForce"
1
0
3
0
12
20
1 -0 7.549516567451064e-15 -4.547473508864641e-13 -0 -2.2737367544323206e-13 4.996003610813204e-16 0 6.501991042409056 -4.547473508864641e-13 0 -2.2737367544323206e-13 -1.6254977606022645
2 -2.0953974248110614e-11 -9.752986563611955 -514.3532923646382 242.3721139289912 385.76496927347563 -1.6254977605841803 -2.0953974248110614e-11 -3.2509955212029067 -514.3532923646382 242.3721139289912 128.58832309115667 1.6254977606195369
3 -2.1022350907332726e-11 -3.2509955212028916 -514.3532923646375 242.37211392899124 128.58832309115672 1.6254977606195076 -2.1022350907332726e-11 3.2509955212061565 -514.3532923646375 242.37211392899124 -128.58832309116207 1.6254977606186913
4 -2.0908569035270855e-11 3.25099552120604 -514.353292364638 242.3721139289911 -128.58832309116207 1.625497760618682 -2.0908569035270855e-11 9.752986563615089 -514.353292364638 242.3721139289911 -385.76496927348086 -1.6254977605865988
5 -0 -6.501991042409051 -9.094947017729282e-13 -0 3.410605131648481e-13 -1.6254977606022638 0 -2.220446049250313e-15 -9.094947017729282e-13 0 0 -3.885780586188048e-16
6 -0 3.9968028886505635e-15 -9.094947017729282e-13 -0 -3.410605131648481e-13 5.551115123125783e-17 0 6.501991042409053 -9.094947017729282e-13 0 -6.821210263296962e-13 -1.6254977606022636
7 -0 -9.752986563610898 514.3532923646344 -242.37211392899252 -385.7649692734724 -1.6254977605800276 0 -3.2509955212018498 514.3532923646344 -242.37211392899252 -128.58832309115496 1.6254977606231606
8 -0 -3.250995521200332 514.3532923646326 -242.37211392899243 -128.58832309115337 1.6254977606228695 0 3.2509955212087163 514.3532923646326 -242.37211392899243 128.5883230911627 1.6254977606207746
9 2.3283064365386963e-10 3.2509955212062462 514.3532923646308 -242.37211392899246 128.5883230911603 1.6254977606202483 2.3283064365386963e-10 9.752986563615295 514.3532923646308 -242.37211392899246 385.7649692734742 -1.6254977605851368
10 -0 -6.501991042409053 -9.094947017729282e-12 -0 6.366462912410498e-12 -1.6254977606022638 0 -3.9968028886505635e-15 -9.094947017729282e-12 0 0 5.551115123125783e-17
11 -10746.270398371638 3043.5399652981896 -1.2732925824820995e-11 -337.2192547632188 -187.34403042399026 242.37211392899113 -10724.98020783197 3055.367848931338 -1.2732925824820995e-11 -337.2192547632188 -187.34403042399845 -1327.430364053076
12 -10148.587305928999 -4622.4072564636135 -2.1827872842550278e-11 -135.45112365555667 -361.20299641478505 -1327.4303640530748 -10141.49057574911 -4603.482642650577 -2.1827872842550278e-11 -135.45112365555667 -361.2029964147914 643.2205822448948
13 -7879.382861335497 -21.290190539664792 -1.6370904631912708e-11 -8.853362487570848e-12 -385.76496927349444 643.2205822448964 -7879.382861335497 21.29019053966843 -1.6370904631912708e-11 -8.853362487570848e-12 -385.76496927350763 643.2205822448942
14 -10141.49057574911 4603.482642650588 7.275957614183426e-11 135.45112365554246 -361.2029964147887 643.2205822448944 -10148.587305928999 4622.407256463624 7.275957614183426e-11 135.45112365554246 -361.20299641479323 -1327.4303640530811
15 -10724.980207831984 -3055.3678489313506 3.637978807091713e-11 337.21925476321894 -187.34403042401573 -1327.4303640530811 -10746.270398371653 -3043.5399652982023 3.637978807091713e-11 337.21925476321894 -187.34403042398117 242.37211392899238
16 -7169.4958502798445 -3394.65422126715 2.1827872842550278e-11 -337.2192547632069 -187.34403042402255 -242.37211392898823 -7148.205659740178 -3382.826337634002 2.1827872842550278e-11 -337.2192547632069 -187.34403042401345 1502.088714125406
17 -3252.495226844582 -7208.441786120884 2.1827872842550278e-11 -135.45112365553632 -361.20299641478414 1502.0887141253745 -3245.3984966646926 -7189.517172307847 2.1827872842550278e-11 -135.45112365553632 -361.20299641478414 4577.494095768951
18 -514.3532923653256 -21.29019053970663 2.9103830456733704e-11 6.679101716144942e-12 -385.76496927347944 4577.494095768924 -514.3532923653256 21.290190539626593 2.9103830456733704e-11 6.679101716144942e-12 -385.76496927345033 4577.494095768958
19 -3245.3984966632956 7189.517172307746 -8.003553375601768e-11 135.45112365553746 -361.2029964147314 4577.494095768964 -3252.495226843185 7208.441786120782 -8.003553375601768e-11 135.45112365553746 -361.20299641477686 1502.0887141254364
20 -7148.205659739036 3382.826337634133 -5.4569682106375694e-11 337.219254763193 -187.344030423993 1502.0887141254425 -7169.495850278702 3394.654221267281 -5.4569682106375694e-11 337.219254763193 -187.34403042401937 -242.37211392900278
$EndElementData
$ElementData
1
"AxialForce"
1
0
3
0
1
20
1 0
2 -2.0953974248110614e-11
3 -2.1022350907332726e-11
4 -2.0908569035270855e-11
5 0
6 0
7 0
8 0
9 2.3283064365386963e-10
10 0
11 -10735.625303101804
12 -10145.038940839055
13 -7879.382861335497
14 -10145.038940839055
15 -10735.625303101819
16 -7158.850755010011
17 -3248.946861754637
18 -514.3532923653256
19 -3248.9468617532402
20 -7158.850755008869
$EndElementData
$ElementData
1
"VonMisesStress"
1
0
3
0
1
20
1 189261.98079111121
2 51480666.11746053
3 30978296.552789174
4 51480666.117461056
5 189261.9807911118
6 189261.98079111183
7 51480666.117460236
8 30978296.552789293
9 51480666.11746095
10 189261.98079112577
11 38221973.16599198
12 38409762.870955564
13 21364729.235136174
14 38409762.87095548
15 38221973.16599218
16 40108813.830077454
17 105425045.75958098
18 102589679.7745505
19 105425045.75958034
20 40108813.830077365
$EndElementData
$NodeData
1
"Fixity"
1
0
3
0
3
20
1 0 0 0
2 1 1 1
3 0 0 0
4 0 0 0
5 0 1 1
6 0 0 0
7 0 0 0
8 0 1 1
9 0 0 0
10 0 0 0
11 0 1 0
12 0 0 0
13 0 0 0
14 0 0 0
15 0 0 0
16 0 0 0
17 0 0 0
18 0 0 0
19 0 0 0
20 0 0 0
$EndNodeData
$NodeData
1
"NodalForce"
1
0
3
0
3
20
1 0 0 0
2 0 0 0
3 0 0 0
4 0 0 0
5 0 0 0
6 0 0 0
7 0 0 0
8 0 0 0
9 0 0 0
10 0 0 0
11 0 0 0
12 0 0 0
13 0 0 0
14 0 -7850 0
15 0 -7850 0
16 0 0 0
17 0 0 0
18 0 -7850 0
19 0 -7850 0
20 0 0 0
$EndNodeData
$ElementData
1
"CrossSectionArea"
1
0
3
0
1
20
1 0.0004911248653764272
2 0.0004911248653764272
3 0.0004911248653764272
4 0.0004911248653764272
5 0.0004911248653764272
6 0.0004911248653764272
7 0.0004911248653764272
8 0.0004911248653764272
9 0.0004911248653764272
10 0.0004911248653764272
11 0.0017168803851868209
12 0.0017168803851868209
13 0.0017168803851868209
14 0.0017168803851868209
15 0.0017168803851868209
16 0.0017168803851868209
17 0.0017168803851868209
18 0.0017168803851868209
19 0.0017168803851868209
20 0.0017168803851868209
$EndElementData
$ElementData
1
"Attribute:ElementFormulation"
1
0
3
0
1
20
1 1
2 1
3 1
4 1
5 1
6 1
7 1
8 1
9 1
10 1
11 1
12 1
13 1
14 1
15 1
16 1
17 1
18 1
19 1
20 1
$EndElementData
$ElementData
1
"MaterialID"
1
0
3
0
1
20
1 1
2 1
3 1
4 1
5 1
6 1
7 1
8 1
9 1
10 1
11 13
12 13
13 13
14 13
15 13
16 13
17 13
18 13
19 13
20 13
$EndElementData
$ElementData
1
"Attribute:SecondMomentY"
1
0
3
0
1
20
1 3.3726650764158525e-07
2 3.3726650764158525e-07
3 3.3726650764158525e-07
4 3.3726650764158525e-07
5 3.3726650764158525e-07
6 3.3726650764158525e-07
7 3.3726650764158525e-07
8 3.3726650764158525e-07
9 3.3726650764158525e-07
10 3.3726650764158525e-07
11 2.569202045307523e-06
12 2.569202045307523e-06
13 2.569202045307523e-06
14 2.569202045307523e-06
15 2.569202045307523e-06
16 2.569202045307523e-06
17 2.569202045307523e-06
18 2.569202045307523e-06
19 2.569202045307523e-06
20 2.569202045307523e-06
$EndElementData
$ElementData
1
"Attribute:SecondMomentZ"
1
0
3
0
1
20
1 3.3726650764158525e-07
2 3.3726650764158525e-07
3 3.3726650764158525e-07
4 3.3726650764158525e-07
5 3.3726650764158525e-07
6 3.3726650764158525e-07
7 3.3726650764158525e-07
8 3.3726650764158525e-07
9 3.3726650764158525e-07
10 3.3726650764158525e-07
11 2.569202045307523e-06
12 2.569202045307523e-06
13 2.569202045307523e-06
14 2.569202045307523e-06
15 2.569202045307523e-06
16 2.569202045307523e-06
17 2.569202045307523e-06
18 2.569202045307523e-06
19 2.569202045307523e-06
20 2.569202045307523e-06
$EndElementData
$ElementData
1
"Attribute:SectionDimension1"
1
0
3
0
1
20
1 0.0762
2 0.0762
3 0.0762
4 0.0762
5 0.0762
6 0.0762
7 0.0762
8 0.0762
9 0.0762
10 0.0762
11 0.1143
12 0.1143
13 0.1143
14 0.1143
15 0.1143
16 0.1143
17 0.1143
18 0.1143
19 0.1143
20 0.1143
$EndElementData
$ElementData
1
"Attribute:SectionDimension2"
1
0
3
0
1
20
1 0.00211
2 0.00211
3 0.00211
4 0.00211
5 0.00211
6 0.00211
7 0.00211
8 0.00211
9 0.00211
10 0.00211
11 0.005
12 0.005
13 0.005
14 0.005
15 0.005
16 0.005
17 0.005
18 0.005
19 0.005
20 0.005
$EndElementData
$ElementData
1
"Attribute:SectionDimension3"
1
0
3
0
1
20
1 0
2 0
3 0
4 0
5 0
6 0
7 0
8 0
9 0
10 0
11 0
12 0
13 0
14 0
15 0
16 0
17 0
18 0
19 0
20 0
$EndElementData
$ElementData
1
"Attribute:SectionDimension4"
1
0
3
0
1
20
1 0
2 0
3 0
4 0
5 0
6 0
7 0
8 0
9 0
10 0
11 0
12 0
13 0
14 0
15 0
16 0
17 0
18 0
19 0
20 0
$EndElementData
$ElementData
1
"Attribute:SectionDimension5"
1
0
3
0
1
20
1 0
2 0
3 0
4 0
5 0
6 0
7 0
8 0
9 0
10 0
11 0
12 0
13 0
14 0
15 0
16 0
17 0
18 0
19 0
20 0
$EndElementData
$ElementData
1
"Attribute:SectionShape"
1
0
3
0
1
20
1 3
2 3
3 3
4 3
5 3
6 3
7 3
8 3
9 3
10 3
11 3
12 3
13 3
14 3
15 3
16 3
17 3
18 3
19 3
20 3
$EndElementData
$ElementData
1
"Attribute:ShearAreaY"
1
0
3
0
1
20
1 0.0002621417693926878
2 0.0002621417693926878
3 0.0002621417693926878
4 0.0002621417693926878
5 0.0002621417693926878
6 0.0002621417693926878
7 0.0002621417693926878
8 0.0002621417693926878
9 0.0002621417693926878
10 0.0002621417693926878
11 0.0009182736033732371
12 0.0009182736033732371
13 0.0009182736033732371
14 0.0009182736033732371
15 0.0009182736033732371
16 0.0009182736033732371
17 0.0009182736033732371
18 0.0009182736033732371
19 0.0009182736033732371
20 0.0009182736033732371
$EndElementData
$ElementData
1
"Attribute:ShearAreaZ"
1
0
3
0
1
20
1 0.0002621417693926878
2 0.0002621417693926878
3 0.0002621417693926878
4 0.0002621417693926878
5 0.0002621417693926878
6 0.0002621417693926878
7 0.0002621417693926878
8 0.0002621417693926878
9 0.0002621417693926878
10 0.0002621417693926878
11 0.0009182736033732371
12 0.0009182736033732371
13 0.0009182736033732371
14 0.0009182736033732371
15 0.0009182736033732371
16 0.0009182736033732371
17 0.0009182736033732371
18 0.0009182736033732371
19 0.0009182736033732371
20 0.0009182736033732371
$EndElementData
$ElementData
1
"Attribute:TorsionConstant"
1
0
3
0
1
20
1 6.745330152831705e-07
2 6.745330152831705e-07
3 6.745330152831705e-07
4 6.745330152831705e-07
5 6.745330152831705e-07
6 6.745330152831705e-07
7 6.745330152831705e-07
8 6.745330152831705e-07
9 6.745330152831705e-07
10 6.745330152831705e-07
11 5.138404090615046e-06
12 5.138404090615046e-06
13 5.138404090615046e-06
14 5.138404090615046e-06
15 5.138404090615046e-06
16 5.138404090615046e-06
17 5.138404090615046e-06
18 5.138404090615046e-06
19 5.138404090615046e-06
20 5.138404090615046e-06
$EndElementData
$ElementData
1
"Attribute:UniformLoadGlobalX"
1
0
3
0
1
20
1 0
2 0
3 0
4 0
5 0
6 0
7 0
8 0
9 0
10 0
11 0
12 0
13 0
14 0
15 0
16 0
17 0
18 0
19 0
20 0
$EndElementData
$ElementData
1
"Attribute:UniformLoadGlobalY"
1
0
3
0
1
20
1 0
2 0
3 0
4 0
5 0
6 0
7 0
8 0
9 0
10 0
11 0
12 0
13 0
14 0
15 0
16 0
17 0
18 0
19 0
20 0
$EndElementData
$ElementData
1
"Attribute:UniformLoadGlobalZ"
1
0
3
0
1
20
1 0
2 0
3 0
4 0
5 0
6 0
7 0
8 0
9 0
10 0
11 0
12 0
13 0
14 0
15 0
16 0
17 0
18 0
19 0
20 0
$EndElementData
$ElementData
1
"Attribute:UniformLoadLocalX"
1
0
3
0
1
20
1 0
2 0
3 0
4 0
5 0
6 0
7 0
8 0
9 0
10 0
11 0
12 0
13 0
14 0
15 0
16 0
17 0
18 0
19 0
20 0
$EndElementData
$ElementData
1
"Attribute:UniformLoadLocalY"
1
0
3
0
1
20
1 0
2 0
3 0
4 0
5 0
6 0
7 0
8 0
9 0
10 0
11 0
12 0
13 0
14 0
15 0
16 0
17 0
18 0
19 0
20 0
$EndElementData
$ElementData
1
"Attribute:UniformLoadLocalZ"
1
0
3
0
1
20
1 0
2 0
3 0
4 0
5 0
6 0
7 0
8 0
9 0
10 0
11 0
12 0
13 0
14 0
15 0
16 0
17 0
18 0
19 0
20 0
$EndElementData
$ElementData
1
"BeamOrientation"
1
0
3
0
3
20
1 0 0 0
2 0 0 0
3 0 0 0
4 0 0 0
5 0 0 0
6 0 0 0
7 0 0 0
8 0 0 0
9 0 0 0
10 0 0 0
11 0 0 0
12 0 0 0
13 0 0 0
14 0 0 0
15 0 0 0
16 0 0 0
17 0 0 0
18 0 0 0
19 0 0 0
20 0 0 0
$EndElementData
$AnafData
1
1
GLOBAL 3 1
"Gravity"
0 -9.80665 0
$EndAnafData
