$MeshFormat
4.1 0 8
$EndMeshFormat
$PhysicalNames
2
1 1 "Material:Titanium Ti-6Al-4V (Grade 5, annealed)"
1 2 "Section:Box 120x60x4"
$EndPhysicalNames
$Entities
0 1 0 0
1 -1 -0.8 -0.3 1.5 0 0.3 2 1 2 0
$EndEntities
$Nodes
1 8 1 8
1 1 0 8
1
2
3
4
5
6
7
8
0 0 -0.3
1.5 0 -0.3
-1 -0.8 -0.3
0.6 -0.8 -0.3
0 0 0.3
1.5 0 0.3
-1 -0.8 0.3
0.6 -0.8 0.3
$EndNodes
$Elements
1 11 1 11
1 1 1 11
1 1 3
2 1 4
3 2 4
4 3 4
5 5 7
6 5 8
7 6 8
8 7 8
9 3 7
10 4 8
11 3 8
$EndElements
$NodeData
1
"Fixity"
1
0
3
0
3
8
1 1 1 1
2 1 1 1
3 0 0 0
4 0 0 0
5 1 1 1
6 1 1 1
7 0 0 0
8 0 0 0
$EndNodeData
$NodeData
1
"FixityRotation"
1
0
3
0
3
8
1 1 1 1
2 1 1 1
3 0 0 0
4 0 0 0
5 1 1 1
6 1 1 1
7 0 0 0
8 0 0 0
$EndNodeData
$NodeData
1
"NodalForce"
1
0
3
0
3
8
1 0 0 0
2 0 0 0
3 -30000 -9400 0
4 -30000 -9400 0
5 0 0 0
6 0 0 0
7 -30000 -9400 0
8 -30000 -9400 0
$EndNodeData
$ElementData
1
"CrossSectionArea"
1
0
3
0
1
11
1 0.0013347964473723111
2 0.0013347964473723111
3 0.0013347964473723111
4 0.0013347964473723111
5 0.0013347964473723111
6 0.0013347964473723111
7 0.0013347964473723111
8 0.0013347964473723111
9 0.0013347964473723111
10 0.0013347964473723111
11 0.0013347964473723111
$EndElementData
$ElementData
1
"Attribute:ElementFormulation"
1
0
3
0
1
11
1 1
2 1
3 1
4 1
5 1
6 1
7 1
8 1
9 1
10 1
11 1
$EndElementData
$ElementData
1
"MaterialID"
1
0
3
0
1
11
1 15
2 15
3 15
4 15
5 15
6 15
7 15
8 15
9 15
10 15
11 15
$EndElementData
$ElementData
1
"Attribute:SecondMomentY"
1
0
3
0
1
11
1 8.124707428089777e-07
2 8.124707428089777e-07
3 8.124707428089777e-07
4 8.124707428089777e-07
5 8.124707428089777e-07
6 8.124707428089777e-07
7 8.124707428089777e-07
8 8.124707428089777e-07
9 8.124707428089777e-07
10 8.124707428089777e-07
11 8.124707428089777e-07
$EndElementData
$ElementData
1
"Attribute:SecondMomentZ"
1
0
3
0
1
11
1 2.40739885597551e-06
2 2.40739885597551e-06
3 2.40739885597551e-06
4 2.40739885597551e-06
5 2.40739885597551e-06
6 2.40739885597551e-06
7 2.40739885597551e-06
8 2.40739885597551e-06
9 2.40739885597551e-06
10 2.40739885597551e-06
11 2.40739885597551e-06
$EndElementData
$ElementData
1
"Attribute:SectionDimension1"
1
0
3
0
1
11
1 0.12
2 0.12
3 0.12
4 0.12
5 0.12
6 0.12
7 0.12
8 0.12
9 0.12
10 0.12
11 0.12
$EndElementData
$ElementData
1
"Attribute:SectionDimension2"
1
0
3
0
1
11
1 0.06
2 0.06
3 0.06
4 0.06
5 0.06
6 0.06
7 0.06
8 0.06
9 0.06
10 0.06
11 0.06
$EndElementData
$ElementData
1
"Attribute:SectionDimension3"
1
0
3
0
1
11
1 0.004
2 0.004
3 0.004
4 0.004
5 0.004
6 0.004
7 0.004
8 0.004
9 0.004
10 0.004
11 0.004
$EndElementData
$ElementData
1
"Attribute:SectionDimension4"
1
0
3
0
1
11
1 0.008
2 0.008
3 0.008
4 0.008
5 0.008
6 0.008
7 0.008
8 0.008
9 0.008
10 0.008
11 0.008
$EndElementData
$ElementData
1
"Attribute:SectionDimension5"
1
0
3
0
1
11
1 0.004
2 0.004
3 0.004
4 0.004
5 0.004
6 0.004
7 0.004
8 0.004
9 0.004
10 0.004
11 0.004
$EndElementData
$ElementData
1
"Attribute:SectionShape"
1
0
3
0
1
11
1 4
2 4
3 4
4 4
5 4
6 4
7 4
8 4
9 4
10 4
11 4
$EndElementData
$ElementData
1
"Attribute:ShearAreaY"
1
0
3
0
1
11
1 0.0008513797678033605
2 0.0008513797678033605
3 0.0008513797678033605
4 0.0008513797678033605
5 0.0008513797678033605
6 0.0008513797678033605
7 0.0008513797678033605
8 0.0008513797678033605
9 0.0008513797678033605
10 0.0008513797678033605
11 0.0008513797678033605
$EndElementData
$ElementData
1
"Attribute:ShearAreaZ"
1
0
3
0
1
11
1 0.00031324319937173694
2 0.00031324319937173694
3 0.00031324319937173694
4 0.00031324319937173694
5 0.00031324319937173694
6 0.00031324319937173694
7 0.00031324319937173694
8 0.00031324319937173694
9 0.00031324319937173694
10 0.00031324319937173694
11 0.00031324319937173694
$EndElementData
$ElementData
1
"Attribute:TorsionConstant"
1
0
3
0
1
11
1 2.0111989769075784e-06
2 2.0111989769075784e-06
3 2.0111989769075784e-06
4 2.0111989769075784e-06
5 2.0111989769075784e-06
6 2.0111989769075784e-06
7 2.0111989769075784e-06
8 2.0111989769075784e-06
9 2.0111989769075784e-06
10 2.0111989769075784e-06
11 2.0111989769075784e-06
$EndElementData
$ElementData
1
"Attribute:UniformLoadGlobalX"
1
0
3
0
1
11
1 0
2 0
3 0
4 0
5 0
6 0
7 0
8 0
9 0
10 0
11 0
$EndElementData
$ElementData
1
"Attribute:UniformLoadGlobalY"
1
0
3
0
1
11
1 0
2 0
3 0
4 0
5 0
6 0
7 0
8 0
9 0
10 0
11 0
$EndElementData
$ElementData
1
"Attribute:UniformLoadGlobalZ"
1
0
3
0
1
11
1 0
2 0
3 0
4 0
5 0
6 0
7 0
8 0
9 0
10 0
11 0
$EndElementData
$ElementData
1
"Attribute:UniformLoadLocalX"
1
0
3
0
1
11
1 0
2 0
3 0
4 0
5 0
6 0
7 0
8 0
9 0
10 0
11 0
$EndElementData
$ElementData
1
"Attribute:UniformLoadLocalY"
1
0
3
0
1
11
1 0
2 0
3 0
4 0
5 0
6 0
7 0
8 0
9 0
10 0
11 0
$EndElementData
$ElementData
1
"Attribute:UniformLoadLocalZ"
1
0
3
0
1
11
1 0
2 0
3 0
4 0
5 0
6 0
7 0
8 0
9 0
10 0
11 0
$EndElementData
$ElementData
1
"BeamOrientation"
1
0
3
0
3
11
1 0 0 0
2 0 0 0
3 0 0 0
4 0 0 0
5 0 0 0
6 0 0 0
7 0 0 0
8 0 0 0
9 0 0 0
10 0 0 0
11 0 0 0
$EndElementData
$AnafData
1
1
GLOBAL 3 1
"Gravity"
0 -9.80665 0
$EndAnafData
