$MeshFormat
4.1 0 8
$EndMeshFormat
$PhysicalNames
4
1 1 "Material:Aluminum 7075-T6"
1 2 "Section:Spar I 120x60x2.5x6"
1 3 "Section:Spar I 180x70x3x8"
1 4 "Section:Spar I 250x80x4x10"
$EndPhysicalNames
$Entities
0 3 0 0
1 0 0 0 0 0 2 2 1 4 0
2 0 0 2 0 0 4 2 1 3 0
3 0 0 4 0 0 6 2 1 2 0
$EndEntities
$Nodes
1 13 1 13
1 1 0 13
1
2
3
4
5
6
7
8
9
10
11
12
13
0 0 0
0 0 0.5
0 0 1
0 0 1.5
0 0 2
0 0 2.5
0 0 3
0 0 3.5
0 0 4
0 0 4.5
0 0 5
0 0 5.5
0 0 6
$EndNodes
$Elements
3 12 1 12
1 1 1 4
1 1 2
2 2 3
3 3 4
4 4 5
1 2 1 4
5 5 6
6 6 7
7 7 8
8 8 9
1 3 1 4
9 9 10
10 10 11
11 11 12
12 12 13
$EndElements
$NodeData
1
"Displacement"
1
0
3
0
3
13
1 0 0 0
2 0 0.003296792442376054 0
3 0 0.011851770087890408 0
4 0 0.02481639552588427 0
5 0 0.041516095547083326 0
6 0 0.06455310198245222 0
7 0 0.09451170102947506 0
8 0 0.12934004801737084 0
9 0 0.16739756056537636 0
10 0 0.20985334140350573 0
11 0 0.25643460001517837 0
12 0 0.30484041041548715 0
13 0 0.3536902170134878 0
$EndNodeData
$NodeData
1
"Rotation"
1
0
3
0
3
13
1 0 0 0
2 -0.01158793363334201 0 0
3 -0.021304828243981982 0 0
4 -0.029498612234688835 0 0
5 -0.03651721400823151 0 0
6 -0.052850027321550475 0 0
7 -0.06466788900328965 0 0
8 -0.07279332363348467 0 0
9 -0.07804885579217134 0 0
10 -0.08940009065104629 0 0
11 -0.09522910314614423 0 0
12 -0.09737663406539084 0 0
13 -0.09768342419671178 0 0
$EndNodeData
$ElementData
1
"BeamSectionForce"
1
0
3
0
12
12
1 -0 17316.43194093995 -0 -0 -0 49317.94274420144 0 14601.259812809554 0 0 0 41338.51980576406
2 -0 14601.2598128095 -0 -0 -0 41338.51980576406 0 11886.087684679105 0 0 0 34716.68293139188
3 -0 11886.087684678992 -0 -0 -0 34716.68293139184 0 9170.915556548598 0 0 0 29452.432121084894
4 -0 9170.915556548835 -0 -0 -0 29452.43212108493 0 6455.74342841844 0 0 0 25545.767374843133
5 -0 14455.743428418833 -0 -0 -0 25545.76737484309 0 12228.060564617439 0 0 0 18874.816376584015
6 -0 12228.060564617697 -0 -0 -0 18874.816376584145 0 10000.377700816303 0 0 0 13317.706810225633
7 -0 10000.377700815689 -0 -0 -0 13317.706810225654 0 7772.694837014294 0 0 0 8874.438675768195
8 -0 7772.694837013273 -0 -0 -0 8874.43867576802 0 5545.011973211877 0 0 0 5545.011973211732
9 -0 5545.01197321178 -0 -0 -0 5545.011973211638 0 4158.758979908884 0 0 0 3119.0692349314686
10 -0 4158.758979909127 -0 -0 -0 3119.069234931643 0 2772.5059866062315 0 0 0 1386.2529933028034
11 -0 2772.5059866059505 -0 -0 -0 1386.2529933028852 0 1386.252993303055 0 0 0 346.56324832563934
12 -0 1386.252993303065 -0 -0 -0 346.5632483257594 0 1.6962076188065112e-10 0 0 0 -3.839062401311821e-11
$EndElementData
$ElementData
1
"AxialForce"
1
0
3
0
1
12
1 0
2 0
3 0
4 0
5 0
6 0
7 0
8 0
9 0
10 0
11 0
12 0
$EndElementData
$ElementData
1
"VonMisesStress"
1
0
3
0
1
12
1 229078772.7499802
2 192039945.32055107
3 161170133.33856454
4 136485120.90346104
5 248905062.51098362
6 185137853.33680055
7 131878158.02964382
8 89038635.31735155
9 131623228.84403218
10 76121592.37965435
11 36347804.237171896
12 11923311.65062598
$EndElementData
$NodeData
1
"Fixity"
1
0
3
0
3
13
1 1 1 1
2 0 0 0
3 0 0 0
4 0 0 0
5 0 0 0
6 0 0 0
7 0 0 0
8 0 0 0
9 0 0 0
10 0 0 0
11 0 0 0
12 0 0 0
13 0 0 0
$EndNodeData
$NodeData
1
"FixityRotation"
1
0
3
0
3
13
1 1 1 1
2 0 0 0
3 0 0 0
4 0 0 0
5 0 0 0
6 0 0 0
7 0 0 0
8 0 0 0
9 0 0 0
10 0 0 0
11 0 0 0
12 0 0 0
13 0 0 0
$EndNodeData
$NodeData
1
"NodalForce"
1
0
3
0
3
13
1 0 0 0
2 0 0 0
3 0 0 0
4 0 0 0
5 0 -8000 0
6 0 0 0
7 0 0 0
8 0 0 0
9 0 0 0
10 0 0 0
11 0 0 0
12 0 0 0
13 0 0 0
$EndNodeData
$ElementData
1
"CrossSectionArea"
1
0
3
0
1
12
1 0.0025277256661176925
2 0.0025277256661176925
3 0.0025277256661176925
4 0.0025277256661176925
5 0.0016197256661176916
6 0.0016197256661176916
7 0.0016197256661176916
8 0.0016197256661176916
9 0.0009977256661176915
10 0.0009977256661176915
11 0.0009977256661176915
12 0.0009977256661176915
$EndElementData
$ElementData
1
"Attribute:ElementFormulation"
1
0
3
0
1
12
1 2
2 2
3 2
4 2
5 2
6 2
7 2
8 2
9 2
10 2
11 2
12 2
$EndElementData
$ElementData
1
"MaterialID"
1
0
3
0
1
12
1 13
2 13
3 13
4 13
5 13
6 13
7 13
8 13
9 13
10 13
11 13
12 13
$EndElementData
$ElementData
1
"Attribute:SecondMomentY"
1
0
3
0
1
12
1 8.54617524401707e-07
2 8.54617524401707e-07
3 8.54617524401707e-07
4 8.54617524401707e-07
5 4.5774116082098154e-07
6 4.5774116082098154e-07
7 4.5774116082098154e-07
8 4.5774116082098154e-07
9 2.161715525930156e-07
10 2.161715525930156e-07
11 2.161715525930156e-07
12 2.161715525930156e-07
$EndElementData
$ElementData
1
"Attribute:SecondMomentZ"
1
0
3
0
1
12
1 2.7209987138529098e-05
2 2.7209987138529098e-05
3 2.7209987138529098e-05
4 2.7209987138529098e-05
5 9.44333359832261e-06
6 9.44333359832261e-06
7 9.44333359832261e-06
8 9.44333359832261e-06
9 2.625854840320881e-06
10 2.625854840320881e-06
11 2.625854840320881e-06
12 2.625854840320881e-06
$EndElementData
$ElementData
1
"Attribute:SectionDimension1"
1
0
3
0
1
12
1 0.25
2 0.25
3 0.25
4 0.25
5 0.18
6 0.18
7 0.18
8 0.18
9 0.12
10 0.12
11 0.12
12 0.12
$EndElementData
$ElementData
1
"Attribute:SectionDimension2"
1
0
3
0
1
12
1 0.08
2 0.08
3 0.08
4 0.08
5 0.07
6 0.07
7 0.07
8 0.07
9 0.06
10 0.06
11 0.06
12 0.06
$EndElementData
$ElementData
1
"Attribute:SectionDimension3"
1
0
3
0
1
12
1 0.004
2 0.004
3 0.004
4 0.004
5 0.003
6 0.003
7 0.003
8 0.003
9 0.0025
10 0.0025
11 0.0025
12 0.0025
$EndElementData
$ElementData
1
"Attribute:SectionDimension4"
1
0
3
0
1
12
1 0.01
2 0.01
3 0.01
4 0.01
5 0.008
6 0.008
7 0.008
8 0.008
9 0.006
10 0.006
11 0.006
12 0.006
$EndElementData
$ElementData
1
"Attribute:SectionDimension5"
1
0
3
0
1
12
1 0.003
2 0.003
3 0.003
4 0.003
5 0.003
6 0.003
7 0.003
8 0.003
9 0.003
10 0.003
11 0.003
12 0.003
$EndElementData
$ElementData
1
"Attribute:SectionShape"
1
0
3
0
1
12
1 5
2 5
3 5
4 5
5 5
6 5
7 5
8 5
9 5
10 5
11 5
12 5
$EndElementData
$ElementData
1
"Attribute:ShearAreaY"
1
0
3
0
1
12
1 0.0009393949486958279
2 0.0009393949486958279
3 0.0009393949486958279
4 0.0009393949486958279
5 0.0005042937431124136
6 0.0005042937431124136
7 0.0005042937431124136
8 0.0005042937431124136
9 0.000276373238853789
10 0.000276373238853789
11 0.000276373238853789
12 0.000276373238853789
$EndElementData
$ElementData
1
"Attribute:ShearAreaZ"
1
0
3
0
1
12
1 0.001361484325015995
2 0.001361484325015995
3 0.001361484325015995
4 0.001361484325015995
5 0.0009530390275111965
6 0.0009530390275111965
7 0.0009530390275111965
8 0.0009530390275111965
9 0.0006126679462571976
10 0.0006126679462571976
11 0.0006126679462571976
12 0.0006126679462571976
$EndElementData
$ElementData
1
"Attribute:TorsionConstant"
1
0
3
0
1
12
1 5.654227489471436e-08
2 5.654227489471436e-08
3 5.654227489471436e-08
4 5.654227489471436e-08
5 2.47389335600879e-08
6 2.47389335600879e-08
7 2.47389335600879e-08
8 2.47389335600879e-08
9 9.173769867327068e-09
10 9.173769867327068e-09
11 9.173769867327068e-09
12 9.173769867327068e-09
$EndElementData
$ElementData
1
"Attribute:UniformLoadGlobalX"
1
0
3
0
1
12
1 0
2 0
3 0
4 0
5 0
6 0
7 0
8 0
9 0
10 0
11 0
12 0
$EndElementData
$ElementData
1
"Attribute:UniformLoadGlobalY"
1
0
3
0
1
12
1 5500
2 5500
3 5500
4 5500
5 4500
6 4500
7 4500
8 4500
9 2800
10 2800
11 2800
12 2800
$EndElementData
$ElementData
1
"Attribute:UniformLoadGlobalZ"
1
0
3
0
1
12
1 0
2 0
3 0
4 0
5 0
6 0
7 0
8 0
9 0
10 0
11 0
12 0
$EndElementData
$ElementData
1
"Attribute:UniformLoadLocalX"
1
0
3
0
1
12
1 0
2 0
3 0
4 0
5 0
6 0
7 0
8 0
9 0
10 0
11 0
12 0
$EndElementData
$ElementData
1
"Attribute:UniformLoadLocalY"
1
0
3
0
1
12
1 0
2 0
3 0
4 0
5 0
6 0
7 0
8 0
9 0
10 0
11 0
12 0
$EndElementData
$ElementData
1
"Attribute:UniformLoadLocalZ"
1
0
3
0
1
12
1 0
2 0
3 0
4 0
5 0
6 0
7 0
8 0
9 0
10 0
11 0
12 0
$EndElementData
$ElementData
1
"BeamOrientation"
1
0
3
0
3
12
1 0 0 0
2 0 0 0
3 0 0 0
4 0 0 0
5 0 0 0
6 0 0 0
7 0 0 0
8 0 0 0
9 0 0 0
10 0 0 0
11 0 0 0
12 0 0 0
$EndElementData
$AnafData
1
1
GLOBAL 3 1
"Gravity"
0 -9.80665 0
$EndAnafData
