$MeshFormat
4.1 0 8
$EndMeshFormat
$PhysicalNames
4
1 1 "Material:Aluminum 2024-T3"
1 2 "Section:Tube 25.4x1.24"
1 3 "Section:Box 60x40x3"
1 4 "Section:Box 80x40x3"
$EndPhysicalNames
$Entities
0 3 0 0
1 0 -1 -1 1.5 1 1 2 1 4 0
2 0 -0.38268343236509034 -0.9238795325112865 1.5 -0.3826834323650897 0.9238795325112867 2 1 3 0
3 0 -1 -1 1.5 1 1 2 1 2 0
$EndEntities
$Nodes
1 64 1 64
1 1 0 64
1
2
3
4
5
6
7
8
9
10
11
12
13
14
15
16
17
18
19
20
21
22
23
24
25
26
27
28
29
30
31
32
33
34
35
36
37
38
39
40
41
42
43
44
45
46
47
48
49
50
51
52
53
54
55
56
57
58
59
60
61
62
63
64
0 1 0
0 0.9238795325112867 0.3826834323650898
0 0.7071067811865476 0.7071067811865475
0 0.38268343236508984 0.9238795325112867
0 6.123233995736766e-17 1
0 -0.3826834323650897 0.9238795325112867
0 -0.7071067811865475 0.7071067811865476
0 -0.9238795325112867 0.3826834323650899
0 -1 1.2246467991473532e-16
0 -0.9238795325112868 -0.38268343236508967
0 -0.7071067811865477 -0.7071067811865475
0 -0.38268343236509034 -0.9238795325112865
0 -1.8369701987210297e-16 -1
0 0.38268343236509 -0.9238795325112866
0 0.7071067811865474 -0.7071067811865477
0 0.9238795325112865 -0.3826834323650904
0.5 1 0
0.5 0.9238795325112867 0.3826834323650898
0.5 0.7071067811865476 0.7071067811865475
0.5 0.38268343236508984 0.9238795325112867
0.5 6.123233995736766e-17 1
0.5 -0.3826834323650897 0.9238795325112867
0.5 -0.7071067811865475 0.7071067811865476
0.5 -0.9238795325112867 0.3826834323650899
0.5 -1 1.2246467991473532e-16
0.5 -0.9238795325112868 -0.38268343236508967
0.5 -0.7071067811865477 -0.7071067811865475
0.5 -0.38268343236509034 -0.9238795325112865
0.5 -1.8369701987210297e-16 -1
0.5 0.38268343236509 -0.9238795325112866
0.5 0.7071067811865474 -0.7071067811865477
0.5 0.9238795325112865 -0.3826834323650904
1 1 0
1 0.9238795325112867 0.3826834323650898
1 0.7071067811865476 0.7071067811865475
1 0.38268343236508984 0.9238795325112867
1 6.123233995736766e-17 1
1 -0.3826834323650897 0.9238795325112867
1 -0.7071067811865475 0.7071067811865476
1 -0.9238795325112867 0.3826834323650899
1 -1 1.2246467991473532e-16
1 -0.9238795325112868 -0.38268343236508967
1 -0.7071067811865477 -0.7071067811865475
1 -0.38268343236509034 -0.9238795325112865
1 -1.8369701987210297e-16 -1
1 0.38268343236509 -0.9238795325112866
1 0.7071067811865474 -0.7071067811865477
1 0.9238795325112865 -0.3826834323650904
1.5 1 0
1.5 0.9238795325112867 0.3826834323650898
1.5 0.7071067811865476 0.7071067811865475
1.5 0.38268343236508984 0.9238795325112867
1.5 6.123233995736766e-17 1
1.5 -0.3826834323650897 0.9238795325112867
1.5 -0.7071067811865475 0.7071067811865476
1.5 -0.9238795325112867 0.3826834323650899
1.5 -1 1.2246467991473532e-16
1.5 -0.9238795325112868 -0.38268343236508967
1.5 -0.7071067811865477 -0.7071067811865475
1.5 -0.38268343236509034 -0.9238795325112865
1.5 -1.8369701987210297e-16 -1
1.5 0.38268343236509 -0.9238795325112866
1.5 0.7071067811865474 -0.7071067811865477
1.5 0.9238795325112865 -0.3826834323650904
$EndNodes
$Elements
3 116 1 116
1 1 1 64
1 1 2
2 2 3
3 3 4
4 4 5
5 5 6
6 6 7
7 7 8
8 8 9
9 9 10
10 10 11
11 11 12
12 12 13
13 13 14
14 14 15
15 15 16
16 16 1
18 17 18
19 18 19
20 19 20
21 20 21
22 21 22
23 22 23
24 23 24
25 24 25
26 25 26
27 26 27
28 27 28
29 28 29
30 29 30
31 30 31
32 31 32
33 32 17
35 33 34
36 34 35
37 35 36
38 36 37
39 37 38
40 38 39
41 39 40
42 40 41
43 41 42
44 42 43
45 43 44
46 44 45
47 45 46
48 46 47
49 47 48
50 48 33
52 49 50
53 50 51
54 51 52
55 52 53
56 53 54
57 54 55
58 55 56
59 56 57
60 57 58
61 58 59
62 59 60
63 60 61
64 61 62
65 62 63
66 63 64
67 64 49
1 2 1 4
17 6 12
34 22 28
51 38 44
68 54 60
1 3 1 48
69 1 17
70 2 18
71 3 19
72 4 20
73 5 21
74 6 22
75 7 23
76 8 24
77 9 25
78 10 26
79 11 27
80 12 28
81 13 29
82 14 30
83 15 31
84 16 32
85 17 33
86 18 34
87 19 35
88 20 36
89 21 37
90 22 38
91 23 39
92 24 40
93 25 41
94 26 42
95 27 43
96 28 44
97 29 45
98 30 46
99 31 47
100 32 48
101 33 49
102 34 50
103 35 51
104 36 52
105 37 53
106 38 54
107 39 55
108 40 56
109 41 57
110 42 58
111 43 59
112 44 60
113 45 61
114 46 62
115 47 63
116 48 64
$EndElements
$NodeData
1
"Fixity"
1
0
3
0
3
64
1 0 0 0
2 0 0 0
3 0 0 0
4 0 0 0
5 0 0 0
6 0 0 0
7 0 0 0
8 0 0 0
9 1 1 1
10 0 0 0
11 0 0 0
12 0 0 0
13 0 0 0
14 0 0 0
15 0 0 0
16 0 0 0
17 0 0 0
18 0 0 0
19 0 0 0
20 0 0 0
21 0 0 0
22 0 0 0
23 0 0 0
24 0 0 0
25 0 0 0
26 0 0 0
27 0 0 0
28 0 0 0
29 0 0 0
30 0 0 0
31 0 0 0
32 0 0 0
33 0 0 0
34 0 0 0
35 0 0 0
36 0 0 0
37 0 0 0
38 0 0 0
39 0 0 0
40 0 0 0
41 0 0 0
42 0 0 0
43 0 0 0
44 0 0 0
45 0 0 0
46 0 0 0
47 0 0 0
48 0 0 0
49 0 0 0
50 0 0 0
51 0 0 0
52 0 0 0
53 0 0 0
54 0 0 0
55 0 0 0
56 0 0 0
57 1 1 1
58 0 0 0
59 0 0 0
60 0 0 0
61 0 0 0
62 0 0 0
63 0 0 0
64 0 0 0
$EndNodeData
$NodeData
1
"FixityRotation"
1
0
3
0
3
64
1 0 0 0
2 0 0 0
3 0 0 0
4 0 0 0
5 0 0 0
6 0 0 0
7 0 0 0
8 0 0 0
9 1 1 1
10 0 0 0
11 0 0 0
12 0 0 0
13 0 0 0
14 0 0 0
15 0 0 0
16 0 0 0
17 0 0 0
18 0 0 0
19 0 0 0
20 0 0 0
21 0 0 0
22 0 0 0
23 0 0 0
24 0 0 0
25 0 0 0
26 0 0 0
27 0 0 0
28 0 0 0
29 0 0 0
30 0 0 0
31 0 0 0
32 0 0 0
33 0 0 0
34 0 0 0
35 0 0 0
36 0 0 0
37 0 0 0
38 0 0 0
39 0 0 0
40 0 0 0
41 0 0 0
42 0 0 0
43 0 0 0
44 0 0 0
45 0 0 0
46 0 0 0
47 0 0 0
48 0 0 0
49 0 0 0
50 0 0 0
51 0 0 0
52 0 0 0
53 0 0 0
54 0 0 0
55 0 0 0
56 0 0 0
57 1 1 1
58 0 0 0
59 0 0 0
60 0 0 0
61 0 0 0
62 0 0 0
63 0 0 0
64 0 0 0
$EndNodeData
$ElementData
1
"CrossSectionArea"
1
0
3
0
1
116
1 0.0006608230016469244
2 0.0006608230016469244
3 0.0006608230016469244
4 0.0006608230016469244
5 0.0006608230016469244
6 0.0006608230016469244
7 0.0006608230016469244
8 0.0006608230016469244
9 0.0006608230016469244
10 0.0006608230016469244
11 0.0006608230016469244
12 0.0006608230016469244
13 0.0006608230016469244
14 0.0006608230016469244
15 0.0006608230016469244
16 0.0006608230016469244
17 0.0005408230016469239
18 0.0006608230016469244
19 0.0006608230016469244
20 0.0006608230016469244
21 0.0006608230016469244
22 0.0006608230016469244
23 0.0006608230016469244
24 0.0006608230016469244
25 0.0006608230016469244
26 0.0006608230016469244
27 0.0006608230016469244
28 0.0006608230016469244
29 0.0006608230016469244
30 0.0006608230016469244
31 0.0006608230016469244
32 0.0006608230016469244
33 0.0006608230016469244
34 0.0005408230016469239
35 0.0006608230016469244
36 0.0006608230016469244
37 0.0006608230016469244
38 0.0006608230016469244
39 0.0006608230016469244
40 0.0006608230016469244
41 0.0006608230016469244
42 0.0006608230016469244
43 0.0006608230016469244
44 0.0006608230016469244
45 0.0006608230016469244
46 0.0006608230016469244
47 0.0006608230016469244
48 0.0006608230016469244
49 0.0006608230016469244
50 0.0006608230016469244
51 0.0005408230016469239
52 0.0006608230016469244
53 0.0006608230016469244
54 0.0006608230016469244
55 0.0006608230016469244
56 0.0006608230016469244
57 0.0006608230016469244
58 0.0006608230016469244
59 0.0006608230016469244
60 0.0006608230016469244
61 0.0006608230016469244
62 0.0006608230016469244
63 0.0006608230016469244
64 0.0006608230016469244
65 0.0006608230016469244
66 0.0006608230016469244
67 0.0006608230016469244
68 0.0005408230016469239
69 9.411708935330451e-05
70 9.411708935330451e-05
71 9.411708935330451e-05
72 9.411708935330451e-05
73 9.411708935330451e-05
74 9.411708935330451e-05
75 9.411708935330451e-05
76 9.411708935330451e-05
77 9.411708935330451e-05
78 9.411708935330451e-05
79 9.411708935330451e-05
80 9.411708935330451e-05
81 9.411708935330451e-05
82 9.411708935330451e-05
83 9.411708935330451e-05
84 9.411708935330451e-05
85 9.411708935330451e-05
86 9.411708935330451e-05
87 9.411708935330451e-05
88 9.411708935330451e-05
89 9.411708935330451e-05
90 9.411708935330451e-05
91 9.411708935330451e-05
92 9.411708935330451e-05
93 9.411708935330451e-05
94 9.411708935330451e-05
95 9.411708935330451e-05
96 9.411708935330451e-05
97 9.411708935330451e-05
98 9.411708935330451e-05
99 9.411708935330451e-05
100 9.411708935330451e-05
101 9.411708935330451e-05
102 9.411708935330451e-05
103 9.411708935330451e-05
104 9.411708935330451e-05
105 9.411708935330451e-05
106 9.411708935330451e-05
107 9.411708935330451e-05
108 9.411708935330451e-05
109 9.411708935330451e-05
110 9.411708935330451e-05
111 9.411708935330451e-05
112 9.411708935330451e-05
113 9.411708935330451e-05
114 9.411708935330451e-05
115 9.411708935330451e-05
116 9.411708935330451e-05
$EndElementData
$ElementData
1
"Attribute:ElementFormulation"
1
0
3
0
1
116
1 1
2 1
3 1
4 1
5 1
6 1
7 1
8 1
9 1
10 1
11 1
12 1
13 1
14 1
15 1
16 1
17 1
18 1
19 1
20 1
21 1
22 1
23 1
24 1
25 1
26 1
27 1
28 1
29 1
30 1
31 1
32 1
33 1
34 1
35 1
36 1
37 1
38 1
39 1
40 1
41 1
42 1
43 1
44 1
45 1
46 1
47 1
48 1
49 1
50 1
51 1
52 1
53 1
54 1
55 1
56 1
57 1
58 1
59 1
60 1
61 1
62 1
63 1
64 1
65 1
66 1
67 1
68 1
69 1
70 1
71 1
72 1
73 1
74 1
75 1
76 1
77 1
78 1
79 1
80 1
81 1
82 1
83 1
84 1
85 1
86 1
87 1
88 1
89 1
90 1
91 1
92 1
93 1
94 1
95 1
96 1
97 1
98 1
99 1
100 1
101 1
102 1
103 1
104 1
105 1
106 1
107 1
108 1
109 1
110 1
111 1
112 1
113 1
114 1
115 1
116 1
$EndElementData
$ElementData
1
"MaterialID"
1
0
3
0
1
116
1 10
2 10
3 10
4 10
5 10
6 10
7 10
8 10
9 10
10 10
11 10
12 10
13 10
14 10
15 10
16 10
17 10
18 10
19 10
20 10
21 10
22 10
23 10
24 10
25 10
26 10
27 10
28 10
29 10
30 10
31 10
32 10
33 10
34 10
35 10
36 10
37 10
38 10
39 10
40 10
41 10
42 10
43 10
44 10
45 10
46 10
47 10
48 10
49 10
50 10
51 10
52 10
53 10
54 10
55 10
56 10
57 10
58 10
59 10
60 10
61 10
62 10
63 10
64 10
65 10
66 10
67 10
68 10
69 10
70 10
71 10
72 10
73 10
74 10
75 10
76 10
77 10
78 10
79 10
80 10
81 10
82 10
83 10
84 10
85 10
86 10
87 10
88 10
89 10
90 10
91 10
92 10
93 10
94 10
95 10
96 10
97 10
98 10
99 10
100 10
101 10
102 10
103 10
104 10
105 10
106 10
107 10
108 10
109 10
110 10
111 10
112 10
113 10
114 10
115 10
116 10
$EndElementData
$ElementData
1
"Attribute:SecondMomentY"
1
0
3
0
1
116
1 1.7555556709132495e-07
2 1.7555556709132495e-07
3 1.7555556709132495e-07
4 1.7555556709132495e-07
5 1.7555556709132495e-07
6 1.7555556709132495e-07
7 1.7555556709132495e-07
8 1.7555556709132495e-07
9 1.7555556709132495e-07
10 1.7555556709132495e-07
11 1.7555556709132495e-07
12 1.7555556709132495e-07
13 1.7555556709132495e-07
14 1.7555556709132495e-07
15 1.7555556709132495e-07
16 1.7555556709132495e-07
17 1.3439556709132484e-07
18 1.7555556709132495e-07
19 1.7555556709132495e-07
20 1.7555556709132495e-07
21 1.7555556709132495e-07
22 1.7555556709132495e-07
23 1.7555556709132495e-07
24 1.7555556709132495e-07
25 1.7555556709132495e-07
26 1.7555556709132495e-07
27 1.7555556709132495e-07
28 1.7555556709132495e-07
29 1.7555556709132495e-07
30 1.7555556709132495e-07
31 1.7555556709132495e-07
32 1.7555556709132495e-07
33 1.7555556709132495e-07
34 1.3439556709132484e-07
35 1.7555556709132495e-07
36 1.7555556709132495e-07
37 1.7555556709132495e-07
38 1.7555556709132495e-07
39 1.7555556709132495e-07
40 1.7555556709132495e-07
41 1.7555556709132495e-07
42 1.7555556709132495e-07
43 1.7555556709132495e-07
44 1.7555556709132495e-07
45 1.7555556709132495e-07
46 1.7555556709132495e-07
47 1.7555556709132495e-07
48 1.7555556709132495e-07
49 1.7555556709132495e-07
50 1.7555556709132495e-07
51 1.3439556709132484e-07
52 1.7555556709132495e-07
53 1.7555556709132495e-07
54 1.7555556709132495e-07
55 1.7555556709132495e-07
56 1.7555556709132495e-07
57 1.7555556709132495e-07
58 1.7555556709132495e-07
59 1.7555556709132495e-07
60 1.7555556709132495e-07
61 1.7555556709132495e-07
62 1.7555556709132495e-07
63 1.7555556709132495e-07
64 1.7555556709132495e-07
65 1.7555556709132495e-07
66 1.7555556709132495e-07
67 1.7555556709132495e-07
68 1.3439556709132484e-07
69 6.885173318476729e-09
70 6.885173318476729e-09
71 6.885173318476729e-09
72 6.885173318476729e-09
73 6.885173318476729e-09
74 6.885173318476729e-09
75 6.885173318476729e-09
76 6.885173318476729e-09
77 6.885173318476729e-09
78 6.885173318476729e-09
79 6.885173318476729e-09
80 6.885173318476729e-09
81 6.885173318476729e-09
82 6.885173318476729e-09
83 6.885173318476729e-09
84 6.885173318476729e-09
85 6.885173318476729e-09
86 6.885173318476729e-09
87 6.885173318476729e-09
88 6.885173318476729e-09
89 6.885173318476729e-09
90 6.885173318476729e-09
91 6.885173318476729e-09
92 6.885173318476729e-09
93 6.885173318476729e-09
94 6.885173318476729e-09
95 6.885173318476729e-09
96 6.885173318476729e-09
97 6.885173318476729e-09
98 6.885173318476729e-09
99 6.885173318476729e-09
100 6.885173318476729e-09
101 6.885173318476729e-09
102 6.885173318476729e-09
103 6.885173318476729e-09
104 6.885173318476729e-09
105 6.885173318476729e-09
106 6.885173318476729e-09
107 6.885173318476729e-09
108 6.885173318476729e-09
109 6.885173318476729e-09
110 6.885173318476729e-09
111 6.885173318476729e-09
112 6.885173318476729e-09
113 6.885173318476729e-09
114 6.885173318476729e-09
115 6.885173318476729e-09
116 6.885173318476729e-09
$EndElementData
$ElementData
1
"Attribute:SecondMomentZ"
1
0
3
0
1
116
1 5.225056486723729e-07
2 5.225056486723729e-07
3 5.225056486723729e-07
4 5.225056486723729e-07
5 5.225056486723729e-07
6 5.225056486723729e-07
7 5.225056486723729e-07
8 5.225056486723729e-07
9 5.225056486723729e-07
10 5.225056486723729e-07
11 5.225056486723729e-07
12 5.225056486723729e-07
13 5.225056486723729e-07
14 5.225056486723729e-07
15 5.225056486723729e-07
16 5.225056486723729e-07
17 2.537883077171562e-07
18 5.225056486723729e-07
19 5.225056486723729e-07
20 5.225056486723729e-07
21 5.225056486723729e-07
22 5.225056486723729e-07
23 5.225056486723729e-07
24 5.225056486723729e-07
25 5.225056486723729e-07
26 5.225056486723729e-07
27 5.225056486723729e-07
28 5.225056486723729e-07
29 5.225056486723729e-07
30 5.225056486723729e-07
31 5.225056486723729e-07
32 5.225056486723729e-07
33 5.225056486723729e-07
34 2.537883077171562e-07
35 5.225056486723729e-07
36 5.225056486723729e-07
37 5.225056486723729e-07
38 5.225056486723729e-07
39 5.225056486723729e-07
40 5.225056486723729e-07
41 5.225056486723729e-07
42 5.225056486723729e-07
43 5.225056486723729e-07
44 5.225056486723729e-07
45 5.225056486723729e-07
46 5.225056486723729e-07
47 5.225056486723729e-07
48 5.225056486723729e-07
49 5.225056486723729e-07
50 5.225056486723729e-07
51 2.537883077171562e-07
52 5.225056486723729e-07
53 5.225056486723729e-07
54 5.225056486723729e-07
55 5.225056486723729e-07
56 5.225056486723729e-07
57 5.225056486723729e-07
58 5.225056486723729e-07
59 5.225056486723729e-07
60 5.225056486723729e-07
61 5.225056486723729e-07
62 5.225056486723729e-07
63 5.225056486723729e-07
64 5.225056486723729e-07
65 5.225056486723729e-07
66 5.225056486723729e-07
67 5.225056486723729e-07
68 2.537883077171562e-07
69 6.885173318476729e-09
70 6.885173318476729e-09
71 6.885173318476729e-09
72 6.885173318476729e-09
73 6.885173318476729e-09
74 6.885173318476729e-09
75 6.885173318476729e-09
76 6.885173318476729e-09
77 6.885173318476729e-09
78 6.885173318476729e-09
79 6.885173318476729e-09
80 6.885173318476729e-09
81 6.885173318476729e-09
82 6.885173318476729e-09
83 6.885173318476729e-09
84 6.885173318476729e-09
85 6.885173318476729e-09
86 6.885173318476729e-09
87 6.885173318476729e-09
88 6.885173318476729e-09
89 6.885173318476729e-09
90 6.885173318476729e-09
91 6.885173318476729e-09
92 6.885173318476729e-09
93 6.885173318476729e-09
94 6.885173318476729e-09
95 6.885173318476729e-09
96 6.885173318476729e-09
97 6.885173318476729e-09
98 6.885173318476729e-09
99 6.885173318476729e-09
100 6.885173318476729e-09
101 6.885173318476729e-09
102 6.885173318476729e-09
103 6.885173318476729e-09
104 6.885173318476729e-09
105 6.885173318476729e-09
106 6.885173318476729e-09
107 6.885173318476729e-09
108 6.885173318476729e-09
109 6.885173318476729e-09
110 6.885173318476729e-09
111 6.885173318476729e-09
112 6.885173318476729e-09
113 6.885173318476729e-09
114 6.885173318476729e-09
115 6.885173318476729e-09
116 6.885173318476729e-09
$EndElementData
$ElementData
1
"Attribute:SectionDimension1"
1
0
3
0
1
116
1 0.08
2 0.08
3 0.08
4 0.08
5 0.08
6 0.08
7 0.08
8 0.08
9 0.08
10 0.08
11 0.08
12 0.08
13 0.08
14 0.08
15 0.08
16 0.08
17 0.06
18 0.08
19 0.08
20 0.08
21 0.08
22 0.08
23 0.08
24 0.08
25 0.08
26 0.08
27 0.08
28 0.08
29 0.08
30 0.08
31 0.08
32 0.08
33 0.08
34 0.06
35 0.08
36 0.08
37 0.08
38 0.08
39 0.08
40 0.08
41 0.08
42 0.08
43 0.08
44 0.08
45 0.08
46 0.08
47 0.08
48 0.08
49 0.08
50 0.08
51 0.06
52 0.08
53 0.08
54 0.08
55 0.08
56 0.08
57 0.08
58 0.08
59 0.08
60 0.08
61 0.08
62 0.08
63 0.08
64 0.08
65 0.08
66 0.08
67 0.08
68 0.06
69 0.0254
70 0.0254
71 0.0254
72 0.0254
73 0.0254
74 0.0254
75 0.0254
76 0.0254
77 0.0254
78 0.0254
79 0.0254
80 0.0254
81 0.0254
82 0.0254
83 0.0254
84 0.0254
85 0.0254
86 0.0254
87 0.0254
88 0.0254
89 0.0254
90 0.0254
91 0.0254
92 0.0254
93 0.0254
94 0.0254
95 0.0254
96 0.0254
97 0.0254
98 0.0254
99 0.0254
100 0.0254
101 0.0254
102 0.0254
103 0.0254
104 0.0254
105 0.0254
106 0.0254
107 0.0254
108 0.0254
109 0.0254
110 0.0254
111 0.0254
112 0.0254
113 0.0254
114 0.0254
115 0.0254
116 0.0254
$EndElementData
$ElementData
1
"Attribute:SectionDimension2"
1
0
3
0
1
116
1 0.04
2 0.04
3 0.04
4 0.04
5 0.04
6 0.04
7 0.04
8 0.04
9 0.04
10 0.04
11 0.04
12 0.04
13 0.04
14 0.04
15 0.04
16 0.04
17 0.04
18 0.04
19 0.04
20 0.04
21 0.04
22 0.04
23 0.04
24 0.04
25 0.04
26 0.04
27 0.04
28 0.04
29 0.04
30 0.04
31 0.04
32 0.04
33 0.04
34 0.04
35 0.04
36 0.04
37 0.04
38 0.04
39 0.04
40 0.04
41 0.04
42 0.04
43 0.04
44 0.04
45 0.04
46 0.04
47 0.04
48 0.04
49 0.04
50 0.04
51 0.04
52 0.04
53 0.04
54 0.04
55 0.04
56 0.04
57 0.04
58 0.04
59 0.04
60 0.04
61 0.04
62 0.04
63 0.04
64 0.04
65 0.04
66 0.04
67 0.04
68 0.04
69 0.00124
70 0.00124
71 0.00124
72 0.00124
73 0.00124
74 0.00124
75 0.00124
76 0.00124
77 0.00124
78 0.00124
79 0.00124
80 0.00124
81 0.00124
82 0.00124
83 0.00124
84 0.00124
85 0.00124
86 0.00124
87 0.00124
88 0.00124
89 0.00124
90 0.00124
91 0.00124
92 0.00124
93 0.00124
94 0.00124
95 0.00124
96 0.00124
97 0.00124
98 0.00124
99 0.00124
100 0.00124
101 0.00124
102 0.00124
103 0.00124
104 0.00124
105 0.00124
106 0.00124
107 0.00124
108 0.00124
109 0.00124
110 0.00124
111 0.00124
112 0.00124
113 0.00124
114 0.00124
115 0.00124
116 0.00124
$EndElementData
$ElementData
1
"Attribute:SectionDimension3"
1
0
3
0
1
116
1 0.003
2 0.003
3 0.003
4 0.003
5 0.003
6 0.003
7 0.003
8 0.003
9 0.003
10 0.003
11 0.003
12 0.003
13 0.003
14 0.003
15 0.003
16 0.003
17 0.003
18 0.003
19 0.003
20 0.003
21 0.003
22 0.003
23 0.003
24 0.003
25 0.003
26 0.003
27 0.003
28 0.003
29 0.003
30 0.003
31 0.003
32 0.003
33 0.003
34 0.003
35 0.003
36 0.003
37 0.003
38 0.003
39 0.003
40 0.003
41 0.003
42 0.003
43 0.003
44 0.003
45 0.003
46 0.003
47 0.003
48 0.003
49 0.003
50 0.003
51 0.003
52 0.003
53 0.003
54 0.003
55 0.003
56 0.003
57 0.003
58 0.003
59 0.003
60 0.003
61 0.003
62 0.003
63 0.003
64 0.003
65 0.003
66 0.003
67 0.003
68 0.003
69 0
70 0
71 0
72 0
73 0
74 0
75 0
76 0
77 0
78 0
79 0
80 0
81 0
82 0
83 0
84 0
85 0
86 0
87 0
88 0
89 0
90 0
91 0
92 0
93 0
94 0
95 0
96 0
97 0
98 0
99 0
100 0
101 0
102 0
103 0
104 0
105 0
106 0
107 0
108 0
109 0
110 0
111 0
112 0
113 0
114 0
115 0
116 0
$EndElementData
$ElementData
1
"Attribute:SectionDimension4"
1
0
3
0
1
116
1 0.006
2 0.006
3 0.006
4 0.006
5 0.006
6 0.006
7 0.006
8 0.006
9 0.006
10 0.006
11 0.006
12 0.006
13 0.006
14 0.006
15 0.006
16 0.006
17 0.006
18 0.006
19 0.006
20 0.006
21 0.006
22 0.006
23 0.006
24 0.006
25 0.006
26 0.006
27 0.006
28 0.006
29 0.006
30 0.006
31 0.006
32 0.006
33 0.006
34 0.006
35 0.006
36 0.006
37 0.006
38 0.006
39 0.006
40 0.006
41 0.006
42 0.006
43 0.006
44 0.006
45 0.006
46 0.006
47 0.006
48 0.006
49 0.006
50 0.006
51 0.006
52 0.006
53 0.006
54 0.006
55 0.006
56 0.006
57 0.006
58 0.006
59 0.006
60 0.006
61 0.006
62 0.006
63 0.006
64 0.006
65 0.006
66 0.006
67 0.006
68 0.006
69 0
70 0
71 0
72 0
73 0
74 0
75 0
76 0
77 0
78 0
79 0
80 0
81 0
82 0
83 0
84 0
85 0
86 0
87 0
88 0
89 0
90 0
91 0
92 0
93 0
94 0
95 0
96 0
97 0
98 0
99 0
100 0
101 0
102 0
103 0
104 0
105 0
106 0
107 0
108 0
109 0
110 0
111 0
112 0
113 0
114 0
115 0
116 0
$EndElementData
$ElementData
1
"Attribute:SectionDimension5"
1
0
3
0
1
116
1 0.003
2 0.003
3 0.003
4 0.003
5 0.003
6 0.003
7 0.003
8 0.003
9 0.003
10 0.003
11 0.003
12 0.003
13 0.003
14 0.003
15 0.003
16 0.003
17 0.003
18 0.003
19 0.003
20 0.003
21 0.003
22 0.003
23 0.003
24 0.003
25 0.003
26 0.003
27 0.003
28 0.003
29 0.003
30 0.003
31 0.003
32 0.003
33 0.003
34 0.003
35 0.003
36 0.003
37 0.003
38 0.003
39 0.003
40 0.003
41 0.003
42 0.003
43 0.003
44 0.003
45 0.003
46 0.003
47 0.003
48 0.003
49 0.003
50 0.003
51 0.003
52 0.003
53 0.003
54 0.003
55 0.003
56 0.003
57 0.003
58 0.003
59 0.003
60 0.003
61 0.003
62 0.003
63 0.003
64 0.003
65 0.003
66 0.003
67 0.003
68 0.003
69 0
70 0
71 0
72 0
73 0
74 0
75 0
76 0
77 0
78 0
79 0
80 0
81 0
82 0
83 0
84 0
85 0
86 0
87 0
88 0
89 0
90 0
91 0
92 0
93 0
94 0
95 0
96 0
97 0
98 0
99 0
100 0
101 0
102 0
103 0
104 0
105 0
106 0
107 0
108 0
109 0
110 0
111 0
112 0
113 0
114 0
115 0
116 0
$EndElementData
$ElementData
1
"Attribute:SectionShape"
1
0
3
0
1
116
1 4
2 4
3 4
4 4
5 4
6 4
7 4
8 4
9 4
10 4
11 4
12 4
13 4
14 4
15 4
16 4
17 4
18 4
19 4
20 4
21 4
22 4
23 4
24 4
25 4
26 4
27 4
28 4
29 4
30 4
31 4
32 4
33 4
34 4
35 4
36 4
37 4
38 4
39 4
40 4
41 4
42 4
43 4
44 4
45 4
46 4
47 4
48 4
49 4
50 4
51 4
52 4
53 4
54 4
55 4
56 4
57 4
58 4
59 4
60 4
61 4
62 4
63 4
64 4
65 4
66 4
67 4
68 4
69 3
70 3
71 3
72 3
73 3
74 3
75 3
76 3
77 3
78 3
79 3
80 3
81 3
82 3
83 3
84 3
85 3
86 3
87 3
88 3
89 3
90 3
91 3
92 3
93 3
94 3
95 3
96 3
97 3
98 3
99 3
100 3
101 3
102 3
103 3
104 3
105 3
106 3
107 3
108 3
109 3
110 3
111 3
112 3
113 3
114 3
115 3
116 3
$EndElementData
$ElementData
1
"Attribute:ShearAreaY"
1
0
3
0
1
116
1 0.00042187725572707756
2 0.00042187725572707756
3 0.00042187725572707756
4 0.00042187725572707756
5 0.00042187725572707756
6 0.00042187725572707756
7 0.00042187725572707756
8 0.00042187725572707756
9 0.00042187725572707756
10 0.00042187725572707756
11 0.00042187725572707756
12 0.00042187725572707756
13 0.00042187725572707756
14 0.00042187725572707756
15 0.00042187725572707756
16 0.00042187725572707756
17 0.0003038347602687874
18 0.00042187725572707756
19 0.00042187725572707756
20 0.00042187725572707756
21 0.00042187725572707756
22 0.00042187725572707756
23 0.00042187725572707756
24 0.00042187725572707756
25 0.00042187725572707756
26 0.00042187725572707756
27 0.00042187725572707756
28 0.00042187725572707756
29 0.00042187725572707756
30 0.00042187725572707756
31 0.00042187725572707756
32 0.00042187725572707756
33 0.00042187725572707756
34 0.0003038347602687874
35 0.00042187725572707756
36 0.00042187725572707756
37 0.00042187725572707756
38 0.00042187725572707756
39 0.00042187725572707756
40 0.00042187725572707756
41 0.00042187725572707756
42 0.00042187725572707756
43 0.00042187725572707756
44 0.00042187725572707756
45 0.00042187725572707756
46 0.00042187725572707756
47 0.00042187725572707756
48 0.00042187725572707756
49 0.00042187725572707756
50 0.00042187725572707756
51 0.0003038347602687874
52 0.00042187725572707756
53 0.00042187725572707756
54 0.00042187725572707756
55 0.00042187725572707756
56 0.00042187725572707756
57 0.00042187725572707756
58 0.00042187725572707756
59 0.00042187725572707756
60 0.00042187725572707756
61 0.00042187725572707756
62 0.00042187725572707756
63 0.00042187725572707756
64 0.00042187725572707756
65 0.00042187725572707756
66 0.00042187725572707756
67 0.00042187725572707756
68 0.0003038347602687874
69 5.03819351557192e-05
70 5.03819351557192e-05
71 5.03819351557192e-05
72 5.03819351557192e-05
73 5.03819351557192e-05
74 5.03819351557192e-05
75 5.03819351557192e-05
76 5.03819351557192e-05
77 5.03819351557192e-05
78 5.03819351557192e-05
79 5.03819351557192e-05
80 5.03819351557192e-05
81 5.03819351557192e-05
82 5.03819351557192e-05
83 5.03819351557192e-05
84 5.03819351557192e-05
85 5.03819351557192e-05
86 5.03819351557192e-05
87 5.03819351557192e-05
88 5.03819351557192e-05
89 5.03819351557192e-05
90 5.03819351557192e-05
91 5.03819351557192e-05
92 5.03819351557192e-05
93 5.03819351557192e-05
94 5.03819351557192e-05
95 5.03819351557192e-05
96 5.03819351557192e-05
97 5.03819351557192e-05
98 5.03819351557192e-05
99 5.03819351557192e-05
100 5.03819351557192e-05
101 5.03819351557192e-05
102 5.03819351557192e-05
103 5.03819351557192e-05
104 5.03819351557192e-05
105 5.03819351557192e-05
106 5.03819351557192e-05
107 5.03819351557192e-05
108 5.03819351557192e-05
109 5.03819351557192e-05
110 5.03819351557192e-05
111 5.03819351557192e-05
112 5.03819351557192e-05
113 5.03819351557192e-05
114 5.03819351557192e-05
115 5.03819351557192e-05
116 5.03819351557192e-05
$EndElementData
$ElementData
1
"Attribute:ShearAreaZ"
1
0
3
0
1
116
1 0.00015395668953075635
2 0.00015395668953075635
3 0.00015395668953075635
4 0.00015395668953075635
5 0.00015395668953075635
6 0.00015395668953075635
7 0.00015395668953075635
8 0.00015395668953075635
9 0.00015395668953075635
10 0.00015395668953075635
11 0.00015395668953075635
12 0.00015395668953075635
13 0.00015395668953075635
14 0.00015395668953075635
15 0.00015395668953075635
16 0.00015395668953075635
17 0.00016836011980367143
18 0.00015395668953075635
19 0.00015395668953075635
20 0.00015395668953075635
21 0.00015395668953075635
22 0.00015395668953075635
23 0.00015395668953075635
24 0.00015395668953075635
25 0.00015395668953075635
26 0.00015395668953075635
27 0.00015395668953075635
28 0.00015395668953075635
29 0.00015395668953075635
30 0.00015395668953075635
31 0.00015395668953075635
32 0.00015395668953075635
33 0.00015395668953075635
34 0.00016836011980367143
35 0.00015395668953075635
36 0.00015395668953075635
37 0.00015395668953075635
38 0.00015395668953075635
39 0.00015395668953075635
40 0.00015395668953075635
41 0.00015395668953075635
42 0.00015395668953075635
43 0.00015395668953075635
44 0.00015395668953075635
45 0.00015395668953075635
46 0.00015395668953075635
47 0.00015395668953075635
48 0.00015395668953075635
49 0.00015395668953075635
50 0.00015395668953075635
51 0.00016836011980367143
52 0.00015395668953075635
53 0.00015395668953075635
54 0.00015395668953075635
55 0.00015395668953075635
56 0.00015395668953075635
57 0.00015395668953075635
58 0.00015395668953075635
59 0.00015395668953075635
60 0.00015395668953075635
61 0.00015395668953075635
62 0.00015395668953075635
63 0.00015395668953075635
64 0.00015395668953075635
65 0.00015395668953075635
66 0.00015395668953075635
67 0.00015395668953075635
68 0.00016836011980367143
69 5.03819351557192e-05
70 5.03819351557192e-05
71 5.03819351557192e-05
72 5.03819351557192e-05
73 5.03819351557192e-05
74 5.03819351557192e-05
75 5.03819351557192e-05
76 5.03819351557192e-05
77 5.03819351557192e-05
78 5.03819351557192e-05
79 5.03819351557192e-05
80 5.03819351557192e-05
81 5.03819351557192e-05
82 5.03819351557192e-05
83 5.03819351557192e-05
84 5.03819351557192e-05
85 5.03819351557192e-05
86 5.03819351557192e-05
87 5.03819351557192e-05
88 5.03819351557192e-05
89 5.03819351557192e-05
90 5.03819351557192e-05
91 5.03819351557192e-05
92 5.03819351557192e-05
93 5.03819351557192e-05
94 5.03819351557192e-05
95 5.03819351557192e-05
96 5.03819351557192e-05
97 5.03819351557192e-05
98 5.03819351557192e-05
99 5.03819351557192e-05
100 5.03819351557192e-05
101 5.03819351557192e-05
102 5.03819351557192e-05
103 5.03819351557192e-05
104 5.03819351557192e-05
105 5.03819351557192e-05
106 5.03819351557192e-05
107 5.03819351557192e-05
108 5.03819351557192e-05
109 5.03819351557192e-05
110 5.03819351557192e-05
111 5.03819351557192e-05
112 5.03819351557192e-05
113 5.03819351557192e-05
114 5.03819351557192e-05
115 5.03819351557192e-05
116 5.03819351557192e-05
$EndElementData
$ElementData
1
"Attribute:TorsionConstant"
1
0
3
0
1
116
1 4.387863098978217e-07
2 4.387863098978217e-07
3 4.387863098978217e-07
4 4.387863098978217e-07
5 4.387863098978217e-07
6 4.387863098978217e-07
7 4.387863098978217e-07
8 4.387863098978217e-07
9 4.387863098978217e-07
10 4.387863098978217e-07
11 4.387863098978217e-07
12 4.387863098978217e-07
13 4.387863098978217e-07
14 4.387863098978217e-07
15 4.387863098978217e-07
16 4.387863098978217e-07
17 2.928361519369186e-07
18 4.387863098978217e-07
19 4.387863098978217e-07
20 4.387863098978217e-07
21 4.387863098978217e-07
22 4.387863098978217e-07
23 4.387863098978217e-07
24 4.387863098978217e-07
25 4.387863098978217e-07
26 4.387863098978217e-07
27 4.387863098978217e-07
28 4.387863098978217e-07
29 4.387863098978217e-07
30 4.387863098978217e-07
31 4.387863098978217e-07
32 4.387863098978217e-07
33 4.387863098978217e-07
34 2.928361519369186e-07
35 4.387863098978217e-07
36 4.387863098978217e-07
37 4.387863098978217e-07
38 4.387863098978217e-07
39 4.387863098978217e-07
40 4.387863098978217e-07
41 4.387863098978217e-07
42 4.387863098978217e-07
43 4.387863098978217e-07
44 4.387863098978217e-07
45 4.387863098978217e-07
46 4.387863098978217e-07
47 4.387863098978217e-07
48 4.387863098978217e-07
49 4.387863098978217e-07
50 4.387863098978217e-07
51 2.928361519369186e-07
52 4.387863098978217e-07
53 4.387863098978217e-07
54 4.387863098978217e-07
55 4.387863098978217e-07
56 4.387863098978217e-07
57 4.387863098978217e-07
58 4.387863098978217e-07
59 4.387863098978217e-07
60 4.387863098978217e-07
61 4.387863098978217e-07
62 4.387863098978217e-07
63 4.387863098978217e-07
64 4.387863098978217e-07
65 4.387863098978217e-07
66 4.387863098978217e-07
67 4.387863098978217e-07
68 2.928361519369186e-07
69 1.3770346636953458e-08
70 1.3770346636953458e-08
71 1.3770346636953458e-08
72 1.3770346636953458e-08
73 1.3770346636953458e-08
74 1.3770346636953458e-08
75 1.3770346636953458e-08
76 1.3770346636953458e-08
77 1.3770346636953458e-08
78 1.3770346636953458e-08
79 1.3770346636953458e-08
80 1.3770346636953458e-08
81 1.3770346636953458e-08
82 1.3770346636953458e-08
83 1.3770346636953458e-08
84 1.3770346636953458e-08
85 1.3770346636953458e-08
86 1.3770346636953458e-08
87 1.3770346636953458e-08
88 1.3770346636953458e-08
89 1.3770346636953458e-08
90 1.3770346636953458e-08
91 1.3770346636953458e-08
92 1.3770346636953458e-08
93 1.3770346636953458e-08
94 1.3770346636953458e-08
95 1.3770346636953458e-08
96 1.3770346636953458e-08
97 1.3770346636953458e-08
98 1.3770346636953458e-08
99 1.3770346636953458e-08
100 1.3770346636953458e-08
101 1.3770346636953458e-08
102 1.3770346636953458e-08
103 1.3770346636953458e-08
104 1.3770346636953458e-08
105 1.3770346636953458e-08
106 1.3770346636953458e-08
107 1.3770346636953458e-08
108 1.3770346636953458e-08
109 1.3770346636953458e-08
110 1.3770346636953458e-08
111 1.3770346636953458e-08
112 1.3770346636953458e-08
113 1.3770346636953458e-08
114 1.3770346636953458e-08
115 1.3770346636953458e-08
116 1.3770346636953458e-08
$EndElementData
$ElementData
1
"Attribute:UniformLoadGlobalX"
1
0
3
0
1
116
1 0
2 0
3 0
4 0
5 0
6 0
7 0
8 0
9 0
10 0
11 0
12 0
13 0
14 0
15 0
16 0
17 0
18 0
19 0
20 0
21 0
22 0
23 0
24 0
25 0
26 0
27 0
28 0
29 0
30 0
31 0
32 0
33 0
34 0
35 0
36 0
37 0
38 0
39 0
40 0
41 0
42 0
43 0
44 0
45 0
46 0
47 0
48 0
49 0
50 0
51 0
52 0
53 0
54 0
55 0
56 0
57 0
58 0
59 0
60 0
61 0
62 0
63 0
64 0
65 0
66 0
67 0
68 0
69 0
70 0
71 0
72 0
73 0
74 0
75 0
76 0
77 0
78 0
79 0
80 0
81 0
82 0
83 0
84 0
85 0
86 0
87 0
88 0
89 0
90 0
91 0
92 0
93 0
94 0
95 0
96 0
97 0
98 0
99 0
100 0
101 0
102 0
103 0
104 0
105 0
106 0
107 0
108 0
109 0
110 0
111 0
112 0
113 0
114 0
115 0
116 0
$EndElementData
$ElementData
1
"Attribute:UniformLoadGlobalY"
1
0
3
0
1
116
1 0
2 0
3 0
4 0
5 0
6 0
7 0
8 0
9 0
10 0
11 0
12 0
13 0
14 0
15 0
16 0
17 -3000
18 0
19 0
20 0
21 0
22 0
23 0
24 0
25 0
26 0
27 0
28 0
29 0
30 0
31 0
32 0
33 0
34 -3000
35 0
36 0
37 0
38 0
39 0
40 0
41 0
42 0
43 0
44 0
45 0
46 0
47 0
48 0
49 0
50 0
51 -3000
52 0
53 0
54 0
55 0
56 0
57 0
58 0
59 0
60 0
61 0
62 0
63 0
64 0
65 0
66 0
67 0
68 -3000
69 0
70 0
71 0
72 0
73 0
74 0
75 0
76 0
77 0
78 0
79 0
80 0
81 0
82 0
83 0
84 0
85 0
86 0
87 0
88 0
89 0
90 0
91 0
92 0
93 0
94 0
95 0
96 0
97 0
98 0
99 0
100 0
101 0
102 0
103 0
104 0
105 0
106 0
107 0
108 0
109 0
110 0
111 0
112 0
113 0
114 0
115 0
116 0
$EndElementData
$ElementData
1
"Attribute:UniformLoadGlobalZ"
1
0
3
0
1
116
1 0
2 0
3 0
4 0
5 0
6 0
7 0
8 0
9 0
10 0
11 0
12 0
13 0
14 0
15 0
16 0
17 0
18 0
19 0
20 0
21 0
22 0
23 0
24 0
25 0
26 0
27 0
28 0
29 0
30 0
31 0
32 0
33 0
34 0
35 0
36 0
37 0
38 0
39 0
40 0
41 0
42 0
43 0
44 0
45 0
46 0
47 0
48 0
49 0
50 0
51 0
52 0
53 0
54 0
55 0
56 0
57 0
58 0
59 0
60 0
61 0
62 0
63 0
64 0
65 0
66 0
67 0
68 0
69 0
70 0
71 0
72 0
73 0
74 0
75 0
76 0
77 0
78 0
79 0
80 0
81 0
82 0
83 0
84 0
85 0
86 0
87 0
88 0
89 0
90 0
91 0
92 0
93 0
94 0
95 0
96 0
97 0
98 0
99 0
100 0
101 0
102 0
103 0
104 0
105 0
106 0
107 0
108 0
109 0
110 0
111 0
112 0
113 0
114 0
115 0
116 0
$EndElementData
$ElementData
1
"Attribute:UniformLoadLocalX"
1
0
3
0
1
116
1 0
2 0
3 0
4 0
5 0
6 0
7 0
8 0
9 0
10 0
11 0
12 0
13 0
14 0
15 0
16 0
17 0
18 0
19 0
20 0
21 0
22 0
23 0
24 0
25 0
26 0
27 0
28 0
29 0
30 0
31 0
32 0
33 0
34 0
35 0
36 0
37 0
38 0
39 0
40 0
41 0
42 0
43 0
44 0
45 0
46 0
47 0
48 0
49 0
50 0
51 0
52 0
53 0
54 0
55 0
56 0
57 0
58 0
59 0
60 0
61 0
62 0
63 0
64 0
65 0
66 0
67 0
68 0
69 0
70 0
71 0
72 0
73 0
74 0
75 0
76 0
77 0
78 0
79 0
80 0
81 0
82 0
83 0
84 0
85 0
86 0
87 0
88 0
89 0
90 0
91 0
92 0
93 0
94 0
95 0
96 0
97 0
98 0
99 0
100 0
101 0
102 0
103 0
104 0
105 0
106 0
107 0
108 0
109 0
110 0
111 0
112 0
113 0
114 0
115 0
116 0
$EndElementData
$ElementData
1
"Attribute:UniformLoadLocalY"
1
0
3
0
1
116
1 0
2 0
3 0
4 0
5 0
6 0
7 0
8 0
9 0
10 0
11 0
12 0
13 0
14 0
15 0
16 0
17 0
18 0
19 0
20 0
21 0
22 0
23 0
24 0
25 0
26 0
27 0
28 0
29 0
30 0
31 0
32 0
33 0
34 0
35 0
36 0
37 0
38 0
39 0
40 0
41 0
42 0
43 0
44 0
45 0
46 0
47 0
48 0
49 0
50 0
51 0
52 0
53 0
54 0
55 0
56 0
57 0
58 0
59 0
60 0
61 0
62 0
63 0
64 0
65 0
66 0
67 0
68 0
69 0
70 0
71 0
72 0
73 0
74 0
75 0
76 0
77 0
78 0
79 0
80 0
81 0
82 0
83 0
84 0
85 0
86 0
87 0
88 0
89 0
90 0
91 0
92 0
93 0
94 0
95 0
96 0
97 0
98 0
99 0
100 0
101 0
102 0
103 0
104 0
105 0
106 0
107 0
108 0
109 0
110 0
111 0
112 0
113 0
114 0
115 0
116 0
$EndElementData
$ElementData
1
"Attribute:UniformLoadLocalZ"
1
0
3
0
1
116
1 0
2 0
3 0
4 0
5 0
6 0
7 0
8 0
9 0
10 0
11 0
12 0
13 0
14 0
15 0
16 0
17 0
18 0
19 0
20 0
21 0
22 0
23 0
24 0
25 0
26 0
27 0
28 0
29 0
30 0
31 0
32 0
33 0
34 0
35 0
36 0
37 0
38 0
39 0
40 0
41 0
42 0
43 0
44 0
45 0
46 0
47 0
48 0
49 0
50 0
51 0
52 0
53 0
54 0
55 0
56 0
57 0
58 0
59 0
60 0
61 0
62 0
63 0
64 0
65 0
66 0
67 0
68 0
69 0
70 0
71 0
72 0
73 0
74 0
75 0
76 0
77 0
78 0
79 0
80 0
81 0
82 0
83 0
84 0
85 0
86 0
87 0
88 0
89 0
90 0
91 0
92 0
93 0
94 0
95 0
96 0
97 0
98 0
99 0
100 0
101 0
102 0
103 0
104 0
105 0
106 0
107 0
108 0
109 0
110 0
111 0
112 0
113 0
114 0
115 0
116 0
$EndElementData
$ElementData
1
"BeamOrientation"
1
0
3
0
3
116
1 0 0.9807852804032304 0.19509032201612825
2 0 0.8314696123025452 0.5555702330196022
3 0 0.5555702330196023 0.8314696123025452
4 0 0.19509032201612833 0.9807852804032304
5 0 -0.1950903220161282 0.9807852804032304
6 0 -0.555570233019602 0.8314696123025455
7 0 -0.8314696123025453 0.5555702330196022
8 0 -0.9807852804032304 0.1950903220161286
9 0 -0.9807852804032304 -0.19509032201612836
10 0 -0.8314696123025455 -0.555570233019602
11 0 -0.5555702330196022 -0.8314696123025452
12 0 -0.19509032201612866 -0.9807852804032303
13 0 0.1950903220161283 -0.9807852804032304
14 0 0.5555702330196018 -0.8314696123025455
15 0 0.8314696123025452 -0.5555702330196022
16 0 0.9807852804032303 -0.19509032201612872
17 0 0 0
18 0 0.9807852804032304 0.19509032201612825
19 0 0.8314696123025452 0.5555702330196022
20 0 0.5555702330196023 0.8314696123025452
21 0 0.19509032201612833 0.9807852804032304
22 0 -0.1950903220161282 0.9807852804032304
23 0 -0.555570233019602 0.8314696123025455
24 0 -0.8314696123025453 0.5555702330196022
25 0 -0.9807852804032304 0.1950903220161286
26 0 -0.9807852804032304 -0.19509032201612836
27 0 -0.8314696123025455 -0.555570233019602
28 0 -0.5555702330196022 -0.8314696123025452
29 0 -0.19509032201612866 -0.9807852804032303
30 0 0.1950903220161283 -0.9807852804032304
31 0 0.5555702330196018 -0.8314696123025455
32 0 0.8314696123025452 -0.5555702330196022
33 0 0.9807852804032303 -0.19509032201612872
34 0 0 0
35 0 0.9807852804032304 0.19509032201612825
36 0 0.8314696123025452 0.5555702330196022
37 0 0.5555702330196023 0.8314696123025452
38 0 0.19509032201612833 0.9807852804032304
39 0 -0.1950903220161282 0.9807852804032304
40 0 -0.555570233019602 0.8314696123025455
41 0 -0.8314696123025453 0.5555702330196022
42 0 -0.9807852804032304 0.1950903220161286
43 0 -0.9807852804032304 -0.19509032201612836
44 0 -0.8314696123025455 -0.555570233019602
45 0 -0.5555702330196022 -0.8314696123025452
46 0 -0.19509032201612866 -0.9807852804032303
47 0 0.1950903220161283 -0.9807852804032304
48 0 0.5555702330196018 -0.8314696123025455
49 0 0.8314696123025452 -0.5555702330196022
50 0 0.9807852804032303 -0.19509032201612872
51 0 0 0
52 0 0.9807852804032304 0.19509032201612825
53 0 0.8314696123025452 0.5555702330196022
54 0 0.5555702330196023 0.8314696123025452
55 0 0.19509032201612833 0.9807852804032304
56 0 -0.1950903220161282 0.9807852804032304
57 0 -0.555570233019602 0.8314696123025455
58 0 -0.8314696123025453 0.5555702330196022
59 0 -0.9807852804032304 0.1950903220161286
60 0 -0.9807852804032304 -0.19509032201612836
61 0 -0.8314696123025455 -0.555570233019602
62 0 -0.5555702330196022 -0.8314696123025452
63 0 -0.19509032201612866 -0.9807852804032303
64 0 0.1950903220161283 -0.9807852804032304
65 0 0.5555702330196018 -0.8314696123025455
66 0 0.8314696123025452 -0.5555702330196022
67 0 0.9807852804032303 -0.19509032201612872
68 0 0 0
69 0 0 0
70 0 0 0
71 0 0 0
72 0 0 0
73 0 0 0
74 0 0 0
75 0 0 0
76 0 0 0
77 0 0 0
78 0 0 0
79 0 0 0
80 0 0 0
81 0 0 0
82 0 0 0
83 0 0 0
84 0 0 0
85 0 0 0
86 0 0 0
87 0 0 0
88 0 0 0
89 0 0 0
90 0 0 0
91 0 0 0
92 0 0 0
93 0 0 0
94 0 0 0
95 0 0 0
96 0 0 0
97 0 0 0
98 0 0 0
99 0 0 0
100 0 0 0
101 0 0 0
102 0 0 0
103 0 0 0
104 0 0 0
105 0 0 0
106 0 0 0
107 0 0 0
108 0 0 0
109 0 0 0
110 0 0 0
111 0 0 0
112 0 0 0
113 0 0 0
114 0 0 0
115 0 0 0
116 0 0 0
$EndElementData
$AnafData
1
1
GLOBAL 3 1
"Gravity"
0 -9.80665 0
$EndAnafData
