$MeshFormat
4.1 0 8
$EndMeshFormat
$PhysicalNames
4
1 1 "Material:Aluminum 2024-T3"
1 2 "Section:CHS 114.3x5"
1 3 "Section:CHS 139.7x6.3"
1 4 "Section:Tube 101.6x2.11"
$EndPhysicalNames
$Entities
0 3 0 0
1 0 0 0 1.5 0 0 2 1 3 0
2 1.5 0 0 3 0 0 2 1 2 0
3 3 0 0 4.5 0 0 2 1 4 0
$EndEntities
$Nodes
1 10 1 10
1 1 0 10
1
2
3
4
5
6
7
8
9
10
0 0 0
0.5 0 0
1 0 0
1.5 0 0
2 0 0
2.5 0 0
3 0 0
3.5 0 0
4 0 0
4.5 0 0
$EndNodes
$Elements
3 9 1 9
1 1 1 3
1 1 2
2 2 3
3 3 4
1 2 1 3
4 4 5
5 5 6
6 6 7
1 3 1 3
7 7 8
8 8 9
9 9 10
$EndElements
$NodeData
1
"Fixity"
1
0
3
0
3
10
1 1 1 1
2 0 0 0
3 0 0 0
4 0 0 0
5 0 0 0
6 0 0 0
7 0 0 0
8 0 0 0
9 0 0 0
10 0 0 0
$EndNodeData
$NodeData
1
"FixityRotation"
1
0
3
0
3
10
1 1 1 1
2 0 0 0
3 0 0 0
4 0 0 0
5 0 0 0
6 0 0 0
7 0 0 0
8 0 0 0
9 0 0 0
10 0 0 0
$EndNodeData
$NodeData
1
"NodalForce"
1
0
3
0
3
10
1 0 0 0
2 0 0 0
3 0 0 0
4 0 0 0
5 0 0 0
6 0 0 0
7 0 0 0
8 0 0 0
9 0 0 0
10 0 -600 1200
$EndNodeData
$NodeData
1
"NodalMoment"
1
0
3
0
3
10
1 0 0 0
2 0 0 0
3 0 0 0
4 0 0 0
5 0 0 0
6 0 0 0
7 0 0 0
8 0 0 0
9 0 0 0
10 400 0 0
$EndNodeData
$ElementData
1
"CrossSectionArea"
1
0
3
0
1
9
1 0.002640257297929933
2 0.002640257297929933
3 0.002640257297929933
4 0.0017168803851868209
5 0.0017168803851868209
6 0.0017168803851868209
7 0.000659495382052919
8 0.000659495382052919
9 0.000659495382052919
$EndElementData
$ElementData
1
"Attribute:ElementFormulation"
1
0
3
0
1
9
1 1
2 1
3 1
4 1
5 1
6 1
7 1
8 1
9 1
$EndElementData
$ElementData
1
"MaterialID"
1
0
3
0
1
9
1 10
2 10
3 10
4 10
5 10
6 10
7 10
8 10
9 10
$EndElementData
$ElementData
1
"Attribute:SecondMomentY"
1
0
3
0
1
9
1 5.8862061216131055e-06
2 5.8862061216131055e-06
3 5.8862061216131055e-06
4 2.569202045307523e-06
5 2.569202045307523e-06
6 2.569202045307523e-06
7 8.163491207123878e-07
8 8.163491207123878e-07
9 8.163491207123878e-07
$EndElementData
$ElementData
1
"Attribute:SecondMomentZ"
1
0
3
0
1
9
1 5.8862061216131055e-06
2 5.8862061216131055e-06
3 5.8862061216131055e-06
4 2.569202045307523e-06
5 2.569202045307523e-06
6 2.569202045307523e-06
7 8.163491207123878e-07
8 8.163491207123878e-07
9 8.163491207123878e-07
$EndElementData
$ElementData
1
"Attribute:SectionDimension1"
1
0
3
0
1
9
1 0.1397
2 0.1397
3 0.1397
4 0.1143
5 0.1143
6 0.1143
7 0.1016
8 0.1016
9 0.1016
$EndElementData
$ElementData
1
"Attribute:SectionDimension2"
1
0
3
0
1
9
1 0.0063
2 0.0063
3 0.0063
4 0.005
5 0.005
6 0.005
7 0.00211
8 0.00211
9 0.00211
$EndElementData
$ElementData
1
"Attribute:SectionDimension3"
1
0
3
0
1
9
1 0
2 0
3 0
4 0
5 0
6 0
7 0
8 0
9 0
$EndElementData
$ElementData
1
"Attribute:SectionDimension4"
1
0
3
0
1
9
1 0
2 0
3 0
4 0
5 0
6 0
7 0
8 0
9 0
$EndElementData
$ElementData
1
"Attribute:SectionDimension5"
1
0
3
0
1
9
1 0
2 0
3 0
4 0
5 0
6 0
7 0
8 0
9 0
$EndElementData
$ElementData
1
"Attribute:SectionShape"
1
0
3
0
1
9
1 3
2 3
3 3
4 3
5 3
6 3
7 3
8 3
9 3
$EndElementData
$ElementData
1
"Attribute:ShearAreaY"
1
0
3
0
1
9
1 0.001412451389546542
2 0.001412451389546542
3 0.001412451389546542
4 0.0009182736033732371
5 0.0009182736033732371
6 0.0009182736033732371
7 0.0003518076905884543
8 0.0003518076905884543
9 0.0003518076905884543
$EndElementData
$ElementData
1
"Attribute:ShearAreaZ"
1
0
3
0
1
9
1 0.001412451389546542
2 0.001412451389546542
3 0.001412451389546542
4 0.0009182736033732371
5 0.0009182736033732371
6 0.0009182736033732371
7 0.0003518076905884543
8 0.0003518076905884543
9 0.0003518076905884543
$EndElementData
$ElementData
1
"Attribute:TorsionConstant"
1
0
3
0
1
9
1 1.1772412243226211e-05
2 1.1772412243226211e-05
3 1.1772412243226211e-05
4 5.138404090615046e-06
5 5.138404090615046e-06
6 5.138404090615046e-06
7 1.6326982414247755e-06
8 1.6326982414247755e-06
9 1.6326982414247755e-06
$EndElementData
$ElementData
1
"Attribute:UniformLoadGlobalX"
1
0
3
0
1
9
1 0
2 0
3 0
4 0
5 0
6 0
7 0
8 0
9 0
$EndElementData
$ElementData
1
"Attribute:UniformLoadGlobalY"
1
0
3
0
1
9
1 0
2 0
3 0
4 0
5 0
6 0
7 0
8 0
9 0
$EndElementData
$ElementData
1
"Attribute:UniformLoadGlobalZ"
1
0
3
0
1
9
1 0
2 0
3 0
4 0
5 0
6 0
7 0
8 0
9 0
$EndElementData
$ElementData
1
"Attribute:UniformLoadLocalX"
1
0
3
0
1
9
1 0
2 0
3 0
4 0
5 0
6 0
7 0
8 0
9 0
$EndElementData
$ElementData
1
"Attribute:UniformLoadLocalY"
1
0
3
0
1
9
1 0
2 0
3 0
4 0
5 0
6 0
7 0
8 0
9 0
$EndElementData
$ElementData
1
"Attribute:UniformLoadLocalZ"
1
0
3
0
1
9
1 0
2 0
3 0
4 0
5 0
6 0
7 0
8 0
9 0
$EndElementData
$ElementData
1
"BeamOrientation"
1
0
3
0
3
9
1 0 0 0
2 0 0 0
3 0 0 0
4 0 0 0
5 0 0 0
6 0 0 0
7 0 0 0
8 0 0 0
9 0 0 0
$EndElementData
$AnafData
1
1
GLOBAL 3 1
"Gravity"
0 -9.80665 0
$EndAnafData
