$MeshFormat
4.1 0 8
$EndMeshFormat
$PhysicalNames
2
1 1 "Material:Aluminum 7075-T6"
1 2 "Section:Tube 25.4x1.24"
$EndPhysicalNames
$Entities
0 1 0 0
1 -0.24748737341529167 0 -0.24748737341529167 0.24748737341529164 0 0.24748737341529164 2 1 2 0
$EndEntities
$Nodes
1 9 1 9
1 1 0 9
1
2
3
4
5
6
7
8
9
0 0 0
0.12374368670764582 0 0.1237436867076458
0.24748737341529164 0 0.2474873734152916
-0.1237436867076458 0 0.12374368670764582
-0.2474873734152916 0 0.24748737341529164
-0.12374368670764584 0 -0.1237436867076458
-0.24748737341529167 0 -0.2474873734152916
0.12374368670764578 0 -0.12374368670764584
0.24748737341529156 0 -0.24748737341529167
$EndNodes
$Elements
1 8 1 8
1 1 1 8
1 1 2
2 2 3
3 1 4
4 4 5
5 1 6
6 6 7
7 1 8
8 8 9
$EndElements
$NodeData
1
"Displacement"
1
0
3
0
3
9
1 0 0 0
2 1.3159770682814287e-05 0.0002452990133452413 -1.3159770682814287e-05
3 5.263908273125729e-05 0.0007862708034098577 -5.26390827312573e-05
4 -1.3159770682814052e-05 0.0002452990133452413 -1.3159770682814043e-05
5 -5.2639082731256296e-05 0.0007862708034098577 -5.263908273125628e-05
6 -1.3159770682813901e-05 0.00024529901334524183 1.315977068281391e-05
7 -5.263908273125556e-05 0.0007862708034098592 5.2639082731255584e-05
8 1.315977068281409e-05 0.0002452990133452421 1.3159770682814072e-05
9 5.263908273125634e-05 0.0007862708034098602 5.26390827312563e-05
$EndNodeData
$NodeData
1
"Rotation"
1
0
3
0
3
9
1 0 0 0
2 -0.0017862407057674975 0.00021269401345549532 0.0017862407057675019
3 -0.002386078610188942 0.00042538802691099184 0.0023860786101889495
4 -0.0017862407057675019 -0.00021269401345549093 -0.0017862407057674977
5 -0.002386078610188949 -0.0004253880269109848 -0.0023860786101889417
6 0.0017862407057675008 0.00021269401345548803 -0.0017862407057675053
7 0.0023860786101889465 0.00042538802691097926 -0.0023860786101889534
8 0.0017862407057675064 -0.00021269401345549123 0.0017862407057675051
9 0.0023860786101889534 -0.0004253880269109848 0.0023860786101889526
$EndNodeData
$ElementData
1
"BeamSectionForce"
1
0
3
0
12
8
1 6.532507153398952e-14 26.59225570603939 3.197442310920451e-14 5.9889985698535475e-15 0.5999999999999936 9.46614474855685 6.532507153398952e-14 27.046127853019648 3.197442310920451e-14 5.9889985698535475e-15 0.6000000000000001 4.772786187139191
2 1.9597521460196858e-13 27.046127853019833 -2.842170943040401e-14 4.606921976810421e-15 0.6000000000000023 4.772786187139202 1.9597521460196858e-13 27.500000000000092 -2.842170943040401e-14 4.606921976810421e-15 0.5999999999999988 -5.577135975265435e-15
3 1.9597521460196858e-13 26.59225570603936 2.1316282072803006e-14 5.5283063721725055e-15 -0.5999999999999857 9.466144748556848 1.9597521460196858e-13 27.04612785301962 2.1316282072803006e-14 5.5283063721725055e-15 -0.5999999999999832 4.772786187139195
4 6.532507153398951e-14 27.046127853019833 -7.815970093361102e-14 5.067614174491463e-15 -0.5999999999999845 4.772786187139195 6.532507153398951e-14 27.500000000000092 -7.815970093361102e-14 5.067614174491463e-15 -0.6000000000000005 -5.577135975265435e-15
5 -1.3065014306797904e-13 26.592255706039474 -8.526512829121202e-14 5.9889985698535475e-15 0.5999999999999832 9.46614474855687 -1.3065014306797904e-13 27.046127853019733 -8.526512829121202e-14 5.9889985698535475e-15 0.5999999999999692 4.772786187139202
6 -3.9195042920393716e-13 27.046127853019662 1.5631940186722204e-13 3.224845383767294e-15 0.5999999999999712 4.772786187139202 -3.9195042920393716e-13 27.499999999999922 1.5631940186722204e-13 3.224845383767294e-15 0.5999999999999996 8.633718739936569e-15
7 2.613002861359581e-13 26.592255706039474 4.263256414560601e-14 9.213843953620842e-16 -0.5999999999999885 9.466144748556879 2.613002861359581e-13 27.046127853019733 4.263256414560601e-14 9.213843953620842e-16 -0.5999999999999821 4.7727861871392125
8 2.613002861359581e-13 27.04612785301972 -9.947598300641403e-14 -9.213843953620842e-16 -0.5999999999999819 4.772786187139205 2.613002861359581e-13 27.49999999999998 -9.947598300641403e-14 -9.213843953620842e-16 -0.6000000000000014 1.528291382335567e-15
$EndElementData
$ElementData
1
"AxialForce"
1
0
3
0
1
8
1 6.532507153398952e-14
2 1.9597521460196858e-13
3 1.9597521460196858e-13
4 6.532507153398951e-14
5 -1.3065014306797904e-13
6 -3.9195042920393716e-13
7 2.613002861359581e-13
8 2.613002861359581e-13
$EndElementData
$ElementData
1
"VonMisesStress"
1
0
3
0
1
8
1 17523012.849107172
2 8928375.508565618
3 17523012.849107172
4 8928375.508565601
5 17523012.849107213
6 8928375.508565612
7 17523012.84910723
8 8928375.50856562
$EndElementData
$NodeData
1
"Fixity"
1
0
3
0
3
9
1 1 1 1
2 0 0 0
3 0 0 0
4 0 0 0
5 0 0 0
6 0 0 0
7 0 0 0
8 0 0 0
9 0 0 0
$EndNodeData
$NodeData
1
"FixityRotation"
1
0
3
0
3
9
1 1 1 1
2 0 0 0
3 0 0 0
4 0 0 0
5 0 0 0
6 0 0 0
7 0 0 0
8 0 0 0
9 0 0 0
$EndNodeData
$NodeData
1
"NodalForce"
1
0
3
0
3
9
1 0 0 0
2 0 0 0
3 0 27.5 0
4 0 0 0
5 0 27.5 0
6 0 0 0
7 0 27.5 0
8 0 0 0
9 0 27.5 0
$EndNodeData
$NodeData
1
"NodalMoment"
1
0
3
0
3
9
1 0 0 0
2 0 0 0
3 0 0.6 0
4 0 0 0
5 0 -0.6 0
6 0 0 0
7 0 0.6 0
8 0 0 0
9 0 -0.6 0
$EndNodeData
$ElementData
1
"CrossSectionArea"
1
0
3
0
1
8
1 9.411708935330451e-05
2 9.411708935330451e-05
3 9.411708935330451e-05
4 9.411708935330451e-05
5 9.411708935330451e-05
6 9.411708935330451e-05
7 9.411708935330451e-05
8 9.411708935330451e-05
$EndElementData
$ElementData
1
"Attribute:ElementFormulation"
1
0
3
0
1
8
1 1
2 1
3 1
4 1
5 1
6 1
7 1
8 1
$EndElementData
$ElementData
1
"MaterialID"
1
0
3
0
1
8
1 13
2 13
3 13
4 13
5 13
6 13
7 13
8 13
$EndElementData
$ElementData
1
"Attribute:SecondMomentY"
1
0
3
0
1
8
1 6.885173318476729e-09
2 6.885173318476729e-09
3 6.885173318476729e-09
4 6.885173318476729e-09
5 6.885173318476729e-09
6 6.885173318476729e-09
7 6.885173318476729e-09
8 6.885173318476729e-09
$EndElementData
$ElementData
1
"Attribute:SecondMomentZ"
1
0
3
0
1
8
1 6.885173318476729e-09
2 6.885173318476729e-09
3 6.885173318476729e-09
4 6.885173318476729e-09
5 6.885173318476729e-09
6 6.885173318476729e-09
7 6.885173318476729e-09
8 6.885173318476729e-09
$EndElementData
$ElementData
1
"Attribute:SectionDimension1"
1
0
3
0
1
8
1 0.0254
2 0.0254
3 0.0254
4 0.0254
5 0.0254
6 0.0254
7 0.0254
8 0.0254
$EndElementData
$ElementData
1
"Attribute:SectionDimension2"
1
0
3
0
1
8
1 0.00124
2 0.00124
3 0.00124
4 0.00124
5 0.00124
6 0.00124
7 0.00124
8 0.00124
$EndElementData
$ElementData
1
"Attribute:SectionDimension3"
1
0
3
0
1
8
1 0
2 0
3 0
4 0
5 0
6 0
7 0
8 0
$EndElementData
$ElementData
1
"Attribute:SectionDimension4"
1
0
3
0
1
8
1 0
2 0
3 0
4 0
5 0
6 0
7 0
8 0
$EndElementData
$ElementData
1
"Attribute:SectionDimension5"
1
0
3
0
1
8
1 0
2 0
3 0
4 0
5 0
6 0
7 0
8 0
$EndElementData
$ElementData
1
"Attribute:SectionShape"
1
0
3
0
1
8
1 3
2 3
3 3
4 3
5 3
6 3
7 3
8 3
$EndElementData
$ElementData
1
"Attribute:ShearAreaY"
1
0
3
0
1
8
1 5.03819351557192e-05
2 5.03819351557192e-05
3 5.03819351557192e-05
4 5.03819351557192e-05
5 5.03819351557192e-05
6 5.03819351557192e-05
7 5.03819351557192e-05
8 5.03819351557192e-05
$EndElementData
$ElementData
1
"Attribute:ShearAreaZ"
1
0
3
0
1
8
1 5.03819351557192e-05
2 5.03819351557192e-05
3 5.03819351557192e-05
4 5.03819351557192e-05
5 5.03819351557192e-05
6 5.03819351557192e-05
7 5.03819351557192e-05
8 5.03819351557192e-05
$EndElementData
$ElementData
1
"Attribute:TorsionConstant"
1
0
3
0
1
8
1 1.3770346636953458e-08
2 1.3770346636953458e-08
3 1.3770346636953458e-08
4 1.3770346636953458e-08
5 1.3770346636953458e-08
6 1.3770346636953458e-08
7 1.3770346636953458e-08
8 1.3770346636953458e-08
$EndElementData
$ElementData
1
"Attribute:UniformLoadGlobalX"
1
0
3
0
1
8
1 0
2 0
3 0
4 0
5 0
6 0
7 0
8 0
$EndElementData
$ElementData
1
"Attribute:UniformLoadGlobalY"
1
0
3
0
1
8
1 0
2 0
3 0
4 0
5 0
6 0
7 0
8 0
$EndElementData
$ElementData
1
"Attribute:UniformLoadGlobalZ"
1
0
3
0
1
8
1 0
2 0
3 0
4 0
5 0
6 0
7 0
8 0
$EndElementData
$ElementData
1
"Attribute:UniformLoadLocalX"
1
0
3
0
1
8
1 0
2 0
3 0
4 0
5 0
6 0
7 0
8 0
$EndElementData
$ElementData
1
"Attribute:UniformLoadLocalY"
1
0
3
0
1
8
1 0
2 0
3 0
4 0
5 0
6 0
7 0
8 0
$EndElementData
$ElementData
1
"Attribute:UniformLoadLocalZ"
1
0
3
0
1
8
1 0
2 0
3 0
4 0
5 0
6 0
7 0
8 0
$EndElementData
$ElementData
1
"BeamOrientation"
1
0
3
0
3
8
1 0 0 0
2 0 0 0
3 0 0 0
4 0 0 0
5 0 0 0
6 0 0 0
7 0 0 0
8 0 0 0
$EndElementData
$AnafData
1
1
GLOBAL 3 1
"Gravity"
0 -9.80665 0
$EndAnafData
