$MeshFormat
4.1 0 8
$EndMeshFormat
$PhysicalNames
4
1 1 "Material:Aluminum 7075-T6"
1 2 "Section:Spar I 120x60x2.5x6"
1 3 "Section:Spar I 180x70x3x8"
1 4 "Section:Spar I 250x80x4x10"
$EndPhysicalNames
$Entities
0 3 0 0
1 0 0 0 0 0 2 2 1 4 0
2 0 0 2 0 0 4 2 1 3 0
3 0 0 4 0 0 6 2 1 2 0
$EndEntities
$Nodes
1 13 1 13
1 1 0 13
1
2
3
4
5
6
7
8
9
10
11
12
13
0 0 0
0 0 0.5
0 0 1
0 0 1.5
0 0 2
0 0 2.5
0 0 3
0 0 3.5
0 0 4
0 0 4.5
0 0 5
0 0 5.5
0 0 6
$EndNodes
$Elements
3 12 1 12
1 1 1 4
1 1 2
2 2 3
3 3 4
4 4 5
1 2 1 4
5 5 6
6 6 7
7 7 8
8 8 9
1 3 1 4
9 9 10
10 10 11
11 11 12
12 12 13
$EndElements
$NodeData
1
"Fixity"
1
0
3
0
3
13
1 1 1 1
2 0 0 0
3 0 0 0
4 0 0 0
5 0 0 0
6 0 0 0
7 0 0 0
8 0 0 0
9 0 0 0
10 0 0 0
11 0 0 0
12 0 0 0
13 0 0 0
$EndNodeData
$NodeData
1
"FixityRotation"
1
0
3
0
3
13
1 1 1 1
2 0 0 0
3 0 0 0
4 0 0 0
5 0 0 0
6 0 0 0
7 0 0 0
8 0 0 0
9 0 0 0
10 0 0 0
11 0 0 0
12 0 0 0
13 0 0 0
$EndNodeData
$NodeData
1
"NodalForce"
1
0
3
0
3
13
1 0 0 0
2 0 0 0
3 0 0 0
4 0 0 0
5 0 -8000 0
6 0 0 0
7 0 0 0
8 0 0 0
9 0 0 0
10 0 0 0
11 0 0 0
12 0 0 0
13 0 0 0
$EndNodeData
$ElementData
1
"CrossSectionArea"
1
0
3
0
1
12
1 0.0025277256661176925
2 0.0025277256661176925
3 0.0025277256661176925
4 0.0025277256661176925
5 0.0016197256661176916
6 0.0016197256661176916
7 0.0016197256661176916
8 0.0016197256661176916
9 0.0009977256661176915
10 0.0009977256661176915
11 0.0009977256661176915
12 0.0009977256661176915
$EndElementData
$ElementData
1
"Attribute:ElementFormulation"
1
0
3
0
1
12
1 2
2 2
3 2
4 2
5 2
6 2
7 2
8 2
9 2
10 2
11 2
12 2
$EndElementData
$ElementData
1
"MaterialID"
1
0
3
0
1
12
1 13
2 13
3 13
4 13
5 13
6 13
7 13
8 13
9 13
10 13
11 13
12 13
$EndElementData
$ElementData
1
"Attribute:SecondMomentY"
1
0
3
0
1
12
1 8.54617524401707e-07
2 8.54617524401707e-07
3 8.54617524401707e-07
4 8.54617524401707e-07
5 4.5774116082098154e-07
6 4.5774116082098154e-07
7 4.5774116082098154e-07
8 4.5774116082098154e-07
9 2.161715525930156e-07
10 2.161715525930156e-07
11 2.161715525930156e-07
12 2.161715525930156e-07
$EndElementData
$ElementData
1
"Attribute:SecondMomentZ"
1
0
3
0
1
12
1 2.7209987138529098e-05
2 2.7209987138529098e-05
3 2.7209987138529098e-05
4 2.7209987138529098e-05
5 9.44333359832261e-06
6 9.44333359832261e-06
7 9.44333359832261e-06
8 9.44333359832261e-06
9 2.625854840320881e-06
10 2.625854840320881e-06
11 2.625854840320881e-06
12 2.625854840320881e-06
$EndElementData
$ElementData
1
"Attribute:SectionDimension1"
1
0
3
0
1
12
1 0.25
2 0.25
3 0.25
4 0.25
5 0.18
6 0.18
7 0.18
8 0.18
9 0.12
10 0.12
11 0.12
12 0.12
$EndElementData
$ElementData
1
"Attribute:SectionDimension2"
1
0
3
0
1
12
1 0.08
2 0.08
3 0.08
4 0.08
5 0.07
6 0.07
7 0.07
8 0.07
9 0.06
10 0.06
11 0.06
12 0.06
$EndElementData
$ElementData
1
"Attribute:SectionDimension3"
1
0
3
0
1
12
1 0.004
2 0.004
3 0.004
4 0.004
5 0.003
6 0.003
7 0.003
8 0.003
9 0.0025
10 0.0025
11 0.0025
12 0.0025
$EndElementData
$ElementData
1
"Attribute:SectionDimension4"
1
0
3
0
1
12
1 0.01
2 0.01
3 0.01
4 0.01
5 0.008
6 0.008
7 0.008
8 0.008
9 0.006
10 0.006
11 0.006
12 0.006
$EndElementData
$ElementData
1
"Attribute:SectionDimension5"
1
0
3
0
1
12
1 0.003
2 0.003
3 0.003
4 0.003
5 0.003
6 0.003
7 0.003
8 0.003
9 0.003
10 0.003
11 0.003
12 0.003
$EndElementData
$ElementData
1
"Attribute:SectionShape"
1
0
3
0
1
12
1 5
2 5
3 5
4 5
5 5
6 5
7 5
8 5
9 5
10 5
11 5
12 5
$EndElementData
$ElementData
1
"Attribute:ShearAreaY"
1
0
3
0
1
12
1 0.0009393949486958279
2 0.0009393949486958279
3 0.0009393949486958279
4 0.0009393949486958279
5 0.0005042937431124136
6 0.0005042937431124136
7 0.0005042937431124136
8 0.0005042937431124136
9 0.000276373238853789
10 0.000276373238853789
11 0.000276373238853789
12 0.000276373238853789
$EndElementData
$ElementData
1
"Attribute:ShearAreaZ"
1
0
3
0
1
12
1 0.001361484325015995
2 0.001361484325015995
3 0.001361484325015995
4 0.001361484325015995
5 0.0009530390275111965
6 0.0009530390275111965
7 0.0009530390275111965
8 0.0009530390275111965
9 0.0006126679462571976
10 0.0006126679462571976
11 0.0006126679462571976
12 0.0006126679462571976
$EndElementData
$ElementData
1
"Attribute:TorsionConstant"
1
0
3
0
1
12
1 5.654227489471436e-08
2 5.654227489471436e-08
3 5.654227489471436e-08
4 5.654227489471436e-08
5 2.47389335600879e-08
6 2.47389335600879e-08
7 2.47389335600879e-08
8 2.47389335600879e-08
9 9.173769867327068e-09
10 9.173769867327068e-09
11 9.173769867327068e-09
12 9.173769867327068e-09
$EndElementData
$ElementData
1
"Attribute:UniformLoadGlobalX"
1
0
3
0
1
12
1 0
2 0
3 0
4 0
5 0
6 0
7 0
8 0
9 0
10 0
11 0
12 0
$EndElementData
$ElementData
1
"Attribute:UniformLoadGlobalY"
1
0
3
0
1
12
1 5500
2 5500
3 5500
4 5500
5 4500
6 4500
7 4500
8 4500
9 2800
10 2800
11 2800
12 2800
$EndElementData
$ElementData
1
"Attribute:UniformLoadGlobalZ"
1
0
3
0
1
12
1 0
2 0
3 0
4 0
5 0
6 0
7 0
8 0
9 0
10 0
11 0
12 0
$EndElementData
$ElementData
1
"Attribute:UniformLoadLocalX"
1
0
3
0
1
12
1 0
2 0
3 0
4 0
5 0
6 0
7 0
8 0
9 0
10 0
11 0
12 0
$EndElementData
$ElementData
1
"Attribute:UniformLoadLocalY"
1
0
3
0
1
12
1 0
2 0
3 0
4 0
5 0
6 0
7 0
8 0
9 0
10 0
11 0
12 0
$EndElementData
$ElementData
1
"Attribute:UniformLoadLocalZ"
1
0
3
0
1
12
1 0
2 0
3 0
4 0
5 0
6 0
7 0
8 0
9 0
10 0
11 0
12 0
$EndElementData
$ElementData
1
"BeamOrientation"
1
0
3
0
3
12
1 0 0 0
2 0 0 0
3 0 0 0
4 0 0 0
5 0 0 0
6 0 0 0
7 0 0 0
8 0 0 0
9 0 0 0
10 0 0 0
11 0 0 0
12 0 0 0
$EndElementData
$AnafData
1
1
GLOBAL 3 1
"Gravity"
0 -9.80665 0
$EndAnafData
