$MeshFormat
4.1 0 8
$EndMeshFormat
$PhysicalNames
4
1 1 "Material:Structural Steel (AISI 4130)"
1 2 "Material:Aluminum 2024-T3"
1 3 "Section:Tube 50.8x1.65"
1 4 "Section:Spar I 180x70x3x8"
$EndPhysicalNames
$Entities
0 2 0 0
1 0 1.2 0.6 0 1.2 5.6 2 2 4 0
2 0 0 0.6 0 1.2 3.1 2 1 3 0
$EndEntities
$Nodes
1 12 1 12
1 1 0 12
1
2
3
4
5
6
7
8
9
10
11
12
0 1.2 0.6
0 1.2 1.1
0 1.2 1.6
0 1.2 2.1
0 1.2 2.6
0 1.2 3.1
0 1.2 3.6
0 1.2 4.1
0 1.2 4.6
0 1.2 5.1
0 1.2 5.6
0 0 0.6
$EndNodes
$Elements
2 11 1 11
1 1 1 10
1 1 2
2 2 3
3 3 4
4 4 5
5 5 6
6 6 7
7 7 8
8 8 9
9 9 10
10 10 11
1 2 1 1
11 12 6
$EndElements
$NodeData
1
"Fixity"
1
0
3
0
3
12
1 1 1 1
2 0 0 0
3 0 0 0
4 0 0 0
5 0 0 0
6 0 0 0
7 0 0 0
8 0 0 0
9 0 0 0
10 0 0 0
11 0 0 0
12 1 1 1
$EndNodeData
$NodeData
1
"FixityRotation"
1
0
3
0
3
12
1 0 1 1
2 0 0 0
3 0 0 0
4 0 0 0
5 0 0 0
6 0 0 0
7 0 0 0
8 0 0 0
9 0 0 0
10 0 0 0
11 0 0 0
12 0 0 0
$EndNodeData
$ElementData
1
"CrossSectionArea"
1
0
3
0
1
11
1 0.0016197256661176916
2 0.0016197256661176916
3 0.0016197256661176916
4 0.0016197256661176916
5 0.0016197256661176916
6 0.0016197256661176916
7 0.0016197256661176916
8 0.0016197256661176916
9 0.0016197256661176916
10 0.0016197256661176916
11 0.00025477531022449816
$EndElementData
$ElementData
1
"Attribute:ElementFormulation"
1
0
3
0
1
11
1 1
2 1
3 1
4 1
5 1
6 1
7 1
8 1
9 1
10 1
11 1
$EndElementData
$ElementData
1
"MaterialID"
1
0
3
0
1
11
1 10
2 10
3 10
4 10
5 10
6 10
7 10
8 10
9 10
10 10
11 0
$EndElementData
$ElementData
1
"Attribute:SecondMomentY"
1
0
3
0
1
11
1 4.5774116082098154e-07
2 4.5774116082098154e-07
3 4.5774116082098154e-07
4 4.5774116082098154e-07
5 4.5774116082098154e-07
6 4.5774116082098154e-07
7 4.5774116082098154e-07
8 4.5774116082098154e-07
9 4.5774116082098154e-07
10 4.5774116082098154e-07
11 7.702000939198577e-08
$EndElementData
$ElementData
1
"Attribute:SecondMomentZ"
1
0
3
0
1
11
1 9.44333359832261e-06
2 9.44333359832261e-06
3 9.44333359832261e-06
4 9.44333359832261e-06
5 9.44333359832261e-06
6 9.44333359832261e-06
7 9.44333359832261e-06
8 9.44333359832261e-06
9 9.44333359832261e-06
10 9.44333359832261e-06
11 7.702000939198577e-08
$EndElementData
$ElementData
1
"Attribute:SectionDimension1"
1
0
3
0
1
11
1 0.18
2 0.18
3 0.18
4 0.18
5 0.18
6 0.18
7 0.18
8 0.18
9 0.18
10 0.18
11 0.0508
$EndElementData
$ElementData
1
"Attribute:SectionDimension2"
1
0
3
0
1
11
1 0.07
2 0.07
3 0.07
4 0.07
5 0.07
6 0.07
7 0.07
8 0.07
9 0.07
10 0.07
11 0.00165
$EndElementData
$ElementData
1
"Attribute:SectionDimension3"
1
0
3
0
1
11
1 0.003
2 0.003
3 0.003
4 0.003
5 0.003
6 0.003
7 0.003
8 0.003
9 0.003
10 0.003
11 0
$EndElementData
$ElementData
1
"Attribute:SectionDimension4"
1
0
3
0
1
11
1 0.008
2 0.008
3 0.008
4 0.008
5 0.008
6 0.008
7 0.008
8 0.008
9 0.008
10 0.008
11 0
$EndElementData
$ElementData
1
"Attribute:SectionDimension5"
1
0
3
0
1
11
1 0.003
2 0.003
3 0.003
4 0.003
5 0.003
6 0.003
7 0.003
8 0.003
9 0.003
10 0.003
11 0
$EndElementData
$ElementData
1
"Attribute:SectionShape"
1
0
3
0
1
11
1 5
2 5
3 5
4 5
5 5
6 5
7 5
8 5
9 5
10 5
11 3
$EndElementData
$ElementData
1
"Attribute:ShearAreaY"
1
0
3
0
1
11
1 0.0005042937431124136
2 0.0005042937431124136
3 0.0005042937431124136
4 0.0005042937431124136
5 0.0005042937431124136
6 0.0005042937431124136
7 0.0005042937431124136
8 0.0005042937431124136
9 0.0005042937431124136
10 0.0005042937431124136
11 0.00013521772419358846
$EndElementData
$ElementData
1
"Attribute:ShearAreaZ"
1
0
3
0
1
11
1 0.0009530390275111965
2 0.0009530390275111965
3 0.0009530390275111965
4 0.0009530390275111965
5 0.0009530390275111965
6 0.0009530390275111965
7 0.0009530390275111965
8 0.0009530390275111965
9 0.0009530390275111965
10 0.0009530390275111965
11 0.00013521772419358846
$EndElementData
$ElementData
1
"Attribute:TorsionConstant"
1
0
3
0
1
11
1 2.47389335600879e-08
2 2.47389335600879e-08
3 2.47389335600879e-08
4 2.47389335600879e-08
5 2.47389335600879e-08
6 2.47389335600879e-08
7 2.47389335600879e-08
8 2.47389335600879e-08
9 2.47389335600879e-08
10 2.47389335600879e-08
11 1.5404001878397154e-07
$EndElementData
$ElementData
1
"Attribute:UniformLoadGlobalX"
1
0
3
0
1
11
1 0
2 0
3 0
4 0
5 0
6 0
7 0
8 0
9 0
10 0
11 0
$EndElementData
$ElementData
1
"Attribute:UniformLoadGlobalY"
1
0
3
0
1
11
1 2500
2 2500
3 2500
4 2500
5 2500
6 2500
7 2500
8 2500
9 2500
10 2500
11 0
$EndElementData
$ElementData
1
"Attribute:UniformLoadGlobalZ"
1
0
3
0
1
11
1 0
2 0
3 0
4 0
5 0
6 0
7 0
8 0
9 0
10 0
11 0
$EndElementData
$ElementData
1
"Attribute:UniformLoadLocalX"
1
0
3
0
1
11
1 0
2 0
3 0
4 0
5 0
6 0
7 0
8 0
9 0
10 0
11 0
$EndElementData
$ElementData
1
"Attribute:UniformLoadLocalY"
1
0
3
0
1
11
1 0
2 0
3 0
4 0
5 0
6 0
7 0
8 0
9 0
10 0
11 0
$EndElementData
$ElementData
1
"Attribute:UniformLoadLocalZ"
1
0
3
0
1
11
1 0
2 0
3 0
4 0
5 0
6 0
7 0
8 0
9 0
10 0
11 0
$EndElementData
$ElementData
1
"BeamOrientation"
1
0
3
0
3
11
1 0 0 0
2 0 0 0
3 0 0 0
4 0 0 0
5 0 0 0
6 0 0 0
7 0 0 0
8 0 0 0
9 0 0 0
10 0 0 0
11 0 0 0
$EndElementData
$AnafData
1
1
GLOBAL 3 1
"Gravity"
0 -9.80665 0
$EndAnafData
