$MeshFormat
4.1 0 8
$EndMeshFormat
$PhysicalNames
2
1 1 "Material:Titanium Ti-6Al-4V (Grade 5, annealed)"
1 2 "Section:Box 120x60x4"
$EndPhysicalNames
$Entities
0 1 0 0
1 -1 -0.8 -0.3 1.5 0 0.3 2 1 2 0
$EndEntities
$Nodes
1 8 1 8
1 1 0 8
1
2
3
4
5
6
7
8
0 0 -0.3
1.5 0 -0.3
-1 -0.8 -0.3
0.6 -0.8 -0.3
0 0 0.3
1.5 0 0.3
-1 -0.8 0.3
0.6 -0.8 0.3
$EndNodes
$Elements
1 11 1 11
1 1 1 11
1 1 3
2 1 4
3 2 4
4 3 4
5 5 7
6 5 8
7 6 8
8 7 8
9 3 7
10 4 8
11 3 8
$EndElements
$NodeData
1
"Displacement"
1
0
3
0
3
8
1 0 0 0
2 0 0 0
3 -0.0005511441188678503 0.00047495544240295487 0.00031478069608468367
4 -0.00037706646740125405 -8.55093773859939e-05 -7.715649902149477e-05
5 0 0 0
6 0 0 0
7 -0.0005711933514984607 0.0005075173862539996 0.0003139730667901372
8 -0.000388914049000042 -8.844892588795912e-05 -7.789238810189268e-05
$EndNodeData
$NodeData
1
"Rotation"
1
0
3
0
3
8
1 0 0 0
2 0 0 0
3 -8.054545063323478e-05 0.00013800724368210503 -0.0005789576864842694
4 2.65946173267664e-05 2.2875415764547844e-05 -0.00034985214995349477
5 0 0 0
6 0 0 0
7 -6.642544923325638e-05 7.398370997191676e-05 -0.0006674605725588511
8 2.76369067577737e-06 8.277627397933757e-05 -0.00033641468165427696
$EndNodeData
$ElementData
1
"BeamSectionForce"
1
0
3
0
12
11
1 15878.18196056432 510.20104234076985 -112.81922965141447 -1.5526438918825451 83.65282738461002 462.9203915296293 15831.79142024259 568.1892177429327 -112.81922965141447 -1.5526438918825451 -60.826281381284936 -227.58628964571773
2 -23951.51709871492 -602.6868489638659 -66.18896168461634 -0.19984688504432171 36.33063902951419 -391.3907980822872 -23997.90763903665 -567.8939437225681 -66.18896168461634 -0.19984688504432171 -29.858322655102157 193.8995982609299
3 42740.29134372854 -71.35891907642096 48.81031834330983 -2.4838788664459432 -29.431562021369075 47.10622217761533 42693.9008034068 -19.16956121447438 48.81031834330983 -2.4838788664459432 29.343844453823515 101.61158505247268
4 16526.479161704556 100.1548176135959 -71.30310399530576 5.710219869274514 50.38936237683751 144.09435601108814 16526.479161704556 192.9358982570565 -71.30310399530576 5.710219869274514 -63.6956040156517 -90.37821668543387
5 15322.420988367936 480.900836101487 -132.28753535426597 0.3763782356494434 91.87229508121453 463.0923838637945 15276.030448046207 538.8890115036498 -132.28753535426597 0.3763782356494434 -77.53840970621653 -189.89172516504567
6 -24674.09097016148 -661.7328745726885 -57.64351783303858 -5.5055826292301155 33.61823713360873 -417.2324553334358 -24720.48151048321 -626.9399693313907 -57.64351783303858 -5.5055826292301155 -24.02528069942985 227.10396661860386
7 44103.6669824842 -45.442227717902 72.46396714472591 -4.040753472759634 -39.01966484765661 59.65293730143477 44057.27644216247 6.747130144044579 72.46396714472591 -4.040753472759634 48.23850654511486 82.95047115999465
8 17305.122564387384 119.85988838353146 -72.17705990735654 3.6875578760513448 58.24974366024316 177.3132765809015 17305.122564387384 212.64096902699205 -72.17705990735654 3.6875578760513448 -57.23355219152732 -88.68740934751727
9 -204.46459526162653 -192.87407050750988 429.66042996347727 -12.578448584144041 -138.76406702462643 -60.83017009422034 -204.46459526162653 -158.08116526621217 429.66042996347727 -12.578448584144041 119.03219095346009 44.45640063789645
10 -186.30238402323448 71.91430219091791 223.66432484036358 1.909796523023445 -57.86865801098553 35.93486132194081 -186.30238402323448 106.70720743221563 223.66432484036358 1.909796523023445 76.32993689323254 -17.651591564999165
11 1246.6326543980467 46.358796751034724 -52.47622340247517 8.142591277017884 41.847287672612644 99.54974145752972 1246.6326543980467 145.44903431507663 -52.47622340247517 8.142591277017884 -47.824122185560796 -64.3309412434792
$EndElementData
$ElementData
1
"AxialForce"
1
0
3
0
1
11
1 15854.986690403455
2 -23974.712368875786
3 42717.09607356767
4 16526.479161704556
5 15299.225718207072
6 -24697.286240322344
7 44080.471712323335
8 17305.122564387384
9 -204.46459526162653
10 -186.30238402323448
11 1246.6326543980467
$EndElementData
$ElementData
1
"VonMisesStress"
1
0
3
0
1
11
1 25959066.118925463
2 28777987.42911472
3 35420651.215925455
4 17562212.283942714
5 25807790.500120904
6 29895381.999678023
7 36656615.88744251
8 19206724.834779993
9 7113227.5985423345
10 3561624.957033092
11 4782968.218370697
$EndElementData
$NodeData
1
"Fixity"
1
0
3
0
3
8
1 1 1 1
2 1 1 1
3 0 0 0
4 0 0 0
5 1 1 1
6 1 1 1
7 0 0 0
8 0 0 0
$EndNodeData
$NodeData
1
"FixityRotation"
1
0
3
0
3
8
1 1 1 1
2 1 1 1
3 0 0 0
4 0 0 0
5 1 1 1
6 1 1 1
7 0 0 0
8 0 0 0
$EndNodeData
$NodeData
1
"NodalForce"
1
0
3
0
3
8
1 0 0 0
2 0 0 0
3 -30000 -9400 0
4 -30000 -9400 0
5 0 0 0
6 0 0 0
7 -30000 -9400 0
8 -30000 -9400 0
$EndNodeData
$ElementData
1
"CrossSectionArea"
1
0
3
0
1
11
1 0.0013347964473723111
2 0.0013347964473723111
3 0.0013347964473723111
4 0.0013347964473723111
5 0.0013347964473723111
6 0.0013347964473723111
7 0.0013347964473723111
8 0.0013347964473723111
9 0.0013347964473723111
10 0.0013347964473723111
11 0.0013347964473723111
$EndElementData
$ElementData
1
"Attribute:ElementFormulation"
1
0
3
0
1
11
1 1
2 1
3 1
4 1
5 1
6 1
7 1
8 1
9 1
10 1
11 1
$EndElementData
$ElementData
1
"MaterialID"
1
0
3
0
1
11
1 15
2 15
3 15
4 15
5 15
6 15
7 15
8 15
9 15
10 15
11 15
$EndElementData
$ElementData
1
"Attribute:SecondMomentY"
1
0
3
0
1
11
1 8.124707428089777e-07
2 8.124707428089777e-07
3 8.124707428089777e-07
4 8.124707428089777e-07
5 8.124707428089777e-07
6 8.124707428089777e-07
7 8.124707428089777e-07
8 8.124707428089777e-07
9 8.124707428089777e-07
10 8.124707428089777e-07
11 8.124707428089777e-07
$EndElementData
$ElementData
1
"Attribute:SecondMomentZ"
1
0
3
0
1
11
1 2.40739885597551e-06
2 2.40739885597551e-06
3 2.40739885597551e-06
4 2.40739885597551e-06
5 2.40739885597551e-06
6 2.40739885597551e-06
7 2.40739885597551e-06
8 2.40739885597551e-06
9 2.40739885597551e-06
10 2.40739885597551e-06
11 2.40739885597551e-06
$EndElementData
$ElementData
1
"Attribute:SectionDimension1"
1
0
3
0
1
11
1 0.12
2 0.12
3 0.12
4 0.12
5 0.12
6 0.12
7 0.12
8 0.12
9 0.12
10 0.12
11 0.12
$EndElementData
$ElementData
1
"Attribute:SectionDimension2"
1
0
3
0
1
11
1 0.06
2 0.06
3 0.06
4 0.06
5 0.06
6 0.06
7 0.06
8 0.06
9 0.06
10 0.06
11 0.06
$EndElementData
$ElementData
1
"Attribute:SectionDimension3"
1
0
3
0
1
11
1 0.004
2 0.004
3 0.004
4 0.004
5 0.004
6 0.004
7 0.004
8 0.004
9 0.004
10 0.004
11 0.004
$EndElementData
$ElementData
1
"Attribute:SectionDimension4"
1
0
3
0
1
11
1 0.008
2 0.008
3 0.008
4 0.008
5 0.008
6 0.008
7 0.008
8 0.008
9 0.008
10 0.008
11 0.008
$EndElementData
$ElementData
1
"Attribute:SectionDimension5"
1
0
3
0
1
11
1 0.004
2 0.004
3 0.004
4 0.004
5 0.004
6 0.004
7 0.004
8 0.004
9 0.004
10 0.004
11 0.004
$EndElementData
$ElementData
1
"Attribute:SectionShape"
1
0
3
0
1
11
1 4
2 4
3 4
4 4
5 4
6 4
7 4
8 4
9 4
10 4
11 4
$EndElementData
$ElementData
1
"Attribute:ShearAreaY"
1
0
3
0
1
11
1 0.0008513797678033605
2 0.0008513797678033605
3 0.0008513797678033605
4 0.0008513797678033605
5 0.0008513797678033605
6 0.0008513797678033605
7 0.0008513797678033605
8 0.0008513797678033605
9 0.0008513797678033605
10 0.0008513797678033605
11 0.0008513797678033605
$EndElementData
$ElementData
1
"Attribute:ShearAreaZ"
1
0
3
0
1
11
1 0.00031324319937173694
2 0.00031324319937173694
3 0.00031324319937173694
4 0.00031324319937173694
5 0.00031324319937173694
6 0.00031324319937173694
7 0.00031324319937173694
8 0.00031324319937173694
9 0.00031324319937173694
10 0.00031324319937173694
11 0.00031324319937173694
$EndElementData
$ElementData
1
"Attribute:TorsionConstant"
1
0
3
0
1
11
1 2.0111989769075784e-06
2 2.0111989769075784e-06
3 2.0111989769075784e-06
4 2.0111989769075784e-06
5 2.0111989769075784e-06
6 2.0111989769075784e-06
7 2.0111989769075784e-06
8 2.0111989769075784e-06
9 2.0111989769075784e-06
10 2.0111989769075784e-06
11 2.0111989769075784e-06
$EndElementData
$ElementData
1
"Attribute:UniformLoadGlobalX"
1
0
3
0
1
11
1 0
2 0
3 0
4 0
5 0
6 0
7 0
8 0
9 0
10 0
11 0
$EndElementData
$ElementData
1
"Attribute:UniformLoadGlobalY"
1
0
3
0
1
11
1 0
2 0
3 0
4 0
5 0
6 0
7 0
8 0
9 0
10 0
11 0
$EndElementData
$ElementData
1
"Attribute:UniformLoadGlobalZ"
1
0
3
0
1
11
1 0
2 0
3 0
4 0
5 0
6 0
7 0
8 0
9 0
10 0
11 0
$EndElementData
$ElementData
1
"Attribute:UniformLoadLocalX"
1
0
3
0
1
11
1 0
2 0
3 0
4 0
5 0
6 0
7 0
8 0
9 0
10 0
11 0
$EndElementData
$ElementData
1
"Attribute:UniformLoadLocalY"
1
0
3
0
1
11
1 0
2 0
3 0
4 0
5 0
6 0
7 0
8 0
9 0
10 0
11 0
$EndElementData
$ElementData
1
"Attribute:UniformLoadLocalZ"
1
0
3
0
1
11
1 0
2 0
3 0
4 0
5 0
6 0
7 0
8 0
9 0
10 0
11 0
$EndElementData
$ElementData
1
"BeamOrientation"
1
0
3
0
3
11
1 0 0 0
2 0 0 0
3 0 0 0
4 0 0 0
5 0 0 0
6 0 0 0
7 0 0 0
8 0 0 0
9 0 0 0
10 0 0 0
11 0 0 0
$EndElementData
$AnafData
1
1
GLOBAL 3 1
"Gravity"
0 -9.80665 0
$EndAnafData
