$MeshFormat
4.1 0 8
$EndMeshFormat
$PhysicalNames
4
1 1 "Material:Aluminum 2024-T3"
1 2 "Section:Tube 25.4x1.24"
1 3 "Section:Box 60x40x3"
1 4 "Section:Box 80x40x3"
$EndPhysicalNames
$Entities
0 3 0 0
1 0 -1 -1 1.5 1 1 2 1 4 0
2 0 -0.38268343236509034 -0.9238795325112865 1.5 -0.3826834323650897 0.9238795325112867 2 1 3 0
3 0 -1 -1 1.5 1 1 2 1 2 0
$EndEntities
$Nodes
1 64 1 64
1 1 0 64
1
2
3
4
5
6
7
8
9
10
11
12
13
14
15
16
17
18
19
20
21
22
23
24
25
26
27
28
29
30
31
32
33
34
35
36
37
38
39
40
41
42
43
44
45
46
47
48
49
50
51
52
53
54
55
56
57
58
59
60
61
62
63
64
0 1 0
0 0.9238795325112867 0.3826834323650898
0 0.7071067811865476 0.7071067811865475
0 0.38268343236508984 0.9238795325112867
0 6.123233995736766e-17 1
0 -0.3826834323650897 0.9238795325112867
0 -0.7071067811865475 0.7071067811865476
0 -0.9238795325112867 0.3826834323650899
0 -1 1.2246467991473532e-16
0 -0.9238795325112868 -0.38268343236508967
0 -0.7071067811865477 -0.7071067811865475
0 -0.38268343236509034 -0.9238795325112865
0 -1.8369701987210297e-16 -1
0 0.38268343236509 -0.9238795325112866
0 0.7071067811865474 -0.7071067811865477
0 0.9238795325112865 -0.3826834323650904
0.5 1 0
0.5 0.9238795325112867 0.3826834323650898
0.5 0.7071067811865476 0.7071067811865475
0.5 0.38268343236508984 0.9238795325112867
0.5 6.123233995736766e-17 1
0.5 -0.3826834323650897 0.9238795325112867
0.5 -0.7071067811865475 0.7071067811865476
0.5 -0.9238795325112867 0.3826834323650899
0.5 -1 1.2246467991473532e-16
0.5 -0.9238795325112868 -0.38268343236508967
0.5 -0.7071067811865477 -0.7071067811865475
0.5 -0.38268343236509034 -0.9238795325112865
0.5 -1.8369701987210297e-16 -1
0.5 0.38268343236509 -0.9238795325112866
0.5 0.7071067811865474 -0.7071067811865477
0.5 0.9238795325112865 -0.3826834323650904
1 1 0
1 0.9238795325112867 0.3826834323650898
1 0.7071067811865476 0.7071067811865475
1 0.38268343236508984 0.9238795325112867
1 6.123233995736766e-17 1
1 -0.3826834323650897 0.9238795325112867
1 -0.7071067811865475 0.7071067811865476
1 -0.9238795325112867 0.3826834323650899
1 -1 1.2246467991473532e-16
1 -0.9238795325112868 -0.38268343236508967
1 -0.7071067811865477 -0.7071067811865475
1 -0.38268343236509034 -0.9238795325112865
1 -1.8369701987210297e-16 -1
1 0.38268343236509 -0.9238795325112866
1 0.7071067811865474 -0.7071067811865477
1 0.9238795325112865 -0.3826834323650904
1.5 1 0
1.5 0.9238795325112867 0.3826834323650898
1.5 0.7071067811865476 0.7071067811865475
1.5 0.38268343236508984 0.9238795325112867
1.5 6.123233995736766e-17 1
1.5 -0.3826834323650897 0.9238795325112867
1.5 -0.7071067811865475 0.7071067811865476
1.5 -0.9238795325112867 0.3826834323650899
1.5 -1 1.2246467991473532e-16
1.5 -0.9238795325112868 -0.38268343236508967
1.5 -0.7071067811865477 -0.7071067811865475
1.5 -0.38268343236509034 -0.9238795325112865
1.5 -1.8369701987210297e-16 -1
1.5 0.38268343236509 -0.9238795325112866
1.5 0.7071067811865474 -0.7071067811865477
1.5 0.9238795325112865 -0.3826834323650904
$EndNodes
$Elements
3 116 1 116
1 1 1 64
1 1 2
2 2 3
3 3 4
4 4 5
5 5 6
6 6 7
7 7 8
8 8 9
9 9 10
10 10 11
11 11 12
12 12 13
13 13 14
14 14 15
15 15 16
16 16 1
18 17 18
19 18 19
20 19 20
21 20 21
22 21 22
23 22 23
24 23 24
25 24 25
26 25 26
27 26 27
28 27 28
29 28 29
30 29 30
31 30 31
32 31 32
33 32 17
35 33 34
36 34 35
37 35 36
38 36 37
39 37 38
40 38 39
41 39 40
42 40 41
43 41 42
44 42 43
45 43 44
46 44 45
47 45 46
48 46 47
49 47 48
50 48 33
52 49 50
53 50 51
54 51 52
55 52 53
56 53 54
57 54 55
58 55 56
59 56 57
60 57 58
61 58 59
62 59 60
63 60 61
64 61 62
65 62 63
66 63 64
67 64 49
1 2 1 4
17 6 12
34 22 28
51 38 44
68 54 60
1 3 1 48
69 1 17
70 2 18
71 3 19
72 4 20
73 5 21
74 6 22
75 7 23
76 8 24
77 9 25
78 10 26
79 11 27
80 12 28
81 13 29
82 14 30
83 15 31
84 16 32
85 17 33
86 18 34
87 19 35
88 20 36
89 21 37
90 22 38
91 23 39
92 24 40
93 25 41
94 26 42
95 27 43
96 28 44
97 29 45
98 30 46
99 31 47
100 32 48
101 33 49
102 34 50
103 35 51
104 36 52
105 37 53
106 38 54
107 39 55
108 40 56
109 41 57
110 42 58
111 43 59
112 44 60
113 45 61
114 46 62
115 47 63
116 48 64
$EndElements
$NodeData
1
"Displacement"
1
0
3
0
3
64
1 2.0877756399916775e-05 -0.001693120393857328 -1.9375070381654025e-15
2 2.0167706675926698e-05 -0.0017764443005392596 -2.1436436725490603e-05
3 1.718430055179674e-05 -0.001987077222505406 -0.00016937276737291726
4 1.0169505491030175e-05 -0.0021846629493615776 -0.00047953328966123264
5 3.2767448363790065e-07 -0.0022099719751651173 -0.0006587260478566825
6 -9.495838057433068e-06 -0.0023566495773748018 0.00013618749904598573
7 -2.1903500086699607e-05 -0.00287397523869448 0.0010094941534435186
8 -2.9996942179495117e-05 -0.0016825755542893913 0.00028327894474130036
9 0 0 0
10 -2.999694217955272e-05 -0.0016825755542895218 -0.00028327894474133224
11 -2.1903500086861428e-05 -0.002873975238695033 -0.001009494153443838
12 -9.495838057677098e-06 -0.0023566495773758027 -0.00013618749904698054
13 3.276744833449069e-07 -0.002209971975166309 0.0006587260478547203
14 1.0169505490740346e-05 -0.002184662949362573 0.0004795332896582843
15 1.71843005515672e-05 -0.001987077222505975 0.0001693727673693288
16 2.0167706675800443e-05 -0.0017764443005394638 2.143643672165674e-05
17 1.0349052246936644e-05 -0.00958385290984398 -2.3986661705565294e-15
18 1.0008515788653834e-05 -0.009899362091983324 -6.387509821886979e-05
19 8.589450909845747e-06 -0.010531041718014769 -0.00048484927237604764
20 5.147649312097478e-06 -0.010903771426816766 -0.0010346750073036931
21 5.234457310551753e-07 -0.010905781562109314 -0.001001062405918095
22 -3.829707280988595e-06 -0.011114669688487058 -1.1471558672461136e-05
23 -1.0171469938741182e-05 -0.011364488300050187 0.0003688765474703445
24 -1.3381128300041714e-05 -0.010921636318845943 7.088533618114652e-05
25 -6.194707971282193e-06 -0.010591026702660256 -1.8025190059587186e-15
26 -1.338112830010187e-05 -0.01092163631884569 -7.088533618470197e-05
27 -1.0171469938899045e-05 -0.011364488300049855 -0.00036887654747385013
28 -3.829707281231039e-06 -0.011114669688486782 1.1471558668856355e-05
29 5.234457307642962e-07 -0.010905781562109104 0.0010010624059141105
30 5.1476493118107066e-06 -0.010903771426816427 0.0010346750072990788
31 8.589450909618871e-06 -0.01053104171801421 0.00048484927237109804
32 1.00085157885291e-05 -0.009899362091982859 6.387509821398094e-05
33 -1.034905224715317e-05 -0.009583852909843364 -2.71411414649491e-15
34 -1.0008515788740797e-05 -0.009899362091982448 -6.3875098219136e-05
35 -8.589450909814202e-06 -0.010531041718013686 -0.00048484927237617845
36 -5.147649311980172e-06 -0.010903771426815641 -0.001034675007303759
37 -5.234457309001172e-07 -0.010905781562108193 -0.0010010624059181802
38 3.829707281133662e-06 -0.011114669688485939 -1.1471558672549546e-05
39 1.0171469938840029e-05 -0.011364488300049111 0.0003688765474703121
40 1.3381128300082321e-05 -0.010921636318844994 7.08853361811988e-05
41 6.194707971281917e-06 -0.01059102670265953 -1.7055225978032082e-15
42 1.3381128300023896e-05 -0.010921636318845155 -7.088533618464274e-05
43 1.017146993869001e-05 -0.011364488300049429 -0.00036887654747386173
44 3.8297072808948404e-06 -0.011114669688486413 1.1471558668759063e-05
45 -5.234457311865837e-07 -0.01090578156210876 0.0010010624059138894
46 -5.147649312261333e-06 -0.010903771426816089 0.0010346750072988576
47 -8.589450910036808e-06 -0.010531041718013884 0.00048484927237088657
48 -1.0008515788863105e-05 -0.009899362091982444 6.387509821370772e-05
49 -2.0877756400132508e-05 -0.0016931203938572333 -2.506590923191656e-15
50 -2.0167706676012567e-05 -0.0017764443005390486 -2.1436436726036356e-05
51 -1.7184300551763985e-05 -0.0019870772225051123 -0.0001693727673734076
52 -1.0169505490912133e-05 -0.002184662949361236 -0.0004795332896616495
53 -3.276744834828419e-07 -0.0022099719751647578 -0.0006587260478570058
54 9.495838057577446e-06 -0.0023566495773744652 0.00013618749904577185
55 2.1903500086797263e-05 -0.002873975238694213 0.0010094941534434041
56 2.9996942179532254e-05 -0.001682575554289269 0.000283278944741279
57 0 0 0
58 2.999694217947575e-05 -0.0016825755542895292 -0.0002832789447413361
59 2.19035000866515e-05 -0.002873975238695126 -0.0010094941534439016
60 9.495838057340809e-06 -0.002356649577375987 -0.0001361874990471828
61 -3.276744837669269e-07 -0.0022099719751665133 0.000658726047854412
62 -1.0169505491190642e-05 -0.0021846629493627594 0.0004795332896578903
63 -1.7184300551984843e-05 -0.001987077222506104 0.00016937276736884996
64 -2.0167706676133936e-05 -0.001776444300539493 2.1436436721111954e-05
$EndNodeData
$NodeData
1
"Rotation"
1
0
3
0
3
64
1 -2.1108442798889621e-16 1.6729252807064067e-16 -0.006581689187486713
2 0.0004452656761980925 0.0023054174058929028 -0.005761213236133624
3 0.0008620535269195965 0.003491250525732062 -0.0036969212489374593
4 0.000916300021102841 0.0029696945718444435 -0.0014492787003556682
5 -0.0003111223021062225 0.0011449552722916218 -0.00022615814624385262
6 -0.004501490231624456 -0.0006479292219363194 -0.0005264331034266485
7 0.0003931810708587965 -0.0013342728288393937 -0.001632925701359688
8 0.00585544036390625 -0.0007103886417044103 -0.002062318240626978
9 0 0 0
10 -0.005855440363907045 0.0007103886417049437 -0.002062318240627334
11 -0.000393181070860572 0.001334272828840305 -0.0016329257013601242
12 0.004501490231622207 0.0006479292219373747 -0.0005264331034268732
13 0.0003111223021035426 -0.0011449552722901195 -0.00022615814624374727
14 -0.0009163000211051952 -0.002969694571842954 -0.0014492787003551207
15 -0.0008620535269211423 -0.003491250525730981 -0.003696921248936667
16 -0.00044526567619884505 -0.00230541740589234 -0.005761213236133043
17 6.854611997220834e-16 1.7572276549240988e-16 -0.0053397532509513535
18 0.0015545988134536895 0.001843179270394241 -0.004644559470091958
19 0.0020887608009253524 0.0027007337339089864 -0.002900707363578147
20 0.0010290218611986686 0.002024475053981271 -0.001047592083549126
21 -0.0013489829108353183 0.00013324774594705412 -0.00020465587038463753
22 -0.0036558344761834327 -0.0017692051392435995 -0.0009768600804445618
23 0.0006879189807567882 -0.00289927817091848 -0.003099402461000285
24 0.0015080569317444266 -0.0022384520699404446 -0.00557125994912059
25 3.6932811178084647e-16 1.0770873747987591e-16 -0.006789188867955715
26 -0.0015080569317439264 0.0022384520699409265 -0.005571259949121031
27 -0.0006879189807568228 0.0028992781709194304 -0.0030994024610007734
28 0.0036558344761829036 0.001769205139244657 -0.0009768600804448055
29 0.0013489829108338722 -0.00013324774594566547 -0.00020465587038455714
30 -0.0010290218612002166 -0.0020244750539799975 -0.001047592083548691
31 -0.002088760800925753 -0.0027007337339080935 -0.0029007073635775728
32 -0.0015545988134528098 -0.0018431792703937323 -0.004644559470091555
33 7.225686820160934e-17 1.669409904190972e-16 0.005339753250951908
34 0.0015545988134529685 -0.0018431792703940842 0.004644559470092495
35 0.002088760800924912 -0.0027007337339089435 0.002900707363578528
36 0.001029021861198649 -0.00202447505398117 0.0010475920835492968
37 -0.0013489829108352424 -0.00013324774594676052 0.0002046558703847067
38 -0.003655834476183535 0.001769205139244051 0.0009768600804447092
39 0.0006879189807565086 0.0028992781709189985 0.003099402461000627
40 0.0015080569317439199 0.00223845206994077 0.005571259949121106
41 -2.0902694674578185e-16 1.3685054443295183e-17 0.0067891888679562605
42 -0.0015080569317443503 -0.0022384520699408306 0.0055712599491215065
43 -0.0006879189807570793 -0.0028992781709192787 0.003099402461001113
44 0.0036558344761825766 -0.001769205139244413 0.000976860080445
45 0.001348982910833671 0.00013324774594607386 0.00020465587038470304
46 -0.0010290218612001073 0.0020244750539805158 0.0010475920835488913
47 -0.002088760800925837 0.00270073373390864 0.002900707363577889
48 -0.0015545988134532426 0.0018431792703942215 0.004644559470092011
49 -5.318187130493534e-16 1.578292319547054e-16 0.0065816891874861715
50 0.0004452656761978129 -0.002305417405892331 0.005761213236133084
51 0.0008620535269193632 -0.003491250525731327 0.0036969212489370885
52 0.0009163000211026131 -0.002969694571843759 0.0014492787003555431
53 -0.00031112230210649265 -0.0011449552722911874 0.00022615814624386789
54 -0.004501490231624738 0.0006479292219364869 0.0005264331034266162
55 0.0003931810708584215 0.0013342728288394234 0.001632925701359492
56 0.005855440363905774 0.0007103886417044858 0.0020623182406267235
57 0 0 0
58 -0.00585544036390716 -0.000710388641704598 0.002062318240627288
59 -0.0003931810708609711 -0.0013342728288398711 0.0016329257013601634
60 0.004501490231621845 -0.0006479292219370066 0.0005264331034270035
61 0.00031112230210331713 0.0011449552722903413 0.0002261581462438837
62 -0.0009163000211054315 0.002969694571843045 0.0014492787003551376
63 -0.0008620535269214302 0.003491250525731034 0.0036969212489364888
64 -0.0004452656761991666 0.00230541740589247 0.005761213236132649
$EndNodeData
$ElementData
1
"BeamSectionForce"
1
0
3
0
12
116
1 -589.7203932141164 3.976583587423152 -72.43705533538218 10.976969689932417 93.7650262277509 -42.3633601673817 -591.091755083031 10.870885269012929 -72.43705533538218 10.976969689932417 65.50148932519129 -45.259957647708006
2 -738.7928378469738 -20.503819159669764 -212.22669359891364 32.70651625459814 111.55297868760762 -44.419783046736384 -742.6981460406017 -14.65911241210166 -212.22669359891364 32.70651625459814 28.746230698347162 -37.55983540336807
3 -991.1575716295902 -161.84547467857925 -330.4911238777979 52.028877208340774 116.4120279997924 -36.63076526218555 -997.0022783771583 -157.94016648495148 -330.4911238777979 52.028877208340774 -12.539211561791149 25.75631844854135
4 -1251.4429019689926 -483.88384384882096 -399.5914554351 62.72655952192611 105.7035577578738 25.84169048318387 -1258.3372036505823 -482.51248197990634 -399.5914554351 62.72655952192611 -50.20929367358025 214.3762608843138
5 -1385.728027167883 -1007.3272468973508 -396.8976590331498 56.192540094013886 79.2487046205622 213.59021736544622 -1392.6223288494728 -1008.6986087662655 -396.8976590331498 56.192540094013886 -75.61307959588714 606.897350739702
6 -6811.606912243935 1638.1106920807467 -318.93216154599793 36.659620939633186 44.502542484771084 -159.8185568597609 -6817.451618991503 1634.205383887119 -318.93216154599793 36.659620939633186 -79.93861370984607 -798.2157538588854
7 -7188.658836211348 -1347.6146150905824 -157.500383299316 0.32210282425519665 5.819117295013182 -797.9925284836356 -7192.564144404975 -1353.4593218381506 -157.500383299316 0.32210282425519665 -55.63448369604121 -271.0391443388366
8 -6241.342979584921 -4341.979279731919 71.13186088587572 -66.8392152363668 -23.560019835912257 -274.3317180641901 -6242.714341453835 -4348.873581413509 71.13186088587572 -66.8392152363668 4.194255455751616 1421.1695652114597
9 -6242.714341453064 4348.873581413349 -71.1318608859562 66.83921523638084 4.194255455752362 1421.1695652115072 -6241.342979584149 4341.979279731759 -71.1318608859562 66.83921523638084 -23.56001983594289 -274.3317180640819
10 -7192.5641444043495 1353.4593218382279 157.50038329920034 -0.3221028242466417 -55.63448369602749 -271.03914433872615 -7188.658836210722 1347.6146150906598 157.50038329920034 -0.3221028242466417 5.819117294981755 -797.9925284835543
11 -6817.451618991183 -1634.205383886935 318.93216154593637 -36.65962093963316 -79.93861370984241 -798.2157538588028 -6811.606912243615 -1638.1106920805626 318.93216154593637 -36.65962093963316 44.5025424847506 -159.81855685975214
12 -1392.6223288492981 1008.6986087664599 396.89765903308273 -56.192540094002254 -75.61307959588765 606.897350739782 -1385.7280271677084 1007.3272468975453 396.89765903308273 -56.192540094002254 79.24870462053572 213.5902173654496
13 -1258.3372036506696 482.512481980085 399.5914554350621 -62.72655952192375 -50.20929367358733 214.37626088431648 -1251.44290196908 483.8838438489996 399.5914554350621 -62.72655952192375 105.70355775785211 25.84169048311713
14 -997.0022783772747 157.9401664850197 330.4911238778023 -52.028877208347154 -12.53921156180595 25.75631844847578 -991.1575716297066 161.84547467864746 330.4911238778023 -52.028877208347154 116.41202799977903 -36.63076526227806
15 -742.6981460407472 14.659112412036976 212.2266935989541 -32.70651625461247 28.746230698329043 -37.55983540345866 -738.7928378471194 20.503819159605072 212.2266935989541 -32.70651625461247 111.55297868760525 -44.41978304680124
16 -591.0917550830819 -10.870885269173568 72.43705533544448 -10.976969689951375 65.50148932517536 -45.25995764777241 -589.7203932141673 -3.976583587583781 72.43705533544448 -10.976969689951375 93.76502622775931 -42.3633601673821
17 5827.663002889522 -2785.2604437072487 1.3667289522345527e-11 9.774403508799878e-13 6.889925762362383 -767.3563811083 5827.663002889521 2785.260443707325 1.3667289522345527e-11 9.774403508799878e-13 6.889925762387638 -767.3563811083701
18 -134.87642368529114 -147.12680150409622 -69.96505975790836 9.965799502496338 77.56791109719562 -180.4358684888424 -136.2477855542057 -140.23249982250647 -69.96505975790836 9.965799502496338 50.268899021099585 -124.37484985871163
19 115.25413069250438 -375.7514410654071 -205.6081438796944 30.107079081492458 95.42893063976334 -125.21502445967876 111.34882249887657 -369.906734317839 -205.6081438796944 30.107079081492458 15.204612642507342 20.25566908979404
20 553.4337522822334 -433.98482712498986 -323.72400193099713 49.2283356310966 101.47576461421221 19.326598948613167 547.5890455346653 -430.0795189313621 -323.72400193099713 49.2283356310966 -24.835074947923715 187.89719046340147
21 1059.3771833708959 -230.9830750083764 -396.28613999790474 62.449470326723315 92.36803416684563 187.81181842876128 1052.4828816893062 -229.61171313946184 -396.28613999790474 62.449470326723315 -62.255147158593815 277.6694039674723
22 1466.1741410392785 270.2578082180099 -413.38507755644486 62.3632107668235 67.94470141235583 278.45544748634103 1459.2798393576888 268.8864463490953 -413.38507755644486 62.3632107668235 -93.35015438194215 173.27362124969994
23 -441.9697328273305 -954.6151345526877 -385.95765519098217 65.52677116050232 37.900646748115946 -611.7043892945927 -447.81443957489864 -958.5204427463156 -385.95765519098217 65.52677116050232 -112.69255972348105 -238.4701534588198
24 216.78565493242724 -810.0309293603455 -267.4722394152169 52.206943116424384 -11.05825991872615 -238.69337883406786 212.88034673879946 -815.8756361079136 -267.4722394152169 52.206943116424384 -115.42075055450536 78.50525659126781
25 622.7490914699121 -335.1216622376423 -127.85801488469122 23.436339699526826 -55.07949414146553 81.79783031662157 621.3777296009974 -342.0159639192321 -127.85801488469122 23.436339699526826 -104.96721673386016 213.90082785280458
26 621.3777296011721 342.0159639190836 127.85801488454331 -23.43633969951182 -104.96721673383709 213.9008278528006 622.7490914700867 335.1216622374938 127.85801488454331 -23.43633969951182 -55.07949414150016 81.79783031667364
27 212.8803467390323 815.8756361079061 267.47223941512686 -52.206943116415175 -115.42075055449973 78.50525659131883 216.78565493266007 810.030929360338 267.47223941512686 -52.206943116415175 -11.058259918755624 -238.6933788340142
28 -447.8144395739673 958.5204427463362 385.95765519094476 -65.52677116050384 -112.69255972348235 -238.470153458767 -441.9697328263992 954.6151345527084 385.95765519094476 -65.52677116050384 37.900646748099916 -611.7043892945494
29 1459.279839358853 -268.88644634908917 413.3850775564088 -62.36321076681535 -93.35015438194776 173.27362124979118 1466.1741410404427 -270.2578082180038 413.3850775564088 -62.36321076681535 67.94470141233634 278.45544748642857
30 1052.4828816897718 229.61171313992068 396.2861399979001 -62.449470326724594 -62.2551471586052 277.66940396757127 1059.3771833713615 230.98307500883524 396.2861399979001 -62.449470326724594 92.36803416683262 187.8118184286813
31 547.5890455344324 430.0795189315356 323.7240019310275 -49.22833563110403 -24.835074947940242 187.89719046332445 553.4337522820006 433.98482712516335 323.7240019310275 -49.22833563110403 101.47576461420735 19.326598948465204
32 111.34882249864374 369.9067343177139 205.60814387974693 -30.10707908150347 15.20461264248982 20.25566908964238 115.25413069227154 375.75144106528205 205.60814387974693 -30.10707908150347 95.42893063976625 -125.2150244597779
33 -136.24778555429302 140.23249982223817 69.96505975797305 -9.96579950250947 50.268899021084366 -124.3748498588107 -134.87642368537846 147.12680150382798 69.96505975797305 -9.96579950250947 77.56791109720568 -180.43586848884047
34 -490.884835381671 -2785.26044370726 1.3734791082242737e-11 1.056044141023449e-12 18.813308082258843 -784.3375370354552 -490.8848353816728 2785.2604437073137 1.3734791082242737e-11 1.056044141023449e-12 18.813308082284216 -784.337537035505
35 -134.87642368558218 -147.1268015040612 69.96505975792792 -9.965799502495742 -77.56791109720551 -180.4358684888271 -136.24778555449674 -140.23249982247145 69.96505975792792 -9.965799502495742 -50.268899021101916 -124.37484985870583
36 115.25413069227154 -375.7514410652402 205.60814387972925 -30.107079081494533 -95.42893063977615 -125.2150244596758 111.34882249864374 -369.9067343176721 205.60814387972925 -30.107079081494533 -15.204612642506504 20.255669089735377
37 553.4337522822334 -433.98482712509923 323.72400193104727 -49.228335631101686 -101.47576461422669 19.32659894855297 547.5890455346653 -430.07951893147145 323.72400193104727 -49.228335631101686 24.835074947928803 187.89719046337999
38 1059.3771833708959 -230.9830750084478 396.2861399979648 -62.44947032672978 -92.36803416685942 187.811818428737 1052.4828816893062 -229.61171313953324 396.2861399979648 -62.44947032672978 62.25514715860349 277.6694039674772
39 1466.1741410395114 270.257808217949 413.38507755650477 -62.363210766828765 -67.94470141236599 278.4554474863465 1459.2798393579217 268.8864463490344 413.38507755650477 -62.363210766828765 93.35015438195535 173.27362124972882
40 -441.9697328270977 -954.6151345527156 385.957655191035 -65.52677116050741 -37.90064674812217 -611.7043892945802 -447.8144395746658 -958.5204427463435 385.957655191035 -65.52677116050741 112.69255972349545 -238.47015345879763
41 216.78565493242724 -810.0309293603514 267.4722394152541 -52.20694311642558 11.05825991872733 -238.69337883404887 212.88034673879946 -815.8756361079195 267.4722394152541 -52.20694311642558 115.4207505545211 78.50525659129168
42 622.7490914698247 -335.1216622375233 127.85801488468019 -23.436339699526513 55.07949414147443 81.79783031665386 621.3777296009101 -342.0159639191131 127.85801488468019 -23.436339699526513 104.9672167338648 213.9008278527873
43 621.3777296010556 342.0159639191 -127.85801488455013 23.436339699513837 104.9672167338397 213.90082785278673 622.7490914699703 335.1216622375102 -127.85801488455013 23.436339699513837 55.07949414150012 81.7978303166559
44 212.88034673891588 815.8756361078692 -267.4722394151202 52.20694311641961 115.42075055449939 78.50525659129589 216.78565493254365 810.0309293603011 -267.4722394151202 52.20694311641961 11.058259918757855 -238.69337883402653
45 -447.8144395739673 958.5204427462444 -385.95765519095096 65.52677116050872 112.69255972348584 -238.47015345877642 -441.9697328263992 954.6151345526165 -385.95765519095096 65.52677116050872 -37.900646748098836 -611.7043892945251
46 1459.2798393586202 -268.8864463489027 -413.3850775564189 62.36321076682063 93.35015438195023 173.27362124981454 1466.1741410402099 -270.25780821781734 -413.3850775564189 62.36321076682063 -67.94470141233779 278.4554474863807
47 1052.4828816890733 229.61171313977607 -396.28613999790684 62.44947032672825 62.255147158605475 277.66940396751266 1059.377183370663 230.98307500869063 -396.28613999790684 62.44947032672825 -92.368034166835 187.81181842867943
48 547.589045533734 430.0795189314451 -323.72400193103033 49.22833563110676 24.835074947938132 187.89719046332803 553.4337522813021 433.98482712507285 -323.72400193103033 49.22833563110676 -101.47576461421053 19.326598948501697
49 111.3488224982945 369.90673431776077 -205.6081438797463 30.107079081506086 -15.20461264249407 20.255669089686776 115.2541306919223 375.7514410653289 -205.6081438797463 30.107079081506086 -95.42893063977023 -125.2150244597539
50 -136.24778555455495 140.23249982223186 -69.96505975796481 9.9657995025116 -50.268899021091386 -124.37484985879435 -134.8764236856404 147.12680150382167 -69.96505975796481 9.9657995025116 -77.56791109720939 -180.43586848882043
51 -490.884835381481 -2785.2604437072723 -1.071498445526231e-11 -1.262101534393878e-12 -18.813308082262726 -784.3375370354688 -490.88483538148284 2785.2604437073014 -1.071498445526231e-11 -1.262101534393878e-12 -18.81330808228253 -784.3375370354958
52 -589.7203932140873 3.976583587433384 72.43705533538377 -10.976969689933867 -93.76502622774325 -42.36336016738369 -591.0917550830019 10.87088526902316 72.43705533538377 -10.976969689933867 -65.50148932518302 -45.25995764771403
53 -738.7928378469302 -20.50381915967363 212.22669359889932 -32.70651625459658 -111.55297868759726 -44.41978304674113 -742.6981460405581 -14.659112412105525 212.22669359889932 -32.70651625459658 -28.746230698342387 -37.559835403371764
54 -991.1575716294446 -161.84547467859494 330.4911238777672 -52.02887720833526 -116.41202799978056 -36.63076526218924 -997.0022783770128 -157.94016648496716 330.4911238777672 -52.02887720833526 12.539211561790914 25.756318448544192
55 -1251.4429019689344 -483.8838438488365 399.59145543505986 -62.72655952191767 -105.70355775786304 25.8416904831851 -1258.337203650524 -482.51248197992186 399.59145543505986 -62.72655952191767 50.20929367357535 214.37626088432089
56 -1385.728027167883 -1007.3272468973181 396.8976590331097 -56.19254009400551 -79.2487046205542 213.5902173654535 -1392.6223288494728 -1008.6986087662327 396.8976590331097 -56.19254009400551 75.6130795958795 606.897350739697
57 -6811.606912243673 1638.1106920806913 318.9321615459676 -36.65962093962683 -44.502542484767126 -159.81855685976245 -6817.451618991241 1634.2053838870636 318.9321615459676 -36.65962093962683 79.9386137098382 -798.2157538588658
58 -7188.658836210984 -1347.614615090537 157.500383299302 -0.3221028242544861 -5.819117295012781 -797.9925284836177 -7192.564144404611 -1353.459321838105 157.500383299302 -0.3221028242544861 55.634483696036135 -271.03914433883614
59 -6241.342979584565 -4341.979279731677 -71.131860885842 66.83921523635952 23.560019835909745 -274.33171806418966 -6242.714341453479 -4348.873581413267 -71.131860885842 66.83921523635952 -4.194255455740969 1421.1695652113663
60 -6242.714341452775 4348.873581413238 71.13186088598879 -66.83921523637736 -4.19425545576958 1421.169565211497 -6241.342979583861 4341.979279731648 71.13186088598879 -66.83921523637736 23.560019835938398 -274.33171806404914
61 -7192.564144404102 1353.459321838253 -157.50038329918146 0.322102824245988 55.63448369601984 -271.03914433869335 -7188.658836210475 1347.6146150906848 -157.50038329918146 0.322102824245988 -5.819117294982043 -797.9925284835322
62 -6817.451618991037 -1634.2053838868003 -318.9321615459054 36.65962093962989 79.93861370983507 -798.2157538587803 -6811.606912243469 -1638.110692080428 -318.9321615459054 36.65962093962989 -44.502542484745845 -159.8185568597817
63 -1392.6223288491817 1008.6986087664062 -396.897659033051 56.19254009399778 75.6130795958822 606.8973507397584 -1385.728027167592 1007.3272468974916 -396.897659033051 56.19254009399778 -79.24870462052878 213.5902173654466
64 -1258.3372036505532 482.51248198006476 -399.5914554350339 62.72655952191906 50.20929367358485 214.37626088431387 -1251.4429019689635 483.8838438489794 -399.5914554350339 62.72655952191906 -105.7035577578436 25.841690483121905
65 -997.0022783772165 157.94016648502105 -330.4911238777786 52.02887720834288 12.53921156180597 25.756318448481068 -991.1575716296484 161.84547467864883 -330.4911238777786 52.02887720834288 -116.41202799976975 -36.6307652622734
66 -742.6981460406745 14.659112412042205 -212.2266935989348 32.70651625460826 -28.746230698326784 -37.55983540345386 -738.7928378470466 20.503819159610302 -212.2266935989348 32.70651625460826 -111.55297868759544 -44.419783046799026
67 -591.0917550830383 -10.870885269168886 -72.43705533543141 10.97696968994805 -65.50148932517064 -45.259957647770634 -589.7203932141236 -3.9765835875790985 -72.43705533543141 10.97696968994805 -93.76502622774956 -42.36336016738384
68 5827.663002889273 -2785.2604437072464 -1.340438871011429e-11 -1.6862067298006878e-12 -6.889925762361561 -767.3563811082984 5827.663002889271 2785.2604437073273 -1.340438871011429e-11 -1.6862067298006878e-12 -6.889925762386327 -767.3563811083734
69 -144.87411067082684 -237.89783212109307 -1.8138605578868474e-11 6.790159238183868e-13 4.543137375727932e-12 -58.11739891190175 -144.87411067082684 -236.61489915860693 -1.8138605578868474e-11 6.790159238183868e-13 -4.526165413706308e-12 60.51078390802325
70 -139.78963826353052 -267.42472141140956 48.061817799447454 0.8401746009727751 -12.480749060685728 -65.62523181317674 -139.78963826353052 -266.1417884489234 48.061817799447454 0.8401746009727751 11.550159839037999 67.76639565190652
71 -118.2644302788849 -333.76849818821734 59.55213106848822 0.9290701411822326 -15.683776724085366 -82.5337347452329 -118.2644302788849 -332.4855652257312 59.55213106848822 0.9290701411822326 14.092288810158744 84.02978110825423
72 -69.10033155730216 -391.76547983163306 33.50331308846801 0.08537203464211307 -9.327297902014166 -97.43011617274765 -69.10033155730216 -390.4825468691469 33.50331308846801 0.08537203464211307 7.4243586422198415 98.13189050244733
73 2.693796401950207 -415.59635702330706 -1.1009409427244132 -0.7860435188671545 -0.743162043959691 -103.77053371941966 2.693796401950207 -414.3134240608209 -1.1009409427244132 -0.7860435188671545 -1.2936325153218993 103.70691155161235
74 77.96549748713826 -405.6473581645841 -36.331907895932915 0.6404735088376694 7.954286800017318 -101.7583338138962 77.96549748713826 -404.36442520209795 -36.331907895932915 0.6404735088376694 -10.21166714794914 100.74461202777432
75 161.4317782466818 -353.7174776687376 -82.09150826701432 0.2232253752490576 18.947523378563425 -89.79863193832473 161.4317782466818 -352.4345447062515 -82.09150826701432 0.2232253752490576 -22.098230754943735 86.73937365542257
76 228.63224418519147 -354.8401417656682 -45.882378661265705 -3.2925737253539205 9.93242716343292 -92.13526838237726 228.63224418519147 -353.55720880318205 -45.882378661265705 -3.2925737253539205 -13.008762167199933 84.96406925983528
77 -85.23867658974606 -430.36328287033524 -8.579196657240581e-11 2.7971768670965626e-13 2.155641258728418e-11 -114.31799092475737 -85.23867658974606 -429.0803499078491 -8.579196657240581e-11 2.7971768670965626e-13 -2.1339570698918725e-11 100.54291726978872
78 228.63224418515634 -354.84014176563994 45.88237866110772 3.2925737253549023 -9.932427163393474 -92.13526838237028 228.63224418515634 -353.5572088031538 45.88237866110772 3.2925737253549023 13.008762167160384 84.96406925982815
79 161.43177824673623 -353.7174776686839 82.09150826688287 -0.2232253752477391 -18.94752337853052 -89.79863193831135 161.43177824673623 -352.43454470619776 82.09150826688287 -0.2232253752477391 22.09823075491091 86.73937365540905
80 77.96549748716009 -405.64735816451685 36.33190789583233 -0.6404735088363673 -7.95428679999217 -101.75833381387939 77.96549748716009 -404.3644252020307 36.33190789583233 -0.6404735088363673 10.211667147923995 100.74461202775748
81 2.693796401979303 -415.5963570232416 1.1009409426616206 0.7860435188680889 0.7431620439752753 -103.7705337194033 2.693796401979303 -414.31342406075544 1.1009409426616206 0.7860435188680889 1.2936325153060872 103.70691155159597
82 -69.10033155726006 -391.7654798315804 -33.50331308851513 -0.08537203464150256 9.327297902025727 -97.43011617273463 -69.10033155726006 -390.4825468690943 -33.50331308851513 -0.08537203464150256 -7.424358642231839 98.13189050243406
83 -118.26443027884822 -333.76849818817936 -59.552131068530144 -0.9290701411813654 15.683776724095651 -82.53373474522363 -118.26443027884822 -332.4855652256932 -59.552131068530144 -0.9290701411813654 -14.092288810169414 84.0297811082445
84 -139.7896382635096 -267.42472141138916 -48.06181779948548 -0.840174600971539 12.48074906069518 -65.62523181317181 -139.7896382635096 -266.141788448903 -48.06181779948548 -0.840174600971539 -11.55015983904756 67.76639565190122
85 -284.8042301867084 -0.641466481219983 -1.1102468818658898e-11 -4.644219912375039e-13 2.766777361516187e-12 10.6966674808713 -284.8042301867084 0.6414664812661682 -1.1102468818658898e-11 -4.644219912375039e-13 -2.7844570478132616e-12 10.696667480859782
86 -275.43272238531654 -0.6414664812072145 -1.0970779840135947e-11 -5.46007683510652e-13 -3.710733993727423 9.297086205031972 -275.43272238531654 0.6414664812789367 -1.0970779840135947e-11 -5.46007683510652e-13 -3.710733993732907 9.297086205014041
87 -236.38028833018734 -0.6414664811953271 -5.8051341511600185e-12 -3.33288951992472e-13 -5.4371838026824095 5.786320108856319 -236.38028833018734 0.6414664812908241 -5.8051341511600185e-12 -3.33288951992472e-13 -5.437183802685307 5.786320108832447
88 -141.66246962420956 -0.6414664811907956 -1.9682033780554775e-12 -1.4765966227514582e-14 -4.0757231393229665 2.055582695326149 -141.66246962420956 0.6414664812953556 -1.9682033780554775e-12 -1.4765966227514582e-14 -4.075723139323955 2.0555826953000085
89 -14.405141156590059 -0.6414664811898302 -5.679900993982301e-13 5.750955267558311e-14 -0.2682576504710314 0.35856270873173124 -14.405141156590059 0.641466481296321 -5.679900993982301e-13 5.750955267558311e-14 -0.26825765047131533 0.3585627087051084
90 105.39291985258774 -0.6414664811908312 1.1830536550405668e-12 -7.72715225139109e-14 3.561807447340537 1.9131832811288099 105.39291985258774 0.64146648129532 1.1830536550405668e-12 -7.72715225139109e-14 3.5618074473411285 1.9131832811026872
91 279.91719402244644 -0.6414664811952916 4.710898338089464e-12 -2.1183055309847987e-13 5.836898363014425 6.186337982448265 279.91719402244644 0.6414664812908596 4.710898338089464e-12 -2.1183055309847987e-13 5.836898363016776 6.186337982424346
92 368.2464687157168 -0.6414664812034984 6.45528075438051e-12 -3.836930773104541e-13 4.5065069484451135 11.162742478826674 368.2464687157168 0.6414664812826528 6.45528075438051e-12 -3.836930773104541e-13 4.506506948448342 11.162742478806885
93 170.47735317948832 -0.641466481214597 6.1529713687451015e-12 -4.3802822993309473e-13 -1.632888241704288e-12 13.614707034665567 170.47735317948832 0.6414664812715541 6.1529713687451015e-12 -4.3802822993309473e-13 1.4435974426682626e-12 13.614707034651323
94 368.24646871574066 -0.6414664812229957 4.021671884402167e-12 -3.2107649872159527e-13 -4.506506948448278 11.162742478822656 368.24646871574066 0.6414664812631555 4.021671884402167e-12 -3.2107649872159527e-13 -4.506506948446268 11.16274247881262
95 279.9171940225544 -0.64146648122652 1.2718714970105793e-12 -1.9417800700693988e-13 -5.836898363017158 6.186337982441431 279.9171940225544 0.6414664812596312 1.2718714970105793e-12 -1.9417800700693988e-13 -5.8368983630165205 6.1863379824331535
96 105.39291985263758 -0.6414664812275396 -1.7479351299698465e-12 -2.473576898864849e-13 -3.561807447341824 1.9131832811201526 105.39291985263758 0.6414664812586116 -1.7479351299698465e-12 -2.473576898864849e-13 -3.5618074473426993 1.9131832811124132
97 -14.405141156529341 -0.6414664812282119 -5.750955267558311e-12 -1.5232259897857148e-13 0.2682576504705219 0.35856270872204676 -14.405141156529341 0.6414664812579393 -5.750955267558311e-12 -1.5232259897857148e-13 0.2682576504676465 0.35856270871461504
98 -141.66246962413237 -0.6414664812292129 -4.423128530106624e-12 8.271161533457416e-14 4.075723139322627 2.0555826953156817 -141.66246962413237 0.6414664812569383 -4.423128530106624e-12 8.271161533457416e-14 4.075723139320415 2.05558269530875
99 -236.38028833012856 -0.6414664812312095 -3.61666252501891e-12 -6.372680161348399e-14 5.437183802683557 5.786320108846138 -236.38028833012856 0.6414664812549417 -3.61666252501891e-12 -6.372680161348399e-14 5.437183802681749 5.786320108840204
100 -275.4327223852831 -0.641466481228481 -7.290168468898628e-12 -3.277378368693462e-13 3.7107339937316133 9.297086205025742 -275.4327223852831 0.6414664812576701 -7.290168468898628e-12 -3.277378368693462e-13 3.7107339937279673 9.297086205018472
101 -144.87411067081592 236.61489915858164 1.3949993546303426e-11 -4.575081581809695e-13 -3.496670395077571e-12 60.510783908015824 -144.87411067081592 237.89783212106778 1.3949993546303426e-11 -4.575081581809695e-13 3.4783263780741413e-12 -58.11739891189654
102 -139.78963826351554 266.1417884488913 -48.06181779945216 -0.8401746009724408 11.55015983903959 67.76639565189741 -139.78963826351554 267.42472141137745 -48.06181779945216 -0.8401746009724408 -12.480749060686486 -65.62523181316979
103 -118.26443027886825 332.4855652256929 -59.552131068496195 -0.9290701411820761 14.092288810161431 84.0297811082439 -118.26443027886825 333.768498188179 -59.552131068496195 -0.9290701411820761 -15.68377672408666 -82.5337347452241
104 -69.10033155729202 390.48254686910855 -33.50331308847548 -0.08537203464227094 7.4243586422222965 98.13189050243743 -69.10033155729202 391.7654798315947 -33.50331308847548 -0.08537203464227094 -9.327297902015445 -97.43011617273837
105 2.693796401950215 414.3134240607831 1.1009409427217012 0.7860435188668924 -1.2936325153210784 103.70691155160287 2.693796401950215 415.59635702326926 1.1009409427217012 0.7860435188668924 -0.7431620439602282 -103.77053371941027
106 77.96549748712877 404.3644252020589 36.33190789593433 -0.6404735088378057 -10.211667147949779 100.74461202776435 77.96549748712877 405.64735816454504 36.33190789593433 -0.6404735088378057 7.954286800017385 -101.75833381388661
107 161.43177824666537 352.4345447062108 82.09150826701698 -0.22322537524912983 -22.09823075494489 86.73937365541182 161.43177824666537 353.7174776686969 82.09150826701698 -0.22322537524912983 18.947523378563595 -89.79863193831505
108 228.63224418514375 353.55720880313896 45.88237866126698 3.2925737253539444 -13.008762167200507 84.96406925982375 228.63224418514375 354.8401417656251 45.88237866126698 3.2925737253539444 9.93242716343299 -92.13526838236727
109 -85.23867658974227 429.08034990780743 8.257171093599933e-11 1.5831054322343847e-13 -2.065670327866455e-11 100.54291726977775 -85.23867658974227 430.3632828702936 8.257171093599933e-11 1.5831054322343847e-13 2.0629152189335118e-11 -114.3179909247475
110 228.63224418517015 353.5572088031225 -45.88237866110543 -3.2925737253546683 13.008762167160064 84.9640692598198 228.63224418517015 354.8401417656086 -45.88237866110543 -3.2925737253546683 -9.932427163392653 -92.13526838236298
111 161.4317782467239 352.4345447061679 -82.0915082668783 0.22322537524763103 22.098230754910052 86.73937365540131 161.4317782467239 353.71747766865406 -82.0915082668783 0.22322537524763103 -18.947523378529095 -89.7986319383042
112 77.96549748715884 404.364425202 -36.33190789583001 0.6404735088363407 10.21166714792354 100.74461202774974 77.96549748715884 405.64735816448615 -36.33190789583001 0.6404735088363407 -7.954286799991464 -101.75833381387179
113 2.6937964019829845 414.31342406072565 -1.1009409426582124 -0.7860435188681073 1.2936325153050476 103.70691155158848 2.6937964019829845 415.5963570232118 -1.1009409426582124 -0.7860435188681073 0.7431620439759392 -103.77053371939586
114 -69.10033155725553 390.4825468690664 33.50331308851415 0.08537203464124088 -7.424358642232022 98.13189050242691 -69.10033155725553 391.76547983155257 33.50331308851415 0.08537203464124088 9.327297902025052 -97.43011617272782
115 -118.26443027884422 332.4855652256696 59.55213106852446 0.9290701411812111 -14.092288810168487 84.02978110823808 -118.26443027884422 333.7684981881557 59.55213106852446 0.9290701411812111 15.683776724093738 -82.53373474521821
116 -139.78963826350258 266.1417884488808 48.06181779947983 0.8401746009716231 -11.550159839046511 67.76639565189483 -139.78963826350258 267.42472141136693 48.06181779947983 0.8401746009716231 12.480749060693409 -65.6252318131671
$EndElementData
$ElementData
1
"AxialForce"
1
0
3
0
1
116
1 -590.4060741485737
2 -740.7454919437878
3 -994.0799250033742
4 -1254.8900528097874
5 -1389.175178008678
6 -6814.529265617719
7 -7190.611490308162
8 -6242.028660519378
9 -6242.028660518607
10 -7190.611490307536
11 -6814.529265617399
12 -1389.1751780085033
13 -1254.8900528098748
14 -994.0799250034906
15 -740.7454919439333
16 -590.4060741486246
17 5827.6630028895215
18 -135.56210461974842
19 113.30147659569047
20 550.5113989084493
21 1055.930032530101
22 1462.7269901984837
23 -444.8920862011146
24 214.83300083561335
25 622.0634105354548
26 622.0634105356294
27 214.83300083584618
28 -444.89208620018326
29 1462.7269901996478
30 1055.9300325305667
31 550.5113989082165
32 113.30147659545764
33 -135.56210461983574
34 -490.8848353816719
35 -135.56210462003946
36 113.30147659545764
37 550.5113989084493
38 1055.930032530101
39 1462.7269901987165
40 -444.89208620088175
41 214.83300083561335
42 622.0634105353674
43 622.063410535513
44 214.83300083572976
45 -444.89208620018326
46 1462.726990199415
47 1055.9300325298682
48 550.511398907518
49 113.3014765951084
50 -135.56210462009767
51 -490.88483538148193
52 -590.4060741485446
53 -740.7454919437441
54 -994.0799250032287
55 -1254.8900528097292
56 -1389.175178008678
57 -6814.529265617457
58 -7190.611490307798
59 -6242.028660519022
60 -6242.028660518318
61 -7190.6114903072885
62 -6814.529265617253
63 -1389.1751780083869
64 -1254.8900528097583
65 -994.0799250034324
66 -740.7454919438605
67 -590.406074148581
68 5827.663002889272
69 -144.87411067082684
70 -139.78963826353052
71 -118.2644302788849
72 -69.10033155730216
73 2.693796401950207
74 77.96549748713826
75 161.4317782466818
76 228.63224418519147
77 -85.23867658974606
78 228.63224418515634
79 161.43177824673623
80 77.96549748716009
81 2.693796401979303
82 -69.10033155726006
83 -118.26443027884822
84 -139.7896382635096
85 -284.8042301867084
86 -275.43272238531654
87 -236.38028833018734
88 -141.66246962420956
89 -14.405141156590059
90 105.39291985258774
91 279.91719402244644
92 368.2464687157168
93 170.47735317948832
94 368.24646871574066
95 279.9171940225544
96 105.39291985263758
97 -14.405141156529341
98 -141.66246962413237
99 -236.38028833012856
100 -275.4327223852831
101 -144.87411067081592
102 -139.78963826351554
103 -118.26443027886825
104 -69.10033155729202
105 2.693796401950215
106 77.96549748712877
107 161.43177824666537
108 228.63224418514375
109 -85.23867658974227
110 228.63224418517015
111 161.4317782467239
112 77.96549748715884
113 2.6937964019829845
114 -69.10033155725553
115 -118.26443027884422
116 -139.78963826350258
$EndElementData
$ElementData
1
"VonMisesStress"
1
0
3
0
1
116
1 14473117.508731427
2 17539947.565056432
3 19294212.550073657
4 25788515.970350605
5 56729241.879910685
6 79417136.07683182
7 72822122.74783601
8 121675699.8650197
9 121675699.86502236
10 72822122.74782619
11 79417136.0768246
12 56729241.879916176
13 25788515.970351655
14 19294212.550078373
15 17539947.565060962
16 14473117.508732937
17 103556770.77894142
18 21615570.29488046
19 20553130.655277714
20 19875860.990759034
21 30413403.80221175
22 31695666.8758602
23 52609707.70497847
24 22524366.243998416
25 28030890.114505157
26 28030890.114502188
27 22524366.243996717
28 52609707.70497252
29 31695666.87586589
30 30413403.802221064
31 19875860.990755796
32 20553130.655285012
33 21615570.294881742
34 97046738.01619883
35 21615570.29488084
36 20553130.655278455
37 19875860.990758985
38 30413403.802213416
39 31695666.875862133
40 52609707.70497801
41 22524366.24399747
42 28030890.1145044
43 28030890.114501376
44 22524366.243997406
45 52609707.70497053
46 31695666.875862177
47 30413403.80221593
48 19875860.990754887
49 20553130.655283354
50 21615570.29488121
51 97046738.01619725
52 14473117.508730678
53 17539947.565055467
54 19294212.55007214
55 25788515.97035005
56 56729241.87990928
57 79417136.076829
58 72822122.74783401
59 121675699.86501086
60 121675699.86502242
61 72822122.74782409
62 79417136.07682186
63 56729241.87991356
64 25788515.970350742
65 19294212.55007679
66 17539947.56505945
67 14473117.508731712
68 103556770.77894108
69 113487532.03135689
70 128931536.87218706
71 159212433.29605278
72 182936206.94840655
73 192158167.5511761
74 189884881.24379292
75 171781388.27759004
76 174509270.30082935
77 212359658.09051007
78 174509270.3008079
79 171781388.27755323
80 189884881.24375802
81 192158167.55114627
82 182936206.94838327
83 159212433.29603794
84 128931536.8721801
85 22904430.307334073
86 21528297.696122225
87 17265460.72610892
88 9992680.763136558
89 1101624.7656058832
90 8648612.57980469
91 18770437.45824441
92 26254620.986593794
93 27072150.216134377
94 26254620.986595888
95 18770437.458248425
96 8648612.579807987
97 1101624.7656030878
98 9992680.76313183
99 17265460.726105146
100 21528297.69612005
101 113487532.03134301
102 128931536.87217079
103 159212433.2960346
104 182936206.94838852
105 192158167.55115858
106 189884881.2437752
107 171781388.2775725
108 174509270.3008105
109 212359658.09049177
110 174509270.3007944
111 171781388.27753958
112 189884881.24374384
113 192158167.5511326
114 182936206.94837004
115 159212433.29602587
116 128931536.87216803
$EndElementData
$NodeData
1
"Fixity"
1
0
3
0
3
64
1 0 0 0
2 0 0 0
3 0 0 0
4 0 0 0
5 0 0 0
6 0 0 0
7 0 0 0
8 0 0 0
9 1 1 1
10 0 0 0
11 0 0 0
12 0 0 0
13 0 0 0
14 0 0 0
15 0 0 0
16 0 0 0
17 0 0 0
18 0 0 0
19 0 0 0
20 0 0 0
21 0 0 0
22 0 0 0
23 0 0 0
24 0 0 0
25 0 0 0
26 0 0 0
27 0 0 0
28 0 0 0
29 0 0 0
30 0 0 0
31 0 0 0
32 0 0 0
33 0 0 0
34 0 0 0
35 0 0 0
36 0 0 0
37 0 0 0
38 0 0 0
39 0 0 0
40 0 0 0
41 0 0 0
42 0 0 0
43 0 0 0
44 0 0 0
45 0 0 0
46 0 0 0
47 0 0 0
48 0 0 0
49 0 0 0
50 0 0 0
51 0 0 0
52 0 0 0
53 0 0 0
54 0 0 0
55 0 0 0
56 0 0 0
57 1 1 1
58 0 0 0
59 0 0 0
60 0 0 0
61 0 0 0
62 0 0 0
63 0 0 0
64 0 0 0
$EndNodeData
$NodeData
1
"FixityRotation"
1
0
3
0
3
64
1 0 0 0
2 0 0 0
3 0 0 0
4 0 0 0
5 0 0 0
6 0 0 0
7 0 0 0
8 0 0 0
9 1 1 1
10 0 0 0
11 0 0 0
12 0 0 0
13 0 0 0
14 0 0 0
15 0 0 0
16 0 0 0
17 0 0 0
18 0 0 0
19 0 0 0
20 0 0 0
21 0 0 0
22 0 0 0
23 0 0 0
24 0 0 0
25 0 0 0
26 0 0 0
27 0 0 0
28 0 0 0
29 0 0 0
30 0 0 0
31 0 0 0
32 0 0 0
33 0 0 0
34 0 0 0
35 0 0 0
36 0 0 0
37 0 0 0
38 0 0 0
39 0 0 0
40 0 0 0
41 0 0 0
42 0 0 0
43 0 0 0
44 0 0 0
45 0 0 0
46 0 0 0
47 0 0 0
48 0 0 0
49 0 0 0
50 0 0 0
51 0 0 0
52 0 0 0
53 0 0 0
54 0 0 0
55 0 0 0
56 0 0 0
57 1 1 1
58 0 0 0
59 0 0 0
60 0 0 0
61 0 0 0
62 0 0 0
63 0 0 0
64 0 0 0
$EndNodeData
$ElementData
1
"CrossSectionArea"
1
0
3
0
1
116
1 0.0006608230016469244
2 0.0006608230016469244
3 0.0006608230016469244
4 0.0006608230016469244
5 0.0006608230016469244
6 0.0006608230016469244
7 0.0006608230016469244
8 0.0006608230016469244
9 0.0006608230016469244
10 0.0006608230016469244
11 0.0006608230016469244
12 0.0006608230016469244
13 0.0006608230016469244
14 0.0006608230016469244
15 0.0006608230016469244
16 0.0006608230016469244
17 0.0005408230016469239
18 0.0006608230016469244
19 0.0006608230016469244
20 0.0006608230016469244
21 0.0006608230016469244
22 0.0006608230016469244
23 0.0006608230016469244
24 0.0006608230016469244
25 0.0006608230016469244
26 0.0006608230016469244
27 0.0006608230016469244
28 0.0006608230016469244
29 0.0006608230016469244
30 0.0006608230016469244
31 0.0006608230016469244
32 0.0006608230016469244
33 0.0006608230016469244
34 0.0005408230016469239
35 0.0006608230016469244
36 0.0006608230016469244
37 0.0006608230016469244
38 0.0006608230016469244
39 0.0006608230016469244
40 0.0006608230016469244
41 0.0006608230016469244
42 0.0006608230016469244
43 0.0006608230016469244
44 0.0006608230016469244
45 0.0006608230016469244
46 0.0006608230016469244
47 0.0006608230016469244
48 0.0006608230016469244
49 0.0006608230016469244
50 0.0006608230016469244
51 0.0005408230016469239
52 0.0006608230016469244
53 0.0006608230016469244
54 0.0006608230016469244
55 0.0006608230016469244
56 0.0006608230016469244
57 0.0006608230016469244
58 0.0006608230016469244
59 0.0006608230016469244
60 0.0006608230016469244
61 0.0006608230016469244
62 0.0006608230016469244
63 0.0006608230016469244
64 0.0006608230016469244
65 0.0006608230016469244
66 0.0006608230016469244
67 0.0006608230016469244
68 0.0005408230016469239
69 9.411708935330451e-05
70 9.411708935330451e-05
71 9.411708935330451e-05
72 9.411708935330451e-05
73 9.411708935330451e-05
74 9.411708935330451e-05
75 9.411708935330451e-05
76 9.411708935330451e-05
77 9.411708935330451e-05
78 9.411708935330451e-05
79 9.411708935330451e-05
80 9.411708935330451e-05
81 9.411708935330451e-05
82 9.411708935330451e-05
83 9.411708935330451e-05
84 9.411708935330451e-05
85 9.411708935330451e-05
86 9.411708935330451e-05
87 9.411708935330451e-05
88 9.411708935330451e-05
89 9.411708935330451e-05
90 9.411708935330451e-05
91 9.411708935330451e-05
92 9.411708935330451e-05
93 9.411708935330451e-05
94 9.411708935330451e-05
95 9.411708935330451e-05
96 9.411708935330451e-05
97 9.411708935330451e-05
98 9.411708935330451e-05
99 9.411708935330451e-05
100 9.411708935330451e-05
101 9.411708935330451e-05
102 9.411708935330451e-05
103 9.411708935330451e-05
104 9.411708935330451e-05
105 9.411708935330451e-05
106 9.411708935330451e-05
107 9.411708935330451e-05
108 9.411708935330451e-05
109 9.411708935330451e-05
110 9.411708935330451e-05
111 9.411708935330451e-05
112 9.411708935330451e-05
113 9.411708935330451e-05
114 9.411708935330451e-05
115 9.411708935330451e-05
116 9.411708935330451e-05
$EndElementData
$ElementData
1
"Attribute:ElementFormulation"
1
0
3
0
1
116
1 1
2 1
3 1
4 1
5 1
6 1
7 1
8 1
9 1
10 1
11 1
12 1
13 1
14 1
15 1
16 1
17 1
18 1
19 1
20 1
21 1
22 1
23 1
24 1
25 1
26 1
27 1
28 1
29 1
30 1
31 1
32 1
33 1
34 1
35 1
36 1
37 1
38 1
39 1
40 1
41 1
42 1
43 1
44 1
45 1
46 1
47 1
48 1
49 1
50 1
51 1
52 1
53 1
54 1
55 1
56 1
57 1
58 1
59 1
60 1
61 1
62 1
63 1
64 1
65 1
66 1
67 1
68 1
69 1
70 1
71 1
72 1
73 1
74 1
75 1
76 1
77 1
78 1
79 1
80 1
81 1
82 1
83 1
84 1
85 1
86 1
87 1
88 1
89 1
90 1
91 1
92 1
93 1
94 1
95 1
96 1
97 1
98 1
99 1
100 1
101 1
102 1
103 1
104 1
105 1
106 1
107 1
108 1
109 1
110 1
111 1
112 1
113 1
114 1
115 1
116 1
$EndElementData
$ElementData
1
"MaterialID"
1
0
3
0
1
116
1 10
2 10
3 10
4 10
5 10
6 10
7 10
8 10
9 10
10 10
11 10
12 10
13 10
14 10
15 10
16 10
17 10
18 10
19 10
20 10
21 10
22 10
23 10
24 10
25 10
26 10
27 10
28 10
29 10
30 10
31 10
32 10
33 10
34 10
35 10
36 10
37 10
38 10
39 10
40 10
41 10
42 10
43 10
44 10
45 10
46 10
47 10
48 10
49 10
50 10
51 10
52 10
53 10
54 10
55 10
56 10
57 10
58 10
59 10
60 10
61 10
62 10
63 10
64 10
65 10
66 10
67 10
68 10
69 10
70 10
71 10
72 10
73 10
74 10
75 10
76 10
77 10
78 10
79 10
80 10
81 10
82 10
83 10
84 10
85 10
86 10
87 10
88 10
89 10
90 10
91 10
92 10
93 10
94 10
95 10
96 10
97 10
98 10
99 10
100 10
101 10
102 10
103 10
104 10
105 10
106 10
107 10
108 10
109 10
110 10
111 10
112 10
113 10
114 10
115 10
116 10
$EndElementData
$ElementData
1
"Attribute:SecondMomentY"
1
0
3
0
1
116
1 1.7555556709132495e-07
2 1.7555556709132495e-07
3 1.7555556709132495e-07
4 1.7555556709132495e-07
5 1.7555556709132495e-07
6 1.7555556709132495e-07
7 1.7555556709132495e-07
8 1.7555556709132495e-07
9 1.7555556709132495e-07
10 1.7555556709132495e-07
11 1.7555556709132495e-07
12 1.7555556709132495e-07
13 1.7555556709132495e-07
14 1.7555556709132495e-07
15 1.7555556709132495e-07
16 1.7555556709132495e-07
17 1.3439556709132484e-07
18 1.7555556709132495e-07
19 1.7555556709132495e-07
20 1.7555556709132495e-07
21 1.7555556709132495e-07
22 1.7555556709132495e-07
23 1.7555556709132495e-07
24 1.7555556709132495e-07
25 1.7555556709132495e-07
26 1.7555556709132495e-07
27 1.7555556709132495e-07
28 1.7555556709132495e-07
29 1.7555556709132495e-07
30 1.7555556709132495e-07
31 1.7555556709132495e-07
32 1.7555556709132495e-07
33 1.7555556709132495e-07
34 1.3439556709132484e-07
35 1.7555556709132495e-07
36 1.7555556709132495e-07
37 1.7555556709132495e-07
38 1.7555556709132495e-07
39 1.7555556709132495e-07
40 1.7555556709132495e-07
41 1.7555556709132495e-07
42 1.7555556709132495e-07
43 1.7555556709132495e-07
44 1.7555556709132495e-07
45 1.7555556709132495e-07
46 1.7555556709132495e-07
47 1.7555556709132495e-07
48 1.7555556709132495e-07
49 1.7555556709132495e-07
50 1.7555556709132495e-07
51 1.3439556709132484e-07
52 1.7555556709132495e-07
53 1.7555556709132495e-07
54 1.7555556709132495e-07
55 1.7555556709132495e-07
56 1.7555556709132495e-07
57 1.7555556709132495e-07
58 1.7555556709132495e-07
59 1.7555556709132495e-07
60 1.7555556709132495e-07
61 1.7555556709132495e-07
62 1.7555556709132495e-07
63 1.7555556709132495e-07
64 1.7555556709132495e-07
65 1.7555556709132495e-07
66 1.7555556709132495e-07
67 1.7555556709132495e-07
68 1.3439556709132484e-07
69 6.885173318476729e-09
70 6.885173318476729e-09
71 6.885173318476729e-09
72 6.885173318476729e-09
73 6.885173318476729e-09
74 6.885173318476729e-09
75 6.885173318476729e-09
76 6.885173318476729e-09
77 6.885173318476729e-09
78 6.885173318476729e-09
79 6.885173318476729e-09
80 6.885173318476729e-09
81 6.885173318476729e-09
82 6.885173318476729e-09
83 6.885173318476729e-09
84 6.885173318476729e-09
85 6.885173318476729e-09
86 6.885173318476729e-09
87 6.885173318476729e-09
88 6.885173318476729e-09
89 6.885173318476729e-09
90 6.885173318476729e-09
91 6.885173318476729e-09
92 6.885173318476729e-09
93 6.885173318476729e-09
94 6.885173318476729e-09
95 6.885173318476729e-09
96 6.885173318476729e-09
97 6.885173318476729e-09
98 6.885173318476729e-09
99 6.885173318476729e-09
100 6.885173318476729e-09
101 6.885173318476729e-09
102 6.885173318476729e-09
103 6.885173318476729e-09
104 6.885173318476729e-09
105 6.885173318476729e-09
106 6.885173318476729e-09
107 6.885173318476729e-09
108 6.885173318476729e-09
109 6.885173318476729e-09
110 6.885173318476729e-09
111 6.885173318476729e-09
112 6.885173318476729e-09
113 6.885173318476729e-09
114 6.885173318476729e-09
115 6.885173318476729e-09
116 6.885173318476729e-09
$EndElementData
$ElementData
1
"Attribute:SecondMomentZ"
1
0
3
0
1
116
1 5.225056486723729e-07
2 5.225056486723729e-07
3 5.225056486723729e-07
4 5.225056486723729e-07
5 5.225056486723729e-07
6 5.225056486723729e-07
7 5.225056486723729e-07
8 5.225056486723729e-07
9 5.225056486723729e-07
10 5.225056486723729e-07
11 5.225056486723729e-07
12 5.225056486723729e-07
13 5.225056486723729e-07
14 5.225056486723729e-07
15 5.225056486723729e-07
16 5.225056486723729e-07
17 2.537883077171562e-07
18 5.225056486723729e-07
19 5.225056486723729e-07
20 5.225056486723729e-07
21 5.225056486723729e-07
22 5.225056486723729e-07
23 5.225056486723729e-07
24 5.225056486723729e-07
25 5.225056486723729e-07
26 5.225056486723729e-07
27 5.225056486723729e-07
28 5.225056486723729e-07
29 5.225056486723729e-07
30 5.225056486723729e-07
31 5.225056486723729e-07
32 5.225056486723729e-07
33 5.225056486723729e-07
34 2.537883077171562e-07
35 5.225056486723729e-07
36 5.225056486723729e-07
37 5.225056486723729e-07
38 5.225056486723729e-07
39 5.225056486723729e-07
40 5.225056486723729e-07
41 5.225056486723729e-07
42 5.225056486723729e-07
43 5.225056486723729e-07
44 5.225056486723729e-07
45 5.225056486723729e-07
46 5.225056486723729e-07
47 5.225056486723729e-07
48 5.225056486723729e-07
49 5.225056486723729e-07
50 5.225056486723729e-07
51 2.537883077171562e-07
52 5.225056486723729e-07
53 5.225056486723729e-07
54 5.225056486723729e-07
55 5.225056486723729e-07
56 5.225056486723729e-07
57 5.225056486723729e-07
58 5.225056486723729e-07
59 5.225056486723729e-07
60 5.225056486723729e-07
61 5.225056486723729e-07
62 5.225056486723729e-07
63 5.225056486723729e-07
64 5.225056486723729e-07
65 5.225056486723729e-07
66 5.225056486723729e-07
67 5.225056486723729e-07
68 2.537883077171562e-07
69 6.885173318476729e-09
70 6.885173318476729e-09
71 6.885173318476729e-09
72 6.885173318476729e-09
73 6.885173318476729e-09
74 6.885173318476729e-09
75 6.885173318476729e-09
76 6.885173318476729e-09
77 6.885173318476729e-09
78 6.885173318476729e-09
79 6.885173318476729e-09
80 6.885173318476729e-09
81 6.885173318476729e-09
82 6.885173318476729e-09
83 6.885173318476729e-09
84 6.885173318476729e-09
85 6.885173318476729e-09
86 6.885173318476729e-09
87 6.885173318476729e-09
88 6.885173318476729e-09
89 6.885173318476729e-09
90 6.885173318476729e-09
91 6.885173318476729e-09
92 6.885173318476729e-09
93 6.885173318476729e-09
94 6.885173318476729e-09
95 6.885173318476729e-09
96 6.885173318476729e-09
97 6.885173318476729e-09
98 6.885173318476729e-09
99 6.885173318476729e-09
100 6.885173318476729e-09
101 6.885173318476729e-09
102 6.885173318476729e-09
103 6.885173318476729e-09
104 6.885173318476729e-09
105 6.885173318476729e-09
106 6.885173318476729e-09
107 6.885173318476729e-09
108 6.885173318476729e-09
109 6.885173318476729e-09
110 6.885173318476729e-09
111 6.885173318476729e-09
112 6.885173318476729e-09
113 6.885173318476729e-09
114 6.885173318476729e-09
115 6.885173318476729e-09
116 6.885173318476729e-09
$EndElementData
$ElementData
1
"Attribute:SectionDimension1"
1
0
3
0
1
116
1 0.08
2 0.08
3 0.08
4 0.08
5 0.08
6 0.08
7 0.08
8 0.08
9 0.08
10 0.08
11 0.08
12 0.08
13 0.08
14 0.08
15 0.08
16 0.08
17 0.06
18 0.08
19 0.08
20 0.08
21 0.08
22 0.08
23 0.08
24 0.08
25 0.08
26 0.08
27 0.08
28 0.08
29 0.08
30 0.08
31 0.08
32 0.08
33 0.08
34 0.06
35 0.08
36 0.08
37 0.08
38 0.08
39 0.08
40 0.08
41 0.08
42 0.08
43 0.08
44 0.08
45 0.08
46 0.08
47 0.08
48 0.08
49 0.08
50 0.08
51 0.06
52 0.08
53 0.08
54 0.08
55 0.08
56 0.08
57 0.08
58 0.08
59 0.08
60 0.08
61 0.08
62 0.08
63 0.08
64 0.08
65 0.08
66 0.08
67 0.08
68 0.06
69 0.0254
70 0.0254
71 0.0254
72 0.0254
73 0.0254
74 0.0254
75 0.0254
76 0.0254
77 0.0254
78 0.0254
79 0.0254
80 0.0254
81 0.0254
82 0.0254
83 0.0254
84 0.0254
85 0.0254
86 0.0254
87 0.0254
88 0.0254
89 0.0254
90 0.0254
91 0.0254
92 0.0254
93 0.0254
94 0.0254
95 0.0254
96 0.0254
97 0.0254
98 0.0254
99 0.0254
100 0.0254
101 0.0254
102 0.0254
103 0.0254
104 0.0254
105 0.0254
106 0.0254
107 0.0254
108 0.0254
109 0.0254
110 0.0254
111 0.0254
112 0.0254
113 0.0254
114 0.0254
115 0.0254
116 0.0254
$EndElementData
$ElementData
1
"Attribute:SectionDimension2"
1
0
3
0
1
116
1 0.04
2 0.04
3 0.04
4 0.04
5 0.04
6 0.04
7 0.04
8 0.04
9 0.04
10 0.04
11 0.04
12 0.04
13 0.04
14 0.04
15 0.04
16 0.04
17 0.04
18 0.04
19 0.04
20 0.04
21 0.04
22 0.04
23 0.04
24 0.04
25 0.04
26 0.04
27 0.04
28 0.04
29 0.04
30 0.04
31 0.04
32 0.04
33 0.04
34 0.04
35 0.04
36 0.04
37 0.04
38 0.04
39 0.04
40 0.04
41 0.04
42 0.04
43 0.04
44 0.04
45 0.04
46 0.04
47 0.04
48 0.04
49 0.04
50 0.04
51 0.04
52 0.04
53 0.04
54 0.04
55 0.04
56 0.04
57 0.04
58 0.04
59 0.04
60 0.04
61 0.04
62 0.04
63 0.04
64 0.04
65 0.04
66 0.04
67 0.04
68 0.04
69 0.00124
70 0.00124
71 0.00124
72 0.00124
73 0.00124
74 0.00124
75 0.00124
76 0.00124
77 0.00124
78 0.00124
79 0.00124
80 0.00124
81 0.00124
82 0.00124
83 0.00124
84 0.00124
85 0.00124
86 0.00124
87 0.00124
88 0.00124
89 0.00124
90 0.00124
91 0.00124
92 0.00124
93 0.00124
94 0.00124
95 0.00124
96 0.00124
97 0.00124
98 0.00124
99 0.00124
100 0.00124
101 0.00124
102 0.00124
103 0.00124
104 0.00124
105 0.00124
106 0.00124
107 0.00124
108 0.00124
109 0.00124
110 0.00124
111 0.00124
112 0.00124
113 0.00124
114 0.00124
115 0.00124
116 0.00124
$EndElementData
$ElementData
1
"Attribute:SectionDimension3"
1
0
3
0
1
116
1 0.003
2 0.003
3 0.003
4 0.003
5 0.003
6 0.003
7 0.003
8 0.003
9 0.003
10 0.003
11 0.003
12 0.003
13 0.003
14 0.003
15 0.003
16 0.003
17 0.003
18 0.003
19 0.003
20 0.003
21 0.003
22 0.003
23 0.003
24 0.003
25 0.003
26 0.003
27 0.003
28 0.003
29 0.003
30 0.003
31 0.003
32 0.003
33 0.003
34 0.003
35 0.003
36 0.003
37 0.003
38 0.003
39 0.003
40 0.003
41 0.003
42 0.003
43 0.003
44 0.003
45 0.003
46 0.003
47 0.003
48 0.003
49 0.003
50 0.003
51 0.003
52 0.003
53 0.003
54 0.003
55 0.003
56 0.003
57 0.003
58 0.003
59 0.003
60 0.003
61 0.003
62 0.003
63 0.003
64 0.003
65 0.003
66 0.003
67 0.003
68 0.003
69 0
70 0
71 0
72 0
73 0
74 0
75 0
76 0
77 0
78 0
79 0
80 0
81 0
82 0
83 0
84 0
85 0
86 0
87 0
88 0
89 0
90 0
91 0
92 0
93 0
94 0
95 0
96 0
97 0
98 0
99 0
100 0
101 0
102 0
103 0
104 0
105 0
106 0
107 0
108 0
109 0
110 0
111 0
112 0
113 0
114 0
115 0
116 0
$EndElementData
$ElementData
1
"Attribute:SectionDimension4"
1
0
3
0
1
116
1 0.006
2 0.006
3 0.006
4 0.006
5 0.006
6 0.006
7 0.006
8 0.006
9 0.006
10 0.006
11 0.006
12 0.006
13 0.006
14 0.006
15 0.006
16 0.006
17 0.006
18 0.006
19 0.006
20 0.006
21 0.006
22 0.006
23 0.006
24 0.006
25 0.006
26 0.006
27 0.006
28 0.006
29 0.006
30 0.006
31 0.006
32 0.006
33 0.006
34 0.006
35 0.006
36 0.006
37 0.006
38 0.006
39 0.006
40 0.006
41 0.006
42 0.006
43 0.006
44 0.006
45 0.006
46 0.006
47 0.006
48 0.006
49 0.006
50 0.006
51 0.006
52 0.006
53 0.006
54 0.006
55 0.006
56 0.006
57 0.006
58 0.006
59 0.006
60 0.006
61 0.006
62 0.006
63 0.006
64 0.006
65 0.006
66 0.006
67 0.006
68 0.006
69 0
70 0
71 0
72 0
73 0
74 0
75 0
76 0
77 0
78 0
79 0
80 0
81 0
82 0
83 0
84 0
85 0
86 0
87 0
88 0
89 0
90 0
91 0
92 0
93 0
94 0
95 0
96 0
97 0
98 0
99 0
100 0
101 0
102 0
103 0
104 0
105 0
106 0
107 0
108 0
109 0
110 0
111 0
112 0
113 0
114 0
115 0
116 0
$EndElementData
$ElementData
1
"Attribute:SectionDimension5"
1
0
3
0
1
116
1 0.003
2 0.003
3 0.003
4 0.003
5 0.003
6 0.003
7 0.003
8 0.003
9 0.003
10 0.003
11 0.003
12 0.003
13 0.003
14 0.003
15 0.003
16 0.003
17 0.003
18 0.003
19 0.003
20 0.003
21 0.003
22 0.003
23 0.003
24 0.003
25 0.003
26 0.003
27 0.003
28 0.003
29 0.003
30 0.003
31 0.003
32 0.003
33 0.003
34 0.003
35 0.003
36 0.003
37 0.003
38 0.003
39 0.003
40 0.003
41 0.003
42 0.003
43 0.003
44 0.003
45 0.003
46 0.003
47 0.003
48 0.003
49 0.003
50 0.003
51 0.003
52 0.003
53 0.003
54 0.003
55 0.003
56 0.003
57 0.003
58 0.003
59 0.003
60 0.003
61 0.003
62 0.003
63 0.003
64 0.003
65 0.003
66 0.003
67 0.003
68 0.003
69 0
70 0
71 0
72 0
73 0
74 0
75 0
76 0
77 0
78 0
79 0
80 0
81 0
82 0
83 0
84 0
85 0
86 0
87 0
88 0
89 0
90 0
91 0
92 0
93 0
94 0
95 0
96 0
97 0
98 0
99 0
100 0
101 0
102 0
103 0
104 0
105 0
106 0
107 0
108 0
109 0
110 0
111 0
112 0
113 0
114 0
115 0
116 0
$EndElementData
$ElementData
1
"Attribute:SectionShape"
1
0
3
0
1
116
1 4
2 4
3 4
4 4
5 4
6 4
7 4
8 4
9 4
10 4
11 4
12 4
13 4
14 4
15 4
16 4
17 4
18 4
19 4
20 4
21 4
22 4
23 4
24 4
25 4
26 4
27 4
28 4
29 4
30 4
31 4
32 4
33 4
34 4
35 4
36 4
37 4
38 4
39 4
40 4
41 4
42 4
43 4
44 4
45 4
46 4
47 4
48 4
49 4
50 4
51 4
52 4
53 4
54 4
55 4
56 4
57 4
58 4
59 4
60 4
61 4
62 4
63 4
64 4
65 4
66 4
67 4
68 4
69 3
70 3
71 3
72 3
73 3
74 3
75 3
76 3
77 3
78 3
79 3
80 3
81 3
82 3
83 3
84 3
85 3
86 3
87 3
88 3
89 3
90 3
91 3
92 3
93 3
94 3
95 3
96 3
97 3
98 3
99 3
100 3
101 3
102 3
103 3
104 3
105 3
106 3
107 3
108 3
109 3
110 3
111 3
112 3
113 3
114 3
115 3
116 3
$EndElementData
$ElementData
1
"Attribute:ShearAreaY"
1
0
3
0
1
116
1 0.00042187725572707756
2 0.00042187725572707756
3 0.00042187725572707756
4 0.00042187725572707756
5 0.00042187725572707756
6 0.00042187725572707756
7 0.00042187725572707756
8 0.00042187725572707756
9 0.00042187725572707756
10 0.00042187725572707756
11 0.00042187725572707756
12 0.00042187725572707756
13 0.00042187725572707756
14 0.00042187725572707756
15 0.00042187725572707756
16 0.00042187725572707756
17 0.0003038347602687874
18 0.00042187725572707756
19 0.00042187725572707756
20 0.00042187725572707756
21 0.00042187725572707756
22 0.00042187725572707756
23 0.00042187725572707756
24 0.00042187725572707756
25 0.00042187725572707756
26 0.00042187725572707756
27 0.00042187725572707756
28 0.00042187725572707756
29 0.00042187725572707756
30 0.00042187725572707756
31 0.00042187725572707756
32 0.00042187725572707756
33 0.00042187725572707756
34 0.0003038347602687874
35 0.00042187725572707756
36 0.00042187725572707756
37 0.00042187725572707756
38 0.00042187725572707756
39 0.00042187725572707756
40 0.00042187725572707756
41 0.00042187725572707756
42 0.00042187725572707756
43 0.00042187725572707756
44 0.00042187725572707756
45 0.00042187725572707756
46 0.00042187725572707756
47 0.00042187725572707756
48 0.00042187725572707756
49 0.00042187725572707756
50 0.00042187725572707756
51 0.0003038347602687874
52 0.00042187725572707756
53 0.00042187725572707756
54 0.00042187725572707756
55 0.00042187725572707756
56 0.00042187725572707756
57 0.00042187725572707756
58 0.00042187725572707756
59 0.00042187725572707756
60 0.00042187725572707756
61 0.00042187725572707756
62 0.00042187725572707756
63 0.00042187725572707756
64 0.00042187725572707756
65 0.00042187725572707756
66 0.00042187725572707756
67 0.00042187725572707756
68 0.0003038347602687874
69 5.03819351557192e-05
70 5.03819351557192e-05
71 5.03819351557192e-05
72 5.03819351557192e-05
73 5.03819351557192e-05
74 5.03819351557192e-05
75 5.03819351557192e-05
76 5.03819351557192e-05
77 5.03819351557192e-05
78 5.03819351557192e-05
79 5.03819351557192e-05
80 5.03819351557192e-05
81 5.03819351557192e-05
82 5.03819351557192e-05
83 5.03819351557192e-05
84 5.03819351557192e-05
85 5.03819351557192e-05
86 5.03819351557192e-05
87 5.03819351557192e-05
88 5.03819351557192e-05
89 5.03819351557192e-05
90 5.03819351557192e-05
91 5.03819351557192e-05
92 5.03819351557192e-05
93 5.03819351557192e-05
94 5.03819351557192e-05
95 5.03819351557192e-05
96 5.03819351557192e-05
97 5.03819351557192e-05
98 5.03819351557192e-05
99 5.03819351557192e-05
100 5.03819351557192e-05
101 5.03819351557192e-05
102 5.03819351557192e-05
103 5.03819351557192e-05
104 5.03819351557192e-05
105 5.03819351557192e-05
106 5.03819351557192e-05
107 5.03819351557192e-05
108 5.03819351557192e-05
109 5.03819351557192e-05
110 5.03819351557192e-05
111 5.03819351557192e-05
112 5.03819351557192e-05
113 5.03819351557192e-05
114 5.03819351557192e-05
115 5.03819351557192e-05
116 5.03819351557192e-05
$EndElementData
$ElementData
1
"Attribute:ShearAreaZ"
1
0
3
0
1
116
1 0.00015395668953075635
2 0.00015395668953075635
3 0.00015395668953075635
4 0.00015395668953075635
5 0.00015395668953075635
6 0.00015395668953075635
7 0.00015395668953075635
8 0.00015395668953075635
9 0.00015395668953075635
10 0.00015395668953075635
11 0.00015395668953075635
12 0.00015395668953075635
13 0.00015395668953075635
14 0.00015395668953075635
15 0.00015395668953075635
16 0.00015395668953075635
17 0.00016836011980367143
18 0.00015395668953075635
19 0.00015395668953075635
20 0.00015395668953075635
21 0.00015395668953075635
22 0.00015395668953075635
23 0.00015395668953075635
24 0.00015395668953075635
25 0.00015395668953075635
26 0.00015395668953075635
27 0.00015395668953075635
28 0.00015395668953075635
29 0.00015395668953075635
30 0.00015395668953075635
31 0.00015395668953075635
32 0.00015395668953075635
33 0.00015395668953075635
34 0.00016836011980367143
35 0.00015395668953075635
36 0.00015395668953075635
37 0.00015395668953075635
38 0.00015395668953075635
39 0.00015395668953075635
40 0.00015395668953075635
41 0.00015395668953075635
42 0.00015395668953075635
43 0.00015395668953075635
44 0.00015395668953075635
45 0.00015395668953075635
46 0.00015395668953075635
47 0.00015395668953075635
48 0.00015395668953075635
49 0.00015395668953075635
50 0.00015395668953075635
51 0.00016836011980367143
52 0.00015395668953075635
53 0.00015395668953075635
54 0.00015395668953075635
55 0.00015395668953075635
56 0.00015395668953075635
57 0.00015395668953075635
58 0.00015395668953075635
59 0.00015395668953075635
60 0.00015395668953075635
61 0.00015395668953075635
62 0.00015395668953075635
63 0.00015395668953075635
64 0.00015395668953075635
65 0.00015395668953075635
66 0.00015395668953075635
67 0.00015395668953075635
68 0.00016836011980367143
69 5.03819351557192e-05
70 5.03819351557192e-05
71 5.03819351557192e-05
72 5.03819351557192e-05
73 5.03819351557192e-05
74 5.03819351557192e-05
75 5.03819351557192e-05
76 5.03819351557192e-05
77 5.03819351557192e-05
78 5.03819351557192e-05
79 5.03819351557192e-05
80 5.03819351557192e-05
81 5.03819351557192e-05
82 5.03819351557192e-05
83 5.03819351557192e-05
84 5.03819351557192e-05
85 5.03819351557192e-05
86 5.03819351557192e-05
87 5.03819351557192e-05
88 5.03819351557192e-05
89 5.03819351557192e-05
90 5.03819351557192e-05
91 5.03819351557192e-05
92 5.03819351557192e-05
93 5.03819351557192e-05
94 5.03819351557192e-05
95 5.03819351557192e-05
96 5.03819351557192e-05
97 5.03819351557192e-05
98 5.03819351557192e-05
99 5.03819351557192e-05
100 5.03819351557192e-05
101 5.03819351557192e-05
102 5.03819351557192e-05
103 5.03819351557192e-05
104 5.03819351557192e-05
105 5.03819351557192e-05
106 5.03819351557192e-05
107 5.03819351557192e-05
108 5.03819351557192e-05
109 5.03819351557192e-05
110 5.03819351557192e-05
111 5.03819351557192e-05
112 5.03819351557192e-05
113 5.03819351557192e-05
114 5.03819351557192e-05
115 5.03819351557192e-05
116 5.03819351557192e-05
$EndElementData
$ElementData
1
"Attribute:TorsionConstant"
1
0
3
0
1
116
1 4.387863098978217e-07
2 4.387863098978217e-07
3 4.387863098978217e-07
4 4.387863098978217e-07
5 4.387863098978217e-07
6 4.387863098978217e-07
7 4.387863098978217e-07
8 4.387863098978217e-07
9 4.387863098978217e-07
10 4.387863098978217e-07
11 4.387863098978217e-07
12 4.387863098978217e-07
13 4.387863098978217e-07
14 4.387863098978217e-07
15 4.387863098978217e-07
16 4.387863098978217e-07
17 2.928361519369186e-07
18 4.387863098978217e-07
19 4.387863098978217e-07
20 4.387863098978217e-07
21 4.387863098978217e-07
22 4.387863098978217e-07
23 4.387863098978217e-07
24 4.387863098978217e-07
25 4.387863098978217e-07
26 4.387863098978217e-07
27 4.387863098978217e-07
28 4.387863098978217e-07
29 4.387863098978217e-07
30 4.387863098978217e-07
31 4.387863098978217e-07
32 4.387863098978217e-07
33 4.387863098978217e-07
34 2.928361519369186e-07
35 4.387863098978217e-07
36 4.387863098978217e-07
37 4.387863098978217e-07
38 4.387863098978217e-07
39 4.387863098978217e-07
40 4.387863098978217e-07
41 4.387863098978217e-07
42 4.387863098978217e-07
43 4.387863098978217e-07
44 4.387863098978217e-07
45 4.387863098978217e-07
46 4.387863098978217e-07
47 4.387863098978217e-07
48 4.387863098978217e-07
49 4.387863098978217e-07
50 4.387863098978217e-07
51 2.928361519369186e-07
52 4.387863098978217e-07
53 4.387863098978217e-07
54 4.387863098978217e-07
55 4.387863098978217e-07
56 4.387863098978217e-07
57 4.387863098978217e-07
58 4.387863098978217e-07
59 4.387863098978217e-07
60 4.387863098978217e-07
61 4.387863098978217e-07
62 4.387863098978217e-07
63 4.387863098978217e-07
64 4.387863098978217e-07
65 4.387863098978217e-07
66 4.387863098978217e-07
67 4.387863098978217e-07
68 2.928361519369186e-07
69 1.3770346636953458e-08
70 1.3770346636953458e-08
71 1.3770346636953458e-08
72 1.3770346636953458e-08
73 1.3770346636953458e-08
74 1.3770346636953458e-08
75 1.3770346636953458e-08
76 1.3770346636953458e-08
77 1.3770346636953458e-08
78 1.3770346636953458e-08
79 1.3770346636953458e-08
80 1.3770346636953458e-08
81 1.3770346636953458e-08
82 1.3770346636953458e-08
83 1.3770346636953458e-08
84 1.3770346636953458e-08
85 1.3770346636953458e-08
86 1.3770346636953458e-08
87 1.3770346636953458e-08
88 1.3770346636953458e-08
89 1.3770346636953458e-08
90 1.3770346636953458e-08
91 1.3770346636953458e-08
92 1.3770346636953458e-08
93 1.3770346636953458e-08
94 1.3770346636953458e-08
95 1.3770346636953458e-08
96 1.3770346636953458e-08
97 1.3770346636953458e-08
98 1.3770346636953458e-08
99 1.3770346636953458e-08
100 1.3770346636953458e-08
101 1.3770346636953458e-08
102 1.3770346636953458e-08
103 1.3770346636953458e-08
104 1.3770346636953458e-08
105 1.3770346636953458e-08
106 1.3770346636953458e-08
107 1.3770346636953458e-08
108 1.3770346636953458e-08
109 1.3770346636953458e-08
110 1.3770346636953458e-08
111 1.3770346636953458e-08
112 1.3770346636953458e-08
113 1.3770346636953458e-08
114 1.3770346636953458e-08
115 1.3770346636953458e-08
116 1.3770346636953458e-08
$EndElementData
$ElementData
1
"Attribute:UniformLoadGlobalX"
1
0
3
0
1
116
1 0
2 0
3 0
4 0
5 0
6 0
7 0
8 0
9 0
10 0
11 0
12 0
13 0
14 0
15 0
16 0
17 0
18 0
19 0
20 0
21 0
22 0
23 0
24 0
25 0
26 0
27 0
28 0
29 0
30 0
31 0
32 0
33 0
34 0
35 0
36 0
37 0
38 0
39 0
40 0
41 0
42 0
43 0
44 0
45 0
46 0
47 0
48 0
49 0
50 0
51 0
52 0
53 0
54 0
55 0
56 0
57 0
58 0
59 0
60 0
61 0
62 0
63 0
64 0
65 0
66 0
67 0
68 0
69 0
70 0
71 0
72 0
73 0
74 0
75 0
76 0
77 0
78 0
79 0
80 0
81 0
82 0
83 0
84 0
85 0
86 0
87 0
88 0
89 0
90 0
91 0
92 0
93 0
94 0
95 0
96 0
97 0
98 0
99 0
100 0
101 0
102 0
103 0
104 0
105 0
106 0
107 0
108 0
109 0
110 0
111 0
112 0
113 0
114 0
115 0
116 0
$EndElementData
$ElementData
1
"Attribute:UniformLoadGlobalY"
1
0
3
0
1
116
1 0
2 0
3 0
4 0
5 0
6 0
7 0
8 0
9 0
10 0
11 0
12 0
13 0
14 0
15 0
16 0
17 -3000
18 0
19 0
20 0
21 0
22 0
23 0
24 0
25 0
26 0
27 0
28 0
29 0
30 0
31 0
32 0
33 0
34 -3000
35 0
36 0
37 0
38 0
39 0
40 0
41 0
42 0
43 0
44 0
45 0
46 0
47 0
48 0
49 0
50 0
51 -3000
52 0
53 0
54 0
55 0
56 0
57 0
58 0
59 0
60 0
61 0
62 0
63 0
64 0
65 0
66 0
67 0
68 -3000
69 0
70 0
71 0
72 0
73 0
74 0
75 0
76 0
77 0
78 0
79 0
80 0
81 0
82 0
83 0
84 0
85 0
86 0
87 0
88 0
89 0
90 0
91 0
92 0
93 0
94 0
95 0
96 0
97 0
98 0
99 0
100 0
101 0
102 0
103 0
104 0
105 0
106 0
107 0
108 0
109 0
110 0
111 0
112 0
113 0
114 0
115 0
116 0
$EndElementData
$ElementData
1
"Attribute:UniformLoadGlobalZ"
1
0
3
0
1
116
1 0
2 0
3 0
4 0
5 0
6 0
7 0
8 0
9 0
10 0
11 0
12 0
13 0
14 0
15 0
16 0
17 0
18 0
19 0
20 0
21 0
22 0
23 0
24 0
25 0
26 0
27 0
28 0
29 0
30 0
31 0
32 0
33 0
34 0
35 0
36 0
37 0
38 0
39 0
40 0
41 0
42 0
43 0
44 0
45 0
46 0
47 0
48 0
49 0
50 0
51 0
52 0
53 0
54 0
55 0
56 0
57 0
58 0
59 0
60 0
61 0
62 0
63 0
64 0
65 0
66 0
67 0
68 0
69 0
70 0
71 0
72 0
73 0
74 0
75 0
76 0
77 0
78 0
79 0
80 0
81 0
82 0
83 0
84 0
85 0
86 0
87 0
88 0
89 0
90 0
91 0
92 0
93 0
94 0
95 0
96 0
97 0
98 0
99 0
100 0
101 0
102 0
103 0
104 0
105 0
106 0
107 0
108 0
109 0
110 0
111 0
112 0
113 0
114 0
115 0
116 0
$EndElementData
$ElementData
1
"Attribute:UniformLoadLocalX"
1
0
3
0
1
116
1 0
2 0
3 0
4 0
5 0
6 0
7 0
8 0
9 0
10 0
11 0
12 0
13 0
14 0
15 0
16 0
17 0
18 0
19 0
20 0
21 0
22 0
23 0
24 0
25 0
26 0
27 0
28 0
29 0
30 0
31 0
32 0
33 0
34 0
35 0
36 0
37 0
38 0
39 0
40 0
41 0
42 0
43 0
44 0
45 0
46 0
47 0
48 0
49 0
50 0
51 0
52 0
53 0
54 0
55 0
56 0
57 0
58 0
59 0
60 0
61 0
62 0
63 0
64 0
65 0
66 0
67 0
68 0
69 0
70 0
71 0
72 0
73 0
74 0
75 0
76 0
77 0
78 0
79 0
80 0
81 0
82 0
83 0
84 0
85 0
86 0
87 0
88 0
89 0
90 0
91 0
92 0
93 0
94 0
95 0
96 0
97 0
98 0
99 0
100 0
101 0
102 0
103 0
104 0
105 0
106 0
107 0
108 0
109 0
110 0
111 0
112 0
113 0
114 0
115 0
116 0
$EndElementData
$ElementData
1
"Attribute:UniformLoadLocalY"
1
0
3
0
1
116
1 0
2 0
3 0
4 0
5 0
6 0
7 0
8 0
9 0
10 0
11 0
12 0
13 0
14 0
15 0
16 0
17 0
18 0
19 0
20 0
21 0
22 0
23 0
24 0
25 0
26 0
27 0
28 0
29 0
30 0
31 0
32 0
33 0
34 0
35 0
36 0
37 0
38 0
39 0
40 0
41 0
42 0
43 0
44 0
45 0
46 0
47 0
48 0
49 0
50 0
51 0
52 0
53 0
54 0
55 0
56 0
57 0
58 0
59 0
60 0
61 0
62 0
63 0
64 0
65 0
66 0
67 0
68 0
69 0
70 0
71 0
72 0
73 0
74 0
75 0
76 0
77 0
78 0
79 0
80 0
81 0
82 0
83 0
84 0
85 0
86 0
87 0
88 0
89 0
90 0
91 0
92 0
93 0
94 0
95 0
96 0
97 0
98 0
99 0
100 0
101 0
102 0
103 0
104 0
105 0
106 0
107 0
108 0
109 0
110 0
111 0
112 0
113 0
114 0
115 0
116 0
$EndElementData
$ElementData
1
"Attribute:UniformLoadLocalZ"
1
0
3
0
1
116
1 0
2 0
3 0
4 0
5 0
6 0
7 0
8 0
9 0
10 0
11 0
12 0
13 0
14 0
15 0
16 0
17 0
18 0
19 0
20 0
21 0
22 0
23 0
24 0
25 0
26 0
27 0
28 0
29 0
30 0
31 0
32 0
33 0
34 0
35 0
36 0
37 0
38 0
39 0
40 0
41 0
42 0
43 0
44 0
45 0
46 0
47 0
48 0
49 0
50 0
51 0
52 0
53 0
54 0
55 0
56 0
57 0
58 0
59 0
60 0
61 0
62 0
63 0
64 0
65 0
66 0
67 0
68 0
69 0
70 0
71 0
72 0
73 0
74 0
75 0
76 0
77 0
78 0
79 0
80 0
81 0
82 0
83 0
84 0
85 0
86 0
87 0
88 0
89 0
90 0
91 0
92 0
93 0
94 0
95 0
96 0
97 0
98 0
99 0
100 0
101 0
102 0
103 0
104 0
105 0
106 0
107 0
108 0
109 0
110 0
111 0
112 0
113 0
114 0
115 0
116 0
$EndElementData
$ElementData
1
"BeamOrientation"
1
0
3
0
3
116
1 0 0.9807852804032304 0.19509032201612825
2 0 0.8314696123025452 0.5555702330196022
3 0 0.5555702330196023 0.8314696123025452
4 0 0.19509032201612833 0.9807852804032304
5 0 -0.1950903220161282 0.9807852804032304
6 0 -0.555570233019602 0.8314696123025455
7 0 -0.8314696123025453 0.5555702330196022
8 0 -0.9807852804032304 0.1950903220161286
9 0 -0.9807852804032304 -0.19509032201612836
10 0 -0.8314696123025455 -0.555570233019602
11 0 -0.5555702330196022 -0.8314696123025452
12 0 -0.19509032201612866 -0.9807852804032303
13 0 0.1950903220161283 -0.9807852804032304
14 0 0.5555702330196018 -0.8314696123025455
15 0 0.8314696123025452 -0.5555702330196022
16 0 0.9807852804032303 -0.19509032201612872
17 0 0 0
18 0 0.9807852804032304 0.19509032201612825
19 0 0.8314696123025452 0.5555702330196022
20 0 0.5555702330196023 0.8314696123025452
21 0 0.19509032201612833 0.9807852804032304
22 0 -0.1950903220161282 0.9807852804032304
23 0 -0.555570233019602 0.8314696123025455
24 0 -0.8314696123025453 0.5555702330196022
25 0 -0.9807852804032304 0.1950903220161286
26 0 -0.9807852804032304 -0.19509032201612836
27 0 -0.8314696123025455 -0.555570233019602
28 0 -0.5555702330196022 -0.8314696123025452
29 0 -0.19509032201612866 -0.9807852804032303
30 0 0.1950903220161283 -0.9807852804032304
31 0 0.5555702330196018 -0.8314696123025455
32 0 0.8314696123025452 -0.5555702330196022
33 0 0.9807852804032303 -0.19509032201612872
34 0 0 0
35 0 0.9807852804032304 0.19509032201612825
36 0 0.8314696123025452 0.5555702330196022
37 0 0.5555702330196023 0.8314696123025452
38 0 0.19509032201612833 0.9807852804032304
39 0 -0.1950903220161282 0.9807852804032304
40 0 -0.555570233019602 0.8314696123025455
41 0 -0.8314696123025453 0.5555702330196022
42 0 -0.9807852804032304 0.1950903220161286
43 0 -0.9807852804032304 -0.19509032201612836
44 0 -0.8314696123025455 -0.555570233019602
45 0 -0.5555702330196022 -0.8314696123025452
46 0 -0.19509032201612866 -0.9807852804032303
47 0 0.1950903220161283 -0.9807852804032304
48 0 0.5555702330196018 -0.8314696123025455
49 0 0.8314696123025452 -0.5555702330196022
50 0 0.9807852804032303 -0.19509032201612872
51 0 0 0
52 0 0.9807852804032304 0.19509032201612825
53 0 0.8314696123025452 0.5555702330196022
54 0 0.5555702330196023 0.8314696123025452
55 0 0.19509032201612833 0.9807852804032304
56 0 -0.1950903220161282 0.9807852804032304
57 0 -0.555570233019602 0.8314696123025455
58 0 -0.8314696123025453 0.5555702330196022
59 0 -0.9807852804032304 0.1950903220161286
60 0 -0.9807852804032304 -0.19509032201612836
61 0 -0.8314696123025455 -0.555570233019602
62 0 -0.5555702330196022 -0.8314696123025452
63 0 -0.19509032201612866 -0.9807852804032303
64 0 0.1950903220161283 -0.9807852804032304
65 0 0.5555702330196018 -0.8314696123025455
66 0 0.8314696123025452 -0.5555702330196022
67 0 0.9807852804032303 -0.19509032201612872
68 0 0 0
69 0 0 0
70 0 0 0
71 0 0 0
72 0 0 0
73 0 0 0
74 0 0 0
75 0 0 0
76 0 0 0
77 0 0 0
78 0 0 0
79 0 0 0
80 0 0 0
81 0 0 0
82 0 0 0
83 0 0 0
84 0 0 0
85 0 0 0
86 0 0 0
87 0 0 0
88 0 0 0
89 0 0 0
90 0 0 0
91 0 0 0
92 0 0 0
93 0 0 0
94 0 0 0
95 0 0 0
96 0 0 0
97 0 0 0
98 0 0 0
99 0 0 0
100 0 0 0
101 0 0 0
102 0 0 0
103 0 0 0
104 0 0 0
105 0 0 0
106 0 0 0
107 0 0 0
108 0 0 0
109 0 0 0
110 0 0 0
111 0 0 0
112 0 0 0
113 0 0 0
114 0 0 0
115 0 0 0
116 0 0 0
$EndElementData
$AnafData
1
1
GLOBAL 3 1
"Gravity"
0 -9.80665 0
$EndAnafData
