$MeshFormat
4.1 0 8
$EndMeshFormat
$PhysicalNames
4
1 1 "Material:Aluminum 2024-T3"
1 2 "Section:CHS 114.3x5"
1 3 "Section:CHS 139.7x6.3"
1 4 "Section:Tube 101.6x2.11"
$EndPhysicalNames
$Entities
0 3 0 0
1 0 0 0 1.5 0 0 2 1 3 0
2 1.5 0 0 3 0 0 2 1 2 0
3 3 0 0 4.5 0 0 2 1 4 0
$EndEntities
$Nodes
1 10 1 10
1 1 0 10
1
2
3
4
5
6
7
8
9
10
0 0 0
0.5 0 0
1 0 0
1.5 0 0
2 0 0
2.5 0 0
3 0 0
3.5 0 0
4 0 0
4.5 0 0
$EndNodes
$Elements
3 9 1 9
1 1 1 3
1 1 2
2 2 3
3 3 4
1 2 1 3
4 4 5
5 5 6
6 6 7
1 3 1 3
7 7 8
8 8 9
9 9 10
$EndElements
$NodeData
1
"Displacement"
1
0
3
0
3
10
1 0 0 0
2 0 -0.00084461879988067 0.0015106383773956598
3 0 -0.0032277684247941974 0.005810147605367956
4 0 -0.006931230230959431 0.012549918827594863
5 0 -0.012421496676622089 0.022656559422866877
6 0 -0.020003751871859755 0.03675662589112446
7 0 -0.0292373385442829 0.05405143305777055
8 0 -0.040863077685603676 0.07602886262440223
9 0 -0.055041657555754964 0.10303351285451945
10 0 -0.07048802710296222 0.1325517734163794
$EndNodeData
$NodeData
1
"Rotation"
1
0
3
0
3
10
1 0 0 0
2 0.0006177771490215998 -0.005926350557475297 -0.0033022505323460414
3 0.0012355542980431997 -0.011155483402306546 -0.006157608419381017
4 0.0018533314470648 -0.015687398534493743 -0.008586984376602453
5 0.003268698386774821 -0.02447293545506196 -0.013222003481770665
6 0.004684065326484842 -0.03166110202643603 -0.016960131541716814
7 0.006099432266194863 -0.03725189824861597 -0.019832521557326944
8 0.010553854454082277 -0.0498199499073298 -0.026235807793830602
9 0.01500827664196969 -0.05736078090255812 -0.030050161336183056
10 0.019462698829857104 -0.05987439123430088 -0.03131324336558849
$EndNodeData
$ElementData
1
"BeamSectionForce"
1
0
3
0
12
9
1 -0 -805.1488405844423 1199.9999999999563 399.99999999999955 -5400.000000000542 -3040.0837753565324 0 -769.1588504537074 1199.9999999999563 399.99999999999955 -4800.000000000562 -2646.5068525969914
2 -0 -769.1588504536915 1199.9999999999418 399.99999999999966 -4800.000000000564 -2646.506852596993 0 -733.1688603229566 1199.9999999999418 399.99999999999966 -4200.000000000589 -2270.9249249028276
3 -0 -733.168860323028 1199.9999999999418 399.9999999999999 -4200.000000000575 -2270.924924902844 0 -697.1788701922931 1199.9999999999418 399.9999999999999 -3600.000000000611 -1913.3379922740082
4 -0 -697.1788701923208 1200.0000000001455 399.9999999999999 -3600.000000000633 -1913.3379922740046 0 -673.7756556014654 1200.0000000001455 399.9999999999999 -3000.000000000553 -1570.5993608255617
5 -0 -673.7756556015222 1200.000000000029 399.9999999999999 -3000.000000000531 -1570.5993608255817 0 -650.3724410106668 1200.000000000029 399.9999999999999 -2400.00000000048 -1239.5623366725326
6 -0 -650.3724410106072 1200.0000000000582 399.9999999999998 -2400.0000000004766 -1239.5623366725545 0 -626.9692264197517 1200.0000000000582 399.9999999999998 -1800.0000000004147 -920.2269198149612
7 -0 -626.9692264197928 1200.0000000002765 400.00000000000045 -1800.000000000411 -920.2269198149642 0 -617.9794842799039 1200.0000000002765 400.00000000000045 -1200.0000000002547 -608.9897421400291
8 -0 -617.9794842798636 1200.0000000003056 400.00000000000034 -1200.0000000002856 -608.9897421400154 0 -608.9897421399747 1200.0000000003056 400.00000000000034 -600.0000000001273 -302.24743553505306
9 -0 -608.9897421399636 1200.000000000029 400.00000000000045 -600.0000000000946 -302.2474355350303 0 -600.0000000000747 1200.000000000029 400.00000000000045 -4.3655745685100555e-11 -3.47544215628659e-12
$EndElementData
$ElementData
1
"AxialForce"
1
0
3
0
1
9
1 0
2 0
3 0
4 0
5 0
6 0
7 0
8 0
9 0
$EndElementData
$ElementData
1
"VonMisesStress"
1
0
3
0
1
9
1 73845451.63333279
2 65387575.75131939
3 57047382.78202333
4 91416740.53398684
5 76194881.4530416
6 61164542.72471681
7 129599189.85228406
8 89329280.59169655
9 52079329.64174922
$EndElementData
$NodeData
1
"Fixity"
1
0
3
0
3
10
1 1 1 1
2 0 0 0
3 0 0 0
4 0 0 0
5 0 0 0
6 0 0 0
7 0 0 0
8 0 0 0
9 0 0 0
10 0 0 0
$EndNodeData
$NodeData
1
"FixityRotation"
1
0
3
0
3
10
1 1 1 1
2 0 0 0
3 0 0 0
4 0 0 0
5 0 0 0
6 0 0 0
7 0 0 0
8 0 0 0
9 0 0 0
10 0 0 0
$EndNodeData
$NodeData
1
"NodalForce"
1
0
3
0
3
10
1 0 0 0
2 0 0 0
3 0 0 0
4 0 0 0
5 0 0 0
6 0 0 0
7 0 0 0
8 0 0 0
9 0 0 0
10 0 -600 1200
$EndNodeData
$NodeData
1
"NodalMoment"
1
0
3
0
3
10
1 0 0 0
2 0 0 0
3 0 0 0
4 0 0 0
5 0 0 0
6 0 0 0
7 0 0 0
8 0 0 0
9 0 0 0
10 400 0 0
$EndNodeData
$ElementData
1
"CrossSectionArea"
1
0
3
0
1
9
1 0.002640257297929933
2 0.002640257297929933
3 0.002640257297929933
4 0.0017168803851868209
5 0.0017168803851868209
6 0.0017168803851868209
7 0.000659495382052919
8 0.000659495382052919
9 0.000659495382052919
$EndElementData
$ElementData
1
"Attribute:ElementFormulation"
1
0
3
0
1
9
1 1
2 1
3 1
4 1
5 1
6 1
7 1
8 1
9 1
$EndElementData
$ElementData
1
"MaterialID"
1
0
3
0
1
9
1 10
2 10
3 10
4 10
5 10
6 10
7 10
8 10
9 10
$EndElementData
$ElementData
1
"Attribute:SecondMomentY"
1
0
3
0
1
9
1 5.8862061216131055e-06
2 5.8862061216131055e-06
3 5.8862061216131055e-06
4 2.569202045307523e-06
5 2.569202045307523e-06
6 2.569202045307523e-06
7 8.163491207123878e-07
8 8.163491207123878e-07
9 8.163491207123878e-07
$EndElementData
$ElementData
1
"Attribute:SecondMomentZ"
1
0
3
0
1
9
1 5.8862061216131055e-06
2 5.8862061216131055e-06
3 5.8862061216131055e-06
4 2.569202045307523e-06
5 2.569202045307523e-06
6 2.569202045307523e-06
7 8.163491207123878e-07
8 8.163491207123878e-07
9 8.163491207123878e-07
$EndElementData
$ElementData
1
"Attribute:SectionDimension1"
1
0
3
0
1
9
1 0.1397
2 0.1397
3 0.1397
4 0.1143
5 0.1143
6 0.1143
7 0.1016
8 0.1016
9 0.1016
$EndElementData
$ElementData
1
"Attribute:SectionDimension2"
1
0
3
0
1
9
1 0.0063
2 0.0063
3 0.0063
4 0.005
5 0.005
6 0.005
7 0.00211
8 0.00211
9 0.00211
$EndElementData
$ElementData
1
"Attribute:SectionDimension3"
1
0
3
0
1
9
1 0
2 0
3 0
4 0
5 0
6 0
7 0
8 0
9 0
$EndElementData
$ElementData
1
"Attribute:SectionDimension4"
1
0
3
0
1
9
1 0
2 0
3 0
4 0
5 0
6 0
7 0
8 0
9 0
$EndElementData
$ElementData
1
"Attribute:SectionDimension5"
1
0
3
0
1
9
1 0
2 0
3 0
4 0
5 0
6 0
7 0
8 0
9 0
$EndElementData
$ElementData
1
"Attribute:SectionShape"
1
0
3
0
1
9
1 3
2 3
3 3
4 3
5 3
6 3
7 3
8 3
9 3
$EndElementData
$ElementData
1
"Attribute:ShearAreaY"
1
0
3
0
1
9
1 0.001412451389546542
2 0.001412451389546542
3 0.001412451389546542
4 0.0009182736033732371
5 0.0009182736033732371
6 0.0009182736033732371
7 0.0003518076905884543
8 0.0003518076905884543
9 0.0003518076905884543
$EndElementData
$ElementData
1
"Attribute:ShearAreaZ"
1
0
3
0
1
9
1 0.001412451389546542
2 0.001412451389546542
3 0.001412451389546542
4 0.0009182736033732371
5 0.0009182736033732371
6 0.0009182736033732371
7 0.0003518076905884543
8 0.0003518076905884543
9 0.0003518076905884543
$EndElementData
$ElementData
1
"Attribute:TorsionConstant"
1
0
3
0
1
9
1 1.1772412243226211e-05
2 1.1772412243226211e-05
3 1.1772412243226211e-05
4 5.138404090615046e-06
5 5.138404090615046e-06
6 5.138404090615046e-06
7 1.6326982414247755e-06
8 1.6326982414247755e-06
9 1.6326982414247755e-06
$EndElementData
$ElementData
1
"Attribute:UniformLoadGlobalX"
1
0
3
0
1
9
1 0
2 0
3 0
4 0
5 0
6 0
7 0
8 0
9 0
$EndElementData
$ElementData
1
"Attribute:UniformLoadGlobalY"
1
0
3
0
1
9
1 0
2 0
3 0
4 0
5 0
6 0
7 0
8 0
9 0
$EndElementData
$ElementData
1
"Attribute:UniformLoadGlobalZ"
1
0
3
0
1
9
1 0
2 0
3 0
4 0
5 0
6 0
7 0
8 0
9 0
$EndElementData
$ElementData
1
"Attribute:UniformLoadLocalX"
1
0
3
0
1
9
1 0
2 0
3 0
4 0
5 0
6 0
7 0
8 0
9 0
$EndElementData
$ElementData
1
"Attribute:UniformLoadLocalY"
1
0
3
0
1
9
1 0
2 0
3 0
4 0
5 0
6 0
7 0
8 0
9 0
$EndElementData
$ElementData
1
"Attribute:UniformLoadLocalZ"
1
0
3
0
1
9
1 0
2 0
3 0
4 0
5 0
6 0
7 0
8 0
9 0
$EndElementData
$ElementData
1
"BeamOrientation"
1
0
3
0
3
9
1 0 0 0
2 0 0 0
3 0 0 0
4 0 0 0
5 0 0 0
6 0 0 0
7 0 0 0
8 0 0 0
9 0 0 0
$EndElementData
$AnafData
1
1
GLOBAL 3 1
"Gravity"
0 -9.80665 0
$EndAnafData
