$MeshFormat
4.1 0 8
$EndMeshFormat
$PhysicalNames
4
1 1 "Material:Aluminum 6061-T6"
1 2 "Material:Aluminum 7075-T6"
1 3 "Section:CHS 114.3x5"
1 4 "Section:Tube 76.2x2.11"
$EndPhysicalNames
$Entities
0 2 0 0
1 -1.2 0 -1.1 1.3 0 1.1 2 1 4 0
2 -0.7 0 -1.1 0.8 0.6 1.1 2 2 3 0
$EndEntities
$Nodes
1 20 1 20
1 1 0 20
1
2
3
4
5
6
7
8
9
10
11
12
13
14
15
16
17
18
19
20
-1.2 0 -1.1
-0.7 0 -1.1
-0.19999999999999996 0 -1.1
0.30000000000000004 0 -1.1
0.8 0 -1.1
1.3 0 -1.1
-1.2 0 1.1
-0.7 0 1.1
-0.19999999999999996 0 1.1
0.30000000000000004 0 1.1
0.8 0 1.1
1.3 0 1.1
-0.7 0.45 -0.85
-0.7 0.6 -0.45
-0.7 0.6 0.45
-0.7 0.45 0.85
0.8 0.45 -0.85
0.8 0.6 -0.45
0.8 0.6 0.45
0.8 0.45 0.85
$EndNodes
$Elements
2 20 1 20
1 1 1 10
1 1 2
2 2 3
3 3 4
4 4 5
5 5 6
6 7 8
7 8 9
8 9 10
9 10 11
10 11 12
1 2 1 10
11 2 13
12 13 14
13 14 15
14 15 16
15 16 8
16 5 17
17 17 18
18 18 19
19 19 20
20 20 11
$EndElements
$NodeData
1
"Fixity"
1
0
3
0
3
20
1 0 0 0
2 1 1 1
3 0 0 0
4 0 0 0
5 0 1 1
6 0 0 0
7 0 0 0
8 0 1 1
9 0 0 0
10 0 0 0
11 0 1 0
12 0 0 0
13 0 0 0
14 0 0 0
15 0 0 0
16 0 0 0
17 0 0 0
18 0 0 0
19 0 0 0
20 0 0 0
$EndNodeData
$NodeData
1
"NodalForce"
1
0
3
0
3
20
1 0 0 0
2 0 0 0
3 0 0 0
4 0 0 0
5 0 0 0
6 0 0 0
7 0 0 0
8 0 0 0
9 0 0 0
10 0 0 0
11 0 0 0
12 0 0 0
13 0 0 0
14 0 -7850 0
15 0 -7850 0
16 0 0 0
17 0 0 0
18 0 -7850 0
19 0 -7850 0
20 0 0 0
$EndNodeData
$ElementData
1
"CrossSectionArea"
1
0
3
0
1
20
1 0.0004911248653764272
2 0.0004911248653764272
3 0.0004911248653764272
4 0.0004911248653764272
5 0.0004911248653764272
6 0.0004911248653764272
7 0.0004911248653764272
8 0.0004911248653764272
9 0.0004911248653764272
10 0.0004911248653764272
11 0.0017168803851868209
12 0.0017168803851868209
13 0.0017168803851868209
14 0.0017168803851868209
15 0.0017168803851868209
16 0.0017168803851868209
17 0.0017168803851868209
18 0.0017168803851868209
19 0.0017168803851868209
20 0.0017168803851868209
$EndElementData
$ElementData
1
"Attribute:ElementFormulation"
1
0
3
0
1
20
1 1
2 1
3 1
4 1
5 1
6 1
7 1
8 1
9 1
10 1
11 1
12 1
13 1
14 1
15 1
16 1
17 1
18 1
19 1
20 1
$EndElementData
$ElementData
1
"MaterialID"
1
0
3
0
1
20
1 1
2 1
3 1
4 1
5 1
6 1
7 1
8 1
9 1
10 1
11 13
12 13
13 13
14 13
15 13
16 13
17 13
18 13
19 13
20 13
$EndElementData
$ElementData
1
"Attribute:SecondMomentY"
1
0
3
0
1
20
1 3.3726650764158525e-07
2 3.3726650764158525e-07
3 3.3726650764158525e-07
4 3.3726650764158525e-07
5 3.3726650764158525e-07
6 3.3726650764158525e-07
7 3.3726650764158525e-07
8 3.3726650764158525e-07
9 3.3726650764158525e-07
10 3.3726650764158525e-07
11 2.569202045307523e-06
12 2.569202045307523e-06
13 2.569202045307523e-06
14 2.569202045307523e-06
15 2.569202045307523e-06
16 2.569202045307523e-06
17 2.569202045307523e-06
18 2.569202045307523e-06
19 2.569202045307523e-06
20 2.569202045307523e-06
$EndElementData
$ElementData
1
"Attribute:SecondMomentZ"
1
0
3
0
1
20
1 3.3726650764158525e-07
2 3.3726650764158525e-07
3 3.3726650764158525e-07
4 3.3726650764158525e-07
5 3.3726650764158525e-07
6 3.3726650764158525e-07
7 3.3726650764158525e-07
8 3.3726650764158525e-07
9 3.3726650764158525e-07
10 3.3726650764158525e-07
11 2.569202045307523e-06
12 2.569202045307523e-06
13 2.569202045307523e-06
14 2.569202045307523e-06
15 2.569202045307523e-06
16 2.569202045307523e-06
17 2.569202045307523e-06
18 2.569202045307523e-06
19 2.569202045307523e-06
20 2.569202045307523e-06
$EndElementData
$ElementData
1
"Attribute:SectionDimension1"
1
0
3
0
1
20
1 0.0762
2 0.0762
3 0.0762
4 0.0762
5 0.0762
6 0.0762
7 0.0762
8 0.0762
9 0.0762
10 0.0762
11 0.1143
12 0.1143
13 0.1143
14 0.1143
15 0.1143
16 0.1143
17 0.1143
18 0.1143
19 0.1143
20 0.1143
$EndElementData
$ElementData
1
"Attribute:SectionDimension2"
1
0
3
0
1
20
1 0.00211
2 0.00211
3 0.00211
4 0.00211
5 0.00211
6 0.00211
7 0.00211
8 0.00211
9 0.00211
10 0.00211
11 0.005
12 0.005
13 0.005
14 0.005
15 0.005
16 0.005
17 0.005
18 0.005
19 0.005
20 0.005
$EndElementData
$ElementData
1
"Attribute:SectionDimension3"
1
0
3
0
1
20
1 0
2 0
3 0
4 0
5 0
6 0
7 0
8 0
9 0
10 0
11 0
12 0
13 0
14 0
15 0
16 0
17 0
18 0
19 0
20 0
$EndElementData
$ElementData
1
"Attribute:SectionDimension4"
1
0
3
0
1
20
1 0
2 0
3 0
4 0
5 0
6 0
7 0
8 0
9 0
10 0
11 0
12 0
13 0
14 0
15 0
16 0
17 0
18 0
19 0
20 0
$EndElementData
$ElementData
1
"Attribute:SectionDimension5"
1
0
3
0
1
20
1 0
2 0
3 0
4 0
5 0
6 0
7 0
8 0
9 0
10 0
11 0
12 0
13 0
14 0
15 0
16 0
17 0
18 0
19 0
20 0
$EndElementData
$ElementData
1
"Attribute:SectionShape"
1
0
3
0
1
20
1 3
2 3
3 3
4 3
5 3
6 3
7 3
8 3
9 3
10 3
11 3
12 3
13 3
14 3
15 3
16 3
17 3
18 3
19 3
20 3
$EndElementData
$ElementData
1
"Attribute:ShearAreaY"
1
0
3
0
1
20
1 0.0002621417693926878
2 0.0002621417693926878
3 0.0002621417693926878
4 0.0002621417693926878
5 0.0002621417693926878
6 0.0002621417693926878
7 0.0002621417693926878
8 0.0002621417693926878
9 0.0002621417693926878
10 0.0002621417693926878
11 0.0009182736033732371
12 0.0009182736033732371
13 0.0009182736033732371
14 0.0009182736033732371
15 0.0009182736033732371
16 0.0009182736033732371
17 0.0009182736033732371
18 0.0009182736033732371
19 0.0009182736033732371
20 0.0009182736033732371
$EndElementData
$ElementData
1
"Attribute:ShearAreaZ"
1
0
3
0
1
20
1 0.0002621417693926878
2 0.0002621417693926878
3 0.0002621417693926878
4 0.0002621417693926878
5 0.0002621417693926878
6 0.0002621417693926878
7 0.0002621417693926878
8 0.0002621417693926878
9 0.0002621417693926878
10 0.0002621417693926878
11 0.0009182736033732371
12 0.0009182736033732371
13 0.0009182736033732371
14 0.0009182736033732371
15 0.0009182736033732371
16 0.0009182736033732371
17 0.0009182736033732371
18 0.0009182736033732371
19 0.0009182736033732371
20 0.0009182736033732371
$EndElementData
$ElementData
1
"Attribute:TorsionConstant"
1
0
3
0
1
20
1 6.745330152831705e-07
2 6.745330152831705e-07
3 6.745330152831705e-07
4 6.745330152831705e-07
5 6.745330152831705e-07
6 6.745330152831705e-07
7 6.745330152831705e-07
8 6.745330152831705e-07
9 6.745330152831705e-07
10 6.745330152831705e-07
11 5.138404090615046e-06
12 5.138404090615046e-06
13 5.138404090615046e-06
14 5.138404090615046e-06
15 5.138404090615046e-06
16 5.138404090615046e-06
17 5.138404090615046e-06
18 5.138404090615046e-06
19 5.138404090615046e-06
20 5.138404090615046e-06
$EndElementData
$ElementData
1
"Attribute:UniformLoadGlobalX"
1
0
3
0
1
20
1 0
2 0
3 0
4 0
5 0
6 0
7 0
8 0
9 0
10 0
11 0
12 0
13 0
14 0
15 0
16 0
17 0
18 0
19 0
20 0
$EndElementData
$ElementData
1
"Attribute:UniformLoadGlobalY"
1
0
3
0
1
20
1 0
2 0
3 0
4 0
5 0
6 0
7 0
8 0
9 0
10 0
11 0
12 0
13 0
14 0
15 0
16 0
17 0
18 0
19 0
20 0
$EndElementData
$ElementData
1
"Attribute:UniformLoadGlobalZ"
1
0
3
0
1
20
1 0
2 0
3 0
4 0
5 0
6 0
7 0
8 0
9 0
10 0
11 0
12 0
13 0
14 0
15 0
16 0
17 0
18 0
19 0
20 0
$EndElementData
$ElementData
1
"Attribute:UniformLoadLocalX"
1
0
3
0
1
20
1 0
2 0
3 0
4 0
5 0
6 0
7 0
8 0
9 0
10 0
11 0
12 0
13 0
14 0
15 0
16 0
17 0
18 0
19 0
20 0
$EndElementData
$ElementData
1
"Attribute:UniformLoadLocalY"
1
0
3
0
1
20
1 0
2 0
3 0
4 0
5 0
6 0
7 0
8 0
9 0
10 0
11 0
12 0
13 0
14 0
15 0
16 0
17 0
18 0
19 0
20 0
$EndElementData
$ElementData
1
"Attribute:UniformLoadLocalZ"
1
0
3
0
1
20
1 0
2 0
3 0
4 0
5 0
6 0
7 0
8 0
9 0
10 0
11 0
12 0
13 0
14 0
15 0
16 0
17 0
18 0
19 0
20 0
$EndElementData
$ElementData
1
"BeamOrientation"
1
0
3
0
3
20
1 0 0 0
2 0 0 0
3 0 0 0
4 0 0 0
5 0 0 0
6 0 0 0
7 0 0 0
8 0 0 0
9 0 0 0
10 0 0 0
11 0 0 0
12 0 0 0
13 0 0 0
14 0 0 0
15 0 0 0
16 0 0 0
17 0 0 0
18 0 0 0
19 0 0 0
20 0 0 0
$EndElementData
$AnafData
1
1
GLOBAL 3 1
"Gravity"
0 -9.80665 0
$EndAnafData
