$MeshFormat
4.1 0 8
$EndMeshFormat
$PhysicalNames
3
1 1 "Material:Structural Steel S355 (EN 10025)"
1 2 "Section:IPE 400"
1 3 "Section:HEB 600"
$EndPhysicalNames
$Entities
0 2 0 0
1 0 0 0 14 0 6 2 1 3 0
2 0 0 0 14 0 6 2 1 2 0
$EndEntities
$Nodes
1 32 1 32
1 1 0 32
1
2
3
4
5
6
7
8
9
10
11
12
13
14
15
16
17
18
19
20
21
22
23
24
25
26
27
28
29
30
31
32
0 0 0
2 0 0
4 0 0
6 0 0
8 0 0
10 0 0
12 0 0
14 0 0
0 0 2
2 0 2
4 0 2
6 0 2
8 0 2
10 0 2
12 0 2
14 0 2
0 0 4
2 0 4
4 0 4
6 0 4
8 0 4
10 0 4
12 0 4
14 0 4
0 0 6
2 0 6
4 0 6
6 0 6
8 0 6
10 0 6
12 0 6
14 0 6
$EndNodes
$Elements
2 52 1 52
1 1 1 28
1 1 2
2 2 3
3 3 4
4 4 5
5 5 6
6 6 7
7 7 8
8 9 10
9 10 11
10 11 12
11 12 13
12 13 14
13 14 15
14 15 16
15 17 18
16 18 19
17 19 20
18 20 21
19 21 22
20 22 23
21 23 24
22 25 26
23 26 27
24 27 28
25 28 29
26 29 30
27 30 31
28 31 32
1 2 1 24
29 1 9
30 9 17
31 17 25
32 2 10
33 10 18
34 18 26
35 3 11
36 11 19
37 19 27
38 4 12
39 12 20
40 20 28
41 5 13
42 13 21
43 21 29
44 6 14
45 14 22
46 22 30
47 7 15
48 15 23
49 23 31
50 8 16
51 16 24
52 24 32
$EndElements
$NodeData
1
"Displacement"
1
0
3
0
3
32
1 0 0 0
2 0 -0.010618414428158618 0
3 0 -0.0190368463572662 0
4 0 -0.023662987615926313 0
5 0 -0.023662987615926306 0
6 0 -0.01903684635726619 0
7 0 -0.010618414428158616 0
8 0 0 0
9 0 0 0
10 0 -0.011259951283534428 0
11 0 -0.02034468223045502 0
12 0 -0.02549388187940061 0
13 0 -0.025493881879400597 0
14 0 -0.020344682230454977 0
15 0 -0.011259951283534391 0
16 0 0 0
17 0 0 0
18 0 -0.011259951283534748 0
19 0 -0.02034468223045559 0
20 0 -0.025493881879401308 0
21 0 -0.025493881879401263 0
22 0 -0.02034468223045548 0
23 0 -0.011259951283534662 0
24 0 0 0
25 0 0 0
26 0 -0.010618414428159494 0
27 0 -0.019036846357267777 0
28 0 -0.023662987615928277 0
29 0 -0.02366298761592822 0
30 0 -0.019036846357267677 0
31 0 -0.010618414428159424 0
32 0 0 0
$EndNodeData
$NodeData
1
"Rotation"
1
0
3
0
3
32
1 0 0 -0.005509099095262092
2 0.00038762991956187485 0 -0.004920650457288825
3 0.0007871393238276272 0 -0.003363587575702975
4 0.0011003453070530587 0 -0.001191877703028951
5 0.0011003453070530659 0 0.0011918777030289548
6 0.0007871393238276229 0 0.003363587575702973
7 0.000387629919561862 0 0.004920650457288822
8 0 0 0.0055090990952620916
9 0 0 -0.005825177675644547
10 0.00019157382860835983 0 -0.005250762263503445
11 0.0003914586769945973 0 -0.003688777651803123
12 0.0005483750914990339 0 -0.0013450043416051993
13 0.0005483750914990175 0 0.0013450043416052154
14 0.0003914586769945651 0 0.0036887776518031304
15 0.00019157382860833527 0 0.005250762263503433
16 0 0 0.005825177675644524
17 0 0 -0.005825177675644714
18 -0.00019157382860805376 0 -0.005250762263503597
19 -0.0003914586769940478 0 -0.0036887776518032198
20 -0.000548375091498355 0 -0.001345004341605223
21 -0.0005483750914983669 0 0.001345004341605271
22 -0.00039145867699406656 0 0.0036887776518032315
23 -0.00019157382860806454 0 0.005250762263503563
24 0 0 0.005825177675644666
25 0 0 -0.005509099095262545
26 -0.0003876299195616128 0 -0.004920650457289232
27 -0.0007871393238271495 0 -0.00336358757570326
28 -0.0011003453070524533 0 -0.0011918777030290376
29 -0.0011003453070524557 0 0.001191877703029081
30 -0.0007871393238271367 0 0.0033635875757032623
31 -0.0003876299195615949 0 0.004920650457289203
32 0 0 0.005509099095262507
$EndNodeData
$ElementData
1
"BeamSectionForce"
1
0
3
0
12
52
1 -0 -113726.96172994834 -0 104.48127238822315 -0 6.5221205513844325 0 -89570.57268554818 0 104.48127238822315 0 203304.0565360465
2 -0 -84379.1146751262 -0 107.68325349066339 -0 203310.8682250685 0 -60222.72563072604 0 107.68325349066339 0 347912.70853091934
3 -0 -50156.96359757478 -0 84.42113984386083 -0 347919.41866254155 0 -26000.574553174618 0 84.42113984386083 0 424076.9568132908
4 -0 -12078.194522198803 -0 1.9326762412674725e-12 -0 424080.1165035022 0 12078.194522201364 0 1.9326762412674725e-12 0 424080.1165034996
5 -0 26000.57455317613 -0 -84.42113984386393 -0 424076.9568132902 0 50156.963597576294 0 -84.42113984386393 0 347919.41866253986
6 -0 60222.725630724875 -0 -107.68325349066569 -0 347912.70853091794 0 84379.11467512503 0 -107.68325349066569 0 203310.86822507036
7 -0 89570.57268554957 -0 -104.48127238821968 -0 203304.05653604906 0 113726.96172994973 0 -104.48127238821968 0 6.522120549987449
8 -0 -111219.73450876765 -0 51.63656456629585 -0 -6.522120550329419 0 -87063.34546436749 0 51.63656456629585 0 198276.55785258365
9 -0 -90304.14583215669 -0 53.876706199887515 -0 198269.74616356002 0 -66147.75678775653 0 53.876706199887515 0 354721.6487834716
10 -0 -74262.86117826127 -0 42.295049527012495 -0 354714.93865184544 0 -50106.47213386111 0 42.295049527012495 0 479084.27196396777
11 -0 -12078.194522202062 -0 -4.405364961712621e-12 -0 479081.11227375694 0 12078.194522198104 0 -4.405364961712621e-12 0 479081.11227375915
12 -0 50106.47213386356 -0 -42.29504952701677 -0 479084.2719639693 0 74262.86117826372 0 -42.29504952701677 0 354714.93865184224
13 -0 66147.75678775607 -0 -53.87670619988545 -0 354721.6487834679 0 90304.14583215622 0 -53.87670619988545 0 198269.74616355606
14 -0 87063.34546436703 -0 -51.63656456628924 -0 198276.55785258155 0 111219.73450876719 0 -51.63656456628924 0 -6.522120552424894
15 -0 -111219.73450876858 -0 -51.63656456621336 -0 -6.522120549398096 0 -87063.34546436842 0 -51.63656456621336 0 198276.55785258737
16 -0 -90304.14583215692 -0 -53.8767061998219 -0 198269.74616356887 0 -66147.75678775676 0 -53.8767061998219 0 354721.6487834828
17 -0 -74262.86117826162 -0 -42.29504952697765 -0 354714.9386518595 0 -50106.47213386146 0 -42.29504952697765 0 479084.27196398244
18 -0 -12078.194522202295 -0 -3.183231456205249e-12 -0 479081.11227377044 0 12078.194522197871 0 -3.183231456205249e-12 0 479081.1122737731
19 -0 50106.47213386705 -0 42.295049526975774 -0 479084.2719639795 0 74262.86117826721 0 42.295049526975774 0 354714.9386518478
20 -0 66147.7567877556 -0 53.876706199824056 -0 354721.6487834723 0 90304.14583215576 0 53.876706199824056 0 198269.74616356305
21 -0 87063.34546436656 -0 51.636564566216265 -0 198276.55785258295 0 111219.73450876672 0 51.636564566216265 0 -6.522120549165265
22 -0 -113726.96172995765 -0 -104.4812723881525 -0 6.522120550220279 0 -89570.57268555749 0 -104.4812723881525 0 203304.05653606466
23 -0 -84379.11467512992 -0 -107.68325349060528 -0 203310.86822508526 0 -60222.725630729765 0 -107.68325349060528 0 347912.7085309454
24 -0 -50156.96359758398 -0 -84.42113984382638 -0 347919.4186625689 0 -26000.574553183815 0 -84.42113984382638 0 424076.9568133348
25 -0 -12078.194522194146 -0 -6.821210263296962e-13 -0 424080.11650354625 0 12078.19452220602 0 -6.821210263296962e-13 0 424080.11650353257
26 -0 26000.574553182418 -0 84.4211398438305 -0 424076.9568133279 0 50156.96359758258 0 84.4211398438305 0 347919.4186625613
27 -0 60222.72563072767 -0 107.68325349060666 -0 347912.70853093726 0 84379.11467512783 0 107.68325349060666 0 203310.868225082
28 -0 89570.5726855561 -0 104.48127238814769 -0 203304.0565360614 0 113726.96172995625 0 104.48127238814769 0 6.522120549987449
29 -0 -650.2192142119575 -0 -6.522120550659764 -0 -216.7397380706525 0 650.2192142119575 0 -6.522120550659764 0 -216.7397380706525
30 -0 -650.2192142119575 -0 -3.439026841078885e-12 -0 -216.7397380706525 0 650.2192142119575 0 -3.439026841078885e-12 0 -216.7397380706525
31 -0 -650.2192142119575 -0 6.522120550653852 -0 -216.7397380706525 0 650.2192142119575 0 6.522120550653852 0 -216.7397380706525
32 -0 -5191.458010425221 -0 -6.811689019618541 -0 3.2019811024338196 0 -3891.019582001306 0 -6.811689019618541 0 9085.679573529073
33 -0 -650.2192142130889 -0 -3.154809746774845e-12 -0 9087.919715162338 0 650.2192142108261 0 -3.154809746774845e-12 0 9087.91971516448
34 -0 3891.019582002321 -0 6.811689019613297 -0 9085.679573531168 0 5191.458010426236 0 6.811689019613297 0 3.2019811024956653
35 -0 -10065.762033145085 -0 -6.7101316249809315 -0 -23.262113647152546 0 -8765.323604721172 0 -6.7101316249809315 0 18807.823524219108
36 -0 -650.2192142135 -0 -2.0037305148434825e-12 -0 18796.24186754596 0 650.219214210415 0 -2.0037305148434825e-12 0 18796.241867549274
37 -0 8765.323604722817 -0 6.710131624977052 -0 18807.823524222615 0 10065.76203314673 0 6.710131624977052 0 -23.262113647156184
38 -0 -13922.380030973542 -0 -3.1596902109062874 -0 -84.42113984403022 0 -12621.941602549628 0 -3.1596902109062874 0 26459.900493679364
39 -0 -650.2192142133399 -0 -4.902744876744691e-13 -0 26417.60544415322 0 650.219214210575 0 -4.902744876744691e-13 0 26417.605444155757
40 -0 12621.941602551033 -0 3.1596902109049942 -0 26459.900493682297 0 13922.380030974946 0 3.1596902109049942 0 -84.4211398436737
41 -0 -13922.380030974036 -0 3.159690210906547 -0 -84.42113984389562 0 -12621.941602550123 0 3.159690210906547 0 26459.90049368026
42 -0 -650.2192142130416 -0 1.1475265182525618e-12 -0 26417.605444153345 0 650.2192142108734 0 1.1475265182525618e-12 0 26417.60544415551
43 -0 12621.941602550625 -0 -3.15969021090509 -0 26459.900493681715 0 13922.380030974538 0 -3.15969021090509 0 -84.42113984344087
44 -0 -10065.76203314557 -0 6.7101316249811305 -0 -23.262113647087062 0 -8765.323604721656 0 6.7101316249811305 0 18807.823524220374
45 -0 -650.2192142123031 -0 2.0889956431346945e-12 -0 18796.24186754714 0 650.2192142116119 0 2.0889956431346945e-12 0 18796.241867547607
46 -0 8765.323604721652 -0 -6.710131624977251 -0 18807.82352422044 0 10065.762033145566 0 -6.710131624977251 0 -23.26211364653045
47 -0 -5191.458010425496 -0 6.81168901961837 -0 3.201981102521131 0 -3891.0195820015806 0 6.81168901961837 0 9085.67957352948
48 -0 -650.2192142118956 -0 2.6716406864579767e-12 -0 9087.919715163094 0 650.2192142120193 0 2.6716406864579767e-12 0 9087.919715162967
49 -0 3891.019582001528 -0 -6.811689019613169 -0 9085.679573529593 0 5191.458010425443 0 -6.811689019613169 0 3.201981102735772
50 -0 -650.2192142119575 -0 6.522120550659295 -0 -216.7397380706525 0 650.2192142119575 0 6.522120550659295 0 -216.7397380706525
51 -0 -650.2192142119575 -0 2.9416469260468148e-12 -0 -216.7397380706525 0 650.2192142119575 0 2.9416469260468148e-12 0 -216.7397380706525
52 -0 -650.2192142119575 -0 -6.522120550653668 -0 -216.7397380706525 0 650.2192142119575 0 -6.522120550653668 0 -216.7397380706525
$EndElementData
$ElementData
1
"AxialForce"
1
0
3
0
1
52
1 0
2 0
3 0
4 0
5 0
6 0
7 0
8 0
9 0
10 0
11 0
12 0
13 0
14 0
15 0
16 0
17 0
18 0
19 0
20 0
21 0
22 0
23 0
24 0
25 0
26 0
27 0
28 0
29 0
30 0
31 0
32 0
33 0
34 0
35 0
36 0
37 0
38 0
39 0
40 0
41 0
42 0
43 0
44 0
45 0
46 0
47 0
48 0
49 0
50 0
51 0
52 0
$EndElementData
$ElementData
1
"VonMisesStress"
1
0
3
0
1
52
1 40696792.36772923
2 62493465.79063638
3 74632489.96184711
4 75441373.98811325
5 74632489.961847
6 62493465.79063588
7 40696792.367729545
8 39474184.04178672
9 63839799.53081914
10 84726742.78864889
11 85088352.21841748
12 84726742.78864922
13 63839799.53081822
14 39474184.04178615
15 39474184.04178694
16 63839799.53082063
17 84726742.78865144
18 85088352.21841988
19 84726742.78865105
20 63839799.530818835
21 39474184.04178605
22 40696792.36773259
23 62493465.7906406
24 74632489.96185523
25 75441373.98812017
26 74632489.9618537
27 62493465.79063921
28 40696792.367731825
29 694417.4735361848
30 414815.0837862537
31 694417.4735359241
32 8252924.918264868
33 8139812.440803651
34 8252924.918266788
35 17104344.16055242
36 16534976.07302028
37 17104344.160555538
38 24025779.49441342
39 23125465.48220418
40 24025779.494416248
41 24025779.494414434
42 23125465.482204027
43 24025779.4944157
44 17104344.16055335
45 16534976.073020268
46 17104344.160553552
47 8252924.918265439
48 8139812.440803274
49 8252924.918265352
50 694417.4735361642
51 414815.0837862334
52 694417.473535916
$EndElementData
$NodeData
1
"Fixity"
1
0
3
0
3
32
1 1 1 1
2 0 0 0
3 0 0 0
4 0 0 0
5 0 0 0
6 0 0 0
7 0 0 0
8 0 1 1
9 0 1 0
10 0 0 0
11 0 0 0
12 0 0 0
13 0 0 0
14 0 0 0
15 0 0 0
16 0 1 0
17 0 1 0
18 0 0 0
19 0 0 0
20 0 0 0
21 0 0 0
22 0 0 0
23 0 0 0
24 0 1 0
25 0 1 0
26 0 0 0
27 0 0 0
28 0 0 0
29 0 0 0
30 0 0 0
31 0 0 0
32 0 1 0
$EndNodeData
$NodeData
1
"FixityRotation"
1
0
3
0
3
32
1 1 0 0
2 0 0 0
3 0 0 0
4 0 0 0
5 0 0 0
6 0 0 0
7 0 0 0
8 1 0 0
9 1 0 0
10 0 0 0
11 0 0 0
12 0 0 0
13 0 0 0
14 0 0 0
15 0 0 0
16 1 0 0
17 1 0 0
18 0 0 0
19 0 0 0
20 0 0 0
21 0 0 0
22 0 0 0
23 0 0 0
24 1 0 0
25 1 0 0
26 0 0 0
27 0 0 0
28 0 0 0
29 0 0 0
30 0 0 0
31 0 0 0
32 1 0 0
$EndNodeData
$NodeData
1
"NodalForce"
1
0
3
0
3
32
1 0 0 0
2 0 0 0
3 0 0 0
4 0 0 0
5 0 0 0
6 0 0 0
7 0 0 0
8 0 0 0
9 0 0 0
10 0 0 0
11 0 0 0
12 0 -50000 0
13 0 -50000 0
14 0 0 0
15 0 0 0
16 0 0 0
17 0 0 0
18 0 0 0
19 0 0 0
20 0 -50000 0
21 0 -50000 0
22 0 0 0
23 0 0 0
24 0 0 0
25 0 0 0
26 0 0 0
27 0 0 0
28 0 0 0
29 0 0 0
30 0 0 0
31 0 0 0
32 0 0 0
$EndNodeData
$ElementData
1
"CrossSectionArea"
1
0
3
0
1
52
1 0.026995778955533033
2 0.026995778955533033
3 0.026995778955533033
4 0.026995778955533033
5 0.026995778955533033
6 0.026995778955533033
7 0.026995778955533033
8 0.026995778955533033
9 0.026995778955533033
10 0.026995778955533033
11 0.026995778955533033
12 0.026995778955533033
13 0.026995778955533033
14 0.026995778955533033
15 0.026995778955533033
16 0.026995778955533033
17 0.026995778955533033
18 0.026995778955533033
19 0.026995778955533033
20 0.026995778955533033
21 0.026995778955533033
22 0.026995778955533033
23 0.026995778955533033
24 0.026995778955533033
25 0.026995778955533033
26 0.026995778955533033
27 0.026995778955533033
28 0.026995778955533033
29 0.0084463576397669
30 0.0084463576397669
31 0.0084463576397669
32 0.0084463576397669
33 0.0084463576397669
34 0.0084463576397669
35 0.0084463576397669
36 0.0084463576397669
37 0.0084463576397669
38 0.0084463576397669
39 0.0084463576397669
40 0.0084463576397669
41 0.0084463576397669
42 0.0084463576397669
43 0.0084463576397669
44 0.0084463576397669
45 0.0084463576397669
46 0.0084463576397669
47 0.0084463576397669
48 0.0084463576397669
49 0.0084463576397669
50 0.0084463576397669
51 0.0084463576397669
52 0.0084463576397669
$EndElementData
$ElementData
1
"Attribute:ElementFormulation"
1
0
3
0
1
52
1 1
2 1
3 1
4 1
5 1
6 1
7 1
8 1
9 1
10 1
11 1
12 1
13 1
14 1
15 1
16 1
17 1
18 1
19 1
20 1
21 1
22 1
23 1
24 1
25 1
26 1
27 1
28 1
29 1
30 1
31 1
32 1
33 1
34 1
35 1
36 1
37 1
38 1
39 1
40 1
41 1
42 1
43 1
44 1
45 1
46 1
47 1
48 1
49 1
50 1
51 1
52 1
$EndElementData
$ElementData
1
"MaterialID"
1
0
3
0
1
52
1 3
2 3
3 3
4 3
5 3
6 3
7 3
8 3
9 3
10 3
11 3
12 3
13 3
14 3
15 3
16 3
17 3
18 3
19 3
20 3
21 3
22 3
23 3
24 3
25 3
26 3
27 3
28 3
29 3
30 3
31 3
32 3
33 3
34 3
35 3
36 3
37 3
38 3
39 3
40 3
41 3
42 3
43 3
44 3
45 3
46 3
47 3
48 3
49 3
50 3
51 3
52 3
$EndElementData
$ElementData
1
"Attribute:SecondMomentY"
1
0
3
0
1
52
1 0.00013530245778963672
2 0.00013530245778963672
3 0.00013530245778963672
4 0.00013530245778963672
5 0.00013530245778963672
6 0.00013530245778963672
7 0.00013530245778963672
8 0.00013530245778963672
9 0.00013530245778963672
10 0.00013530245778963672
11 0.00013530245778963672
12 0.00013530245778963672
13 0.00013530245778963672
14 0.00013530245778963672
15 0.00013530245778963672
16 0.00013530245778963672
17 0.00013530245778963672
18 0.00013530245778963672
19 0.00013530245778963672
20 0.00013530245778963672
21 0.00013530245778963672
22 0.00013530245778963672
23 0.00013530245778963672
24 0.00013530245778963672
25 0.00013530245778963672
26 0.00013530245778963672
27 0.00013530245778963672
28 0.00013530245778963672
29 1.317824028008936e-05
30 1.317824028008936e-05
31 1.317824028008936e-05
32 1.317824028008936e-05
33 1.317824028008936e-05
34 1.317824028008936e-05
35 1.317824028008936e-05
36 1.317824028008936e-05
37 1.317824028008936e-05
38 1.317824028008936e-05
39 1.317824028008936e-05
40 1.317824028008936e-05
41 1.317824028008936e-05
42 1.317824028008936e-05
43 1.317824028008936e-05
44 1.317824028008936e-05
45 1.317824028008936e-05
46 1.317824028008936e-05
47 1.317824028008936e-05
48 1.317824028008936e-05
49 1.317824028008936e-05
50 1.317824028008936e-05
51 1.317824028008936e-05
52 1.317824028008936e-05
$EndElementData
$ElementData
1
"Attribute:SecondMomentZ"
1
0
3
0
1
52
1 0.001710411108759916
2 0.001710411108759916
3 0.001710411108759916
4 0.001710411108759916
5 0.001710411108759916
6 0.001710411108759916
7 0.001710411108759916
8 0.001710411108759916
9 0.001710411108759916
10 0.001710411108759916
11 0.001710411108759916
12 0.001710411108759916
13 0.001710411108759916
14 0.001710411108759916
15 0.001710411108759916
16 0.001710411108759916
17 0.001710411108759916
18 0.001710411108759916
19 0.001710411108759916
20 0.001710411108759916
21 0.001710411108759916
22 0.001710411108759916
23 0.001710411108759916
24 0.001710411108759916
25 0.001710411108759916
26 0.001710411108759916
27 0.001710411108759916
28 0.001710411108759916
29 0.00023128369088907635
30 0.00023128369088907635
31 0.00023128369088907635
32 0.00023128369088907635
33 0.00023128369088907635
34 0.00023128369088907635
35 0.00023128369088907635
36 0.00023128369088907635
37 0.00023128369088907635
38 0.00023128369088907635
39 0.00023128369088907635
40 0.00023128369088907635
41 0.00023128369088907635
42 0.00023128369088907635
43 0.00023128369088907635
44 0.00023128369088907635
45 0.00023128369088907635
46 0.00023128369088907635
47 0.00023128369088907635
48 0.00023128369088907635
49 0.00023128369088907635
50 0.00023128369088907635
51 0.00023128369088907635
52 0.00023128369088907635
$EndElementData
$ElementData
1
"Attribute:SectionDimension1"
1
0
3
0
1
52
1 0.6
2 0.6
3 0.6
4 0.6
5 0.6
6 0.6
7 0.6
8 0.6
9 0.6
10 0.6
11 0.6
12 0.6
13 0.6
14 0.6
15 0.6
16 0.6
17 0.6
18 0.6
19 0.6
20 0.6
21 0.6
22 0.6
23 0.6
24 0.6
25 0.6
26 0.6
27 0.6
28 0.6
29 0.4
30 0.4
31 0.4
32 0.4
33 0.4
34 0.4
35 0.4
36 0.4
37 0.4
38 0.4
39 0.4
40 0.4
41 0.4
42 0.4
43 0.4
44 0.4
45 0.4
46 0.4
47 0.4
48 0.4
49 0.4
50 0.4
51 0.4
52 0.4
$EndElementData
$ElementData
1
"Attribute:SectionDimension2"
1
0
3
0
1
52
1 0.3
2 0.3
3 0.3
4 0.3
5 0.3
6 0.3
7 0.3
8 0.3
9 0.3
10 0.3
11 0.3
12 0.3
13 0.3
14 0.3
15 0.3
16 0.3
17 0.3
18 0.3
19 0.3
20 0.3
21 0.3
22 0.3
23 0.3
24 0.3
25 0.3
26 0.3
27 0.3
28 0.3
29 0.18
30 0.18
31 0.18
32 0.18
33 0.18
34 0.18
35 0.18
36 0.18
37 0.18
38 0.18
39 0.18
40 0.18
41 0.18
42 0.18
43 0.18
44 0.18
45 0.18
46 0.18
47 0.18
48 0.18
49 0.18
50 0.18
51 0.18
52 0.18
$EndElementData
$ElementData
1
"Attribute:SectionDimension3"
1
0
3
0
1
52
1 0.0155
2 0.0155
3 0.0155
4 0.0155
5 0.0155
6 0.0155
7 0.0155
8 0.0155
9 0.0155
10 0.0155
11 0.0155
12 0.0155
13 0.0155
14 0.0155
15 0.0155
16 0.0155
17 0.0155
18 0.0155
19 0.0155
20 0.0155
21 0.0155
22 0.0155
23 0.0155
24 0.0155
25 0.0155
26 0.0155
27 0.0155
28 0.0155
29 0.0086
30 0.0086
31 0.0086
32 0.0086
33 0.0086
34 0.0086
35 0.0086
36 0.0086
37 0.0086
38 0.0086
39 0.0086
40 0.0086
41 0.0086
42 0.0086
43 0.0086
44 0.0086
45 0.0086
46 0.0086
47 0.0086
48 0.0086
49 0.0086
50 0.0086
51 0.0086
52 0.0086
$EndElementData
$ElementData
1
"Attribute:SectionDimension4"
1
0
3
0
1
52
1 0.03
2 0.03
3 0.03
4 0.03
5 0.03
6 0.03
7 0.03
8 0.03
9 0.03
10 0.03
11 0.03
12 0.03
13 0.03
14 0.03
15 0.03
16 0.03
17 0.03
18 0.03
19 0.03
20 0.03
21 0.03
22 0.03
23 0.03
24 0.03
25 0.03
26 0.03
27 0.03
28 0.03
29 0.0135
30 0.0135
31 0.0135
32 0.0135
33 0.0135
34 0.0135
35 0.0135
36 0.0135
37 0.0135
38 0.0135
39 0.0135
40 0.0135
41 0.0135
42 0.0135
43 0.0135
44 0.0135
45 0.0135
46 0.0135
47 0.0135
48 0.0135
49 0.0135
50 0.0135
51 0.0135
52 0.0135
$EndElementData
$ElementData
1
"Attribute:SectionDimension5"
1
0
3
0
1
52
1 0.027
2 0.027
3 0.027
4 0.027
5 0.027
6 0.027
7 0.027
8 0.027
9 0.027
10 0.027
11 0.027
12 0.027
13 0.027
14 0.027
15 0.027
16 0.027
17 0.027
18 0.027
19 0.027
20 0.027
21 0.027
22 0.027
23 0.027
24 0.027
25 0.027
26 0.027
27 0.027
28 0.027
29 0.021
30 0.021
31 0.021
32 0.021
33 0.021
34 0.021
35 0.021
36 0.021
37 0.021
38 0.021
39 0.021
40 0.021
41 0.021
42 0.021
43 0.021
44 0.021
45 0.021
46 0.021
47 0.021
48 0.021
49 0.021
50 0.021
51 0.021
52 0.021
$EndElementData
$ElementData
1
"Attribute:SectionShape"
1
0
3
0
1
52
1 5
2 5
3 5
4 5
5 5
6 5
7 5
8 5
9 5
10 5
11 5
12 5
13 5
14 5
15 5
16 5
17 5
18 5
19 5
20 5
21 5
22 5
23 5
24 5
25 5
26 5
27 5
28 5
29 5
30 5
31 5
32 5
33 5
34 5
35 5
36 5
37 5
38 5
39 5
40 5
41 5
42 5
43 5
44 5
45 5
46 5
47 5
48 5
49 5
50 5
51 5
52 5
$EndElementData
$ElementData
1
"Attribute:ShearAreaY"
1
0
3
0
1
52
1 0.008633031428391261
2 0.008633031428391261
3 0.008633031428391261
4 0.008633031428391261
5 0.008633031428391261
6 0.008633031428391261
7 0.008633031428391261
8 0.008633031428391261
9 0.008633031428391261
10 0.008633031428391261
11 0.008633031428391261
12 0.008633031428391261
13 0.008633031428391261
14 0.008633031428391261
15 0.008633031428391261
16 0.008633031428391261
17 0.008633031428391261
18 0.008633031428391261
19 0.008633031428391261
20 0.008633031428391261
21 0.008633031428391261
22 0.008633031428391261
23 0.008633031428391261
24 0.008633031428391261
25 0.008633031428391261
26 0.008633031428391261
27 0.008633031428391261
28 0.008633031428391261
29 0.0033323939411293683
30 0.0033323939411293683
31 0.0033323939411293683
32 0.0033323939411293683
33 0.0033323939411293683
34 0.0033323939411293683
35 0.0033323939411293683
36 0.0033323939411293683
37 0.0033323939411293683
38 0.0033323939411293683
39 0.0033323939411293683
40 0.0033323939411293683
41 0.0033323939411293683
42 0.0033323939411293683
43 0.0033323939411293683
44 0.0033323939411293683
45 0.0033323939411293683
46 0.0033323939411293683
47 0.0033323939411293683
48 0.0033323939411293683
49 0.0033323939411293683
50 0.0033323939411293683
51 0.0033323939411293683
52 0.0033323939411293683
$EndElementData
$ElementData
1
"Attribute:ShearAreaZ"
1
0
3
0
1
52
1 0.015294117647058823
2 0.015294117647058823
3 0.015294117647058823
4 0.015294117647058823
5 0.015294117647058823
6 0.015294117647058823
7 0.015294117647058823
8 0.015294117647058823
9 0.015294117647058823
10 0.015294117647058823
11 0.015294117647058823
12 0.015294117647058823
13 0.015294117647058823
14 0.015294117647058823
15 0.015294117647058823
16 0.015294117647058823
17 0.015294117647058823
18 0.015294117647058823
19 0.015294117647058823
20 0.015294117647058823
21 0.015294117647058823
22 0.015294117647058823
23 0.015294117647058823
24 0.015294117647058823
25 0.015294117647058823
26 0.015294117647058823
27 0.015294117647058823
28 0.015294117647058823
29 0.0041294117647058814
30 0.0041294117647058814
31 0.0041294117647058814
32 0.0041294117647058814
33 0.0041294117647058814
34 0.0041294117647058814
35 0.0041294117647058814
36 0.0041294117647058814
37 0.0041294117647058814
38 0.0041294117647058814
39 0.0041294117647058814
40 0.0041294117647058814
41 0.0041294117647058814
42 0.0041294117647058814
43 0.0041294117647058814
44 0.0041294117647058814
45 0.0041294117647058814
46 0.0041294117647058814
47 0.0041294117647058814
48 0.0041294117647058814
49 0.0041294117647058814
50 0.0041294117647058814
51 0.0041294117647058814
52 0.0041294117647058814
$EndElementData
$ElementData
1
"Attribute:TorsionConstant"
1
0
3
0
1
52
1 6.671750497336342e-06
2 6.671750497336342e-06
3 6.671750497336342e-06
4 6.671750497336342e-06
5 6.671750497336342e-06
6 6.671750497336342e-06
7 6.671750497336342e-06
8 6.671750497336342e-06
9 6.671750497336342e-06
10 6.671750497336342e-06
11 6.671750497336342e-06
12 6.671750497336342e-06
13 6.671750497336342e-06
14 6.671750497336342e-06
15 6.671750497336342e-06
16 6.671750497336342e-06
17 6.671750497336342e-06
18 6.671750497336342e-06
19 6.671750497336342e-06
20 6.671750497336342e-06
21 6.671750497336342e-06
22 6.671750497336342e-06
23 6.671750497336342e-06
24 6.671750497336342e-06
25 6.671750497336342e-06
26 6.671750497336342e-06
27 6.671750497336342e-06
28 6.671750497336342e-06
29 5.107547221208023e-07
30 5.107547221208023e-07
31 5.107547221208023e-07
32 5.107547221208023e-07
33 5.107547221208023e-07
34 5.107547221208023e-07
35 5.107547221208023e-07
36 5.107547221208023e-07
37 5.107547221208023e-07
38 5.107547221208023e-07
39 5.107547221208023e-07
40 5.107547221208023e-07
41 5.107547221208023e-07
42 5.107547221208023e-07
43 5.107547221208023e-07
44 5.107547221208023e-07
45 5.107547221208023e-07
46 5.107547221208023e-07
47 5.107547221208023e-07
48 5.107547221208023e-07
49 5.107547221208023e-07
50 5.107547221208023e-07
51 5.107547221208023e-07
52 5.107547221208023e-07
$EndElementData
$ElementData
1
"Attribute:UniformLoadGlobalX"
1
0
3
0
1
52
1 0
2 0
3 0
4 0
5 0
6 0
7 0
8 0
9 0
10 0
11 0
12 0
13 0
14 0
15 0
16 0
17 0
18 0
19 0
20 0
21 0
22 0
23 0
24 0
25 0
26 0
27 0
28 0
29 0
30 0
31 0
32 0
33 0
34 0
35 0
36 0
37 0
38 0
39 0
40 0
41 0
42 0
43 0
44 0
45 0
46 0
47 0
48 0
49 0
50 0
51 0
52 0
$EndElementData
$ElementData
1
"Attribute:UniformLoadGlobalY"
1
0
3
0
1
52
1 -10000
2 -10000
3 -10000
4 -10000
5 -10000
6 -10000
7 -10000
8 -10000
9 -10000
10 -10000
11 -10000
12 -10000
13 -10000
14 -10000
15 -10000
16 -10000
17 -10000
18 -10000
19 -10000
20 -10000
21 -10000
22 -10000
23 -10000
24 -10000
25 -10000
26 -10000
27 -10000
28 -10000
29 0
30 0
31 0
32 0
33 0
34 0
35 0
36 0
37 0
38 0
39 0
40 0
41 0
42 0
43 0
44 0
45 0
46 0
47 0
48 0
49 0
50 0
51 0
52 0
$EndElementData
$ElementData
1
"Attribute:UniformLoadGlobalZ"
1
0
3
0
1
52
1 0
2 0
3 0
4 0
5 0
6 0
7 0
8 0
9 0
10 0
11 0
12 0
13 0
14 0
15 0
16 0
17 0
18 0
19 0
20 0
21 0
22 0
23 0
24 0
25 0
26 0
27 0
28 0
29 0
30 0
31 0
32 0
33 0
34 0
35 0
36 0
37 0
38 0
39 0
40 0
41 0
42 0
43 0
44 0
45 0
46 0
47 0
48 0
49 0
50 0
51 0
52 0
$EndElementData
$ElementData
1
"Attribute:UniformLoadLocalX"
1
0
3
0
1
52
1 0
2 0
3 0
4 0
5 0
6 0
7 0
8 0
9 0
10 0
11 0
12 0
13 0
14 0
15 0
16 0
17 0
18 0
19 0
20 0
21 0
22 0
23 0
24 0
25 0
26 0
27 0
28 0
29 0
30 0
31 0
32 0
33 0
34 0
35 0
36 0
37 0
38 0
39 0
40 0
41 0
42 0
43 0
44 0
45 0
46 0
47 0
48 0
49 0
50 0
51 0
52 0
$EndElementData
$ElementData
1
"Attribute:UniformLoadLocalY"
1
0
3
0
1
52
1 0
2 0
3 0
4 0
5 0
6 0
7 0
8 0
9 0
10 0
11 0
12 0
13 0
14 0
15 0
16 0
17 0
18 0
19 0
20 0
21 0
22 0
23 0
24 0
25 0
26 0
27 0
28 0
29 0
30 0
31 0
32 0
33 0
34 0
35 0
36 0
37 0
38 0
39 0
40 0
41 0
42 0
43 0
44 0
45 0
46 0
47 0
48 0
49 0
50 0
51 0
52 0
$EndElementData
$ElementData
1
"Attribute:UniformLoadLocalZ"
1
0
3
0
1
52
1 0
2 0
3 0
4 0
5 0
6 0
7 0
8 0
9 0
10 0
11 0
12 0
13 0
14 0
15 0
16 0
17 0
18 0
19 0
20 0
21 0
22 0
23 0
24 0
25 0
26 0
27 0
28 0
29 0
30 0
31 0
32 0
33 0
34 0
35 0
36 0
37 0
38 0
39 0
40 0
41 0
42 0
43 0
44 0
45 0
46 0
47 0
48 0
49 0
50 0
51 0
52 0
$EndElementData
$ElementData
1
"BeamOrientation"
1
0
3
0
3
52
1 0 0 0
2 0 0 0
3 0 0 0
4 0 0 0
5 0 0 0
6 0 0 0
7 0 0 0
8 0 0 0
9 0 0 0
10 0 0 0
11 0 0 0
12 0 0 0
13 0 0 0
14 0 0 0
15 0 0 0
16 0 0 0
17 0 0 0
18 0 0 0
19 0 0 0
20 0 0 0
21 0 0 0
22 0 0 0
23 0 0 0
24 0 0 0
25 0 0 0
26 0 0 0
27 0 0 0
28 0 0 0
29 0 0 0
30 0 0 0
31 0 0 0
32 0 0 0
33 0 0 0
34 0 0 0
35 0 0 0
36 0 0 0
37 0 0 0
38 0 0 0
39 0 0 0
40 0 0 0
41 0 0 0
42 0 0 0
43 0 0 0
44 0 0 0
45 0 0 0
46 0 0 0
47 0 0 0
48 0 0 0
49 0 0 0
50 0 0 0
51 0 0 0
52 0 0 0
$EndElementData
$AnafData
1
1
GLOBAL 3 1
"Gravity"
0 -9.80665 0
$EndAnafData
