$MeshFormat
4.1 0 8
$EndMeshFormat
$PhysicalNames
5
1 1 "Material:Structural Steel S355 (EN 10025)"
1 2 "Section:IPE 200"
1 3 "Section:IPE 270"
1 4 "Section:HEB 240"
1 5 "Section:HEB 280"
$EndPhysicalNames
$Entities
0 4 0 0
1 0 0 0 16 2.5 3 2 1 5 0
2 0 0 0 16 2.5 3 2 1 4 0
3 0 0 0 16 0 3 2 1 3 0
4 0 2.5 0 16 2.5 3 2 1 2 0
$EndEntities
$Nodes
1 36 1 36
1 1 0 36
1
2
3
4
5
6
7
8
9
10
11
12
13
14
15
16
17
18
19
20
21
22
23
24
25
26
27
28
29
30
31
32
33
34
35
36
0 0 0
0 2.5 0
2 0 0
2 2.5 0
4 0 0
4 2.5 0
6 0 0
6 2.5 0
8 0 0
8 2.5 0
10 0 0
10 2.5 0
12 0 0
12 2.5 0
14 0 0
14 2.5 0
16 0 0
16 2.5 0
0 0 3
0 2.5 3
2 0 3
2 2.5 3
4 0 3
4 2.5 3
6 0 3
6 2.5 3
8 0 3
8 2.5 3
10 0 3
10 2.5 3
12 0 3
12 2.5 3
14 0 3
14 2.5 3
16 0 3
16 2.5 3
$EndNodes
$Elements
4 68 1 68
1 1 1 32
1 1 3
2 3 5
3 5 7
4 7 9
5 9 11
6 11 13
7 13 15
8 15 17
9 2 4
10 4 6
11 6 8
12 8 10
13 10 12
14 12 14
15 14 16
16 16 18
26 19 21
27 21 23
28 23 25
29 25 27
30 27 29
31 29 31
32 31 33
33 33 35
34 20 22
35 22 24
36 24 26
37 26 28
38 28 30
39 30 32
40 32 34
41 34 36
1 2 1 18
17 1 2
18 3 4
19 5 6
20 7 8
21 9 10
22 11 12
23 13 14
24 15 16
25 17 18
42 19 20
43 21 22
44 23 24
45 25 26
46 27 28
47 29 30
48 31 32
49 33 34
50 35 36
1 3 1 9
51 1 19
53 3 21
55 5 23
57 7 25
59 9 27
61 11 29
63 13 31
65 15 33
67 17 35
1 4 1 9
52 2 20
54 4 22
56 6 24
58 8 26
60 10 28
62 12 30
64 14 32
66 16 34
68 18 36
$EndElements
$NodeData
1
"Displacement"
1
0
3
0
3
36
1 0 0 0
2 0.0005426007687835377 -4.802729805962108e-05 3.2745680779536516e-07
3 2.66045256943641e-05 -0.0029408782088441695 -1.7529513257714132e-07
4 0.0005159962430891733 -0.0029316664303905954 3.5214914012874413e-07
5 8.709779245033835e-05 -0.005550098804624269 -1.53265755397657e-07
6 0.0004555029763331986 -0.005540801975123091 3.774645933399781e-07
7 0.00017273395667502447 -0.007216472128882747 -1.2633399564782984e-07
8 0.0003698668121085122 -0.007207415630052745 4.0280405020384923e-07
9 0.00027130038439176986 -0.0077827151221810725 -1.0137390150419552e-07
10 0.0002713003843917667 -0.0077736004067324544 4.281280499590656e-07
11 0.000369866812108515 -0.0072164721288827125 -7.596650294103366e-08
12 0.00017273395667502154 -0.007207415630052714 4.534556894493849e-07
13 0.0004555029763332008 -0.005550098804624255 -5.065704591843217e-08
14 8.709779245033567e-05 -0.005540801975123078 4.787825589465986e-07
15 0.0005159962430891752 -0.0029408782088441716 -2.532625206791147e-08
16 2.6604525694361253e-05 -0.0029316664303905967 5.041095885284249e-07
17 0.0005426007687835396 0 0
18 -3.141966852147442e-18 -4.802729805962117e-05 5.294365856549194e-07
19 -3.7990503504279764e-08 0 0
20 0.0005425627782800559 -4.8027298059622576e-05 -3.274568077824919e-07
21 2.6566535190861002e-05 -0.00294087820884428 2.2594913714869264e-07
22 0.0005159582525856908 -0.002931666430390705 -3.014951353619057e-07
23 8.705980194683782e-05 -0.005550098804624502 2.5457376452866405e-07
24 0.00045546498582971424 -0.005540801975123325 -2.7615658382288986e-07
25 0.0001726959661715278 -0.007216472128883077 2.782960093371844e-07
26 0.00036982882160502446 -0.007207415630053077 -2.508420359621662e-07
27 0.00027126239388827793 -0.007782715122181468 3.0398991976759627e-07
28 0.00027126239388827457 -0.00777360040673285 -2.2551203104412104e-07
29 0.0003698288216050286 -0.007216472128883124 3.2923652581462843e-07
30 0.0001726959661715243 -0.007207415630053123 -2.001856659360928e-07
31 0.0004554649858297196 -0.005550098804624559 3.545810734519732e-07
32 8.705980194683368e-05 -0.005540801975123382 -1.7485853091829275e-07
33 0.0005159582525856973 -0.0029408782088443173 3.7990428429160537e-07
34 2.6566535190856265e-05 -0.002931666430390742 -1.4953155603786888e-07
35 0.0005425627782800629 0 4.052320369145388e-07
36 -3.799050350931063e-08 -4.802729805962315e-05 -1.2420454871346e-07
$EndNodeData
$NodeData
1
"Rotation"
1
0
3
0
3
36
1 1.0705095667358997e-05 1.1104211399197354e-07 -0.0010548266423386144
2 6.069248342909563e-06 -1.2116474190362029e-08 -0.0009959206715686273
3 1.0754897284096903e-05 3.5312484835187166e-08 -0.0012286129648171687
4 6.147504864803631e-06 -1.251827274351567e-08 -0.0012222041445113276
5 1.0755769825801473e-05 -2.4544446189863386e-08 -0.00091051097282164
6 6.149049771372812e-06 -1.2709576584261972e-08 -0.0009120616884057405
7 1.0755374147258458e-05 -1.004374193007549e-08 -0.00047186023237085823
8 6.1484324985231456e-06 -1.2653485243506795e-08 -0.00047157426361585353
9 1.075546430474786e-05 -1.3235820073973112e-08 9.705082798529111e-18
10 6.1485727289497705e-06 -1.2665557254541052e-08 8.156933469321708e-18
11 1.0755444548807433e-05 -1.2538557423125123e-08 0.0004718602323708607
12 6.14854200994854e-06 -1.2663081653410457e-08 0.00047157426361585624
13 1.0755448861695254e-05 -1.269083542474238e-08 0.00091051097282163
14 6.148548716024019e-06 -1.2663587228388884e-08 0.0009120616884057327
15 1.0755447929329138e-05 -1.265725165027499e-08 0.0012286129648171665
16 6.148547266415065e-06 -1.2663482114835419e-08 0.0012222041445113254
17 1.0755448113801428e-05 -1.2666007050011837e-08 0.0010548266423386179
18 6.1485475531157484e-06 -1.2663509719149328e-08 0.0009959206715686292
19 -1.0705095667357e-05 -1.3636911628192877e-07 -0.0010548266423386532
20 -6.069248342904842e-06 -1.3210528185422934e-08 -0.0009959206715686635
21 -1.07548972840216e-05 -6.063948711869593e-08 -0.0012286129648172196
22 -6.147504864726663e-06 -1.2808729633300388e-08 -0.0012222041445113783
23 -1.0755769825647034e-05 -7.825560895780435e-10 -0.0009105109728216865
24 -6.14904977121799e-06 -1.2617425786351808e-08 -0.0009120616884057885
25 -1.075537414703855e-05 -1.5283260352418906e-08 -0.0004718602323708913
26 -6.148432498302054e-06 -1.2673517107803082e-08 -0.00047157426361588796
27 -1.0755464304484272e-05 -1.2091182221169857e-08 -1.0276568084376515e-17
28 -6.148572728689428e-06 -1.2661445065043847e-08 -9.369648667988968e-18
29 -1.075544454853994e-05 -1.2788444894538381e-08 0.00047186023237087997
30 -6.148542009690544e-06 -1.2663920624425293e-08 0.000471574263615875
31 -1.0755448861494707e-05 -1.263616691495321e-08 0.0009105109728216899
32 -6.14854871582543e-06 -1.2663415013082477e-08 0.0009120616884057915
33 -1.0755447929227995e-05 -1.2669750695894389e-08 0.0012286129648172337
34 -6.148547266310132e-06 -1.2663520111610383e-08 0.0012222041445113917
35 -1.075544811379726e-05 -1.2660995293268249e-08 0.0010548266423386673
36 -6.14854755310629e-06 -1.2663492508318173e-08 0.0009959206715686776
$EndNodeData
$ElementData
1
"BeamSectionForce"
1
0
3
0
12
68
1 36696.326679929756 -48918.68965281418 -0.6011743137647753 0.0028915545532808284 0.07680356749243022 -46427.53018076352 36696.326679929756 -30896.145079233684 -0.6011743137647753 0.0028915545532808284 -1.1255450600371197 33387.30455128434
2 83439.96447505265 -37546.77885826111 0.6812923397361383 5.066104484230394e-05 -1.0957565849814925 -25102.856135632137 83439.96447505265 -19524.234284680613 0.6812923397361383 5.066104484230394e-05 0.26682809449078426 31968.157007309565
3 118120.22864481699 -26250.58721185648 -0.15904503044261045 -2.2973673700521502e-05 0.25945150540945827 -11367.506822285537 118120.22864481699 -8228.042638275978 -0.15904503044261045 -2.2973673700521502e-05 -0.05863855547576263 23111.12302784698
4 135955.28342509046 -14740.434253881112 0.03490926478768808 5.234675419685253e-06 -0.05701200604117879 814.5999126483944 135955.28342509046 3282.110319699388 0.03490926478768808 5.234675419685253e-06 0.012806523534197756 12272.923846830061
5 135955.28342509002 -3282.1103196986387 -0.007623159637665022 -1.147058734995987e-06 0.01245117927336184 12272.923846830516 135955.28342509002 14740.434253881862 -0.007623159637665022 -1.147058734995987e-06 -0.002795140001968399 814.5999126472957
6 118120.22864481661 8228.042638275167 0.001663152646688204 2.5041256146440816e-07 -0.0027175633210570482 23111.12302784591 118120.22864481661 26250.587211855665 0.001663152646688204 2.5041256146440816e-07 0.0006087419723194154 -11367.506822284922
7 83439.9644750529 19524.23428468044 -0.000359227734338996 -5.413453751934583e-08 0.0005917701233112416 31968.157007309543 83439.9644750529 37546.778858260936 -0.000359227734338996 -5.413453751934583e-08 -0.00012668534536663945 -25102.85613563181
8 36696.32667993009 30896.14507923372 6.218046091116536e-05 1.0710730413698855e-08 -0.0001228050215361931 33387.304551284484 36696.32667993009 48918.68965281422 6.218046091116536e-05 1.0710730413698855e-08 1.5559002862208793e-06 -46427.53018076345
9 -36696.32667993021 -41408.89651129831 0.001196206791730825 0.004543687876592095 -0.003978359689008837 -45313.28651906186 -36696.32667993021 -39386.351937717816 0.001196206791730825 0.004543687876592095 -0.0015859461055471868 35481.96192995426
10 -83439.96447505325 -29836.509708556518 0.0018197730897075992 8.969953019838384e-05 -0.0031444083593354655 -22886.971870936337 -83439.96447505325 -27813.965134976013 0.0018197730897075992 8.969953019838384e-05 0.0004951378200805379 34763.5029725962
11 -118120.22864481725 -18188.403757666852 -0.0004903398843715268 -3.5839762561606925e-05 0.0008787302480738057 -8601.493622219425 -118120.22864481725 -16165.85918408635 -0.0004903398843715268 -3.5839762561606925e-05 -0.00010194952066927554 25752.769319533778
12 -135955.2834250906 -6754.259118346646 0.0001029758366635769 8.141983236176209e-06 -0.00018656543700357187 3461.65548404894 -135955.2834250906 -4731.714544766143 0.0001029758366635769 8.141983236176209e-06 1.9386236325358297e-05 14947.629147161788
13 -135955.28342509014 4731.714544766911 -2.0760647139017596e-05 -1.7835900458784693e-06 3.790232374284441e-05 14947.62914716228 -135955.28342509014 6754.259118347413 -2.0760647139017596e-05 -1.7835900458784693e-06 -3.6189705351352686e-06 3461.655484047895
14 -118120.22864481664 16165.859184085506 4.1673327483837674e-06 3.8936452989579706e-07 -7.668059369220215e-06 25752.76931953271 -118120.22864481664 18188.40375766601 4.1673327483837674e-06 3.8936452989579706e-07 6.666061275750756e-07 -8601.493622218803
15 -83439.96447505287 27813.965134975788 -8.259533604837443e-07 -8.416641161801408e-08 1.5537856924707771e-06 34763.50297259606 -83439.96447505287 29836.509708556292 -8.259533604837443e-07 -8.416641161801408e-08 -9.812103024531282e-08 -22886.971870935995
16 -36696.32667993017 39386.351937717925 1.0993995197550177e-07 1.6646260148078795e-08 -3.010790732005386e-07 35481.96192995444 -36696.32667993017 41408.89651129842 1.0993995197550177e-07 1.6646260148078795e-08 -8.119916744542266e-08 -45313.28651906188
17 -43777.562676481924 -36696.32667993011 130.58120837553756 -0.004087390718764008 -178.50178166277863 -46427.530180763446 -41737.81190040078 -36696.32667993011 130.58120837553756 -0.004087390718764008 147.95123927606528 45313.28651906185
18 7181.176063976817 -46743.63779512288 130.3286888877287 -0.0015874085395425302 -178.09237244368194 -58490.16068691645 9220.92684005796 -46743.63779512288 130.3286888877287 -0.0015874085395425302 147.72934977563978 58368.93380089073
19 7256.8952121256 -34680.264169764276 130.3270170203867 0.0003927759882412784 -178.0880671449024 -43335.663829595054 9296.645988206743 -34680.264169764276 130.3270170203867 0.0003927759882412784 147.7294754060643 43364.996594815624
20 7042.933900557094 -17835.054780273356 130.329080166586 -8.661223512795591e-05 -178.0913762382656 -22296.523115198605 9082.684676638237 -17835.054780273356 130.329080166586 -8.661223512795591e-05 147.73132417819943 22291.113835484786
21 7094.762924348571 3.479518130599752e-10 130.3285998569144 1.8925898630405967e-05 -178.0906108591817 4.5078882398015883e-10 9134.513700429714 3.479518130599752e-10 130.3285998569144 1.8925898630405967e-05 147.73088878310423 -4.2136444542421154e-10
22 7042.9339005543 17835.05478027337 130.3287052899389 -4.1327136876233295e-06 -178.09077877411255 22296.523115198615 9082.684676635443 17835.05478027337 130.3287052899389 -4.1327136876233295e-06 147.73098445073475 -22291.113835484808
23 7256.8952121256 34680.26416976378 130.32868226938882 9.043139136464097e-07 -178.09074211279196 43335.66382959442 9296.645988206743 34680.26416976378 130.32868226938882 9.043139136464097e-07 147.7309635606801 -43364.996594815035
24 7181.176063977283 46743.63779512269 130.32868724704971 -2.0677683459788742e-07 -178.0907500392004 58490.16068691622 9220.926840058426 46743.63779512269 130.32868724704971 -2.0677683459788742e-07 147.73096807842384 -58368.933800890496
25 -43777.56267648201 36696.32667993015 130.328686259537 8.288148751746339e-08 -178.09074846796358 46427.5301807635 -41737.81190040087 36696.32667993015 130.328686259537 8.288148751746339e-08 147.7309671808789 -45313.28651906187
26 36696.32667993139 -48918.68965281545 0.6011743137250436 -0.0028915545490245664 -0.07680356740806205 -46427.53018076504 36696.32667993139 -30896.14507923495 0.6011743137250436 -0.0028915545490245664 1.1255450600420258 33387.30455128537
27 83439.96447505619 -37546.77885826262 -0.6812923398087286 -5.066104024753493e-05 1.0957565850822455 -25102.85613563357 83439.96447505619 -19524.234284682127 -0.6812923398087286 -5.066104024753493e-05 -0.2668280945352109 31968.15700731115
28 118120.2286448223 -26250.587211857557 0.15904503036807166 2.2973677501703094e-05 -0.25945150535605904 -11367.506822286294 118120.2286448223 -8228.042638277058 0.15904503036807166 2.2973677501703094e-05 0.05863855538008422 23111.12302784832
29 135955.283425097 -14740.43425388182 -0.03490926486228696 -5.2346728834917755e-06 0.05701200602819537 814.5999126479228 135955.283425097 3282.1103196986805 -0.03490926486228696 -5.2346728834917755e-06 -0.012806523696378636 12272.923846831063
30 135955.2834250977 -3282.1103196995737 0.0076231595833975985 1.1470589617035287e-06 -0.012451179375031318 12272.92384683032 135955.2834250977 14740.434253880927 0.0076231595833975985 1.1470589617035287e-06 0.002795139791763046 814.5999126490274
31 118120.22864482366 8228.04263827695 -0.0016631525929454716 -2.5041644846623967e-07 0.0027175631147588197 23111.123027848495 118120.22864482366 26250.587211857448 -0.0016631525929454716 -2.5041644846623967e-07 -0.0006087420711320957 -11367.506822285897
32 83439.96447505744 19524.23428468223 0.00035922782341102355 5.412876591393001e-08 -0.0005917702572089956 31968.157007311485 83439.96447505744 37546.778858262725 0.00035922782341102355 5.412876591393001e-08 0.0001266853896121911 -25102.856135633483
33 36696.32667993184 30896.14507923548 -6.218043192540712e-05 -1.0716360909768241e-08 0.00012280501255559906 33387.3045512859 36696.32667993184 48918.68965281598 -6.218043192540712e-05 -1.0716360909768241e-08 -1.5558512934110702e-06 -46427.53018076558
34 -36696.32667993114 -41408.89651129961 -0.0011962067633949913 -0.0045436878723973395 0.003978359653532743 -45313.28651906346 -36696.32667993114 -39386.35193771911 -0.0011962067633949913 -0.0045436878723973395 0.0015859461267436203 35481.96192995528
35 -83439.9644750558 -29836.50970855809 -0.0018197730311282911 -8.969952567805528e-05 0.0031444083437021098 -22886.97187093783 -83439.9644750558 -27813.965134977585 -0.0018197730311282911 -8.969952567805528e-05 -0.0004951377185544725 34763.50297259779
36 -118120.22864482203 -18188.40375766779 0.0004903399398584196 3.583976640925135e-05 -0.0008787301698949535 -8601.493622220069 -118120.22864482203 -16165.859184087289 0.0004903399398584196 3.583976640925135e-05 0.00010194970982185803 25752.76931953495
37 -135955.28342509666 -6754.259118347387 -0.00010297578750162462 -8.141980957221406e-06 0.00018656560751253992 3461.6554840486015 -135955.28342509666 -4731.7145447668845 -0.00010297578750162462 -8.141980957221406e-06 -1.9385967490681555e-05 14947.629147162814
38 -135955.28342509718 4731.714544766005 2.0760666393671023e-05 1.783589909598593e-06 -3.7902053915628287e-05 14947.629147162044 -135955.28342509718 6754.259118346507 2.0760666393671023e-05 1.783589909598593e-06 3.6192788717137603e-06 3461.655484049532
39 -118120.22864482318 16165.85918408718 -4.167421934098137e-06 -3.893679790811788e-07 7.668400350352433e-06 25752.76931953516 -118120.22864482318 18188.403757667682 -4.167421934098137e-06 -3.893679790811788e-07 -6.664435174275063e-07 -8601.49362221969
40 -83439.964475057 27813.96513497784 8.258356435919545e-07 8.416097380115062e-08 -1.553563933609503e-06 34763.50297259824 -83439.964475057 29836.509708558344 8.258356435919545e-07 8.416097380115062e-08 9.810735401849513e-08 -22886.971870937872
41 -36696.3266799318 39386.351937719664 -1.1000247751580261e-07 -1.66518035471519e-08 3.011345232062368e-07 35481.96192995582 -36696.3266799318 41408.89651130016 -1.1000247751580261e-07 -1.66518035471519e-08 8.112956817463157e-08 -45313.28651906398
42 -43777.56267648326 -36696.32667993141 -130.58120837556586 0.004087390715915489 178.501781662823 -46427.53018076509 -41737.81190040212 -36696.32667993141 -130.58120837556586 0.004087390715915489 -147.95123927609168 45313.28651906343
43 7181.176063977283 -46743.63779512481 -130.32868888776 0.0015874085364458452 178.0923724437266 -58490.16068691887 9220.926840058426 -46743.63779512481 -130.32868888776 0.0015874085364458452 -147.72934977567343 58368.93380089314
44 7256.8952121256 -34680.264169766124 -130.32701702038355 -0.0003927759912671089 178.08806714489975 -43335.66382959735 9296.645988206743 -34680.264169766124 -130.32701702038355 -0.0003927759912671089 -147.72947540605912 43364.996594817945
45 7042.933900555231 -17835.054780274724 -130.32908016659283 8.661223284410583e-05 178.09137623827803 -22296.523115200303 9082.684676636374 -17835.054780274724 -130.32908016659283 8.661223284410583e-05 -147.73132417820403 22291.11383548651
46 7094.762924348571 -5.07355674021127e-10 -130.32859985689305 -1.8925899441585433e-05 178.0906108591444 -6.410751234431087e-10 9134.513700429714 -5.07355674021127e-10 -130.32859985689305 -1.8925899441585433e-05 -147.7308887830883 6.245855775043903e-10
47 7042.933900556162 17835.054780274037 -130.32870528983034 4.132715009427974e-06 178.09077877394552 22296.52311519946 9082.684676637306 17835.054780274037 -130.32870528983034 4.132715009427974e-06 -147.7309844506303 -22291.113835485638
48 7256.895212124668 34680.264169766095 -130.32868226936253 -9.043106537779603e-07 178.09074211275262 43335.663829597324 9296.645988205812 34680.264169766095 -130.32868226936253 -9.043106537779603e-07 -147.7309635606537 -43364.996594817916
49 7181.1760639777485 46743.63779512523 -130.32868724710835 2.0678080798737595e-07 178.0907500392862 58490.16068691941 9220.926840058892 46743.63779512523 -130.32868724710835 2.0678080798737595e-07 -147.73096807848464 -58368.93380089366
50 -43777.56267648377 36696.32667993183 -130.32868625959955 -8.287764392611108e-08 178.0907484680592 46427.530180765614 -41737.81190040263 36696.32667993183 -130.32868625959955 -8.287764392611108e-08 -147.73096718093967 -45313.286519063964
51 -0 -530.5422849500665 2.7175497963050077e-11 -1.6697754290362354e-13 -0.0727161767736725 -178.4988901082254 0 530.5422849500987 2.7175497963050077e-11 -1.6697754290362354e-13 -0.072716176692146 -178.49889010827397
52 -130.58240458232927 -328.9153891024591 -1.0876462924747088e-11 -6.794564910705958e-14 -0.00010903102973197978 -147.94669558818882 -130.58240458232927 328.9153891024793 -1.0876462924747088e-11 -6.794564910705958e-14 -0.00010903106238979027 -147.9466955882192
53 129.04622223422774 -530.5422849500691 3.0501635939206295e-11 -2.184918912462308e-13 -0.02820106651611968 -178.0952133371893 129.04622223422774 530.5422849500961 3.0501635939206295e-11 -2.184918912462308e-13 -0.028201066424616547 -178.09521333723174
54 -130.32931245402776 -328.91538910245856 -1.0986613094982056e-11 -9.547918011776346e-14 -2.89462865891584e-05 -147.73380376398788 -130.32931245402776 328.9153891024798 -1.0986613094982056e-11 -9.547918011776346e-14 -2.8946319577419395e-05 -147.7338037640198
55 131.1673543905672 -530.5422849500943 3.189328385807058e-11 -1.9984014443252818e-13 0.0069838130884137635 -178.08814077964118 131.1673543905672 530.5422849500709 3.189328385807058e-11 -1.9984014443252818e-13 0.006983813184072299 -178.0881407796134
56 -130.32470690741542 -328.91538910246965 -9.516812251447737e-12 -9.015010959956271e-14 9.1835627413577e-06 -147.72960094535728 -130.32470690741542 328.91538910246874 -9.516812251447737e-12 -9.015010959956271e-14 9.183534198026373e-06 -147.72960094535222
57 130.13512587135878 -530.5422849500765 2.8577862298817536e-11 -1.4210854715202004e-13 -0.0015399372040574844 -178.0913480299178 130.13512587135878 530.5422849500887 2.8577862298817536e-11 -1.4210854715202004e-13 -0.0015399371183238975 -178.09134802992185
58 -130.3296734823184 -328.9153891024693 -5.210417167167414e-12 -6.461498003318411e-14 -1.996324284185211e-06 -147.73128019645287 -130.3296734823184 328.9153891024691 -5.210417167167414e-12 -6.461498003318411e-14 -1.9963399225421397e-06 -147.73128019644716
59 130.37113228133765 -530.5422849500821 1.9273779620909703e-11 -8.581050967087452e-14 0.0003364183636553027 -178.09061724088264 130.37113228133765 530.5422849500831 1.9273779620909703e-11 -8.581050967087452e-14 0.00033641842154769584 -178.09061724089113
60 -130.32847612043213 -328.91538910247687 1.690905228335371e-12 -3.294960674035781e-14 4.0980933154518423e-07 -147.7308987086786 -130.32847612043213 328.9153891024615 1.690905228335371e-12 -3.294960674035781e-14 4.098144255771513e-07 -147.73089870865016
61 130.31941897765796 -530.5422849501372 3.909390172696092e-12 8.260059303211165e-14 -7.344396998261796e-05 -178.09077737663017 130.31941897765796 530.542284950028 3.909390172696092e-12 8.260059303211165e-14 -7.344395836813428e-05 -178.09077737646646
62 -130.32873021791912 -328.9153891025118 1.0693505976544504e-11 3.530509218307998e-14 -8.362606590973237e-08 -147.73098227778706 -130.32873021791912 328.91538910242656 1.0693505976544504e-11 3.530509218307998e-14 -8.359398894451642e-08 -147.73098227766457
63 130.3307046497788 -530.5422849500949 -1.109145327665706e-11 2.5712765250318625e-13 1.6067537138889608e-05 -178.09074241734325 130.3307046497788 530.5422849500703 -1.109145327665706e-11 2.5712765250318625e-13 1.6067503892951487e-05 -178.09074241729905
64 -130.32867727610238 -328.91538910247806 1.8574338248034117e-11 1.1057821325266559e-13 1.713474265079007e-08 -147.7309640342136 -130.32867727610238 328.9153891024603 1.8574338248034117e-11 1.1057821325266559e-13 1.7190463889177332e-08 -147.73096403418336
65 130.3282658388545 -530.5422849500501 -1.6213286789523718e-11 2.886579864025407e-13 -3.67354702875914e-06 -178.09074997434266 130.3282658388545 530.5422849501151 -1.6213286789523718e-11 2.886579864025407e-13 -3.6735957254629276e-06 -178.09074997444563
66 -130.32868818294642 -328.91538910244765 2.1967090039348713e-11 1.247890679678676e-13 -3.819627054316849e-09 -147.7309679776058 -130.32868818294642 328.91538910249074 2.1967090039348713e-11 1.247890679678676e-13 -3.7537257841988025e-09 -147.73096797767224
67 130.3287484400315 -530.5422849500488 -1.4958928193364862e-11 2.1227464230832993e-13 1.4730185944385882e-06 -178.09074847867427 130.3287484400315 530.5422849501164 -1.4958928193364862e-11 2.1227464230832993e-13 1.4729736608105892e-06 -178.0907484787756
68 -130.32868614959705 -328.915389102447 2.192039084969455e-11 9.103828801926284e-14 1.6823134816636165e-09 -147.7309671975251 -130.32868614959705 328.91538910249136 2.192039084969455e-11 9.103828801926284e-14 1.748074658115828e-09 -147.73096719759155
$EndElementData
$ElementData
1
"AxialForce"
1
0
3
0
1
68
1 36696.326679929756
2 83439.96447505265
3 118120.22864481699
4 135955.28342509046
5 135955.28342509002
6 118120.22864481661
7 83439.9644750529
8 36696.32667993009
9 -36696.32667993021
10 -83439.96447505325
11 -118120.22864481725
12 -135955.2834250906
13 -135955.28342509014
14 -118120.22864481664
15 -83439.96447505287
16 -36696.32667993017
17 -42757.68728844135
18 8201.05145201739
19 8276.770600166172
20 8062.809288597666
21 8114.638312389143
22 8062.809288594872
23 8276.770600166172
24 8201.051452017855
25 -42757.68728844144
26 36696.32667993139
27 83439.96447505619
28 118120.2286448223
29 135955.283425097
30 135955.2834250977
31 118120.22864482366
32 83439.96447505744
33 36696.32667993184
34 -36696.32667993114
35 -83439.9644750558
36 -118120.22864482203
37 -135955.28342509666
38 -135955.28342509718
39 -118120.22864482318
40 -83439.964475057
41 -36696.3266799318
42 -42757.68728844269
43 8201.051452017855
44 8276.770600166172
45 8062.809288595803
46 8114.638312389143
47 8062.809288596734
48 8276.77060016524
49 8201.05145201832
50 -42757.6872884432
51 0
52 -130.58240458232927
53 129.04622223422774
54 -130.32931245402776
55 131.1673543905672
56 -130.32470690741542
57 130.13512587135878
58 -130.3296734823184
59 130.37113228133765
60 -130.32847612043213
61 130.31941897765796
62 -130.32873021791912
63 130.3307046497788
64 -130.32867727610238
65 130.3282658388545
66 -130.32868818294642
67 130.3287484400315
68 -130.32868614959705
$EndElementData
$ElementData
1
"VonMisesStress"
1
0
3
0
1
68
1 48643191.68304782
2 34825493.962248094
3 26342547.275833864
4 19700088.234555926
5 19700108.57875182
6 26342422.65938048
7 34823726.4773492
8 48642925.498352766
9 44889631.67142169
10 36506554.02097818
11 29666249.963148035
12 21435493.55650008
13 21435493.57232556
14 29666249.456177916
15 36506551.90638418
16 44889565.05019869
17 61799816.94413044
18 74005186.26366962
19 55246939.77503716
20 28952501.871923562
21 1314449.9140862576
22 28952499.72885858
23 55246938.24077726
24 74005158.68892798
25 61798619.83069701
26 48643191.6830491
27 34825493.962249815
28 26342547.27583521
29 19700088.234557208
30 19700108.578752767
31 26342422.659382667
32 34823726.477351114
33 48642925.49835477
34 44889631.67142307
35 36506554.020979665
36 29666249.96314984
37 21435493.556500863
38 21435493.572325267
39 29666249.456181154
40 36506551.906386
41 44889565.05020066
42 61799816.944132686
43 74005186.26367275
44 55246939.77504008
45 28952501.871925533
46 1314449.914086435
47 28952499.728859477
48 55246938.240780674
49 74005158.68893228
50 61798619.83069999
51 716148.4446573849
52 992559.7717913127
53 731867.2668065799
54 991594.4548224419
55 731930.3845388297
56 991574.9953041356
57 731745.6237275675
58 991583.2319919438
59 731764.0017808004
60 991581.2491863766
61 731754.8415373536
62 991581.6619688198
63 731755.7220518504
64 991581.5686484174
65 731755.2901417746
66 991581.5878751142
67 731755.3302588576
68 991581.583972842
$EndElementData
$NodeData
1
"Fixity"
1
0
3
0
3
36
1 1 1 1
2 0 0 0
3 0 0 0
4 0 0 0
5 0 0 0
6 0 0 0
7 0 0 0
8 0 0 0
9 0 0 0
10 0 0 0
11 0 0 0
12 0 0 0
13 0 0 0
14 0 0 0
15 0 0 0
16 0 0 0
17 0 1 1
18 0 0 0
19 0 1 1
20 0 0 0
21 0 0 0
22 0 0 0
23 0 0 0
24 0 0 0
25 0 0 0
26 0 0 0
27 0 0 0
28 0 0 0
29 0 0 0
30 0 0 0
31 0 0 0
32 0 0 0
33 0 0 0
34 0 0 0
35 0 1 0
36 0 0 0
$EndNodeData
$ElementData
1
"CrossSectionArea"
1
0
3
0
1
68
1 0.013136442631532283
2 0.013136442631532283
3 0.013136442631532283
4 0.013136442631532283
5 0.013136442631532283
6 0.013136442631532283
7 0.013136442631532283
8 0.013136442631532283
9 0.013136442631532283
10 0.013136442631532283
11 0.013136442631532283
12 0.013136442631532283
13 0.013136442631532283
14 0.013136442631532283
15 0.013136442631532283
16 0.013136442631532283
17 0.0105985576397669
18 0.0105985576397669
19 0.0105985576397669
20 0.0105985576397669
21 0.0105985576397669
22 0.0105985576397669
23 0.0105985576397669
24 0.0105985576397669
25 0.0105985576397669
26 0.013136442631532283
27 0.013136442631532283
28 0.013136442631532283
29 0.013136442631532283
30 0.013136442631532283
31 0.013136442631532283
32 0.013136442631532283
33 0.013136442631532283
34 0.013136442631532283
35 0.013136442631532283
36 0.013136442631532283
37 0.013136442631532283
38 0.013136442631532283
39 0.013136442631532283
40 0.013136442631532283
41 0.013136442631532283
42 0.0105985576397669
43 0.0105985576397669
44 0.0105985576397669
45 0.0105985576397669
46 0.0105985576397669
47 0.0105985576397669
48 0.0105985576397669
49 0.0105985576397669
50 0.0105985576397669
51 0.004594501652942295
52 0.002848410657883071
53 0.004594501652942295
54 0.002848410657883071
55 0.004594501652942295
56 0.002848410657883071
57 0.004594501652942295
58 0.002848410657883071
59 0.004594501652942295
60 0.002848410657883071
61 0.004594501652942295
62 0.002848410657883071
63 0.004594501652942295
64 0.002848410657883071
65 0.004594501652942295
66 0.002848410657883071
67 0.004594501652942295
68 0.002848410657883071
$EndElementData
$ElementData
1
"Attribute:ElementFormulation"
1
0
3
0
1
68
1 1
2 1
3 1
4 1
5 1
6 1
7 1
8 1
9 1
10 1
11 1
12 1
13 1
14 1
15 1
16 1
17 1
18 1
19 1
20 1
21 1
22 1
23 1
24 1
25 1
26 1
27 1
28 1
29 1
30 1
31 1
32 1
33 1
34 1
35 1
36 1
37 1
38 1
39 1
40 1
41 1
42 1
43 1
44 1
45 1
46 1
47 1
48 1
49 1
50 1
51 1
52 1
53 1
54 1
55 1
56 1
57 1
58 1
59 1
60 1
61 1
62 1
63 1
64 1
65 1
66 1
67 1
68 1
$EndElementData
$ElementData
1
"MaterialID"
1
0
3
0
1
68
1 3
2 3
3 3
4 3
5 3
6 3
7 3
8 3
9 3
10 3
11 3
12 3
13 3
14 3
15 3
16 3
17 3
18 3
19 3
20 3
21 3
22 3
23 3
24 3
25 3
26 3
27 3
28 3
29 3
30 3
31 3
32 3
33 3
34 3
35 3
36 3
37 3
38 3
39 3
40 3
41 3
42 3
43 3
44 3
45 3
46 3
47 3
48 3
49 3
50 3
51 3
52 3
53 3
54 3
55 3
56 3
57 3
58 3
59 3
60 3
61 3
62 3
63 3
64 3
65 3
66 3
67 3
68 3
$EndElementData
$ElementData
1
"Attribute:SecondMomentY"
1
0
3
0
1
68
1 6.594522068788101e-05
2 6.594522068788101e-05
3 6.594522068788101e-05
4 6.594522068788101e-05
5 6.594522068788101e-05
6 6.594522068788101e-05
7 6.594522068788101e-05
8 6.594522068788101e-05
9 6.594522068788101e-05
10 6.594522068788101e-05
11 6.594522068788101e-05
12 6.594522068788101e-05
13 6.594522068788101e-05
14 6.594522068788101e-05
15 6.594522068788101e-05
16 6.594522068788101e-05
17 3.922658661093338e-05
18 3.922658661093338e-05
19 3.922658661093338e-05
20 3.922658661093338e-05
21 3.922658661093338e-05
22 3.922658661093338e-05
23 3.922658661093338e-05
24 3.922658661093338e-05
25 3.922658661093338e-05
26 6.594522068788101e-05
27 6.594522068788101e-05
28 6.594522068788101e-05
29 6.594522068788101e-05
30 6.594522068788101e-05
31 6.594522068788101e-05
32 6.594522068788101e-05
33 6.594522068788101e-05
34 6.594522068788101e-05
35 6.594522068788101e-05
36 6.594522068788101e-05
37 6.594522068788101e-05
38 6.594522068788101e-05
39 6.594522068788101e-05
40 6.594522068788101e-05
41 6.594522068788101e-05
42 3.922658661093338e-05
43 3.922658661093338e-05
44 3.922658661093338e-05
45 3.922658661093338e-05
46 3.922658661093338e-05
47 3.922658661093338e-05
48 3.922658661093338e-05
49 3.922658661093338e-05
50 3.922658661093338e-05
51 4.198687842931851e-06
52 1.423683272853165e-06
53 4.198687842931851e-06
54 1.423683272853165e-06
55 4.198687842931851e-06
56 1.423683272853165e-06
57 4.198687842931851e-06
58 1.423683272853165e-06
59 4.198687842931851e-06
60 1.423683272853165e-06
61 4.198687842931851e-06
62 1.423683272853165e-06
63 4.198687842931851e-06
64 1.423683272853165e-06
65 4.198687842931851e-06
66 1.423683272853165e-06
67 4.198687842931851e-06
68 1.423683272853165e-06
$EndElementData
$ElementData
1
"Attribute:SecondMomentZ"
1
0
3
0
1
68
1 0.00019270273077217668
2 0.00019270273077217668
3 0.00019270273077217668
4 0.00019270273077217668
5 0.00019270273077217668
6 0.00019270273077217668
7 0.00019270273077217668
8 0.00019270273077217668
9 0.00019270273077217668
10 0.00019270273077217668
11 0.00019270273077217668
12 0.00019270273077217668
13 0.00019270273077217668
14 0.00019270273077217668
15 0.00019270273077217668
16 0.00019270273077217668
17 0.00011259304721624358
18 0.00011259304721624358
19 0.00011259304721624358
20 0.00011259304721624358
21 0.00011259304721624358
22 0.00011259304721624358
23 0.00011259304721624358
24 0.00011259304721624358
25 0.00011259304721624358
26 0.00019270273077217668
27 0.00019270273077217668
28 0.00019270273077217668
29 0.00019270273077217668
30 0.00019270273077217668
31 0.00019270273077217668
32 0.00019270273077217668
33 0.00019270273077217668
34 0.00019270273077217668
35 0.00019270273077217668
36 0.00019270273077217668
37 0.00019270273077217668
38 0.00019270273077217668
39 0.00019270273077217668
40 0.00019270273077217668
41 0.00019270273077217668
42 0.00011259304721624358
43 0.00011259304721624358
44 0.00011259304721624358
45 0.00011259304721624358
46 0.00011259304721624358
47 0.00011259304721624358
48 0.00011259304721624358
49 0.00011259304721624358
50 0.00011259304721624358
51 5.789782939631648e-05
52 1.9431682510835934e-05
53 5.789782939631648e-05
54 1.9431682510835934e-05
55 5.789782939631648e-05
56 1.9431682510835934e-05
57 5.789782939631648e-05
58 1.9431682510835934e-05
59 5.789782939631648e-05
60 1.9431682510835934e-05
61 5.789782939631648e-05
62 1.9431682510835934e-05
63 5.789782939631648e-05
64 1.9431682510835934e-05
65 5.789782939631648e-05
66 1.9431682510835934e-05
67 5.789782939631648e-05
68 1.9431682510835934e-05
$EndElementData
$ElementData
1
"Attribute:SectionDimension1"
1
0
3
0
1
68
1 0.28
2 0.28
3 0.28
4 0.28
5 0.28
6 0.28
7 0.28
8 0.28
9 0.28
10 0.28
11 0.28
12 0.28
13 0.28
14 0.28
15 0.28
16 0.28
17 0.24
18 0.24
19 0.24
20 0.24
21 0.24
22 0.24
23 0.24
24 0.24
25 0.24
26 0.28
27 0.28
28 0.28
29 0.28
30 0.28
31 0.28
32 0.28
33 0.28
34 0.28
35 0.28
36 0.28
37 0.28
38 0.28
39 0.28
40 0.28
41 0.28
42 0.24
43 0.24
44 0.24
45 0.24
46 0.24
47 0.24
48 0.24
49 0.24
50 0.24
51 0.27
52 0.2
53 0.27
54 0.2
55 0.27
56 0.2
57 0.27
58 0.2
59 0.27
60 0.2
61 0.27
62 0.2
63 0.27
64 0.2
65 0.27
66 0.2
67 0.27
68 0.2
$EndElementData
$ElementData
1
"Attribute:SectionDimension2"
1
0
3
0
1
68
1 0.28
2 0.28
3 0.28
4 0.28
5 0.28
6 0.28
7 0.28
8 0.28
9 0.28
10 0.28
11 0.28
12 0.28
13 0.28
14 0.28
15 0.28
16 0.28
17 0.24
18 0.24
19 0.24
20 0.24
21 0.24
22 0.24
23 0.24
24 0.24
25 0.24
26 0.28
27 0.28
28 0.28
29 0.28
30 0.28
31 0.28
32 0.28
33 0.28
34 0.28
35 0.28
36 0.28
37 0.28
38 0.28
39 0.28
40 0.28
41 0.28
42 0.24
43 0.24
44 0.24
45 0.24
46 0.24
47 0.24
48 0.24
49 0.24
50 0.24
51 0.135
52 0.1
53 0.135
54 0.1
55 0.135
56 0.1
57 0.135
58 0.1
59 0.135
60 0.1
61 0.135
62 0.1
63 0.135
64 0.1
65 0.135
66 0.1
67 0.135
68 0.1
$EndElementData
$ElementData
1
"Attribute:SectionDimension3"
1
0
3
0
1
68
1 0.0105
2 0.0105
3 0.0105
4 0.0105
5 0.0105
6 0.0105
7 0.0105
8 0.0105
9 0.0105
10 0.0105
11 0.0105
12 0.0105
13 0.0105
14 0.0105
15 0.0105
16 0.0105
17 0.01
18 0.01
19 0.01
20 0.01
21 0.01
22 0.01
23 0.01
24 0.01
25 0.01
26 0.0105
27 0.0105
28 0.0105
29 0.0105
30 0.0105
31 0.0105
32 0.0105
33 0.0105
34 0.0105
35 0.0105
36 0.0105
37 0.0105
38 0.0105
39 0.0105
40 0.0105
41 0.0105
42 0.01
43 0.01
44 0.01
45 0.01
46 0.01
47 0.01
48 0.01
49 0.01
50 0.01
51 0.0066
52 0.0056
53 0.0066
54 0.0056
55 0.0066
56 0.0056
57 0.0066
58 0.0056
59 0.0066
60 0.0056
61 0.0066
62 0.0056
63 0.0066
64 0.0056
65 0.0066
66 0.0056
67 0.0066
68 0.0056
$EndElementData
$ElementData
1
"Attribute:SectionDimension4"
1
0
3
0
1
68
1 0.018
2 0.018
3 0.018
4 0.018
5 0.018
6 0.018
7 0.018
8 0.018
9 0.018
10 0.018
11 0.018
12 0.018
13 0.018
14 0.018
15 0.018
16 0.018
17 0.017
18 0.017
19 0.017
20 0.017
21 0.017
22 0.017
23 0.017
24 0.017
25 0.017
26 0.018
27 0.018
28 0.018
29 0.018
30 0.018
31 0.018
32 0.018
33 0.018
34 0.018
35 0.018
36 0.018
37 0.018
38 0.018
39 0.018
40 0.018
41 0.018
42 0.017
43 0.017
44 0.017
45 0.017
46 0.017
47 0.017
48 0.017
49 0.017
50 0.017
51 0.0102
52 0.0085
53 0.0102
54 0.0085
55 0.0102
56 0.0085
57 0.0102
58 0.0085
59 0.0102
60 0.0085
61 0.0102
62 0.0085
63 0.0102
64 0.0085
65 0.0102
66 0.0085
67 0.0102
68 0.0085
$EndElementData
$ElementData
1
"Attribute:SectionDimension5"
1
0
3
0
1
68
1 0.024
2 0.024
3 0.024
4 0.024
5 0.024
6 0.024
7 0.024
8 0.024
9 0.024
10 0.024
11 0.024
12 0.024
13 0.024
14 0.024
15 0.024
16 0.024
17 0.021
18 0.021
19 0.021
20 0.021
21 0.021
22 0.021
23 0.021
24 0.021
25 0.021
26 0.024
27 0.024
28 0.024
29 0.024
30 0.024
31 0.024
32 0.024
33 0.024
34 0.024
35 0.024
36 0.024
37 0.024
38 0.024
39 0.024
40 0.024
41 0.024
42 0.021
43 0.021
44 0.021
45 0.021
46 0.021
47 0.021
48 0.021
49 0.021
50 0.021
51 0.015
52 0.012
53 0.015
54 0.012
55 0.015
56 0.012
57 0.015
58 0.012
59 0.015
60 0.012
61 0.015
62 0.012
63 0.015
64 0.012
65 0.015
66 0.012
67 0.015
68 0.012
$EndElementData
$ElementData
1
"Attribute:SectionShape"
1
0
3
0
1
68
1 5
2 5
3 5
4 5
5 5
6 5
7 5
8 5
9 5
10 5
11 5
12 5
13 5
14 5
15 5
16 5
17 5
18 5
19 5
20 5
21 5
22 5
23 5
24 5
25 5
26 5
27 5
28 5
29 5
30 5
31 5
32 5
33 5
34 5
35 5
36 5
37 5
38 5
39 5
40 5
41 5
42 5
43 5
44 5
45 5
46 5
47 5
48 5
49 5
50 5
51 5
52 5
53 5
54 5
55 5
56 5
57 5
58 5
59 5
60 5
61 5
62 5
63 5
64 5
65 5
66 5
67 5
68 5
$EndElementData
$ElementData
1
"Attribute:ShearAreaY"
1
0
3
0
1
68
1 0.0025831742607177973
2 0.0025831742607177973
3 0.0025831742607177973
4 0.0025831742607177973
5 0.0025831742607177973
6 0.0025831742607177973
7 0.0025831742607177973
8 0.0025831742607177973
9 0.0025831742607177973
10 0.0025831742607177973
11 0.0025831742607177973
12 0.0025831742607177973
13 0.0025831742607177973
14 0.0025831742607177973
15 0.0025831742607177973
16 0.0025831742607177973
17 0.00208351189797852
18 0.00208351189797852
19 0.00208351189797852
20 0.00208351189797852
21 0.00208351189797852
22 0.00208351189797852
23 0.00208351189797852
24 0.00208351189797852
25 0.00208351189797852
26 0.0025831742607177973
27 0.0025831742607177973
28 0.0025831742607177973
29 0.0025831742607177973
30 0.0025831742607177973
31 0.0025831742607177973
32 0.0025831742607177973
33 0.0025831742607177973
34 0.0025831742607177973
35 0.0025831742607177973
36 0.0025831742607177973
37 0.0025831742607177973
38 0.0025831742607177973
39 0.0025831742607177973
40 0.0025831742607177973
41 0.0025831742607177973
42 0.00208351189797852
43 0.00208351189797852
44 0.00208351189797852
45 0.00208351189797852
46 0.00208351189797852
47 0.00208351189797852
48 0.00208351189797852
49 0.00208351189797852
50 0.00208351189797852
51 0.0017028436026690532
52 0.0010633841173523775
53 0.0017028436026690532
54 0.0010633841173523775
55 0.0017028436026690532
56 0.0010633841173523775
57 0.0017028436026690532
58 0.0010633841173523775
59 0.0017028436026690532
60 0.0010633841173523775
61 0.0017028436026690532
62 0.0010633841173523775
63 0.0017028436026690532
64 0.0010633841173523775
65 0.0017028436026690532
66 0.0010633841173523775
67 0.0017028436026690532
68 0.0010633841173523775
$EndElementData
$ElementData
1
"Attribute:ShearAreaZ"
1
0
3
0
1
68
1 0.008564705882352941
2 0.008564705882352941
3 0.008564705882352941
4 0.008564705882352941
5 0.008564705882352941
6 0.008564705882352941
7 0.008564705882352941
8 0.008564705882352941
9 0.008564705882352941
10 0.008564705882352941
11 0.008564705882352941
12 0.008564705882352941
13 0.008564705882352941
14 0.008564705882352941
15 0.008564705882352941
16 0.008564705882352941
17 0.006933333333333334
18 0.006933333333333334
19 0.006933333333333334
20 0.006933333333333334
21 0.006933333333333334
22 0.006933333333333334
23 0.006933333333333334
24 0.006933333333333334
25 0.006933333333333334
26 0.008564705882352941
27 0.008564705882352941
28 0.008564705882352941
29 0.008564705882352941
30 0.008564705882352941
31 0.008564705882352941
32 0.008564705882352941
33 0.008564705882352941
34 0.008564705882352941
35 0.008564705882352941
36 0.008564705882352941
37 0.008564705882352941
38 0.008564705882352941
39 0.008564705882352941
40 0.008564705882352941
41 0.008564705882352941
42 0.006933333333333334
43 0.006933333333333334
44 0.006933333333333334
45 0.006933333333333334
46 0.006933333333333334
47 0.006933333333333334
48 0.006933333333333334
49 0.006933333333333334
50 0.006933333333333334
51 0.0023400000000000005
52 0.0014444444444444446
53 0.0023400000000000005
54 0.0014444444444444446
55 0.0023400000000000005
56 0.0014444444444444446
57 0.0023400000000000005
58 0.0014444444444444446
59 0.0023400000000000005
60 0.0014444444444444446
61 0.0023400000000000005
62 0.0014444444444444446
63 0.0023400000000000005
64 0.0014444444444444446
65 0.0023400000000000005
66 0.0014444444444444446
67 0.0023400000000000005
68 0.0014444444444444446
$EndElementData
$ElementData
1
"Attribute:TorsionConstant"
1
0
3
0
1
68
1 1.4371648391180264e-06
2 1.4371648391180264e-06
3 1.4371648391180264e-06
4 1.4371648391180264e-06
5 1.4371648391180264e-06
6 1.4371648391180264e-06
7 1.4371648391180264e-06
8 1.4371648391180264e-06
9 1.4371648391180264e-06
10 1.4371648391180264e-06
11 1.4371648391180264e-06
12 1.4371648391180264e-06
13 1.4371648391180264e-06
14 1.4371648391180264e-06
15 1.4371648391180264e-06
16 1.4371648391180264e-06
17 1.0268573134682905e-06
18 1.0268573134682905e-06
19 1.0268573134682905e-06
20 1.0268573134682905e-06
21 1.0268573134682905e-06
22 1.0268573134682905e-06
23 1.0268573134682905e-06
24 1.0268573134682905e-06
25 1.0268573134682905e-06
26 1.4371648391180264e-06
27 1.4371648391180264e-06
28 1.4371648391180264e-06
29 1.4371648391180264e-06
30 1.4371648391180264e-06
31 1.4371648391180264e-06
32 1.4371648391180264e-06
33 1.4371648391180264e-06
34 1.4371648391180264e-06
35 1.4371648391180264e-06
36 1.4371648391180264e-06
37 1.4371648391180264e-06
38 1.4371648391180264e-06
39 1.4371648391180264e-06
40 1.4371648391180264e-06
41 1.4371648391180264e-06
42 1.0268573134682905e-06
43 1.0268573134682905e-06
44 1.0268573134682905e-06
45 1.0268573134682905e-06
46 1.0268573134682905e-06
47 1.0268573134682905e-06
48 1.0268573134682905e-06
49 1.0268573134682905e-06
50 1.0268573134682905e-06
51 1.5944797522382753e-07
52 6.980120130097939e-08
53 1.5944797522382753e-07
54 6.980120130097939e-08
55 1.5944797522382753e-07
56 6.980120130097939e-08
57 1.5944797522382753e-07
58 6.980120130097939e-08
59 1.5944797522382753e-07
60 6.980120130097939e-08
61 1.5944797522382753e-07
62 6.980120130097939e-08
63 1.5944797522382753e-07
64 6.980120130097939e-08
65 1.5944797522382753e-07
66 6.980120130097939e-08
67 1.5944797522382753e-07
68 6.980120130097939e-08
$EndElementData
$ElementData
1
"Attribute:UniformLoadGlobalX"
1
0
3
0
1
68
1 0
2 0
3 0
4 0
5 0
6 0
7 0
8 0
9 0
10 0
11 0
12 0
13 0
14 0
15 0
16 0
17 0
18 0
19 0
20 0
21 0
22 0
23 0
24 0
25 0
26 0
27 0
28 0
29 0
30 0
31 0
32 0
33 0
34 0
35 0
36 0
37 0
38 0
39 0
40 0
41 0
42 0
43 0
44 0
45 0
46 0
47 0
48 0
49 0
50 0
51 0
52 0
53 0
54 0
55 0
56 0
57 0
58 0
59 0
60 0
61 0
62 0
63 0
64 0
65 0
66 0
67 0
68 0
$EndElementData
$ElementData
1
"Attribute:UniformLoadGlobalY"
1
0
3
0
1
68
1 -8000
2 -8000
3 -8000
4 -8000
5 -8000
6 -8000
7 -8000
8 -8000
9 0
10 0
11 0
12 0
13 0
14 0
15 0
16 0
17 0
18 0
19 0
20 0
21 0
22 0
23 0
24 0
25 0
26 -8000
27 -8000
28 -8000
29 -8000
30 -8000
31 -8000
32 -8000
33 -8000
34 0
35 0
36 0
37 0
38 0
39 0
40 0
41 0
42 0
43 0
44 0
45 0
46 0
47 0
48 0
49 0
50 0
51 0
52 0
53 0
54 0
55 0
56 0
57 0
58 0
59 0
60 0
61 0
62 0
63 0
64 0
65 0
66 0
67 0
68 0
$EndElementData
$ElementData
1
"Attribute:UniformLoadGlobalZ"
1
0
3
0
1
68
1 0
2 0
3 0
4 0
5 0
6 0
7 0
8 0
9 0
10 0
11 0
12 0
13 0
14 0
15 0
16 0
17 0
18 0
19 0
20 0
21 0
22 0
23 0
24 0
25 0
26 0
27 0
28 0
29 0
30 0
31 0
32 0
33 0
34 0
35 0
36 0
37 0
38 0
39 0
40 0
41 0
42 0
43 0
44 0
45 0
46 0
47 0
48 0
49 0
50 0
51 0
52 0
53 0
54 0
55 0
56 0
57 0
58 0
59 0
60 0
61 0
62 0
63 0
64 0
65 0
66 0
67 0
68 0
$EndElementData
$ElementData
1
"Attribute:UniformLoadLocalX"
1
0
3
0
1
68
1 0
2 0
3 0
4 0
5 0
6 0
7 0
8 0
9 0
10 0
11 0
12 0
13 0
14 0
15 0
16 0
17 0
18 0
19 0
20 0
21 0
22 0
23 0
24 0
25 0
26 0
27 0
28 0
29 0
30 0
31 0
32 0
33 0
34 0
35 0
36 0
37 0
38 0
39 0
40 0
41 0
42 0
43 0
44 0
45 0
46 0
47 0
48 0
49 0
50 0
51 0
52 0
53 0
54 0
55 0
56 0
57 0
58 0
59 0
60 0
61 0
62 0
63 0
64 0
65 0
66 0
67 0
68 0
$EndElementData
$ElementData
1
"Attribute:UniformLoadLocalY"
1
0
3
0
1
68
1 0
2 0
3 0
4 0
5 0
6 0
7 0
8 0
9 0
10 0
11 0
12 0
13 0
14 0
15 0
16 0
17 0
18 0
19 0
20 0
21 0
22 0
23 0
24 0
25 0
26 0
27 0
28 0
29 0
30 0
31 0
32 0
33 0
34 0
35 0
36 0
37 0
38 0
39 0
40 0
41 0
42 0
43 0
44 0
45 0
46 0
47 0
48 0
49 0
50 0
51 0
52 0
53 0
54 0
55 0
56 0
57 0
58 0
59 0
60 0
61 0
62 0
63 0
64 0
65 0
66 0
67 0
68 0
$EndElementData
$ElementData
1
"Attribute:UniformLoadLocalZ"
1
0
3
0
1
68
1 0
2 0
3 0
4 0
5 0
6 0
7 0
8 0
9 0
10 0
11 0
12 0
13 0
14 0
15 0
16 0
17 0
18 0
19 0
20 0
21 0
22 0
23 0
24 0
25 0
26 0
27 0
28 0
29 0
30 0
31 0
32 0
33 0
34 0
35 0
36 0
37 0
38 0
39 0
40 0
41 0
42 0
43 0
44 0
45 0
46 0
47 0
48 0
49 0
50 0
51 0
52 0
53 0
54 0
55 0
56 0
57 0
58 0
59 0
60 0
61 0
62 0
63 0
64 0
65 0
66 0
67 0
68 0
$EndElementData
$ElementData
1
"BeamOrientation"
1
0
3
0
3
68
1 0 0 0
2 0 0 0
3 0 0 0
4 0 0 0
5 0 0 0
6 0 0 0
7 0 0 0
8 0 0 0
9 0 0 0
10 0 0 0
11 0 0 0
12 0 0 0
13 0 0 0
14 0 0 0
15 0 0 0
16 0 0 0
17 1 0 0
18 1 0 0
19 1 0 0
20 1 0 0
21 1 0 0
22 1 0 0
23 1 0 0
24 1 0 0
25 1 0 0
26 0 0 0
27 0 0 0
28 0 0 0
29 0 0 0
30 0 0 0
31 0 0 0
32 0 0 0
33 0 0 0
34 0 0 0
35 0 0 0
36 0 0 0
37 0 0 0
38 0 0 0
39 0 0 0
40 0 0 0
41 0 0 0
42 1 0 0
43 1 0 0
44 1 0 0
45 1 0 0
46 1 0 0
47 1 0 0
48 1 0 0
49 1 0 0
50 1 0 0
51 0 0 0
52 0 0 0
53 0 0 0
54 0 0 0
55 0 0 0
56 0 0 0
57 0 0 0
58 0 0 0
59 0 0 0
60 0 0 0
61 0 0 0
62 0 0 0
63 0 0 0
64 0 0 0
65 0 0 0
66 0 0 0
67 0 0 0
68 0 0 0
$EndElementData
$AnafData
1
1
GLOBAL 3 1
"Gravity"
0 -9.80665 0
$EndAnafData
