$MeshFormat
4.1 0 8
$EndMeshFormat
$PhysicalNames
3
1 1 "Material:Structural Steel S355 (EN 10025)"
1 2 "Section:IPE 200"
1 3 "Section:IPE 600"
$EndPhysicalNames
$Entities
0 2 0 0
1 0 0 0 18 0 2.5 2 1 3 0
2 0 0 0 18 0 2.5 2 1 2 0
$EndEntities
$Nodes
1 20 1 20
1 1 0 20
1
2
3
4
5
6
7
8
9
10
11
12
13
14
15
16
17
18
19
20
0 0 0
2 0 0
4 0 0
6 0 0
8 0 0
10 0 0
12 0 0
14 0 0
16 0 0
18 0 0
0 0 2.5
2 0 2.5
4 0 2.5
6 0 2.5
8 0 2.5
10 0 2.5
12 0 2.5
14 0 2.5
16 0 2.5
18 0 2.5
$EndNodes
$Elements
2 28 1 28
1 1 1 18
1 1 2
2 2 3
3 3 4
4 4 5
5 5 6
6 6 7
7 7 8
8 8 9
9 9 10
10 11 12
11 12 13
12 13 14
13 14 15
14 15 16
15 16 17
16 17 18
17 18 19
18 19 20
1 2 1 10
19 1 11
20 2 12
21 3 13
22 4 14
23 5 15
24 6 16
25 7 17
26 8 18
27 9 19
28 10 20
$EndElements
$NodeData
1
"Fixity"
1
0
3
0
3
20
1 1 1 1
2 0 0 0
3 0 0 0
4 0 0 0
5 0 0 0
6 0 0 0
7 0 0 0
8 0 0 0
9 0 0 0
10 0 1 1
11 0 1 0
12 0 0 0
13 0 0 0
14 0 0 0
15 0 0 0
16 0 0 0
17 0 0 0
18 0 0 0
19 0 0 0
20 0 1 0
$EndNodeData
$NodeData
1
"FixityRotation"
1
0
3
0
3
20
1 1 0 0
2 0 0 0
3 0 0 0
4 0 0 0
5 0 0 0
6 0 0 0
7 0 0 0
8 0 0 0
9 0 0 0
10 1 0 0
11 1 0 0
12 0 0 0
13 0 0 0
14 0 0 0
15 0 0 0
16 0 0 0
17 0 0 0
18 0 0 0
19 0 0 0
20 1 0 0
$EndNodeData
$ElementData
1
"CrossSectionArea"
1
0
3
0
1
28
1 0.015598442631532282
2 0.015598442631532282
3 0.015598442631532282
4 0.015598442631532282
5 0.015598442631532282
6 0.015598442631532282
7 0.015598442631532282
8 0.015598442631532282
9 0.015598442631532282
10 0.015598442631532282
11 0.015598442631532282
12 0.015598442631532282
13 0.015598442631532282
14 0.015598442631532282
15 0.015598442631532282
16 0.015598442631532282
17 0.015598442631532282
18 0.015598442631532282
19 0.002848410657883071
20 0.002848410657883071
21 0.002848410657883071
22 0.002848410657883071
23 0.002848410657883071
24 0.002848410657883071
25 0.002848410657883071
26 0.002848410657883071
27 0.002848410657883071
28 0.002848410657883071
$EndElementData
$ElementData
1
"Attribute:ElementFormulation"
1
0
3
0
1
28
1 1
2 1
3 1
4 1
5 1
6 1
7 1
8 1
9 1
10 1
11 1
12 1
13 1
14 1
15 1
16 1
17 1
18 1
19 1
20 1
21 1
22 1
23 1
24 1
25 1
26 1
27 1
28 1
$EndElementData
$ElementData
1
"MaterialID"
1
0
3
0
1
28
1 3
2 3
3 3
4 3
5 3
6 3
7 3
8 3
9 3
10 3
11 3
12 3
13 3
14 3
15 3
16 3
17 3
18 3
19 3
20 3
21 3
22 3
23 3
24 3
25 3
26 3
27 3
28 3
$EndElementData
$ElementData
1
"Attribute:SecondMomentY"
1
0
3
0
1
28
1 3.387342477398636e-05
2 3.387342477398636e-05
3 3.387342477398636e-05
4 3.387342477398636e-05
5 3.387342477398636e-05
6 3.387342477398636e-05
7 3.387342477398636e-05
8 3.387342477398636e-05
9 3.387342477398636e-05
10 3.387342477398636e-05
11 3.387342477398636e-05
12 3.387342477398636e-05
13 3.387342477398636e-05
14 3.387342477398636e-05
15 3.387342477398636e-05
16 3.387342477398636e-05
17 3.387342477398636e-05
18 3.387342477398636e-05
19 1.423683272853165e-06
20 1.423683272853165e-06
21 1.423683272853165e-06
22 1.423683272853165e-06
23 1.423683272853165e-06
24 1.423683272853165e-06
25 1.423683272853165e-06
26 1.423683272853165e-06
27 1.423683272853165e-06
28 1.423683272853165e-06
$EndElementData
$ElementData
1
"Attribute:SecondMomentZ"
1
0
3
0
1
28
1 0.0009208345717756826
2 0.0009208345717756826
3 0.0009208345717756826
4 0.0009208345717756826
5 0.0009208345717756826
6 0.0009208345717756826
7 0.0009208345717756826
8 0.0009208345717756826
9 0.0009208345717756826
10 0.0009208345717756826
11 0.0009208345717756826
12 0.0009208345717756826
13 0.0009208345717756826
14 0.0009208345717756826
15 0.0009208345717756826
16 0.0009208345717756826
17 0.0009208345717756826
18 0.0009208345717756826
19 1.9431682510835934e-05
20 1.9431682510835934e-05
21 1.9431682510835934e-05
22 1.9431682510835934e-05
23 1.9431682510835934e-05
24 1.9431682510835934e-05
25 1.9431682510835934e-05
26 1.9431682510835934e-05
27 1.9431682510835934e-05
28 1.9431682510835934e-05
$EndElementData
$ElementData
1
"Attribute:SectionDimension1"
1
0
3
0
1
28
1 0.6
2 0.6
3 0.6
4 0.6
5 0.6
6 0.6
7 0.6
8 0.6
9 0.6
10 0.6
11 0.6
12 0.6
13 0.6
14 0.6
15 0.6
16 0.6
17 0.6
18 0.6
19 0.2
20 0.2
21 0.2
22 0.2
23 0.2
24 0.2
25 0.2
26 0.2
27 0.2
28 0.2
$EndElementData
$ElementData
1
"Attribute:SectionDimension2"
1
0
3
0
1
28
1 0.22
2 0.22
3 0.22
4 0.22
5 0.22
6 0.22
7 0.22
8 0.22
9 0.22
10 0.22
11 0.22
12 0.22
13 0.22
14 0.22
15 0.22
16 0.22
17 0.22
18 0.22
19 0.1
20 0.1
21 0.1
22 0.1
23 0.1
24 0.1
25 0.1
26 0.1
27 0.1
28 0.1
$EndElementData
$ElementData
1
"Attribute:SectionDimension3"
1
0
3
0
1
28
1 0.012
2 0.012
3 0.012
4 0.012
5 0.012
6 0.012
7 0.012
8 0.012
9 0.012
10 0.012
11 0.012
12 0.012
13 0.012
14 0.012
15 0.012
16 0.012
17 0.012
18 0.012
19 0.0056
20 0.0056
21 0.0056
22 0.0056
23 0.0056
24 0.0056
25 0.0056
26 0.0056
27 0.0056
28 0.0056
$EndElementData
$ElementData
1
"Attribute:SectionDimension4"
1
0
3
0
1
28
1 0.019
2 0.019
3 0.019
4 0.019
5 0.019
6 0.019
7 0.019
8 0.019
9 0.019
10 0.019
11 0.019
12 0.019
13 0.019
14 0.019
15 0.019
16 0.019
17 0.019
18 0.019
19 0.0085
20 0.0085
21 0.0085
22 0.0085
23 0.0085
24 0.0085
25 0.0085
26 0.0085
27 0.0085
28 0.0085
$EndElementData
$ElementData
1
"Attribute:SectionDimension5"
1
0
3
0
1
28
1 0.024
2 0.024
3 0.024
4 0.024
5 0.024
6 0.024
7 0.024
8 0.024
9 0.024
10 0.024
11 0.024
12 0.024
13 0.024
14 0.024
15 0.024
16 0.024
17 0.024
18 0.024
19 0.012
20 0.012
21 0.012
22 0.012
23 0.012
24 0.012
25 0.012
26 0.012
27 0.012
28 0.012
$EndElementData
$ElementData
1
"Attribute:SectionShape"
1
0
3
0
1
28
1 5
2 5
3 5
4 5
5 5
6 5
7 5
8 5
9 5
10 5
11 5
12 5
13 5
14 5
15 5
16 5
17 5
18 5
19 5
20 5
21 5
22 5
23 5
24 5
25 5
26 5
27 5
28 5
$EndElementData
$ElementData
1
"Attribute:ShearAreaY"
1
0
3
0
1
28
1 0.006944008675475138
2 0.006944008675475138
3 0.006944008675475138
4 0.006944008675475138
5 0.006944008675475138
6 0.006944008675475138
7 0.006944008675475138
8 0.006944008675475138
9 0.006944008675475138
10 0.006944008675475138
11 0.006944008675475138
12 0.006944008675475138
13 0.006944008675475138
14 0.006944008675475138
15 0.006944008675475138
16 0.006944008675475138
17 0.006944008675475138
18 0.006944008675475138
19 0.0010633841173523775
20 0.0010633841173523775
21 0.0010633841173523775
22 0.0010633841173523775
23 0.0010633841173523775
24 0.0010633841173523775
25 0.0010633841173523775
26 0.0010633841173523775
27 0.0010633841173523775
28 0.0010633841173523775
$EndElementData
$ElementData
1
"Attribute:ShearAreaZ"
1
0
3
0
1
28
1 0.007103267973856209
2 0.007103267973856209
3 0.007103267973856209
4 0.007103267973856209
5 0.007103267973856209
6 0.007103267973856209
7 0.007103267973856209
8 0.007103267973856209
9 0.007103267973856209
10 0.007103267973856209
11 0.007103267973856209
12 0.007103267973856209
13 0.007103267973856209
14 0.007103267973856209
15 0.007103267973856209
16 0.007103267973856209
17 0.007103267973856209
18 0.007103267973856209
19 0.0014444444444444446
20 0.0014444444444444446
21 0.0014444444444444446
22 0.0014444444444444446
23 0.0014444444444444446
24 0.0014444444444444446
25 0.0014444444444444446
26 0.0014444444444444446
27 0.0014444444444444446
28 0.0014444444444444446
$EndElementData
$ElementData
1
"Attribute:TorsionConstant"
1
0
3
0
1
28
1 1.6541674049379728e-06
2 1.6541674049379728e-06
3 1.6541674049379728e-06
4 1.6541674049379728e-06
5 1.6541674049379728e-06
6 1.6541674049379728e-06
7 1.6541674049379728e-06
8 1.6541674049379728e-06
9 1.6541674049379728e-06
10 1.6541674049379728e-06
11 1.6541674049379728e-06
12 1.6541674049379728e-06
13 1.6541674049379728e-06
14 1.6541674049379728e-06
15 1.6541674049379728e-06
16 1.6541674049379728e-06
17 1.6541674049379728e-06
18 1.6541674049379728e-06
19 6.980120130097939e-08
20 6.980120130097939e-08
21 6.980120130097939e-08
22 6.980120130097939e-08
23 6.980120130097939e-08
24 6.980120130097939e-08
25 6.980120130097939e-08
26 6.980120130097939e-08
27 6.980120130097939e-08
28 6.980120130097939e-08
$EndElementData
$ElementData
1
"Attribute:UniformLoadGlobalX"
1
0
3
0
1
28
1 0
2 0
3 0
4 0
5 0
6 0
7 0
8 0
9 0
10 0
11 0
12 0
13 0
14 0
15 0
16 0
17 0
18 0
19 0
20 0
21 0
22 0
23 0
24 0
25 0
26 0
27 0
28 0
$EndElementData
$ElementData
1
"Attribute:UniformLoadGlobalY"
1
0
3
0
1
28
1 -8000
2 -8000
3 -8000
4 -8000
5 -8000
6 -8000
7 -8000
8 -8000
9 -8000
10 -8000
11 -8000
12 -8000
13 -8000
14 -8000
15 -8000
16 -8000
17 -8000
18 -8000
19 0
20 0
21 0
22 0
23 0
24 0
25 0
26 0
27 0
28 0
$EndElementData
$ElementData
1
"Attribute:UniformLoadGlobalZ"
1
0
3
0
1
28
1 0
2 0
3 0
4 0
5 0
6 0
7 0
8 0
9 0
10 0
11 0
12 0
13 0
14 0
15 0
16 0
17 0
18 0
19 0
20 0
21 0
22 0
23 0
24 0
25 0
26 0
27 0
28 0
$EndElementData
$ElementData
1
"Attribute:UniformLoadLocalX"
1
0
3
0
1
28
1 0
2 0
3 0
4 0
5 0
6 0
7 0
8 0
9 0
10 0
11 0
12 0
13 0
14 0
15 0
16 0
17 0
18 0
19 0
20 0
21 0
22 0
23 0
24 0
25 0
26 0
27 0
28 0
$EndElementData
$ElementData
1
"Attribute:UniformLoadLocalY"
1
0
3
0
1
28
1 0
2 0
3 0
4 0
5 0
6 0
7 0
8 0
9 0
10 0
11 0
12 0
13 0
14 0
15 0
16 0
17 0
18 0
19 0
20 0
21 0
22 0
23 0
24 0
25 0
26 0
27 0
28 0
$EndElementData
$ElementData
1
"Attribute:UniformLoadLocalZ"
1
0
3
0
1
28
1 0
2 0
3 0
4 0
5 0
6 0
7 0
8 0
9 0
10 0
11 0
12 0
13 0
14 0
15 0
16 0
17 0
18 0
19 0
20 0
21 0
22 0
23 0
24 0
25 0
26 0
27 0
28 0
$EndElementData
$ElementData
1
"BeamOrientation"
1
0
3
0
3
28
1 0 0 0
2 0 0 0
3 0 0 0
4 0 0 0
5 0 0 0
6 0 0 0
7 0 0 0
8 0 0 0
9 0 0 0
10 0 0 0
11 0 0 0
12 0 0 0
13 0 0 0
14 0 0 0
15 0 0 0
16 0 0 0
17 0 0 0
18 0 0 0
19 0 0 0
20 0 0 0
21 0 0 0
22 0 0 0
23 0 0 0
24 0 0 0
25 0 0 0
26 0 0 0
27 0 0 0
28 0 0 0
$EndElementData
$AnafData
1
1
GLOBAL 3 1
"Gravity"
0 -9.80665 0
$EndAnafData
