$MeshFormat
4.1 0 8
$EndMeshFormat
$PhysicalNames
3
1 1 "Material:Structural Steel S355 (EN 10025)"
1 2 "Section:IPE 200"
1 3 "Section:IPE 600"
$EndPhysicalNames
$Entities
0 2 0 0
1 0 0 0 18 0 2.5 2 1 3 0
2 0 0 0 18 0 2.5 2 1 2 0
$EndEntities
$Nodes
1 20 1 20
1 1 0 20
1
2
3
4
5
6
7
8
9
10
11
12
13
14
15
16
17
18
19
20
0 0 0
2 0 0
4 0 0
6 0 0
8 0 0
10 0 0
12 0 0
14 0 0
16 0 0
18 0 0
0 0 2.5
2 0 2.5
4 0 2.5
6 0 2.5
8 0 2.5
10 0 2.5
12 0 2.5
14 0 2.5
16 0 2.5
18 0 2.5
$EndNodes
$Elements
2 28 1 28
1 1 1 18
1 1 2
2 2 3
3 3 4
4 4 5
5 5 6
6 6 7
7 7 8
8 8 9
9 9 10
10 11 12
11 12 13
12 13 14
13 14 15
14 15 16
15 16 17
16 17 18
17 18 19
18 19 20
1 2 1 10
19 1 11
20 2 12
21 3 13
22 4 14
23 5 15
24 6 16
25 7 17
26 8 18
27 9 19
28 10 20
$EndElements
$NodeData
1
"Displacement"
1
0
3
0
3
20
1 0 0 0
2 0 -0.02291728253530816 0
3 0 -0.04280941471430357 0
4 0 -0.057358536299116844 0
5 0 -0.06501940713116838 0
6 0 -0.06501940713116838 0
7 0 -0.05735853629911685 0
8 0 -0.0428094147143036 0
9 0 -0.02291728253530818 0
10 0 0 0
11 0 0 0
12 0 -0.022917282535308912 0
13 0 -0.04280941471430495 0
14 0 -0.05735853629911862 0
15 0 -0.06501940713117034 0
16 0 -0.06501940713117033 0
17 0 -0.05735853629911855 0
18 0 -0.042809414714304814 0
19 0 -0.0229172825353088 0
20 0 0 0
$EndNodeData
$NodeData
1
"Rotation"
1
0
3
0
3
20
1 0 0 -0.011732041307176136
2 3.4295942422593295e-05 0 -0.010927701201702087
3 3.4970665127334e-05 0 -0.008771275957470875
4 3.498393931178316e-05 0 -0.005649075614127428
5 3.498420036105219e-05 0 -0.0019474102113166216
6 3.498420036103729e-05 0 0.0019474102113166258
7 3.4983939311740524e-05 0 0.005649075614127415
8 3.497066512727286e-05 0 0.00877127595747087
9 3.429594242254658e-05 0 0.010927701201702094
10 0 0 0.01173204130717615
11 0 0 -0.011732041307176528
12 -3.4295942421992946e-05 0 -0.01092770120170244
13 -3.4970665126230736e-05 0 -0.008771275957471134
14 -3.4983939310369523e-05 0 -0.00564907561412757
15 -3.498420035949093e-05 0 -0.001947410211316674
16 -3.4984200359490564e-05 0 0.0019474102113166854
17 -3.498393931038695e-05 0 0.005649075614127611
18 -3.4970665126294935e-05 0 0.008771275957471155
19 -3.429594242205071e-05 0 0.010927701201702392
20 0 0 0.011732041307176465
$EndNodeData
$ElementData
1
"BeamSectionForce"
1
0
3
0
12
28
1 -0 -83903.60685444853 -0 2.2919416951141645 -0 -3.0240698833949864e-10 0 -65502.00191575803 0 2.2919416951141645 0 149405.60877020675
2 -0 -65227.90575817132 -0 0.04509061394436786 -0 149405.60877020768 0 -46826.30081948081 0 0.04509061394436786 0 261459.81534785888
3 -0 -46552.20466189643 -0 0.0008870920190147125 -0 261459.81534785865 0 -28150.599723205924 0 0.0008870920190147125 0 336162.61973296077
4 -0 -27876.503565621773 -0 1.744549535320772e-05 -0 336162.61973295984 0 -9474.898626931268 0 1.744549535320772e-05 0 373514.0219255129
5 -0 -9200.80246934758 -0 -9.960920976936904e-13 -0 373514.0219255116 0 9200.802469342923 0 -9.960920976936904e-13 0 373514.02192551264
6 -0 9474.898626930104 -0 -1.744549720639199e-05 -0 373514.0219255129 0 27876.50356562061 0 -1.744549720639199e-05 0 336162.61973295844
7 -0 28150.59972320639 -0 -0.0008870920202515009 -0 336162.61973296147 0 46552.204661896896 0 -0.0008870920202515009 0 261459.81534786028
8 -0 46826.300819482676 -0 -0.045090613943403746 -0 261459.81534786167 0 65227.90575817318 0 -0.045090613943403746 0 149405.6087702058
9 -0 65502.001915757566 -0 -2.2919416951110425 -0 149405.60877020628 0 83903.60685444807 0 -2.2919416951110425 0 1.0945768735837191e-09
10 -0 -83903.60685445086 -0 -2.291941695074044 -0 2.0258994481991976e-09 0 -65502.00191576036 0 -2.291941695074044 0 149405.6087702114
11 -0 -65227.90575817644 -0 -0.04509061391075919 -0 149405.60877021094 0 -46826.300819485936 0 -0.04509061391075919 0 261459.81534787285
12 -0 -46552.2046618962 -0 -0.0008870919982726377 -0 261459.81534787122 0 -28150.59972320569 0 -0.0008870919982726377 0 336162.619732971
13 -0 -27876.503565617815 -0 -1.744548548776592e-05 -0 336162.6197329737 0 -9474.89862692731 0 -1.744548548776592e-05 0 373514.0219255187
14 -0 -9200.8024693463 -0 2.4424906541753444e-14 -0 373514.0219255224 0 9200.802469344204 0 2.4424906541753444e-14 0 373514.0219255208
15 -0 9474.898626931035 -0 1.7445484298495018e-05 -0 373514.0219255252 0 27876.50356562154 0 1.7445484298495018e-05 0 336162.6197329729
16 -0 28150.599723207786 -0 0.000887091995147582 -0 336162.6197329715 0 46552.20466189829 0 0.000887091995147582 0 261459.81534786633
17 -0 46826.30081948547 -0 0.045090613911188626 -0 261459.8153478654 0 65227.90575817598 0 0.045090613911188626 0 149405.6087702058
18 -0 65502.00191576036 -0 2.2919416950779046 -0 149405.60877021047 0 83903.60685445086 0 2.2919416950779046 0 1.6325429896824062e-10
19 -0 -274.096157585391 -0 -8.846257060213247e-13 -0 -114.20673232724626 0 274.096157585391 0 -8.846257060213247e-13 0 -114.20673232724626
20 -0 -274.0961575854102 -0 -7.958078640513122e-13 -0 -2.2468510811989972 0 274.09615758537177 0 -7.958078640513122e-13 0 -2.246851081172835
21 -0 -274.0961575854085 -0 -5.861977570020827e-13 -0 -0.04420352192802568 0 274.0961575853735 0 -5.861977570020827e-13 0 -0.04420352192785515
22 -0 -274.0961575854207 -0 -3.2152058793144533e-13 -0 -0.0008696465153690269 0 274.09615758536125 0 -3.2152058793144533e-13 0 -0.0008696464555697503
23 -0 -274.09615758538297 -0 -1.1723955140041653e-13 -0 -1.7445514885139346e-05 0 274.096157585399 0 -1.1723955140041653e-13 0 -1.7445432987983622e-05
24 -0 -274.09615758541065 -0 1.3500311979441904e-13 -0 -1.7445542795258007e-05 0 274.0961575853713 0 1.3500311979441904e-13 0 -1.7445435375407214e-05
25 -0 -274.09615758540167 -0 4.4231285301066237e-13 -0 -0.0008696465722692892 0 274.0961575853803 0 4.4231285301066237e-13 0 -0.000869646487288378
26 -0 -274.0961575853689 -0 6.430411758628907e-13 -0 -0.04420352187565868 0 274.09615758541304 0 6.430411758628907e-13 0 -0.04420352197438149
27 -0 -274.0961575854036 -0 6.750155989720952e-13 -0 -2.2468510811692965 0 274.09615758537836 0 6.750155989720952e-13 0 -2.246851081159477
28 -0 -274.096157585391 -0 7.105427357601002e-13 -0 -114.20673232724626 0 274.096157585391 0 7.105427357601002e-13 0 -114.20673232724626
$EndElementData
$ElementData
1
"AxialForce"
1
0
3
0
1
28
1 0
2 0
3 0
4 0
5 0
6 0
7 0
8 0
9 0
10 0
11 0
12 0
13 0
14 0
15 0
16 0
17 0
18 0
19 0
20 0
21 0
22 0
23 0
24 0
25 0
26 0
27 0
28 0
$EndElementData
$ElementData
1
"VonMisesStress"
1
0
3
0
1
28
1 51923357.246978395
2 86151300.44565845
3 109792712.39998643
4 121715611.48726946
5 123186433.72534977
6 121715611.48726946
7 109792712.39998661
8 86151300.44565913
9 51923357.24697833
10 51923357.24698047
11 86151300.4456629
12 109792712.39999034
13 121715611.48727135
14 123186433.72535288
15 121715611.48727348
16 109792712.39998984
17 86151300.44566034
18 51923357.24697965
19 759659.5582750575
20 870039.160610089
21 881374.5020456056
22 881597.5083416575
23 881601.8939678265
24 881601.8939678612
25 881597.5083412419
26 881374.5020456205
27 870039.160610199
28 759659.5582750343
$EndElementData
$NodeData
1
"Fixity"
1
0
3
0
3
20
1 1 1 1
2 0 0 0
3 0 0 0
4 0 0 0
5 0 0 0
6 0 0 0
7 0 0 0
8 0 0 0
9 0 0 0
10 0 1 1
11 0 1 0
12 0 0 0
13 0 0 0
14 0 0 0
15 0 0 0
16 0 0 0
17 0 0 0
18 0 0 0
19 0 0 0
20 0 1 0
$EndNodeData
$NodeData
1
"FixityRotation"
1
0
3
0
3
20
1 1 0 0
2 0 0 0
3 0 0 0
4 0 0 0
5 0 0 0
6 0 0 0
7 0 0 0
8 0 0 0
9 0 0 0
10 1 0 0
11 1 0 0
12 0 0 0
13 0 0 0
14 0 0 0
15 0 0 0
16 0 0 0
17 0 0 0
18 0 0 0
19 0 0 0
20 1 0 0
$EndNodeData
$ElementData
1
"CrossSectionArea"
1
0
3
0
1
28
1 0.015598442631532282
2 0.015598442631532282
3 0.015598442631532282
4 0.015598442631532282
5 0.015598442631532282
6 0.015598442631532282
7 0.015598442631532282
8 0.015598442631532282
9 0.015598442631532282
10 0.015598442631532282
11 0.015598442631532282
12 0.015598442631532282
13 0.015598442631532282
14 0.015598442631532282
15 0.015598442631532282
16 0.015598442631532282
17 0.015598442631532282
18 0.015598442631532282
19 0.002848410657883071
20 0.002848410657883071
21 0.002848410657883071
22 0.002848410657883071
23 0.002848410657883071
24 0.002848410657883071
25 0.002848410657883071
26 0.002848410657883071
27 0.002848410657883071
28 0.002848410657883071
$EndElementData
$ElementData
1
"Attribute:ElementFormulation"
1
0
3
0
1
28
1 1
2 1
3 1
4 1
5 1
6 1
7 1
8 1
9 1
10 1
11 1
12 1
13 1
14 1
15 1
16 1
17 1
18 1
19 1
20 1
21 1
22 1
23 1
24 1
25 1
26 1
27 1
28 1
$EndElementData
$ElementData
1
"MaterialID"
1
0
3
0
1
28
1 3
2 3
3 3
4 3
5 3
6 3
7 3
8 3
9 3
10 3
11 3
12 3
13 3
14 3
15 3
16 3
17 3
18 3
19 3
20 3
21 3
22 3
23 3
24 3
25 3
26 3
27 3
28 3
$EndElementData
$ElementData
1
"Attribute:SecondMomentY"
1
0
3
0
1
28
1 3.387342477398636e-05
2 3.387342477398636e-05
3 3.387342477398636e-05
4 3.387342477398636e-05
5 3.387342477398636e-05
6 3.387342477398636e-05
7 3.387342477398636e-05
8 3.387342477398636e-05
9 3.387342477398636e-05
10 3.387342477398636e-05
11 3.387342477398636e-05
12 3.387342477398636e-05
13 3.387342477398636e-05
14 3.387342477398636e-05
15 3.387342477398636e-05
16 3.387342477398636e-05
17 3.387342477398636e-05
18 3.387342477398636e-05
19 1.423683272853165e-06
20 1.423683272853165e-06
21 1.423683272853165e-06
22 1.423683272853165e-06
23 1.423683272853165e-06
24 1.423683272853165e-06
25 1.423683272853165e-06
26 1.423683272853165e-06
27 1.423683272853165e-06
28 1.423683272853165e-06
$EndElementData
$ElementData
1
"Attribute:SecondMomentZ"
1
0
3
0
1
28
1 0.0009208345717756826
2 0.0009208345717756826
3 0.0009208345717756826
4 0.0009208345717756826
5 0.0009208345717756826
6 0.0009208345717756826
7 0.0009208345717756826
8 0.0009208345717756826
9 0.0009208345717756826
10 0.0009208345717756826
11 0.0009208345717756826
12 0.0009208345717756826
13 0.0009208345717756826
14 0.0009208345717756826
15 0.0009208345717756826
16 0.0009208345717756826
17 0.0009208345717756826
18 0.0009208345717756826
19 1.9431682510835934e-05
20 1.9431682510835934e-05
21 1.9431682510835934e-05
22 1.9431682510835934e-05
23 1.9431682510835934e-05
24 1.9431682510835934e-05
25 1.9431682510835934e-05
26 1.9431682510835934e-05
27 1.9431682510835934e-05
28 1.9431682510835934e-05
$EndElementData
$ElementData
1
"Attribute:SectionDimension1"
1
0
3
0
1
28
1 0.6
2 0.6
3 0.6
4 0.6
5 0.6
6 0.6
7 0.6
8 0.6
9 0.6
10 0.6
11 0.6
12 0.6
13 0.6
14 0.6
15 0.6
16 0.6
17 0.6
18 0.6
19 0.2
20 0.2
21 0.2
22 0.2
23 0.2
24 0.2
25 0.2
26 0.2
27 0.2
28 0.2
$EndElementData
$ElementData
1
"Attribute:SectionDimension2"
1
0
3
0
1
28
1 0.22
2 0.22
3 0.22
4 0.22
5 0.22
6 0.22
7 0.22
8 0.22
9 0.22
10 0.22
11 0.22
12 0.22
13 0.22
14 0.22
15 0.22
16 0.22
17 0.22
18 0.22
19 0.1
20 0.1
21 0.1
22 0.1
23 0.1
24 0.1
25 0.1
26 0.1
27 0.1
28 0.1
$EndElementData
$ElementData
1
"Attribute:SectionDimension3"
1
0
3
0
1
28
1 0.012
2 0.012
3 0.012
4 0.012
5 0.012
6 0.012
7 0.012
8 0.012
9 0.012
10 0.012
11 0.012
12 0.012
13 0.012
14 0.012
15 0.012
16 0.012
17 0.012
18 0.012
19 0.0056
20 0.0056
21 0.0056
22 0.0056
23 0.0056
24 0.0056
25 0.0056
26 0.0056
27 0.0056
28 0.0056
$EndElementData
$ElementData
1
"Attribute:SectionDimension4"
1
0
3
0
1
28
1 0.019
2 0.019
3 0.019
4 0.019
5 0.019
6 0.019
7 0.019
8 0.019
9 0.019
10 0.019
11 0.019
12 0.019
13 0.019
14 0.019
15 0.019
16 0.019
17 0.019
18 0.019
19 0.0085
20 0.0085
21 0.0085
22 0.0085
23 0.0085
24 0.0085
25 0.0085
26 0.0085
27 0.0085
28 0.0085
$EndElementData
$ElementData
1
"Attribute:SectionDimension5"
1
0
3
0
1
28
1 0.024
2 0.024
3 0.024
4 0.024
5 0.024
6 0.024
7 0.024
8 0.024
9 0.024
10 0.024
11 0.024
12 0.024
13 0.024
14 0.024
15 0.024
16 0.024
17 0.024
18 0.024
19 0.012
20 0.012
21 0.012
22 0.012
23 0.012
24 0.012
25 0.012
26 0.012
27 0.012
28 0.012
$EndElementData
$ElementData
1
"Attribute:SectionShape"
1
0
3
0
1
28
1 5
2 5
3 5
4 5
5 5
6 5
7 5
8 5
9 5
10 5
11 5
12 5
13 5
14 5
15 5
16 5
17 5
18 5
19 5
20 5
21 5
22 5
23 5
24 5
25 5
26 5
27 5
28 5
$EndElementData
$ElementData
1
"Attribute:ShearAreaY"
1
0
3
0
1
28
1 0.006944008675475138
2 0.006944008675475138
3 0.006944008675475138
4 0.006944008675475138
5 0.006944008675475138
6 0.006944008675475138
7 0.006944008675475138
8 0.006944008675475138
9 0.006944008675475138
10 0.006944008675475138
11 0.006944008675475138
12 0.006944008675475138
13 0.006944008675475138
14 0.006944008675475138
15 0.006944008675475138
16 0.006944008675475138
17 0.006944008675475138
18 0.006944008675475138
19 0.0010633841173523775
20 0.0010633841173523775
21 0.0010633841173523775
22 0.0010633841173523775
23 0.0010633841173523775
24 0.0010633841173523775
25 0.0010633841173523775
26 0.0010633841173523775
27 0.0010633841173523775
28 0.0010633841173523775
$EndElementData
$ElementData
1
"Attribute:ShearAreaZ"
1
0
3
0
1
28
1 0.007103267973856209
2 0.007103267973856209
3 0.007103267973856209
4 0.007103267973856209
5 0.007103267973856209
6 0.007103267973856209
7 0.007103267973856209
8 0.007103267973856209
9 0.007103267973856209
10 0.007103267973856209
11 0.007103267973856209
12 0.007103267973856209
13 0.007103267973856209
14 0.007103267973856209
15 0.007103267973856209
16 0.007103267973856209
17 0.007103267973856209
18 0.007103267973856209
19 0.0014444444444444446
20 0.0014444444444444446
21 0.0014444444444444446
22 0.0014444444444444446
23 0.0014444444444444446
24 0.0014444444444444446
25 0.0014444444444444446
26 0.0014444444444444446
27 0.0014444444444444446
28 0.0014444444444444446
$EndElementData
$ElementData
1
"Attribute:TorsionConstant"
1
0
3
0
1
28
1 1.6541674049379728e-06
2 1.6541674049379728e-06
3 1.6541674049379728e-06
4 1.6541674049379728e-06
5 1.6541674049379728e-06
6 1.6541674049379728e-06
7 1.6541674049379728e-06
8 1.6541674049379728e-06
9 1.6541674049379728e-06
10 1.6541674049379728e-06
11 1.6541674049379728e-06
12 1.6541674049379728e-06
13 1.6541674049379728e-06
14 1.6541674049379728e-06
15 1.6541674049379728e-06
16 1.6541674049379728e-06
17 1.6541674049379728e-06
18 1.6541674049379728e-06
19 6.980120130097939e-08
20 6.980120130097939e-08
21 6.980120130097939e-08
22 6.980120130097939e-08
23 6.980120130097939e-08
24 6.980120130097939e-08
25 6.980120130097939e-08
26 6.980120130097939e-08
27 6.980120130097939e-08
28 6.980120130097939e-08
$EndElementData
$ElementData
1
"Attribute:UniformLoadGlobalX"
1
0
3
0
1
28
1 0
2 0
3 0
4 0
5 0
6 0
7 0
8 0
9 0
10 0
11 0
12 0
13 0
14 0
15 0
16 0
17 0
18 0
19 0
20 0
21 0
22 0
23 0
24 0
25 0
26 0
27 0
28 0
$EndElementData
$ElementData
1
"Attribute:UniformLoadGlobalY"
1
0
3
0
1
28
1 -8000
2 -8000
3 -8000
4 -8000
5 -8000
6 -8000
7 -8000
8 -8000
9 -8000
10 -8000
11 -8000
12 -8000
13 -8000
14 -8000
15 -8000
16 -8000
17 -8000
18 -8000
19 0
20 0
21 0
22 0
23 0
24 0
25 0
26 0
27 0
28 0
$EndElementData
$ElementData
1
"Attribute:UniformLoadGlobalZ"
1
0
3
0
1
28
1 0
2 0
3 0
4 0
5 0
6 0
7 0
8 0
9 0
10 0
11 0
12 0
13 0
14 0
15 0
16 0
17 0
18 0
19 0
20 0
21 0
22 0
23 0
24 0
25 0
26 0
27 0
28 0
$EndElementData
$ElementData
1
"Attribute:UniformLoadLocalX"
1
0
3
0
1
28
1 0
2 0
3 0
4 0
5 0
6 0
7 0
8 0
9 0
10 0
11 0
12 0
13 0
14 0
15 0
16 0
17 0
18 0
19 0
20 0
21 0
22 0
23 0
24 0
25 0
26 0
27 0
28 0
$EndElementData
$ElementData
1
"Attribute:UniformLoadLocalY"
1
0
3
0
1
28
1 0
2 0
3 0
4 0
5 0
6 0
7 0
8 0
9 0
10 0
11 0
12 0
13 0
14 0
15 0
16 0
17 0
18 0
19 0
20 0
21 0
22 0
23 0
24 0
25 0
26 0
27 0
28 0
$EndElementData
$ElementData
1
"Attribute:UniformLoadLocalZ"
1
0
3
0
1
28
1 0
2 0
3 0
4 0
5 0
6 0
7 0
8 0
9 0
10 0
11 0
12 0
13 0
14 0
15 0
16 0
17 0
18 0
19 0
20 0
21 0
22 0
23 0
24 0
25 0
26 0
27 0
28 0
$EndElementData
$ElementData
1
"BeamOrientation"
1
0
3
0
3
28
1 0 0 0
2 0 0 0
3 0 0 0
4 0 0 0
5 0 0 0
6 0 0 0
7 0 0 0
8 0 0 0
9 0 0 0
10 0 0 0
11 0 0 0
12 0 0 0
13 0 0 0
14 0 0 0
15 0 0 0
16 0 0 0
17 0 0 0
18 0 0 0
19 0 0 0
20 0 0 0
21 0 0 0
22 0 0 0
23 0 0 0
24 0 0 0
25 0 0 0
26 0 0 0
27 0 0 0
28 0 0 0
$EndElementData
$AnafData
1
1
GLOBAL 3 1
"Gravity"
0 -9.80665 0
$EndAnafData
