$MeshFormat
4.1 0 8
$EndMeshFormat
$PhysicalNames
3
1 1 "Material:Structural Steel S355 (EN 10025)"
1 2 "Section:IPE 300"
1 3 "Section:HEB 500"
$EndPhysicalNames
$Entities
0 2 0 0
1 0 0 0 50 0 3 2 1 3 0
2 0 0 0 50 0 3 2 1 2 0
$EndEntities
$Nodes
1 42 1 42
1 1 0 42
1
2
3
4
5
6
7
8
9
10
11
12
13
14
15
16
17
18
19
20
21
22
23
24
25
26
27
28
29
30
31
32
33
34
35
36
37
38
39
40
41
42
0 0 0
2.5 0 0
5 0 0
7.5 0 0
10 0 0
12.5 0 0
15 0 0
17.5 0 0
20 0 0
22.5 0 0
25 0 0
27.5 0 0
30 0 0
32.5 0 0
35 0 0
37.5 0 0
40 0 0
42.5 0 0
45 0 0
47.5 0 0
50 0 0
0 0 3
2.5 0 3
5 0 3
7.5 0 3
10 0 3
12.5 0 3
15 0 3
17.5 0 3
20 0 3
22.5 0 3
25 0 3
27.5 0 3
30 0 3
32.5 0 3
35 0 3
37.5 0 3
40 0 3
42.5 0 3
45 0 3
47.5 0 3
50 0 3
$EndNodes
$Elements
2 51 1 51
1 1 1 40
1 1 2
2 2 3
3 3 4
4 4 5
5 5 6
6 6 7
7 7 8
8 8 9
9 9 10
10 10 11
11 11 12
12 12 13
13 13 14
14 14 15
15 15 16
16 16 17
17 17 18
18 18 19
19 19 20
20 20 21
21 22 23
22 23 24
23 24 25
24 25 26
25 26 27
26 27 28
27 28 29
28 29 30
29 30 31
30 31 32
31 32 33
32 33 34
33 34 35
34 35 36
35 36 37
36 37 38
37 38 39
38 39 40
39 40 41
40 41 42
1 2 1 11
41 1 22
42 3 24
43 5 26
44 7 28
45 9 30
46 11 32
47 13 34
48 15 36
49 17 38
50 19 40
51 21 42
$EndElements
$NodeData
1
"Displacement"
1
0
3
0
3
42
1 0 0 0
2 0 -0.013812087721267666 0
3 0 -0.021632078711525306 0
4 0 -0.02094922891657681 0
5 0 -0.013071549195779113 0
6 0 -0.0031114258265849243 0
7 0 0 0
8 0 -0.011490929203596586 0
9 0 -0.029229189352382754 0
10 0 -0.04368227265793306 0
11 0 -0.04913642624537526 0
12 0 -0.04368227265793287 0
13 0 -0.029229189352382456 0
14 0 -0.011490929203596355 0
15 0 0 0
16 0 -0.003111425826585244 0
17 0 -0.013071549195779722 0
18 0 -0.020949228916577554 0
19 0 -0.02163207871152597 0
20 0 -0.013812087721268053 0
21 0 0 0
22 0 0 0
23 0 -0.013812087721267756 0
24 0 -0.02163207871152545 0
25 0 -0.02094922891657696 0
26 0 -0.013071549195779226 0
27 0 -0.0031114258265849673 0
28 0 0 0
29 0 -0.011490929203596593 0
30 0 -0.02922918935238279 0
31 0 -0.04368227265793314 0
32 0 -0.04913642624537533 0
33 0 -0.04368227265793289 0
34 0 -0.029229189352382435 0
35 0 -0.011490929203596355 0
36 0 0 0
37 0 -0.0031114258265851915 0
38 0 -0.013071549195779596 0
39 0 -0.02094922891657738 0
40 0 -0.021632078711525813 0
41 0 -0.01381208772126796 0
42 0 0 0
$EndNodeData
$NodeData
1
"Rotation"
1
0
3
0
3
42
1 0 0 -0.006008530335521926
2 1.3181063603980394e-05 0 -0.004620611193187992
3 2.6362127207960788e-05 0 -0.001467519345556469
4 2.6362127207954768e-05 0 0.0019261191410428924
5 2.636212720794987e-05 0 0.004035678200280327
6 1.3181063603974861e-05 0 0.0033365317658260664
7 0 0 -0.0016959462286496544
8 1.318177166034188e-05 0 -0.006608150903641443
9 2.636354332068376e-05 0 -0.006946477379643888
10 2.645944757632645e-05 0 -0.004235551722986789
11 2.655535183197785e-05 0 4.2482350207545185e-17
12 2.6459447576319728e-05 0 0.004235551722986853
13 2.636354332066053e-05 0 0.0069464773796438966
14 1.3181771660330498e-05 0 0.006608150903641376
15 0 0 0.0016959462286495384
16 1.3181063603936938e-05 0 -0.003336531765826197
17 2.6362127207873876e-05 0 -0.004035678200280417
18 2.6362127207865748e-05 0 -0.0019261191410429054
19 2.6362127207859964e-05 0 0.0014675193455565454
20 1.318106360392999e-05 0 0.004620611193188132
21 0 0 0.006008530335522088
22 0 0 -0.006008530335521964
23 -1.3181063603931627e-05 0 -0.004620611193188024
24 -2.6362127207863254e-05 0 -0.0014675193455564793
25 -2.6362127207868645e-05 0 0.0019261191410428968
26 -2.6362127207874283e-05 0 0.004035678200280352
27 -1.3181063603937492e-05 0 0.003336531765826092
28 0 0 -0.0016959462286496479
29 -1.3181771660327926e-05 0 -0.006608150903641451
30 -2.6363543320655852e-05 0 -0.006946477379643899
31 -2.6459447576290244e-05 0 -0.004235551722986805
32 -2.6555351831924105e-05 0 5.691629396352837e-17
33 -2.6459447576301998e-05 0 0.0042355517229868776
34 -2.636354332067465e-05 0 0.006946477379643896
35 -1.3181771660338207e-05 0 0.0066081509036413685
36 0 0 0.0016959462286495499
37 -1.3181063603979549e-05 0 -0.0033365317658261696
38 -2.6362127207959098e-05 0 -0.0040356782002803895
39 -2.6362127207963174e-05 0 -0.0019261191410428985
40 -2.6362127207967415e-05 0 0.0014675193455565235
41 -1.3181063603983648e-05 0 0.004620611193188101
42 0 0 0.006008530335522047
$EndNodeData
$ElementData
1
"BeamSectionForce"
1
0
3
0
12
51
1 -0 -118158.46451426981 -0 2.293827856367685 -0 1.0550138540565968e-10 0 -63565.748854344616 0 2.293827856367685 0 227155.26671076857
2 -0 -63565.748854345795 -0 2.293827856367685 -0 227155.26671076694 0 -8973.03319442059 0 2.293827856367685 0 317828.74427172483
3 -0 -8351.64806140992 -0 -1.0480505352461478e-12 -0 317828.7442717246 0 46241.067598515285 0 -1.0480505352461478e-12 0 270466.96985034354
4 -0 46241.06759851521 -0 -8.526512829121202e-13 -0 270466.969850344 0 100833.78325844041 0 -8.526512829121202e-13 0 86623.40627915027
5 -0 101455.16839144917 -0 -2.2938278563667476 -0 86623.40627915027 0 156047.88405137436 0 -2.2938278563667476 0 -235255.40927437984
6 -0 156047.88405137477 -0 -2.293827856366722 -0 -235255.40927438007 0 210640.59971129996 0 -2.293827856366722 0 -693616.0139777233
7 -0 -219302.940339216 -0 2.2939510755140793 -0 -693616.0139777238 0 -164710.2246792908 0 2.2939510755140793 0 -213599.55770458898
8 -0 -164710.22467929052 -0 2.2939510755140793 -0 -213599.55770458828 0 -110117.50901936533 0 2.2939510755140793 0 129935.10941873338
9 -0 -109496.12388635435 -0 0.016689689068109637 -0 129935.10941873466 0 -54903.40822642916 0 0.016689689068109637 0 335434.5245597126
10 -0 -54903.408226430955 -0 0.016689689069625757 -0 335434.5245597113 0 -310.69256650575335 0 0.016689689069625757 0 404452.15055087936
11 -0 310.6925665063536 -0 -0.016689689070795488 -0 404452.15055088 0 54903.40822643156 0 -0.016689689070795488 0 335434.5245597075
12 -0 54903.408226430205 -0 -0.016689689070982006 -0 335434.5245597091 0 109496.1238863554 0 -0.016689689070982006 0 129935.10941872686
13 -0 110117.5090193665 -0 -2.293951075512018 -0 129935.10941872779 0 164710.22467929168 0 -2.293951075512018 0 -213599.5577045969
14 -0 164710.2246792904 -0 -2.2939510755120986 -0 -213599.55770459393 0 219302.9403392156 0 -2.2939510755120986 0 -693616.0139777279
15 -0 -210640.59971130194 -0 2.293827856360122 -0 -693616.0139777273 0 -156047.88405137675 0 2.293827856360122 0 -235255.4092743789
16 -0 -156047.88405137658 -0 2.293827856360122 -0 -235255.4092743788 0 -101455.16839145139 0 2.293827856360122 0 86623.40627915655
17 -0 -100833.78325844093 -0 -1.4139800441625994e-12 -0 86623.40627915609 0 -46241.067598515736 0 -1.4139800441625994e-12 0 270466.9698503519
18 -0 -46241.067598515634 -0 -1.0063061495202419e-12 -0 270466.96985035075 0 8351.64806140957 0 -1.0063061495202419e-12 0 317828.74427173275
19 -0 8973.033194421347 -0 -2.2938278563589107 -0 317828.74427173147 0 63565.74885434655 0 -2.2938278563589107 0 227155.2667107723
20 -0 63565.7488543459 -0 -2.2938278563589134 -0 227155.26671077253 0 118158.4645142711 0 -2.2938278563589134 0 3.383320290595293e-10
21 -0 -118158.46451427005 -0 -2.293827856359198 -0 3.383320290595293e-10 0 -63565.74885434485 0 -2.293827856359198 0 227155.2667107695
22 -0 -63565.748854345446 -0 -2.293827856359198 -0 227155.26671076973 0 -8973.03319442024 0 -2.293827856359198 0 317828.74427172623
23 -0 -8351.648061409978 -0 -9.379164112033322e-13 -0 317828.74427172565 0 46241.06759851523 0 -9.379164112033322e-13 0 270466.96985034517
24 -0 46241.06759851486 -0 -9.814371537686384e-13 -0 270466.96985034645 0 100833.78325844006 0 -9.814371537686384e-13 0 86623.4062791519
25 -0 101455.16839145034 -0 2.2938278563600965 -0 86623.40627915155 0 156047.88405137553 0 2.2938278563600965 0 -235255.409274381
26 -0 156047.88405137524 -0 2.293827856360219 -0 -235255.409274381 0 210640.59971130043 0 2.293827856360219 0 -693616.0139777258
27 -0 -219302.94033921717 -0 -2.293951075511651 -0 -693616.0139777261 0 -164710.22467929198 0 -2.293951075511651 0 -213599.55770458945
28 -0 -164710.22467929192 -0 -2.293951075511651 -0 -213599.55770458898 0 -110117.50901936673 0 -2.293951075511651 0 129935.10941873385
29 -0 -109496.1238863547 -0 -0.01668968906666546 -0 129935.10941873198 0 -54903.40822642951 0 -0.01668968906666546 0 335434.52455971425
30 -0 -54903.40822642849 -0 -0.016689689066573088 -0 335434.5245597161 0 -310.69256650328316 0 -0.016689689066573088 0 404452.15055087896
31 -0 310.6925665048402 -0 0.016689689064527613 -0 404452.1505508794 0 54903.408226430045 0 0.016689689064527613 0 335434.5245597105
32 -0 54903.40822643323 -0 0.016689689065439772 -0 335434.5245597112 0 109496.12388635843 0 0.016689689065439772 0 129935.10941872174
33 -0 110117.5090193651 -0 2.293951075513133 -0 129935.109418725 0 164710.2246792903 0 2.293951075513133 0 -213599.55770459503
34 -0 164710.22467928976 -0 2.2939510755134402 -0 -213599.55770459323 0 219302.94033921495 0 2.2939510755134402 0 -693616.0139777251
35 -0 -210640.59971130124 -0 -2.2938278563675376 -0 -693616.0139777248 0 -156047.88405137605 0 -2.2938278563675376 0 -235255.4092743782
36 -0 -156047.88405137553 -0 -2.2938278563675376 -0 -235255.40927437774 0 -101455.16839145034 0 -2.2938278563675376 0 86623.40627915539
37 -0 -100833.78325844012 -0 -7.096545573404001e-13 -0 86623.40627915486 0 -46241.06759851492 0 -7.096545573404001e-13 0 270466.9698503497
38 -0 -46241.06759851511 -0 -7.380762667708041e-13 -0 270466.96985034907 0 8351.648061410095 0 -7.380762667708041e-13 0 317828.74427173054
39 -0 8973.033194422045 -0 2.2938278563682717 -0 317828.74427173194 0 63565.74885434725 0 2.2938278563682717 0 227155.26671077043
40 -0 63565.74885434543 -0 2.2938278563682513 -0 227155.26671077067 0 118158.46451427063 0 2.2938278563682513 0 3.383320290595293e-10
41 -0 -621.3851330102076 -0 -2.0605739337042905e-13 -0 -310.6925665051038 0 621.3851330102076 0 -2.0605739337042905e-13 0 -310.6925665051038
42 -0 -621.3851330102138 -0 -5.5067062021407764e-14 -0 -2.2938278563094627 0 621.3851330102013 0 -5.5067062021407764e-14 0 -2.293827856406949
43 -0 -621.385133010212 -0 1.3500311979441904e-13 -0 -2.293827856351186 0 621.3851330102032 0 1.3500311979441904e-13 0 -2.2938278563817107
44 -0 -621.3851330102076 -0 3.552713678800501e-14 -0 -310.6925665051038 0 621.3851330102076 0 3.552713678800501e-14 0 -310.6925665051038
45 -0 -621.385133010134 -0 -6.394884621840902e-14 -0 -2.277261386313512 0 621.3851330102812 0 -6.394884621840902e-14 0 -2.2772613864758
46 -0 -621.3851330101098 -0 7.82115010402044e-14 -0 -0.033379378043093766 0 621.3851330103054 0 7.82115010402044e-14 0 -0.033379378278198146
47 -0 -621.3851330102375 -0 -7.105427357601002e-15 -0 -2.2772613864751747 0 621.3851330101777 0 -7.105427357601002e-15 0 -2.277261386443513
48 -0 -621.3851330102076 -0 6.217248937900877e-14 -0 -310.6925665051038 0 621.3851330102076 0 6.217248937900877e-14 0 -310.6925665051038
49 -0 -621.3851330102146 -0 1.4921397450962104e-13 -0 -2.2938278563247536 0 621.3851330102005 0 1.4921397450962104e-13 0 -2.293827856289056
50 -0 -621.3851330102392 -0 -1.1812772982011666e-13 -0 -2.2938278563929657 0 621.385133010176 0 -1.1812772982011666e-13 0 -2.293827856298151
51 -0 -621.3851330102076 -0 -2.2737367544323206e-13 -0 -310.6925665051038 0 621.3851330102076 0 -2.2737367544323206e-13 0 -310.6925665051038
$EndElementData
$ElementData
1
"AxialForce"
1
0
3
0
1
51
1 0
2 0
3 0
4 0
5 0
6 0
7 0
8 0
9 0
10 0
11 0
12 0
13 0
14 0
15 0
16 0
17 0
18 0
19 0
20 0
21 0
22 0
23 0
24 0
25 0
26 0
27 0
28 0
29 0
30 0
31 0
32 0
33 0
34 0
35 0
36 0
37 0
38 0
39 0
40 0
41 0
42 0
43 0
44 0
45 0
46 0
47 0
48 0
49 0
50 0
51 0
$EndElementData
$ElementData
1
"VonMisesStress"
1
0
3
0
1
51
1 55670025.694731414
2 74177006.10215358
3 74509785.12678567
4 64297870.35633119
5 69036459.09978497
6 171387293.07123893
7 172167935.6050946
8 66612679.960239716
9 79618601.07091716
10 94343208.25583991
11 94343208.2558394
12 79618601.07091609
13 66612679.96024107
14 172167935.60509518
15 171387293.07123995
16 69036459.09978522
17 64297870.356333025
18 74509785.12678768
19 74177006.10215512
20 55670025.694732465
21 55670025.69473159
22 74177006.10215405
23 74509785.1267859
24 64297870.35633173
25 69036459.09978543
26 171387293.07123944
27 172167935.60509524
28 66612679.96024007
29 79618601.07091676
30 94343208.2558396
31 94343208.25583927
32 79618601.07091668
33 66612679.96024071
34 172167935.6050946
35 171387293.07123935
36 69036459.0997849
37 64297870.356332235
38 74509785.126787
39 74177006.10215522
40 55670025.69473204
41 797429.7027276774
42 832465.8251595623
43 832465.8251594823
44 797429.7027276662
45 832495.5635273379
46 836523.5422642023
47 832495.5635273263
48 797429.702727668
49 832465.825159537
50 832465.8251594807
51 797429.7027276788
$EndElementData
$NodeData
1
"Fixity"
1
0
3
0
3
42
1 1 1 1
2 0 0 0
3 0 0 0
4 0 0 0
5 0 0 0
6 0 0 0
7 0 1 1
8 0 0 0
9 0 0 0
10 0 0 0
11 0 0 0
12 0 0 0
13 0 0 0
14 0 0 0
15 0 1 1
16 0 0 0
17 0 0 0
18 0 0 0
19 0 0 0
20 0 0 0
21 0 1 1
22 0 1 0
23 0 0 0
24 0 0 0
25 0 0 0
26 0 0 0
27 0 0 0
28 0 1 0
29 0 0 0
30 0 0 0
31 0 0 0
32 0 0 0
33 0 0 0
34 0 0 0
35 0 0 0
36 0 1 0
37 0 0 0
38 0 0 0
39 0 0 0
40 0 0 0
41 0 0 0
42 0 1 0
$EndNodeData
$NodeData
1
"FixityRotation"
1
0
3
0
3
42
1 1 0 0
2 0 0 0
3 0 0 0
4 0 0 0
5 0 0 0
6 0 0 0
7 1 0 0
8 0 0 0
9 0 0 0
10 0 0 0
11 0 0 0
12 0 0 0
13 0 0 0
14 0 0 0
15 1 0 0
16 0 0 0
17 0 0 0
18 0 0 0
19 0 0 0
20 0 0 0
21 1 0 0
22 1 0 0
23 0 0 0
24 0 0 0
25 0 0 0
26 0 0 0
27 0 0 0
28 1 0 0
29 0 0 0
30 0 0 0
31 0 0 0
32 0 0 0
33 0 0 0
34 0 0 0
35 0 0 0
36 1 0 0
37 0 0 0
38 0 0 0
39 0 0 0
40 0 0 0
41 0 0 0
42 1 0 0
$EndNodeData
$ElementData
1
"CrossSectionArea"
1
0
3
0
1
51
1 0.023863778955533033
2 0.023863778955533033
3 0.023863778955533033
4 0.023863778955533033
5 0.023863778955533033
6 0.023863778955533033
7 0.023863778955533033
8 0.023863778955533033
9 0.023863778955533033
10 0.023863778955533033
11 0.023863778955533033
12 0.023863778955533033
13 0.023863778955533033
14 0.023863778955533033
15 0.023863778955533033
16 0.023863778955533033
17 0.023863778955533033
18 0.023863778955533033
19 0.023863778955533033
20 0.023863778955533033
21 0.023863778955533033
22 0.023863778955533033
23 0.023863778955533033
24 0.023863778955533033
25 0.023863778955533033
26 0.023863778955533033
27 0.023863778955533033
28 0.023863778955533033
29 0.023863778955533033
30 0.023863778955533033
31 0.023863778955533033
32 0.023863778955533033
33 0.023863778955533033
34 0.023863778955533033
35 0.023863778955533033
36 0.023863778955533033
37 0.023863778955533033
38 0.023863778955533033
39 0.023863778955533033
40 0.023863778955533033
41 0.005381201652942294
42 0.005381201652942294
43 0.005381201652942294
44 0.005381201652942294
45 0.005381201652942294
46 0.005381201652942294
47 0.005381201652942294
48 0.005381201652942294
49 0.005381201652942294
50 0.005381201652942294
51 0.005381201652942294
$EndElementData
$ElementData
1
"Attribute:ElementFormulation"
1
0
3
0
1
51
1 1
2 1
3 1
4 1
5 1
6 1
7 1
8 1
9 1
10 1
11 1
12 1
13 1
14 1
15 1
16 1
17 1
18 1
19 1
20 1
21 1
22 1
23 1
24 1
25 1
26 1
27 1
28 1
29 1
30 1
31 1
32 1
33 1
34 1
35 1
36 1
37 1
38 1
39 1
40 1
41 1
42 1
43 1
44 1
45 1
46 1
47 1
48 1
49 1
50 1
51 1
$EndElementData
$ElementData
1
"MaterialID"
1
0
3
0
1
51
1 3
2 3
3 3
4 3
5 3
6 3
7 3
8 3
9 3
10 3
11 3
12 3
13 3
14 3
15 3
16 3
17 3
18 3
19 3
20 3
21 3
22 3
23 3
24 3
25 3
26 3
27 3
28 3
29 3
30 3
31 3
32 3
33 3
34 3
35 3
36 3
37 3
38 3
39 3
40 3
41 3
42 3
43 3
44 3
45 3
46 3
47 3
48 3
49 3
50 3
51 3
$EndElementData
$ElementData
1
"Attribute:SecondMomentY"
1
0
3
0
1
51
1 0.0001262392151656709
2 0.0001262392151656709
3 0.0001262392151656709
4 0.0001262392151656709
5 0.0001262392151656709
6 0.0001262392151656709
7 0.0001262392151656709
8 0.0001262392151656709
9 0.0001262392151656709
10 0.0001262392151656709
11 0.0001262392151656709
12 0.0001262392151656709
13 0.0001262392151656709
14 0.0001262392151656709
15 0.0001262392151656709
16 0.0001262392151656709
17 0.0001262392151656709
18 0.0001262392151656709
19 0.0001262392151656709
20 0.0001262392151656709
21 0.0001262392151656709
22 0.0001262392151656709
23 0.0001262392151656709
24 0.0001262392151656709
25 0.0001262392151656709
26 0.0001262392151656709
27 0.0001262392151656709
28 0.0001262392151656709
29 0.0001262392151656709
30 0.0001262392151656709
31 0.0001262392151656709
32 0.0001262392151656709
33 0.0001262392151656709
34 0.0001262392151656709
35 0.0001262392151656709
36 0.0001262392151656709
37 0.0001262392151656709
38 0.0001262392151656709
39 0.0001262392151656709
40 0.0001262392151656709
41 6.037784243992912e-06
42 6.037784243992912e-06
43 6.037784243992912e-06
44 6.037784243992912e-06
45 6.037784243992912e-06
46 6.037784243992912e-06
47 6.037784243992912e-06
48 6.037784243992912e-06
49 6.037784243992912e-06
50 6.037784243992912e-06
51 6.037784243992912e-06
$EndElementData
$ElementData
1
"Attribute:SecondMomentZ"
1
0
3
0
1
51
1 0.0010717578839987893
2 0.0010717578839987893
3 0.0010717578839987893
4 0.0010717578839987893
5 0.0010717578839987893
6 0.0010717578839987893
7 0.0010717578839987893
8 0.0010717578839987893
9 0.0010717578839987893
10 0.0010717578839987893
11 0.0010717578839987893
12 0.0010717578839987893
13 0.0010717578839987893
14 0.0010717578839987893
15 0.0010717578839987893
16 0.0010717578839987893
17 0.0010717578839987893
18 0.0010717578839987893
19 0.0010717578839987893
20 0.0010717578839987893
21 0.0010717578839987893
22 0.0010717578839987893
23 0.0010717578839987893
24 0.0010717578839987893
25 0.0010717578839987893
26 0.0010717578839987893
27 0.0010717578839987893
28 0.0010717578839987893
29 0.0010717578839987893
30 0.0010717578839987893
31 0.0010717578839987893
32 0.0010717578839987893
33 0.0010717578839987893
34 0.0010717578839987893
35 0.0010717578839987893
36 0.0010717578839987893
37 0.0010717578839987893
38 0.0010717578839987893
39 0.0010717578839987893
40 0.0010717578839987893
41 8.356109185847977e-05
42 8.356109185847977e-05
43 8.356109185847977e-05
44 8.356109185847977e-05
45 8.356109185847977e-05
46 8.356109185847977e-05
47 8.356109185847977e-05
48 8.356109185847977e-05
49 8.356109185847977e-05
50 8.356109185847977e-05
51 8.356109185847977e-05
$EndElementData
$ElementData
1
"Attribute:SectionDimension1"
1
0
3
0
1
51
1 0.5
2 0.5
3 0.5
4 0.5
5 0.5
6 0.5
7 0.5
8 0.5
9 0.5
10 0.5
11 0.5
12 0.5
13 0.5
14 0.5
15 0.5
16 0.5
17 0.5
18 0.5
19 0.5
20 0.5
21 0.5
22 0.5
23 0.5
24 0.5
25 0.5
26 0.5
27 0.5
28 0.5
29 0.5
30 0.5
31 0.5
32 0.5
33 0.5
34 0.5
35 0.5
36 0.5
37 0.5
38 0.5
39 0.5
40 0.5
41 0.3
42 0.3
43 0.3
44 0.3
45 0.3
46 0.3
47 0.3
48 0.3
49 0.3
50 0.3
51 0.3
$EndElementData
$ElementData
1
"Attribute:SectionDimension2"
1
0
3
0
1
51
1 0.3
2 0.3
3 0.3
4 0.3
5 0.3
6 0.3
7 0.3
8 0.3
9 0.3
10 0.3
11 0.3
12 0.3
13 0.3
14 0.3
15 0.3
16 0.3
17 0.3
18 0.3
19 0.3
20 0.3
21 0.3
22 0.3
23 0.3
24 0.3
25 0.3
26 0.3
27 0.3
28 0.3
29 0.3
30 0.3
31 0.3
32 0.3
33 0.3
34 0.3
35 0.3
36 0.3
37 0.3
38 0.3
39 0.3
40 0.3
41 0.15
42 0.15
43 0.15
44 0.15
45 0.15
46 0.15
47 0.15
48 0.15
49 0.15
50 0.15
51 0.15
$EndElementData
$ElementData
1
"Attribute:SectionDimension3"
1
0
3
0
1
51
1 0.0145
2 0.0145
3 0.0145
4 0.0145
5 0.0145
6 0.0145
7 0.0145
8 0.0145
9 0.0145
10 0.0145
11 0.0145
12 0.0145
13 0.0145
14 0.0145
15 0.0145
16 0.0145
17 0.0145
18 0.0145
19 0.0145
20 0.0145
21 0.0145
22 0.0145
23 0.0145
24 0.0145
25 0.0145
26 0.0145
27 0.0145
28 0.0145
29 0.0145
30 0.0145
31 0.0145
32 0.0145
33 0.0145
34 0.0145
35 0.0145
36 0.0145
37 0.0145
38 0.0145
39 0.0145
40 0.0145
41 0.0071
42 0.0071
43 0.0071
44 0.0071
45 0.0071
46 0.0071
47 0.0071
48 0.0071
49 0.0071
50 0.0071
51 0.0071
$EndElementData
$ElementData
1
"Attribute:SectionDimension4"
1
0
3
0
1
51
1 0.028
2 0.028
3 0.028
4 0.028
5 0.028
6 0.028
7 0.028
8 0.028
9 0.028
10 0.028
11 0.028
12 0.028
13 0.028
14 0.028
15 0.028
16 0.028
17 0.028
18 0.028
19 0.028
20 0.028
21 0.028
22 0.028
23 0.028
24 0.028
25 0.028
26 0.028
27 0.028
28 0.028
29 0.028
30 0.028
31 0.028
32 0.028
33 0.028
34 0.028
35 0.028
36 0.028
37 0.028
38 0.028
39 0.028
40 0.028
41 0.0107
42 0.0107
43 0.0107
44 0.0107
45 0.0107
46 0.0107
47 0.0107
48 0.0107
49 0.0107
50 0.0107
51 0.0107
$EndElementData
$ElementData
1
"Attribute:SectionDimension5"
1
0
3
0
1
51
1 0.027
2 0.027
3 0.027
4 0.027
5 0.027
6 0.027
7 0.027
8 0.027
9 0.027
10 0.027
11 0.027
12 0.027
13 0.027
14 0.027
15 0.027
16 0.027
17 0.027
18 0.027
19 0.027
20 0.027
21 0.027
22 0.027
23 0.027
24 0.027
25 0.027
26 0.027
27 0.027
28 0.027
29 0.027
30 0.027
31 0.027
32 0.027
33 0.027
34 0.027
35 0.027
36 0.027
37 0.027
38 0.027
39 0.027
40 0.027
41 0.015
42 0.015
43 0.015
44 0.015
45 0.015
46 0.015
47 0.015
48 0.015
49 0.015
50 0.015
51 0.015
$EndElementData
$ElementData
1
"Attribute:SectionShape"
1
0
3
0
1
51
1 5
2 5
3 5
4 5
5 5
6 5
7 5
8 5
9 5
10 5
11 5
12 5
13 5
14 5
15 5
16 5
17 5
18 5
19 5
20 5
21 5
22 5
23 5
24 5
25 5
26 5
27 5
28 5
29 5
30 5
31 5
32 5
33 5
34 5
35 5
36 5
37 5
38 5
39 5
40 5
41 5
42 5
43 5
44 5
45 5
46 5
47 5
48 5
49 5
50 5
51 5
$EndElementData
$ElementData
1
"Attribute:ShearAreaY"
1
0
3
0
1
51
1 0.006643954150762147
2 0.006643954150762147
3 0.006643954150762147
4 0.006643954150762147
5 0.006643954150762147
6 0.006643954150762147
7 0.006643954150762147
8 0.006643954150762147
9 0.006643954150762147
10 0.006643954150762147
11 0.006643954150762147
12 0.006643954150762147
13 0.006643954150762147
14 0.006643954150762147
15 0.006643954150762147
16 0.006643954150762147
17 0.006643954150762147
18 0.006643954150762147
19 0.006643954150762147
20 0.006643954150762147
21 0.006643954150762147
22 0.006643954150762147
23 0.006643954150762147
24 0.006643954150762147
25 0.006643954150762147
26 0.006643954150762147
27 0.006643954150762147
28 0.006643954150762147
29 0.006643954150762147
30 0.006643954150762147
31 0.006643954150762147
32 0.006643954150762147
33 0.006643954150762147
34 0.006643954150762147
35 0.006643954150762147
36 0.006643954150762147
37 0.006643954150762147
38 0.006643954150762147
39 0.006643954150762147
40 0.006643954150762147
41 0.0020268632069733684
42 0.0020268632069733684
43 0.0020268632069733684
44 0.0020268632069733684
45 0.0020268632069733684
46 0.0020268632069733684
47 0.0020268632069733684
48 0.0020268632069733684
49 0.0020268632069733684
50 0.0020268632069733684
51 0.0020268632069733684
$EndElementData
$ElementData
1
"Attribute:ShearAreaZ"
1
0
3
0
1
51
1 0.014274509803921568
2 0.014274509803921568
3 0.014274509803921568
4 0.014274509803921568
5 0.014274509803921568
6 0.014274509803921568
7 0.014274509803921568
8 0.014274509803921568
9 0.014274509803921568
10 0.014274509803921568
11 0.014274509803921568
12 0.014274509803921568
13 0.014274509803921568
14 0.014274509803921568
15 0.014274509803921568
16 0.014274509803921568
17 0.014274509803921568
18 0.014274509803921568
19 0.014274509803921568
20 0.014274509803921568
21 0.014274509803921568
22 0.014274509803921568
23 0.014274509803921568
24 0.014274509803921568
25 0.014274509803921568
26 0.014274509803921568
27 0.014274509803921568
28 0.014274509803921568
29 0.014274509803921568
30 0.014274509803921568
31 0.014274509803921568
32 0.014274509803921568
33 0.014274509803921568
34 0.014274509803921568
35 0.014274509803921568
36 0.014274509803921568
37 0.014274509803921568
38 0.014274509803921568
39 0.014274509803921568
40 0.014274509803921568
41 0.0027274509803921565
42 0.0027274509803921565
43 0.0027274509803921565
44 0.0027274509803921565
45 0.0027274509803921565
46 0.0027274509803921565
47 0.0027274509803921565
48 0.0027274509803921565
49 0.0027274509803921565
50 0.0027274509803921565
51 0.0027274509803921565
$EndElementData
$ElementData
1
"Attribute:TorsionConstant"
1
0
3
0
1
51
1 5.384421066339269e-06
2 5.384421066339269e-06
3 5.384421066339269e-06
4 5.384421066339269e-06
5 5.384421066339269e-06
6 5.384421066339269e-06
7 5.384421066339269e-06
8 5.384421066339269e-06
9 5.384421066339269e-06
10 5.384421066339269e-06
11 5.384421066339269e-06
12 5.384421066339269e-06
13 5.384421066339269e-06
14 5.384421066339269e-06
15 5.384421066339269e-06
16 5.384421066339269e-06
17 5.384421066339269e-06
18 5.384421066339269e-06
19 5.384421066339269e-06
20 5.384421066339269e-06
21 5.384421066339269e-06
22 5.384421066339269e-06
23 5.384421066339269e-06
24 5.384421066339269e-06
25 5.384421066339269e-06
26 5.384421066339269e-06
27 5.384421066339269e-06
28 5.384421066339269e-06
29 5.384421066339269e-06
30 5.384421066339269e-06
31 5.384421066339269e-06
32 5.384421066339269e-06
33 5.384421066339269e-06
34 5.384421066339269e-06
35 5.384421066339269e-06
36 5.384421066339269e-06
37 5.384421066339269e-06
38 5.384421066339269e-06
39 5.384421066339269e-06
40 5.384421066339269e-06
41 2.011849577943933e-07
42 2.011849577943933e-07
43 2.011849577943933e-07
44 2.011849577943933e-07
45 2.011849577943933e-07
46 2.011849577943933e-07
47 2.011849577943933e-07
48 2.011849577943933e-07
49 2.011849577943933e-07
50 2.011849577943933e-07
51 2.011849577943933e-07
$EndElementData
$ElementData
1
"Attribute:UniformLoadGlobalX"
1
0
3
0
1
51
1 0
2 0
3 0
4 0
5 0
6 0
7 0
8 0
9 0
10 0
11 0
12 0
13 0
14 0
15 0
16 0
17 0
18 0
19 0
20 0
21 0
22 0
23 0
24 0
25 0
26 0
27 0
28 0
29 0
30 0
31 0
32 0
33 0
34 0
35 0
36 0
37 0
38 0
39 0
40 0
41 0
42 0
43 0
44 0
45 0
46 0
47 0
48 0
49 0
50 0
51 0
$EndElementData
$ElementData
1
"Attribute:UniformLoadGlobalY"
1
0
3
0
1
51
1 -20000
2 -20000
3 -20000
4 -20000
5 -20000
6 -20000
7 -20000
8 -20000
9 -20000
10 -20000
11 -20000
12 -20000
13 -20000
14 -20000
15 -20000
16 -20000
17 -20000
18 -20000
19 -20000
20 -20000
21 -20000
22 -20000
23 -20000
24 -20000
25 -20000
26 -20000
27 -20000
28 -20000
29 -20000
30 -20000
31 -20000
32 -20000
33 -20000
34 -20000
35 -20000
36 -20000
37 -20000
38 -20000
39 -20000
40 -20000
41 0
42 0
43 0
44 0
45 0
46 0
47 0
48 0
49 0
50 0
51 0
$EndElementData
$ElementData
1
"Attribute:UniformLoadGlobalZ"
1
0
3
0
1
51
1 0
2 0
3 0
4 0
5 0
6 0
7 0
8 0
9 0
10 0
11 0
12 0
13 0
14 0
15 0
16 0
17 0
18 0
19 0
20 0
21 0
22 0
23 0
24 0
25 0
26 0
27 0
28 0
29 0
30 0
31 0
32 0
33 0
34 0
35 0
36 0
37 0
38 0
39 0
40 0
41 0
42 0
43 0
44 0
45 0
46 0
47 0
48 0
49 0
50 0
51 0
$EndElementData
$ElementData
1
"Attribute:UniformLoadLocalX"
1
0
3
0
1
51
1 0
2 0
3 0
4 0
5 0
6 0
7 0
8 0
9 0
10 0
11 0
12 0
13 0
14 0
15 0
16 0
17 0
18 0
19 0
20 0
21 0
22 0
23 0
24 0
25 0
26 0
27 0
28 0
29 0
30 0
31 0
32 0
33 0
34 0
35 0
36 0
37 0
38 0
39 0
40 0
41 0
42 0
43 0
44 0
45 0
46 0
47 0
48 0
49 0
50 0
51 0
$EndElementData
$ElementData
1
"Attribute:UniformLoadLocalY"
1
0
3
0
1
51
1 0
2 0
3 0
4 0
5 0
6 0
7 0
8 0
9 0
10 0
11 0
12 0
13 0
14 0
15 0
16 0
17 0
18 0
19 0
20 0
21 0
22 0
23 0
24 0
25 0
26 0
27 0
28 0
29 0
30 0
31 0
32 0
33 0
34 0
35 0
36 0
37 0
38 0
39 0
40 0
41 0
42 0
43 0
44 0
45 0
46 0
47 0
48 0
49 0
50 0
51 0
$EndElementData
$ElementData
1
"Attribute:UniformLoadLocalZ"
1
0
3
0
1
51
1 0
2 0
3 0
4 0
5 0
6 0
7 0
8 0
9 0
10 0
11 0
12 0
13 0
14 0
15 0
16 0
17 0
18 0
19 0
20 0
21 0
22 0
23 0
24 0
25 0
26 0
27 0
28 0
29 0
30 0
31 0
32 0
33 0
34 0
35 0
36 0
37 0
38 0
39 0
40 0
41 0
42 0
43 0
44 0
45 0
46 0
47 0
48 0
49 0
50 0
51 0
$EndElementData
$ElementData
1
"BeamOrientation"
1
0
3
0
3
51
1 0 0 0
2 0 0 0
3 0 0 0
4 0 0 0
5 0 0 0
6 0 0 0
7 0 0 0
8 0 0 0
9 0 0 0
10 0 0 0
11 0 0 0
12 0 0 0
13 0 0 0
14 0 0 0
15 0 0 0
16 0 0 0
17 0 0 0
18 0 0 0
19 0 0 0
20 0 0 0
21 0 0 0
22 0 0 0
23 0 0 0
24 0 0 0
25 0 0 0
26 0 0 0
27 0 0 0
28 0 0 0
29 0 0 0
30 0 0 0
31 0 0 0
32 0 0 0
33 0 0 0
34 0 0 0
35 0 0 0
36 0 0 0
37 0 0 0
38 0 0 0
39 0 0 0
40 0 0 0
41 0 0 0
42 0 0 0
43 0 0 0
44 0 0 0
45 0 0 0
46 0 0 0
47 0 0 0
48 0 0 0
49 0 0 0
50 0 0 0
51 0 0 0
$EndElementData
$AnafData
1
1
GLOBAL 3 1
"Gravity"
0 -9.80665 0
$EndAnafData
