$MeshFormat
4.1 0 8
$EndMeshFormat
$PhysicalNames
5
1 1 "Material:Structural Steel S355 (EN 10025)"
1 2 "Section:IPE 200"
1 3 "Section:IPE 270"
1 4 "Section:HEB 240"
1 5 "Section:HEB 280"
$EndPhysicalNames
$Entities
0 4 0 0
1 0 0 0 16 2.5 3 2 1 5 0
2 0 0 0 16 2.5 3 2 1 4 0
3 0 0 0 16 0 3 2 1 3 0
4 0 2.5 0 16 2.5 3 2 1 2 0
$EndEntities
$Nodes
1 36 1 36
1 1 0 36
1
2
3
4
5
6
7
8
9
10
11
12
13
14
15
16
17
18
19
20
21
22
23
24
25
26
27
28
29
30
31
32
33
34
35
36
0 0 0
0 2.5 0
2 0 0
2 2.5 0
4 0 0
4 2.5 0
6 0 0
6 2.5 0
8 0 0
8 2.5 0
10 0 0
10 2.5 0
12 0 0
12 2.5 0
14 0 0
14 2.5 0
16 0 0
16 2.5 0
0 0 3
0 2.5 3
2 0 3
2 2.5 3
4 0 3
4 2.5 3
6 0 3
6 2.5 3
8 0 3
8 2.5 3
10 0 3
10 2.5 3
12 0 3
12 2.5 3
14 0 3
14 2.5 3
16 0 3
16 2.5 3
$EndNodes
$Elements
4 68 1 68
1 1 1 32
1 1 3
2 3 5
3 5 7
4 7 9
5 9 11
6 11 13
7 13 15
8 15 17
9 2 4
10 4 6
11 6 8
12 8 10
13 10 12
14 12 14
15 14 16
16 16 18
26 19 21
27 21 23
28 23 25
29 25 27
30 27 29
31 29 31
32 31 33
33 33 35
34 20 22
35 22 24
36 24 26
37 26 28
38 28 30
39 30 32
40 32 34
41 34 36
1 2 1 18
17 1 2
18 3 4
19 5 6
20 7 8
21 9 10
22 11 12
23 13 14
24 15 16
25 17 18
42 19 20
43 21 22
44 23 24
45 25 26
46 27 28
47 29 30
48 31 32
49 33 34
50 35 36
1 3 1 9
51 1 19
53 3 21
55 5 23
57 7 25
59 9 27
61 11 29
63 13 31
65 15 33
67 17 35
1 4 1 9
52 2 20
54 4 22
56 6 24
58 8 26
60 10 28
62 12 30
64 14 32
66 16 34
68 18 36
$EndElements
$NodeData
1
"Fixity"
1
0
3
0
3
36
1 1 1 1
2 0 0 0
3 0 0 0
4 0 0 0
5 0 0 0
6 0 0 0
7 0 0 0
8 0 0 0
9 0 0 0
10 0 0 0
11 0 0 0
12 0 0 0
13 0 0 0
14 0 0 0
15 0 0 0
16 0 0 0
17 0 1 1
18 0 0 0
19 0 1 1
20 0 0 0
21 0 0 0
22 0 0 0
23 0 0 0
24 0 0 0
25 0 0 0
26 0 0 0
27 0 0 0
28 0 0 0
29 0 0 0
30 0 0 0
31 0 0 0
32 0 0 0
33 0 0 0
34 0 0 0
35 0 1 0
36 0 0 0
$EndNodeData
$ElementData
1
"CrossSectionArea"
1
0
3
0
1
68
1 0.013136442631532283
2 0.013136442631532283
3 0.013136442631532283
4 0.013136442631532283
5 0.013136442631532283
6 0.013136442631532283
7 0.013136442631532283
8 0.013136442631532283
9 0.013136442631532283
10 0.013136442631532283
11 0.013136442631532283
12 0.013136442631532283
13 0.013136442631532283
14 0.013136442631532283
15 0.013136442631532283
16 0.013136442631532283
17 0.0105985576397669
18 0.0105985576397669
19 0.0105985576397669
20 0.0105985576397669
21 0.0105985576397669
22 0.0105985576397669
23 0.0105985576397669
24 0.0105985576397669
25 0.0105985576397669
26 0.013136442631532283
27 0.013136442631532283
28 0.013136442631532283
29 0.013136442631532283
30 0.013136442631532283
31 0.013136442631532283
32 0.013136442631532283
33 0.013136442631532283
34 0.013136442631532283
35 0.013136442631532283
36 0.013136442631532283
37 0.013136442631532283
38 0.013136442631532283
39 0.013136442631532283
40 0.013136442631532283
41 0.013136442631532283
42 0.0105985576397669
43 0.0105985576397669
44 0.0105985576397669
45 0.0105985576397669
46 0.0105985576397669
47 0.0105985576397669
48 0.0105985576397669
49 0.0105985576397669
50 0.0105985576397669
51 0.004594501652942295
52 0.002848410657883071
53 0.004594501652942295
54 0.002848410657883071
55 0.004594501652942295
56 0.002848410657883071
57 0.004594501652942295
58 0.002848410657883071
59 0.004594501652942295
60 0.002848410657883071
61 0.004594501652942295
62 0.002848410657883071
63 0.004594501652942295
64 0.002848410657883071
65 0.004594501652942295
66 0.002848410657883071
67 0.004594501652942295
68 0.002848410657883071
$EndElementData
$ElementData
1
"Attribute:ElementFormulation"
1
0
3
0
1
68
1 1
2 1
3 1
4 1
5 1
6 1
7 1
8 1
9 1
10 1
11 1
12 1
13 1
14 1
15 1
16 1
17 1
18 1
19 1
20 1
21 1
22 1
23 1
24 1
25 1
26 1
27 1
28 1
29 1
30 1
31 1
32 1
33 1
34 1
35 1
36 1
37 1
38 1
39 1
40 1
41 1
42 1
43 1
44 1
45 1
46 1
47 1
48 1
49 1
50 1
51 1
52 1
53 1
54 1
55 1
56 1
57 1
58 1
59 1
60 1
61 1
62 1
63 1
64 1
65 1
66 1
67 1
68 1
$EndElementData
$ElementData
1
"MaterialID"
1
0
3
0
1
68
1 3
2 3
3 3
4 3
5 3
6 3
7 3
8 3
9 3
10 3
11 3
12 3
13 3
14 3
15 3
16 3
17 3
18 3
19 3
20 3
21 3
22 3
23 3
24 3
25 3
26 3
27 3
28 3
29 3
30 3
31 3
32 3
33 3
34 3
35 3
36 3
37 3
38 3
39 3
40 3
41 3
42 3
43 3
44 3
45 3
46 3
47 3
48 3
49 3
50 3
51 3
52 3
53 3
54 3
55 3
56 3
57 3
58 3
59 3
60 3
61 3
62 3
63 3
64 3
65 3
66 3
67 3
68 3
$EndElementData
$ElementData
1
"Attribute:SecondMomentY"
1
0
3
0
1
68
1 6.594522068788101e-05
2 6.594522068788101e-05
3 6.594522068788101e-05
4 6.594522068788101e-05
5 6.594522068788101e-05
6 6.594522068788101e-05
7 6.594522068788101e-05
8 6.594522068788101e-05
9 6.594522068788101e-05
10 6.594522068788101e-05
11 6.594522068788101e-05
12 6.594522068788101e-05
13 6.594522068788101e-05
14 6.594522068788101e-05
15 6.594522068788101e-05
16 6.594522068788101e-05
17 3.922658661093338e-05
18 3.922658661093338e-05
19 3.922658661093338e-05
20 3.922658661093338e-05
21 3.922658661093338e-05
22 3.922658661093338e-05
23 3.922658661093338e-05
24 3.922658661093338e-05
25 3.922658661093338e-05
26 6.594522068788101e-05
27 6.594522068788101e-05
28 6.594522068788101e-05
29 6.594522068788101e-05
30 6.594522068788101e-05
31 6.594522068788101e-05
32 6.594522068788101e-05
33 6.594522068788101e-05
34 6.594522068788101e-05
35 6.594522068788101e-05
36 6.594522068788101e-05
37 6.594522068788101e-05
38 6.594522068788101e-05
39 6.594522068788101e-05
40 6.594522068788101e-05
41 6.594522068788101e-05
42 3.922658661093338e-05
43 3.922658661093338e-05
44 3.922658661093338e-05
45 3.922658661093338e-05
46 3.922658661093338e-05
47 3.922658661093338e-05
48 3.922658661093338e-05
49 3.922658661093338e-05
50 3.922658661093338e-05
51 4.198687842931851e-06
52 1.423683272853165e-06
53 4.198687842931851e-06
54 1.423683272853165e-06
55 4.198687842931851e-06
56 1.423683272853165e-06
57 4.198687842931851e-06
58 1.423683272853165e-06
59 4.198687842931851e-06
60 1.423683272853165e-06
61 4.198687842931851e-06
62 1.423683272853165e-06
63 4.198687842931851e-06
64 1.423683272853165e-06
65 4.198687842931851e-06
66 1.423683272853165e-06
67 4.198687842931851e-06
68 1.423683272853165e-06
$EndElementData
$ElementData
1
"Attribute:SecondMomentZ"
1
0
3
0
1
68
1 0.00019270273077217668
2 0.00019270273077217668
3 0.00019270273077217668
4 0.00019270273077217668
5 0.00019270273077217668
6 0.00019270273077217668
7 0.00019270273077217668
8 0.00019270273077217668
9 0.00019270273077217668
10 0.00019270273077217668
11 0.00019270273077217668
12 0.00019270273077217668
13 0.00019270273077217668
14 0.00019270273077217668
15 0.00019270273077217668
16 0.00019270273077217668
17 0.00011259304721624358
18 0.00011259304721624358
19 0.00011259304721624358
20 0.00011259304721624358
21 0.00011259304721624358
22 0.00011259304721624358
23 0.00011259304721624358
24 0.00011259304721624358
25 0.00011259304721624358
26 0.00019270273077217668
27 0.00019270273077217668
28 0.00019270273077217668
29 0.00019270273077217668
30 0.00019270273077217668
31 0.00019270273077217668
32 0.00019270273077217668
33 0.00019270273077217668
34 0.00019270273077217668
35 0.00019270273077217668
36 0.00019270273077217668
37 0.00019270273077217668
38 0.00019270273077217668
39 0.00019270273077217668
40 0.00019270273077217668
41 0.00019270273077217668
42 0.00011259304721624358
43 0.00011259304721624358
44 0.00011259304721624358
45 0.00011259304721624358
46 0.00011259304721624358
47 0.00011259304721624358
48 0.00011259304721624358
49 0.00011259304721624358
50 0.00011259304721624358
51 5.789782939631648e-05
52 1.9431682510835934e-05
53 5.789782939631648e-05
54 1.9431682510835934e-05
55 5.789782939631648e-05
56 1.9431682510835934e-05
57 5.789782939631648e-05
58 1.9431682510835934e-05
59 5.789782939631648e-05
60 1.9431682510835934e-05
61 5.789782939631648e-05
62 1.9431682510835934e-05
63 5.789782939631648e-05
64 1.9431682510835934e-05
65 5.789782939631648e-05
66 1.9431682510835934e-05
67 5.789782939631648e-05
68 1.9431682510835934e-05
$EndElementData
$ElementData
1
"Attribute:SectionDimension1"
1
0
3
0
1
68
1 0.28
2 0.28
3 0.28
4 0.28
5 0.28
6 0.28
7 0.28
8 0.28
9 0.28
10 0.28
11 0.28
12 0.28
13 0.28
14 0.28
15 0.28
16 0.28
17 0.24
18 0.24
19 0.24
20 0.24
21 0.24
22 0.24
23 0.24
24 0.24
25 0.24
26 0.28
27 0.28
28 0.28
29 0.28
30 0.28
31 0.28
32 0.28
33 0.28
34 0.28
35 0.28
36 0.28
37 0.28
38 0.28
39 0.28
40 0.28
41 0.28
42 0.24
43 0.24
44 0.24
45 0.24
46 0.24
47 0.24
48 0.24
49 0.24
50 0.24
51 0.27
52 0.2
53 0.27
54 0.2
55 0.27
56 0.2
57 0.27
58 0.2
59 0.27
60 0.2
61 0.27
62 0.2
63 0.27
64 0.2
65 0.27
66 0.2
67 0.27
68 0.2
$EndElementData
$ElementData
1
"Attribute:SectionDimension2"
1
0
3
0
1
68
1 0.28
2 0.28
3 0.28
4 0.28
5 0.28
6 0.28
7 0.28
8 0.28
9 0.28
10 0.28
11 0.28
12 0.28
13 0.28
14 0.28
15 0.28
16 0.28
17 0.24
18 0.24
19 0.24
20 0.24
21 0.24
22 0.24
23 0.24
24 0.24
25 0.24
26 0.28
27 0.28
28 0.28
29 0.28
30 0.28
31 0.28
32 0.28
33 0.28
34 0.28
35 0.28
36 0.28
37 0.28
38 0.28
39 0.28
40 0.28
41 0.28
42 0.24
43 0.24
44 0.24
45 0.24
46 0.24
47 0.24
48 0.24
49 0.24
50 0.24
51 0.135
52 0.1
53 0.135
54 0.1
55 0.135
56 0.1
57 0.135
58 0.1
59 0.135
60 0.1
61 0.135
62 0.1
63 0.135
64 0.1
65 0.135
66 0.1
67 0.135
68 0.1
$EndElementData
$ElementData
1
"Attribute:SectionDimension3"
1
0
3
0
1
68
1 0.0105
2 0.0105
3 0.0105
4 0.0105
5 0.0105
6 0.0105
7 0.0105
8 0.0105
9 0.0105
10 0.0105
11 0.0105
12 0.0105
13 0.0105
14 0.0105
15 0.0105
16 0.0105
17 0.01
18 0.01
19 0.01
20 0.01
21 0.01
22 0.01
23 0.01
24 0.01
25 0.01
26 0.0105
27 0.0105
28 0.0105
29 0.0105
30 0.0105
31 0.0105
32 0.0105
33 0.0105
34 0.0105
35 0.0105
36 0.0105
37 0.0105
38 0.0105
39 0.0105
40 0.0105
41 0.0105
42 0.01
43 0.01
44 0.01
45 0.01
46 0.01
47 0.01
48 0.01
49 0.01
50 0.01
51 0.0066
52 0.0056
53 0.0066
54 0.0056
55 0.0066
56 0.0056
57 0.0066
58 0.0056
59 0.0066
60 0.0056
61 0.0066
62 0.0056
63 0.0066
64 0.0056
65 0.0066
66 0.0056
67 0.0066
68 0.0056
$EndElementData
$ElementData
1
"Attribute:SectionDimension4"
1
0
3
0
1
68
1 0.018
2 0.018
3 0.018
4 0.018
5 0.018
6 0.018
7 0.018
8 0.018
9 0.018
10 0.018
11 0.018
12 0.018
13 0.018
14 0.018
15 0.018
16 0.018
17 0.017
18 0.017
19 0.017
20 0.017
21 0.017
22 0.017
23 0.017
24 0.017
25 0.017
26 0.018
27 0.018
28 0.018
29 0.018
30 0.018
31 0.018
32 0.018
33 0.018
34 0.018
35 0.018
36 0.018
37 0.018
38 0.018
39 0.018
40 0.018
41 0.018
42 0.017
43 0.017
44 0.017
45 0.017
46 0.017
47 0.017
48 0.017
49 0.017
50 0.017
51 0.0102
52 0.0085
53 0.0102
54 0.0085
55 0.0102
56 0.0085
57 0.0102
58 0.0085
59 0.0102
60 0.0085
61 0.0102
62 0.0085
63 0.0102
64 0.0085
65 0.0102
66 0.0085
67 0.0102
68 0.0085
$EndElementData
$ElementData
1
"Attribute:SectionDimension5"
1
0
3
0
1
68
1 0.024
2 0.024
3 0.024
4 0.024
5 0.024
6 0.024
7 0.024
8 0.024
9 0.024
10 0.024
11 0.024
12 0.024
13 0.024
14 0.024
15 0.024
16 0.024
17 0.021
18 0.021
19 0.021
20 0.021
21 0.021
22 0.021
23 0.021
24 0.021
25 0.021
26 0.024
27 0.024
28 0.024
29 0.024
30 0.024
31 0.024
32 0.024
33 0.024
34 0.024
35 0.024
36 0.024
37 0.024
38 0.024
39 0.024
40 0.024
41 0.024
42 0.021
43 0.021
44 0.021
45 0.021
46 0.021
47 0.021
48 0.021
49 0.021
50 0.021
51 0.015
52 0.012
53 0.015
54 0.012
55 0.015
56 0.012
57 0.015
58 0.012
59 0.015
60 0.012
61 0.015
62 0.012
63 0.015
64 0.012
65 0.015
66 0.012
67 0.015
68 0.012
$EndElementData
$ElementData
1
"Attribute:SectionShape"
1
0
3
0
1
68
1 5
2 5
3 5
4 5
5 5
6 5
7 5
8 5
9 5
10 5
11 5
12 5
13 5
14 5
15 5
16 5
17 5
18 5
19 5
20 5
21 5
22 5
23 5
24 5
25 5
26 5
27 5
28 5
29 5
30 5
31 5
32 5
33 5
34 5
35 5
36 5
37 5
38 5
39 5
40 5
41 5
42 5
43 5
44 5
45 5
46 5
47 5
48 5
49 5
50 5
51 5
52 5
53 5
54 5
55 5
56 5
57 5
58 5
59 5
60 5
61 5
62 5
63 5
64 5
65 5
66 5
67 5
68 5
$EndElementData
$ElementData
1
"Attribute:ShearAreaY"
1
0
3
0
1
68
1 0.0025831742607177973
2 0.0025831742607177973
3 0.0025831742607177973
4 0.0025831742607177973
5 0.0025831742607177973
6 0.0025831742607177973
7 0.0025831742607177973
8 0.0025831742607177973
9 0.0025831742607177973
10 0.0025831742607177973
11 0.0025831742607177973
12 0.0025831742607177973
13 0.0025831742607177973
14 0.0025831742607177973
15 0.0025831742607177973
16 0.0025831742607177973
17 0.00208351189797852
18 0.00208351189797852
19 0.00208351189797852
20 0.00208351189797852
21 0.00208351189797852
22 0.00208351189797852
23 0.00208351189797852
24 0.00208351189797852
25 0.00208351189797852
26 0.0025831742607177973
27 0.0025831742607177973
28 0.0025831742607177973
29 0.0025831742607177973
30 0.0025831742607177973
31 0.0025831742607177973
32 0.0025831742607177973
33 0.0025831742607177973
34 0.0025831742607177973
35 0.0025831742607177973
36 0.0025831742607177973
37 0.0025831742607177973
38 0.0025831742607177973
39 0.0025831742607177973
40 0.0025831742607177973
41 0.0025831742607177973
42 0.00208351189797852
43 0.00208351189797852
44 0.00208351189797852
45 0.00208351189797852
46 0.00208351189797852
47 0.00208351189797852
48 0.00208351189797852
49 0.00208351189797852
50 0.00208351189797852
51 0.0017028436026690532
52 0.0010633841173523775
53 0.0017028436026690532
54 0.0010633841173523775
55 0.0017028436026690532
56 0.0010633841173523775
57 0.0017028436026690532
58 0.0010633841173523775
59 0.0017028436026690532
60 0.0010633841173523775
61 0.0017028436026690532
62 0.0010633841173523775
63 0.0017028436026690532
64 0.0010633841173523775
65 0.0017028436026690532
66 0.0010633841173523775
67 0.0017028436026690532
68 0.0010633841173523775
$EndElementData
$ElementData
1
"Attribute:ShearAreaZ"
1
0
3
0
1
68
1 0.008564705882352941
2 0.008564705882352941
3 0.008564705882352941
4 0.008564705882352941
5 0.008564705882352941
6 0.008564705882352941
7 0.008564705882352941
8 0.008564705882352941
9 0.008564705882352941
10 0.008564705882352941
11 0.008564705882352941
12 0.008564705882352941
13 0.008564705882352941
14 0.008564705882352941
15 0.008564705882352941
16 0.008564705882352941
17 0.006933333333333334
18 0.006933333333333334
19 0.006933333333333334
20 0.006933333333333334
21 0.006933333333333334
22 0.006933333333333334
23 0.006933333333333334
24 0.006933333333333334
25 0.006933333333333334
26 0.008564705882352941
27 0.008564705882352941
28 0.008564705882352941
29 0.008564705882352941
30 0.008564705882352941
31 0.008564705882352941
32 0.008564705882352941
33 0.008564705882352941
34 0.008564705882352941
35 0.008564705882352941
36 0.008564705882352941
37 0.008564705882352941
38 0.008564705882352941
39 0.008564705882352941
40 0.008564705882352941
41 0.008564705882352941
42 0.006933333333333334
43 0.006933333333333334
44 0.006933333333333334
45 0.006933333333333334
46 0.006933333333333334
47 0.006933333333333334
48 0.006933333333333334
49 0.006933333333333334
50 0.006933333333333334
51 0.0023400000000000005
52 0.0014444444444444446
53 0.0023400000000000005
54 0.0014444444444444446
55 0.0023400000000000005
56 0.0014444444444444446
57 0.0023400000000000005
58 0.0014444444444444446
59 0.0023400000000000005
60 0.0014444444444444446
61 0.0023400000000000005
62 0.0014444444444444446
63 0.0023400000000000005
64 0.0014444444444444446
65 0.0023400000000000005
66 0.0014444444444444446
67 0.0023400000000000005
68 0.0014444444444444446
$EndElementData
$ElementData
1
"Attribute:TorsionConstant"
1
0
3
0
1
68
1 1.4371648391180264e-06
2 1.4371648391180264e-06
3 1.4371648391180264e-06
4 1.4371648391180264e-06
5 1.4371648391180264e-06
6 1.4371648391180264e-06
7 1.4371648391180264e-06
8 1.4371648391180264e-06
9 1.4371648391180264e-06
10 1.4371648391180264e-06
11 1.4371648391180264e-06
12 1.4371648391180264e-06
13 1.4371648391180264e-06
14 1.4371648391180264e-06
15 1.4371648391180264e-06
16 1.4371648391180264e-06
17 1.0268573134682905e-06
18 1.0268573134682905e-06
19 1.0268573134682905e-06
20 1.0268573134682905e-06
21 1.0268573134682905e-06
22 1.0268573134682905e-06
23 1.0268573134682905e-06
24 1.0268573134682905e-06
25 1.0268573134682905e-06
26 1.4371648391180264e-06
27 1.4371648391180264e-06
28 1.4371648391180264e-06
29 1.4371648391180264e-06
30 1.4371648391180264e-06
31 1.4371648391180264e-06
32 1.4371648391180264e-06
33 1.4371648391180264e-06
34 1.4371648391180264e-06
35 1.4371648391180264e-06
36 1.4371648391180264e-06
37 1.4371648391180264e-06
38 1.4371648391180264e-06
39 1.4371648391180264e-06
40 1.4371648391180264e-06
41 1.4371648391180264e-06
42 1.0268573134682905e-06
43 1.0268573134682905e-06
44 1.0268573134682905e-06
45 1.0268573134682905e-06
46 1.0268573134682905e-06
47 1.0268573134682905e-06
48 1.0268573134682905e-06
49 1.0268573134682905e-06
50 1.0268573134682905e-06
51 1.5944797522382753e-07
52 6.980120130097939e-08
53 1.5944797522382753e-07
54 6.980120130097939e-08
55 1.5944797522382753e-07
56 6.980120130097939e-08
57 1.5944797522382753e-07
58 6.980120130097939e-08
59 1.5944797522382753e-07
60 6.980120130097939e-08
61 1.5944797522382753e-07
62 6.980120130097939e-08
63 1.5944797522382753e-07
64 6.980120130097939e-08
65 1.5944797522382753e-07
66 6.980120130097939e-08
67 1.5944797522382753e-07
68 6.980120130097939e-08
$EndElementData
$ElementData
1
"Attribute:UniformLoadGlobalX"
1
0
3
0
1
68
1 0
2 0
3 0
4 0
5 0
6 0
7 0
8 0
9 0
10 0
11 0
12 0
13 0
14 0
15 0
16 0
17 0
18 0
19 0
20 0
21 0
22 0
23 0
24 0
25 0
26 0
27 0
28 0
29 0
30 0
31 0
32 0
33 0
34 0
35 0
36 0
37 0
38 0
39 0
40 0
41 0
42 0
43 0
44 0
45 0
46 0
47 0
48 0
49 0
50 0
51 0
52 0
53 0
54 0
55 0
56 0
57 0
58 0
59 0
60 0
61 0
62 0
63 0
64 0
65 0
66 0
67 0
68 0
$EndElementData
$ElementData
1
"Attribute:UniformLoadGlobalY"
1
0
3
0
1
68
1 -8000
2 -8000
3 -8000
4 -8000
5 -8000
6 -8000
7 -8000
8 -8000
9 0
10 0
11 0
12 0
13 0
14 0
15 0
16 0
17 0
18 0
19 0
20 0
21 0
22 0
23 0
24 0
25 0
26 -8000
27 -8000
28 -8000
29 -8000
30 -8000
31 -8000
32 -8000
33 -8000
34 0
35 0
36 0
37 0
38 0
39 0
40 0
41 0
42 0
43 0
44 0
45 0
46 0
47 0
48 0
49 0
50 0
51 0
52 0
53 0
54 0
55 0
56 0
57 0
58 0
59 0
60 0
61 0
62 0
63 0
64 0
65 0
66 0
67 0
68 0
$EndElementData
$ElementData
1
"Attribute:UniformLoadGlobalZ"
1
0
3
0
1
68
1 0
2 0
3 0
4 0
5 0
6 0
7 0
8 0
9 0
10 0
11 0
12 0
13 0
14 0
15 0
16 0
17 0
18 0
19 0
20 0
21 0
22 0
23 0
24 0
25 0
26 0
27 0
28 0
29 0
30 0
31 0
32 0
33 0
34 0
35 0
36 0
37 0
38 0
39 0
40 0
41 0
42 0
43 0
44 0
45 0
46 0
47 0
48 0
49 0
50 0
51 0
52 0
53 0
54 0
55 0
56 0
57 0
58 0
59 0
60 0
61 0
62 0
63 0
64 0
65 0
66 0
67 0
68 0
$EndElementData
$ElementData
1
"Attribute:UniformLoadLocalX"
1
0
3
0
1
68
1 0
2 0
3 0
4 0
5 0
6 0
7 0
8 0
9 0
10 0
11 0
12 0
13 0
14 0
15 0
16 0
17 0
18 0
19 0
20 0
21 0
22 0
23 0
24 0
25 0
26 0
27 0
28 0
29 0
30 0
31 0
32 0
33 0
34 0
35 0
36 0
37 0
38 0
39 0
40 0
41 0
42 0
43 0
44 0
45 0
46 0
47 0
48 0
49 0
50 0
51 0
52 0
53 0
54 0
55 0
56 0
57 0
58 0
59 0
60 0
61 0
62 0
63 0
64 0
65 0
66 0
67 0
68 0
$EndElementData
$ElementData
1
"Attribute:UniformLoadLocalY"
1
0
3
0
1
68
1 0
2 0
3 0
4 0
5 0
6 0
7 0
8 0
9 0
10 0
11 0
12 0
13 0
14 0
15 0
16 0
17 0
18 0
19 0
20 0
21 0
22 0
23 0
24 0
25 0
26 0
27 0
28 0
29 0
30 0
31 0
32 0
33 0
34 0
35 0
36 0
37 0
38 0
39 0
40 0
41 0
42 0
43 0
44 0
45 0
46 0
47 0
48 0
49 0
50 0
51 0
52 0
53 0
54 0
55 0
56 0
57 0
58 0
59 0
60 0
61 0
62 0
63 0
64 0
65 0
66 0
67 0
68 0
$EndElementData
$ElementData
1
"Attribute:UniformLoadLocalZ"
1
0
3
0
1
68
1 0
2 0
3 0
4 0
5 0
6 0
7 0
8 0
9 0
10 0
11 0
12 0
13 0
14 0
15 0
16 0
17 0
18 0
19 0
20 0
21 0
22 0
23 0
24 0
25 0
26 0
27 0
28 0
29 0
30 0
31 0
32 0
33 0
34 0
35 0
36 0
37 0
38 0
39 0
40 0
41 0
42 0
43 0
44 0
45 0
46 0
47 0
48 0
49 0
50 0
51 0
52 0
53 0
54 0
55 0
56 0
57 0
58 0
59 0
60 0
61 0
62 0
63 0
64 0
65 0
66 0
67 0
68 0
$EndElementData
$ElementData
1
"BeamOrientation"
1
0
3
0
3
68
1 0 0 0
2 0 0 0
3 0 0 0
4 0 0 0
5 0 0 0
6 0 0 0
7 0 0 0
8 0 0 0
9 0 0 0
10 0 0 0
11 0 0 0
12 0 0 0
13 0 0 0
14 0 0 0
15 0 0 0
16 0 0 0
17 1 0 0
18 1 0 0
19 1 0 0
20 1 0 0
21 1 0 0
22 1 0 0
23 1 0 0
24 1 0 0
25 1 0 0
26 0 0 0
27 0 0 0
28 0 0 0
29 0 0 0
30 0 0 0
31 0 0 0
32 0 0 0
33 0 0 0
34 0 0 0
35 0 0 0
36 0 0 0
37 0 0 0
38 0 0 0
39 0 0 0
40 0 0 0
41 0 0 0
42 1 0 0
43 1 0 0
44 1 0 0
45 1 0 0
46 1 0 0
47 1 0 0
48 1 0 0
49 1 0 0
50 1 0 0
51 0 0 0
52 0 0 0
53 0 0 0
54 0 0 0
55 0 0 0
56 0 0 0
57 0 0 0
58 0 0 0
59 0 0 0
60 0 0 0
61 0 0 0
62 0 0 0
63 0 0 0
64 0 0 0
65 0 0 0
66 0 0 0
67 0 0 0
68 0 0 0
$EndElementData
$AnafData
1
1
GLOBAL 3 1
"Gravity"
0 -9.80665 0
$EndAnafData
