$MeshFormat
4.1 0 8
$EndMeshFormat
$PhysicalNames
6
1 1 "Material:Structural Steel S355 (EN 10025)"
1 2 "Section:IPE 240"
1 3 "Section:HEB 400"
1 4 "Section:CHS 168.3x8"
1 5 "Section:CHS 323.9x12.5"
1 6 "Section:Bar D40"
$EndPhysicalNames
$Entities
0 5 0 0
1 0 0 0 30 0 3 2 1 3 0
2 0 0 0 30 6 3 2 1 5 0
3 2.5 0 0 27.5 6 3 2 1 6 0
4 0 0 0 30 0 3 2 1 2 0
5 7.5 4.5 0 22.5 6 3 2 1 4 0
$EndEntities
$Nodes
1 48 1 48
1 1 0 48
1
2
3
4
5
6
7
8
9
10
11
12
13
14
15
16
17
18
19
20
21
22
23
24
25
26
27
28
29
30
31
32
33
34
35
36
37
38
39
40
41
42
43
44
45
46
47
48
0 0 0
2.5 0 0
5 0 0
7.5 0 0
10 0 0
12.5 0 0
15 0 0
17.5 0 0
20 0 0
22.5 0 0
25 0 0
27.5 0 0
30 0 0
2.5 1.8333333333333328 0
5 3.333333333333333 0
7.5 4.5 0
10 5.333333333333333 0
12.5 5.833333333333333 0
15 6 0
17.5 5.833333333333333 0
20 5.333333333333334 0
22.5 4.5 0
25 3.333333333333333 0
27.5 1.8333333333333341 0
0 0 3
2.5 0 3
5 0 3
7.5 0 3
10 0 3
12.5 0 3
15 0 3
17.5 0 3
20 0 3
22.5 0 3
25 0 3
27.5 0 3
30 0 3
2.5 1.8333333333333328 3
5 3.333333333333333 3
7.5 4.5 3
10 5.333333333333333 3
12.5 5.833333333333333 3
15 6 3
17.5 5.833333333333333 3
20 5.333333333333334 3
22.5 4.5 3
25 3.333333333333333 3
27.5 1.8333333333333341 3
$EndNodes
$Elements
5 90 1 90
1 1 1 24
1 1 2
2 2 3
3 3 4
4 4 5
5 5 6
6 6 7
7 7 8
8 8 9
9 9 10
10 10 11
11 11 12
12 12 13
36 25 26
37 26 27
38 27 28
39 28 29
40 29 30
41 30 31
42 31 32
43 32 33
44 33 34
45 34 35
46 35 36
47 36 37
1 2 1 24
13 1 14
14 14 15
15 15 16
16 16 17
17 17 18
18 18 19
19 19 20
20 20 21
21 21 22
22 22 23
23 23 24
24 24 13
48 25 38
49 38 39
50 39 40
51 40 41
52 41 42
53 42 43
54 43 44
55 44 45
56 45 46
57 46 47
58 47 48
59 48 37
1 3 1 22
25 2 14
26 3 15
27 4 16
28 5 17
29 6 18
30 7 19
31 8 20
32 9 21
33 10 22
34 11 23
35 12 24
60 26 38
61 27 39
62 28 40
63 29 41
64 30 42
65 31 43
66 32 44
67 33 45
68 34 46
69 35 47
70 36 48
1 4 1 13
71 1 25
72 2 26
73 3 27
74 4 28
75 5 29
76 6 30
77 7 31
78 8 32
79 9 33
80 10 34
81 11 35
82 12 36
83 13 37
1 5 1 7
84 16 40
85 17 41
86 18 42
87 19 43
88 20 44
89 21 45
90 22 46
$EndElements
$NodeData
1
"Displacement"
1
0
3
0
3
48
1 0 0 0
2 0.00012442510025852682 -0.001481431645893251 -1.8365043410699044e-07
3 0.0002488623624322319 -0.0027367595331477036 -4.263462174062353e-08
4 0.0003733031129446006 -0.003749636801371055 -7.403506073299123e-08
5 0.0004977453791215063 -0.004498012491888369 -6.663811481938523e-08
6 0.0006221883894609575 -0.004956085378135183 -6.810044192802135e-08
7 0.000746631717321923 -0.0051101754337962305 -6.76390313427398e-08
8 0.0008710750451828886 -0.00495608537813522 -6.81004419294594e-08
9 0.0009955180555223403 -0.004498012491888436 -6.663811482203242e-08
10 0.0011199603216992466 -0.0037496368013711376 -7.403506073640934e-08
11 0.0012444010722116163 -0.002736759533147781 -4.2634621744100523e-08
12 0.0013688383343853222 -0.0014814316458932983 -1.8365043410947876e-07
13 0.00149326343464385 0 0
14 0.0005914450218796599 -0.0013273582168298154 -4.692512711902782e-06
15 0.0009277861383383299 -0.002420397931129976 -4.234823101519844e-06
16 0.001083519229948218 -0.0033337949828598935 -1.5064307861382672e-07
17 0.0010713804222059174 -0.004004611378149966 6.532812664875075e-09
18 0.0009400212295658942 -0.0044151707548077505 -4.2084607866138986e-08
19 0.0007466317173219053 -0.0045534847364925544 -2.509498387379601e-08
20 0.0005532422050779136 -0.004415170754807788 -4.208460787398567e-08
21 0.0004218830124378834 -0.004004611378150035 6.53281265076772e-09
22 0.00040974420469557795 -0.003333794982859978 -1.5064307863060473e-07
23 0.0005654772963054676 -0.002420397931130055 -4.234823101533547e-06
24 0.0009018184127641554 -0.0013273582168298634 -4.692512711909017e-06
25 -1.0403819872078396e-18 0 -1.3331707496009793e-07
26 0.00012442510025852734 -0.0014814316458932714 5.0333359151726137e-08
27 0.0002488623624322337 -0.0027367595331477326 -9.068245321083739e-08
28 0.0003733031129446039 -0.0037496368013710765 -5.9282014215741785e-08
29 0.0004977453791215108 -0.004498012491888381 -6.667896012778948e-08
30 0.0006221883894609635 -0.004956085378135188 -6.52166330188368e-08
31 0.00074663171732193 -0.0051101754337962305 -6.567804360503052e-08
32 0.0008710750451828965 -0.004956085378135213 -6.521663302027467e-08
33 0.0009955180555223492 -0.00449801249188843 -6.667896013043647e-08
34 0.0011199603216992566 -0.003749636801371135 -5.928201421915998e-08
35 0.001244401072211627 -0.0027367595331477803 -9.068245321431471e-08
36 0.0013688383343853337 -0.0014814316458932964 5.0333359149237104e-08
37 0.0014932634346438614 0 -1.3331707496012405e-07
38 0.0005914450218796741 -0.0013273582168298365 4.559195636951133e-06
39 0.0009277861383383501 -0.0024203979311300063 4.101506026577479e-06
40 0.0010835192299482334 -0.0033337949828599147 1.7326003675547263e-08
41 0.0010713804222059306 -0.004004611378149981 -1.39849887605884e-07
42 0.0009400212295659043 -0.004415170754807753 -9.123246708182207e-08
43 0.0007466317173219147 -0.004553484736492552 -1.0822209108239594e-07
44 0.0005532422050779233 -0.004415170754807782 -9.123246708966313e-08
45 0.00042188301243789274 -0.00400461137815003 -1.398498876199947e-07
46 0.00040974420469558543 -0.003333794982859978 1.732600365877039e-08
47 0.0005654772963054762 -0.002420397931130056 4.101506026563732e-06
48 0.0009018184127641677 -0.0013273582168298605 4.5591956369447816e-06
$EndNodeData
$NodeData
1
"Rotation"
1
0
3
0
3
48
1 0 3.243014177871295e-06 -0.000615648005435178
2 4.005712769184262e-05 -8.378751070042504e-07 -0.0005537072649208752
3 4.1058834312857054e-05 1.8747545284156067e-07 -0.0004534181348807858
4 4.113130936720473e-05 -4.034449888767083e-08 -0.0003543591254838988
5 4.1155481638401364e-05 9.773998592265089e-09 -0.00024258614903459606
6 4.116614240105499e-05 -1.5701697149760368e-09 -0.00012299809984768102
7 4.116942592871101e-05 3.196764508054848e-19 -7.620551132539237e-18
8 4.116614240105204e-05 1.5701697155634215e-09 0.000122998099847666
9 4.115548163839637e-05 -9.773998591809739e-09 0.00024258614903458712
10 4.113130936719587e-05 4.03444988879023e-08 0.000354359125483896
11 4.105883431284706e-05 -1.874754528416732e-07 0.0004534181348807933
12 4.005712769183528e-05 8.378751070036394e-07 0.0005537072649208918
13 0 -3.2430141778726114e-06 0.0006156480054351982
14 2.0576701615654068e-05 1.4788215365303485e-05 -0.0003846741379019663
15 4.277259279872242e-05 2.201592973711323e-05 -0.0003606158618219245
16 6.635079735650149e-05 2.4874595932665373e-05 -0.00028332854788094304
17 8.102126371505078e-05 2.1569238538169882e-05 -0.00019462346384710786
18 8.993909652361195e-05 1.1787284745464674e-05 -9.933924234960052e-05
19 9.28389452292977e-05 1.6413854307168736e-18 -8.187287563673819e-18
20 8.99390965236094e-05 -1.178728474546129e-05 9.933924234958709e-05
21 8.102126371504604e-05 -2.156923853816657e-05 0.0001946234638470976
22 6.635079735649604e-05 -2.487459593266296e-05 0.000283328547880939
23 4.277259279871793e-05 -2.2015929737113227e-05 0.0003606158618219324
24 2.0576701615651354e-05 -1.4788215365304808e-05 0.0003846741379019827
25 0 -3.2430141778734453e-06 -0.0006156480054351871
26 -4.005712769182898e-05 8.378751070025501e-07 -0.0005537072649208822
27 -4.1058834312837606e-05 -1.8747545284284561e-07 -0.0004534181348807854
28 -4.113130936719088e-05 4.034449888684194e-08 -0.00035435912548389454
29 -4.115548163839283e-05 -9.773998592607464e-09 -0.0002425861490345927
30 -4.11661424010518e-05 1.5701697151444504e-09 -0.0001229980998476787
31 -4.1169425928711475e-05 3.198975392832639e-19 -4.799138135174291e-18
32 -4.11661424010562e-05 -1.5701697145576189e-09 0.00012299809984766803
33 -4.11554816384011e-05 9.773998593063553e-09 0.00024258614903458536
34 -4.113130936719766e-05 -4.034449888660799e-08 0.000354359125483895
35 -4.1058834312847737e-05 1.874754528427302e-07 0.0004534181348807929
36 -4.0057127691836515e-05 -8.378751070031528e-07 0.0005537072649208917
37 0 3.2430141778721214e-06 0.0006156480054351971
38 -2.0576701615650324e-05 -1.4788215365304962e-05 -0.0003846741379019733
39 -4.277259279871595e-05 -2.201592973711276e-05 -0.0003606158618219237
40 -6.635079735649305e-05 -2.4874595932661917e-05 -0.00028332854788093925
41 -8.102126371504421e-05 -2.1569238538165904e-05 -0.0001946234638471037
42 -8.993909652360899e-05 -1.1787284745460964e-05 -9.93392423495966e-05
43 -9.28389452292976e-05 1.6562947900075179e-18 -6.4840250515878005e-18
44 -8.9939096523611e-05 1.1787284745464267e-05 9.933924234958761e-05
45 -8.102126371504814e-05 2.1569238538169004e-05 0.00019462346384709606
46 -6.635079735649821e-05 2.4874595932664262e-05 0.00028332854788093876
47 -4.277259279872022e-05 2.2015929737112658e-05 0.0003606158618219332
48 -2.057670161565299e-05 1.478821536530358e-05 0.0003846741379019834
$EndNodeData
$ElementData
1
"BeamSectionForce"
1
0
3
0
12
90
1 206711.5788723871 -13739.300020901272 49.25444035896686 4.605656646611108 -98.655157312053 -4253.685124736927 206711.5788723871 10067.042440486435 49.25444035896686 4.605656646611108 24.480943585364123 336.63685078161507
2 206731.78386867305 -11570.239847524226 -11.725412938547631 0.11517342912155382 23.975148302865712 315.6825064775185 206731.78386867305 12236.10261386348 -11.725412938547631 0.11517342912155382 -5.338384043503376 -516.6459514466333
3 206737.57916231808 -12196.73633933892 2.6611965856313744 0.008332979297411391 -5.396922618330414 -527.0394724753933 206737.57916231808 11609.606122048786 2.6611965856313744 0.008332979297411391 1.2560688457480231 206.87329913736176
4 206740.09718648542 -12107.281858699349 -0.5377100658105823 0.0027792602194773863 1.1276143036625268 200.7911996988696 206740.09718648542 11699.060602688358 -0.5377100658105823 0.0027792602194773863 -0.21666086086392933 711.0677697124265
5 206741.33348860126 -12004.810383955415 0.15341920330730646 0.0012257447101884367 -0.29486976413078003 707.5336442992702 206741.33348860126 11801.532077432292 0.15341920330730646 0.0012257447101884367 0.08867824413748646 961.6315274529989
6 206741.8609977085 -11935.026597331887 -0.026196140268990652 0.0003775308376976483 0.047014871953733356 959.9859290758068 206741.8609977085 11871.31586405582 -0.026196140268990652 0.0003775308376976483 -0.01847547871874383 1039.6243456708617
7 206741.86099770875 -11871.315864055798 0.026196140270654852 -0.00037753083803693244 -0.01847547872129637 1039.6243456708908 206741.86099770875 11935.02659733191 0.026196140270654852 -0.00037753083803693244 0.04701487195534131 959.9859290758686
8 206741.3334886022 -11801.53207743234 -0.1534192033056616 -0.001225744710423804 0.08867824413423028 961.6315274533517 206741.3334886022 12004.810383955366 -0.1534192033056616 -0.001225744710423804 -0.2948697641299238 707.5336442994158
9 206740.09718648624 -11699.060602688467 0.537710065812111 -0.0027792602199214755 -0.21666086086787473 711.0677697127103 206740.09718648624 12107.28185869924 0.537710065812111 -0.0027792602199214755 1.1276143036624031 200.79119969922613
10 206737.57916231966 -11609.606122048779 -2.6611965856298077 -0.008332979297541954 1.2560688457429379 206.87329913776193 206737.57916231966 12196.736339338928 -2.6611965856298077 -0.008332979297541954 -5.3969226183315815 -527.0394724747966
11 206731.78386867442 -12236.102613863473 11.725412938549104 -0.11517342912124828 -5.338384043509743 -516.6459514461603 206731.78386867442 11570.239847524233 11.725412938549104 -0.11517342912124828 23.975148302863015 315.6825064779623
12 206711.57887238916 -10067.042440486312 -49.25444035896547 -4.605656646610265 24.480943585355988 336.6368507819425 206711.57887238916 13739.300020901395 -49.25444035896547 -4.605656646610265 -98.65515731205768 -4253.685124736912
13 -255999.00549828168 461.1407857057884 -12.750423360500903 181.24954289284398 -8.97994801270751 4253.6851247368995 -254273.12682961405 2814.6116975252835 -12.750423360500903 181.24954289284398 -48.508545386322986 -824.0247419955317
14 -242010.99310081374 -1537.2928767548647 -15.838495113372282 187.2258822372952 -32.75476126537674 -840.112890882277 -240598.91055372203 816.1780350646304 -15.838495113372282 187.2258822372952 -78.93151281178484 211.08359725642504
15 -228734.24887805068 -1271.1260010541366 -17.06895898064448 196.32300121616942 -59.861468029262824 202.15947280174464 -227635.9624525349 1082.344910765359 -17.06895898064448 196.32300121616942 -106.95172558121223 462.56639547103464
16 -218334.50020682203 -1233.9098265970933 -65.2793508281017 117.19428255226057 -5.973145761322357 457.3173861580724 -217550.0099028822 1119.5610852224017 -65.2793508281017 117.19428255226057 -177.9993397563225 607.9850821237276
17 -211080.42328733823 -1224.0227121118633 -24.677253636494697 64.23802350033236 -107.22965254511075 604.9255962516374 -210609.7291049743 1129.4481997076318 -24.677253636494697 64.23802350033236 -170.14455146229324 725.4849173110422
18 -207280.32732345277 -1193.2396568494948 -11.426855730718188 20.198144042517356 -134.43479210134484 724.0533792332506 -207123.42926266478 1160.2312549700002 -11.426855730718188 20.198144042517356 -163.06534358014406 765.4054699357882
19 -207123.4292626653 -1160.231254970026 11.426855730724725 -20.198144042541912 -163.06534358015315 765.4054699358146 -207280.3273234533 1193.2396568494692 11.426855730724725 -20.198144042541912 -134.43479210133754 724.0533792333142
20 -210609.72910497471 -1129.4481997076646 24.677253636499216 -64.2380235003526 -170.144551462305 725.4849173110658 -211080.42328733864 1224.0227121118305 24.677253636499216 -64.2380235003526 -107.22965254511101 604.9255962516961
21 -217550.00990288184 -1119.561085222339 65.2793508281078 -117.19428255226399 -177.99933975634337 607.985082123861 -218334.50020682169 1233.909826597156 65.2793508281078 -117.19428255226399 -5.973145761327132 457.31738615808763
22 -227635.96245253587 -1082.344910765358 17.06895898064979 -196.32300121615293 -106.95172558123964 462.5663954711738 -228734.24887805164 1271.1260010541375 17.06895898064979 -196.32300121615293 -59.86146802927553 202.15947280187925
23 -240598.91055372203 -816.1780350646259 15.838495113377775 -187.22588223727718 -78.93151281179513 211.0835972565178 -242010.99310081374 1537.2928767548692 15.838495113377775 -187.22588223727718 -32.754761265371016 -840.1128908821815
24 -254273.12682961434 -2814.6116975252553 12.750423360506652 -181.249542892827 -48.50854538631578 -824.0247419954536 -255999.00549828197 -461.1407857057602 12.750423360506652 -181.249542892827 -8.979948012682456 4253.685124736896
25 22088.970163296017 -20.204996285838778 3.0880717528713966 0.17308527409728972 -3.111137712665527 -20.954344303972043 22266.3244259722 -20.204996285838778 3.0880717528713966 0.17308527409728972 2.5503271675986987 16.088148886732384
26 24884.526828487702 -5.795293644987004 1.2304638672722343 0.13298279565096083 -2.0372056058259513 -10.393521028625948 25206.98912426258 -5.795293644987004 1.2304638672722343 0.13298279565096083 2.064340618414829 8.924124454664057
27 24168.575856033553 -2.51802416701388 0.8406768828196616 0.11243423255130783 -1.7436281843812262 -6.082099438566242 24603.899955329645 -2.51802416701388 0.8406768828196616 0.11243423255130783 2.0394177883072504 5.2490093129962165
28 24155.55886192912 -1.2363021160159686 0.6799452716236228 0.08209003916039445 -1.6159311652362862 -3.534125413313789 24671.49853516893 -1.2363021160159686 0.6799452716236228 0.08209003916039445 2.0104436167563686 3.059485872104711
29 24188.246550049418 -0.5275091065971503 0.610010512471774 0.04103987689587781 -1.558553681756646 -1.6455983773629699 24752.55556765546 -0.5275091065971503 0.610010512471774 0.04103987689587781 1.9998409743287013 1.4315380777870725
30 24194.319603396736 -9.529548096299401e-14 0.58933722725809 4.47338019593388e-15 -1.5407572666253353 -2.8384969599450115e-13 24774.751735791524 -9.529548096299401e-14 0.58933722725809 4.47338019593388e-15 1.995266096923205 2.88811368203163e-13
31 24188.246550049418 0.5275091065969569 0.6100105124717586 -0.04103987689586808 -1.5585536817565995 1.645598377362398 24752.55556765546 0.5275091065969569 0.6100105124717586 -0.04103987689586808 1.9998409743286583 -1.4315380777865154
32 24155.55886192906 1.2363021160157663 0.6799452716235923 -0.08209003916038357 -1.6159311652362036 3.534125413313255 24671.49853516887 1.2363021160157663 0.6799452716235923 -0.08209003916038357 2.0104436167562887 -3.0594858721041653
33 24168.575856033436 2.5180241670136483 0.8406768828195962 -0.11243423255129799 -1.743628184381059 6.082099438565729 24603.89995532953 2.5180241670136483 0.8406768828195962 -0.11243423255129799 2.0394177883071234 -5.249009312995687
34 24884.526828487586 5.79529364498679 1.2304638672721155 -0.1329827956509601 -2.0372056058257093 10.393521028625589 25206.989124262465 5.79529364498679 1.2304638672721155 -0.1329827956509601 2.0643406184146746 -8.924124454663705
35 22088.9701632959 20.204996285838586 3.0880717528711115 -0.17308527409729746 -3.1111377126652004 20.95434430397188 22266.324425972085 20.204996285838586 3.0880717528711115 -0.17308527409729746 2.550327167598506 -16.088148886732217
36 206711.57887238965 -13739.300020901308 -49.254440358966484 -4.60565664660954 98.65515731205663 -4253.6851247368395 206711.57887238965 10067.042440486399 -49.254440358966484 -4.60565664660954 -24.48094358535959 336.63685078174603
37 206731.78386867524 -11570.239847524248 11.725412938548885 -0.1151734291208868 -23.975148302863502 315.68250647783134 206731.78386867524 12236.102613863459 11.725412938548885 -0.1151734291208868 5.338384043508716 -516.6459514462113
38 206737.5791623204 -12196.736339338833 -2.6611965856298814 -0.008332979298054433 5.396922618332692 -527.0394724749931 206737.5791623204 11609.606122048874 -2.6611965856298814 -0.008332979298054433 -1.2560688457420115 206.8732991373763
39 206740.09718648763 -12107.281858699273 0.5377100658122268 -0.002779260220088453 -1.1276143036601607 200.79119969883322 206740.09718648763 11699.060602688434 0.5377100658122268 -0.002779260220088453 0.21666086087040592 711.0677697123829
40 206741.3334886036 -12004.810383955391 -0.15341920330557704 -0.001225744710802168 0.29486976413326027 707.5336442990465 206741.3334886036 11801.532077432315 -0.15341920330557704 -0.001225744710802168 -0.0886782441306826 961.6315274530971
41 206741.86099771026 -11935.02659733204 0.026196140270697204 -0.00037753083811864485 -0.047014871951584374 959.9859290757659 206741.86099771026 11871.315864055667 0.026196140270697204 -0.00037753083811864485 0.018475478725158635 1039.6243456709426
42 206741.86099771014 -11871.315864055685 -0.026196140269032622 0.000377530837611495 0.018475478722596354 1039.6243456709271 206741.86099771014 11935.026597332022 -0.026196140269032622 0.000377530837611495 -0.04701487194998476 959.9859290756795
43 206741.33348860382 -11801.532077432425 0.1534192033072265 0.001225744710358967 -0.08867824413393272 961.6315274530534 206741.33348860382 12004.810383955282 0.1534192033072265 0.001225744710358967 0.2948697641341341 707.5336442994303
44 206740.09718648833 -11699.060602688467 -0.5377100658106325 0.0027792602202589833 0.21666086086639502 711.0677697126957 206740.09718648833 12107.28185869924 -0.5377100658106325 0.0027792602202589833 -1.1276143036601871 200.79119969925523
45 206737.57916232105 -11609.606122048765 2.6611965856314352 0.008332979297669851 -1.2560688457471287 206.87329913785652 206737.57916232105 12196.736339338942 2.6611965856314352 0.008332979297669851 5.39692261833146 -527.039472474753
46 206731.78386867535 -12236.10261386332 -11.725412938547304 0.11517342912118522 5.338384043502311 -516.6459514459711 206731.78386867535 11570.239847524386 -11.725412938547304 0.11517342912118522 -23.975148302865954 315.6825064778168
47 206711.5788723887 -10067.04244048634 49.25444035896744 4.605656646610406 -24.480943585367335 336.6368507818479 206711.5788723887 13739.300020901366 49.25444035896744 4.605656646610406 98.65515731205127 -4253.685124736898
48 -255999.00549828168 461.1407857057766 12.750423360506968 -181.24954289281752 8.979948012681295 4253.685124736909 -254273.12682961405 2814.6116975252717 12.750423360506968 -181.24954289281752 48.50854538631558 -824.0247419954953
49 -242010.99310081342 -1537.2928767548883 15.838495113377768 -187.2258822372677 32.754761265371656 -840.112890882227 -240598.9105537217 816.1780350646068 15.838495113377768 -187.2258822372677 78.93151281179564 211.08359725655055
50 -228734.24887805135 -1271.1260010540702 17.068958980649654 -196.32300121614276 59.86146802927681 202.15947280186288 -227635.96245253558 1082.3449107654253 17.068958980649654 -196.32300121614276 106.95172558124051 462.5663954709728
51 -218334.50020682186 -1233.909826597176 65.2793508281079 -117.19428255227513 5.973145761327089 457.31738615797417 -217550.009902882 1119.561085222319 65.2793508281079 -117.19428255227513 177.99933975634355 607.9850821238367
52 -211080.42328733896 -1224.0227121118014 24.67725363650092 -64.23802350036647 107.22965254510822 604.9255962517166 -210609.72910497503 1129.4481997076937 24.67725363650092 -64.23802350036647 170.1445514623066 725.4849173109567
53 -207280.32732345312 -1193.239656849531 11.426855730724725 -20.19814404254521 134.43479210133393 724.05337923315 -207123.42926266513 1160.231254969964 11.426855730724725 -20.19814404254521 163.06534358014952 765.4054699358439
54 -207123.4292626653 -1160.2312549699977 -11.426855730718472 20.19814404252577 163.06534358013994 765.4054699358451 -207280.3273234533 1193.2396568494974 -11.426855730718472 20.19814404252577 134.43479210134 724.0533792332387
55 -210609.72910497495 -1129.4481997076646 -24.677253636493475 64.23802350034896 170.14455146229 725.4849173110158 -211080.42328733887 1224.0227121118305 -24.677253636493475 64.23802350034896 107.22965254511055 604.9255962516797
56 -217550.00990288184 -1119.5610852224208 -65.27935082810201 117.1942825522666 177.99933975632285 607.9850821238074 -218334.50020682169 1233.9098265970742 -65.27935082810201 117.1942825522666 5.973145761321732 457.3173861581804
57 -227635.9624525347 -1082.344910765378 -17.068958980644 196.3230012161589 106.95172558121182 462.5663954711556 -228734.24887805048 1271.1260010541175 -17.068958980644 196.3230012161589 59.861468029263804 202.15947280191563
58 -240598.91055372087 -816.178035064584 -15.838495113371991 187.22588223728457 78.93151281178432 211.08359725657783 -242010.99310081257 1537.292876754911 -15.838495113371991 187.22588223728457 32.75476126537704 -840.1128908822434
59 -254273.12682961376 -2814.611697525288 -12.750423360500868 181.2495428928338 48.50854538632255 -824.0247419955173 -255999.0054982814 -461.14078570579295 -12.750423360500868 181.2495428928338 8.97994801270714 4253.685124736925
60 22088.97016329593 -20.20499628583873 -3.0880717528707633 -0.17308527409728722 3.111137712664804 -20.954344303972 22266.324425972114 -20.20499628583873 -3.0880717528707633 -0.17308527409728722 -2.550327167598261 16.088148886732345
61 24884.526828487586 -5.795293644986829 -1.230463867271943 -0.13298279565095014 2.0372056058253625 -10.39352102862566 25206.989124262465 -5.795293644986829 -1.230463867271943 -0.13298279565095014 -2.064340618414446 8.924124454663765
62 24168.575856033553 -2.518024167013775 -0.8406768828195237 -0.11243423255128848 1.743628184380884 -6.0820994385660025 24603.899955329645 -2.518024167013775 -0.8406768828195237 -0.11243423255128848 -2.039417788306972 5.249009312995981
63 24155.558861928974 -1.2363021160159087 -0.6799452716235516 -0.08209003916037799 1.6159311652360864 -3.5341254133136335 24671.498535168783 -1.2363021160159087 -0.6799452716235516 -0.08209003916037799 -2.0104436167561883 3.0594858721045477
64 24188.246550049535 -0.5275091065971145 -0.6100105124717436 -0.04103987689586548 1.5585536817565564 -1.6455983773628722 24752.555567655578 -0.5275091065971145 -0.6100105124717436 -0.04103987689586548 -1.9998409743286139 1.4315380777869608
65 24194.319603396852 -7.203897422017072e-14 -0.5893372272580792 4.5230932725380725e-15 1.5407572666253053 -2.0847088386860052e-13 24774.75173579164 -7.203897422017072e-14 -0.5893372272580792 4.5230932725380725e-15 -1.9952660969231704 2.2331887224257375e-13
66 24188.24655004936 0.5275091065969715 -0.6100105124717632 0.04103987689587494 1.5585536817566243 1.645598377362448 24752.555567655403 0.5275091065969715 -0.6100105124717632 0.04103987689587494 -1.99984097432866 -1.4315380777865518
67 24155.558861928945 1.2363021160157488 -0.6799452716235953 0.08209003916038805 1.615931165236225 3.534125413313207 24671.498535168754 1.2363021160157488 -0.6799452716235953 0.08209003916038805 -2.010443616756284 -3.0594858721041196
68 24168.57585603326 2.51802416701363 -0.8406768828195705 0.11243423255129802 1.7436281843809995 6.082099438565683 24603.899955329354 2.51802416701363 -0.8406768828195705 0.11243423255129802 -2.039417788307068 -5.249009312995652
69 24884.52682848744 5.795293644986778 -1.2304638672720603 0.13298279565095023 2.037205605825605 10.393521028625557 25206.98912426232 5.795293644986778 -1.2304638672720603 0.13298279565095023 -2.0643406184145956 -8.924124454663692
70 22088.970163296017 20.20499628583866 -3.0880717528710413 0.17308527409727847 3.1111377126651307 20.954344303971926 22266.3244259722 20.20499628583866 -3.0880717528710413 0.17308527409727847 -2.5503271675984482 -16.08814888673229
71 -36.50401699845952 -451.68787528528287 -5.784261958297066e-13 -3.1530333899354446e-14 -1.2877614639002484 -225.84393764264144 -36.50401699845952 451.68787528528287 -5.784261958297066e-13 -3.1530333899354446e-14 -1.2877614639019834 -225.84393764264144
72 64.06792505038587 -451.68787528528287 -8.066325385414075e-13 -2.4202861936828413e-14 0.33271000840114 -7.601620930154326 64.06792505038587 451.68787528528287 -8.066325385414075e-13 -2.4202861936828413e-14 0.332710008398713 -7.60162093015623
73 -13.156145656906759 -451.68787528528173 -9.899581154826365e-13 1.5543122344752192e-15 -0.0744442208239681 -2.1440460556503638 -13.156145656906759 451.687875285284 -9.899581154826365e-13 1.5543122344752192e-15 -0.07444422082693797 -2.1440460556520406
74 4.039583534261652 -451.68787528528765 -1.1877963890238874e-12 1.4876988529977098e-14 0.016020309534192503 -1.749181903465228 4.039583534261652 451.6878752852781 -1.1877963890238874e-12 1.4876988529977098e-14 0.01602030953058648 -1.7491819034509035
75 -0.011183997494260467 -451.68787528527935 -1.342500763334975e-12 1.1657341758564144e-14 -0.003881135893572177 -1.6174846807427912 -0.011183997494260467 451.6878752852864 -1.342500763334975e-12 1.1657341758564144e-14 -0.0038811358975712577 -1.617484680753364
76 0.7896258560479907 -451.6878752852822 -1.5004085213848883e-12 7.993605777301127e-15 0.0006234952878057508 -1.5594018956374782 0.7896258560479907 451.68787528528355 -1.5004085213848883e-12 7.993605777301127e-15 0.0006234952832761035 -1.559401895632334
77 0.5369449467184566 -451.68787528528424 -1.6351185648554971e-12 9.787377093558345e-15 2.4309264289068096e-12 -1.5415123283051742 0.5369449467184566 451.6878752852815 -1.6351185648554971e-12 9.787377093558345e-15 -2.417585846798874e-12 -1.5415123282975287
78 0.7896258560480405 -451.6878752852807 -1.705594649889508e-12 7.049916206369744e-15 -0.0006234952830081319 -1.5594018956287243 0.7896258560480405 451.68787528528503 -1.705594649889508e-12 7.049916206369744e-15 -0.0006234952880396507 -1.5594018956316518
79 -0.011183997494207176 -451.68787528528617 -1.8301536501563742e-12 -6.106226635438361e-15 0.0038811358983364473 -1.6174846807441838 -0.011183997494207176 451.6878752852796 -1.8301536501563742e-12 -6.106226635438361e-15 0.003881135892789143 -1.6174846807323888
80 4.039583534261627 -451.68787528528276 -2.1156965068769296e-12 -3.552713678800501e-15 -0.016020309529197918 -1.7491819034657965 4.039583534261627 451.687875285283 -2.1156965068769296e-12 -3.552713678800501e-15 -0.01602030953560185 -1.7491819034606806
81 -13.156145656906846 -451.6878752852823 -2.4664714715072478e-12 -1.3322676295501878e-15 0.07444422082911561 -2.144046055650989 -13.156145656906846 451.68787528528344 -2.4664714715072478e-12 -1.3322676295501878e-15 0.07444422082177304 -2.14404605565079
82 64.06792505038567 -451.6878752852821 -2.900180096077065e-12 -2.220446049250313e-16 -0.3327100083956213 -7.601620930154439 64.06792505038567 451.68787528528367 -2.900180096077065e-12 -2.220446049250313e-16 -0.33271000840420817 -7.601620930155093
83 -36.504016998466675 -451.68787528528287 -3.2291946894247303e-12 -3.552713678800501e-15 1.2877614639059975 -225.84393764264144 -36.504016998466675 451.68787528528287 -3.2291946894247303e-12 -3.552713678800501e-15 1.2877614638962531 -225.84393764264144
84 47.369714964638035 -465.2163541144342 -1.234212732015294e-11 2.6716406864579767e-12 -45.176735098900444 -112.10320869951352 47.369714964638035 465.21635411441247 -1.234212732015294e-11 2.6716406864579767e-12 -45.17673509893747 -112.10320869948367
85 -41.28204246323113 -465.2163541144296 -8.732570222491631e-12 2.8990143619012088e-12 -39.17361224124729 -85.45900614635022 -41.28204246323113 465.2163541144171 -8.732570222491631e-12 2.8990143619012088e-12 -39.17361224127394 -85.4590061463332
86 -13.860408418248214 -465.2163541144208 -5.6061821851471905e-12 2.7284841053187847e-12 -21.407826761191096 -69.26261961851387 -13.860408418248214 465.2163541144258 -5.6061821851471905e-12 2.7284841053187847e-12 -21.407826761208142 -69.26261961851856
87 -23.443048688701403 -465.2163541144201 -5.518383926185627e-12 1.1902342977272598e-12 8.360554869226028e-12 -63.99597339203797 -23.443048688701403 465.21635411442657 -5.518383926185627e-12 1.1902342977272598e-12 -8.308283747052469e-12 -63.99597339204951
88 -13.860408418246632 -465.216354114419 -6.355804771374096e-12 3.694822225952521e-13 21.407826761208856 -69.26261961850932 -13.860408418246632 465.21635411442765 -6.355804771374096e-12 3.694822225952521e-13 21.407826761190016 -69.2626196185231
89 -41.282042463232074 -465.2163541144213 -6.842526545369765e-12 -1.0800249583553523e-12 39.17361224127077 -85.45900614634098 -41.282042463232074 465.21635411442537 -6.842526545369765e-12 -1.0800249583553523e-12 39.17361224125018 -85.4590061463444
90 47.369714964638355 -465.2163541144272 -6.650680006714538e-12 -1.7053025658242404e-13 45.176735098928816 -112.1032086995047 47.369714964638355 465.21635411441946 -6.650680006714538e-12 -1.7053025658242404e-13 45.17673509890892 -112.10320869949311
$EndElementData
$ElementData
1
"AxialForce"
1
0
3
0
1
90
1 206711.5788723871
2 206731.78386867305
3 206737.57916231808
4 206740.09718648542
5 206741.33348860126
6 206741.8609977085
7 206741.86099770875
8 206741.3334886022
9 206740.09718648624
10 206737.57916231966
11 206731.78386867442
12 206711.57887238916
13 -255136.06616394786
14 -241304.95182726788
15 -228185.1056652928
16 -217942.2550548521
17 -210845.07619615627
18 -207201.87829305878
19 -207201.8782930593
20 -210845.07619615667
21 -217942.25505485176
22 -228185.10566529376
23 -241304.95182726788
24 -255136.06616394816
25 22177.64729463411
26 25045.757976375142
27 24386.2379056816
28 24413.528698549024
29 24470.40105885244
30 24484.53566959413
31 24470.40105885244
32 24413.528698548966
33 24386.237905681483
34 25045.757976375025
35 22177.647294633993
36 206711.57887238965
37 206731.78386867524
38 206737.5791623204
39 206740.09718648763
40 206741.3334886036
41 206741.86099771026
42 206741.86099771014
43 206741.33348860382
44 206740.09718648833
45 206737.57916232105
46 206731.78386867535
47 206711.5788723887
48 -255136.06616394786
49 -241304.95182726756
50 -228185.10566529346
51 -217942.25505485194
52 -210845.076196157
53 -207201.87829305913
54 -207201.8782930593
55 -210845.0761961569
56 -217942.25505485176
57 -228185.1056652926
58 -241304.95182726672
59 -255136.06616394757
60 22177.64729463402
61 25045.757976375025
62 24386.2379056816
63 24413.52869854888
64 24470.401058852556
65 24484.535669594246
66 24470.40105885238
67 24413.52869854885
68 24386.237905681308
69 25045.75797637488
70 22177.64729463411
71 -36.50401699845952
72 64.06792505038587
73 -13.156145656906759
74 4.039583534261652
75 -0.011183997494260467
76 0.7896258560479907
77 0.5369449467184566
78 0.7896258560480405
79 -0.011183997494207176
80 4.039583534261627
81 -13.156145656906846
82 64.06792505038567
83 -36.504016998466675
84 47.369714964638035
85 -41.28204246323113
86 -13.860408418248214
87 -23.443048688701403
88 -13.860408418246632
89 -41.282042463232074
90 47.369714964638355
$EndElementData
$ElementData
1
"VonMisesStress"
1
0
3
0
1
90
1 13058891.798277559
2 13012942.768416822
3 12981389.297045883
4 13192159.448475156
5 13322469.922000634
6 13379494.8373017
7 13379494.837301703
8 13322469.922000764
9 13192159.448475275
10 12981389.297046134
11 13012942.768417016
12 13058891.798277669
13 25576233.36810075
14 20716777.806081954
15 19914197.337214008
16 19253670.47009938
17 18793858.56611612
18 18568608.69613885
19 18568608.69613891
20 18793858.566116203
21 19253670.470099412
22 19914197.337214224
23 20716777.80608185
24 25576233.368100762
25 20949495.34116734
26 21516930.932721198
27 20475419.1313933
28 20215613.730681896
29 20088885.569173053
30 20032677.504515424
31 20088885.569172997
32 20215613.730681762
33 20475419.13139312
34 21516930.932721045
35 20949495.341167215
36 13058891.798277652
37 13012942.768417045
38 12981389.297046106
39 13192159.448475214
40 13322469.922000669
41 13379494.837301837
42 13379494.837301733
43 13322469.922000783
44 13192159.448475378
45 12981389.29704623
46 13012942.76841707
47 13058891.798277643
48 25576233.368100762
49 20716777.806081876
50 19914197.337214086
51 19253670.470099382
52 18793858.566116177
53 18568608.696138818
54 18568608.696138907
55 18793858.566116165
56 19253670.470099468
57 19914197.337214135
58 20716777.80608182
59 25576233.36810076
60 20949495.34116725
61 21516930.932721045
62 20475419.131393246
63 20215613.730681743
64 20088885.569173124
65 20032677.504515514
66 20088885.569172956
67 20215613.73068167
68 20475419.131392974
69 21516930.932720922
70 20949495.341167312
71 943707.1626525433
72 1044576.5998515103
73 1042926.3966643469
74 1040577.4426175107
75 1039696.8904865644
76 1040006.086588659
77 1039983.4629457064
78 1040006.0865886796
79 1039696.8904865917
80 1040577.4426174855
81 1042926.396664347
82 1044576.599851507
83 943707.16265261
84 1575568.4623738746
85 1737975.897870259
86 1822749.2640892295
87 1853983.4368146989
88 1822749.2640892407
89 1737975.897870239
90 1575568.4623738641
$EndElementData
$NodeData
1
"Fixity"
1
0
3
0
3
48
1 1 1 1
2 0 0 0
3 0 0 0
4 0 0 0
5 0 0 0
6 0 0 0
7 0 0 0
8 0 0 0
9 0 0 0
10 0 0 0
11 0 0 0
12 0 0 0
13 0 1 1
14 0 0 0
15 0 0 0
16 0 0 0
17 0 0 0
18 0 0 0
19 0 0 0
20 0 0 0
21 0 0 0
22 0 0 0
23 0 0 0
24 0 0 0
25 0 1 0
26 0 0 0
27 0 0 0
28 0 0 0
29 0 0 0
30 0 0 0
31 0 0 0
32 0 0 0
33 0 0 0
34 0 0 0
35 0 0 0
36 0 0 0
37 0 1 0
38 0 0 0
39 0 0 0
40 0 0 0
41 0 0 0
42 0 0 0
43 0 0 0
44 0 0 0
45 0 0 0
46 0 0 0
47 0 0 0
48 0 0 0
$EndNodeData
$NodeData
1
"FixityRotation"
1
0
3
0
3
48
1 1 0 0
2 0 0 0
3 0 0 0
4 0 0 0
5 0 0 0
6 0 0 0
7 0 0 0
8 0 0 0
9 0 0 0
10 0 0 0
11 0 0 0
12 0 0 0
13 1 0 0
14 0 0 0
15 0 0 0
16 0 0 0
17 0 0 0
18 0 0 0
19 0 0 0
20 0 0 0
21 0 0 0
22 0 0 0
23 0 0 0
24 0 0 0
25 1 0 0
26 0 0 0
27 0 0 0
28 0 0 0
29 0 0 0
30 0 0 0
31 0 0 0
32 0 0 0
33 0 0 0
34 0 0 0
35 0 0 0
36 0 0 0
37 1 0 0
38 0 0 0
39 0 0 0
40 0 0 0
41 0 0 0
42 0 0 0
43 0 0 0
44 0 0 0
45 0 0 0
46 0 0 0
47 0 0 0
48 0 0 0
$EndNodeData
$ElementData
1
"CrossSectionArea"
1
0
3
0
1
90
1 0.019777778955533034
2 0.019777778955533034
3 0.019777778955533034
4 0.019777778955533034
5 0.019777778955533034
6 0.019777778955533034
7 0.019777778955533034
8 0.019777778955533034
9 0.019777778955533034
10 0.019777778955533034
11 0.019777778955533034
12 0.019777778955533034
13 0.01222864940409828
14 0.01222864940409828
15 0.01222864940409828
16 0.01222864940409828
17 0.01222864940409828
18 0.01222864940409828
19 0.01222864940409828
20 0.01222864940409828
21 0.01222864940409828
22 0.01222864940409828
23 0.01222864940409828
24 0.01222864940409828
25 0.0012566370614359175
26 0.0012566370614359175
27 0.0012566370614359175
28 0.0012566370614359175
29 0.0012566370614359175
30 0.0012566370614359175
31 0.0012566370614359175
32 0.0012566370614359175
33 0.0012566370614359175
34 0.0012566370614359175
35 0.0012566370614359175
36 0.019777778955533034
37 0.019777778955533034
38 0.019777778955533034
39 0.019777778955533034
40 0.019777778955533034
41 0.019777778955533034
42 0.019777778955533034
43 0.019777778955533034
44 0.019777778955533034
45 0.019777778955533034
46 0.019777778955533034
47 0.019777778955533034
48 0.01222864940409828
49 0.01222864940409828
50 0.01222864940409828
51 0.01222864940409828
52 0.01222864940409828
53 0.01222864940409828
54 0.01222864940409828
55 0.01222864940409828
56 0.01222864940409828
57 0.01222864940409828
58 0.01222864940409828
59 0.01222864940409828
60 0.0012566370614359175
61 0.0012566370614359175
62 0.0012566370614359175
63 0.0012566370614359175
64 0.0012566370614359175
65 0.0012566370614359175
66 0.0012566370614359175
67 0.0012566370614359175
68 0.0012566370614359175
69 0.0012566370614359175
70 0.0012566370614359175
71 0.003911621652942296
72 0.003911621652942296
73 0.003911621652942296
74 0.003911621652942296
75 0.003911621652942296
76 0.003911621652942296
77 0.003911621652942296
78 0.003911621652942296
79 0.003911621652942296
80 0.003911621652942296
81 0.003911621652942296
82 0.003911621652942296
83 0.003911621652942296
84 0.004028778418963555
85 0.004028778418963555
86 0.004028778418963555
87 0.004028778418963555
88 0.004028778418963555
89 0.004028778418963555
90 0.004028778418963555
$EndElementData
$ElementData
1
"Attribute:ElementFormulation"
1
0
3
0
1
90
1 1
2 1
3 1
4 1
5 1
6 1
7 1
8 1
9 1
10 1
11 1
12 1
13 1
14 1
15 1
16 1
17 1
18 1
19 1
20 1
21 1
22 1
23 1
24 1
25 1
26 1
27 1
28 1
29 1
30 1
31 1
32 1
33 1
34 1
35 1
36 1
37 1
38 1
39 1
40 1
41 1
42 1
43 1
44 1
45 1
46 1
47 1
48 1
49 1
50 1
51 1
52 1
53 1
54 1
55 1
56 1
57 1
58 1
59 1
60 1
61 1
62 1
63 1
64 1
65 1
66 1
67 1
68 1
69 1
70 1
71 1
72 1
73 1
74 1
75 1
76 1
77 1
78 1
79 1
80 1
81 1
82 1
83 1
84 1
85 1
86 1
87 1
88 1
89 1
90 1
$EndElementData
$ElementData
1
"MaterialID"
1
0
3
0
1
90
1 3
2 3
3 3
4 3
5 3
6 3
7 3
8 3
9 3
10 3
11 3
12 3
13 3
14 3
15 3
16 3
17 3
18 3
19 3
20 3
21 3
22 3
23 3
24 3
25 3
26 3
27 3
28 3
29 3
30 3
31 3
32 3
33 3
34 3
35 3
36 3
37 3
38 3
39 3
40 3
41 3
42 3
43 3
44 3
45 3
46 3
47 3
48 3
49 3
50 3
51 3
52 3
53 3
54 3
55 3
56 3
57 3
58 3
59 3
60 3
61 3
62 3
63 3
64 3
65 3
66 3
67 3
68 3
69 3
70 3
71 3
72 3
73 3
74 3
75 3
76 3
77 3
78 3
79 3
80 3
81 3
82 3
83 3
84 3
85 3
86 3
87 3
88 3
89 3
90 3
$EndElementData
$ElementData
1
"Attribute:SecondMomentY"
1
0
3
0
1
90
1 0.00010819043255618277
2 0.00010819043255618277
3 0.00010819043255618277
4 0.00010819043255618277
5 0.00010819043255618277
6 0.00010819043255618277
7 0.00010819043255618277
8 0.00010819043255618277
9 0.00010819043255618277
10 0.00010819043255618277
11 0.00010819043255618277
12 0.00010819043255618277
13 0.00014846529625485306
14 0.00014846529625485306
15 0.00014846529625485306
16 0.00014846529625485306
17 0.00014846529625485306
18 0.00014846529625485306
19 0.00014846529625485306
20 0.00014846529625485306
21 0.00014846529625485306
22 0.00014846529625485306
23 0.00014846529625485306
24 0.00014846529625485306
25 1.2566370614359175e-07
26 1.2566370614359175e-07
27 1.2566370614359175e-07
28 1.2566370614359175e-07
29 1.2566370614359175e-07
30 1.2566370614359175e-07
31 1.2566370614359175e-07
32 1.2566370614359175e-07
33 1.2566370614359175e-07
34 1.2566370614359175e-07
35 1.2566370614359175e-07
36 0.00010819043255618277
37 0.00010819043255618277
38 0.00010819043255618277
39 0.00010819043255618277
40 0.00010819043255618277
41 0.00010819043255618277
42 0.00010819043255618277
43 0.00010819043255618277
44 0.00010819043255618277
45 0.00010819043255618277
46 0.00010819043255618277
47 0.00010819043255618277
48 0.00014846529625485306
49 0.00014846529625485306
50 0.00014846529625485306
51 0.00014846529625485306
52 0.00014846529625485306
53 0.00014846529625485306
54 0.00014846529625485306
55 0.00014846529625485306
56 0.00014846529625485306
57 0.00014846529625485306
58 0.00014846529625485306
59 0.00014846529625485306
60 1.2566370614359175e-07
61 1.2566370614359175e-07
62 1.2566370614359175e-07
63 1.2566370614359175e-07
64 1.2566370614359175e-07
65 1.2566370614359175e-07
66 1.2566370614359175e-07
67 1.2566370614359175e-07
68 1.2566370614359175e-07
69 1.2566370614359175e-07
70 1.2566370614359175e-07
71 2.8363416458317623e-06
72 2.8363416458317623e-06
73 2.8363416458317623e-06
74 2.8363416458317623e-06
75 2.8363416458317623e-06
76 2.8363416458317623e-06
77 2.8363416458317623e-06
78 2.8363416458317623e-06
79 2.8363416458317623e-06
80 2.8363416458317623e-06
81 2.8363416458317623e-06
82 2.8363416458317623e-06
83 2.8363416458317623e-06
84 1.297271183281985e-05
85 1.297271183281985e-05
86 1.297271183281985e-05
87 1.297271183281985e-05
88 1.297271183281985e-05
89 1.297271183281985e-05
90 1.297271183281985e-05
$EndElementData
$ElementData
1
"Attribute:SecondMomentZ"
1
0
3
0
1
90
1 0.0005768052538064349
2 0.0005768052538064349
3 0.0005768052538064349
4 0.0005768052538064349
5 0.0005768052538064349
6 0.0005768052538064349
7 0.0005768052538064349
8 0.0005768052538064349
9 0.0005768052538064349
10 0.0005768052538064349
11 0.0005768052538064349
12 0.0005768052538064349
13 0.00014846529625485306
14 0.00014846529625485306
15 0.00014846529625485306
16 0.00014846529625485306
17 0.00014846529625485306
18 0.00014846529625485306
19 0.00014846529625485306
20 0.00014846529625485306
21 0.00014846529625485306
22 0.00014846529625485306
23 0.00014846529625485306
24 0.00014846529625485306
25 1.2566370614359175e-07
26 1.2566370614359175e-07
27 1.2566370614359175e-07
28 1.2566370614359175e-07
29 1.2566370614359175e-07
30 1.2566370614359175e-07
31 1.2566370614359175e-07
32 1.2566370614359175e-07
33 1.2566370614359175e-07
34 1.2566370614359175e-07
35 1.2566370614359175e-07
36 0.0005768052538064349
37 0.0005768052538064349
38 0.0005768052538064349
39 0.0005768052538064349
40 0.0005768052538064349
41 0.0005768052538064349
42 0.0005768052538064349
43 0.0005768052538064349
44 0.0005768052538064349
45 0.0005768052538064349
46 0.0005768052538064349
47 0.0005768052538064349
48 0.00014846529625485306
49 0.00014846529625485306
50 0.00014846529625485306
51 0.00014846529625485306
52 0.00014846529625485306
53 0.00014846529625485306
54 0.00014846529625485306
55 0.00014846529625485306
56 0.00014846529625485306
57 0.00014846529625485306
58 0.00014846529625485306
59 0.00014846529625485306
60 1.2566370614359175e-07
61 1.2566370614359175e-07
62 1.2566370614359175e-07
63 1.2566370614359175e-07
64 1.2566370614359175e-07
65 1.2566370614359175e-07
66 1.2566370614359175e-07
67 1.2566370614359175e-07
68 1.2566370614359175e-07
69 1.2566370614359175e-07
70 1.2566370614359175e-07
71 3.8916262363993505e-05
72 3.8916262363993505e-05
73 3.8916262363993505e-05
74 3.8916262363993505e-05
75 3.8916262363993505e-05
76 3.8916262363993505e-05
77 3.8916262363993505e-05
78 3.8916262363993505e-05
79 3.8916262363993505e-05
80 3.8916262363993505e-05
81 3.8916262363993505e-05
82 3.8916262363993505e-05
83 3.8916262363993505e-05
84 1.297271183281985e-05
85 1.297271183281985e-05
86 1.297271183281985e-05
87 1.297271183281985e-05
88 1.297271183281985e-05
89 1.297271183281985e-05
90 1.297271183281985e-05
$EndElementData
$ElementData
1
"Attribute:SectionDimension1"
1
0
3
0
1
90
1 0.4
2 0.4
3 0.4
4 0.4
5 0.4
6 0.4
7 0.4
8 0.4
9 0.4
10 0.4
11 0.4
12 0.4
13 0.3239
14 0.3239
15 0.3239
16 0.3239
17 0.3239
18 0.3239
19 0.3239
20 0.3239
21 0.3239
22 0.3239
23 0.3239
24 0.3239
25 0.04
26 0.04
27 0.04
28 0.04
29 0.04
30 0.04
31 0.04
32 0.04
33 0.04
34 0.04
35 0.04
36 0.4
37 0.4
38 0.4
39 0.4
40 0.4
41 0.4
42 0.4
43 0.4
44 0.4
45 0.4
46 0.4
47 0.4
48 0.3239
49 0.3239
50 0.3239
51 0.3239
52 0.3239
53 0.3239
54 0.3239
55 0.3239
56 0.3239
57 0.3239
58 0.3239
59 0.3239
60 0.04
61 0.04
62 0.04
63 0.04
64 0.04
65 0.04
66 0.04
67 0.04
68 0.04
69 0.04
70 0.04
71 0.24
72 0.24
73 0.24
74 0.24
75 0.24
76 0.24
77 0.24
78 0.24
79 0.24
80 0.24
81 0.24
82 0.24
83 0.24
84 0.1683
85 0.1683
86 0.1683
87 0.1683
88 0.1683
89 0.1683
90 0.1683
$EndElementData
$ElementData
1
"Attribute:SectionDimension2"
1
0
3
0
1
90
1 0.3
2 0.3
3 0.3
4 0.3
5 0.3
6 0.3
7 0.3
8 0.3
9 0.3
10 0.3
11 0.3
12 0.3
13 0.0125
14 0.0125
15 0.0125
16 0.0125
17 0.0125
18 0.0125
19 0.0125
20 0.0125
21 0.0125
22 0.0125
23 0.0125
24 0.0125
25 0
26 0
27 0
28 0
29 0
30 0
31 0
32 0
33 0
34 0
35 0
36 0.3
37 0.3
38 0.3
39 0.3
40 0.3
41 0.3
42 0.3
43 0.3
44 0.3
45 0.3
46 0.3
47 0.3
48 0.0125
49 0.0125
50 0.0125
51 0.0125
52 0.0125
53 0.0125
54 0.0125
55 0.0125
56 0.0125
57 0.0125
58 0.0125
59 0.0125
60 0
61 0
62 0
63 0
64 0
65 0
66 0
67 0
68 0
69 0
70 0
71 0.12
72 0.12
73 0.12
74 0.12
75 0.12
76 0.12
77 0.12
78 0.12
79 0.12
80 0.12
81 0.12
82 0.12
83 0.12
84 0.008
85 0.008
86 0.008
87 0.008
88 0.008
89 0.008
90 0.008
$EndElementData
$ElementData
1
"Attribute:SectionDimension3"
1
0
3
0
1
90
1 0.0135
2 0.0135
3 0.0135
4 0.0135
5 0.0135
6 0.0135
7 0.0135
8 0.0135
9 0.0135
10 0.0135
11 0.0135
12 0.0135
13 0
14 0
15 0
16 0
17 0
18 0
19 0
20 0
21 0
22 0
23 0
24 0
25 0
26 0
27 0
28 0
29 0
30 0
31 0
32 0
33 0
34 0
35 0
36 0.0135
37 0.0135
38 0.0135
39 0.0135
40 0.0135
41 0.0135
42 0.0135
43 0.0135
44 0.0135
45 0.0135
46 0.0135
47 0.0135
48 0
49 0
50 0
51 0
52 0
53 0
54 0
55 0
56 0
57 0
58 0
59 0
60 0
61 0
62 0
63 0
64 0
65 0
66 0
67 0
68 0
69 0
70 0
71 0.0062
72 0.0062
73 0.0062
74 0.0062
75 0.0062
76 0.0062
77 0.0062
78 0.0062
79 0.0062
80 0.0062
81 0.0062
82 0.0062
83 0.0062
84 0
85 0
86 0
87 0
88 0
89 0
90 0
$EndElementData
$ElementData
1
"Attribute:SectionDimension4"
1
0
3
0
1
90
1 0.024
2 0.024
3 0.024
4 0.024
5 0.024
6 0.024
7 0.024
8 0.024
9 0.024
10 0.024
11 0.024
12 0.024
13 0
14 0
15 0
16 0
17 0
18 0
19 0
20 0
21 0
22 0
23 0
24 0
25 0
26 0
27 0
28 0
29 0
30 0
31 0
32 0
33 0
34 0
35 0
36 0.024
37 0.024
38 0.024
39 0.024
40 0.024
41 0.024
42 0.024
43 0.024
44 0.024
45 0.024
46 0.024
47 0.024
48 0
49 0
50 0
51 0
52 0
53 0
54 0
55 0
56 0
57 0
58 0
59 0
60 0
61 0
62 0
63 0
64 0
65 0
66 0
67 0
68 0
69 0
70 0
71 0.0098
72 0.0098
73 0.0098
74 0.0098
75 0.0098
76 0.0098
77 0.0098
78 0.0098
79 0.0098
80 0.0098
81 0.0098
82 0.0098
83 0.0098
84 0
85 0
86 0
87 0
88 0
89 0
90 0
$EndElementData
$ElementData
1
"Attribute:SectionDimension5"
1
0
3
0
1
90
1 0.027
2 0.027
3 0.027
4 0.027
5 0.027
6 0.027
7 0.027
8 0.027
9 0.027
10 0.027
11 0.027
12 0.027
13 0
14 0
15 0
16 0
17 0
18 0
19 0
20 0
21 0
22 0
23 0
24 0
25 0
26 0
27 0
28 0
29 0
30 0
31 0
32 0
33 0
34 0
35 0
36 0.027
37 0.027
38 0.027
39 0.027
40 0.027
41 0.027
42 0.027
43 0.027
44 0.027
45 0.027
46 0.027
47 0.027
48 0
49 0
50 0
51 0
52 0
53 0
54 0
55 0
56 0
57 0
58 0
59 0
60 0
61 0
62 0
63 0
64 0
65 0
66 0
67 0
68 0
69 0
70 0
71 0.015
72 0.015
73 0.015
74 0.015
75 0.015
76 0.015
77 0.015
78 0.015
79 0.015
80 0.015
81 0.015
82 0.015
83 0.015
84 0
85 0
86 0
87 0
88 0
89 0
90 0
$EndElementData
$ElementData
1
"Attribute:SectionShape"
1
0
3
0
1
90
1 5
2 5
3 5
4 5
5 5
6 5
7 5
8 5
9 5
10 5
11 5
12 5
13 3
14 3
15 3
16 3
17 3
18 3
19 3
20 3
21 3
22 3
23 3
24 3
25 2
26 2
27 2
28 2
29 2
30 2
31 2
32 2
33 2
34 2
35 2
36 5
37 5
38 5
39 5
40 5
41 5
42 5
43 5
44 5
45 5
46 5
47 5
48 3
49 3
50 3
51 3
52 3
53 3
54 3
55 3
56 3
57 3
58 3
59 3
60 2
61 2
62 2
63 2
64 2
65 2
66 2
67 2
68 2
69 2
70 2
71 5
72 5
73 5
74 5
75 5
76 5
77 5
78 5
79 5
80 5
81 5
82 5
83 5
84 3
85 3
86 3
87 3
88 3
89 3
90 3
$EndElementData
$ElementData
1
"Attribute:ShearAreaY"
1
0
3
0
1
90
1 0.004866578591453668
2 0.004866578591453668
3 0.004866578591453668
4 0.004866578591453668
5 0.004866578591453668
6 0.004866578591453668
7 0.004866578591453668
8 0.004866578591453668
9 0.004866578591453668
10 0.004866578591453668
11 0.004866578591453668
12 0.004866578591453668
13 0.006505445863801528
14 0.006505445863801528
15 0.006505445863801528
16 0.006505445863801528
17 0.006505445863801528
18 0.006505445863801528
19 0.006505445863801528
20 0.006505445863801528
21 0.006505445863801528
22 0.006505445863801528
23 0.006505445863801528
24 0.006505445863801528
25 0.001113837395363654
26 0.001113837395363654
27 0.001113837395363654
28 0.001113837395363654
29 0.001113837395363654
30 0.001113837395363654
31 0.001113837395363654
32 0.001113837395363654
33 0.001113837395363654
34 0.001113837395363654
35 0.001113837395363654
36 0.004866578591453668
37 0.004866578591453668
38 0.004866578591453668
39 0.004866578591453668
40 0.004866578591453668
41 0.004866578591453668
42 0.004866578591453668
43 0.004866578591453668
44 0.004866578591453668
45 0.004866578591453668
46 0.004866578591453668
47 0.004866578591453668
48 0.006505445863801528
49 0.006505445863801528
50 0.006505445863801528
51 0.006505445863801528
52 0.006505445863801528
53 0.006505445863801528
54 0.006505445863801528
55 0.006505445863801528
56 0.006505445863801528
57 0.006505445863801528
58 0.006505445863801528
59 0.006505445863801528
60 0.001113837395363654
61 0.001113837395363654
62 0.001113837395363654
63 0.001113837395363654
64 0.001113837395363654
65 0.001113837395363654
66 0.001113837395363654
67 0.001113837395363654
68 0.001113837395363654
69 0.001113837395363654
70 0.001113837395363654
71 0.001427571734197008
72 0.001427571734197008
73 0.001427571734197008
74 0.001427571734197008
75 0.001427571734197008
76 0.001427571734197008
77 0.001427571734197008
78 0.001427571734197008
79 0.001427571734197008
80 0.001427571734197008
81 0.001427571734197008
82 0.001427571734197008
83 0.001427571734197008
84 0.002146258593029163
85 0.002146258593029163
86 0.002146258593029163
87 0.002146258593029163
88 0.002146258593029163
89 0.002146258593029163
90 0.002146258593029163
$EndElementData
$ElementData
1
"Attribute:ShearAreaZ"
1
0
3
0
1
90
1 0.012235294117647058
2 0.012235294117647058
3 0.012235294117647058
4 0.012235294117647058
5 0.012235294117647058
6 0.012235294117647058
7 0.012235294117647058
8 0.012235294117647058
9 0.012235294117647058
10 0.012235294117647058
11 0.012235294117647058
12 0.012235294117647058
13 0.006505445863801528
14 0.006505445863801528
15 0.006505445863801528
16 0.006505445863801528
17 0.006505445863801528
18 0.006505445863801528
19 0.006505445863801528
20 0.006505445863801528
21 0.006505445863801528
22 0.006505445863801528
23 0.006505445863801528
24 0.006505445863801528
25 0.001113837395363654
26 0.001113837395363654
27 0.001113837395363654
28 0.001113837395363654
29 0.001113837395363654
30 0.001113837395363654
31 0.001113837395363654
32 0.001113837395363654
33 0.001113837395363654
34 0.001113837395363654
35 0.001113837395363654
36 0.012235294117647058
37 0.012235294117647058
38 0.012235294117647058
39 0.012235294117647058
40 0.012235294117647058
41 0.012235294117647058
42 0.012235294117647058
43 0.012235294117647058
44 0.012235294117647058
45 0.012235294117647058
46 0.012235294117647058
47 0.012235294117647058
48 0.006505445863801528
49 0.006505445863801528
50 0.006505445863801528
51 0.006505445863801528
52 0.006505445863801528
53 0.006505445863801528
54 0.006505445863801528
55 0.006505445863801528
56 0.006505445863801528
57 0.006505445863801528
58 0.006505445863801528
59 0.006505445863801528
60 0.001113837395363654
61 0.001113837395363654
62 0.001113837395363654
63 0.001113837395363654
64 0.001113837395363654
65 0.001113837395363654
66 0.001113837395363654
67 0.001113837395363654
68 0.001113837395363654
69 0.001113837395363654
70 0.001113837395363654
71 0.0019984313725490196
72 0.0019984313725490196
73 0.0019984313725490196
74 0.0019984313725490196
75 0.0019984313725490196
76 0.0019984313725490196
77 0.0019984313725490196
78 0.0019984313725490196
79 0.0019984313725490196
80 0.0019984313725490196
81 0.0019984313725490196
82 0.0019984313725490196
83 0.0019984313725490196
84 0.002146258593029163
85 0.002146258593029163
86 0.002146258593029163
87 0.002146258593029163
88 0.002146258593029163
89 0.002146258593029163
90 0.002146258593029163
$EndElementData
$ElementData
1
"Attribute:TorsionConstant"
1
0
3
0
1
90
1 3.557463075636816e-06
2 3.557463075636816e-06
3 3.557463075636816e-06
4 3.557463075636816e-06
5 3.557463075636816e-06
6 3.557463075636816e-06
7 3.557463075636816e-06
8 3.557463075636816e-06
9 3.557463075636816e-06
10 3.557463075636816e-06
11 3.557463075636816e-06
12 3.557463075636816e-06
13 0.0002969305925097061
14 0.0002969305925097061
15 0.0002969305925097061
16 0.0002969305925097061
17 0.0002969305925097061
18 0.0002969305925097061
19 0.0002969305925097061
20 0.0002969305925097061
21 0.0002969305925097061
22 0.0002969305925097061
23 0.0002969305925097061
24 0.0002969305925097061
25 2.513274122871835e-07
26 2.513274122871835e-07
27 2.513274122871835e-07
28 2.513274122871835e-07
29 2.513274122871835e-07
30 2.513274122871835e-07
31 2.513274122871835e-07
32 2.513274122871835e-07
33 2.513274122871835e-07
34 2.513274122871835e-07
35 2.513274122871835e-07
36 3.557463075636816e-06
37 3.557463075636816e-06
38 3.557463075636816e-06
39 3.557463075636816e-06
40 3.557463075636816e-06
41 3.557463075636816e-06
42 3.557463075636816e-06
43 3.557463075636816e-06
44 3.557463075636816e-06
45 3.557463075636816e-06
46 3.557463075636816e-06
47 3.557463075636816e-06
48 0.0002969305925097061
49 0.0002969305925097061
50 0.0002969305925097061
51 0.0002969305925097061
52 0.0002969305925097061
53 0.0002969305925097061
54 0.0002969305925097061
55 0.0002969305925097061
56 0.0002969305925097061
57 0.0002969305925097061
58 0.0002969305925097061
59 0.0002969305925097061
60 2.513274122871835e-07
61 2.513274122871835e-07
62 2.513274122871835e-07
63 2.513274122871835e-07
64 2.513274122871835e-07
65 2.513274122871835e-07
66 2.513274122871835e-07
67 2.513274122871835e-07
68 2.513274122871835e-07
69 2.513274122871835e-07
70 2.513274122871835e-07
71 1.287981285296164e-07
72 1.287981285296164e-07
73 1.287981285296164e-07
74 1.287981285296164e-07
75 1.287981285296164e-07
76 1.287981285296164e-07
77 1.287981285296164e-07
78 1.287981285296164e-07
79 1.287981285296164e-07
80 1.287981285296164e-07
81 1.287981285296164e-07
82 1.287981285296164e-07
83 1.287981285296164e-07
84 2.59454236656397e-05
85 2.59454236656397e-05
86 2.59454236656397e-05
87 2.59454236656397e-05
88 2.59454236656397e-05
89 2.59454236656397e-05
90 2.59454236656397e-05
$EndElementData
$ElementData
1
"Attribute:UniformLoadGlobalX"
1
0
3
0
1
90
1 0
2 0
3 0
4 0
5 0
6 0
7 0
8 0
9 0
10 0
11 0
12 0
13 0
14 0
15 0
16 0
17 0
18 0
19 0
20 0
21 0
22 0
23 0
24 0
25 0
26 0
27 0
28 0
29 0
30 0
31 0
32 0
33 0
34 0
35 0
36 0
37 0
38 0
39 0
40 0
41 0
42 0
43 0
44 0
45 0
46 0
47 0
48 0
49 0
50 0
51 0
52 0
53 0
54 0
55 0
56 0
57 0
58 0
59 0
60 0
61 0
62 0
63 0
64 0
65 0
66 0
67 0
68 0
69 0
70 0
71 0
72 0
73 0
74 0
75 0
76 0
77 0
78 0
79 0
80 0
81 0
82 0
83 0
84 0
85 0
86 0
87 0
88 0
89 0
90 0
$EndElementData
$ElementData
1
"Attribute:UniformLoadGlobalY"
1
0
3
0
1
90
1 -8000
2 -8000
3 -8000
4 -8000
5 -8000
6 -8000
7 -8000
8 -8000
9 -8000
10 -8000
11 -8000
12 -8000
13 0
14 0
15 0
16 0
17 0
18 0
19 0
20 0
21 0
22 0
23 0
24 0
25 0
26 0
27 0
28 0
29 0
30 0
31 0
32 0
33 0
34 0
35 0
36 -8000
37 -8000
38 -8000
39 -8000
40 -8000
41 -8000
42 -8000
43 -8000
44 -8000
45 -8000
46 -8000
47 -8000
48 0
49 0
50 0
51 0
52 0
53 0
54 0
55 0
56 0
57 0
58 0
59 0
60 0
61 0
62 0
63 0
64 0
65 0
66 0
67 0
68 0
69 0
70 0
71 0
72 0
73 0
74 0
75 0
76 0
77 0
78 0
79 0
80 0
81 0
82 0
83 0
84 0
85 0
86 0
87 0
88 0
89 0
90 0
$EndElementData
$ElementData
1
"Attribute:UniformLoadGlobalZ"
1
0
3
0
1
90
1 0
2 0
3 0
4 0
5 0
6 0
7 0
8 0
9 0
10 0
11 0
12 0
13 0
14 0
15 0
16 0
17 0
18 0
19 0
20 0
21 0
22 0
23 0
24 0
25 0
26 0
27 0
28 0
29 0
30 0
31 0
32 0
33 0
34 0
35 0
36 0
37 0
38 0
39 0
40 0
41 0
42 0
43 0
44 0
45 0
46 0
47 0
48 0
49 0
50 0
51 0
52 0
53 0
54 0
55 0
56 0
57 0
58 0
59 0
60 0
61 0
62 0
63 0
64 0
65 0
66 0
67 0
68 0
69 0
70 0
71 0
72 0
73 0
74 0
75 0
76 0
77 0
78 0
79 0
80 0
81 0
82 0
83 0
84 0
85 0
86 0
87 0
88 0
89 0
90 0
$EndElementData
$ElementData
1
"Attribute:UniformLoadLocalX"
1
0
3
0
1
90
1 0
2 0
3 0
4 0
5 0
6 0
7 0
8 0
9 0
10 0
11 0
12 0
13 0
14 0
15 0
16 0
17 0
18 0
19 0
20 0
21 0
22 0
23 0
24 0
25 0
26 0
27 0
28 0
29 0
30 0
31 0
32 0
33 0
34 0
35 0
36 0
37 0
38 0
39 0
40 0
41 0
42 0
43 0
44 0
45 0
46 0
47 0
48 0
49 0
50 0
51 0
52 0
53 0
54 0
55 0
56 0
57 0
58 0
59 0
60 0
61 0
62 0
63 0
64 0
65 0
66 0
67 0
68 0
69 0
70 0
71 0
72 0
73 0
74 0
75 0
76 0
77 0
78 0
79 0
80 0
81 0
82 0
83 0
84 0
85 0
86 0
87 0
88 0
89 0
90 0
$EndElementData
$ElementData
1
"Attribute:UniformLoadLocalY"
1
0
3
0
1
90
1 0
2 0
3 0
4 0
5 0
6 0
7 0
8 0
9 0
10 0
11 0
12 0
13 0
14 0
15 0
16 0
17 0
18 0
19 0
20 0
21 0
22 0
23 0
24 0
25 0
26 0
27 0
28 0
29 0
30 0
31 0
32 0
33 0
34 0
35 0
36 0
37 0
38 0
39 0
40 0
41 0
42 0
43 0
44 0
45 0
46 0
47 0
48 0
49 0
50 0
51 0
52 0
53 0
54 0
55 0
56 0
57 0
58 0
59 0
60 0
61 0
62 0
63 0
64 0
65 0
66 0
67 0
68 0
69 0
70 0
71 0
72 0
73 0
74 0
75 0
76 0
77 0
78 0
79 0
80 0
81 0
82 0
83 0
84 0
85 0
86 0
87 0
88 0
89 0
90 0
$EndElementData
$ElementData
1
"Attribute:UniformLoadLocalZ"
1
0
3
0
1
90
1 0
2 0
3 0
4 0
5 0
6 0
7 0
8 0
9 0
10 0
11 0
12 0
13 0
14 0
15 0
16 0
17 0
18 0
19 0
20 0
21 0
22 0
23 0
24 0
25 0
26 0
27 0
28 0
29 0
30 0
31 0
32 0
33 0
34 0
35 0
36 0
37 0
38 0
39 0
40 0
41 0
42 0
43 0
44 0
45 0
46 0
47 0
48 0
49 0
50 0
51 0
52 0
53 0
54 0
55 0
56 0
57 0
58 0
59 0
60 0
61 0
62 0
63 0
64 0
65 0
66 0
67 0
68 0
69 0
70 0
71 0
72 0
73 0
74 0
75 0
76 0
77 0
78 0
79 0
80 0
81 0
82 0
83 0
84 0
85 0
86 0
87 0
88 0
89 0
90 0
$EndElementData
$ElementData
1
"BeamOrientation"
1
0
3
0
3
90
1 0 0 0
2 0 0 0
3 0 0 0
4 0 0 0
5 0 0 0
6 0 0 0
7 0 0 0
8 0 0 0
9 0 0 0
10 0 0 0
11 0 0 0
12 0 0 0
13 0 0 0
14 0 0 0
15 0 0 0
16 0 0 0
17 0 0 0
18 0 0 0
19 0 0 0
20 0 0 0
21 0 0 0
22 0 0 0
23 0 0 0
24 0 0 0
25 0 0 0
26 0 0 0
27 0 0 0
28 0 0 0
29 0 0 0
30 0 0 0
31 0 0 0
32 0 0 0
33 0 0 0
34 0 0 0
35 0 0 0
36 0 0 0
37 0 0 0
38 0 0 0
39 0 0 0
40 0 0 0
41 0 0 0
42 0 0 0
43 0 0 0
44 0 0 0
45 0 0 0
46 0 0 0
47 0 0 0
48 0 0 0
49 0 0 0
50 0 0 0
51 0 0 0
52 0 0 0
53 0 0 0
54 0 0 0
55 0 0 0
56 0 0 0
57 0 0 0
58 0 0 0
59 0 0 0
60 0 0 0
61 0 0 0
62 0 0 0
63 0 0 0
64 0 0 0
65 0 0 0
66 0 0 0
67 0 0 0
68 0 0 0
69 0 0 0
70 0 0 0
71 0 0 0
72 0 0 0
73 0 0 0
74 0 0 0
75 0 0 0
76 0 0 0
77 0 0 0
78 0 0 0
79 0 0 0
80 0 0 0
81 0 0 0
82 0 0 0
83 0 0 0
84 0 0 0
85 0 0 0
86 0 0 0
87 0 0 0
88 0 0 0
89 0 0 0
90 0 0 0
$EndElementData
$AnafData
1
1
GLOBAL 3 1
"Gravity"
0 -9.80665 0
$EndAnafData
