$MeshFormat
4.1 0 8
$EndMeshFormat
$PhysicalNames
3
1 1 "Material:Structural Steel S355 (EN 10025)"
1 2 "Section:IPE 300"
1 3 "Section:HEB 500"
$EndPhysicalNames
$Entities
0 2 0 0
1 0 0 0 50 0 3 2 1 3 0
2 0 0 0 50 0 3 2 1 2 0
$EndEntities
$Nodes
1 42 1 42
1 1 0 42
1
2
3
4
5
6
7
8
9
10
11
12
13
14
15
16
17
18
19
20
21
22
23
24
25
26
27
28
29
30
31
32
33
34
35
36
37
38
39
40
41
42
0 0 0
2.5 0 0
5 0 0
7.5 0 0
10 0 0
12.5 0 0
15 0 0
17.5 0 0
20 0 0
22.5 0 0
25 0 0
27.5 0 0
30 0 0
32.5 0 0
35 0 0
37.5 0 0
40 0 0
42.5 0 0
45 0 0
47.5 0 0
50 0 0
0 0 3
2.5 0 3
5 0 3
7.5 0 3
10 0 3
12.5 0 3
15 0 3
17.5 0 3
20 0 3
22.5 0 3
25 0 3
27.5 0 3
30 0 3
32.5 0 3
35 0 3
37.5 0 3
40 0 3
42.5 0 3
45 0 3
47.5 0 3
50 0 3
$EndNodes
$Elements
2 51 1 51
1 1 1 40
1 1 2
2 2 3
3 3 4
4 4 5
5 5 6
6 6 7
7 7 8
8 8 9
9 9 10
10 10 11
11 11 12
12 12 13
13 13 14
14 14 15
15 15 16
16 16 17
17 17 18
18 18 19
19 19 20
20 20 21
21 22 23
22 23 24
23 24 25
24 25 26
25 26 27
26 27 28
27 28 29
28 29 30
29 30 31
30 31 32
31 32 33
32 33 34
33 34 35
34 35 36
35 36 37
36 37 38
37 38 39
38 39 40
39 40 41
40 41 42
1 2 1 11
41 1 22
42 3 24
43 5 26
44 7 28
45 9 30
46 11 32
47 13 34
48 15 36
49 17 38
50 19 40
51 21 42
$EndElements
$NodeData
1
"Fixity"
1
0
3
0
3
42
1 1 1 1
2 0 0 0
3 0 0 0
4 0 0 0
5 0 0 0
6 0 0 0
7 0 1 1
8 0 0 0
9 0 0 0
10 0 0 0
11 0 0 0
12 0 0 0
13 0 0 0
14 0 0 0
15 0 1 1
16 0 0 0
17 0 0 0
18 0 0 0
19 0 0 0
20 0 0 0
21 0 1 1
22 0 1 0
23 0 0 0
24 0 0 0
25 0 0 0
26 0 0 0
27 0 0 0
28 0 1 0
29 0 0 0
30 0 0 0
31 0 0 0
32 0 0 0
33 0 0 0
34 0 0 0
35 0 0 0
36 0 1 0
37 0 0 0
38 0 0 0
39 0 0 0
40 0 0 0
41 0 0 0
42 0 1 0
$EndNodeData
$NodeData
1
"FixityRotation"
1
0
3
0
3
42
1 1 0 0
2 0 0 0
3 0 0 0
4 0 0 0
5 0 0 0
6 0 0 0
7 1 0 0
8 0 0 0
9 0 0 0
10 0 0 0
11 0 0 0
12 0 0 0
13 0 0 0
14 0 0 0
15 1 0 0
16 0 0 0
17 0 0 0
18 0 0 0
19 0 0 0
20 0 0 0
21 1 0 0
22 1 0 0
23 0 0 0
24 0 0 0
25 0 0 0
26 0 0 0
27 0 0 0
28 1 0 0
29 0 0 0
30 0 0 0
31 0 0 0
32 0 0 0
33 0 0 0
34 0 0 0
35 0 0 0
36 1 0 0
37 0 0 0
38 0 0 0
39 0 0 0
40 0 0 0
41 0 0 0
42 1 0 0
$EndNodeData
$ElementData
1
"CrossSectionArea"
1
0
3
0
1
51
1 0.023863778955533033
2 0.023863778955533033
3 0.023863778955533033
4 0.023863778955533033
5 0.023863778955533033
6 0.023863778955533033
7 0.023863778955533033
8 0.023863778955533033
9 0.023863778955533033
10 0.023863778955533033
11 0.023863778955533033
12 0.023863778955533033
13 0.023863778955533033
14 0.023863778955533033
15 0.023863778955533033
16 0.023863778955533033
17 0.023863778955533033
18 0.023863778955533033
19 0.023863778955533033
20 0.023863778955533033
21 0.023863778955533033
22 0.023863778955533033
23 0.023863778955533033
24 0.023863778955533033
25 0.023863778955533033
26 0.023863778955533033
27 0.023863778955533033
28 0.023863778955533033
29 0.023863778955533033
30 0.023863778955533033
31 0.023863778955533033
32 0.023863778955533033
33 0.023863778955533033
34 0.023863778955533033
35 0.023863778955533033
36 0.023863778955533033
37 0.023863778955533033
38 0.023863778955533033
39 0.023863778955533033
40 0.023863778955533033
41 0.005381201652942294
42 0.005381201652942294
43 0.005381201652942294
44 0.005381201652942294
45 0.005381201652942294
46 0.005381201652942294
47 0.005381201652942294
48 0.005381201652942294
49 0.005381201652942294
50 0.005381201652942294
51 0.005381201652942294
$EndElementData
$ElementData
1
"Attribute:ElementFormulation"
1
0
3
0
1
51
1 1
2 1
3 1
4 1
5 1
6 1
7 1
8 1
9 1
10 1
11 1
12 1
13 1
14 1
15 1
16 1
17 1
18 1
19 1
20 1
21 1
22 1
23 1
24 1
25 1
26 1
27 1
28 1
29 1
30 1
31 1
32 1
33 1
34 1
35 1
36 1
37 1
38 1
39 1
40 1
41 1
42 1
43 1
44 1
45 1
46 1
47 1
48 1
49 1
50 1
51 1
$EndElementData
$ElementData
1
"MaterialID"
1
0
3
0
1
51
1 3
2 3
3 3
4 3
5 3
6 3
7 3
8 3
9 3
10 3
11 3
12 3
13 3
14 3
15 3
16 3
17 3
18 3
19 3
20 3
21 3
22 3
23 3
24 3
25 3
26 3
27 3
28 3
29 3
30 3
31 3
32 3
33 3
34 3
35 3
36 3
37 3
38 3
39 3
40 3
41 3
42 3
43 3
44 3
45 3
46 3
47 3
48 3
49 3
50 3
51 3
$EndElementData
$ElementData
1
"Attribute:SecondMomentY"
1
0
3
0
1
51
1 0.0001262392151656709
2 0.0001262392151656709
3 0.0001262392151656709
4 0.0001262392151656709
5 0.0001262392151656709
6 0.0001262392151656709
7 0.0001262392151656709
8 0.0001262392151656709
9 0.0001262392151656709
10 0.0001262392151656709
11 0.0001262392151656709
12 0.0001262392151656709
13 0.0001262392151656709
14 0.0001262392151656709
15 0.0001262392151656709
16 0.0001262392151656709
17 0.0001262392151656709
18 0.0001262392151656709
19 0.0001262392151656709
20 0.0001262392151656709
21 0.0001262392151656709
22 0.0001262392151656709
23 0.0001262392151656709
24 0.0001262392151656709
25 0.0001262392151656709
26 0.0001262392151656709
27 0.0001262392151656709
28 0.0001262392151656709
29 0.0001262392151656709
30 0.0001262392151656709
31 0.0001262392151656709
32 0.0001262392151656709
33 0.0001262392151656709
34 0.0001262392151656709
35 0.0001262392151656709
36 0.0001262392151656709
37 0.0001262392151656709
38 0.0001262392151656709
39 0.0001262392151656709
40 0.0001262392151656709
41 6.037784243992912e-06
42 6.037784243992912e-06
43 6.037784243992912e-06
44 6.037784243992912e-06
45 6.037784243992912e-06
46 6.037784243992912e-06
47 6.037784243992912e-06
48 6.037784243992912e-06
49 6.037784243992912e-06
50 6.037784243992912e-06
51 6.037784243992912e-06
$EndElementData
$ElementData
1
"Attribute:SecondMomentZ"
1
0
3
0
1
51
1 0.0010717578839987893
2 0.0010717578839987893
3 0.0010717578839987893
4 0.0010717578839987893
5 0.0010717578839987893
6 0.0010717578839987893
7 0.0010717578839987893
8 0.0010717578839987893
9 0.0010717578839987893
10 0.0010717578839987893
11 0.0010717578839987893
12 0.0010717578839987893
13 0.0010717578839987893
14 0.0010717578839987893
15 0.0010717578839987893
16 0.0010717578839987893
17 0.0010717578839987893
18 0.0010717578839987893
19 0.0010717578839987893
20 0.0010717578839987893
21 0.0010717578839987893
22 0.0010717578839987893
23 0.0010717578839987893
24 0.0010717578839987893
25 0.0010717578839987893
26 0.0010717578839987893
27 0.0010717578839987893
28 0.0010717578839987893
29 0.0010717578839987893
30 0.0010717578839987893
31 0.0010717578839987893
32 0.0010717578839987893
33 0.0010717578839987893
34 0.0010717578839987893
35 0.0010717578839987893
36 0.0010717578839987893
37 0.0010717578839987893
38 0.0010717578839987893
39 0.0010717578839987893
40 0.0010717578839987893
41 8.356109185847977e-05
42 8.356109185847977e-05
43 8.356109185847977e-05
44 8.356109185847977e-05
45 8.356109185847977e-05
46 8.356109185847977e-05
47 8.356109185847977e-05
48 8.356109185847977e-05
49 8.356109185847977e-05
50 8.356109185847977e-05
51 8.356109185847977e-05
$EndElementData
$ElementData
1
"Attribute:SectionDimension1"
1
0
3
0
1
51
1 0.5
2 0.5
3 0.5
4 0.5
5 0.5
6 0.5
7 0.5
8 0.5
9 0.5
10 0.5
11 0.5
12 0.5
13 0.5
14 0.5
15 0.5
16 0.5
17 0.5
18 0.5
19 0.5
20 0.5
21 0.5
22 0.5
23 0.5
24 0.5
25 0.5
26 0.5
27 0.5
28 0.5
29 0.5
30 0.5
31 0.5
32 0.5
33 0.5
34 0.5
35 0.5
36 0.5
37 0.5
38 0.5
39 0.5
40 0.5
41 0.3
42 0.3
43 0.3
44 0.3
45 0.3
46 0.3
47 0.3
48 0.3
49 0.3
50 0.3
51 0.3
$EndElementData
$ElementData
1
"Attribute:SectionDimension2"
1
0
3
0
1
51
1 0.3
2 0.3
3 0.3
4 0.3
5 0.3
6 0.3
7 0.3
8 0.3
9 0.3
10 0.3
11 0.3
12 0.3
13 0.3
14 0.3
15 0.3
16 0.3
17 0.3
18 0.3
19 0.3
20 0.3
21 0.3
22 0.3
23 0.3
24 0.3
25 0.3
26 0.3
27 0.3
28 0.3
29 0.3
30 0.3
31 0.3
32 0.3
33 0.3
34 0.3
35 0.3
36 0.3
37 0.3
38 0.3
39 0.3
40 0.3
41 0.15
42 0.15
43 0.15
44 0.15
45 0.15
46 0.15
47 0.15
48 0.15
49 0.15
50 0.15
51 0.15
$EndElementData
$ElementData
1
"Attribute:SectionDimension3"
1
0
3
0
1
51
1 0.0145
2 0.0145
3 0.0145
4 0.0145
5 0.0145
6 0.0145
7 0.0145
8 0.0145
9 0.0145
10 0.0145
11 0.0145
12 0.0145
13 0.0145
14 0.0145
15 0.0145
16 0.0145
17 0.0145
18 0.0145
19 0.0145
20 0.0145
21 0.0145
22 0.0145
23 0.0145
24 0.0145
25 0.0145
26 0.0145
27 0.0145
28 0.0145
29 0.0145
30 0.0145
31 0.0145
32 0.0145
33 0.0145
34 0.0145
35 0.0145
36 0.0145
37 0.0145
38 0.0145
39 0.0145
40 0.0145
41 0.0071
42 0.0071
43 0.0071
44 0.0071
45 0.0071
46 0.0071
47 0.0071
48 0.0071
49 0.0071
50 0.0071
51 0.0071
$EndElementData
$ElementData
1
"Attribute:SectionDimension4"
1
0
3
0
1
51
1 0.028
2 0.028
3 0.028
4 0.028
5 0.028
6 0.028
7 0.028
8 0.028
9 0.028
10 0.028
11 0.028
12 0.028
13 0.028
14 0.028
15 0.028
16 0.028
17 0.028
18 0.028
19 0.028
20 0.028
21 0.028
22 0.028
23 0.028
24 0.028
25 0.028
26 0.028
27 0.028
28 0.028
29 0.028
30 0.028
31 0.028
32 0.028
33 0.028
34 0.028
35 0.028
36 0.028
37 0.028
38 0.028
39 0.028
40 0.028
41 0.0107
42 0.0107
43 0.0107
44 0.0107
45 0.0107
46 0.0107
47 0.0107
48 0.0107
49 0.0107
50 0.0107
51 0.0107
$EndElementData
$ElementData
1
"Attribute:SectionDimension5"
1
0
3
0
1
51
1 0.027
2 0.027
3 0.027
4 0.027
5 0.027
6 0.027
7 0.027
8 0.027
9 0.027
10 0.027
11 0.027
12 0.027
13 0.027
14 0.027
15 0.027
16 0.027
17 0.027
18 0.027
19 0.027
20 0.027
21 0.027
22 0.027
23 0.027
24 0.027
25 0.027
26 0.027
27 0.027
28 0.027
29 0.027
30 0.027
31 0.027
32 0.027
33 0.027
34 0.027
35 0.027
36 0.027
37 0.027
38 0.027
39 0.027
40 0.027
41 0.015
42 0.015
43 0.015
44 0.015
45 0.015
46 0.015
47 0.015
48 0.015
49 0.015
50 0.015
51 0.015
$EndElementData
$ElementData
1
"Attribute:SectionShape"
1
0
3
0
1
51
1 5
2 5
3 5
4 5
5 5
6 5
7 5
8 5
9 5
10 5
11 5
12 5
13 5
14 5
15 5
16 5
17 5
18 5
19 5
20 5
21 5
22 5
23 5
24 5
25 5
26 5
27 5
28 5
29 5
30 5
31 5
32 5
33 5
34 5
35 5
36 5
37 5
38 5
39 5
40 5
41 5
42 5
43 5
44 5
45 5
46 5
47 5
48 5
49 5
50 5
51 5
$EndElementData
$ElementData
1
"Attribute:ShearAreaY"
1
0
3
0
1
51
1 0.006643954150762147
2 0.006643954150762147
3 0.006643954150762147
4 0.006643954150762147
5 0.006643954150762147
6 0.006643954150762147
7 0.006643954150762147
8 0.006643954150762147
9 0.006643954150762147
10 0.006643954150762147
11 0.006643954150762147
12 0.006643954150762147
13 0.006643954150762147
14 0.006643954150762147
15 0.006643954150762147
16 0.006643954150762147
17 0.006643954150762147
18 0.006643954150762147
19 0.006643954150762147
20 0.006643954150762147
21 0.006643954150762147
22 0.006643954150762147
23 0.006643954150762147
24 0.006643954150762147
25 0.006643954150762147
26 0.006643954150762147
27 0.006643954150762147
28 0.006643954150762147
29 0.006643954150762147
30 0.006643954150762147
31 0.006643954150762147
32 0.006643954150762147
33 0.006643954150762147
34 0.006643954150762147
35 0.006643954150762147
36 0.006643954150762147
37 0.006643954150762147
38 0.006643954150762147
39 0.006643954150762147
40 0.006643954150762147
41 0.0020268632069733684
42 0.0020268632069733684
43 0.0020268632069733684
44 0.0020268632069733684
45 0.0020268632069733684
46 0.0020268632069733684
47 0.0020268632069733684
48 0.0020268632069733684
49 0.0020268632069733684
50 0.0020268632069733684
51 0.0020268632069733684
$EndElementData
$ElementData
1
"Attribute:ShearAreaZ"
1
0
3
0
1
51
1 0.014274509803921568
2 0.014274509803921568
3 0.014274509803921568
4 0.014274509803921568
5 0.014274509803921568
6 0.014274509803921568
7 0.014274509803921568
8 0.014274509803921568
9 0.014274509803921568
10 0.014274509803921568
11 0.014274509803921568
12 0.014274509803921568
13 0.014274509803921568
14 0.014274509803921568
15 0.014274509803921568
16 0.014274509803921568
17 0.014274509803921568
18 0.014274509803921568
19 0.014274509803921568
20 0.014274509803921568
21 0.014274509803921568
22 0.014274509803921568
23 0.014274509803921568
24 0.014274509803921568
25 0.014274509803921568
26 0.014274509803921568
27 0.014274509803921568
28 0.014274509803921568
29 0.014274509803921568
30 0.014274509803921568
31 0.014274509803921568
32 0.014274509803921568
33 0.014274509803921568
34 0.014274509803921568
35 0.014274509803921568
36 0.014274509803921568
37 0.014274509803921568
38 0.014274509803921568
39 0.014274509803921568
40 0.014274509803921568
41 0.0027274509803921565
42 0.0027274509803921565
43 0.0027274509803921565
44 0.0027274509803921565
45 0.0027274509803921565
46 0.0027274509803921565
47 0.0027274509803921565
48 0.0027274509803921565
49 0.0027274509803921565
50 0.0027274509803921565
51 0.0027274509803921565
$EndElementData
$ElementData
1
"Attribute:TorsionConstant"
1
0
3
0
1
51
1 5.384421066339269e-06
2 5.384421066339269e-06
3 5.384421066339269e-06
4 5.384421066339269e-06
5 5.384421066339269e-06
6 5.384421066339269e-06
7 5.384421066339269e-06
8 5.384421066339269e-06
9 5.384421066339269e-06
10 5.384421066339269e-06
11 5.384421066339269e-06
12 5.384421066339269e-06
13 5.384421066339269e-06
14 5.384421066339269e-06
15 5.384421066339269e-06
16 5.384421066339269e-06
17 5.384421066339269e-06
18 5.384421066339269e-06
19 5.384421066339269e-06
20 5.384421066339269e-06
21 5.384421066339269e-06
22 5.384421066339269e-06
23 5.384421066339269e-06
24 5.384421066339269e-06
25 5.384421066339269e-06
26 5.384421066339269e-06
27 5.384421066339269e-06
28 5.384421066339269e-06
29 5.384421066339269e-06
30 5.384421066339269e-06
31 5.384421066339269e-06
32 5.384421066339269e-06
33 5.384421066339269e-06
34 5.384421066339269e-06
35 5.384421066339269e-06
36 5.384421066339269e-06
37 5.384421066339269e-06
38 5.384421066339269e-06
39 5.384421066339269e-06
40 5.384421066339269e-06
41 2.011849577943933e-07
42 2.011849577943933e-07
43 2.011849577943933e-07
44 2.011849577943933e-07
45 2.011849577943933e-07
46 2.011849577943933e-07
47 2.011849577943933e-07
48 2.011849577943933e-07
49 2.011849577943933e-07
50 2.011849577943933e-07
51 2.011849577943933e-07
$EndElementData
$ElementData
1
"Attribute:UniformLoadGlobalX"
1
0
3
0
1
51
1 0
2 0
3 0
4 0
5 0
6 0
7 0
8 0
9 0
10 0
11 0
12 0
13 0
14 0
15 0
16 0
17 0
18 0
19 0
20 0
21 0
22 0
23 0
24 0
25 0
26 0
27 0
28 0
29 0
30 0
31 0
32 0
33 0
34 0
35 0
36 0
37 0
38 0
39 0
40 0
41 0
42 0
43 0
44 0
45 0
46 0
47 0
48 0
49 0
50 0
51 0
$EndElementData
$ElementData
1
"Attribute:UniformLoadGlobalY"
1
0
3
0
1
51
1 -20000
2 -20000
3 -20000
4 -20000
5 -20000
6 -20000
7 -20000
8 -20000
9 -20000
10 -20000
11 -20000
12 -20000
13 -20000
14 -20000
15 -20000
16 -20000
17 -20000
18 -20000
19 -20000
20 -20000
21 -20000
22 -20000
23 -20000
24 -20000
25 -20000
26 -20000
27 -20000
28 -20000
29 -20000
30 -20000
31 -20000
32 -20000
33 -20000
34 -20000
35 -20000
36 -20000
37 -20000
38 -20000
39 -20000
40 -20000
41 0
42 0
43 0
44 0
45 0
46 0
47 0
48 0
49 0
50 0
51 0
$EndElementData
$ElementData
1
"Attribute:UniformLoadGlobalZ"
1
0
3
0
1
51
1 0
2 0
3 0
4 0
5 0
6 0
7 0
8 0
9 0
10 0
11 0
12 0
13 0
14 0
15 0
16 0
17 0
18 0
19 0
20 0
21 0
22 0
23 0
24 0
25 0
26 0
27 0
28 0
29 0
30 0
31 0
32 0
33 0
34 0
35 0
36 0
37 0
38 0
39 0
40 0
41 0
42 0
43 0
44 0
45 0
46 0
47 0
48 0
49 0
50 0
51 0
$EndElementData
$ElementData
1
"Attribute:UniformLoadLocalX"
1
0
3
0
1
51
1 0
2 0
3 0
4 0
5 0
6 0
7 0
8 0
9 0
10 0
11 0
12 0
13 0
14 0
15 0
16 0
17 0
18 0
19 0
20 0
21 0
22 0
23 0
24 0
25 0
26 0
27 0
28 0
29 0
30 0
31 0
32 0
33 0
34 0
35 0
36 0
37 0
38 0
39 0
40 0
41 0
42 0
43 0
44 0
45 0
46 0
47 0
48 0
49 0
50 0
51 0
$EndElementData
$ElementData
1
"Attribute:UniformLoadLocalY"
1
0
3
0
1
51
1 0
2 0
3 0
4 0
5 0
6 0
7 0
8 0
9 0
10 0
11 0
12 0
13 0
14 0
15 0
16 0
17 0
18 0
19 0
20 0
21 0
22 0
23 0
24 0
25 0
26 0
27 0
28 0
29 0
30 0
31 0
32 0
33 0
34 0
35 0
36 0
37 0
38 0
39 0
40 0
41 0
42 0
43 0
44 0
45 0
46 0
47 0
48 0
49 0
50 0
51 0
$EndElementData
$ElementData
1
"Attribute:UniformLoadLocalZ"
1
0
3
0
1
51
1 0
2 0
3 0
4 0
5 0
6 0
7 0
8 0
9 0
10 0
11 0
12 0
13 0
14 0
15 0
16 0
17 0
18 0
19 0
20 0
21 0
22 0
23 0
24 0
25 0
26 0
27 0
28 0
29 0
30 0
31 0
32 0
33 0
34 0
35 0
36 0
37 0
38 0
39 0
40 0
41 0
42 0
43 0
44 0
45 0
46 0
47 0
48 0
49 0
50 0
51 0
$EndElementData
$ElementData
1
"BeamOrientation"
1
0
3
0
3
51
1 0 0 0
2 0 0 0
3 0 0 0
4 0 0 0
5 0 0 0
6 0 0 0
7 0 0 0
8 0 0 0
9 0 0 0
10 0 0 0
11 0 0 0
12 0 0 0
13 0 0 0
14 0 0 0
15 0 0 0
16 0 0 0
17 0 0 0
18 0 0 0
19 0 0 0
20 0 0 0
21 0 0 0
22 0 0 0
23 0 0 0
24 0 0 0
25 0 0 0
26 0 0 0
27 0 0 0
28 0 0 0
29 0 0 0
30 0 0 0
31 0 0 0
32 0 0 0
33 0 0 0
34 0 0 0
35 0 0 0
36 0 0 0
37 0 0 0
38 0 0 0
39 0 0 0
40 0 0 0
41 0 0 0
42 0 0 0
43 0 0 0
44 0 0 0
45 0 0 0
46 0 0 0
47 0 0 0
48 0 0 0
49 0 0 0
50 0 0 0
51 0 0 0
$EndElementData
$AnafData
1
1
GLOBAL 3 1
"Gravity"
0 -9.80665 0
$EndAnafData
