$MeshFormat
4.1 0 8
$EndMeshFormat
$PhysicalNames
6
1 1 "Material:Structural Steel S355 (EN 10025)"
1 2 "Section:IPE 240"
1 3 "Section:HEB 400"
1 4 "Section:CHS 168.3x8"
1 5 "Section:CHS 323.9x12.5"
1 6 "Section:Bar D40"
$EndPhysicalNames
$Entities
0 5 0 0
1 0 0 0 30 0 3 2 1 3 0
2 0 0 0 30 6 3 2 1 5 0
3 2.5 0 0 27.5 6 3 2 1 6 0
4 0 0 0 30 0 3 2 1 2 0
5 7.5 4.5 0 22.5 6 3 2 1 4 0
$EndEntities
$Nodes
1 48 1 48
1 1 0 48
1
2
3
4
5
6
7
8
9
10
11
12
13
14
15
16
17
18
19
20
21
22
23
24
25
26
27
28
29
30
31
32
33
34
35
36
37
38
39
40
41
42
43
44
45
46
47
48
0 0 0
2.5 0 0
5 0 0
7.5 0 0
10 0 0
12.5 0 0
15 0 0
17.5 0 0
20 0 0
22.5 0 0
25 0 0
27.5 0 0
30 0 0
2.5 1.8333333333333328 0
5 3.333333333333333 0
7.5 4.5 0
10 5.333333333333333 0
12.5 5.833333333333333 0
15 6 0
17.5 5.833333333333333 0
20 5.333333333333334 0
22.5 4.5 0
25 3.333333333333333 0
27.5 1.8333333333333341 0
0 0 3
2.5 0 3
5 0 3
7.5 0 3
10 0 3
12.5 0 3
15 0 3
17.5 0 3
20 0 3
22.5 0 3
25 0 3
27.5 0 3
30 0 3
2.5 1.8333333333333328 3
5 3.333333333333333 3
7.5 4.5 3
10 5.333333333333333 3
12.5 5.833333333333333 3
15 6 3
17.5 5.833333333333333 3
20 5.333333333333334 3
22.5 4.5 3
25 3.333333333333333 3
27.5 1.8333333333333341 3
$EndNodes
$Elements
5 90 1 90
1 1 1 24
1 1 2
2 2 3
3 3 4
4 4 5
5 5 6
6 6 7
7 7 8
8 8 9
9 9 10
10 10 11
11 11 12
12 12 13
36 25 26
37 26 27
38 27 28
39 28 29
40 29 30
41 30 31
42 31 32
43 32 33
44 33 34
45 34 35
46 35 36
47 36 37
1 2 1 24
13 1 14
14 14 15
15 15 16
16 16 17
17 17 18
18 18 19
19 19 20
20 20 21
21 21 22
22 22 23
23 23 24
24 24 13
48 25 38
49 38 39
50 39 40
51 40 41
52 41 42
53 42 43
54 43 44
55 44 45
56 45 46
57 46 47
58 47 48
59 48 37
1 3 1 22
25 2 14
26 3 15
27 4 16
28 5 17
29 6 18
30 7 19
31 8 20
32 9 21
33 10 22
34 11 23
35 12 24
60 26 38
61 27 39
62 28 40
63 29 41
64 30 42
65 31 43
66 32 44
67 33 45
68 34 46
69 35 47
70 36 48
1 4 1 13
71 1 25
72 2 26
73 3 27
74 4 28
75 5 29
76 6 30
77 7 31
78 8 32
79 9 33
80 10 34
81 11 35
82 12 36
83 13 37
1 5 1 7
84 16 40
85 17 41
86 18 42
87 19 43
88 20 44
89 21 45
90 22 46
$EndElements
$NodeData
1
"Fixity"
1
0
3
0
3
48
1 1 1 1
2 0 0 0
3 0 0 0
4 0 0 0
5 0 0 0
6 0 0 0
7 0 0 0
8 0 0 0
9 0 0 0
10 0 0 0
11 0 0 0
12 0 0 0
13 0 1 1
14 0 0 0
15 0 0 0
16 0 0 0
17 0 0 0
18 0 0 0
19 0 0 0
20 0 0 0
21 0 0 0
22 0 0 0
23 0 0 0
24 0 0 0
25 0 1 0
26 0 0 0
27 0 0 0
28 0 0 0
29 0 0 0
30 0 0 0
31 0 0 0
32 0 0 0
33 0 0 0
34 0 0 0
35 0 0 0
36 0 0 0
37 0 1 0
38 0 0 0
39 0 0 0
40 0 0 0
41 0 0 0
42 0 0 0
43 0 0 0
44 0 0 0
45 0 0 0
46 0 0 0
47 0 0 0
48 0 0 0
$EndNodeData
$NodeData
1
"FixityRotation"
1
0
3
0
3
48
1 1 0 0
2 0 0 0
3 0 0 0
4 0 0 0
5 0 0 0
6 0 0 0
7 0 0 0
8 0 0 0
9 0 0 0
10 0 0 0
11 0 0 0
12 0 0 0
13 1 0 0
14 0 0 0
15 0 0 0
16 0 0 0
17 0 0 0
18 0 0 0
19 0 0 0
20 0 0 0
21 0 0 0
22 0 0 0
23 0 0 0
24 0 0 0
25 1 0 0
26 0 0 0
27 0 0 0
28 0 0 0
29 0 0 0
30 0 0 0
31 0 0 0
32 0 0 0
33 0 0 0
34 0 0 0
35 0 0 0
36 0 0 0
37 1 0 0
38 0 0 0
39 0 0 0
40 0 0 0
41 0 0 0
42 0 0 0
43 0 0 0
44 0 0 0
45 0 0 0
46 0 0 0
47 0 0 0
48 0 0 0
$EndNodeData
$ElementData
1
"CrossSectionArea"
1
0
3
0
1
90
1 0.019777778955533034
2 0.019777778955533034
3 0.019777778955533034
4 0.019777778955533034
5 0.019777778955533034
6 0.019777778955533034
7 0.019777778955533034
8 0.019777778955533034
9 0.019777778955533034
10 0.019777778955533034
11 0.019777778955533034
12 0.019777778955533034
13 0.01222864940409828
14 0.01222864940409828
15 0.01222864940409828
16 0.01222864940409828
17 0.01222864940409828
18 0.01222864940409828
19 0.01222864940409828
20 0.01222864940409828
21 0.01222864940409828
22 0.01222864940409828
23 0.01222864940409828
24 0.01222864940409828
25 0.0012566370614359175
26 0.0012566370614359175
27 0.0012566370614359175
28 0.0012566370614359175
29 0.0012566370614359175
30 0.0012566370614359175
31 0.0012566370614359175
32 0.0012566370614359175
33 0.0012566370614359175
34 0.0012566370614359175
35 0.0012566370614359175
36 0.019777778955533034
37 0.019777778955533034
38 0.019777778955533034
39 0.019777778955533034
40 0.019777778955533034
41 0.019777778955533034
42 0.019777778955533034
43 0.019777778955533034
44 0.019777778955533034
45 0.019777778955533034
46 0.019777778955533034
47 0.019777778955533034
48 0.01222864940409828
49 0.01222864940409828
50 0.01222864940409828
51 0.01222864940409828
52 0.01222864940409828
53 0.01222864940409828
54 0.01222864940409828
55 0.01222864940409828
56 0.01222864940409828
57 0.01222864940409828
58 0.01222864940409828
59 0.01222864940409828
60 0.0012566370614359175
61 0.0012566370614359175
62 0.0012566370614359175
63 0.0012566370614359175
64 0.0012566370614359175
65 0.0012566370614359175
66 0.0012566370614359175
67 0.0012566370614359175
68 0.0012566370614359175
69 0.0012566370614359175
70 0.0012566370614359175
71 0.003911621652942296
72 0.003911621652942296
73 0.003911621652942296
74 0.003911621652942296
75 0.003911621652942296
76 0.003911621652942296
77 0.003911621652942296
78 0.003911621652942296
79 0.003911621652942296
80 0.003911621652942296
81 0.003911621652942296
82 0.003911621652942296
83 0.003911621652942296
84 0.004028778418963555
85 0.004028778418963555
86 0.004028778418963555
87 0.004028778418963555
88 0.004028778418963555
89 0.004028778418963555
90 0.004028778418963555
$EndElementData
$ElementData
1
"Attribute:ElementFormulation"
1
0
3
0
1
90
1 1
2 1
3 1
4 1
5 1
6 1
7 1
8 1
9 1
10 1
11 1
12 1
13 1
14 1
15 1
16 1
17 1
18 1
19 1
20 1
21 1
22 1
23 1
24 1
25 1
26 1
27 1
28 1
29 1
30 1
31 1
32 1
33 1
34 1
35 1
36 1
37 1
38 1
39 1
40 1
41 1
42 1
43 1
44 1
45 1
46 1
47 1
48 1
49 1
50 1
51 1
52 1
53 1
54 1
55 1
56 1
57 1
58 1
59 1
60 1
61 1
62 1
63 1
64 1
65 1
66 1
67 1
68 1
69 1
70 1
71 1
72 1
73 1
74 1
75 1
76 1
77 1
78 1
79 1
80 1
81 1
82 1
83 1
84 1
85 1
86 1
87 1
88 1
89 1
90 1
$EndElementData
$ElementData
1
"MaterialID"
1
0
3
0
1
90
1 3
2 3
3 3
4 3
5 3
6 3
7 3
8 3
9 3
10 3
11 3
12 3
13 3
14 3
15 3
16 3
17 3
18 3
19 3
20 3
21 3
22 3
23 3
24 3
25 3
26 3
27 3
28 3
29 3
30 3
31 3
32 3
33 3
34 3
35 3
36 3
37 3
38 3
39 3
40 3
41 3
42 3
43 3
44 3
45 3
46 3
47 3
48 3
49 3
50 3
51 3
52 3
53 3
54 3
55 3
56 3
57 3
58 3
59 3
60 3
61 3
62 3
63 3
64 3
65 3
66 3
67 3
68 3
69 3
70 3
71 3
72 3
73 3
74 3
75 3
76 3
77 3
78 3
79 3
80 3
81 3
82 3
83 3
84 3
85 3
86 3
87 3
88 3
89 3
90 3
$EndElementData
$ElementData
1
"Attribute:SecondMomentY"
1
0
3
0
1
90
1 0.00010819043255618277
2 0.00010819043255618277
3 0.00010819043255618277
4 0.00010819043255618277
5 0.00010819043255618277
6 0.00010819043255618277
7 0.00010819043255618277
8 0.00010819043255618277
9 0.00010819043255618277
10 0.00010819043255618277
11 0.00010819043255618277
12 0.00010819043255618277
13 0.00014846529625485306
14 0.00014846529625485306
15 0.00014846529625485306
16 0.00014846529625485306
17 0.00014846529625485306
18 0.00014846529625485306
19 0.00014846529625485306
20 0.00014846529625485306
21 0.00014846529625485306
22 0.00014846529625485306
23 0.00014846529625485306
24 0.00014846529625485306
25 1.2566370614359175e-07
26 1.2566370614359175e-07
27 1.2566370614359175e-07
28 1.2566370614359175e-07
29 1.2566370614359175e-07
30 1.2566370614359175e-07
31 1.2566370614359175e-07
32 1.2566370614359175e-07
33 1.2566370614359175e-07
34 1.2566370614359175e-07
35 1.2566370614359175e-07
36 0.00010819043255618277
37 0.00010819043255618277
38 0.00010819043255618277
39 0.00010819043255618277
40 0.00010819043255618277
41 0.00010819043255618277
42 0.00010819043255618277
43 0.00010819043255618277
44 0.00010819043255618277
45 0.00010819043255618277
46 0.00010819043255618277
47 0.00010819043255618277
48 0.00014846529625485306
49 0.00014846529625485306
50 0.00014846529625485306
51 0.00014846529625485306
52 0.00014846529625485306
53 0.00014846529625485306
54 0.00014846529625485306
55 0.00014846529625485306
56 0.00014846529625485306
57 0.00014846529625485306
58 0.00014846529625485306
59 0.00014846529625485306
60 1.2566370614359175e-07
61 1.2566370614359175e-07
62 1.2566370614359175e-07
63 1.2566370614359175e-07
64 1.2566370614359175e-07
65 1.2566370614359175e-07
66 1.2566370614359175e-07
67 1.2566370614359175e-07
68 1.2566370614359175e-07
69 1.2566370614359175e-07
70 1.2566370614359175e-07
71 2.8363416458317623e-06
72 2.8363416458317623e-06
73 2.8363416458317623e-06
74 2.8363416458317623e-06
75 2.8363416458317623e-06
76 2.8363416458317623e-06
77 2.8363416458317623e-06
78 2.8363416458317623e-06
79 2.8363416458317623e-06
80 2.8363416458317623e-06
81 2.8363416458317623e-06
82 2.8363416458317623e-06
83 2.8363416458317623e-06
84 1.297271183281985e-05
85 1.297271183281985e-05
86 1.297271183281985e-05
87 1.297271183281985e-05
88 1.297271183281985e-05
89 1.297271183281985e-05
90 1.297271183281985e-05
$EndElementData
$ElementData
1
"Attribute:SecondMomentZ"
1
0
3
0
1
90
1 0.0005768052538064349
2 0.0005768052538064349
3 0.0005768052538064349
4 0.0005768052538064349
5 0.0005768052538064349
6 0.0005768052538064349
7 0.0005768052538064349
8 0.0005768052538064349
9 0.0005768052538064349
10 0.0005768052538064349
11 0.0005768052538064349
12 0.0005768052538064349
13 0.00014846529625485306
14 0.00014846529625485306
15 0.00014846529625485306
16 0.00014846529625485306
17 0.00014846529625485306
18 0.00014846529625485306
19 0.00014846529625485306
20 0.00014846529625485306
21 0.00014846529625485306
22 0.00014846529625485306
23 0.00014846529625485306
24 0.00014846529625485306
25 1.2566370614359175e-07
26 1.2566370614359175e-07
27 1.2566370614359175e-07
28 1.2566370614359175e-07
29 1.2566370614359175e-07
30 1.2566370614359175e-07
31 1.2566370614359175e-07
32 1.2566370614359175e-07
33 1.2566370614359175e-07
34 1.2566370614359175e-07
35 1.2566370614359175e-07
36 0.0005768052538064349
37 0.0005768052538064349
38 0.0005768052538064349
39 0.0005768052538064349
40 0.0005768052538064349
41 0.0005768052538064349
42 0.0005768052538064349
43 0.0005768052538064349
44 0.0005768052538064349
45 0.0005768052538064349
46 0.0005768052538064349
47 0.0005768052538064349
48 0.00014846529625485306
49 0.00014846529625485306
50 0.00014846529625485306
51 0.00014846529625485306
52 0.00014846529625485306
53 0.00014846529625485306
54 0.00014846529625485306
55 0.00014846529625485306
56 0.00014846529625485306
57 0.00014846529625485306
58 0.00014846529625485306
59 0.00014846529625485306
60 1.2566370614359175e-07
61 1.2566370614359175e-07
62 1.2566370614359175e-07
63 1.2566370614359175e-07
64 1.2566370614359175e-07
65 1.2566370614359175e-07
66 1.2566370614359175e-07
67 1.2566370614359175e-07
68 1.2566370614359175e-07
69 1.2566370614359175e-07
70 1.2566370614359175e-07
71 3.8916262363993505e-05
72 3.8916262363993505e-05
73 3.8916262363993505e-05
74 3.8916262363993505e-05
75 3.8916262363993505e-05
76 3.8916262363993505e-05
77 3.8916262363993505e-05
78 3.8916262363993505e-05
79 3.8916262363993505e-05
80 3.8916262363993505e-05
81 3.8916262363993505e-05
82 3.8916262363993505e-05
83 3.8916262363993505e-05
84 1.297271183281985e-05
85 1.297271183281985e-05
86 1.297271183281985e-05
87 1.297271183281985e-05
88 1.297271183281985e-05
89 1.297271183281985e-05
90 1.297271183281985e-05
$EndElementData
$ElementData
1
"Attribute:SectionDimension1"
1
0
3
0
1
90
1 0.4
2 0.4
3 0.4
4 0.4
5 0.4
6 0.4
7 0.4
8 0.4
9 0.4
10 0.4
11 0.4
12 0.4
13 0.3239
14 0.3239
15 0.3239
16 0.3239
17 0.3239
18 0.3239
19 0.3239
20 0.3239
21 0.3239
22 0.3239
23 0.3239
24 0.3239
25 0.04
26 0.04
27 0.04
28 0.04
29 0.04
30 0.04
31 0.04
32 0.04
33 0.04
34 0.04
35 0.04
36 0.4
37 0.4
38 0.4
39 0.4
40 0.4
41 0.4
42 0.4
43 0.4
44 0.4
45 0.4
46 0.4
47 0.4
48 0.3239
49 0.3239
50 0.3239
51 0.3239
52 0.3239
53 0.3239
54 0.3239
55 0.3239
56 0.3239
57 0.3239
58 0.3239
59 0.3239
60 0.04
61 0.04
62 0.04
63 0.04
64 0.04
65 0.04
66 0.04
67 0.04
68 0.04
69 0.04
70 0.04
71 0.24
72 0.24
73 0.24
74 0.24
75 0.24
76 0.24
77 0.24
78 0.24
79 0.24
80 0.24
81 0.24
82 0.24
83 0.24
84 0.1683
85 0.1683
86 0.1683
87 0.1683
88 0.1683
89 0.1683
90 0.1683
$EndElementData
$ElementData
1
"Attribute:SectionDimension2"
1
0
3
0
1
90
1 0.3
2 0.3
3 0.3
4 0.3
5 0.3
6 0.3
7 0.3
8 0.3
9 0.3
10 0.3
11 0.3
12 0.3
13 0.0125
14 0.0125
15 0.0125
16 0.0125
17 0.0125
18 0.0125
19 0.0125
20 0.0125
21 0.0125
22 0.0125
23 0.0125
24 0.0125
25 0
26 0
27 0
28 0
29 0
30 0
31 0
32 0
33 0
34 0
35 0
36 0.3
37 0.3
38 0.3
39 0.3
40 0.3
41 0.3
42 0.3
43 0.3
44 0.3
45 0.3
46 0.3
47 0.3
48 0.0125
49 0.0125
50 0.0125
51 0.0125
52 0.0125
53 0.0125
54 0.0125
55 0.0125
56 0.0125
57 0.0125
58 0.0125
59 0.0125
60 0
61 0
62 0
63 0
64 0
65 0
66 0
67 0
68 0
69 0
70 0
71 0.12
72 0.12
73 0.12
74 0.12
75 0.12
76 0.12
77 0.12
78 0.12
79 0.12
80 0.12
81 0.12
82 0.12
83 0.12
84 0.008
85 0.008
86 0.008
87 0.008
88 0.008
89 0.008
90 0.008
$EndElementData
$ElementData
1
"Attribute:SectionDimension3"
1
0
3
0
1
90
1 0.0135
2 0.0135
3 0.0135
4 0.0135
5 0.0135
6 0.0135
7 0.0135
8 0.0135
9 0.0135
10 0.0135
11 0.0135
12 0.0135
13 0
14 0
15 0
16 0
17 0
18 0
19 0
20 0
21 0
22 0
23 0
24 0
25 0
26 0
27 0
28 0
29 0
30 0
31 0
32 0
33 0
34 0
35 0
36 0.0135
37 0.0135
38 0.0135
39 0.0135
40 0.0135
41 0.0135
42 0.0135
43 0.0135
44 0.0135
45 0.0135
46 0.0135
47 0.0135
48 0
49 0
50 0
51 0
52 0
53 0
54 0
55 0
56 0
57 0
58 0
59 0
60 0
61 0
62 0
63 0
64 0
65 0
66 0
67 0
68 0
69 0
70 0
71 0.0062
72 0.0062
73 0.0062
74 0.0062
75 0.0062
76 0.0062
77 0.0062
78 0.0062
79 0.0062
80 0.0062
81 0.0062
82 0.0062
83 0.0062
84 0
85 0
86 0
87 0
88 0
89 0
90 0
$EndElementData
$ElementData
1
"Attribute:SectionDimension4"
1
0
3
0
1
90
1 0.024
2 0.024
3 0.024
4 0.024
5 0.024
6 0.024
7 0.024
8 0.024
9 0.024
10 0.024
11 0.024
12 0.024
13 0
14 0
15 0
16 0
17 0
18 0
19 0
20 0
21 0
22 0
23 0
24 0
25 0
26 0
27 0
28 0
29 0
30 0
31 0
32 0
33 0
34 0
35 0
36 0.024
37 0.024
38 0.024
39 0.024
40 0.024
41 0.024
42 0.024
43 0.024
44 0.024
45 0.024
46 0.024
47 0.024
48 0
49 0
50 0
51 0
52 0
53 0
54 0
55 0
56 0
57 0
58 0
59 0
60 0
61 0
62 0
63 0
64 0
65 0
66 0
67 0
68 0
69 0
70 0
71 0.0098
72 0.0098
73 0.0098
74 0.0098
75 0.0098
76 0.0098
77 0.0098
78 0.0098
79 0.0098
80 0.0098
81 0.0098
82 0.0098
83 0.0098
84 0
85 0
86 0
87 0
88 0
89 0
90 0
$EndElementData
$ElementData
1
"Attribute:SectionDimension5"
1
0
3
0
1
90
1 0.027
2 0.027
3 0.027
4 0.027
5 0.027
6 0.027
7 0.027
8 0.027
9 0.027
10 0.027
11 0.027
12 0.027
13 0
14 0
15 0
16 0
17 0
18 0
19 0
20 0
21 0
22 0
23 0
24 0
25 0
26 0
27 0
28 0
29 0
30 0
31 0
32 0
33 0
34 0
35 0
36 0.027
37 0.027
38 0.027
39 0.027
40 0.027
41 0.027
42 0.027
43 0.027
44 0.027
45 0.027
46 0.027
47 0.027
48 0
49 0
50 0
51 0
52 0
53 0
54 0
55 0
56 0
57 0
58 0
59 0
60 0
61 0
62 0
63 0
64 0
65 0
66 0
67 0
68 0
69 0
70 0
71 0.015
72 0.015
73 0.015
74 0.015
75 0.015
76 0.015
77 0.015
78 0.015
79 0.015
80 0.015
81 0.015
82 0.015
83 0.015
84 0
85 0
86 0
87 0
88 0
89 0
90 0
$EndElementData
$ElementData
1
"Attribute:SectionShape"
1
0
3
0
1
90
1 5
2 5
3 5
4 5
5 5
6 5
7 5
8 5
9 5
10 5
11 5
12 5
13 3
14 3
15 3
16 3
17 3
18 3
19 3
20 3
21 3
22 3
23 3
24 3
25 2
26 2
27 2
28 2
29 2
30 2
31 2
32 2
33 2
34 2
35 2
36 5
37 5
38 5
39 5
40 5
41 5
42 5
43 5
44 5
45 5
46 5
47 5
48 3
49 3
50 3
51 3
52 3
53 3
54 3
55 3
56 3
57 3
58 3
59 3
60 2
61 2
62 2
63 2
64 2
65 2
66 2
67 2
68 2
69 2
70 2
71 5
72 5
73 5
74 5
75 5
76 5
77 5
78 5
79 5
80 5
81 5
82 5
83 5
84 3
85 3
86 3
87 3
88 3
89 3
90 3
$EndElementData
$ElementData
1
"Attribute:ShearAreaY"
1
0
3
0
1
90
1 0.004866578591453668
2 0.004866578591453668
3 0.004866578591453668
4 0.004866578591453668
5 0.004866578591453668
6 0.004866578591453668
7 0.004866578591453668
8 0.004866578591453668
9 0.004866578591453668
10 0.004866578591453668
11 0.004866578591453668
12 0.004866578591453668
13 0.006505445863801528
14 0.006505445863801528
15 0.006505445863801528
16 0.006505445863801528
17 0.006505445863801528
18 0.006505445863801528
19 0.006505445863801528
20 0.006505445863801528
21 0.006505445863801528
22 0.006505445863801528
23 0.006505445863801528
24 0.006505445863801528
25 0.001113837395363654
26 0.001113837395363654
27 0.001113837395363654
28 0.001113837395363654
29 0.001113837395363654
30 0.001113837395363654
31 0.001113837395363654
32 0.001113837395363654
33 0.001113837395363654
34 0.001113837395363654
35 0.001113837395363654
36 0.004866578591453668
37 0.004866578591453668
38 0.004866578591453668
39 0.004866578591453668
40 0.004866578591453668
41 0.004866578591453668
42 0.004866578591453668
43 0.004866578591453668
44 0.004866578591453668
45 0.004866578591453668
46 0.004866578591453668
47 0.004866578591453668
48 0.006505445863801528
49 0.006505445863801528
50 0.006505445863801528
51 0.006505445863801528
52 0.006505445863801528
53 0.006505445863801528
54 0.006505445863801528
55 0.006505445863801528
56 0.006505445863801528
57 0.006505445863801528
58 0.006505445863801528
59 0.006505445863801528
60 0.001113837395363654
61 0.001113837395363654
62 0.001113837395363654
63 0.001113837395363654
64 0.001113837395363654
65 0.001113837395363654
66 0.001113837395363654
67 0.001113837395363654
68 0.001113837395363654
69 0.001113837395363654
70 0.001113837395363654
71 0.001427571734197008
72 0.001427571734197008
73 0.001427571734197008
74 0.001427571734197008
75 0.001427571734197008
76 0.001427571734197008
77 0.001427571734197008
78 0.001427571734197008
79 0.001427571734197008
80 0.001427571734197008
81 0.001427571734197008
82 0.001427571734197008
83 0.001427571734197008
84 0.002146258593029163
85 0.002146258593029163
86 0.002146258593029163
87 0.002146258593029163
88 0.002146258593029163
89 0.002146258593029163
90 0.002146258593029163
$EndElementData
$ElementData
1
"Attribute:ShearAreaZ"
1
0
3
0
1
90
1 0.012235294117647058
2 0.012235294117647058
3 0.012235294117647058
4 0.012235294117647058
5 0.012235294117647058
6 0.012235294117647058
7 0.012235294117647058
8 0.012235294117647058
9 0.012235294117647058
10 0.012235294117647058
11 0.012235294117647058
12 0.012235294117647058
13 0.006505445863801528
14 0.006505445863801528
15 0.006505445863801528
16 0.006505445863801528
17 0.006505445863801528
18 0.006505445863801528
19 0.006505445863801528
20 0.006505445863801528
21 0.006505445863801528
22 0.006505445863801528
23 0.006505445863801528
24 0.006505445863801528
25 0.001113837395363654
26 0.001113837395363654
27 0.001113837395363654
28 0.001113837395363654
29 0.001113837395363654
30 0.001113837395363654
31 0.001113837395363654
32 0.001113837395363654
33 0.001113837395363654
34 0.001113837395363654
35 0.001113837395363654
36 0.012235294117647058
37 0.012235294117647058
38 0.012235294117647058
39 0.012235294117647058
40 0.012235294117647058
41 0.012235294117647058
42 0.012235294117647058
43 0.012235294117647058
44 0.012235294117647058
45 0.012235294117647058
46 0.012235294117647058
47 0.012235294117647058
48 0.006505445863801528
49 0.006505445863801528
50 0.006505445863801528
51 0.006505445863801528
52 0.006505445863801528
53 0.006505445863801528
54 0.006505445863801528
55 0.006505445863801528
56 0.006505445863801528
57 0.006505445863801528
58 0.006505445863801528
59 0.006505445863801528
60 0.001113837395363654
61 0.001113837395363654
62 0.001113837395363654
63 0.001113837395363654
64 0.001113837395363654
65 0.001113837395363654
66 0.001113837395363654
67 0.001113837395363654
68 0.001113837395363654
69 0.001113837395363654
70 0.001113837395363654
71 0.0019984313725490196
72 0.0019984313725490196
73 0.0019984313725490196
74 0.0019984313725490196
75 0.0019984313725490196
76 0.0019984313725490196
77 0.0019984313725490196
78 0.0019984313725490196
79 0.0019984313725490196
80 0.0019984313725490196
81 0.0019984313725490196
82 0.0019984313725490196
83 0.0019984313725490196
84 0.002146258593029163
85 0.002146258593029163
86 0.002146258593029163
87 0.002146258593029163
88 0.002146258593029163
89 0.002146258593029163
90 0.002146258593029163
$EndElementData
$ElementData
1
"Attribute:TorsionConstant"
1
0
3
0
1
90
1 3.557463075636816e-06
2 3.557463075636816e-06
3 3.557463075636816e-06
4 3.557463075636816e-06
5 3.557463075636816e-06
6 3.557463075636816e-06
7 3.557463075636816e-06
8 3.557463075636816e-06
9 3.557463075636816e-06
10 3.557463075636816e-06
11 3.557463075636816e-06
12 3.557463075636816e-06
13 0.0002969305925097061
14 0.0002969305925097061
15 0.0002969305925097061
16 0.0002969305925097061
17 0.0002969305925097061
18 0.0002969305925097061
19 0.0002969305925097061
20 0.0002969305925097061
21 0.0002969305925097061
22 0.0002969305925097061
23 0.0002969305925097061
24 0.0002969305925097061
25 2.513274122871835e-07
26 2.513274122871835e-07
27 2.513274122871835e-07
28 2.513274122871835e-07
29 2.513274122871835e-07
30 2.513274122871835e-07
31 2.513274122871835e-07
32 2.513274122871835e-07
33 2.513274122871835e-07
34 2.513274122871835e-07
35 2.513274122871835e-07
36 3.557463075636816e-06
37 3.557463075636816e-06
38 3.557463075636816e-06
39 3.557463075636816e-06
40 3.557463075636816e-06
41 3.557463075636816e-06
42 3.557463075636816e-06
43 3.557463075636816e-06
44 3.557463075636816e-06
45 3.557463075636816e-06
46 3.557463075636816e-06
47 3.557463075636816e-06
48 0.0002969305925097061
49 0.0002969305925097061
50 0.0002969305925097061
51 0.0002969305925097061
52 0.0002969305925097061
53 0.0002969305925097061
54 0.0002969305925097061
55 0.0002969305925097061
56 0.0002969305925097061
57 0.0002969305925097061
58 0.0002969305925097061
59 0.0002969305925097061
60 2.513274122871835e-07
61 2.513274122871835e-07
62 2.513274122871835e-07
63 2.513274122871835e-07
64 2.513274122871835e-07
65 2.513274122871835e-07
66 2.513274122871835e-07
67 2.513274122871835e-07
68 2.513274122871835e-07
69 2.513274122871835e-07
70 2.513274122871835e-07
71 1.287981285296164e-07
72 1.287981285296164e-07
73 1.287981285296164e-07
74 1.287981285296164e-07
75 1.287981285296164e-07
76 1.287981285296164e-07
77 1.287981285296164e-07
78 1.287981285296164e-07
79 1.287981285296164e-07
80 1.287981285296164e-07
81 1.287981285296164e-07
82 1.287981285296164e-07
83 1.287981285296164e-07
84 2.59454236656397e-05
85 2.59454236656397e-05
86 2.59454236656397e-05
87 2.59454236656397e-05
88 2.59454236656397e-05
89 2.59454236656397e-05
90 2.59454236656397e-05
$EndElementData
$ElementData
1
"Attribute:UniformLoadGlobalX"
1
0
3
0
1
90
1 0
2 0
3 0
4 0
5 0
6 0
7 0
8 0
9 0
10 0
11 0
12 0
13 0
14 0
15 0
16 0
17 0
18 0
19 0
20 0
21 0
22 0
23 0
24 0
25 0
26 0
27 0
28 0
29 0
30 0
31 0
32 0
33 0
34 0
35 0
36 0
37 0
38 0
39 0
40 0
41 0
42 0
43 0
44 0
45 0
46 0
47 0
48 0
49 0
50 0
51 0
52 0
53 0
54 0
55 0
56 0
57 0
58 0
59 0
60 0
61 0
62 0
63 0
64 0
65 0
66 0
67 0
68 0
69 0
70 0
71 0
72 0
73 0
74 0
75 0
76 0
77 0
78 0
79 0
80 0
81 0
82 0
83 0
84 0
85 0
86 0
87 0
88 0
89 0
90 0
$EndElementData
$ElementData
1
"Attribute:UniformLoadGlobalY"
1
0
3
0
1
90
1 -8000
2 -8000
3 -8000
4 -8000
5 -8000
6 -8000
7 -8000
8 -8000
9 -8000
10 -8000
11 -8000
12 -8000
13 0
14 0
15 0
16 0
17 0
18 0
19 0
20 0
21 0
22 0
23 0
24 0
25 0
26 0
27 0
28 0
29 0
30 0
31 0
32 0
33 0
34 0
35 0
36 -8000
37 -8000
38 -8000
39 -8000
40 -8000
41 -8000
42 -8000
43 -8000
44 -8000
45 -8000
46 -8000
47 -8000
48 0
49 0
50 0
51 0
52 0
53 0
54 0
55 0
56 0
57 0
58 0
59 0
60 0
61 0
62 0
63 0
64 0
65 0
66 0
67 0
68 0
69 0
70 0
71 0
72 0
73 0
74 0
75 0
76 0
77 0
78 0
79 0
80 0
81 0
82 0
83 0
84 0
85 0
86 0
87 0
88 0
89 0
90 0
$EndElementData
$ElementData
1
"Attribute:UniformLoadGlobalZ"
1
0
3
0
1
90
1 0
2 0
3 0
4 0
5 0
6 0
7 0
8 0
9 0
10 0
11 0
12 0
13 0
14 0
15 0
16 0
17 0
18 0
19 0
20 0
21 0
22 0
23 0
24 0
25 0
26 0
27 0
28 0
29 0
30 0
31 0
32 0
33 0
34 0
35 0
36 0
37 0
38 0
39 0
40 0
41 0
42 0
43 0
44 0
45 0
46 0
47 0
48 0
49 0
50 0
51 0
52 0
53 0
54 0
55 0
56 0
57 0
58 0
59 0
60 0
61 0
62 0
63 0
64 0
65 0
66 0
67 0
68 0
69 0
70 0
71 0
72 0
73 0
74 0
75 0
76 0
77 0
78 0
79 0
80 0
81 0
82 0
83 0
84 0
85 0
86 0
87 0
88 0
89 0
90 0
$EndElementData
$ElementData
1
"Attribute:UniformLoadLocalX"
1
0
3
0
1
90
1 0
2 0
3 0
4 0
5 0
6 0
7 0
8 0
9 0
10 0
11 0
12 0
13 0
14 0
15 0
16 0
17 0
18 0
19 0
20 0
21 0
22 0
23 0
24 0
25 0
26 0
27 0
28 0
29 0
30 0
31 0
32 0
33 0
34 0
35 0
36 0
37 0
38 0
39 0
40 0
41 0
42 0
43 0
44 0
45 0
46 0
47 0
48 0
49 0
50 0
51 0
52 0
53 0
54 0
55 0
56 0
57 0
58 0
59 0
60 0
61 0
62 0
63 0
64 0
65 0
66 0
67 0
68 0
69 0
70 0
71 0
72 0
73 0
74 0
75 0
76 0
77 0
78 0
79 0
80 0
81 0
82 0
83 0
84 0
85 0
86 0
87 0
88 0
89 0
90 0
$EndElementData
$ElementData
1
"Attribute:UniformLoadLocalY"
1
0
3
0
1
90
1 0
2 0
3 0
4 0
5 0
6 0
7 0
8 0
9 0
10 0
11 0
12 0
13 0
14 0
15 0
16 0
17 0
18 0
19 0
20 0
21 0
22 0
23 0
24 0
25 0
26 0
27 0
28 0
29 0
30 0
31 0
32 0
33 0
34 0
35 0
36 0
37 0
38 0
39 0
40 0
41 0
42 0
43 0
44 0
45 0
46 0
47 0
48 0
49 0
50 0
51 0
52 0
53 0
54 0
55 0
56 0
57 0
58 0
59 0
60 0
61 0
62 0
63 0
64 0
65 0
66 0
67 0
68 0
69 0
70 0
71 0
72 0
73 0
74 0
75 0
76 0
77 0
78 0
79 0
80 0
81 0
82 0
83 0
84 0
85 0
86 0
87 0
88 0
89 0
90 0
$EndElementData
$ElementData
1
"Attribute:UniformLoadLocalZ"
1
0
3
0
1
90
1 0
2 0
3 0
4 0
5 0
6 0
7 0
8 0
9 0
10 0
11 0
12 0
13 0
14 0
15 0
16 0
17 0
18 0
19 0
20 0
21 0
22 0
23 0
24 0
25 0
26 0
27 0
28 0
29 0
30 0
31 0
32 0
33 0
34 0
35 0
36 0
37 0
38 0
39 0
40 0
41 0
42 0
43 0
44 0
45 0
46 0
47 0
48 0
49 0
50 0
51 0
52 0
53 0
54 0
55 0
56 0
57 0
58 0
59 0
60 0
61 0
62 0
63 0
64 0
65 0
66 0
67 0
68 0
69 0
70 0
71 0
72 0
73 0
74 0
75 0
76 0
77 0
78 0
79 0
80 0
81 0
82 0
83 0
84 0
85 0
86 0
87 0
88 0
89 0
90 0
$EndElementData
$ElementData
1
"BeamOrientation"
1
0
3
0
3
90
1 0 0 0
2 0 0 0
3 0 0 0
4 0 0 0
5 0 0 0
6 0 0 0
7 0 0 0
8 0 0 0
9 0 0 0
10 0 0 0
11 0 0 0
12 0 0 0
13 0 0 0
14 0 0 0
15 0 0 0
16 0 0 0
17 0 0 0
18 0 0 0
19 0 0 0
20 0 0 0
21 0 0 0
22 0 0 0
23 0 0 0
24 0 0 0
25 0 0 0
26 0 0 0
27 0 0 0
28 0 0 0
29 0 0 0
30 0 0 0
31 0 0 0
32 0 0 0
33 0 0 0
34 0 0 0
35 0 0 0
36 0 0 0
37 0 0 0
38 0 0 0
39 0 0 0
40 0 0 0
41 0 0 0
42 0 0 0
43 0 0 0
44 0 0 0
45 0 0 0
46 0 0 0
47 0 0 0
48 0 0 0
49 0 0 0
50 0 0 0
51 0 0 0
52 0 0 0
53 0 0 0
54 0 0 0
55 0 0 0
56 0 0 0
57 0 0 0
58 0 0 0
59 0 0 0
60 0 0 0
61 0 0 0
62 0 0 0
63 0 0 0
64 0 0 0
65 0 0 0
66 0 0 0
67 0 0 0
68 0 0 0
69 0 0 0
70 0 0 0
71 0 0 0
72 0 0 0
73 0 0 0
74 0 0 0
75 0 0 0
76 0 0 0
77 0 0 0
78 0 0 0
79 0 0 0
80 0 0 0
81 0 0 0
82 0 0 0
83 0 0 0
84 0 0 0
85 0 0 0
86 0 0 0
87 0 0 0
88 0 0 0
89 0 0 0
90 0 0 0
$EndElementData
$AnafData
1
1
GLOBAL 3 1
"Gravity"
0 -9.80665 0
$EndAnafData
