$MeshFormat
4.1 0 8
$EndMeshFormat
$PhysicalNames
4
1 1 "Material:Structural Steel S355 (EN 10025)"
1 2 "Section:IPE 330"
1 3 "Section:HEA 240"
1 4 "Section:CHS 114.3x5"
$EndPhysicalNames
$Entities
0 3 0 0
1 0 0 0 6 12 6 2 1 3 0
2 0 4 0 6 12 6 2 1 2 0
3 0 0 0 6 12 6 2 1 4 0
$EndEntities
$Nodes
1 16 1 16
1 1 0 16
1
2
3
4
5
6
7
8
9
10
11
12
13
14
15
16
0 0 0
6 0 0
0 0 6
6 0 6
0 4 0
6 4 0
0 4 6
6 4 6
0 8 0
6 8 0
0 8 6
6 8 6
0 12 0
6 12 0
0 12 6
6 12 6
$EndNodes
$Elements
3 36 1 36
1 1 1 12
1 1 5
2 5 9
3 9 13
4 2 6
5 6 10
6 10 14
7 3 7
8 7 11
9 11 15
10 4 8
11 8 12
12 12 16
1 2 1 12
13 5 6
14 7 8
15 5 7
16 6 8
17 9 10
18 11 12
19 9 11
20 10 12
21 13 14
22 15 16
23 13 15
24 14 16
1 3 1 12
25 1 6
26 2 5
27 5 10
28 6 9
29 9 14
30 10 13
31 3 8
32 4 7
33 7 12
34 8 11
35 11 16
36 12 15
$EndElements
$NodeData
1
"Fixity"
1
0
3
0
3
16
1 1 1 1
2 1 1 1
3 1 1 1
4 1 1 1
5 0 0 0
6 0 0 0
7 0 0 0
8 0 0 0
9 0 0 0
10 0 0 0
11 0 0 0
12 0 0 0
13 0 0 0
14 0 0 0
15 0 0 0
16 0 0 0
$EndNodeData
$NodeData
1
"FixityRotation"
1
0
3
0
3
16
1 1 1 1
2 1 1 1
3 1 1 1
4 1 1 1
5 0 0 0
6 0 0 0
7 0 0 0
8 0 0 0
9 0 0 0
10 0 0 0
11 0 0 0
12 0 0 0
13 0 0 0
14 0 0 0
15 0 0 0
16 0 0 0
$EndNodeData
$NodeData
1
"NodalForce"
1
0
3
0
3
16
1 0 0 0
2 0 0 0
3 0 0 0
4 0 0 0
5 40000 0 0
6 0 0 0
7 40000 0 0
8 0 0 0
9 40000 0 0
10 0 0 0
11 40000 0 0
12 0 0 0
13 40000 0 0
14 0 0 0
15 40000 0 0
16 0 0 0
$EndNodeData
$ElementData
1
"CrossSectionArea"
1
0
3
0
1
36
1 0.007683557639766901
2 0.007683557639766901
3 0.007683557639766901
4 0.007683557639766901
5 0.007683557639766901
6 0.007683557639766901
7 0.007683557639766901
8 0.007683557639766901
9 0.007683557639766901
10 0.007683557639766901
11 0.007683557639766901
12 0.007683557639766901
13 0.006260623980236907
14 0.006260623980236907
15 0.006260623980236907
16 0.006260623980236907
17 0.006260623980236907
18 0.006260623980236907
19 0.006260623980236907
20 0.006260623980236907
21 0.006260623980236907
22 0.006260623980236907
23 0.006260623980236907
24 0.006260623980236907
25 0.0017168803851868209
26 0.0017168803851868209
27 0.0017168803851868209
28 0.0017168803851868209
29 0.0017168803851868209
30 0.0017168803851868209
31 0.0017168803851868209
32 0.0017168803851868209
33 0.0017168803851868209
34 0.0017168803851868209
35 0.0017168803851868209
36 0.0017168803851868209
$EndElementData
$ElementData
1
"Attribute:ElementFormulation"
1
0
3
0
1
36
1 1
2 1
3 1
4 1
5 1
6 1
7 1
8 1
9 1
10 1
11 1
12 1
13 1
14 1
15 1
16 1
17 1
18 1
19 1
20 1
21 1
22 1
23 1
24 1
25 1
26 1
27 1
28 1
29 1
30 1
31 1
32 1
33 1
34 1
35 1
36 1
$EndElementData
$ElementData
1
"MaterialID"
1
0
3
0
1
36
1 3
2 3
3 3
4 3
5 3
6 3
7 3
8 3
9 3
10 3
11 3
12 3
13 3
14 3
15 3
16 3
17 3
18 3
19 3
20 3
21 3
22 3
23 3
24 3
25 3
26 3
27 3
28 3
29 3
30 3
31 3
32 3
33 3
34 3
35 3
36 3
$EndElementData
$ElementData
1
"Attribute:SecondMomentY"
1
0
3
0
1
36
1 2.7688082381494004e-05
2 2.7688082381494004e-05
3 2.7688082381494004e-05
4 2.7688082381494004e-05
5 2.7688082381494004e-05
6 2.7688082381494004e-05
7 2.7688082381494004e-05
8 2.7688082381494004e-05
9 2.7688082381494004e-05
10 2.7688082381494004e-05
11 2.7688082381494004e-05
12 2.7688082381494004e-05
13 7.88142170321668e-06
14 7.88142170321668e-06
15 7.88142170321668e-06
16 7.88142170321668e-06
17 7.88142170321668e-06
18 7.88142170321668e-06
19 7.88142170321668e-06
20 7.88142170321668e-06
21 7.88142170321668e-06
22 7.88142170321668e-06
23 7.88142170321668e-06
24 7.88142170321668e-06
25 2.569202045307523e-06
26 2.569202045307523e-06
27 2.569202045307523e-06
28 2.569202045307523e-06
29 2.569202045307523e-06
30 2.569202045307523e-06
31 2.569202045307523e-06
32 2.569202045307523e-06
33 2.569202045307523e-06
34 2.569202045307523e-06
35 2.569202045307523e-06
36 2.569202045307523e-06
$EndElementData
$ElementData
1
"Attribute:SecondMomentZ"
1
0
3
0
1
36
1 7.763183554957692e-05
2 7.763183554957692e-05
3 7.763183554957692e-05
4 7.763183554957692e-05
5 7.763183554957692e-05
6 7.763183554957692e-05
7 7.763183554957692e-05
8 7.763183554957692e-05
9 7.763183554957692e-05
10 7.763183554957692e-05
11 7.763183554957692e-05
12 7.763183554957692e-05
13 0.00011766904739221053
14 0.00011766904739221053
15 0.00011766904739221053
16 0.00011766904739221053
17 0.00011766904739221053
18 0.00011766904739221053
19 0.00011766904739221053
20 0.00011766904739221053
21 0.00011766904739221053
22 0.00011766904739221053
23 0.00011766904739221053
24 0.00011766904739221053
25 2.569202045307523e-06
26 2.569202045307523e-06
27 2.569202045307523e-06
28 2.569202045307523e-06
29 2.569202045307523e-06
30 2.569202045307523e-06
31 2.569202045307523e-06
32 2.569202045307523e-06
33 2.569202045307523e-06
34 2.569202045307523e-06
35 2.569202045307523e-06
36 2.569202045307523e-06
$EndElementData
$ElementData
1
"Attribute:SectionDimension1"
1
0
3
0
1
36
1 0.23
2 0.23
3 0.23
4 0.23
5 0.23
6 0.23
7 0.23
8 0.23
9 0.23
10 0.23
11 0.23
12 0.23
13 0.33
14 0.33
15 0.33
16 0.33
17 0.33
18 0.33
19 0.33
20 0.33
21 0.33
22 0.33
23 0.33
24 0.33
25 0.1143
26 0.1143
27 0.1143
28 0.1143
29 0.1143
30 0.1143
31 0.1143
32 0.1143
33 0.1143
34 0.1143
35 0.1143
36 0.1143
$EndElementData
$ElementData
1
"Attribute:SectionDimension2"
1
0
3
0
1
36
1 0.24
2 0.24
3 0.24
4 0.24
5 0.24
6 0.24
7 0.24
8 0.24
9 0.24
10 0.24
11 0.24
12 0.24
13 0.16
14 0.16
15 0.16
16 0.16
17 0.16
18 0.16
19 0.16
20 0.16
21 0.16
22 0.16
23 0.16
24 0.16
25 0.005
26 0.005
27 0.005
28 0.005
29 0.005
30 0.005
31 0.005
32 0.005
33 0.005
34 0.005
35 0.005
36 0.005
$EndElementData
$ElementData
1
"Attribute:SectionDimension3"
1
0
3
0
1
36
1 0.0075
2 0.0075
3 0.0075
4 0.0075
5 0.0075
6 0.0075
7 0.0075
8 0.0075
9 0.0075
10 0.0075
11 0.0075
12 0.0075
13 0.0075
14 0.0075
15 0.0075
16 0.0075
17 0.0075
18 0.0075
19 0.0075
20 0.0075
21 0.0075
22 0.0075
23 0.0075
24 0.0075
25 0
26 0
27 0
28 0
29 0
30 0
31 0
32 0
33 0
34 0
35 0
36 0
$EndElementData
$ElementData
1
"Attribute:SectionDimension4"
1
0
3
0
1
36
1 0.012
2 0.012
3 0.012
4 0.012
5 0.012
6 0.012
7 0.012
8 0.012
9 0.012
10 0.012
11 0.012
12 0.012
13 0.0115
14 0.0115
15 0.0115
16 0.0115
17 0.0115
18 0.0115
19 0.0115
20 0.0115
21 0.0115
22 0.0115
23 0.0115
24 0.0115
25 0
26 0
27 0
28 0
29 0
30 0
31 0
32 0
33 0
34 0
35 0
36 0
$EndElementData
$ElementData
1
"Attribute:SectionDimension5"
1
0
3
0
1
36
1 0.021
2 0.021
3 0.021
4 0.021
5 0.021
6 0.021
7 0.021
8 0.021
9 0.021
10 0.021
11 0.021
12 0.021
13 0.018
14 0.018
15 0.018
16 0.018
17 0.018
18 0.018
19 0.018
20 0.018
21 0.018
22 0.018
23 0.018
24 0.018
25 0
26 0
27 0
28 0
29 0
30 0
31 0
32 0
33 0
34 0
35 0
36 0
$EndElementData
$ElementData
1
"Attribute:SectionShape"
1
0
3
0
1
36
1 5
2 5
3 5
4 5
5 5
6 5
7 5
8 5
9 5
10 5
11 5
12 5
13 5
14 5
15 5
16 5
17 5
18 5
19 5
20 5
21 5
22 5
23 5
24 5
25 3
26 3
27 3
28 3
29 3
30 3
31 3
32 3
33 3
34 3
35 3
36 3
$EndElementData
$ElementData
1
"Attribute:ShearAreaY"
1
0
3
0
1
36
1 0.0015450744590875798
2 0.0015450744590875798
3 0.0015450744590875798
4 0.0015450744590875798
5 0.0015450744590875798
6 0.0015450744590875798
7 0.0015450744590875798
8 0.0015450744590875798
9 0.0015450744590875798
10 0.0015450744590875798
11 0.0015450744590875798
12 0.0015450744590875798
13 0.002383803872062541
14 0.002383803872062541
15 0.002383803872062541
16 0.002383803872062541
17 0.002383803872062541
18 0.002383803872062541
19 0.002383803872062541
20 0.002383803872062541
21 0.002383803872062541
22 0.002383803872062541
23 0.002383803872062541
24 0.002383803872062541
25 0.0009140558528542028
26 0.0009140558528542028
27 0.0009140558528542028
28 0.0009140558528542028
29 0.0009140558528542028
30 0.0009140558528542028
31 0.0009140558528542028
32 0.0009140558528542028
33 0.0009140558528542028
34 0.0009140558528542028
35 0.0009140558528542028
36 0.0009140558528542028
$EndElementData
$ElementData
1
"Attribute:ShearAreaZ"
1
0
3
0
1
36
1 0.004894117647058824
2 0.004894117647058824
3 0.004894117647058824
4 0.004894117647058824
5 0.004894117647058824
6 0.004894117647058824
7 0.004894117647058824
8 0.004894117647058824
9 0.004894117647058824
10 0.004894117647058824
11 0.004894117647058824
12 0.004894117647058824
13 0.0031267973856209147
14 0.0031267973856209147
15 0.0031267973856209147
16 0.0031267973856209147
17 0.0031267973856209147
18 0.0031267973856209147
19 0.0031267973856209147
20 0.0031267973856209147
21 0.0031267973856209147
22 0.0031267973856209147
23 0.0031267973856209147
24 0.0031267973856209147
25 0.0009140558528542028
26 0.0009140558528542028
27 0.0009140558528542028
28 0.0009140558528542028
29 0.0009140558528542028
30 0.0009140558528542028
31 0.0009140558528542028
32 0.0009140558528542028
33 0.0009140558528542028
34 0.0009140558528542028
35 0.0009140558528542028
36 0.0009140558528542028
$EndElementData
$ElementData
1
"Attribute:TorsionConstant"
1
0
3
0
1
36
1 4.1551940145423884e-07
2 4.1551940145423884e-07
3 4.1551940145423884e-07
4 4.1551940145423884e-07
5 4.1551940145423884e-07
6 4.1551940145423884e-07
7 4.1551940145423884e-07
8 4.1551940145423884e-07
9 4.1551940145423884e-07
10 4.1551940145423884e-07
11 4.1551940145423884e-07
12 4.1551940145423884e-07
13 2.814528996249501e-07
14 2.814528996249501e-07
15 2.814528996249501e-07
16 2.814528996249501e-07
17 2.814528996249501e-07
18 2.814528996249501e-07
19 2.814528996249501e-07
20 2.814528996249501e-07
21 2.814528996249501e-07
22 2.814528996249501e-07
23 2.814528996249501e-07
24 2.814528996249501e-07
25 5.138404090615046e-06
26 5.138404090615046e-06
27 5.138404090615046e-06
28 5.138404090615046e-06
29 5.138404090615046e-06
30 5.138404090615046e-06
31 5.138404090615046e-06
32 5.138404090615046e-06
33 5.138404090615046e-06
34 5.138404090615046e-06
35 5.138404090615046e-06
36 5.138404090615046e-06
$EndElementData
$ElementData
1
"Attribute:UniformLoadGlobalX"
1
0
3
0
1
36
1 0
2 0
3 0
4 0
5 0
6 0
7 0
8 0
9 0
10 0
11 0
12 0
13 0
14 0
15 0
16 0
17 0
18 0
19 0
20 0
21 0
22 0
23 0
24 0
25 0
26 0
27 0
28 0
29 0
30 0
31 0
32 0
33 0
34 0
35 0
36 0
$EndElementData
$ElementData
1
"Attribute:UniformLoadGlobalY"
1
0
3
0
1
36
1 0
2 0
3 0
4 0
5 0
6 0
7 0
8 0
9 0
10 0
11 0
12 0
13 -15000
14 -15000
15 0
16 0
17 -15000
18 -15000
19 0
20 0
21 -15000
22 -15000
23 0
24 0
25 0
26 0
27 0
28 0
29 0
30 0
31 0
32 0
33 0
34 0
35 0
36 0
$EndElementData
$ElementData
1
"Attribute:UniformLoadGlobalZ"
1
0
3
0
1
36
1 0
2 0
3 0
4 0
5 0
6 0
7 0
8 0
9 0
10 0
11 0
12 0
13 0
14 0
15 0
16 0
17 0
18 0
19 0
20 0
21 0
22 0
23 0
24 0
25 0
26 0
27 0
28 0
29 0
30 0
31 0
32 0
33 0
34 0
35 0
36 0
$EndElementData
$ElementData
1
"Attribute:UniformLoadLocalX"
1
0
3
0
1
36
1 0
2 0
3 0
4 0
5 0
6 0
7 0
8 0
9 0
10 0
11 0
12 0
13 0
14 0
15 0
16 0
17 0
18 0
19 0
20 0
21 0
22 0
23 0
24 0
25 0
26 0
27 0
28 0
29 0
30 0
31 0
32 0
33 0
34 0
35 0
36 0
$EndElementData
$ElementData
1
"Attribute:UniformLoadLocalY"
1
0
3
0
1
36
1 0
2 0
3 0
4 0
5 0
6 0
7 0
8 0
9 0
10 0
11 0
12 0
13 0
14 0
15 0
16 0
17 0
18 0
19 0
20 0
21 0
22 0
23 0
24 0
25 0
26 0
27 0
28 0
29 0
30 0
31 0
32 0
33 0
34 0
35 0
36 0
$EndElementData
$ElementData
1
"Attribute:UniformLoadLocalZ"
1
0
3
0
1
36
1 0
2 0
3 0
4 0
5 0
6 0
7 0
8 0
9 0
10 0
11 0
12 0
13 0
14 0
15 0
16 0
17 0
18 0
19 0
20 0
21 0
22 0
23 0
24 0
25 0
26 0
27 0
28 0
29 0
30 0
31 0
32 0
33 0
34 0
35 0
36 0
$EndElementData
$ElementData
1
"BeamOrientation"
1
0
3
0
3
36
1 1 0 0
2 1 0 0
3 1 0 0
4 1 0 0
5 1 0 0
6 1 0 0
7 1 0 0
8 1 0 0
9 1 0 0
10 1 0 0
11 1 0 0
12 1 0 0
13 0 0 0
14 0 0 0
15 0 0 0
16 0 0 0
17 0 0 0
18 0 0 0
19 0 0 0
20 0 0 0
21 0 0 0
22 0 0 0
23 0 0 0
24 0 0 0
25 0 0 0
26 0 0 0
27 0 0 0
28 0 0 0
29 0 0 0
30 0 0 0
31 0 0 0
32 0 0 0
33 0 0 0
34 0 0 0
35 0 0 0
36 0 0 0
$EndElementData
$AnafData
1
1
GLOBAL 3 1
"Gravity"
0 -9.80665 0
$EndAnafData
