$MeshFormat
4.1 0 8
$EndMeshFormat
$PhysicalNames
4
1 1 "Material:Structural Steel S235 (EN 10025)"
1 2 "Section:IPE 160"
1 3 "Section:IPE 240"
1 4 "Section:HEB 160"
$EndPhysicalNames
$Entities
0 3 0 0
1 0 0 0 12 3 8 2 1 4 0
2 0 3 0 12 3 8 2 1 3 0
3 2 3 0 10 3 8 2 1 2 0
$EndEntities
$Nodes
1 33 1 33
1 1 0 33
1
2
3
4
5
6
7
8
9
10
11
12
13
14
15
16
17
18
19
20
21
22
23
24
25
26
27
28
29
30
31
32
33
0 3 0
2 3 0
4 3 0
6 3 0
8 3 0
10 3 0
12 3 0
0 3 4
2 3 4
4 3 4
6 3 4
8 3 4
10 3 4
12 3 4
0 3 8
2 3 8
4 3 8
6 3 8
8 3 8
10 3 8
12 3 8
0 0 0
4 0 0
8 0 0
12 0 0
0 0 4
4 0 4
8 0 4
12 0 4
0 0 8
4 0 8
8 0 8
12 0 8
$EndNodes
$Elements
3 44 1 44
1 1 1 12
1 22 1
2 23 3
3 24 5
4 25 7
11 26 8
12 27 10
13 28 12
14 29 14
21 30 15
22 31 17
23 32 19
24 33 21
1 2 1 26
5 1 2
6 2 3
7 3 4
8 4 5
9 5 6
10 6 7
15 8 9
16 9 10
17 10 11
18 11 12
19 12 13
20 13 14
25 15 16
26 16 17
27 17 18
28 18 19
29 19 20
30 20 21
31 1 8
32 8 15
35 3 10
36 10 17
39 5 12
40 12 19
43 7 14
44 14 21
1 3 1 6
33 2 9
34 9 16
37 4 11
38 11 18
41 6 13
42 13 20
$EndElements
$NodeData
1
"Displacement"
1
0
3
0
3
33
1 1.9825760553194948e-05 -5.3782561376233464e-05 3.3845180738690725e-06
2 1.2717029458565175e-05 -0.001447140202034561 2.199682438700552e-08
3 5.607191304748474e-06 -0.00010326785053487301 3.459735561308086e-06
4 3.5516944385080555e-19 -0.0007843662240313473 4.615855992061498e-08
5 -5.607191304747764e-06 -0.00010326785053487297 3.4597355613080073e-06
6 -1.2717029458564457e-05 -0.0014471402020345605 2.1996824386941153e-08
7 -1.982576055319423e-05 -5.3782561376233464e-05 3.3845180738690666e-06
8 4.2960693543445996e-05 -0.00011984378233754228 2.1703309521425224e-20
9 2.75681137447088e-05 -0.003274188308768759 1.2313875675998584e-19
10 1.2177748064345449e-05 -0.00021871253427305294 2.0317563655064487e-19
11 -4.708685886444183e-19 -0.001853576365731929 1.7760648739836263e-19
12 -1.217774806434639e-05 -0.0002187125342730529 1.2261675375005584e-19
13 -2.756811374470974e-05 -0.0032741883087687583 5.931255802188913e-20
14 -4.296069354344693e-05 -0.00011984378233754224 1.4934831709823826e-20
15 1.9825760553194622e-05 -5.378256137623345e-05 -3.3845180738690293e-06
16 1.2717029458564847e-05 -0.0014471402020345607 -2.1996824386759216e-08
17 5.6071913047481496e-06 -0.00010326785053487297 -3.4597355613076824e-06
18 2.863180414099361e-20 -0.0007843662240313471 -4.6158559920259725e-08
19 -5.607191304748093e-06 -0.00010326785053487299 -3.459735561307763e-06
20 -1.2717029458564794e-05 -0.001447140202034561 -2.1996824386822525e-08
21 -1.9825760553194568e-05 -5.3782561376233464e-05 -3.3845180738690365e-06
22 0 0 0
23 0 0 0
24 0 0 0
25 0 0 0
26 0 0 0
27 0 0 0
28 0 0 0
29 0 0 0
30 0 0 0
31 0 0 0
32 0 0 0
33 0 0 0
$EndNodeData
$NodeData
1
"Rotation"
1
0
3
0
3
33
1 0.0005601962647563118 4.8922050120036985e-06 -0.0008496674662689911
2 0.006606787707328063 -1.0263354784249094e-06 0.00015053197825988128
3 0.0005771957376630429 6.88864296210256e-07 0.00017332768617551677
4 0.0063242575722640675 3.869762030118072e-20 -2.7089481805652946e-21
5 0.0005771957376630431 -6.888642962103771e-07 -0.00017332768617551672
6 0.006606787707328061 1.0263354784249323e-06 -0.0001505319782598812
7 0.0005601962647563118 -4.892205012003929e-06 0.0008496674662689908
8 4.182234222861723e-21 -4.4599084021259446e-20 -0.0018415916154789686
9 -6.962353065470371e-19 -4.897758895899906e-20 0.0003308752166128165
10 5.7025918934707714e-21 -2.6191891071970067e-20 0.00036975548775641657
11 2.3209381707297287e-19 2.5393181823378516e-20 1.2109401503697638e-19
12 6.278913449677983e-20 -2.7855989514872388e-21 -0.00036975548775641695
13 1.8565774860240946e-18 3.257152155777797e-20 -0.00033087521661281656
14 -1.753306278309922e-21 -2.221613861758699e-20 0.001841591615478969
15 -0.0005601962647563118 -4.8922050120037925e-06 -0.0008496674662689909
16 -0.00660678770732806 1.0263354784248097e-06 0.00015053197825988122
17 -0.000577195737663043 -6.888642962102982e-07 0.00017332768617551688
18 -0.006324257572264068 1.5591447669824424e-20 3.545547055283734e-21
19 -0.0005771957376630431 6.88864296210399e-07 -0.00017332768617551685
20 -0.006606787707328068 -1.0263354784248624e-06 -0.00015053197825988128
21 -0.0005601962647563118 4.892205012003916e-06 0.0008496674662689911
22 0 0 0
23 0 0 0
24 0 0 0
25 0 0 0
26 0 0 0
27 0 0 0
28 0 0 0
29 0 0 0
30 0 0 0
31 0 0 0
32 0 0 0
33 0 0 0
$EndNodeData
$ElementData
1
"BeamSectionForce"
1
0
3
0
12
44
1 -21050.920004666055 -2918.2089807246557 694.5953792566681 0.041159456853653485 -693.1908847740848 -2895.1529334376196 -19798.001944712087 -2918.2089807246557 694.5953792566681 0.041159456853653485 1390.5952529959195 5859.474008736348
2 -39843.44924423609 617.7474649067924 715.6960828316207 0.00579560345658445 -714.2603748811829 624.2682572629224 -38590.531184282125 617.7474649067924 715.6960828316207 0.00579560345658445 1432.8278736136795 -1228.9741374574546
3 -39843.44924423608 -617.7474649067906 715.6960828316211 -0.005795603456585469 -714.2603748811832 -624.2682572629199 -38590.53118428211 -617.7474649067906 715.6960828316211 -0.005795603456585469 1432.82787361368 1228.974137457452
4 -21050.920004666055 2918.2089807246566 694.5953792566681 -0.04115945685365542 -693.1908847740848 2895.1529334376214 -19798.001944712087 2918.2089807246566 694.5953792566681 -0.04115945685365542 1390.5952529959195 -5859.474008736348
5 -2919.6999798432917 -12811.332651079078 0.4497153256705698 31.463102336171975 -2.212350627602711 -5856.8932976603055 -2919.6999798432917 -4209.0821506986995 0.4497153256705698 31.463102336171975 -1.3129199762615718 11163.521504117474
6 -2920.1546714953924 8202.825373294521 2.769926663269975 -31.374646524198347 -2.2591129453394827 11163.39020050652 -2920.1546714953924 16805.075873674898 2.769926663269975 -31.374646524198347 3.280740381200467 -13844.511046462903
7 -2302.987146583463 -14775.211893471127 -2.434388077365598 29.904516677160068 2.2292333557404973 -12616.047959576788 -2302.987146583463 -6172.961393090749 -2.434388077365598 29.904516677160068 -2.639542798990699 8332.12532698509
8 -2302.9871465834635 6172.961393090749 2.4343880773654885 -29.904516677160068 -2.6395427989906484 8332.12532698509 -2302.9871465834635 14775.211893471127 2.4343880773654885 -29.904516677160068 2.2292333557403285 -12616.047959576787
9 -2920.1546714953893 -16805.075873674898 -2.7699266632700494 31.37464652419834 3.2807403812005846 -13844.5110464629 -2920.1546714953893 -8202.82537329452 -2.7699266632700494 31.37464652419834 -2.2591129453395142 11163.390200506517
10 -2919.6999798432907 4209.082150698698 -0.44971532567070227 -31.463102336171968 -1.3129199762615142 11163.52150411747 -2919.6999798432907 12811.332651079076 -0.44971532567070227 -31.463102336171968 -2.2123506276029197 -5856.893297660304
11 -46138.323708365526 -6325.026583952438 -1.2806131134377363e-14 -3.7522427412208107e-16 2.1812488261551188e-14 -6275.0661408630585 -44885.40564841156 -6325.026583952438 -1.2806131134377363e-14 -3.7522427412208107e-16 -1.660590514158091e-14 12700.013610994256
12 -83684.71260934857 1318.3273061012237 -1.6152679128230822e-13 -2.2035953273569168e-16 2.458398468791771e-13 1332.4892210738078 -82431.79454939462 1318.3273061012237 -1.6152679128230822e-13 -2.2035953273569168e-16 -2.3874052696774757e-13 -2622.492697229863
13 -83684.71260934856 -1318.3273061012271 -2.3598080312932248e-14 -2.343600474101201e-17 7.448111605259918e-14 -1332.4892210738126 -82431.7945493946 -1318.3273061012271 -2.3598080312932248e-14 -2.343600474101201e-17 3.686875113802408e-15 2622.492697229869
14 -46138.32370836551 6325.026583952437 -1.457794089886691e-14 -1.86910441537454e-16 2.0775540757088e-14 6275.066140863058 -44885.40564841154 6325.026583952437 -1.457794089886691e-14 -1.86910441537454e-16 -2.2958281939512728e-14 -12700.013610994256
15 -6322.0445857151735 -24449.742234156045 7.0214031449140744e-15 -3.644583724995363e-15 -8.325391414560104e-15 -12705.17503314636 -6322.0445857151735 -15847.491733775665 7.0214031449140744e-15 -3.644583724995363e-15 5.717414875268032e-15 27592.05893478536
16 -6321.135202410975 24566.03185112335 4.3487667232757824e-15 3.6524948215912344e-15 2.4371757805879134e-15 27592.321542007267 -6321.135202410975 33168.28235150372 4.3487667232757824e-15 3.6524948215912344e-15 1.1134709227139532e-14 -30141.99266061981
17 -5001.648016320022 -28874.997030641585 -2.3558300291544868e-14 1.1780141511933322e-15 3.892115379996102e-14 -27518.477862247244 -5001.648016320022 -20272.74653026121 -2.3558300291544868e-14 1.1780141511933322e-15 -8.195446783128693e-15 21629.265698655552
18 -5001.648016320021 20272.74653026121 -2.8931755491056475e-14 -8.809675011914224e-16 2.0539667299802368e-14 21629.26569865555 -5001.648016320021 28874.997030641593 -2.8931755491056475e-14 -8.809675011914224e-16 -3.7323843682310556e-14 -27518.477862247255
19 -6321.135202410976 -33168.28235150371 -2.9946821294861167e-14 9.333877939259729e-15 4.04767329994589e-14 -30141.992660619784 -6321.135202410976 -24566.031851123327 -2.9946821294861167e-14 9.333877939259729e-15 -1.941690959026344e-14 27592.32154200725
20 -6322.044585715168 15847.49173377565 -3.0397181659247144e-14 -9.669720940795362e-15 1.408054682477522e-14 27592.058934785346 -6322.044585715168 24449.74223415603 -3.0397181659247144e-14 -9.669720940795362e-15 -4.671381649371907e-14 -12705.175033146337
21 -21050.92000466605 -2918.208980724656 -694.5953792566681 -0.041159456853654276 693.1908847740849 -2895.1529334376205 -19798.001944712083 -2918.208980724656 -694.5953792566681 -0.041159456853654276 -1390.5952529959195 5859.474008736348
22 -39843.44924423608 617.7474649067921 -715.6960828316212 -0.005795603456584805 714.2603748811835 624.2682572629217 -38590.53118428211 617.7474649067921 -715.6960828316212 -0.005795603456584805 -1432.8278736136801 -1228.9741374574544
23 -39843.449244236086 -617.7474649067918 -715.6960828316212 0.005795603456585653 714.2603748811836 -624.2682572629215 -38590.53118428212 -617.7474649067918 -715.6960828316212 0.005795603456585653 -1432.8278736136801 1228.974137457454
24 -21050.920004666055 2918.2089807246566 -694.5953792566681 0.04115945685365532 693.1908847740849 2895.152933437621 -19798.001944712087 2918.2089807246566 -694.5953792566681 0.04115945685365532 -1390.5952529959195 -5859.474008736349
25 -2919.6999798432926 -12811.332651079081 -0.44971532567056105 -31.46310233617196 2.2123506276027007 -5856.893297660308 -2919.6999798432926 -4209.082150698703 -0.44971532567056105 -31.46310233617196 1.3129199762615784 11163.521504117474
26 -2920.154671495391 8202.825373294521 -2.7699266632699606 31.374646524198333 2.259112945339486 11163.390200506521 -2920.154671495391 16805.075873674898 -2.7699266632699606 31.374646524198333 -3.2807403812004354 -13844.511046462902
27 -2302.987146583464 -14775.211893471127 2.4343880773655653 -29.904516677160075 -2.229233355740436 -12616.047959576788 -2302.987146583464 -6172.961393090749 2.4343880773655653 -29.904516677160075 2.639542798990695 8332.125326985088
28 -2302.9871465834644 6172.961393090749 -2.434388077365519 29.904516677160075 2.6395427989906697 8332.125326985088 -2302.9871465834644 14775.211893471127 -2.434388077365519 29.904516677160075 -2.229233355740369 -12616.047959576788
29 -2920.1546714953924 -16805.075873674898 2.7699266632700192 -31.374646524198376 -3.2807403812005402 -13844.5110464629 -2920.1546714953924 -8202.825373294521 2.7699266632700192 -31.374646524198376 2.2591129453394982 11163.390200506517
30 -2919.6999798432917 4209.082150698698 0.44971532567067385 31.463102336172003 1.3129199762615182 11163.521504117472 -2919.6999798432917 12811.332651079076 0.44971532567067385 31.463102336172003 2.212350627602867 -5856.893297660302
31 -695.0450945823386 -6986.669293633003 -1.4909991186348768 -2.5807110760438574 2.2535100844563667 -1359.132150659747 -695.0450945823386 10217.831707127752 -1.4909991186348768 -2.5807110760438574 -3.7104863900831413 -7821.456977649247
32 -695.0450945823385 -10217.831707127752 1.4909991186348726 2.580711076043858 -3.7104863900831324 -7821.456977649247 -695.0450945823385 6986.669293633003 1.4909991186348726 2.580711076043858 2.2535100844563574 -1359.132150659747
33 -2.3202113375994022 -12411.90752399321 -0.4546916520985133 0.1313036109533091 0.9461929690779115 -62.837748860369175 -2.3202113375994022 20206.76179244949 -0.4546916520985133 0.1313036109533091 -0.872573639316142 -15652.546285772933
34 -2.3202113375993996 -20206.76179244949 0.45469165209851153 -0.13130361095330917 -0.8725736393161384 -15652.54628577293 -2.3202113375993996 12411.907523993212 0.45469165209851153 -0.13130361095330917 0.9461929690779077 -62.83774886037463
35 -710.4917680909851 -7010.243417136099 -0.5799399948645572 0.5110505713430957 1.0573026289165541 -1371.548710412323 -710.4917680909851 10194.257583624658 -0.5799399948645572 0.5110505713430957 -1.2624573505416743 -7739.577043389438
36 -710.4917680909857 -10194.257583624658 0.5799399948645723 -0.5110505713430954 -1.262457350541703 -7739.577043389438 -710.4917680909857 7010.243417136098 0.5799399948645723 -0.5110505713430954 1.0573026289165857 -1371.5487104123213
37 -4.868776154731086 -12345.922786181496 2.5667415131082547e-14 9.013798502037577e-17 -5.181199580120292e-14 -59.80903335432231 -4.868776154731086 20272.746530261204 2.5667415131082547e-14 9.013798502037577e-17 5.085766472312726e-14 -15913.456521513737
38 -4.868776154731081 -20272.746530261204 -1.123110920032552e-14 -8.558423619864247e-17 2.21106778400562e-14 -15913.456521513739 -4.868776154731081 12345.922786181496 -1.123110920032552e-14 -8.558423619864247e-17 -2.281375896124588e-14 -59.80903335432049
39 -710.4917680909856 -7010.243417136098 0.5799399948647078 -0.5110505713430968 -1.057302628916842 -1371.5487104123204 -710.4917680909856 10194.257583624658 0.5799399948647078 -0.5110505713430968 1.2624573505419896 -7739.5770433894395
40 -710.4917680909857 -10194.257583624658 -0.5799399948646675 0.5110505713430964 1.262457350541913 -7739.577043389438 -710.4917680909857 7010.243417136098 -0.5799399948646675 0.5110505713430964 -1.057302628916757 -1371.5487104123213
41 -2.3202113375993454 -12411.90752399321 0.4546916520985585 -0.13130361095330922 -0.946192969078003 -62.83774886037099 -2.3202113375993454 20206.76179244949 0.4546916520985585 -0.13130361095330922 0.8725736393162308 -15652.546285772934
42 -2.3202113375993454 -20206.761792449495 -0.4546916520985421 0.13130361095330917 0.8725736393161984 -15652.546285772934 -2.3202113375993454 12411.907523993208 -0.4546916520985421 0.13130361095330917 -0.9461929690779701 -62.8377488603619
43 -695.0450945823387 -6986.669293633003 1.4909991186349942 2.5807110760438587 -2.2535100844565767 -1359.132150659747 -695.0450945823387 10217.831707127752 1.4909991186349942 2.5807110760438587 3.7104863900834006 -7821.456977649248
44 -695.0450945823386 -10217.831707127752 -1.4909991186349698 -2.5807110760438583 3.7104863900833545 -7821.456977649248 -695.0450945823386 6986.669293633003 -1.4909991186349698 -2.5807110760438583 -2.2535100844565226 -1359.132150659747
$EndElementData
$ElementData
1
"AxialForce"
1
0
3
0
1
44
1 -20424.46097468907
2 -39216.99021425911
3 -39216.990214259095
4 -20424.46097468907
5 -2919.6999798432917
6 -2920.1546714953924
7 -2302.987146583463
8 -2302.9871465834635
9 -2920.1546714953893
10 -2919.6999798432907
11 -45511.86467838854
12 -83058.2535793716
13 -83058.25357937158
14 -45511.86467838853
15 -6322.0445857151735
16 -6321.135202410975
17 -5001.648016320022
18 -5001.648016320021
19 -6321.135202410976
20 -6322.044585715168
21 -20424.460974689067
22 -39216.990214259095
23 -39216.9902142591
24 -20424.46097468907
25 -2919.6999798432926
26 -2920.154671495391
27 -2302.987146583464
28 -2302.9871465834644
29 -2920.1546714953924
30 -2919.6999798432917
31 -695.0450945823386
32 -695.0450945823385
33 -2.3202113375994022
34 -2.3202113375993996
35 -710.4917680909851
36 -710.4917680909857
37 -4.868776154731086
38 -4.868776154731081
39 -710.4917680909856
40 -710.4917680909857
41 -2.3202113375993454
42 -2.3202113375993454
43 -695.0450945823387
44 -695.0450945823386
$EndElementData
$ElementData
1
"VonMisesStress"
1
0
3
0
1
44
1 35315246.536525995
2 23989778.385881945
3 23989778.38588194
4 35315246.536526
5 36505852.68131764
6 50813515.554417305
7 45937445.17067382
8 45937445.17067381
9 50813515.554417305
10 36505852.68131764
11 49999090.877203085
12 23700167.425187062
13 23700167.42518708
14 49999090.87720307
15 89170643.8419612
16 104148352.31474857
17 94142759.60576479
18 94142759.60576482
19 104148352.3147485
20 89170643.84196119
21 35315246.536525995
22 23989778.385881945
23 23989778.385881945
24 35315246.536526
25 36505852.68131766
26 50813515.554417305
27 45937445.17067382
28 45937445.17067382
29 50813515.554417305
30 36505852.68131764
31 28003750.36566194
32 28003750.36566193
33 152502347.47396982
34 152502347.47396976
35 27592539.6654673
36 27592539.665467292
37 154762034.10036924
38 154762034.10036924
39 27592539.6654673
40 27592539.665467296
41 152502347.47396982
42 152502347.47396982
43 28003750.365661945
44 28003750.36566194
$EndElementData
$NodeData
1
"Fixity"
1
0
3
0
3
33
1 0 0 0
2 0 0 0
3 0 0 0
4 0 0 0
5 0 0 0
6 0 0 0
7 0 0 0
8 0 0 0
9 0 0 0
10 0 0 0
11 0 0 0
12 0 0 0
13 0 0 0
14 0 0 0
15 0 0 0
16 0 0 0
17 0 0 0
18 0 0 0
19 0 0 0
20 0 0 0
21 0 0 0
22 1 1 1
23 1 1 1
24 1 1 1
25 1 1 1
26 1 1 1
27 1 1 1
28 1 1 1
29 1 1 1
30 1 1 1
31 1 1 1
32 1 1 1
33 1 1 1
$EndNodeData
$NodeData
1
"FixityRotation"
1
0
3
0
3
33
1 0 0 0
2 0 0 0
3 0 0 0
4 0 0 0
5 0 0 0
6 0 0 0
7 0 0 0
8 0 0 0
9 0 0 0
10 0 0 0
11 0 0 0
12 0 0 0
13 0 0 0
14 0 0 0
15 0 0 0
16 0 0 0
17 0 0 0
18 0 0 0
19 0 0 0
20 0 0 0
21 0 0 0
22 1 1 1
23 1 1 1
24 1 1 1
25 1 1 1
26 1 1 1
27 1 1 1
28 1 1 1
29 1 1 1
30 1 1 1
31 1 1 1
32 1 1 1
33 1 1 1
$EndNodeData
$ElementData
1
"CrossSectionArea"
1
0
3
0
1
44
1 0.0054251416529422945
2 0.0054251416529422945
3 0.0054251416529422945
4 0.0054251416529422945
5 0.003911621652942296
6 0.003911621652942296
7 0.003911621652942296
8 0.003911621652942296
9 0.003911621652942296
10 0.003911621652942296
11 0.0054251416529422945
12 0.0054251416529422945
13 0.0054251416529422945
14 0.0054251416529422945
15 0.003911621652942296
16 0.003911621652942296
17 0.003911621652942296
18 0.003911621652942296
19 0.003911621652942296
20 0.003911621652942296
21 0.0054251416529422945
22 0.0054251416529422945
23 0.0054251416529422945
24 0.0054251416529422945
25 0.003911621652942296
26 0.003911621652942296
27 0.003911621652942296
28 0.003911621652942296
29 0.003911621652942296
30 0.003911621652942296
31 0.003911621652942296
32 0.003911621652942296
33 0.002009130995059226
34 0.002009130995059226
35 0.003911621652942296
36 0.003911621652942296
37 0.002009130995059226
38 0.002009130995059226
39 0.003911621652942296
40 0.003911621652942296
41 0.002009130995059226
42 0.002009130995059226
43 0.003911621652942296
44 0.003911621652942296
$EndElementData
$ElementData
1
"Attribute:ElementFormulation"
1
0
3
0
1
44
1 1
2 1
3 1
4 1
5 1
6 1
7 1
8 1
9 1
10 1
11 1
12 1
13 1
14 1
15 1
16 1
17 1
18 1
19 1
20 1
21 1
22 1
23 1
24 1
25 1
26 1
27 1
28 1
29 1
30 1
31 1
32 1
33 1
34 1
35 1
36 1
37 1
38 1
39 1
40 1
41 1
42 1
43 1
44 1
$EndElementData
$ElementData
1
"MaterialID"
1
0
3
0
1
44
1 2
2 2
3 2
4 2
5 2
6 2
7 2
8 2
9 2
10 2
11 2
12 2
13 2
14 2
15 2
16 2
17 2
18 2
19 2
20 2
21 2
22 2
23 2
24 2
25 2
26 2
27 2
28 2
29 2
30 2
31 2
32 2
33 2
34 2
35 2
36 2
37 2
38 2
39 2
40 2
41 2
42 2
43 2
44 2
$EndElementData
$ElementData
1
"Attribute:SecondMomentY"
1
0
3
0
1
44
1 8.892347354690173e-06
2 8.892347354690173e-06
3 8.892347354690173e-06
4 8.892347354690173e-06
5 2.8363416458317623e-06
6 2.8363416458317623e-06
7 2.8363416458317623e-06
8 2.8363416458317623e-06
9 2.8363416458317623e-06
10 2.8363416458317623e-06
11 8.892347354690173e-06
12 8.892347354690173e-06
13 8.892347354690173e-06
14 8.892347354690173e-06
15 2.8363416458317623e-06
16 2.8363416458317623e-06
17 2.8363416458317623e-06
18 2.8363416458317623e-06
19 2.8363416458317623e-06
20 2.8363416458317623e-06
21 8.892347354690173e-06
22 8.892347354690173e-06
23 8.892347354690173e-06
24 8.892347354690173e-06
25 2.8363416458317623e-06
26 2.8363416458317623e-06
27 2.8363416458317623e-06
28 2.8363416458317623e-06
29 2.8363416458317623e-06
30 2.8363416458317623e-06
31 2.8363416458317623e-06
32 2.8363416458317623e-06
33 6.831455100798656e-07
34 6.831455100798656e-07
35 2.8363416458317623e-06
36 2.8363416458317623e-06
37 6.831455100798656e-07
38 6.831455100798656e-07
39 2.8363416458317623e-06
40 2.8363416458317623e-06
41 6.831455100798656e-07
42 6.831455100798656e-07
43 2.8363416458317623e-06
44 2.8363416458317623e-06
$EndElementData
$ElementData
1
"Attribute:SecondMomentZ"
1
0
3
0
1
44
1 2.4920010247533974e-05
2 2.4920010247533974e-05
3 2.4920010247533974e-05
4 2.4920010247533974e-05
5 3.8916262363993505e-05
6 3.8916262363993505e-05
7 3.8916262363993505e-05
8 3.8916262363993505e-05
9 3.8916262363993505e-05
10 3.8916262363993505e-05
11 2.4920010247533974e-05
12 2.4920010247533974e-05
13 2.4920010247533974e-05
14 2.4920010247533974e-05
15 3.8916262363993505e-05
16 3.8916262363993505e-05
17 3.8916262363993505e-05
18 3.8916262363993505e-05
19 3.8916262363993505e-05
20 3.8916262363993505e-05
21 2.4920010247533974e-05
22 2.4920010247533974e-05
23 2.4920010247533974e-05
24 2.4920010247533974e-05
25 3.8916262363993505e-05
26 3.8916262363993505e-05
27 3.8916262363993505e-05
28 3.8916262363993505e-05
29 3.8916262363993505e-05
30 3.8916262363993505e-05
31 3.8916262363993505e-05
32 3.8916262363993505e-05
33 8.692929261758053e-06
34 8.692929261758053e-06
35 3.8916262363993505e-05
36 3.8916262363993505e-05
37 8.692929261758053e-06
38 8.692929261758053e-06
39 3.8916262363993505e-05
40 3.8916262363993505e-05
41 8.692929261758053e-06
42 8.692929261758053e-06
43 3.8916262363993505e-05
44 3.8916262363993505e-05
$EndElementData
$ElementData
1
"Attribute:SectionDimension1"
1
0
3
0
1
44
1 0.16
2 0.16
3 0.16
4 0.16
5 0.24
6 0.24
7 0.24
8 0.24
9 0.24
10 0.24
11 0.16
12 0.16
13 0.16
14 0.16
15 0.24
16 0.24
17 0.24
18 0.24
19 0.24
20 0.24
21 0.16
22 0.16
23 0.16
24 0.16
25 0.24
26 0.24
27 0.24
28 0.24
29 0.24
30 0.24
31 0.24
32 0.24
33 0.16
34 0.16
35 0.24
36 0.24
37 0.16
38 0.16
39 0.24
40 0.24
41 0.16
42 0.16
43 0.24
44 0.24
$EndElementData
$ElementData
1
"Attribute:SectionDimension2"
1
0
3
0
1
44
1 0.16
2 0.16
3 0.16
4 0.16
5 0.12
6 0.12
7 0.12
8 0.12
9 0.12
10 0.12
11 0.16
12 0.16
13 0.16
14 0.16
15 0.12
16 0.12
17 0.12
18 0.12
19 0.12
20 0.12
21 0.16
22 0.16
23 0.16
24 0.16
25 0.12
26 0.12
27 0.12
28 0.12
29 0.12
30 0.12
31 0.12
32 0.12
33 0.082
34 0.082
35 0.12
36 0.12
37 0.082
38 0.082
39 0.12
40 0.12
41 0.082
42 0.082
43 0.12
44 0.12
$EndElementData
$ElementData
1
"Attribute:SectionDimension3"
1
0
3
0
1
44
1 0.008
2 0.008
3 0.008
4 0.008
5 0.0062
6 0.0062
7 0.0062
8 0.0062
9 0.0062
10 0.0062
11 0.008
12 0.008
13 0.008
14 0.008
15 0.0062
16 0.0062
17 0.0062
18 0.0062
19 0.0062
20 0.0062
21 0.008
22 0.008
23 0.008
24 0.008
25 0.0062
26 0.0062
27 0.0062
28 0.0062
29 0.0062
30 0.0062
31 0.0062
32 0.0062
33 0.005
34 0.005
35 0.0062
36 0.0062
37 0.005
38 0.005
39 0.0062
40 0.0062
41 0.005
42 0.005
43 0.0062
44 0.0062
$EndElementData
$ElementData
1
"Attribute:SectionDimension4"
1
0
3
0
1
44
1 0.013
2 0.013
3 0.013
4 0.013
5 0.0098
6 0.0098
7 0.0098
8 0.0098
9 0.0098
10 0.0098
11 0.013
12 0.013
13 0.013
14 0.013
15 0.0098
16 0.0098
17 0.0098
18 0.0098
19 0.0098
20 0.0098
21 0.013
22 0.013
23 0.013
24 0.013
25 0.0098
26 0.0098
27 0.0098
28 0.0098
29 0.0098
30 0.0098
31 0.0098
32 0.0098
33 0.0074
34 0.0074
35 0.0098
36 0.0098
37 0.0074
38 0.0074
39 0.0098
40 0.0098
41 0.0074
42 0.0074
43 0.0098
44 0.0098
$EndElementData
$ElementData
1
"Attribute:SectionDimension5"
1
0
3
0
1
44
1 0.015
2 0.015
3 0.015
4 0.015
5 0.015
6 0.015
7 0.015
8 0.015
9 0.015
10 0.015
11 0.015
12 0.015
13 0.015
14 0.015
15 0.015
16 0.015
17 0.015
18 0.015
19 0.015
20 0.015
21 0.015
22 0.015
23 0.015
24 0.015
25 0.015
26 0.015
27 0.015
28 0.015
29 0.015
30 0.015
31 0.015
32 0.015
33 0.009
34 0.009
35 0.015
36 0.015
37 0.009
38 0.009
39 0.015
40 0.015
41 0.009
42 0.009
43 0.015
44 0.015
$EndElementData
$ElementData
1
"Attribute:SectionShape"
1
0
3
0
1
44
1 5
2 5
3 5
4 5
5 5
6 5
7 5
8 5
9 5
10 5
11 5
12 5
13 5
14 5
15 5
16 5
17 5
18 5
19 5
20 5
21 5
22 5
23 5
24 5
25 5
26 5
27 5
28 5
29 5
30 5
31 5
32 5
33 5
34 5
35 5
36 5
37 5
38 5
39 5
40 5
41 5
42 5
43 5
44 5
$EndElementData
$ElementData
1
"Attribute:ShearAreaY"
1
0
3
0
1
44
1 0.0010901535488637795
2 0.0010901535488637795
3 0.0010901535488637795
4 0.0010901535488637795
5 0.001427571734197008
6 0.001427571734197008
7 0.001427571734197008
8 0.001427571734197008
9 0.001427571734197008
10 0.001427571734197008
11 0.0010901535488637795
12 0.0010901535488637795
13 0.0010901535488637795
14 0.0010901535488637795
15 0.001427571734197008
16 0.001427571734197008
17 0.001427571734197008
18 0.001427571734197008
19 0.001427571734197008
20 0.001427571734197008
21 0.0010901535488637795
22 0.0010901535488637795
23 0.0010901535488637795
24 0.0010901535488637795
25 0.001427571734197008
26 0.001427571734197008
27 0.001427571734197008
28 0.001427571734197008
29 0.001427571734197008
30 0.001427571734197008
31 0.001427571734197008
32 0.001427571734197008
33 0.0007467657340962773
34 0.0007467657340962773
35 0.001427571734197008
36 0.001427571734197008
37 0.0007467657340962773
38 0.0007467657340962773
39 0.001427571734197008
40 0.001427571734197008
41 0.0007467657340962773
42 0.0007467657340962773
43 0.001427571734197008
44 0.001427571734197008
$EndElementData
$ElementData
1
"Attribute:ShearAreaZ"
1
0
3
0
1
44
1 0.0035346405228758163
2 0.0035346405228758163
3 0.0035346405228758163
4 0.0035346405228758163
5 0.0019984313725490196
6 0.0019984313725490196
7 0.0019984313725490196
8 0.0019984313725490196
9 0.0019984313725490196
10 0.0019984313725490196
11 0.0035346405228758163
12 0.0035346405228758163
13 0.0035346405228758163
14 0.0035346405228758163
15 0.0019984313725490196
16 0.0019984313725490196
17 0.0019984313725490196
18 0.0019984313725490196
19 0.0019984313725490196
20 0.0019984313725490196
21 0.0035346405228758163
22 0.0035346405228758163
23 0.0035346405228758163
24 0.0035346405228758163
25 0.0019984313725490196
26 0.0019984313725490196
27 0.0019984313725490196
28 0.0019984313725490196
29 0.0019984313725490196
30 0.0019984313725490196
31 0.0019984313725490196
32 0.0019984313725490196
33 0.0010311633986928106
34 0.0010311633986928106
35 0.0019984313725490196
36 0.0019984313725490196
37 0.0010311633986928106
38 0.0010311633986928106
39 0.0019984313725490196
40 0.0019984313725490196
41 0.0010311633986928106
42 0.0010311633986928106
43 0.0019984313725490196
44 0.0019984313725490196
$EndElementData
$ElementData
1
"Attribute:TorsionConstant"
1
0
3
0
1
44
1 3.1237400143857174e-07
2 3.1237400143857174e-07
3 3.1237400143857174e-07
4 3.1237400143857174e-07
5 1.287981285296164e-07
6 1.287981285296164e-07
7 1.287981285296164e-07
8 1.287981285296164e-07
9 1.287981285296164e-07
10 1.287981285296164e-07
11 3.1237400143857174e-07
12 3.1237400143857174e-07
13 3.1237400143857174e-07
14 3.1237400143857174e-07
15 1.287981285296164e-07
16 1.287981285296164e-07
17 1.287981285296164e-07
18 1.287981285296164e-07
19 1.287981285296164e-07
20 1.287981285296164e-07
21 3.1237400143857174e-07
22 3.1237400143857174e-07
23 3.1237400143857174e-07
24 3.1237400143857174e-07
25 1.287981285296164e-07
26 1.287981285296164e-07
27 1.287981285296164e-07
28 1.287981285296164e-07
29 1.287981285296164e-07
30 1.287981285296164e-07
31 1.287981285296164e-07
32 1.287981285296164e-07
33 3.604337384329227e-08
34 3.604337384329227e-08
35 1.287981285296164e-07
36 1.287981285296164e-07
37 3.604337384329227e-08
38 3.604337384329227e-08
39 1.287981285296164e-07
40 1.287981285296164e-07
41 3.604337384329227e-08
42 3.604337384329227e-08
43 1.287981285296164e-07
44 1.287981285296164e-07
$EndElementData
$ElementData
1
"Attribute:UniformLoadGlobalX"
1
0
3
0
1
44
1 0
2 0
3 0
4 0
5 0
6 0
7 0
8 0
9 0
10 0
11 0
12 0
13 0
14 0
15 0
16 0
17 0
18 0
19 0
20 0
21 0
22 0
23 0
24 0
25 0
26 0
27 0
28 0
29 0
30 0
31 0
32 0
33 0
34 0
35 0
36 0
37 0
38 0
39 0
40 0
41 0
42 0
43 0
44 0
$EndElementData
$ElementData
1
"Attribute:UniformLoadGlobalY"
1
0
3
0
1
44
1 0
2 0
3 0
4 0
5 -4000
6 -4000
7 -4000
8 -4000
9 -4000
10 -4000
11 0
12 0
13 0
14 0
15 -4000
16 -4000
17 -4000
18 -4000
19 -4000
20 -4000
21 0
22 0
23 0
24 0
25 -4000
26 -4000
27 -4000
28 -4000
29 -4000
30 -4000
31 -4000
32 -4000
33 -8000
34 -8000
35 -4000
36 -4000
37 -8000
38 -8000
39 -4000
40 -4000
41 -8000
42 -8000
43 -4000
44 -4000
$EndElementData
$ElementData
1
"Attribute:UniformLoadGlobalZ"
1
0
3
0
1
44
1 0
2 0
3 0
4 0
5 0
6 0
7 0
8 0
9 0
10 0
11 0
12 0
13 0
14 0
15 0
16 0
17 0
18 0
19 0
20 0
21 0
22 0
23 0
24 0
25 0
26 0
27 0
28 0
29 0
30 0
31 0
32 0
33 0
34 0
35 0
36 0
37 0
38 0
39 0
40 0
41 0
42 0
43 0
44 0
$EndElementData
$ElementData
1
"Attribute:UniformLoadLocalX"
1
0
3
0
1
44
1 0
2 0
3 0
4 0
5 0
6 0
7 0
8 0
9 0
10 0
11 0
12 0
13 0
14 0
15 0
16 0
17 0
18 0
19 0
20 0
21 0
22 0
23 0
24 0
25 0
26 0
27 0
28 0
29 0
30 0
31 0
32 0
33 0
34 0
35 0
36 0
37 0
38 0
39 0
40 0
41 0
42 0
43 0
44 0
$EndElementData
$ElementData
1
"Attribute:UniformLoadLocalY"
1
0
3
0
1
44
1 0
2 0
3 0
4 0
5 0
6 0
7 0
8 0
9 0
10 0
11 0
12 0
13 0
14 0
15 0
16 0
17 0
18 0
19 0
20 0
21 0
22 0
23 0
24 0
25 0
26 0
27 0
28 0
29 0
30 0
31 0
32 0
33 0
34 0
35 0
36 0
37 0
38 0
39 0
40 0
41 0
42 0
43 0
44 0
$EndElementData
$ElementData
1
"Attribute:UniformLoadLocalZ"
1
0
3
0
1
44
1 0
2 0
3 0
4 0
5 0
6 0
7 0
8 0
9 0
10 0
11 0
12 0
13 0
14 0
15 0
16 0
17 0
18 0
19 0
20 0
21 0
22 0
23 0
24 0
25 0
26 0
27 0
28 0
29 0
30 0
31 0
32 0
33 0
34 0
35 0
36 0
37 0
38 0
39 0
40 0
41 0
42 0
43 0
44 0
$EndElementData
$ElementData
1
"BeamOrientation"
1
0
3
0
3
44
1 1 0 0
2 1 0 0
3 1 0 0
4 1 0 0
5 0 0 0
6 0 0 0
7 0 0 0
8 0 0 0
9 0 0 0
10 0 0 0
11 1 0 0
12 1 0 0
13 1 0 0
14 1 0 0
15 0 0 0
16 0 0 0
17 0 0 0
18 0 0 0
19 0 0 0
20 0 0 0
21 1 0 0
22 1 0 0
23 1 0 0
24 1 0 0
25 0 0 0
26 0 0 0
27 0 0 0
28 0 0 0
29 0 0 0
30 0 0 0
31 0 0 0
32 0 0 0
33 0 0 0
34 0 0 0
35 0 0 0
36 0 0 0
37 0 0 0
38 0 0 0
39 0 0 0
40 0 0 0
41 0 0 0
42 0 0 0
43 0 0 0
44 0 0 0
$EndElementData
$AnafData
1
1
GLOBAL 3 1
"Gravity"
0 -9.80665 0
$EndAnafData
