$MeshFormat
4.1 0 8
$EndMeshFormat
$PhysicalNames
4
1 1 "Material:Structural Steel S355 (EN 10025)"
1 2 "Section:IPE 200"
1 3 "Section:IPE 400"
1 4 "Section:HEB 300"
$EndPhysicalNames
$Entities
0 3 0 0
1 0 0 0 15 6 12 2 1 4 0
2 0 6 0 15 7.5 12 2 1 3 0
3 0 6 0 15 7.5 12 2 1 2 0
$EndEntities
$Nodes
1 15 1 15
1 1 0 15
1
2
3
4
5
6
7
8
9
10
11
12
13
14
15
0 0 0
0 6 0
7.5 7.5 0
15 6 0
15 0 0
0 0 6
0 6 6
7.5 7.5 6
15 6 6
15 0 6
0 0 12
0 6 12
7.5 7.5 12
15 6 12
15 0 12
$EndNodes
$Elements
3 18 1 18
1 1 1 6
1 1 2
2 5 4
5 6 7
6 10 9
9 11 12
10 15 14
1 2 1 6
3 2 3
4 3 4
7 7 8
8 8 9
11 12 13
12 13 14
1 3 1 6
13 2 7
14 3 8
15 4 9
16 7 12
17 8 13
18 9 14
$EndElements
$NodeData
1
"Fixity"
1
0
3
0
3
15
1 1 1 1
2 0 0 0
3 0 0 0
4 0 0 0
5 1 1 1
6 1 1 1
7 0 0 0
8 0 0 0
9 0 0 0
10 1 1 1
11 1 1 1
12 0 0 0
13 0 0 0
14 0 0 0
15 1 1 1
$EndNodeData
$NodeData
1
"FixityRotation"
1
0
3
0
3
15
1 1 1 1
2 0 0 0
3 0 0 0
4 0 0 0
5 1 1 1
6 1 1 1
7 0 0 0
8 0 0 0
9 0 0 0
10 1 1 1
11 1 1 1
12 0 0 0
13 0 0 0
14 0 0 0
15 1 1 1
$EndNodeData
$ElementData
1
"CrossSectionArea"
1
0
3
0
1
18
1 0.014907778955533042
2 0.014907778955533042
3 0.0084463576397669
4 0.0084463576397669
5 0.014907778955533042
6 0.014907778955533042
7 0.0084463576397669
8 0.0084463576397669
9 0.014907778955533042
10 0.014907778955533042
11 0.0084463576397669
12 0.0084463576397669
13 0.002848410657883071
14 0.002848410657883071
15 0.002848410657883071
16 0.002848410657883071
17 0.002848410657883071
18 0.002848410657883071
$EndElementData
$ElementData
1
"Attribute:ElementFormulation"
1
0
3
0
1
18
1 1
2 1
3 1
4 1
5 1
6 1
7 1
8 1
9 1
10 1
11 1
12 1
13 1
14 1
15 1
16 1
17 1
18 1
$EndElementData
$ElementData
1
"MaterialID"
1
0
3
0
1
18
1 3
2 3
3 3
4 3
5 3
6 3
7 3
8 3
9 3
10 3
11 3
12 3
13 3
14 3
15 3
16 3
17 3
18 3
$EndElementData
$ElementData
1
"Attribute:SecondMomentY"
1
0
3
0
1
18
1 8.562830440309431e-05
2 8.562830440309431e-05
3 1.317824028008936e-05
4 1.317824028008936e-05
5 8.562830440309431e-05
6 8.562830440309431e-05
7 1.317824028008936e-05
8 1.317824028008936e-05
9 8.562830440309431e-05
10 8.562830440309431e-05
11 1.317824028008936e-05
12 1.317824028008936e-05
13 1.423683272853165e-06
14 1.423683272853165e-06
15 1.423683272853165e-06
16 1.423683272853165e-06
17 1.423683272853165e-06
18 1.423683272853165e-06
$EndElementData
$ElementData
1
"Attribute:SecondMomentZ"
1
0
3
0
1
18
1 0.0002516567970643579
2 0.0002516567970643579
3 0.00023128369088907635
4 0.00023128369088907635
5 0.0002516567970643579
6 0.0002516567970643579
7 0.00023128369088907635
8 0.00023128369088907635
9 0.0002516567970643579
10 0.0002516567970643579
11 0.00023128369088907635
12 0.00023128369088907635
13 1.9431682510835934e-05
14 1.9431682510835934e-05
15 1.9431682510835934e-05
16 1.9431682510835934e-05
17 1.9431682510835934e-05
18 1.9431682510835934e-05
$EndElementData
$ElementData
1
"Attribute:SectionDimension1"
1
0
3
0
1
18
1 0.3
2 0.3
3 0.4
4 0.4
5 0.3
6 0.3
7 0.4
8 0.4
9 0.3
10 0.3
11 0.4
12 0.4
13 0.2
14 0.2
15 0.2
16 0.2
17 0.2
18 0.2
$EndElementData
$ElementData
1
"Attribute:SectionDimension2"
1
0
3
0
1
18
1 0.3
2 0.3
3 0.18
4 0.18
5 0.3
6 0.3
7 0.18
8 0.18
9 0.3
10 0.3
11 0.18
12 0.18
13 0.1
14 0.1
15 0.1
16 0.1
17 0.1
18 0.1
$EndElementData
$ElementData
1
"Attribute:SectionDimension3"
1
0
3
0
1
18
1 0.011
2 0.011
3 0.0086
4 0.0086
5 0.011
6 0.011
7 0.0086
8 0.0086
9 0.011
10 0.011
11 0.0086
12 0.0086
13 0.0056
14 0.0056
15 0.0056
16 0.0056
17 0.0056
18 0.0056
$EndElementData
$ElementData
1
"Attribute:SectionDimension4"
1
0
3
0
1
18
1 0.019
2 0.019
3 0.0135
4 0.0135
5 0.019
6 0.019
7 0.0135
8 0.0135
9 0.019
10 0.019
11 0.0135
12 0.0135
13 0.0085
14 0.0085
15 0.0085
16 0.0085
17 0.0085
18 0.0085
$EndElementData
$ElementData
1
"Attribute:SectionDimension5"
1
0
3
0
1
18
1 0.027
2 0.027
3 0.021
4 0.021
5 0.027
6 0.027
7 0.021
8 0.021
9 0.027
10 0.027
11 0.021
12 0.021
13 0.012
14 0.012
15 0.012
16 0.012
17 0.012
18 0.012
$EndElementData
$ElementData
1
"Attribute:SectionShape"
1
0
3
0
1
18
1 5
2 5
3 5
4 5
5 5
6 5
7 5
8 5
9 5
10 5
11 5
12 5
13 5
14 5
15 5
16 5
17 5
18 5
$EndElementData
$ElementData
1
"Attribute:ShearAreaY"
1
0
3
0
1
18
1 0.0029183471282896657
2 0.0029183471282896657
3 0.0033323939411293683
4 0.0033323939411293683
5 0.0029183471282896657
6 0.0029183471282896657
7 0.0033323939411293683
8 0.0033323939411293683
9 0.0029183471282896657
10 0.0029183471282896657
11 0.0033323939411293683
12 0.0033323939411293683
13 0.0010633841173523775
14 0.0010633841173523775
15 0.0010633841173523775
16 0.0010633841173523775
17 0.0010633841173523775
18 0.0010633841173523775
$EndElementData
$ElementData
1
"Attribute:ShearAreaZ"
1
0
3
0
1
18
1 0.009686274509803921
2 0.009686274509803921
3 0.0041294117647058814
4 0.0041294117647058814
5 0.009686274509803921
6 0.009686274509803921
7 0.0041294117647058814
8 0.0041294117647058814
9 0.009686274509803921
10 0.009686274509803921
11 0.0041294117647058814
12 0.0041294117647058814
13 0.0014444444444444446
14 0.0014444444444444446
15 0.0014444444444444446
16 0.0014444444444444446
17 0.0014444444444444446
18 0.0014444444444444446
$EndElementData
$ElementData
1
"Attribute:TorsionConstant"
1
0
3
0
1
18
1 1.8504540939155354e-06
2 1.8504540939155354e-06
3 5.107547221208023e-07
4 5.107547221208023e-07
5 1.8504540939155354e-06
6 1.8504540939155354e-06
7 5.107547221208023e-07
8 5.107547221208023e-07
9 1.8504540939155354e-06
10 1.8504540939155354e-06
11 5.107547221208023e-07
12 5.107547221208023e-07
13 6.980120130097939e-08
14 6.980120130097939e-08
15 6.980120130097939e-08
16 6.980120130097939e-08
17 6.980120130097939e-08
18 6.980120130097939e-08
$EndElementData
$ElementData
1
"Attribute:UniformLoadGlobalX"
1
0
3
0
1
18
1 1800
2 0
3 0
4 0
5 3600
6 0
7 0
8 0
9 1800
10 0
11 0
12 0
13 0
14 0
15 0
16 0
17 0
18 0
$EndElementData
$ElementData
1
"Attribute:UniformLoadGlobalY"
1
0
3
0
1
18
1 0
2 0
3 -3600
4 -3600
5 0
6 0
7 -7200
8 -7200
9 0
10 0
11 -3600
12 -3600
13 0
14 0
15 0
16 0
17 0
18 0
$EndElementData
$ElementData
1
"Attribute:UniformLoadGlobalZ"
1
0
3
0
1
18
1 0
2 0
3 0
4 0
5 0
6 0
7 0
8 0
9 0
10 0
11 0
12 0
13 0
14 0
15 0
16 0
17 0
18 0
$EndElementData
$ElementData
1
"Attribute:UniformLoadLocalX"
1
0
3
0
1
18
1 0
2 0
3 0
4 0
5 0
6 0
7 0
8 0
9 0
10 0
11 0
12 0
13 0
14 0
15 0
16 0
17 0
18 0
$EndElementData
$ElementData
1
"Attribute:UniformLoadLocalY"
1
0
3
0
1
18
1 0
2 0
3 0
4 0
5 0
6 0
7 0
8 0
9 0
10 0
11 0
12 0
13 0
14 0
15 0
16 0
17 0
18 0
$EndElementData
$ElementData
1
"Attribute:UniformLoadLocalZ"
1
0
3
0
1
18
1 0
2 0
3 0
4 0
5 0
6 0
7 0
8 0
9 0
10 0
11 0
12 0
13 0
14 0
15 0
16 0
17 0
18 0
$EndElementData
$ElementData
1
"BeamOrientation"
1
0
3
0
3
18
1 1 0 0
2 1 0 0
3 0 0 0
4 0 0 0
5 1 0 0
6 1 0 0
7 0 0 0
8 0 0 0
9 1 0 0
10 1 0 0
11 0 0 0
12 0 0 0
13 0 0 0
14 0 0 0
15 0 0 0
16 0 0 0
17 0 0 0
18 0 0 0
$EndElementData
$AnafData
1
1
GLOBAL 3 1
"Gravity"
0 -9.80665 0
$EndAnafData
