$MeshFormat
4.1 0 8
$EndMeshFormat
$PhysicalNames
4
1 1 "Material:Structural Steel S355 (EN 10025)"
1 2 "Section:IPE 400"
1 3 "Section:IPE 450"
1 4 "Section:HEB 340"
$EndPhysicalNames
$Entities
0 3 0 0
1 0 0 0 18 18 15 2 1 4 0
2 0 3.6 0 18 18 15 2 1 3 0
3 0 3.6 0 18 18 15 2 1 2 0
$EndEntities
$Nodes
1 72 1 72
1 1 0 72
1
2
3
4
5
6
7
8
9
10
11
12
13
14
15
16
17
18
19
20
21
22
23
24
25
26
27
28
29
30
31
32
33
34
35
36
37
38
39
40
41
42
43
44
45
46
47
48
49
50
51
52
53
54
55
56
57
58
59
60
61
62
63
64
65
66
67
68
69
70
71
72
0 0 0
6 0 0
12 0 0
18 0 0
0 0 7.5
6 0 7.5
12 0 7.5
18 0 7.5
0 0 15
6 0 15
12 0 15
18 0 15
0 3.6 0
6 3.6 0
12 3.6 0
18 3.6 0
0 3.6 7.5
6 3.6 7.5
12 3.6 7.5
18 3.6 7.5
0 3.6 15
6 3.6 15
12 3.6 15
18 3.6 15
0 7.2 0
6 7.2 0
12 7.2 0
18 7.2 0
0 7.2 7.5
6 7.2 7.5
12 7.2 7.5
18 7.2 7.5
0 7.2 15
6 7.2 15
12 7.2 15
18 7.2 15
0 10.8 0
6 10.8 0
12 10.8 0
18 10.8 0
0 10.8 7.5
6 10.8 7.5
12 10.8 7.5
18 10.8 7.5
0 10.8 15
6 10.8 15
12 10.8 15
18 10.8 15
0 14.4 0
6 14.4 0
12 14.4 0
18 14.4 0
0 14.4 7.5
6 14.4 7.5
12 14.4 7.5
18 14.4 7.5
0 14.4 15
6 14.4 15
12 14.4 15
18 14.4 15
0 18 0
6 18 0
12 18 0
18 18 0
0 18 7.5
6 18 7.5
12 18 7.5
18 18 7.5
0 18 15
6 18 15
12 18 15
18 18 15
$EndNodes
$Elements
3 145 1 145
1 1 1 60
1 1 13
2 13 25
3 25 37
4 37 49
5 49 61
6 2 14
7 14 26
8 26 38
9 38 50
10 50 62
11 3 15
12 15 27
13 27 39
14 39 51
15 51 63
16 4 16
17 16 28
18 28 40
19 40 52
20 52 64
21 5 17
22 17 29
23 29 41
24 41 53
25 53 65
26 6 18
27 18 30
28 30 42
29 42 54
30 54 66
31 7 19
32 19 31
33 31 43
34 43 55
35 55 67
36 8 20
37 20 32
38 32 44
39 44 56
40 56 68
41 9 21
42 21 33
43 33 45
44 45 57
45 57 69
46 10 22
47 22 34
48 34 46
49 46 58
50 58 70
51 11 23
52 23 35
53 35 47
54 47 59
55 59 71
56 12 24
57 24 36
58 36 48
59 48 60
60 60 72
1 2 1 45
61 13 14
62 14 15
63 15 16
64 17 18
65 18 19
66 19 20
67 21 22
68 22 23
69 23 24
78 25 26
79 26 27
80 27 28
81 29 30
82 30 31
83 31 32
84 33 34
85 34 35
86 35 36
95 37 38
96 38 39
97 39 40
98 41 42
99 42 43
100 43 44
101 45 46
102 46 47
103 47 48
112 49 50
113 50 51
114 51 52
115 53 54
116 54 55
117 55 56
118 57 58
119 58 59
120 59 60
129 61 62
130 62 63
131 63 64
132 65 66
133 66 67
134 67 68
135 69 70
136 70 71
137 71 72
1 3 1 40
70 13 17
71 17 21
72 14 18
73 18 22
74 15 19
75 19 23
76 16 20
77 20 24
87 25 29
88 29 33
89 26 30
90 30 34
91 27 31
92 31 35
93 28 32
94 32 36
104 37 41
105 41 45
106 38 42
107 42 46
108 39 43
109 43 47
110 40 44
111 44 48
121 49 53
122 53 57
123 50 54
124 54 58
125 51 55
126 55 59
127 52 56
128 56 60
138 61 65
139 65 69
140 62 66
141 66 70
142 63 67
143 67 71
144 64 68
145 68 72
$EndElements
$NodeData
1
"Fixity"
1
0
3
0
3
72
1 1 1 1
2 1 1 1
3 1 1 1
4 1 1 1
5 1 1 1
6 1 1 1
7 1 1 1
8 1 1 1
9 1 1 1
10 1 1 1
11 1 1 1
12 1 1 1
13 0 0 0
14 0 0 0
15 0 0 0
16 0 0 0
17 0 0 0
18 0 0 0
19 0 0 0
20 0 0 0
21 0 0 0
22 0 0 0
23 0 0 0
24 0 0 0
25 0 0 0
26 0 0 0
27 0 0 0
28 0 0 0
29 0 0 0
30 0 0 0
31 0 0 0
32 0 0 0
33 0 0 0
34 0 0 0
35 0 0 0
36 0 0 0
37 0 0 0
38 0 0 0
39 0 0 0
40 0 0 0
41 0 0 0
42 0 0 0
43 0 0 0
44 0 0 0
45 0 0 0
46 0 0 0
47 0 0 0
48 0 0 0
49 0 0 0
50 0 0 0
51 0 0 0
52 0 0 0
53 0 0 0
54 0 0 0
55 0 0 0
56 0 0 0
57 0 0 0
58 0 0 0
59 0 0 0
60 0 0 0
61 0 0 0
62 0 0 0
63 0 0 0
64 0 0 0
65 0 0 0
66 0 0 0
67 0 0 0
68 0 0 0
69 0 0 0
70 0 0 0
71 0 0 0
72 0 0 0
$EndNodeData
$NodeData
1
"FixityRotation"
1
0
3
0
3
72
1 1 1 1
2 1 1 1
3 1 1 1
4 1 1 1
5 1 1 1
6 1 1 1
7 1 1 1
8 1 1 1
9 1 1 1
10 1 1 1
11 1 1 1
12 1 1 1
13 0 0 0
14 0 0 0
15 0 0 0
16 0 0 0
17 0 0 0
18 0 0 0
19 0 0 0
20 0 0 0
21 0 0 0
22 0 0 0
23 0 0 0
24 0 0 0
25 0 0 0
26 0 0 0
27 0 0 0
28 0 0 0
29 0 0 0
30 0 0 0
31 0 0 0
32 0 0 0
33 0 0 0
34 0 0 0
35 0 0 0
36 0 0 0
37 0 0 0
38 0 0 0
39 0 0 0
40 0 0 0
41 0 0 0
42 0 0 0
43 0 0 0
44 0 0 0
45 0 0 0
46 0 0 0
47 0 0 0
48 0 0 0
49 0 0 0
50 0 0 0
51 0 0 0
52 0 0 0
53 0 0 0
54 0 0 0
55 0 0 0
56 0 0 0
57 0 0 0
58 0 0 0
59 0 0 0
60 0 0 0
61 0 0 0
62 0 0 0
63 0 0 0
64 0 0 0
65 0 0 0
66 0 0 0
67 0 0 0
68 0 0 0
69 0 0 0
70 0 0 0
71 0 0 0
72 0 0 0
$EndNodeData
$NodeData
1
"NodalForce"
1
0
3
0
3
72
1 0 0 0
2 0 0 0
3 0 0 0
4 0 0 0
5 0 0 0
6 0 0 0
7 0 0 0
8 0 0 0
9 0 0 0
10 0 0 0
11 0 0 0
12 0 0 0
13 0 0 12000
14 0 0 12000
15 0 0 12000
16 0 0 12000
17 0 0 0
18 0 0 0
19 0 0 0
20 0 0 0
21 0 0 0
22 0 0 0
23 0 0 0
24 0 0 0
25 0 0 12000
26 0 0 12000
27 0 0 12000
28 0 0 12000
29 0 0 0
30 0 0 0
31 0 0 0
32 0 0 0
33 0 0 0
34 0 0 0
35 0 0 0
36 0 0 0
37 0 0 12000
38 0 0 12000
39 0 0 12000
40 0 0 12000
41 0 0 0
42 0 0 0
43 0 0 0
44 0 0 0
45 0 0 0
46 0 0 0
47 0 0 0
48 0 0 0
49 0 0 12000
50 0 0 12000
51 0 0 12000
52 0 0 12000
53 0 0 0
54 0 0 0
55 0 0 0
56 0 0 0
57 0 0 0
58 0 0 0
59 0 0 0
60 0 0 0
61 0 0 12000
62 0 0 12000
63 0 0 12000
64 0 0 12000
65 0 0 0
66 0 0 0
67 0 0 0
68 0 0 0
69 0 0 0
70 0 0 0
71 0 0 0
72 0 0 0
$EndNodeData
$ElementData
1
"CrossSectionArea"
1
0
3
0
1
145
1 0.017089778955533035
2 0.017089778955533035
3 0.017089778955533035
4 0.017089778955533035
5 0.017089778955533035
6 0.017089778955533035
7 0.017089778955533035
8 0.017089778955533035
9 0.017089778955533035
10 0.017089778955533035
11 0.017089778955533035
12 0.017089778955533035
13 0.017089778955533035
14 0.017089778955533035
15 0.017089778955533035
16 0.017089778955533035
17 0.017089778955533035
18 0.017089778955533035
19 0.017089778955533035
20 0.017089778955533035
21 0.017089778955533035
22 0.017089778955533035
23 0.017089778955533035
24 0.017089778955533035
25 0.017089778955533035
26 0.017089778955533035
27 0.017089778955533035
28 0.017089778955533035
29 0.017089778955533035
30 0.017089778955533035
31 0.017089778955533035
32 0.017089778955533035
33 0.017089778955533035
34 0.017089778955533035
35 0.017089778955533035
36 0.017089778955533035
37 0.017089778955533035
38 0.017089778955533035
39 0.017089778955533035
40 0.017089778955533035
41 0.017089778955533035
42 0.017089778955533035
43 0.017089778955533035
44 0.017089778955533035
45 0.017089778955533035
46 0.017089778955533035
47 0.017089778955533035
48 0.017089778955533035
49 0.017089778955533035
50 0.017089778955533035
51 0.017089778955533035
52 0.017089778955533035
53 0.017089778955533035
54 0.017089778955533035
55 0.017089778955533035
56 0.017089778955533035
57 0.017089778955533035
58 0.017089778955533035
59 0.017089778955533035
60 0.017089778955533035
61 0.009882077639766902
62 0.009882077639766902
63 0.009882077639766902
64 0.009882077639766902
65 0.009882077639766902
66 0.009882077639766902
67 0.009882077639766902
68 0.009882077639766902
69 0.009882077639766902
70 0.0084463576397669
71 0.0084463576397669
72 0.0084463576397669
73 0.0084463576397669
74 0.0084463576397669
75 0.0084463576397669
76 0.0084463576397669
77 0.0084463576397669
78 0.009882077639766902
79 0.009882077639766902
80 0.009882077639766902
81 0.009882077639766902
82 0.009882077639766902
83 0.009882077639766902
84 0.009882077639766902
85 0.009882077639766902
86 0.009882077639766902
87 0.0084463576397669
88 0.0084463576397669
89 0.0084463576397669
90 0.0084463576397669
91 0.0084463576397669
92 0.0084463576397669
93 0.0084463576397669
94 0.0084463576397669
95 0.009882077639766902
96 0.009882077639766902
97 0.009882077639766902
98 0.009882077639766902
99 0.009882077639766902
100 0.009882077639766902
101 0.009882077639766902
102 0.009882077639766902
103 0.009882077639766902
104 0.0084463576397669
105 0.0084463576397669
106 0.0084463576397669
107 0.0084463576397669
108 0.0084463576397669
109 0.0084463576397669
110 0.0084463576397669
111 0.0084463576397669
112 0.009882077639766902
113 0.009882077639766902
114 0.009882077639766902
115 0.009882077639766902
116 0.009882077639766902
117 0.009882077639766902
118 0.009882077639766902
119 0.009882077639766902
120 0.009882077639766902
121 0.0084463576397669
122 0.0084463576397669
123 0.0084463576397669
124 0.0084463576397669
125 0.0084463576397669
126 0.0084463576397669
127 0.0084463576397669
128 0.0084463576397669
129 0.009882077639766902
130 0.009882077639766902
131 0.009882077639766902
132 0.009882077639766902
133 0.009882077639766902
134 0.009882077639766902
135 0.009882077639766902
136 0.009882077639766902
137 0.009882077639766902
138 0.0084463576397669
139 0.0084463576397669
140 0.0084463576397669
141 0.0084463576397669
142 0.0084463576397669
143 0.0084463576397669
144 0.0084463576397669
145 0.0084463576397669
$EndElementData
$ElementData
1
"Attribute:ElementFormulation"
1
0
3
0
1
145
1 1
2 1
3 1
4 1
5 1
6 1
7 1
8 1
9 1
10 1
11 1
12 1
13 1
14 1
15 1
16 1
17 1
18 1
19 1
20 1
21 1
22 1
23 1
24 1
25 1
26 1
27 1
28 1
29 1
30 1
31 1
32 1
33 1
34 1
35 1
36 1
37 1
38 1
39 1
40 1
41 1
42 1
43 1
44 1
45 1
46 1
47 1
48 1
49 1
50 1
51 1
52 1
53 1
54 1
55 1
56 1
57 1
58 1
59 1
60 1
61 1
62 1
63 1
64 1
65 1
66 1
67 1
68 1
69 1
70 1
71 1
72 1
73 1
74 1
75 1
76 1
77 1
78 1
79 1
80 1
81 1
82 1
83 1
84 1
85 1
86 1
87 1
88 1
89 1
90 1
91 1
92 1
93 1
94 1
95 1
96 1
97 1
98 1
99 1
100 1
101 1
102 1
103 1
104 1
105 1
106 1
107 1
108 1
109 1
110 1
111 1
112 1
113 1
114 1
115 1
116 1
117 1
118 1
119 1
120 1
121 1
122 1
123 1
124 1
125 1
126 1
127 1
128 1
129 1
130 1
131 1
132 1
133 1
134 1
135 1
136 1
137 1
138 1
139 1
140 1
141 1
142 1
143 1
144 1
145 1
$EndElementData
$ElementData
1
"MaterialID"
1
0
3
0
1
145
1 3
2 3
3 3
4 3
5 3
6 3
7 3
8 3
9 3
10 3
11 3
12 3
13 3
14 3
15 3
16 3
17 3
18 3
19 3
20 3
21 3
22 3
23 3
24 3
25 3
26 3
27 3
28 3
29 3
30 3
31 3
32 3
33 3
34 3
35 3
36 3
37 3
38 3
39 3
40 3
41 3
42 3
43 3
44 3
45 3
46 3
47 3
48 3
49 3
50 3
51 3
52 3
53 3
54 3
55 3
56 3
57 3
58 3
59 3
60 3
61 3
62 3
63 3
64 3
65 3
66 3
67 3
68 3
69 3
70 3
71 3
72 3
73 3
74 3
75 3
76 3
77 3
78 3
79 3
80 3
81 3
82 3
83 3
84 3
85 3
86 3
87 3
88 3
89 3
90 3
91 3
92 3
93 3
94 3
95 3
96 3
97 3
98 3
99 3
100 3
101 3
102 3
103 3
104 3
105 3
106 3
107 3
108 3
109 3
110 3
111 3
112 3
113 3
114 3
115 3
116 3
117 3
118 3
119 3
120 3
121 3
122 3
123 3
124 3
125 3
126 3
127 3
128 3
129 3
130 3
131 3
132 3
133 3
134 3
135 3
136 3
137 3
138 3
139 3
140 3
141 3
142 3
143 3
144 3
145 3
$EndElementData
$ElementData
1
"Attribute:SecondMomentY"
1
0
3
0
1
145
1 9.689938449722136e-05
2 9.689938449722136e-05
3 9.689938449722136e-05
4 9.689938449722136e-05
5 9.689938449722136e-05
6 9.689938449722136e-05
7 9.689938449722136e-05
8 9.689938449722136e-05
9 9.689938449722136e-05
10 9.689938449722136e-05
11 9.689938449722136e-05
12 9.689938449722136e-05
13 9.689938449722136e-05
14 9.689938449722136e-05
15 9.689938449722136e-05
16 9.689938449722136e-05
17 9.689938449722136e-05
18 9.689938449722136e-05
19 9.689938449722136e-05
20 9.689938449722136e-05
21 9.689938449722136e-05
22 9.689938449722136e-05
23 9.689938449722136e-05
24 9.689938449722136e-05
25 9.689938449722136e-05
26 9.689938449722136e-05
27 9.689938449722136e-05
28 9.689938449722136e-05
29 9.689938449722136e-05
30 9.689938449722136e-05
31 9.689938449722136e-05
32 9.689938449722136e-05
33 9.689938449722136e-05
34 9.689938449722136e-05
35 9.689938449722136e-05
36 9.689938449722136e-05
37 9.689938449722136e-05
38 9.689938449722136e-05
39 9.689938449722136e-05
40 9.689938449722136e-05
41 9.689938449722136e-05
42 9.689938449722136e-05
43 9.689938449722136e-05
44 9.689938449722136e-05
45 9.689938449722136e-05
46 9.689938449722136e-05
47 9.689938449722136e-05
48 9.689938449722136e-05
49 9.689938449722136e-05
50 9.689938449722136e-05
51 9.689938449722136e-05
52 9.689938449722136e-05
53 9.689938449722136e-05
54 9.689938449722136e-05
55 9.689938449722136e-05
56 9.689938449722136e-05
57 9.689938449722136e-05
58 9.689938449722136e-05
59 9.689938449722136e-05
60 9.689938449722136e-05
61 1.675861206087395e-05
62 1.675861206087395e-05
63 1.675861206087395e-05
64 1.675861206087395e-05
65 1.675861206087395e-05
66 1.675861206087395e-05
67 1.675861206087395e-05
68 1.675861206087395e-05
69 1.675861206087395e-05
70 1.317824028008936e-05
71 1.317824028008936e-05
72 1.317824028008936e-05
73 1.317824028008936e-05
74 1.317824028008936e-05
75 1.317824028008936e-05
76 1.317824028008936e-05
77 1.317824028008936e-05
78 1.675861206087395e-05
79 1.675861206087395e-05
80 1.675861206087395e-05
81 1.675861206087395e-05
82 1.675861206087395e-05
83 1.675861206087395e-05
84 1.675861206087395e-05
85 1.675861206087395e-05
86 1.675861206087395e-05
87 1.317824028008936e-05
88 1.317824028008936e-05
89 1.317824028008936e-05
90 1.317824028008936e-05
91 1.317824028008936e-05
92 1.317824028008936e-05
93 1.317824028008936e-05
94 1.317824028008936e-05
95 1.675861206087395e-05
96 1.675861206087395e-05
97 1.675861206087395e-05
98 1.675861206087395e-05
99 1.675861206087395e-05
100 1.675861206087395e-05
101 1.675861206087395e-05
102 1.675861206087395e-05
103 1.675861206087395e-05
104 1.317824028008936e-05
105 1.317824028008936e-05
106 1.317824028008936e-05
107 1.317824028008936e-05
108 1.317824028008936e-05
109 1.317824028008936e-05
110 1.317824028008936e-05
111 1.317824028008936e-05
112 1.675861206087395e-05
113 1.675861206087395e-05
114 1.675861206087395e-05
115 1.675861206087395e-05
116 1.675861206087395e-05
117 1.675861206087395e-05
118 1.675861206087395e-05
119 1.675861206087395e-05
120 1.675861206087395e-05
121 1.317824028008936e-05
122 1.317824028008936e-05
123 1.317824028008936e-05
124 1.317824028008936e-05
125 1.317824028008936e-05
126 1.317824028008936e-05
127 1.317824028008936e-05
128 1.317824028008936e-05
129 1.675861206087395e-05
130 1.675861206087395e-05
131 1.675861206087395e-05
132 1.675861206087395e-05
133 1.675861206087395e-05
134 1.675861206087395e-05
135 1.675861206087395e-05
136 1.675861206087395e-05
137 1.675861206087395e-05
138 1.317824028008936e-05
139 1.317824028008936e-05
140 1.317824028008936e-05
141 1.317824028008936e-05
142 1.317824028008936e-05
143 1.317824028008936e-05
144 1.317824028008936e-05
145 1.317824028008936e-05
$EndElementData
$ElementData
1
"Attribute:SecondMomentZ"
1
0
3
0
1
145
1 0.00036656399460096347
2 0.00036656399460096347
3 0.00036656399460096347
4 0.00036656399460096347
5 0.00036656399460096347
6 0.00036656399460096347
7 0.00036656399460096347
8 0.00036656399460096347
9 0.00036656399460096347
10 0.00036656399460096347
11 0.00036656399460096347
12 0.00036656399460096347
13 0.00036656399460096347
14 0.00036656399460096347
15 0.00036656399460096347
16 0.00036656399460096347
17 0.00036656399460096347
18 0.00036656399460096347
19 0.00036656399460096347
20 0.00036656399460096347
21 0.00036656399460096347
22 0.00036656399460096347
23 0.00036656399460096347
24 0.00036656399460096347
25 0.00036656399460096347
26 0.00036656399460096347
27 0.00036656399460096347
28 0.00036656399460096347
29 0.00036656399460096347
30 0.00036656399460096347
31 0.00036656399460096347
32 0.00036656399460096347
33 0.00036656399460096347
34 0.00036656399460096347
35 0.00036656399460096347
36 0.00036656399460096347
37 0.00036656399460096347
38 0.00036656399460096347
39 0.00036656399460096347
40 0.00036656399460096347
41 0.00036656399460096347
42 0.00036656399460096347
43 0.00036656399460096347
44 0.00036656399460096347
45 0.00036656399460096347
46 0.00036656399460096347
47 0.00036656399460096347
48 0.00036656399460096347
49 0.00036656399460096347
50 0.00036656399460096347
51 0.00036656399460096347
52 0.00036656399460096347
53 0.00036656399460096347
54 0.00036656399460096347
55 0.00036656399460096347
56 0.00036656399460096347
57 0.00036656399460096347
58 0.00036656399460096347
59 0.00036656399460096347
60 0.00036656399460096347
61 0.00033742941808865293
62 0.00033742941808865293
63 0.00033742941808865293
64 0.00033742941808865293
65 0.00033742941808865293
66 0.00033742941808865293
67 0.00033742941808865293
68 0.00033742941808865293
69 0.00033742941808865293
70 0.00023128369088907635
71 0.00023128369088907635
72 0.00023128369088907635
73 0.00023128369088907635
74 0.00023128369088907635
75 0.00023128369088907635
76 0.00023128369088907635
77 0.00023128369088907635
78 0.00033742941808865293
79 0.00033742941808865293
80 0.00033742941808865293
81 0.00033742941808865293
82 0.00033742941808865293
83 0.00033742941808865293
84 0.00033742941808865293
85 0.00033742941808865293
86 0.00033742941808865293
87 0.00023128369088907635
88 0.00023128369088907635
89 0.00023128369088907635
90 0.00023128369088907635
91 0.00023128369088907635
92 0.00023128369088907635
93 0.00023128369088907635
94 0.00023128369088907635
95 0.00033742941808865293
96 0.00033742941808865293
97 0.00033742941808865293
98 0.00033742941808865293
99 0.00033742941808865293
100 0.00033742941808865293
101 0.00033742941808865293
102 0.00033742941808865293
103 0.00033742941808865293
104 0.00023128369088907635
105 0.00023128369088907635
106 0.00023128369088907635
107 0.00023128369088907635
108 0.00023128369088907635
109 0.00023128369088907635
110 0.00023128369088907635
111 0.00023128369088907635
112 0.00033742941808865293
113 0.00033742941808865293
114 0.00033742941808865293
115 0.00033742941808865293
116 0.00033742941808865293
117 0.00033742941808865293
118 0.00033742941808865293
119 0.00033742941808865293
120 0.00033742941808865293
121 0.00023128369088907635
122 0.00023128369088907635
123 0.00023128369088907635
124 0.00023128369088907635
125 0.00023128369088907635
126 0.00023128369088907635
127 0.00023128369088907635
128 0.00023128369088907635
129 0.00033742941808865293
130 0.00033742941808865293
131 0.00033742941808865293
132 0.00033742941808865293
133 0.00033742941808865293
134 0.00033742941808865293
135 0.00033742941808865293
136 0.00033742941808865293
137 0.00033742941808865293
138 0.00023128369088907635
139 0.00023128369088907635
140 0.00023128369088907635
141 0.00023128369088907635
142 0.00023128369088907635
143 0.00023128369088907635
144 0.00023128369088907635
145 0.00023128369088907635
$EndElementData
$ElementData
1
"Attribute:SectionDimension1"
1
0
3
0
1
145
1 0.34
2 0.34
3 0.34
4 0.34
5 0.34
6 0.34
7 0.34
8 0.34
9 0.34
10 0.34
11 0.34
12 0.34
13 0.34
14 0.34
15 0.34
16 0.34
17 0.34
18 0.34
19 0.34
20 0.34
21 0.34
22 0.34
23 0.34
24 0.34
25 0.34
26 0.34
27 0.34
28 0.34
29 0.34
30 0.34
31 0.34
32 0.34
33 0.34
34 0.34
35 0.34
36 0.34
37 0.34
38 0.34
39 0.34
40 0.34
41 0.34
42 0.34
43 0.34
44 0.34
45 0.34
46 0.34
47 0.34
48 0.34
49 0.34
50 0.34
51 0.34
52 0.34
53 0.34
54 0.34
55 0.34
56 0.34
57 0.34
58 0.34
59 0.34
60 0.34
61 0.45
62 0.45
63 0.45
64 0.45
65 0.45
66 0.45
67 0.45
68 0.45
69 0.45
70 0.4
71 0.4
72 0.4
73 0.4
74 0.4
75 0.4
76 0.4
77 0.4
78 0.45
79 0.45
80 0.45
81 0.45
82 0.45
83 0.45
84 0.45
85 0.45
86 0.45
87 0.4
88 0.4
89 0.4
90 0.4
91 0.4
92 0.4
93 0.4
94 0.4
95 0.45
96 0.45
97 0.45
98 0.45
99 0.45
100 0.45
101 0.45
102 0.45
103 0.45
104 0.4
105 0.4
106 0.4
107 0.4
108 0.4
109 0.4
110 0.4
111 0.4
112 0.45
113 0.45
114 0.45
115 0.45
116 0.45
117 0.45
118 0.45
119 0.45
120 0.45
121 0.4
122 0.4
123 0.4
124 0.4
125 0.4
126 0.4
127 0.4
128 0.4
129 0.45
130 0.45
131 0.45
132 0.45
133 0.45
134 0.45
135 0.45
136 0.45
137 0.45
138 0.4
139 0.4
140 0.4
141 0.4
142 0.4
143 0.4
144 0.4
145 0.4
$EndElementData
$ElementData
1
"Attribute:SectionDimension2"
1
0
3
0
1
145
1 0.3
2 0.3
3 0.3
4 0.3
5 0.3
6 0.3
7 0.3
8 0.3
9 0.3
10 0.3
11 0.3
12 0.3
13 0.3
14 0.3
15 0.3
16 0.3
17 0.3
18 0.3
19 0.3
20 0.3
21 0.3
22 0.3
23 0.3
24 0.3
25 0.3
26 0.3
27 0.3
28 0.3
29 0.3
30 0.3
31 0.3
32 0.3
33 0.3
34 0.3
35 0.3
36 0.3
37 0.3
38 0.3
39 0.3
40 0.3
41 0.3
42 0.3
43 0.3
44 0.3
45 0.3
46 0.3
47 0.3
48 0.3
49 0.3
50 0.3
51 0.3
52 0.3
53 0.3
54 0.3
55 0.3
56 0.3
57 0.3
58 0.3
59 0.3
60 0.3
61 0.19
62 0.19
63 0.19
64 0.19
65 0.19
66 0.19
67 0.19
68 0.19
69 0.19
70 0.18
71 0.18
72 0.18
73 0.18
74 0.18
75 0.18
76 0.18
77 0.18
78 0.19
79 0.19
80 0.19
81 0.19
82 0.19
83 0.19
84 0.19
85 0.19
86 0.19
87 0.18
88 0.18
89 0.18
90 0.18
91 0.18
92 0.18
93 0.18
94 0.18
95 0.19
96 0.19
97 0.19
98 0.19
99 0.19
100 0.19
101 0.19
102 0.19
103 0.19
104 0.18
105 0.18
106 0.18
107 0.18
108 0.18
109 0.18
110 0.18
111 0.18
112 0.19
113 0.19
114 0.19
115 0.19
116 0.19
117 0.19
118 0.19
119 0.19
120 0.19
121 0.18
122 0.18
123 0.18
124 0.18
125 0.18
126 0.18
127 0.18
128 0.18
129 0.19
130 0.19
131 0.19
132 0.19
133 0.19
134 0.19
135 0.19
136 0.19
137 0.19
138 0.18
139 0.18
140 0.18
141 0.18
142 0.18
143 0.18
144 0.18
145 0.18
$EndElementData
$ElementData
1
"Attribute:SectionDimension3"
1
0
3
0
1
145
1 0.012
2 0.012
3 0.012
4 0.012
5 0.012
6 0.012
7 0.012
8 0.012
9 0.012
10 0.012
11 0.012
12 0.012
13 0.012
14 0.012
15 0.012
16 0.012
17 0.012
18 0.012
19 0.012
20 0.012
21 0.012
22 0.012
23 0.012
24 0.012
25 0.012
26 0.012
27 0.012
28 0.012
29 0.012
30 0.012
31 0.012
32 0.012
33 0.012
34 0.012
35 0.012
36 0.012
37 0.012
38 0.012
39 0.012
40 0.012
41 0.012
42 0.012
43 0.012
44 0.012
45 0.012
46 0.012
47 0.012
48 0.012
49 0.012
50 0.012
51 0.012
52 0.012
53 0.012
54 0.012
55 0.012
56 0.012
57 0.012
58 0.012
59 0.012
60 0.012
61 0.0094
62 0.0094
63 0.0094
64 0.0094
65 0.0094
66 0.0094
67 0.0094
68 0.0094
69 0.0094
70 0.0086
71 0.0086
72 0.0086
73 0.0086
74 0.0086
75 0.0086
76 0.0086
77 0.0086
78 0.0094
79 0.0094
80 0.0094
81 0.0094
82 0.0094
83 0.0094
84 0.0094
85 0.0094
86 0.0094
87 0.0086
88 0.0086
89 0.0086
90 0.0086
91 0.0086
92 0.0086
93 0.0086
94 0.0086
95 0.0094
96 0.0094
97 0.0094
98 0.0094
99 0.0094
100 0.0094
101 0.0094
102 0.0094
103 0.0094
104 0.0086
105 0.0086
106 0.0086
107 0.0086
108 0.0086
109 0.0086
110 0.0086
111 0.0086
112 0.0094
113 0.0094
114 0.0094
115 0.0094
116 0.0094
117 0.0094
118 0.0094
119 0.0094
120 0.0094
121 0.0086
122 0.0086
123 0.0086
124 0.0086
125 0.0086
126 0.0086
127 0.0086
128 0.0086
129 0.0094
130 0.0094
131 0.0094
132 0.0094
133 0.0094
134 0.0094
135 0.0094
136 0.0094
137 0.0094
138 0.0086
139 0.0086
140 0.0086
141 0.0086
142 0.0086
143 0.0086
144 0.0086
145 0.0086
$EndElementData
$ElementData
1
"Attribute:SectionDimension4"
1
0
3
0
1
145
1 0.0215
2 0.0215
3 0.0215
4 0.0215
5 0.0215
6 0.0215
7 0.0215
8 0.0215
9 0.0215
10 0.0215
11 0.0215
12 0.0215
13 0.0215
14 0.0215
15 0.0215
16 0.0215
17 0.0215
18 0.0215
19 0.0215
20 0.0215
21 0.0215
22 0.0215
23 0.0215
24 0.0215
25 0.0215
26 0.0215
27 0.0215
28 0.0215
29 0.0215
30 0.0215
31 0.0215
32 0.0215
33 0.0215
34 0.0215
35 0.0215
36 0.0215
37 0.0215
38 0.0215
39 0.0215
40 0.0215
41 0.0215
42 0.0215
43 0.0215
44 0.0215
45 0.0215
46 0.0215
47 0.0215
48 0.0215
49 0.0215
50 0.0215
51 0.0215
52 0.0215
53 0.0215
54 0.0215
55 0.0215
56 0.0215
57 0.0215
58 0.0215
59 0.0215
60 0.0215
61 0.0146
62 0.0146
63 0.0146
64 0.0146
65 0.0146
66 0.0146
67 0.0146
68 0.0146
69 0.0146
70 0.0135
71 0.0135
72 0.0135
73 0.0135
74 0.0135
75 0.0135
76 0.0135
77 0.0135
78 0.0146
79 0.0146
80 0.0146
81 0.0146
82 0.0146
83 0.0146
84 0.0146
85 0.0146
86 0.0146
87 0.0135
88 0.0135
89 0.0135
90 0.0135
91 0.0135
92 0.0135
93 0.0135
94 0.0135
95 0.0146
96 0.0146
97 0.0146
98 0.0146
99 0.0146
100 0.0146
101 0.0146
102 0.0146
103 0.0146
104 0.0135
105 0.0135
106 0.0135
107 0.0135
108 0.0135
109 0.0135
110 0.0135
111 0.0135
112 0.0146
113 0.0146
114 0.0146
115 0.0146
116 0.0146
117 0.0146
118 0.0146
119 0.0146
120 0.0146
121 0.0135
122 0.0135
123 0.0135
124 0.0135
125 0.0135
126 0.0135
127 0.0135
128 0.0135
129 0.0146
130 0.0146
131 0.0146
132 0.0146
133 0.0146
134 0.0146
135 0.0146
136 0.0146
137 0.0146
138 0.0135
139 0.0135
140 0.0135
141 0.0135
142 0.0135
143 0.0135
144 0.0135
145 0.0135
$EndElementData
$ElementData
1
"Attribute:SectionDimension5"
1
0
3
0
1
145
1 0.027
2 0.027
3 0.027
4 0.027
5 0.027
6 0.027
7 0.027
8 0.027
9 0.027
10 0.027
11 0.027
12 0.027
13 0.027
14 0.027
15 0.027
16 0.027
17 0.027
18 0.027
19 0.027
20 0.027
21 0.027
22 0.027
23 0.027
24 0.027
25 0.027
26 0.027
27 0.027
28 0.027
29 0.027
30 0.027
31 0.027
32 0.027
33 0.027
34 0.027
35 0.027
36 0.027
37 0.027
38 0.027
39 0.027
40 0.027
41 0.027
42 0.027
43 0.027
44 0.027
45 0.027
46 0.027
47 0.027
48 0.027
49 0.027
50 0.027
51 0.027
52 0.027
53 0.027
54 0.027
55 0.027
56 0.027
57 0.027
58 0.027
59 0.027
60 0.027
61 0.021
62 0.021
63 0.021
64 0.021
65 0.021
66 0.021
67 0.021
68 0.021
69 0.021
70 0.021
71 0.021
72 0.021
73 0.021
74 0.021
75 0.021
76 0.021
77 0.021
78 0.021
79 0.021
80 0.021
81 0.021
82 0.021
83 0.021
84 0.021
85 0.021
86 0.021
87 0.021
88 0.021
89 0.021
90 0.021
91 0.021
92 0.021
93 0.021
94 0.021
95 0.021
96 0.021
97 0.021
98 0.021
99 0.021
100 0.021
101 0.021
102 0.021
103 0.021
104 0.021
105 0.021
106 0.021
107 0.021
108 0.021
109 0.021
110 0.021
111 0.021
112 0.021
113 0.021
114 0.021
115 0.021
116 0.021
117 0.021
118 0.021
119 0.021
120 0.021
121 0.021
122 0.021
123 0.021
124 0.021
125 0.021
126 0.021
127 0.021
128 0.021
129 0.021
130 0.021
131 0.021
132 0.021
133 0.021
134 0.021
135 0.021
136 0.021
137 0.021
138 0.021
139 0.021
140 0.021
141 0.021
142 0.021
143 0.021
144 0.021
145 0.021
$EndElementData
$ElementData
1
"Attribute:SectionShape"
1
0
3
0
1
145
1 5
2 5
3 5
4 5
5 5
6 5
7 5
8 5
9 5
10 5
11 5
12 5
13 5
14 5
15 5
16 5
17 5
18 5
19 5
20 5
21 5
22 5
23 5
24 5
25 5
26 5
27 5
28 5
29 5
30 5
31 5
32 5
33 5
34 5
35 5
36 5
37 5
38 5
39 5
40 5
41 5
42 5
43 5
44 5
45 5
46 5
47 5
48 5
49 5
50 5
51 5
52 5
53 5
54 5
55 5
56 5
57 5
58 5
59 5
60 5
61 5
62 5
63 5
64 5
65 5
66 5
67 5
68 5
69 5
70 5
71 5
72 5
73 5
74 5
75 5
76 5
77 5
78 5
79 5
80 5
81 5
82 5
83 5
84 5
85 5
86 5
87 5
88 5
89 5
90 5
91 5
92 5
93 5
94 5
95 5
96 5
97 5
98 5
99 5
100 5
101 5
102 5
103 5
104 5
105 5
106 5
107 5
108 5
109 5
110 5
111 5
112 5
113 5
114 5
115 5
116 5
117 5
118 5
119 5
120 5
121 5
122 5
123 5
124 5
125 5
126 5
127 5
128 5
129 5
130 5
131 5
132 5
133 5
134 5
135 5
136 5
137 5
138 5
139 5
140 5
141 5
142 5
143 5
144 5
145 5
$EndElementData
$ElementData
1
"Attribute:ShearAreaY"
1
0
3
0
1
145
1 0.0036378021497980024
2 0.0036378021497980024
3 0.0036378021497980024
4 0.0036378021497980024
5 0.0036378021497980024
6 0.0036378021497980024
7 0.0036378021497980024
8 0.0036378021497980024
9 0.0036378021497980024
10 0.0036378021497980024
11 0.0036378021497980024
12 0.0036378021497980024
13 0.0036378021497980024
14 0.0036378021497980024
15 0.0036378021497980024
16 0.0036378021497980024
17 0.0036378021497980024
18 0.0036378021497980024
19 0.0036378021497980024
20 0.0036378021497980024
21 0.0036378021497980024
22 0.0036378021497980024
23 0.0036378021497980024
24 0.0036378021497980024
25 0.0036378021497980024
26 0.0036378021497980024
27 0.0036378021497980024
28 0.0036378021497980024
29 0.0036378021497980024
30 0.0036378021497980024
31 0.0036378021497980024
32 0.0036378021497980024
33 0.0036378021497980024
34 0.0036378021497980024
35 0.0036378021497980024
36 0.0036378021497980024
37 0.0036378021497980024
38 0.0036378021497980024
39 0.0036378021497980024
40 0.0036378021497980024
41 0.0036378021497980024
42 0.0036378021497980024
43 0.0036378021497980024
44 0.0036378021497980024
45 0.0036378021497980024
46 0.0036378021497980024
47 0.0036378021497980024
48 0.0036378021497980024
49 0.0036378021497980024
50 0.0036378021497980024
51 0.0036378021497980024
52 0.0036378021497980024
53 0.0036378021497980024
54 0.0036378021497980024
55 0.0036378021497980024
56 0.0036378021497980024
57 0.0036378021497980024
58 0.0036378021497980024
59 0.0036378021497980024
60 0.0036378021497980024
61 0.004085147789114906
62 0.004085147789114906
63 0.004085147789114906
64 0.004085147789114906
65 0.004085147789114906
66 0.004085147789114906
67 0.004085147789114906
68 0.004085147789114906
69 0.004085147789114906
70 0.0033323939411293683
71 0.0033323939411293683
72 0.0033323939411293683
73 0.0033323939411293683
74 0.0033323939411293683
75 0.0033323939411293683
76 0.0033323939411293683
77 0.0033323939411293683
78 0.004085147789114906
79 0.004085147789114906
80 0.004085147789114906
81 0.004085147789114906
82 0.004085147789114906
83 0.004085147789114906
84 0.004085147789114906
85 0.004085147789114906
86 0.004085147789114906
87 0.0033323939411293683
88 0.0033323939411293683
89 0.0033323939411293683
90 0.0033323939411293683
91 0.0033323939411293683
92 0.0033323939411293683
93 0.0033323939411293683
94 0.0033323939411293683
95 0.004085147789114906
96 0.004085147789114906
97 0.004085147789114906
98 0.004085147789114906
99 0.004085147789114906
100 0.004085147789114906
101 0.004085147789114906
102 0.004085147789114906
103 0.004085147789114906
104 0.0033323939411293683
105 0.0033323939411293683
106 0.0033323939411293683
107 0.0033323939411293683
108 0.0033323939411293683
109 0.0033323939411293683
110 0.0033323939411293683
111 0.0033323939411293683
112 0.004085147789114906
113 0.004085147789114906
114 0.004085147789114906
115 0.004085147789114906
116 0.004085147789114906
117 0.004085147789114906
118 0.004085147789114906
119 0.004085147789114906
120 0.004085147789114906
121 0.0033323939411293683
122 0.0033323939411293683
123 0.0033323939411293683
124 0.0033323939411293683
125 0.0033323939411293683
126 0.0033323939411293683
127 0.0033323939411293683
128 0.0033323939411293683
129 0.004085147789114906
130 0.004085147789114906
131 0.004085147789114906
132 0.004085147789114906
133 0.004085147789114906
134 0.004085147789114906
135 0.004085147789114906
136 0.004085147789114906
137 0.004085147789114906
138 0.0033323939411293683
139 0.0033323939411293683
140 0.0033323939411293683
141 0.0033323939411293683
142 0.0033323939411293683
143 0.0033323939411293683
144 0.0033323939411293683
145 0.0033323939411293683
$EndElementData
$ElementData
1
"Attribute:ShearAreaZ"
1
0
3
0
1
145
1 0.010960784313725488
2 0.010960784313725488
3 0.010960784313725488
4 0.010960784313725488
5 0.010960784313725488
6 0.010960784313725488
7 0.010960784313725488
8 0.010960784313725488
9 0.010960784313725488
10 0.010960784313725488
11 0.010960784313725488
12 0.010960784313725488
13 0.010960784313725488
14 0.010960784313725488
15 0.010960784313725488
16 0.010960784313725488
17 0.010960784313725488
18 0.010960784313725488
19 0.010960784313725488
20 0.010960784313725488
21 0.010960784313725488
22 0.010960784313725488
23 0.010960784313725488
24 0.010960784313725488
25 0.010960784313725488
26 0.010960784313725488
27 0.010960784313725488
28 0.010960784313725488
29 0.010960784313725488
30 0.010960784313725488
31 0.010960784313725488
32 0.010960784313725488
33 0.010960784313725488
34 0.010960784313725488
35 0.010960784313725488
36 0.010960784313725488
37 0.010960784313725488
38 0.010960784313725488
39 0.010960784313725488
40 0.010960784313725488
41 0.010960784313725488
42 0.010960784313725488
43 0.010960784313725488
44 0.010960784313725488
45 0.010960784313725488
46 0.010960784313725488
47 0.010960784313725488
48 0.010960784313725488
49 0.010960784313725488
50 0.010960784313725488
51 0.010960784313725488
52 0.010960784313725488
53 0.010960784313725488
54 0.010960784313725488
55 0.010960784313725488
56 0.010960784313725488
57 0.010960784313725488
58 0.010960784313725488
59 0.010960784313725488
60 0.010960784313725488
61 0.004713986928104576
62 0.004713986928104576
63 0.004713986928104576
64 0.004713986928104576
65 0.004713986928104576
66 0.004713986928104576
67 0.004713986928104576
68 0.004713986928104576
69 0.004713986928104576
70 0.0041294117647058814
71 0.0041294117647058814
72 0.0041294117647058814
73 0.0041294117647058814
74 0.0041294117647058814
75 0.0041294117647058814
76 0.0041294117647058814
77 0.0041294117647058814
78 0.004713986928104576
79 0.004713986928104576
80 0.004713986928104576
81 0.004713986928104576
82 0.004713986928104576
83 0.004713986928104576
84 0.004713986928104576
85 0.004713986928104576
86 0.004713986928104576
87 0.0041294117647058814
88 0.0041294117647058814
89 0.0041294117647058814
90 0.0041294117647058814
91 0.0041294117647058814
92 0.0041294117647058814
93 0.0041294117647058814
94 0.0041294117647058814
95 0.004713986928104576
96 0.004713986928104576
97 0.004713986928104576
98 0.004713986928104576
99 0.004713986928104576
100 0.004713986928104576
101 0.004713986928104576
102 0.004713986928104576
103 0.004713986928104576
104 0.0041294117647058814
105 0.0041294117647058814
106 0.0041294117647058814
107 0.0041294117647058814
108 0.0041294117647058814
109 0.0041294117647058814
110 0.0041294117647058814
111 0.0041294117647058814
112 0.004713986928104576
113 0.004713986928104576
114 0.004713986928104576
115 0.004713986928104576
116 0.004713986928104576
117 0.004713986928104576
118 0.004713986928104576
119 0.004713986928104576
120 0.004713986928104576
121 0.0041294117647058814
122 0.0041294117647058814
123 0.0041294117647058814
124 0.0041294117647058814
125 0.0041294117647058814
126 0.0041294117647058814
127 0.0041294117647058814
128 0.0041294117647058814
129 0.004713986928104576
130 0.004713986928104576
131 0.004713986928104576
132 0.004713986928104576
133 0.004713986928104576
134 0.004713986928104576
135 0.004713986928104576
136 0.004713986928104576
137 0.004713986928104576
138 0.0041294117647058814
139 0.0041294117647058814
140 0.0041294117647058814
141 0.0041294117647058814
142 0.0041294117647058814
143 0.0041294117647058814
144 0.0041294117647058814
145 0.0041294117647058814
$EndElementData
$ElementData
1
"Attribute:TorsionConstant"
1
0
3
0
1
145
1 2.572042615203522e-06
2 2.572042615203522e-06
3 2.572042615203522e-06
4 2.572042615203522e-06
5 2.572042615203522e-06
6 2.572042615203522e-06
7 2.572042615203522e-06
8 2.572042615203522e-06
9 2.572042615203522e-06
10 2.572042615203522e-06
11 2.572042615203522e-06
12 2.572042615203522e-06
13 2.572042615203522e-06
14 2.572042615203522e-06
15 2.572042615203522e-06
16 2.572042615203522e-06
17 2.572042615203522e-06
18 2.572042615203522e-06
19 2.572042615203522e-06
20 2.572042615203522e-06
21 2.572042615203522e-06
22 2.572042615203522e-06
23 2.572042615203522e-06
24 2.572042615203522e-06
25 2.572042615203522e-06
26 2.572042615203522e-06
27 2.572042615203522e-06
28 2.572042615203522e-06
29 2.572042615203522e-06
30 2.572042615203522e-06
31 2.572042615203522e-06
32 2.572042615203522e-06
33 2.572042615203522e-06
34 2.572042615203522e-06
35 2.572042615203522e-06
36 2.572042615203522e-06
37 2.572042615203522e-06
38 2.572042615203522e-06
39 2.572042615203522e-06
40 2.572042615203522e-06
41 2.572042615203522e-06
42 2.572042615203522e-06
43 2.572042615203522e-06
44 2.572042615203522e-06
45 2.572042615203522e-06
46 2.572042615203522e-06
47 2.572042615203522e-06
48 2.572042615203522e-06
49 2.572042615203522e-06
50 2.572042615203522e-06
51 2.572042615203522e-06
52 2.572042615203522e-06
53 2.572042615203522e-06
54 2.572042615203522e-06
55 2.572042615203522e-06
56 2.572042615203522e-06
57 2.572042615203522e-06
58 2.572042615203522e-06
59 2.572042615203522e-06
60 2.572042615203522e-06
61 6.687398699522672e-07
62 6.687398699522672e-07
63 6.687398699522672e-07
64 6.687398699522672e-07
65 6.687398699522672e-07
66 6.687398699522672e-07
67 6.687398699522672e-07
68 6.687398699522672e-07
69 6.687398699522672e-07
70 5.107547221208023e-07
71 5.107547221208023e-07
72 5.107547221208023e-07
73 5.107547221208023e-07
74 5.107547221208023e-07
75 5.107547221208023e-07
76 5.107547221208023e-07
77 5.107547221208023e-07
78 6.687398699522672e-07
79 6.687398699522672e-07
80 6.687398699522672e-07
81 6.687398699522672e-07
82 6.687398699522672e-07
83 6.687398699522672e-07
84 6.687398699522672e-07
85 6.687398699522672e-07
86 6.687398699522672e-07
87 5.107547221208023e-07
88 5.107547221208023e-07
89 5.107547221208023e-07
90 5.107547221208023e-07
91 5.107547221208023e-07
92 5.107547221208023e-07
93 5.107547221208023e-07
94 5.107547221208023e-07
95 6.687398699522672e-07
96 6.687398699522672e-07
97 6.687398699522672e-07
98 6.687398699522672e-07
99 6.687398699522672e-07
100 6.687398699522672e-07
101 6.687398699522672e-07
102 6.687398699522672e-07
103 6.687398699522672e-07
104 5.107547221208023e-07
105 5.107547221208023e-07
106 5.107547221208023e-07
107 5.107547221208023e-07
108 5.107547221208023e-07
109 5.107547221208023e-07
110 5.107547221208023e-07
111 5.107547221208023e-07
112 6.687398699522672e-07
113 6.687398699522672e-07
114 6.687398699522672e-07
115 6.687398699522672e-07
116 6.687398699522672e-07
117 6.687398699522672e-07
118 6.687398699522672e-07
119 6.687398699522672e-07
120 6.687398699522672e-07
121 5.107547221208023e-07
122 5.107547221208023e-07
123 5.107547221208023e-07
124 5.107547221208023e-07
125 5.107547221208023e-07
126 5.107547221208023e-07
127 5.107547221208023e-07
128 5.107547221208023e-07
129 6.687398699522672e-07
130 6.687398699522672e-07
131 6.687398699522672e-07
132 6.687398699522672e-07
133 6.687398699522672e-07
134 6.687398699522672e-07
135 6.687398699522672e-07
136 6.687398699522672e-07
137 6.687398699522672e-07
138 5.107547221208023e-07
139 5.107547221208023e-07
140 5.107547221208023e-07
141 5.107547221208023e-07
142 5.107547221208023e-07
143 5.107547221208023e-07
144 5.107547221208023e-07
145 5.107547221208023e-07
$EndElementData
$ElementData
1
"Attribute:UniformLoadGlobalX"
1
0
3
0
1
145
1 0
2 0
3 0
4 0
5 0
6 0
7 0
8 0
9 0
10 0
11 0
12 0
13 0
14 0
15 0
16 0
17 0
18 0
19 0
20 0
21 0
22 0
23 0
24 0
25 0
26 0
27 0
28 0
29 0
30 0
31 0
32 0
33 0
34 0
35 0
36 0
37 0
38 0
39 0
40 0
41 0
42 0
43 0
44 0
45 0
46 0
47 0
48 0
49 0
50 0
51 0
52 0
53 0
54 0
55 0
56 0
57 0
58 0
59 0
60 0
61 0
62 0
63 0
64 0
65 0
66 0
67 0
68 0
69 0
70 0
71 0
72 0
73 0
74 0
75 0
76 0
77 0
78 0
79 0
80 0
81 0
82 0
83 0
84 0
85 0
86 0
87 0
88 0
89 0
90 0
91 0
92 0
93 0
94 0
95 0
96 0
97 0
98 0
99 0
100 0
101 0
102 0
103 0
104 0
105 0
106 0
107 0
108 0
109 0
110 0
111 0
112 0
113 0
114 0
115 0
116 0
117 0
118 0
119 0
120 0
121 0
122 0
123 0
124 0
125 0
126 0
127 0
128 0
129 0
130 0
131 0
132 0
133 0
134 0
135 0
136 0
137 0
138 0
139 0
140 0
141 0
142 0
143 0
144 0
145 0
$EndElementData
$ElementData
1
"Attribute:UniformLoadGlobalY"
1
0
3
0
1
145
1 0
2 0
3 0
4 0
5 0
6 0
7 0
8 0
9 0
10 0
11 0
12 0
13 0
14 0
15 0
16 0
17 0
18 0
19 0
20 0
21 0
22 0
23 0
24 0
25 0
26 0
27 0
28 0
29 0
30 0
31 0
32 0
33 0
34 0
35 0
36 0
37 0
38 0
39 0
40 0
41 0
42 0
43 0
44 0
45 0
46 0
47 0
48 0
49 0
50 0
51 0
52 0
53 0
54 0
55 0
56 0
57 0
58 0
59 0
60 0
61 -24000
62 -24000
63 -24000
64 -24000
65 -24000
66 -24000
67 -24000
68 -24000
69 -24000
70 -8000
71 -8000
72 -8000
73 -8000
74 -8000
75 -8000
76 -8000
77 -8000
78 -24000
79 -24000
80 -24000
81 -24000
82 -24000
83 -24000
84 -24000
85 -24000
86 -24000
87 -8000
88 -8000
89 -8000
90 -8000
91 -8000
92 -8000
93 -8000
94 -8000
95 -24000
96 -24000
97 -24000
98 -24000
99 -24000
100 -24000
101 -24000
102 -24000
103 -24000
104 -8000
105 -8000
106 -8000
107 -8000
108 -8000
109 -8000
110 -8000
111 -8000
112 -24000
113 -24000
114 -24000
115 -24000
116 -24000
117 -24000
118 -24000
119 -24000
120 -24000
121 -8000
122 -8000
123 -8000
124 -8000
125 -8000
126 -8000
127 -8000
128 -8000
129 -24000
130 -24000
131 -24000
132 -24000
133 -24000
134 -24000
135 -24000
136 -24000
137 -24000
138 -8000
139 -8000
140 -8000
141 -8000
142 -8000
143 -8000
144 -8000
145 -8000
$EndElementData
$ElementData
1
"Attribute:UniformLoadGlobalZ"
1
0
3
0
1
145
1 0
2 0
3 0
4 0
5 0
6 0
7 0
8 0
9 0
10 0
11 0
12 0
13 0
14 0
15 0
16 0
17 0
18 0
19 0
20 0
21 0
22 0
23 0
24 0
25 0
26 0
27 0
28 0
29 0
30 0
31 0
32 0
33 0
34 0
35 0
36 0
37 0
38 0
39 0
40 0
41 0
42 0
43 0
44 0
45 0
46 0
47 0
48 0
49 0
50 0
51 0
52 0
53 0
54 0
55 0
56 0
57 0
58 0
59 0
60 0
61 0
62 0
63 0
64 0
65 0
66 0
67 0
68 0
69 0
70 0
71 0
72 0
73 0
74 0
75 0
76 0
77 0
78 0
79 0
80 0
81 0
82 0
83 0
84 0
85 0
86 0
87 0
88 0
89 0
90 0
91 0
92 0
93 0
94 0
95 0
96 0
97 0
98 0
99 0
100 0
101 0
102 0
103 0
104 0
105 0
106 0
107 0
108 0
109 0
110 0
111 0
112 0
113 0
114 0
115 0
116 0
117 0
118 0
119 0
120 0
121 0
122 0
123 0
124 0
125 0
126 0
127 0
128 0
129 0
130 0
131 0
132 0
133 0
134 0
135 0
136 0
137 0
138 0
139 0
140 0
141 0
142 0
143 0
144 0
145 0
$EndElementData
$ElementData
1
"Attribute:UniformLoadLocalX"
1
0
3
0
1
145
1 0
2 0
3 0
4 0
5 0
6 0
7 0
8 0
9 0
10 0
11 0
12 0
13 0
14 0
15 0
16 0
17 0
18 0
19 0
20 0
21 0
22 0
23 0
24 0
25 0
26 0
27 0
28 0
29 0
30 0
31 0
32 0
33 0
34 0
35 0
36 0
37 0
38 0
39 0
40 0
41 0
42 0
43 0
44 0
45 0
46 0
47 0
48 0
49 0
50 0
51 0
52 0
53 0
54 0
55 0
56 0
57 0
58 0
59 0
60 0
61 0
62 0
63 0
64 0
65 0
66 0
67 0
68 0
69 0
70 0
71 0
72 0
73 0
74 0
75 0
76 0
77 0
78 0
79 0
80 0
81 0
82 0
83 0
84 0
85 0
86 0
87 0
88 0
89 0
90 0
91 0
92 0
93 0
94 0
95 0
96 0
97 0
98 0
99 0
100 0
101 0
102 0
103 0
104 0
105 0
106 0
107 0
108 0
109 0
110 0
111 0
112 0
113 0
114 0
115 0
116 0
117 0
118 0
119 0
120 0
121 0
122 0
123 0
124 0
125 0
126 0
127 0
128 0
129 0
130 0
131 0
132 0
133 0
134 0
135 0
136 0
137 0
138 0
139 0
140 0
141 0
142 0
143 0
144 0
145 0
$EndElementData
$ElementData
1
"Attribute:UniformLoadLocalY"
1
0
3
0
1
145
1 0
2 0
3 0
4 0
5 0
6 0
7 0
8 0
9 0
10 0
11 0
12 0
13 0
14 0
15 0
16 0
17 0
18 0
19 0
20 0
21 0
22 0
23 0
24 0
25 0
26 0
27 0
28 0
29 0
30 0
31 0
32 0
33 0
34 0
35 0
36 0
37 0
38 0
39 0
40 0
41 0
42 0
43 0
44 0
45 0
46 0
47 0
48 0
49 0
50 0
51 0
52 0
53 0
54 0
55 0
56 0
57 0
58 0
59 0
60 0
61 0
62 0
63 0
64 0
65 0
66 0
67 0
68 0
69 0
70 0
71 0
72 0
73 0
74 0
75 0
76 0
77 0
78 0
79 0
80 0
81 0
82 0
83 0
84 0
85 0
86 0
87 0
88 0
89 0
90 0
91 0
92 0
93 0
94 0
95 0
96 0
97 0
98 0
99 0
100 0
101 0
102 0
103 0
104 0
105 0
106 0
107 0
108 0
109 0
110 0
111 0
112 0
113 0
114 0
115 0
116 0
117 0
118 0
119 0
120 0
121 0
122 0
123 0
124 0
125 0
126 0
127 0
128 0
129 0
130 0
131 0
132 0
133 0
134 0
135 0
136 0
137 0
138 0
139 0
140 0
141 0
142 0
143 0
144 0
145 0
$EndElementData
$ElementData
1
"Attribute:UniformLoadLocalZ"
1
0
3
0
1
145
1 0
2 0
3 0
4 0
5 0
6 0
7 0
8 0
9 0
10 0
11 0
12 0
13 0
14 0
15 0
16 0
17 0
18 0
19 0
20 0
21 0
22 0
23 0
24 0
25 0
26 0
27 0
28 0
29 0
30 0
31 0
32 0
33 0
34 0
35 0
36 0
37 0
38 0
39 0
40 0
41 0
42 0
43 0
44 0
45 0
46 0
47 0
48 0
49 0
50 0
51 0
52 0
53 0
54 0
55 0
56 0
57 0
58 0
59 0
60 0
61 0
62 0
63 0
64 0
65 0
66 0
67 0
68 0
69 0
70 0
71 0
72 0
73 0
74 0
75 0
76 0
77 0
78 0
79 0
80 0
81 0
82 0
83 0
84 0
85 0
86 0
87 0
88 0
89 0
90 0
91 0
92 0
93 0
94 0
95 0
96 0
97 0
98 0
99 0
100 0
101 0
102 0
103 0
104 0
105 0
106 0
107 0
108 0
109 0
110 0
111 0
112 0
113 0
114 0
115 0
116 0
117 0
118 0
119 0
120 0
121 0
122 0
123 0
124 0
125 0
126 0
127 0
128 0
129 0
130 0
131 0
132 0
133 0
134 0
135 0
136 0
137 0
138 0
139 0
140 0
141 0
142 0
143 0
144 0
145 0
$EndElementData
$ElementData
1
"BeamOrientation"
1
0
3
0
3
145
1 1 0 0
2 1 0 0
3 1 0 0
4 1 0 0
5 1 0 0
6 1 0 0
7 1 0 0
8 1 0 0
9 1 0 0
10 1 0 0
11 1 0 0
12 1 0 0
13 1 0 0
14 1 0 0
15 1 0 0
16 1 0 0
17 1 0 0
18 1 0 0
19 1 0 0
20 1 0 0
21 1 0 0
22 1 0 0
23 1 0 0
24 1 0 0
25 1 0 0
26 1 0 0
27 1 0 0
28 1 0 0
29 1 0 0
30 1 0 0
31 1 0 0
32 1 0 0
33 1 0 0
34 1 0 0
35 1 0 0
36 1 0 0
37 1 0 0
38 1 0 0
39 1 0 0
40 1 0 0
41 1 0 0
42 1 0 0
43 1 0 0
44 1 0 0
45 1 0 0
46 1 0 0
47 1 0 0
48 1 0 0
49 1 0 0
50 1 0 0
51 1 0 0
52 1 0 0
53 1 0 0
54 1 0 0
55 1 0 0
56 1 0 0
57 1 0 0
58 1 0 0
59 1 0 0
60 1 0 0
61 0 0 0
62 0 0 0
63 0 0 0
64 0 0 0
65 0 0 0
66 0 0 0
67 0 0 0
68 0 0 0
69 0 0 0
70 0 0 0
71 0 0 0
72 0 0 0
73 0 0 0
74 0 0 0
75 0 0 0
76 0 0 0
77 0 0 0
78 0 0 0
79 0 0 0
80 0 0 0
81 0 0 0
82 0 0 0
83 0 0 0
84 0 0 0
85 0 0 0
86 0 0 0
87 0 0 0
88 0 0 0
89 0 0 0
90 0 0 0
91 0 0 0
92 0 0 0
93 0 0 0
94 0 0 0
95 0 0 0
96 0 0 0
97 0 0 0
98 0 0 0
99 0 0 0
100 0 0 0
101 0 0 0
102 0 0 0
103 0 0 0
104 0 0 0
105 0 0 0
106 0 0 0
107 0 0 0
108 0 0 0
109 0 0 0
110 0 0 0
111 0 0 0
112 0 0 0
113 0 0 0
114 0 0 0
115 0 0 0
116 0 0 0
117 0 0 0
118 0 0 0
119 0 0 0
120 0 0 0
121 0 0 0
122 0 0 0
123 0 0 0
124 0 0 0
125 0 0 0
126 0 0 0
127 0 0 0
128 0 0 0
129 0 0 0
130 0 0 0
131 0 0 0
132 0 0 0
133 0 0 0
134 0 0 0
135 0 0 0
136 0 0 0
137 0 0 0
138 0 0 0
139 0 0 0
140 0 0 0
141 0 0 0
142 0 0 0
143 0 0 0
144 0 0 0
145 0 0 0
$EndElementData
$AnafData
1
1
GLOBAL 3 1
"Gravity"
0 -9.80665 0
$EndAnafData
