$MeshFormat
4.1 0 8
$EndMeshFormat
$PhysicalNames
3
1 1 "Material:Structural Steel S235 (EN 10025)"
1 2 "Section:IPE 300"
1 3 "Section:HEB 200"
$EndPhysicalNames
$Entities
0 2 0 0
1 0 0 0 10 7 10 2 1 3 0
2 0 3.5 0 10 7 10 2 1 2 0
$EndEntities
$Nodes
1 27 1 27
1 1 0 27
1
2
3
4
5
6
7
8
9
10
11
12
13
14
15
16
17
18
19
20
21
22
23
24
25
26
27
0 0 0
5 0 0
10 0 0
0 0 5
5 0 5
10 0 5
0 0 10
5 0 10
10 0 10
0 3.5 0
5 3.5 0
10 3.5 0
0 3.5 5
5 3.5 5
10 3.5 5
0 3.5 10
5 3.5 10
10 3.5 10
0 7 0
5 7 0
10 7 0
0 7 5
5 7 5
10 7 5
0 7 10
5 7 10
10 7 10
$EndNodes
$Elements
2 42 1 42
1 1 1 18
1 1 10
2 10 19
3 2 11
4 11 20
5 3 12
6 12 21
7 4 13
8 13 22
9 5 14
10 14 23
11 6 15
12 15 24
13 7 16
14 16 25
15 8 17
16 17 26
17 9 18
18 18 27
1 2 1 24
19 10 11
20 11 12
21 13 14
22 14 15
23 16 17
24 17 18
25 10 13
26 13 16
27 11 14
28 14 17
29 12 15
30 15 18
31 19 20
32 20 21
33 22 23
34 23 24
35 25 26
36 26 27
37 19 22
38 22 25
39 20 23
40 23 26
41 21 24
42 24 27
$EndElements
$NodeData
1
"Fixity"
1
0
3
0
3
27
1 1 1 1
2 1 1 1
3 1 1 1
4 1 1 1
5 1 1 1
6 1 1 1
7 1 1 1
8 1 1 1
9 1 1 1
10 0 0 0
11 0 0 0
12 0 0 0
13 0 0 0
14 0 0 0
15 0 0 0
16 0 0 0
17 0 0 0
18 0 0 0
19 0 0 0
20 0 0 0
21 0 0 0
22 0 0 0
23 0 0 0
24 0 0 0
25 0 0 0
26 0 0 0
27 0 0 0
$EndNodeData
$NodeData
1
"FixityRotation"
1
0
3
0
3
27
1 1 1 1
2 1 1 1
3 1 1 1
4 1 1 1
5 1 1 1
6 1 1 1
7 1 1 1
8 1 1 1
9 1 1 1
10 0 0 0
11 0 0 0
12 0 0 0
13 0 0 0
14 0 0 0
15 0 0 0
16 0 0 0
17 0 0 0
18 0 0 0
19 0 0 0
20 0 0 0
21 0 0 0
22 0 0 0
23 0 0 0
24 0 0 0
25 0 0 0
26 0 0 0
27 0 0 0
$EndNodeData
$ElementData
1
"CrossSectionArea"
1
0
3
0
1
42
1 0.007808123980236907
2 0.007808123980236907
3 0.007808123980236907
4 0.007808123980236907
5 0.007808123980236907
6 0.007808123980236907
7 0.007808123980236907
8 0.007808123980236907
9 0.007808123980236907
10 0.007808123980236907
11 0.007808123980236907
12 0.007808123980236907
13 0.007808123980236907
14 0.007808123980236907
15 0.007808123980236907
16 0.007808123980236907
17 0.007808123980236907
18 0.007808123980236907
19 0.005381201652942294
20 0.005381201652942294
21 0.005381201652942294
22 0.005381201652942294
23 0.005381201652942294
24 0.005381201652942294
25 0.005381201652942294
26 0.005381201652942294
27 0.005381201652942294
28 0.005381201652942294
29 0.005381201652942294
30 0.005381201652942294
31 0.005381201652942294
32 0.005381201652942294
33 0.005381201652942294
34 0.005381201652942294
35 0.005381201652942294
36 0.005381201652942294
37 0.005381201652942294
38 0.005381201652942294
39 0.005381201652942294
40 0.005381201652942294
41 0.005381201652942294
42 0.005381201652942294
$EndElementData
$ElementData
1
"Attribute:ElementFormulation"
1
0
3
0
1
42
1 1
2 1
3 1
4 1
5 1
6 1
7 1
8 1
9 1
10 1
11 1
12 1
13 1
14 1
15 1
16 1
17 1
18 1
19 1
20 1
21 1
22 1
23 1
24 1
25 1
26 1
27 1
28 1
29 1
30 1
31 1
32 1
33 1
34 1
35 1
36 1
37 1
38 1
39 1
40 1
41 1
42 1
$EndElementData
$ElementData
1
"MaterialID"
1
0
3
0
1
42
1 2
2 2
3 2
4 2
5 2
6 2
7 2
8 2
9 2
10 2
11 2
12 2
13 2
14 2
15 2
16 2
17 2
18 2
19 2
20 2
21 2
22 2
23 2
24 2
25 2
26 2
27 2
28 2
29 2
30 2
31 2
32 2
33 2
34 2
35 2
36 2
37 2
38 2
39 2
40 2
41 2
42 2
$EndElementData
$ElementData
1
"Attribute:SecondMomentY"
1
0
3
0
1
42
1 2.003368780739412e-05
2 2.003368780739412e-05
3 2.003368780739412e-05
4 2.003368780739412e-05
5 2.003368780739412e-05
6 2.003368780739412e-05
7 2.003368780739412e-05
8 2.003368780739412e-05
9 2.003368780739412e-05
10 2.003368780739412e-05
11 2.003368780739412e-05
12 2.003368780739412e-05
13 2.003368780739412e-05
14 2.003368780739412e-05
15 2.003368780739412e-05
16 2.003368780739412e-05
17 2.003368780739412e-05
18 2.003368780739412e-05
19 6.037784243992912e-06
20 6.037784243992912e-06
21 6.037784243992912e-06
22 6.037784243992912e-06
23 6.037784243992912e-06
24 6.037784243992912e-06
25 6.037784243992912e-06
26 6.037784243992912e-06
27 6.037784243992912e-06
28 6.037784243992912e-06
29 6.037784243992912e-06
30 6.037784243992912e-06
31 6.037784243992912e-06
32 6.037784243992912e-06
33 6.037784243992912e-06
34 6.037784243992912e-06
35 6.037784243992912e-06
36 6.037784243992912e-06
37 6.037784243992912e-06
38 6.037784243992912e-06
39 6.037784243992912e-06
40 6.037784243992912e-06
41 6.037784243992912e-06
42 6.037784243992912e-06
$EndElementData
$ElementData
1
"Attribute:SecondMomentZ"
1
0
3
0
1
42
1 5.696176058968268e-05
2 5.696176058968268e-05
3 5.696176058968268e-05
4 5.696176058968268e-05
5 5.696176058968268e-05
6 5.696176058968268e-05
7 5.696176058968268e-05
8 5.696176058968268e-05
9 5.696176058968268e-05
10 5.696176058968268e-05
11 5.696176058968268e-05
12 5.696176058968268e-05
13 5.696176058968268e-05
14 5.696176058968268e-05
15 5.696176058968268e-05
16 5.696176058968268e-05
17 5.696176058968268e-05
18 5.696176058968268e-05
19 8.356109185847977e-05
20 8.356109185847977e-05
21 8.356109185847977e-05
22 8.356109185847977e-05
23 8.356109185847977e-05
24 8.356109185847977e-05
25 8.356109185847977e-05
26 8.356109185847977e-05
27 8.356109185847977e-05
28 8.356109185847977e-05
29 8.356109185847977e-05
30 8.356109185847977e-05
31 8.356109185847977e-05
32 8.356109185847977e-05
33 8.356109185847977e-05
34 8.356109185847977e-05
35 8.356109185847977e-05
36 8.356109185847977e-05
37 8.356109185847977e-05
38 8.356109185847977e-05
39 8.356109185847977e-05
40 8.356109185847977e-05
41 8.356109185847977e-05
42 8.356109185847977e-05
$EndElementData
$ElementData
1
"Attribute:SectionDimension1"
1
0
3
0
1
42
1 0.2
2 0.2
3 0.2
4 0.2
5 0.2
6 0.2
7 0.2
8 0.2
9 0.2
10 0.2
11 0.2
12 0.2
13 0.2
14 0.2
15 0.2
16 0.2
17 0.2
18 0.2
19 0.3
20 0.3
21 0.3
22 0.3
23 0.3
24 0.3
25 0.3
26 0.3
27 0.3
28 0.3
29 0.3
30 0.3
31 0.3
32 0.3
33 0.3
34 0.3
35 0.3
36 0.3
37 0.3
38 0.3
39 0.3
40 0.3
41 0.3
42 0.3
$EndElementData
$ElementData
1
"Attribute:SectionDimension2"
1
0
3
0
1
42
1 0.2
2 0.2
3 0.2
4 0.2
5 0.2
6 0.2
7 0.2
8 0.2
9 0.2
10 0.2
11 0.2
12 0.2
13 0.2
14 0.2
15 0.2
16 0.2
17 0.2
18 0.2
19 0.15
20 0.15
21 0.15
22 0.15
23 0.15
24 0.15
25 0.15
26 0.15
27 0.15
28 0.15
29 0.15
30 0.15
31 0.15
32 0.15
33 0.15
34 0.15
35 0.15
36 0.15
37 0.15
38 0.15
39 0.15
40 0.15
41 0.15
42 0.15
$EndElementData
$ElementData
1
"Attribute:SectionDimension3"
1
0
3
0
1
42
1 0.009
2 0.009
3 0.009
4 0.009
5 0.009
6 0.009
7 0.009
8 0.009
9 0.009
10 0.009
11 0.009
12 0.009
13 0.009
14 0.009
15 0.009
16 0.009
17 0.009
18 0.009
19 0.0071
20 0.0071
21 0.0071
22 0.0071
23 0.0071
24 0.0071
25 0.0071
26 0.0071
27 0.0071
28 0.0071
29 0.0071
30 0.0071
31 0.0071
32 0.0071
33 0.0071
34 0.0071
35 0.0071
36 0.0071
37 0.0071
38 0.0071
39 0.0071
40 0.0071
41 0.0071
42 0.0071
$EndElementData
$ElementData
1
"Attribute:SectionDimension4"
1
0
3
0
1
42
1 0.015
2 0.015
3 0.015
4 0.015
5 0.015
6 0.015
7 0.015
8 0.015
9 0.015
10 0.015
11 0.015
12 0.015
13 0.015
14 0.015
15 0.015
16 0.015
17 0.015
18 0.015
19 0.0107
20 0.0107
21 0.0107
22 0.0107
23 0.0107
24 0.0107
25 0.0107
26 0.0107
27 0.0107
28 0.0107
29 0.0107
30 0.0107
31 0.0107
32 0.0107
33 0.0107
34 0.0107
35 0.0107
36 0.0107
37 0.0107
38 0.0107
39 0.0107
40 0.0107
41 0.0107
42 0.0107
$EndElementData
$ElementData
1
"Attribute:SectionDimension5"
1
0
3
0
1
42
1 0.018
2 0.018
3 0.018
4 0.018
5 0.018
6 0.018
7 0.018
8 0.018
9 0.018
10 0.018
11 0.018
12 0.018
13 0.018
14 0.018
15 0.018
16 0.018
17 0.018
18 0.018
19 0.015
20 0.015
21 0.015
22 0.015
23 0.015
24 0.015
25 0.015
26 0.015
27 0.015
28 0.015
29 0.015
30 0.015
31 0.015
32 0.015
33 0.015
34 0.015
35 0.015
36 0.015
37 0.015
38 0.015
39 0.015
40 0.015
41 0.015
42 0.015
$EndElementData
$ElementData
1
"Attribute:SectionShape"
1
0
3
0
1
42
1 5
2 5
3 5
4 5
5 5
6 5
7 5
8 5
9 5
10 5
11 5
12 5
13 5
14 5
15 5
16 5
17 5
18 5
19 5
20 5
21 5
22 5
23 5
24 5
25 5
26 5
27 5
28 5
29 5
30 5
31 5
32 5
33 5
34 5
35 5
36 5
37 5
38 5
39 5
40 5
41 5
42 5
$EndElementData
$ElementData
1
"Attribute:ShearAreaY"
1
0
3
0
1
42
1 0.001550509310155028
2 0.001550509310155028
3 0.001550509310155028
4 0.001550509310155028
5 0.001550509310155028
6 0.001550509310155028
7 0.001550509310155028
8 0.001550509310155028
9 0.001550509310155028
10 0.001550509310155028
11 0.001550509310155028
12 0.001550509310155028
13 0.001550509310155028
14 0.001550509310155028
15 0.001550509310155028
16 0.001550509310155028
17 0.001550509310155028
18 0.001550509310155028
19 0.0020268632069733684
20 0.0020268632069733684
21 0.0020268632069733684
22 0.0020268632069733684
23 0.0020268632069733684
24 0.0020268632069733684
25 0.0020268632069733684
26 0.0020268632069733684
27 0.0020268632069733684
28 0.0020268632069733684
29 0.0020268632069733684
30 0.0020268632069733684
31 0.0020268632069733684
32 0.0020268632069733684
33 0.0020268632069733684
34 0.0020268632069733684
35 0.0020268632069733684
36 0.0020268632069733684
37 0.0020268632069733684
38 0.0020268632069733684
39 0.0020268632069733684
40 0.0020268632069733684
41 0.0020268632069733684
42 0.0020268632069733684
$EndElementData
$ElementData
1
"Attribute:ShearAreaZ"
1
0
3
0
1
42
1 0.005098039215686275
2 0.005098039215686275
3 0.005098039215686275
4 0.005098039215686275
5 0.005098039215686275
6 0.005098039215686275
7 0.005098039215686275
8 0.005098039215686275
9 0.005098039215686275
10 0.005098039215686275
11 0.005098039215686275
12 0.005098039215686275
13 0.005098039215686275
14 0.005098039215686275
15 0.005098039215686275
16 0.005098039215686275
17 0.005098039215686275
18 0.005098039215686275
19 0.0027274509803921565
20 0.0027274509803921565
21 0.0027274509803921565
22 0.0027274509803921565
23 0.0027274509803921565
24 0.0027274509803921565
25 0.0027274509803921565
26 0.0027274509803921565
27 0.0027274509803921565
28 0.0027274509803921565
29 0.0027274509803921565
30 0.0027274509803921565
31 0.0027274509803921565
32 0.0027274509803921565
33 0.0027274509803921565
34 0.0027274509803921565
35 0.0027274509803921565
36 0.0027274509803921565
37 0.0027274509803921565
38 0.0027274509803921565
39 0.0027274509803921565
40 0.0027274509803921565
41 0.0027274509803921565
42 0.0027274509803921565
$EndElementData
$ElementData
1
"Attribute:TorsionConstant"
1
0
3
0
1
42
1 5.928112876485943e-07
2 5.928112876485943e-07
3 5.928112876485943e-07
4 5.928112876485943e-07
5 5.928112876485943e-07
6 5.928112876485943e-07
7 5.928112876485943e-07
8 5.928112876485943e-07
9 5.928112876485943e-07
10 5.928112876485943e-07
11 5.928112876485943e-07
12 5.928112876485943e-07
13 5.928112876485943e-07
14 5.928112876485943e-07
15 5.928112876485943e-07
16 5.928112876485943e-07
17 5.928112876485943e-07
18 5.928112876485943e-07
19 2.011849577943933e-07
20 2.011849577943933e-07
21 2.011849577943933e-07
22 2.011849577943933e-07
23 2.011849577943933e-07
24 2.011849577943933e-07
25 2.011849577943933e-07
26 2.011849577943933e-07
27 2.011849577943933e-07
28 2.011849577943933e-07
29 2.011849577943933e-07
30 2.011849577943933e-07
31 2.011849577943933e-07
32 2.011849577943933e-07
33 2.011849577943933e-07
34 2.011849577943933e-07
35 2.011849577943933e-07
36 2.011849577943933e-07
37 2.011849577943933e-07
38 2.011849577943933e-07
39 2.011849577943933e-07
40 2.011849577943933e-07
41 2.011849577943933e-07
42 2.011849577943933e-07
$EndElementData
$ElementData
1
"Attribute:UniformLoadGlobalX"
1
0
3
0
1
42
1 0
2 0
3 0
4 0
5 0
6 0
7 0
8 0
9 0
10 0
11 0
12 0
13 0
14 0
15 0
16 0
17 0
18 0
19 0
20 0
21 0
22 0
23 0
24 0
25 0
26 0
27 0
28 0
29 0
30 0
31 0
32 0
33 0
34 0
35 0
36 0
37 0
38 0
39 0
40 0
41 0
42 0
$EndElementData
$ElementData
1
"Attribute:UniformLoadGlobalY"
1
0
3
0
1
42
1 0
2 0
3 0
4 0
5 0
6 0
7 0
8 0
9 0
10 0
11 0
12 0
13 0
14 0
15 0
16 0
17 0
18 0
19 -12000
20 -12000
21 -12000
22 -12000
23 -12000
24 -12000
25 -6000
26 -6000
27 -6000
28 -6000
29 -6000
30 -6000
31 -12000
32 -12000
33 -12000
34 -12000
35 -12000
36 -12000
37 -6000
38 -6000
39 -6000
40 -6000
41 -6000
42 -6000
$EndElementData
$ElementData
1
"Attribute:UniformLoadGlobalZ"
1
0
3
0
1
42
1 0
2 0
3 0
4 0
5 0
6 0
7 0
8 0
9 0
10 0
11 0
12 0
13 0
14 0
15 0
16 0
17 0
18 0
19 0
20 0
21 0
22 0
23 0
24 0
25 0
26 0
27 0
28 0
29 0
30 0
31 0
32 0
33 0
34 0
35 0
36 0
37 0
38 0
39 0
40 0
41 0
42 0
$EndElementData
$ElementData
1
"Attribute:UniformLoadLocalX"
1
0
3
0
1
42
1 0
2 0
3 0
4 0
5 0
6 0
7 0
8 0
9 0
10 0
11 0
12 0
13 0
14 0
15 0
16 0
17 0
18 0
19 0
20 0
21 0
22 0
23 0
24 0
25 0
26 0
27 0
28 0
29 0
30 0
31 0
32 0
33 0
34 0
35 0
36 0
37 0
38 0
39 0
40 0
41 0
42 0
$EndElementData
$ElementData
1
"Attribute:UniformLoadLocalY"
1
0
3
0
1
42
1 0
2 0
3 0
4 0
5 0
6 0
7 0
8 0
9 0
10 0
11 0
12 0
13 0
14 0
15 0
16 0
17 0
18 0
19 0
20 0
21 0
22 0
23 0
24 0
25 0
26 0
27 0
28 0
29 0
30 0
31 0
32 0
33 0
34 0
35 0
36 0
37 0
38 0
39 0
40 0
41 0
42 0
$EndElementData
$ElementData
1
"Attribute:UniformLoadLocalZ"
1
0
3
0
1
42
1 0
2 0
3 0
4 0
5 0
6 0
7 0
8 0
9 0
10 0
11 0
12 0
13 0
14 0
15 0
16 0
17 0
18 0
19 0
20 0
21 0
22 0
23 0
24 0
25 0
26 0
27 0
28 0
29 0
30 0
31 0
32 0
33 0
34 0
35 0
36 0
37 0
38 0
39 0
40 0
41 0
42 0
$EndElementData
$ElementData
1
"BeamOrientation"
1
0
3
0
3
42
1 1 0 0
2 1 0 0
3 1 0 0
4 1 0 0
5 1 0 0
6 1 0 0
7 1 0 0
8 1 0 0
9 1 0 0
10 1 0 0
11 1 0 0
12 1 0 0
13 1 0 0
14 1 0 0
15 1 0 0
16 1 0 0
17 1 0 0
18 1 0 0
19 0 0 0
20 0 0 0
21 0 0 0
22 0 0 0
23 0 0 0
24 0 0 0
25 0 0 0
26 0 0 0
27 0 0 0
28 0 0 0
29 0 0 0
30 0 0 0
31 0 0 0
32 0 0 0
33 0 0 0
34 0 0 0
35 0 0 0
36 0 0 0
37 0 0 0
38 0 0 0
39 0 0 0
40 0 0 0
41 0 0 0
42 0 0 0
$EndElementData
$AnafData
1
1
GLOBAL 3 1
"Gravity"
0 -9.80665 0
$EndAnafData
