$MeshFormat
4.1 0 8
$EndMeshFormat
$PhysicalNames
5
1 1 "Material:Structural Steel S355 (EN 10025)"
1 2 "Section:IPE 200"
1 3 "Section:IPE 360"
1 4 "Section:HEB 260"
1 5 "Section:CHS 114.3x5"
$EndPhysicalNames
$Entities
0 4 0 0
1 0 0 0 0 4.5 18 2 1 4 0
2 -1.5 4.5 0 5 4.5 18 2 1 3 0
3 -1.5 0 0 0 4.5 18 2 1 5 0
4 5 4.5 0 5 4.5 18 2 1 2 0
$EndEntities
$Nodes
1 16 1 16
1 1 0 16
1
2
3
4
5
6
7
8
9
10
11
12
13
14
15
16
0 0 0
0 4.5 0
5 4.5 0
-1.5 4.5 0
0 0 6
0 4.5 6
5 4.5 6
-1.5 4.5 6
0 0 12
0 4.5 12
5 4.5 12
-1.5 4.5 12
0 0 18
0 4.5 18
5 4.5 18
-1.5 4.5 18
$EndNodes
$Elements
4 19 1 19
1 1 1 4
1 1 2
5 5 6
9 9 10
13 13 14
1 2 1 8
2 2 3
3 4 2
6 6 7
7 8 6
10 10 11
11 12 10
14 14 15
15 16 14
1 3 1 4
4 4 1
8 8 5
12 12 9
16 16 13
1 4 1 3
17 3 7
18 7 11
19 11 15
$EndElements
$NodeData
1
"Fixity"
1
0
3
0
3
16
1 1 1 1
2 0 0 0
3 0 0 0
4 0 0 0
5 1 1 1
6 0 0 0
7 0 0 0
8 0 0 0
9 1 1 1
10 0 0 0
11 0 0 0
12 0 0 0
13 1 1 1
14 0 0 0
15 0 0 0
16 0 0 0
$EndNodeData
$NodeData
1
"FixityRotation"
1
0
3
0
3
16
1 1 1 1
2 0 0 0
3 0 0 0
4 0 0 0
5 1 1 1
6 0 0 0
7 0 0 0
8 0 0 0
9 1 1 1
10 0 0 0
11 0 0 0
12 0 0 0
13 1 1 1
14 0 0 0
15 0 0 0
16 0 0 0
$EndNodeData
$ElementData
1
"CrossSectionArea"
1
0
3
0
1
19
1 0.011844442631532283
2 0.007272923980236907
3 0.007272923980236907
4 0.0017168803851868209
5 0.011844442631532283
6 0.007272923980236907
7 0.007272923980236907
8 0.0017168803851868209
9 0.011844442631532283
10 0.007272923980236907
11 0.007272923980236907
12 0.0017168803851868209
13 0.011844442631532283
14 0.007272923980236907
15 0.007272923980236907
16 0.0017168803851868209
17 0.002848410657883071
18 0.002848410657883071
19 0.002848410657883071
$EndElementData
$ElementData
1
"Attribute:ElementFormulation"
1
0
3
0
1
19
1 1
2 1
3 1
4 1
5 1
6 1
7 1
8 1
9 1
10 1
11 1
12 1
13 1
14 1
15 1
16 1
17 1
18 1
19 1
$EndElementData
$ElementData
1
"MaterialID"
1
0
3
0
1
19
1 3
2 3
3 3
4 3
5 3
6 3
7 3
8 3
9 3
10 3
11 3
12 3
13 3
14 3
15 3
16 3
17 3
18 3
19 3
$EndElementData
$ElementData
1
"Attribute:SecondMomentY"
1
0
3
0
1
19
1 5.1345173325392617e-05
2 1.0434519648833853e-05
3 1.0434519648833853e-05
4 2.569202045307523e-06
5 5.1345173325392617e-05
6 1.0434519648833853e-05
7 1.0434519648833853e-05
8 2.569202045307523e-06
9 5.1345173325392617e-05
10 1.0434519648833853e-05
11 1.0434519648833853e-05
12 2.569202045307523e-06
13 5.1345173325392617e-05
14 1.0434519648833853e-05
15 1.0434519648833853e-05
16 2.569202045307523e-06
17 1.423683272853165e-06
18 1.423683272853165e-06
19 1.423683272853165e-06
$EndElementData
$ElementData
1
"Attribute:SecondMomentZ"
1
0
3
0
1
19
1 0.00014919426787309272
2 0.00016265630920663017
3 0.00016265630920663017
4 2.569202045307523e-06
5 0.00014919426787309272
6 0.00016265630920663017
7 0.00016265630920663017
8 2.569202045307523e-06
9 0.00014919426787309272
10 0.00016265630920663017
11 0.00016265630920663017
12 2.569202045307523e-06
13 0.00014919426787309272
14 0.00016265630920663017
15 0.00016265630920663017
16 2.569202045307523e-06
17 1.9431682510835934e-05
18 1.9431682510835934e-05
19 1.9431682510835934e-05
$EndElementData
$ElementData
1
"Attribute:SectionDimension1"
1
0
3
0
1
19
1 0.26
2 0.36
3 0.36
4 0.1143
5 0.26
6 0.36
7 0.36
8 0.1143
9 0.26
10 0.36
11 0.36
12 0.1143
13 0.26
14 0.36
15 0.36
16 0.1143
17 0.2
18 0.2
19 0.2
$EndElementData
$ElementData
1
"Attribute:SectionDimension2"
1
0
3
0
1
19
1 0.26
2 0.17
3 0.17
4 0.005
5 0.26
6 0.17
7 0.17
8 0.005
9 0.26
10 0.17
11 0.17
12 0.005
13 0.26
14 0.17
15 0.17
16 0.005
17 0.1
18 0.1
19 0.1
$EndElementData
$ElementData
1
"Attribute:SectionDimension3"
1
0
3
0
1
19
1 0.01
2 0.008
3 0.008
4 0
5 0.01
6 0.008
7 0.008
8 0
9 0.01
10 0.008
11 0.008
12 0
13 0.01
14 0.008
15 0.008
16 0
17 0.0056
18 0.0056
19 0.0056
$EndElementData
$ElementData
1
"Attribute:SectionDimension4"
1
0
3
0
1
19
1 0.0175
2 0.0127
3 0.0127
4 0
5 0.0175
6 0.0127
7 0.0127
8 0
9 0.0175
10 0.0127
11 0.0127
12 0
13 0.0175
14 0.0127
15 0.0127
16 0
17 0.0085
18 0.0085
19 0.0085
$EndElementData
$ElementData
1
"Attribute:SectionDimension5"
1
0
3
0
1
19
1 0.024
2 0.018
3 0.018
4 0
5 0.024
6 0.018
7 0.018
8 0
9 0.024
10 0.018
11 0.018
12 0
13 0.024
14 0.018
15 0.018
16 0
17 0.012
18 0.012
19 0.012
$EndElementData
$ElementData
1
"Attribute:SectionShape"
1
0
3
0
1
19
1 5
2 5
3 5
4 3
5 5
6 5
7 5
8 3
9 5
10 5
11 5
12 3
13 5
14 5
15 5
16 3
17 5
18 5
19 5
$EndElementData
$ElementData
1
"Attribute:ShearAreaY"
1
0
3
0
1
19
1 0.002288291515591876
2 0.0027606736487631755
3 0.0027606736487631755
4 0.0009140558528542028
5 0.002288291515591876
6 0.0027606736487631755
7 0.0027606736487631755
8 0.0009140558528542028
9 0.002288291515591876
10 0.0027606736487631755
11 0.0027606736487631755
12 0.0009140558528542028
13 0.002288291515591876
14 0.0027606736487631755
15 0.0027606736487631755
16 0.0009140558528542028
17 0.0010633841173523775
18 0.0010633841173523775
19 0.0010633841173523775
$EndElementData
$ElementData
1
"Attribute:ShearAreaZ"
1
0
3
0
1
19
1 0.00773202614379085
2 0.003668888888888889
3 0.003668888888888889
4 0.0009140558528542028
5 0.00773202614379085
6 0.003668888888888889
7 0.003668888888888889
8 0.0009140558528542028
9 0.00773202614379085
10 0.003668888888888889
11 0.003668888888888889
12 0.0009140558528542028
13 0.00773202614379085
14 0.003668888888888889
15 0.003668888888888889
16 0.0009140558528542028
17 0.0014444444444444446
18 0.0014444444444444446
19 0.0014444444444444446
$EndElementData
$ElementData
1
"Attribute:TorsionConstant"
1
0
3
0
1
19
1 1.2377827388519793e-06
2 3.7320927697764195e-07
3 3.7320927697764195e-07
4 5.138404090615046e-06
5 1.2377827388519793e-06
6 3.7320927697764195e-07
7 3.7320927697764195e-07
8 5.138404090615046e-06
9 1.2377827388519793e-06
10 3.7320927697764195e-07
11 3.7320927697764195e-07
12 5.138404090615046e-06
13 1.2377827388519793e-06
14 3.7320927697764195e-07
15 3.7320927697764195e-07
16 5.138404090615046e-06
17 6.980120130097939e-08
18 6.980120130097939e-08
19 6.980120130097939e-08
$EndElementData
$ElementData
1
"Attribute:UniformLoadGlobalX"
1
0
3
0
1
19
1 0
2 0
3 0
4 0
5 0
6 0
7 0
8 0
9 0
10 0
11 0
12 0
13 0
14 0
15 0
16 0
17 0
18 0
19 0
$EndElementData
$ElementData
1
"Attribute:UniformLoadGlobalY"
1
0
3
0
1
19
1 0
2 -3000
3 0
4 0
5 0
6 -6000
7 0
8 0
9 0
10 -6000
11 0
12 0
13 0
14 -3000
15 0
16 0
17 0
18 0
19 0
$EndElementData
$ElementData
1
"Attribute:UniformLoadGlobalZ"
1
0
3
0
1
19
1 0
2 0
3 0
4 0
5 0
6 0
7 0
8 0
9 0
10 0
11 0
12 0
13 0
14 0
15 0
16 0
17 0
18 0
19 0
$EndElementData
$ElementData
1
"Attribute:UniformLoadLocalX"
1
0
3
0
1
19
1 0
2 0
3 0
4 0
5 0
6 0
7 0
8 0
9 0
10 0
11 0
12 0
13 0
14 0
15 0
16 0
17 0
18 0
19 0
$EndElementData
$ElementData
1
"Attribute:UniformLoadLocalY"
1
0
3
0
1
19
1 0
2 0
3 0
4 0
5 0
6 0
7 0
8 0
9 0
10 0
11 0
12 0
13 0
14 0
15 0
16 0
17 0
18 0
19 0
$EndElementData
$ElementData
1
"Attribute:UniformLoadLocalZ"
1
0
3
0
1
19
1 0
2 0
3 0
4 0
5 0
6 0
7 0
8 0
9 0
10 0
11 0
12 0
13 0
14 0
15 0
16 0
17 0
18 0
19 0
$EndElementData
$ElementData
1
"BeamOrientation"
1
0
3
0
3
19
1 1 0 0
2 0 0 0
3 0 0 0
4 0 0 0
5 1 0 0
6 0 0 0
7 0 0 0
8 0 0 0
9 1 0 0
10 0 0 0
11 0 0 0
12 0 0 0
13 1 0 0
14 0 0 0
15 0 0 0
16 0 0 0
17 0 0 0
18 0 0 0
19 0 0 0
$EndElementData
$AnafData
1
1
GLOBAL 3 1
"Gravity"
0 -9.80665 0
$EndAnafData
