$MeshFormat
4.1 0 8
$EndMeshFormat
$PhysicalNames
4
1 1 "Material:Douglas Fir (along the grain)"
1 2 "Section:Rect 140x60"
1 3 "Section:Rect 200x100"
1 4 "Section:Rect 300x120"
$EndPhysicalNames
$Entities
0 3 0 0
1 0 2.7 0 5 2.7 3 2 1 4 0
2 0 0 0 5 2.7 3 2 1 3 0
3 0 2.7 -0.4 5 2.7 3.4 2 1 2 0
$EndEntities
$Nodes
1 34 1 34
1 1 0 34
1
2
3
4
5
6
7
8
9
10
11
12
13
14
15
16
17
18
19
20
21
22
23
24
25
26
27
28
29
30
31
32
33
34
0 2.7 0
0.8333333333333334 2.7 0
1.6666666666666667 2.7 0
2.5 2.7 0
3.3333333333333335 2.7 0
4.166666666666667 2.7 0
5 2.7 0
0 0 0
2.5 0 0
5 0 0
0 2.7 3
0.8333333333333334 2.7 3
1.6666666666666667 2.7 3
2.5 2.7 3
3.3333333333333335 2.7 3
4.166666666666667 2.7 3
5 2.7 3
0 0 3
2.5 0 3
5 0 3
0 2.7 -0.4
0 2.7 3.4
0.8333333333333334 2.7 -0.4
0.8333333333333334 2.7 3.4
1.6666666666666667 2.7 -0.4
1.6666666666666667 2.7 3.4
2.5 2.7 -0.4
2.5 2.7 3.4
3.3333333333333335 2.7 -0.4
3.3333333333333335 2.7 3.4
4.166666666666667 2.7 -0.4
4.166666666666667 2.7 3.4
5 2.7 -0.4
5 2.7 3.4
$EndNodes
$Elements
3 39 1 39
1 1 1 12
1 1 2
2 2 3
3 3 4
4 4 5
5 5 6
6 6 7
10 11 12
11 12 13
12 13 14
13 14 15
14 15 16
15 16 17
1 2 1 6
7 8 1
8 9 4
9 10 7
16 18 11
17 19 14
18 20 17
1 3 1 21
19 21 1
20 1 11
21 11 22
22 23 2
23 2 12
24 12 24
25 25 3
26 3 13
27 13 26
28 27 4
29 4 14
30 14 28
31 29 5
32 5 15
33 15 30
34 31 6
35 6 16
36 16 32
37 33 7
38 7 17
39 17 34
$EndElements
$NodeData
1
"Displacement"
1
0
3
0
3
34
1 5.875168376971829e-07 -3.155495077841993e-05 4.0276381914969e-06
2 3.9167789179810033e-07 -0.00014402011851966687 2.049747851100972e-08
3 1.9583894589901763e-07 -0.00013081574414669034 3.5864018861820327e-07
4 -6.484870618941674e-20 -6.360091036639909e-05 4.189585768521434e-06
5 -1.958389458991474e-07 -0.00013081574414669034 3.5864018861835277e-07
6 -3.9167789179823e-07 -0.00014402011851966684 2.0497478511314292e-08
7 -5.875168376973123e-07 -3.155495077841993e-05 4.027638191497358e-06
8 0 0 0
9 0 0 0
10 0 0 0
11 5.875168376971462e-07 -3.155495077842005e-05 -4.02763819149683e-06
12 3.916778917980628e-07 -0.0001440201185196675 -2.0497478510627564e-08
13 1.958389458989795e-07 -0.00013081574414669086 -3.5864018861754634e-07
14 -1.0375157763738797e-19 -6.360091036639933e-05 -4.189585768520585e-06
15 -1.9583894589918717e-07 -0.00013081574414669102 -3.586401886173971e-07
16 -3.916778917982706e-07 -0.00014402011851966762 -2.0497478510323912e-08
17 -5.87516837697354e-07 -3.155495077842007e-05 -4.027638191496367e-06
18 0 0 0
19 0 0 0
20 0 0 0
21 -1.6671475897235407e-06 0.0006233019703424201 4.0276381914969e-06
22 -1.6671475897237207e-06 0.0006233019703424207 -4.027638191496829e-06
23 -8.09079769648854e-07 0.001089120653502718 2.049747851100972e-08
24 -8.090797696490383e-07 0.00108912065350272 -2.049747851062756e-08
25 1.989633616328273e-06 0.0011325339800347882 3.5864018861820327e-07
26 1.98963361632812e-06 0.001132533980034791 -3.586401886175463e-07
27 -2.948259008279559e-20 0.0007096202995968242 4.189585768521434e-06
28 -1.3901192665285076e-19 0.0007096202995968251 -4.1895857685205845e-06
29 -1.9896336163283294e-06 0.0011325339800347908 3.5864018861835277e-07
30 -1.9896336163283993e-06 0.0011325339800347916 -3.58640188617397e-07
31 8.090797696488009e-07 0.0010891206535027188 2.0497478511314292e-08
32 8.090797696487541e-07 0.0010891206535027205 -2.049747851032391e-08
33 1.6671475897234824e-06 0.0006233019703424201 4.027638191497358e-06
34 1.667147589723439e-06 0.0006233019703424208 -4.027638191496366e-06
$EndNodeData
$NodeData
1
"Rotation"
1
0
3
0
3
34
1 0.0016738534644486778 5.636661068551803e-06 -0.00015462311654281912
2 0.00311956309170254 3.001894153617383e-06 -7.335814051223876e-05
3 0.003195085472100274 -4.484486676073132e-06 9.07168224660007e-05
4 0.0019697641865546365 -8.84152902665529e-20 0
5 0.0031950854721002806 4.48448667607295e-06 -9.071682246600065e-05
6 0.003119563091702542 -3.0018941536175746e-06 7.335814051223882e-05
7 0.001673853464448678 -5.636661068551982e-06 0.00015462311654281915
8 0 0 0
9 0 0 0
10 0 0 0
11 -0.0016738534644486797 -5.636661068552167e-06 -0.0001546231165428198
12 -0.0031195630917025467 -3.0018941536177524e-06 -7.335814051223906e-05
13 -0.0031950854721002823 4.484486676072851e-06 9.071682246600116e-05
14 -0.0019697641865546386 -8.815087253865696e-20 -9.058279294042712e-20
15 -0.0031950854721002845 -4.484486676073029e-06 -9.071682246600123e-05
16 -0.0031195630917025484 3.001894153617561e-06 7.335814051223925e-05
17 -0.0016738534644486801 5.636661068551982e-06 0.00015462311654282002
18 0 0 0
19 0 0 0
20 0 0 0
21 0.0016249052489199067 5.636661068551811e-06 -0.0001546231165428191
22 -0.0016249052489199097 -5.636661068552171e-06 -0.00015462311654281977
23 0.0030706148761737682 3.0018941536173865e-06 -7.335814051223875e-05
24 -0.003070614876173777 -3.001894153617755e-06 -7.335814051223905e-05
25 0.0031461372565715026 -4.484486676073141e-06 9.071682246600069e-05
26 -0.003146137256571513 4.4844866760728545e-06 9.071682246600116e-05
27 0.001920815971025865 -8.841529026655287e-20 0
28 -0.001920815971025869 -8.815087253865704e-20 -9.058279294042711e-20
29 0.003146137256571509 4.484486676072958e-06 -9.071682246600064e-05
30 -0.0031461372565715147 -4.484486676073033e-06 -9.071682246600123e-05
31 0.0030706148761737704 -3.001894153617578e-06 7.33581405122388e-05
32 -0.0030706148761737787 3.0018941536175635e-06 7.335814051223924e-05
33 0.001624905248919907 -5.63666106855199e-06 0.0001546231165428191
34 -0.0016249052489199103 5.636661068551986e-06 0.00015462311654282
$EndNodeData
$ElementData
1
"BeamSectionForce"
1
0
3
0
12
39
1 -113.36724900206096 -1388.8353877083455 -4.8944030218319945 192.98258919094613 0.20907794636930888 -204.20503952744377 -113.36724900206096 -1232.9096527083457 -4.8944030218319945 192.98258919094613 -3.8695912384906777 888.1887273128461
2 -113.36724900206096 370.04283831165174 -3.3562722343801425 10.081211493834076 -3.8020125973044347 888.1887273128463 -113.36724900206096 525.9685733116518 -3.3562722343801425 10.081211493834076 -6.598906125954551 514.8506391364692
3 -113.36724900206087 2128.9210643316596 23.556087519505212 -163.5637404757028 -6.6998608900063115 514.8506391364692 -113.36724900206087 2284.8467993316594 23.556087519505212 -163.5637404757028 12.930212042914706 -1324.2193040565796
4 -113.36724900206087 -2284.846799331658 -23.556087519505187 163.56374047570364 12.930212042914695 -1324.219304056579 -113.36724900206087 -2128.9210643316583 -23.556087519505187 163.56374047570364 -6.699860890006313 514.850639136469
5 -113.3672490020609 -525.968573311654 3.356272234380137 -10.0812114938347 -6.598906125954556 514.8506391364687 -113.3672490020609 -370.042838311654 3.356272234380137 -10.0812114938347 -3.8020125973044427 888.1887273128466
6 -113.36724900206084 1232.909652708347 4.894403021831998 -192.98258919094638 -3.8695912384906723 888.1887273128452 -113.36724900206084 1388.8353877083468 4.894403021831998 -192.98258919094638 0.20907794636931953 -204.2050395274432
7 -3272.4542017283493 -113.36724900206093 307.1283729117567 0.08218543239408094 -276.1687576061043 -101.88653277812111 -2991.787878728349 -113.36724900206093 307.1283729117567 0.08218543239408094 553.0778492556387 204.20503952744343
8 -6453.312412683317 -3.531870803996076e-14 361.4986911088269 -1.2891406406083159e-15 -325.0921212695574 -4.7680255853947026e-14 -6172.646089683318 -3.531870803996076e-14 361.4986911088269 -1.2891406406083159e-15 650.9543447242752 4.7680255853947026e-14
9 -3272.4542017283493 113.36724900206089 307.1283729117567 -0.08218543239408355 -276.16875760610424 101.88653277812102 -2991.787878728349 113.36724900206089 307.1283729117567 -0.08218543239408355 553.0778492556387 -204.20503952744335
10 -113.36724900206136 -1388.8353877083546 4.894403021832076 -192.9825891909467 -0.20907794636934707 -204.2050395274457 -113.36724900206136 -1232.9096527083548 4.894403021832076 -192.9825891909467 3.869591238490708 888.1887273128509
11 -113.36724900206131 370.0428383116554 3.356272234380185 -10.08121149383436 3.8020125973044747 888.1887273128518 -113.36724900206131 525.9685733116554 3.356272234380185 -10.08121149383436 6.598906125954634 514.8506391364704
12 -113.3672490020613 2128.921064331668 -23.5560875195052 163.56374047570364 6.699860890006379 514.8506391364709 -113.3672490020613 2284.8467993316676 -23.5560875195052 163.56374047570364 -12.930212042914627 -1324.2193040565862
13 -113.36724900206138 -2284.84679933167 23.556087519505198 -163.56374047570387 -12.93021204291463 -1324.2193040565858 -113.36724900206138 -2128.92106433167 23.556087519505198 -163.56374047570387 6.6998608900063825 514.8506391364715
14 -113.36724900206138 -525.9685733116568 -3.3562722343801834 10.08121149383436 6.5989061259546204 514.8506391364713 -113.36724900206138 -370.04283831165674 -3.3562722343801834 10.08121149383436 3.8020125973044694 888.1887273128523
15 -113.36724900206144 1232.9096527083552 -4.894403021832055 192.98258919094695 3.869591238490708 888.1887273128509 -113.36724900206144 1388.835387708355 -4.894403021832055 192.98258919094695 -0.2090779463693373 -204.20503952744502
16 -3272.4542017283607 -113.36724900206144 -307.128372911757 -0.08218543239408624 276.16875760610463 -101.88653277812159 -2991.7878787283603 -113.36724900206144 -307.128372911757 -0.08218543239408624 -553.0778492556394 204.20503952744437
17 -6453.312412683342 -1.2310781342816952e-13 -361.4986911088274 -1.2852852934381565e-15 325.09212126955794 -1.3622494503169003e-13 -6172.646089683342 -1.2310781342816952e-13 -361.4986911088274 -1.2852852934381565e-15 -650.9543447242761 1.9616615122436777e-13
18 -3272.454201728363 113.36724900206148 -307.1283729117572 0.08218543239408355 276.1687576061048 101.88653277812158 -2991.7878787283626 113.36724900206148 -307.1283729117572 0.08218543239408355 -553.0778492556396 -204.20503952744448
19 -0 -2.8137492336099967e-12 -1.7763568394002505e-15 -4.440892098500626e-16 3.3306690738754696e-16 -7.194245199571014e-13 0 337.46368231999725 -1.7763568394002505e-15 -4.440892098500626e-16 -1.5543122344752192e-15 -67.49273646400029
20 -302.2339698899248 -1265.4888087000002 -7.632783294297951e-15 -1.4432899320127035e-15 -0.12689251397523088 -427.58799652869317 -302.2339698899248 1265.4888086999997 -7.632783294297951e-15 -1.4432899320127035e-15 -0.12689251397525378 -427.5879965286924
21 2.2737367544323206e-13 -337.4636823200026 -3.552713678800501e-15 4.440892098500626e-16 -7.771561172376096e-16 -67.49273646399936 2.2737367544323206e-13 -2.7000623958883807e-12 -3.552713678800501e-15 4.440892098500626e-16 0 -4.849454171562684e-13
22 -0 6.281197784119286e-12 -8.881784197001252e-16 -2.220446049250313e-16 1.1102230246251565e-16 -9.467981954003335e-13 0 337.46368232000634 -8.881784197001252e-16 -2.220446049250313e-16 -6.661338147750939e-16 -67.4927364640012
23 -1.5381307874518313 -1265.4888087000008 -7.757683384568281e-15 -6.38378239159465e-16 -0.06757864118622707 -250.39411416111489 -1.5381307874518313 1265.488808699999 -7.757683384568281e-15 -6.38378239159465e-16 -0.06757864118625033 -250.39411416111244
24 8.881784197001252e-16 -337.4636823200026 -1.3322676295501878e-15 2.220446049250313e-16 -4.440892098500626e-16 -67.492736463998 8.881784197001252e-16 -2.7000623958883807e-12 -1.3322676295501878e-15 2.220446049250313e-16 0 -4.849454171562684e-13
25 -0 -9.947598300641403e-13 2.6645352591003757e-15 2.220446049250313e-16 -4.440892098500626e-16 -3.730349362740526e-14 0 337.46368231999907 2.6645352591003757e-15 2.220446049250313e-16 1.7763568394002505e-15 -67.4927364640012
26 -26.912359753885333 -1265.4888087000008 -5.7592819402429996e-15 9.71445146547012e-16 0.10095476405176386 -241.13768843354006 -26.912359753885333 1265.488808699999 -5.7592819402429996e-15 9.71445146547012e-16 0.1009547640517466 -241.13768843353694
27 1.4210854715202004e-14 -337.4636823200062 1.7763568394002505e-15 -0 5.551115123125783e-16 -67.49273646399755 1.4210854715202004e-14 -6.338041202980094e-12 1.7763568394002505e-15 0 0 -1.3944401189291966e-12
28 -0 2.6432189770275727e-12 -7.573064690121713e-29 -0 -3.1554436208840472e-30 1.900701818158268e-13 0 337.4636823200027 -7.573064690121713e-29 0 -6.310887241768095e-30 -67.4927364640012
29 -314.3865160698166 -1265.4888087000002 -3.3910031623797333e-15 -1.9127475022337988e-16 5.089481029514797e-15 -391.31960023686906 -314.3865160698166 1265.4888086999997 -3.3910031623797333e-15 -1.9127475022337988e-16 -5.083528457624403e-15 -391.3196002368681
30 2.2737367544323206e-13 -337.4636823200026 -6.310887241768094e-29 1.9721522630525295e-31 1.5777218104420236e-29 -67.49273646399823 2.2737367544323206e-13 -2.7000623958883807e-12 -6.310887241768094e-29 1.9721522630525295e-31 -6.310887241768095e-30 -9.396927680427325e-13
31 -0 -4.632738637155853e-12 -0 -2.220446049250313e-16 1.1102230246251565e-16 -4.920508445138694e-13 0 337.4636823199954 0 -2.220446049250313e-16 -1.5543122344752192e-15 -67.4927364640012
32 -26.91235975388534 -1265.4888087000004 -1.1796119636642288e-15 -1.2212453270876722e-15 -0.1009547640517534 -241.1376884335387 -26.91235975388534 1265.4888086999995 -1.1796119636642288e-15 -1.2212453270876722e-15 -0.10095476405175693 -241.13768843353722
33 2.842170943040401e-14 -337.4636823200062 -1.7763568394002505e-15 -0 -7.771561172376096e-16 -67.49273646399845 2.842170943040401e-14 -6.338041202980094e-12 -1.7763568394002505e-15 0 0 -1.3944401189291966e-12
34 -0 2.6432189770275727e-12 8.881784197001252e-16 -0 -2.220446049250313e-16 -9.467981954003335e-13 0 337.4636823200027 8.881784197001252e-16 0 6.661338147750939e-16 -67.49273646400029
35 -1.5381307874518657 -1265.4888087000008 3.0531133177191805e-16 9.159339953157541e-16 0.06757864118623826 -250.39411416111483 -1.5381307874518657 1265.488808699999 3.0531133177191805e-16 9.159339953157541e-16 0.06757864118623917 -250.3941141611122
36 8.881784197001252e-16 -337.46368232000987 4.440892098500626e-16 -2.220446049250313e-16 5.551115123125783e-16 -67.49273646399936 8.881784197001252e-16 -9.976020010071807e-12 4.440892098500626e-16 -2.220446049250313e-16 0 -1.3944401189291966e-12
37 -0 2.6432189770275727e-12 -0 8.881784197001252e-16 -0 1.900701818158268e-13 0 337.4636823200027 0 8.881784197001252e-16 1.3322676295501878e-15 -67.49273646400074
38 -302.2339698899246 -1265.4888087000002 6.38378239159465e-16 1.8318679906315083e-15 0.12689251397524137 -427.58799652869317 -302.2339698899246 1265.4888086999997 6.38378239159465e-16 1.8318679906315083e-15 0.1268925139752432 -427.5879965286923
39 2.2737367544323206e-13 -337.4636823200044 1.7763568394002505e-15 -4.440892098500626e-16 8.881784197001252e-16 -67.49273646400005 2.2737367544323206e-13 -4.519051799434237e-12 1.7763568394002505e-15 -4.440892098500626e-16 0 -3.019806626980426e-14
$EndElementData
$ElementData
1
"AxialForce"
1
0
3
0
1
39
1 -113.36724900206096
2 -113.36724900206096
3 -113.36724900206087
4 -113.36724900206087
5 -113.3672490020609
6 -113.36724900206084
7 -3132.121040228349
8 -6312.9792511833175
9 -3132.121040228349
10 -113.36724900206136
11 -113.36724900206131
12 -113.3672490020613
13 -113.36724900206138
14 -113.36724900206138
15 -113.36724900206144
16 -3132.1210402283605
17 -6312.979251183342
18 -3132.1210402283627
19 0
20 -302.2339698899248
21 2.2737367544323206e-13
22 0
23 -1.5381307874518313
24 8.881784197001252e-16
25 0
26 -26.912359753885333
27 1.4210854715202004e-14
28 0
29 -314.3865160698166
30 2.2737367544323206e-13
31 0
32 -26.91235975388534
33 2.842170943040401e-14
34 0
35 -1.5381307874518657
36 8.881784197001252e-16
37 0
38 -302.2339698899246
39 2.2737367544323206e-13
$EndElementData
$ElementData
1
"VonMisesStress"
1
0
3
0
1
39
1 627866.8467749556
2 503620.8600986663
3 860972.3430587612
4 860972.343058761
5 503620.8600986668
6 627866.8467749563
7 2115842.9095891365
8 2261982.850016062
9 2115842.909589137
10 627866.846774959
11 503620.86009866954
12 860972.3430587645
13 860972.3430587648
14 503620.8600986697
15 627866.8467749598
16 2115842.909589141
17 2261982.850016066
18 2115842.909589142
19 359821.76256237424
20 2698351.1147602773
21 359821.7625623736
22 359821.7625623939
23 3565898.2937671496
24 359821.7625623669
25 359821.76256237464
26 3616543.0319821727
27 359821.762562365
28 359821.7625623809
29 2883330.0595055795
30 359821.762562368
31 359821.76256236935
32 3616543.0319821765
33 359821.7625623695
34 359821.7625623865
35 3565898.2937671496
36 359821.76256237424
37 359821.7625623809
38 2698351.1147602773
39 359821.7625623771
$EndElementData
$NodeData
1
"Fixity"
1
0
3
0
3
34
1 0 0 0
2 0 0 0
3 0 0 0
4 0 0 0
5 0 0 0
6 0 0 0
7 0 0 0
8 1 1 1
9 1 1 1
10 1 1 1
11 0 0 0
12 0 0 0
13 0 0 0
14 0 0 0
15 0 0 0
16 0 0 0
17 0 0 0
18 1 1 1
19 1 1 1
20 1 1 1
21 0 0 0
22 0 0 0
23 0 0 0
24 0 0 0
25 0 0 0
26 0 0 0
27 0 0 0
28 0 0 0
29 0 0 0
30 0 0 0
31 0 0 0
32 0 0 0
33 0 0 0
34 0 0 0
$EndNodeData
$NodeData
1
"FixityRotation"
1
0
3
0
3
34
1 0 0 0
2 0 0 0
3 0 0 0
4 0 0 0
5 0 0 0
6 0 0 0
7 0 0 0
8 1 1 1
9 1 1 1
10 1 1 1
11 0 0 0
12 0 0 0
13 0 0 0
14 0 0 0
15 0 0 0
16 0 0 0
17 0 0 0
18 1 1 1
19 1 1 1
20 1 1 1
21 0 0 0
22 0 0 0
23 0 0 0
24 0 0 0
25 0 0 0
26 0 0 0
27 0 0 0
28 0 0 0
29 0 0 0
30 0 0 0
31 0 0 0
32 0 0 0
33 0 0 0
34 0 0 0
$EndNodeData
$ElementData
1
"CrossSectionArea"
1
0
3
0
1
39
1 0.036
2 0.036
3 0.036
4 0.036
5 0.036
6 0.036
7 0.020000000000000004
8 0.020000000000000004
9 0.020000000000000004
10 0.036
11 0.036
12 0.036
13 0.036
14 0.036
15 0.036
16 0.020000000000000004
17 0.020000000000000004
18 0.020000000000000004
19 0.008400000000000001
20 0.008400000000000001
21 0.008400000000000001
22 0.008400000000000001
23 0.008400000000000001
24 0.008400000000000001
25 0.008400000000000001
26 0.008400000000000001
27 0.008400000000000001
28 0.008400000000000001
29 0.008400000000000001
30 0.008400000000000001
31 0.008400000000000001
32 0.008400000000000001
33 0.008400000000000001
34 0.008400000000000001
35 0.008400000000000001
36 0.008400000000000001
37 0.008400000000000001
38 0.008400000000000001
39 0.008400000000000001
$EndElementData
$ElementData
1
"Attribute:ElementFormulation"
1
0
3
0
1
39
1 1
2 1
3 1
4 1
5 1
6 1
7 1
8 1
9 1
10 1
11 1
12 1
13 1
14 1
15 1
16 1
17 1
18 1
19 1
20 1
21 1
22 1
23 1
24 1
25 1
26 1
27 1
28 1
29 1
30 1
31 1
32 1
33 1
34 1
35 1
36 1
37 1
38 1
39 1
$EndElementData
$ElementData
1
"MaterialID"
1
0
3
0
1
39
1 18
2 18
3 18
4 18
5 18
6 18
7 18
8 18
9 18
10 18
11 18
12 18
13 18
14 18
15 18
16 18
17 18
18 18
19 18
20 18
21 18
22 18
23 18
24 18
25 18
26 18
27 18
28 18
29 18
30 18
31 18
32 18
33 18
34 18
35 18
36 18
37 18
38 18
39 18
$EndElementData
$ElementData
1
"Attribute:SecondMomentY"
1
0
3
0
1
39
1 4.319999999999999e-05
2 4.319999999999999e-05
3 4.319999999999999e-05
4 4.319999999999999e-05
5 4.319999999999999e-05
6 4.319999999999999e-05
7 1.666666666666667e-05
8 1.666666666666667e-05
9 1.666666666666667e-05
10 4.319999999999999e-05
11 4.319999999999999e-05
12 4.319999999999999e-05
13 4.319999999999999e-05
14 4.319999999999999e-05
15 4.319999999999999e-05
16 1.666666666666667e-05
17 1.666666666666667e-05
18 1.666666666666667e-05
19 2.5200000000000004e-06
20 2.5200000000000004e-06
21 2.5200000000000004e-06
22 2.5200000000000004e-06
23 2.5200000000000004e-06
24 2.5200000000000004e-06
25 2.5200000000000004e-06
26 2.5200000000000004e-06
27 2.5200000000000004e-06
28 2.5200000000000004e-06
29 2.5200000000000004e-06
30 2.5200000000000004e-06
31 2.5200000000000004e-06
32 2.5200000000000004e-06
33 2.5200000000000004e-06
34 2.5200000000000004e-06
35 2.5200000000000004e-06
36 2.5200000000000004e-06
37 2.5200000000000004e-06
38 2.5200000000000004e-06
39 2.5200000000000004e-06
$EndElementData
$ElementData
1
"Attribute:SecondMomentZ"
1
0
3
0
1
39
1 0.00026999999999999995
2 0.00026999999999999995
3 0.00026999999999999995
4 0.00026999999999999995
5 0.00026999999999999995
6 0.00026999999999999995
7 6.666666666666668e-05
8 6.666666666666668e-05
9 6.666666666666668e-05
10 0.00026999999999999995
11 0.00026999999999999995
12 0.00026999999999999995
13 0.00026999999999999995
14 0.00026999999999999995
15 0.00026999999999999995
16 6.666666666666668e-05
17 6.666666666666668e-05
18 6.666666666666668e-05
19 1.3720000000000004e-05
20 1.3720000000000004e-05
21 1.3720000000000004e-05
22 1.3720000000000004e-05
23 1.3720000000000004e-05
24 1.3720000000000004e-05
25 1.3720000000000004e-05
26 1.3720000000000004e-05
27 1.3720000000000004e-05
28 1.3720000000000004e-05
29 1.3720000000000004e-05
30 1.3720000000000004e-05
31 1.3720000000000004e-05
32 1.3720000000000004e-05
33 1.3720000000000004e-05
34 1.3720000000000004e-05
35 1.3720000000000004e-05
36 1.3720000000000004e-05
37 1.3720000000000004e-05
38 1.3720000000000004e-05
39 1.3720000000000004e-05
$EndElementData
$ElementData
1
"Attribute:SectionDimension1"
1
0
3
0
1
39
1 0.3
2 0.3
3 0.3
4 0.3
5 0.3
6 0.3
7 0.2
8 0.2
9 0.2
10 0.3
11 0.3
12 0.3
13 0.3
14 0.3
15 0.3
16 0.2
17 0.2
18 0.2
19 0.14
20 0.14
21 0.14
22 0.14
23 0.14
24 0.14
25 0.14
26 0.14
27 0.14
28 0.14
29 0.14
30 0.14
31 0.14
32 0.14
33 0.14
34 0.14
35 0.14
36 0.14
37 0.14
38 0.14
39 0.14
$EndElementData
$ElementData
1
"Attribute:SectionDimension2"
1
0
3
0
1
39
1 0.12
2 0.12
3 0.12
4 0.12
5 0.12
6 0.12
7 0.1
8 0.1
9 0.1
10 0.12
11 0.12
12 0.12
13 0.12
14 0.12
15 0.12
16 0.1
17 0.1
18 0.1
19 0.06
20 0.06
21 0.06
22 0.06
23 0.06
24 0.06
25 0.06
26 0.06
27 0.06
28 0.06
29 0.06
30 0.06
31 0.06
32 0.06
33 0.06
34 0.06
35 0.06
36 0.06
37 0.06
38 0.06
39 0.06
$EndElementData
$ElementData
1
"Attribute:SectionDimension3"
1
0
3
0
1
39
1 0
2 0
3 0
4 0
5 0
6 0
7 0
8 0
9 0
10 0
11 0
12 0
13 0
14 0
15 0
16 0
17 0
18 0
19 0
20 0
21 0
22 0
23 0
24 0
25 0
26 0
27 0
28 0
29 0
30 0
31 0
32 0
33 0
34 0
35 0
36 0
37 0
38 0
39 0
$EndElementData
$ElementData
1
"Attribute:SectionDimension4"
1
0
3
0
1
39
1 0
2 0
3 0
4 0
5 0
6 0
7 0
8 0
9 0
10 0
11 0
12 0
13 0
14 0
15 0
16 0
17 0
18 0
19 0
20 0
21 0
22 0
23 0
24 0
25 0
26 0
27 0
28 0
29 0
30 0
31 0
32 0
33 0
34 0
35 0
36 0
37 0
38 0
39 0
$EndElementData
$ElementData
1
"Attribute:SectionDimension5"
1
0
3
0
1
39
1 0
2 0
3 0
4 0
5 0
6 0
7 0
8 0
9 0
10 0
11 0
12 0
13 0
14 0
15 0
16 0
17 0
18 0
19 0
20 0
21 0
22 0
23 0
24 0
25 0
26 0
27 0
28 0
29 0
30 0
31 0
32 0
33 0
34 0
35 0
36 0
37 0
38 0
39 0
$EndElementData
$ElementData
1
"Attribute:SectionShape"
1
0
3
0
1
39
1 1
2 1
3 1
4 1
5 1
6 1
7 1
8 1
9 1
10 1
11 1
12 1
13 1
14 1
15 1
16 1
17 1
18 1
19 1
20 1
21 1
22 1
23 1
24 1
25 1
26 1
27 1
28 1
29 1
30 1
31 1
32 1
33 1
34 1
35 1
36 1
37 1
38 1
39 1
$EndElementData
$ElementData
1
"Attribute:ShearAreaY"
1
0
3
0
1
39
1 0.030572745227123107
2 0.030572745227123107
3 0.030572745227123107
4 0.030572745227123107
5 0.030572745227123107
6 0.030572745227123107
7 0.016984858459512843
8 0.016984858459512843
9 0.016984858459512843
10 0.030572745227123107
11 0.030572745227123107
12 0.030572745227123107
13 0.030572745227123107
14 0.030572745227123107
15 0.030572745227123107
16 0.016984858459512843
17 0.016984858459512843
18 0.016984858459512843
19 0.0071336405529953935
20 0.0071336405529953935
21 0.0071336405529953935
22 0.0071336405529953935
23 0.0071336405529953935
24 0.0071336405529953935
25 0.0071336405529953935
26 0.0071336405529953935
27 0.0071336405529953935
28 0.0071336405529953935
29 0.0071336405529953935
30 0.0071336405529953935
31 0.0071336405529953935
32 0.0071336405529953935
33 0.0071336405529953935
34 0.0071336405529953935
35 0.0071336405529953935
36 0.0071336405529953935
37 0.0071336405529953935
38 0.0071336405529953935
39 0.0071336405529953935
$EndElementData
$ElementData
1
"Attribute:ShearAreaZ"
1
0
3
0
1
39
1 0.030572745227123107
2 0.030572745227123107
3 0.030572745227123107
4 0.030572745227123107
5 0.030572745227123107
6 0.030572745227123107
7 0.016984858459512843
8 0.016984858459512843
9 0.016984858459512843
10 0.030572745227123107
11 0.030572745227123107
12 0.030572745227123107
13 0.030572745227123107
14 0.030572745227123107
15 0.030572745227123107
16 0.016984858459512843
17 0.016984858459512843
18 0.016984858459512843
19 0.0071336405529953935
20 0.0071336405529953935
21 0.0071336405529953935
22 0.0071336405529953935
23 0.0071336405529953935
24 0.0071336405529953935
25 0.0071336405529953935
26 0.0071336405529953935
27 0.0071336405529953935
28 0.0071336405529953935
29 0.0071336405529953935
30 0.0071336405529953935
31 0.0071336405529953935
32 0.0071336405529953935
33 0.0071336405529953935
34 0.0071336405529953935
35 0.0071336405529953935
36 0.0071336405529953935
37 0.0071336405529953935
38 0.0071336405529953935
39 0.0071336405529953935
$EndElementData
$ElementData
1
"Attribute:TorsionConstant"
1
0
3
0
1
39
1 0.00012934729727999997
2 0.00012934729727999997
3 0.00012934729727999997
4 0.00012934729727999997
5 0.00012934729727999997
6 0.00012934729727999997
7 4.577604166666668e-05
8 4.577604166666668e-05
9 4.577604166666668e-05
10 0.00012934729727999997
11 0.00012934729727999997
12 0.00012934729727999997
13 0.00012934729727999997
14 0.00012934729727999997
15 0.00012934729727999997
16 4.577604166666668e-05
17 4.577604166666668e-05
18 4.577604166666668e-05
19 7.366051311953354e-06
20 7.366051311953354e-06
21 7.366051311953354e-06
22 7.366051311953354e-06
23 7.366051311953354e-06
24 7.366051311953354e-06
25 7.366051311953354e-06
26 7.366051311953354e-06
27 7.366051311953354e-06
28 7.366051311953354e-06
29 7.366051311953354e-06
30 7.366051311953354e-06
31 7.366051311953354e-06
32 7.366051311953354e-06
33 7.366051311953354e-06
34 7.366051311953354e-06
35 7.366051311953354e-06
36 7.366051311953354e-06
37 7.366051311953354e-06
38 7.366051311953354e-06
39 7.366051311953354e-06
$EndElementData
$ElementData
1
"Attribute:UniformLoadGlobalX"
1
0
3
0
1
39
1 0
2 0
3 0
4 0
5 0
6 0
7 0
8 0
9 0
10 0
11 0
12 0
13 0
14 0
15 0
16 0
17 0
18 0
19 0
20 0
21 0
22 0
23 0
24 0
25 0
26 0
27 0
28 0
29 0
30 0
31 0
32 0
33 0
34 0
35 0
36 0
37 0
38 0
39 0
$EndElementData
$ElementData
1
"Attribute:UniformLoadGlobalY"
1
0
3
0
1
39
1 0
2 0
3 0
4 0
5 0
6 0
7 0
8 0
9 0
10 0
11 0
12 0
13 0
14 0
15 0
16 0
17 0
18 0
19 -800
20 -800
21 -800
22 -800
23 -800
24 -800
25 -800
26 -800
27 -800
28 -800
29 -800
30 -800
31 -800
32 -800
33 -800
34 -800
35 -800
36 -800
37 -800
38 -800
39 -800
$EndElementData
$ElementData
1
"Attribute:UniformLoadGlobalZ"
1
0
3
0
1
39
1 0
2 0
3 0
4 0
5 0
6 0
7 0
8 0
9 0
10 0
11 0
12 0
13 0
14 0
15 0
16 0
17 0
18 0
19 0
20 0
21 0
22 0
23 0
24 0
25 0
26 0
27 0
28 0
29 0
30 0
31 0
32 0
33 0
34 0
35 0
36 0
37 0
38 0
39 0
$EndElementData
$ElementData
1
"Attribute:UniformLoadLocalX"
1
0
3
0
1
39
1 0
2 0
3 0
4 0
5 0
6 0
7 0
8 0
9 0
10 0
11 0
12 0
13 0
14 0
15 0
16 0
17 0
18 0
19 0
20 0
21 0
22 0
23 0
24 0
25 0
26 0
27 0
28 0
29 0
30 0
31 0
32 0
33 0
34 0
35 0
36 0
37 0
38 0
39 0
$EndElementData
$ElementData
1
"Attribute:UniformLoadLocalY"
1
0
3
0
1
39
1 0
2 0
3 0
4 0
5 0
6 0
7 0
8 0
9 0
10 0
11 0
12 0
13 0
14 0
15 0
16 0
17 0
18 0
19 0
20 0
21 0
22 0
23 0
24 0
25 0
26 0
27 0
28 0
29 0
30 0
31 0
32 0
33 0
34 0
35 0
36 0
37 0
38 0
39 0
$EndElementData
$ElementData
1
"Attribute:UniformLoadLocalZ"
1
0
3
0
1
39
1 0
2 0
3 0
4 0
5 0
6 0
7 0
8 0
9 0
10 0
11 0
12 0
13 0
14 0
15 0
16 0
17 0
18 0
19 0
20 0
21 0
22 0
23 0
24 0
25 0
26 0
27 0
28 0
29 0
30 0
31 0
32 0
33 0
34 0
35 0
36 0
37 0
38 0
39 0
$EndElementData
$ElementData
1
"BeamOrientation"
1
0
3
0
3
39
1 0 0 0
2 0 0 0
3 0 0 0
4 0 0 0
5 0 0 0
6 0 0 0
7 1 0 0
8 1 0 0
9 1 0 0
10 0 0 0
11 0 0 0
12 0 0 0
13 0 0 0
14 0 0 0
15 0 0 0
16 1 0 0
17 1 0 0
18 1 0 0
19 0 0 0
20 0 0 0
21 0 0 0
22 0 0 0
23 0 0 0
24 0 0 0
25 0 0 0
26 0 0 0
27 0 0 0
28 0 0 0
29 0 0 0
30 0 0 0
31 0 0 0
32 0 0 0
33 0 0 0
34 0 0 0
35 0 0 0
36 0 0 0
37 0 0 0
38 0 0 0
39 0 0 0
$EndElementData
$AnafData
1
1
GLOBAL 3 1
"Gravity"
0 -9.80665 0
$EndAnafData
