$MeshFormat
4.1 0 8
$EndMeshFormat
$PhysicalNames
4
1 1 "Material:Structural Steel S355 (EN 10025)"
1 2 "Section:IPE 330"
1 3 "Section:HEA 240"
1 4 "Section:CHS 114.3x5"
$EndPhysicalNames
$Entities
0 3 0 0
1 0 0 0 6 12 6 2 1 3 0
2 0 4 0 6 12 6 2 1 2 0
3 0 0 0 6 12 6 2 1 4 0
$EndEntities
$Nodes
1 16 1 16
1 1 0 16
1
2
3
4
5
6
7
8
9
10
11
12
13
14
15
16
0 0 0
6 0 0
0 0 6
6 0 6
0 4 0
6 4 0
0 4 6
6 4 6
0 8 0
6 8 0
0 8 6
6 8 6
0 12 0
6 12 0
0 12 6
6 12 6
$EndNodes
$Elements
3 36 1 36
1 1 1 12
1 1 5
2 5 9
3 9 13
4 2 6
5 6 10
6 10 14
7 3 7
8 7 11
9 11 15
10 4 8
11 8 12
12 12 16
1 2 1 12
13 5 6
14 7 8
15 5 7
16 6 8
17 9 10
18 11 12
19 9 11
20 10 12
21 13 14
22 15 16
23 13 15
24 14 16
1 3 1 12
25 1 6
26 2 5
27 5 10
28 6 9
29 9 14
30 10 13
31 3 8
32 4 7
33 7 12
34 8 11
35 11 16
36 12 15
$EndElements
$NodeData
1
"Displacement"
1
0
3
0
3
16
1 0 0 0
2 0 0 0
3 0 0 0
4 0 0 0
5 0.0018379861731402467 -6.634188761365667e-05 -2.4777406679223095e-07
6 0.001830374434305163 -0.0006587691681704907 -2.477740667898472e-07
7 0.0018379861731402406 -6.63418876136578e-05 2.477740667906595e-07
8 0.0018303744343051566 -0.0006587691681704908 2.4777406679304284e-07
9 0.0034553398406221964 -0.00017364969714915685 -1.3525131539880694e-07
10 0.0034338043977499714 -0.0010311681430303149 -1.3525131539411226e-07
11 0.0034553398406221825 -0.00017364969714915837 1.3525131539661243e-07
12 0.0034338043977499575 -0.0010311681430303153 1.3525131540130947e-07
13 0.004665416145377843 -0.0002543555148943745 7.108633830171013e-07
14 0.004533900693927743 -0.001178410170203127 7.108633830228006e-07
15 0.004665416145377829 -0.00025435551489437605 -7.108633830185652e-07
16 0.004533900693927729 -0.0011784101702031278 -7.108633830128664e-07
$EndNodeData
$NodeData
1
"Rotation"
1
0
3
0
3
16
1 0 0 0
2 0 0 0
3 0 0 0
4 0 0 0
5 6.466904707696224e-05 3.062143431988892e-06 -0.0013938149167685957
6 6.466904707696238e-05 -3.0621434319903102e-06 0.0006546234210118169
7 -6.466904707696213e-05 -3.0621434319902175e-06 -0.0013938149167685946
8 -6.466904707696196e-05 3.062143431988936e-06 0.0006546234210118184
9 4.931968205492643e-05 1.1606432752220663e-06 -0.0008994537587510798
10 4.93196820549265e-05 -1.1606432752250616e-06 0.0003536879657442327
11 -4.9319682054926135e-05 -1.1606432752251298e-06 -0.0008994537587510786
12 -4.9319682054925925e-05 1.1606432752222484e-06 0.000353687965744234
13 9.203819775946354e-05 -1.1095168631731991e-05 -0.001910936053663705
14 9.203819775946365e-05 1.1095168631728749e-05 0.0014903316055976162
15 -9.203819775946312e-05 1.1095168631728544e-05 -0.001910936053663705
16 -9.203819775946327e-05 -1.1095168631731703e-05 0.0014903316055976164
$EndNodeData
$ElementData
1
"BeamSectionForce"
1
0
3
0
12
36
1 -27944.43454433953 -2902.826606188709 141.27687766917234 0.025702076121746475 -188.5492554308633 -124.92166610825916 -25578.4457837597 -2902.826606188709 141.27687766917234 0.025702076121746475 376.558255245826 11486.38475864658
2 -44469.54571785497 -9076.062690387598 248.42250981137778 -0.015960226181498834 -519.1572299925274 -20166.978997144193 -42103.55695727514 -9076.062690387598 248.42250981137778 -0.015960226181498834 474.53280925298367 16137.2717644062
3 -33738.65401205977 -13482.432920326848 307.29942926842887 -0.10286905808384833 -552.5021849796333 -22842.396413705508 -31372.665251479943 -13482.432920326848 307.29942926842887 -0.10286905808384833 676.695532094082 31087.33526760189
4 -266921.76531460107 9597.048402843953 141.27687766917003 -0.02570207612175838 -188.5492554308585 16526.066872926138 -264555.7765540212 9597.048402843953 141.27687766917003 -0.02570207612175838 376.5582552458216 -21862.126738449675
5 -151403.81626738206 11065.60896352673 248.42250981137568 0.0159602261814856 -519.1572299925233 23357.731945207895 -149037.82750680222 11065.60896352673 248.42250981137568 0.0159602261814856 474.5328092529794 -20904.703908899028
6 -60578.481026157264 14636.149879790048 307.2994292684281 0.10286905808384626 -552.5021849796319 24639.71382288265 -58212.492265577435 14636.149879790048 307.2994292684281 0.10286905808384626 676.6955320940807 -33904.885696277546
7 -27944.434544339987 -2902.82660618872 -141.27687766917037 -0.0257020761217576 188.54925543085957 -124.92166610828644 -25578.44578376016 -2902.82660618872 -141.27687766917037 -0.0257020761217576 -376.55825524582195 11486.384758646598
8 -44469.54571785512 -9076.06269038761 -248.4225098113762 0.015960226181484245 519.1572299925245 -20166.978997144215 -42103.556957275294 -9076.06269038761 -248.4225098113762 0.015960226181484245 -474.5328092529803 16137.271764406223
9 -33738.6540120598 -13482.43292032684 -307.29942926842807 0.10286905808384511 552.502184979632 -22842.396413705486 -31372.66525147997 -13482.43292032684 -307.29942926842807 0.10286905808384511 -676.6955320940804 31087.335267601884
10 -266921.7653146011 9597.048402843942 -141.2768776691726 0.025702076121746843 188.54925543086424 16526.066872926112 -264555.7765540213 9597.048402843942 -141.2768776691726 0.025702076121746843 -376.5582552458261 -21862.12673844966
11 -151403.81626738218 11065.608963526727 -248.4225098113779 -0.015960226181497672 519.157229992528 23357.73194520789 -149037.82750680234 11065.608963526727 -248.4225098113779 -0.015960226181497672 -474.5328092529836 -20904.70390889902
12 -60578.48102615744 14636.149879790057 -307.29942926842904 -0.10286905808384744 552.5021849796334 24639.713822882673 -58212.49226557761 14636.149879790057 -307.29942926842904 -0.10286905808384744 -676.6955320940829 -33904.88569627756
13 -1667.8982138778665 -44214.858759397815 -1.7208456881689926e-13 5.273559366969494e-16 -1.6893830592266514 -31316.513965365073 -1667.8982138778665 48676.88097873991 -1.7208456881689926e-13 5.273559366969494e-16 -1.6893830592276837 -44702.580623391346
14 -1667.898213877983 -44214.85875939782 -1.3433698597964394e-13 6.661338147750939e-16 1.689383059227557 -31316.5139653651 -1667.898213877983 48676.8809787399 -1.3433698597964394e-13 6.661338147750939e-16 1.6893830592267511 -44702.58062339132
15 108.58541849647402 -1445.8698690688618 1.9984014443252818e-13 3.552713678800501e-15 -1.6893830592277386 -913.2017074972931 108.58541849647402 1445.8698690688595 1.9984014443252818e-13 3.552713678800501e-15 -1.6893830592265395 -913.2017074972864
16 108.58541849647392 -1445.869869068859 2.1405099914773018e-13 5.773159728050814e-15 1.6893830592265129 -913.2017074972849 108.58541849647392 1445.8698690688623 2.1405099914773018e-13 5.773159728050814e-15 1.689383059227854 -913.2017074972944
17 -4718.8858524806565 -45375.38501961356 -3.9457326295178063e-13 2.7755575615628914e-16 -0.6403263369315804 -38073.455566795135 -4718.8858524806565 47516.35471852416 -3.9457326295178063e-13 2.7755575615628914e-16 -0.6403263369339477 -44496.36466352692
18 -4718.88585248054 -45375.385019613575 -3.6293190674996367e-13 8.049116928532385e-16 0.6403263369339219 -38073.45556679516 -4718.88585248054 47516.35471852415 -3.6293190674996367e-13 8.049116928532385e-16 0.6403263369317445 -44496.36466352689
19 59.273033997624054 -1445.8698690688616 4.607980663706712e-13 4.440892098500626e-15 -0.6403263369341069 -1039.6318687125718 59.273033997624054 1445.8698690688598 4.607980663706712e-13 4.440892098500626e-15 -0.6403263369314558 -1039.6318687125668
20 59.27303399762458 -1445.8698690688589 5.065392549852277e-13 4.884981308350689e-15 0.6403263369313764 -1039.631868712565 59.27303399762458 1445.8698690688625 5.065392549852277e-13 4.884981308350689e-15 0.6403263369341883 -1039.6318687125752
21 -28817.907619206235 -45982.19286541803 -3.703704010149522e-13 3.885780586188048e-16 6.121199199848917 -31047.001469423903 -28817.907619206235 46909.54687271969 -3.703704010149522e-13 3.885780586188048e-16 6.121199199846695 -33829.06349132888
22 -28817.907619206235 -45982.19286541803 -3.4772185131259903e-13 -5.551115123125783e-16 -6.121199199846626 -31047.0014694239 -28817.907619206235 46909.54687271969 -3.4772185131259903e-13 -5.551115123125783e-16 -6.121199199848713 -33829.06349132888
23 -311.53138396756464 -1445.8698690688611 3.7569947153315297e-13 -0 6.121199199846659 -687.7665752852263 -311.53138396756464 1445.8698690688602 3.7569947153315297e-13 0 6.1211991998488 -687.766575285224
24 -311.53138396756475 -1445.8698690688602 5.146993942162226e-13 8.881784197001252e-16 -6.121199199849236 -687.7665752852232 -311.53138396756475 1445.8698690688611 5.146993942162226e-13 8.881784197001252e-16 -6.121199199846375 -687.7665752852251
25 57611.22671206535 -464.2549080941823 -2.3960538042953083 3.000222177568298 5.764538187703291 -671.8302604185947 58139.90364598827 328.7604927901968 -2.3960538042953083 3.000222177568298 -11.513651512611293 -183.29819850106236
26 -78566.95283419163 -466.6276682260615 2.3960538042952715 -3.0002221775683364 -5.764538187703252 -625.0792930356764 -78038.27590026871 326.38773265831765 2.3960538042952715 -3.0002221775683364 11.513651512611066 -119.43701447840999
27 39365.120781589765 -360.90078615468275 -3.835840158563723 -0.870186442841022 14.20447104115831 -217.41277594730184 39893.79771551269 432.11461472969637 -3.835840158563723 -0.870186442841022 -13.456165711212535 -474.17788639661603
28 -54410.653575277815 -389.21685425315195 3.8358401585636197 0.8701864428409807 -14.20447104115804 -333.9798617651651 -53881.97664135489 403.79854663122717 3.8358401585636197 0.8701864428409807 13.456165711212051 -386.5549013173579
29 16738.98049463879 -458.05661087800485 -4.231954699136221 2.3637424645348215 14.10406607388255 -519.6577099992157 17267.65742856171 334.9587900063743 -4.231954699136221 2.3637424645348215 -16.412993252470294 -75.82220494867033
30 -29956.734604721598 -470.49657799761167 4.231954699136076 -2.3637424645348197 -14.104066073882052 -573.8751818581707 -29428.057670798677 322.51882288676745 4.231954699136076 -2.3637424645348197 16.412993252469747 -40.33379817796873
31 57611.22671206508 -464.2549080941823 2.3960538042952777 -3.0002221775683218 -5.764538187703284 -671.8302604185947 58139.903645988 328.7604927901968 2.3960538042952777 -3.0002221775683218 11.51365151261108 -183.29819850106213
32 -78566.95283419141 -466.6276682260615 -2.3960538042953092 3.0002221775682894 5.764538187703311 -625.0792930356765 -78038.27590026849 326.38773265831765 -2.3960538042953092 3.0002221775682894 -11.51365151261128 -119.43701447840999
33 39365.12078158949 -360.9007861546828 3.8358401585636366 0.8701864428409958 -14.204471041158108 -217.41277594730207 39893.79771551241 432.1146147296963 3.8358401585636366 0.8701864428409958 13.456165711212112 -474.17788639661586
34 -54410.65357527757 -389.21685425315184 -3.835840158563732 -0.8701864428410291 14.204471041158337 -333.9798617651648 -53881.976641354646 403.7985466312273 -3.835840158563732 -0.8701864428410291 -13.45616571121257 -386.55490131735814
35 16738.98049463879 -458.05661087800496 4.231954699136095 -2.3637424645348135 -14.104066073882093 -519.6577099992161 17267.65742856171 334.95879000637416 4.231954699136095 -2.3637424645348135 16.412993252469843 -75.82220494867022
36 -29956.734604721598 -470.49657799761155 -4.231954699136216 2.3637424645348077 14.10406607388251 -573.8751818581704 -29428.057670798677 322.51882288676757 -4.231954699136216 2.3637424645348077 -16.412993252470297 -40.333798177968845
$EndElementData
$ElementData
1
"AxialForce"
1
0
3
0
1
36
1 -26761.440164049614
2 -43286.551337565055
3 -32555.659631769857
4 -265738.77093431115
5 -150220.82188709214
6 -59395.48664586735
7 -26761.440164050073
8 -43286.55133756521
9 -32555.659631769886
10 -265738.7709343112
11 -150220.82188709226
12 -59395.486645867524
13 -1667.8982138778665
14 -1667.898213877983
15 108.58541849647402
16 108.58541849647392
17 -4718.8858524806565
18 -4718.88585248054
19 59.273033997624054
20 59.27303399762458
21 -28817.907619206235
22 -28817.907619206235
23 -311.53138396756464
24 -311.53138396756475
25 57875.56517902681
26 -78302.61436723017
27 39629.459248551226
28 -54146.315108316354
29 17003.31896160025
30 -29692.396137760137
31 57875.56517902654
32 -78302.61436722995
33 39629.45924855095
34 -54146.31510831611
35 17003.31896160025
36 -29692.396137760137
$EndElementData
$ElementData
1
"VonMisesStress"
1
0
3
0
1
36
1 22219786.2753972
2 39251127.28973902
3 55167172.54761866
4 69279290.08428684
5 57892635.06113817
6 62897418.00714747
7 22219786.27539727
8 39251127.28973907
9 55167172.547618635
10 69279290.08428682
11 57892635.06113818
12 62897418.00714752
13 73763234.79158096
14 73763234.79158092
15 1795146.458910633
16 1795146.4589106333
17 73451461.01062676
18 73451461.01062669
19 1863978.404588004
20 1863978.4045880118
21 63917714.51732698
22 63917714.517326996
23 2188661.3425479173
24 2188661.3425479173
25 48510945.430319875
26 59674904.412730835
27 33800050.71869274
28 39996269.98841876
29 21335687.238256697
30 30234246.53997488
31 48510945.43031972
32 59674904.412730716
33 33800050.718692586
34 39996269.98841862
35 21335687.238256704
36 30234246.53997488
$EndElementData
$NodeData
1
"Fixity"
1
0
3
0
3
16
1 1 1 1
2 1 1 1
3 1 1 1
4 1 1 1
5 0 0 0
6 0 0 0
7 0 0 0
8 0 0 0
9 0 0 0
10 0 0 0
11 0 0 0
12 0 0 0
13 0 0 0
14 0 0 0
15 0 0 0
16 0 0 0
$EndNodeData
$NodeData
1
"FixityRotation"
1
0
3
0
3
16
1 1 1 1
2 1 1 1
3 1 1 1
4 1 1 1
5 0 0 0
6 0 0 0
7 0 0 0
8 0 0 0
9 0 0 0
10 0 0 0
11 0 0 0
12 0 0 0
13 0 0 0
14 0 0 0
15 0 0 0
16 0 0 0
$EndNodeData
$NodeData
1
"NodalForce"
1
0
3
0
3
16
1 0 0 0
2 0 0 0
3 0 0 0
4 0 0 0
5 40000 0 0
6 0 0 0
7 40000 0 0
8 0 0 0
9 40000 0 0
10 0 0 0
11 40000 0 0
12 0 0 0
13 40000 0 0
14 0 0 0
15 40000 0 0
16 0 0 0
$EndNodeData
$ElementData
1
"CrossSectionArea"
1
0
3
0
1
36
1 0.007683557639766901
2 0.007683557639766901
3 0.007683557639766901
4 0.007683557639766901
5 0.007683557639766901
6 0.007683557639766901
7 0.007683557639766901
8 0.007683557639766901
9 0.007683557639766901
10 0.007683557639766901
11 0.007683557639766901
12 0.007683557639766901
13 0.006260623980236907
14 0.006260623980236907
15 0.006260623980236907
16 0.006260623980236907
17 0.006260623980236907
18 0.006260623980236907
19 0.006260623980236907
20 0.006260623980236907
21 0.006260623980236907
22 0.006260623980236907
23 0.006260623980236907
24 0.006260623980236907
25 0.0017168803851868209
26 0.0017168803851868209
27 0.0017168803851868209
28 0.0017168803851868209
29 0.0017168803851868209
30 0.0017168803851868209
31 0.0017168803851868209
32 0.0017168803851868209
33 0.0017168803851868209
34 0.0017168803851868209
35 0.0017168803851868209
36 0.0017168803851868209
$EndElementData
$ElementData
1
"Attribute:ElementFormulation"
1
0
3
0
1
36
1 1
2 1
3 1
4 1
5 1
6 1
7 1
8 1
9 1
10 1
11 1
12 1
13 1
14 1
15 1
16 1
17 1
18 1
19 1
20 1
21 1
22 1
23 1
24 1
25 1
26 1
27 1
28 1
29 1
30 1
31 1
32 1
33 1
34 1
35 1
36 1
$EndElementData
$ElementData
1
"MaterialID"
1
0
3
0
1
36
1 3
2 3
3 3
4 3
5 3
6 3
7 3
8 3
9 3
10 3
11 3
12 3
13 3
14 3
15 3
16 3
17 3
18 3
19 3
20 3
21 3
22 3
23 3
24 3
25 3
26 3
27 3
28 3
29 3
30 3
31 3
32 3
33 3
34 3
35 3
36 3
$EndElementData
$ElementData
1
"Attribute:SecondMomentY"
1
0
3
0
1
36
1 2.7688082381494004e-05
2 2.7688082381494004e-05
3 2.7688082381494004e-05
4 2.7688082381494004e-05
5 2.7688082381494004e-05
6 2.7688082381494004e-05
7 2.7688082381494004e-05
8 2.7688082381494004e-05
9 2.7688082381494004e-05
10 2.7688082381494004e-05
11 2.7688082381494004e-05
12 2.7688082381494004e-05
13 7.88142170321668e-06
14 7.88142170321668e-06
15 7.88142170321668e-06
16 7.88142170321668e-06
17 7.88142170321668e-06
18 7.88142170321668e-06
19 7.88142170321668e-06
20 7.88142170321668e-06
21 7.88142170321668e-06
22 7.88142170321668e-06
23 7.88142170321668e-06
24 7.88142170321668e-06
25 2.569202045307523e-06
26 2.569202045307523e-06
27 2.569202045307523e-06
28 2.569202045307523e-06
29 2.569202045307523e-06
30 2.569202045307523e-06
31 2.569202045307523e-06
32 2.569202045307523e-06
33 2.569202045307523e-06
34 2.569202045307523e-06
35 2.569202045307523e-06
36 2.569202045307523e-06
$EndElementData
$ElementData
1
"Attribute:SecondMomentZ"
1
0
3
0
1
36
1 7.763183554957692e-05
2 7.763183554957692e-05
3 7.763183554957692e-05
4 7.763183554957692e-05
5 7.763183554957692e-05
6 7.763183554957692e-05
7 7.763183554957692e-05
8 7.763183554957692e-05
9 7.763183554957692e-05
10 7.763183554957692e-05
11 7.763183554957692e-05
12 7.763183554957692e-05
13 0.00011766904739221053
14 0.00011766904739221053
15 0.00011766904739221053
16 0.00011766904739221053
17 0.00011766904739221053
18 0.00011766904739221053
19 0.00011766904739221053
20 0.00011766904739221053
21 0.00011766904739221053
22 0.00011766904739221053
23 0.00011766904739221053
24 0.00011766904739221053
25 2.569202045307523e-06
26 2.569202045307523e-06
27 2.569202045307523e-06
28 2.569202045307523e-06
29 2.569202045307523e-06
30 2.569202045307523e-06
31 2.569202045307523e-06
32 2.569202045307523e-06
33 2.569202045307523e-06
34 2.569202045307523e-06
35 2.569202045307523e-06
36 2.569202045307523e-06
$EndElementData
$ElementData
1
"Attribute:SectionDimension1"
1
0
3
0
1
36
1 0.23
2 0.23
3 0.23
4 0.23
5 0.23
6 0.23
7 0.23
8 0.23
9 0.23
10 0.23
11 0.23
12 0.23
13 0.33
14 0.33
15 0.33
16 0.33
17 0.33
18 0.33
19 0.33
20 0.33
21 0.33
22 0.33
23 0.33
24 0.33
25 0.1143
26 0.1143
27 0.1143
28 0.1143
29 0.1143
30 0.1143
31 0.1143
32 0.1143
33 0.1143
34 0.1143
35 0.1143
36 0.1143
$EndElementData
$ElementData
1
"Attribute:SectionDimension2"
1
0
3
0
1
36
1 0.24
2 0.24
3 0.24
4 0.24
5 0.24
6 0.24
7 0.24
8 0.24
9 0.24
10 0.24
11 0.24
12 0.24
13 0.16
14 0.16
15 0.16
16 0.16
17 0.16
18 0.16
19 0.16
20 0.16
21 0.16
22 0.16
23 0.16
24 0.16
25 0.005
26 0.005
27 0.005
28 0.005
29 0.005
30 0.005
31 0.005
32 0.005
33 0.005
34 0.005
35 0.005
36 0.005
$EndElementData
$ElementData
1
"Attribute:SectionDimension3"
1
0
3
0
1
36
1 0.0075
2 0.0075
3 0.0075
4 0.0075
5 0.0075
6 0.0075
7 0.0075
8 0.0075
9 0.0075
10 0.0075
11 0.0075
12 0.0075
13 0.0075
14 0.0075
15 0.0075
16 0.0075
17 0.0075
18 0.0075
19 0.0075
20 0.0075
21 0.0075
22 0.0075
23 0.0075
24 0.0075
25 0
26 0
27 0
28 0
29 0
30 0
31 0
32 0
33 0
34 0
35 0
36 0
$EndElementData
$ElementData
1
"Attribute:SectionDimension4"
1
0
3
0
1
36
1 0.012
2 0.012
3 0.012
4 0.012
5 0.012
6 0.012
7 0.012
8 0.012
9 0.012
10 0.012
11 0.012
12 0.012
13 0.0115
14 0.0115
15 0.0115
16 0.0115
17 0.0115
18 0.0115
19 0.0115
20 0.0115
21 0.0115
22 0.0115
23 0.0115
24 0.0115
25 0
26 0
27 0
28 0
29 0
30 0
31 0
32 0
33 0
34 0
35 0
36 0
$EndElementData
$ElementData
1
"Attribute:SectionDimension5"
1
0
3
0
1
36
1 0.021
2 0.021
3 0.021
4 0.021
5 0.021
6 0.021
7 0.021
8 0.021
9 0.021
10 0.021
11 0.021
12 0.021
13 0.018
14 0.018
15 0.018
16 0.018
17 0.018
18 0.018
19 0.018
20 0.018
21 0.018
22 0.018
23 0.018
24 0.018
25 0
26 0
27 0
28 0
29 0
30 0
31 0
32 0
33 0
34 0
35 0
36 0
$EndElementData
$ElementData
1
"Attribute:SectionShape"
1
0
3
0
1
36
1 5
2 5
3 5
4 5
5 5
6 5
7 5
8 5
9 5
10 5
11 5
12 5
13 5
14 5
15 5
16 5
17 5
18 5
19 5
20 5
21 5
22 5
23 5
24 5
25 3
26 3
27 3
28 3
29 3
30 3
31 3
32 3
33 3
34 3
35 3
36 3
$EndElementData
$ElementData
1
"Attribute:ShearAreaY"
1
0
3
0
1
36
1 0.0015450744590875798
2 0.0015450744590875798
3 0.0015450744590875798
4 0.0015450744590875798
5 0.0015450744590875798
6 0.0015450744590875798
7 0.0015450744590875798
8 0.0015450744590875798
9 0.0015450744590875798
10 0.0015450744590875798
11 0.0015450744590875798
12 0.0015450744590875798
13 0.002383803872062541
14 0.002383803872062541
15 0.002383803872062541
16 0.002383803872062541
17 0.002383803872062541
18 0.002383803872062541
19 0.002383803872062541
20 0.002383803872062541
21 0.002383803872062541
22 0.002383803872062541
23 0.002383803872062541
24 0.002383803872062541
25 0.0009140558528542028
26 0.0009140558528542028
27 0.0009140558528542028
28 0.0009140558528542028
29 0.0009140558528542028
30 0.0009140558528542028
31 0.0009140558528542028
32 0.0009140558528542028
33 0.0009140558528542028
34 0.0009140558528542028
35 0.0009140558528542028
36 0.0009140558528542028
$EndElementData
$ElementData
1
"Attribute:ShearAreaZ"
1
0
3
0
1
36
1 0.004894117647058824
2 0.004894117647058824
3 0.004894117647058824
4 0.004894117647058824
5 0.004894117647058824
6 0.004894117647058824
7 0.004894117647058824
8 0.004894117647058824
9 0.004894117647058824
10 0.004894117647058824
11 0.004894117647058824
12 0.004894117647058824
13 0.0031267973856209147
14 0.0031267973856209147
15 0.0031267973856209147
16 0.0031267973856209147
17 0.0031267973856209147
18 0.0031267973856209147
19 0.0031267973856209147
20 0.0031267973856209147
21 0.0031267973856209147
22 0.0031267973856209147
23 0.0031267973856209147
24 0.0031267973856209147
25 0.0009140558528542028
26 0.0009140558528542028
27 0.0009140558528542028
28 0.0009140558528542028
29 0.0009140558528542028
30 0.0009140558528542028
31 0.0009140558528542028
32 0.0009140558528542028
33 0.0009140558528542028
34 0.0009140558528542028
35 0.0009140558528542028
36 0.0009140558528542028
$EndElementData
$ElementData
1
"Attribute:TorsionConstant"
1
0
3
0
1
36
1 4.1551940145423884e-07
2 4.1551940145423884e-07
3 4.1551940145423884e-07
4 4.1551940145423884e-07
5 4.1551940145423884e-07
6 4.1551940145423884e-07
7 4.1551940145423884e-07
8 4.1551940145423884e-07
9 4.1551940145423884e-07
10 4.1551940145423884e-07
11 4.1551940145423884e-07
12 4.1551940145423884e-07
13 2.814528996249501e-07
14 2.814528996249501e-07
15 2.814528996249501e-07
16 2.814528996249501e-07
17 2.814528996249501e-07
18 2.814528996249501e-07
19 2.814528996249501e-07
20 2.814528996249501e-07
21 2.814528996249501e-07
22 2.814528996249501e-07
23 2.814528996249501e-07
24 2.814528996249501e-07
25 5.138404090615046e-06
26 5.138404090615046e-06
27 5.138404090615046e-06
28 5.138404090615046e-06
29 5.138404090615046e-06
30 5.138404090615046e-06
31 5.138404090615046e-06
32 5.138404090615046e-06
33 5.138404090615046e-06
34 5.138404090615046e-06
35 5.138404090615046e-06
36 5.138404090615046e-06
$EndElementData
$ElementData
1
"Attribute:UniformLoadGlobalX"
1
0
3
0
1
36
1 0
2 0
3 0
4 0
5 0
6 0
7 0
8 0
9 0
10 0
11 0
12 0
13 0
14 0
15 0
16 0
17 0
18 0
19 0
20 0
21 0
22 0
23 0
24 0
25 0
26 0
27 0
28 0
29 0
30 0
31 0
32 0
33 0
34 0
35 0
36 0
$EndElementData
$ElementData
1
"Attribute:UniformLoadGlobalY"
1
0
3
0
1
36
1 0
2 0
3 0
4 0
5 0
6 0
7 0
8 0
9 0
10 0
11 0
12 0
13 -15000
14 -15000
15 0
16 0
17 -15000
18 -15000
19 0
20 0
21 -15000
22 -15000
23 0
24 0
25 0
26 0
27 0
28 0
29 0
30 0
31 0
32 0
33 0
34 0
35 0
36 0
$EndElementData
$ElementData
1
"Attribute:UniformLoadGlobalZ"
1
0
3
0
1
36
1 0
2 0
3 0
4 0
5 0
6 0
7 0
8 0
9 0
10 0
11 0
12 0
13 0
14 0
15 0
16 0
17 0
18 0
19 0
20 0
21 0
22 0
23 0
24 0
25 0
26 0
27 0
28 0
29 0
30 0
31 0
32 0
33 0
34 0
35 0
36 0
$EndElementData
$ElementData
1
"Attribute:UniformLoadLocalX"
1
0
3
0
1
36
1 0
2 0
3 0
4 0
5 0
6 0
7 0
8 0
9 0
10 0
11 0
12 0
13 0
14 0
15 0
16 0
17 0
18 0
19 0
20 0
21 0
22 0
23 0
24 0
25 0
26 0
27 0
28 0
29 0
30 0
31 0
32 0
33 0
34 0
35 0
36 0
$EndElementData
$ElementData
1
"Attribute:UniformLoadLocalY"
1
0
3
0
1
36
1 0
2 0
3 0
4 0
5 0
6 0
7 0
8 0
9 0
10 0
11 0
12 0
13 0
14 0
15 0
16 0
17 0
18 0
19 0
20 0
21 0
22 0
23 0
24 0
25 0
26 0
27 0
28 0
29 0
30 0
31 0
32 0
33 0
34 0
35 0
36 0
$EndElementData
$ElementData
1
"Attribute:UniformLoadLocalZ"
1
0
3
0
1
36
1 0
2 0
3 0
4 0
5 0
6 0
7 0
8 0
9 0
10 0
11 0
12 0
13 0
14 0
15 0
16 0
17 0
18 0
19 0
20 0
21 0
22 0
23 0
24 0
25 0
26 0
27 0
28 0
29 0
30 0
31 0
32 0
33 0
34 0
35 0
36 0
$EndElementData
$ElementData
1
"BeamOrientation"
1
0
3
0
3
36
1 1 0 0
2 1 0 0
3 1 0 0
4 1 0 0
5 1 0 0
6 1 0 0
7 1 0 0
8 1 0 0
9 1 0 0
10 1 0 0
11 1 0 0
12 1 0 0
13 0 0 0
14 0 0 0
15 0 0 0
16 0 0 0
17 0 0 0
18 0 0 0
19 0 0 0
20 0 0 0
21 0 0 0
22 0 0 0
23 0 0 0
24 0 0 0
25 0 0 0
26 0 0 0
27 0 0 0
28 0 0 0
29 0 0 0
30 0 0 0
31 0 0 0
32 0 0 0
33 0 0 0
34 0 0 0
35 0 0 0
36 0 0 0
$EndElementData
$AnafData
1
1
GLOBAL 3 1
"Gravity"
0 -9.80665 0
$EndAnafData
