$MeshFormat
4.1 0 8
$EndMeshFormat
$PhysicalNames
4
1 1 "Material:Douglas Fir (along the grain)"
1 2 "Section:Rect 140x60"
1 3 "Section:Rect 200x100"
1 4 "Section:Rect 300x120"
$EndPhysicalNames
$Entities
0 3 0 0
1 0 2.7 0 5 2.7 3 2 1 4 0
2 0 0 0 5 2.7 3 2 1 3 0
3 0 2.7 -0.4 5 2.7 3.4 2 1 2 0
$EndEntities
$Nodes
1 34 1 34
1 1 0 34
1
2
3
4
5
6
7
8
9
10
11
12
13
14
15
16
17
18
19
20
21
22
23
24
25
26
27
28
29
30
31
32
33
34
0 2.7 0
0.8333333333333334 2.7 0
1.6666666666666667 2.7 0
2.5 2.7 0
3.3333333333333335 2.7 0
4.166666666666667 2.7 0
5 2.7 0
0 0 0
2.5 0 0
5 0 0
0 2.7 3
0.8333333333333334 2.7 3
1.6666666666666667 2.7 3
2.5 2.7 3
3.3333333333333335 2.7 3
4.166666666666667 2.7 3
5 2.7 3
0 0 3
2.5 0 3
5 0 3
0 2.7 -0.4
0 2.7 3.4
0.8333333333333334 2.7 -0.4
0.8333333333333334 2.7 3.4
1.6666666666666667 2.7 -0.4
1.6666666666666667 2.7 3.4
2.5 2.7 -0.4
2.5 2.7 3.4
3.3333333333333335 2.7 -0.4
3.3333333333333335 2.7 3.4
4.166666666666667 2.7 -0.4
4.166666666666667 2.7 3.4
5 2.7 -0.4
5 2.7 3.4
$EndNodes
$Elements
3 39 1 39
1 1 1 12
1 1 2
2 2 3
3 3 4
4 4 5
5 5 6
6 6 7
10 11 12
11 12 13
12 13 14
13 14 15
14 15 16
15 16 17
1 2 1 6
7 8 1
8 9 4
9 10 7
16 18 11
17 19 14
18 20 17
1 3 1 21
19 21 1
20 1 11
21 11 22
22 23 2
23 2 12
24 12 24
25 25 3
26 3 13
27 13 26
28 27 4
29 4 14
30 14 28
31 29 5
32 5 15
33 15 30
34 31 6
35 6 16
36 16 32
37 33 7
38 7 17
39 17 34
$EndElements
$NodeData
1
"Fixity"
1
0
3
0
3
34
1 0 0 0
2 0 0 0
3 0 0 0
4 0 0 0
5 0 0 0
6 0 0 0
7 0 0 0
8 1 1 1
9 1 1 1
10 1 1 1
11 0 0 0
12 0 0 0
13 0 0 0
14 0 0 0
15 0 0 0
16 0 0 0
17 0 0 0
18 1 1 1
19 1 1 1
20 1 1 1
21 0 0 0
22 0 0 0
23 0 0 0
24 0 0 0
25 0 0 0
26 0 0 0
27 0 0 0
28 0 0 0
29 0 0 0
30 0 0 0
31 0 0 0
32 0 0 0
33 0 0 0
34 0 0 0
$EndNodeData
$NodeData
1
"FixityRotation"
1
0
3
0
3
34
1 0 0 0
2 0 0 0
3 0 0 0
4 0 0 0
5 0 0 0
6 0 0 0
7 0 0 0
8 1 1 1
9 1 1 1
10 1 1 1
11 0 0 0
12 0 0 0
13 0 0 0
14 0 0 0
15 0 0 0
16 0 0 0
17 0 0 0
18 1 1 1
19 1 1 1
20 1 1 1
21 0 0 0
22 0 0 0
23 0 0 0
24 0 0 0
25 0 0 0
26 0 0 0
27 0 0 0
28 0 0 0
29 0 0 0
30 0 0 0
31 0 0 0
32 0 0 0
33 0 0 0
34 0 0 0
$EndNodeData
$ElementData
1
"CrossSectionArea"
1
0
3
0
1
39
1 0.036
2 0.036
3 0.036
4 0.036
5 0.036
6 0.036
7 0.020000000000000004
8 0.020000000000000004
9 0.020000000000000004
10 0.036
11 0.036
12 0.036
13 0.036
14 0.036
15 0.036
16 0.020000000000000004
17 0.020000000000000004
18 0.020000000000000004
19 0.008400000000000001
20 0.008400000000000001
21 0.008400000000000001
22 0.008400000000000001
23 0.008400000000000001
24 0.008400000000000001
25 0.008400000000000001
26 0.008400000000000001
27 0.008400000000000001
28 0.008400000000000001
29 0.008400000000000001
30 0.008400000000000001
31 0.008400000000000001
32 0.008400000000000001
33 0.008400000000000001
34 0.008400000000000001
35 0.008400000000000001
36 0.008400000000000001
37 0.008400000000000001
38 0.008400000000000001
39 0.008400000000000001
$EndElementData
$ElementData
1
"Attribute:ElementFormulation"
1
0
3
0
1
39
1 1
2 1
3 1
4 1
5 1
6 1
7 1
8 1
9 1
10 1
11 1
12 1
13 1
14 1
15 1
16 1
17 1
18 1
19 1
20 1
21 1
22 1
23 1
24 1
25 1
26 1
27 1
28 1
29 1
30 1
31 1
32 1
33 1
34 1
35 1
36 1
37 1
38 1
39 1
$EndElementData
$ElementData
1
"MaterialID"
1
0
3
0
1
39
1 18
2 18
3 18
4 18
5 18
6 18
7 18
8 18
9 18
10 18
11 18
12 18
13 18
14 18
15 18
16 18
17 18
18 18
19 18
20 18
21 18
22 18
23 18
24 18
25 18
26 18
27 18
28 18
29 18
30 18
31 18
32 18
33 18
34 18
35 18
36 18
37 18
38 18
39 18
$EndElementData
$ElementData
1
"Attribute:SecondMomentY"
1
0
3
0
1
39
1 4.319999999999999e-05
2 4.319999999999999e-05
3 4.319999999999999e-05
4 4.319999999999999e-05
5 4.319999999999999e-05
6 4.319999999999999e-05
7 1.666666666666667e-05
8 1.666666666666667e-05
9 1.666666666666667e-05
10 4.319999999999999e-05
11 4.319999999999999e-05
12 4.319999999999999e-05
13 4.319999999999999e-05
14 4.319999999999999e-05
15 4.319999999999999e-05
16 1.666666666666667e-05
17 1.666666666666667e-05
18 1.666666666666667e-05
19 2.5200000000000004e-06
20 2.5200000000000004e-06
21 2.5200000000000004e-06
22 2.5200000000000004e-06
23 2.5200000000000004e-06
24 2.5200000000000004e-06
25 2.5200000000000004e-06
26 2.5200000000000004e-06
27 2.5200000000000004e-06
28 2.5200000000000004e-06
29 2.5200000000000004e-06
30 2.5200000000000004e-06
31 2.5200000000000004e-06
32 2.5200000000000004e-06
33 2.5200000000000004e-06
34 2.5200000000000004e-06
35 2.5200000000000004e-06
36 2.5200000000000004e-06
37 2.5200000000000004e-06
38 2.5200000000000004e-06
39 2.5200000000000004e-06
$EndElementData
$ElementData
1
"Attribute:SecondMomentZ"
1
0
3
0
1
39
1 0.00026999999999999995
2 0.00026999999999999995
3 0.00026999999999999995
4 0.00026999999999999995
5 0.00026999999999999995
6 0.00026999999999999995
7 6.666666666666668e-05
8 6.666666666666668e-05
9 6.666666666666668e-05
10 0.00026999999999999995
11 0.00026999999999999995
12 0.00026999999999999995
13 0.00026999999999999995
14 0.00026999999999999995
15 0.00026999999999999995
16 6.666666666666668e-05
17 6.666666666666668e-05
18 6.666666666666668e-05
19 1.3720000000000004e-05
20 1.3720000000000004e-05
21 1.3720000000000004e-05
22 1.3720000000000004e-05
23 1.3720000000000004e-05
24 1.3720000000000004e-05
25 1.3720000000000004e-05
26 1.3720000000000004e-05
27 1.3720000000000004e-05
28 1.3720000000000004e-05
29 1.3720000000000004e-05
30 1.3720000000000004e-05
31 1.3720000000000004e-05
32 1.3720000000000004e-05
33 1.3720000000000004e-05
34 1.3720000000000004e-05
35 1.3720000000000004e-05
36 1.3720000000000004e-05
37 1.3720000000000004e-05
38 1.3720000000000004e-05
39 1.3720000000000004e-05
$EndElementData
$ElementData
1
"Attribute:SectionDimension1"
1
0
3
0
1
39
1 0.3
2 0.3
3 0.3
4 0.3
5 0.3
6 0.3
7 0.2
8 0.2
9 0.2
10 0.3
11 0.3
12 0.3
13 0.3
14 0.3
15 0.3
16 0.2
17 0.2
18 0.2
19 0.14
20 0.14
21 0.14
22 0.14
23 0.14
24 0.14
25 0.14
26 0.14
27 0.14
28 0.14
29 0.14
30 0.14
31 0.14
32 0.14
33 0.14
34 0.14
35 0.14
36 0.14
37 0.14
38 0.14
39 0.14
$EndElementData
$ElementData
1
"Attribute:SectionDimension2"
1
0
3
0
1
39
1 0.12
2 0.12
3 0.12
4 0.12
5 0.12
6 0.12
7 0.1
8 0.1
9 0.1
10 0.12
11 0.12
12 0.12
13 0.12
14 0.12
15 0.12
16 0.1
17 0.1
18 0.1
19 0.06
20 0.06
21 0.06
22 0.06
23 0.06
24 0.06
25 0.06
26 0.06
27 0.06
28 0.06
29 0.06
30 0.06
31 0.06
32 0.06
33 0.06
34 0.06
35 0.06
36 0.06
37 0.06
38 0.06
39 0.06
$EndElementData
$ElementData
1
"Attribute:SectionDimension3"
1
0
3
0
1
39
1 0
2 0
3 0
4 0
5 0
6 0
7 0
8 0
9 0
10 0
11 0
12 0
13 0
14 0
15 0
16 0
17 0
18 0
19 0
20 0
21 0
22 0
23 0
24 0
25 0
26 0
27 0
28 0
29 0
30 0
31 0
32 0
33 0
34 0
35 0
36 0
37 0
38 0
39 0
$EndElementData
$ElementData
1
"Attribute:SectionDimension4"
1
0
3
0
1
39
1 0
2 0
3 0
4 0
5 0
6 0
7 0
8 0
9 0
10 0
11 0
12 0
13 0
14 0
15 0
16 0
17 0
18 0
19 0
20 0
21 0
22 0
23 0
24 0
25 0
26 0
27 0
28 0
29 0
30 0
31 0
32 0
33 0
34 0
35 0
36 0
37 0
38 0
39 0
$EndElementData
$ElementData
1
"Attribute:SectionDimension5"
1
0
3
0
1
39
1 0
2 0
3 0
4 0
5 0
6 0
7 0
8 0
9 0
10 0
11 0
12 0
13 0
14 0
15 0
16 0
17 0
18 0
19 0
20 0
21 0
22 0
23 0
24 0
25 0
26 0
27 0
28 0
29 0
30 0
31 0
32 0
33 0
34 0
35 0
36 0
37 0
38 0
39 0
$EndElementData
$ElementData
1
"Attribute:SectionShape"
1
0
3
0
1
39
1 1
2 1
3 1
4 1
5 1
6 1
7 1
8 1
9 1
10 1
11 1
12 1
13 1
14 1
15 1
16 1
17 1
18 1
19 1
20 1
21 1
22 1
23 1
24 1
25 1
26 1
27 1
28 1
29 1
30 1
31 1
32 1
33 1
34 1
35 1
36 1
37 1
38 1
39 1
$EndElementData
$ElementData
1
"Attribute:ShearAreaY"
1
0
3
0
1
39
1 0.030572745227123107
2 0.030572745227123107
3 0.030572745227123107
4 0.030572745227123107
5 0.030572745227123107
6 0.030572745227123107
7 0.016984858459512843
8 0.016984858459512843
9 0.016984858459512843
10 0.030572745227123107
11 0.030572745227123107
12 0.030572745227123107
13 0.030572745227123107
14 0.030572745227123107
15 0.030572745227123107
16 0.016984858459512843
17 0.016984858459512843
18 0.016984858459512843
19 0.0071336405529953935
20 0.0071336405529953935
21 0.0071336405529953935
22 0.0071336405529953935
23 0.0071336405529953935
24 0.0071336405529953935
25 0.0071336405529953935
26 0.0071336405529953935
27 0.0071336405529953935
28 0.0071336405529953935
29 0.0071336405529953935
30 0.0071336405529953935
31 0.0071336405529953935
32 0.0071336405529953935
33 0.0071336405529953935
34 0.0071336405529953935
35 0.0071336405529953935
36 0.0071336405529953935
37 0.0071336405529953935
38 0.0071336405529953935
39 0.0071336405529953935
$EndElementData
$ElementData
1
"Attribute:ShearAreaZ"
1
0
3
0
1
39
1 0.030572745227123107
2 0.030572745227123107
3 0.030572745227123107
4 0.030572745227123107
5 0.030572745227123107
6 0.030572745227123107
7 0.016984858459512843
8 0.016984858459512843
9 0.016984858459512843
10 0.030572745227123107
11 0.030572745227123107
12 0.030572745227123107
13 0.030572745227123107
14 0.030572745227123107
15 0.030572745227123107
16 0.016984858459512843
17 0.016984858459512843
18 0.016984858459512843
19 0.0071336405529953935
20 0.0071336405529953935
21 0.0071336405529953935
22 0.0071336405529953935
23 0.0071336405529953935
24 0.0071336405529953935
25 0.0071336405529953935
26 0.0071336405529953935
27 0.0071336405529953935
28 0.0071336405529953935
29 0.0071336405529953935
30 0.0071336405529953935
31 0.0071336405529953935
32 0.0071336405529953935
33 0.0071336405529953935
34 0.0071336405529953935
35 0.0071336405529953935
36 0.0071336405529953935
37 0.0071336405529953935
38 0.0071336405529953935
39 0.0071336405529953935
$EndElementData
$ElementData
1
"Attribute:TorsionConstant"
1
0
3
0
1
39
1 0.00012934729727999997
2 0.00012934729727999997
3 0.00012934729727999997
4 0.00012934729727999997
5 0.00012934729727999997
6 0.00012934729727999997
7 4.577604166666668e-05
8 4.577604166666668e-05
9 4.577604166666668e-05
10 0.00012934729727999997
11 0.00012934729727999997
12 0.00012934729727999997
13 0.00012934729727999997
14 0.00012934729727999997
15 0.00012934729727999997
16 4.577604166666668e-05
17 4.577604166666668e-05
18 4.577604166666668e-05
19 7.366051311953354e-06
20 7.366051311953354e-06
21 7.366051311953354e-06
22 7.366051311953354e-06
23 7.366051311953354e-06
24 7.366051311953354e-06
25 7.366051311953354e-06
26 7.366051311953354e-06
27 7.366051311953354e-06
28 7.366051311953354e-06
29 7.366051311953354e-06
30 7.366051311953354e-06
31 7.366051311953354e-06
32 7.366051311953354e-06
33 7.366051311953354e-06
34 7.366051311953354e-06
35 7.366051311953354e-06
36 7.366051311953354e-06
37 7.366051311953354e-06
38 7.366051311953354e-06
39 7.366051311953354e-06
$EndElementData
$ElementData
1
"Attribute:UniformLoadGlobalX"
1
0
3
0
1
39
1 0
2 0
3 0
4 0
5 0
6 0
7 0
8 0
9 0
10 0
11 0
12 0
13 0
14 0
15 0
16 0
17 0
18 0
19 0
20 0
21 0
22 0
23 0
24 0
25 0
26 0
27 0
28 0
29 0
30 0
31 0
32 0
33 0
34 0
35 0
36 0
37 0
38 0
39 0
$EndElementData
$ElementData
1
"Attribute:UniformLoadGlobalY"
1
0
3
0
1
39
1 0
2 0
3 0
4 0
5 0
6 0
7 0
8 0
9 0
10 0
11 0
12 0
13 0
14 0
15 0
16 0
17 0
18 0
19 -800
20 -800
21 -800
22 -800
23 -800
24 -800
25 -800
26 -800
27 -800
28 -800
29 -800
30 -800
31 -800
32 -800
33 -800
34 -800
35 -800
36 -800
37 -800
38 -800
39 -800
$EndElementData
$ElementData
1
"Attribute:UniformLoadGlobalZ"
1
0
3
0
1
39
1 0
2 0
3 0
4 0
5 0
6 0
7 0
8 0
9 0
10 0
11 0
12 0
13 0
14 0
15 0
16 0
17 0
18 0
19 0
20 0
21 0
22 0
23 0
24 0
25 0
26 0
27 0
28 0
29 0
30 0
31 0
32 0
33 0
34 0
35 0
36 0
37 0
38 0
39 0
$EndElementData
$ElementData
1
"Attribute:UniformLoadLocalX"
1
0
3
0
1
39
1 0
2 0
3 0
4 0
5 0
6 0
7 0
8 0
9 0
10 0
11 0
12 0
13 0
14 0
15 0
16 0
17 0
18 0
19 0
20 0
21 0
22 0
23 0
24 0
25 0
26 0
27 0
28 0
29 0
30 0
31 0
32 0
33 0
34 0
35 0
36 0
37 0
38 0
39 0
$EndElementData
$ElementData
1
"Attribute:UniformLoadLocalY"
1
0
3
0
1
39
1 0
2 0
3 0
4 0
5 0
6 0
7 0
8 0
9 0
10 0
11 0
12 0
13 0
14 0
15 0
16 0
17 0
18 0
19 0
20 0
21 0
22 0
23 0
24 0
25 0
26 0
27 0
28 0
29 0
30 0
31 0
32 0
33 0
34 0
35 0
36 0
37 0
38 0
39 0
$EndElementData
$ElementData
1
"Attribute:UniformLoadLocalZ"
1
0
3
0
1
39
1 0
2 0
3 0
4 0
5 0
6 0
7 0
8 0
9 0
10 0
11 0
12 0
13 0
14 0
15 0
16 0
17 0
18 0
19 0
20 0
21 0
22 0
23 0
24 0
25 0
26 0
27 0
28 0
29 0
30 0
31 0
32 0
33 0
34 0
35 0
36 0
37 0
38 0
39 0
$EndElementData
$ElementData
1
"BeamOrientation"
1
0
3
0
3
39
1 0 0 0
2 0 0 0
3 0 0 0
4 0 0 0
5 0 0 0
6 0 0 0
7 1 0 0
8 1 0 0
9 1 0 0
10 0 0 0
11 0 0 0
12 0 0 0
13 0 0 0
14 0 0 0
15 0 0 0
16 1 0 0
17 1 0 0
18 1 0 0
19 0 0 0
20 0 0 0
21 0 0 0
22 0 0 0
23 0 0 0
24 0 0 0
25 0 0 0
26 0 0 0
27 0 0 0
28 0 0 0
29 0 0 0
30 0 0 0
31 0 0 0
32 0 0 0
33 0 0 0
34 0 0 0
35 0 0 0
36 0 0 0
37 0 0 0
38 0 0 0
39 0 0 0
$EndElementData
$AnafData
1
1
GLOBAL 3 1
"Gravity"
0 -9.80665 0
$EndAnafData
