$MeshFormat
4.1 0 8
$EndMeshFormat
$PhysicalNames
5
1 1 "Material:Structural Steel S355 (EN 10025)"
1 2 "Section:IPE 200"
1 3 "Section:IPE 360"
1 4 "Section:HEB 260"
1 5 "Section:CHS 114.3x5"
$EndPhysicalNames
$Entities
0 4 0 0
1 0 0 0 0 4.5 18 2 1 4 0
2 -1.5 4.5 0 5 4.5 18 2 1 3 0
3 -1.5 0 0 0 4.5 18 2 1 5 0
4 5 4.5 0 5 4.5 18 2 1 2 0
$EndEntities
$Nodes
1 16 1 16
1 1 0 16
1
2
3
4
5
6
7
8
9
10
11
12
13
14
15
16
0 0 0
0 4.5 0
5 4.5 0
-1.5 4.5 0
0 0 6
0 4.5 6
5 4.5 6
-1.5 4.5 6
0 0 12
0 4.5 12
5 4.5 12
-1.5 4.5 12
0 0 18
0 4.5 18
5 4.5 18
-1.5 4.5 18
$EndNodes
$Elements
4 19 1 19
1 1 1 4
1 1 2
5 5 6
9 9 10
13 13 14
1 2 1 8
2 2 3
3 4 2
6 6 7
7 8 6
10 10 11
11 12 10
14 14 15
15 16 14
1 3 1 4
4 4 1
8 8 5
12 12 9
16 16 13
1 4 1 3
17 3 7
18 7 11
19 11 15
$EndElements
$NodeData
1
"Displacement"
1
0
3
0
3
16
1 0 0 0
2 0.010230275829579057 -9.949694879257676e-05 0.00019325191078104178
3 0.010230610362589923 -0.02637912087432334 -1.2271169387196497e-06
4 0.010240739220946283 0.003894612078482946 8.692571712856419e-05
5 0 0 0
6 0.0179305756133899 -0.00017269589721399965 0.00016833647787156198
7 0.017930241080379033 -0.046122545893159686 -6.023006168279541e-07
8 0.017949110742957092 0.006834891956424816 6.698720697204973e-05
9 0 0 0
10 0.017930575613390124 -0.00017269589721399968 -0.00016833647787155425
11 0.01793024108037926 -0.04612254589315982 6.023006169338989e-07
12 0.017949110742957318 0.006834891956424891 -6.698720697207343e-05
13 0 0 0
14 0.010230275829578835 -9.949694879257646e-05 -0.00019325191078104867
15 0.0102306103625897 -0.026379120874323116 1.2271169388256199e-06
16 0.01024073922094606 0.0038946120784828665 -8.692571712859396e-05
$EndNodeData
$NodeData
1
"Rotation"
1
0
3
0
3
16
1 0 0 0
2 6.699546968546383e-05 -7.271217159131383e-05 -0.003388125038641841
3 0.004229399302796857 0.0002689496779165358 -0.005918572769533807
4 4.742395452250063e-05 -6.872629887840767e-05 -0.0023078227787019043
5 0 0 0
6 5.722173791742332e-05 -6.934408111417117e-05 -0.005947163372817717
7 0.0018780799046256083 0.00024682892190033904 -0.010311101503754163
8 3.995975035912095e-05 -6.551612769635494e-05 -0.004046119230369667
9 0 0 0
10 -5.722173791742074e-05 6.934408111414957e-05 -0.005947163372817769
11 -0.0018780799046255983 -0.0002468289219003519 -0.010311101503754175
12 -3.9959750359123084e-05 6.55161276963346e-05 -0.004046119230369717
13 0 0 0
14 -6.69954696854662e-05 7.271217159129809e-05 -0.003388125038641784
15 -0.004229399302796948 -0.00026894967791656993 -0.00591857276953377
16 -4.7423954522506286e-05 6.872629887839284e-05 -0.0023078227787018536
$EndNodeData
$ElementData
1
"BeamSectionForce"
1
0
3
0
12
19
1 -57047.584141965664 10756.110391091184 -60.363612579183126 -1.6160335930519685 296.3465151105859 47790.72732807947 -52944.433376744535 10756.110391091184 -60.363612579183126 -1.6160335930519685 24.7102585042619 -611.7694318308786
2 102.18739259010181 -18779.401363930436 62.2906714673462 25.10371523671861 -5.9934328266095065 -49402.56441791719 102.18739259010181 -979.9728308619196 62.2906714673462 25.10371523671861 305.4599245101215 -4.128930936300094
3 -10653.922998500988 33325.203452893526 1.9270588881630601 0.39345673245651813 -7.267987565802002 603.3427495326159 -10653.922998500988 34165.03201281408 1.9270588881630601 0.39345673245651813 -4.3773992335576395 -50014.33384974803
4 34984.130189027 -431.15583257052816 -1.9270588881629496 -7.019440357644215 1.9250736407847118 -603.3427495325892 34389.36863836371 -232.90198234943335 -1.9270588881629496 -7.019440357644215 -7.215769267015204 971.6086453536276
5 -97507.61892104725 18770.454970250925 -56.21101678752868 -1.5411775237532326 263.5842568349531 83640.04899842782 -93404.46815582612 18770.454970250925 -56.21101678752868 -1.5411775237532326 10.634681291074003 -826.9983677013661
6 -102.18739258963615 -33792.94803682144 57.801293278776356 10.9817083435961 -5.94046987674102 -86962.03992049975 -102.18739258963615 -993.5195037529302 57.801293278776356 10.9817083435961 283.0659965171408 4.128930936340112
7 -18872.642362847924 58771.69155908404 1.5902764912476073 0.34702705252210075 -6.78470708985904 998.3704703654639 -18872.642362847924 59611.5201190046 1.5902764912476073 0.34702705252210075 -4.399292352987743 -87789.03828820084
8 61723.77571351614 -681.0801270496988 -1.590276491247581 -6.54627788788067 1.8162939974053147 -998.3704703655152 61129.01416285285 -482.826276828604 -1.590276491247581 -6.54627788788067 -5.727049735239456 1762.0759442679391
9 -97507.61892104727 18770.45497025137 56.21101678752595 1.5411775237527523 -263.5842568349408 83640.04899842919 -93404.46815582614 18770.45497025137 56.21101678752595 1.5411775237527523 -10.634681291074003 -826.9983677020064
10 -102.18739258963615 -33792.94803682134 -57.8012932787738 -10.981708343596058 5.9404698767385185 -86962.03992049923 -102.18739258963615 -993.5195037528283 -57.8012932787738 -10.981708343596058 -283.0659965171306 4.128930936398319
11 -18872.642362847924 58771.69155908428 -1.5902764912476073 -0.34702705252200583 6.784707089857335 998.3704703656385 -18872.642362847924 59611.52011900483 -1.5902764912476073 -0.34702705252200583 4.399292352985697 -87789.03828820119
12 61723.77571351601 -681.0801270497059 1.5902764912478022 6.54627788787904 -1.8162939974048777 -998.3704703655259 61129.01416285272 -482.82627682861107 1.5902764912478022 6.54627788787904 5.727049735240943 1762.0759442679614
13 -57047.5841419655 10756.110391090799 60.363612579185315 1.6160335930516185 -296.3465151105965 47790.72732807821 -52944.43337674437 10756.110391090799 60.363612579185315 1.6160335930516185 -24.710258504262697 -611.7694318304129
14 102.18739259010181 -18779.401363930487 -62.29067146734869 -25.103715236719143 5.993432826607716 -49402.56441791746 102.18739259010181 -979.9728308619706 -62.29067146734869 -25.103715236719143 -305.4599245101358 -4.128930936300094
15 -10653.922998500988 33325.20345289341 -1.9270588881632307 -0.3934567324564521 7.267987565800951 603.342749532645 -10653.922998500988 34165.032012813965 -1.9270588881632307 -0.3934567324564521 4.377399233555991 -50014.333849747796
16 34984.1301890266 -431.1558325705211 1.9270588881633088 7.019440357643142 -1.925073640784417 -603.3427495325783 34389.36863836331 -232.9019823494263 1.9270588881633088 7.019440357643142 7.215769267017198 971.6086453536053
17 62.29067146734618 -979.9728308619225 -102.18739259047703 -4.12893093628837 305.45992451012165 -25.103715236714947 62.29067146734618 335.6887255479543 -102.18739259047703 -4.12893093628837 -307.6644310327405 1907.7486007051862
18 120.09196474612253 -657.8307782049604 -4.368061468085216e-12 -1.2434497875801753e-14 -24.59843451559995 1896.7668923615956 120.09196474612253 657.8307782049163 -4.368061468085216e-12 -1.2434497875801753e-14 -24.598434515626273 1896.7668923617352
19 62.2906714673487 -335.68872554792927 102.18739259048212 4.128930936288418 -307.66443103275674 1907.7486007053335 62.2906714673487 979.9728308619475 102.18739259048212 4.128930936288418 305.45992451013586 -25.103715236724952
$EndElementData
$ElementData
1
"AxialForce"
1
0
3
0
1
19
1 -54996.0087593551
2 102.18739259010181
3 -10653.922998500988
4 34686.749413695354
5 -95456.04353843669
6 -102.18739258963615
7 -18872.642362847924
8 61426.394938184494
9 -95456.0435384367
10 -102.18739258963615
11 -18872.642362847924
12 61426.39493818436
13 -54996.00875935493
14 102.18739259010181
15 -10653.922998500988
16 34686.74941369495
17 62.29067146734618
18 120.09196474612253
19 62.2906714673487
$EndElementData
$ElementData
1
"VonMisesStress"
1
0
3
0
1
19
1 47893269.644454494
2 56558925.86191214
3 61398722.201051034
4 41647903.86241115
5 82974326.51356563
6 99147487.41074403
7 107669508.16458833
8 74809104.66220562
9 82974326.51356682
10 99147487.41074343
11 107669508.16458854
12 74809104.66220607
13 47893269.64445339
14 56558925.86191242
15 61398722.201050796
16 41647903.86241041
17 20708007.675526023
18 15745297.411005542
19 20708007.675527334
$EndElementData
$NodeData
1
"Fixity"
1
0
3
0
3
16
1 1 1 1
2 0 0 0
3 0 0 0
4 0 0 0
5 1 1 1
6 0 0 0
7 0 0 0
8 0 0 0
9 1 1 1
10 0 0 0
11 0 0 0
12 0 0 0
13 1 1 1
14 0 0 0
15 0 0 0
16 0 0 0
$EndNodeData
$NodeData
1
"FixityRotation"
1
0
3
0
3
16
1 1 1 1
2 0 0 0
3 0 0 0
4 0 0 0
5 1 1 1
6 0 0 0
7 0 0 0
8 0 0 0
9 1 1 1
10 0 0 0
11 0 0 0
12 0 0 0
13 1 1 1
14 0 0 0
15 0 0 0
16 0 0 0
$EndNodeData
$ElementData
1
"CrossSectionArea"
1
0
3
0
1
19
1 0.011844442631532283
2 0.007272923980236907
3 0.007272923980236907
4 0.0017168803851868209
5 0.011844442631532283
6 0.007272923980236907
7 0.007272923980236907
8 0.0017168803851868209
9 0.011844442631532283
10 0.007272923980236907
11 0.007272923980236907
12 0.0017168803851868209
13 0.011844442631532283
14 0.007272923980236907
15 0.007272923980236907
16 0.0017168803851868209
17 0.002848410657883071
18 0.002848410657883071
19 0.002848410657883071
$EndElementData
$ElementData
1
"Attribute:ElementFormulation"
1
0
3
0
1
19
1 1
2 1
3 1
4 1
5 1
6 1
7 1
8 1
9 1
10 1
11 1
12 1
13 1
14 1
15 1
16 1
17 1
18 1
19 1
$EndElementData
$ElementData
1
"MaterialID"
1
0
3
0
1
19
1 3
2 3
3 3
4 3
5 3
6 3
7 3
8 3
9 3
10 3
11 3
12 3
13 3
14 3
15 3
16 3
17 3
18 3
19 3
$EndElementData
$ElementData
1
"Attribute:SecondMomentY"
1
0
3
0
1
19
1 5.1345173325392617e-05
2 1.0434519648833853e-05
3 1.0434519648833853e-05
4 2.569202045307523e-06
5 5.1345173325392617e-05
6 1.0434519648833853e-05
7 1.0434519648833853e-05
8 2.569202045307523e-06
9 5.1345173325392617e-05
10 1.0434519648833853e-05
11 1.0434519648833853e-05
12 2.569202045307523e-06
13 5.1345173325392617e-05
14 1.0434519648833853e-05
15 1.0434519648833853e-05
16 2.569202045307523e-06
17 1.423683272853165e-06
18 1.423683272853165e-06
19 1.423683272853165e-06
$EndElementData
$ElementData
1
"Attribute:SecondMomentZ"
1
0
3
0
1
19
1 0.00014919426787309272
2 0.00016265630920663017
3 0.00016265630920663017
4 2.569202045307523e-06
5 0.00014919426787309272
6 0.00016265630920663017
7 0.00016265630920663017
8 2.569202045307523e-06
9 0.00014919426787309272
10 0.00016265630920663017
11 0.00016265630920663017
12 2.569202045307523e-06
13 0.00014919426787309272
14 0.00016265630920663017
15 0.00016265630920663017
16 2.569202045307523e-06
17 1.9431682510835934e-05
18 1.9431682510835934e-05
19 1.9431682510835934e-05
$EndElementData
$ElementData
1
"Attribute:SectionDimension1"
1
0
3
0
1
19
1 0.26
2 0.36
3 0.36
4 0.1143
5 0.26
6 0.36
7 0.36
8 0.1143
9 0.26
10 0.36
11 0.36
12 0.1143
13 0.26
14 0.36
15 0.36
16 0.1143
17 0.2
18 0.2
19 0.2
$EndElementData
$ElementData
1
"Attribute:SectionDimension2"
1
0
3
0
1
19
1 0.26
2 0.17
3 0.17
4 0.005
5 0.26
6 0.17
7 0.17
8 0.005
9 0.26
10 0.17
11 0.17
12 0.005
13 0.26
14 0.17
15 0.17
16 0.005
17 0.1
18 0.1
19 0.1
$EndElementData
$ElementData
1
"Attribute:SectionDimension3"
1
0
3
0
1
19
1 0.01
2 0.008
3 0.008
4 0
5 0.01
6 0.008
7 0.008
8 0
9 0.01
10 0.008
11 0.008
12 0
13 0.01
14 0.008
15 0.008
16 0
17 0.0056
18 0.0056
19 0.0056
$EndElementData
$ElementData
1
"Attribute:SectionDimension4"
1
0
3
0
1
19
1 0.0175
2 0.0127
3 0.0127
4 0
5 0.0175
6 0.0127
7 0.0127
8 0
9 0.0175
10 0.0127
11 0.0127
12 0
13 0.0175
14 0.0127
15 0.0127
16 0
17 0.0085
18 0.0085
19 0.0085
$EndElementData
$ElementData
1
"Attribute:SectionDimension5"
1
0
3
0
1
19
1 0.024
2 0.018
3 0.018
4 0
5 0.024
6 0.018
7 0.018
8 0
9 0.024
10 0.018
11 0.018
12 0
13 0.024
14 0.018
15 0.018
16 0
17 0.012
18 0.012
19 0.012
$EndElementData
$ElementData
1
"Attribute:SectionShape"
1
0
3
0
1
19
1 5
2 5
3 5
4 3
5 5
6 5
7 5
8 3
9 5
10 5
11 5
12 3
13 5
14 5
15 5
16 3
17 5
18 5
19 5
$EndElementData
$ElementData
1
"Attribute:ShearAreaY"
1
0
3
0
1
19
1 0.002288291515591876
2 0.0027606736487631755
3 0.0027606736487631755
4 0.0009140558528542028
5 0.002288291515591876
6 0.0027606736487631755
7 0.0027606736487631755
8 0.0009140558528542028
9 0.002288291515591876
10 0.0027606736487631755
11 0.0027606736487631755
12 0.0009140558528542028
13 0.002288291515591876
14 0.0027606736487631755
15 0.0027606736487631755
16 0.0009140558528542028
17 0.0010633841173523775
18 0.0010633841173523775
19 0.0010633841173523775
$EndElementData
$ElementData
1
"Attribute:ShearAreaZ"
1
0
3
0
1
19
1 0.00773202614379085
2 0.003668888888888889
3 0.003668888888888889
4 0.0009140558528542028
5 0.00773202614379085
6 0.003668888888888889
7 0.003668888888888889
8 0.0009140558528542028
9 0.00773202614379085
10 0.003668888888888889
11 0.003668888888888889
12 0.0009140558528542028
13 0.00773202614379085
14 0.003668888888888889
15 0.003668888888888889
16 0.0009140558528542028
17 0.0014444444444444446
18 0.0014444444444444446
19 0.0014444444444444446
$EndElementData
$ElementData
1
"Attribute:TorsionConstant"
1
0
3
0
1
19
1 1.2377827388519793e-06
2 3.7320927697764195e-07
3 3.7320927697764195e-07
4 5.138404090615046e-06
5 1.2377827388519793e-06
6 3.7320927697764195e-07
7 3.7320927697764195e-07
8 5.138404090615046e-06
9 1.2377827388519793e-06
10 3.7320927697764195e-07
11 3.7320927697764195e-07
12 5.138404090615046e-06
13 1.2377827388519793e-06
14 3.7320927697764195e-07
15 3.7320927697764195e-07
16 5.138404090615046e-06
17 6.980120130097939e-08
18 6.980120130097939e-08
19 6.980120130097939e-08
$EndElementData
$ElementData
1
"Attribute:UniformLoadGlobalX"
1
0
3
0
1
19
1 0
2 0
3 0
4 0
5 0
6 0
7 0
8 0
9 0
10 0
11 0
12 0
13 0
14 0
15 0
16 0
17 0
18 0
19 0
$EndElementData
$ElementData
1
"Attribute:UniformLoadGlobalY"
1
0
3
0
1
19
1 0
2 -3000
3 0
4 0
5 0
6 -6000
7 0
8 0
9 0
10 -6000
11 0
12 0
13 0
14 -3000
15 0
16 0
17 0
18 0
19 0
$EndElementData
$ElementData
1
"Attribute:UniformLoadGlobalZ"
1
0
3
0
1
19
1 0
2 0
3 0
4 0
5 0
6 0
7 0
8 0
9 0
10 0
11 0
12 0
13 0
14 0
15 0
16 0
17 0
18 0
19 0
$EndElementData
$ElementData
1
"Attribute:UniformLoadLocalX"
1
0
3
0
1
19
1 0
2 0
3 0
4 0
5 0
6 0
7 0
8 0
9 0
10 0
11 0
12 0
13 0
14 0
15 0
16 0
17 0
18 0
19 0
$EndElementData
$ElementData
1
"Attribute:UniformLoadLocalY"
1
0
3
0
1
19
1 0
2 0
3 0
4 0
5 0
6 0
7 0
8 0
9 0
10 0
11 0
12 0
13 0
14 0
15 0
16 0
17 0
18 0
19 0
$EndElementData
$ElementData
1
"Attribute:UniformLoadLocalZ"
1
0
3
0
1
19
1 0
2 0
3 0
4 0
5 0
6 0
7 0
8 0
9 0
10 0
11 0
12 0
13 0
14 0
15 0
16 0
17 0
18 0
19 0
$EndElementData
$ElementData
1
"BeamOrientation"
1
0
3
0
3
19
1 1 0 0
2 0 0 0
3 0 0 0
4 0 0 0
5 1 0 0
6 0 0 0
7 0 0 0
8 0 0 0
9 1 0 0
10 0 0 0
11 0 0 0
12 0 0 0
13 1 0 0
14 0 0 0
15 0 0 0
16 0 0 0
17 0 0 0
18 0 0 0
19 0 0 0
$EndElementData
$AnafData
1
1
GLOBAL 3 1
"Gravity"
0 -9.80665 0
$EndAnafData
