$MeshFormat
4.1 0 8
$EndMeshFormat
$PhysicalNames
3
1 1 "Material:Structural Steel S235 (EN 10025)"
1 2 "Section:IPE 300"
1 3 "Section:HEB 200"
$EndPhysicalNames
$Entities
0 2 0 0
1 0 0 0 10 7 10 2 1 3 0
2 0 3.5 0 10 7 10 2 1 2 0
$EndEntities
$Nodes
1 27 1 27
1 1 0 27
1
2
3
4
5
6
7
8
9
10
11
12
13
14
15
16
17
18
19
20
21
22
23
24
25
26
27
0 0 0
5 0 0
10 0 0
0 0 5
5 0 5
10 0 5
0 0 10
5 0 10
10 0 10
0 3.5 0
5 3.5 0
10 3.5 0
0 3.5 5
5 3.5 5
10 3.5 5
0 3.5 10
5 3.5 10
10 3.5 10
0 7 0
5 7 0
10 7 0
0 7 5
5 7 5
10 7 5
0 7 10
5 7 10
10 7 10
$EndNodes
$Elements
2 42 1 42
1 1 1 18
1 1 10
2 10 19
3 2 11
4 11 20
5 3 12
6 12 21
7 4 13
8 13 22
9 5 14
10 14 23
11 6 15
12 15 24
13 7 16
14 16 25
15 8 17
16 17 26
17 9 18
18 18 27
1 2 1 24
19 10 11
20 11 12
21 13 14
22 14 15
23 16 17
24 17 18
25 10 13
26 13 16
27 11 14
28 14 17
29 12 15
30 15 18
31 19 20
32 20 21
33 22 23
34 23 24
35 25 26
36 26 27
37 19 22
38 22 25
39 20 23
40 23 26
41 21 24
42 24 27
$EndElements
$NodeData
1
"Displacement"
1
0
3
0
3
27
1 0 0 0
2 0 0 0
3 0 0 0
4 0 0 0
5 0 0 0
6 0 0 0
7 0 0 0
8 0 0 0
9 0 0 0
10 -2.1126529414188436e-05 -0.00018708825614976491 -6.067177201317718e-06
11 8.40048261069136e-20 -0.0003518664231576368 -6.067177201317698e-06
12 2.1126529414188602e-05 -0.00018708825614976491 -6.0671772013177304e-06
13 -2.1126529414188494e-05 -0.00028505329163760725 1.714566675842674e-19
14 9.775057973215125e-21 -0.00044983145864547927 1.8570715911224038e-19
15 2.112652941418851e-05 -0.0002850532916376074 1.586704509123287e-19
16 -2.1126529414188423e-05 -0.00018708825614976491 6.067177201318059e-06
17 9.680475087006388e-20 -0.00035186642315763675 6.067177201318071e-06
18 2.1126529414188616e-05 -0.00018708825614976491 6.067177201318047e-06
19 3.452565179943752e-05 -0.0002774277706585544 1.078824067144897e-05
20 1.4689611066539298e-19 -0.0005289013047091215 1.0788240671449001e-05
21 -3.452565179943723e-05 -0.0002774277706585544 1.0788240671448912e-05
22 3.452565179943773e-05 -0.00042631490969046235 2.9559518804227526e-19
23 3.639309326193153e-19 -0.0006777884437410298 3.2678906542501863e-19
24 -3.4525651799437e-05 -0.00042631490969046267 2.3261702701784587e-19
25 3.452565179943758e-05 -0.0002774277706585544 -1.0788240671448381e-05
26 2.0834538039083743e-19 -0.0005289013047091216 -1.0788240671448347e-05
27 -3.452565179943717e-05 -0.0002774277706585544 -1.0788240671448446e-05
$EndNodeData
$NodeData
1
"Rotation"
1
0
3
0
3
27
1 0 0 0
2 0 0 0
3 0 0 0
4 0 0 0
5 0 0 0
6 0 0 0
7 0 0 0
8 0 0 0
9 0 0 0
10 0.000514346147567975 -1.0663643294365675e-20 -0.0005048045110146168
11 0.000514346147567975 -3.103530790773588e-21 -1.453385080011075e-20
12 0.0005143461475679751 -7.865382288042768e-21 0.0005048045110146168
13 7.088326109932932e-21 -6.688741077785661e-23 -0.000504804511014617
14 -2.407286768158599e-21 1.561737650706281e-21 -4.711299282064257e-21
15 -3.487907297562636e-21 3.1588002472373624e-21 0.0005048045110146167
16 -0.000514346147567975 7.033466853730552e-21 -0.0005048045110146168
17 -0.0005143461475679749 5.5860873233761845e-21 -1.454221648900366e-20
18 -0.000514346147567975 1.656268001039775e-20 0.0005048045110146168
19 0.0006785554430508039 2.1853482697500324e-20 -0.0008588383571271204
20 0.0006785554430508035 1.60139292552482e-20 -1.6588553903097935e-20
21 0.0006785554430508039 4.188584183687562e-20 0.0008588383571271204
22 -1.3376103824815126e-20 2.7857386896220095e-21 -0.0008588383571271204
23 5.542249840153351e-20 6.6490449241203704e-21 1.7197057439700975e-20
24 -1.2392914907959713e-20 6.389424386656919e-21 0.0008588383571271199
25 -0.0006785554430508038 -2.549572981375038e-20 -0.0008588383571271204
26 -0.0006785554430508036 -3.8622680920067926e-21 -1.1296689866058827e-20
27 -0.0006785554430508039 -1.3354906092916865e-20 0.0008588383571271204
$EndNodeData
$ElementData
1
"BeamSectionForce"
1
0
3
0
12
42
1 -88700.39947325655 -3028.341940154046 1067.0097710627576 -1.459369918510125e-16 -1249.012090641065 -3574.3251732091944 -86596.59643838558 -3028.341940154046 1067.0097710627576 -1.459369918510125e-16 2485.5221080785864 7024.871617329966
2 -43374.829293377836 -7803.158770345784 2438.2553384086336 4.450122176724196e-16 -4069.5637765686015 -12445.544377130824 -41271.02625850688 -7803.158770345784 2438.2553384086336 4.450122176724196e-16 4464.329907861616 14865.511319079422
3 -165896.90090727533 1.9609178053614191e-13 1067.0097710627576 -4.2473283775517866e-17 -1249.012090641065 3.928330397215729e-13 -163793.09787240438 1.9609178053614191e-13 1067.0097710627576 -4.2473283775517866e-17 2485.5221080785864 -2.934881921549237e-13
4 -83990.51975626835 2.821348531153663e-14 2438.2553384086327 2.616314644003945e-16 -4069.5637765686006 5.639596966930303e-14 -81886.71672139737 2.821348531153663e-14 2438.2553384086327 2.616314644003945e-16 4464.329907861615 -4.2351228921075e-14
5 -88700.39947325655 3028.3419401540464 1067.0097710627579 -1.0764146916670425e-16 -1249.0120906410652 3574.3251732091953 -86596.59643838558 3028.3419401540464 1067.0097710627579 -1.0764146916670425e-16 2485.522108078587 -7024.871617329967
6 -43374.829293377836 7803.158770345785 2438.255338408634 6.808689853244011e-16 -4069.5637765686024 12445.544377130824 -41271.02625850688 7803.158770345785 2438.255338408634 6.808689853244011e-16 4464.329907861616 -14865.511319079422
7 -134595.78804229942 -3028.3419401540473 -1.8728228890247043e-13 -9.153857881556266e-19 3.362643243211271e-13 -3574.3251732091962 -132491.98500742848 -3028.3419401540473 -1.8728228890247043e-13 -9.153857881556266e-19 -3.192236868375195e-13 7024.871617329969
8 -67231.19516176936 -7803.158770345786 -1.5912853839339178e-13 3.90395346577283e-17 2.5387626216029366e-13 -12445.544377130824 -65127.39212689839 -7803.158770345786 -1.5912853839339178e-13 3.90395346577283e-17 -3.0307362221657764e-13 14865.511319079422
9 -211792.28947631826 5.123325095752822e-15 -2.2362883814268562e-13 2.1373116908830308e-17 3.884568568551302e-13 2.5067653023844722e-14 -209688.4864414473 5.123325095752822e-15 -2.2362883814268562e-13 2.1373116908830308e-17 -3.9424407664426943e-13 7.136015188709841e-15
10 -107846.88562466005 1.2588515844358798e-12 -5.687900188937878e-14 6.962220130676189e-17 1.690508850299098e-13 2.1281139585328763e-12 -105743.08258978908 1.2588515844358798e-12 -5.687900188937878e-14 6.962220130676189e-17 -3.0025621582915954e-14 -2.277866586992703e-12
11 -134595.78804229948 3028.3419401540455 -1.9402011378584373e-13 4.32296723750714e-17 3.3534266037119646e-13 3574.325173209194 -132491.98500742854 3028.3419401540455 -1.9402011378584373e-13 4.32296723750714e-17 -3.4372773787925665e-13 -7024.8716173299645
12 -67231.19516176944 7803.1587703457835 -1.1979551784233732e-13 4.4212616241323866e-17 1.989381476807405e-13 12445.54437713082 -65127.39212689848 7803.1587703457835 -1.1979551784233732e-13 4.4212616241323866e-17 -2.2034616476744014e-13 -14865.511319079416
13 -88700.39947325655 -3028.341940154046 -1067.0097710627579 9.625631377407209e-17 1249.0120906410657 -3574.3251732091944 -86596.59643838558 -3028.341940154046 -1067.0097710627579 9.625631377407209e-17 -2485.5221080785873 7024.871617329965
14 -43374.829293377836 -7803.158770345784 -2438.255338408634 -4.451774105657137e-16 4069.563776568602 -12445.544377130824 -41271.02625850688 -7803.158770345784 -2438.255338408634 -4.451774105657137e-16 -4464.329907861616 14865.511319079422
15 -165896.9009072753 2.388963584334575e-13 -1067.0097710627579 7.644824172066302e-17 1249.0120906410655 4.677696425039485e-13 -163793.09787240435 2.388963584334575e-13 -1067.0097710627579 7.644824172066302e-17 -2485.522108078587 -3.68367612013153e-13
16 -83990.51975626843 2.2204499297532366e-13 -2438.255338408633 -1.2930520359666972e-16 4069.563776568601 3.774864830777988e-13 -81886.71672139746 2.2204499297532366e-13 -2438.255338408633 -1.2930520359666972e-16 -4464.3299078616155 -3.996709923358339e-13
17 -88700.39947325655 3028.3419401540464 -1067.0097710627579 2.266680937260407e-16 1249.0120906410657 3574.3251732091953 -86596.59643838558 3028.3419401540464 -1067.0097710627579 2.266680937260407e-16 -2485.5221080785873 -7024.871617329967
18 -43374.829293377836 7803.158770345786 -2438.255338408634 -4.094362872835672e-16 4069.5637765686015 12445.544377130824 -41271.02625850688 7803.158770345786 -2438.255338408634 -4.094362872835672e-16 -4464.329907861617 -14865.511319079422
19 4774.816830191741 -29187.252194091066 -1.832596264887819e-15 -0 6.4590110503301776e-15 -19470.41599446079 4774.816830191741 32884.03158260963 -1.832596264887819e-15 0 -2.481925669183884e-15 -28712.3644657572
20 4774.81683019174 -32884.03158260963 -7.278451163437657e-15 4.440892098500626e-16 1.6867703510796762e-14 -28712.3644657572 4774.81683019174 29187.252194091066 -7.278451163437657e-15 4.440892098500626e-16 -1.930250770146649e-14 -19470.41599446079
21 4774.816830191737 -29187.252194091063 2.1894838818284217e-15 -3.087165153394959e-17 -5.060711661675824e-15 -19470.41599446079 4774.816830191737 32884.03158260963 2.1894838818284217e-15 -3.087165153394959e-17 5.8867077474663036e-15 -28712.3644657572
22 4774.816830191737 -32884.03158260963 -1.854474802395702e-15 -3.513258264894483e-18 5.0411812200335015e-15 -28712.364465757197 4774.816830191737 29187.252194091066 -1.854474802395702e-15 -3.513258264894483e-18 -4.231192791945018e-15 -19470.41599446079
23 4774.816830191741 -29187.252194091066 5.252584216143624e-15 4.440892098500626e-16 -1.349125859864004e-14 -19470.41599446079 4774.816830191741 32884.03158260963 5.252584216143624e-15 4.440892098500626e-16 1.2771662482078078e-14 -28712.3644657572
24 4774.816830191741 -32884.03158260963 3.818849848528153e-15 -4.440892098500626e-16 -6.8458463915511566e-15 -28712.3644657572 4774.816830191741 29187.252194091066 3.818849848528153e-15 -4.440892098500626e-16 1.2359425153552125e-14 -19470.41599446079
25 1371.2455673458762 -14034.514950916684 3.976448760202796e-15 -6.661338147750939e-16 -7.071503810188056e-15 -6555.085884647189 1371.2455673458762 18036.76882578401 3.976448760202796e-15 -6.661338147750939e-16 1.2366650780975861e-14 -16560.720571815506
26 1371.245567345876 -18036.76882578401 -6.7414698073561756e-15 6.661338147750939e-16 1.7749091423394544e-14 -16560.720571815506 1371.245567345876 14034.514950916684 -6.7414698073561756e-15 6.661338147750939e-16 -1.4181900773986084e-14 -6555.085884647189
27 1371.2455673458753 -14034.514950916684 8.566201499212323e-15 3.193457773947763e-17 -2.0232452607852296e-14 -6555.085884647191 1371.2455673458753 18036.76882578401 8.566201499212323e-15 3.193457773947763e-17 2.2598554888209317e-14 -16560.720571815506
28 1371.2455673458753 -18036.76882578401 -8.418290751638206e-15 -3.1961775839869786e-17 2.2066249391026017e-14 -16560.720571815502 1371.2455673458753 14034.514950916684 -8.418290751638206e-15 -3.1961775839869786e-17 -2.0025204367165012e-14 -6555.085884647191
29 1371.2455673458765 -14034.514950916684 9.843020776880862e-15 -4.440892098500626e-16 -2.114198619986877e-14 -6555.085884647188 1371.2455673458765 18036.76882578401 9.843020776880862e-15 -4.440892098500626e-16 2.7184939264835413e-14 -16560.720571815506
30 1371.2455673458762 -18036.76882578401 -6.9503134903358655e-15 4.440892098500626e-16 2.0021550804377633e-14 -16560.720571815506 1371.2455673458762 14034.514950916684 -6.9503134903358655e-15 4.440892098500626e-16 -1.3397749017751506e-14 -6555.085884647189
31 -7803.158770345784 -27842.292363503617 1.5087159773535877e-14 -1.3322676295501878e-15 -3.965218047766184e-14 -14865.511319079425 -7803.158770345784 34228.99141319707 1.5087159773535877e-14 -1.3322676295501878e-15 3.667179680971767e-14 -30832.258943313067
32 -7803.158770345786 -34228.99141319707 6.750838531833119e-15 1.3322676295501878e-15 -1.0585263738280103e-14 -30832.258943313067 -7803.158770345786 27842.292363503617 6.750838531833119e-15 1.3322676295501878e-15 2.339097352581052e-14 -14865.511319079424
33 -7803.1587703457835 -27842.29236350362 6.668018199197014e-15 2.2367450118517464e-16 -1.5690361498472824e-14 -14865.511319079425 -7803.1587703457835 34228.99141319707 6.668018199197014e-15 2.2367450118517464e-16 1.764972949751223e-14 -30832.258943313067
34 -7803.158770345782 -34228.99141319707 -7.495120851997608e-15 -2.2047800760199247e-16 1.867196575279245e-14 -30832.258943313063 -7803.158770345782 27842.29236350362 -7.495120851997608e-15 -2.2047800760199247e-16 -1.8803638507195608e-14 -14865.511319079433
35 -7803.158770345784 -27842.292363503617 -4.950063171898089e-15 4.440892098500626e-16 1.7501963825039787e-14 -14865.511319079425 -7803.158770345784 34228.99141319707 -4.950063171898089e-15 4.440892098500626e-16 -6.582218219675565e-15 -30832.258943313067
36 -7803.158770345785 -34228.99141319707 -1.7164587386602896e-14 -8.881784197001252e-16 4.0524039441981504e-14 -30832.258943313067 -7803.158770345785 27842.292363503617 -1.7164587386602896e-14 -8.881784197001252e-16 -4.5076852886107936e-14 -14865.511319079425
37 -2438.2553384086336 -13428.733895003248 -1.7804034479631337e-14 -0 4.121971025548719e-14 -4464.329907861611 -2438.2553384086336 18642.549881697443 -1.7804034479631337e-14 0 -5.0464997401769866e-14 -17498.869874597105
38 -2438.255338408634 -18642.549881697443 1.0893285939471086e-14 -0 -3.503086654008752e-14 -17498.8698745971 -2438.255338408634 13428.73389500325 1.0893285939471086e-14 0 2.0323741576968033e-14 -4464.329907861613
39 -2438.2553384086336 -13428.73389500325 -1.9521412995887198e-14 1.0984205375966978e-16 4.6428720145143415e-14 -4464.329907861618 -2438.2553384086336 18642.549881697443 -1.9521412995887198e-14 1.0984205375966978e-16 -5.117834483429259e-14 -17498.869874597098
40 -2438.255338408633 -18642.549881697443 1.978617088141726e-14 -9.263741572167242e-17 -5.213095888826605e-14 -17498.869874597098 -2438.255338408633 13428.73389500325 1.978617088141726e-14 -9.263741572167242e-17 4.679989551882024e-14 -4464.329907861618
41 -2438.255338408634 -13428.73389500325 -1.4042882073749217e-14 -1.3322676295501878e-15 2.3404803456248695e-14 -4464.329907861613 -2438.255338408634 18642.549881697443 -1.4042882073749217e-14 -1.3322676295501878e-15 -4.148053639429664e-14 -17498.8698745971
42 -2438.2553384086345 -18642.549881697443 1.8140504796477082e-14 1.3322676295501878e-15 -5.184651620683152e-14 -17498.8698745971 -2438.2553384086345 13428.73389500325 1.8140504796477082e-14 1.3322676295501878e-15 4.1520543034654274e-14 -4464.329907861611
$EndElementData
$ElementData
1
"AxialForce"
1
0
3
0
1
42
1 -87648.49795582106
2 -42322.92777594236
3 -164844.99938983985
4 -82938.61823883286
5 -87648.49795582106
6 -42322.92777594236
7 -133543.88652486395
8 -66179.29364433387
9 -210740.38795888278
10 -106794.98410722456
11 -133543.886524864
12 -66179.29364433396
13 -87648.49795582106
14 -42322.92777594236
15 -164844.99938983982
16 -82938.61823883295
17 -87648.49795582106
18 -42322.92777594236
19 4774.816830191741
20 4774.81683019174
21 4774.816830191737
22 4774.816830191737
23 4774.816830191741
24 4774.816830191741
25 1371.2455673458762
26 1371.245567345876
27 1371.2455673458753
28 1371.2455673458753
29 1371.2455673458765
30 1371.2455673458762
31 -7803.158770345784
32 -7803.158770345786
33 -7803.1587703457835
34 -7803.158770345782
35 -7803.158770345784
36 -7803.158770345785
37 -2438.2553384086336
38 -2438.255338408634
39 -2438.2553384086336
40 -2438.255338408633
41 -2438.255338408634
42 -2438.2553384086345
$EndElementData
$ElementData
1
"VonMisesStress"
1
0
3
0
1
42
1 36025515.03506686
2 54505956.008106604
3 33387176.37603844
4 32788491.245336376
5 36025515.03506686
6 54505956.00810661
7 29484892.669039916
8 35464608.6915988
9 27124606.373103756
10 13812137.960108042
11 29484892.669039916
12 35464608.6915988
13 36025515.03506686
14 54505956.00810661
15 33387176.376038436
16 32788491.245336384
17 36025515.03506686
18 54505956.00810663
19 60485618.05277312
20 60485618.05277315
21 60485618.05277317
22 60485618.05277314
23 60485618.05277312
24 60485618.05277315
25 34244216.600469746
26 34244216.60046974
27 34244216.600469746
28 34244216.60046973
29 34244216.600469746
30 34244216.60046974
31 64896571.46991765
32 64896571.469917625
33 64896571.4699176
34 64896571.469917625
35 64896571.46991765
36 64896571.469917625
37 36163232.787809685
38 36163232.78780968
39 36163232.7878097
40 36163232.78780967
41 36163232.787809685
42 36163232.78780968
$EndElementData
$NodeData
1
"Fixity"
1
0
3
0
3
27
1 1 1 1
2 1 1 1
3 1 1 1
4 1 1 1
5 1 1 1
6 1 1 1
7 1 1 1
8 1 1 1
9 1 1 1
10 0 0 0
11 0 0 0
12 0 0 0
13 0 0 0
14 0 0 0
15 0 0 0
16 0 0 0
17 0 0 0
18 0 0 0
19 0 0 0
20 0 0 0
21 0 0 0
22 0 0 0
23 0 0 0
24 0 0 0
25 0 0 0
26 0 0 0
27 0 0 0
$EndNodeData
$NodeData
1
"FixityRotation"
1
0
3
0
3
27
1 1 1 1
2 1 1 1
3 1 1 1
4 1 1 1
5 1 1 1
6 1 1 1
7 1 1 1
8 1 1 1
9 1 1 1
10 0 0 0
11 0 0 0
12 0 0 0
13 0 0 0
14 0 0 0
15 0 0 0
16 0 0 0
17 0 0 0
18 0 0 0
19 0 0 0
20 0 0 0
21 0 0 0
22 0 0 0
23 0 0 0
24 0 0 0
25 0 0 0
26 0 0 0
27 0 0 0
$EndNodeData
$ElementData
1
"CrossSectionArea"
1
0
3
0
1
42
1 0.007808123980236907
2 0.007808123980236907
3 0.007808123980236907
4 0.007808123980236907
5 0.007808123980236907
6 0.007808123980236907
7 0.007808123980236907
8 0.007808123980236907
9 0.007808123980236907
10 0.007808123980236907
11 0.007808123980236907
12 0.007808123980236907
13 0.007808123980236907
14 0.007808123980236907
15 0.007808123980236907
16 0.007808123980236907
17 0.007808123980236907
18 0.007808123980236907
19 0.005381201652942294
20 0.005381201652942294
21 0.005381201652942294
22 0.005381201652942294
23 0.005381201652942294
24 0.005381201652942294
25 0.005381201652942294
26 0.005381201652942294
27 0.005381201652942294
28 0.005381201652942294
29 0.005381201652942294
30 0.005381201652942294
31 0.005381201652942294
32 0.005381201652942294
33 0.005381201652942294
34 0.005381201652942294
35 0.005381201652942294
36 0.005381201652942294
37 0.005381201652942294
38 0.005381201652942294
39 0.005381201652942294
40 0.005381201652942294
41 0.005381201652942294
42 0.005381201652942294
$EndElementData
$ElementData
1
"Attribute:ElementFormulation"
1
0
3
0
1
42
1 1
2 1
3 1
4 1
5 1
6 1
7 1
8 1
9 1
10 1
11 1
12 1
13 1
14 1
15 1
16 1
17 1
18 1
19 1
20 1
21 1
22 1
23 1
24 1
25 1
26 1
27 1
28 1
29 1
30 1
31 1
32 1
33 1
34 1
35 1
36 1
37 1
38 1
39 1
40 1
41 1
42 1
$EndElementData
$ElementData
1
"MaterialID"
1
0
3
0
1
42
1 2
2 2
3 2
4 2
5 2
6 2
7 2
8 2
9 2
10 2
11 2
12 2
13 2
14 2
15 2
16 2
17 2
18 2
19 2
20 2
21 2
22 2
23 2
24 2
25 2
26 2
27 2
28 2
29 2
30 2
31 2
32 2
33 2
34 2
35 2
36 2
37 2
38 2
39 2
40 2
41 2
42 2
$EndElementData
$ElementData
1
"Attribute:SecondMomentY"
1
0
3
0
1
42
1 2.003368780739412e-05
2 2.003368780739412e-05
3 2.003368780739412e-05
4 2.003368780739412e-05
5 2.003368780739412e-05
6 2.003368780739412e-05
7 2.003368780739412e-05
8 2.003368780739412e-05
9 2.003368780739412e-05
10 2.003368780739412e-05
11 2.003368780739412e-05
12 2.003368780739412e-05
13 2.003368780739412e-05
14 2.003368780739412e-05
15 2.003368780739412e-05
16 2.003368780739412e-05
17 2.003368780739412e-05
18 2.003368780739412e-05
19 6.037784243992912e-06
20 6.037784243992912e-06
21 6.037784243992912e-06
22 6.037784243992912e-06
23 6.037784243992912e-06
24 6.037784243992912e-06
25 6.037784243992912e-06
26 6.037784243992912e-06
27 6.037784243992912e-06
28 6.037784243992912e-06
29 6.037784243992912e-06
30 6.037784243992912e-06
31 6.037784243992912e-06
32 6.037784243992912e-06
33 6.037784243992912e-06
34 6.037784243992912e-06
35 6.037784243992912e-06
36 6.037784243992912e-06
37 6.037784243992912e-06
38 6.037784243992912e-06
39 6.037784243992912e-06
40 6.037784243992912e-06
41 6.037784243992912e-06
42 6.037784243992912e-06
$EndElementData
$ElementData
1
"Attribute:SecondMomentZ"
1
0
3
0
1
42
1 5.696176058968268e-05
2 5.696176058968268e-05
3 5.696176058968268e-05
4 5.696176058968268e-05
5 5.696176058968268e-05
6 5.696176058968268e-05
7 5.696176058968268e-05
8 5.696176058968268e-05
9 5.696176058968268e-05
10 5.696176058968268e-05
11 5.696176058968268e-05
12 5.696176058968268e-05
13 5.696176058968268e-05
14 5.696176058968268e-05
15 5.696176058968268e-05
16 5.696176058968268e-05
17 5.696176058968268e-05
18 5.696176058968268e-05
19 8.356109185847977e-05
20 8.356109185847977e-05
21 8.356109185847977e-05
22 8.356109185847977e-05
23 8.356109185847977e-05
24 8.356109185847977e-05
25 8.356109185847977e-05
26 8.356109185847977e-05
27 8.356109185847977e-05
28 8.356109185847977e-05
29 8.356109185847977e-05
30 8.356109185847977e-05
31 8.356109185847977e-05
32 8.356109185847977e-05
33 8.356109185847977e-05
34 8.356109185847977e-05
35 8.356109185847977e-05
36 8.356109185847977e-05
37 8.356109185847977e-05
38 8.356109185847977e-05
39 8.356109185847977e-05
40 8.356109185847977e-05
41 8.356109185847977e-05
42 8.356109185847977e-05
$EndElementData
$ElementData
1
"Attribute:SectionDimension1"
1
0
3
0
1
42
1 0.2
2 0.2
3 0.2
4 0.2
5 0.2
6 0.2
7 0.2
8 0.2
9 0.2
10 0.2
11 0.2
12 0.2
13 0.2
14 0.2
15 0.2
16 0.2
17 0.2
18 0.2
19 0.3
20 0.3
21 0.3
22 0.3
23 0.3
24 0.3
25 0.3
26 0.3
27 0.3
28 0.3
29 0.3
30 0.3
31 0.3
32 0.3
33 0.3
34 0.3
35 0.3
36 0.3
37 0.3
38 0.3
39 0.3
40 0.3
41 0.3
42 0.3
$EndElementData
$ElementData
1
"Attribute:SectionDimension2"
1
0
3
0
1
42
1 0.2
2 0.2
3 0.2
4 0.2
5 0.2
6 0.2
7 0.2
8 0.2
9 0.2
10 0.2
11 0.2
12 0.2
13 0.2
14 0.2
15 0.2
16 0.2
17 0.2
18 0.2
19 0.15
20 0.15
21 0.15
22 0.15
23 0.15
24 0.15
25 0.15
26 0.15
27 0.15
28 0.15
29 0.15
30 0.15
31 0.15
32 0.15
33 0.15
34 0.15
35 0.15
36 0.15
37 0.15
38 0.15
39 0.15
40 0.15
41 0.15
42 0.15
$EndElementData
$ElementData
1
"Attribute:SectionDimension3"
1
0
3
0
1
42
1 0.009
2 0.009
3 0.009
4 0.009
5 0.009
6 0.009
7 0.009
8 0.009
9 0.009
10 0.009
11 0.009
12 0.009
13 0.009
14 0.009
15 0.009
16 0.009
17 0.009
18 0.009
19 0.0071
20 0.0071
21 0.0071
22 0.0071
23 0.0071
24 0.0071
25 0.0071
26 0.0071
27 0.0071
28 0.0071
29 0.0071
30 0.0071
31 0.0071
32 0.0071
33 0.0071
34 0.0071
35 0.0071
36 0.0071
37 0.0071
38 0.0071
39 0.0071
40 0.0071
41 0.0071
42 0.0071
$EndElementData
$ElementData
1
"Attribute:SectionDimension4"
1
0
3
0
1
42
1 0.015
2 0.015
3 0.015
4 0.015
5 0.015
6 0.015
7 0.015
8 0.015
9 0.015
10 0.015
11 0.015
12 0.015
13 0.015
14 0.015
15 0.015
16 0.015
17 0.015
18 0.015
19 0.0107
20 0.0107
21 0.0107
22 0.0107
23 0.0107
24 0.0107
25 0.0107
26 0.0107
27 0.0107
28 0.0107
29 0.0107
30 0.0107
31 0.0107
32 0.0107
33 0.0107
34 0.0107
35 0.0107
36 0.0107
37 0.0107
38 0.0107
39 0.0107
40 0.0107
41 0.0107
42 0.0107
$EndElementData
$ElementData
1
"Attribute:SectionDimension5"
1
0
3
0
1
42
1 0.018
2 0.018
3 0.018
4 0.018
5 0.018
6 0.018
7 0.018
8 0.018
9 0.018
10 0.018
11 0.018
12 0.018
13 0.018
14 0.018
15 0.018
16 0.018
17 0.018
18 0.018
19 0.015
20 0.015
21 0.015
22 0.015
23 0.015
24 0.015
25 0.015
26 0.015
27 0.015
28 0.015
29 0.015
30 0.015
31 0.015
32 0.015
33 0.015
34 0.015
35 0.015
36 0.015
37 0.015
38 0.015
39 0.015
40 0.015
41 0.015
42 0.015
$EndElementData
$ElementData
1
"Attribute:SectionShape"
1
0
3
0
1
42
1 5
2 5
3 5
4 5
5 5
6 5
7 5
8 5
9 5
10 5
11 5
12 5
13 5
14 5
15 5
16 5
17 5
18 5
19 5
20 5
21 5
22 5
23 5
24 5
25 5
26 5
27 5
28 5
29 5
30 5
31 5
32 5
33 5
34 5
35 5
36 5
37 5
38 5
39 5
40 5
41 5
42 5
$EndElementData
$ElementData
1
"Attribute:ShearAreaY"
1
0
3
0
1
42
1 0.001550509310155028
2 0.001550509310155028
3 0.001550509310155028
4 0.001550509310155028
5 0.001550509310155028
6 0.001550509310155028
7 0.001550509310155028
8 0.001550509310155028
9 0.001550509310155028
10 0.001550509310155028
11 0.001550509310155028
12 0.001550509310155028
13 0.001550509310155028
14 0.001550509310155028
15 0.001550509310155028
16 0.001550509310155028
17 0.001550509310155028
18 0.001550509310155028
19 0.0020268632069733684
20 0.0020268632069733684
21 0.0020268632069733684
22 0.0020268632069733684
23 0.0020268632069733684
24 0.0020268632069733684
25 0.0020268632069733684
26 0.0020268632069733684
27 0.0020268632069733684
28 0.0020268632069733684
29 0.0020268632069733684
30 0.0020268632069733684
31 0.0020268632069733684
32 0.0020268632069733684
33 0.0020268632069733684
34 0.0020268632069733684
35 0.0020268632069733684
36 0.0020268632069733684
37 0.0020268632069733684
38 0.0020268632069733684
39 0.0020268632069733684
40 0.0020268632069733684
41 0.0020268632069733684
42 0.0020268632069733684
$EndElementData
$ElementData
1
"Attribute:ShearAreaZ"
1
0
3
0
1
42
1 0.005098039215686275
2 0.005098039215686275
3 0.005098039215686275
4 0.005098039215686275
5 0.005098039215686275
6 0.005098039215686275
7 0.005098039215686275
8 0.005098039215686275
9 0.005098039215686275
10 0.005098039215686275
11 0.005098039215686275
12 0.005098039215686275
13 0.005098039215686275
14 0.005098039215686275
15 0.005098039215686275
16 0.005098039215686275
17 0.005098039215686275
18 0.005098039215686275
19 0.0027274509803921565
20 0.0027274509803921565
21 0.0027274509803921565
22 0.0027274509803921565
23 0.0027274509803921565
24 0.0027274509803921565
25 0.0027274509803921565
26 0.0027274509803921565
27 0.0027274509803921565
28 0.0027274509803921565
29 0.0027274509803921565
30 0.0027274509803921565
31 0.0027274509803921565
32 0.0027274509803921565
33 0.0027274509803921565
34 0.0027274509803921565
35 0.0027274509803921565
36 0.0027274509803921565
37 0.0027274509803921565
38 0.0027274509803921565
39 0.0027274509803921565
40 0.0027274509803921565
41 0.0027274509803921565
42 0.0027274509803921565
$EndElementData
$ElementData
1
"Attribute:TorsionConstant"
1
0
3
0
1
42
1 5.928112876485943e-07
2 5.928112876485943e-07
3 5.928112876485943e-07
4 5.928112876485943e-07
5 5.928112876485943e-07
6 5.928112876485943e-07
7 5.928112876485943e-07
8 5.928112876485943e-07
9 5.928112876485943e-07
10 5.928112876485943e-07
11 5.928112876485943e-07
12 5.928112876485943e-07
13 5.928112876485943e-07
14 5.928112876485943e-07
15 5.928112876485943e-07
16 5.928112876485943e-07
17 5.928112876485943e-07
18 5.928112876485943e-07
19 2.011849577943933e-07
20 2.011849577943933e-07
21 2.011849577943933e-07
22 2.011849577943933e-07
23 2.011849577943933e-07
24 2.011849577943933e-07
25 2.011849577943933e-07
26 2.011849577943933e-07
27 2.011849577943933e-07
28 2.011849577943933e-07
29 2.011849577943933e-07
30 2.011849577943933e-07
31 2.011849577943933e-07
32 2.011849577943933e-07
33 2.011849577943933e-07
34 2.011849577943933e-07
35 2.011849577943933e-07
36 2.011849577943933e-07
37 2.011849577943933e-07
38 2.011849577943933e-07
39 2.011849577943933e-07
40 2.011849577943933e-07
41 2.011849577943933e-07
42 2.011849577943933e-07
$EndElementData
$ElementData
1
"Attribute:UniformLoadGlobalX"
1
0
3
0
1
42
1 0
2 0
3 0
4 0
5 0
6 0
7 0
8 0
9 0
10 0
11 0
12 0
13 0
14 0
15 0
16 0
17 0
18 0
19 0
20 0
21 0
22 0
23 0
24 0
25 0
26 0
27 0
28 0
29 0
30 0
31 0
32 0
33 0
34 0
35 0
36 0
37 0
38 0
39 0
40 0
41 0
42 0
$EndElementData
$ElementData
1
"Attribute:UniformLoadGlobalY"
1
0
3
0
1
42
1 0
2 0
3 0
4 0
5 0
6 0
7 0
8 0
9 0
10 0
11 0
12 0
13 0
14 0
15 0
16 0
17 0
18 0
19 -12000
20 -12000
21 -12000
22 -12000
23 -12000
24 -12000
25 -6000
26 -6000
27 -6000
28 -6000
29 -6000
30 -6000
31 -12000
32 -12000
33 -12000
34 -12000
35 -12000
36 -12000
37 -6000
38 -6000
39 -6000
40 -6000
41 -6000
42 -6000
$EndElementData
$ElementData
1
"Attribute:UniformLoadGlobalZ"
1
0
3
0
1
42
1 0
2 0
3 0
4 0
5 0
6 0
7 0
8 0
9 0
10 0
11 0
12 0
13 0
14 0
15 0
16 0
17 0
18 0
19 0
20 0
21 0
22 0
23 0
24 0
25 0
26 0
27 0
28 0
29 0
30 0
31 0
32 0
33 0
34 0
35 0
36 0
37 0
38 0
39 0
40 0
41 0
42 0
$EndElementData
$ElementData
1
"Attribute:UniformLoadLocalX"
1
0
3
0
1
42
1 0
2 0
3 0
4 0
5 0
6 0
7 0
8 0
9 0
10 0
11 0
12 0
13 0
14 0
15 0
16 0
17 0
18 0
19 0
20 0
21 0
22 0
23 0
24 0
25 0
26 0
27 0
28 0
29 0
30 0
31 0
32 0
33 0
34 0
35 0
36 0
37 0
38 0
39 0
40 0
41 0
42 0
$EndElementData
$ElementData
1
"Attribute:UniformLoadLocalY"
1
0
3
0
1
42
1 0
2 0
3 0
4 0
5 0
6 0
7 0
8 0
9 0
10 0
11 0
12 0
13 0
14 0
15 0
16 0
17 0
18 0
19 0
20 0
21 0
22 0
23 0
24 0
25 0
26 0
27 0
28 0
29 0
30 0
31 0
32 0
33 0
34 0
35 0
36 0
37 0
38 0
39 0
40 0
41 0
42 0
$EndElementData
$ElementData
1
"Attribute:UniformLoadLocalZ"
1
0
3
0
1
42
1 0
2 0
3 0
4 0
5 0
6 0
7 0
8 0
9 0
10 0
11 0
12 0
13 0
14 0
15 0
16 0
17 0
18 0
19 0
20 0
21 0
22 0
23 0
24 0
25 0
26 0
27 0
28 0
29 0
30 0
31 0
32 0
33 0
34 0
35 0
36 0
37 0
38 0
39 0
40 0
41 0
42 0
$EndElementData
$ElementData
1
"BeamOrientation"
1
0
3
0
3
42
1 1 0 0
2 1 0 0
3 1 0 0
4 1 0 0
5 1 0 0
6 1 0 0
7 1 0 0
8 1 0 0
9 1 0 0
10 1 0 0
11 1 0 0
12 1 0 0
13 1 0 0
14 1 0 0
15 1 0 0
16 1 0 0
17 1 0 0
18 1 0 0
19 0 0 0
20 0 0 0
21 0 0 0
22 0 0 0
23 0 0 0
24 0 0 0
25 0 0 0
26 0 0 0
27 0 0 0
28 0 0 0
29 0 0 0
30 0 0 0
31 0 0 0
32 0 0 0
33 0 0 0
34 0 0 0
35 0 0 0
36 0 0 0
37 0 0 0
38 0 0 0
39 0 0 0
40 0 0 0
41 0 0 0
42 0 0 0
$EndElementData
$AnafData
1
1
GLOBAL 3 1
"Gravity"
0 -9.80665 0
$EndAnafData
