$MeshFormat
4.1 0 8
$EndMeshFormat
$PhysicalNames
4
1 1 "Material:Structural Steel S355 (EN 10025)"
1 2 "Section:IPE 200"
1 3 "Section:IPE 400"
1 4 "Section:HEB 300"
$EndPhysicalNames
$Entities
0 3 0 0
1 0 0 0 15 6 12 2 1 4 0
2 0 6 0 15 7.5 12 2 1 3 0
3 0 6 0 15 7.5 12 2 1 2 0
$EndEntities
$Nodes
1 15 1 15
1 1 0 15
1
2
3
4
5
6
7
8
9
10
11
12
13
14
15
0 0 0
0 6 0
7.5 7.5 0
15 6 0
15 0 0
0 0 6
0 6 6
7.5 7.5 6
15 6 6
15 0 6
0 0 12
0 6 12
7.5 7.5 12
15 6 12
15 0 12
$EndNodes
$Elements
3 18 1 18
1 1 1 6
1 1 2
2 5 4
5 6 7
6 10 9
9 11 12
10 15 14
1 2 1 6
3 2 3
4 3 4
7 7 8
8 8 9
11 12 13
12 13 14
1 3 1 6
13 2 7
14 3 8
15 4 9
16 7 12
17 8 13
18 9 14
$EndElements
$NodeData
1
"Displacement"
1
0
3
0
3
15
1 0 0 0
2 -0.0010740174147804223 -7.027794230261395e-05 4.798805357858364e-07
3 0.0015243634533242416 -0.013551795541326938 2.124411562064605e-06
4 0.004121386704243866 -7.221191812676962e-05 1.7288432399871427e-07
5 0 0 0
6 0 0 0
7 -0.001675656885372181 -0.00012271064856205825 -5.2600010234541665e-20
8 0.0029593636151185308 -0.02419104900653658 -8.490786528055412e-19
9 0.0075921936757970265 -0.00012639003663552026 5.075721530297942e-21
10 0 0 0
11 0 0 0
12 -0.0010740174147804223 -7.027794230261395e-05 -4.798805357859413e-07
13 0.0015243634533242416 -0.013551795541326938 -2.1244115620663025e-06
14 0.004121386704243866 -7.221191812676962e-05 -1.728843239987046e-07
15 0 0 0
$EndNodeData
$NodeData
1
"Rotation"
1
0
3
0
3
15
1 0 0 0
2 4.712990399582869e-05 0.00022993193048777817 -0.001238650525890618
3 0.002795185778977947 4.215341543637066e-06 9.856438048888828e-05
4 4.546997509942776e-05 -0.00014475734991823417 0.0008435514958005337
5 0 0 0
6 0 0 0
7 -8.384254124372213e-21 1.4035285690500562e-19 -0.0022508271067964766
8 2.019164060925068e-19 -1.5319689101623892e-20 0.00018991094602031263
9 1.8456890441256975e-21 -2.086200369641158e-19 0.0014895861564618907
10 0 0 0
11 0 0 0
12 -4.712990399582871e-05 -0.0002299319304877779 -0.001238650525890618
13 -0.0027951857789779476 -4.2153415436370735e-06 9.856438048888827e-05
14 -4.546997509942775e-05 0.00014475734991823398 0.0008435514958005337
15 0 0 0
$EndNodeData
$ElementData
1
"BeamSectionForce"
1
0
3
0
12
18
1 -40111.98200053782 -8663.329637911509 140.7684826442405 5.729776892185887 -281.0575661282014 -25879.97007276449 -33226.180050257324 -19463.32963791151 140.7684826442405 5.729776892185887 563.5533297372415 58500.007754704566
2 -41121.076943752836 19530.366102679516 136.10037951443348 -3.60727332117821 -272.02804812777833 51161.106942318176 -34235.27499347234 19530.366102679516 136.10037951443348 -3.60727332117821 544.5742289588226 -66021.0896737589
3 -25455.46503011888 -28142.802885138222 -92.92709350172976 14.300826723966631 80.29245508688535 -58499.05631933539 -19080.13620880095 3733.8412214514574 -92.92709350172976 14.300826723966631 -630.4631395732865 34847.2725529224
4 -19300.90301614991 -2750.470437616739 118.86478522737431 -14.390818015352425 -702.5448839552454 34847.18668810894 -25676.231837467843 29126.17366897294 118.86478522737431 -14.390818015352425 206.59590507485024 -66020.48240795424
5 -67469.91382400446 -13944.97977090663 2.7419715107228278e-14 3.4975157845218012e-15 -1.0738667657409734e-13 -43609.6813972486 -60584.11187372395 -35544.97977090663 2.7419715107228278e-14 3.4975157845218012e-15 5.713161406927234e-14 104860.19722819117
6 -69389.71646718231 35410.90684137037 4.608828192483938e-16 -5.198696259837187e-15 4.1488643578896166e-15 93112.46368607986 -62503.914516901816 35410.90684137037 4.608828192483938e-16 -5.198696259837187e-15 6.914161273379981e-15 -119352.97736214235
7 -46512.37706200694 -51098.58913243274 -3.5088015286711385e-14 9.479493051503236e-16 6.403054368021579e-14 -104862.10009892957 -34737.04824068901 7778.054974156945 -3.5088015286711385e-14 9.479493051503236e-16 -2.043411682800592e-13 60807.08666030375
8 -35067.81850110032 -5883.277166277592 1.2409822254998355e-14 -8.540067990038162e-16 -1.3023814048530293e-13 60807.258389930685 -46843.147322418255 52993.36694031209 1.2409822254998355e-14 -8.540067990038162e-16 -3.532125172762089e-14 -119354.19189375173
9 -40111.98200053782 -8663.329637911509 -140.76848264424046 -5.729776892185881 281.0575661282013 -25879.97007276449 -33226.180050257324 -19463.32963791151 -140.76848264424046 -5.729776892185881 -563.5533297372415 58500.007754704566
10 -41121.076943752836 19530.366102679516 -136.10037951443346 3.607273321178205 272.0280481277783 51161.106942318176 -34235.27499347234 19530.366102679516 -136.10037951443346 3.607273321178205 -544.5742289588226 -66021.0896737589
11 -25455.46503011888 -28142.802885138222 92.92709350172976 -14.300826723966635 -80.29245508688547 -58499.05631933539 -19080.13620880095 3733.8412214514574 92.92709350172976 -14.300826723966635 630.4631395732865 34847.2725529224
12 -19300.90301614991 -2750.470437616739 -118.86478522737428 14.390818015352428 702.5448839552452 34847.18668810894 -25676.231837467843 29126.17366897294 -118.86478522737428 14.390818015352428 -206.5959050748501 -66020.48240795424
13 -47.84138914251076 -637.663961460016 21.450272439873437 -0.9514353691827517 -75.80807583618032 -565.2768613777118 -47.84138914251076 677.9975949498607 21.450272439873437 -0.9514353691827517 52.89355880306029 -686.2777618472464
14 -211.79187872910416 -1168.7503673447522 -23.62478758678497 0.08586481345200236 70.66431686677853 -289.55885406777116 -211.79187872910416 146.91118906512452 -23.62478758678497 0.08586481345200236 -71.08440865393128 2775.9586807711103
15 -17.235594287059165 -639.1885839836281 -64.86194962106782 0.6072658046692749 201.7989504827435 -570.979661344238 -17.235594287059165 676.4729724262487 -64.86194962106782 0.6072658046692749 -187.37274724366353 -682.8328266721
16 -47.84138914251073 -677.9975949498609 -21.45027243987341 0.9514353691827517 52.8935588030602 -686.2777618472464 -47.84138914251073 637.6639614600159 -21.45027243987341 0.9514353691827517 -75.80807583618025 -565.2768613777118
17 -211.7918787291041 -146.91118906512486 23.62478758678497 -0.08586481345200238 -71.08440865393128 2775.9586807711107 -211.7918787291041 1168.7503673447518 23.62478758678497 -0.08586481345200238 70.66431686677853 -289.55885406776963
18 -17.235594287059207 -676.4729724262487 64.8619496210678 -0.6072658046692749 -187.3727472436634 -682.8328266721 -17.235594287059207 639.1885839836281 64.8619496210678 -0.6072658046692749 201.79895048274344 -570.979661344238
$EndElementData
$ElementData
1
"AxialForce"
1
0
3
0
1
18
1 -36669.08102539757
2 -37678.17596861259
3 -22267.800619459915
4 -22488.567426808877
5 -64027.01284886421
6 -65946.81549204206
7 -40624.712651347974
8 -40955.48291175929
9 -36669.08102539757
10 -37678.17596861259
11 -22267.800619459915
12 -22488.567426808877
13 -47.84138914251076
14 -211.79187872910416
15 -17.235594287059165
16 -47.84138914251073
17 -211.7918787291041
18 -17.235594287059207
$EndElementData
$ElementData
1
"VonMisesStress"
1
0
3
0
1
18
1 39786865.66479074
2 44130469.662164904
3 56671567.162147015
4 63926435.78716673
5 69733848.4688
6 78125628.31232245
7 100485464.34700795
8 112860702.41777296
9 39786865.66479074
10 44130469.662164904
11 56671567.162147015
12 63926435.78716673
13 5749734.328122591
14 16859476.654785547
15 10199273.701349631
16 5749734.328122588
17 16859476.654785536
18 10199273.701349631
$EndElementData
$NodeData
1
"Fixity"
1
0
3
0
3
15
1 1 1 1
2 0 0 0
3 0 0 0
4 0 0 0
5 1 1 1
6 1 1 1
7 0 0 0
8 0 0 0
9 0 0 0
10 1 1 1
11 1 1 1
12 0 0 0
13 0 0 0
14 0 0 0
15 1 1 1
$EndNodeData
$NodeData
1
"FixityRotation"
1
0
3
0
3
15
1 1 1 1
2 0 0 0
3 0 0 0
4 0 0 0
5 1 1 1
6 1 1 1
7 0 0 0
8 0 0 0
9 0 0 0
10 1 1 1
11 1 1 1
12 0 0 0
13 0 0 0
14 0 0 0
15 1 1 1
$EndNodeData
$ElementData
1
"CrossSectionArea"
1
0
3
0
1
18
1 0.014907778955533042
2 0.014907778955533042
3 0.0084463576397669
4 0.0084463576397669
5 0.014907778955533042
6 0.014907778955533042
7 0.0084463576397669
8 0.0084463576397669
9 0.014907778955533042
10 0.014907778955533042
11 0.0084463576397669
12 0.0084463576397669
13 0.002848410657883071
14 0.002848410657883071
15 0.002848410657883071
16 0.002848410657883071
17 0.002848410657883071
18 0.002848410657883071
$EndElementData
$ElementData
1
"Attribute:ElementFormulation"
1
0
3
0
1
18
1 1
2 1
3 1
4 1
5 1
6 1
7 1
8 1
9 1
10 1
11 1
12 1
13 1
14 1
15 1
16 1
17 1
18 1
$EndElementData
$ElementData
1
"MaterialID"
1
0
3
0
1
18
1 3
2 3
3 3
4 3
5 3
6 3
7 3
8 3
9 3
10 3
11 3
12 3
13 3
14 3
15 3
16 3
17 3
18 3
$EndElementData
$ElementData
1
"Attribute:SecondMomentY"
1
0
3
0
1
18
1 8.562830440309431e-05
2 8.562830440309431e-05
3 1.317824028008936e-05
4 1.317824028008936e-05
5 8.562830440309431e-05
6 8.562830440309431e-05
7 1.317824028008936e-05
8 1.317824028008936e-05
9 8.562830440309431e-05
10 8.562830440309431e-05
11 1.317824028008936e-05
12 1.317824028008936e-05
13 1.423683272853165e-06
14 1.423683272853165e-06
15 1.423683272853165e-06
16 1.423683272853165e-06
17 1.423683272853165e-06
18 1.423683272853165e-06
$EndElementData
$ElementData
1
"Attribute:SecondMomentZ"
1
0
3
0
1
18
1 0.0002516567970643579
2 0.0002516567970643579
3 0.00023128369088907635
4 0.00023128369088907635
5 0.0002516567970643579
6 0.0002516567970643579
7 0.00023128369088907635
8 0.00023128369088907635
9 0.0002516567970643579
10 0.0002516567970643579
11 0.00023128369088907635
12 0.00023128369088907635
13 1.9431682510835934e-05
14 1.9431682510835934e-05
15 1.9431682510835934e-05
16 1.9431682510835934e-05
17 1.9431682510835934e-05
18 1.9431682510835934e-05
$EndElementData
$ElementData
1
"Attribute:SectionDimension1"
1
0
3
0
1
18
1 0.3
2 0.3
3 0.4
4 0.4
5 0.3
6 0.3
7 0.4
8 0.4
9 0.3
10 0.3
11 0.4
12 0.4
13 0.2
14 0.2
15 0.2
16 0.2
17 0.2
18 0.2
$EndElementData
$ElementData
1
"Attribute:SectionDimension2"
1
0
3
0
1
18
1 0.3
2 0.3
3 0.18
4 0.18
5 0.3
6 0.3
7 0.18
8 0.18
9 0.3
10 0.3
11 0.18
12 0.18
13 0.1
14 0.1
15 0.1
16 0.1
17 0.1
18 0.1
$EndElementData
$ElementData
1
"Attribute:SectionDimension3"
1
0
3
0
1
18
1 0.011
2 0.011
3 0.0086
4 0.0086
5 0.011
6 0.011
7 0.0086
8 0.0086
9 0.011
10 0.011
11 0.0086
12 0.0086
13 0.0056
14 0.0056
15 0.0056
16 0.0056
17 0.0056
18 0.0056
$EndElementData
$ElementData
1
"Attribute:SectionDimension4"
1
0
3
0
1
18
1 0.019
2 0.019
3 0.0135
4 0.0135
5 0.019
6 0.019
7 0.0135
8 0.0135
9 0.019
10 0.019
11 0.0135
12 0.0135
13 0.0085
14 0.0085
15 0.0085
16 0.0085
17 0.0085
18 0.0085
$EndElementData
$ElementData
1
"Attribute:SectionDimension5"
1
0
3
0
1
18
1 0.027
2 0.027
3 0.021
4 0.021
5 0.027
6 0.027
7 0.021
8 0.021
9 0.027
10 0.027
11 0.021
12 0.021
13 0.012
14 0.012
15 0.012
16 0.012
17 0.012
18 0.012
$EndElementData
$ElementData
1
"Attribute:SectionShape"
1
0
3
0
1
18
1 5
2 5
3 5
4 5
5 5
6 5
7 5
8 5
9 5
10 5
11 5
12 5
13 5
14 5
15 5
16 5
17 5
18 5
$EndElementData
$ElementData
1
"Attribute:ShearAreaY"
1
0
3
0
1
18
1 0.0029183471282896657
2 0.0029183471282896657
3 0.0033323939411293683
4 0.0033323939411293683
5 0.0029183471282896657
6 0.0029183471282896657
7 0.0033323939411293683
8 0.0033323939411293683
9 0.0029183471282896657
10 0.0029183471282896657
11 0.0033323939411293683
12 0.0033323939411293683
13 0.0010633841173523775
14 0.0010633841173523775
15 0.0010633841173523775
16 0.0010633841173523775
17 0.0010633841173523775
18 0.0010633841173523775
$EndElementData
$ElementData
1
"Attribute:ShearAreaZ"
1
0
3
0
1
18
1 0.009686274509803921
2 0.009686274509803921
3 0.0041294117647058814
4 0.0041294117647058814
5 0.009686274509803921
6 0.009686274509803921
7 0.0041294117647058814
8 0.0041294117647058814
9 0.009686274509803921
10 0.009686274509803921
11 0.0041294117647058814
12 0.0041294117647058814
13 0.0014444444444444446
14 0.0014444444444444446
15 0.0014444444444444446
16 0.0014444444444444446
17 0.0014444444444444446
18 0.0014444444444444446
$EndElementData
$ElementData
1
"Attribute:TorsionConstant"
1
0
3
0
1
18
1 1.8504540939155354e-06
2 1.8504540939155354e-06
3 5.107547221208023e-07
4 5.107547221208023e-07
5 1.8504540939155354e-06
6 1.8504540939155354e-06
7 5.107547221208023e-07
8 5.107547221208023e-07
9 1.8504540939155354e-06
10 1.8504540939155354e-06
11 5.107547221208023e-07
12 5.107547221208023e-07
13 6.980120130097939e-08
14 6.980120130097939e-08
15 6.980120130097939e-08
16 6.980120130097939e-08
17 6.980120130097939e-08
18 6.980120130097939e-08
$EndElementData
$ElementData
1
"Attribute:UniformLoadGlobalX"
1
0
3
0
1
18
1 1800
2 0
3 0
4 0
5 3600
6 0
7 0
8 0
9 1800
10 0
11 0
12 0
13 0
14 0
15 0
16 0
17 0
18 0
$EndElementData
$ElementData
1
"Attribute:UniformLoadGlobalY"
1
0
3
0
1
18
1 0
2 0
3 -3600
4 -3600
5 0
6 0
7 -7200
8 -7200
9 0
10 0
11 -3600
12 -3600
13 0
14 0
15 0
16 0
17 0
18 0
$EndElementData
$ElementData
1
"Attribute:UniformLoadGlobalZ"
1
0
3
0
1
18
1 0
2 0
3 0
4 0
5 0
6 0
7 0
8 0
9 0
10 0
11 0
12 0
13 0
14 0
15 0
16 0
17 0
18 0
$EndElementData
$ElementData
1
"Attribute:UniformLoadLocalX"
1
0
3
0
1
18
1 0
2 0
3 0
4 0
5 0
6 0
7 0
8 0
9 0
10 0
11 0
12 0
13 0
14 0
15 0
16 0
17 0
18 0
$EndElementData
$ElementData
1
"Attribute:UniformLoadLocalY"
1
0
3
0
1
18
1 0
2 0
3 0
4 0
5 0
6 0
7 0
8 0
9 0
10 0
11 0
12 0
13 0
14 0
15 0
16 0
17 0
18 0
$EndElementData
$ElementData
1
"Attribute:UniformLoadLocalZ"
1
0
3
0
1
18
1 0
2 0
3 0
4 0
5 0
6 0
7 0
8 0
9 0
10 0
11 0
12 0
13 0
14 0
15 0
16 0
17 0
18 0
$EndElementData
$ElementData
1
"BeamOrientation"
1
0
3
0
3
18
1 1 0 0
2 1 0 0
3 0 0 0
4 0 0 0
5 1 0 0
6 1 0 0
7 0 0 0
8 0 0 0
9 1 0 0
10 1 0 0
11 0 0 0
12 0 0 0
13 0 0 0
14 0 0 0
15 0 0 0
16 0 0 0
17 0 0 0
18 0 0 0
$EndElementData
$AnafData
1
1
GLOBAL 3 1
"Gravity"
0 -9.80665 0
$EndAnafData
