$MeshFormat
4.1 0 8
$EndMeshFormat
$PhysicalNames
4
1 1 "Material:Structural Steel S355 (EN 10025)"
1 2 "Section:IPE 400"
1 3 "Section:IPE 450"
1 4 "Section:HEB 340"
$EndPhysicalNames
$Entities
0 3 0 0
1 0 0 0 18 18 15 2 1 4 0
2 0 3.6 0 18 18 15 2 1 3 0
3 0 3.6 0 18 18 15 2 1 2 0
$EndEntities
$Nodes
1 72 1 72
1 1 0 72
1
2
3
4
5
6
7
8
9
10
11
12
13
14
15
16
17
18
19
20
21
22
23
24
25
26
27
28
29
30
31
32
33
34
35
36
37
38
39
40
41
42
43
44
45
46
47
48
49
50
51
52
53
54
55
56
57
58
59
60
61
62
63
64
65
66
67
68
69
70
71
72
0 0 0
6 0 0
12 0 0
18 0 0
0 0 7.5
6 0 7.5
12 0 7.5
18 0 7.5
0 0 15
6 0 15
12 0 15
18 0 15
0 3.6 0
6 3.6 0
12 3.6 0
18 3.6 0
0 3.6 7.5
6 3.6 7.5
12 3.6 7.5
18 3.6 7.5
0 3.6 15
6 3.6 15
12 3.6 15
18 3.6 15
0 7.2 0
6 7.2 0
12 7.2 0
18 7.2 0
0 7.2 7.5
6 7.2 7.5
12 7.2 7.5
18 7.2 7.5
0 7.2 15
6 7.2 15
12 7.2 15
18 7.2 15
0 10.8 0
6 10.8 0
12 10.8 0
18 10.8 0
0 10.8 7.5
6 10.8 7.5
12 10.8 7.5
18 10.8 7.5
0 10.8 15
6 10.8 15
12 10.8 15
18 10.8 15
0 14.4 0
6 14.4 0
12 14.4 0
18 14.4 0
0 14.4 7.5
6 14.4 7.5
12 14.4 7.5
18 14.4 7.5
0 14.4 15
6 14.4 15
12 14.4 15
18 14.4 15
0 18 0
6 18 0
12 18 0
18 18 0
0 18 7.5
6 18 7.5
12 18 7.5
18 18 7.5
0 18 15
6 18 15
12 18 15
18 18 15
$EndNodes
$Elements
3 145 1 145
1 1 1 60
1 1 13
2 13 25
3 25 37
4 37 49
5 49 61
6 2 14
7 14 26
8 26 38
9 38 50
10 50 62
11 3 15
12 15 27
13 27 39
14 39 51
15 51 63
16 4 16
17 16 28
18 28 40
19 40 52
20 52 64
21 5 17
22 17 29
23 29 41
24 41 53
25 53 65
26 6 18
27 18 30
28 30 42
29 42 54
30 54 66
31 7 19
32 19 31
33 31 43
34 43 55
35 55 67
36 8 20
37 20 32
38 32 44
39 44 56
40 56 68
41 9 21
42 21 33
43 33 45
44 45 57
45 57 69
46 10 22
47 22 34
48 34 46
49 46 58
50 58 70
51 11 23
52 23 35
53 35 47
54 47 59
55 59 71
56 12 24
57 24 36
58 36 48
59 48 60
60 60 72
1 2 1 45
61 13 14
62 14 15
63 15 16
64 17 18
65 18 19
66 19 20
67 21 22
68 22 23
69 23 24
78 25 26
79 26 27
80 27 28
81 29 30
82 30 31
83 31 32
84 33 34
85 34 35
86 35 36
95 37 38
96 38 39
97 39 40
98 41 42
99 42 43
100 43 44
101 45 46
102 46 47
103 47 48
112 49 50
113 50 51
114 51 52
115 53 54
116 54 55
117 55 56
118 57 58
119 58 59
120 59 60
129 61 62
130 62 63
131 63 64
132 65 66
133 66 67
134 67 68
135 69 70
136 70 71
137 71 72
1 3 1 40
70 13 17
71 17 21
72 14 18
73 18 22
74 15 19
75 19 23
76 16 20
77 20 24
87 25 29
88 29 33
89 26 30
90 30 34
91 27 31
92 31 35
93 28 32
94 32 36
104 37 41
105 41 45
106 38 42
107 42 46
108 39 43
109 43 47
110 40 44
111 44 48
121 49 53
122 53 57
123 50 54
124 54 58
125 51 55
126 55 59
127 52 56
128 56 60
138 61 65
139 65 69
140 62 66
141 66 70
142 63 67
143 67 71
144 64 68
145 68 72
$EndElements
$NodeData
1
"Displacement"
1
0
3
0
3
72
1 0 0 0
2 0 0 0
3 0 0 0
4 0 0 0
5 0 0 0
6 0 0 0
7 0 0 0
8 0 0 0
9 0 0 0
10 0 0 0
11 0 0 0
12 0 0 0
13 -3.492025091178547e-05 -0.0005068032470094035 0.0059979605571500475
14 -1.1567860762166301e-05 -0.0008879363917455397 0.005997960557149808
15 1.1567860762167594e-05 -0.000887936391745541 0.0059979605571499695
16 3.492025091178674e-05 -0.0005068032470094025 0.005997960557150076
17 -3.492025091178615e-05 -0.0007366611449143971 0.005987021517241132
18 -1.156786076216705e-05 -0.0011177942896505324 0.005987021517240893
19 1.1567860762166758e-05 -0.0011177942896505332 0.005987021517241055
20 3.4920250911785867e-05 -0.0007366611449143967 0.005987021517241162
21 -3.492025091178699e-05 -0.0005762956514799244 0.005981918021368022
22 -1.1567860762167924e-05 -0.0009574287962160572 0.005981918021367782
23 1.1567860762165847e-05 -0.0009574287962160613 0.005981918021367946
24 3.492025091178497e-05 -0.0005762956514799251 0.005981918021368051
25 -4.174384354831352e-07 -0.0009176795016873322 0.01311297952426359
26 -1.0585644076390676e-06 -0.0016014131928493089 0.013112979524263001
27 1.0585644076420663e-06 -0.0016014131928493115 0.013112979524263435
28 4.1743843548607144e-07 -0.0009176795016873302 0.013112979524263664
29 -4.174384354848629e-07 -0.001326150106998614 0.013073927199495548
30 -1.0585644076408976e-06 -0.0020098837981605885 0.013073927199494956
31 1.0585644076401196e-06 -0.002009883798160591 0.01307392719949539
32 4.17438435484094e-07 -0.0013261501069986134 0.013073927199495619
33 -4.174384354870239e-07 -0.001033772152993361 0.013059037021847927
34 -1.0585644076431723e-06 -0.0017175058441553323 0.013059037021847335
35 1.058564407637722e-06 -0.00171750584415534 0.01305903702184777
36 4.1743843548167354e-07 -0.0010337721529933622 0.013059037021848002
37 1.743450791853113e-07 -0.0012291034354014183 0.018632393402721284
38 -9.642147173741304e-07 -0.0021398003082147925 0.018632393402720635
39 9.642147173788083e-07 -0.002139800308214796 0.01863239340272124
40 -1.7434507918073149e-07 -0.0012291034354014155 0.018632393402721523
41 1.7434507918236838e-07 -0.0017682407291802734 0.01859448176372073
42 -9.642147173772186e-07 -0.002678937601993645 0.018594481763720076
43 9.642147173755832e-07 -0.0026789376019936482 0.018594481763720673
44 -1.7434507918399608e-07 -0.0017682407291802725 0.01859448176372096
45 1.7434507917889716e-07 -0.0013718381399412762 0.018579888411434438
46 -9.642147173807967e-07 -0.0022825350127546437 0.018579888411433786
47 9.64214717371876e-07 -0.002282535012754654 0.01857988841143439
48 -1.743450791877257e-07 -0.0013718381399412784 0.01857988841143467
49 -3.4374229562571826e-05 -0.0014375803117242386 0.022335655022948316
50 -9.853616072881886e-06 -0.002500986794538395 0.02233565502294746
51 9.853616072887782e-06 -0.0025009867945383992 0.02233565502294839
52 3.43742295625776e-05 -0.0014375803117242353 0.022335655022948785
53 -3.437422956257581e-05 -0.0020623066929256967 0.0223113356724537
54 -9.853616072886044e-06 -0.0031257131757398506 0.022311335672452838
55 9.853616072883438e-06 -0.0031257131757398545 0.022311335672453768
56 3.437422956257321e-05 -0.002062306692925695 0.022311335672454163
57 -3.437422956258019e-05 -0.0015925389775990305 0.0223093892467958
58 -9.853616072890589e-06 -0.0026559454604131796 0.022309389246794945
59 9.853616072878719e-06 -0.0026559454604131918 0.022309389246795874
60 3.437422956256849e-05 -0.0015925389775990327 0.022309389246796266
61 0.00012013005787154056 -0.0015390019683776458 0.024342109732265076
62 4.0060431742220906e-05 -0.0026826166472483605 0.024342109732264205
63 -4.006043174221529e-05 -0.0026826166472483644 0.024342109732265322
64 -0.00012013005787153518 -0.0015390019683776419 0.024342109732265645
65 0.0001201300578715361 -0.002208253683706286 0.02425693875234382
66 4.006043174221636e-05 -0.0033518683625769984 0.024256938752342957
67 -4.006043174221992e-05 -0.003351868362577002 0.02425693875234406
68 -0.00012013005787153976 -0.002208253683706284 0.024256938752344394
69 0.00012013005787153125 -0.0016974489062137818 0.024196274067463237
70 4.006043174221133e-05 -0.0028410635850844895 0.024196274067462376
71 -4.006043174222508e-05 -0.0028410635850845013 0.024196274067463476
72 -0.00012013005787154493 -0.001697448906213784 0.024196274067463816
$EndNodeData
$NodeData
1
"Rotation"
1
0
3
0
3
72
1 0 0 0
2 0 0 0
3 0 0 0
4 0 0 0
5 0 0 0
6 0 0 0
7 0 0 0
8 0 0 0
9 0 0 0
10 0 0 0
11 0 0 0
12 0 0 0
13 0.0019186360690382194 3.2121380736813474e-17 -0.00031034404602768437
14 0.0019186360690381544 4.887209119668046e-18 1.3646779108274101e-05
15 0.0019186360690382003 -2.3266148132000904e-17 -1.3646779108274404e-05
16 0.0019186360690382257 -8.182380233308176e-18 0.00031034404602768405
17 0.0008108343482159645 1.630568214020497e-17 -0.00031034404602768426
18 0.0008108343482159272 4.88278569075039e-18 1.364677910827437e-05
19 0.0008108343482159543 -1.605813281837875e-17 -1.3646779108274289e-05
20 0.0008108343482159687 -6.2343697856214166e-18 0.00031034404602768437
21 0.0008832369573679123 3.234522311128604e-17 -0.0003103440460276837
22 0.0008832369573678464 4.705674671630103e-18 1.3646779108274526e-05
23 0.0008832369573678938 -2.3121269145490148e-17 -1.3646779108274132e-05
24 0.0008832369573679184 -7.974603186654048e-18 0.00031034404602768453
25 0.0016197563641238586 7.920828501022068e-17 -0.0002652061424039389
26 0.0016197563641238211 9.538474761767387e-18 -1.0162292044926311e-05
27 0.0016197563641238621 -5.727505442495097e-17 1.0162292044926007e-05
28 0.001619756364123876 -1.489466944523532e-17 0.0002652061424039387
29 0.0007575415844427221 4.045607995154712e-17 -0.00026520614240393845
30 0.000757541584442698 9.295603432342276e-18 -1.0162292044926059e-05
31 0.0007575415844427234 -3.9605117159480914e-17 1.016229204492611e-05
32 0.0007575415844427345 -1.2582895460769839e-17 0.0002652061424039387
33 0.0007365625616425841 7.848117656839874e-17 -0.0002652061424039382
34 0.0007365625616425466 9.646124060251543e-18 -1.0162292044925866e-05
35 0.000736562561642587 -5.733118471614141e-17 1.0162292044926159e-05
36 0.0007365625616426019 -1.6346202677557524e-17 0.00026520614240393926
37 0.001325604487449683 9.132768878480766e-17 -0.00028528238030763145
38 0.0013256044874496607 5.468868569578891e-19 -7.33633608671493e-06
39 0.0013256044874497058 -7.543698836938902e-17 7.3363360867145665e-06
40 0.0013256044874497234 -1.7277324480683432e-17 0.0002852823803076314
41 0.0005472030441274993 4.519703985257841e-17 -0.00028528238030763124
42 0.0005472030441274823 4.765116051847761e-18 -7.3363360867145724e-06
43 0.0005472030441275127 -5.203443925335231e-17 7.336336086714662e-06
44 0.0005472030441275219 -1.5908718885466318e-17 0.00028528238030763167
45 0.0003924451467726591 9.177537353375279e-17 -0.00028528238030763064
46 0.000392445146772637 6.2435194791410515e-19 -7.33633608671449e-06
47 0.00039244514677268325 -7.647453913877771e-17 7.336336086714628e-06
48 0.0003924451467726992 -1.7293802247771222e-17 0.0002852823803076317
49 0.0009328342214881976 1.216290638325689e-16 -0.00023463386052614845
50 0.0009328342214881734 -8.086570070014988e-18 -3.4936821075510546e-05
51 0.0009328342214882273 -1.112659317126864e-16 3.493682107551052e-05
52 0.0009328342214882308 -2.1715149624361942e-17 0.00023463386052614848
53 0.0003408652516570713 5.993573251592802e-17 -0.000234633860526148
54 0.00034086525165705916 -1.908869458174732e-18 -3.4936821075510444e-05
55 0.00034086525165709093 -7.690502428384518e-17 3.4936821075510566e-05
56 0.00034086525165709255 -2.0882332016194376e-17 0.00023463386052614835
57 0.00010771764614149668 1.2380863479424282e-16 -0.0002346338605261479
58 0.00010771764614147125 -9.534007524316496e-18 -3.4936821075510376e-05
59 0.0001077176461415242 -1.103196651331886e-16 3.49368210755104e-05
60 0.00010771764614153001 -2.149499144500986e-17 0.00023463386052614867
61 0.001046204562423211 1.2943912999714385e-16 -0.0006282872709437039
62 0.0010462045624232152 -2.3503726024848954e-17 6.709529776459317e-06
63 0.0010462045624232347 -1.2096126724110237e-16 -6.709529776459404e-06
64 0.001046204562423222 -1.1419648854549849e-17 0.0006282872709437048
65 0.00012482213700284314 6.186395582558939e-17 -0.0006282872709437039
66 0.00012482213700284217 -1.20760078607512e-17 6.709529776459594e-06
67 0.0001248221370028528 -8.28889014073173e-17 -6.709529776459629e-06
68 0.00012482213700284878 -1.507254681470187e-17 0.0006282872709437045
69 -0.0005823675711644138 1.2763510031077253e-16 -0.0006282872709437034
70 -0.0005823675711644093 -2.2069358444805378e-17 6.709529776459421e-06
71 -0.0005823675711643894 -1.2059807125399701e-16 -6.7095297764600536e-06
72 -0.0005823675711644012 -1.2623803435247908e-17 0.0006282872709437045
$EndNodeData
$ElementData
1
"BeamSectionForce"
1
0
3
0
12
145
1 -507602.1646949548 -11751.478064388602 -13316.868527153616 1.854305238120097e-12 34815.38484177487 -14516.604911835046 -502865.97292770847 -11751.478064388602 -13316.868527153616 1.854305238120097e-12 -13125.341855978157 27788.716119963923
2 -411972.1841641372 -19828.43270303184 -3903.9297397323808 2.7182359922956507e-12 5337.666730565037 -36656.3581306376 -407235.9923968908 -19828.43270303184 -3903.9297397323808 2.7182359922956507e-12 -8716.480332471525 34725.999600277035
3 -312827.7902207409 -19606.68472085175 -1139.7269860782017 6.996297601974908e-13 388.82565336567495 -34862.74431638518 -308091.59845349455 -19606.68472085175 -1139.7269860782017 6.996297601974908e-13 -3714.191496515865 35721.32067868114
4 -210199.48034928125 -19212.88795010259 1894.2456860845086 1.7492398266961696e-12 -5629.762061146657 -35666.210527868694 -205463.28858203496 -19212.88795010259 1894.2456860845086 1.7492398266961696e-12 1189.5224087575662 33500.18609250062
5 -103475.7280050804 -27693.899169896642 8142.767594441437 4.5086002739720857e-13 -14016.159888345397 -41431.56712017511 -98739.53623783411 -27693.899169896642 8142.767594441437 4.5086002739720857e-13 15297.803451643758 58266.4698914528
6 -887555.2344714067 257.314323523447 -13316.86852715298 2.82129138365544e-13 34815.38484177334 171.3580736458586 -882819.0427041604 257.314323523447 -13316.86852715298 2.82129138365544e-13 -13125.34185597737 -754.9734910385503
7 -713635.8104282027 332.254089724424 -3903.9297397315113 2.685085773460576e-13 5337.666730563655 1107.1643415672131 -708899.6186609565 332.254089724424 -3903.9297397315113 2.685085773460576e-13 -8716.480332469822 -88.95038144071361
8 -539088.2422063084 -621.7509888654863 -1139.7269860784545 -5.190669942714169e-13 388.8256533661897 -1179.5789127266964 -534352.0504390622 -621.7509888654863 -1139.7269860784545 -5.190669942714169e-13 -3714.191496516225 1058.7246471890548
9 -362436.26664172433 -1682.5388885110126 1894.2456860851544 -4.983927849783394e-13 -5629.7620611478105 -2438.391597545506 -357700.074874478 -1682.5388885110126 1894.2456860851544 -4.983927849783394e-13 1189.5224087587085 3618.748401094139
10 -183435.58123175093 -17.721603246118576 8142.767594441315 -8.900026209396094e-13 -14016.159888345035 -922.41862835934 -178699.38946450464 -17.721603246118576 8142.767594441315 -8.900026209396094e-13 15297.803451643704 -858.620856673313
11 -887555.234471408 -257.3143235234322 -13316.86852715339 -1.3431097718225684e-12 34815.38484177434 -171.35807364582553 -882819.0427041617 -257.3143235234322 -13316.86852715339 -1.3431097718225684e-12 -13125.341855977858 754.97349103853
12 -713635.810428204 -332.2540897244119 -3903.9297397321225 -1.9632684409944474e-12 5337.666730564721 -1107.1643415671913 -708899.6186609578 -332.2540897244119 -3903.9297397321225 -1.9632684409944474e-12 -8716.480332470936 88.9503814406919
13 -539088.2422063091 621.7509888654956 -1139.72698607854 -1.0484533502311574e-12 388.8256533663498 1179.5789127267146 -534352.0504390629 621.7509888654956 -1139.72698607854 -1.0484533502311574e-12 -3714.1914965163123 -1058.7246471890705
14 -362436.26664172526 1682.5388885110228 1894.2456860843813 -2.0683356628453366e-12 -5629.762061146383 2438.3915975455175 -357700.0748744789 1682.5388885110228 1894.2456860843813 -2.0683356628453366e-12 1189.5224087573952 -3618.748401094164
15 -183435.58123175093 17.721603246109225 8142.767594441048 -5.596929846502329e-13 -14016.159888344704 922.4186283593237 -178699.38946450464 17.721603246109225 8142.767594441048 -5.596929846502329e-13 15297.803451642983 858.6208566733317
16 -507602.1646949538 11751.478064388617 -13316.868527153707 -4.723529991201386e-13 34815.38484177506 14516.604911835077 -502865.9729277075 11751.478064388617 -13316.868527153707 -4.723529991201386e-13 -13125.341855978288 -27788.716119963938
17 -411972.18416413607 19828.43270303186 -3903.9297397324062 -3.8748748528075455e-13 5337.666730565146 36656.35813063763 -407235.9923968897 19828.43270303186 -3903.9297397324062 -3.8748748528075455e-13 -8716.480332471496 -34725.999600277064
18 -312827.79022073996 19606.684720851776 -1139.72698607852 -1.3754607091970717e-13 388.82565336635525 34862.74431638522 -308091.5984534936 19606.684720851776 -1139.72698607852 -1.3754607091970717e-13 -3714.191496516294 -35721.320678681186
19 -210199.48034928078 19212.887950102613 1894.245686083992 -2.5618706982769887e-13 -5629.7620611457805 35666.21052786874 -205463.2885820345 19212.887950102613 1894.245686083992 -2.5618706982769887e-13 1189.5224087566276 -33500.18609250067
20 -103475.7280050797 27693.89916989667 8142.76759444132 5.943393642681232e-13 -14016.159888345344 41431.56712017513 -98739.53623783341 27693.89916989667 8142.76759444132 5.943393642681232e-13 15297.80345164342 -58266.46989145286
21 -736748.3702337776 -11751.478064388612 -23695.965271043293 9.412955206203524e-13 47235.94952870566 -14516.604911835064 -732012.1784665313 -11751.478064388612 -23695.965271043293 9.412955206203524e-13 -38069.5254470502 27788.716119963938
22 -590031.8659771316 -19828.432703031845 -22315.870696471276 1.394155797074195e-12 39867.33181986096 -36656.35813063761 -585295.6742098854 -19828.432703031845 -22315.870696471276 1.394155797074195e-12 -40469.802687435644 34725.99960027702
23 -443089.90488187614 -19606.68472085175 -16601.570890604904 2.736864535877285e-13 28693.896556021093 -34862.74431638517 -438353.7131146298 -19606.68472085175 -16601.570890604904 2.736864535877285e-13 -31071.7586501565 35721.32067868115
24 -295523.56447766925 -19212.887950102588 -11086.842394815932 8.508362461943984e-13 18789.99934714954 -35666.210527868694 -290787.3727104229 -19212.887950102588 -11086.842394815932 8.508362461943984e-13 -21122.63327418786 33500.18609250061
25 -147863.20156411003 -27693.899169896635 -5795.690105494068 1.1131260554041348e-13 9211.066241189319 -41431.56712017508 -143127.00979686374 -27693.899169896635 -5795.690105494068 1.1131260554041348e-13 -11653.418138589344 58266.4698914528
26 -1116701.4400102287 257.3143235234418 -23695.965271042394 2.818737823620251e-13 47235.94952870383 171.35807364584343 -1111965.2482429822 257.3143235234418 -23695.965271042394 2.818737823620251e-13 -38069.525447048785 -754.9734910385465
27 -891695.492241196 332.2540897244212 -22315.87069647001 2.5474344082989997e-13 39867.33181985876 1107.1643415672083 -886959.3004739498 332.2540897244212 -22315.87069647001 2.5474344082989997e-13 -40469.802687433286 -88.95038144070804
28 -669350.3568674437 -621.7509888654895 -16601.570890604962 -2.615362816972533e-13 28693.89655602129 -1179.5789127267046 -664614.1651001974 -621.7509888654895 -16601.570890604962 -2.615362816972533e-13 -31071.758650156593 1058.7246471890583
29 -447760.35077011207 -1682.5388885110174 -11086.842394815132 -3.8527628658842124e-13 18789.999347148107 -2438.3915975455093 -443024.1590028657 -1682.5388885110174 -11086.842394815132 -3.8527628658842124e-13 -21122.633274186388 3618.7484010941525
30 -227823.0547907808 -17.721603246112807 -5795.6901054941645 -5.869292528568873e-13 9211.066241189565 -922.418628359333 -223086.8630235345 -17.721603246112807 -5795.6901054941645 -5.869292528568873e-13 -11653.418138589454 -858.6208566733271
31 -1116701.4400102296 -257.3143235234446 -23695.965271042987 -9.270049766391794e-13 47235.94952870506 -171.3580736458503 -1111965.2482429831 -257.3143235234446 -23695.965271042987 -9.270049766391794e-13 -38069.5254470497 754.9734910385498
32 -891695.4922411976 -332.2540897244262 -22315.870696470934 -1.3593219034820717e-12 39867.33181986041 -1107.1643415672165 -886959.3004739514 -332.2540897244262 -22315.870696470934 -1.3593219034820717e-12 -40469.802687434974 88.95038144071759
33 -669350.3568674444 621.7509888654774 -16601.570890605304 -7.175207458791821e-13 28693.896556021904 1179.5789127266821 -664614.1651001981 621.7509888654774 -16601.570890605304 -7.175207458791821e-13 -31071.758650157157 -1058.7246471890376
34 -447760.350770113 1682.5388885110058 -11086.842394816287 -1.4357308135356706e-12 18789.999347150224 2438.3915975454875 -443024.15900286665 1682.5388885110058 -11086.842394816287 -1.4357308135356706e-12 -21122.633274188465 -3618.7484010941325
35 -227823.05479078033 17.721603246096862 -5795.690105494676 -3.454376630081967e-13 9211.066241190376 922.4186283593081 -223086.86302353404 17.721603246096862 -5795.690105494676 -3.454376630081967e-13 -11653.418138590494 858.6208566733593
36 -736748.3702337771 11751.47806438861 -23695.96527104341 -3.5989812033846853e-13 47235.9495287059 14516.60491183506 -732012.1784665309 11751.47806438861 -23695.96527104341 -3.5989812033846853e-13 -38069.525447050386 -27788.716119963938
37 -590031.8659771314 19828.43270303185 -22315.87069647135 -3.6648811924438684e-13 39867.33181986111 36656.358130637615 -585295.6742098852 19828.43270303185 -22315.87069647135 -3.6648811924438684e-13 -40469.802687435695 -34725.999600277035
38 -443089.90488187614 19606.684720851757 -16601.570890605406 -1.9199335943891292e-13 28693.89655602209 34862.744316385186 -438353.7131146298 19606.684720851757 -16601.570890605406 -1.9199335943891292e-13 -31071.758650157357 -35721.320678681164
39 -295523.56447766855 19212.887950102595 -11086.842394816751 -2.871170749556901e-13 18789.999347150988 35666.21052786871 -290787.3727104222 19212.887950102595 -11086.842394816751 -2.871170749556901e-13 -21122.633274189302 -33500.186092500626
40 -147863.2015641098 27693.89916989665 -5795.690105494379 3.353876727700373e-13 9211.06624118978 41431.567120175096 -143127.0097968635 27693.89916989665 -5795.690105494379 3.353876727700373e-13 -11653.418138589974 -58266.46989145282
41 -576879.4048651871 -11751.478064388612 -22987.166201801712 1.8672272258421885e-12 46369.36435273512 -14516.604911835071 -572143.2130979409 -11751.478064388612 -22987.166201801712 1.8672272258421885e-12 -36384.433973751045 27788.71611996392
42 -458428.14602951 -19828.43270303184 -21780.199563795497 2.6633394393019442e-12 38375.28745924021 -36656.35813063759 -453691.95426226367 -19828.43270303184 -21780.199563795497 2.6633394393019442e-12 -40033.43097042359 34725.99960027702
43 -339387.353594189 -19606.684720851743 -18258.70212331353 7.674483009132879e-13 30920.552489716916 -34862.74431638517 -334651.16182694264 -19606.684720851743 -18258.70212331353 7.674483009132879e-13 -34810.775154211835 35721.320678681135
44 -222385.5935178233 -19212.88795010258 -14807.403291266464 1.849218271035283e-12 25043.913949911745 -35666.21052786867 -217649.401750577 -19212.88795010258 -14807.403291266464 1.849218271035283e-12 -28262.737898647465 33500.18609250061
45 -106953.19948252258 -27693.899169896624 -14347.077488943454 2.20894459952497e-13 21924.057566323063 -41431.56712017507 -102217.0077152763 -27693.899169896624 -14347.077488943454 2.20894459952497e-13 -29725.421393873363 58266.46989145276
46 -956832.4746416357 257.31432352343006 -22987.16620180108 2.7164950548008067e-13 46369.36435273361 171.358073645819 -952096.2828743894 257.31432352343006 -22987.16620180108 2.7164950548008067e-13 -36384.433973750274 -754.9734910385288
47 -760091.7722935736 332.2540897244059 -21780.199563794646 2.8520259620996524e-13 38375.28745923881 1107.1643415671801 -755355.5805263274 332.2540897244059 -21780.199563794646 2.8520259620996524e-13 -40033.43097042188 -88.95038144068144
48 -565647.8055797553 -621.7509888655054 -18258.702123313797 -5.2080947024361e-13 30920.552489717455 -1179.5789127267308 -560911.6138125091 -621.7509888655054 -18258.702123313797 -5.2080947024361e-13 -34810.775154212184 1058.7246471890894
49 -374622.37981026614 -1682.5388885110315 -14807.403291265831 -5.864224621725511e-13 25043.913949910606 -2438.391597545534 -369886.1880430198 -1682.5388885110315 -14807.403291265831 -5.864224621725511e-13 -28262.73789864638 3618.748401094178
50 -186913.05270919335 -17.72160324612622 -14347.077488943614 -7.236415851481863e-13 21924.057566323536 -922.4186283593522 -182176.86094194706 -17.72160324612622 -14347.077488943614 -7.236415851481863e-13 -29725.42139387349 -858.620856673298
51 -956832.4746416396 -257.314323523457 -22987.166201801487 -1.334746187897531e-12 46369.36435273462 -171.35807364587606 -952096.2828743934 -257.314323523457 -22987.166201801487 -1.334746187897531e-12 -36384.433973750754 754.9734910385689
52 -760091.7722935773 -332.2540897244482 -21780.199563795224 -1.9748723181629303e-12 38375.28745923983 -1107.1643415672538 -755355.5805263311 -332.2540897244482 -21780.199563795224 -1.9748723181629303e-12 -40033.43097042297 88.95038144075966
53 -565647.8055797579 621.7509888654521 -18258.70212331386 -1.1051088579265552e-12 30920.5524897176 1179.5789127266382 -560911.6138125117 621.7509888654521 -18258.70212331386 -1.1051088579265552e-12 -34810.77515421227 -1058.72464718899
54 -374622.379810268 1682.5388885109787 -14807.403291266599 -1.9538137208511745e-12 25043.913949912072 2438.3915975454415 -369886.18804302166 1682.5388885109787 -14807.403291266599 -1.9538137208511745e-12 -28262.737898647745 -3618.7484010940807
55 -186913.05270919288 17.72160324606719 -14347.077488943834 -5.933525232150859e-13 21924.05756632372 922.4186283592603 -182176.8609419466 17.72160324606719 -14347.077488943834 -5.933525232150859e-13 -29725.421393874036 858.6208566734181
56 -576879.4048651878 11751.4780643886 -22987.166201801803 -4.603584317281364e-13 46369.36435273533 14516.604911835035 -572143.2130979416 11751.4780643886 -22987.166201801803 -4.603584317281364e-13 -36384.433973751184 -27788.71611996392
57 -458428.1460295106 19828.432703031845 -21780.19956379551 -4.83276261211112e-13 38375.2874592403 36656.3581306376 -453691.95426226425 19828.432703031845 -21780.19956379551 -4.83276261211112e-13 -40033.430970423564 -34725.999600277035
58 -339387.35359419003 19606.68472085175 -18258.702123313837 -5.470309203345677e-14 30920.55248971754 34862.744316385186 -334651.1618269437 19606.68472085175 -18258.702123313837 -5.470309203345677e-14 -34810.775154212206 -35721.32067868115
59 -222385.5935178233 19212.88795010259 -14807.40329126698 -2.42526533918417e-13 25043.913949912676 35666.210527868694 -217649.401750577 19212.88795010259 -14807.40329126698 -2.42526533918417e-13 -28262.737898648487 -33500.18609250062
60 -106953.19948252282 27693.899169896653 -14347.07748894361 5.121165409928037e-13 21924.057566323216 41431.56712017511 -102217.00771527653 27693.899169896653 -14347.07748894361 5.121165409928037e-13 -29725.42139387375 -58266.46989145281
61 8076.954638643256 -72278.62670274072 -2.510036262012667e-11 -5.861977570020827e-13 5.929567225798263e-11 -64445.074250601516 8076.954638643256 76285.83790917082 -2.510036262012667e-11 -5.861977570020827e-13 -9.13065034627774e-11 -76466.70786989179
62 8002.014872442283 -74282.23230595577 2.0914006393045215e-11 4.121147867408581e-13 -7.866254820789402e-11 -74604.57003728603 8002.014872442283 74282.23230595577 2.0914006393045215e-11 4.121147867408581e-13 4.591199544860434e-11 -74604.57003728602
63 8076.9546386432485 -76285.83790917079 2.476570851923301e-12 2.3092638912203256e-13 1.8680685594503597e-12 -76466.70786989175 8076.9546386432485 72278.62670274074 2.476570851923301e-12 2.3092638912203256e-13 1.5817998969217238e-11 -64445.07425060157
64 8076.954638643233 -72278.62670274072 -3.442527788182153e-11 -3.3573144264664734e-13 9.659014416771738e-11 -64445.074250601516 8076.954638643233 76285.83790917082 -3.442527788182153e-11 -3.3573144264664734e-13 -1.099615231232118e-10 -76466.70786989179
65 8002.014872442254 -74282.23230595577 2.5369251701432576e-11 2.433608869978343e-13 -8.757303882466875e-11 -74604.57003728603 8002.014872442254 74282.23230595577 2.5369251701432576e-11 2.433608869978343e-13 6.327822933126732e-11 -74604.57003728602
66 8076.954638643236 -76285.8379091708 7.711905308317391e-12 1.305622276959184e-13 -1.7697547371067103e-11 -76466.70786989178 8076.954638643236 72278.62670274073 7.711905308317391e-12 1.305622276959184e-13 2.948337918061017e-11 -64445.07425060152
67 8076.954638643221 -72278.62670274072 -2.543421558423225e-11 -5.933031843596837e-13 5.905388348442086e-11 -64445.07425060152 8076.954638643221 76285.83790917082 -2.543421558423225e-11 -5.933031843596837e-13 -9.173242061742679e-11 -76466.70786989179
68 8002.014872442241 -74282.23230595578 2.1226359044063167e-11 4.263256414560601e-13 -7.974200086081639e-11 -74604.57003728609 8002.014872442241 74282.23230595575 2.1226359044063167e-11 4.263256414560601e-13 4.716140605267615e-11 -74604.57003728596
69 8076.954638643241 -76285.83790917082 2.371069098681141e-12 2.220446049250313e-13 2.0790720659346796e-12 -76466.70786989179 8076.954638643241 72278.62670274072 2.371069098681141e-12 2.220446049250313e-13 1.5395991956248598e-11 -64445.07425060151
70 -2587.0612125787884 -18615.162060830677 1.434968810902642e-11 4.440892098500626e-16 -5.964498340821035e-11 18463.008586543234 -2587.0612125787884 46261.482045758996 1.434968810902642e-11 4.440892098500626e-16 4.7974568785018846e-11 -85210.69135693801
71 -1206.966638006037 -23440.203740899582 1.4427722172281734e-11 3.1086244689504383e-15 -4.8184947253833736e-11 -7273.834090026874 -1206.966638006037 41436.44036569009 1.4427722172281734e-11 3.1086244689504383e-15 6.002208085985955e-11 -74759.72143299128
72 -2587.0612125787884 -18615.1620608312 2.9429387575486767e-12 1.4849232954361469e-15 -1.1037902753957779e-11 18463.008586541066 -2587.0612125787884 46261.48204575847 2.9429387575486767e-12 1.4849232954361469e-15 1.1034415483413453e-11 -85210.69135693621
73 -1206.96663800627 -23440.203740900113 2.8993166380574554e-12 8.604228440844963e-16 -1.093739617251934e-11 -7273.834090028686 -1206.96663800627 41436.44036568956 2.8993166380574554e-12 8.604228440844963e-16 1.080675696794557e-11 -74759.7214329891
74 -2587.0612125785556 -18615.162060830822 -1.1542467142731988e-11 6.38378239159465e-16 4.5944221051499294e-11 18463.008586542608 -2587.0612125785556 46261.48204575885 -1.1542467142731988e-11 6.38378239159465e-16 -4.062456007474676e-11 -85210.6913569375
75 -1206.966638006037 -23440.20374089973 -1.149371496305822e-11 8.604228440844963e-16 4.04949909298023e-11 -7273.834090027376 -1206.966638006037 41436.44036568994 -1.149371496305822e-11 8.604228440844963e-16 -4.570753822622697e-11 -74759.72143299066
76 -2587.0612125785556 -18615.16206083062 -4.186907100716331e-12 1.7763568394002505e-15 1.6420727699040768e-11 18463.008586543445 -2587.0612125785556 46261.482045759054 -4.186907100716331e-12 1.7763568394002505e-15 -1.4981963734751417e-11 -85210.6913569382
77 -1206.96663800627 -23440.20374089953 -4.12418329774124e-12 8.881784197001252e-16 1.4821960527219888e-11 -7273.834090026692 -1206.96663800627 41436.44036569014 -4.12418329774124e-12 8.881784197001252e-16 -1.6106305581370467e-11 -74759.72143299149
78 -221.7479821800585 -73721.76131968478 -6.307204404738469e-11 -3.375077994860476e-13 1.4797196093731966e-10 -69588.7439166622 -221.7479821800585 74842.70329222675 -6.307204404738469e-11 -3.375077994860476e-13 -2.2955080864521559e-10 -72951.56983428815
79 732.257096409856 -74282.23230595577 5.6899958200844526e-11 3.694822225952521e-13 -2.1020635478961945e-10 -74042.19836557414 732.257096409856 74282.23230595577 5.6899958200844526e-11 3.694822225952521e-13 1.311933944154477e-10 -74042.1983655741
80 -221.7479821800801 -74842.70329222674 2.1774468760073424e-12 1.2434497875801753e-13 1.7472979090535593e-11 -72951.56983428808 -221.7479821800801 73721.7613196848 2.1774468760073424e-12 1.2434497875801753e-13 3.2356649750125504e-11 -69588.74391666228
81 -221.74798218009389 -73721.76131968478 -8.686136281714988e-11 -2.1760371282653068e-13 2.419348282672694e-10 -69588.7439166622 -221.74798218009389 74842.70329222675 -8.686136281714988e-11 -2.1760371282653068e-13 -2.78323853933857e-10 -72951.56983428817
82 732.2570964098156 -74282.23230595578 6.726428503286427e-11 2.291500322826323e-13 -2.30025513751886e-10 -74042.19836557415 732.2570964098156 74282.23230595575 6.726428503286427e-11 2.291500322826323e-13 1.7265070174352668e-10 -74042.19836557409
83 -221.74798218009073 -74842.70329222675 1.3992610264628742e-11 9.947598300641403e-14 -2.6166231125711627e-11 -72951.56983428812 -221.74798218009073 73721.76131968478 1.3992610264628742e-11 9.947598300641403e-14 5.7789430462060824e-11 -69588.74391666224
84 -221.74798218013322 -73721.76131968477 -6.391839690004039e-11 -3.375077994860476e-13 1.514836560461769e-10 -69588.74391666218 -221.74798218013322 74842.70329222677 -6.391839690004039e-11 -3.375077994860476e-13 -2.320267253540654e-10 -72951.56983428818
85 732.2570964097731 -74282.2323059558 5.641228754783571e-11 3.6415315207705135e-13 -2.092310134836018e-10 -74042.19836557422 732.2570964097731 74282.23230595574 5.641228754783571e-11 3.6415315207705135e-13 1.3015220650518536e-10 -74042.19836557402
86 -221.74798218009866 -74842.70329222675 2.235542696091873e-12 1.341149413747189e-13 1.7356787450366532e-11 -72951.56983428814 -221.74798218009866 73721.76131968478 2.235542696091873e-12 1.341149413747189e-13 3.077004362691777e-11 -69588.7439166622
87 -9235.797246345785 -20686.440856465415 3.546003638454947e-11 2.220446049250313e-15 -1.4727432837036215e-10 9105.3059858372 -9235.797246345785 44190.20325012426 3.546003638454947e-11 2.220446049250313e-15 1.1867590981928934e-10 -79033.80299038345
88 -3521.497440481093 -24293.804758199665 3.5279504164167206e-11 1.5543122344752192e-15 -1.1826723936711983e-10 -9870.10374692671 -3521.497440481093 40582.83934839001 3.5279504164167206e-11 1.5543122344752192e-15 1.4632905227247502e-10 -70953.98346014052
89 -9235.797246346716 -20686.440856465735 5.7037367423363944e-12 1.394717674685353e-15 -2.1478678095768528e-11 9105.305985835934 -9235.797246346716 44190.20325012394 5.7037367423363944e-12 1.394717674685353e-15 2.1299402982905658e-11 -79033.80299038236
90 -3521.497440481093 -24293.804758199978 5.770528838453182e-12 1.061650767297806e-15 -2.1510093165859863e-11 -9870.103746927802 -3521.497440481093 40582.839348389694 5.770528838453182e-12 1.061650767297806e-15 2.176874128355483e-11 -70953.98346013925
91 -9235.79724634625 -20686.44085646539 -2.844506838097993e-11 5.689893001203927e-16 1.1318906887386987e-10 9105.305985837316 -9235.79724634625 44190.20325012428 -2.844506838097993e-11 5.689893001203927e-16 -1.0014894398347962e-10 -79033.80299038354
92 -3521.497440481093 -24293.804758199643 -2.8426150596663266e-11 2.706168622523819e-16 1.0005732422308526e-10 -9870.103746926652 -3521.497440481093 40582.83934839003 -2.8426150596663266e-11 2.706168622523819e-16 -1.1313883300746483e-10 -70953.98346014059
93 -9235.797246346716 -20686.440856465262 -7.955512624343407e-12 -0 3.068620007569925e-11 9105.305985837804 -9235.797246346716 44190.20325012441 -7.955512624343407e-12 0 -2.898014460687631e-11 -79033.80299038399
94 -3521.4974404801615 -24293.804758199512 -8.349125658922652e-12 3.1086244689504383e-15 2.992057668648935e-11 -9870.103746926172 -3521.4974404801615 40582.83934839016 -8.349125658922652e-12 3.1086244689504383e-15 -3.269783799985493e-11 -70953.98346014113
95 -393.79677074911643 -74411.51561237137 -7.289354622902754e-11 -2.007283228522283e-13 1.6488648119528658e-10 -71387.53120654983 -393.79677074911643 74152.94899954017 -7.289354622902754e-11 -2.007283228522283e-13 -2.7156530147710575e-10 -70611.83136805623
96 666.991128896412 -74282.23230595578 7.444138577205336e-11 4.050093593832571e-13 -2.680265774763603e-10 -74108.94761279078 666.991128896412 74282.23230595575 7.444138577205336e-11 4.050093593832571e-13 1.7771224245418692e-10 -74108.94761279074
97 -393.79677074915037 -74152.94899954014 1.2346445274051103e-12 1.580957587066223e-13 3.118201491078813e-11 -70611.83136805614 -393.79677074915037 74411.5156123714 1.2346445274051103e-12 1.580957587066223e-13 3.58613979699e-11 -71387.5312065499
98 -393.7967707491667 -74411.51561237137 -9.815892629996644e-11 -1.5365486660812167e-13 2.70896418145313e-10 -71387.53120654981 -393.7967707491667 74152.94899954017 -9.815892629996644e-11 -1.5365486660812167e-13 -3.1805713965448564e-10 -70611.83136805624
99 666.9911288963647 -74282.23230595578 8.86229315884321e-11 2.744471316873387e-13 -2.991181532144366e-10 -74108.9476127908 666.9911288963647 74282.23230595575 8.86229315884321e-11 2.744471316873387e-13 2.32619436316156e-10 -74108.94761279073
100 -393.79677074916407 -74152.94899954017 1.658931731398244e-11 8.260059303211165e-14 -2.8631161119100237e-11 -70611.83136805621 -393.79677074916407 74411.51561237137 1.658931731398244e-11 8.260059303211165e-14 6.999524806302147e-11 -71387.53120654984
101 -393.7967707492037 -74411.51561237135 -7.330285632064817e-11 -1.98507876802978e-13 1.6661459608030075e-10 -71387.5312065498 -393.7967707492037 74152.94899954018 -7.330285632064817e-11 -1.98507876802978e-13 -2.7320254184358824e-10 -70611.83136805627
102 666.99112889632 -74282.23230595581 7.337806154184928e-11 4.1611158962950867e-13 -2.668094237177251e-10 -74108.94761279089 666.99112889632 74282.23230595572 7.337806154184928e-11 4.1611158962950867e-13 1.7527793493691643e-10 -74108.94761279064
103 -393.79677074917174 -74152.94899954017 -1.3926258297316225e-13 1.438849039914203e-13 3.6658313236863454e-11 -70611.83136805621 -393.79677074917174 74411.51561237137 -1.3926258297316225e-13 1.438849039914203e-13 3.4003748335478624e-11 -71387.53120654984
104 -8966.02732783556 -23480.60249184164 4.0532750559975095e-11 1.3322676295501878e-15 -1.690195842691839e-10 -1915.5705646307688 -8966.02732783556 41396.04161474803 4.0532750559975095e-11 1.3322676295501878e-15 1.3497602584867108e-10 -69098.46727552975
105 -3451.2988320477307 -27022.591409841512 4.0706487317755134e-11 3.1086244689504383e-15 -1.3546235618822278e-10 -19236.709278223698 -3451.2988320477307 37854.05269674816 4.0706487317755134e-11 3.1086244689504383e-15 1.6983630389911112e-10 -59854.68910412362
106 -8966.027327836491 -23480.60249184184 1.8111783045658356e-12 1.9637069748057456e-15 -5.235414567175258e-12 -1915.5705646315619 -8966.027327836491 41396.04161474783 1.8111783045658356e-12 1.9637069748057456e-15 8.348360267023373e-12 -69098.46727552902
107 -3451.2988320477307 -27022.59140984171 1.87257858393662e-12 4.579669976578771e-16 -8.550122672556466e-12 -19236.7092782244 -3451.2988320477307 37854.05269674797 1.87257858393662e-12 4.579669976578771e-16 5.494306912588933e-12 -59854.68910412285
108 -8966.027327839285 -23480.602491841448 -3.7374737334517743e-11 5.273559366969494e-16 1.4879064820938717e-10 -1915.5705646299975 -8966.027327839285 41396.041614748225 -3.7374737334517743e-11 5.273559366969494e-16 -1.315199650662227e-10 -69098.4672755304
109 -3451.2988320449367 -27022.591409841323 -3.764307991043686e-11 -1.8735013540549517e-16 1.3214334385487428e-10 -19236.709278223054 -3451.2988320449367 37854.05269674835 -3.764307991043686e-11 -1.8735013540549517e-16 -1.5017968608446313e-10 -59854.68910412441
110 -8966.027327837422 -23480.602491841317 -9.539291199093392e-12 1.5543122344752192e-15 3.627735083284492e-11 -1915.5705646294446 -8966.027327837422 41396.041614748356 -9.539291199093392e-12 1.5543122344752192e-15 -3.526734096661116e-11 -69098.46727553084
111 -3451.2988320477307 -27022.591409841192 -9.507549913643157e-12 4.440892098500626e-16 3.514222149297292e-11 -19236.70927822261 -3451.2988320477307 37854.05269674848 -9.507549913643157e-12 4.440892098500626e-16 -3.616438898156295e-11 -59854.68910412494
112 8481.011219794105 -75284.8819260474 -1.0114962756265634e-10 -2.184918912462308e-13 2.2776510677495466e-10 -74931.75321267571 8481.011219794105 73279.58268586414 -1.0114962756265634e-10 -2.184918912462308e-13 -3.809516480045292e-10 -68915.85549212593
113 6816.1939345292085 -74282.23230595578 1.1208827636495989e-10 4.849454171562684e-13 -3.969805460667761e-10 -73457.02252157943 6816.1939345292085 74282.23230595575 1.1208827636495989e-10 4.849454171562684e-13 2.755491121229832e-10 -73457.02252157933
114 8481.011219794065 -73279.58268586411 -9.13620770899939e-13 3.197442310920451e-14 5.457793424462971e-11 -68915.85549212585 8481.011219794065 75284.88192604743 -9.13620770899939e-13 3.197442310920451e-14 5.091519902277594e-11 -74931.7532126758
115 8481.011219794047 -75284.8819260474 -1.3390587655420155e-10 -1.0969003483296547e-13 3.678561703034252e-10 -74931.7532126757 8481.011219794047 73279.58268586414 -1.3390587655420155e-10 -1.0969003483296547e-13 -4.392170678288758e-10 -68915.85549212595
116 6816.193934529144 -74282.23230595578 1.358806942901359e-10 2.864375403532904e-13 -4.518413395313116e-10 -73457.02252157943 6816.193934529144 74282.23230595575 1.358806942901359e-10 2.864375403532904e-13 3.634428262095038e-10 -73457.02252157935
117 8481.011219794047 -73279.58268586412 1.9583753020550566e-11 1.4654943925052066e-14 -2.825356961982599e-11 -68915.8554921259 8481.011219794047 75284.88192604741 1.9583753020550566e-11 1.4654943925052066e-14 9.288692731056911e-11 -74931.75321267574
118 8481.011219793989 -75284.88192604738 -1.001796346563761e-10 -2.290390099801698e-13 2.2400613155884835e-10 -74931.75321267566 8481.011219793989 73279.58268586415 -1.001796346563761e-10 -2.290390099801698e-13 -3.807096551865e-10 -68915.85549212601
119 6816.193934529084 -74282.23230595581 1.1173381567110604e-10 4.768407890765047e-13 -3.9445263527552256e-10 -73457.02252157954 6816.193934529084 74282.23230595572 1.1173381567110604e-10 4.768407890765047e-13 2.7595025875111365e-10 -73457.02252157925
120 8481.01121979405 -73279.58268586412 -7.844866777072948e-13 5.229150445984487e-14 5.250067665469857e-11 -68915.8554921259 8481.01121979405 75284.88192604741 -7.844866777072948e-13 5.229150445984487e-14 5.1431735395546515e-11 -74931.75321267574
121 -5751.478091643192 -26702.67865090718 5.39102791611825e-11 2.6645352591003757e-15 -2.2492780590396328e-10 -15205.68229710311 -5751.478091643192 38173.9654556825 5.39102791611825e-11 2.6645352591003757e-15 1.7939817758188082e-10 -58223.00781501054
122 -460.3258023224771 -29465.32376458322 5.458451796000149e-11 4.440892098500626e-16 -1.8112423491304423e-10 -27889.30829963339 -460.3258023224771 35411.32034200645 5.458451796000149e-11 4.440892098500626e-16 2.2826142614380636e-10 -50186.79546497053
123 -5751.478091643192 -26702.678650907364 -2.6232808821696265e-12 5.551115123125783e-16 1.2117033378570994e-11 -15205.682297103882 -5751.478091643192 38173.96545568231 -2.6232808821696265e-12 5.551115123125783e-16 -7.558072838062286e-12 -58223.00781500993
124 -460.3258023224771 -29465.323764583405 -3.0199816046833273e-12 3.885780586188048e-16 8.511185106428777e-12 -27889.30829963401 -460.3258023224771 35411.320342006264 -3.0199816046833273e-12 3.885780586188048e-16 -1.413845488409125e-11 -50186.795464969735
125 -5751.478091643192 -26702.678650906917 -5.5204792999421615e-11 2.498001805406602e-16 2.1969614193498884e-10 -15205.68229710207 -5751.478091643192 38173.96545568275 -5.5204792999421615e-11 2.498001805406602e-16 -1.9433852880419492e-10 -58223.00781501146
126 -460.3258023224771 -29465.32376458298 -5.489579558746225e-11 -9.43689570931383e-16 1.9352951716283924e-10 -27889.308299632543 -460.3258023224771 35411.32034200669 -5.489579558746225e-11 -9.43689570931383e-16 -2.181892272988838e-10 -50186.79546497148
127 -5751.478091643192 -26702.6786509069 -1.2228791761475934e-11 -6.661338147750939e-16 4.616661609678463e-11 -15205.68229710198 -5751.478091643192 38173.96545568277 -1.2228791761475934e-11 -6.661338147750939e-16 -4.555109847112426e-11 -58223.007815011515
128 -460.3258023224771 -29465.32376458294 -1.2138305773104103e-11 1.7763568394002505e-15 4.529180883486904e-11 -27889.30829963243 -460.3258023224771 35411.32034200673 -1.2138305773104103e-11 1.7763568394002505e-15 -4.574304197275755e-11 -50186.79546497164
129 -27693.89916989659 -71443.42184559832 -1.0837359290962741e-10 3.730349362740526e-14 2.3493707985471336e-10 -58266.4698914528 -27693.89916989659 77121.04276631321 -1.0837359290962741e-10 3.730349362740526e-14 -4.153044776030511e-10 -75299.33265359746
130 -27711.62077314272 -74282.23230595578 1.3368630457592214e-10 1.7408297026122455e-13 -4.583664965241592e-10 -74440.71179692415 -27711.62077314272 74282.23230595575 1.3368630457592214e-10 1.7408297026122455e-13 3.437513309313736e-10 -74440.71179692406
131 -27693.89916989667 -77121.04276631318 -1.4883663591824512e-11 -1.1368683772161603e-13 1.0798387153612085e-10 -75299.3326535974 -27693.89916989667 71443.42184559835 -1.4883663591824512e-11 -1.1368683772161603e-13 2.0500879388719642e-11 -58266.46989145285
132 -27693.89916989662 -71443.42184559832 -1.398694260432313e-10 -8.881784197001252e-15 3.7432630107084713e-10 -58266.469891452776 -27693.89916989662 77121.04276631321 -1.398694260432313e-10 -8.881784197001252e-15 -4.6125227638144894e-10 -75299.33265359749
133 -27711.62077314275 -74282.23230595578 1.596556837066965e-10 9.57012247226885e-14 -5.212191912069831e-10 -74440.71179692415 -27711.62077314275 74282.23230595575 1.596556837066965e-10 9.57012247226885e-14 4.385339004367418e-10 -74440.71179692408
134 -27693.899169896657 -77121.0427663132 8.439575564392386e-12 -3.597122599785507e-14 1.76816475385865e-11 -75299.33265359743 -27693.899169896657 71443.42184559834 8.439575564392386e-12 -3.597122599785507e-14 6.286213271430325e-11 -58266.46989145281
135 -27693.89916989668 -71443.4218455983 -1.0662276786392191e-10 4.085620730620576e-14 2.2961644035975653e-10 -58266.46989145274 -27693.89916989668 77121.04276631323 -1.0662276786392191e-10 4.085620730620576e-14 -4.064821880166832e-10 -75299.33265359754
136 -27711.620773142793 -74282.23230595581 1.3117085359335213e-10 1.794120407794253e-13 -4.5151660515547333e-10 -74440.71179692424 -27711.620773142793 74282.23230595572 1.3117085359335213e-10 1.794120407794253e-13 3.355085164046394e-10 -74440.711796924
137 -27693.89916989666 -77121.0427663132 -1.1951983366506306e-11 -1.0658141036401503e-13 9.848253227839272e-11 -75299.33265359742 -27693.89916989666 71443.42184559834 -1.1951983366506306e-11 -1.0658141036401503e-13 2.8589621482900748e-11 -58266.46989145281
138 -20142.76759444084 -27296.114392235817 5.682293513954114e-11 -0 -2.3801968702693316e-10 -15297.803451643776 -20142.76759444084 37580.529714353856 5.682293513954114e-11 0 1.8814877380594655e-10 -53864.360909586416
139 -14347.077488944866 -34103.05823691132 5.63197998790438e-11 3.1086244689504383e-15 -1.8693237499525372e-10 -42210.942770996975 -14347.077488944866 30773.585869678358 5.63197998790438e-11 3.1086244689504383e-15 2.354652359191551e-10 -29725.421393873374
140 -20142.767594438978 -27296.1143922358 -1.0144817766324667e-11 1.5265566588595902e-15 4.2259416806001626e-11 -15297.803451643675 -20142.767594438978 37580.52971435387 -1.0144817766324667e-11 1.5265566588595902e-15 -3.3826938486038304e-11 -53864.36090958645
141 -14347.077488944866 -34103.05823691129 -9.683731509942693e-12 -9.506284648352903e-16 3.2627483836774514e-11 -42210.94277099691 -14347.077488944866 30773.585869678383 -9.683731509942693e-12 -9.506284648352903e-16 -4.000227884463507e-11 -29725.421393873505
142 -20142.767594442703 -27296.114392235642 -5.98105845249885e-11 -1.2420620087993939e-15 2.383371978551262e-10 -15297.80345164303 -20142.767594442703 37580.52971435403 -5.98105845249885e-11 -1.2420620087993939e-15 -2.1024040972544821e-10 -53864.36090958698
143 -14347.077488944866 -34103.05823691114 -5.966174172803738e-11 -2.338407245616736e-15 2.098180506086366e-10 -42210.94277099642 -14347.077488944866 30773.58586967853 -5.966174172803738e-11 -2.338407245616736e-15 -2.3764656666387815e-10 -29725.421393874112
144 -20142.76759444084 -27296.114392235737 -7.460228858461048e-12 -1.7763568394002505e-15 2.6627302533479443e-11 -15297.803451643435 -20142.76759444084 37580.529714353936 -7.460228858461048e-12 -1.7763568394002505e-15 -2.932352572655871e-11 -53864.36090958669
145 -14347.077488943003 -34103.05823691122 -7.767664943805814e-12 -0 3.003555901019013e-11 -42210.942770996684 -14347.077488943003 30773.585869678445 -7.767664943805814e-12 0 -2.8224592603612568e-11 -29725.421393873752
$EndElementData
$ElementData
1
"AxialForce"
1
0
3
0
1
145
1 -505234.06881133164
2 -409604.088280514
3 -310459.6943371177
4 -207831.3844656581
5 -101107.63212145725
6 -885187.1385877836
7 -711267.7145445796
8 -536720.1463226853
9 -360068.17075810116
10 -181067.48534812778
11 -885187.1385877848
12 -711267.7145445809
13 -536720.146322686
14 -360068.1707581021
15 -181067.48534812778
16 -505234.06881133065
17 -409604.0882805129
18 -310459.6943371168
19 -207831.38446565764
20 -101107.63212145655
21 -734380.2743501544
22 -587663.7700935085
23 -440721.80899825296
24 -293155.4685940461
25 -145495.1056804869
26 -1114333.3441266054
27 -889327.3963575729
28 -666982.2609838205
29 -445392.2548864889
30 -225454.95890715765
31 -1114333.3441266064
32 -889327.3963575745
33 -666982.2609838212
34 -445392.2548864898
35 -225454.95890715718
36 -734380.274350154
37 -587663.7700935083
38 -440721.80899825296
39 -293155.4685940454
40 -145495.10568048665
41 -574511.308981564
42 -456060.05014588684
43 -337019.2577105658
44 -220017.49763420015
45 -104585.10359889944
46 -954464.3787580125
47 -757723.6764099505
48 -563279.7096961322
49 -372254.28392664297
50 -184544.9568255702
51 -954464.3787580165
52 -757723.6764099542
53 -563279.7096961348
54 -372254.2839266448
55 -184544.95682556974
56 -574511.3089815647
57 -456060.0501458874
58 -337019.25771056686
59 -220017.49763420015
60 -104585.10359889967
61 8076.954638643256
62 8002.014872442283
63 8076.9546386432485
64 8076.954638643233
65 8002.014872442254
66 8076.954638643236
67 8076.954638643221
68 8002.014872442241
69 8076.954638643241
70 -2587.0612125787884
71 -1206.966638006037
72 -2587.0612125787884
73 -1206.96663800627
74 -2587.0612125785556
75 -1206.966638006037
76 -2587.0612125785556
77 -1206.96663800627
78 -221.7479821800585
79 732.257096409856
80 -221.7479821800801
81 -221.74798218009389
82 732.2570964098156
83 -221.74798218009073
84 -221.74798218013322
85 732.2570964097731
86 -221.74798218009866
87 -9235.797246345785
88 -3521.497440481093
89 -9235.797246346716
90 -3521.497440481093
91 -9235.79724634625
92 -3521.497440481093
93 -9235.797246346716
94 -3521.4974404801615
95 -393.79677074911643
96 666.991128896412
97 -393.79677074915037
98 -393.7967707491667
99 666.9911288963647
100 -393.79677074916407
101 -393.7967707492037
102 666.99112889632
103 -393.79677074917174
104 -8966.02732783556
105 -3451.2988320477307
106 -8966.027327836491
107 -3451.2988320477307
108 -8966.027327839285
109 -3451.2988320449367
110 -8966.027327837422
111 -3451.2988320477307
112 8481.011219794105
113 6816.1939345292085
114 8481.011219794065
115 8481.011219794047
116 6816.193934529144
117 8481.011219794047
118 8481.011219793989
119 6816.193934529084
120 8481.01121979405
121 -5751.478091643192
122 -460.3258023224771
123 -5751.478091643192
124 -460.3258023224771
125 -5751.478091643192
126 -460.3258023224771
127 -5751.478091643192
128 -460.3258023224771
129 -27693.89916989659
130 -27711.62077314272
131 -27693.89916989667
132 -27693.89916989662
133 -27711.62077314275
134 -27693.899169896657
135 -27693.89916989668
136 -27711.620773142793
137 -27693.89916989666
138 -20142.76759444084
139 -14347.077488944866
140 -20142.767594438978
141 -14347.077488944866
142 -20142.767594442703
143 -14347.077488944866
144 -20142.76759444084
145 -14347.077488943003
$EndElementData
$ElementData
1
"VonMisesStress"
1
0
3
0
1
145
1 90704812.32882804
2 54389567.969654955
3 41452932.52894972
4 38735947.17515085
5 58379909.62835031
6 105945567.65734306
7 55023348.219294615
8 37511571.301378176
9 31075861.756301474
10 34574982.19116921
11 105945567.65734468
12 55023348.21929644
13 37511571.30137845
14 31075861.75629932
15 34574982.19116823
16 90704812.3288283
17 54389567.96965487
18 41452932.5289504
19 38735947.17514949
20 58379909.62834975
21 123398208.36766867
22 114089261.02007964
23 91195508.43059899
24 66227719.463439964
25 55316049.04736626
26 138630260.38107422
27 114682779.76315354
28 87555202.91680302
29 60375486.25153704
30 31513416.48511765
31 138630260.38107622
32 114682779.76315624
33 87555202.916804
34 60375486.25154024
35 31513416.48511924
36 123398208.36766902
37 114089261.02007985
38 91195508.43060023
39 66227719.463442236
40 55316049.04736726
41 112730285.64015073
42 105528492.52728802
43 90965101.67732954
44 73030431.28457308
45 80625529.20268442
46 127935979.04844004
47 106309321.51741523
48 87289880.23957819
49 67179033.69588439
50 57146589.69106653
51 127935979.04844189
52 106309321.51741712
53 87289880.2395784
54 67179033.69588646
55 57146589.69106749
56 112730285.64015108
57 105528492.52728799
58 90965101.67733034
59 73030431.28457452
60 80625529.20268509
61 62771642.27688339
62 61214936.63239084
63 62771642.27688291
64 62771642.27688348
65 61214936.63239087
66 62771642.276883006
67 62771642.276883416
68 61214936.63239088
69 62771642.276882954
70 78536092.20626374
71 68948960.26962116
72 78536092.20626198
73 68948960.269619
74 78536092.20626326
75 68948960.26962055
76 78536092.20626369
77 68948960.26962109
78 59814935.30272538
79 60300923.81506219
80 59814935.30272436
81 59814935.302725606
82 60300923.81506228
83 59814935.302724436
84 59814935.302725434
85 60300923.815062225
86 59814935.30272439
87 73851393.49088418
88 65950321.887806386
89 73851393.4908827
90 65950321.887804516
91 73851393.49088418
92 65950321.88780628
93 73851393.4908842
94 65950321.88780608
95 58865673.34362534
96 60332008.719896875
97 58865673.34362476
98 58865673.34362584
99 60332008.71989704
100 58865673.343624905
101 58865673.34362535
102 60332008.719896935
103 58865673.34362475
104 65217808.84845728
105 56440814.800893016
106 65217808.84845596
107 56440814.80089133
108 65217808.84845824
109 56440814.80089325
110 65217808.84845778
111 56440814.80089331
112 61698277.02882802
113 60485931.15652201
114 61698277.0288272
115 61698277.02882867
116 60485931.15652227
117 61698277.02882736
118 61698277.02882796
119 60485931.15652206
120 61698277.02882716
121 55461155.15309398
122 47899174.405752786
123 55461155.153092355
124 47899174.40575081
125 55461155.15309485
126 47899174.40575354
127 55461155.15309396
128 47899174.4057526
129 63987692.34852091
130 62780910.473344594
131 63987692.34851941
132 63987692.34852113
133 62780910.4733449
134 63987692.348519
135 63987692.34852092
136 62780910.473344624
137 63987692.34851938
138 53430984.559119694
139 42848067.48805905
140 53430984.55911857
141 42848067.48805805
142 53430984.55912054
143 42848067.48805872
144 53430984.559118934
145 42848067.48805764
$EndElementData
$NodeData
1
"Fixity"
1
0
3
0
3
72
1 1 1 1
2 1 1 1
3 1 1 1
4 1 1 1
5 1 1 1
6 1 1 1
7 1 1 1
8 1 1 1
9 1 1 1
10 1 1 1
11 1 1 1
12 1 1 1
13 0 0 0
14 0 0 0
15 0 0 0
16 0 0 0
17 0 0 0
18 0 0 0
19 0 0 0
20 0 0 0
21 0 0 0
22 0 0 0
23 0 0 0
24 0 0 0
25 0 0 0
26 0 0 0
27 0 0 0
28 0 0 0
29 0 0 0
30 0 0 0
31 0 0 0
32 0 0 0
33 0 0 0
34 0 0 0
35 0 0 0
36 0 0 0
37 0 0 0
38 0 0 0
39 0 0 0
40 0 0 0
41 0 0 0
42 0 0 0
43 0 0 0
44 0 0 0
45 0 0 0
46 0 0 0
47 0 0 0
48 0 0 0
49 0 0 0
50 0 0 0
51 0 0 0
52 0 0 0
53 0 0 0
54 0 0 0
55 0 0 0
56 0 0 0
57 0 0 0
58 0 0 0
59 0 0 0
60 0 0 0
61 0 0 0
62 0 0 0
63 0 0 0
64 0 0 0
65 0 0 0
66 0 0 0
67 0 0 0
68 0 0 0
69 0 0 0
70 0 0 0
71 0 0 0
72 0 0 0
$EndNodeData
$NodeData
1
"FixityRotation"
1
0
3
0
3
72
1 1 1 1
2 1 1 1
3 1 1 1
4 1 1 1
5 1 1 1
6 1 1 1
7 1 1 1
8 1 1 1
9 1 1 1
10 1 1 1
11 1 1 1
12 1 1 1
13 0 0 0
14 0 0 0
15 0 0 0
16 0 0 0
17 0 0 0
18 0 0 0
19 0 0 0
20 0 0 0
21 0 0 0
22 0 0 0
23 0 0 0
24 0 0 0
25 0 0 0
26 0 0 0
27 0 0 0
28 0 0 0
29 0 0 0
30 0 0 0
31 0 0 0
32 0 0 0
33 0 0 0
34 0 0 0
35 0 0 0
36 0 0 0
37 0 0 0
38 0 0 0
39 0 0 0
40 0 0 0
41 0 0 0
42 0 0 0
43 0 0 0
44 0 0 0
45 0 0 0
46 0 0 0
47 0 0 0
48 0 0 0
49 0 0 0
50 0 0 0
51 0 0 0
52 0 0 0
53 0 0 0
54 0 0 0
55 0 0 0
56 0 0 0
57 0 0 0
58 0 0 0
59 0 0 0
60 0 0 0
61 0 0 0
62 0 0 0
63 0 0 0
64 0 0 0
65 0 0 0
66 0 0 0
67 0 0 0
68 0 0 0
69 0 0 0
70 0 0 0
71 0 0 0
72 0 0 0
$EndNodeData
$NodeData
1
"NodalForce"
1
0
3
0
3
72
1 0 0 0
2 0 0 0
3 0 0 0
4 0 0 0
5 0 0 0
6 0 0 0
7 0 0 0
8 0 0 0
9 0 0 0
10 0 0 0
11 0 0 0
12 0 0 0
13 0 0 12000
14 0 0 12000
15 0 0 12000
16 0 0 12000
17 0 0 0
18 0 0 0
19 0 0 0
20 0 0 0
21 0 0 0
22 0 0 0
23 0 0 0
24 0 0 0
25 0 0 12000
26 0 0 12000
27 0 0 12000
28 0 0 12000
29 0 0 0
30 0 0 0
31 0 0 0
32 0 0 0
33 0 0 0
34 0 0 0
35 0 0 0
36 0 0 0
37 0 0 12000
38 0 0 12000
39 0 0 12000
40 0 0 12000
41 0 0 0
42 0 0 0
43 0 0 0
44 0 0 0
45 0 0 0
46 0 0 0
47 0 0 0
48 0 0 0
49 0 0 12000
50 0 0 12000
51 0 0 12000
52 0 0 12000
53 0 0 0
54 0 0 0
55 0 0 0
56 0 0 0
57 0 0 0
58 0 0 0
59 0 0 0
60 0 0 0
61 0 0 12000
62 0 0 12000
63 0 0 12000
64 0 0 12000
65 0 0 0
66 0 0 0
67 0 0 0
68 0 0 0
69 0 0 0
70 0 0 0
71 0 0 0
72 0 0 0
$EndNodeData
$ElementData
1
"CrossSectionArea"
1
0
3
0
1
145
1 0.017089778955533035
2 0.017089778955533035
3 0.017089778955533035
4 0.017089778955533035
5 0.017089778955533035
6 0.017089778955533035
7 0.017089778955533035
8 0.017089778955533035
9 0.017089778955533035
10 0.017089778955533035
11 0.017089778955533035
12 0.017089778955533035
13 0.017089778955533035
14 0.017089778955533035
15 0.017089778955533035
16 0.017089778955533035
17 0.017089778955533035
18 0.017089778955533035
19 0.017089778955533035
20 0.017089778955533035
21 0.017089778955533035
22 0.017089778955533035
23 0.017089778955533035
24 0.017089778955533035
25 0.017089778955533035
26 0.017089778955533035
27 0.017089778955533035
28 0.017089778955533035
29 0.017089778955533035
30 0.017089778955533035
31 0.017089778955533035
32 0.017089778955533035
33 0.017089778955533035
34 0.017089778955533035
35 0.017089778955533035
36 0.017089778955533035
37 0.017089778955533035
38 0.017089778955533035
39 0.017089778955533035
40 0.017089778955533035
41 0.017089778955533035
42 0.017089778955533035
43 0.017089778955533035
44 0.017089778955533035
45 0.017089778955533035
46 0.017089778955533035
47 0.017089778955533035
48 0.017089778955533035
49 0.017089778955533035
50 0.017089778955533035
51 0.017089778955533035
52 0.017089778955533035
53 0.017089778955533035
54 0.017089778955533035
55 0.017089778955533035
56 0.017089778955533035
57 0.017089778955533035
58 0.017089778955533035
59 0.017089778955533035
60 0.017089778955533035
61 0.009882077639766902
62 0.009882077639766902
63 0.009882077639766902
64 0.009882077639766902
65 0.009882077639766902
66 0.009882077639766902
67 0.009882077639766902
68 0.009882077639766902
69 0.009882077639766902
70 0.0084463576397669
71 0.0084463576397669
72 0.0084463576397669
73 0.0084463576397669
74 0.0084463576397669
75 0.0084463576397669
76 0.0084463576397669
77 0.0084463576397669
78 0.009882077639766902
79 0.009882077639766902
80 0.009882077639766902
81 0.009882077639766902
82 0.009882077639766902
83 0.009882077639766902
84 0.009882077639766902
85 0.009882077639766902
86 0.009882077639766902
87 0.0084463576397669
88 0.0084463576397669
89 0.0084463576397669
90 0.0084463576397669
91 0.0084463576397669
92 0.0084463576397669
93 0.0084463576397669
94 0.0084463576397669
95 0.009882077639766902
96 0.009882077639766902
97 0.009882077639766902
98 0.009882077639766902
99 0.009882077639766902
100 0.009882077639766902
101 0.009882077639766902
102 0.009882077639766902
103 0.009882077639766902
104 0.0084463576397669
105 0.0084463576397669
106 0.0084463576397669
107 0.0084463576397669
108 0.0084463576397669
109 0.0084463576397669
110 0.0084463576397669
111 0.0084463576397669
112 0.009882077639766902
113 0.009882077639766902
114 0.009882077639766902
115 0.009882077639766902
116 0.009882077639766902
117 0.009882077639766902
118 0.009882077639766902
119 0.009882077639766902
120 0.009882077639766902
121 0.0084463576397669
122 0.0084463576397669
123 0.0084463576397669
124 0.0084463576397669
125 0.0084463576397669
126 0.0084463576397669
127 0.0084463576397669
128 0.0084463576397669
129 0.009882077639766902
130 0.009882077639766902
131 0.009882077639766902
132 0.009882077639766902
133 0.009882077639766902
134 0.009882077639766902
135 0.009882077639766902
136 0.009882077639766902
137 0.009882077639766902
138 0.0084463576397669
139 0.0084463576397669
140 0.0084463576397669
141 0.0084463576397669
142 0.0084463576397669
143 0.0084463576397669
144 0.0084463576397669
145 0.0084463576397669
$EndElementData
$ElementData
1
"Attribute:ElementFormulation"
1
0
3
0
1
145
1 1
2 1
3 1
4 1
5 1
6 1
7 1
8 1
9 1
10 1
11 1
12 1
13 1
14 1
15 1
16 1
17 1
18 1
19 1
20 1
21 1
22 1
23 1
24 1
25 1
26 1
27 1
28 1
29 1
30 1
31 1
32 1
33 1
34 1
35 1
36 1
37 1
38 1
39 1
40 1
41 1
42 1
43 1
44 1
45 1
46 1
47 1
48 1
49 1
50 1
51 1
52 1
53 1
54 1
55 1
56 1
57 1
58 1
59 1
60 1
61 1
62 1
63 1
64 1
65 1
66 1
67 1
68 1
69 1
70 1
71 1
72 1
73 1
74 1
75 1
76 1
77 1
78 1
79 1
80 1
81 1
82 1
83 1
84 1
85 1
86 1
87 1
88 1
89 1
90 1
91 1
92 1
93 1
94 1
95 1
96 1
97 1
98 1
99 1
100 1
101 1
102 1
103 1
104 1
105 1
106 1
107 1
108 1
109 1
110 1
111 1
112 1
113 1
114 1
115 1
116 1
117 1
118 1
119 1
120 1
121 1
122 1
123 1
124 1
125 1
126 1
127 1
128 1
129 1
130 1
131 1
132 1
133 1
134 1
135 1
136 1
137 1
138 1
139 1
140 1
141 1
142 1
143 1
144 1
145 1
$EndElementData
$ElementData
1
"MaterialID"
1
0
3
0
1
145
1 3
2 3
3 3
4 3
5 3
6 3
7 3
8 3
9 3
10 3
11 3
12 3
13 3
14 3
15 3
16 3
17 3
18 3
19 3
20 3
21 3
22 3
23 3
24 3
25 3
26 3
27 3
28 3
29 3
30 3
31 3
32 3
33 3
34 3
35 3
36 3
37 3
38 3
39 3
40 3
41 3
42 3
43 3
44 3
45 3
46 3
47 3
48 3
49 3
50 3
51 3
52 3
53 3
54 3
55 3
56 3
57 3
58 3
59 3
60 3
61 3
62 3
63 3
64 3
65 3
66 3
67 3
68 3
69 3
70 3
71 3
72 3
73 3
74 3
75 3
76 3
77 3
78 3
79 3
80 3
81 3
82 3
83 3
84 3
85 3
86 3
87 3
88 3
89 3
90 3
91 3
92 3
93 3
94 3
95 3
96 3
97 3
98 3
99 3
100 3
101 3
102 3
103 3
104 3
105 3
106 3
107 3
108 3
109 3
110 3
111 3
112 3
113 3
114 3
115 3
116 3
117 3
118 3
119 3
120 3
121 3
122 3
123 3
124 3
125 3
126 3
127 3
128 3
129 3
130 3
131 3
132 3
133 3
134 3
135 3
136 3
137 3
138 3
139 3
140 3
141 3
142 3
143 3
144 3
145 3
$EndElementData
$ElementData
1
"Attribute:SecondMomentY"
1
0
3
0
1
145
1 9.689938449722136e-05
2 9.689938449722136e-05
3 9.689938449722136e-05
4 9.689938449722136e-05
5 9.689938449722136e-05
6 9.689938449722136e-05
7 9.689938449722136e-05
8 9.689938449722136e-05
9 9.689938449722136e-05
10 9.689938449722136e-05
11 9.689938449722136e-05
12 9.689938449722136e-05
13 9.689938449722136e-05
14 9.689938449722136e-05
15 9.689938449722136e-05
16 9.689938449722136e-05
17 9.689938449722136e-05
18 9.689938449722136e-05
19 9.689938449722136e-05
20 9.689938449722136e-05
21 9.689938449722136e-05
22 9.689938449722136e-05
23 9.689938449722136e-05
24 9.689938449722136e-05
25 9.689938449722136e-05
26 9.689938449722136e-05
27 9.689938449722136e-05
28 9.689938449722136e-05
29 9.689938449722136e-05
30 9.689938449722136e-05
31 9.689938449722136e-05
32 9.689938449722136e-05
33 9.689938449722136e-05
34 9.689938449722136e-05
35 9.689938449722136e-05
36 9.689938449722136e-05
37 9.689938449722136e-05
38 9.689938449722136e-05
39 9.689938449722136e-05
40 9.689938449722136e-05
41 9.689938449722136e-05
42 9.689938449722136e-05
43 9.689938449722136e-05
44 9.689938449722136e-05
45 9.689938449722136e-05
46 9.689938449722136e-05
47 9.689938449722136e-05
48 9.689938449722136e-05
49 9.689938449722136e-05
50 9.689938449722136e-05
51 9.689938449722136e-05
52 9.689938449722136e-05
53 9.689938449722136e-05
54 9.689938449722136e-05
55 9.689938449722136e-05
56 9.689938449722136e-05
57 9.689938449722136e-05
58 9.689938449722136e-05
59 9.689938449722136e-05
60 9.689938449722136e-05
61 1.675861206087395e-05
62 1.675861206087395e-05
63 1.675861206087395e-05
64 1.675861206087395e-05
65 1.675861206087395e-05
66 1.675861206087395e-05
67 1.675861206087395e-05
68 1.675861206087395e-05
69 1.675861206087395e-05
70 1.317824028008936e-05
71 1.317824028008936e-05
72 1.317824028008936e-05
73 1.317824028008936e-05
74 1.317824028008936e-05
75 1.317824028008936e-05
76 1.317824028008936e-05
77 1.317824028008936e-05
78 1.675861206087395e-05
79 1.675861206087395e-05
80 1.675861206087395e-05
81 1.675861206087395e-05
82 1.675861206087395e-05
83 1.675861206087395e-05
84 1.675861206087395e-05
85 1.675861206087395e-05
86 1.675861206087395e-05
87 1.317824028008936e-05
88 1.317824028008936e-05
89 1.317824028008936e-05
90 1.317824028008936e-05
91 1.317824028008936e-05
92 1.317824028008936e-05
93 1.317824028008936e-05
94 1.317824028008936e-05
95 1.675861206087395e-05
96 1.675861206087395e-05
97 1.675861206087395e-05
98 1.675861206087395e-05
99 1.675861206087395e-05
100 1.675861206087395e-05
101 1.675861206087395e-05
102 1.675861206087395e-05
103 1.675861206087395e-05
104 1.317824028008936e-05
105 1.317824028008936e-05
106 1.317824028008936e-05
107 1.317824028008936e-05
108 1.317824028008936e-05
109 1.317824028008936e-05
110 1.317824028008936e-05
111 1.317824028008936e-05
112 1.675861206087395e-05
113 1.675861206087395e-05
114 1.675861206087395e-05
115 1.675861206087395e-05
116 1.675861206087395e-05
117 1.675861206087395e-05
118 1.675861206087395e-05
119 1.675861206087395e-05
120 1.675861206087395e-05
121 1.317824028008936e-05
122 1.317824028008936e-05
123 1.317824028008936e-05
124 1.317824028008936e-05
125 1.317824028008936e-05
126 1.317824028008936e-05
127 1.317824028008936e-05
128 1.317824028008936e-05
129 1.675861206087395e-05
130 1.675861206087395e-05
131 1.675861206087395e-05
132 1.675861206087395e-05
133 1.675861206087395e-05
134 1.675861206087395e-05
135 1.675861206087395e-05
136 1.675861206087395e-05
137 1.675861206087395e-05
138 1.317824028008936e-05
139 1.317824028008936e-05
140 1.317824028008936e-05
141 1.317824028008936e-05
142 1.317824028008936e-05
143 1.317824028008936e-05
144 1.317824028008936e-05
145 1.317824028008936e-05
$EndElementData
$ElementData
1
"Attribute:SecondMomentZ"
1
0
3
0
1
145
1 0.00036656399460096347
2 0.00036656399460096347
3 0.00036656399460096347
4 0.00036656399460096347
5 0.00036656399460096347
6 0.00036656399460096347
7 0.00036656399460096347
8 0.00036656399460096347
9 0.00036656399460096347
10 0.00036656399460096347
11 0.00036656399460096347
12 0.00036656399460096347
13 0.00036656399460096347
14 0.00036656399460096347
15 0.00036656399460096347
16 0.00036656399460096347
17 0.00036656399460096347
18 0.00036656399460096347
19 0.00036656399460096347
20 0.00036656399460096347
21 0.00036656399460096347
22 0.00036656399460096347
23 0.00036656399460096347
24 0.00036656399460096347
25 0.00036656399460096347
26 0.00036656399460096347
27 0.00036656399460096347
28 0.00036656399460096347
29 0.00036656399460096347
30 0.00036656399460096347
31 0.00036656399460096347
32 0.00036656399460096347
33 0.00036656399460096347
34 0.00036656399460096347
35 0.00036656399460096347
36 0.00036656399460096347
37 0.00036656399460096347
38 0.00036656399460096347
39 0.00036656399460096347
40 0.00036656399460096347
41 0.00036656399460096347
42 0.00036656399460096347
43 0.00036656399460096347
44 0.00036656399460096347
45 0.00036656399460096347
46 0.00036656399460096347
47 0.00036656399460096347
48 0.00036656399460096347
49 0.00036656399460096347
50 0.00036656399460096347
51 0.00036656399460096347
52 0.00036656399460096347
53 0.00036656399460096347
54 0.00036656399460096347
55 0.00036656399460096347
56 0.00036656399460096347
57 0.00036656399460096347
58 0.00036656399460096347
59 0.00036656399460096347
60 0.00036656399460096347
61 0.00033742941808865293
62 0.00033742941808865293
63 0.00033742941808865293
64 0.00033742941808865293
65 0.00033742941808865293
66 0.00033742941808865293
67 0.00033742941808865293
68 0.00033742941808865293
69 0.00033742941808865293
70 0.00023128369088907635
71 0.00023128369088907635
72 0.00023128369088907635
73 0.00023128369088907635
74 0.00023128369088907635
75 0.00023128369088907635
76 0.00023128369088907635
77 0.00023128369088907635
78 0.00033742941808865293
79 0.00033742941808865293
80 0.00033742941808865293
81 0.00033742941808865293
82 0.00033742941808865293
83 0.00033742941808865293
84 0.00033742941808865293
85 0.00033742941808865293
86 0.00033742941808865293
87 0.00023128369088907635
88 0.00023128369088907635
89 0.00023128369088907635
90 0.00023128369088907635
91 0.00023128369088907635
92 0.00023128369088907635
93 0.00023128369088907635
94 0.00023128369088907635
95 0.00033742941808865293
96 0.00033742941808865293
97 0.00033742941808865293
98 0.00033742941808865293
99 0.00033742941808865293
100 0.00033742941808865293
101 0.00033742941808865293
102 0.00033742941808865293
103 0.00033742941808865293
104 0.00023128369088907635
105 0.00023128369088907635
106 0.00023128369088907635
107 0.00023128369088907635
108 0.00023128369088907635
109 0.00023128369088907635
110 0.00023128369088907635
111 0.00023128369088907635
112 0.00033742941808865293
113 0.00033742941808865293
114 0.00033742941808865293
115 0.00033742941808865293
116 0.00033742941808865293
117 0.00033742941808865293
118 0.00033742941808865293
119 0.00033742941808865293
120 0.00033742941808865293
121 0.00023128369088907635
122 0.00023128369088907635
123 0.00023128369088907635
124 0.00023128369088907635
125 0.00023128369088907635
126 0.00023128369088907635
127 0.00023128369088907635
128 0.00023128369088907635
129 0.00033742941808865293
130 0.00033742941808865293
131 0.00033742941808865293
132 0.00033742941808865293
133 0.00033742941808865293
134 0.00033742941808865293
135 0.00033742941808865293
136 0.00033742941808865293
137 0.00033742941808865293
138 0.00023128369088907635
139 0.00023128369088907635
140 0.00023128369088907635
141 0.00023128369088907635
142 0.00023128369088907635
143 0.00023128369088907635
144 0.00023128369088907635
145 0.00023128369088907635
$EndElementData
$ElementData
1
"Attribute:SectionDimension1"
1
0
3
0
1
145
1 0.34
2 0.34
3 0.34
4 0.34
5 0.34
6 0.34
7 0.34
8 0.34
9 0.34
10 0.34
11 0.34
12 0.34
13 0.34
14 0.34
15 0.34
16 0.34
17 0.34
18 0.34
19 0.34
20 0.34
21 0.34
22 0.34
23 0.34
24 0.34
25 0.34
26 0.34
27 0.34
28 0.34
29 0.34
30 0.34
31 0.34
32 0.34
33 0.34
34 0.34
35 0.34
36 0.34
37 0.34
38 0.34
39 0.34
40 0.34
41 0.34
42 0.34
43 0.34
44 0.34
45 0.34
46 0.34
47 0.34
48 0.34
49 0.34
50 0.34
51 0.34
52 0.34
53 0.34
54 0.34
55 0.34
56 0.34
57 0.34
58 0.34
59 0.34
60 0.34
61 0.45
62 0.45
63 0.45
64 0.45
65 0.45
66 0.45
67 0.45
68 0.45
69 0.45
70 0.4
71 0.4
72 0.4
73 0.4
74 0.4
75 0.4
76 0.4
77 0.4
78 0.45
79 0.45
80 0.45
81 0.45
82 0.45
83 0.45
84 0.45
85 0.45
86 0.45
87 0.4
88 0.4
89 0.4
90 0.4
91 0.4
92 0.4
93 0.4
94 0.4
95 0.45
96 0.45
97 0.45
98 0.45
99 0.45
100 0.45
101 0.45
102 0.45
103 0.45
104 0.4
105 0.4
106 0.4
107 0.4
108 0.4
109 0.4
110 0.4
111 0.4
112 0.45
113 0.45
114 0.45
115 0.45
116 0.45
117 0.45
118 0.45
119 0.45
120 0.45
121 0.4
122 0.4
123 0.4
124 0.4
125 0.4
126 0.4
127 0.4
128 0.4
129 0.45
130 0.45
131 0.45
132 0.45
133 0.45
134 0.45
135 0.45
136 0.45
137 0.45
138 0.4
139 0.4
140 0.4
141 0.4
142 0.4
143 0.4
144 0.4
145 0.4
$EndElementData
$ElementData
1
"Attribute:SectionDimension2"
1
0
3
0
1
145
1 0.3
2 0.3
3 0.3
4 0.3
5 0.3
6 0.3
7 0.3
8 0.3
9 0.3
10 0.3
11 0.3
12 0.3
13 0.3
14 0.3
15 0.3
16 0.3
17 0.3
18 0.3
19 0.3
20 0.3
21 0.3
22 0.3
23 0.3
24 0.3
25 0.3
26 0.3
27 0.3
28 0.3
29 0.3
30 0.3
31 0.3
32 0.3
33 0.3
34 0.3
35 0.3
36 0.3
37 0.3
38 0.3
39 0.3
40 0.3
41 0.3
42 0.3
43 0.3
44 0.3
45 0.3
46 0.3
47 0.3
48 0.3
49 0.3
50 0.3
51 0.3
52 0.3
53 0.3
54 0.3
55 0.3
56 0.3
57 0.3
58 0.3
59 0.3
60 0.3
61 0.19
62 0.19
63 0.19
64 0.19
65 0.19
66 0.19
67 0.19
68 0.19
69 0.19
70 0.18
71 0.18
72 0.18
73 0.18
74 0.18
75 0.18
76 0.18
77 0.18
78 0.19
79 0.19
80 0.19
81 0.19
82 0.19
83 0.19
84 0.19
85 0.19
86 0.19
87 0.18
88 0.18
89 0.18
90 0.18
91 0.18
92 0.18
93 0.18
94 0.18
95 0.19
96 0.19
97 0.19
98 0.19
99 0.19
100 0.19
101 0.19
102 0.19
103 0.19
104 0.18
105 0.18
106 0.18
107 0.18
108 0.18
109 0.18
110 0.18
111 0.18
112 0.19
113 0.19
114 0.19
115 0.19
116 0.19
117 0.19
118 0.19
119 0.19
120 0.19
121 0.18
122 0.18
123 0.18
124 0.18
125 0.18
126 0.18
127 0.18
128 0.18
129 0.19
130 0.19
131 0.19
132 0.19
133 0.19
134 0.19
135 0.19
136 0.19
137 0.19
138 0.18
139 0.18
140 0.18
141 0.18
142 0.18
143 0.18
144 0.18
145 0.18
$EndElementData
$ElementData
1
"Attribute:SectionDimension3"
1
0
3
0
1
145
1 0.012
2 0.012
3 0.012
4 0.012
5 0.012
6 0.012
7 0.012
8 0.012
9 0.012
10 0.012
11 0.012
12 0.012
13 0.012
14 0.012
15 0.012
16 0.012
17 0.012
18 0.012
19 0.012
20 0.012
21 0.012
22 0.012
23 0.012
24 0.012
25 0.012
26 0.012
27 0.012
28 0.012
29 0.012
30 0.012
31 0.012
32 0.012
33 0.012
34 0.012
35 0.012
36 0.012
37 0.012
38 0.012
39 0.012
40 0.012
41 0.012
42 0.012
43 0.012
44 0.012
45 0.012
46 0.012
47 0.012
48 0.012
49 0.012
50 0.012
51 0.012
52 0.012
53 0.012
54 0.012
55 0.012
56 0.012
57 0.012
58 0.012
59 0.012
60 0.012
61 0.0094
62 0.0094
63 0.0094
64 0.0094
65 0.0094
66 0.0094
67 0.0094
68 0.0094
69 0.0094
70 0.0086
71 0.0086
72 0.0086
73 0.0086
74 0.0086
75 0.0086
76 0.0086
77 0.0086
78 0.0094
79 0.0094
80 0.0094
81 0.0094
82 0.0094
83 0.0094
84 0.0094
85 0.0094
86 0.0094
87 0.0086
88 0.0086
89 0.0086
90 0.0086
91 0.0086
92 0.0086
93 0.0086
94 0.0086
95 0.0094
96 0.0094
97 0.0094
98 0.0094
99 0.0094
100 0.0094
101 0.0094
102 0.0094
103 0.0094
104 0.0086
105 0.0086
106 0.0086
107 0.0086
108 0.0086
109 0.0086
110 0.0086
111 0.0086
112 0.0094
113 0.0094
114 0.0094
115 0.0094
116 0.0094
117 0.0094
118 0.0094
119 0.0094
120 0.0094
121 0.0086
122 0.0086
123 0.0086
124 0.0086
125 0.0086
126 0.0086
127 0.0086
128 0.0086
129 0.0094
130 0.0094
131 0.0094
132 0.0094
133 0.0094
134 0.0094
135 0.0094
136 0.0094
137 0.0094
138 0.0086
139 0.0086
140 0.0086
141 0.0086
142 0.0086
143 0.0086
144 0.0086
145 0.0086
$EndElementData
$ElementData
1
"Attribute:SectionDimension4"
1
0
3
0
1
145
1 0.0215
2 0.0215
3 0.0215
4 0.0215
5 0.0215
6 0.0215
7 0.0215
8 0.0215
9 0.0215
10 0.0215
11 0.0215
12 0.0215
13 0.0215
14 0.0215
15 0.0215
16 0.0215
17 0.0215
18 0.0215
19 0.0215
20 0.0215
21 0.0215
22 0.0215
23 0.0215
24 0.0215
25 0.0215
26 0.0215
27 0.0215
28 0.0215
29 0.0215
30 0.0215
31 0.0215
32 0.0215
33 0.0215
34 0.0215
35 0.0215
36 0.0215
37 0.0215
38 0.0215
39 0.0215
40 0.0215
41 0.0215
42 0.0215
43 0.0215
44 0.0215
45 0.0215
46 0.0215
47 0.0215
48 0.0215
49 0.0215
50 0.0215
51 0.0215
52 0.0215
53 0.0215
54 0.0215
55 0.0215
56 0.0215
57 0.0215
58 0.0215
59 0.0215
60 0.0215
61 0.0146
62 0.0146
63 0.0146
64 0.0146
65 0.0146
66 0.0146
67 0.0146
68 0.0146
69 0.0146
70 0.0135
71 0.0135
72 0.0135
73 0.0135
74 0.0135
75 0.0135
76 0.0135
77 0.0135
78 0.0146
79 0.0146
80 0.0146
81 0.0146
82 0.0146
83 0.0146
84 0.0146
85 0.0146
86 0.0146
87 0.0135
88 0.0135
89 0.0135
90 0.0135
91 0.0135
92 0.0135
93 0.0135
94 0.0135
95 0.0146
96 0.0146
97 0.0146
98 0.0146
99 0.0146
100 0.0146
101 0.0146
102 0.0146
103 0.0146
104 0.0135
105 0.0135
106 0.0135
107 0.0135
108 0.0135
109 0.0135
110 0.0135
111 0.0135
112 0.0146
113 0.0146
114 0.0146
115 0.0146
116 0.0146
117 0.0146
118 0.0146
119 0.0146
120 0.0146
121 0.0135
122 0.0135
123 0.0135
124 0.0135
125 0.0135
126 0.0135
127 0.0135
128 0.0135
129 0.0146
130 0.0146
131 0.0146
132 0.0146
133 0.0146
134 0.0146
135 0.0146
136 0.0146
137 0.0146
138 0.0135
139 0.0135
140 0.0135
141 0.0135
142 0.0135
143 0.0135
144 0.0135
145 0.0135
$EndElementData
$ElementData
1
"Attribute:SectionDimension5"
1
0
3
0
1
145
1 0.027
2 0.027
3 0.027
4 0.027
5 0.027
6 0.027
7 0.027
8 0.027
9 0.027
10 0.027
11 0.027
12 0.027
13 0.027
14 0.027
15 0.027
16 0.027
17 0.027
18 0.027
19 0.027
20 0.027
21 0.027
22 0.027
23 0.027
24 0.027
25 0.027
26 0.027
27 0.027
28 0.027
29 0.027
30 0.027
31 0.027
32 0.027
33 0.027
34 0.027
35 0.027
36 0.027
37 0.027
38 0.027
39 0.027
40 0.027
41 0.027
42 0.027
43 0.027
44 0.027
45 0.027
46 0.027
47 0.027
48 0.027
49 0.027
50 0.027
51 0.027
52 0.027
53 0.027
54 0.027
55 0.027
56 0.027
57 0.027
58 0.027
59 0.027
60 0.027
61 0.021
62 0.021
63 0.021
64 0.021
65 0.021
66 0.021
67 0.021
68 0.021
69 0.021
70 0.021
71 0.021
72 0.021
73 0.021
74 0.021
75 0.021
76 0.021
77 0.021
78 0.021
79 0.021
80 0.021
81 0.021
82 0.021
83 0.021
84 0.021
85 0.021
86 0.021
87 0.021
88 0.021
89 0.021
90 0.021
91 0.021
92 0.021
93 0.021
94 0.021
95 0.021
96 0.021
97 0.021
98 0.021
99 0.021
100 0.021
101 0.021
102 0.021
103 0.021
104 0.021
105 0.021
106 0.021
107 0.021
108 0.021
109 0.021
110 0.021
111 0.021
112 0.021
113 0.021
114 0.021
115 0.021
116 0.021
117 0.021
118 0.021
119 0.021
120 0.021
121 0.021
122 0.021
123 0.021
124 0.021
125 0.021
126 0.021
127 0.021
128 0.021
129 0.021
130 0.021
131 0.021
132 0.021
133 0.021
134 0.021
135 0.021
136 0.021
137 0.021
138 0.021
139 0.021
140 0.021
141 0.021
142 0.021
143 0.021
144 0.021
145 0.021
$EndElementData
$ElementData
1
"Attribute:SectionShape"
1
0
3
0
1
145
1 5
2 5
3 5
4 5
5 5
6 5
7 5
8 5
9 5
10 5
11 5
12 5
13 5
14 5
15 5
16 5
17 5
18 5
19 5
20 5
21 5
22 5
23 5
24 5
25 5
26 5
27 5
28 5
29 5
30 5
31 5
32 5
33 5
34 5
35 5
36 5
37 5
38 5
39 5
40 5
41 5
42 5
43 5
44 5
45 5
46 5
47 5
48 5
49 5
50 5
51 5
52 5
53 5
54 5
55 5
56 5
57 5
58 5
59 5
60 5
61 5
62 5
63 5
64 5
65 5
66 5
67 5
68 5
69 5
70 5
71 5
72 5
73 5
74 5
75 5
76 5
77 5
78 5
79 5
80 5
81 5
82 5
83 5
84 5
85 5
86 5
87 5
88 5
89 5
90 5
91 5
92 5
93 5
94 5
95 5
96 5
97 5
98 5
99 5
100 5
101 5
102 5
103 5
104 5
105 5
106 5
107 5
108 5
109 5
110 5
111 5
112 5
113 5
114 5
115 5
116 5
117 5
118 5
119 5
120 5
121 5
122 5
123 5
124 5
125 5
126 5
127 5
128 5
129 5
130 5
131 5
132 5
133 5
134 5
135 5
136 5
137 5
138 5
139 5
140 5
141 5
142 5
143 5
144 5
145 5
$EndElementData
$ElementData
1
"Attribute:ShearAreaY"
1
0
3
0
1
145
1 0.0036378021497980024
2 0.0036378021497980024
3 0.0036378021497980024
4 0.0036378021497980024
5 0.0036378021497980024
6 0.0036378021497980024
7 0.0036378021497980024
8 0.0036378021497980024
9 0.0036378021497980024
10 0.0036378021497980024
11 0.0036378021497980024
12 0.0036378021497980024
13 0.0036378021497980024
14 0.0036378021497980024
15 0.0036378021497980024
16 0.0036378021497980024
17 0.0036378021497980024
18 0.0036378021497980024
19 0.0036378021497980024
20 0.0036378021497980024
21 0.0036378021497980024
22 0.0036378021497980024
23 0.0036378021497980024
24 0.0036378021497980024
25 0.0036378021497980024
26 0.0036378021497980024
27 0.0036378021497980024
28 0.0036378021497980024
29 0.0036378021497980024
30 0.0036378021497980024
31 0.0036378021497980024
32 0.0036378021497980024
33 0.0036378021497980024
34 0.0036378021497980024
35 0.0036378021497980024
36 0.0036378021497980024
37 0.0036378021497980024
38 0.0036378021497980024
39 0.0036378021497980024
40 0.0036378021497980024
41 0.0036378021497980024
42 0.0036378021497980024
43 0.0036378021497980024
44 0.0036378021497980024
45 0.0036378021497980024
46 0.0036378021497980024
47 0.0036378021497980024
48 0.0036378021497980024
49 0.0036378021497980024
50 0.0036378021497980024
51 0.0036378021497980024
52 0.0036378021497980024
53 0.0036378021497980024
54 0.0036378021497980024
55 0.0036378021497980024
56 0.0036378021497980024
57 0.0036378021497980024
58 0.0036378021497980024
59 0.0036378021497980024
60 0.0036378021497980024
61 0.004085147789114906
62 0.004085147789114906
63 0.004085147789114906
64 0.004085147789114906
65 0.004085147789114906
66 0.004085147789114906
67 0.004085147789114906
68 0.004085147789114906
69 0.004085147789114906
70 0.0033323939411293683
71 0.0033323939411293683
72 0.0033323939411293683
73 0.0033323939411293683
74 0.0033323939411293683
75 0.0033323939411293683
76 0.0033323939411293683
77 0.0033323939411293683
78 0.004085147789114906
79 0.004085147789114906
80 0.004085147789114906
81 0.004085147789114906
82 0.004085147789114906
83 0.004085147789114906
84 0.004085147789114906
85 0.004085147789114906
86 0.004085147789114906
87 0.0033323939411293683
88 0.0033323939411293683
89 0.0033323939411293683
90 0.0033323939411293683
91 0.0033323939411293683
92 0.0033323939411293683
93 0.0033323939411293683
94 0.0033323939411293683
95 0.004085147789114906
96 0.004085147789114906
97 0.004085147789114906
98 0.004085147789114906
99 0.004085147789114906
100 0.004085147789114906
101 0.004085147789114906
102 0.004085147789114906
103 0.004085147789114906
104 0.0033323939411293683
105 0.0033323939411293683
106 0.0033323939411293683
107 0.0033323939411293683
108 0.0033323939411293683
109 0.0033323939411293683
110 0.0033323939411293683
111 0.0033323939411293683
112 0.004085147789114906
113 0.004085147789114906
114 0.004085147789114906
115 0.004085147789114906
116 0.004085147789114906
117 0.004085147789114906
118 0.004085147789114906
119 0.004085147789114906
120 0.004085147789114906
121 0.0033323939411293683
122 0.0033323939411293683
123 0.0033323939411293683
124 0.0033323939411293683
125 0.0033323939411293683
126 0.0033323939411293683
127 0.0033323939411293683
128 0.0033323939411293683
129 0.004085147789114906
130 0.004085147789114906
131 0.004085147789114906
132 0.004085147789114906
133 0.004085147789114906
134 0.004085147789114906
135 0.004085147789114906
136 0.004085147789114906
137 0.004085147789114906
138 0.0033323939411293683
139 0.0033323939411293683
140 0.0033323939411293683
141 0.0033323939411293683
142 0.0033323939411293683
143 0.0033323939411293683
144 0.0033323939411293683
145 0.0033323939411293683
$EndElementData
$ElementData
1
"Attribute:ShearAreaZ"
1
0
3
0
1
145
1 0.010960784313725488
2 0.010960784313725488
3 0.010960784313725488
4 0.010960784313725488
5 0.010960784313725488
6 0.010960784313725488
7 0.010960784313725488
8 0.010960784313725488
9 0.010960784313725488
10 0.010960784313725488
11 0.010960784313725488
12 0.010960784313725488
13 0.010960784313725488
14 0.010960784313725488
15 0.010960784313725488
16 0.010960784313725488
17 0.010960784313725488
18 0.010960784313725488
19 0.010960784313725488
20 0.010960784313725488
21 0.010960784313725488
22 0.010960784313725488
23 0.010960784313725488
24 0.010960784313725488
25 0.010960784313725488
26 0.010960784313725488
27 0.010960784313725488
28 0.010960784313725488
29 0.010960784313725488
30 0.010960784313725488
31 0.010960784313725488
32 0.010960784313725488
33 0.010960784313725488
34 0.010960784313725488
35 0.010960784313725488
36 0.010960784313725488
37 0.010960784313725488
38 0.010960784313725488
39 0.010960784313725488
40 0.010960784313725488
41 0.010960784313725488
42 0.010960784313725488
43 0.010960784313725488
44 0.010960784313725488
45 0.010960784313725488
46 0.010960784313725488
47 0.010960784313725488
48 0.010960784313725488
49 0.010960784313725488
50 0.010960784313725488
51 0.010960784313725488
52 0.010960784313725488
53 0.010960784313725488
54 0.010960784313725488
55 0.010960784313725488
56 0.010960784313725488
57 0.010960784313725488
58 0.010960784313725488
59 0.010960784313725488
60 0.010960784313725488
61 0.004713986928104576
62 0.004713986928104576
63 0.004713986928104576
64 0.004713986928104576
65 0.004713986928104576
66 0.004713986928104576
67 0.004713986928104576
68 0.004713986928104576
69 0.004713986928104576
70 0.0041294117647058814
71 0.0041294117647058814
72 0.0041294117647058814
73 0.0041294117647058814
74 0.0041294117647058814
75 0.0041294117647058814
76 0.0041294117647058814
77 0.0041294117647058814
78 0.004713986928104576
79 0.004713986928104576
80 0.004713986928104576
81 0.004713986928104576
82 0.004713986928104576
83 0.004713986928104576
84 0.004713986928104576
85 0.004713986928104576
86 0.004713986928104576
87 0.0041294117647058814
88 0.0041294117647058814
89 0.0041294117647058814
90 0.0041294117647058814
91 0.0041294117647058814
92 0.0041294117647058814
93 0.0041294117647058814
94 0.0041294117647058814
95 0.004713986928104576
96 0.004713986928104576
97 0.004713986928104576
98 0.004713986928104576
99 0.004713986928104576
100 0.004713986928104576
101 0.004713986928104576
102 0.004713986928104576
103 0.004713986928104576
104 0.0041294117647058814
105 0.0041294117647058814
106 0.0041294117647058814
107 0.0041294117647058814
108 0.0041294117647058814
109 0.0041294117647058814
110 0.0041294117647058814
111 0.0041294117647058814
112 0.004713986928104576
113 0.004713986928104576
114 0.004713986928104576
115 0.004713986928104576
116 0.004713986928104576
117 0.004713986928104576
118 0.004713986928104576
119 0.004713986928104576
120 0.004713986928104576
121 0.0041294117647058814
122 0.0041294117647058814
123 0.0041294117647058814
124 0.0041294117647058814
125 0.0041294117647058814
126 0.0041294117647058814
127 0.0041294117647058814
128 0.0041294117647058814
129 0.004713986928104576
130 0.004713986928104576
131 0.004713986928104576
132 0.004713986928104576
133 0.004713986928104576
134 0.004713986928104576
135 0.004713986928104576
136 0.004713986928104576
137 0.004713986928104576
138 0.0041294117647058814
139 0.0041294117647058814
140 0.0041294117647058814
141 0.0041294117647058814
142 0.0041294117647058814
143 0.0041294117647058814
144 0.0041294117647058814
145 0.0041294117647058814
$EndElementData
$ElementData
1
"Attribute:TorsionConstant"
1
0
3
0
1
145
1 2.572042615203522e-06
2 2.572042615203522e-06
3 2.572042615203522e-06
4 2.572042615203522e-06
5 2.572042615203522e-06
6 2.572042615203522e-06
7 2.572042615203522e-06
8 2.572042615203522e-06
9 2.572042615203522e-06
10 2.572042615203522e-06
11 2.572042615203522e-06
12 2.572042615203522e-06
13 2.572042615203522e-06
14 2.572042615203522e-06
15 2.572042615203522e-06
16 2.572042615203522e-06
17 2.572042615203522e-06
18 2.572042615203522e-06
19 2.572042615203522e-06
20 2.572042615203522e-06
21 2.572042615203522e-06
22 2.572042615203522e-06
23 2.572042615203522e-06
24 2.572042615203522e-06
25 2.572042615203522e-06
26 2.572042615203522e-06
27 2.572042615203522e-06
28 2.572042615203522e-06
29 2.572042615203522e-06
30 2.572042615203522e-06
31 2.572042615203522e-06
32 2.572042615203522e-06
33 2.572042615203522e-06
34 2.572042615203522e-06
35 2.572042615203522e-06
36 2.572042615203522e-06
37 2.572042615203522e-06
38 2.572042615203522e-06
39 2.572042615203522e-06
40 2.572042615203522e-06
41 2.572042615203522e-06
42 2.572042615203522e-06
43 2.572042615203522e-06
44 2.572042615203522e-06
45 2.572042615203522e-06
46 2.572042615203522e-06
47 2.572042615203522e-06
48 2.572042615203522e-06
49 2.572042615203522e-06
50 2.572042615203522e-06
51 2.572042615203522e-06
52 2.572042615203522e-06
53 2.572042615203522e-06
54 2.572042615203522e-06
55 2.572042615203522e-06
56 2.572042615203522e-06
57 2.572042615203522e-06
58 2.572042615203522e-06
59 2.572042615203522e-06
60 2.572042615203522e-06
61 6.687398699522672e-07
62 6.687398699522672e-07
63 6.687398699522672e-07
64 6.687398699522672e-07
65 6.687398699522672e-07
66 6.687398699522672e-07
67 6.687398699522672e-07
68 6.687398699522672e-07
69 6.687398699522672e-07
70 5.107547221208023e-07
71 5.107547221208023e-07
72 5.107547221208023e-07
73 5.107547221208023e-07
74 5.107547221208023e-07
75 5.107547221208023e-07
76 5.107547221208023e-07
77 5.107547221208023e-07
78 6.687398699522672e-07
79 6.687398699522672e-07
80 6.687398699522672e-07
81 6.687398699522672e-07
82 6.687398699522672e-07
83 6.687398699522672e-07
84 6.687398699522672e-07
85 6.687398699522672e-07
86 6.687398699522672e-07
87 5.107547221208023e-07
88 5.107547221208023e-07
89 5.107547221208023e-07
90 5.107547221208023e-07
91 5.107547221208023e-07
92 5.107547221208023e-07
93 5.107547221208023e-07
94 5.107547221208023e-07
95 6.687398699522672e-07
96 6.687398699522672e-07
97 6.687398699522672e-07
98 6.687398699522672e-07
99 6.687398699522672e-07
100 6.687398699522672e-07
101 6.687398699522672e-07
102 6.687398699522672e-07
103 6.687398699522672e-07
104 5.107547221208023e-07
105 5.107547221208023e-07
106 5.107547221208023e-07
107 5.107547221208023e-07
108 5.107547221208023e-07
109 5.107547221208023e-07
110 5.107547221208023e-07
111 5.107547221208023e-07
112 6.687398699522672e-07
113 6.687398699522672e-07
114 6.687398699522672e-07
115 6.687398699522672e-07
116 6.687398699522672e-07
117 6.687398699522672e-07
118 6.687398699522672e-07
119 6.687398699522672e-07
120 6.687398699522672e-07
121 5.107547221208023e-07
122 5.107547221208023e-07
123 5.107547221208023e-07
124 5.107547221208023e-07
125 5.107547221208023e-07
126 5.107547221208023e-07
127 5.107547221208023e-07
128 5.107547221208023e-07
129 6.687398699522672e-07
130 6.687398699522672e-07
131 6.687398699522672e-07
132 6.687398699522672e-07
133 6.687398699522672e-07
134 6.687398699522672e-07
135 6.687398699522672e-07
136 6.687398699522672e-07
137 6.687398699522672e-07
138 5.107547221208023e-07
139 5.107547221208023e-07
140 5.107547221208023e-07
141 5.107547221208023e-07
142 5.107547221208023e-07
143 5.107547221208023e-07
144 5.107547221208023e-07
145 5.107547221208023e-07
$EndElementData
$ElementData
1
"Attribute:UniformLoadGlobalX"
1
0
3
0
1
145
1 0
2 0
3 0
4 0
5 0
6 0
7 0
8 0
9 0
10 0
11 0
12 0
13 0
14 0
15 0
16 0
17 0
18 0
19 0
20 0
21 0
22 0
23 0
24 0
25 0
26 0
27 0
28 0
29 0
30 0
31 0
32 0
33 0
34 0
35 0
36 0
37 0
38 0
39 0
40 0
41 0
42 0
43 0
44 0
45 0
46 0
47 0
48 0
49 0
50 0
51 0
52 0
53 0
54 0
55 0
56 0
57 0
58 0
59 0
60 0
61 0
62 0
63 0
64 0
65 0
66 0
67 0
68 0
69 0
70 0
71 0
72 0
73 0
74 0
75 0
76 0
77 0
78 0
79 0
80 0
81 0
82 0
83 0
84 0
85 0
86 0
87 0
88 0
89 0
90 0
91 0
92 0
93 0
94 0
95 0
96 0
97 0
98 0
99 0
100 0
101 0
102 0
103 0
104 0
105 0
106 0
107 0
108 0
109 0
110 0
111 0
112 0
113 0
114 0
115 0
116 0
117 0
118 0
119 0
120 0
121 0
122 0
123 0
124 0
125 0
126 0
127 0
128 0
129 0
130 0
131 0
132 0
133 0
134 0
135 0
136 0
137 0
138 0
139 0
140 0
141 0
142 0
143 0
144 0
145 0
$EndElementData
$ElementData
1
"Attribute:UniformLoadGlobalY"
1
0
3
0
1
145
1 0
2 0
3 0
4 0
5 0
6 0
7 0
8 0
9 0
10 0
11 0
12 0
13 0
14 0
15 0
16 0
17 0
18 0
19 0
20 0
21 0
22 0
23 0
24 0
25 0
26 0
27 0
28 0
29 0
30 0
31 0
32 0
33 0
34 0
35 0
36 0
37 0
38 0
39 0
40 0
41 0
42 0
43 0
44 0
45 0
46 0
47 0
48 0
49 0
50 0
51 0
52 0
53 0
54 0
55 0
56 0
57 0
58 0
59 0
60 0
61 -24000
62 -24000
63 -24000
64 -24000
65 -24000
66 -24000
67 -24000
68 -24000
69 -24000
70 -8000
71 -8000
72 -8000
73 -8000
74 -8000
75 -8000
76 -8000
77 -8000
78 -24000
79 -24000
80 -24000
81 -24000
82 -24000
83 -24000
84 -24000
85 -24000
86 -24000
87 -8000
88 -8000
89 -8000
90 -8000
91 -8000
92 -8000
93 -8000
94 -8000
95 -24000
96 -24000
97 -24000
98 -24000
99 -24000
100 -24000
101 -24000
102 -24000
103 -24000
104 -8000
105 -8000
106 -8000
107 -8000
108 -8000
109 -8000
110 -8000
111 -8000
112 -24000
113 -24000
114 -24000
115 -24000
116 -24000
117 -24000
118 -24000
119 -24000
120 -24000
121 -8000
122 -8000
123 -8000
124 -8000
125 -8000
126 -8000
127 -8000
128 -8000
129 -24000
130 -24000
131 -24000
132 -24000
133 -24000
134 -24000
135 -24000
136 -24000
137 -24000
138 -8000
139 -8000
140 -8000
141 -8000
142 -8000
143 -8000
144 -8000
145 -8000
$EndElementData
$ElementData
1
"Attribute:UniformLoadGlobalZ"
1
0
3
0
1
145
1 0
2 0
3 0
4 0
5 0
6 0
7 0
8 0
9 0
10 0
11 0
12 0
13 0
14 0
15 0
16 0
17 0
18 0
19 0
20 0
21 0
22 0
23 0
24 0
25 0
26 0
27 0
28 0
29 0
30 0
31 0
32 0
33 0
34 0
35 0
36 0
37 0
38 0
39 0
40 0
41 0
42 0
43 0
44 0
45 0
46 0
47 0
48 0
49 0
50 0
51 0
52 0
53 0
54 0
55 0
56 0
57 0
58 0
59 0
60 0
61 0
62 0
63 0
64 0
65 0
66 0
67 0
68 0
69 0
70 0
71 0
72 0
73 0
74 0
75 0
76 0
77 0
78 0
79 0
80 0
81 0
82 0
83 0
84 0
85 0
86 0
87 0
88 0
89 0
90 0
91 0
92 0
93 0
94 0
95 0
96 0
97 0
98 0
99 0
100 0
101 0
102 0
103 0
104 0
105 0
106 0
107 0
108 0
109 0
110 0
111 0
112 0
113 0
114 0
115 0
116 0
117 0
118 0
119 0
120 0
121 0
122 0
123 0
124 0
125 0
126 0
127 0
128 0
129 0
130 0
131 0
132 0
133 0
134 0
135 0
136 0
137 0
138 0
139 0
140 0
141 0
142 0
143 0
144 0
145 0
$EndElementData
$ElementData
1
"Attribute:UniformLoadLocalX"
1
0
3
0
1
145
1 0
2 0
3 0
4 0
5 0
6 0
7 0
8 0
9 0
10 0
11 0
12 0
13 0
14 0
15 0
16 0
17 0
18 0
19 0
20 0
21 0
22 0
23 0
24 0
25 0
26 0
27 0
28 0
29 0
30 0
31 0
32 0
33 0
34 0
35 0
36 0
37 0
38 0
39 0
40 0
41 0
42 0
43 0
44 0
45 0
46 0
47 0
48 0
49 0
50 0
51 0
52 0
53 0
54 0
55 0
56 0
57 0
58 0
59 0
60 0
61 0
62 0
63 0
64 0
65 0
66 0
67 0
68 0
69 0
70 0
71 0
72 0
73 0
74 0
75 0
76 0
77 0
78 0
79 0
80 0
81 0
82 0
83 0
84 0
85 0
86 0
87 0
88 0
89 0
90 0
91 0
92 0
93 0
94 0
95 0
96 0
97 0
98 0
99 0
100 0
101 0
102 0
103 0
104 0
105 0
106 0
107 0
108 0
109 0
110 0
111 0
112 0
113 0
114 0
115 0
116 0
117 0
118 0
119 0
120 0
121 0
122 0
123 0
124 0
125 0
126 0
127 0
128 0
129 0
130 0
131 0
132 0
133 0
134 0
135 0
136 0
137 0
138 0
139 0
140 0
141 0
142 0
143 0
144 0
145 0
$EndElementData
$ElementData
1
"Attribute:UniformLoadLocalY"
1
0
3
0
1
145
1 0
2 0
3 0
4 0
5 0
6 0
7 0
8 0
9 0
10 0
11 0
12 0
13 0
14 0
15 0
16 0
17 0
18 0
19 0
20 0
21 0
22 0
23 0
24 0
25 0
26 0
27 0
28 0
29 0
30 0
31 0
32 0
33 0
34 0
35 0
36 0
37 0
38 0
39 0
40 0
41 0
42 0
43 0
44 0
45 0
46 0
47 0
48 0
49 0
50 0
51 0
52 0
53 0
54 0
55 0
56 0
57 0
58 0
59 0
60 0
61 0
62 0
63 0
64 0
65 0
66 0
67 0
68 0
69 0
70 0
71 0
72 0
73 0
74 0
75 0
76 0
77 0
78 0
79 0
80 0
81 0
82 0
83 0
84 0
85 0
86 0
87 0
88 0
89 0
90 0
91 0
92 0
93 0
94 0
95 0
96 0
97 0
98 0
99 0
100 0
101 0
102 0
103 0
104 0
105 0
106 0
107 0
108 0
109 0
110 0
111 0
112 0
113 0
114 0
115 0
116 0
117 0
118 0
119 0
120 0
121 0
122 0
123 0
124 0
125 0
126 0
127 0
128 0
129 0
130 0
131 0
132 0
133 0
134 0
135 0
136 0
137 0
138 0
139 0
140 0
141 0
142 0
143 0
144 0
145 0
$EndElementData
$ElementData
1
"Attribute:UniformLoadLocalZ"
1
0
3
0
1
145
1 0
2 0
3 0
4 0
5 0
6 0
7 0
8 0
9 0
10 0
11 0
12 0
13 0
14 0
15 0
16 0
17 0
18 0
19 0
20 0
21 0
22 0
23 0
24 0
25 0
26 0
27 0
28 0
29 0
30 0
31 0
32 0
33 0
34 0
35 0
36 0
37 0
38 0
39 0
40 0
41 0
42 0
43 0
44 0
45 0
46 0
47 0
48 0
49 0
50 0
51 0
52 0
53 0
54 0
55 0
56 0
57 0
58 0
59 0
60 0
61 0
62 0
63 0
64 0
65 0
66 0
67 0
68 0
69 0
70 0
71 0
72 0
73 0
74 0
75 0
76 0
77 0
78 0
79 0
80 0
81 0
82 0
83 0
84 0
85 0
86 0
87 0
88 0
89 0
90 0
91 0
92 0
93 0
94 0
95 0
96 0
97 0
98 0
99 0
100 0
101 0
102 0
103 0
104 0
105 0
106 0
107 0
108 0
109 0
110 0
111 0
112 0
113 0
114 0
115 0
116 0
117 0
118 0
119 0
120 0
121 0
122 0
123 0
124 0
125 0
126 0
127 0
128 0
129 0
130 0
131 0
132 0
133 0
134 0
135 0
136 0
137 0
138 0
139 0
140 0
141 0
142 0
143 0
144 0
145 0
$EndElementData
$ElementData
1
"BeamOrientation"
1
0
3
0
3
145
1 1 0 0
2 1 0 0
3 1 0 0
4 1 0 0
5 1 0 0
6 1 0 0
7 1 0 0
8 1 0 0
9 1 0 0
10 1 0 0
11 1 0 0
12 1 0 0
13 1 0 0
14 1 0 0
15 1 0 0
16 1 0 0
17 1 0 0
18 1 0 0
19 1 0 0
20 1 0 0
21 1 0 0
22 1 0 0
23 1 0 0
24 1 0 0
25 1 0 0
26 1 0 0
27 1 0 0
28 1 0 0
29 1 0 0
30 1 0 0
31 1 0 0
32 1 0 0
33 1 0 0
34 1 0 0
35 1 0 0
36 1 0 0
37 1 0 0
38 1 0 0
39 1 0 0
40 1 0 0
41 1 0 0
42 1 0 0
43 1 0 0
44 1 0 0
45 1 0 0
46 1 0 0
47 1 0 0
48 1 0 0
49 1 0 0
50 1 0 0
51 1 0 0
52 1 0 0
53 1 0 0
54 1 0 0
55 1 0 0
56 1 0 0
57 1 0 0
58 1 0 0
59 1 0 0
60 1 0 0
61 0 0 0
62 0 0 0
63 0 0 0
64 0 0 0
65 0 0 0
66 0 0 0
67 0 0 0
68 0 0 0
69 0 0 0
70 0 0 0
71 0 0 0
72 0 0 0
73 0 0 0
74 0 0 0
75 0 0 0
76 0 0 0
77 0 0 0
78 0 0 0
79 0 0 0
80 0 0 0
81 0 0 0
82 0 0 0
83 0 0 0
84 0 0 0
85 0 0 0
86 0 0 0
87 0 0 0
88 0 0 0
89 0 0 0
90 0 0 0
91 0 0 0
92 0 0 0
93 0 0 0
94 0 0 0
95 0 0 0
96 0 0 0
97 0 0 0
98 0 0 0
99 0 0 0
100 0 0 0
101 0 0 0
102 0 0 0
103 0 0 0
104 0 0 0
105 0 0 0
106 0 0 0
107 0 0 0
108 0 0 0
109 0 0 0
110 0 0 0
111 0 0 0
112 0 0 0
113 0 0 0
114 0 0 0
115 0 0 0
116 0 0 0
117 0 0 0
118 0 0 0
119 0 0 0
120 0 0 0
121 0 0 0
122 0 0 0
123 0 0 0
124 0 0 0
125 0 0 0
126 0 0 0
127 0 0 0
128 0 0 0
129 0 0 0
130 0 0 0
131 0 0 0
132 0 0 0
133 0 0 0
134 0 0 0
135 0 0 0
136 0 0 0
137 0 0 0
138 0 0 0
139 0 0 0
140 0 0 0
141 0 0 0
142 0 0 0
143 0 0 0
144 0 0 0
145 0 0 0
$EndElementData
$AnafData
1
1
GLOBAL 3 1
"Gravity"
0 -9.80665 0
$EndAnafData
