$MeshFormat
4.1 0 8
$EndMeshFormat
$PhysicalNames
4
1 1 "Material:Structural Steel S235 (EN 10025)"
1 2 "Section:IPE 160"
1 3 "Section:IPE 240"
1 4 "Section:HEB 160"
$EndPhysicalNames
$Entities
0 3 0 0
1 0 0 0 12 3 8 2 1 4 0
2 0 3 0 12 3 8 2 1 3 0
3 2 3 0 10 3 8 2 1 2 0
$EndEntities
$Nodes
1 33 1 33
1 1 0 33
1
2
3
4
5
6
7
8
9
10
11
12
13
14
15
16
17
18
19
20
21
22
23
24
25
26
27
28
29
30
31
32
33
0 3 0
2 3 0
4 3 0
6 3 0
8 3 0
10 3 0
12 3 0
0 3 4
2 3 4
4 3 4
6 3 4
8 3 4
10 3 4
12 3 4
0 3 8
2 3 8
4 3 8
6 3 8
8 3 8
10 3 8
12 3 8
0 0 0
4 0 0
8 0 0
12 0 0
0 0 4
4 0 4
8 0 4
12 0 4
0 0 8
4 0 8
8 0 8
12 0 8
$EndNodes
$Elements
3 44 1 44
1 1 1 12
1 22 1
2 23 3
3 24 5
4 25 7
11 26 8
12 27 10
13 28 12
14 29 14
21 30 15
22 31 17
23 32 19
24 33 21
1 2 1 26
5 1 2
6 2 3
7 3 4
8 4 5
9 5 6
10 6 7
15 8 9
16 9 10
17 10 11
18 11 12
19 12 13
20 13 14
25 15 16
26 16 17
27 17 18
28 18 19
29 19 20
30 20 21
31 1 8
32 8 15
35 3 10
36 10 17
39 5 12
40 12 19
43 7 14
44 14 21
1 3 1 6
33 2 9
34 9 16
37 4 11
38 11 18
41 6 13
42 13 20
$EndElements
$NodeData
1
"Fixity"
1
0
3
0
3
33
1 0 0 0
2 0 0 0
3 0 0 0
4 0 0 0
5 0 0 0
6 0 0 0
7 0 0 0
8 0 0 0
9 0 0 0
10 0 0 0
11 0 0 0
12 0 0 0
13 0 0 0
14 0 0 0
15 0 0 0
16 0 0 0
17 0 0 0
18 0 0 0
19 0 0 0
20 0 0 0
21 0 0 0
22 1 1 1
23 1 1 1
24 1 1 1
25 1 1 1
26 1 1 1
27 1 1 1
28 1 1 1
29 1 1 1
30 1 1 1
31 1 1 1
32 1 1 1
33 1 1 1
$EndNodeData
$NodeData
1
"FixityRotation"
1
0
3
0
3
33
1 0 0 0
2 0 0 0
3 0 0 0
4 0 0 0
5 0 0 0
6 0 0 0
7 0 0 0
8 0 0 0
9 0 0 0
10 0 0 0
11 0 0 0
12 0 0 0
13 0 0 0
14 0 0 0
15 0 0 0
16 0 0 0
17 0 0 0
18 0 0 0
19 0 0 0
20 0 0 0
21 0 0 0
22 1 1 1
23 1 1 1
24 1 1 1
25 1 1 1
26 1 1 1
27 1 1 1
28 1 1 1
29 1 1 1
30 1 1 1
31 1 1 1
32 1 1 1
33 1 1 1
$EndNodeData
$ElementData
1
"CrossSectionArea"
1
0
3
0
1
44
1 0.0054251416529422945
2 0.0054251416529422945
3 0.0054251416529422945
4 0.0054251416529422945
5 0.003911621652942296
6 0.003911621652942296
7 0.003911621652942296
8 0.003911621652942296
9 0.003911621652942296
10 0.003911621652942296
11 0.0054251416529422945
12 0.0054251416529422945
13 0.0054251416529422945
14 0.0054251416529422945
15 0.003911621652942296
16 0.003911621652942296
17 0.003911621652942296
18 0.003911621652942296
19 0.003911621652942296
20 0.003911621652942296
21 0.0054251416529422945
22 0.0054251416529422945
23 0.0054251416529422945
24 0.0054251416529422945
25 0.003911621652942296
26 0.003911621652942296
27 0.003911621652942296
28 0.003911621652942296
29 0.003911621652942296
30 0.003911621652942296
31 0.003911621652942296
32 0.003911621652942296
33 0.002009130995059226
34 0.002009130995059226
35 0.003911621652942296
36 0.003911621652942296
37 0.002009130995059226
38 0.002009130995059226
39 0.003911621652942296
40 0.003911621652942296
41 0.002009130995059226
42 0.002009130995059226
43 0.003911621652942296
44 0.003911621652942296
$EndElementData
$ElementData
1
"Attribute:ElementFormulation"
1
0
3
0
1
44
1 1
2 1
3 1
4 1
5 1
6 1
7 1
8 1
9 1
10 1
11 1
12 1
13 1
14 1
15 1
16 1
17 1
18 1
19 1
20 1
21 1
22 1
23 1
24 1
25 1
26 1
27 1
28 1
29 1
30 1
31 1
32 1
33 1
34 1
35 1
36 1
37 1
38 1
39 1
40 1
41 1
42 1
43 1
44 1
$EndElementData
$ElementData
1
"MaterialID"
1
0
3
0
1
44
1 2
2 2
3 2
4 2
5 2
6 2
7 2
8 2
9 2
10 2
11 2
12 2
13 2
14 2
15 2
16 2
17 2
18 2
19 2
20 2
21 2
22 2
23 2
24 2
25 2
26 2
27 2
28 2
29 2
30 2
31 2
32 2
33 2
34 2
35 2
36 2
37 2
38 2
39 2
40 2
41 2
42 2
43 2
44 2
$EndElementData
$ElementData
1
"Attribute:SecondMomentY"
1
0
3
0
1
44
1 8.892347354690173e-06
2 8.892347354690173e-06
3 8.892347354690173e-06
4 8.892347354690173e-06
5 2.8363416458317623e-06
6 2.8363416458317623e-06
7 2.8363416458317623e-06
8 2.8363416458317623e-06
9 2.8363416458317623e-06
10 2.8363416458317623e-06
11 8.892347354690173e-06
12 8.892347354690173e-06
13 8.892347354690173e-06
14 8.892347354690173e-06
15 2.8363416458317623e-06
16 2.8363416458317623e-06
17 2.8363416458317623e-06
18 2.8363416458317623e-06
19 2.8363416458317623e-06
20 2.8363416458317623e-06
21 8.892347354690173e-06
22 8.892347354690173e-06
23 8.892347354690173e-06
24 8.892347354690173e-06
25 2.8363416458317623e-06
26 2.8363416458317623e-06
27 2.8363416458317623e-06
28 2.8363416458317623e-06
29 2.8363416458317623e-06
30 2.8363416458317623e-06
31 2.8363416458317623e-06
32 2.8363416458317623e-06
33 6.831455100798656e-07
34 6.831455100798656e-07
35 2.8363416458317623e-06
36 2.8363416458317623e-06
37 6.831455100798656e-07
38 6.831455100798656e-07
39 2.8363416458317623e-06
40 2.8363416458317623e-06
41 6.831455100798656e-07
42 6.831455100798656e-07
43 2.8363416458317623e-06
44 2.8363416458317623e-06
$EndElementData
$ElementData
1
"Attribute:SecondMomentZ"
1
0
3
0
1
44
1 2.4920010247533974e-05
2 2.4920010247533974e-05
3 2.4920010247533974e-05
4 2.4920010247533974e-05
5 3.8916262363993505e-05
6 3.8916262363993505e-05
7 3.8916262363993505e-05
8 3.8916262363993505e-05
9 3.8916262363993505e-05
10 3.8916262363993505e-05
11 2.4920010247533974e-05
12 2.4920010247533974e-05
13 2.4920010247533974e-05
14 2.4920010247533974e-05
15 3.8916262363993505e-05
16 3.8916262363993505e-05
17 3.8916262363993505e-05
18 3.8916262363993505e-05
19 3.8916262363993505e-05
20 3.8916262363993505e-05
21 2.4920010247533974e-05
22 2.4920010247533974e-05
23 2.4920010247533974e-05
24 2.4920010247533974e-05
25 3.8916262363993505e-05
26 3.8916262363993505e-05
27 3.8916262363993505e-05
28 3.8916262363993505e-05
29 3.8916262363993505e-05
30 3.8916262363993505e-05
31 3.8916262363993505e-05
32 3.8916262363993505e-05
33 8.692929261758053e-06
34 8.692929261758053e-06
35 3.8916262363993505e-05
36 3.8916262363993505e-05
37 8.692929261758053e-06
38 8.692929261758053e-06
39 3.8916262363993505e-05
40 3.8916262363993505e-05
41 8.692929261758053e-06
42 8.692929261758053e-06
43 3.8916262363993505e-05
44 3.8916262363993505e-05
$EndElementData
$ElementData
1
"Attribute:SectionDimension1"
1
0
3
0
1
44
1 0.16
2 0.16
3 0.16
4 0.16
5 0.24
6 0.24
7 0.24
8 0.24
9 0.24
10 0.24
11 0.16
12 0.16
13 0.16
14 0.16
15 0.24
16 0.24
17 0.24
18 0.24
19 0.24
20 0.24
21 0.16
22 0.16
23 0.16
24 0.16
25 0.24
26 0.24
27 0.24
28 0.24
29 0.24
30 0.24
31 0.24
32 0.24
33 0.16
34 0.16
35 0.24
36 0.24
37 0.16
38 0.16
39 0.24
40 0.24
41 0.16
42 0.16
43 0.24
44 0.24
$EndElementData
$ElementData
1
"Attribute:SectionDimension2"
1
0
3
0
1
44
1 0.16
2 0.16
3 0.16
4 0.16
5 0.12
6 0.12
7 0.12
8 0.12
9 0.12
10 0.12
11 0.16
12 0.16
13 0.16
14 0.16
15 0.12
16 0.12
17 0.12
18 0.12
19 0.12
20 0.12
21 0.16
22 0.16
23 0.16
24 0.16
25 0.12
26 0.12
27 0.12
28 0.12
29 0.12
30 0.12
31 0.12
32 0.12
33 0.082
34 0.082
35 0.12
36 0.12
37 0.082
38 0.082
39 0.12
40 0.12
41 0.082
42 0.082
43 0.12
44 0.12
$EndElementData
$ElementData
1
"Attribute:SectionDimension3"
1
0
3
0
1
44
1 0.008
2 0.008
3 0.008
4 0.008
5 0.0062
6 0.0062
7 0.0062
8 0.0062
9 0.0062
10 0.0062
11 0.008
12 0.008
13 0.008
14 0.008
15 0.0062
16 0.0062
17 0.0062
18 0.0062
19 0.0062
20 0.0062
21 0.008
22 0.008
23 0.008
24 0.008
25 0.0062
26 0.0062
27 0.0062
28 0.0062
29 0.0062
30 0.0062
31 0.0062
32 0.0062
33 0.005
34 0.005
35 0.0062
36 0.0062
37 0.005
38 0.005
39 0.0062
40 0.0062
41 0.005
42 0.005
43 0.0062
44 0.0062
$EndElementData
$ElementData
1
"Attribute:SectionDimension4"
1
0
3
0
1
44
1 0.013
2 0.013
3 0.013
4 0.013
5 0.0098
6 0.0098
7 0.0098
8 0.0098
9 0.0098
10 0.0098
11 0.013
12 0.013
13 0.013
14 0.013
15 0.0098
16 0.0098
17 0.0098
18 0.0098
19 0.0098
20 0.0098
21 0.013
22 0.013
23 0.013
24 0.013
25 0.0098
26 0.0098
27 0.0098
28 0.0098
29 0.0098
30 0.0098
31 0.0098
32 0.0098
33 0.0074
34 0.0074
35 0.0098
36 0.0098
37 0.0074
38 0.0074
39 0.0098
40 0.0098
41 0.0074
42 0.0074
43 0.0098
44 0.0098
$EndElementData
$ElementData
1
"Attribute:SectionDimension5"
1
0
3
0
1
44
1 0.015
2 0.015
3 0.015
4 0.015
5 0.015
6 0.015
7 0.015
8 0.015
9 0.015
10 0.015
11 0.015
12 0.015
13 0.015
14 0.015
15 0.015
16 0.015
17 0.015
18 0.015
19 0.015
20 0.015
21 0.015
22 0.015
23 0.015
24 0.015
25 0.015
26 0.015
27 0.015
28 0.015
29 0.015
30 0.015
31 0.015
32 0.015
33 0.009
34 0.009
35 0.015
36 0.015
37 0.009
38 0.009
39 0.015
40 0.015
41 0.009
42 0.009
43 0.015
44 0.015
$EndElementData
$ElementData
1
"Attribute:SectionShape"
1
0
3
0
1
44
1 5
2 5
3 5
4 5
5 5
6 5
7 5
8 5
9 5
10 5
11 5
12 5
13 5
14 5
15 5
16 5
17 5
18 5
19 5
20 5
21 5
22 5
23 5
24 5
25 5
26 5
27 5
28 5
29 5
30 5
31 5
32 5
33 5
34 5
35 5
36 5
37 5
38 5
39 5
40 5
41 5
42 5
43 5
44 5
$EndElementData
$ElementData
1
"Attribute:ShearAreaY"
1
0
3
0
1
44
1 0.0010901535488637795
2 0.0010901535488637795
3 0.0010901535488637795
4 0.0010901535488637795
5 0.001427571734197008
6 0.001427571734197008
7 0.001427571734197008
8 0.001427571734197008
9 0.001427571734197008
10 0.001427571734197008
11 0.0010901535488637795
12 0.0010901535488637795
13 0.0010901535488637795
14 0.0010901535488637795
15 0.001427571734197008
16 0.001427571734197008
17 0.001427571734197008
18 0.001427571734197008
19 0.001427571734197008
20 0.001427571734197008
21 0.0010901535488637795
22 0.0010901535488637795
23 0.0010901535488637795
24 0.0010901535488637795
25 0.001427571734197008
26 0.001427571734197008
27 0.001427571734197008
28 0.001427571734197008
29 0.001427571734197008
30 0.001427571734197008
31 0.001427571734197008
32 0.001427571734197008
33 0.0007467657340962773
34 0.0007467657340962773
35 0.001427571734197008
36 0.001427571734197008
37 0.0007467657340962773
38 0.0007467657340962773
39 0.001427571734197008
40 0.001427571734197008
41 0.0007467657340962773
42 0.0007467657340962773
43 0.001427571734197008
44 0.001427571734197008
$EndElementData
$ElementData
1
"Attribute:ShearAreaZ"
1
0
3
0
1
44
1 0.0035346405228758163
2 0.0035346405228758163
3 0.0035346405228758163
4 0.0035346405228758163
5 0.0019984313725490196
6 0.0019984313725490196
7 0.0019984313725490196
8 0.0019984313725490196
9 0.0019984313725490196
10 0.0019984313725490196
11 0.0035346405228758163
12 0.0035346405228758163
13 0.0035346405228758163
14 0.0035346405228758163
15 0.0019984313725490196
16 0.0019984313725490196
17 0.0019984313725490196
18 0.0019984313725490196
19 0.0019984313725490196
20 0.0019984313725490196
21 0.0035346405228758163
22 0.0035346405228758163
23 0.0035346405228758163
24 0.0035346405228758163
25 0.0019984313725490196
26 0.0019984313725490196
27 0.0019984313725490196
28 0.0019984313725490196
29 0.0019984313725490196
30 0.0019984313725490196
31 0.0019984313725490196
32 0.0019984313725490196
33 0.0010311633986928106
34 0.0010311633986928106
35 0.0019984313725490196
36 0.0019984313725490196
37 0.0010311633986928106
38 0.0010311633986928106
39 0.0019984313725490196
40 0.0019984313725490196
41 0.0010311633986928106
42 0.0010311633986928106
43 0.0019984313725490196
44 0.0019984313725490196
$EndElementData
$ElementData
1
"Attribute:TorsionConstant"
1
0
3
0
1
44
1 3.1237400143857174e-07
2 3.1237400143857174e-07
3 3.1237400143857174e-07
4 3.1237400143857174e-07
5 1.287981285296164e-07
6 1.287981285296164e-07
7 1.287981285296164e-07
8 1.287981285296164e-07
9 1.287981285296164e-07
10 1.287981285296164e-07
11 3.1237400143857174e-07
12 3.1237400143857174e-07
13 3.1237400143857174e-07
14 3.1237400143857174e-07
15 1.287981285296164e-07
16 1.287981285296164e-07
17 1.287981285296164e-07
18 1.287981285296164e-07
19 1.287981285296164e-07
20 1.287981285296164e-07
21 3.1237400143857174e-07
22 3.1237400143857174e-07
23 3.1237400143857174e-07
24 3.1237400143857174e-07
25 1.287981285296164e-07
26 1.287981285296164e-07
27 1.287981285296164e-07
28 1.287981285296164e-07
29 1.287981285296164e-07
30 1.287981285296164e-07
31 1.287981285296164e-07
32 1.287981285296164e-07
33 3.604337384329227e-08
34 3.604337384329227e-08
35 1.287981285296164e-07
36 1.287981285296164e-07
37 3.604337384329227e-08
38 3.604337384329227e-08
39 1.287981285296164e-07
40 1.287981285296164e-07
41 3.604337384329227e-08
42 3.604337384329227e-08
43 1.287981285296164e-07
44 1.287981285296164e-07
$EndElementData
$ElementData
1
"Attribute:UniformLoadGlobalX"
1
0
3
0
1
44
1 0
2 0
3 0
4 0
5 0
6 0
7 0
8 0
9 0
10 0
11 0
12 0
13 0
14 0
15 0
16 0
17 0
18 0
19 0
20 0
21 0
22 0
23 0
24 0
25 0
26 0
27 0
28 0
29 0
30 0
31 0
32 0
33 0
34 0
35 0
36 0
37 0
38 0
39 0
40 0
41 0
42 0
43 0
44 0
$EndElementData
$ElementData
1
"Attribute:UniformLoadGlobalY"
1
0
3
0
1
44
1 0
2 0
3 0
4 0
5 -4000
6 -4000
7 -4000
8 -4000
9 -4000
10 -4000
11 0
12 0
13 0
14 0
15 -4000
16 -4000
17 -4000
18 -4000
19 -4000
20 -4000
21 0
22 0
23 0
24 0
25 -4000
26 -4000
27 -4000
28 -4000
29 -4000
30 -4000
31 -4000
32 -4000
33 -8000
34 -8000
35 -4000
36 -4000
37 -8000
38 -8000
39 -4000
40 -4000
41 -8000
42 -8000
43 -4000
44 -4000
$EndElementData
$ElementData
1
"Attribute:UniformLoadGlobalZ"
1
0
3
0
1
44
1 0
2 0
3 0
4 0
5 0
6 0
7 0
8 0
9 0
10 0
11 0
12 0
13 0
14 0
15 0
16 0
17 0
18 0
19 0
20 0
21 0
22 0
23 0
24 0
25 0
26 0
27 0
28 0
29 0
30 0
31 0
32 0
33 0
34 0
35 0
36 0
37 0
38 0
39 0
40 0
41 0
42 0
43 0
44 0
$EndElementData
$ElementData
1
"Attribute:UniformLoadLocalX"
1
0
3
0
1
44
1 0
2 0
3 0
4 0
5 0
6 0
7 0
8 0
9 0
10 0
11 0
12 0
13 0
14 0
15 0
16 0
17 0
18 0
19 0
20 0
21 0
22 0
23 0
24 0
25 0
26 0
27 0
28 0
29 0
30 0
31 0
32 0
33 0
34 0
35 0
36 0
37 0
38 0
39 0
40 0
41 0
42 0
43 0
44 0
$EndElementData
$ElementData
1
"Attribute:UniformLoadLocalY"
1
0
3
0
1
44
1 0
2 0
3 0
4 0
5 0
6 0
7 0
8 0
9 0
10 0
11 0
12 0
13 0
14 0
15 0
16 0
17 0
18 0
19 0
20 0
21 0
22 0
23 0
24 0
25 0
26 0
27 0
28 0
29 0
30 0
31 0
32 0
33 0
34 0
35 0
36 0
37 0
38 0
39 0
40 0
41 0
42 0
43 0
44 0
$EndElementData
$ElementData
1
"Attribute:UniformLoadLocalZ"
1
0
3
0
1
44
1 0
2 0
3 0
4 0
5 0
6 0
7 0
8 0
9 0
10 0
11 0
12 0
13 0
14 0
15 0
16 0
17 0
18 0
19 0
20 0
21 0
22 0
23 0
24 0
25 0
26 0
27 0
28 0
29 0
30 0
31 0
32 0
33 0
34 0
35 0
36 0
37 0
38 0
39 0
40 0
41 0
42 0
43 0
44 0
$EndElementData
$ElementData
1
"BeamOrientation"
1
0
3
0
3
44
1 1 0 0
2 1 0 0
3 1 0 0
4 1 0 0
5 0 0 0
6 0 0 0
7 0 0 0
8 0 0 0
9 0 0 0
10 0 0 0
11 1 0 0
12 1 0 0
13 1 0 0
14 1 0 0
15 0 0 0
16 0 0 0
17 0 0 0
18 0 0 0
19 0 0 0
20 0 0 0
21 1 0 0
22 1 0 0
23 1 0 0
24 1 0 0
25 0 0 0
26 0 0 0
27 0 0 0
28 0 0 0
29 0 0 0
30 0 0 0
31 0 0 0
32 0 0 0
33 0 0 0
34 0 0 0
35 0 0 0
36 0 0 0
37 0 0 0
38 0 0 0
39 0 0 0
40 0 0 0
41 0 0 0
42 0 0 0
43 0 0 0
44 0 0 0
$EndElementData
$AnafData
1
1
GLOBAL 3 1
"Gravity"
0 -9.80665 0
$EndAnafData
