$MeshFormat
4.1 0 8
$EndMeshFormat
$PhysicalNames
3
1 1 "Material:Structural Steel S355 (EN 10025)"
1 2 "Section:IPE 200"
1 3 "Section:CHS 139.7x6.3"
$EndPhysicalNames
$Entities
0 2 0 0
1 0 1.5 0 30 1.5 0 2 1 3 0
2 0 0 0 30 1.5 0 2 1 2 0
$EndEntities
$Nodes
1 22 1 22
1 1 0 22
1
2
3
4
5
6
7
8
9
10
11
12
13
14
15
16
17
18
19
20
21
22
0 1.5 0
2 1.5 0
4 1.5 0
6 1.5 0
8 1.5 0
10 1.5 0
12 1.5 0
14 1.5 0
16 1.5 0
18 1.5 0
20 1.5 0
22 1.5 0
24 1.5 0
26 1.5 0
28 1.5 0
30 1.5 0
0 0 0
6 0 0
12 0 0
18 0 0
24 0 0
30 0 0
$EndNodes
$Elements
2 21 1 21
1 1 1 15
1 1 2
2 2 3
3 3 4
4 4 5
5 5 6
6 6 7
7 7 8
8 8 9
9 9 10
10 10 11
11 11 12
12 12 13
13 13 14
14 14 15
15 15 16
1 2 1 6
16 17 1
17 18 4
18 19 7
19 20 10
20 21 13
21 22 16
$EndElements
$NodeData
1
"Displacement"
1
0
3
0
3
22
1 -1.650449307940268e-05 -4.823237125197848e-07 0.007581772034280354
2 -1.4123513395491813e-05 0.0009265550560589692 0.008468614335718626
3 -1.1742533711580948e-05 0.0008874773125844304 0.00927695594911498
4 -9.361554027670084e-06 -4.199835312385655e-07 0.009922832508163823
5 -7.261394226089931e-06 0.0008590747207836931 0.010348217286680407
6 -5.161234424509779e-06 0.0008555479541247307 0.010592304555526063
7 -3.0610746229296253e-06 -4.572614977316718e-07 0.01071696144396427
8 -1.0203582076431988e-06 0.0008588748917950661 0.010774004160401363
9 1.0203582076432276e-06 0.000858874891795066 0.010774004160401356
10 3.0610746229296524e-06 -4.5726149773167144e-07 0.010716961443964257
11 5.1612344245098064e-06 0.0008555479541247308 0.010592304555526049
12 7.2613942260899605e-06 0.0008590747207836929 0.0103482172866804
13 9.361554027670115e-06 -4.1998353123856675e-07 0.009922832508163814
14 1.1742533711580981e-05 0.0008874773125844309 0.009276955949114965
15 1.4123513395491848e-05 0.0009265550560589698 0.00846861433571861
16 1.6504493079402713e-05 -4.823237125197855e-07 0.007581772034280344
17 0 0 0
18 0 0 0
19 0 0 0
20 0 0 0
21 0 0 0
22 0 0 0
$EndNodeData
$NodeData
1
"Rotation"
1
0
3
0
3
22
1 0.010092756725464842 -0.0004490522616786842 8.266465012141529e-05
2 0.01430194786559055 -0.0004307930092341219 0.0004261926389716024
3 0.01535726432785227 -0.00037055157363676634 -0.0004554957515623999
4 0.013258706112249994 -0.0002683279548866112 5.327807892685637e-06
5 0.01675210935630724 -0.00016221241773526704 0.000427090760027566
6 0.01709163792250049 -8.703044521567804e-05 -0.0004297389415189954
7 0.014277291810829748 -4.278203732781662e-05 2.5670326262786426e-06
8 0.017431166488693733 -1.4260679109273684e-05 0.00042881039910430614
9 0.01743116648869373 1.4260679109277779e-05 -0.00042881039910430614
10 0.014277291810829734 4.27820373278201e-05 -2.567032626278642e-06
11 0.01709163792250047 8.703044521567502e-05 0.0004297389415189953
12 0.01675210935630722 0.00016221241773526504 -0.0004270907600275661
13 0.01325870611224998 0.0002683279548866123 -5.3278078926855905e-06
14 0.015357264327852253 0.00037055157363676856 0.00045549575156240036
15 0.014301947865590534 0.00043079300923412026 -0.00042619263897160294
16 0.010092756725464828 0.00044905226167868135 -8.266465012141534e-05
17 0 0 0
18 0 0 0
19 0 0 0
20 0 0 0
21 0 0 0
22 0 0 0
$EndNodeData
$ElementData
1
"BeamSectionForce"
1
0
3
0
12
21
1 660.0718936002004 -27.882145909517362 12.97357863231366 2001.914265808644 -1.6884176632114531 719.9377732441641 660.0718936002004 1578.6234980131726 12.97357863231366 2001.914265808644 24.258739601417574 -830.8035788594913
2 660.0718936001995 -821.3765019868266 12.973578632313092 501.9142658086457 24.2587396014178 -830.8035788594909 660.0718936001995 785.1291419358632 12.973578632313092 501.9142658086457 50.205896866045805 -794.556218808527
3 660.071893600199 -1614.8708580641373 12.97357863231639 -998.0857341913588 50.20589686604694 -794.5562188085273 660.071893600199 -8.365214141447495 12.97357863231639 -998.0857341913588 76.15305413067972 828.6798533970576
4 582.2210355088134 -11.38749890235465 -9.559270218686663 1661.4816380829725 75.14415227843276 784.7856678314332 582.2210355088134 1595.1181450203353 -9.559270218686663 1661.4816380829725 56.02561184105576 -798.9449782865473
5 582.2210355088127 -804.8818549796646 -9.559270218678819 161.48163808296977 56.02561184105325 -798.9449782865478 582.2210355088127 801.6237889430253 -9.559270218678819 161.48163808296977 36.907071403695596 -795.6869122499085
6 582.2210355088137 -1598.3762110569742 -9.559270218676588 -1338.5183619170311 36.907071403695674 -795.6869122499087 582.2210355088137 8.129432865715785 -9.559270218676588 -1338.5183619170311 17.78853096634613 794.5598659413494
7 565.7417228888669 -9.75846588403499 3.3999469906120794e-12 1499.9999999999973 17.62767230097977 789.1838282948223 565.7417228888669 1596.747178038655 3.3999469906120794e-12 1499.9999999999973 17.627672300986568 -797.8048838597975
8 565.7417228888669 -803.2528219613451 -3.083755473198835e-12 -0 17.627672300992582 -797.804883859798 565.7417228888669 803.2528219613447 -3.083755473198835e-12 0 17.62767230098641 -797.804883859798
9 565.7417228888664 -1596.747178038655 -4.689582056016661e-12 -1500.0000000000045 17.62767230098759 -797.8048838597975 565.7417228888664 9.75846588403499 -4.689582056016661e-12 -1500.0000000000045 17.627672300978205 789.1838282948223
10 582.2210355088137 -8.12943286571533 9.559270218676858 1338.5183619170302 17.788530966340943 794.5598659413498 582.2210355088137 1598.3762110569746 9.559270218676858 1338.5183619170302 36.90707140369466 -795.6869122499091
11 582.2210355088134 -801.6237889430256 9.55927021867933 -161.48163808296977 36.90707140369659 -795.6869122499088 582.2210355088134 804.8818549796642 9.55927021867933 -161.48163808296977 56.02561184105525 -798.9449782865476
12 582.2210355088139 -1595.1181450203349 9.5592702186878 -1661.4816380829707 56.02561184105912 -798.9449782865469 582.2210355088139 11.387498902355105 9.5592702186878 -1661.4816380829707 75.14415227843119 784.785667831433
13 660.0718936001999 8.365214141447495 -12.973578632319914 998.085734191357 76.15305413068563 828.6798533970579 660.0718936001999 1614.8708580641373 -12.973578632319914 998.085734191357 50.205896866045805 -794.556218808527
14 660.0718936001999 -785.1291419358627 -12.97357863231855 -501.9142658086448 50.205896866045464 -794.5562188085277 660.0718936001999 821.3765019868272 -12.97357863231855 -501.9142658086448 24.258739601412117 -830.8035788594917
15 660.0718936001995 -1578.6234980131721 -12.97357863231332 -2001.914265808644 24.25873960141621 -830.8035788594906 660.0718936001995 27.88214590951759 -12.97357863231332 -2001.914265808644 -1.6884176632124763 719.9377732441642
16 -356.7975350119865 660.0718936001987 -12.973578632311728 -1.6884176632114587 2021.3746337571156 270.1700671561342 -27.882145909517334 660.0718936001987 -12.973578632311728 -1.6884176632114587 2001.9142658086466 -719.9377732441638
17 -331.93767386337623 -77.85085809138596 22.532848850998562 -1.008901852248409 2625.768098997839 -72.88210157145451 -3.0222847609070413 -77.85085809138596 22.532848850998562 -1.008901852248409 2659.567372274335 43.894185565624426
18 -346.80328785222036 -16.47931261994629 -9.5592702186932 -0.16085866536430887 2852.857267245071 -19.342931283392275 -17.887898749751145 -16.47931261994629 -9.5592702186932 -0.16085866536430887 2838.5183619170293 5.37603764652717
19 -346.80328785222014 16.47931261994669 -9.559270218687743 0.16085866536432197 2852.8572672450655 19.342931283392566 -17.887898749750974 16.47931261994669 -9.559270218687743 0.16085866536432197 2838.5183619170293 -5.376037646527465
20 -331.93767386337674 77.8508580913869 22.532848850996743 1.008901852248413 2625.768098997838 72.8821015714551 -3.022284760907553 77.8508580913869 22.532848850996743 1.008901852248413 2659.5673722743304 -43.894185565625264
21 -356.79753501198684 -660.0718936001988 -12.973578632311728 1.6884176632114478 2021.3746337571129 -270.1700671561341 -27.882145909517646 -660.0718936001988 -12.973578632311728 1.6884176632114478 2001.914265808644 719.9377732441641
$EndElementData
$ElementData
1
"AxialForce"
1
0
3
0
1
21
1 660.0718936002004
2 660.0718936001995
3 660.071893600199
4 582.2210355088134
5 582.2210355088127
6 582.2210355088137
7 565.7417228888669
8 565.7417228888669
9 565.7417228888664
10 582.2210355088137
11 582.2210355088134
12 582.2210355088139
13 660.0718936001999
14 660.0718936001999
15 660.0718936001995
16 -192.33984046075193
17 -167.47997931214164
18 -182.34559330098574
19 -182.34559330098557
20 -167.47997931214215
21 -192.33984046075224
$EndElementData
$ElementData
1
"VonMisesStress"
1
0
3
0
1
21
1 24813026.20944338
2 11889179.960425964
3 15733756.51425832
4 21501885.523893546
5 10099649.323837245
6 18578967.3263006
7 20007011.71113055
8 9740927.866893042
9 20007011.711130615
10 18578967.32630059
11 10099649.323837243
12 21501885.523893524
13 15733756.514258306
14 11889179.960425973
15 24813026.20944338
16 74038242.84573096
17 93632198.90387242
18 100414161.49394211
19 100414161.49394193
20 93632198.90387228
21 74038242.84573086
$EndElementData
$NodeData
1
"Fixity"
1
0
3
0
3
22
1 0 0 0
2 0 0 0
3 0 0 0
4 0 0 0
5 0 0 0
6 0 0 0
7 0 0 0
8 0 0 0
9 0 0 0
10 0 0 0
11 0 0 0
12 0 0 0
13 0 0 0
14 0 0 0
15 0 0 0
16 0 0 0
17 1 1 1
18 1 1 1
19 1 1 1
20 1 1 1
21 1 1 1
22 1 1 1
$EndNodeData
$NodeData
1
"FixityRotation"
1
0
3
0
3
22
1 0 0 0
2 0 0 0
3 0 0 0
4 0 0 0
5 0 0 0
6 0 0 0
7 0 0 0
8 0 0 0
9 0 0 0
10 0 0 0
11 0 0 0
12 0 0 0
13 0 0 0
14 0 0 0
15 0 0 0
16 0 0 0
17 1 1 1
18 1 1 1
19 1 1 1
20 1 1 1
21 1 1 1
22 1 1 1
$EndNodeData
$NodeData
1
"NodalForce"
1
0
3
0
3
22
1 0 0 0
2 0 2400 0
3 0 2400 0
4 0 0 0
5 0 2400 0
6 0 2400 0
7 0 0 0
8 0 2400 0
9 0 2400 0
10 0 0 0
11 0 2400 0
12 0 2400 0
13 0 0 0
14 0 2400 0
15 0 2400 0
16 0 0 0
17 0 0 0
18 0 0 0
19 0 0 0
20 0 0 0
21 0 0 0
22 0 0 0
$EndNodeData
$NodeData
1
"NodalMoment"
1
0
3
0
3
22
1 0 0 0
2 1500 0 0
3 1500 0 0
4 0 0 0
5 1500 0 0
6 1500 0 0
7 0 0 0
8 1500 0 0
9 1500 0 0
10 0 0 0
11 1500 0 0
12 1500 0 0
13 0 0 0
14 1500 0 0
15 1500 0 0
16 0 0 0
17 0 0 0
18 0 0 0
19 0 0 0
20 0 0 0
21 0 0 0
22 0 0 0
$EndNodeData
$ElementData
1
"CrossSectionArea"
1
0
3
0
1
21
1 0.002640257297929933
2 0.002640257297929933
3 0.002640257297929933
4 0.002640257297929933
5 0.002640257297929933
6 0.002640257297929933
7 0.002640257297929933
8 0.002640257297929933
9 0.002640257297929933
10 0.002640257297929933
11 0.002640257297929933
12 0.002640257297929933
13 0.002640257297929933
14 0.002640257297929933
15 0.002640257297929933
16 0.002848410657883071
17 0.002848410657883071
18 0.002848410657883071
19 0.002848410657883071
20 0.002848410657883071
21 0.002848410657883071
$EndElementData
$ElementData
1
"Attribute:ElementFormulation"
1
0
3
0
1
21
1 1
2 1
3 1
4 1
5 1
6 1
7 1
8 1
9 1
10 1
11 1
12 1
13 1
14 1
15 1
16 1
17 1
18 1
19 1
20 1
21 1
$EndElementData
$ElementData
1
"MaterialID"
1
0
3
0
1
21
1 3
2 3
3 3
4 3
5 3
6 3
7 3
8 3
9 3
10 3
11 3
12 3
13 3
14 3
15 3
16 3
17 3
18 3
19 3
20 3
21 3
$EndElementData
$ElementData
1
"Attribute:SecondMomentY"
1
0
3
0
1
21
1 5.8862061216131055e-06
2 5.8862061216131055e-06
3 5.8862061216131055e-06
4 5.8862061216131055e-06
5 5.8862061216131055e-06
6 5.8862061216131055e-06
7 5.8862061216131055e-06
8 5.8862061216131055e-06
9 5.8862061216131055e-06
10 5.8862061216131055e-06
11 5.8862061216131055e-06
12 5.8862061216131055e-06
13 5.8862061216131055e-06
14 5.8862061216131055e-06
15 5.8862061216131055e-06
16 1.423683272853165e-06
17 1.423683272853165e-06
18 1.423683272853165e-06
19 1.423683272853165e-06
20 1.423683272853165e-06
21 1.423683272853165e-06
$EndElementData
$ElementData
1
"Attribute:SecondMomentZ"
1
0
3
0
1
21
1 5.8862061216131055e-06
2 5.8862061216131055e-06
3 5.8862061216131055e-06
4 5.8862061216131055e-06
5 5.8862061216131055e-06
6 5.8862061216131055e-06
7 5.8862061216131055e-06
8 5.8862061216131055e-06
9 5.8862061216131055e-06
10 5.8862061216131055e-06
11 5.8862061216131055e-06
12 5.8862061216131055e-06
13 5.8862061216131055e-06
14 5.8862061216131055e-06
15 5.8862061216131055e-06
16 1.9431682510835934e-05
17 1.9431682510835934e-05
18 1.9431682510835934e-05
19 1.9431682510835934e-05
20 1.9431682510835934e-05
21 1.9431682510835934e-05
$EndElementData
$ElementData
1
"Attribute:SectionDimension1"
1
0
3
0
1
21
1 0.1397
2 0.1397
3 0.1397
4 0.1397
5 0.1397
6 0.1397
7 0.1397
8 0.1397
9 0.1397
10 0.1397
11 0.1397
12 0.1397
13 0.1397
14 0.1397
15 0.1397
16 0.2
17 0.2
18 0.2
19 0.2
20 0.2
21 0.2
$EndElementData
$ElementData
1
"Attribute:SectionDimension2"
1
0
3
0
1
21
1 0.0063
2 0.0063
3 0.0063
4 0.0063
5 0.0063
6 0.0063
7 0.0063
8 0.0063
9 0.0063
10 0.0063
11 0.0063
12 0.0063
13 0.0063
14 0.0063
15 0.0063
16 0.1
17 0.1
18 0.1
19 0.1
20 0.1
21 0.1
$EndElementData
$ElementData
1
"Attribute:SectionDimension3"
1
0
3
0
1
21
1 0
2 0
3 0
4 0
5 0
6 0
7 0
8 0
9 0
10 0
11 0
12 0
13 0
14 0
15 0
16 0.0056
17 0.0056
18 0.0056
19 0.0056
20 0.0056
21 0.0056
$EndElementData
$ElementData
1
"Attribute:SectionDimension4"
1
0
3
0
1
21
1 0
2 0
3 0
4 0
5 0
6 0
7 0
8 0
9 0
10 0
11 0
12 0
13 0
14 0
15 0
16 0.0085
17 0.0085
18 0.0085
19 0.0085
20 0.0085
21 0.0085
$EndElementData
$ElementData
1
"Attribute:SectionDimension5"
1
0
3
0
1
21
1 0
2 0
3 0
4 0
5 0
6 0
7 0
8 0
9 0
10 0
11 0
12 0
13 0
14 0
15 0
16 0.012
17 0.012
18 0.012
19 0.012
20 0.012
21 0.012
$EndElementData
$ElementData
1
"Attribute:SectionShape"
1
0
3
0
1
21
1 3
2 3
3 3
4 3
5 3
6 3
7 3
8 3
9 3
10 3
11 3
12 3
13 3
14 3
15 3
16 5
17 5
18 5
19 5
20 5
21 5
$EndElementData
$ElementData
1
"Attribute:ShearAreaY"
1
0
3
0
1
21
1 0.0014059647642329113
2 0.0014059647642329113
3 0.0014059647642329113
4 0.0014059647642329113
5 0.0014059647642329113
6 0.0014059647642329113
7 0.0014059647642329113
8 0.0014059647642329113
9 0.0014059647642329113
10 0.0014059647642329113
11 0.0014059647642329113
12 0.0014059647642329113
13 0.0014059647642329113
14 0.0014059647642329113
15 0.0014059647642329113
16 0.0010633841173523775
17 0.0010633841173523775
18 0.0010633841173523775
19 0.0010633841173523775
20 0.0010633841173523775
21 0.0010633841173523775
$EndElementData
$ElementData
1
"Attribute:ShearAreaZ"
1
0
3
0
1
21
1 0.0014059647642329113
2 0.0014059647642329113
3 0.0014059647642329113
4 0.0014059647642329113
5 0.0014059647642329113
6 0.0014059647642329113
7 0.0014059647642329113
8 0.0014059647642329113
9 0.0014059647642329113
10 0.0014059647642329113
11 0.0014059647642329113
12 0.0014059647642329113
13 0.0014059647642329113
14 0.0014059647642329113
15 0.0014059647642329113
16 0.0014444444444444446
17 0.0014444444444444446
18 0.0014444444444444446
19 0.0014444444444444446
20 0.0014444444444444446
21 0.0014444444444444446
$EndElementData
$ElementData
1
"Attribute:TorsionConstant"
1
0
3
0
1
21
1 1.1772412243226211e-05
2 1.1772412243226211e-05
3 1.1772412243226211e-05
4 1.1772412243226211e-05
5 1.1772412243226211e-05
6 1.1772412243226211e-05
7 1.1772412243226211e-05
8 1.1772412243226211e-05
9 1.1772412243226211e-05
10 1.1772412243226211e-05
11 1.1772412243226211e-05
12 1.1772412243226211e-05
13 1.1772412243226211e-05
14 1.1772412243226211e-05
15 1.1772412243226211e-05
16 6.980120130097939e-08
17 6.980120130097939e-08
18 6.980120130097939e-08
19 6.980120130097939e-08
20 6.980120130097939e-08
21 6.980120130097939e-08
$EndElementData
$ElementData
1
"Attribute:UniformLoadGlobalX"
1
0
3
0
1
21
1 0
2 0
3 0
4 0
5 0
6 0
7 0
8 0
9 0
10 0
11 0
12 0
13 0
14 0
15 0
16 0
17 0
18 0
19 0
20 0
21 0
$EndElementData
$ElementData
1
"Attribute:UniformLoadGlobalY"
1
0
3
0
1
21
1 -600
2 -600
3 -600
4 -600
5 -600
6 -600
7 -600
8 -600
9 -600
10 -600
11 -600
12 -600
13 -600
14 -600
15 -600
16 0
17 0
18 0
19 0
20 0
21 0
$EndElementData
$ElementData
1
"Attribute:UniformLoadGlobalZ"
1
0
3
0
1
21
1 0
2 0
3 0
4 0
5 0
6 0
7 0
8 0
9 0
10 0
11 0
12 0
13 0
14 0
15 0
16 0
17 0
18 0
19 0
20 0
21 0
$EndElementData
$ElementData
1
"Attribute:UniformLoadLocalX"
1
0
3
0
1
21
1 0
2 0
3 0
4 0
5 0
6 0
7 0
8 0
9 0
10 0
11 0
12 0
13 0
14 0
15 0
16 0
17 0
18 0
19 0
20 0
21 0
$EndElementData
$ElementData
1
"Attribute:UniformLoadLocalY"
1
0
3
0
1
21
1 0
2 0
3 0
4 0
5 0
6 0
7 0
8 0
9 0
10 0
11 0
12 0
13 0
14 0
15 0
16 0
17 0
18 0
19 0
20 0
21 0
$EndElementData
$ElementData
1
"Attribute:UniformLoadLocalZ"
1
0
3
0
1
21
1 0
2 0
3 0
4 0
5 0
6 0
7 0
8 0
9 0
10 0
11 0
12 0
13 0
14 0
15 0
16 0
17 0
18 0
19 0
20 0
21 0
$EndElementData
$ElementData
1
"BeamOrientation"
1
0
3
0
3
21
1 0 0 0
2 0 0 0
3 0 0 0
4 0 0 0
5 0 0 0
6 0 0 0
7 0 0 0
8 0 0 0
9 0 0 0
10 0 0 0
11 0 0 0
12 0 0 0
13 0 0 0
14 0 0 0
15 0 0 0
16 1 0 0
17 1 0 0
18 1 0 0
19 1 0 0
20 1 0 0
21 1 0 0
$EndElementData
$AnafData
1
1
GLOBAL 3 1
"Gravity"
0 -9.80665 0
$EndAnafData
