$MeshFormat
4.1 0 8
$EndMeshFormat
$PhysicalNames
3
1 1 "Material:Structural Steel S355 (EN 10025)"
1 2 "Section:IPE 200"
1 3 "Section:CHS 139.7x6.3"
$EndPhysicalNames
$Entities
0 2 0 0
1 0 1.5 0 30 1.5 0 2 1 3 0
2 0 0 0 30 1.5 0 2 1 2 0
$EndEntities
$Nodes
1 22 1 22
1 1 0 22
1
2
3
4
5
6
7
8
9
10
11
12
13
14
15
16
17
18
19
20
21
22
0 1.5 0
2 1.5 0
4 1.5 0
6 1.5 0
8 1.5 0
10 1.5 0
12 1.5 0
14 1.5 0
16 1.5 0
18 1.5 0
20 1.5 0
22 1.5 0
24 1.5 0
26 1.5 0
28 1.5 0
30 1.5 0
0 0 0
6 0 0
12 0 0
18 0 0
24 0 0
30 0 0
$EndNodes
$Elements
2 21 1 21
1 1 1 15
1 1 2
2 2 3
3 3 4
4 4 5
5 5 6
6 6 7
7 7 8
8 8 9
9 9 10
10 10 11
11 11 12
12 12 13
13 13 14
14 14 15
15 15 16
1 2 1 6
16 17 1
17 18 4
18 19 7
19 20 10
20 21 13
21 22 16
$EndElements
$NodeData
1
"Fixity"
1
0
3
0
3
22
1 0 0 0
2 0 0 0
3 0 0 0
4 0 0 0
5 0 0 0
6 0 0 0
7 0 0 0
8 0 0 0
9 0 0 0
10 0 0 0
11 0 0 0
12 0 0 0
13 0 0 0
14 0 0 0
15 0 0 0
16 0 0 0
17 1 1 1
18 1 1 1
19 1 1 1
20 1 1 1
21 1 1 1
22 1 1 1
$EndNodeData
$NodeData
1
"FixityRotation"
1
0
3
0
3
22
1 0 0 0
2 0 0 0
3 0 0 0
4 0 0 0
5 0 0 0
6 0 0 0
7 0 0 0
8 0 0 0
9 0 0 0
10 0 0 0
11 0 0 0
12 0 0 0
13 0 0 0
14 0 0 0
15 0 0 0
16 0 0 0
17 1 1 1
18 1 1 1
19 1 1 1
20 1 1 1
21 1 1 1
22 1 1 1
$EndNodeData
$NodeData
1
"NodalForce"
1
0
3
0
3
22
1 0 0 0
2 0 2400 0
3 0 2400 0
4 0 0 0
5 0 2400 0
6 0 2400 0
7 0 0 0
8 0 2400 0
9 0 2400 0
10 0 0 0
11 0 2400 0
12 0 2400 0
13 0 0 0
14 0 2400 0
15 0 2400 0
16 0 0 0
17 0 0 0
18 0 0 0
19 0 0 0
20 0 0 0
21 0 0 0
22 0 0 0
$EndNodeData
$NodeData
1
"NodalMoment"
1
0
3
0
3
22
1 0 0 0
2 1500 0 0
3 1500 0 0
4 0 0 0
5 1500 0 0
6 1500 0 0
7 0 0 0
8 1500 0 0
9 1500 0 0
10 0 0 0
11 1500 0 0
12 1500 0 0
13 0 0 0
14 1500 0 0
15 1500 0 0
16 0 0 0
17 0 0 0
18 0 0 0
19 0 0 0
20 0 0 0
21 0 0 0
22 0 0 0
$EndNodeData
$ElementData
1
"CrossSectionArea"
1
0
3
0
1
21
1 0.002640257297929933
2 0.002640257297929933
3 0.002640257297929933
4 0.002640257297929933
5 0.002640257297929933
6 0.002640257297929933
7 0.002640257297929933
8 0.002640257297929933
9 0.002640257297929933
10 0.002640257297929933
11 0.002640257297929933
12 0.002640257297929933
13 0.002640257297929933
14 0.002640257297929933
15 0.002640257297929933
16 0.002848410657883071
17 0.002848410657883071
18 0.002848410657883071
19 0.002848410657883071
20 0.002848410657883071
21 0.002848410657883071
$EndElementData
$ElementData
1
"Attribute:ElementFormulation"
1
0
3
0
1
21
1 1
2 1
3 1
4 1
5 1
6 1
7 1
8 1
9 1
10 1
11 1
12 1
13 1
14 1
15 1
16 1
17 1
18 1
19 1
20 1
21 1
$EndElementData
$ElementData
1
"MaterialID"
1
0
3
0
1
21
1 3
2 3
3 3
4 3
5 3
6 3
7 3
8 3
9 3
10 3
11 3
12 3
13 3
14 3
15 3
16 3
17 3
18 3
19 3
20 3
21 3
$EndElementData
$ElementData
1
"Attribute:SecondMomentY"
1
0
3
0
1
21
1 5.8862061216131055e-06
2 5.8862061216131055e-06
3 5.8862061216131055e-06
4 5.8862061216131055e-06
5 5.8862061216131055e-06
6 5.8862061216131055e-06
7 5.8862061216131055e-06
8 5.8862061216131055e-06
9 5.8862061216131055e-06
10 5.8862061216131055e-06
11 5.8862061216131055e-06
12 5.8862061216131055e-06
13 5.8862061216131055e-06
14 5.8862061216131055e-06
15 5.8862061216131055e-06
16 1.423683272853165e-06
17 1.423683272853165e-06
18 1.423683272853165e-06
19 1.423683272853165e-06
20 1.423683272853165e-06
21 1.423683272853165e-06
$EndElementData
$ElementData
1
"Attribute:SecondMomentZ"
1
0
3
0
1
21
1 5.8862061216131055e-06
2 5.8862061216131055e-06
3 5.8862061216131055e-06
4 5.8862061216131055e-06
5 5.8862061216131055e-06
6 5.8862061216131055e-06
7 5.8862061216131055e-06
8 5.8862061216131055e-06
9 5.8862061216131055e-06
10 5.8862061216131055e-06
11 5.8862061216131055e-06
12 5.8862061216131055e-06
13 5.8862061216131055e-06
14 5.8862061216131055e-06
15 5.8862061216131055e-06
16 1.9431682510835934e-05
17 1.9431682510835934e-05
18 1.9431682510835934e-05
19 1.9431682510835934e-05
20 1.9431682510835934e-05
21 1.9431682510835934e-05
$EndElementData
$ElementData
1
"Attribute:SectionDimension1"
1
0
3
0
1
21
1 0.1397
2 0.1397
3 0.1397
4 0.1397
5 0.1397
6 0.1397
7 0.1397
8 0.1397
9 0.1397
10 0.1397
11 0.1397
12 0.1397
13 0.1397
14 0.1397
15 0.1397
16 0.2
17 0.2
18 0.2
19 0.2
20 0.2
21 0.2
$EndElementData
$ElementData
1
"Attribute:SectionDimension2"
1
0
3
0
1
21
1 0.0063
2 0.0063
3 0.0063
4 0.0063
5 0.0063
6 0.0063
7 0.0063
8 0.0063
9 0.0063
10 0.0063
11 0.0063
12 0.0063
13 0.0063
14 0.0063
15 0.0063
16 0.1
17 0.1
18 0.1
19 0.1
20 0.1
21 0.1
$EndElementData
$ElementData
1
"Attribute:SectionDimension3"
1
0
3
0
1
21
1 0
2 0
3 0
4 0
5 0
6 0
7 0
8 0
9 0
10 0
11 0
12 0
13 0
14 0
15 0
16 0.0056
17 0.0056
18 0.0056
19 0.0056
20 0.0056
21 0.0056
$EndElementData
$ElementData
1
"Attribute:SectionDimension4"
1
0
3
0
1
21
1 0
2 0
3 0
4 0
5 0
6 0
7 0
8 0
9 0
10 0
11 0
12 0
13 0
14 0
15 0
16 0.0085
17 0.0085
18 0.0085
19 0.0085
20 0.0085
21 0.0085
$EndElementData
$ElementData
1
"Attribute:SectionDimension5"
1
0
3
0
1
21
1 0
2 0
3 0
4 0
5 0
6 0
7 0
8 0
9 0
10 0
11 0
12 0
13 0
14 0
15 0
16 0.012
17 0.012
18 0.012
19 0.012
20 0.012
21 0.012
$EndElementData
$ElementData
1
"Attribute:SectionShape"
1
0
3
0
1
21
1 3
2 3
3 3
4 3
5 3
6 3
7 3
8 3
9 3
10 3
11 3
12 3
13 3
14 3
15 3
16 5
17 5
18 5
19 5
20 5
21 5
$EndElementData
$ElementData
1
"Attribute:ShearAreaY"
1
0
3
0
1
21
1 0.0014059647642329113
2 0.0014059647642329113
3 0.0014059647642329113
4 0.0014059647642329113
5 0.0014059647642329113
6 0.0014059647642329113
7 0.0014059647642329113
8 0.0014059647642329113
9 0.0014059647642329113
10 0.0014059647642329113
11 0.0014059647642329113
12 0.0014059647642329113
13 0.0014059647642329113
14 0.0014059647642329113
15 0.0014059647642329113
16 0.0010633841173523775
17 0.0010633841173523775
18 0.0010633841173523775
19 0.0010633841173523775
20 0.0010633841173523775
21 0.0010633841173523775
$EndElementData
$ElementData
1
"Attribute:ShearAreaZ"
1
0
3
0
1
21
1 0.0014059647642329113
2 0.0014059647642329113
3 0.0014059647642329113
4 0.0014059647642329113
5 0.0014059647642329113
6 0.0014059647642329113
7 0.0014059647642329113
8 0.0014059647642329113
9 0.0014059647642329113
10 0.0014059647642329113
11 0.0014059647642329113
12 0.0014059647642329113
13 0.0014059647642329113
14 0.0014059647642329113
15 0.0014059647642329113
16 0.0014444444444444446
17 0.0014444444444444446
18 0.0014444444444444446
19 0.0014444444444444446
20 0.0014444444444444446
21 0.0014444444444444446
$EndElementData
$ElementData
1
"Attribute:TorsionConstant"
1
0
3
0
1
21
1 1.1772412243226211e-05
2 1.1772412243226211e-05
3 1.1772412243226211e-05
4 1.1772412243226211e-05
5 1.1772412243226211e-05
6 1.1772412243226211e-05
7 1.1772412243226211e-05
8 1.1772412243226211e-05
9 1.1772412243226211e-05
10 1.1772412243226211e-05
11 1.1772412243226211e-05
12 1.1772412243226211e-05
13 1.1772412243226211e-05
14 1.1772412243226211e-05
15 1.1772412243226211e-05
16 6.980120130097939e-08
17 6.980120130097939e-08
18 6.980120130097939e-08
19 6.980120130097939e-08
20 6.980120130097939e-08
21 6.980120130097939e-08
$EndElementData
$ElementData
1
"Attribute:UniformLoadGlobalX"
1
0
3
0
1
21
1 0
2 0
3 0
4 0
5 0
6 0
7 0
8 0
9 0
10 0
11 0
12 0
13 0
14 0
15 0
16 0
17 0
18 0
19 0
20 0
21 0
$EndElementData
$ElementData
1
"Attribute:UniformLoadGlobalY"
1
0
3
0
1
21
1 -600
2 -600
3 -600
4 -600
5 -600
6 -600
7 -600
8 -600
9 -600
10 -600
11 -600
12 -600
13 -600
14 -600
15 -600
16 0
17 0
18 0
19 0
20 0
21 0
$EndElementData
$ElementData
1
"Attribute:UniformLoadGlobalZ"
1
0
3
0
1
21
1 0
2 0
3 0
4 0
5 0
6 0
7 0
8 0
9 0
10 0
11 0
12 0
13 0
14 0
15 0
16 0
17 0
18 0
19 0
20 0
21 0
$EndElementData
$ElementData
1
"Attribute:UniformLoadLocalX"
1
0
3
0
1
21
1 0
2 0
3 0
4 0
5 0
6 0
7 0
8 0
9 0
10 0
11 0
12 0
13 0
14 0
15 0
16 0
17 0
18 0
19 0
20 0
21 0
$EndElementData
$ElementData
1
"Attribute:UniformLoadLocalY"
1
0
3
0
1
21
1 0
2 0
3 0
4 0
5 0
6 0
7 0
8 0
9 0
10 0
11 0
12 0
13 0
14 0
15 0
16 0
17 0
18 0
19 0
20 0
21 0
$EndElementData
$ElementData
1
"Attribute:UniformLoadLocalZ"
1
0
3
0
1
21
1 0
2 0
3 0
4 0
5 0
6 0
7 0
8 0
9 0
10 0
11 0
12 0
13 0
14 0
15 0
16 0
17 0
18 0
19 0
20 0
21 0
$EndElementData
$ElementData
1
"BeamOrientation"
1
0
3
0
3
21
1 0 0 0
2 0 0 0
3 0 0 0
4 0 0 0
5 0 0 0
6 0 0 0
7 0 0 0
8 0 0 0
9 0 0 0
10 0 0 0
11 0 0 0
12 0 0 0
13 0 0 0
14 0 0 0
15 0 0 0
16 1 0 0
17 1 0 0
18 1 0 0
19 1 0 0
20 1 0 0
21 1 0 0
$EndElementData
$AnafData
1
1
GLOBAL 3 1
"Gravity"
0 -9.80665 0
$EndAnafData
