$MeshFormat
4.1 0 8
$EndMeshFormat
$PhysicalNames
6
1 1 "Material:Structural Steel S355 (EN 10025)"
1 2 "Section:IPE 300"
1 3 "Section:IPE 360"
1 4 "Section:HEB 240"
1 5 "Section:CHS 76.1x4"
1 6 "Section:CHS 114.3x5"
$EndPhysicalNames
$Entities
0 5 0 0
1 0 0 0 12 10.5 12 2 1 4 0
2 0 3.5 0 12 10.5 12 2 1 3 0
3 0 3.5 0 12 10.5 12 2 1 2 0
4 0 0 0 12 10.5 12 2 1 6 0
5 0 3.5 0 12 10.5 12 2 1 5 0
$EndEntities
$Nodes
1 36 1 36
1 1 0 36
1
2
3
4
5
6
7
8
9
10
11
12
13
14
15
16
17
18
19
20
21
22
23
24
25
26
27
28
29
30
31
32
33
34
35
36
0 0 0
6 0 0
12 0 0
0 0 6
6 0 6
12 0 6
0 0 12
6 0 12
12 0 12
0 3.5 0
6 3.5 0
12 3.5 0
0 3.5 6
6 3.5 6
12 3.5 6
0 3.5 12
6 3.5 12
12 3.5 12
0 7 0
6 7 0
12 7 0
0 7 6
6 7 6
12 7 6
0 7 12
6 7 12
12 7 12
0 10.5 0
6 10.5 0
12 10.5 0
0 10.5 6
6 10.5 6
12 10.5 6
0 10.5 12
6 10.5 12
12 10.5 12
$EndNodes
$Elements
5 111 1 111
1 1 1 27
1 1 10
2 10 19
3 19 28
4 2 11
5 11 20
6 20 29
7 3 12
8 12 21
9 21 30
10 4 13
11 13 22
12 22 31
13 5 14
14 14 23
15 23 32
16 6 15
17 15 24
18 24 33
19 7 16
20 16 25
21 25 34
22 8 17
23 17 26
24 26 35
25 9 18
26 18 27
27 27 36
1 2 1 18
28 10 11
29 11 12
30 13 14
31 14 15
32 16 17
33 17 18
40 19 20
41 20 21
42 22 23
43 23 24
44 25 26
45 26 27
52 28 29
53 29 30
54 31 32
55 32 33
56 34 35
57 35 36
1 3 1 18
34 10 13
35 13 16
36 11 14
37 14 17
38 12 15
39 15 18
46 19 22
47 22 25
48 20 23
49 23 26
50 21 24
51 24 27
58 28 31
59 31 34
60 29 32
61 32 35
62 30 33
63 33 36
1 4 1 24
64 1 11
65 2 10
66 7 17
67 8 16
68 1 13
69 4 10
70 3 15
71 6 12
72 10 20
73 11 19
74 16 26
75 17 25
76 10 22
77 13 19
78 12 24
79 15 21
80 19 29
81 20 28
82 25 35
83 26 34
84 19 31
85 22 28
86 21 33
87 24 30
1 5 1 24
88 10 14
89 11 13
90 11 15
91 12 14
92 13 17
93 14 16
94 14 18
95 15 17
96 19 23
97 20 22
98 20 24
99 21 23
100 22 26
101 23 25
102 23 27
103 24 26
104 28 32
105 29 31
106 29 33
107 30 32
108 31 35
109 32 34
110 32 36
111 33 35
$EndElements
$NodeData
1
"Displacement"
1
0
3
0
3
36
1 0 0 0
2 0 0 0
3 0 0 0
4 0 0 0
5 0 0 0
6 0 0 0
7 0 0 0
8 0 0 0
9 0 0 0
10 0.0009765721474765381 -0.0002812155831002692 1.9353039608043983e-05
11 0.0010201193983438955 -0.0007575220345098449 5.0320356654864854e-05
12 0.0010243187901592024 -0.00037471732847514026 -3.378586163858799e-06
13 0.0012161354993795268 -0.0004533354751158188 6.839644986877046e-05
14 0.0011747566460110393 -0.0007520279755484833 5.147979026708663e-05
15 0.0011618932008988442 -0.00045623182100909993 6.599528837212428e-05
16 0.0009925093199920191 -0.00027904764641825534 5.727797980405992e-05
17 0.001036692919825407 -0.0007610270266718656 5.6073003747015065e-05
18 0.0010416776174327147 -0.0003802312427279187 7.255705036563403e-05
19 0.0019164881343429036 -0.0004887953426624162 0.00014809638793801284
20 0.0019335024806117634 -0.0012418326019529113 0.00013868449249371294
21 0.0019382058552990303 -0.0006247353457065199 8.568012115306555e-05
22 0.0021573967549171637 -0.0007551257664860261 0.00017250992909673474
23 0.00211594238800282 -0.0012526315211676107 0.00014068650819777737
24 0.002102517279727684 -0.0007604387636582642 0.00012567543226240776
25 0.001958548724898819 -0.00048507718873349405 0.0001619090458954929
26 0.0019762326751116993 -0.0012475707005049424 0.00014453508660395412
27 0.0019816940328879367 -0.0006329702998000034 0.00013417894828663437
28 0.002689966159163664 -0.0006000570559292479 0.00031518176811969246
29 0.002682208149353553 -0.0014720860259990328 0.00025942856932905143
30 0.002688434385289243 -0.0007485800368518936 0.00019238287033062682
31 0.0029295628792822626 -0.0009044973574192929 0.00031726340177840815
32 0.0028887754581651153 -0.001501810636857383 0.0002620692245348533
33 0.0028749761473457897 -0.0009109866375021811 0.00021244558339880162
34 0.002757493846838159 -0.0005967779202864573 0.00030674276814983035
35 0.002751364450464411 -0.0014785751755190058 0.00026523404244347727
36 0.0027592870090652317 -0.0007582171712162541 0.00022246354792358343
$EndNodeData
$NodeData
1
"Rotation"
1
0
3
0
3
36
1 -2.074857753505744e-06 0 -0.000278642113096532
2 1.2096792264908914e-05 0 -0.00029645746699964243
3 -7.673312784777958e-06 0 -0.0002979583362136481
4 1.75952608729652e-05 0 -0.00036519127987654025
5 1.244644031823636e-05 0 -0.00035023535387985024
6 1.985284502902885e-05 0 -0.0003456262115101984
7 1.352330758253117e-05 0 -0.0002824071480685424
8 1.4166906551791072e-05 0 -0.0003004679017100991
9 2.207158944284763e-05 0 -0.00030227345490454615
10 2.0738035171049186e-05 0 -0.00027977761450111133
11 1.8938149745780612e-05 0 -0.0002814731217240539
12 1.2450694571962661e-05 0 -0.0002820708619948771
13 2.3435006713015697e-05 0 -0.00031201929685794233
14 1.9232653878172963e-05 0 -0.0003064635602497615
15 1.686169997519168e-05 0 -0.0003046560348928981
16 2.204879609556044e-05 0 -0.00028590797814178855
17 1.9728761536716474e-05 0 -0.0002876581278587218
18 1.8048578570562466e-05 0 -0.00028831961941894874
19 4.6060556414579826e-05 0 -0.00024495800922817436
20 3.101802595354331e-05 0 -0.00023494289777010888
21 3.1317565022760105e-05 0 -0.0002350820491809384
22 3.652587891849343e-05 0 -0.0002359170501108909
23 3.121333515871098e-05 0 -0.00023756652707232275
24 2.0424685628689402e-05 0 -0.0002378995126076439
25 3.7058213121718356e-05 0 -0.00025272222518071087
26 3.080594756240442e-05 0 -0.00024281707928892665
27 2.0746417315419523e-05 0 -0.00024304622856868746
28 4.857115978555796e-05 0 -0.00020901197426073775
29 3.62417380891147e-05 0 -0.0002034033141572595
30 3.007425965613392e-05 0 -0.00020398630207152195
31 4.377033559826966e-05 0 -0.00021296972534283305
32 3.6413388000577703e-05 0 -0.00021242984006406864
33 2.6979900900409893e-05 0 -0.0002121031929839703
34 4.353863728928787e-05 0 -0.00021604363147591227
35 3.632427349405799e-05 0 -0.0002107909569659054
36 2.746777638722996e-05 0 -0.00021173105567399322
$EndNodeData
$ElementData
1
"BeamSectionForce"
1
0
3
0
12
111
1 -180256.5995445885 -4.383413597480285 30.681322976605827 0 -0 1.8189894035458565e-12 -177400.9484580749 -4.383413597480285 30.681322976605827 0 107.3846304181204 15.341947591187818
2 -133430.58833735893 143.13218464670808 -27.311264039520864 0 107.39367643515479 15.254595498932304 -130574.93725084534 143.13218464670808 -27.311264039520864 0 11.804252296831862 -485.70805076454326
3 -72180.64641272076 -138.76979396455908 -3.411948736766959 0 11.87985432398446 -485.68355617749967 -69324.99532620716 -138.76979396455908 -3.411948736766959 0 -0.06196625469937089 0.010722698460085667
4 -483146.2823120217 57.844563261219264 9.201020631763555 0 1.4210854715202004e-14 2.7284841053187847e-12 -480290.63122550806 57.844563261219264 9.201020631763555 0 32.20357221117246 -202.45597141426333
5 -309407.4334188701 63.89434535952114 -2.1691387305944545 0 32.227131397329686 -202.52367777857535 -306551.78233235644 63.89434535952114 -2.1691387305944545 0 24.63514584024915 -426.1538865368939
6 -147849.07673364735 -121.76727148423151 -7.007734041833174 0 24.558038364202474 -426.1609947115412 -144993.42564713376 -121.76727148423151 -7.007734041833174 0 0.030969217786548597 0.024455483275232837
7 -239715.61781105123 61.33094176666236 27.065009744168457 0 -1.4210854715202004e-14 2.2737367544323206e-12 -236859.96672453763 61.33094176666236 27.065009744168457 0 94.7275341045896 -214.65829618331463
8 -160417.64753967748 58.6956178308742 -28.737116132839887 0 94.6949289013977 -214.7194859836727 -157561.99645316388 58.6956178308742 -28.737116132839887 0 -5.884977563541838 -420.1541483917299
9 -80182.33139225913 -120.05250649627806 1.6898483290170816 0 -5.883472114647816 -420.16178171937963 -77326.68030574554 -120.05250649627806 1.6898483290170816 0 0.030997036911799114 0.021991017593791184
10 -289709.9553332239 205.26156324323483 7.853941576476927 0 4.263256414560601e-14 1.8189894035458565e-12 -286854.30424671026 205.26156324323483 7.853941576476927 0 27.488795517669388 -718.4154713513162
11 -193340.33343580816 -116.65276824527382 1.8861130762270477 0 27.509916059452536 -718.2573761044127 -190484.68234929457 -116.65276824527382 1.8861130762270477 0 34.1113118262474 -309.9726872459478
12 -96415.23051825151 -88.58294781304448 -9.764282066266418 0 34.13801205987008 -310.04271193861496 -93559.57943173792 -88.58294781304448 -9.764282066266418 0 -0.03697517206245493 -0.0023945929569890723
13 -479652.5362773256 168.97370149482276 9.12685693608492 0 -1.4210854715202004e-14 2.7284841053187847e-12 -476796.88519081194 168.97370149482276 9.12685693608492 0 31.943999276297262 -591.4079552318726
14 -319768.3575182168 -71.91410566106424 -2.1354976922651474 0 31.93479487600473 -591.2892994832496 -316912.7064317032 -71.91410566106424 -2.1354976922651474 0 24.460552953076842 -339.589929669527
15 -159884.17875910862 -97.01947173525559 -6.999574765467088 0 24.488075230542137 -339.5970467675138 -157028.52767259502 -97.01947173525559 -6.999574765467088 0 -0.010436448592315628 -0.028895694119455584
16 -291551.7806669025 158.15852675415726 -4.022825503550024 0 -0 1.8189894035458565e-12 -288696.12958038884 158.15852675415726 -4.022825503550024 0 -14.079889262425041 -553.5548436395457
17 -194877.11450832264 -58.55438731443428 12.844360756424152 0 -14.091805403915771 -553.4493937396132 -192021.46342180905 -58.55438731443428 12.844360756424152 0 30.863457243568746 -348.5090381390901
18 -97163.24465200331 -99.56924271877597 -8.78909231766471 0 30.809234732480675 -348.5153487614748 -94307.59356548972 -99.56924271877597 -8.78909231766471 0 0.0474116206541737 -0.022999245754363074
19 -178877.97943156716 -13.51437002513103 11.46602789337804 0 1.4210854715202004e-14 3.183231456205249e-12 -176022.32834505357 -13.51437002513103 11.46602789337804 0 40.13109762682322 47.300295087962695
20 -132444.78432662788 155.09637424942912 -2.752380592101474 0 40.14275785354951 47.22955193330699 -129589.13324011429 155.09637424942912 -2.752380592101474 0 30.509425781194636 -495.60775793969424
21 -72459.82404934938 -141.5868284938756 -8.736316431635828 0 30.540848948447945 -495.562227834072 -69604.17296283579 -141.5868284938756 -8.736316431635828 0 -0.03625856227768054 -0.0083281055021871
22 -485375.1539993882 49.449993328373694 7.480202958295777 0 4.263256414560601e-14 1.8189894035458565e-12 -482519.50291287457 49.449993328373694 7.480202958295777 0 26.180710354035313 -173.07497664930543
23 -310827.49582628545 74.17228108404424 -0.06073297773377817 0 26.177494533558303 -173.12592603361463 -307971.8447397718 74.17228108404424 -0.06073297773377817 0 25.964929111489994 -432.72890982776335
24 -148326.68015209536 -123.6340356474193 -7.426376331077819 0 25.984063985708133 -432.71468455512877 -145471.02906558177 -123.6340356474193 -7.426376331077819 0 -0.008253173063849317 0.004440210836037295
25 -243221.9900927795 53.866452263232986 -5.410593751488747 0 4.263256414560601e-14 1.8189894035458565e-12 -240366.33900626592 53.866452263232986 -5.410593751488747 0 -18.937078130210523 -188.53258292130886
26 -162147.99339518632 67.0121708558222 14.454367341547183 0 -18.945522536459535 -188.5768430208891 -159292.34230867273 67.0121708558222 14.454367341547183 0 31.644763158955612 -423.1194410162625
27 -81073.99669759322 -120.88757294125662 -9.014198109183866 0 31.59420511748513 -423.1054970662267 -78218.34561107963 -120.88757294125662 -9.014198109183866 0 0.04451173534147301 0.0010082281705763307
28 11085.054578730866 -61679.65711984111 -4.506337725152971e-16 -0.009046017034522014 0 0 11085.054578730866 61679.65711984111 -4.506337725152971e-16 -0.009046017034522014 0 0
29 1068.9650102584565 -61679.65711984111 7.814224637509855e-16 -0.032605203191918855 0 0 1068.9650102584565 61679.65711984111 7.814224637509855e-16 -0.032605203191918855 0 0
30 -10533.083922843332 -61679.65711984111 2.4616979647084127e-16 -0.021120541783034227 0 0 -10533.083922843332 61679.65711984111 2.4616979647084127e-16 -0.021120541783034227 0 0
31 -3274.420044873026 -61679.65711984111 -2.1122829792202756e-16 -0.011916141490636703 0 0 -3274.420044873026 61679.65711984111 -2.1122829792202756e-16 -0.011916141490636703 0 0
32 11247.038696650328 -61679.65711984111 1.7534709434328504e-17 -0.01166022672629323 0 0 11247.038696650328 61679.65711984111 1.7534709434328504e-17 -0.01166022672629323 0 0
33 1268.8664366846206 -61679.65711984111 -2.3987444901459043e-16 -0.008444406249178305 0 0 1268.8664366846206 61679.65711984111 -2.3987444901459043e-16 -0.008444406249178305 0 0
34 9236.9368126332 -16242.770266020416 0 -0.08735209225628093 0 0 9236.9368126332 16242.770266020416 0 -0.08735209225628093 0 0
35 -2094.0755321643446 -16242.770266020416 0 0.07074315465872005 0 0 -2094.0755321643446 16242.770266020416 0 0.07074315465872005 0 0
36 218.37011246976363 -16242.770266020416 0 -0.06770636431011245 0 0 218.37011246976363 16242.770266020416 0 -0.06770636431011245 0 0
37 865.0952789677704 -16242.770266020416 0 0.050949384308207946 0 0 865.0952789677704 16242.770266020416 0 0.050949384308207946 0 0
38 13066.018291341528 -16242.770266020416 0 -0.06118980035773469 0 0 13066.018291341528 16242.770266020416 0 -0.06118980035773469 0 0
39 1235.8557569991008 -16242.770266020416 0 0.044260099576194034 0 0 1235.8557569991008 16242.770266020416 0 0.044260099576194034 0 0
40 4331.041644539568 -61679.65711984111 1.3696110464370423e-16 -0.07560202715267156 0 0 4331.041644539568 61679.65711984111 1.3696110464370423e-16 -0.07560202715267156 0 0
41 1197.2550292871892 -61679.65711984111 7.713151184819784e-16 0.0015054488939126032 0 0 1197.2550292871892 61679.65711984111 7.713151184819784e-16 0.0015054488939126032 0 0
42 -10552.306072590407 -61679.65711984111 4.630917231982656e-16 -0.0267002336220733 0 0 -10552.306072590407 61679.65711984111 4.630917231982656e-16 -0.0267002336220733 0 0
43 -3417.3927169030067 -61679.65711984111 2.1843990449807628e-16 -0.054222511087615666 0 0 -3417.3927169030067 61679.65711984111 2.1843990449807628e-16 -0.054222511087615666 0 0
44 4501.490894900053 -61679.65711984111 2.5282438279156894e-16 -0.0314231672526987 0 0 4501.490894900053 61679.65711984111 2.5282438279156894e-16 -0.0314231672526987 0 0
45 1390.201397740806 -61679.65711984111 1.5070164688687873e-16 -0.05055804147085431 0 0 1390.201397740806 61679.65711984111 1.5070164688687873e-16 -0.05055804147085431 0 0
46 4598.096581312118 -16242.770266020416 0 0.024494587042877658 0 0 4598.096581312118 16242.770266020416 0 0.024494587042877658 0 0
47 -1996.5921571809777 -16242.770266020416 0 -0.04553010562027482 0 0 -1996.5921571809777 16242.770266020416 0 -0.04553010562027482 0 0
48 377.0637575574765 -16242.770266020416 0 -0.007108174639178233 0 0 377.0637575574765 16242.770266020416 0 -0.007108174639178233 0 0
49 724.8491768278727 -16242.770266020416 0 -0.014225272631408825 0 0 724.8491768278727 16242.770266020416 0 -0.014225272631408825 0 0
50 7532.799198803679 -16242.770266020416 0 -0.0076333276425984975 0 0 7532.799198803679 16242.770266020416 0 -0.0076333276425984975 0 0
51 1601.5697069886337 -16242.770266020416 0 -0.01394395002315063 0 0 1601.5697069886337 16242.770266020416 0 -0.01394395002315063 0 0
52 -1974.8195455403766 -61679.65711984111 8.113158225116936e-16 -0.0619662546993448 0 0 -1974.8195455403766 61679.65711984111 8.113158225116936e-16 -0.0619662546993448 0 0
53 1584.9029225152917 -61679.65711984111 9.756433282516752e-16 -0.030997036912205844 0 0 1584.9029225152917 61679.65711984111 9.756433282516752e-16 -0.030997036912205844 0 0
54 -10382.533459722297 -61679.65711984111 8.03180988347665e-16 -0.03697517206178649 0 0 -10382.533459722297 61679.65711984111 8.03180988347665e-16 -0.03697517206178649 0 0
55 -3512.646849901532 -61679.65711984111 7.221190191347223e-16 -0.04741162065375806 0 0 -3512.646849901532 61679.65711984111 7.221190191347223e-16 -0.04741162065375806 0 0
56 -1560.2521854852093 -61679.65711984111 6.04031457716382e-16 -0.036258562277735135 0 0 -1560.2521854852093 61679.65711984111 6.04031457716382e-16 -0.036258562277735135 0 0
57 2016.7058251459384 -61679.65711984111 6.223926105288241e-16 -0.04451173534149072 0 0 2016.7058251459384 61679.65711984111 6.223926105288241e-16 -0.04451173534149072 0 0
58 392.05916697854263 -16242.770266020416 0 -0.010722698456749002 0 0 392.05916697854263 16242.770266020416 0 -0.010722698456749002 0 0
59 -1981.4777875236105 -16242.770266020416 0 -0.008328105498719207 0 0 -1981.4777875236105 16242.770266020416 0 -0.008328105498719207 0 0
60 497.3464355409087 -16242.770266020416 0 -0.024455483279030688 0 0 497.3464355409087 16242.770266020416 0 -0.024455483279030688 0 0
61 596.0683176402017 -16242.770266020416 0 0.004440210842710068 0 0 596.0683176402017 16242.770266020416 0 0.004440210842710068 0 0
62 3778.65266537392 -16242.770266020416 0 -0.02199101758932054 0 0 3778.65266537392 16242.770266020416 0 -0.02199101758932054 0 0
63 1886.8040540955626 -16242.770266020416 0 0.0010082281772195723 0 0 1886.8040540955626 16242.770266020416 0 0.0010082281772195723 0 0
64 25693.481890124738 -396.50770044218956 -3.6612878215138956e-16 0 0 0 26156.074207307294 396.50770044218956 -3.6612878215138956e-16 0 0 0
65 -51370.29030876353 -396.50770044218956 1.4081189589374104e-16 0 0 0 -50907.69799158097 396.50770044218956 1.4081189589374104e-16 0 0 0
66 26344.881175830284 -396.50770044218956 -4.0798479856323003e-16 0 0 0 26807.47349301284 396.50770044218956 -4.0798479856323003e-16 0 0 0
67 -52028.12784540725 -396.50770044218956 4.167521532803943e-16 0 0 0 -51565.5355282247 396.50770044218956 4.167521532803943e-16 0 0 0
68 -9021.084922273028 -396.50770044218956 8.848550346589231e-15 0 0 0 -8558.492605090472 396.50770044218956 8.848550346589231e-15 0 0 0
69 -8453.75776186071 -396.50770044218956 -7.105497552231377e-15 0 0 0 -7991.165444678155 396.50770044218956 -7.105497552231377e-15 0 0 0
70 -9204.489654142446 -396.50770044218956 8.453885681947899e-15 0 0 0 -8741.89733695989 396.50770044218956 8.453885681947899e-15 0 0 0
71 -9879.993760489062 -396.50770044218956 -7.452900100610003e-15 0 0 0 -9417.401443306506 396.50770044218956 -7.452900100610003e-15 0 0 0
72 17548.777989156202 -396.50770044218956 -8.682505932350538e-16 0 0 0 18011.37030633876 396.50770044218956 -8.682505932350538e-16 0 0 0
73 -33391.479351502254 -396.50770044218956 7.114142592992574e-16 0 0 0 -32928.8870343197 396.50770044218956 7.114142592992574e-16 0 0 0
74 18543.26171266108 -396.50770044218956 -6.348790106123066e-16 0 0 0 19005.854029843635 396.50770044218956 -6.348790106123066e-16 0 0 0
75 -34345.27115434918 -396.50770044218956 7.700585567252554e-16 0 0 0 -33882.678837166626 396.50770044218956 7.700585567252554e-16 0 0 0
76 -5758.985740045166 -396.50770044218956 8.591629793522775e-15 0 0 0 -5296.393422862611 396.50770044218956 8.591629793522775e-15 0 0 0
77 -4732.010896241039 -396.50770044218956 -5.095736086975207e-15 0 0 0 -4269.418579058484 396.50770044218956 -5.095736086975207e-15 0 0 0
78 -4533.182520356683 -396.50770044218956 7.844926509776864e-15 0 0 0 -4070.590203174129 396.50770044218956 7.844926509776864e-15 0 0 0
79 -5520.817101327827 -396.50770044218956 -5.6484179687699804e-15 0 0 0 -5058.224784145273 396.50770044218956 -5.6484179687699804e-15 0 0 0
80 8382.944495880663 -396.50770044218956 -8.100482328957776e-16 0 0 0 8845.53681306322 396.50770044218956 -8.100482328957776e-16 0 0 0
81 -17362.35385781654 -396.50770044218956 1.2841866964734765e-15 0 0 0 -16899.761540633983 396.50770044218956 1.2841866964734765e-15 0 0 0
82 9330.812887304673 -396.50770044218956 -7.517882953687831e-16 0 0 0 9793.40520448723 396.50770044218956 -7.517882953687831e-16 0 0 0
83 -18238.307093822987 -396.50770044218956 1.1802162156227585e-15 0 0 0 -17775.71477664043 396.50770044218956 1.1802162156227585e-15 0 0 0
84 -3518.8300809317416 -396.50770044218956 7.371088904178461e-15 0 0 0 -3056.2377637491873 396.50770044218956 7.371088904178461e-15 0 0 0
85 -2572.33870822834 -396.50770044218956 -3.874952411908453e-15 0 0 0 -2109.7463910457855 396.50770044218956 -3.874952411908453e-15 0 0 0
86 -2034.2951585798792 -396.50770044218956 6.81590093915845e-15 0 0 0 -1571.7028413973248 396.50770044218956 6.81590093915845e-15 0 0 0
87 -2911.9498481817163 -396.50770044218956 -4.26310802549094e-15 0 0 0 -2449.357530999162 396.50770044218956 -4.26310802549094e-15 0 0 0
88 3651.7272165673858 -295.9182252179794 5.339668841375109e-17 0 0 0 3651.7272165673858 295.9182252179794 5.339668841375109e-17 0 0 0
89 -2821.3488127657874 -295.9182252179794 6.88424017211924e-17 0 0 0 -2821.3488127657874 295.9182252179794 6.88424017211924e-17 0 0 0
90 2496.447004517515 -295.9182252179794 4.0547714283682897e-17 0 0 0 2496.447004517515 295.9182252179794 4.0547714283682897e-17 0 0 0
91 -1515.4717260610323 -295.9182252179794 6.60140167379741e-17 0 0 0 -1515.4717260610323 295.9182252179794 6.60140167379741e-17 0 0 0
92 -3040.5688720183643 -295.9182252179794 -5.3737982178083496e-17 0 0 0 -3040.5688720183643 295.9182252179794 -5.3737982178083496e-17 0 0 0
93 2981.5778843360004 -295.9182252179794 -5.673809070729748e-17 0 0 0 2981.5778843360004 295.9182252179794 -5.673809070729748e-17 0 0 0
94 -1775.8572700787845 -295.9182252179794 -4.9569715468336254e-17 0 0 0 -1775.8572700787845 295.9182252179794 -4.9569715468336254e-17 0 0 0
95 1827.8038896309336 -295.9182252179794 -4.3449327902984336e-17 0 0 0 1827.8038896309336 295.9182252179794 -4.3449327902984336e-17 0 0 0
96 3044.9822554772654 -295.9182252179794 6.65181830807005e-17 0 0 0 3044.9822554772654 295.9182252179794 6.65181830807005e-17 0 0 0
97 -3013.658907628218 -295.9182252179794 8.287104502814233e-17 0 0 0 -3013.658907628218 295.9182252179794 8.287104502814233e-17 0 0 0
98 2473.5674206990807 -295.9182252179794 5.853067035885486e-17 0 0 0 2473.5674206990807 295.9182252179794 5.853067035885486e-17 0 0 0
99 -1945.9623217097214 -295.9182252179794 7.483963455675712e-17 0 0 0 -1945.9623217097214 295.9182252179794 7.483963455675712e-17 0 0 0
100 -3316.0268865472462 -295.9182252179794 -4.925875532926242e-17 0 0 0 -3316.0268865472462 295.9182252179794 -4.925875532926242e-17 0 0 0
101 2832.0702704337527 -295.9182252179794 -4.378649745221456e-17 0 0 0 2832.0702704337527 295.9182252179794 -4.378649745221456e-17 0 0 0
102 -2231.7720371593387 -295.9182252179794 -4.107568316736741e-17 0 0 0 -2231.7720371593387 295.9182252179794 -4.107568316736741e-17 0 0 0
103 2301.3519427282117 -295.9182252179794 -3.454302296071687e-17 0 0 0 2301.3519427282117 295.9182252179794 -3.454302296071687e-17 0 0 0
104 2310.1121155975197 -295.9182252179794 8.100671185355897e-17 0 0 0 2310.1121155975197 295.9182252179794 8.100671185355897e-17 0 0 0
105 -3004.955121079751 -295.9182252179794 9.813521005748304e-17 0 0 0 -3004.955121079751 295.9182252179794 9.813521005748304e-17 0 0 0
106 2311.5114792633685 -295.9182252179794 7.709311218047206e-17 0 0 0 2311.5114792633685 295.9182252179794 7.709311218047206e-17 0 0 0
107 -2071.6113251821953 -295.9182252179794 8.682865190835109e-17 0 0 0 -2071.6113251821953 295.9182252179794 8.682865190835109e-17 0 0 0
108 -3650.4038901769527 -295.9182252179794 -4.057028700452508e-17 0 0 0 -3650.4038901769527 295.9182252179794 -4.057028700452508e-17 0 0 0
109 2789.8777434741205 -295.9182252179794 -2.78492516302341e-17 0 0 0 2789.8777434741205 295.9182252179794 -2.78492516302341e-17 0 0 0
110 -2681.0918840624217 -295.9182252179794 -2.890224911359223e-17 0 0 0 -2681.0918840624217 295.9182252179794 -2.890224911359223e-17 0 0 0
111 2796.933509142553 -295.9182252179794 -2.2773561677204392e-17 0 0 0 2796.933509142553 295.9182252179794 -2.2773561677204392e-17 0 0 0
$EndElementData
$ElementData
1
"AxialForce"
1
0
3
0
1
111
1 -178828.7740013317
2 -132002.76279410213
3 -70752.82086946396
4 -481718.4567687649
5 -307979.60787561326
6 -146421.25119039055
7 -238287.79226779443
8 -158989.82199642068
9 -78754.50584900234
10 -288282.1297899671
11 -191912.50789255137
12 -94987.40497499472
13 -478224.71073406877
14 -318340.53197496
15 -158456.35321585182
16 -290123.95512364566
17 -193449.28896506585
18 -95735.41910874652
19 -177450.15388831036
20 -131016.95878337108
21 -71031.99850609258
22 -483947.3284561314
23 -309399.6702830286
24 -146898.85460883856
25 -241794.1645495227
26 -160720.16785192952
27 -79646.17115433642
28 11085.054578730866
29 1068.9650102584565
30 -10533.083922843332
31 -3274.420044873026
32 11247.038696650328
33 1268.8664366846206
34 9236.9368126332
35 -2094.0755321643446
36 218.37011246976363
37 865.0952789677704
38 13066.018291341528
39 1235.8557569991008
40 4331.041644539568
41 1197.2550292871892
42 -10552.306072590407
43 -3417.3927169030067
44 4501.490894900053
45 1390.201397740806
46 4598.096581312118
47 -1996.5921571809777
48 377.0637575574765
49 724.8491768278727
50 7532.799198803679
51 1601.5697069886337
52 -1974.8195455403766
53 1584.9029225152917
54 -10382.533459722297
55 -3512.646849901532
56 -1560.2521854852093
57 2016.7058251459384
58 392.05916697854263
59 -1981.4777875236105
60 497.3464355409087
61 596.0683176402017
62 3778.65266537392
63 1886.8040540955626
64 25924.778048716016
65 -51138.99415017225
66 26576.17733442156
67 -51796.831686815975
68 -8789.78876368175
69 -8222.461603269432
70 -8973.193495551168
71 -9648.697601897784
72 17780.07414774748
73 -33160.183192910976
74 18774.557871252357
75 -34113.974995757904
76 -5527.689581453888
77 -4500.714737649761
78 -4301.886361765406
79 -5289.52094273655
80 8614.240654471942
81 -17131.05769922526
82 9562.109045895952
83 -18007.01093523171
84 -3287.5339223404644
85 -2341.0425496370626
86 -1802.998999988602
87 -2680.653689590439
88 3651.7272165673858
89 -2821.3488127657874
90 2496.447004517515
91 -1515.4717260610323
92 -3040.5688720183643
93 2981.5778843360004
94 -1775.8572700787845
95 1827.8038896309336
96 3044.9822554772654
97 -3013.658907628218
98 2473.5674206990807
99 -1945.9623217097214
100 -3316.0268865472462
101 2832.0702704337527
102 -2231.7720371593387
103 2301.3519427282117
104 2310.1121155975197
105 -3004.955121079751
106 2311.5114792633685
107 -2071.6113251821953
108 -3650.4038901769527
109 2789.8777434741205
110 -2681.0918840624217
111 2796.933509142553
$EndElementData
$ElementData
1
"VonMisesStress"
1
0
3
0
1
111
1 17083078.20246329
2 12934896.39530632
3 7365272.746519445
4 45630920.49569219
5 29507833.862966362
6 14479598.417754492
7 22866960.502415363
8 15654433.361287728
9 8031796.223732171
10 27915688.72629229
11 19092038.17279397
12 9532180.51836165
13 45715208.685256384
14 30898868.477702107
15 15522526.372808395
16 27872533.794570826
17 19020172.29087412
18 9633645.31084644
19 16877583.952535708
20 12849220.799344573
21 7459279.720218798
22 45796360.11783964
23 29598589.255831335
24 14536018.874839727
25 22948638.2407344
26 15577496.358909475
27 8197741.778372527
28 103908792.30934222
29 102531617.2591624
30 103832898.40297611
31 102834859.10894205
32 103931064.52405767
33 102559102.94508028
34 45452464.977977134
35 44125091.8400545
36 43776525.52729864
37 43896707.62926653
38 46164030.859450586
39 43965606.765385546
40 102980140.74343361
41 102549256.64170954
42 103835541.38154437
43 102854517.36689776
44 103003576.80171868
45 102575786.09306933
46 44590418.904207595
47 44106976.01801995
48 43806015.46109758
49 43870645.170348756
50 45135780.800865866
51 44033567.98614449
52 102656168.93594165
53 102602556.8016318
54 103812198.28959222
55 102867614.4442496
56 102599167.42295521
57 102661928.11216782
58 43808802.09575215
59 44104167.09023408
60 43828367.896662734
61 43846713.53527114
62 44438139.91012214
63 44086573.66502668
64 30416387.920161806
65 45102452.435199395
66 30795796.579801574
67 45485611.0654217
68 20436083.27408727
69 20105642.57169053
70 20542907.682736717
71 20936356.23755442
72 25672490.808143556
73 34630662.372023314
74 26251729.6019962
75 35186200.08511981
76 18536067.86802105
77 17937904.56400475
78 17822096.62677171
79 18397346.125509314
80 20333834.96912413
81 25294470.036212146
82 20885922.580819264
83 25804670.53915
84 17231285.26438634
85 16679999.699666927
86 16366615.287863588
87 16877806.80544059
88 44476142.91643307
89 43559646.192426264
90 43201048.90530971
91 42118336.94541166
92 43801601.50487388
93 43736492.57777595
94 42405727.00394216
95 42463060.993391804
96 43806472.59914048
97 43771900.715337686
98 43175796.48602684
99 42593473.604579926
100 44105627.195765354
101 43571479.56957611
102 42908924.568501525
103 42985720.58730286
104 42995389.27533677
105 43762294.261434734
106 42996933.76663083
107 42732153.63229986
108 44474682.34821975
109 43524911.2670299
110 43404843.25549126
111 43532698.78425201
$EndElementData
$NodeData
1
"Fixity"
1
0
3
0
3
36
1 1 1 1
2 1 1 1
3 1 1 1
4 1 1 1
5 1 1 1
6 1 1 1
7 1 1 1
8 1 1 1
9 1 1 1
10 0 0 0
11 0 0 0
12 0 0 0
13 0 0 0
14 0 0 0
15 0 0 0
16 0 0 0
17 0 0 0
18 0 0 0
19 0 0 0
20 0 0 0
21 0 0 0
22 0 0 0
23 0 0 0
24 0 0 0
25 0 0 0
26 0 0 0
27 0 0 0
28 0 0 0
29 0 0 0
30 0 0 0
31 0 0 0
32 0 0 0
33 0 0 0
34 0 0 0
35 0 0 0
36 0 0 0
$EndNodeData
$NodeData
1
"FixityRotation"
1
0
3
0
3
36
1 0 1 0
2 0 1 0
3 0 1 0
4 0 1 0
5 0 1 0
6 0 1 0
7 0 1 0
8 0 1 0
9 0 1 0
10 0 0 0
11 0 0 0
12 0 0 0
13 0 0 0
14 0 0 0
15 0 0 0
16 0 0 0
17 0 0 0
18 0 0 0
19 0 0 0
20 0 0 0
21 0 0 0
22 0 0 0
23 0 0 0
24 0 0 0
25 0 0 0
26 0 0 0
27 0 0 0
28 0 0 0
29 0 0 0
30 0 0 0
31 0 0 0
32 0 0 0
33 0 0 0
34 0 0 0
35 0 0 0
36 0 0 0
$EndNodeData
$NodeData
1
"NodalForce"
1
0
3
0
3
36
1 0 0 0
2 0 0 0
3 0 0 0
4 0 0 0
5 0 0 0
6 0 0 0
7 0 0 0
8 0 0 0
9 0 0 0
10 15000 0 0
11 0 0 0
12 0 0 0
13 15000 0 0
14 0 0 0
15 0 0 0
16 15000 0 0
17 0 0 0
18 0 0 0
19 15000 0 0
20 0 0 0
21 0 0 0
22 15000 0 0
23 0 0 0
24 0 0 0
25 15000 0 0
26 0 0 0
27 0 0 0
28 15000 0 0
29 0 0 0
30 0 0 0
31 15000 0 0
32 0 0 0
33 0 0 0
34 15000 0 0
35 0 0 0
36 0 0 0
$EndNodeData
$ElementData
1
"CrossSectionArea"
1
0
3
0
1
111
1 0.0105985576397669
2 0.0105985576397669
3 0.0105985576397669
4 0.0105985576397669
5 0.0105985576397669
6 0.0105985576397669
7 0.0105985576397669
8 0.0105985576397669
9 0.0105985576397669
10 0.0105985576397669
11 0.0105985576397669
12 0.0105985576397669
13 0.0105985576397669
14 0.0105985576397669
15 0.0105985576397669
16 0.0105985576397669
17 0.0105985576397669
18 0.0105985576397669
19 0.0105985576397669
20 0.0105985576397669
21 0.0105985576397669
22 0.0105985576397669
23 0.0105985576397669
24 0.0105985576397669
25 0.0105985576397669
26 0.0105985576397669
27 0.0105985576397669
28 0.007272923980236907
29 0.007272923980236907
30 0.007272923980236907
31 0.007272923980236907
32 0.007272923980236907
33 0.007272923980236907
34 0.005381201652942296
35 0.005381201652942296
36 0.005381201652942296
37 0.005381201652942296
38 0.005381201652942296
39 0.005381201652942296
40 0.007272923980236907
41 0.007272923980236907
42 0.007272923980236907
43 0.007272923980236907
44 0.007272923980236907
45 0.007272923980236907
46 0.005381201652942296
47 0.005381201652942296
48 0.005381201652942296
49 0.005381201652942296
50 0.005381201652942296
51 0.005381201652942296
52 0.007272923980236907
53 0.007272923980236907
54 0.007272923980236907
55 0.007272923980236907
56 0.007272923980236907
57 0.007272923980236907
58 0.005381201652942296
59 0.005381201652942296
60 0.005381201652942296
61 0.005381201652942296
62 0.005381201652942296
63 0.005381201652942296
64 0.0017168803851868209
65 0.0017168803851868209
66 0.0017168803851868209
67 0.0017168803851868209
68 0.0017168803851868209
69 0.0017168803851868209
70 0.0017168803851868209
71 0.0017168803851868209
72 0.0017168803851868209
73 0.0017168803851868209
74 0.0017168803851868209
75 0.0017168803851868209
76 0.0017168803851868209
77 0.0017168803851868209
78 0.0017168803851868209
79 0.0017168803851868209
80 0.0017168803851868209
81 0.0017168803851868209
82 0.0017168803851868209
83 0.0017168803851868209
84 0.0017168803851868209
85 0.0017168803851868209
86 0.0017168803851868209
87 0.0017168803851868209
88 0.0009060353212952966
89 0.0009060353212952966
90 0.0009060353212952966
91 0.0009060353212952966
92 0.0009060353212952966
93 0.0009060353212952966
94 0.0009060353212952966
95 0.0009060353212952966
96 0.0009060353212952966
97 0.0009060353212952966
98 0.0009060353212952966
99 0.0009060353212952966
100 0.0009060353212952966
101 0.0009060353212952966
102 0.0009060353212952966
103 0.0009060353212952966
104 0.0009060353212952966
105 0.0009060353212952966
106 0.0009060353212952966
107 0.0009060353212952966
108 0.0009060353212952966
109 0.0009060353212952966
110 0.0009060353212952966
111 0.0009060353212952966
$EndElementData
$ElementData
1
"Attribute:ElementFormulation"
1
0
3
0
1
111
1 1
2 1
3 1
4 1
5 1
6 1
7 1
8 1
9 1
10 1
11 1
12 1
13 1
14 1
15 1
16 1
17 1
18 1
19 1
20 1
21 1
22 1
23 1
24 1
25 1
26 1
27 1
28 1
29 1
30 1
31 1
32 1
33 1
34 1
35 1
36 1
37 1
38 1
39 1
40 1
41 1
42 1
43 1
44 1
45 1
46 1
47 1
48 1
49 1
50 1
51 1
52 1
53 1
54 1
55 1
56 1
57 1
58 1
59 1
60 1
61 1
62 1
63 1
64 1
65 1
66 1
67 1
68 1
69 1
70 1
71 1
72 1
73 1
74 1
75 1
76 1
77 1
78 1
79 1
80 1
81 1
82 1
83 1
84 1
85 1
86 1
87 1
88 1
89 1
90 1
91 1
92 1
93 1
94 1
95 1
96 1
97 1
98 1
99 1
100 1
101 1
102 1
103 1
104 1
105 1
106 1
107 1
108 1
109 1
110 1
111 1
$EndElementData
$ElementData
1
"Attribute:EndReleases"
1
0
3
0
1
111
1 0
2 0
3 0
4 0
5 0
6 0
7 0
8 0
9 0
10 0
11 0
12 0
13 0
14 0
15 0
16 0
17 0
18 0
19 0
20 0
21 0
22 0
23 0
24 0
25 0
26 0
27 0
28 3120
29 3120
30 3120
31 3120
32 3120
33 3120
34 3120
35 3120
36 3120
37 3120
38 3120
39 3120
40 3120
41 3120
42 3120
43 3120
44 3120
45 3120
46 3120
47 3120
48 3120
49 3120
50 3120
51 3120
52 3120
53 3120
54 3120
55 3120
56 3120
57 3120
58 3120
59 3120
60 3120
61 3120
62 3120
63 3120
64 3632
65 3632
66 3632
67 3632
68 3632
69 3632
70 3632
71 3632
72 3632
73 3632
74 3632
75 3632
76 3632
77 3632
78 3632
79 3632
80 3632
81 3632
82 3632
83 3632
84 3632
85 3632
86 3632
87 3632
88 3632
89 3632
90 3632
91 3632
92 3632
93 3632
94 3632
95 3632
96 3632
97 3632
98 3632
99 3632
100 3632
101 3632
102 3632
103 3632
104 3632
105 3632
106 3632
107 3632
108 3632
109 3632
110 3632
111 3632
$EndElementData
$ElementData
1
"MaterialID"
1
0
3
0
1
111
1 3
2 3
3 3
4 3
5 3
6 3
7 3
8 3
9 3
10 3
11 3
12 3
13 3
14 3
15 3
16 3
17 3
18 3
19 3
20 3
21 3
22 3
23 3
24 3
25 3
26 3
27 3
28 3
29 3
30 3
31 3
32 3
33 3
34 3
35 3
36 3
37 3
38 3
39 3
40 3
41 3
42 3
43 3
44 3
45 3
46 3
47 3
48 3
49 3
50 3
51 3
52 3
53 3
54 3
55 3
56 3
57 3
58 3
59 3
60 3
61 3
62 3
63 3
64 3
65 3
66 3
67 3
68 3
69 3
70 3
71 3
72 3
73 3
74 3
75 3
76 3
77 3
78 3
79 3
80 3
81 3
82 3
83 3
84 3
85 3
86 3
87 3
88 3
89 3
90 3
91 3
92 3
93 3
94 3
95 3
96 3
97 3
98 3
99 3
100 3
101 3
102 3
103 3
104 3
105 3
106 3
107 3
108 3
109 3
110 3
111 3
$EndElementData
$ElementData
1
"Attribute:SecondMomentY"
1
0
3
0
1
111
1 3.9226586610933386e-05
2 3.9226586610933386e-05
3 3.9226586610933386e-05
4 3.9226586610933386e-05
5 3.9226586610933386e-05
6 3.9226586610933386e-05
7 3.9226586610933386e-05
8 3.9226586610933386e-05
9 3.9226586610933386e-05
10 3.9226586610933386e-05
11 3.9226586610933386e-05
12 3.9226586610933386e-05
13 3.9226586610933386e-05
14 3.9226586610933386e-05
15 3.9226586610933386e-05
16 3.9226586610933386e-05
17 3.9226586610933386e-05
18 3.9226586610933386e-05
19 3.9226586610933386e-05
20 3.9226586610933386e-05
21 3.9226586610933386e-05
22 3.9226586610933386e-05
23 3.9226586610933386e-05
24 3.9226586610933386e-05
25 3.9226586610933386e-05
26 3.9226586610933386e-05
27 3.9226586610933386e-05
28 1.0434519648833853e-05
29 1.0434519648833853e-05
30 1.0434519648833853e-05
31 1.0434519648833853e-05
32 1.0434519648833853e-05
33 1.0434519648833853e-05
34 6.037784243992912e-06
35 6.037784243992912e-06
36 6.037784243992912e-06
37 6.037784243992912e-06
38 6.037784243992912e-06
39 6.037784243992912e-06
40 1.0434519648833853e-05
41 1.0434519648833853e-05
42 1.0434519648833853e-05
43 1.0434519648833853e-05
44 1.0434519648833853e-05
45 1.0434519648833853e-05
46 6.037784243992912e-06
47 6.037784243992912e-06
48 6.037784243992912e-06
49 6.037784243992912e-06
50 6.037784243992912e-06
51 6.037784243992912e-06
52 1.0434519648833853e-05
53 1.0434519648833853e-05
54 1.0434519648833853e-05
55 1.0434519648833853e-05
56 1.0434519648833853e-05
57 1.0434519648833853e-05
58 6.037784243992912e-06
59 6.037784243992912e-06
60 6.037784243992912e-06
61 6.037784243992912e-06
62 6.037784243992912e-06
63 6.037784243992912e-06
64 2.569202045307522e-06
65 2.569202045307522e-06
66 2.569202045307522e-06
67 2.569202045307522e-06
68 2.569202045307522e-06
69 2.569202045307522e-06
70 2.569202045307522e-06
71 2.569202045307522e-06
72 2.569202045307522e-06
73 2.569202045307522e-06
74 2.569202045307522e-06
75 2.569202045307522e-06
76 2.569202045307522e-06
77 2.569202045307522e-06
78 2.569202045307522e-06
79 2.569202045307522e-06
80 2.569202045307522e-06
81 2.569202045307522e-06
82 2.569202045307522e-06
83 2.569202045307522e-06
84 2.569202045307522e-06
85 2.569202045307522e-06
86 2.569202045307522e-06
87 2.569202045307522e-06
88 5.905549549644261e-07
89 5.905549549644261e-07
90 5.905549549644261e-07
91 5.905549549644261e-07
92 5.905549549644261e-07
93 5.905549549644261e-07
94 5.905549549644261e-07
95 5.905549549644261e-07
96 5.905549549644261e-07
97 5.905549549644261e-07
98 5.905549549644261e-07
99 5.905549549644261e-07
100 5.905549549644261e-07
101 5.905549549644261e-07
102 5.905549549644261e-07
103 5.905549549644261e-07
104 5.905549549644261e-07
105 5.905549549644261e-07
106 5.905549549644261e-07
107 5.905549549644261e-07
108 5.905549549644261e-07
109 5.905549549644261e-07
110 5.905549549644261e-07
111 5.905549549644261e-07
$EndElementData
$ElementData
1
"Attribute:SecondMomentZ"
1
0
3
0
1
111
1 0.00011259304721624361
2 0.00011259304721624361
3 0.00011259304721624361
4 0.00011259304721624361
5 0.00011259304721624361
6 0.00011259304721624361
7 0.00011259304721624361
8 0.00011259304721624361
9 0.00011259304721624361
10 0.00011259304721624361
11 0.00011259304721624361
12 0.00011259304721624361
13 0.00011259304721624361
14 0.00011259304721624361
15 0.00011259304721624361
16 0.00011259304721624361
17 0.00011259304721624361
18 0.00011259304721624361
19 0.00011259304721624361
20 0.00011259304721624361
21 0.00011259304721624361
22 0.00011259304721624361
23 0.00011259304721624361
24 0.00011259304721624361
25 0.00011259304721624361
26 0.00011259304721624361
27 0.00011259304721624361
28 0.00016265630920663014
29 0.00016265630920663014
30 0.00016265630920663014
31 0.00016265630920663014
32 0.00016265630920663014
33 0.00016265630920663014
34 8.356109185847976e-05
35 8.356109185847976e-05
36 8.356109185847976e-05
37 8.356109185847976e-05
38 8.356109185847976e-05
39 8.356109185847976e-05
40 0.00016265630920663014
41 0.00016265630920663014
42 0.00016265630920663014
43 0.00016265630920663014
44 0.00016265630920663014
45 0.00016265630920663014
46 8.356109185847976e-05
47 8.356109185847976e-05
48 8.356109185847976e-05
49 8.356109185847976e-05
50 8.356109185847976e-05
51 8.356109185847976e-05
52 0.00016265630920663014
53 0.00016265630920663014
54 0.00016265630920663014
55 0.00016265630920663014
56 0.00016265630920663014
57 0.00016265630920663014
58 8.356109185847976e-05
59 8.356109185847976e-05
60 8.356109185847976e-05
61 8.356109185847976e-05
62 8.356109185847976e-05
63 8.356109185847976e-05
64 2.569202045307522e-06
65 2.569202045307522e-06
66 2.569202045307522e-06
67 2.569202045307522e-06
68 2.569202045307522e-06
69 2.569202045307522e-06
70 2.569202045307522e-06
71 2.569202045307522e-06
72 2.569202045307522e-06
73 2.569202045307522e-06
74 2.569202045307522e-06
75 2.569202045307522e-06
76 2.569202045307522e-06
77 2.569202045307522e-06
78 2.569202045307522e-06
79 2.569202045307522e-06
80 2.569202045307522e-06
81 2.569202045307522e-06
82 2.569202045307522e-06
83 2.569202045307522e-06
84 2.569202045307522e-06
85 2.569202045307522e-06
86 2.569202045307522e-06
87 2.569202045307522e-06
88 5.905549549644261e-07
89 5.905549549644261e-07
90 5.905549549644261e-07
91 5.905549549644261e-07
92 5.905549549644261e-07
93 5.905549549644261e-07
94 5.905549549644261e-07
95 5.905549549644261e-07
96 5.905549549644261e-07
97 5.905549549644261e-07
98 5.905549549644261e-07
99 5.905549549644261e-07
100 5.905549549644261e-07
101 5.905549549644261e-07
102 5.905549549644261e-07
103 5.905549549644261e-07
104 5.905549549644261e-07
105 5.905549549644261e-07
106 5.905549549644261e-07
107 5.905549549644261e-07
108 5.905549549644261e-07
109 5.905549549644261e-07
110 5.905549549644261e-07
111 5.905549549644261e-07
$EndElementData
$ElementData
1
"Attribute:SectionDimension1"
1
0
3
0
1
111
1 0.24
2 0.24
3 0.24
4 0.24
5 0.24
6 0.24
7 0.24
8 0.24
9 0.24
10 0.24
11 0.24
12 0.24
13 0.24
14 0.24
15 0.24
16 0.24
17 0.24
18 0.24
19 0.24
20 0.24
21 0.24
22 0.24
23 0.24
24 0.24
25 0.24
26 0.24
27 0.24
28 0.36
29 0.36
30 0.36
31 0.36
32 0.36
33 0.36
34 0.3
35 0.3
36 0.3
37 0.3
38 0.3
39 0.3
40 0.36
41 0.36
42 0.36
43 0.36
44 0.36
45 0.36
46 0.3
47 0.3
48 0.3
49 0.3
50 0.3
51 0.3
52 0.36
53 0.36
54 0.36
55 0.36
56 0.36
57 0.36
58 0.3
59 0.3
60 0.3
61 0.3
62 0.3
63 0.3
64 0.1143
65 0.1143
66 0.1143
67 0.1143
68 0.1143
69 0.1143
70 0.1143
71 0.1143
72 0.1143
73 0.1143
74 0.1143
75 0.1143
76 0.1143
77 0.1143
78 0.1143
79 0.1143
80 0.1143
81 0.1143
82 0.1143
83 0.1143
84 0.1143
85 0.1143
86 0.1143
87 0.1143
88 0.0761
89 0.0761
90 0.0761
91 0.0761
92 0.0761
93 0.0761
94 0.0761
95 0.0761
96 0.0761
97 0.0761
98 0.0761
99 0.0761
100 0.0761
101 0.0761
102 0.0761
103 0.0761
104 0.0761
105 0.0761
106 0.0761
107 0.0761
108 0.0761
109 0.0761
110 0.0761
111 0.0761
$EndElementData
$ElementData
1
"Attribute:SectionDimension2"
1
0
3
0
1
111
1 0.24
2 0.24
3 0.24
4 0.24
5 0.24
6 0.24
7 0.24
8 0.24
9 0.24
10 0.24
11 0.24
12 0.24
13 0.24
14 0.24
15 0.24
16 0.24
17 0.24
18 0.24
19 0.24
20 0.24
21 0.24
22 0.24
23 0.24
24 0.24
25 0.24
26 0.24
27 0.24
28 0.17
29 0.17
30 0.17
31 0.17
32 0.17
33 0.17
34 0.15
35 0.15
36 0.15
37 0.15
38 0.15
39 0.15
40 0.17
41 0.17
42 0.17
43 0.17
44 0.17
45 0.17
46 0.15
47 0.15
48 0.15
49 0.15
50 0.15
51 0.15
52 0.17
53 0.17
54 0.17
55 0.17
56 0.17
57 0.17
58 0.15
59 0.15
60 0.15
61 0.15
62 0.15
63 0.15
64 0.005
65 0.005
66 0.005
67 0.005
68 0.005
69 0.005
70 0.005
71 0.005
72 0.005
73 0.005
74 0.005
75 0.005
76 0.005
77 0.005
78 0.005
79 0.005
80 0.005
81 0.005
82 0.005
83 0.005
84 0.005
85 0.005
86 0.005
87 0.005
88 0.004
89 0.004
90 0.004
91 0.004
92 0.004
93 0.004
94 0.004
95 0.004
96 0.004
97 0.004
98 0.004
99 0.004
100 0.004
101 0.004
102 0.004
103 0.004
104 0.004
105 0.004
106 0.004
107 0.004
108 0.004
109 0.004
110 0.004
111 0.004
$EndElementData
$ElementData
1
"Attribute:SectionDimension3"
1
0
3
0
1
111
1 0.01
2 0.01
3 0.01
4 0.01
5 0.01
6 0.01
7 0.01
8 0.01
9 0.01
10 0.01
11 0.01
12 0.01
13 0.01
14 0.01
15 0.01
16 0.01
17 0.01
18 0.01
19 0.01
20 0.01
21 0.01
22 0.01
23 0.01
24 0.01
25 0.01
26 0.01
27 0.01
28 0.008
29 0.008
30 0.008
31 0.008
32 0.008
33 0.008
34 0.0071
35 0.0071
36 0.0071
37 0.0071
38 0.0071
39 0.0071
40 0.008
41 0.008
42 0.008
43 0.008
44 0.008
45 0.008
46 0.0071
47 0.0071
48 0.0071
49 0.0071
50 0.0071
51 0.0071
52 0.008
53 0.008
54 0.008
55 0.008
56 0.008
57 0.008
58 0.0071
59 0.0071
60 0.0071
61 0.0071
62 0.0071
63 0.0071
64 0
65 0
66 0
67 0
68 0
69 0
70 0
71 0
72 0
73 0
74 0
75 0
76 0
77 0
78 0
79 0
80 0
81 0
82 0
83 0
84 0
85 0
86 0
87 0
88 0
89 0
90 0
91 0
92 0
93 0
94 0
95 0
96 0
97 0
98 0
99 0
100 0
101 0
102 0
103 0
104 0
105 0
106 0
107 0
108 0
109 0
110 0
111 0
$EndElementData
$ElementData
1
"Attribute:SectionDimension4"
1
0
3
0
1
111
1 0.017
2 0.017
3 0.017
4 0.017
5 0.017
6 0.017
7 0.017
8 0.017
9 0.017
10 0.017
11 0.017
12 0.017
13 0.017
14 0.017
15 0.017
16 0.017
17 0.017
18 0.017
19 0.017
20 0.017
21 0.017
22 0.017
23 0.017
24 0.017
25 0.017
26 0.017
27 0.017
28 0.0127
29 0.0127
30 0.0127
31 0.0127
32 0.0127
33 0.0127
34 0.0107
35 0.0107
36 0.0107
37 0.0107
38 0.0107
39 0.0107
40 0.0127
41 0.0127
42 0.0127
43 0.0127
44 0.0127
45 0.0127
46 0.0107
47 0.0107
48 0.0107
49 0.0107
50 0.0107
51 0.0107
52 0.0127
53 0.0127
54 0.0127
55 0.0127
56 0.0127
57 0.0127
58 0.0107
59 0.0107
60 0.0107
61 0.0107
62 0.0107
63 0.0107
64 0
65 0
66 0
67 0
68 0
69 0
70 0
71 0
72 0
73 0
74 0
75 0
76 0
77 0
78 0
79 0
80 0
81 0
82 0
83 0
84 0
85 0
86 0
87 0
88 0
89 0
90 0
91 0
92 0
93 0
94 0
95 0
96 0
97 0
98 0
99 0
100 0
101 0
102 0
103 0
104 0
105 0
106 0
107 0
108 0
109 0
110 0
111 0
$EndElementData
$ElementData
1
"Attribute:SectionDimension5"
1
0
3
0
1
111
1 0.021
2 0.021
3 0.021
4 0.021
5 0.021
6 0.021
7 0.021
8 0.021
9 0.021
10 0.021
11 0.021
12 0.021
13 0.021
14 0.021
15 0.021
16 0.021
17 0.021
18 0.021
19 0.021
20 0.021
21 0.021
22 0.021
23 0.021
24 0.021
25 0.021
26 0.021
27 0.021
28 0.018
29 0.018
30 0.018
31 0.018
32 0.018
33 0.018
34 0.015
35 0.015
36 0.015
37 0.015
38 0.015
39 0.015
40 0.018
41 0.018
42 0.018
43 0.018
44 0.018
45 0.018
46 0.015
47 0.015
48 0.015
49 0.015
50 0.015
51 0.015
52 0.018
53 0.018
54 0.018
55 0.018
56 0.018
57 0.018
58 0.015
59 0.015
60 0.015
61 0.015
62 0.015
63 0.015
64 0
65 0
66 0
67 0
68 0
69 0
70 0
71 0
72 0
73 0
74 0
75 0
76 0
77 0
78 0
79 0
80 0
81 0
82 0
83 0
84 0
85 0
86 0
87 0
88 0
89 0
90 0
91 0
92 0
93 0
94 0
95 0
96 0
97 0
98 0
99 0
100 0
101 0
102 0
103 0
104 0
105 0
106 0
107 0
108 0
109 0
110 0
111 0
$EndElementData
$ElementData
1
"Attribute:SectionShape"
1
0
3
0
1
111
1 5
2 5
3 5
4 5
5 5
6 5
7 5
8 5
9 5
10 5
11 5
12 5
13 5
14 5
15 5
16 5
17 5
18 5
19 5
20 5
21 5
22 5
23 5
24 5
25 5
26 5
27 5
28 5
29 5
30 5
31 5
32 5
33 5
34 5
35 5
36 5
37 5
38 5
39 5
40 5
41 5
42 5
43 5
44 5
45 5
46 5
47 5
48 5
49 5
50 5
51 5
52 5
53 5
54 5
55 5
56 5
57 5
58 5
59 5
60 5
61 5
62 5
63 5
64 3
65 3
66 3
67 3
68 3
69 3
70 3
71 3
72 3
73 3
74 3
75 3
76 3
77 3
78 3
79 3
80 3
81 3
82 3
83 3
84 3
85 3
86 3
87 3
88 3
89 3
90 3
91 3
92 3
93 3
94 3
95 3
96 3
97 3
98 3
99 3
100 3
101 3
102 3
103 3
104 3
105 3
106 3
107 3
108 3
109 3
110 3
111 3
$EndElementData
$ElementData
1
"Attribute:ShearAreaY"
1
0
3
0
1
111
1 0.00208351189797852
2 0.00208351189797852
3 0.00208351189797852
4 0.00208351189797852
5 0.00208351189797852
6 0.00208351189797852
7 0.00208351189797852
8 0.00208351189797852
9 0.00208351189797852
10 0.00208351189797852
11 0.00208351189797852
12 0.00208351189797852
13 0.00208351189797852
14 0.00208351189797852
15 0.00208351189797852
16 0.00208351189797852
17 0.00208351189797852
18 0.00208351189797852
19 0.00208351189797852
20 0.00208351189797852
21 0.00208351189797852
22 0.00208351189797852
23 0.00208351189797852
24 0.00208351189797852
25 0.00208351189797852
26 0.00208351189797852
27 0.00208351189797852
28 0.0027606736487631755
29 0.0027606736487631755
30 0.0027606736487631755
31 0.0027606736487631755
32 0.0027606736487631755
33 0.0027606736487631755
34 0.0020268632069733684
35 0.0020268632069733684
36 0.0020268632069733684
37 0.0020268632069733684
38 0.0020268632069733684
39 0.0020268632069733684
40 0.0027606736487631755
41 0.0027606736487631755
42 0.0027606736487631755
43 0.0027606736487631755
44 0.0027606736487631755
45 0.0027606736487631755
46 0.0020268632069733684
47 0.0020268632069733684
48 0.0020268632069733684
49 0.0020268632069733684
50 0.0020268632069733684
51 0.0020268632069733684
52 0.0027606736487631755
53 0.0027606736487631755
54 0.0027606736487631755
55 0.0027606736487631755
56 0.0027606736487631755
57 0.0027606736487631755
58 0.0020268632069733684
59 0.0020268632069733684
60 0.0020268632069733684
61 0.0020268632069733684
62 0.0020268632069733684
63 0.0020268632069733684
64 0.0009140558528542028
65 0.0009140558528542028
66 0.0009140558528542028
67 0.0009140558528542028
68 0.0009140558528542028
69 0.0009140558528542028
70 0.0009140558528542028
71 0.0009140558528542028
72 0.0009140558528542028
73 0.0009140558528542028
74 0.0009140558528542028
75 0.0009140558528542028
76 0.0009140558528542028
77 0.0009140558528542028
78 0.0009140558528542028
79 0.0009140558528542028
80 0.0009140558528542028
81 0.0009140558528542028
82 0.0009140558528542028
83 0.0009140558528542028
84 0.0009140558528542028
85 0.0009140558528542028
86 0.0009140558528542028
87 0.0009140558528542028
88 0.0004831260947788511
89 0.0004831260947788511
90 0.0004831260947788511
91 0.0004831260947788511
92 0.0004831260947788511
93 0.0004831260947788511
94 0.0004831260947788511
95 0.0004831260947788511
96 0.0004831260947788511
97 0.0004831260947788511
98 0.0004831260947788511
99 0.0004831260947788511
100 0.0004831260947788511
101 0.0004831260947788511
102 0.0004831260947788511
103 0.0004831260947788511
104 0.0004831260947788511
105 0.0004831260947788511
106 0.0004831260947788511
107 0.0004831260947788511
108 0.0004831260947788511
109 0.0004831260947788511
110 0.0004831260947788511
111 0.0004831260947788511
$EndElementData
$ElementData
1
"Attribute:ShearAreaZ"
1
0
3
0
1
111
1 0.006933333333333334
2 0.006933333333333334
3 0.006933333333333334
4 0.006933333333333334
5 0.006933333333333334
6 0.006933333333333334
7 0.006933333333333334
8 0.006933333333333334
9 0.006933333333333334
10 0.006933333333333334
11 0.006933333333333334
12 0.006933333333333334
13 0.006933333333333334
14 0.006933333333333334
15 0.006933333333333334
16 0.006933333333333334
17 0.006933333333333334
18 0.006933333333333334
19 0.006933333333333334
20 0.006933333333333334
21 0.006933333333333334
22 0.006933333333333334
23 0.006933333333333334
24 0.006933333333333334
25 0.006933333333333334
26 0.006933333333333334
27 0.006933333333333334
28 0.0036688888888888886
29 0.0036688888888888886
30 0.0036688888888888886
31 0.0036688888888888886
32 0.0036688888888888886
33 0.0036688888888888886
34 0.0027274509803921565
35 0.0027274509803921565
36 0.0027274509803921565
37 0.0027274509803921565
38 0.0027274509803921565
39 0.0027274509803921565
40 0.0036688888888888886
41 0.0036688888888888886
42 0.0036688888888888886
43 0.0036688888888888886
44 0.0036688888888888886
45 0.0036688888888888886
46 0.0027274509803921565
47 0.0027274509803921565
48 0.0027274509803921565
49 0.0027274509803921565
50 0.0027274509803921565
51 0.0027274509803921565
52 0.0036688888888888886
53 0.0036688888888888886
54 0.0036688888888888886
55 0.0036688888888888886
56 0.0036688888888888886
57 0.0036688888888888886
58 0.0027274509803921565
59 0.0027274509803921565
60 0.0027274509803921565
61 0.0027274509803921565
62 0.0027274509803921565
63 0.0027274509803921565
64 0.0009140558528542028
65 0.0009140558528542028
66 0.0009140558528542028
67 0.0009140558528542028
68 0.0009140558528542028
69 0.0009140558528542028
70 0.0009140558528542028
71 0.0009140558528542028
72 0.0009140558528542028
73 0.0009140558528542028
74 0.0009140558528542028
75 0.0009140558528542028
76 0.0009140558528542028
77 0.0009140558528542028
78 0.0009140558528542028
79 0.0009140558528542028
80 0.0009140558528542028
81 0.0009140558528542028
82 0.0009140558528542028
83 0.0009140558528542028
84 0.0009140558528542028
85 0.0009140558528542028
86 0.0009140558528542028
87 0.0009140558528542028
88 0.0004831260947788511
89 0.0004831260947788511
90 0.0004831260947788511
91 0.0004831260947788511
92 0.0004831260947788511
93 0.0004831260947788511
94 0.0004831260947788511
95 0.0004831260947788511
96 0.0004831260947788511
97 0.0004831260947788511
98 0.0004831260947788511
99 0.0004831260947788511
100 0.0004831260947788511
101 0.0004831260947788511
102 0.0004831260947788511
103 0.0004831260947788511
104 0.0004831260947788511
105 0.0004831260947788511
106 0.0004831260947788511
107 0.0004831260947788511
108 0.0004831260947788511
109 0.0004831260947788511
110 0.0004831260947788511
111 0.0004831260947788511
$EndElementData
$ElementData
1
"Attribute:TorsionConstant"
1
0
3
0
1
111
1 1.0268573134682905e-06
2 1.0268573134682905e-06
3 1.0268573134682905e-06
4 1.0268573134682905e-06
5 1.0268573134682905e-06
6 1.0268573134682905e-06
7 1.0268573134682905e-06
8 1.0268573134682905e-06
9 1.0268573134682905e-06
10 1.0268573134682905e-06
11 1.0268573134682905e-06
12 1.0268573134682905e-06
13 1.0268573134682905e-06
14 1.0268573134682905e-06
15 1.0268573134682905e-06
16 1.0268573134682905e-06
17 1.0268573134682905e-06
18 1.0268573134682905e-06
19 1.0268573134682905e-06
20 1.0268573134682905e-06
21 1.0268573134682905e-06
22 1.0268573134682905e-06
23 1.0268573134682905e-06
24 1.0268573134682905e-06
25 1.0268573134682905e-06
26 1.0268573134682905e-06
27 1.0268573134682905e-06
28 3.732092769776419e-07
29 3.732092769776419e-07
30 3.732092769776419e-07
31 3.732092769776419e-07
32 3.732092769776419e-07
33 3.732092769776419e-07
34 2.011849577943933e-07
35 2.011849577943933e-07
36 2.011849577943933e-07
37 2.011849577943933e-07
38 2.011849577943933e-07
39 2.011849577943933e-07
40 3.732092769776419e-07
41 3.732092769776419e-07
42 3.732092769776419e-07
43 3.732092769776419e-07
44 3.732092769776419e-07
45 3.732092769776419e-07
46 2.011849577943933e-07
47 2.011849577943933e-07
48 2.011849577943933e-07
49 2.011849577943933e-07
50 2.011849577943933e-07
51 2.011849577943933e-07
52 3.732092769776419e-07
53 3.732092769776419e-07
54 3.732092769776419e-07
55 3.732092769776419e-07
56 3.732092769776419e-07
57 3.732092769776419e-07
58 2.011849577943933e-07
59 2.011849577943933e-07
60 2.011849577943933e-07
61 2.011849577943933e-07
62 2.011849577943933e-07
63 2.011849577943933e-07
64 5.138404090615044e-06
65 5.138404090615044e-06
66 5.138404090615044e-06
67 5.138404090615044e-06
68 5.138404090615044e-06
69 5.138404090615044e-06
70 5.138404090615044e-06
71 5.138404090615044e-06
72 5.138404090615044e-06
73 5.138404090615044e-06
74 5.138404090615044e-06
75 5.138404090615044e-06
76 5.138404090615044e-06
77 5.138404090615044e-06
78 5.138404090615044e-06
79 5.138404090615044e-06
80 5.138404090615044e-06
81 5.138404090615044e-06
82 5.138404090615044e-06
83 5.138404090615044e-06
84 5.138404090615044e-06
85 5.138404090615044e-06
86 5.138404090615044e-06
87 5.138404090615044e-06
88 1.1811099099288522e-06
89 1.1811099099288522e-06
90 1.1811099099288522e-06
91 1.1811099099288522e-06
92 1.1811099099288522e-06
93 1.1811099099288522e-06
94 1.1811099099288522e-06
95 1.1811099099288522e-06
96 1.1811099099288522e-06
97 1.1811099099288522e-06
98 1.1811099099288522e-06
99 1.1811099099288522e-06
100 1.1811099099288522e-06
101 1.1811099099288522e-06
102 1.1811099099288522e-06
103 1.1811099099288522e-06
104 1.1811099099288522e-06
105 1.1811099099288522e-06
106 1.1811099099288522e-06
107 1.1811099099288522e-06
108 1.1811099099288522e-06
109 1.1811099099288522e-06
110 1.1811099099288522e-06
111 1.1811099099288522e-06
$EndElementData
$ElementData
1
"Attribute:UniformLoadGlobalX"
1
0
3
0
1
111
1 0
2 0
3 0
4 0
5 0
6 0
7 0
8 0
9 0
10 0
11 0
12 0
13 0
14 0
15 0
16 0
17 0
18 0
19 0
20 0
21 0
22 0
23 0
24 0
25 0
26 0
27 0
28 0
29 0
30 0
31 0
32 0
33 0
34 0
35 0
36 0
37 0
38 0
39 0
40 0
41 0
42 0
43 0
44 0
45 0
46 0
47 0
48 0
49 0
50 0
51 0
52 0
53 0
54 0
55 0
56 0
57 0
58 0
59 0
60 0
61 0
62 0
63 0
64 0
65 0
66 0
67 0
68 0
69 0
70 0
71 0
72 0
73 0
74 0
75 0
76 0
77 0
78 0
79 0
80 0
81 0
82 0
83 0
84 0
85 0
86 0
87 0
88 0
89 0
90 0
91 0
92 0
93 0
94 0
95 0
96 0
97 0
98 0
99 0
100 0
101 0
102 0
103 0
104 0
105 0
106 0
107 0
108 0
109 0
110 0
111 0
$EndElementData
$ElementData
1
"Attribute:UniformLoadGlobalY"
1
0
3
0
1
111
1 0
2 0
3 0
4 0
5 0
6 0
7 0
8 0
9 0
10 0
11 0
12 0
13 0
14 0
15 0
16 0
17 0
18 0
19 0
20 0
21 0
22 0
23 0
24 0
25 0
26 0
27 0
28 -20000
29 -20000
30 -20000
31 -20000
32 -20000
33 -20000
34 -5000
35 -5000
36 -5000
37 -5000
38 -5000
39 -5000
40 -20000
41 -20000
42 -20000
43 -20000
44 -20000
45 -20000
46 -5000
47 -5000
48 -5000
49 -5000
50 -5000
51 -5000
52 -20000
53 -20000
54 -20000
55 -20000
56 -20000
57 -20000
58 -5000
59 -5000
60 -5000
61 -5000
62 -5000
63 -5000
64 0
65 0
66 0
67 0
68 0
69 0
70 0
71 0
72 0
73 0
74 0
75 0
76 0
77 0
78 0
79 0
80 0
81 0
82 0
83 0
84 0
85 0
86 0
87 0
88 0
89 0
90 0
91 0
92 0
93 0
94 0
95 0
96 0
97 0
98 0
99 0
100 0
101 0
102 0
103 0
104 0
105 0
106 0
107 0
108 0
109 0
110 0
111 0
$EndElementData
$ElementData
1
"Attribute:UniformLoadGlobalZ"
1
0
3
0
1
111
1 0
2 0
3 0
4 0
5 0
6 0
7 0
8 0
9 0
10 0
11 0
12 0
13 0
14 0
15 0
16 0
17 0
18 0
19 0
20 0
21 0
22 0
23 0
24 0
25 0
26 0
27 0
28 0
29 0
30 0
31 0
32 0
33 0
34 0
35 0
36 0
37 0
38 0
39 0
40 0
41 0
42 0
43 0
44 0
45 0
46 0
47 0
48 0
49 0
50 0
51 0
52 0
53 0
54 0
55 0
56 0
57 0
58 0
59 0
60 0
61 0
62 0
63 0
64 0
65 0
66 0
67 0
68 0
69 0
70 0
71 0
72 0
73 0
74 0
75 0
76 0
77 0
78 0
79 0
80 0
81 0
82 0
83 0
84 0
85 0
86 0
87 0
88 0
89 0
90 0
91 0
92 0
93 0
94 0
95 0
96 0
97 0
98 0
99 0
100 0
101 0
102 0
103 0
104 0
105 0
106 0
107 0
108 0
109 0
110 0
111 0
$EndElementData
$ElementData
1
"Attribute:UniformLoadLocalX"
1
0
3
0
1
111
1 0
2 0
3 0
4 0
5 0
6 0
7 0
8 0
9 0
10 0
11 0
12 0
13 0
14 0
15 0
16 0
17 0
18 0
19 0
20 0
21 0
22 0
23 0
24 0
25 0
26 0
27 0
28 0
29 0
30 0
31 0
32 0
33 0
34 0
35 0
36 0
37 0
38 0
39 0
40 0
41 0
42 0
43 0
44 0
45 0
46 0
47 0
48 0
49 0
50 0
51 0
52 0
53 0
54 0
55 0
56 0
57 0
58 0
59 0
60 0
61 0
62 0
63 0
64 0
65 0
66 0
67 0
68 0
69 0
70 0
71 0
72 0
73 0
74 0
75 0
76 0
77 0
78 0
79 0
80 0
81 0
82 0
83 0
84 0
85 0
86 0
87 0
88 0
89 0
90 0
91 0
92 0
93 0
94 0
95 0
96 0
97 0
98 0
99 0
100 0
101 0
102 0
103 0
104 0
105 0
106 0
107 0
108 0
109 0
110 0
111 0
$EndElementData
$ElementData
1
"Attribute:UniformLoadLocalY"
1
0
3
0
1
111
1 0
2 0
3 0
4 0
5 0
6 0
7 0
8 0
9 0
10 0
11 0
12 0
13 0
14 0
15 0
16 0
17 0
18 0
19 0
20 0
21 0
22 0
23 0
24 0
25 0
26 0
27 0
28 0
29 0
30 0
31 0
32 0
33 0
34 0
35 0
36 0
37 0
38 0
39 0
40 0
41 0
42 0
43 0
44 0
45 0
46 0
47 0
48 0
49 0
50 0
51 0
52 0
53 0
54 0
55 0
56 0
57 0
58 0
59 0
60 0
61 0
62 0
63 0
64 0
65 0
66 0
67 0
68 0
69 0
70 0
71 0
72 0
73 0
74 0
75 0
76 0
77 0
78 0
79 0
80 0
81 0
82 0
83 0
84 0
85 0
86 0
87 0
88 0
89 0
90 0
91 0
92 0
93 0
94 0
95 0
96 0
97 0
98 0
99 0
100 0
101 0
102 0
103 0
104 0
105 0
106 0
107 0
108 0
109 0
110 0
111 0
$EndElementData
$ElementData
1
"Attribute:UniformLoadLocalZ"
1
0
3
0
1
111
1 0
2 0
3 0
4 0
5 0
6 0
7 0
8 0
9 0
10 0
11 0
12 0
13 0
14 0
15 0
16 0
17 0
18 0
19 0
20 0
21 0
22 0
23 0
24 0
25 0
26 0
27 0
28 0
29 0
30 0
31 0
32 0
33 0
34 0
35 0
36 0
37 0
38 0
39 0
40 0
41 0
42 0
43 0
44 0
45 0
46 0
47 0
48 0
49 0
50 0
51 0
52 0
53 0
54 0
55 0
56 0
57 0
58 0
59 0
60 0
61 0
62 0
63 0
64 0
65 0
66 0
67 0
68 0
69 0
70 0
71 0
72 0
73 0
74 0
75 0
76 0
77 0
78 0
79 0
80 0
81 0
82 0
83 0
84 0
85 0
86 0
87 0
88 0
89 0
90 0
91 0
92 0
93 0
94 0
95 0
96 0
97 0
98 0
99 0
100 0
101 0
102 0
103 0
104 0
105 0
106 0
107 0
108 0
109 0
110 0
111 0
$EndElementData
$ElementData
1
"BeamOrientation"
1
0
3
0
3
111
1 1 0 0
2 1 0 0
3 1 0 0
4 1 0 0
5 1 0 0
6 1 0 0
7 1 0 0
8 1 0 0
9 1 0 0
10 1 0 0
11 1 0 0
12 1 0 0
13 1 0 0
14 1 0 0
15 1 0 0
16 1 0 0
17 1 0 0
18 1 0 0
19 1 0 0
20 1 0 0
21 1 0 0
22 1 0 0
23 1 0 0
24 1 0 0
25 1 0 0
26 1 0 0
27 1 0 0
28 0 0 0
29 0 0 0
30 0 0 0
31 0 0 0
32 0 0 0
33 0 0 0
34 0 0 0
35 0 0 0
36 0 0 0
37 0 0 0
38 0 0 0
39 0 0 0
40 0 0 0
41 0 0 0
42 0 0 0
43 0 0 0
44 0 0 0
45 0 0 0
46 0 0 0
47 0 0 0
48 0 0 0
49 0 0 0
50 0 0 0
51 0 0 0
52 0 0 0
53 0 0 0
54 0 0 0
55 0 0 0
56 0 0 0
57 0 0 0
58 0 0 0
59 0 0 0
60 0 0 0
61 0 0 0
62 0 0 0
63 0 0 0
64 0 0 0
65 0 0 0
66 0 0 0
67 0 0 0
68 0 0 0
69 0 0 0
70 0 0 0
71 0 0 0
72 0 0 0
73 0 0 0
74 0 0 0
75 0 0 0
76 0 0 0
77 0 0 0
78 0 0 0
79 0 0 0
80 0 0 0
81 0 0 0
82 0 0 0
83 0 0 0
84 0 0 0
85 0 0 0
86 0 0 0
87 0 0 0
88 0 0 0
89 0 0 0
90 0 0 0
91 0 0 0
92 0 0 0
93 0 0 0
94 0 0 0
95 0 0 0
96 0 0 0
97 0 0 0
98 0 0 0
99 0 0 0
100 0 0 0
101 0 0 0
102 0 0 0
103 0 0 0
104 0 0 0
105 0 0 0
106 0 0 0
107 0 0 0
108 0 0 0
109 0 0 0
110 0 0 0
111 0 0 0
$EndElementData
$AnafData
1
1
GLOBAL 3 1
"Gravity"
0 -9.80665 0
$EndAnafData
