$MeshFormat
4.1 0 8
$EndMeshFormat
$PhysicalNames
3
1 1 "Material:Structural Steel S355 (EN 10025)"
1 2 "Section:IPE 400"
1 3 "Section:HEB 600"
$EndPhysicalNames
$Entities
0 2 0 0
1 0 0 0 70 0 4 2 1 3 0
2 0 0 0 70 0 4 2 1 2 0
$EndEntities
$Nodes
1 72 1 72
1 1 0 72
1
2
3
4
5
6
7
8
9
10
11
12
13
14
15
16
17
18
19
20
21
22
23
24
25
26
27
28
29
30
31
32
33
34
35
36
37
38
39
40
41
42
43
44
45
46
47
48
49
50
51
52
53
54
55
56
57
58
59
60
61
62
63
64
65
66
67
68
69
70
71
72
0 0 0
2 0 0
4 0 0
6 0 0
8 0 0
10 0 0
12 0 0
13.999999999999998 0 0
16 0 0
18 0 0
20 0 0
22 0 0
24 0 0
26 0 0
27.999999999999996 0 0
30 0 0
32 0 0
34 0 0
36 0 0
38 0 0
40 0 0
42 0 0
44 0 0
46 0 0
48 0 0
50 0 0
52 0 0
53.99999999999999 0 0
55.99999999999999 0 0
57.99999999999999 0 0
60 0 0
62 0 0
64 0 0
66 0 0
68 0 0
70 0 0
0 0 4
2 0 4
4 0 4
6 0 4
8 0 4
10 0 4
12 0 4
13.999999999999998 0 4
16 0 4
18 0 4
20 0 4
22 0 4
24 0 4
26 0 4
27.999999999999996 0 4
30 0 4
32 0 4
34 0 4
36 0 4
38 0 4
40 0 4
42 0 4
44 0 4
46 0 4
48 0 4
50 0 4
52 0 4
53.99999999999999 0 4
55.99999999999999 0 4
57.99999999999999 0 4
60 0 4
62 0 4
64 0 4
66 0 4
68 0 4
70 0 4
$EndNodes
$Elements
2 78 1 78
1 1 1 70
1 1 2
2 2 3
3 3 4
4 4 5
5 5 6
6 6 7
7 7 8
8 8 9
9 9 10
10 10 11
11 11 12
12 12 13
13 13 14
14 14 15
15 15 16
16 16 17
17 17 18
18 18 19
19 19 20
20 20 21
21 21 22
22 22 23
23 23 24
24 24 25
25 25 26
26 26 27
27 27 28
28 28 29
29 29 30
30 30 31
31 31 32
32 32 33
33 33 34
34 34 35
35 35 36
36 37 38
37 38 39
38 39 40
39 40 41
40 41 42
41 42 43
42 43 44
43 44 45
44 45 46
45 46 47
46 47 48
47 48 49
48 49 50
49 50 51
50 51 52
51 52 53
52 53 54
53 54 55
54 55 56
55 56 57
56 57 58
57 58 59
58 59 60
59 60 61
60 61 62
61 62 63
62 63 64
63 64 65
64 65 66
65 66 67
66 67 68
67 68 69
68 69 70
69 70 71
70 71 72
1 2 1 8
71 1 37
72 6 42
73 11 47
74 16 52
75 21 57
76 26 62
77 31 67
78 36 72
$EndElements
$NodeData
1
"Displacement"
1
0
3
0
3
72
1 0 0 0
2 0 -0.010029999618281167 0
3 0 -0.01771389722273294 0
4 0 -0.02152544433904555 0
5 0 -0.020832778172385207 0
6 0 -0.015898421607394034 0
7 0 -0.007884110557523973 0
8 0 0.0011347239869616056 0
9 0 0.008183438006989549 0
10 0 0.009393001804010705 0
11 0 0 0
12 0 -0.02351306003099163 0
13 0 -0.05699682286818138 0
14 0 -0.0950560103387104 0
15 0 -0.12178737348586502 0
16 0 -0.14498676195906857 0
17 0 -0.1619468819732231 0
18 0 -0.17087413482004254 0
19 0 -0.17087413482005062 0
20 0 -0.1619468819732467 0
21 0 -0.14498676195910623 0
22 0 -0.12178737348591527 0
23 0 -0.09505601033877213 0
24 0 -0.056996822868220436 0
25 0 -0.023513060031009583 0
26 0 0 0
27 0 0.009393001804024262 0
28 0 0.008183438007012413 0
29 0 0.0011347239869899711 0
30 0 -0.007884110557493473 0
31 0 -0.01589842160736428 0
32 0 -0.020832778172358537 0
33 0 -0.021525444339023866 0
34 0 -0.017713897222717667 0
35 0 -0.010029999618273281 0
36 0 0 0
37 0 0 0
38 0 -0.010029999618280858 0
39 0 -0.017713897222732405 0
40 0 -0.021525444339044953 0
41 0 -0.020832778172384738 0
42 0 -0.015898421607393867 0
43 0 -0.00788411055752422 0
44 0 0.0011347239869609707 0
45 0 0.008183438006988711 0
46 0 0.009393001804010022 0
47 0 0 0
48 0 -0.023513060030990306 0
49 0 -0.05699682286817821 0
50 0 -0.09505601033870512 0
51 0 -0.12178737348584794 0
52 0 -0.1449867619590397 0
53 0 -0.1619468819731827 0
54 0 -0.17087413481999086 0
55 0 -0.1708741348199883 0
56 0 -0.16194688197317528 0
57 0 -0.14498676195902813 0
58 0 -0.12178737348583311 0
59 0 -0.09505601033868755 0
60 0 -0.05699682286816695 0
61 0 -0.02351306003098505 0
62 0 0 0
63 0 0.009393001804005936 0
64 0 0.008183438006981743 0
65 0 0.001134723986952224 0
66 0 -0.007884110557533767 0
67 0 -0.01589842160740333 0
68 0 -0.020832778172393283 0
69 0 -0.021525444339051927 0
70 0 -0.01771389722273732 0
71 0 -0.010029999618283398 0
72 0 0 0
$EndNodeData
$NodeData
1
"Rotation"
1
0
3
0
3
72
1 0 0 -0.005235352356945141
2 7.108375856123153e-06 0 -0.004592927748520549
3 1.4216751712246307e-05 0 -0.0029637824830720753
4 2.132512756836946e-05 0 -0.0007951094003377188
5 2.8433503424492618e-05 0 0.0014658986599445523
6 3.5541879280615776e-05 0 0.0033720488580367795
7 2.8433503424492452e-05 0 0.004468907330200178
8 2.1325127568370035e-05 0 0.004302040212695977
9 1.4216751712247073e-05 0 0.002424254665786199
10 7.108375856123561e-06 0 -0.001611642150267134
11 0 0 -0.00825284307520199
12 7.124120186975071e-06 0 -0.014736078301428408
13 1.4248240373950145e-05 0 -0.018298078021356436
14 2.1372360560925217e-05 0 -0.013684856843058705
15 2.8496480747900273e-05 0 -0.01274596406960368
16 3.562060093487535e-05 0 -0.010227414309063853
17 3.5620600932424665e-05 0 -0.00658364142517801
18 3.562060092996007e-05 0 -0.002269079281685095
19 3.562060092750098e-05 0 0.0022690792816770634
20 3.562060092504562e-05 0 0.006583641425170606
21 3.562060092258986e-05 0 0.010227414309057199
22 2.849648073807707e-05 0 0.012745964069597722
23 2.1372360553564582e-05 0 0.013684856843053036
24 1.4248240369042084e-05 0 0.018298078021367507
25 7.124120184521361e-06 0 0.014736078301438301
26 0 0 0.008252843075209914
27 7.108375858080656e-06 0 0.0016116421502728052
28 1.4216751716161285e-05 0 -0.0024242546657825335
29 2.1325127574241935e-05 0 -0.004302040212694108
30 2.8433503432322584e-05 0 -0.004468907330199864
31 3.5541879290403256e-05 0 -0.0033720488580377683
32 2.8433503432323105e-05 0 -0.0014658986599466127
33 2.1325127574242613e-05 0 0.00079510940033483
34 1.421675171616151e-05 0 0.0029637824830685885
35 7.108375858080719e-06 0 0.004592927748516689
36 0 0 0.005235352356941157
37 0 0 -0.005235352356944984
38 -7.108375856139463e-06 0 -0.004592927748520405
39 -1.4216751712278928e-05 0 -0.0029637824830719985
40 -2.1325127568418394e-05 0 -0.0007951094003377379
41 -2.843350342455786e-05 0 0.0014658986599444428
42 -3.554187928069732e-05 0 0.003372048858036592
43 -2.843350342455851e-05 0 0.004468907330199965
44 -2.1325127568419525e-05 0 0.004302040212695817
45 -1.4216751712279978e-05 0 0.0024242546657861712
46 -7.108375856139904e-06 0 -0.0016116421502669364
47 0 0 -0.008252843075201488
48 -7.124120189862334e-06 0 -0.014736078301427603
49 -1.424824037972467e-05 0 -0.018298078021355416
50 -2.1372360569587003e-05 0 -0.013684856843052828
51 -2.8496480759449323e-05 0 -0.012745964069597774
52 -3.562060094931166e-05 0 -0.010227414309058
53 -3.5620600951769976e-05 0 -0.006583641425172305
54 -3.5620600954229225e-05 0 -0.0022690792816795675
55 -3.5620600956687606e-05 0 0.002269079281682099
56 -3.562060095914503e-05 0 0.006583641425174592
57 -3.562060096160001e-05 0 0.010227414309059848
58 -2.8496480769280428e-05 0 0.012745964069599236
59 -2.137236057696222e-05 0 0.01368485684305409
60 -1.4248240384642721e-05 0 0.018298078021352304
61 -7.124120192320567e-06 0 0.014736078301424744
62 0 0 0.008252843075199134
63 -7.108375854181403e-06 0 0.001611642150265198
64 -1.421675170836278e-05 0 -0.0024242546657873287
65 -2.1325127562544176e-05 0 -0.004302040212696451
66 -2.843350341672557e-05 0 -0.004468907330200129
67 -3.554187927090699e-05 0 -0.003372048858036323
68 -2.843350341672559e-05 0 -0.0014658986599438077
69 -2.132512756254419e-05 0 0.0007951094003386575
70 -1.4216751708362793e-05 0 0.0029637824830731204
71 -7.108375854181396e-06 0 0.0045929277485216476
72 0 0 0.005235352356946267
$EndNodeData
$ElementData
1
"BeamSectionForce"
1
0
3
0
12
78
1 0 -128760.53262776828 0 1.9159825301950686 -0 -4.420144250616431e-10 0 -88604.14358336812 0 1.9159825301950686 0 217364.67621113456
2 0 -88604.14358336634 0 1.915982530195069 -0 217364.6762111376 0 -48447.75453896618 0 1.915982530195069 0 354416.574333468
3 0 -48447.754538966095 0 1.915982530195068 -0 354416.57433346676 0 -8291.365494565933 0 1.915982530195068 0 411155.6943669986
4 0 -8291.365494566202 0 1.9159825301950706 -0 411155.694366997 0 31865.023549833964 0 1.9159825301950706 0 387582.0363117291
5 0 31865.0235498355 0 1.9159825301950706 -0 387582.03631173074 0 72021.41259423566 0 1.9159825301950706 0 283695.60016766004
6 0 73321.85102266127 0 -1.9159825301951159 -0 283695.6001676603 0 113478.24006706143 0 -1.9159825301951159 0 96895.50907793784
7 0 113478.24006706206 0 -1.9159825301948716 -0 96895.50907793877 0 153634.62911146219 0 -1.9159825301948716 0 -170217.36010058454
8 0 153634.62911146233 0 -1.915982530195015 -0 -170217.36010058434 0 193791.01815586252 0 -1.915982530195015 0 -517643.007367908
9 0 193791.01815586345 0 -1.9159825301951652 -0 -517643.007367908 0 233947.40720026364 0 -1.9159825301951652 0 -945381.4327240353
10 0 233947.40720026294 0 -1.9159825301951785 -0 -945381.432724034 0 274103.7962446631 0 -1.9159825301951785 0 -1453432.6361689596
11 0 -302473.35626142746 0 1.9202262369816057 -0 -1453432.6361689614 0 -262316.96721702727 0 1.9202262369816057 0 -888642.3126905058
12 0 -262316.96721702436 0 1.9202262369816065 -0 -888642.3126905095 0 -222160.57817262417 0 1.9202262369816065 0 -404164.76730086096
13 0 -222160.57817262915 0 1.9202262369816059 -0 -404164.7673008544 0 -182004.189128229 0 1.9202262369816059 0 0
14 0 -182004.1891282451 0 1.9202262369816054 -0 9.359609975945204e-09 0 -141847.80008384504 0 1.9202262369816054 0 323851.9892120865
15 0 -141847.80008385328 0 1.9202262369816028 -0 323851.9892120869 0 -101691.41103945303 0 1.9202262369816028 0 567391.2003354179
16 0 -100390.97261100022 0 -6.605542779425377e-10 -0 567391.200335429 0 -60234.583566600064 0 -6.605542779425377e-10 0 728016.7565130442
17 0 -60234.58356659666 0 -6.643041672305117e-10 -0 728016.7565130449 0 -20078.194522196496 0 -6.643041672305117e-10 0 808329.5346018528
18 0 -20078.19452221638 0 -6.628209092696125e-10 -0 808329.5346018719 0 20078.194522183785 0 -6.628209092696125e-10 0 808329.5346019194
19 0 20078.194522162037 0 -6.618137149416725e-10 -0 808329.5346019291 0 60234.5835665622 0 -6.618137149416725e-10 0 728016.7565132054
20 0 60234.58356659215 0 -6.619220727088759e-10 -0 728016.7565131681 0 100390.9726109923 0 -6.619220727088759e-10 0 567391.2003355697
21 0 101691.41103949405 0 -1.9202262363179265 -0 567391.2003355743 0 141847.80008389422 0 -1.9202262363179265 0 323851.98921218514
22 0 141847.80008389434 0 -1.920226236317843 -0 323851.98921219446 0 182004.18912829453 0 -1.920226236317843 0 5.611582309938967e-09
23 0 182004.18912830163 0 -1.9202262363205427 0 0 0 222160.5781727018 0 -1.9202262363205427 0 -404164.7673009978
24 0 222160.5781727024 0 -1.920226236320064 -0 -404164.7673009904 0 262316.9672171026 0 -1.920226236320064 0 -888642.3126908
25 0 262316.967217099 0 -1.9202262363202358 -0 -888642.3126907875 0 302473.35626149917 0 -1.9202262363202358 0 -1453432.636169387
26 0 -274103.7962446843 0 1.9159825307226914 -0 -1453432.6361693854 0 -233947.40720028413 0 1.9159825307226914 0 -945381.4327244172
27 0 -233947.407200283 0 1.915982530722691 -0 -945381.4327244174 0 -193791.01815588298 0 1.915982530722691 0 -517643.00736825186
28 0 -193791.018155883 0 1.9159825307226899 -0 -517643.0073682517 0 -153634.62911148282 0 1.9159825307226899 0 -170217.3601008863
29 0 -153634.62911148317 0 1.9159825307226894 -0 -170217.36010088513 0 -113478.240067083 0 1.9159825307226894 0 96895.50907768079
30 0 -113478.24006708432 0 1.9159825307226894 -0 96895.5090776819 0 -73321.85102268402 0 1.9159825307226894 0 283695.60016744724
31 0 -72021.41259425487 0 -1.9159825307225562 -0 283695.6001674485 0 -31865.023549854708 0 -1.9159825307225562 0 387582.0363115559
32 0 -31865.023549853755 0 -1.9159825307226477 -0 387582.03631156124 0 8291.365494546411 0 -1.9159825307226477 0 411155.6943668686
33 0 8291.36549454655 0 -1.9159825307228115 -0 411155.6943668709 0 48447.75453894671 0 -1.9159825307228115 0 354416.57433338
34 0 48447.75453894686 0 -1.9159825307227278 -0 354416.5743333821 0 88604.14358334702 0 -1.9159825307227278 0 217364.6762110894
35 0 88604.14358334483 0 -1.9159825307227083 -0 217364.67621108916 0 128760.532627745 0 -1.9159825307227083 0 4.893081495538354e-10
36 0 -128760.53262776362 0 -1.9159825301994649 -0 1.886292011477053e-09 0 -88604.14358336346 0 -1.9159825301994649 0 217364.67621112757
37 0 -88604.14358336494 0 -1.9159825301994653 -0 217364.676211125 0 -48447.754538964786 0 -1.9159825301994653 0 354416.57433345495
38 0 -48447.75453896138 0 -1.9159825301994657 -0 354416.57433345495 0 -8291.365494561218 0 -1.9159825301994657 0 411155.69436697755
39 0 -8291.365494566784 0 -1.9159825301994653 -0 411155.6943669785 0 31865.023549833382 0 -1.9159825301994653 0 387582.036311714
40 0 31865.023549834103 0 -1.9159825301994644 -0 387582.03631171444 0 72021.41259423427 0 -1.9159825301994644 0 283695.60016764794
41 0 73321.85102265522 0 1.9159825301992894 -0 283695.60016764933 0 113478.24006705538 0 1.9159825301992894 0 96895.50907794017
42 0 113478.24006705367 0 1.9159825301993374 -0 96895.50907793993 0 153634.6291114538 0 1.9159825301993374 0 -170217.36010056685
43 0 153634.62911145395 0 1.9159825301994862 -0 -170217.36010056827 0 193791.01815585414 0 1.9159825301994862 0 -517643.00736787636
44 0 193791.01815585484 0 1.9159825301996294 -0 -517643.00736787566 0 233947.40720025502 0 1.9159825301996294 0 -945381.4327239865
45 0 233947.40720025502 0 1.9159825301995836 -0 -945381.4327239874 0 274103.7962446552 0 1.9159825301995836 0 -1453432.6361688972
46 0 -302473.3562614163 0 -1.920226237759835 -0 -1453432.6361688953 0 -262316.9672170161 0 -1.920226237759835 0 -888642.3126904648
47 0 -262316.96721701877 0 -1.9202262377598354 -0 -888642.3126904592 0 -222160.57817261858 0 -1.9202262377598354 0 -404164.76730083115
48 0 -222160.57817261983 0 -1.920226237759835 -0 -404164.76730083575 0 -182004.18912821967 0 -1.920226237759835 0 0
49 0 -182004.1891282386 0 -1.9202262377598345 -0 1.867283572209999e-08 0 -141847.80008383852 0 -1.9202262377598345 0 323851.98921208276
50 0 -141847.8000838477 0 -1.9202262377598336 -0 323851.9892121004 0 -101691.41103944744 0 -1.9202262377598336 0 567391.2003353909
51 0 -100390.97261101932 0 -6.626112991625632e-10 -0 567391.2003353913 0 -60234.583566619156 0 -6.626112991625632e-10 0 728016.7565130303
52 0 -60234.58356659456 0 -6.628617654769187e-10 -0 728016.7565130263 0 -20078.1945221944 0 -6.628617654769187e-10 0 808329.5346018155
53 0 -20078.19452217261 0 -6.626290627309572e-10 -0 808329.5346018363 0 20078.194522227557 0 -6.626290627309572e-10 0 808329.5346017967
54 0 20078.194522204878 0 -6.623714909892442e-10 -0 808329.5346017787 0 60234.58356660504 0 -6.623714909892442e-10 0 728016.7565129697
55 0 60234.583566624744 0 -6.617124626018267e-10 -0 728016.7565129469 0 100390.9726110249 0 -6.617124626018267e-10 0 567391.2003352968
56 0 101691.41103943072 0 1.920226238422159 -0 567391.2003353061 0 141847.8000838309 0 1.920226238422159 0 323851.9892120436
57 0 141847.80008381797 0 1.9202262384217876 -0 323851.9892120389 0 182004.18912821816 0 1.9202262384217876 0 -3.701643436215818e-09
58 0 182004.18912820757 0 1.9202262384221367 0 0 0 222160.57817260773 0 1.9202262384221367 0 -404164.76730081154
59 0 222160.57817259716 0 1.9202262384228515 -0 -404164.76730080415 0 262316.96721699735 0 1.9202262384228515 0 -888642.312690394
60 0 262316.96721699374 0 1.9202262384224238 -0 -888642.3126903954 0 302473.3562613939 0 1.9202262384224238 0 -1453432.6361687817
61 0 -274103.796244651 0 -1.915982529671692 -0 -1453432.636168783 0 -233947.40720025083 0 -1.915982529671692 0 -945381.4327238805
62 0 -233947.40720025203 0 -1.915982529671691 -0 -945381.4327238797 0 -193791.018155852 0 -1.915982529671691 0 -517643.00736777944
63 0 -193791.01815585088 0 -1.9159825296716906 -0 -517643.0073677788 0 -153634.6291114507 0 -1.9159825296716906 0 -170217.36010047884
64 0 -153634.62911145104 0 -1.9159825296716892 -0 -170217.36010048 0 -113478.24006705087 0 -1.9159825296716892 0 96895.50907802166
65 0 -113478.24006704916 0 -1.9159825296716901 -0 96895.50907802323 0 -73321.85102264886 0 -1.9159825296716901 0 283695.6001677201
66 0 -72021.41259422577 0 1.9159825296716901 -0 283695.60016772244 0 -31865.023549825604 0 1.9159825296716901 0 387582.0363117717
67 0 -31865.023549824185 0 1.915982529671691 -0 387582.0363117734 0 8291.36549457598 0 1.915982529671691 0 411155.69436702353
68 0 8291.365494568901 0 1.9159825296716901 -0 411155.694367022 0 48447.754538969064 0 1.9159825296716901 0 354416.57433348196
69 0 48447.75453897107 0 1.9159825296716904 -0 354416.57433348405 0 88604.14358337123 0 1.9159825296716904 0 217364.67621114154
70 0 88604.14358337045 0 1.91598252967169 -0 217364.67621114224 0 128760.5326277706 0 1.91598252967169 0 1.420630724169314e-09
71 0 -1300.438428423915 0 1.6200374375330284e-12 -0 -866.95895228261 0 1300.438428423915 0 1.6200374375330284e-12 0 -866.95895228261
72 0 -1300.4384284238809 0 -1.9326762412674725e-12 -0 -3.8319650603315267 0 1300.438428423949 0 -1.9326762412674725e-12 0 -3.8319650604100843
73 0 -1300.438428423915 0 5.172751116333529e-12 -0 -866.95895228261 0 1300.438428423915 0 5.172751116333529e-12 0 -866.95895228261
74 0 -1300.4384284239632 0 6.038192168489331e-11 -0 -1.92022623754508 0 1300.4384284238668 0 6.038192168489331e-11 0 -1.9202262373521535
75 0 -1300.4384284230964 0 2.7327473617333453e-11 -0 -1.920226235613427 0 1300.4384284247335 0 2.7327473617333453e-11 0 -1.9202262388871532
76 0 -1300.438428423915 0 -1.1121414900117088e-10 -0 -866.95895228261 0 1300.438428423915 0 -1.1121414900117088e-10 0 -866.95895228261
77 0 -1300.4384284244356 0 1.4914292023604503e-11 -0 -3.831965061459641 0 1300.4384284233943 0 1.4914292023604503e-11 0 -3.8319650593762162
78 0 -1300.438428423915 0 5.2729376420757035e-11 -0 -866.95895228261 0 1300.438428423915 0 5.2729376420757035e-11 0 -866.95895228261
$EndElementData
$ElementData
1
"AxialForce"
1
0
3
0
1
78
1 0
2 0
3 0
4 0
5 0
6 0
7 0
8 0
9 0
10 0
11 0
12 0
13 0
14 0
15 0
16 0
17 0
18 0
19 0
20 0
21 0
22 0
23 0
24 0
25 0
26 0
27 0
28 0
29 0
30 0
31 0
32 0
33 0
34 0
35 0
36 0
37 0
38 0
39 0
40 0
41 0
42 0
43 0
44 0
45 0
46 0
47 0
48 0
49 0
50 0
51 0
52 0
53 0
54 0
55 0
56 0
57 0
58 0
59 0
60 0
61 0
62 0
63 0
64 0
65 0
66 0
67 0
68 0
69 0
70 0
71 0
72 0
73 0
74 0
75 0
76 0
77 0
78 0
$EndElementData
$ElementData
1
"VonMisesStress"
1
0
3
0
1
78
1 42425292.673357
2 62991978.71736195
3 72136595.85393745
4 72415516.28286818
5 68310160.0427498
6 52088985.91257272
7 43955550.60766524
8 99493166.87778613
9 172938112.3950343
10 261341082.16385996
11 262716397.43340436
12 165307731.02171618
13 84857724.72303551
14 64138644.88200948
15 101784538.83733448
16 128315849.910506
17 141840728.16516536
18 143538935.3480619
19 141840728.1651811
20 128315849.91053005
21 101784538.83736618
22 64138644.882026725
23 84857724.7230629
24 165307731.02176723
25 262716397.43347892
26 261341082.1639346
27 172938112.39510095
28 99493166.87784433
29 43955550.607707225
30 52088985.912540264
31 68310160.04272048
32 72415516.28284425
33 72136595.85391504
34 62991978.71734672
35 42425292.67334929
36 42425292.67335549
37 62991978.71735924
38 72136595.85393372
39 72415516.28286497
40 68310160.04274693
41 52088985.91257052
42 43955550.60766185
43 99493166.87778017
44 172938112.39502543
45 261341082.1638489
46 262716397.43339396
47 165307731.0217095
48 84857724.72303505
49 64138644.882011086
50 101784538.83733591
51 128315849.91050649
52 141840728.16516134
53 143538935.34804797
54 141840728.165155
55 128315849.91049212
56 101784538.83732083
57 64138644.88200273
58 84857724.72303349
59 165307731.02169973
60 262716397.433375
61 261341082.16382822
62 172938112.3950063
63 99493166.87776254
64 43955550.60764801
65 52088985.912581064
66 68310160.04275672
67 72415516.28287323
68 72136595.85394146
69 62991978.71736387
70 42425292.67335642
71 1053478.0675981853
72 1121226.0219293782
73 1053478.0675982996
74 1122879.1768194633
75 1122879.1768196346
76 1053478.06760171
77 1121226.0219293623
78 1053478.067599829
$EndElementData
$NodeData
1
"Fixity"
1
0
3
0
3
72
1 0 1 1
2 0 0 0
3 0 0 0
4 0 0 0
5 0 0 0
6 0 0 0
7 0 0 0
8 0 0 0
9 0 0 0
10 0 0 0
11 1 1 1
12 0 0 0
13 0 0 0
14 0 0 0
15 0 0 0
16 0 0 0
17 0 0 0
18 0 0 0
19 0 0 0
20 0 0 0
21 0 0 0
22 0 0 0
23 0 0 0
24 0 0 0
25 0 0 0
26 0 1 1
27 0 0 0
28 0 0 0
29 0 0 0
30 0 0 0
31 0 0 0
32 0 0 0
33 0 0 0
34 0 0 0
35 0 0 0
36 0 1 1
37 0 1 1
38 0 0 0
39 0 0 0
40 0 0 0
41 0 0 0
42 0 0 0
43 0 0 0
44 0 0 0
45 0 0 0
46 0 0 0
47 1 1 1
48 0 0 0
49 0 0 0
50 0 0 0
51 0 0 0
52 0 0 0
53 0 0 0
54 0 0 0
55 0 0 0
56 0 0 0
57 0 0 0
58 0 0 0
59 0 0 0
60 0 0 0
61 0 0 0
62 0 1 1
63 0 0 0
64 0 0 0
65 0 0 0
66 0 0 0
67 0 0 0
68 0 0 0
69 0 0 0
70 0 0 0
71 0 0 0
72 0 1 1
$EndNodeData
$NodeData
1
"FixityRotation"
1
0
3
0
3
72
1 1 0 0
2 0 0 0
3 0 0 0
4 0 0 0
5 0 0 0
6 0 0 0
7 0 0 0
8 0 0 0
9 0 0 0
10 0 0 0
11 1 0 0
12 0 0 0
13 0 0 0
14 0 0 0
15 0 0 0
16 0 0 0
17 0 0 0
18 0 0 0
19 0 0 0
20 0 0 0
21 0 0 0
22 0 0 0
23 0 0 0
24 0 0 0
25 0 0 0
26 1 0 0
27 0 0 0
28 0 0 0
29 0 0 0
30 0 0 0
31 0 0 0
32 0 0 0
33 0 0 0
34 0 0 0
35 0 0 0
36 1 0 0
37 1 0 0
38 0 0 0
39 0 0 0
40 0 0 0
41 0 0 0
42 0 0 0
43 0 0 0
44 0 0 0
45 0 0 0
46 0 0 0
47 1 0 0
48 0 0 0
49 0 0 0
50 0 0 0
51 0 0 0
52 0 0 0
53 0 0 0
54 0 0 0
55 0 0 0
56 0 0 0
57 0 0 0
58 0 0 0
59 0 0 0
60 0 0 0
61 0 0 0
62 1 0 0
63 0 0 0
64 0 0 0
65 0 0 0
66 0 0 0
67 0 0 0
68 0 0 0
69 0 0 0
70 0 0 0
71 0 0 0
72 1 0 0
$EndNodeData
$ElementData
1
"CrossSectionArea"
1
0
3
0
1
78
1 0.02699577895553304
2 0.02699577895553304
3 0.02699577895553304
4 0.02699577895553304
5 0.02699577895553304
6 0.02699577895553304
7 0.02699577895553304
8 0.02699577895553304
9 0.02699577895553304
10 0.02699577895553304
11 0.02699577895553304
12 0.02699577895553304
13 0.02699577895553304
14 0.02699577895553304
15 0.02699577895553304
16 0.02699577895553304
17 0.02699577895553304
18 0.02699577895553304
19 0.02699577895553304
20 0.02699577895553304
21 0.02699577895553304
22 0.02699577895553304
23 0.02699577895553304
24 0.02699577895553304
25 0.02699577895553304
26 0.02699577895553304
27 0.02699577895553304
28 0.02699577895553304
29 0.02699577895553304
30 0.02699577895553304
31 0.02699577895553304
32 0.02699577895553304
33 0.02699577895553304
34 0.02699577895553304
35 0.02699577895553304
36 0.02699577895553304
37 0.02699577895553304
38 0.02699577895553304
39 0.02699577895553304
40 0.02699577895553304
41 0.02699577895553304
42 0.02699577895553304
43 0.02699577895553304
44 0.02699577895553304
45 0.02699577895553304
46 0.02699577895553304
47 0.02699577895553304
48 0.02699577895553304
49 0.02699577895553304
50 0.02699577895553304
51 0.02699577895553304
52 0.02699577895553304
53 0.02699577895553304
54 0.02699577895553304
55 0.02699577895553304
56 0.02699577895553304
57 0.02699577895553304
58 0.02699577895553304
59 0.02699577895553304
60 0.02699577895553304
61 0.02699577895553304
62 0.02699577895553304
63 0.02699577895553304
64 0.02699577895553304
65 0.02699577895553304
66 0.02699577895553304
67 0.02699577895553304
68 0.02699577895553304
69 0.02699577895553304
70 0.02699577895553304
71 0.0084463576397669
72 0.0084463576397669
73 0.0084463576397669
74 0.0084463576397669
75 0.0084463576397669
76 0.0084463576397669
77 0.0084463576397669
78 0.0084463576397669
$EndElementData
$ElementData
1
"Attribute:ElementFormulation"
1
0
3
0
1
78
1 1
2 1
3 1
4 1
5 1
6 1
7 1
8 1
9 1
10 1
11 1
12 1
13 1
14 1
15 1
16 1
17 1
18 1
19 1
20 1
21 1
22 1
23 1
24 1
25 1
26 1
27 1
28 1
29 1
30 1
31 1
32 1
33 1
34 1
35 1
36 1
37 1
38 1
39 1
40 1
41 1
42 1
43 1
44 1
45 1
46 1
47 1
48 1
49 1
50 1
51 1
52 1
53 1
54 1
55 1
56 1
57 1
58 1
59 1
60 1
61 1
62 1
63 1
64 1
65 1
66 1
67 1
68 1
69 1
70 1
71 1
72 1
73 1
74 1
75 1
76 1
77 1
78 1
$EndElementData
$ElementData
1
"Attribute:EndReleases"
1
0
3
0
1
78
1 0
2 0
3 0
4 0
5 0
6 0
7 0
8 0
9 0
10 0
11 0
12 0
13 2048
14 0
15 0
16 0
17 0
18 0
19 0
20 0
21 0
22 0
23 32
24 0
25 0
26 0
27 0
28 0
29 0
30 0
31 0
32 0
33 0
34 0
35 0
36 0
37 0
38 0
39 0
40 0
41 0
42 0
43 0
44 0
45 0
46 0
47 0
48 2048
49 0
50 0
51 0
52 0
53 0
54 0
55 0
56 0
57 0
58 32
59 0
60 0
61 0
62 0
63 0
64 0
65 0
66 0
67 0
68 0
69 0
70 0
71 0
72 0
73 0
74 0
75 0
76 0
77 0
78 0
$EndElementData
$ElementData
1
"MaterialID"
1
0
3
0
1
78
1 3
2 3
3 3
4 3
5 3
6 3
7 3
8 3
9 3
10 3
11 3
12 3
13 3
14 3
15 3
16 3
17 3
18 3
19 3
20 3
21 3
22 3
23 3
24 3
25 3
26 3
27 3
28 3
29 3
30 3
31 3
32 3
33 3
34 3
35 3
36 3
37 3
38 3
39 3
40 3
41 3
42 3
43 3
44 3
45 3
46 3
47 3
48 3
49 3
50 3
51 3
52 3
53 3
54 3
55 3
56 3
57 3
58 3
59 3
60 3
61 3
62 3
63 3
64 3
65 3
66 3
67 3
68 3
69 3
70 3
71 3
72 3
73 3
74 3
75 3
76 3
77 3
78 3
$EndElementData
$ElementData
1
"Attribute:SecondMomentY"
1
0
3
0
1
78
1 0.00013530245778963672
2 0.00013530245778963672
3 0.00013530245778963672
4 0.00013530245778963672
5 0.00013530245778963672
6 0.00013530245778963672
7 0.00013530245778963672
8 0.00013530245778963672
9 0.00013530245778963672
10 0.00013530245778963672
11 0.00013530245778963672
12 0.00013530245778963672
13 0.00013530245778963672
14 0.00013530245778963672
15 0.00013530245778963672
16 0.00013530245778963672
17 0.00013530245778963672
18 0.00013530245778963672
19 0.00013530245778963672
20 0.00013530245778963672
21 0.00013530245778963672
22 0.00013530245778963672
23 0.00013530245778963672
24 0.00013530245778963672
25 0.00013530245778963672
26 0.00013530245778963672
27 0.00013530245778963672
28 0.00013530245778963672
29 0.00013530245778963672
30 0.00013530245778963672
31 0.00013530245778963672
32 0.00013530245778963672
33 0.00013530245778963672
34 0.00013530245778963672
35 0.00013530245778963672
36 0.00013530245778963672
37 0.00013530245778963672
38 0.00013530245778963672
39 0.00013530245778963672
40 0.00013530245778963672
41 0.00013530245778963672
42 0.00013530245778963672
43 0.00013530245778963672
44 0.00013530245778963672
45 0.00013530245778963672
46 0.00013530245778963672
47 0.00013530245778963672
48 0.00013530245778963672
49 0.00013530245778963672
50 0.00013530245778963672
51 0.00013530245778963672
52 0.00013530245778963672
53 0.00013530245778963672
54 0.00013530245778963672
55 0.00013530245778963672
56 0.00013530245778963672
57 0.00013530245778963672
58 0.00013530245778963672
59 0.00013530245778963672
60 0.00013530245778963672
61 0.00013530245778963672
62 0.00013530245778963672
63 0.00013530245778963672
64 0.00013530245778963672
65 0.00013530245778963672
66 0.00013530245778963672
67 0.00013530245778963672
68 0.00013530245778963672
69 0.00013530245778963672
70 0.00013530245778963672
71 1.3178240280089362e-05
72 1.3178240280089362e-05
73 1.3178240280089362e-05
74 1.3178240280089362e-05
75 1.3178240280089362e-05
76 1.3178240280089362e-05
77 1.3178240280089362e-05
78 1.3178240280089362e-05
$EndElementData
$ElementData
1
"Attribute:SecondMomentZ"
1
0
3
0
1
78
1 0.001710411108759916
2 0.001710411108759916
3 0.001710411108759916
4 0.001710411108759916
5 0.001710411108759916
6 0.001710411108759916
7 0.001710411108759916
8 0.001710411108759916
9 0.001710411108759916
10 0.001710411108759916
11 0.001710411108759916
12 0.001710411108759916
13 0.001710411108759916
14 0.001710411108759916
15 0.001710411108759916
16 0.001710411108759916
17 0.001710411108759916
18 0.001710411108759916
19 0.001710411108759916
20 0.001710411108759916
21 0.001710411108759916
22 0.001710411108759916
23 0.001710411108759916
24 0.001710411108759916
25 0.001710411108759916
26 0.001710411108759916
27 0.001710411108759916
28 0.001710411108759916
29 0.001710411108759916
30 0.001710411108759916
31 0.001710411108759916
32 0.001710411108759916
33 0.001710411108759916
34 0.001710411108759916
35 0.001710411108759916
36 0.001710411108759916
37 0.001710411108759916
38 0.001710411108759916
39 0.001710411108759916
40 0.001710411108759916
41 0.001710411108759916
42 0.001710411108759916
43 0.001710411108759916
44 0.001710411108759916
45 0.001710411108759916
46 0.001710411108759916
47 0.001710411108759916
48 0.001710411108759916
49 0.001710411108759916
50 0.001710411108759916
51 0.001710411108759916
52 0.001710411108759916
53 0.001710411108759916
54 0.001710411108759916
55 0.001710411108759916
56 0.001710411108759916
57 0.001710411108759916
58 0.001710411108759916
59 0.001710411108759916
60 0.001710411108759916
61 0.001710411108759916
62 0.001710411108759916
63 0.001710411108759916
64 0.001710411108759916
65 0.001710411108759916
66 0.001710411108759916
67 0.001710411108759916
68 0.001710411108759916
69 0.001710411108759916
70 0.001710411108759916
71 0.00023128369088907635
72 0.00023128369088907635
73 0.00023128369088907635
74 0.00023128369088907635
75 0.00023128369088907635
76 0.00023128369088907635
77 0.00023128369088907635
78 0.00023128369088907635
$EndElementData
$ElementData
1
"Attribute:SectionDimension1"
1
0
3
0
1
78
1 0.6
2 0.6
3 0.6
4 0.6
5 0.6
6 0.6
7 0.6
8 0.6
9 0.6
10 0.6
11 0.6
12 0.6
13 0.6
14 0.6
15 0.6
16 0.6
17 0.6
18 0.6
19 0.6
20 0.6
21 0.6
22 0.6
23 0.6
24 0.6
25 0.6
26 0.6
27 0.6
28 0.6
29 0.6
30 0.6
31 0.6
32 0.6
33 0.6
34 0.6
35 0.6
36 0.6
37 0.6
38 0.6
39 0.6
40 0.6
41 0.6
42 0.6
43 0.6
44 0.6
45 0.6
46 0.6
47 0.6
48 0.6
49 0.6
50 0.6
51 0.6
52 0.6
53 0.6
54 0.6
55 0.6
56 0.6
57 0.6
58 0.6
59 0.6
60 0.6
61 0.6
62 0.6
63 0.6
64 0.6
65 0.6
66 0.6
67 0.6
68 0.6
69 0.6
70 0.6
71 0.4
72 0.4
73 0.4
74 0.4
75 0.4
76 0.4
77 0.4
78 0.4
$EndElementData
$ElementData
1
"Attribute:SectionDimension2"
1
0
3
0
1
78
1 0.3
2 0.3
3 0.3
4 0.3
5 0.3
6 0.3
7 0.3
8 0.3
9 0.3
10 0.3
11 0.3
12 0.3
13 0.3
14 0.3
15 0.3
16 0.3
17 0.3
18 0.3
19 0.3
20 0.3
21 0.3
22 0.3
23 0.3
24 0.3
25 0.3
26 0.3
27 0.3
28 0.3
29 0.3
30 0.3
31 0.3
32 0.3
33 0.3
34 0.3
35 0.3
36 0.3
37 0.3
38 0.3
39 0.3
40 0.3
41 0.3
42 0.3
43 0.3
44 0.3
45 0.3
46 0.3
47 0.3
48 0.3
49 0.3
50 0.3
51 0.3
52 0.3
53 0.3
54 0.3
55 0.3
56 0.3
57 0.3
58 0.3
59 0.3
60 0.3
61 0.3
62 0.3
63 0.3
64 0.3
65 0.3
66 0.3
67 0.3
68 0.3
69 0.3
70 0.3
71 0.18
72 0.18
73 0.18
74 0.18
75 0.18
76 0.18
77 0.18
78 0.18
$EndElementData
$ElementData
1
"Attribute:SectionDimension3"
1
0
3
0
1
78
1 0.0155
2 0.0155
3 0.0155
4 0.0155
5 0.0155
6 0.0155
7 0.0155
8 0.0155
9 0.0155
10 0.0155
11 0.0155
12 0.0155
13 0.0155
14 0.0155
15 0.0155
16 0.0155
17 0.0155
18 0.0155
19 0.0155
20 0.0155
21 0.0155
22 0.0155
23 0.0155
24 0.0155
25 0.0155
26 0.0155
27 0.0155
28 0.0155
29 0.0155
30 0.0155
31 0.0155
32 0.0155
33 0.0155
34 0.0155
35 0.0155
36 0.0155
37 0.0155
38 0.0155
39 0.0155
40 0.0155
41 0.0155
42 0.0155
43 0.0155
44 0.0155
45 0.0155
46 0.0155
47 0.0155
48 0.0155
49 0.0155
50 0.0155
51 0.0155
52 0.0155
53 0.0155
54 0.0155
55 0.0155
56 0.0155
57 0.0155
58 0.0155
59 0.0155
60 0.0155
61 0.0155
62 0.0155
63 0.0155
64 0.0155
65 0.0155
66 0.0155
67 0.0155
68 0.0155
69 0.0155
70 0.0155
71 0.0086
72 0.0086
73 0.0086
74 0.0086
75 0.0086
76 0.0086
77 0.0086
78 0.0086
$EndElementData
$ElementData
1
"Attribute:SectionDimension4"
1
0
3
0
1
78
1 0.03
2 0.03
3 0.03
4 0.03
5 0.03
6 0.03
7 0.03
8 0.03
9 0.03
10 0.03
11 0.03
12 0.03
13 0.03
14 0.03
15 0.03
16 0.03
17 0.03
18 0.03
19 0.03
20 0.03
21 0.03
22 0.03
23 0.03
24 0.03
25 0.03
26 0.03
27 0.03
28 0.03
29 0.03
30 0.03
31 0.03
32 0.03
33 0.03
34 0.03
35 0.03
36 0.03
37 0.03
38 0.03
39 0.03
40 0.03
41 0.03
42 0.03
43 0.03
44 0.03
45 0.03
46 0.03
47 0.03
48 0.03
49 0.03
50 0.03
51 0.03
52 0.03
53 0.03
54 0.03
55 0.03
56 0.03
57 0.03
58 0.03
59 0.03
60 0.03
61 0.03
62 0.03
63 0.03
64 0.03
65 0.03
66 0.03
67 0.03
68 0.03
69 0.03
70 0.03
71 0.0135
72 0.0135
73 0.0135
74 0.0135
75 0.0135
76 0.0135
77 0.0135
78 0.0135
$EndElementData
$ElementData
1
"Attribute:SectionDimension5"
1
0
3
0
1
78
1 0.027
2 0.027
3 0.027
4 0.027
5 0.027
6 0.027
7 0.027
8 0.027
9 0.027
10 0.027
11 0.027
12 0.027
13 0.027
14 0.027
15 0.027
16 0.027
17 0.027
18 0.027
19 0.027
20 0.027
21 0.027
22 0.027
23 0.027
24 0.027
25 0.027
26 0.027
27 0.027
28 0.027
29 0.027
30 0.027
31 0.027
32 0.027
33 0.027
34 0.027
35 0.027
36 0.027
37 0.027
38 0.027
39 0.027
40 0.027
41 0.027
42 0.027
43 0.027
44 0.027
45 0.027
46 0.027
47 0.027
48 0.027
49 0.027
50 0.027
51 0.027
52 0.027
53 0.027
54 0.027
55 0.027
56 0.027
57 0.027
58 0.027
59 0.027
60 0.027
61 0.027
62 0.027
63 0.027
64 0.027
65 0.027
66 0.027
67 0.027
68 0.027
69 0.027
70 0.027
71 0.021
72 0.021
73 0.021
74 0.021
75 0.021
76 0.021
77 0.021
78 0.021
$EndElementData
$ElementData
1
"Attribute:SectionShape"
1
0
3
0
1
78
1 5
2 5
3 5
4 5
5 5
6 5
7 5
8 5
9 5
10 5
11 5
12 5
13 5
14 5
15 5
16 5
17 5
18 5
19 5
20 5
21 5
22 5
23 5
24 5
25 5
26 5
27 5
28 5
29 5
30 5
31 5
32 5
33 5
34 5
35 5
36 5
37 5
38 5
39 5
40 5
41 5
42 5
43 5
44 5
45 5
46 5
47 5
48 5
49 5
50 5
51 5
52 5
53 5
54 5
55 5
56 5
57 5
58 5
59 5
60 5
61 5
62 5
63 5
64 5
65 5
66 5
67 5
68 5
69 5
70 5
71 5
72 5
73 5
74 5
75 5
76 5
77 5
78 5
$EndElementData
$ElementData
1
"Attribute:ShearAreaY"
1
0
3
0
1
78
1 0.008633031428391268
2 0.008633031428391268
3 0.008633031428391268
4 0.008633031428391268
5 0.008633031428391268
6 0.008633031428391268
7 0.008633031428391268
8 0.008633031428391268
9 0.008633031428391268
10 0.008633031428391268
11 0.008633031428391268
12 0.008633031428391268
13 0.008633031428391268
14 0.008633031428391268
15 0.008633031428391268
16 0.008633031428391268
17 0.008633031428391268
18 0.008633031428391268
19 0.008633031428391268
20 0.008633031428391268
21 0.008633031428391268
22 0.008633031428391268
23 0.008633031428391268
24 0.008633031428391268
25 0.008633031428391268
26 0.008633031428391268
27 0.008633031428391268
28 0.008633031428391268
29 0.008633031428391268
30 0.008633031428391268
31 0.008633031428391268
32 0.008633031428391268
33 0.008633031428391268
34 0.008633031428391268
35 0.008633031428391268
36 0.008633031428391268
37 0.008633031428391268
38 0.008633031428391268
39 0.008633031428391268
40 0.008633031428391268
41 0.008633031428391268
42 0.008633031428391268
43 0.008633031428391268
44 0.008633031428391268
45 0.008633031428391268
46 0.008633031428391268
47 0.008633031428391268
48 0.008633031428391268
49 0.008633031428391268
50 0.008633031428391268
51 0.008633031428391268
52 0.008633031428391268
53 0.008633031428391268
54 0.008633031428391268
55 0.008633031428391268
56 0.008633031428391268
57 0.008633031428391268
58 0.008633031428391268
59 0.008633031428391268
60 0.008633031428391268
61 0.008633031428391268
62 0.008633031428391268
63 0.008633031428391268
64 0.008633031428391268
65 0.008633031428391268
66 0.008633031428391268
67 0.008633031428391268
68 0.008633031428391268
69 0.008633031428391268
70 0.008633031428391268
71 0.0033323939411293688
72 0.0033323939411293688
73 0.0033323939411293688
74 0.0033323939411293688
75 0.0033323939411293688
76 0.0033323939411293688
77 0.0033323939411293688
78 0.0033323939411293688
$EndElementData
$ElementData
1
"Attribute:ShearAreaZ"
1
0
3
0
1
78
1 0.015294117647058823
2 0.015294117647058823
3 0.015294117647058823
4 0.015294117647058823
5 0.015294117647058823
6 0.015294117647058823
7 0.015294117647058823
8 0.015294117647058823
9 0.015294117647058823
10 0.015294117647058823
11 0.015294117647058823
12 0.015294117647058823
13 0.015294117647058823
14 0.015294117647058823
15 0.015294117647058823
16 0.015294117647058823
17 0.015294117647058823
18 0.015294117647058823
19 0.015294117647058823
20 0.015294117647058823
21 0.015294117647058823
22 0.015294117647058823
23 0.015294117647058823
24 0.015294117647058823
25 0.015294117647058823
26 0.015294117647058823
27 0.015294117647058823
28 0.015294117647058823
29 0.015294117647058823
30 0.015294117647058823
31 0.015294117647058823
32 0.015294117647058823
33 0.015294117647058823
34 0.015294117647058823
35 0.015294117647058823
36 0.015294117647058823
37 0.015294117647058823
38 0.015294117647058823
39 0.015294117647058823
40 0.015294117647058823
41 0.015294117647058823
42 0.015294117647058823
43 0.015294117647058823
44 0.015294117647058823
45 0.015294117647058823
46 0.015294117647058823
47 0.015294117647058823
48 0.015294117647058823
49 0.015294117647058823
50 0.015294117647058823
51 0.015294117647058823
52 0.015294117647058823
53 0.015294117647058823
54 0.015294117647058823
55 0.015294117647058823
56 0.015294117647058823
57 0.015294117647058823
58 0.015294117647058823
59 0.015294117647058823
60 0.015294117647058823
61 0.015294117647058823
62 0.015294117647058823
63 0.015294117647058823
64 0.015294117647058823
65 0.015294117647058823
66 0.015294117647058823
67 0.015294117647058823
68 0.015294117647058823
69 0.015294117647058823
70 0.015294117647058823
71 0.004129411764705882
72 0.004129411764705882
73 0.004129411764705882
74 0.004129411764705882
75 0.004129411764705882
76 0.004129411764705882
77 0.004129411764705882
78 0.004129411764705882
$EndElementData
$ElementData
1
"Attribute:TorsionConstant"
1
0
3
0
1
78
1 6.671750497336341e-06
2 6.671750497336341e-06
3 6.671750497336341e-06
4 6.671750497336341e-06
5 6.671750497336341e-06
6 6.671750497336341e-06
7 6.671750497336341e-06
8 6.671750497336341e-06
9 6.671750497336341e-06
10 6.671750497336341e-06
11 6.671750497336341e-06
12 6.671750497336341e-06
13 6.671750497336341e-06
14 6.671750497336341e-06
15 6.671750497336341e-06
16 6.671750497336341e-06
17 6.671750497336341e-06
18 6.671750497336341e-06
19 6.671750497336341e-06
20 6.671750497336341e-06
21 6.671750497336341e-06
22 6.671750497336341e-06
23 6.671750497336341e-06
24 6.671750497336341e-06
25 6.671750497336341e-06
26 6.671750497336341e-06
27 6.671750497336341e-06
28 6.671750497336341e-06
29 6.671750497336341e-06
30 6.671750497336341e-06
31 6.671750497336341e-06
32 6.671750497336341e-06
33 6.671750497336341e-06
34 6.671750497336341e-06
35 6.671750497336341e-06
36 6.671750497336341e-06
37 6.671750497336341e-06
38 6.671750497336341e-06
39 6.671750497336341e-06
40 6.671750497336341e-06
41 6.671750497336341e-06
42 6.671750497336341e-06
43 6.671750497336341e-06
44 6.671750497336341e-06
45 6.671750497336341e-06
46 6.671750497336341e-06
47 6.671750497336341e-06
48 6.671750497336341e-06
49 6.671750497336341e-06
50 6.671750497336341e-06
51 6.671750497336341e-06
52 6.671750497336341e-06
53 6.671750497336341e-06
54 6.671750497336341e-06
55 6.671750497336341e-06
56 6.671750497336341e-06
57 6.671750497336341e-06
58 6.671750497336341e-06
59 6.671750497336341e-06
60 6.671750497336341e-06
61 6.671750497336341e-06
62 6.671750497336341e-06
63 6.671750497336341e-06
64 6.671750497336341e-06
65 6.671750497336341e-06
66 6.671750497336341e-06
67 6.671750497336341e-06
68 6.671750497336341e-06
69 6.671750497336341e-06
70 6.671750497336341e-06
71 5.107547221208023e-07
72 5.107547221208023e-07
73 5.107547221208023e-07
74 5.107547221208023e-07
75 5.107547221208023e-07
76 5.107547221208023e-07
77 5.107547221208023e-07
78 5.107547221208023e-07
$EndElementData
$ElementData
1
"Attribute:UniformLoadGlobalX"
1
0
3
0
1
78
1 0
2 0
3 0
4 0
5 0
6 0
7 0
8 0
9 0
10 0
11 0
12 0
13 0
14 0
15 0
16 0
17 0
18 0
19 0
20 0
21 0
22 0
23 0
24 0
25 0
26 0
27 0
28 0
29 0
30 0
31 0
32 0
33 0
34 0
35 0
36 0
37 0
38 0
39 0
40 0
41 0
42 0
43 0
44 0
45 0
46 0
47 0
48 0
49 0
50 0
51 0
52 0
53 0
54 0
55 0
56 0
57 0
58 0
59 0
60 0
61 0
62 0
63 0
64 0
65 0
66 0
67 0
68 0
69 0
70 0
71 0
72 0
73 0
74 0
75 0
76 0
77 0
78 0
$EndElementData
$ElementData
1
"Attribute:UniformLoadGlobalY"
1
0
3
0
1
78
1 -18000
2 -18000
3 -18000
4 -18000
5 -18000
6 -18000
7 -18000
8 -18000
9 -18000
10 -18000
11 -18000
12 -18000
13 -18000
14 -18000
15 -18000
16 -18000
17 -18000
18 -18000
19 -18000
20 -18000
21 -18000
22 -18000
23 -18000
24 -18000
25 -18000
26 -18000
27 -18000
28 -18000
29 -18000
30 -18000
31 -18000
32 -18000
33 -18000
34 -18000
35 -18000
36 -18000
37 -18000
38 -18000
39 -18000
40 -18000
41 -18000
42 -18000
43 -18000
44 -18000
45 -18000
46 -18000
47 -18000
48 -18000
49 -18000
50 -18000
51 -18000
52 -18000
53 -18000
54 -18000
55 -18000
56 -18000
57 -18000
58 -18000
59 -18000
60 -18000
61 -18000
62 -18000
63 -18000
64 -18000
65 -18000
66 -18000
67 -18000
68 -18000
69 -18000
70 -18000
71 0
72 0
73 0
74 0
75 0
76 0
77 0
78 0
$EndElementData
$ElementData
1
"Attribute:UniformLoadGlobalZ"
1
0
3
0
1
78
1 0
2 0
3 0
4 0
5 0
6 0
7 0
8 0
9 0
10 0
11 0
12 0
13 0
14 0
15 0
16 0
17 0
18 0
19 0
20 0
21 0
22 0
23 0
24 0
25 0
26 0
27 0
28 0
29 0
30 0
31 0
32 0
33 0
34 0
35 0
36 0
37 0
38 0
39 0
40 0
41 0
42 0
43 0
44 0
45 0
46 0
47 0
48 0
49 0
50 0
51 0
52 0
53 0
54 0
55 0
56 0
57 0
58 0
59 0
60 0
61 0
62 0
63 0
64 0
65 0
66 0
67 0
68 0
69 0
70 0
71 0
72 0
73 0
74 0
75 0
76 0
77 0
78 0
$EndElementData
$ElementData
1
"Attribute:UniformLoadLocalX"
1
0
3
0
1
78
1 0
2 0
3 0
4 0
5 0
6 0
7 0
8 0
9 0
10 0
11 0
12 0
13 0
14 0
15 0
16 0
17 0
18 0
19 0
20 0
21 0
22 0
23 0
24 0
25 0
26 0
27 0
28 0
29 0
30 0
31 0
32 0
33 0
34 0
35 0
36 0
37 0
38 0
39 0
40 0
41 0
42 0
43 0
44 0
45 0
46 0
47 0
48 0
49 0
50 0
51 0
52 0
53 0
54 0
55 0
56 0
57 0
58 0
59 0
60 0
61 0
62 0
63 0
64 0
65 0
66 0
67 0
68 0
69 0
70 0
71 0
72 0
73 0
74 0
75 0
76 0
77 0
78 0
$EndElementData
$ElementData
1
"Attribute:UniformLoadLocalY"
1
0
3
0
1
78
1 0
2 0
3 0
4 0
5 0
6 0
7 0
8 0
9 0
10 0
11 0
12 0
13 0
14 0
15 0
16 0
17 0
18 0
19 0
20 0
21 0
22 0
23 0
24 0
25 0
26 0
27 0
28 0
29 0
30 0
31 0
32 0
33 0
34 0
35 0
36 0
37 0
38 0
39 0
40 0
41 0
42 0
43 0
44 0
45 0
46 0
47 0
48 0
49 0
50 0
51 0
52 0
53 0
54 0
55 0
56 0
57 0
58 0
59 0
60 0
61 0
62 0
63 0
64 0
65 0
66 0
67 0
68 0
69 0
70 0
71 0
72 0
73 0
74 0
75 0
76 0
77 0
78 0
$EndElementData
$ElementData
1
"Attribute:UniformLoadLocalZ"
1
0
3
0
1
78
1 0
2 0
3 0
4 0
5 0
6 0
7 0
8 0
9 0
10 0
11 0
12 0
13 0
14 0
15 0
16 0
17 0
18 0
19 0
20 0
21 0
22 0
23 0
24 0
25 0
26 0
27 0
28 0
29 0
30 0
31 0
32 0
33 0
34 0
35 0
36 0
37 0
38 0
39 0
40 0
41 0
42 0
43 0
44 0
45 0
46 0
47 0
48 0
49 0
50 0
51 0
52 0
53 0
54 0
55 0
56 0
57 0
58 0
59 0
60 0
61 0
62 0
63 0
64 0
65 0
66 0
67 0
68 0
69 0
70 0
71 0
72 0
73 0
74 0
75 0
76 0
77 0
78 0
$EndElementData
$ElementData
1
"BeamOrientation"
1
0
3
0
3
78
1 0 0 0
2 0 0 0
3 0 0 0
4 0 0 0
5 0 0 0
6 0 0 0
7 0 0 0
8 0 0 0
9 0 0 0
10 0 0 0
11 0 0 0
12 0 0 0
13 0 0 0
14 0 0 0
15 0 0 0
16 0 0 0
17 0 0 0
18 0 0 0
19 0 0 0
20 0 0 0
21 0 0 0
22 0 0 0
23 0 0 0
24 0 0 0
25 0 0 0
26 0 0 0
27 0 0 0
28 0 0 0
29 0 0 0
30 0 0 0
31 0 0 0
32 0 0 0
33 0 0 0
34 0 0 0
35 0 0 0
36 0 0 0
37 0 0 0
38 0 0 0
39 0 0 0
40 0 0 0
41 0 0 0
42 0 0 0
43 0 0 0
44 0 0 0
45 0 0 0
46 0 0 0
47 0 0 0
48 0 0 0
49 0 0 0
50 0 0 0
51 0 0 0
52 0 0 0
53 0 0 0
54 0 0 0
55 0 0 0
56 0 0 0
57 0 0 0
58 0 0 0
59 0 0 0
60 0 0 0
61 0 0 0
62 0 0 0
63 0 0 0
64 0 0 0
65 0 0 0
66 0 0 0
67 0 0 0
68 0 0 0
69 0 0 0
70 0 0 0
71 0 1 0
72 0 1 0
73 0 1 0
74 0 1 0
75 0 1 0
76 0 1 0
77 0 1 0
78 0 1 0
$EndElementData
$AnafData
1
1
GLOBAL 3 1
"Gravity"
0 -9.80665 0
$EndAnafData
