$MeshFormat
4.1 0 8
$EndMeshFormat
$PhysicalNames
4
1 1 "Material:Structural Steel S355 (EN 10025)"
1 2 "Section:CHS 114.3x5"
1 3 "Section:RHS 250x150x10"
1 4 "Section:RHS 300x200x12.5"
$EndPhysicalNames
$Entities
0 3 0 0
1 0 0 0 0 2 0 2 1 4 0
2 0 2 0 3.8637033051562732 3.035276180410083 0 2 1 3 0
3 0 0.8 0 1.159110991546882 2.310582854123025 0 2 1 2 0
$EndEntities
$Nodes
1 6 1 6
1 1 0 6
1
2
3
4
5
6
0 0 0
0 0.8 0
0 2 0
1.159110991546882 2.310582854123025 0
2.511407148351578 2.672929517266554 0
3.8637033051562732 3.035276180410083 0
$EndNodes
$Elements
3 6 1 6
1 1 1 2
1 1 2
2 2 3
1 2 1 3
3 3 4
4 4 5
5 5 6
1 3 1 1
6 2 4
$EndElements
$NodeData
1
"Fixity"
1
0
3
0
3
6
1 1 1 1
2 0 0 0
3 0 0 0
4 0 0 0
5 0 0 0
6 0 0 0
$EndNodeData
$NodeData
1
"FixityRotation"
1
0
3
0
3
6
1 1 1 1
2 0 0 0
3 0 0 0
4 0 0 0
5 0 0 0
6 0 0 0
$EndNodeData
$NodeData
1
"NodalForce"
1
0
3
0
3
6
1 0 0 0
2 0 0 0
3 0 0 0
4 0 0 0
5 0 0 0
6 0 -10000 500
$EndNodeData
$ElementData
1
"CrossSectionArea"
1
0
3
0
1
6
1 0.011707342315154246
2 0.011707342315154246
3 0.007492699081698719
4 0.007492699081698719
5 0.007492699081698719
6 0.0017168803851868209
$EndElementData
$ElementData
1
"Attribute:ElementFormulation"
1
0
3
0
1
6
1 1
2 1
3 1
4 1
5 1
6 1
$EndElementData
$ElementData
1
"Attribute:EndReleases"
1
0
3
0
1
6
1 0
2 0
3 32
4 0
5 0
6 3632
$EndElementData
$ElementData
1
"MaterialID"
1
0
3
0
1
6
1 3
2 3
3 3
4 3
5 3
6 3
$EndElementData
$ElementData
1
"Attribute:SecondMomentY"
1
0
3
0
1
6
1 7.537006012715126e-05
2 7.537006012715126e-05
3 2.7548765072084822e-05
4 2.7548765072084822e-05
5 2.7548765072084822e-05
6 2.569202045307522e-06
$EndElementData
$ElementData
1
"Attribute:SecondMomentZ"
1
0
3
0
1
6
1 0.00014272687359157557
2 0.00014272687359157557
3 6.17354535658701e-05
4 6.17354535658701e-05
5 6.17354535658701e-05
6 2.569202045307522e-06
$EndElementData
$ElementData
1
"Attribute:SectionDimension1"
1
0
3
0
1
6
1 0.3
2 0.3
3 0.25
4 0.25
5 0.25
6 0.1143
$EndElementData
$ElementData
1
"Attribute:SectionDimension2"
1
0
3
0
1
6
1 0.2
2 0.2
3 0.15
4 0.15
5 0.15
6 0.005
$EndElementData
$ElementData
1
"Attribute:SectionDimension3"
1
0
3
0
1
6
1 0.0125
2 0.0125
3 0.01
4 0.01
5 0.01
6 0
$EndElementData
$ElementData
1
"Attribute:SectionDimension4"
1
0
3
0
1
6
1 0.01875
2 0.01875
3 0.015
4 0.015
5 0.015
6 0
$EndElementData
$ElementData
1
"Attribute:SectionDimension5"
1
0
3
0
1
6
1 0.0125
2 0.0125
3 0.01
4 0.01
5 0.01
6 0
$EndElementData
$ElementData
1
"Attribute:SectionShape"
1
0
3
0
1
6
1 4
2 4
3 4
4 4
5 4
6 3
$EndElementData
$ElementData
1
"Attribute:ShearAreaY"
1
0
3
0
1
6
1 0.006545976776311557
2 0.006545976776311557
3 0.004413024476190677
4 0.004413024476190677
5 0.004413024476190677
6 0.0009140558528542028
$EndElementData
$ElementData
1
"Attribute:ShearAreaZ"
1
0
3
0
1
6
1 0.00364191206394748
2 0.00364191206394748
3 0.0021035781032264726
4 0.0021035781032264726
5 0.0021035781032264726
6 0.0009140558528542028
$EndElementData
$ElementData
1
"Attribute:TorsionConstant"
1
0
3
0
1
6
1 0.00015676502090145543
2 0.00015676502090145543
3 6.0904505348335245e-05
4 6.0904505348335245e-05
5 6.0904505348335245e-05
6 5.138404090615044e-06
$EndElementData
$ElementData
1
"Attribute:UniformLoadGlobalX"
1
0
3
0
1
6
1 0
2 0
3 0
4 0
5 0
6 0
$EndElementData
$ElementData
1
"Attribute:UniformLoadGlobalY"
1
0
3
0
1
6
1 0
2 0
3 0
4 0
5 0
6 0
$EndElementData
$ElementData
1
"Attribute:UniformLoadGlobalZ"
1
0
3
0
1
6
1 0
2 0
3 0
4 0
5 0
6 0
$EndElementData
$ElementData
1
"Attribute:UniformLoadLocalX"
1
0
3
0
1
6
1 0
2 0
3 0
4 0
5 0
6 0
$EndElementData
$ElementData
1
"Attribute:UniformLoadLocalY"
1
0
3
0
1
6
1 0
2 0
3 0
4 0
5 0
6 0
$EndElementData
$ElementData
1
"Attribute:UniformLoadLocalZ"
1
0
3
0
1
6
1 0
2 0
3 0
4 0
5 0
6 0
$EndElementData
$ElementData
1
"BeamOrientation"
1
0
3
0
3
6
1 1 0 0
2 1 0 0
3 0 0 0
4 0 0 0
5 0 0 0
6 0 0 0
$EndElementData
$AnafData
1
1
GLOBAL 3 1
"Gravity"
0 -9.80665 0
$EndAnafData
