$MeshFormat
4.1 0 8
$EndMeshFormat
$PhysicalNames
5
1 1 "Material:Structural Steel S355 (EN 10025)"
1 2 "Section:IPE 220"
1 3 "Section:IPE 550"
1 4 "Section:HEB 400"
1 5 "Section:CHS 88.9x5"
$EndPhysicalNames
$Entities
0 4 0 0
1 0 0 0 20 5 18 2 1 4 0
2 0 5 0 20 6.5 18 2 1 3 0
3 0 5 0 20 6.5 18 2 1 2 0
4 0 0 0 20 5 18 2 1 5 0
$EndEntities
$Nodes
1 20 1 20
1 1 0 20
1
2
3
4
5
6
7
8
9
10
11
12
13
14
15
16
17
18
19
20
0 0 0
0 5 0
10 6.5 0
20 5 0
20 0 0
0 0 6
0 5 6
10 6.5 6
20 5 6
20 0 6
0 0 12
0 5 12
10 6.5 12
20 5 12
20 0 12
0 0 18
0 5 18
10 6.5 18
20 5 18
20 0 18
$EndNodes
$Elements
4 29 1 29
1 1 1 8
1 1 2
2 5 4
5 6 7
6 10 9
9 11 12
10 15 14
13 16 17
14 20 19
1 2 1 8
3 2 3
4 3 4
7 7 8
8 8 9
11 12 13
12 13 14
15 17 18
16 18 19
1 3 1 9
17 2 7
18 3 8
19 4 9
20 7 12
21 8 13
22 9 14
23 12 17
24 13 18
25 14 19
1 4 1 4
26 1 7
27 5 9
28 11 17
29 15 19
$EndElements
$NodeData
1
"Displacement"
1
0
3
0
3
20
1 0 0 0
2 -0.004588084837808189 -6.14912953559077e-05 6.875735181161294e-05
3 0.001542872334844204 -0.041920109451449916 -0.0006510285275018025
4 0.007672752993156538 -6.329645543849529e-05 7.103727741209888e-05
5 0 0 0
6 0 0 0
7 -0.007813456884663887 -0.00010587893385784173 6.911786332775483e-05
8 0.0030854446379782116 -0.07452464390649671 -0.0006510830512433996
9 0.013982194251142853 -0.00010947627272007327 7.140847335858641e-05
10 0 0 0
11 0 0 0
12 -0.007814276670084077 -0.00010580404681272238 6.634697015525252e-05
13 0.003083542313710877 -0.07451788038361089 -0.0006510935031071334
14 0.013979208416706957 -0.00010941411900227424 6.853162342592255e-05
15 0 0 0
16 0 0 0
17 -0.004587766450174287 -6.222052689850185e-05 6.392515234088528e-05
18 0.0015439606085437224 -0.0419254429714747 -0.0006511582251346761
19 0.007674608096135879 -6.403980836104065e-05 6.601408680639318e-05
20 0 0 0
$EndNodeData
$NodeData
1
"Rotation"
1
0
3
0
3
20
1 0 0 0.0020620366118170312
2 2.0364697274515203e-05 8.002702729081419e-05 -0.001424150948924589
3 -0.0003820680243973329 -1.1727488482535713e-07 0.005042253549351614
4 2.104814684799522e-05 -8.034535074649117e-05 0.0010651908634415287
5 0 0 -0.0028337481099821532
6 0 0 0.003576239418490424
7 2.0945530768432023e-05 0.00011060936726537807 -0.002567600384673655
8 -0.00029615180135240395 -2.4016514995168187e-08 0.008986845296478458
9 2.1637171227097913e-05 -0.00011130528188608093 0.0018498313038335912
10 0 0 -0.0051195739272596515
11 0 0 0.0035757208231275133
12 1.9642793839077006e-05 7.966075013741406e-05 -0.0025675102943922986
13 -0.00038093099333439567 -1.1237426372447199e-07 0.008985675359234805
14 2.029768378185538e-05 -7.996577166023369e-05 0.0018501575170978997
15 0 0 -0.005117949387499975
16 0 0 0.0020625473098037613
17 1.943476066490335e-05 0.00011211577964856474 -0.0014240325887485204
18 -0.00027611987679741865 1.9593591556079816e-06 0.00504321245470579
19 2.0170855187672493e-05 -0.00012069379106166954 0.0010646534557840193
20 0 0 -0.002834709156732773
$EndNodeData
$ElementData
1
"BeamSectionForce"
1
0
3
0
12
29
1 -54885.1148454063 -31808.09341256364 -38.92339818666939 4.600642025383229 189.84564256090508 -64.47889821199396 -47272.42992263089 -37808.09341256364 -38.92339818666939 4.600642025383229 -4.771348372441764 173975.98816460615
2 -56384.601243302604 37808.093412564136 -40.169475175574036 -4.6189419962484575 196.0664286425426 65.23719746946881 -48771.91632052719 37808.093412564136 -40.169475175574036 -4.6189419962484575 -4.780947235327403 -188975.2298653511
3 -44287.88857549953 -40378.80074658473 -3.183183537379861 -4.036098535891505 5.257526124091228 -173974.59217833282 -37335.74231194181 5968.841010466776 -3.183183537379861 -4.036098535891505 -26.930425387119783 0
4 -37558.17680336849 -4485.944400955512 3.1850135344663784 4.042876574378474 -26.929408681346743 -4.815775635310274 -44510.32306692621 41861.697356096 3.1850135344663784 4.042876574378474 5.277047530204328 -188974.27193293185
5 -91756.44875667938 -55535.824493770255 -36.54254914934761 6.3587780362367265 186.53282629949976 7.185008144006133e-11 -84143.76383390395 -67535.82449377025 -36.54254914934761 6.3587780362367265 3.8200805527618513 307679.1224688512
6 -94744.63841618468 67535.82449377066 -37.76726691284057 -6.3987851957985775 192.7374336848818 0 -87131.95349340925 67535.82449377066 -37.76726691284057 -6.3987851957985775 3.901099120679021 -337679.12246885325
7 -79032.55254483887 -71607.84241901003 2.544131113396098 -3.249610260852627 -47.41618441518652 -307744.99746332376 -66680.40628128115 10739.799338041477 2.544131113396098 -3.249610260852627 -21.690250627666927 0
8 -67125.50384168827 -7772.482268655149 -2.6033220022311383 3.257292086373251 -21.68909835383883 4.8172039593191585 -79477.650105246 74575.15948839636 -2.6033220022311383 3.257292086373251 -48.0135629635227 -337745.3172004827
9 -91694.24258082925 -55557.814346272484 -37.60246213385278 4.579585263412717 183.26297454122178 -69.72054051181567 -84081.55765805382 -67557.81434627248 -37.60246213385278 4.579585263412717 -4.749336128042103 307719.3511908506
10 -94693.00939152515 67557.8143462728 -38.79646871403979 -4.597120524736755 189.22380969149648 86.4276560901053 -87080.32446874972 67557.8143462728 -38.79646871403979 -4.597120524736755 -4.758533878702394 -337702.6440752739
11 -79054.42867611127 -71605.44421258711 -3.168413239181927 -4.017453396804148 5.233437020400537 -307720.74710165017 -66702.28241255356 10742.197544464398 -3.168413239181927 -4.017453396804148 -26.805159093417174 0
12 -67147.12083948345 -7776.608031592106 3.1701667653143275 4.023948198189828 -26.80418487320931 4.811748302512569 -79499.26710304117 74571.03372545939 3.1701667653143275 4.023948198189828 5.2521426762798455 -337703.6034603084
13 -55490.86321619314 -31786.103735454497 -33.45455182760831 6.4453795801434035 171.94789641341544 1.4097167877480388e-11 -47878.178293417724 -37786.1037354545 -33.45455182760831 6.4453795801434035 4.675137275374027 173930.51867727248
14 -57002.07977440077 37786.10373545403 -33.99699213648965 -6.93851747539391 176.64880934808534 7.275957614183426e-12 -49389.39485162536 37786.10373545403 -33.99699213648965 -6.93851747539391 6.66384866563709 -188930.51867727004
15 -44266.01263132936 -40381.1990179799 3.108189059333327 -3.0391233992323015 -51.77708935093595 -173998.8431969976 -37313.86636777164 5966.442739071608 3.108189059333327 -3.0391233992323015 -20.347472568032003 0
16 -37536.55996537756 -4481.818755026452 -4.451134901340808 3.0645463546797385 -20.343659124714918 -4.813176626616041 -44488.706228935276 41865.82300202506 -4.451134901340808 3.0645463546797385 -65.35297533026028 -189015.98734658482
17 42.10658172405056 -770.6805284937383 1.1733835151447048e-14 -1.3959862733419186 0 0 42.10658172405056 770.6805284937383 1.1733835151447048e-14 -1.3959862733419186 0 0
18 -6.368197071831673 -770.6805284937383 -5.611845347208173e-15 4.815775635342859 0 0 -6.368197071831673 770.6805284937383 -5.611845347208173e-15 4.815775635342859 0 0
19 43.35448871003973 -770.6805284937383 -2.2953613581144292e-14 0.9579324192667273 0 0 43.35448871003973 770.6805284937383 -2.2953613581144292e-14 0.9579324192667273 0 0
20 -323.6313809477888 -770.6805284937383 2.982361985013329e-18 0.00010998719506360999 0 0 -323.6313809477888 770.6805284937383 2.982361985013329e-18 0.00010998719506360999 0 0
21 -1.2207439562043874 -770.6805284937383 6.9206153687794666e-18 -0.001428324053298624 0 0 -1.2207439562043874 770.6805284937383 6.9206153687794666e-18 -0.001428324053298624 0 0
22 -336.00678861493816 -770.6805284937383 1.0862402399273807e-17 0.00039825918393887605 0 0 -336.00678861493816 770.6805284937383 1.0862402399273807e-17 0.00039825918393887605 0 0
23 -282.8605055747512 -770.6805284937383 -1.1737975800896639e-14 1.3960207867919523 0 0 -282.8605055747512 770.6805284937383 -1.1737975800896639e-14 1.3960207867919523 0 0
24 -7.559323960682377 -770.6805284937383 5.6009656151842306e-15 -4.813176626631354 0 0 -7.559323960682377 770.6805284937383 5.6009656151842306e-15 -4.813176626631354 0 0
25 -294.04015313558193 -770.6805284937383 2.29360023534212e-14 -0.9589867754232275 0 0 -294.04015313558193 770.6805284937383 2.29360023534212e-14 -0.9589867754232275 0 0
26 -773.9769058322877 -304.36409942451695 0 -83.93271564384375 0 0 -266.703406791426 304.36409942451695 0 -83.93271564384375 0 0
27 -793.2276632905413 -304.36409942451695 0 84.91980006552508 0 0 -285.9541642496796 304.36409942451695 0 84.91980006552508 0 0
28 75.0630008155936 -304.36409942451695 0 -90.75580482279382 0 0 582.3364998564552 304.36409942451695 0 -90.75580482279382 0 0
29 90.65766528549099 -304.36409942451695 0 112.50359549470356 0 0 597.9311643263526 304.36409942451695 0 112.50359549470356 0 0
$EndElementData
$ElementData
1
"AxialForce"
1
0
3
0
1
29
1 -51078.77238401859
2 -52578.2587819149
3 -40811.81544372067
4 -41034.24993514735
5 -87950.10629529167
6 -90938.29595479697
7 -72856.47941306
8 -73301.57697346713
9 -87887.90011944153
10 -90886.66693013743
11 -72878.35554433241
12 -73323.19397126231
13 -51684.52075480543
14 -53195.737313013065
15 -40789.9394995505
16 -41012.63309715642
17 42.10658172405056
18 -6.368197071831673
19 43.35448871003973
20 -323.6313809477888
21 -1.2207439562043874
22 -336.00678861493816
23 -282.8605055747512
24 -7.559323960682377
25 -294.04015313558193
26 -520.3401563118568
27 -539.5909137701104
28 328.6997503360244
29 344.2944148059218
$EndElementData
$ElementData
1
"VonMisesStress"
1
0
3
0
1
29
1 64188901.28922977
2 69354008.92904848
3 75754506.99802302
4 81908842.2074919
5 113585401.35119408
6 123914075.7176732
7 134194817.66137291
8 146507217.15283623
9 113594490.95534347
10 123918131.36481299
11 134026247.43401805
12 146328838.55997512
13 64205986.806545414
14 69375540.09760527
15 75938962.20657526
16 82153643.85740311
17 4606808.066357327
18 4666964.989830435
19 4603722.849885182
20 4684632.154051133
21 4588016.715073244
22 4688340.6411395
23 4678853.273541529
24 4667233.181164729
25 4678801.993087278
26 23260529.17631867
27 23278949.391144484
28 23144353.766371157
29 23260291.799274415
$EndElementData
$NodeData
1
"Fixity"
1
0
3
0
3
20
1 1 1 1
2 0 0 0
3 0 0 0
4 0 0 0
5 1 1 1
6 1 1 1
7 0 0 0
8 0 0 0
9 0 0 0
10 1 1 1
11 1 1 1
12 0 0 0
13 0 0 0
14 0 0 0
15 1 1 1
16 1 1 1
17 0 0 0
18 0 0 0
19 0 0 0
20 1 1 1
$EndNodeData
$NodeData
1
"FixityRotation"
1
0
3
0
3
20
1 1 1 0
2 0 0 0
3 0 0 0
4 0 0 0
5 1 1 0
6 1 1 0
7 0 0 0
8 0 0 0
9 0 0 0
10 1 1 0
11 1 1 0
12 0 0 0
13 0 0 0
14 0 0 0
15 1 1 0
16 1 1 0
17 0 0 0
18 0 0 0
19 0 0 0
20 1 1 0
$EndNodeData
$ElementData
1
"CrossSectionArea"
1
0
3
0
1
29
1 0.01977777895553304
2 0.01977777895553304
3 0.013441602631532282
4 0.013441602631532282
5 0.01977777895553304
6 0.01977777895553304
7 0.013441602631532282
8 0.013441602631532282
9 0.01977777895553304
10 0.01977777895553304
11 0.013441602631532282
12 0.013441602631532282
13 0.01977777895553304
14 0.01977777895553304
15 0.013441602631532282
16 0.013441602631532282
17 0.0033370506578830703
18 0.0033370506578830703
19 0.0033370506578830703
20 0.0033370506578830703
21 0.0033370506578830703
22 0.0033370506578830703
23 0.0033370506578830703
24 0.0033370506578830703
25 0.0033370506578830703
26 0.0013178981181809174
27 0.0013178981181809174
28 0.0013178981181809174
29 0.0013178981181809174
$EndElementData
$ElementData
1
"Attribute:ElementFormulation"
1
0
3
0
1
29
1 1
2 1
3 1
4 1
5 1
6 1
7 1
8 1
9 1
10 1
11 1
12 1
13 1
14 1
15 1
16 1
17 1
18 1
19 1
20 1
21 1
22 1
23 1
24 1
25 1
26 1
27 1
28 1
29 1
$EndElementData
$ElementData
1
"Attribute:EndReleases"
1
0
3
0
1
29
1 0
2 0
3 2048
4 0
5 0
6 0
7 2048
8 0
9 0
10 0
11 2048
12 0
13 0
14 0
15 2048
16 0
17 3120
18 3120
19 3120
20 3120
21 3120
22 3120
23 3120
24 3120
25 3120
26 3120
27 3120
28 3120
29 3120
$EndElementData
$ElementData
1
"MaterialID"
1
0
3
0
1
29
1 3
2 3
3 3
4 3
5 3
6 3
7 3
8 3
9 3
10 3
11 3
12 3
13 3
14 3
15 3
16 3
17 3
18 3
19 3
20 3
21 3
22 3
23 3
24 3
25 3
26 3
27 3
28 3
29 3
$EndElementData
$ElementData
1
"Attribute:SecondMomentY"
1
0
3
0
1
29
1 0.00010819043255618275
2 0.00010819043255618275
3 2.6675837226201207e-05
4 2.6675837226201207e-05
5 0.00010819043255618275
6 0.00010819043255618275
7 2.6675837226201207e-05
8 2.6675837226201207e-05
9 0.00010819043255618275
10 0.00010819043255618275
11 2.6675837226201207e-05
12 2.6675837226201207e-05
13 0.00010819043255618275
14 0.00010819043255618275
15 2.6675837226201207e-05
16 2.6675837226201207e-05
17 2.0488615086139686e-06
18 2.0488615086139686e-06
19 2.0488615086139686e-06
20 2.0488615086139686e-06
21 2.0488615086139686e-06
22 2.0488615086139686e-06
23 2.0488615086139686e-06
24 2.0488615086139686e-06
25 2.0488615086139686e-06
26 1.1637386331793523e-06
27 1.1637386331793523e-06
28 1.1637386331793523e-06
29 1.1637386331793523e-06
$EndElementData
$ElementData
1
"Attribute:SecondMomentZ"
1
0
3
0
1
29
1 0.000576805253806435
2 0.000576805253806435
3 0.0006711651704233161
4 0.0006711651704233161
5 0.000576805253806435
6 0.000576805253806435
7 0.0006711651704233161
8 0.0006711651704233161
9 0.000576805253806435
10 0.000576805253806435
11 0.0006711651704233161
12 0.0006711651704233161
13 0.000576805253806435
14 0.000576805253806435
15 0.0006711651704233161
16 0.0006711651704233161
17 2.7718387943647934e-05
18 2.7718387943647934e-05
19 2.7718387943647934e-05
20 2.7718387943647934e-05
21 2.7718387943647934e-05
22 2.7718387943647934e-05
23 2.7718387943647934e-05
24 2.7718387943647934e-05
25 2.7718387943647934e-05
26 1.1637386331793523e-06
27 1.1637386331793523e-06
28 1.1637386331793523e-06
29 1.1637386331793523e-06
$EndElementData
$ElementData
1
"Attribute:SectionDimension1"
1
0
3
0
1
29
1 0.4
2 0.4
3 0.55
4 0.55
5 0.4
6 0.4
7 0.55
8 0.55
9 0.4
10 0.4
11 0.55
12 0.55
13 0.4
14 0.4
15 0.55
16 0.55
17 0.22
18 0.22
19 0.22
20 0.22
21 0.22
22 0.22
23 0.22
24 0.22
25 0.22
26 0.0889
27 0.0889
28 0.0889
29 0.0889
$EndElementData
$ElementData
1
"Attribute:SectionDimension2"
1
0
3
0
1
29
1 0.3
2 0.3
3 0.21
4 0.21
5 0.3
6 0.3
7 0.21
8 0.21
9 0.3
10 0.3
11 0.21
12 0.21
13 0.3
14 0.3
15 0.21
16 0.21
17 0.11
18 0.11
19 0.11
20 0.11
21 0.11
22 0.11
23 0.11
24 0.11
25 0.11
26 0.005
27 0.005
28 0.005
29 0.005
$EndElementData
$ElementData
1
"Attribute:SectionDimension3"
1
0
3
0
1
29
1 0.0135
2 0.0135
3 0.0111
4 0.0111
5 0.0135
6 0.0135
7 0.0111
8 0.0111
9 0.0135
10 0.0135
11 0.0111
12 0.0111
13 0.0135
14 0.0135
15 0.0111
16 0.0111
17 0.0059
18 0.0059
19 0.0059
20 0.0059
21 0.0059
22 0.0059
23 0.0059
24 0.0059
25 0.0059
26 0
27 0
28 0
29 0
$EndElementData
$ElementData
1
"Attribute:SectionDimension4"
1
0
3
0
1
29
1 0.024
2 0.024
3 0.0172
4 0.0172
5 0.024
6 0.024
7 0.0172
8 0.0172
9 0.024
10 0.024
11 0.0172
12 0.0172
13 0.024
14 0.024
15 0.0172
16 0.0172
17 0.0092
18 0.0092
19 0.0092
20 0.0092
21 0.0092
22 0.0092
23 0.0092
24 0.0092
25 0.0092
26 0
27 0
28 0
29 0
$EndElementData
$ElementData
1
"Attribute:SectionDimension5"
1
0
3
0
1
29
1 0.027
2 0.027
3 0.024
4 0.024
5 0.027
6 0.027
7 0.024
8 0.024
9 0.027
10 0.027
11 0.024
12 0.024
13 0.027
14 0.027
15 0.024
16 0.024
17 0.012
18 0.012
19 0.012
20 0.012
21 0.012
22 0.012
23 0.012
24 0.012
25 0.012
26 0
27 0
28 0
29 0
$EndElementData
$ElementData
1
"Attribute:SectionShape"
1
0
3
0
1
29
1 5
2 5
3 5
4 5
5 5
6 5
7 5
8 5
9 5
10 5
11 5
12 5
13 5
14 5
15 5
16 5
17 5
18 5
19 5
20 5
21 5
22 5
23 5
24 5
25 5
26 3
27 3
28 3
29 3
$EndElementData
$ElementData
1
"Attribute:ShearAreaY"
1
0
3
0
1
29
1 0.00486657859145367
2 0.00486657859145367
3 0.005913165325581457
4 0.005913165325581457
5 0.00486657859145367
6 0.00486657859145367
7 0.005913165325581457
8 0.005913165325581457
9 0.00486657859145367
10 0.00486657859145367
11 0.005913165325581457
12 0.005913165325581457
13 0.00486657859145367
14 0.00486657859145367
15 0.005913165325581457
16 0.005913165325581457
17 0.0012268530347677746
18 0.0012268530347677746
19 0.0012268530347677746
20 0.0012268530347677746
21 0.0012268530347677746
22 0.0012268530347677746
23 0.0012268530347677746
24 0.0012268530347677746
25 0.0012268530347677746
26 0.0007032744663677642
27 0.0007032744663677642
28 0.0007032744663677642
29 0.0007032744663677642
$EndElementData
$ElementData
1
"Attribute:ShearAreaZ"
1
0
3
0
1
29
1 0.012235294117647058
2 0.012235294117647058
3 0.006138039215686274
4 0.006138039215686274
5 0.012235294117647058
6 0.012235294117647058
7 0.006138039215686274
8 0.006138039215686274
9 0.012235294117647058
10 0.012235294117647058
11 0.006138039215686274
12 0.006138039215686274
13 0.012235294117647058
14 0.012235294117647058
15 0.006138039215686274
16 0.006138039215686274
17 0.0017197385620915033
18 0.0017197385620915033
19 0.0017197385620915033
20 0.0017197385620915033
21 0.0017197385620915033
22 0.0017197385620915033
23 0.0017197385620915033
24 0.0017197385620915033
25 0.0017197385620915033
26 0.0007032744663677642
27 0.0007032744663677642
28 0.0007032744663677642
29 0.0007032744663677642
$EndElementData
$ElementData
1
"Attribute:TorsionConstant"
1
0
3
0
1
29
1 3.557463075636816e-06
2 3.557463075636816e-06
3 1.2323583052215805e-06
4 1.2323583052215805e-06
5 3.557463075636816e-06
6 3.557463075636816e-06
7 1.2323583052215805e-06
8 1.2323583052215805e-06
9 3.557463075636816e-06
10 3.557463075636816e-06
11 1.2323583052215805e-06
12 1.2323583052215805e-06
13 3.557463075636816e-06
14 3.557463075636816e-06
15 1.2323583052215805e-06
16 1.2323583052215805e-06
17 9.065756979663205e-08
18 9.065756979663205e-08
19 9.065756979663205e-08
20 9.065756979663205e-08
21 9.065756979663205e-08
22 9.065756979663205e-08
23 9.065756979663205e-08
24 9.065756979663205e-08
25 9.065756979663205e-08
26 2.3274772663587045e-06
27 2.3274772663587045e-06
28 2.3274772663587045e-06
29 2.3274772663587045e-06
$EndElementData
$ElementData
1
"Attribute:UniformLoadGlobalX"
1
0
3
0
1
29
1 1200
2 0
3 0
4 0
5 2400
6 0
7 0
8 0
9 2400
10 0
11 0
12 0
13 1200
14 0
15 0
16 0
17 0
18 0
19 0
20 0
21 0
22 0
23 0
24 0
25 0
26 0
27 0
28 0
29 0
$EndElementData
$ElementData
1
"Attribute:UniformLoadGlobalY"
1
0
3
0
1
29
1 0
2 0
3 -3600
4 -3600
5 0
6 0
7 -7200
8 -7200
9 0
10 0
11 -7200
12 -7200
13 0
14 0
15 -3600
16 -3600
17 0
18 0
19 0
20 0
21 0
22 0
23 0
24 0
25 0
26 0
27 0
28 0
29 0
$EndElementData
$ElementData
1
"Attribute:UniformLoadGlobalZ"
1
0
3
0
1
29
1 0
2 0
3 0
4 0
5 0
6 0
7 0
8 0
9 0
10 0
11 0
12 0
13 0
14 0
15 0
16 0
17 0
18 0
19 0
20 0
21 0
22 0
23 0
24 0
25 0
26 0
27 0
28 0
29 0
$EndElementData
$ElementData
1
"Attribute:UniformLoadLocalX"
1
0
3
0
1
29
1 0
2 0
3 0
4 0
5 0
6 0
7 0
8 0
9 0
10 0
11 0
12 0
13 0
14 0
15 0
16 0
17 0
18 0
19 0
20 0
21 0
22 0
23 0
24 0
25 0
26 0
27 0
28 0
29 0
$EndElementData
$ElementData
1
"Attribute:UniformLoadLocalY"
1
0
3
0
1
29
1 0
2 0
3 0
4 0
5 0
6 0
7 0
8 0
9 0
10 0
11 0
12 0
13 0
14 0
15 0
16 0
17 0
18 0
19 0
20 0
21 0
22 0
23 0
24 0
25 0
26 0
27 0
28 0
29 0
$EndElementData
$ElementData
1
"Attribute:UniformLoadLocalZ"
1
0
3
0
1
29
1 0
2 0
3 0
4 0
5 0
6 0
7 0
8 0
9 0
10 0
11 0
12 0
13 0
14 0
15 0
16 0
17 0
18 0
19 0
20 0
21 0
22 0
23 0
24 0
25 0
26 0
27 0
28 0
29 0
$EndElementData
$ElementData
1
"BeamOrientation"
1
0
3
0
3
29
1 1 0 0
2 1 0 0
3 0 0 0
4 0 0 0
5 1 0 0
6 1 0 0
7 0 0 0
8 0 0 0
9 1 0 0
10 1 0 0
11 0 0 0
12 0 0 0
13 1 0 0
14 1 0 0
15 0 0 0
16 0 0 0
17 0 0 0
18 0 0 0
19 0 0 0
20 0 0 0
21 0 0 0
22 0 0 0
23 0 0 0
24 0 0 0
25 0 0 0
26 0 0 0
27 0 0 0
28 0 0 0
29 0 0 0
$EndElementData
$AnafData
1
1
GLOBAL 3 1
"Gravity"
0 -9.80665 0
$EndAnafData
