$MeshFormat
4.1 0 8
$EndMeshFormat
$PhysicalNames
4
1 1 "Material:Structural Steel (AISI 4130)"
1 2 "Section:CHS 76.1x4"
1 3 "Section:CHS 114.3x5"
1 4 "Section:CHS 168.3x8"
$EndPhysicalNames
$Entities
0 3 0 0
1 0 -1.6 0 0 0 0 2 1 4 0
2 0 -1.6 0 0 -1.6 0.15 2 1 3 0
3 0 -0.7 -0.9 0.8 0 0 2 1 2 0
$EndEntities
$Nodes
1 6 1 6
1 1 0 6
1
2
3
4
5
6
0 0 0
0 -0.7 0
0 -1.6 0
0 -1.6 0.15
0 0 -0.9
0.8 0 0
$EndNodes
$Elements
3 5 1 5
1 1 1 2
1 1 2
2 2 3
1 2 1 1
3 3 4
1 3 1 2
4 5 2
5 6 2
$EndElements
$NodeData
1
"Fixity"
1
0
3
0
3
6
1 1 1 1
2 0 0 0
3 0 0 0
4 0 0 0
5 1 1 1
6 1 1 1
$EndNodeData
$NodeData
1
"FixityRotation"
1
0
3
0
3
6
1 0 1 1
2 0 0 0
3 0 0 0
4 0 0 0
5 1 1 1
6 1 1 1
$EndNodeData
$NodeData
1
"NodalForce"
1
0
3
0
3
6
1 0 0 0
2 0 0 0
3 0 0 0
4 -12000 40000 -6000
5 0 0 0
6 0 0 0
$EndNodeData
$ElementData
1
"CrossSectionArea"
1
0
3
0
1
5
1 0.004028778418963555
2 0.004028778418963555
3 0.0017168803851868209
4 0.0009060353212952966
5 0.0009060353212952966
$EndElementData
$ElementData
1
"Attribute:ElementFormulation"
1
0
3
0
1
5
1 2
2 2
3 2
4 1
5 1
$EndElementData
$ElementData
1
"Attribute:EndReleases"
1
0
3
0
1
5
1 0
2 0
3 0
4 3632
5 3632
$EndElementData
$ElementData
1
"MaterialID"
1
0
3
0
1
5
1 0
2 0
3 0
4 0
5 0
$EndElementData
$ElementData
1
"Attribute:SecondMomentY"
1
0
3
0
1
5
1 1.297271183281986e-05
2 1.297271183281986e-05
3 2.569202045307522e-06
4 5.905549549644261e-07
5 5.905549549644261e-07
$EndElementData
$ElementData
1
"Attribute:SecondMomentZ"
1
0
3
0
1
5
1 1.297271183281986e-05
2 1.297271183281986e-05
3 2.569202045307522e-06
4 5.905549549644261e-07
5 5.905549549644261e-07
$EndElementData
$ElementData
1
"Attribute:SectionDimension1"
1
0
3
0
1
5
1 0.1683
2 0.1683
3 0.1143
4 0.0761
5 0.0761
$EndElementData
$ElementData
1
"Attribute:SectionDimension2"
1
0
3
0
1
5
1 0.008
2 0.008
3 0.005
4 0.004
5 0.004
$EndElementData
$ElementData
1
"Attribute:SectionDimension3"
1
0
3
0
1
5
1 0
2 0
3 0
4 0
5 0
$EndElementData
$ElementData
1
"Attribute:SectionDimension4"
1
0
3
0
1
5
1 0
2 0
3 0
4 0
5 0
$EndElementData
$ElementData
1
"Attribute:SectionDimension5"
1
0
3
0
1
5
1 0
2 0
3 0
4 0
5 0
$EndElementData
$ElementData
1
"Attribute:SectionShape"
1
0
3
0
1
5
1 3
2 3
3 3
4 3
5 3
$EndElementData
$ElementData
1
"Attribute:ShearAreaY"
1
0
3
0
1
5
1 0.00214287745219334
2 0.00214287745219334
3 0.0009126152734679698
4 0.0004823654685459999
5 0.0004823654685459999
$EndElementData
$ElementData
1
"Attribute:ShearAreaZ"
1
0
3
0
1
5
1 0.00214287745219334
2 0.00214287745219334
3 0.0009126152734679698
4 0.0004823654685459999
5 0.0004823654685459999
$EndElementData
$ElementData
1
"Attribute:TorsionConstant"
1
0
3
0
1
5
1 2.594542366563972e-05
2 2.594542366563972e-05
3 5.138404090615044e-06
4 1.1811099099288522e-06
5 1.1811099099288522e-06
$EndElementData
$ElementData
1
"Attribute:UniformLoadGlobalX"
1
0
3
0
1
5
1 0
2 0
3 0
4 0
5 0
$EndElementData
$ElementData
1
"Attribute:UniformLoadGlobalY"
1
0
3
0
1
5
1 0
2 0
3 0
4 0
5 0
$EndElementData
$ElementData
1
"Attribute:UniformLoadGlobalZ"
1
0
3
0
1
5
1 0
2 0
3 0
4 0
5 0
$EndElementData
$ElementData
1
"Attribute:UniformLoadLocalX"
1
0
3
0
1
5
1 0
2 0
3 0
4 0
5 0
$EndElementData
$ElementData
1
"Attribute:UniformLoadLocalY"
1
0
3
0
1
5
1 0
2 0
3 0
4 0
5 0
$EndElementData
$ElementData
1
"Attribute:UniformLoadLocalZ"
1
0
3
0
1
5
1 0
2 0
3 0
4 0
5 0
$EndElementData
$ElementData
1
"BeamOrientation"
1
0
3
0
3
5
1 1 0 0
2 1 0 0
3 0 0 0
4 0 0 0
5 0 0 0
$EndElementData
$AnafData
1
1
GLOBAL 3 1
"Gravity"
0 -9.80665 0
$EndAnafData
