$MeshFormat
4.1 0 8
$EndMeshFormat
$PhysicalNames
5
1 1 "Material:Structural Steel S355 (EN 10025)"
1 2 "Section:IPE 220"
1 3 "Section:IPE 550"
1 4 "Section:HEB 400"
1 5 "Section:CHS 88.9x5"
$EndPhysicalNames
$Entities
0 4 0 0
1 0 0 0 20 5 18 2 1 4 0
2 0 5 0 20 6.5 18 2 1 3 0
3 0 5 0 20 6.5 18 2 1 2 0
4 0 0 0 20 5 18 2 1 5 0
$EndEntities
$Nodes
1 20 1 20
1 1 0 20
1
2
3
4
5
6
7
8
9
10
11
12
13
14
15
16
17
18
19
20
0 0 0
0 5 0
10 6.5 0
20 5 0
20 0 0
0 0 6
0 5 6
10 6.5 6
20 5 6
20 0 6
0 0 12
0 5 12
10 6.5 12
20 5 12
20 0 12
0 0 18
0 5 18
10 6.5 18
20 5 18
20 0 18
$EndNodes
$Elements
4 29 1 29
1 1 1 8
1 1 2
2 5 4
5 6 7
6 10 9
9 11 12
10 15 14
13 16 17
14 20 19
1 2 1 8
3 2 3
4 3 4
7 7 8
8 8 9
11 12 13
12 13 14
15 17 18
16 18 19
1 3 1 9
17 2 7
18 3 8
19 4 9
20 7 12
21 8 13
22 9 14
23 12 17
24 13 18
25 14 19
1 4 1 4
26 1 7
27 5 9
28 11 17
29 15 19
$EndElements
$NodeData
1
"Fixity"
1
0
3
0
3
20
1 1 1 1
2 0 0 0
3 0 0 0
4 0 0 0
5 1 1 1
6 1 1 1
7 0 0 0
8 0 0 0
9 0 0 0
10 1 1 1
11 1 1 1
12 0 0 0
13 0 0 0
14 0 0 0
15 1 1 1
16 1 1 1
17 0 0 0
18 0 0 0
19 0 0 0
20 1 1 1
$EndNodeData
$NodeData
1
"FixityRotation"
1
0
3
0
3
20
1 1 1 0
2 0 0 0
3 0 0 0
4 0 0 0
5 1 1 0
6 1 1 0
7 0 0 0
8 0 0 0
9 0 0 0
10 1 1 0
11 1 1 0
12 0 0 0
13 0 0 0
14 0 0 0
15 1 1 0
16 1 1 0
17 0 0 0
18 0 0 0
19 0 0 0
20 1 1 0
$EndNodeData
$ElementData
1
"CrossSectionArea"
1
0
3
0
1
29
1 0.01977777895553304
2 0.01977777895553304
3 0.013441602631532282
4 0.013441602631532282
5 0.01977777895553304
6 0.01977777895553304
7 0.013441602631532282
8 0.013441602631532282
9 0.01977777895553304
10 0.01977777895553304
11 0.013441602631532282
12 0.013441602631532282
13 0.01977777895553304
14 0.01977777895553304
15 0.013441602631532282
16 0.013441602631532282
17 0.0033370506578830703
18 0.0033370506578830703
19 0.0033370506578830703
20 0.0033370506578830703
21 0.0033370506578830703
22 0.0033370506578830703
23 0.0033370506578830703
24 0.0033370506578830703
25 0.0033370506578830703
26 0.0013178981181809174
27 0.0013178981181809174
28 0.0013178981181809174
29 0.0013178981181809174
$EndElementData
$ElementData
1
"Attribute:ElementFormulation"
1
0
3
0
1
29
1 1
2 1
3 1
4 1
5 1
6 1
7 1
8 1
9 1
10 1
11 1
12 1
13 1
14 1
15 1
16 1
17 1
18 1
19 1
20 1
21 1
22 1
23 1
24 1
25 1
26 1
27 1
28 1
29 1
$EndElementData
$ElementData
1
"Attribute:EndReleases"
1
0
3
0
1
29
1 0
2 0
3 2048
4 0
5 0
6 0
7 2048
8 0
9 0
10 0
11 2048
12 0
13 0
14 0
15 2048
16 0
17 3120
18 3120
19 3120
20 3120
21 3120
22 3120
23 3120
24 3120
25 3120
26 3120
27 3120
28 3120
29 3120
$EndElementData
$ElementData
1
"MaterialID"
1
0
3
0
1
29
1 3
2 3
3 3
4 3
5 3
6 3
7 3
8 3
9 3
10 3
11 3
12 3
13 3
14 3
15 3
16 3
17 3
18 3
19 3
20 3
21 3
22 3
23 3
24 3
25 3
26 3
27 3
28 3
29 3
$EndElementData
$ElementData
1
"Attribute:SecondMomentY"
1
0
3
0
1
29
1 0.00010819043255618275
2 0.00010819043255618275
3 2.6675837226201207e-05
4 2.6675837226201207e-05
5 0.00010819043255618275
6 0.00010819043255618275
7 2.6675837226201207e-05
8 2.6675837226201207e-05
9 0.00010819043255618275
10 0.00010819043255618275
11 2.6675837226201207e-05
12 2.6675837226201207e-05
13 0.00010819043255618275
14 0.00010819043255618275
15 2.6675837226201207e-05
16 2.6675837226201207e-05
17 2.0488615086139686e-06
18 2.0488615086139686e-06
19 2.0488615086139686e-06
20 2.0488615086139686e-06
21 2.0488615086139686e-06
22 2.0488615086139686e-06
23 2.0488615086139686e-06
24 2.0488615086139686e-06
25 2.0488615086139686e-06
26 1.1637386331793523e-06
27 1.1637386331793523e-06
28 1.1637386331793523e-06
29 1.1637386331793523e-06
$EndElementData
$ElementData
1
"Attribute:SecondMomentZ"
1
0
3
0
1
29
1 0.000576805253806435
2 0.000576805253806435
3 0.0006711651704233161
4 0.0006711651704233161
5 0.000576805253806435
6 0.000576805253806435
7 0.0006711651704233161
8 0.0006711651704233161
9 0.000576805253806435
10 0.000576805253806435
11 0.0006711651704233161
12 0.0006711651704233161
13 0.000576805253806435
14 0.000576805253806435
15 0.0006711651704233161
16 0.0006711651704233161
17 2.7718387943647934e-05
18 2.7718387943647934e-05
19 2.7718387943647934e-05
20 2.7718387943647934e-05
21 2.7718387943647934e-05
22 2.7718387943647934e-05
23 2.7718387943647934e-05
24 2.7718387943647934e-05
25 2.7718387943647934e-05
26 1.1637386331793523e-06
27 1.1637386331793523e-06
28 1.1637386331793523e-06
29 1.1637386331793523e-06
$EndElementData
$ElementData
1
"Attribute:SectionDimension1"
1
0
3
0
1
29
1 0.4
2 0.4
3 0.55
4 0.55
5 0.4
6 0.4
7 0.55
8 0.55
9 0.4
10 0.4
11 0.55
12 0.55
13 0.4
14 0.4
15 0.55
16 0.55
17 0.22
18 0.22
19 0.22
20 0.22
21 0.22
22 0.22
23 0.22
24 0.22
25 0.22
26 0.0889
27 0.0889
28 0.0889
29 0.0889
$EndElementData
$ElementData
1
"Attribute:SectionDimension2"
1
0
3
0
1
29
1 0.3
2 0.3
3 0.21
4 0.21
5 0.3
6 0.3
7 0.21
8 0.21
9 0.3
10 0.3
11 0.21
12 0.21
13 0.3
14 0.3
15 0.21
16 0.21
17 0.11
18 0.11
19 0.11
20 0.11
21 0.11
22 0.11
23 0.11
24 0.11
25 0.11
26 0.005
27 0.005
28 0.005
29 0.005
$EndElementData
$ElementData
1
"Attribute:SectionDimension3"
1
0
3
0
1
29
1 0.0135
2 0.0135
3 0.0111
4 0.0111
5 0.0135
6 0.0135
7 0.0111
8 0.0111
9 0.0135
10 0.0135
11 0.0111
12 0.0111
13 0.0135
14 0.0135
15 0.0111
16 0.0111
17 0.0059
18 0.0059
19 0.0059
20 0.0059
21 0.0059
22 0.0059
23 0.0059
24 0.0059
25 0.0059
26 0
27 0
28 0
29 0
$EndElementData
$ElementData
1
"Attribute:SectionDimension4"
1
0
3
0
1
29
1 0.024
2 0.024
3 0.0172
4 0.0172
5 0.024
6 0.024
7 0.0172
8 0.0172
9 0.024
10 0.024
11 0.0172
12 0.0172
13 0.024
14 0.024
15 0.0172
16 0.0172
17 0.0092
18 0.0092
19 0.0092
20 0.0092
21 0.0092
22 0.0092
23 0.0092
24 0.0092
25 0.0092
26 0
27 0
28 0
29 0
$EndElementData
$ElementData
1
"Attribute:SectionDimension5"
1
0
3
0
1
29
1 0.027
2 0.027
3 0.024
4 0.024
5 0.027
6 0.027
7 0.024
8 0.024
9 0.027
10 0.027
11 0.024
12 0.024
13 0.027
14 0.027
15 0.024
16 0.024
17 0.012
18 0.012
19 0.012
20 0.012
21 0.012
22 0.012
23 0.012
24 0.012
25 0.012
26 0
27 0
28 0
29 0
$EndElementData
$ElementData
1
"Attribute:SectionShape"
1
0
3
0
1
29
1 5
2 5
3 5
4 5
5 5
6 5
7 5
8 5
9 5
10 5
11 5
12 5
13 5
14 5
15 5
16 5
17 5
18 5
19 5
20 5
21 5
22 5
23 5
24 5
25 5
26 3
27 3
28 3
29 3
$EndElementData
$ElementData
1
"Attribute:ShearAreaY"
1
0
3
0
1
29
1 0.00486657859145367
2 0.00486657859145367
3 0.005913165325581457
4 0.005913165325581457
5 0.00486657859145367
6 0.00486657859145367
7 0.005913165325581457
8 0.005913165325581457
9 0.00486657859145367
10 0.00486657859145367
11 0.005913165325581457
12 0.005913165325581457
13 0.00486657859145367
14 0.00486657859145367
15 0.005913165325581457
16 0.005913165325581457
17 0.0012268530347677746
18 0.0012268530347677746
19 0.0012268530347677746
20 0.0012268530347677746
21 0.0012268530347677746
22 0.0012268530347677746
23 0.0012268530347677746
24 0.0012268530347677746
25 0.0012268530347677746
26 0.0007032744663677642
27 0.0007032744663677642
28 0.0007032744663677642
29 0.0007032744663677642
$EndElementData
$ElementData
1
"Attribute:ShearAreaZ"
1
0
3
0
1
29
1 0.012235294117647058
2 0.012235294117647058
3 0.006138039215686274
4 0.006138039215686274
5 0.012235294117647058
6 0.012235294117647058
7 0.006138039215686274
8 0.006138039215686274
9 0.012235294117647058
10 0.012235294117647058
11 0.006138039215686274
12 0.006138039215686274
13 0.012235294117647058
14 0.012235294117647058
15 0.006138039215686274
16 0.006138039215686274
17 0.0017197385620915033
18 0.0017197385620915033
19 0.0017197385620915033
20 0.0017197385620915033
21 0.0017197385620915033
22 0.0017197385620915033
23 0.0017197385620915033
24 0.0017197385620915033
25 0.0017197385620915033
26 0.0007032744663677642
27 0.0007032744663677642
28 0.0007032744663677642
29 0.0007032744663677642
$EndElementData
$ElementData
1
"Attribute:TorsionConstant"
1
0
3
0
1
29
1 3.557463075636816e-06
2 3.557463075636816e-06
3 1.2323583052215805e-06
4 1.2323583052215805e-06
5 3.557463075636816e-06
6 3.557463075636816e-06
7 1.2323583052215805e-06
8 1.2323583052215805e-06
9 3.557463075636816e-06
10 3.557463075636816e-06
11 1.2323583052215805e-06
12 1.2323583052215805e-06
13 3.557463075636816e-06
14 3.557463075636816e-06
15 1.2323583052215805e-06
16 1.2323583052215805e-06
17 9.065756979663205e-08
18 9.065756979663205e-08
19 9.065756979663205e-08
20 9.065756979663205e-08
21 9.065756979663205e-08
22 9.065756979663205e-08
23 9.065756979663205e-08
24 9.065756979663205e-08
25 9.065756979663205e-08
26 2.3274772663587045e-06
27 2.3274772663587045e-06
28 2.3274772663587045e-06
29 2.3274772663587045e-06
$EndElementData
$ElementData
1
"Attribute:UniformLoadGlobalX"
1
0
3
0
1
29
1 1200
2 0
3 0
4 0
5 2400
6 0
7 0
8 0
9 2400
10 0
11 0
12 0
13 1200
14 0
15 0
16 0
17 0
18 0
19 0
20 0
21 0
22 0
23 0
24 0
25 0
26 0
27 0
28 0
29 0
$EndElementData
$ElementData
1
"Attribute:UniformLoadGlobalY"
1
0
3
0
1
29
1 0
2 0
3 -3600
4 -3600
5 0
6 0
7 -7200
8 -7200
9 0
10 0
11 -7200
12 -7200
13 0
14 0
15 -3600
16 -3600
17 0
18 0
19 0
20 0
21 0
22 0
23 0
24 0
25 0
26 0
27 0
28 0
29 0
$EndElementData
$ElementData
1
"Attribute:UniformLoadGlobalZ"
1
0
3
0
1
29
1 0
2 0
3 0
4 0
5 0
6 0
7 0
8 0
9 0
10 0
11 0
12 0
13 0
14 0
15 0
16 0
17 0
18 0
19 0
20 0
21 0
22 0
23 0
24 0
25 0
26 0
27 0
28 0
29 0
$EndElementData
$ElementData
1
"Attribute:UniformLoadLocalX"
1
0
3
0
1
29
1 0
2 0
3 0
4 0
5 0
6 0
7 0
8 0
9 0
10 0
11 0
12 0
13 0
14 0
15 0
16 0
17 0
18 0
19 0
20 0
21 0
22 0
23 0
24 0
25 0
26 0
27 0
28 0
29 0
$EndElementData
$ElementData
1
"Attribute:UniformLoadLocalY"
1
0
3
0
1
29
1 0
2 0
3 0
4 0
5 0
6 0
7 0
8 0
9 0
10 0
11 0
12 0
13 0
14 0
15 0
16 0
17 0
18 0
19 0
20 0
21 0
22 0
23 0
24 0
25 0
26 0
27 0
28 0
29 0
$EndElementData
$ElementData
1
"Attribute:UniformLoadLocalZ"
1
0
3
0
1
29
1 0
2 0
3 0
4 0
5 0
6 0
7 0
8 0
9 0
10 0
11 0
12 0
13 0
14 0
15 0
16 0
17 0
18 0
19 0
20 0
21 0
22 0
23 0
24 0
25 0
26 0
27 0
28 0
29 0
$EndElementData
$ElementData
1
"BeamOrientation"
1
0
3
0
3
29
1 1 0 0
2 1 0 0
3 0 0 0
4 0 0 0
5 1 0 0
6 1 0 0
7 0 0 0
8 0 0 0
9 1 0 0
10 1 0 0
11 0 0 0
12 0 0 0
13 1 0 0
14 1 0 0
15 0 0 0
16 0 0 0
17 0 0 0
18 0 0 0
19 0 0 0
20 0 0 0
21 0 0 0
22 0 0 0
23 0 0 0
24 0 0 0
25 0 0 0
26 0 0 0
27 0 0 0
28 0 0 0
29 0 0 0
$EndElementData
$AnafData
1
1
GLOBAL 3 1
"Gravity"
0 -9.80665 0
$EndAnafData
