$MeshFormat
4.1 0 8
$EndMeshFormat
$PhysicalNames
6
1 1 "Material:Structural Steel S355 (EN 10025)"
1 2 "Section:IPE 300"
1 3 "Section:IPE 360"
1 4 "Section:HEB 240"
1 5 "Section:CHS 76.1x4"
1 6 "Section:CHS 114.3x5"
$EndPhysicalNames
$Entities
0 5 0 0
1 0 0 0 12 10.5 12 2 1 4 0
2 0 3.5 0 12 10.5 12 2 1 3 0
3 0 3.5 0 12 10.5 12 2 1 2 0
4 0 0 0 12 10.5 12 2 1 6 0
5 0 3.5 0 12 10.5 12 2 1 5 0
$EndEntities
$Nodes
1 36 1 36
1 1 0 36
1
2
3
4
5
6
7
8
9
10
11
12
13
14
15
16
17
18
19
20
21
22
23
24
25
26
27
28
29
30
31
32
33
34
35
36
0 0 0
6 0 0
12 0 0
0 0 6
6 0 6
12 0 6
0 0 12
6 0 12
12 0 12
0 3.5 0
6 3.5 0
12 3.5 0
0 3.5 6
6 3.5 6
12 3.5 6
0 3.5 12
6 3.5 12
12 3.5 12
0 7 0
6 7 0
12 7 0
0 7 6
6 7 6
12 7 6
0 7 12
6 7 12
12 7 12
0 10.5 0
6 10.5 0
12 10.5 0
0 10.5 6
6 10.5 6
12 10.5 6
0 10.5 12
6 10.5 12
12 10.5 12
$EndNodes
$Elements
5 111 1 111
1 1 1 27
1 1 10
2 10 19
3 19 28
4 2 11
5 11 20
6 20 29
7 3 12
8 12 21
9 21 30
10 4 13
11 13 22
12 22 31
13 5 14
14 14 23
15 23 32
16 6 15
17 15 24
18 24 33
19 7 16
20 16 25
21 25 34
22 8 17
23 17 26
24 26 35
25 9 18
26 18 27
27 27 36
1 2 1 18
28 10 11
29 11 12
30 13 14
31 14 15
32 16 17
33 17 18
40 19 20
41 20 21
42 22 23
43 23 24
44 25 26
45 26 27
52 28 29
53 29 30
54 31 32
55 32 33
56 34 35
57 35 36
1 3 1 18
34 10 13
35 13 16
36 11 14
37 14 17
38 12 15
39 15 18
46 19 22
47 22 25
48 20 23
49 23 26
50 21 24
51 24 27
58 28 31
59 31 34
60 29 32
61 32 35
62 30 33
63 33 36
1 4 1 24
64 1 11
65 2 10
66 7 17
67 8 16
68 1 13
69 4 10
70 3 15
71 6 12
72 10 20
73 11 19
74 16 26
75 17 25
76 10 22
77 13 19
78 12 24
79 15 21
80 19 29
81 20 28
82 25 35
83 26 34
84 19 31
85 22 28
86 21 33
87 24 30
1 5 1 24
88 10 14
89 11 13
90 11 15
91 12 14
92 13 17
93 14 16
94 14 18
95 15 17
96 19 23
97 20 22
98 20 24
99 21 23
100 22 26
101 23 25
102 23 27
103 24 26
104 28 32
105 29 31
106 29 33
107 30 32
108 31 35
109 32 34
110 32 36
111 33 35
$EndElements
$NodeData
1
"Fixity"
1
0
3
0
3
36
1 1 1 1
2 1 1 1
3 1 1 1
4 1 1 1
5 1 1 1
6 1 1 1
7 1 1 1
8 1 1 1
9 1 1 1
10 0 0 0
11 0 0 0
12 0 0 0
13 0 0 0
14 0 0 0
15 0 0 0
16 0 0 0
17 0 0 0
18 0 0 0
19 0 0 0
20 0 0 0
21 0 0 0
22 0 0 0
23 0 0 0
24 0 0 0
25 0 0 0
26 0 0 0
27 0 0 0
28 0 0 0
29 0 0 0
30 0 0 0
31 0 0 0
32 0 0 0
33 0 0 0
34 0 0 0
35 0 0 0
36 0 0 0
$EndNodeData
$NodeData
1
"FixityRotation"
1
0
3
0
3
36
1 0 1 0
2 0 1 0
3 0 1 0
4 0 1 0
5 0 1 0
6 0 1 0
7 0 1 0
8 0 1 0
9 0 1 0
10 0 0 0
11 0 0 0
12 0 0 0
13 0 0 0
14 0 0 0
15 0 0 0
16 0 0 0
17 0 0 0
18 0 0 0
19 0 0 0
20 0 0 0
21 0 0 0
22 0 0 0
23 0 0 0
24 0 0 0
25 0 0 0
26 0 0 0
27 0 0 0
28 0 0 0
29 0 0 0
30 0 0 0
31 0 0 0
32 0 0 0
33 0 0 0
34 0 0 0
35 0 0 0
36 0 0 0
$EndNodeData
$NodeData
1
"NodalForce"
1
0
3
0
3
36
1 0 0 0
2 0 0 0
3 0 0 0
4 0 0 0
5 0 0 0
6 0 0 0
7 0 0 0
8 0 0 0
9 0 0 0
10 15000 0 0
11 0 0 0
12 0 0 0
13 15000 0 0
14 0 0 0
15 0 0 0
16 15000 0 0
17 0 0 0
18 0 0 0
19 15000 0 0
20 0 0 0
21 0 0 0
22 15000 0 0
23 0 0 0
24 0 0 0
25 15000 0 0
26 0 0 0
27 0 0 0
28 15000 0 0
29 0 0 0
30 0 0 0
31 15000 0 0
32 0 0 0
33 0 0 0
34 15000 0 0
35 0 0 0
36 0 0 0
$EndNodeData
$ElementData
1
"CrossSectionArea"
1
0
3
0
1
111
1 0.0105985576397669
2 0.0105985576397669
3 0.0105985576397669
4 0.0105985576397669
5 0.0105985576397669
6 0.0105985576397669
7 0.0105985576397669
8 0.0105985576397669
9 0.0105985576397669
10 0.0105985576397669
11 0.0105985576397669
12 0.0105985576397669
13 0.0105985576397669
14 0.0105985576397669
15 0.0105985576397669
16 0.0105985576397669
17 0.0105985576397669
18 0.0105985576397669
19 0.0105985576397669
20 0.0105985576397669
21 0.0105985576397669
22 0.0105985576397669
23 0.0105985576397669
24 0.0105985576397669
25 0.0105985576397669
26 0.0105985576397669
27 0.0105985576397669
28 0.007272923980236907
29 0.007272923980236907
30 0.007272923980236907
31 0.007272923980236907
32 0.007272923980236907
33 0.007272923980236907
34 0.005381201652942296
35 0.005381201652942296
36 0.005381201652942296
37 0.005381201652942296
38 0.005381201652942296
39 0.005381201652942296
40 0.007272923980236907
41 0.007272923980236907
42 0.007272923980236907
43 0.007272923980236907
44 0.007272923980236907
45 0.007272923980236907
46 0.005381201652942296
47 0.005381201652942296
48 0.005381201652942296
49 0.005381201652942296
50 0.005381201652942296
51 0.005381201652942296
52 0.007272923980236907
53 0.007272923980236907
54 0.007272923980236907
55 0.007272923980236907
56 0.007272923980236907
57 0.007272923980236907
58 0.005381201652942296
59 0.005381201652942296
60 0.005381201652942296
61 0.005381201652942296
62 0.005381201652942296
63 0.005381201652942296
64 0.0017168803851868209
65 0.0017168803851868209
66 0.0017168803851868209
67 0.0017168803851868209
68 0.0017168803851868209
69 0.0017168803851868209
70 0.0017168803851868209
71 0.0017168803851868209
72 0.0017168803851868209
73 0.0017168803851868209
74 0.0017168803851868209
75 0.0017168803851868209
76 0.0017168803851868209
77 0.0017168803851868209
78 0.0017168803851868209
79 0.0017168803851868209
80 0.0017168803851868209
81 0.0017168803851868209
82 0.0017168803851868209
83 0.0017168803851868209
84 0.0017168803851868209
85 0.0017168803851868209
86 0.0017168803851868209
87 0.0017168803851868209
88 0.0009060353212952966
89 0.0009060353212952966
90 0.0009060353212952966
91 0.0009060353212952966
92 0.0009060353212952966
93 0.0009060353212952966
94 0.0009060353212952966
95 0.0009060353212952966
96 0.0009060353212952966
97 0.0009060353212952966
98 0.0009060353212952966
99 0.0009060353212952966
100 0.0009060353212952966
101 0.0009060353212952966
102 0.0009060353212952966
103 0.0009060353212952966
104 0.0009060353212952966
105 0.0009060353212952966
106 0.0009060353212952966
107 0.0009060353212952966
108 0.0009060353212952966
109 0.0009060353212952966
110 0.0009060353212952966
111 0.0009060353212952966
$EndElementData
$ElementData
1
"Attribute:ElementFormulation"
1
0
3
0
1
111
1 1
2 1
3 1
4 1
5 1
6 1
7 1
8 1
9 1
10 1
11 1
12 1
13 1
14 1
15 1
16 1
17 1
18 1
19 1
20 1
21 1
22 1
23 1
24 1
25 1
26 1
27 1
28 1
29 1
30 1
31 1
32 1
33 1
34 1
35 1
36 1
37 1
38 1
39 1
40 1
41 1
42 1
43 1
44 1
45 1
46 1
47 1
48 1
49 1
50 1
51 1
52 1
53 1
54 1
55 1
56 1
57 1
58 1
59 1
60 1
61 1
62 1
63 1
64 1
65 1
66 1
67 1
68 1
69 1
70 1
71 1
72 1
73 1
74 1
75 1
76 1
77 1
78 1
79 1
80 1
81 1
82 1
83 1
84 1
85 1
86 1
87 1
88 1
89 1
90 1
91 1
92 1
93 1
94 1
95 1
96 1
97 1
98 1
99 1
100 1
101 1
102 1
103 1
104 1
105 1
106 1
107 1
108 1
109 1
110 1
111 1
$EndElementData
$ElementData
1
"Attribute:EndReleases"
1
0
3
0
1
111
1 0
2 0
3 0
4 0
5 0
6 0
7 0
8 0
9 0
10 0
11 0
12 0
13 0
14 0
15 0
16 0
17 0
18 0
19 0
20 0
21 0
22 0
23 0
24 0
25 0
26 0
27 0
28 3120
29 3120
30 3120
31 3120
32 3120
33 3120
34 3120
35 3120
36 3120
37 3120
38 3120
39 3120
40 3120
41 3120
42 3120
43 3120
44 3120
45 3120
46 3120
47 3120
48 3120
49 3120
50 3120
51 3120
52 3120
53 3120
54 3120
55 3120
56 3120
57 3120
58 3120
59 3120
60 3120
61 3120
62 3120
63 3120
64 3632
65 3632
66 3632
67 3632
68 3632
69 3632
70 3632
71 3632
72 3632
73 3632
74 3632
75 3632
76 3632
77 3632
78 3632
79 3632
80 3632
81 3632
82 3632
83 3632
84 3632
85 3632
86 3632
87 3632
88 3632
89 3632
90 3632
91 3632
92 3632
93 3632
94 3632
95 3632
96 3632
97 3632
98 3632
99 3632
100 3632
101 3632
102 3632
103 3632
104 3632
105 3632
106 3632
107 3632
108 3632
109 3632
110 3632
111 3632
$EndElementData
$ElementData
1
"MaterialID"
1
0
3
0
1
111
1 3
2 3
3 3
4 3
5 3
6 3
7 3
8 3
9 3
10 3
11 3
12 3
13 3
14 3
15 3
16 3
17 3
18 3
19 3
20 3
21 3
22 3
23 3
24 3
25 3
26 3
27 3
28 3
29 3
30 3
31 3
32 3
33 3
34 3
35 3
36 3
37 3
38 3
39 3
40 3
41 3
42 3
43 3
44 3
45 3
46 3
47 3
48 3
49 3
50 3
51 3
52 3
53 3
54 3
55 3
56 3
57 3
58 3
59 3
60 3
61 3
62 3
63 3
64 3
65 3
66 3
67 3
68 3
69 3
70 3
71 3
72 3
73 3
74 3
75 3
76 3
77 3
78 3
79 3
80 3
81 3
82 3
83 3
84 3
85 3
86 3
87 3
88 3
89 3
90 3
91 3
92 3
93 3
94 3
95 3
96 3
97 3
98 3
99 3
100 3
101 3
102 3
103 3
104 3
105 3
106 3
107 3
108 3
109 3
110 3
111 3
$EndElementData
$ElementData
1
"Attribute:SecondMomentY"
1
0
3
0
1
111
1 3.9226586610933386e-05
2 3.9226586610933386e-05
3 3.9226586610933386e-05
4 3.9226586610933386e-05
5 3.9226586610933386e-05
6 3.9226586610933386e-05
7 3.9226586610933386e-05
8 3.9226586610933386e-05
9 3.9226586610933386e-05
10 3.9226586610933386e-05
11 3.9226586610933386e-05
12 3.9226586610933386e-05
13 3.9226586610933386e-05
14 3.9226586610933386e-05
15 3.9226586610933386e-05
16 3.9226586610933386e-05
17 3.9226586610933386e-05
18 3.9226586610933386e-05
19 3.9226586610933386e-05
20 3.9226586610933386e-05
21 3.9226586610933386e-05
22 3.9226586610933386e-05
23 3.9226586610933386e-05
24 3.9226586610933386e-05
25 3.9226586610933386e-05
26 3.9226586610933386e-05
27 3.9226586610933386e-05
28 1.0434519648833853e-05
29 1.0434519648833853e-05
30 1.0434519648833853e-05
31 1.0434519648833853e-05
32 1.0434519648833853e-05
33 1.0434519648833853e-05
34 6.037784243992912e-06
35 6.037784243992912e-06
36 6.037784243992912e-06
37 6.037784243992912e-06
38 6.037784243992912e-06
39 6.037784243992912e-06
40 1.0434519648833853e-05
41 1.0434519648833853e-05
42 1.0434519648833853e-05
43 1.0434519648833853e-05
44 1.0434519648833853e-05
45 1.0434519648833853e-05
46 6.037784243992912e-06
47 6.037784243992912e-06
48 6.037784243992912e-06
49 6.037784243992912e-06
50 6.037784243992912e-06
51 6.037784243992912e-06
52 1.0434519648833853e-05
53 1.0434519648833853e-05
54 1.0434519648833853e-05
55 1.0434519648833853e-05
56 1.0434519648833853e-05
57 1.0434519648833853e-05
58 6.037784243992912e-06
59 6.037784243992912e-06
60 6.037784243992912e-06
61 6.037784243992912e-06
62 6.037784243992912e-06
63 6.037784243992912e-06
64 2.569202045307522e-06
65 2.569202045307522e-06
66 2.569202045307522e-06
67 2.569202045307522e-06
68 2.569202045307522e-06
69 2.569202045307522e-06
70 2.569202045307522e-06
71 2.569202045307522e-06
72 2.569202045307522e-06
73 2.569202045307522e-06
74 2.569202045307522e-06
75 2.569202045307522e-06
76 2.569202045307522e-06
77 2.569202045307522e-06
78 2.569202045307522e-06
79 2.569202045307522e-06
80 2.569202045307522e-06
81 2.569202045307522e-06
82 2.569202045307522e-06
83 2.569202045307522e-06
84 2.569202045307522e-06
85 2.569202045307522e-06
86 2.569202045307522e-06
87 2.569202045307522e-06
88 5.905549549644261e-07
89 5.905549549644261e-07
90 5.905549549644261e-07
91 5.905549549644261e-07
92 5.905549549644261e-07
93 5.905549549644261e-07
94 5.905549549644261e-07
95 5.905549549644261e-07
96 5.905549549644261e-07
97 5.905549549644261e-07
98 5.905549549644261e-07
99 5.905549549644261e-07
100 5.905549549644261e-07
101 5.905549549644261e-07
102 5.905549549644261e-07
103 5.905549549644261e-07
104 5.905549549644261e-07
105 5.905549549644261e-07
106 5.905549549644261e-07
107 5.905549549644261e-07
108 5.905549549644261e-07
109 5.905549549644261e-07
110 5.905549549644261e-07
111 5.905549549644261e-07
$EndElementData
$ElementData
1
"Attribute:SecondMomentZ"
1
0
3
0
1
111
1 0.00011259304721624361
2 0.00011259304721624361
3 0.00011259304721624361
4 0.00011259304721624361
5 0.00011259304721624361
6 0.00011259304721624361
7 0.00011259304721624361
8 0.00011259304721624361
9 0.00011259304721624361
10 0.00011259304721624361
11 0.00011259304721624361
12 0.00011259304721624361
13 0.00011259304721624361
14 0.00011259304721624361
15 0.00011259304721624361
16 0.00011259304721624361
17 0.00011259304721624361
18 0.00011259304721624361
19 0.00011259304721624361
20 0.00011259304721624361
21 0.00011259304721624361
22 0.00011259304721624361
23 0.00011259304721624361
24 0.00011259304721624361
25 0.00011259304721624361
26 0.00011259304721624361
27 0.00011259304721624361
28 0.00016265630920663014
29 0.00016265630920663014
30 0.00016265630920663014
31 0.00016265630920663014
32 0.00016265630920663014
33 0.00016265630920663014
34 8.356109185847976e-05
35 8.356109185847976e-05
36 8.356109185847976e-05
37 8.356109185847976e-05
38 8.356109185847976e-05
39 8.356109185847976e-05
40 0.00016265630920663014
41 0.00016265630920663014
42 0.00016265630920663014
43 0.00016265630920663014
44 0.00016265630920663014
45 0.00016265630920663014
46 8.356109185847976e-05
47 8.356109185847976e-05
48 8.356109185847976e-05
49 8.356109185847976e-05
50 8.356109185847976e-05
51 8.356109185847976e-05
52 0.00016265630920663014
53 0.00016265630920663014
54 0.00016265630920663014
55 0.00016265630920663014
56 0.00016265630920663014
57 0.00016265630920663014
58 8.356109185847976e-05
59 8.356109185847976e-05
60 8.356109185847976e-05
61 8.356109185847976e-05
62 8.356109185847976e-05
63 8.356109185847976e-05
64 2.569202045307522e-06
65 2.569202045307522e-06
66 2.569202045307522e-06
67 2.569202045307522e-06
68 2.569202045307522e-06
69 2.569202045307522e-06
70 2.569202045307522e-06
71 2.569202045307522e-06
72 2.569202045307522e-06
73 2.569202045307522e-06
74 2.569202045307522e-06
75 2.569202045307522e-06
76 2.569202045307522e-06
77 2.569202045307522e-06
78 2.569202045307522e-06
79 2.569202045307522e-06
80 2.569202045307522e-06
81 2.569202045307522e-06
82 2.569202045307522e-06
83 2.569202045307522e-06
84 2.569202045307522e-06
85 2.569202045307522e-06
86 2.569202045307522e-06
87 2.569202045307522e-06
88 5.905549549644261e-07
89 5.905549549644261e-07
90 5.905549549644261e-07
91 5.905549549644261e-07
92 5.905549549644261e-07
93 5.905549549644261e-07
94 5.905549549644261e-07
95 5.905549549644261e-07
96 5.905549549644261e-07
97 5.905549549644261e-07
98 5.905549549644261e-07
99 5.905549549644261e-07
100 5.905549549644261e-07
101 5.905549549644261e-07
102 5.905549549644261e-07
103 5.905549549644261e-07
104 5.905549549644261e-07
105 5.905549549644261e-07
106 5.905549549644261e-07
107 5.905549549644261e-07
108 5.905549549644261e-07
109 5.905549549644261e-07
110 5.905549549644261e-07
111 5.905549549644261e-07
$EndElementData
$ElementData
1
"Attribute:SectionDimension1"
1
0
3
0
1
111
1 0.24
2 0.24
3 0.24
4 0.24
5 0.24
6 0.24
7 0.24
8 0.24
9 0.24
10 0.24
11 0.24
12 0.24
13 0.24
14 0.24
15 0.24
16 0.24
17 0.24
18 0.24
19 0.24
20 0.24
21 0.24
22 0.24
23 0.24
24 0.24
25 0.24
26 0.24
27 0.24
28 0.36
29 0.36
30 0.36
31 0.36
32 0.36
33 0.36
34 0.3
35 0.3
36 0.3
37 0.3
38 0.3
39 0.3
40 0.36
41 0.36
42 0.36
43 0.36
44 0.36
45 0.36
46 0.3
47 0.3
48 0.3
49 0.3
50 0.3
51 0.3
52 0.36
53 0.36
54 0.36
55 0.36
56 0.36
57 0.36
58 0.3
59 0.3
60 0.3
61 0.3
62 0.3
63 0.3
64 0.1143
65 0.1143
66 0.1143
67 0.1143
68 0.1143
69 0.1143
70 0.1143
71 0.1143
72 0.1143
73 0.1143
74 0.1143
75 0.1143
76 0.1143
77 0.1143
78 0.1143
79 0.1143
80 0.1143
81 0.1143
82 0.1143
83 0.1143
84 0.1143
85 0.1143
86 0.1143
87 0.1143
88 0.0761
89 0.0761
90 0.0761
91 0.0761
92 0.0761
93 0.0761
94 0.0761
95 0.0761
96 0.0761
97 0.0761
98 0.0761
99 0.0761
100 0.0761
101 0.0761
102 0.0761
103 0.0761
104 0.0761
105 0.0761
106 0.0761
107 0.0761
108 0.0761
109 0.0761
110 0.0761
111 0.0761
$EndElementData
$ElementData
1
"Attribute:SectionDimension2"
1
0
3
0
1
111
1 0.24
2 0.24
3 0.24
4 0.24
5 0.24
6 0.24
7 0.24
8 0.24
9 0.24
10 0.24
11 0.24
12 0.24
13 0.24
14 0.24
15 0.24
16 0.24
17 0.24
18 0.24
19 0.24
20 0.24
21 0.24
22 0.24
23 0.24
24 0.24
25 0.24
26 0.24
27 0.24
28 0.17
29 0.17
30 0.17
31 0.17
32 0.17
33 0.17
34 0.15
35 0.15
36 0.15
37 0.15
38 0.15
39 0.15
40 0.17
41 0.17
42 0.17
43 0.17
44 0.17
45 0.17
46 0.15
47 0.15
48 0.15
49 0.15
50 0.15
51 0.15
52 0.17
53 0.17
54 0.17
55 0.17
56 0.17
57 0.17
58 0.15
59 0.15
60 0.15
61 0.15
62 0.15
63 0.15
64 0.005
65 0.005
66 0.005
67 0.005
68 0.005
69 0.005
70 0.005
71 0.005
72 0.005
73 0.005
74 0.005
75 0.005
76 0.005
77 0.005
78 0.005
79 0.005
80 0.005
81 0.005
82 0.005
83 0.005
84 0.005
85 0.005
86 0.005
87 0.005
88 0.004
89 0.004
90 0.004
91 0.004
92 0.004
93 0.004
94 0.004
95 0.004
96 0.004
97 0.004
98 0.004
99 0.004
100 0.004
101 0.004
102 0.004
103 0.004
104 0.004
105 0.004
106 0.004
107 0.004
108 0.004
109 0.004
110 0.004
111 0.004
$EndElementData
$ElementData
1
"Attribute:SectionDimension3"
1
0
3
0
1
111
1 0.01
2 0.01
3 0.01
4 0.01
5 0.01
6 0.01
7 0.01
8 0.01
9 0.01
10 0.01
11 0.01
12 0.01
13 0.01
14 0.01
15 0.01
16 0.01
17 0.01
18 0.01
19 0.01
20 0.01
21 0.01
22 0.01
23 0.01
24 0.01
25 0.01
26 0.01
27 0.01
28 0.008
29 0.008
30 0.008
31 0.008
32 0.008
33 0.008
34 0.0071
35 0.0071
36 0.0071
37 0.0071
38 0.0071
39 0.0071
40 0.008
41 0.008
42 0.008
43 0.008
44 0.008
45 0.008
46 0.0071
47 0.0071
48 0.0071
49 0.0071
50 0.0071
51 0.0071
52 0.008
53 0.008
54 0.008
55 0.008
56 0.008
57 0.008
58 0.0071
59 0.0071
60 0.0071
61 0.0071
62 0.0071
63 0.0071
64 0
65 0
66 0
67 0
68 0
69 0
70 0
71 0
72 0
73 0
74 0
75 0
76 0
77 0
78 0
79 0
80 0
81 0
82 0
83 0
84 0
85 0
86 0
87 0
88 0
89 0
90 0
91 0
92 0
93 0
94 0
95 0
96 0
97 0
98 0
99 0
100 0
101 0
102 0
103 0
104 0
105 0
106 0
107 0
108 0
109 0
110 0
111 0
$EndElementData
$ElementData
1
"Attribute:SectionDimension4"
1
0
3
0
1
111
1 0.017
2 0.017
3 0.017
4 0.017
5 0.017
6 0.017
7 0.017
8 0.017
9 0.017
10 0.017
11 0.017
12 0.017
13 0.017
14 0.017
15 0.017
16 0.017
17 0.017
18 0.017
19 0.017
20 0.017
21 0.017
22 0.017
23 0.017
24 0.017
25 0.017
26 0.017
27 0.017
28 0.0127
29 0.0127
30 0.0127
31 0.0127
32 0.0127
33 0.0127
34 0.0107
35 0.0107
36 0.0107
37 0.0107
38 0.0107
39 0.0107
40 0.0127
41 0.0127
42 0.0127
43 0.0127
44 0.0127
45 0.0127
46 0.0107
47 0.0107
48 0.0107
49 0.0107
50 0.0107
51 0.0107
52 0.0127
53 0.0127
54 0.0127
55 0.0127
56 0.0127
57 0.0127
58 0.0107
59 0.0107
60 0.0107
61 0.0107
62 0.0107
63 0.0107
64 0
65 0
66 0
67 0
68 0
69 0
70 0
71 0
72 0
73 0
74 0
75 0
76 0
77 0
78 0
79 0
80 0
81 0
82 0
83 0
84 0
85 0
86 0
87 0
88 0
89 0
90 0
91 0
92 0
93 0
94 0
95 0
96 0
97 0
98 0
99 0
100 0
101 0
102 0
103 0
104 0
105 0
106 0
107 0
108 0
109 0
110 0
111 0
$EndElementData
$ElementData
1
"Attribute:SectionDimension5"
1
0
3
0
1
111
1 0.021
2 0.021
3 0.021
4 0.021
5 0.021
6 0.021
7 0.021
8 0.021
9 0.021
10 0.021
11 0.021
12 0.021
13 0.021
14 0.021
15 0.021
16 0.021
17 0.021
18 0.021
19 0.021
20 0.021
21 0.021
22 0.021
23 0.021
24 0.021
25 0.021
26 0.021
27 0.021
28 0.018
29 0.018
30 0.018
31 0.018
32 0.018
33 0.018
34 0.015
35 0.015
36 0.015
37 0.015
38 0.015
39 0.015
40 0.018
41 0.018
42 0.018
43 0.018
44 0.018
45 0.018
46 0.015
47 0.015
48 0.015
49 0.015
50 0.015
51 0.015
52 0.018
53 0.018
54 0.018
55 0.018
56 0.018
57 0.018
58 0.015
59 0.015
60 0.015
61 0.015
62 0.015
63 0.015
64 0
65 0
66 0
67 0
68 0
69 0
70 0
71 0
72 0
73 0
74 0
75 0
76 0
77 0
78 0
79 0
80 0
81 0
82 0
83 0
84 0
85 0
86 0
87 0
88 0
89 0
90 0
91 0
92 0
93 0
94 0
95 0
96 0
97 0
98 0
99 0
100 0
101 0
102 0
103 0
104 0
105 0
106 0
107 0
108 0
109 0
110 0
111 0
$EndElementData
$ElementData
1
"Attribute:SectionShape"
1
0
3
0
1
111
1 5
2 5
3 5
4 5
5 5
6 5
7 5
8 5
9 5
10 5
11 5
12 5
13 5
14 5
15 5
16 5
17 5
18 5
19 5
20 5
21 5
22 5
23 5
24 5
25 5
26 5
27 5
28 5
29 5
30 5
31 5
32 5
33 5
34 5
35 5
36 5
37 5
38 5
39 5
40 5
41 5
42 5
43 5
44 5
45 5
46 5
47 5
48 5
49 5
50 5
51 5
52 5
53 5
54 5
55 5
56 5
57 5
58 5
59 5
60 5
61 5
62 5
63 5
64 3
65 3
66 3
67 3
68 3
69 3
70 3
71 3
72 3
73 3
74 3
75 3
76 3
77 3
78 3
79 3
80 3
81 3
82 3
83 3
84 3
85 3
86 3
87 3
88 3
89 3
90 3
91 3
92 3
93 3
94 3
95 3
96 3
97 3
98 3
99 3
100 3
101 3
102 3
103 3
104 3
105 3
106 3
107 3
108 3
109 3
110 3
111 3
$EndElementData
$ElementData
1
"Attribute:ShearAreaY"
1
0
3
0
1
111
1 0.00208351189797852
2 0.00208351189797852
3 0.00208351189797852
4 0.00208351189797852
5 0.00208351189797852
6 0.00208351189797852
7 0.00208351189797852
8 0.00208351189797852
9 0.00208351189797852
10 0.00208351189797852
11 0.00208351189797852
12 0.00208351189797852
13 0.00208351189797852
14 0.00208351189797852
15 0.00208351189797852
16 0.00208351189797852
17 0.00208351189797852
18 0.00208351189797852
19 0.00208351189797852
20 0.00208351189797852
21 0.00208351189797852
22 0.00208351189797852
23 0.00208351189797852
24 0.00208351189797852
25 0.00208351189797852
26 0.00208351189797852
27 0.00208351189797852
28 0.0027606736487631755
29 0.0027606736487631755
30 0.0027606736487631755
31 0.0027606736487631755
32 0.0027606736487631755
33 0.0027606736487631755
34 0.0020268632069733684
35 0.0020268632069733684
36 0.0020268632069733684
37 0.0020268632069733684
38 0.0020268632069733684
39 0.0020268632069733684
40 0.0027606736487631755
41 0.0027606736487631755
42 0.0027606736487631755
43 0.0027606736487631755
44 0.0027606736487631755
45 0.0027606736487631755
46 0.0020268632069733684
47 0.0020268632069733684
48 0.0020268632069733684
49 0.0020268632069733684
50 0.0020268632069733684
51 0.0020268632069733684
52 0.0027606736487631755
53 0.0027606736487631755
54 0.0027606736487631755
55 0.0027606736487631755
56 0.0027606736487631755
57 0.0027606736487631755
58 0.0020268632069733684
59 0.0020268632069733684
60 0.0020268632069733684
61 0.0020268632069733684
62 0.0020268632069733684
63 0.0020268632069733684
64 0.0009140558528542028
65 0.0009140558528542028
66 0.0009140558528542028
67 0.0009140558528542028
68 0.0009140558528542028
69 0.0009140558528542028
70 0.0009140558528542028
71 0.0009140558528542028
72 0.0009140558528542028
73 0.0009140558528542028
74 0.0009140558528542028
75 0.0009140558528542028
76 0.0009140558528542028
77 0.0009140558528542028
78 0.0009140558528542028
79 0.0009140558528542028
80 0.0009140558528542028
81 0.0009140558528542028
82 0.0009140558528542028
83 0.0009140558528542028
84 0.0009140558528542028
85 0.0009140558528542028
86 0.0009140558528542028
87 0.0009140558528542028
88 0.0004831260947788511
89 0.0004831260947788511
90 0.0004831260947788511
91 0.0004831260947788511
92 0.0004831260947788511
93 0.0004831260947788511
94 0.0004831260947788511
95 0.0004831260947788511
96 0.0004831260947788511
97 0.0004831260947788511
98 0.0004831260947788511
99 0.0004831260947788511
100 0.0004831260947788511
101 0.0004831260947788511
102 0.0004831260947788511
103 0.0004831260947788511
104 0.0004831260947788511
105 0.0004831260947788511
106 0.0004831260947788511
107 0.0004831260947788511
108 0.0004831260947788511
109 0.0004831260947788511
110 0.0004831260947788511
111 0.0004831260947788511
$EndElementData
$ElementData
1
"Attribute:ShearAreaZ"
1
0
3
0
1
111
1 0.006933333333333334
2 0.006933333333333334
3 0.006933333333333334
4 0.006933333333333334
5 0.006933333333333334
6 0.006933333333333334
7 0.006933333333333334
8 0.006933333333333334
9 0.006933333333333334
10 0.006933333333333334
11 0.006933333333333334
12 0.006933333333333334
13 0.006933333333333334
14 0.006933333333333334
15 0.006933333333333334
16 0.006933333333333334
17 0.006933333333333334
18 0.006933333333333334
19 0.006933333333333334
20 0.006933333333333334
21 0.006933333333333334
22 0.006933333333333334
23 0.006933333333333334
24 0.006933333333333334
25 0.006933333333333334
26 0.006933333333333334
27 0.006933333333333334
28 0.0036688888888888886
29 0.0036688888888888886
30 0.0036688888888888886
31 0.0036688888888888886
32 0.0036688888888888886
33 0.0036688888888888886
34 0.0027274509803921565
35 0.0027274509803921565
36 0.0027274509803921565
37 0.0027274509803921565
38 0.0027274509803921565
39 0.0027274509803921565
40 0.0036688888888888886
41 0.0036688888888888886
42 0.0036688888888888886
43 0.0036688888888888886
44 0.0036688888888888886
45 0.0036688888888888886
46 0.0027274509803921565
47 0.0027274509803921565
48 0.0027274509803921565
49 0.0027274509803921565
50 0.0027274509803921565
51 0.0027274509803921565
52 0.0036688888888888886
53 0.0036688888888888886
54 0.0036688888888888886
55 0.0036688888888888886
56 0.0036688888888888886
57 0.0036688888888888886
58 0.0027274509803921565
59 0.0027274509803921565
60 0.0027274509803921565
61 0.0027274509803921565
62 0.0027274509803921565
63 0.0027274509803921565
64 0.0009140558528542028
65 0.0009140558528542028
66 0.0009140558528542028
67 0.0009140558528542028
68 0.0009140558528542028
69 0.0009140558528542028
70 0.0009140558528542028
71 0.0009140558528542028
72 0.0009140558528542028
73 0.0009140558528542028
74 0.0009140558528542028
75 0.0009140558528542028
76 0.0009140558528542028
77 0.0009140558528542028
78 0.0009140558528542028
79 0.0009140558528542028
80 0.0009140558528542028
81 0.0009140558528542028
82 0.0009140558528542028
83 0.0009140558528542028
84 0.0009140558528542028
85 0.0009140558528542028
86 0.0009140558528542028
87 0.0009140558528542028
88 0.0004831260947788511
89 0.0004831260947788511
90 0.0004831260947788511
91 0.0004831260947788511
92 0.0004831260947788511
93 0.0004831260947788511
94 0.0004831260947788511
95 0.0004831260947788511
96 0.0004831260947788511
97 0.0004831260947788511
98 0.0004831260947788511
99 0.0004831260947788511
100 0.0004831260947788511
101 0.0004831260947788511
102 0.0004831260947788511
103 0.0004831260947788511
104 0.0004831260947788511
105 0.0004831260947788511
106 0.0004831260947788511
107 0.0004831260947788511
108 0.0004831260947788511
109 0.0004831260947788511
110 0.0004831260947788511
111 0.0004831260947788511
$EndElementData
$ElementData
1
"Attribute:TorsionConstant"
1
0
3
0
1
111
1 1.0268573134682905e-06
2 1.0268573134682905e-06
3 1.0268573134682905e-06
4 1.0268573134682905e-06
5 1.0268573134682905e-06
6 1.0268573134682905e-06
7 1.0268573134682905e-06
8 1.0268573134682905e-06
9 1.0268573134682905e-06
10 1.0268573134682905e-06
11 1.0268573134682905e-06
12 1.0268573134682905e-06
13 1.0268573134682905e-06
14 1.0268573134682905e-06
15 1.0268573134682905e-06
16 1.0268573134682905e-06
17 1.0268573134682905e-06
18 1.0268573134682905e-06
19 1.0268573134682905e-06
20 1.0268573134682905e-06
21 1.0268573134682905e-06
22 1.0268573134682905e-06
23 1.0268573134682905e-06
24 1.0268573134682905e-06
25 1.0268573134682905e-06
26 1.0268573134682905e-06
27 1.0268573134682905e-06
28 3.732092769776419e-07
29 3.732092769776419e-07
30 3.732092769776419e-07
31 3.732092769776419e-07
32 3.732092769776419e-07
33 3.732092769776419e-07
34 2.011849577943933e-07
35 2.011849577943933e-07
36 2.011849577943933e-07
37 2.011849577943933e-07
38 2.011849577943933e-07
39 2.011849577943933e-07
40 3.732092769776419e-07
41 3.732092769776419e-07
42 3.732092769776419e-07
43 3.732092769776419e-07
44 3.732092769776419e-07
45 3.732092769776419e-07
46 2.011849577943933e-07
47 2.011849577943933e-07
48 2.011849577943933e-07
49 2.011849577943933e-07
50 2.011849577943933e-07
51 2.011849577943933e-07
52 3.732092769776419e-07
53 3.732092769776419e-07
54 3.732092769776419e-07
55 3.732092769776419e-07
56 3.732092769776419e-07
57 3.732092769776419e-07
58 2.011849577943933e-07
59 2.011849577943933e-07
60 2.011849577943933e-07
61 2.011849577943933e-07
62 2.011849577943933e-07
63 2.011849577943933e-07
64 5.138404090615044e-06
65 5.138404090615044e-06
66 5.138404090615044e-06
67 5.138404090615044e-06
68 5.138404090615044e-06
69 5.138404090615044e-06
70 5.138404090615044e-06
71 5.138404090615044e-06
72 5.138404090615044e-06
73 5.138404090615044e-06
74 5.138404090615044e-06
75 5.138404090615044e-06
76 5.138404090615044e-06
77 5.138404090615044e-06
78 5.138404090615044e-06
79 5.138404090615044e-06
80 5.138404090615044e-06
81 5.138404090615044e-06
82 5.138404090615044e-06
83 5.138404090615044e-06
84 5.138404090615044e-06
85 5.138404090615044e-06
86 5.138404090615044e-06
87 5.138404090615044e-06
88 1.1811099099288522e-06
89 1.1811099099288522e-06
90 1.1811099099288522e-06
91 1.1811099099288522e-06
92 1.1811099099288522e-06
93 1.1811099099288522e-06
94 1.1811099099288522e-06
95 1.1811099099288522e-06
96 1.1811099099288522e-06
97 1.1811099099288522e-06
98 1.1811099099288522e-06
99 1.1811099099288522e-06
100 1.1811099099288522e-06
101 1.1811099099288522e-06
102 1.1811099099288522e-06
103 1.1811099099288522e-06
104 1.1811099099288522e-06
105 1.1811099099288522e-06
106 1.1811099099288522e-06
107 1.1811099099288522e-06
108 1.1811099099288522e-06
109 1.1811099099288522e-06
110 1.1811099099288522e-06
111 1.1811099099288522e-06
$EndElementData
$ElementData
1
"Attribute:UniformLoadGlobalX"
1
0
3
0
1
111
1 0
2 0
3 0
4 0
5 0
6 0
7 0
8 0
9 0
10 0
11 0
12 0
13 0
14 0
15 0
16 0
17 0
18 0
19 0
20 0
21 0
22 0
23 0
24 0
25 0
26 0
27 0
28 0
29 0
30 0
31 0
32 0
33 0
34 0
35 0
36 0
37 0
38 0
39 0
40 0
41 0
42 0
43 0
44 0
45 0
46 0
47 0
48 0
49 0
50 0
51 0
52 0
53 0
54 0
55 0
56 0
57 0
58 0
59 0
60 0
61 0
62 0
63 0
64 0
65 0
66 0
67 0
68 0
69 0
70 0
71 0
72 0
73 0
74 0
75 0
76 0
77 0
78 0
79 0
80 0
81 0
82 0
83 0
84 0
85 0
86 0
87 0
88 0
89 0
90 0
91 0
92 0
93 0
94 0
95 0
96 0
97 0
98 0
99 0
100 0
101 0
102 0
103 0
104 0
105 0
106 0
107 0
108 0
109 0
110 0
111 0
$EndElementData
$ElementData
1
"Attribute:UniformLoadGlobalY"
1
0
3
0
1
111
1 0
2 0
3 0
4 0
5 0
6 0
7 0
8 0
9 0
10 0
11 0
12 0
13 0
14 0
15 0
16 0
17 0
18 0
19 0
20 0
21 0
22 0
23 0
24 0
25 0
26 0
27 0
28 -20000
29 -20000
30 -20000
31 -20000
32 -20000
33 -20000
34 -5000
35 -5000
36 -5000
37 -5000
38 -5000
39 -5000
40 -20000
41 -20000
42 -20000
43 -20000
44 -20000
45 -20000
46 -5000
47 -5000
48 -5000
49 -5000
50 -5000
51 -5000
52 -20000
53 -20000
54 -20000
55 -20000
56 -20000
57 -20000
58 -5000
59 -5000
60 -5000
61 -5000
62 -5000
63 -5000
64 0
65 0
66 0
67 0
68 0
69 0
70 0
71 0
72 0
73 0
74 0
75 0
76 0
77 0
78 0
79 0
80 0
81 0
82 0
83 0
84 0
85 0
86 0
87 0
88 0
89 0
90 0
91 0
92 0
93 0
94 0
95 0
96 0
97 0
98 0
99 0
100 0
101 0
102 0
103 0
104 0
105 0
106 0
107 0
108 0
109 0
110 0
111 0
$EndElementData
$ElementData
1
"Attribute:UniformLoadGlobalZ"
1
0
3
0
1
111
1 0
2 0
3 0
4 0
5 0
6 0
7 0
8 0
9 0
10 0
11 0
12 0
13 0
14 0
15 0
16 0
17 0
18 0
19 0
20 0
21 0
22 0
23 0
24 0
25 0
26 0
27 0
28 0
29 0
30 0
31 0
32 0
33 0
34 0
35 0
36 0
37 0
38 0
39 0
40 0
41 0
42 0
43 0
44 0
45 0
46 0
47 0
48 0
49 0
50 0
51 0
52 0
53 0
54 0
55 0
56 0
57 0
58 0
59 0
60 0
61 0
62 0
63 0
64 0
65 0
66 0
67 0
68 0
69 0
70 0
71 0
72 0
73 0
74 0
75 0
76 0
77 0
78 0
79 0
80 0
81 0
82 0
83 0
84 0
85 0
86 0
87 0
88 0
89 0
90 0
91 0
92 0
93 0
94 0
95 0
96 0
97 0
98 0
99 0
100 0
101 0
102 0
103 0
104 0
105 0
106 0
107 0
108 0
109 0
110 0
111 0
$EndElementData
$ElementData
1
"Attribute:UniformLoadLocalX"
1
0
3
0
1
111
1 0
2 0
3 0
4 0
5 0
6 0
7 0
8 0
9 0
10 0
11 0
12 0
13 0
14 0
15 0
16 0
17 0
18 0
19 0
20 0
21 0
22 0
23 0
24 0
25 0
26 0
27 0
28 0
29 0
30 0
31 0
32 0
33 0
34 0
35 0
36 0
37 0
38 0
39 0
40 0
41 0
42 0
43 0
44 0
45 0
46 0
47 0
48 0
49 0
50 0
51 0
52 0
53 0
54 0
55 0
56 0
57 0
58 0
59 0
60 0
61 0
62 0
63 0
64 0
65 0
66 0
67 0
68 0
69 0
70 0
71 0
72 0
73 0
74 0
75 0
76 0
77 0
78 0
79 0
80 0
81 0
82 0
83 0
84 0
85 0
86 0
87 0
88 0
89 0
90 0
91 0
92 0
93 0
94 0
95 0
96 0
97 0
98 0
99 0
100 0
101 0
102 0
103 0
104 0
105 0
106 0
107 0
108 0
109 0
110 0
111 0
$EndElementData
$ElementData
1
"Attribute:UniformLoadLocalY"
1
0
3
0
1
111
1 0
2 0
3 0
4 0
5 0
6 0
7 0
8 0
9 0
10 0
11 0
12 0
13 0
14 0
15 0
16 0
17 0
18 0
19 0
20 0
21 0
22 0
23 0
24 0
25 0
26 0
27 0
28 0
29 0
30 0
31 0
32 0
33 0
34 0
35 0
36 0
37 0
38 0
39 0
40 0
41 0
42 0
43 0
44 0
45 0
46 0
47 0
48 0
49 0
50 0
51 0
52 0
53 0
54 0
55 0
56 0
57 0
58 0
59 0
60 0
61 0
62 0
63 0
64 0
65 0
66 0
67 0
68 0
69 0
70 0
71 0
72 0
73 0
74 0
75 0
76 0
77 0
78 0
79 0
80 0
81 0
82 0
83 0
84 0
85 0
86 0
87 0
88 0
89 0
90 0
91 0
92 0
93 0
94 0
95 0
96 0
97 0
98 0
99 0
100 0
101 0
102 0
103 0
104 0
105 0
106 0
107 0
108 0
109 0
110 0
111 0
$EndElementData
$ElementData
1
"Attribute:UniformLoadLocalZ"
1
0
3
0
1
111
1 0
2 0
3 0
4 0
5 0
6 0
7 0
8 0
9 0
10 0
11 0
12 0
13 0
14 0
15 0
16 0
17 0
18 0
19 0
20 0
21 0
22 0
23 0
24 0
25 0
26 0
27 0
28 0
29 0
30 0
31 0
32 0
33 0
34 0
35 0
36 0
37 0
38 0
39 0
40 0
41 0
42 0
43 0
44 0
45 0
46 0
47 0
48 0
49 0
50 0
51 0
52 0
53 0
54 0
55 0
56 0
57 0
58 0
59 0
60 0
61 0
62 0
63 0
64 0
65 0
66 0
67 0
68 0
69 0
70 0
71 0
72 0
73 0
74 0
75 0
76 0
77 0
78 0
79 0
80 0
81 0
82 0
83 0
84 0
85 0
86 0
87 0
88 0
89 0
90 0
91 0
92 0
93 0
94 0
95 0
96 0
97 0
98 0
99 0
100 0
101 0
102 0
103 0
104 0
105 0
106 0
107 0
108 0
109 0
110 0
111 0
$EndElementData
$ElementData
1
"BeamOrientation"
1
0
3
0
3
111
1 1 0 0
2 1 0 0
3 1 0 0
4 1 0 0
5 1 0 0
6 1 0 0
7 1 0 0
8 1 0 0
9 1 0 0
10 1 0 0
11 1 0 0
12 1 0 0
13 1 0 0
14 1 0 0
15 1 0 0
16 1 0 0
17 1 0 0
18 1 0 0
19 1 0 0
20 1 0 0
21 1 0 0
22 1 0 0
23 1 0 0
24 1 0 0
25 1 0 0
26 1 0 0
27 1 0 0
28 0 0 0
29 0 0 0
30 0 0 0
31 0 0 0
32 0 0 0
33 0 0 0
34 0 0 0
35 0 0 0
36 0 0 0
37 0 0 0
38 0 0 0
39 0 0 0
40 0 0 0
41 0 0 0
42 0 0 0
43 0 0 0
44 0 0 0
45 0 0 0
46 0 0 0
47 0 0 0
48 0 0 0
49 0 0 0
50 0 0 0
51 0 0 0
52 0 0 0
53 0 0 0
54 0 0 0
55 0 0 0
56 0 0 0
57 0 0 0
58 0 0 0
59 0 0 0
60 0 0 0
61 0 0 0
62 0 0 0
63 0 0 0
64 0 0 0
65 0 0 0
66 0 0 0
67 0 0 0
68 0 0 0
69 0 0 0
70 0 0 0
71 0 0 0
72 0 0 0
73 0 0 0
74 0 0 0
75 0 0 0
76 0 0 0
77 0 0 0
78 0 0 0
79 0 0 0
80 0 0 0
81 0 0 0
82 0 0 0
83 0 0 0
84 0 0 0
85 0 0 0
86 0 0 0
87 0 0 0
88 0 0 0
89 0 0 0
90 0 0 0
91 0 0 0
92 0 0 0
93 0 0 0
94 0 0 0
95 0 0 0
96 0 0 0
97 0 0 0
98 0 0 0
99 0 0 0
100 0 0 0
101 0 0 0
102 0 0 0
103 0 0 0
104 0 0 0
105 0 0 0
106 0 0 0
107 0 0 0
108 0 0 0
109 0 0 0
110 0 0 0
111 0 0 0
$EndElementData
$AnafData
1
1
GLOBAL 3 1
"Gravity"
0 -9.80665 0
$EndAnafData
