$MeshFormat
4.1 0 8
$EndMeshFormat
$PhysicalNames
4
1 1 "Material:Structural Steel S355 (EN 10025)"
1 2 "Section:CHS 114.3x5"
1 3 "Section:RHS 250x150x10"
1 4 "Section:RHS 300x200x12.5"
$EndPhysicalNames
$Entities
0 3 0 0
1 0 0 0 0 2 0 2 1 4 0
2 0 2 0 3.8637033051562732 3.035276180410083 0 2 1 3 0
3 0 0.8 0 1.159110991546882 2.310582854123025 0 2 1 2 0
$EndEntities
$Nodes
1 6 1 6
1 1 0 6
1
2
3
4
5
6
0 0 0
0 0.8 0
0 2 0
1.159110991546882 2.310582854123025 0
2.511407148351578 2.672929517266554 0
3.8637033051562732 3.035276180410083 0
$EndNodes
$Elements
3 6 1 6
1 1 1 2
1 1 2
2 2 3
1 2 1 3
3 3 4
4 4 5
5 5 6
1 3 1 1
6 2 4
$EndElements
$NodeData
1
"Displacement"
1
0
3
0
3
6
1 0 0 0
2 0.0004616485408098099 -4.555833928208716e-06 2.7987463043247257e-05
3 0.002539066974453968 1.2032459851175907e-05 0.00014964951472188988
4 0.0032588019015956505 -0.0025448996611058595 0.0007671697048220317
5 0.00485520584694696 -0.00851273559565592 0.0019175545870450093
6 0.007005854397273441 -0.016548322055237593 0.003305094685345297
$EndNodeData
$NodeData
1
"Rotation"
1
0
3
0
3
6
1 0 0 0
2 6.659904036833073e-05 -0.0001220121936318677 -0.0011541213520245286
3 0.00012858940697321866 -0.0003050304840796692 -0.0020197123660429333
4 0.00021985455609499073 -0.0006456366575624744 -0.003112162041639946
5 0.00028561914884450235 -0.0008910734590427306 -0.005440209457099901
6 0.0003075406797610061 -0.0009728857262028156 -0.006190019906689483
$EndNodeData
$ElementData
1
"BeamSectionForce"
1
0
3
0
12
6
1 -14361.388472476794 -1.1059455573558807e-09 -500.00000000001637 -1931.8516525781488 1517.6380902050682 43240.08473393215 -13640.382875003177 -1.1059455573558807e-09 -500.00000000001637 -1931.8516525781488 1117.6380902050532 43240.08473393302
2 33445.09169932471 36033.403944944235 -500.00000000001637 -1931.8516525781486 1117.6380902050573 43240.08473393301 34526.600095535134 36033.403944944235 -500.00000000001637 -1931.8516525781486 517.638090205036 0
3 43741.73714689111 24024.003525408152 500.0000000000109 -1.7337242752546445e-12 -2000.0000000000118 0 43920.88272793273 24692.58393580695 500.0000000000109 -1.7337242752546445e-12 -1400.0000000000018 -29229.952476729053
4 -3006.19680679017 -11219.279220487519 500.00000000000364 -2.8705926524708048e-12 -1400 -29229.95247672899 -2797.1936289082723 -10439.26874168892 500.00000000000364 -2.8705926524708048e-12 -700.0000000000073 -14068.968903205585
5 -2797.1936289066007 -10439.268741689073 500.00000000001455 -8.526512829121202e-13 -700.0000000000018 -14068.968903205687 -2588.190451024703 -9659.258262890475 500.00000000001455 -8.526512829121202e-13 1.0913936421275139e-11 1.2242651337146526e-10
6 -59291.165010314406 -76.59940563592093 1.7210427713086468e-13 0 0 0 -59091.512432375835 76.5994056359192 1.7210427713086468e-13 0 0 0
$EndElementData
$ElementData
1
"AxialForce"
1
0
3
0
1
6
1 -14000.885673739986
2 33985.84589742992
3 43831.30993741192
4 -2901.695217849221
5 -2692.692039965652
6 -59191.33872134512
$EndElementData
$ElementData
1
"VonMisesStress"
1
0
3
0
1
6
1 48393844.931575574
2 51161521.512349814
3 69003815.94896607
4 62885482.30564771
5 30783014.284464452
6 35287174.83922995
$EndElementData
$NodeData
1
"Fixity"
1
0
3
0
3
6
1 1 1 1
2 0 0 0
3 0 0 0
4 0 0 0
5 0 0 0
6 0 0 0
$EndNodeData
$NodeData
1
"FixityRotation"
1
0
3
0
3
6
1 1 1 1
2 0 0 0
3 0 0 0
4 0 0 0
5 0 0 0
6 0 0 0
$EndNodeData
$NodeData
1
"NodalForce"
1
0
3
0
3
6
1 0 0 0
2 0 0 0
3 0 0 0
4 0 0 0
5 0 0 0
6 0 -10000 500
$EndNodeData
$ElementData
1
"CrossSectionArea"
1
0
3
0
1
6
1 0.011707342315154246
2 0.011707342315154246
3 0.007492699081698719
4 0.007492699081698719
5 0.007492699081698719
6 0.0017168803851868209
$EndElementData
$ElementData
1
"Attribute:ElementFormulation"
1
0
3
0
1
6
1 1
2 1
3 1
4 1
5 1
6 1
$EndElementData
$ElementData
1
"Attribute:EndReleases"
1
0
3
0
1
6
1 0
2 0
3 32
4 0
5 0
6 3632
$EndElementData
$ElementData
1
"MaterialID"
1
0
3
0
1
6
1 3
2 3
3 3
4 3
5 3
6 3
$EndElementData
$ElementData
1
"Attribute:SecondMomentY"
1
0
3
0
1
6
1 7.537006012715126e-05
2 7.537006012715126e-05
3 2.7548765072084822e-05
4 2.7548765072084822e-05
5 2.7548765072084822e-05
6 2.569202045307522e-06
$EndElementData
$ElementData
1
"Attribute:SecondMomentZ"
1
0
3
0
1
6
1 0.00014272687359157557
2 0.00014272687359157557
3 6.17354535658701e-05
4 6.17354535658701e-05
5 6.17354535658701e-05
6 2.569202045307522e-06
$EndElementData
$ElementData
1
"Attribute:SectionDimension1"
1
0
3
0
1
6
1 0.3
2 0.3
3 0.25
4 0.25
5 0.25
6 0.1143
$EndElementData
$ElementData
1
"Attribute:SectionDimension2"
1
0
3
0
1
6
1 0.2
2 0.2
3 0.15
4 0.15
5 0.15
6 0.005
$EndElementData
$ElementData
1
"Attribute:SectionDimension3"
1
0
3
0
1
6
1 0.0125
2 0.0125
3 0.01
4 0.01
5 0.01
6 0
$EndElementData
$ElementData
1
"Attribute:SectionDimension4"
1
0
3
0
1
6
1 0.01875
2 0.01875
3 0.015
4 0.015
5 0.015
6 0
$EndElementData
$ElementData
1
"Attribute:SectionDimension5"
1
0
3
0
1
6
1 0.0125
2 0.0125
3 0.01
4 0.01
5 0.01
6 0
$EndElementData
$ElementData
1
"Attribute:SectionShape"
1
0
3
0
1
6
1 4
2 4
3 4
4 4
5 4
6 3
$EndElementData
$ElementData
1
"Attribute:ShearAreaY"
1
0
3
0
1
6
1 0.006545976776311557
2 0.006545976776311557
3 0.004413024476190677
4 0.004413024476190677
5 0.004413024476190677
6 0.0009140558528542028
$EndElementData
$ElementData
1
"Attribute:ShearAreaZ"
1
0
3
0
1
6
1 0.00364191206394748
2 0.00364191206394748
3 0.0021035781032264726
4 0.0021035781032264726
5 0.0021035781032264726
6 0.0009140558528542028
$EndElementData
$ElementData
1
"Attribute:TorsionConstant"
1
0
3
0
1
6
1 0.00015676502090145543
2 0.00015676502090145543
3 6.0904505348335245e-05
4 6.0904505348335245e-05
5 6.0904505348335245e-05
6 5.138404090615044e-06
$EndElementData
$ElementData
1
"Attribute:UniformLoadGlobalX"
1
0
3
0
1
6
1 0
2 0
3 0
4 0
5 0
6 0
$EndElementData
$ElementData
1
"Attribute:UniformLoadGlobalY"
1
0
3
0
1
6
1 0
2 0
3 0
4 0
5 0
6 0
$EndElementData
$ElementData
1
"Attribute:UniformLoadGlobalZ"
1
0
3
0
1
6
1 0
2 0
3 0
4 0
5 0
6 0
$EndElementData
$ElementData
1
"Attribute:UniformLoadLocalX"
1
0
3
0
1
6
1 0
2 0
3 0
4 0
5 0
6 0
$EndElementData
$ElementData
1
"Attribute:UniformLoadLocalY"
1
0
3
0
1
6
1 0
2 0
3 0
4 0
5 0
6 0
$EndElementData
$ElementData
1
"Attribute:UniformLoadLocalZ"
1
0
3
0
1
6
1 0
2 0
3 0
4 0
5 0
6 0
$EndElementData
$ElementData
1
"BeamOrientation"
1
0
3
0
3
6
1 1 0 0
2 1 0 0
3 0 0 0
4 0 0 0
5 0 0 0
6 0 0 0
$EndElementData
$AnafData
1
1
GLOBAL 3 1
"Gravity"
0 -9.80665 0
$EndAnafData
