$MeshFormat
4.1 0 8
$EndMeshFormat
$PhysicalNames
6
1 1 "Material:Structural Steel S355 (EN 10025)"
1 2 "Section:IPE 160"
1 3 "Section:CHS 60.3x4"
1 4 "Section:CHS 88.9x5"
1 5 "Section:SHS 80x80x6.3"
1 6 "Section:SHS 120x120x8"
$EndPhysicalNames
$Entities
0 5 0 0
1 0 0 0 24 2.4 6 2 1 6 0
2 0 0 0 24 2.4 6 2 1 5 0
3 0 0 0 24 2.4 6 2 1 4 0
4 0 2.4 0 24 2.4 6 2 1 2 0
5 0 2.4 0 24 2.4 6 2 1 3 0
$EndEntities
$Nodes
1 36 1 36
1 1 0 36
1
2
3
4
5
6
7
8
9
10
11
12
13
14
15
16
17
18
19
20
21
22
23
24
25
26
27
28
29
30
31
32
33
34
35
36
0 0 0
3 0 0
6 0 0
9 0 0
12 0 0
15 0 0
18 0 0
21 0 0
24 0 0
0 2.4 0
3 2.4 0
6 2.4 0
9 2.4 0
12 2.4 0
15 2.4 0
18 2.4 0
21 2.4 0
24 2.4 0
0 0 6
3 0 6
6 0 6
9 0 6
12 0 6
15 0 6
18 0 6
21 0 6
24 0 6
0 2.4 6
3 2.4 6
6 2.4 6
9 2.4 6
12 2.4 6
15 2.4 6
18 2.4 6
21 2.4 6
24 2.4 6
$EndNodes
$Elements
5 79 1 79
1 1 1 32
1 1 2
2 2 3
3 3 4
4 4 5
5 5 6
6 6 7
7 7 8
8 8 9
9 10 11
10 11 12
11 12 13
12 13 14
13 14 15
14 15 16
15 16 17
16 17 18
34 19 20
35 20 21
36 21 22
37 22 23
38 23 24
39 24 25
40 25 26
41 26 27
42 28 29
43 29 30
44 30 31
45 31 32
46 32 33
47 33 34
48 34 35
49 35 36
1 2 1 18
17 1 10
18 2 11
19 3 12
20 4 13
21 5 14
22 6 15
23 7 16
24 8 17
25 9 18
50 19 28
51 20 29
52 21 30
53 22 31
54 23 32
55 24 33
56 25 34
57 26 35
58 27 36
1 3 1 16
26 10 2
27 11 3
28 12 4
29 13 5
30 5 15
31 6 16
32 7 17
33 8 18
59 28 20
60 29 21
61 30 22
62 31 23
63 23 33
64 24 34
65 25 35
66 26 36
1 4 1 9
67 10 28
68 11 29
69 12 30
70 13 31
71 14 32
72 15 33
73 16 34
74 17 35
75 18 36
1 5 1 4
76 10 29
77 28 11
78 17 36
79 35 18
$EndElements
$NodeData
1
"Fixity"
1
0
3
0
3
36
1 1 1 1
2 0 0 0
3 0 0 0
4 0 0 0
5 0 0 0
6 0 0 0
7 0 0 0
8 0 0 0
9 0 1 1
10 0 0 0
11 0 0 0
12 0 0 0
13 0 0 0
14 0 0 0
15 0 0 0
16 0 0 0
17 0 0 0
18 0 0 0
19 1 1 1
20 0 0 0
21 0 0 0
22 0 0 0
23 0 0 0
24 0 0 0
25 0 0 0
26 0 0 0
27 0 1 1
28 0 0 0
29 0 0 0
30 0 0 0
31 0 0 0
32 0 0 0
33 0 0 0
34 0 0 0
35 0 0 0
36 0 0 0
$EndNodeData
$NodeData
1
"FixityRotation"
1
0
3
0
3
36
1 1 1 0
2 0 0 0
3 0 0 0
4 0 0 0
5 0 0 0
6 0 0 0
7 0 0 0
8 0 0 0
9 1 1 0
10 0 0 0
11 0 0 0
12 0 0 0
13 0 0 0
14 0 0 0
15 0 0 0
16 0 0 0
17 0 0 0
18 0 0 0
19 1 1 0
20 0 0 0
21 0 0 0
22 0 0 0
23 0 0 0
24 0 0 0
25 0 0 0
26 0 0 0
27 1 1 0
28 0 0 0
29 0 0 0
30 0 0 0
31 0 0 0
32 0 0 0
33 0 0 0
34 0 0 0
35 0 0 0
36 0 0 0
$EndNodeData
$NodeData
1
"NodalForce"
1
0
3
0
3
36
1 0 0 0
2 0 0 0
3 0 0 0
4 0 0 0
5 0 0 0
6 0 0 0
7 0 0 0
8 0 0 0
9 0 0 0
10 0 -6000 0
11 0 -12000 0
12 0 -12000 0
13 0 -12000 0
14 0 -12000 0
15 0 -12000 0
16 0 -12000 0
17 0 -12000 0
18 0 -6000 0
19 0 0 0
20 0 0 0
21 0 0 0
22 0 0 0
23 0 0 0
24 0 0 0
25 0 0 0
26 0 0 0
27 0 0 0
28 0 -6000 0
29 0 -12000 0
30 0 -12000 0
31 0 -12000 0
32 0 -12000 0
33 0 -12000 0
34 0 -12000 0
35 0 -12000 0
36 0 -6000 0
$EndNodeData
$ElementData
1
"CrossSectionArea"
1
0
3
0
1
79
1 0.0035153274122871857
2 0.0035153274122871857
3 0.0035153274122871857
4 0.0035153274122871857
5 0.0035153274122871857
6 0.0035153274122871857
7 0.0035153274122871857
8 0.0035153274122871857
9 0.0035153274122871857
10 0.0035153274122871857
11 0.0035153274122871857
12 0.0035153274122871857
13 0.0035153274122871857
14 0.0035153274122871857
15 0.0035153274122871857
16 0.0035153274122871857
17 0.0018146522655262268
18 0.0018146522655262268
19 0.0018146522655262268
20 0.0018146522655262268
21 0.0018146522655262268
22 0.0018146522655262268
23 0.0018146522655262268
24 0.0018146522655262268
25 0.0018146522655262268
26 0.0013178981181809174
27 0.0013178981181809174
28 0.0013178981181809174
29 0.0013178981181809174
30 0.0013178981181809174
31 0.0013178981181809174
32 0.0013178981181809174
33 0.0013178981181809174
34 0.0035153274122871857
35 0.0035153274122871857
36 0.0035153274122871857
37 0.0035153274122871857
38 0.0035153274122871857
39 0.0035153274122871857
40 0.0035153274122871857
41 0.0035153274122871857
42 0.0035153274122871857
43 0.0035153274122871857
44 0.0035153274122871857
45 0.0035153274122871857
46 0.0035153274122871857
47 0.0035153274122871857
48 0.0035153274122871857
49 0.0035153274122871857
50 0.0018146522655262268
51 0.0018146522655262268
52 0.0018146522655262268
53 0.0018146522655262268
54 0.0018146522655262268
55 0.0018146522655262268
56 0.0018146522655262268
57 0.0018146522655262268
58 0.0018146522655262268
59 0.0013178981181809174
60 0.0013178981181809174
61 0.0013178981181809174
62 0.0013178981181809174
63 0.0013178981181809174
64 0.0013178981181809174
65 0.0013178981181809174
66 0.0013178981181809174
67 0.0020091309950592265
68 0.0020091309950592265
69 0.0020091309950592265
70 0.0020091309950592265
71 0.0020091309950592265
72 0.0020091309950592265
73 0.0020091309950592265
74 0.0020091309950592265
75 0.0020091309950592265
76 0.0007074866655884212
77 0.0007074866655884212
78 0.0007074866655884212
79 0.0007074866655884212
$EndElementData
$ElementData
1
"Attribute:ElementFormulation"
1
0
3
0
1
79
1 1
2 1
3 1
4 1
5 1
6 1
7 1
8 1
9 1
10 1
11 1
12 1
13 1
14 1
15 1
16 1
17 1
18 1
19 1
20 1
21 1
22 1
23 1
24 1
25 1
26 1
27 1
28 1
29 1
30 1
31 1
32 1
33 1
34 1
35 1
36 1
37 1
38 1
39 1
40 1
41 1
42 1
43 1
44 1
45 1
46 1
47 1
48 1
49 1
50 1
51 1
52 1
53 1
54 1
55 1
56 1
57 1
58 1
59 1
60 1
61 1
62 1
63 1
64 1
65 1
66 1
67 1
68 1
69 1
70 1
71 1
72 1
73 1
74 1
75 1
76 1
77 1
78 1
79 1
$EndElementData
$ElementData
1
"Attribute:EndReleases"
1
0
3
0
1
79
1 0
2 0
3 0
4 0
5 0
6 0
7 0
8 0
9 0
10 0
11 0
12 0
13 0
14 0
15 0
16 0
17 0
18 3120
19 3120
20 3120
21 3120
22 3120
23 3120
24 3120
25 0
26 3632
27 3632
28 3632
29 3632
30 3632
31 3632
32 3632
33 3632
34 0
35 0
36 0
37 0
38 0
39 0
40 0
41 0
42 0
43 0
44 0
45 0
46 0
47 0
48 0
49 0
50 0
51 3120
52 3120
53 3120
54 3120
55 3120
56 3120
57 3120
58 0
59 3632
60 3632
61 3632
62 3632
63 3632
64 3632
65 3632
66 3632
67 3120
68 3120
69 3120
70 3120
71 3120
72 3120
73 3120
74 3120
75 3120
76 3632
77 3632
78 3632
79 3632
$EndElementData
$ElementData
1
"MaterialID"
1
0
3
0
1
79
1 3
2 3
3 3
4 3
5 3
6 3
7 3
8 3
9 3
10 3
11 3
12 3
13 3
14 3
15 3
16 3
17 3
18 3
19 3
20 3
21 3
22 3
23 3
24 3
25 3
26 3
27 3
28 3
29 3
30 3
31 3
32 3
33 3
34 3
35 3
36 3
37 3
38 3
39 3
40 3
41 3
42 3
43 3
44 3
45 3
46 3
47 3
48 3
49 3
50 3
51 3
52 3
53 3
54 3
55 3
56 3
57 3
58 3
59 3
60 3
61 3
62 3
63 3
64 3
65 3
66 3
67 3
68 3
69 3
70 3
71 3
72 3
73 3
74 3
75 3
76 3
77 3
78 3
79 3
$EndElementData
$ElementData
1
"Attribute:SecondMomentY"
1
0
3
0
1
79
1 7.263067506859291e-06
2 7.263067506859291e-06
3 7.263067506859291e-06
4 7.263067506859291e-06
5 7.263067506859291e-06
6 7.263067506859291e-06
7 7.263067506859291e-06
8 7.263067506859291e-06
9 7.263067506859291e-06
10 7.263067506859291e-06
11 7.263067506859291e-06
12 7.263067506859291e-06
13 7.263067506859291e-06
14 7.263067506859291e-06
15 7.263067506859291e-06
16 7.263067506859291e-06
17 1.6188977199516192e-06
18 1.6188977199516192e-06
19 1.6188977199516192e-06
20 1.6188977199516192e-06
21 1.6188977199516192e-06
22 1.6188977199516192e-06
23 1.6188977199516192e-06
24 1.6188977199516192e-06
25 1.6188977199516192e-06
26 1.1637386331793523e-06
27 1.1637386331793523e-06
28 1.1637386331793523e-06
29 1.1637386331793523e-06
30 1.1637386331793523e-06
31 1.1637386331793523e-06
32 1.1637386331793523e-06
33 1.1637386331793523e-06
34 7.263067506859291e-06
35 7.263067506859291e-06
36 7.263067506859291e-06
37 7.263067506859291e-06
38 7.263067506859291e-06
39 7.263067506859291e-06
40 7.263067506859291e-06
41 7.263067506859291e-06
42 7.263067506859291e-06
43 7.263067506859291e-06
44 7.263067506859291e-06
45 7.263067506859291e-06
46 7.263067506859291e-06
47 7.263067506859291e-06
48 7.263067506859291e-06
49 7.263067506859291e-06
50 1.6188977199516192e-06
51 1.6188977199516192e-06
52 1.6188977199516192e-06
53 1.6188977199516192e-06
54 1.6188977199516192e-06
55 1.6188977199516192e-06
56 1.6188977199516192e-06
57 1.6188977199516192e-06
58 1.6188977199516192e-06
59 1.1637386331793523e-06
60 1.1637386331793523e-06
61 1.1637386331793523e-06
62 1.1637386331793523e-06
63 1.1637386331793523e-06
64 1.1637386331793523e-06
65 1.1637386331793523e-06
66 1.1637386331793523e-06
67 6.831455100798656e-07
68 6.831455100798656e-07
69 6.831455100798656e-07
70 6.831455100798656e-07
71 6.831455100798656e-07
72 6.831455100798656e-07
73 6.831455100798656e-07
74 6.831455100798656e-07
75 6.831455100798656e-07
76 2.817291494622972e-07
77 2.817291494622972e-07
78 2.817291494622972e-07
79 2.817291494622972e-07
$EndElementData
$ElementData
1
"Attribute:SecondMomentZ"
1
0
3
0
1
79
1 7.263067506859291e-06
2 7.263067506859291e-06
3 7.263067506859291e-06
4 7.263067506859291e-06
5 7.263067506859291e-06
6 7.263067506859291e-06
7 7.263067506859291e-06
8 7.263067506859291e-06
9 7.263067506859291e-06
10 7.263067506859291e-06
11 7.263067506859291e-06
12 7.263067506859291e-06
13 7.263067506859291e-06
14 7.263067506859291e-06
15 7.263067506859291e-06
16 7.263067506859291e-06
17 1.6188977199516192e-06
18 1.6188977199516192e-06
19 1.6188977199516192e-06
20 1.6188977199516192e-06
21 1.6188977199516192e-06
22 1.6188977199516192e-06
23 1.6188977199516192e-06
24 1.6188977199516192e-06
25 1.6188977199516192e-06
26 1.1637386331793523e-06
27 1.1637386331793523e-06
28 1.1637386331793523e-06
29 1.1637386331793523e-06
30 1.1637386331793523e-06
31 1.1637386331793523e-06
32 1.1637386331793523e-06
33 1.1637386331793523e-06
34 7.263067506859291e-06
35 7.263067506859291e-06
36 7.263067506859291e-06
37 7.263067506859291e-06
38 7.263067506859291e-06
39 7.263067506859291e-06
40 7.263067506859291e-06
41 7.263067506859291e-06
42 7.263067506859291e-06
43 7.263067506859291e-06
44 7.263067506859291e-06
45 7.263067506859291e-06
46 7.263067506859291e-06
47 7.263067506859291e-06
48 7.263067506859291e-06
49 7.263067506859291e-06
50 1.6188977199516192e-06
51 1.6188977199516192e-06
52 1.6188977199516192e-06
53 1.6188977199516192e-06
54 1.6188977199516192e-06
55 1.6188977199516192e-06
56 1.6188977199516192e-06
57 1.6188977199516192e-06
58 1.6188977199516192e-06
59 1.1637386331793523e-06
60 1.1637386331793523e-06
61 1.1637386331793523e-06
62 1.1637386331793523e-06
63 1.1637386331793523e-06
64 1.1637386331793523e-06
65 1.1637386331793523e-06
66 1.1637386331793523e-06
67 8.692929261758053e-06
68 8.692929261758053e-06
69 8.692929261758053e-06
70 8.692929261758053e-06
71 8.692929261758053e-06
72 8.692929261758053e-06
73 8.692929261758053e-06
74 8.692929261758053e-06
75 8.692929261758053e-06
76 2.817291494622972e-07
77 2.817291494622972e-07
78 2.817291494622972e-07
79 2.817291494622972e-07
$EndElementData
$ElementData
1
"Attribute:SectionDimension1"
1
0
3
0
1
79
1 0.12
2 0.12
3 0.12
4 0.12
5 0.12
6 0.12
7 0.12
8 0.12
9 0.12
10 0.12
11 0.12
12 0.12
13 0.12
14 0.12
15 0.12
16 0.12
17 0.08
18 0.08
19 0.08
20 0.08
21 0.08
22 0.08
23 0.08
24 0.08
25 0.08
26 0.0889
27 0.0889
28 0.0889
29 0.0889
30 0.0889
31 0.0889
32 0.0889
33 0.0889
34 0.12
35 0.12
36 0.12
37 0.12
38 0.12
39 0.12
40 0.12
41 0.12
42 0.12
43 0.12
44 0.12
45 0.12
46 0.12
47 0.12
48 0.12
49 0.12
50 0.08
51 0.08
52 0.08
53 0.08
54 0.08
55 0.08
56 0.08
57 0.08
58 0.08
59 0.0889
60 0.0889
61 0.0889
62 0.0889
63 0.0889
64 0.0889
65 0.0889
66 0.0889
67 0.16
68 0.16
69 0.16
70 0.16
71 0.16
72 0.16
73 0.16
74 0.16
75 0.16
76 0.0603
77 0.0603
78 0.0603
79 0.0603
$EndElementData
$ElementData
1
"Attribute:SectionDimension2"
1
0
3
0
1
79
1 0.12
2 0.12
3 0.12
4 0.12
5 0.12
6 0.12
7 0.12
8 0.12
9 0.12
10 0.12
11 0.12
12 0.12
13 0.12
14 0.12
15 0.12
16 0.12
17 0.08
18 0.08
19 0.08
20 0.08
21 0.08
22 0.08
23 0.08
24 0.08
25 0.08
26 0.005
27 0.005
28 0.005
29 0.005
30 0.005
31 0.005
32 0.005
33 0.005
34 0.12
35 0.12
36 0.12
37 0.12
38 0.12
39 0.12
40 0.12
41 0.12
42 0.12
43 0.12
44 0.12
45 0.12
46 0.12
47 0.12
48 0.12
49 0.12
50 0.08
51 0.08
52 0.08
53 0.08
54 0.08
55 0.08
56 0.08
57 0.08
58 0.08
59 0.005
60 0.005
61 0.005
62 0.005
63 0.005
64 0.005
65 0.005
66 0.005
67 0.082
68 0.082
69 0.082
70 0.082
71 0.082
72 0.082
73 0.082
74 0.082
75 0.082
76 0.004
77 0.004
78 0.004
79 0.004
$EndElementData
$ElementData
1
"Attribute:SectionDimension3"
1
0
3
0
1
79
1 0.008
2 0.008
3 0.008
4 0.008
5 0.008
6 0.008
7 0.008
8 0.008
9 0.008
10 0.008
11 0.008
12 0.008
13 0.008
14 0.008
15 0.008
16 0.008
17 0.0063
18 0.0063
19 0.0063
20 0.0063
21 0.0063
22 0.0063
23 0.0063
24 0.0063
25 0.0063
26 0
27 0
28 0
29 0
30 0
31 0
32 0
33 0
34 0.008
35 0.008
36 0.008
37 0.008
38 0.008
39 0.008
40 0.008
41 0.008
42 0.008
43 0.008
44 0.008
45 0.008
46 0.008
47 0.008
48 0.008
49 0.008
50 0.0063
51 0.0063
52 0.0063
53 0.0063
54 0.0063
55 0.0063
56 0.0063
57 0.0063
58 0.0063
59 0
60 0
61 0
62 0
63 0
64 0
65 0
66 0
67 0.005
68 0.005
69 0.005
70 0.005
71 0.005
72 0.005
73 0.005
74 0.005
75 0.005
76 0
77 0
78 0
79 0
$EndElementData
$ElementData
1
"Attribute:SectionDimension4"
1
0
3
0
1
79
1 0.012
2 0.012
3 0.012
4 0.012
5 0.012
6 0.012
7 0.012
8 0.012
9 0.012
10 0.012
11 0.012
12 0.012
13 0.012
14 0.012
15 0.012
16 0.012
17 0.00945
18 0.00945
19 0.00945
20 0.00945
21 0.00945
22 0.00945
23 0.00945
24 0.00945
25 0.00945
26 0
27 0
28 0
29 0
30 0
31 0
32 0
33 0
34 0.012
35 0.012
36 0.012
37 0.012
38 0.012
39 0.012
40 0.012
41 0.012
42 0.012
43 0.012
44 0.012
45 0.012
46 0.012
47 0.012
48 0.012
49 0.012
50 0.00945
51 0.00945
52 0.00945
53 0.00945
54 0.00945
55 0.00945
56 0.00945
57 0.00945
58 0.00945
59 0
60 0
61 0
62 0
63 0
64 0
65 0
66 0
67 0.0074
68 0.0074
69 0.0074
70 0.0074
71 0.0074
72 0.0074
73 0.0074
74 0.0074
75 0.0074
76 0
77 0
78 0
79 0
$EndElementData
$ElementData
1
"Attribute:SectionDimension5"
1
0
3
0
1
79
1 0.008
2 0.008
3 0.008
4 0.008
5 0.008
6 0.008
7 0.008
8 0.008
9 0.008
10 0.008
11 0.008
12 0.008
13 0.008
14 0.008
15 0.008
16 0.008
17 0.0063
18 0.0063
19 0.0063
20 0.0063
21 0.0063
22 0.0063
23 0.0063
24 0.0063
25 0.0063
26 0
27 0
28 0
29 0
30 0
31 0
32 0
33 0
34 0.008
35 0.008
36 0.008
37 0.008
38 0.008
39 0.008
40 0.008
41 0.008
42 0.008
43 0.008
44 0.008
45 0.008
46 0.008
47 0.008
48 0.008
49 0.008
50 0.0063
51 0.0063
52 0.0063
53 0.0063
54 0.0063
55 0.0063
56 0.0063
57 0.0063
58 0.0063
59 0
60 0
61 0
62 0
63 0
64 0
65 0
66 0
67 0.009
68 0.009
69 0.009
70 0.009
71 0.009
72 0.009
73 0.009
74 0.009
75 0.009
76 0
77 0
78 0
79 0
$EndElementData
$ElementData
1
"Attribute:SectionShape"
1
0
3
0
1
79
1 4
2 4
3 4
4 4
5 4
6 4
7 4
8 4
9 4
10 4
11 4
12 4
13 4
14 4
15 4
16 4
17 4
18 4
19 4
20 4
21 4
22 4
23 4
24 4
25 4
26 3
27 3
28 3
29 3
30 3
31 3
32 3
33 3
34 4
35 4
36 4
37 4
38 4
39 4
40 4
41 4
42 4
43 4
44 4
45 4
46 4
47 4
48 4
49 4
50 4
51 4
52 4
53 4
54 4
55 4
56 4
57 4
58 4
59 3
60 3
61 3
62 3
63 3
64 3
65 3
66 3
67 5
68 5
69 5
70 5
71 5
72 5
73 5
74 5
75 5
76 3
77 3
78 3
79 3
$EndElementData
$ElementData
1
"Attribute:ShearAreaY"
1
0
3
0
1
79
1 0.0015309633621351227
2 0.0015309633621351227
3 0.0015309633621351227
4 0.0015309633621351227
5 0.0015309633621351227
6 0.0015309633621351227
7 0.0015309633621351227
8 0.0015309633621351227
9 0.0015309633621351227
10 0.0015309633621351227
11 0.0015309633621351227
12 0.0015309633621351227
13 0.0015309633621351227
14 0.0015309633621351227
15 0.0015309633621351227
16 0.0015309633621351227
17 0.0007903008191571506
18 0.0007903008191571506
19 0.0007903008191571506
20 0.0007903008191571506
21 0.0007903008191571506
22 0.0007903008191571506
23 0.0007903008191571506
24 0.0007903008191571506
25 0.0007903008191571506
26 0.0007032744663677642
27 0.0007032744663677642
28 0.0007032744663677642
29 0.0007032744663677642
30 0.0007032744663677642
31 0.0007032744663677642
32 0.0007032744663677642
33 0.0007032744663677642
34 0.0015309633621351227
35 0.0015309633621351227
36 0.0015309633621351227
37 0.0015309633621351227
38 0.0015309633621351227
39 0.0015309633621351227
40 0.0015309633621351227
41 0.0015309633621351227
42 0.0015309633621351227
43 0.0015309633621351227
44 0.0015309633621351227
45 0.0015309633621351227
46 0.0015309633621351227
47 0.0015309633621351227
48 0.0015309633621351227
49 0.0015309633621351227
50 0.0007903008191571506
51 0.0007903008191571506
52 0.0007903008191571506
53 0.0007903008191571506
54 0.0007903008191571506
55 0.0007903008191571506
56 0.0007903008191571506
57 0.0007903008191571506
58 0.0007903008191571506
59 0.0007032744663677642
60 0.0007032744663677642
61 0.0007032744663677642
62 0.0007032744663677642
63 0.0007032744663677642
64 0.0007032744663677642
65 0.0007032744663677642
66 0.0007032744663677642
67 0.0007467657340962774
68 0.0007467657340962774
69 0.0007467657340962774
70 0.0007467657340962774
71 0.0007467657340962774
72 0.0007467657340962774
73 0.0007467657340962774
74 0.0007467657340962774
75 0.0007467657340962774
76 0.0003784372030213672
77 0.0003784372030213672
78 0.0003784372030213672
79 0.0003784372030213672
$EndElementData
$ElementData
1
"Attribute:ShearAreaZ"
1
0
3
0
1
79
1 0.0015309633621351227
2 0.0015309633621351227
3 0.0015309633621351227
4 0.0015309633621351227
5 0.0015309633621351227
6 0.0015309633621351227
7 0.0015309633621351227
8 0.0015309633621351227
9 0.0015309633621351227
10 0.0015309633621351227
11 0.0015309633621351227
12 0.0015309633621351227
13 0.0015309633621351227
14 0.0015309633621351227
15 0.0015309633621351227
16 0.0015309633621351227
17 0.0007903008191571506
18 0.0007903008191571506
19 0.0007903008191571506
20 0.0007903008191571506
21 0.0007903008191571506
22 0.0007903008191571506
23 0.0007903008191571506
24 0.0007903008191571506
25 0.0007903008191571506
26 0.0007032744663677642
27 0.0007032744663677642
28 0.0007032744663677642
29 0.0007032744663677642
30 0.0007032744663677642
31 0.0007032744663677642
32 0.0007032744663677642
33 0.0007032744663677642
34 0.0015309633621351227
35 0.0015309633621351227
36 0.0015309633621351227
37 0.0015309633621351227
38 0.0015309633621351227
39 0.0015309633621351227
40 0.0015309633621351227
41 0.0015309633621351227
42 0.0015309633621351227
43 0.0015309633621351227
44 0.0015309633621351227
45 0.0015309633621351227
46 0.0015309633621351227
47 0.0015309633621351227
48 0.0015309633621351227
49 0.0015309633621351227
50 0.0007903008191571506
51 0.0007903008191571506
52 0.0007903008191571506
53 0.0007903008191571506
54 0.0007903008191571506
55 0.0007903008191571506
56 0.0007903008191571506
57 0.0007903008191571506
58 0.0007903008191571506
59 0.0007032744663677642
60 0.0007032744663677642
61 0.0007032744663677642
62 0.0007032744663677642
63 0.0007032744663677642
64 0.0007032744663677642
65 0.0007032744663677642
66 0.0007032744663677642
67 0.0010311633986928104
68 0.0010311633986928104
69 0.0010311633986928104
70 0.0010311633986928104
71 0.0010311633986928104
72 0.0010311633986928104
73 0.0010311633986928104
74 0.0010311633986928104
75 0.0010311633986928104
76 0.0003784372030213672
77 0.0003784372030213672
78 0.0003784372030213672
79 0.0003784372030213672
$EndElementData
$ElementData
1
"Attribute:TorsionConstant"
1
0
3
0
1
79
1 1.1601421473294262e-05
2 1.1601421473294262e-05
3 1.1601421473294262e-05
4 1.1601421473294262e-05
5 1.1601421473294262e-05
6 1.1601421473294262e-05
7 1.1601421473294262e-05
8 1.1601421473294262e-05
9 1.1601421473294262e-05
10 1.1601421473294262e-05
11 1.1601421473294262e-05
12 1.1601421473294262e-05
13 1.1601421473294262e-05
14 1.1601421473294262e-05
15 1.1601421473294262e-05
16 1.1601421473294262e-05
17 2.615096439570015e-06
18 2.615096439570015e-06
19 2.615096439570015e-06
20 2.615096439570015e-06
21 2.615096439570015e-06
22 2.615096439570015e-06
23 2.615096439570015e-06
24 2.615096439570015e-06
25 2.615096439570015e-06
26 2.3274772663587045e-06
27 2.3274772663587045e-06
28 2.3274772663587045e-06
29 2.3274772663587045e-06
30 2.3274772663587045e-06
31 2.3274772663587045e-06
32 2.3274772663587045e-06
33 2.3274772663587045e-06
34 1.1601421473294262e-05
35 1.1601421473294262e-05
36 1.1601421473294262e-05
37 1.1601421473294262e-05
38 1.1601421473294262e-05
39 1.1601421473294262e-05
40 1.1601421473294262e-05
41 1.1601421473294262e-05
42 1.1601421473294262e-05
43 1.1601421473294262e-05
44 1.1601421473294262e-05
45 1.1601421473294262e-05
46 1.1601421473294262e-05
47 1.1601421473294262e-05
48 1.1601421473294262e-05
49 1.1601421473294262e-05
50 2.615096439570015e-06
51 2.615096439570015e-06
52 2.615096439570015e-06
53 2.615096439570015e-06
54 2.615096439570015e-06
55 2.615096439570015e-06
56 2.615096439570015e-06
57 2.615096439570015e-06
58 2.615096439570015e-06
59 2.3274772663587045e-06
60 2.3274772663587045e-06
61 2.3274772663587045e-06
62 2.3274772663587045e-06
63 2.3274772663587045e-06
64 2.3274772663587045e-06
65 2.3274772663587045e-06
66 2.3274772663587045e-06
67 3.604337384329226e-08
68 3.604337384329226e-08
69 3.604337384329226e-08
70 3.604337384329226e-08
71 3.604337384329226e-08
72 3.604337384329226e-08
73 3.604337384329226e-08
74 3.604337384329226e-08
75 3.604337384329226e-08
76 5.634582989245944e-07
77 5.634582989245944e-07
78 5.634582989245944e-07
79 5.634582989245944e-07
$EndElementData
$ElementData
1
"Attribute:UniformLoadGlobalX"
1
0
3
0
1
79
1 0
2 0
3 0
4 0
5 0
6 0
7 0
8 0
9 0
10 0
11 0
12 0
13 0
14 0
15 0
16 0
17 0
18 0
19 0
20 0
21 0
22 0
23 0
24 0
25 0
26 0
27 0
28 0
29 0
30 0
31 0
32 0
33 0
34 0
35 0
36 0
37 0
38 0
39 0
40 0
41 0
42 0
43 0
44 0
45 0
46 0
47 0
48 0
49 0
50 0
51 0
52 0
53 0
54 0
55 0
56 0
57 0
58 0
59 0
60 0
61 0
62 0
63 0
64 0
65 0
66 0
67 0
68 0
69 0
70 0
71 0
72 0
73 0
74 0
75 0
76 0
77 0
78 0
79 0
$EndElementData
$ElementData
1
"Attribute:UniformLoadGlobalY"
1
0
3
0
1
79
1 0
2 0
3 0
4 0
5 0
6 0
7 0
8 0
9 0
10 0
11 0
12 0
13 0
14 0
15 0
16 0
17 0
18 0
19 0
20 0
21 0
22 0
23 0
24 0
25 0
26 0
27 0
28 0
29 0
30 0
31 0
32 0
33 0
34 0
35 0
36 0
37 0
38 0
39 0
40 0
41 0
42 0
43 0
44 0
45 0
46 0
47 0
48 0
49 0
50 0
51 0
52 0
53 0
54 0
55 0
56 0
57 0
58 0
59 0
60 0
61 0
62 0
63 0
64 0
65 0
66 0
67 0
68 0
69 0
70 0
71 0
72 0
73 0
74 0
75 0
76 0
77 0
78 0
79 0
$EndElementData
$ElementData
1
"Attribute:UniformLoadGlobalZ"
1
0
3
0
1
79
1 0
2 0
3 0
4 0
5 0
6 0
7 0
8 0
9 0
10 0
11 0
12 0
13 0
14 0
15 0
16 0
17 0
18 0
19 0
20 0
21 0
22 0
23 0
24 0
25 0
26 0
27 0
28 0
29 0
30 0
31 0
32 0
33 0
34 0
35 0
36 0
37 0
38 0
39 0
40 0
41 0
42 0
43 0
44 0
45 0
46 0
47 0
48 0
49 0
50 0
51 0
52 0
53 0
54 0
55 0
56 0
57 0
58 0
59 0
60 0
61 0
62 0
63 0
64 0
65 0
66 0
67 0
68 0
69 0
70 0
71 0
72 0
73 0
74 0
75 0
76 0
77 0
78 0
79 0
$EndElementData
$ElementData
1
"Attribute:UniformLoadLocalX"
1
0
3
0
1
79
1 0
2 0
3 0
4 0
5 0
6 0
7 0
8 0
9 0
10 0
11 0
12 0
13 0
14 0
15 0
16 0
17 0
18 0
19 0
20 0
21 0
22 0
23 0
24 0
25 0
26 0
27 0
28 0
29 0
30 0
31 0
32 0
33 0
34 0
35 0
36 0
37 0
38 0
39 0
40 0
41 0
42 0
43 0
44 0
45 0
46 0
47 0
48 0
49 0
50 0
51 0
52 0
53 0
54 0
55 0
56 0
57 0
58 0
59 0
60 0
61 0
62 0
63 0
64 0
65 0
66 0
67 0
68 0
69 0
70 0
71 0
72 0
73 0
74 0
75 0
76 0
77 0
78 0
79 0
$EndElementData
$ElementData
1
"Attribute:UniformLoadLocalY"
1
0
3
0
1
79
1 0
2 0
3 0
4 0
5 0
6 0
7 0
8 0
9 0
10 0
11 0
12 0
13 0
14 0
15 0
16 0
17 0
18 0
19 0
20 0
21 0
22 0
23 0
24 0
25 0
26 0
27 0
28 0
29 0
30 0
31 0
32 0
33 0
34 0
35 0
36 0
37 0
38 0
39 0
40 0
41 0
42 0
43 0
44 0
45 0
46 0
47 0
48 0
49 0
50 0
51 0
52 0
53 0
54 0
55 0
56 0
57 0
58 0
59 0
60 0
61 0
62 0
63 0
64 0
65 0
66 0
67 0
68 0
69 0
70 0
71 0
72 0
73 0
74 0
75 0
76 0
77 0
78 0
79 0
$EndElementData
$ElementData
1
"Attribute:UniformLoadLocalZ"
1
0
3
0
1
79
1 0
2 0
3 0
4 0
5 0
6 0
7 0
8 0
9 0
10 0
11 0
12 0
13 0
14 0
15 0
16 0
17 0
18 0
19 0
20 0
21 0
22 0
23 0
24 0
25 0
26 0
27 0
28 0
29 0
30 0
31 0
32 0
33 0
34 0
35 0
36 0
37 0
38 0
39 0
40 0
41 0
42 0
43 0
44 0
45 0
46 0
47 0
48 0
49 0
50 0
51 0
52 0
53 0
54 0
55 0
56 0
57 0
58 0
59 0
60 0
61 0
62 0
63 0
64 0
65 0
66 0
67 0
68 0
69 0
70 0
71 0
72 0
73 0
74 0
75 0
76 0
77 0
78 0
79 0
$EndElementData
$ElementData
1
"BeamOrientation"
1
0
3
0
3
79
1 0 0 0
2 0 0 0
3 0 0 0
4 0 0 0
5 0 0 0
6 0 0 0
7 0 0 0
8 0 0 0
9 0 0 0
10 0 0 0
11 0 0 0
12 0 0 0
13 0 0 0
14 0 0 0
15 0 0 0
16 0 0 0
17 1 0 0
18 1 0 0
19 1 0 0
20 1 0 0
21 1 0 0
22 1 0 0
23 1 0 0
24 1 0 0
25 1 0 0
26 0 0 0
27 0 0 0
28 0 0 0
29 0 0 0
30 0 0 0
31 0 0 0
32 0 0 0
33 0 0 0
34 0 0 0
35 0 0 0
36 0 0 0
37 0 0 0
38 0 0 0
39 0 0 0
40 0 0 0
41 0 0 0
42 0 0 0
43 0 0 0
44 0 0 0
45 0 0 0
46 0 0 0
47 0 0 0
48 0 0 0
49 0 0 0
50 1 0 0
51 1 0 0
52 1 0 0
53 1 0 0
54 1 0 0
55 1 0 0
56 1 0 0
57 1 0 0
58 1 0 0
59 0 0 0
60 0 0 0
61 0 0 0
62 0 0 0
63 0 0 0
64 0 0 0
65 0 0 0
66 0 0 0
67 0 0 0
68 0 0 0
69 0 0 0
70 0 0 0
71 0 0 0
72 0 0 0
73 0 0 0
74 0 0 0
75 0 0 0
76 0 0 0
77 0 0 0
78 0 0 0
79 0 0 0
$EndElementData
$AnafData
1
1
GLOBAL 3 1
"Gravity"
0 -9.80665 0
$EndAnafData
