$MeshFormat
4.1 0 8
$EndMeshFormat
$PhysicalNames
6
1 1 "Material:Structural Steel S355 (EN 10025)"
1 2 "Section:IPE 160"
1 3 "Section:CHS 60.3x4"
1 4 "Section:CHS 88.9x5"
1 5 "Section:SHS 80x80x6.3"
1 6 "Section:SHS 120x120x8"
$EndPhysicalNames
$Entities
0 5 0 0
1 0 0 0 24 2.4 6 2 1 6 0
2 0 0 0 24 2.4 6 2 1 5 0
3 0 0 0 24 2.4 6 2 1 4 0
4 0 2.4 0 24 2.4 6 2 1 2 0
5 0 2.4 0 24 2.4 6 2 1 3 0
$EndEntities
$Nodes
1 36 1 36
1 1 0 36
1
2
3
4
5
6
7
8
9
10
11
12
13
14
15
16
17
18
19
20
21
22
23
24
25
26
27
28
29
30
31
32
33
34
35
36
0 0 0
3 0 0
6 0 0
9 0 0
12 0 0
15 0 0
18 0 0
21 0 0
24 0 0
0 2.4 0
3 2.4 0
6 2.4 0
9 2.4 0
12 2.4 0
15 2.4 0
18 2.4 0
21 2.4 0
24 2.4 0
0 0 6
3 0 6
6 0 6
9 0 6
12 0 6
15 0 6
18 0 6
21 0 6
24 0 6
0 2.4 6
3 2.4 6
6 2.4 6
9 2.4 6
12 2.4 6
15 2.4 6
18 2.4 6
21 2.4 6
24 2.4 6
$EndNodes
$Elements
5 79 1 79
1 1 1 32
1 1 2
2 2 3
3 3 4
4 4 5
5 5 6
6 6 7
7 7 8
8 8 9
9 10 11
10 11 12
11 12 13
12 13 14
13 14 15
14 15 16
15 16 17
16 17 18
34 19 20
35 20 21
36 21 22
37 22 23
38 23 24
39 24 25
40 25 26
41 26 27
42 28 29
43 29 30
44 30 31
45 31 32
46 32 33
47 33 34
48 34 35
49 35 36
1 2 1 18
17 1 10
18 2 11
19 3 12
20 4 13
21 5 14
22 6 15
23 7 16
24 8 17
25 9 18
50 19 28
51 20 29
52 21 30
53 22 31
54 23 32
55 24 33
56 25 34
57 26 35
58 27 36
1 3 1 16
26 10 2
27 11 3
28 12 4
29 13 5
30 5 15
31 6 16
32 7 17
33 8 18
59 28 20
60 29 21
61 30 22
62 31 23
63 23 33
64 24 34
65 25 35
66 26 36
1 4 1 9
67 10 28
68 11 29
69 12 30
70 13 31
71 14 32
72 15 33
73 16 34
74 17 35
75 18 36
1 5 1 4
76 10 29
77 28 11
78 17 36
79 35 18
$EndElements
$NodeData
1
"Displacement"
1
0
3
0
3
36
1 0 0 0
2 1.7872925465769585e-06 -0.006158361942057205 6.977726330895155e-07
3 0.00026565136230250434 -0.011090977387399597 2.161628821879203e-06
4 0.0007177984621761143 -0.014270459729794429 3.203700360010611e-06
5 0.0012826017318638744 -0.015417563518970657 3.4796883424423072e-06
6 0.001847405001551629 -0.014270459729794365 3.2037003600121176e-06
7 0.002299552101425234 -0.01109097738739953 2.1616288218811006e-06
8 0.0025634161711811576 -0.006158361942057161 6.977726330903645e-07
9 0.0025652034637277353 0 0
10 0.003161900312869719 -0.00037300010013929075 -1.3094849750209583e-05
11 0.0029017771922538664 -0.006477348112945989 -1.3057430320813678e-05
12 0.0024496300923802557 -0.011316783355177447 -3.697688313842196e-08
13 0.0018848268226924953 -0.014402731864198007 1.8832317615037718e-08
14 0.0012826017318638655 -0.015502012259921408 -8.990326792535335e-09
15 0.0006803766410352352 -0.01440273186419794 1.8832317624747697e-08
16 0.00011557337134748068 -0.011316783355177376 -3.697688312521063e-08
17 -0.00033657372852612403 -0.006477348112945943 -1.305743032080982e-05
18 -0.0005966968491419739 -0.0003730001001392866 -1.3094849750230474e-05
19 0 0 0
20 1.7872925465758078e-06 -0.006158361942057332 -6.977726330932843e-07
21 0.0002656513623025065 -0.011090977387399848 -2.161628821890049e-06
22 0.0007177984621761259 -0.014270459729794757 -3.2037003600260195e-06
23 0.0012826017318638989 -0.015417563518971018 -3.479688342458035e-06
24 0.0018474050015516656 -0.014270459729794687 -3.203700360024462e-06
25 0.0022995521014252777 -0.01109097738739976 -2.161628821888104e-06
26 0.0025634161711812057 -0.00615836194205728 -6.977726330924198e-07
27 0.0025652034637277834 0 0
28 0.003161900312869789 -0.000373000100139297 1.309484975027975e-05
29 0.0029017771922539314 -0.006477348112946125 1.3057430320816807e-05
30 0.00244963009238031 -0.011316783355177705 3.697688310194351e-08
31 0.0018848268226925352 -0.014402731864198336 -1.883231766485916e-08
32 0.001282601731863889 -0.015502012259921769 8.99032674698865e-09
33 0.0006803766410352429 -0.014402731864198269 -1.883231765514902e-08
34 0.00011557337134747421 -0.011316783355177612 3.697688311515418e-08
35 -0.00033657372852613943 -0.006477348112946067 1.3057430320820351e-05
36 -0.0005966968491419937 -0.0003730001001392918 1.3094849750258545e-05
$EndNodeData
$NodeData
1
"Rotation"
1
0
3
0
3
36
1 0 0 -0.00194473200448374
2 0 -4.6518175539301386e-07 -0.0019477120665064287
3 0 -5.107223704667806e-07 -0.0013553971168901412
4 0 -1.8399198828749424e-07 -0.0007427972536702304
5 0 -3.062083505400476e-19 1.4179442235118432e-17
6 0 1.8399198828709595e-07 0.0007427972536702445
7 0 5.107223704669139e-07 0.0013553971168901366
8 0 4.651817553935744e-07 0.0019477120665064168
9 0 0 0.0019447320044837261
10 -8.184281093881873e-06 1.3663807845331474e-06 -0.0019321002642571433
11 -8.184281093883218e-06 -2.8884882752812203e-06 -0.0019224810493116277
12 -8.184281093884682e-06 -2.66047998031959e-06 -0.0013217587935345043
13 -8.18428109388615e-06 6.402810567573486e-07 -0.0007158675278023675
14 -8.184281093887592e-06 -1.7685933673004367e-18 1.2801054269736503e-17
15 -8.18428109388902e-06 -6.402810567598727e-07 0.0007158675278023779
16 -8.184281093890428e-06 2.6604799803201505e-06 0.0013217587935345028
17 -8.18428109389184e-06 2.8884882752872944e-06 0.0019224810493116144
18 -8.184281093893259e-06 -1.3663807845241672e-06 0.0019321002642571311
19 0 0 -0.0019447320044837769
20 0 4.651817553955202e-07 -0.001947712066506474
21 0 5.107223704689862e-07 -0.0013553971168901746
22 0 1.839919882883244e-07 -0.0007427972536702526
23 0 -3.179015245939705e-19 1.463684347281837e-17
24 0 -1.8399198828873472e-07 0.0007427972536702682
25 0 -5.107223704688419e-07 0.001355397116890171
26 0 -4.651817553949503e-07 0.0019477120665064563
27 0 0 0.0019447320044837626
28 8.184281093924004e-06 -1.3663807845098297e-06 -0.0019321002642571816
29 8.184281093922544e-06 2.888488275299718e-06 -0.0019224810493116721
30 8.184281093921104e-06 2.660479980327776e-06 -0.0013217587935345394
31 8.184281093919706e-06 -6.40281056756278e-07 -0.0007158675278023829
32 8.18428109391825e-06 -1.7564666094542018e-18 1.2972772676729069e-17
33 8.184281093916787e-06 6.402810567537085e-07 0.0007158675278024009
34 8.184281093915305e-06 -2.660479980327135e-06 0.001321758793534538
35 8.184281093913848e-06 -2.8884882752936196e-06 0.001922481049311653
36 8.184281093912393e-06 1.3663807845187729e-06 0.0019321002642571682
$EndNodeData
$ElementData
1
"BeamSectionForce"
1
0
3
0
12
79
1 439.8042937930988 -622.6438973656888 -3.552713678800501e-15 0 -0.2365052544665081 -529.5544834039715 439.8042937930988 189.20904275379064 -3.552713678800501e-15 0 -0.23650525446651904 120.59779851387424
2 64929.801827146875 -390.9802093685465 -2.7755575615628914e-15 0 -0.02315351931092202 120.59779851387265 64929.801827146875 420.8727307509329 -2.7755575615628914e-15 0 -0.02315351931093046 75.75901644029585
3 111261.15662002971 -427.7481632717154 -2.3037127760972e-15 0 0.16611453756171043 75.7590164402946 111261.15662002971 384.104776847764 -2.3037127760972e-15 0 0.1661145375617024 141.22409607622166
4 138982.78915379706 -428.23429053046493 -3.60784653300251e-15 0 0.09354423621558233 141.22409607621108 138982.78915379706 383.61864958901447 -3.60784653300251e-15 0 0.09354423621557284 208.1475574883831
5 138982.78915379575 -383.61864958901424 -3.247402347028583e-15 0 0.09354423621569166 208.1475574883762 138982.78915379575 428.23429053046516 -3.247402347028583e-15 0 0.09354423621568148 141.22409607620347
6 111261.15662002849 -384.1047768477721 -1.6653345369377348e-15 0 0.16611453756197914 141.22409607620187 111261.15662002849 427.7481632717073 -1.6653345369377348e-15 0 0.16611453756197458 75.7590164402963
7 64929.80182714597 -420.87273075093105 -2.7200464103316335e-15 0 -0.023153519310705306 75.75901644029335 64929.80182714597 390.98020936854834 -2.7200464103316335e-15 0 -0.023153519310712967 120.59779851386742
8 439.8042937932769 -189.20904275379405 -2.0539125955565396e-15 0 -0.2365052544667955 120.59779851386673 439.8042937932769 622.6438973656853 -2.0539125955565396e-15 0 -0.2365052544668016 -529.554483403967
9 -64009.25555294147 -624.528561523664 -1.5223576055546673 -4.205524817280093e-13 0.12029832333249146 -525.9758216998962 -64009.25555294147 187.32437859581535 -1.5223576055546673 -4.205524817280093e-13 -4.446774493331507 129.83045269187454
10 -111261.15662002983 -387.67470541907016 3.1840326687849516 -4.569677969357144e-13 -4.660126228487311 129.83045269187818 -111261.15662002983 424.17823470040923 3.1840326687849516 -4.569677969357144e-13 4.89197177786754 75.07515876986776
11 -138982.78915379714 -425.93023521859936 -2.0163654696359354 -4.591882429849647e-13 4.702703720994951 75.07515876986355 -138982.78915379714 385.92270490088003 -2.0163654696359354 -4.591882429849647e-13 -1.3463926879128547 135.086454246448
12 -148191.2859109916 -423.1984056273963 0.6321960459095801 -4.503064587879635e-13 -1.273822386566697 135.08645424644658 -148191.2859109916 388.6545344920831 0.6321960459095801 -4.503064587879635e-13 0.622765751162043 186.9022609494146
13 -148191.28591099172 -388.6545344920752 -0.632196045909161 -4.4630965589931293e-13 0.6227657511619294 186.9022609494204 -148191.28591099172 423.1984056274042 -0.632196045909161 -4.4630965589931293e-13 -1.2738223865655536 135.08645424642685
14 -138982.7891537957 -385.92270490088265 2.016365469636312 -4.39648317751562e-13 -1.346392687911852 135.086454246433 -138982.7891537957 425.93023521859675 2.016365469636312 -4.39648317751562e-13 4.702703720997084 75.07515876986457
15 -111261.15662002843 -424.1782347004113 -3.184032668784546 -4.418687638008123e-13 4.891971777869735 75.07515876985934 -111261.15662002843 387.6747054190681 -3.184032668784546 -4.418687638008123e-13 -4.6601262284839 129.8304526918759
16 -64009.25555294081 -187.32437859581717 1.5223576055531984 -4.4275694222051243e-13 -4.446774493327826 129.8304526918718 -64009.25555294081 624.5285615236622 1.5223576055531984 -4.4275694222051243e-13 0.12029832333176893 -525.9758216998935
17 -59393.36433024261 -439.80429379327916 0.966110396002704 0.12029832333256045 -2.318664950406988 -529.5544834039731 -59058.09410263024 -439.80429379327916 0.966110396002704 0.12029832333256045 -5.009326287108706e-13 525.9758216998979
18 -50816.92066035718 1.6880162873464226e-13 8.006581893367223e-16 -0.21335173515559724 0 0 -50481.650432744806 1.6880162873464226e-13 8.006581893367223e-16 -0.21335173515559724 0 0
19 -36021.57482608031 1.271242933625909e-13 1.2797569536008086e-16 -0.1892680568726425 0 0 -35686.304598467934 1.271242933625909e-13 1.2797569536008086e-16 -0.1892680568726425 0 0
20 -21170.078845432217 6.792999108533731e-14 1.8538371906590027e-16 0.07257030134612022 0 0 -20834.808617819843 6.792999108533731e-14 1.8538371906590027e-16 0.07257030134612022 0 0
21 -13576.581283929017 -5.174927538249837e-28 2.0306782501486844e-16 -1.287506876372246e-13 0 0 -13241.31105631664 -5.174927538249837e-28 2.0306782501486844e-16 -1.287506876372246e-13 0 0
22 -21170.07884543175 -6.792999108533804e-14 1.8538371906542277e-16 -0.07257030134630738 0 0 -20834.808617819377 -6.792999108533804e-14 1.8538371906542277e-16 -0.07257030134630738 0 0
23 -36021.57482607961 -1.27124293362591e-13 1.279756953594223e-16 0.18926805687268008 0 0 -35686.304598467235 -1.27124293362591e-13 1.279756953594223e-16 0.18926805687268008 0 0
24 -50816.92066035683 -1.688016287346418e-13 8.006581893365473e-16 0.2133517351560827 0 0 -50481.650432744456 -1.688016287346418e-13 8.006581893365473e-16 0.2133517351560827 0 0
25 -59393.36433024195 439.8042937932728 0.966110396004837 -0.1202983233317698 -2.3186649504111605 529.5544834039653 -59058.09410262958 439.8042937932728 0.966110396004837 -0.1202983233317698 4.4586556668946287e-13 -525.9758216998905
26 82709.23889533027 -152.18204971225848 0 0 0 0 82465.74761579065 152.18204971225848 0 0 0 0
27 59454.829805251655 -152.18204971225848 0 0 0 0 59211.338525712046 152.18204971225848 0 0 0 0
28 35622.75707540438 -152.18204971225848 0 0 0 0 35379.26579586477 152.18204971225848 0 0 0 0
29 11914.375395032674 -152.18204971225848 0 0 0 0 11670.884115493061 152.18204971225848 0 0 0 0
30 11670.884115494924 -152.18204971225848 0 0 0 0 11914.375395034536 152.18204971225848 0 0 0 0
31 35379.26579586477 -152.18204971225848 0 0 0 0 35622.75707540438 152.18204971225848 0 0 0 0
32 59211.33852571135 -152.18204971225848 0 0 0 0 59454.829805250956 152.18204971225848 0 0 0 0
33 82465.74761578944 -152.18204971225848 0 0 0 0 82709.23889532906 152.18204971225848 0 0 0 0
34 439.80429379281566 -622.6438973656908 -2.7755575615628914e-15 0 0.23650525446779197 -529.554483403979 439.80429379281566 189.2090427537886 -2.7755575615628914e-15 0 0.2365052544677837 120.59779851387287
35 64929.8018271477 -390.98020936855266 -3.552713678800501e-15 0 0.023153519310778803 120.59779851387196 64929.8018271477 420.87273075092673 -3.552713678800501e-15 0 0.023153519310768145 75.75901644030813
36 111261.15662003202 -427.74816327171106 -3.1086244689504383e-15 0 -0.16611453756240135 75.75901644030802 111261.15662003202 384.10477684776833 -3.1086244689504383e-15 0 -0.16611453756241001 141.2240960762221
37 138982.78915380026 -428.23429053046357 -3.9514908301344815e-15 0 -0.09354423621631151 141.22409607622154 138982.78915380026 383.61864958901583 -3.9514908301344815e-15 0 -0.09354423621632292 208.14755748839679
38 138982.78915379866 -383.6186495890146 -3.9968028886505635e-15 0 -0.09354423621619645 208.14755748839224 138982.78915379866 428.2342905304648 -3.9968028886505635e-15 0 -0.09354423621620844 141.22409607621142
39 111261.15662003023 -384.1047768477673 -4.884981308350689e-15 0 -0.16611453756211647 141.2240960762121 111261.15662003023 427.7481632717121 -4.884981308350689e-15 0 -0.16611453756213113 75.75901644029767
40 64929.80182714702 -420.87273075093015 -2.6645352591003757e-15 0 0.023153519310993964 75.75901644029608 64929.80182714702 390.98020936854925 -2.6645352591003757e-15 0 0.023153519310985637 120.59779851386833
41 439.8042937933933 -189.2090427537911 -3.774758283725532e-15 0 0.2365052544675038 120.5977985138706 439.8042937933933 622.6438973656883 -3.774758283725532e-15 0 0.23650525446749238 -529.5544834039738
42 -64009.25555294275 -624.5285615236677 1.5223576055517407 -4.560796185160143e-13 -0.12029832333055435 -525.9758216999048 -64009.25555294275 187.3243785958117 1.5223576055517407 -4.560796185160143e-13 4.446774493324668 129.83045269187636
43 -111261.15662003262 -387.6747054190736 -3.184032668784668 -4.503064587879635e-13 4.660126228481643 129.8304526918775 -111261.15662003262 424.1782347004058 -3.184032668784668 -4.503064587879635e-13 -4.891971777872357 75.0751587698764
44 -138982.78915380064 -425.9302352185965 2.0163654696363023 -4.3653969328261155e-13 -4.70270372099912 75.0751587698773 -138982.78915380064 385.9227049008829 2.0163654696363023 -4.3653969328261155e-13 1.3463926879097883 135.08645424645323
45 -148191.28591099562 -423.19840562740194 -0.6321960459091779 -4.551914400963142e-13 1.2738223865637577 135.0864542464464 -148191.28591099562 388.65453449207746 -0.6321960459091779 -4.551914400963142e-13 -0.6227657511637763 186.90226094943313
46 -148191.2859109956 -388.65453449207666 0.6321960459095756 -4.569677969357144e-13 -0.6227657511638931 186.90226094942983 -148191.2859109956 423.19840562740274 0.6321960459095756 -4.569677969357144e-13 1.2738223865648337 135.0864542464389
47 -138982.78915379918 -385.92270490088015 -2.0163654696358906 -4.631850458736153e-13 1.3463926879108028 135.08645424644277 -138982.78915379918 425.93023521859925 -2.0163654696358906 -4.631850458736153e-13 -4.70270372099687 75.07515876986685
48 -111261.15662003063 -424.17823470041037 3.1840326687849685 -4.551914400963142e-13 -4.891971777870033 75.07515876986389 -111261.15662003063 387.674705419069 3.1840326687849685 -4.551914400963142e-13 4.6601262284848675 129.8304526918741
49 -64009.25555294189 -187.32437859581398 -1.5223576055532249 -4.547473508864641e-13 4.4467744933283395 129.83045269187636 -64009.25555294189 624.5285615236654 -1.5223576055532249 -4.547473508864641e-13 -0.12029832333133328 -525.9758216998989
50 -59393.3643302436 -439.80429379328507 -0.9661103960084905 -0.12029832333050751 2.3186649504199 -529.5544834039799 -59058.09410263123 -439.80429379328507 -0.9661103960084905 -0.12029832333050751 -4.75175454539567e-13 525.9758216999052
51 -50816.92066035858 1.688016287346461e-13 -8.006581893371238e-16 0.21335173515700517 0 0 -50481.6504327462 1.688016287346461e-13 -8.006581893371238e-16 0.21335173515700517 0 0
52 -36021.57482608124 1.2712429336259394e-13 -1.2797569535858885e-16 0.18926805687316897 0 0 -35686.304598468865 1.2712429336259394e-13 -1.2797569535858885e-16 0.18926805687316897 0 0
53 -21170.078845432683 6.792999108533895e-14 -1.8538371906389718e-16 -0.07257030134609904 0 0 -20834.80861782031 6.792999108533895e-14 -1.8538371906389718e-16 -0.07257030134609904 0 0
54 -13576.581283929017 -5.806016262426647e-28 -2.0306782501313275e-16 -1.266535431940935e-13 0 0 -13241.31105631664 -5.806016262426647e-28 -2.0306782501313275e-16 -1.266535431940935e-13 0 0
55 -21170.078845432683 -6.792999108533973e-14 -1.853837190643717e-16 0.07257030134590894 0 0 -20834.80861782031 -6.792999108533973e-14 -1.853837190643717e-16 0.07257030134590894 0 0
56 -36021.57482608054 -1.2712429336259394e-13 -1.279756953592446e-16 -0.18926805687312528 0 0 -35686.30459846817 -1.2712429336259394e-13 -1.279756953592446e-16 -0.18926805687312528 0 0
57 -50816.920660357646 -1.688016287346455e-13 -8.006581893372798e-16 -0.21335173515651845 0 0 -50481.65043274527 -1.688016287346455e-13 -8.006581893372798e-16 -0.21335173515651845 0 0
58 -59393.36433024278 439.8042937932788 -0.9661103960063446 0.12029832333129488 2.31866495041568 529.5544834039724 -59058.094102630406 439.8042937932788 -0.9661103960063446 0.12029832333129488 4.556355293061642e-13 -525.9758216998978
59 82709.23889533167 -152.18204971225848 0 0 0 0 82465.74761579205 152.18204971225848 0 0 0 0
60 59454.82980525323 -152.18204971225848 0 0 0 0 59211.33852571362 152.18204971225848 0 0 0 0
61 35622.75707540519 -152.18204971225848 0 0 0 0 35379.265795865584 152.18204971225848 0 0 0 0
62 11914.37539503314 -152.18204971225848 0 0 0 0 11670.884115493527 152.18204971225848 0 0 0 0
63 11670.884115495506 -152.18204971225848 0 0 0 0 11914.375395035118 152.18204971225848 0 0 0 0
64 35379.265795866224 -152.18204971225848 0 0 0 0 35622.75707540583 152.18204971225848 0 0 0 0
65 59211.33852571269 -152.18204971225848 0 0 0 0 59454.829805252295 152.18204971225848 0 0 0 0
66 82465.74761579074 -152.18204971225848 0 0 0 0 82709.23889533036 152.18204971225848 0 0 0 0
67 1841.648795620209 -464.0019873320276 0 -1.865174681370263e-14 0 0 1841.648795620209 464.0019873320276 0 -1.865174681370263e-14 0 0
68 1836.386158136323 -464.0019873320276 0 -2.1649348980190553e-14 0 0 1836.386158136323 464.0019873320276 0 -2.1649348980190553e-14 0 0
69 5.200398138420902 -464.0019873320276 0 -1.709743457922741e-14 0 0 5.200398138420902 464.0019873320276 0 -1.709743457922741e-14 0 0
70 -2.6485615155454725 -464.0019873320276 0 -7.438494264988549e-15 0 0 -2.6485615155454725 464.0019873320276 0 -7.438494264988549e-15 0 0
71 1.264392091818766 -464.0019873320276 0 8.334938461863641e-17 0 0 1.264392091818766 464.0019873320276 0 8.334938461863641e-17 0 0
72 -2.6485615155454614 -464.0019873320276 0 1.1157741397482823e-14 0 0 -2.6485615155454614 464.0019873320276 0 1.1157741397482823e-14 0 0
73 5.200398138420856 -464.0019873320276 0 1.6986412276764895e-14 0 0 5.200398138420856 464.0019873320276 0 1.6986412276764895e-14 0 0
74 1836.3861581363012 -464.0019873320276 0 1.865174681370263e-14 0 0 1836.3861581363012 464.0019873320276 0 1.865174681370263e-14 0 0
75 1841.6487956201872 -464.0019873320276 0 1.7985612998927536e-14 0 0 1841.6487956201872 464.0019873320276 0 1.7985612998927536e-14 0 0
76 -2058.404045557272 -182.6774128886565 0 0 0 0 -2058.404045557272 182.6774128886565 0 0 0 0
77 -2058.4040455572867 -182.6774128886565 0 0 0 0 -2058.4040455572867 182.6774128886565 0 0 0 0
78 -2058.4040455572567 -182.6774128886565 0 0 0 0 -2058.4040455572567 182.6774128886565 0 0 0 0
79 -2058.404045557256 -182.6774128886565 0 0 0 0 -2058.404045557256 182.6774128886565 0 0 0 0
$EndElementData
$ElementData
1
"AxialForce"
1
0
3
0
1
79
1 439.8042937930988
2 64929.801827146875
3 111261.15662002971
4 138982.78915379706
5 138982.78915379575
6 111261.15662002849
7 64929.80182714597
8 439.8042937932769
9 -64009.25555294147
10 -111261.15662002983
11 -138982.78915379714
12 -148191.2859109916
13 -148191.28591099172
14 -138982.7891537957
15 -111261.15662002843
16 -64009.25555294081
17 -59225.729216436426
18 -50649.28554655099
19 -35853.93971227412
20 -21002.44373162603
21 -13408.946170122828
22 -21002.443731625564
23 -35853.93971227342
24 -50649.28554655064
25 -59225.729216435764
26 82587.49325556046
27 59333.08416548185
28 35501.01143563457
29 11792.629755262868
30 11792.62975526473
31 35501.01143563457
32 59333.08416548115
33 82587.49325555925
34 439.80429379281566
35 64929.8018271477
36 111261.15662003202
37 138982.78915380026
38 138982.78915379866
39 111261.15662003023
40 64929.80182714702
41 439.8042937933933
42 -64009.25555294275
43 -111261.15662003262
44 -138982.78915380064
45 -148191.28591099562
46 -148191.2859109956
47 -138982.78915379918
48 -111261.15662003063
49 -64009.25555294189
50 -59225.729216437416
51 -50649.28554655239
52 -35853.93971227505
53 -21002.443731626496
54 -13408.946170122828
55 -21002.443731626496
56 -35853.939712274354
57 -50649.28554655146
58 -59225.72921643659
59 82587.49325556186
60 59333.08416548342
61 35501.01143563539
62 11792.629755263333
63 11792.629755265312
64 35501.01143563603
65 59333.08416548249
66 82587.49325556055
67 1841.648795620209
68 1836.386158136323
69 5.200398138420902
70 -2.6485615155454725
71 1.264392091818766
72 -2.6485615155454614
73 5.200398138420856
74 1836.3861581363012
75 1841.6487956201872
76 -2058.404045557272
77 -2058.4040455572867
78 -2058.4040455572567
79 -2058.404045557256
$EndElementData
$ElementData
1
"VonMisesStress"
1
0
3
0
1
79
1 4552319.08267941
2 21800107.180154767
3 35069919.241974846
4 43502527.9621297
5 43502527.962129235
6 35069919.24197443
7 21800107.180154487
8 4552319.082679451
9 22564833.305475738
10 35017405.177108176
11 42935526.903360374
12 46007174.95545195
13 46007174.95545192
14 42935526.90335993
15 35017405.1771077
16 22564833.305475544
17 45867468.307042584
18 28003669.1266683
19 19850401.412975844
20 11666190.550755862
21 7481643.476190727
22 11666190.550755605
23 19850401.412975464
24 28003669.126668107
25 45867468.30704211
26 68249007.73175435
27 50603934.285427205
28 32520538.91436281
29 14530998.332048172
30 14530998.332049586
31 32520538.91436281
32 50603934.285426676
33 68249007.73175342
34 4552319.082679401
35 21800107.18015507
36 35069919.24197556
37 43502527.96213068
38 43502527.962130204
39 35069919.24197496
40 21800107.180154797
41 4552319.082679531
42 22564833.30547616
43 35017405.177108966
44 42935526.90336148
45 46007174.95545315
46 46007174.955453105
47 42935526.90336097
48 35017405.17710835
49 22564833.30547589
50 45867468.30704354
51 28003669.126669068
52 19850401.41297636
53 11666190.55075612
54 7481643.476190727
55 11666190.55075612
56 19850401.412975974
57 28003669.126668558
58 45867468.307042815
59 68249007.7317554
60 50603934.2854284
61 32520538.91436343
62 14530998.332048526
63 14530998.332050027
64 32520538.914363913
65 50603934.28542769
66 68249007.7317544
67 7321872.609719934
68 7319253.249659874
69 6407821.50902122
70 6406551.389437604
71 6405862.45007669
72 6406551.389437604
73 6407821.50902122
74 7319253.249659863
75 7321872.609719923
76 35695325.15112676
77 35695325.15112678
78 35695325.151126735
79 35695325.151126735
$EndElementData
$NodeData
1
"Fixity"
1
0
3
0
3
36
1 1 1 1
2 0 0 0
3 0 0 0
4 0 0 0
5 0 0 0
6 0 0 0
7 0 0 0
8 0 0 0
9 0 1 1
10 0 0 0
11 0 0 0
12 0 0 0
13 0 0 0
14 0 0 0
15 0 0 0
16 0 0 0
17 0 0 0
18 0 0 0
19 1 1 1
20 0 0 0
21 0 0 0
22 0 0 0
23 0 0 0
24 0 0 0
25 0 0 0
26 0 0 0
27 0 1 1
28 0 0 0
29 0 0 0
30 0 0 0
31 0 0 0
32 0 0 0
33 0 0 0
34 0 0 0
35 0 0 0
36 0 0 0
$EndNodeData
$NodeData
1
"FixityRotation"
1
0
3
0
3
36
1 1 1 0
2 0 0 0
3 0 0 0
4 0 0 0
5 0 0 0
6 0 0 0
7 0 0 0
8 0 0 0
9 1 1 0
10 0 0 0
11 0 0 0
12 0 0 0
13 0 0 0
14 0 0 0
15 0 0 0
16 0 0 0
17 0 0 0
18 0 0 0
19 1 1 0
20 0 0 0
21 0 0 0
22 0 0 0
23 0 0 0
24 0 0 0
25 0 0 0
26 0 0 0
27 1 1 0
28 0 0 0
29 0 0 0
30 0 0 0
31 0 0 0
32 0 0 0
33 0 0 0
34 0 0 0
35 0 0 0
36 0 0 0
$EndNodeData
$NodeData
1
"NodalForce"
1
0
3
0
3
36
1 0 0 0
2 0 0 0
3 0 0 0
4 0 0 0
5 0 0 0
6 0 0 0
7 0 0 0
8 0 0 0
9 0 0 0
10 0 -6000 0
11 0 -12000 0
12 0 -12000 0
13 0 -12000 0
14 0 -12000 0
15 0 -12000 0
16 0 -12000 0
17 0 -12000 0
18 0 -6000 0
19 0 0 0
20 0 0 0
21 0 0 0
22 0 0 0
23 0 0 0
24 0 0 0
25 0 0 0
26 0 0 0
27 0 0 0
28 0 -6000 0
29 0 -12000 0
30 0 -12000 0
31 0 -12000 0
32 0 -12000 0
33 0 -12000 0
34 0 -12000 0
35 0 -12000 0
36 0 -6000 0
$EndNodeData
$ElementData
1
"CrossSectionArea"
1
0
3
0
1
79
1 0.0035153274122871857
2 0.0035153274122871857
3 0.0035153274122871857
4 0.0035153274122871857
5 0.0035153274122871857
6 0.0035153274122871857
7 0.0035153274122871857
8 0.0035153274122871857
9 0.0035153274122871857
10 0.0035153274122871857
11 0.0035153274122871857
12 0.0035153274122871857
13 0.0035153274122871857
14 0.0035153274122871857
15 0.0035153274122871857
16 0.0035153274122871857
17 0.0018146522655262268
18 0.0018146522655262268
19 0.0018146522655262268
20 0.0018146522655262268
21 0.0018146522655262268
22 0.0018146522655262268
23 0.0018146522655262268
24 0.0018146522655262268
25 0.0018146522655262268
26 0.0013178981181809174
27 0.0013178981181809174
28 0.0013178981181809174
29 0.0013178981181809174
30 0.0013178981181809174
31 0.0013178981181809174
32 0.0013178981181809174
33 0.0013178981181809174
34 0.0035153274122871857
35 0.0035153274122871857
36 0.0035153274122871857
37 0.0035153274122871857
38 0.0035153274122871857
39 0.0035153274122871857
40 0.0035153274122871857
41 0.0035153274122871857
42 0.0035153274122871857
43 0.0035153274122871857
44 0.0035153274122871857
45 0.0035153274122871857
46 0.0035153274122871857
47 0.0035153274122871857
48 0.0035153274122871857
49 0.0035153274122871857
50 0.0018146522655262268
51 0.0018146522655262268
52 0.0018146522655262268
53 0.0018146522655262268
54 0.0018146522655262268
55 0.0018146522655262268
56 0.0018146522655262268
57 0.0018146522655262268
58 0.0018146522655262268
59 0.0013178981181809174
60 0.0013178981181809174
61 0.0013178981181809174
62 0.0013178981181809174
63 0.0013178981181809174
64 0.0013178981181809174
65 0.0013178981181809174
66 0.0013178981181809174
67 0.0020091309950592265
68 0.0020091309950592265
69 0.0020091309950592265
70 0.0020091309950592265
71 0.0020091309950592265
72 0.0020091309950592265
73 0.0020091309950592265
74 0.0020091309950592265
75 0.0020091309950592265
76 0.0007074866655884212
77 0.0007074866655884212
78 0.0007074866655884212
79 0.0007074866655884212
$EndElementData
$ElementData
1
"Attribute:ElementFormulation"
1
0
3
0
1
79
1 1
2 1
3 1
4 1
5 1
6 1
7 1
8 1
9 1
10 1
11 1
12 1
13 1
14 1
15 1
16 1
17 1
18 1
19 1
20 1
21 1
22 1
23 1
24 1
25 1
26 1
27 1
28 1
29 1
30 1
31 1
32 1
33 1
34 1
35 1
36 1
37 1
38 1
39 1
40 1
41 1
42 1
43 1
44 1
45 1
46 1
47 1
48 1
49 1
50 1
51 1
52 1
53 1
54 1
55 1
56 1
57 1
58 1
59 1
60 1
61 1
62 1
63 1
64 1
65 1
66 1
67 1
68 1
69 1
70 1
71 1
72 1
73 1
74 1
75 1
76 1
77 1
78 1
79 1
$EndElementData
$ElementData
1
"Attribute:EndReleases"
1
0
3
0
1
79
1 0
2 0
3 0
4 0
5 0
6 0
7 0
8 0
9 0
10 0
11 0
12 0
13 0
14 0
15 0
16 0
17 0
18 3120
19 3120
20 3120
21 3120
22 3120
23 3120
24 3120
25 0
26 3632
27 3632
28 3632
29 3632
30 3632
31 3632
32 3632
33 3632
34 0
35 0
36 0
37 0
38 0
39 0
40 0
41 0
42 0
43 0
44 0
45 0
46 0
47 0
48 0
49 0
50 0
51 3120
52 3120
53 3120
54 3120
55 3120
56 3120
57 3120
58 0
59 3632
60 3632
61 3632
62 3632
63 3632
64 3632
65 3632
66 3632
67 3120
68 3120
69 3120
70 3120
71 3120
72 3120
73 3120
74 3120
75 3120
76 3632
77 3632
78 3632
79 3632
$EndElementData
$ElementData
1
"MaterialID"
1
0
3
0
1
79
1 3
2 3
3 3
4 3
5 3
6 3
7 3
8 3
9 3
10 3
11 3
12 3
13 3
14 3
15 3
16 3
17 3
18 3
19 3
20 3
21 3
22 3
23 3
24 3
25 3
26 3
27 3
28 3
29 3
30 3
31 3
32 3
33 3
34 3
35 3
36 3
37 3
38 3
39 3
40 3
41 3
42 3
43 3
44 3
45 3
46 3
47 3
48 3
49 3
50 3
51 3
52 3
53 3
54 3
55 3
56 3
57 3
58 3
59 3
60 3
61 3
62 3
63 3
64 3
65 3
66 3
67 3
68 3
69 3
70 3
71 3
72 3
73 3
74 3
75 3
76 3
77 3
78 3
79 3
$EndElementData
$ElementData
1
"Attribute:SecondMomentY"
1
0
3
0
1
79
1 7.263067506859291e-06
2 7.263067506859291e-06
3 7.263067506859291e-06
4 7.263067506859291e-06
5 7.263067506859291e-06
6 7.263067506859291e-06
7 7.263067506859291e-06
8 7.263067506859291e-06
9 7.263067506859291e-06
10 7.263067506859291e-06
11 7.263067506859291e-06
12 7.263067506859291e-06
13 7.263067506859291e-06
14 7.263067506859291e-06
15 7.263067506859291e-06
16 7.263067506859291e-06
17 1.6188977199516192e-06
18 1.6188977199516192e-06
19 1.6188977199516192e-06
20 1.6188977199516192e-06
21 1.6188977199516192e-06
22 1.6188977199516192e-06
23 1.6188977199516192e-06
24 1.6188977199516192e-06
25 1.6188977199516192e-06
26 1.1637386331793523e-06
27 1.1637386331793523e-06
28 1.1637386331793523e-06
29 1.1637386331793523e-06
30 1.1637386331793523e-06
31 1.1637386331793523e-06
32 1.1637386331793523e-06
33 1.1637386331793523e-06
34 7.263067506859291e-06
35 7.263067506859291e-06
36 7.263067506859291e-06
37 7.263067506859291e-06
38 7.263067506859291e-06
39 7.263067506859291e-06
40 7.263067506859291e-06
41 7.263067506859291e-06
42 7.263067506859291e-06
43 7.263067506859291e-06
44 7.263067506859291e-06
45 7.263067506859291e-06
46 7.263067506859291e-06
47 7.263067506859291e-06
48 7.263067506859291e-06
49 7.263067506859291e-06
50 1.6188977199516192e-06
51 1.6188977199516192e-06
52 1.6188977199516192e-06
53 1.6188977199516192e-06
54 1.6188977199516192e-06
55 1.6188977199516192e-06
56 1.6188977199516192e-06
57 1.6188977199516192e-06
58 1.6188977199516192e-06
59 1.1637386331793523e-06
60 1.1637386331793523e-06
61 1.1637386331793523e-06
62 1.1637386331793523e-06
63 1.1637386331793523e-06
64 1.1637386331793523e-06
65 1.1637386331793523e-06
66 1.1637386331793523e-06
67 6.831455100798656e-07
68 6.831455100798656e-07
69 6.831455100798656e-07
70 6.831455100798656e-07
71 6.831455100798656e-07
72 6.831455100798656e-07
73 6.831455100798656e-07
74 6.831455100798656e-07
75 6.831455100798656e-07
76 2.817291494622972e-07
77 2.817291494622972e-07
78 2.817291494622972e-07
79 2.817291494622972e-07
$EndElementData
$ElementData
1
"Attribute:SecondMomentZ"
1
0
3
0
1
79
1 7.263067506859291e-06
2 7.263067506859291e-06
3 7.263067506859291e-06
4 7.263067506859291e-06
5 7.263067506859291e-06
6 7.263067506859291e-06
7 7.263067506859291e-06
8 7.263067506859291e-06
9 7.263067506859291e-06
10 7.263067506859291e-06
11 7.263067506859291e-06
12 7.263067506859291e-06
13 7.263067506859291e-06
14 7.263067506859291e-06
15 7.263067506859291e-06
16 7.263067506859291e-06
17 1.6188977199516192e-06
18 1.6188977199516192e-06
19 1.6188977199516192e-06
20 1.6188977199516192e-06
21 1.6188977199516192e-06
22 1.6188977199516192e-06
23 1.6188977199516192e-06
24 1.6188977199516192e-06
25 1.6188977199516192e-06
26 1.1637386331793523e-06
27 1.1637386331793523e-06
28 1.1637386331793523e-06
29 1.1637386331793523e-06
30 1.1637386331793523e-06
31 1.1637386331793523e-06
32 1.1637386331793523e-06
33 1.1637386331793523e-06
34 7.263067506859291e-06
35 7.263067506859291e-06
36 7.263067506859291e-06
37 7.263067506859291e-06
38 7.263067506859291e-06
39 7.263067506859291e-06
40 7.263067506859291e-06
41 7.263067506859291e-06
42 7.263067506859291e-06
43 7.263067506859291e-06
44 7.263067506859291e-06
45 7.263067506859291e-06
46 7.263067506859291e-06
47 7.263067506859291e-06
48 7.263067506859291e-06
49 7.263067506859291e-06
50 1.6188977199516192e-06
51 1.6188977199516192e-06
52 1.6188977199516192e-06
53 1.6188977199516192e-06
54 1.6188977199516192e-06
55 1.6188977199516192e-06
56 1.6188977199516192e-06
57 1.6188977199516192e-06
58 1.6188977199516192e-06
59 1.1637386331793523e-06
60 1.1637386331793523e-06
61 1.1637386331793523e-06
62 1.1637386331793523e-06
63 1.1637386331793523e-06
64 1.1637386331793523e-06
65 1.1637386331793523e-06
66 1.1637386331793523e-06
67 8.692929261758053e-06
68 8.692929261758053e-06
69 8.692929261758053e-06
70 8.692929261758053e-06
71 8.692929261758053e-06
72 8.692929261758053e-06
73 8.692929261758053e-06
74 8.692929261758053e-06
75 8.692929261758053e-06
76 2.817291494622972e-07
77 2.817291494622972e-07
78 2.817291494622972e-07
79 2.817291494622972e-07
$EndElementData
$ElementData
1
"Attribute:SectionDimension1"
1
0
3
0
1
79
1 0.12
2 0.12
3 0.12
4 0.12
5 0.12
6 0.12
7 0.12
8 0.12
9 0.12
10 0.12
11 0.12
12 0.12
13 0.12
14 0.12
15 0.12
16 0.12
17 0.08
18 0.08
19 0.08
20 0.08
21 0.08
22 0.08
23 0.08
24 0.08
25 0.08
26 0.0889
27 0.0889
28 0.0889
29 0.0889
30 0.0889
31 0.0889
32 0.0889
33 0.0889
34 0.12
35 0.12
36 0.12
37 0.12
38 0.12
39 0.12
40 0.12
41 0.12
42 0.12
43 0.12
44 0.12
45 0.12
46 0.12
47 0.12
48 0.12
49 0.12
50 0.08
51 0.08
52 0.08
53 0.08
54 0.08
55 0.08
56 0.08
57 0.08
58 0.08
59 0.0889
60 0.0889
61 0.0889
62 0.0889
63 0.0889
64 0.0889
65 0.0889
66 0.0889
67 0.16
68 0.16
69 0.16
70 0.16
71 0.16
72 0.16
73 0.16
74 0.16
75 0.16
76 0.0603
77 0.0603
78 0.0603
79 0.0603
$EndElementData
$ElementData
1
"Attribute:SectionDimension2"
1
0
3
0
1
79
1 0.12
2 0.12
3 0.12
4 0.12
5 0.12
6 0.12
7 0.12
8 0.12
9 0.12
10 0.12
11 0.12
12 0.12
13 0.12
14 0.12
15 0.12
16 0.12
17 0.08
18 0.08
19 0.08
20 0.08
21 0.08
22 0.08
23 0.08
24 0.08
25 0.08
26 0.005
27 0.005
28 0.005
29 0.005
30 0.005
31 0.005
32 0.005
33 0.005
34 0.12
35 0.12
36 0.12
37 0.12
38 0.12
39 0.12
40 0.12
41 0.12
42 0.12
43 0.12
44 0.12
45 0.12
46 0.12
47 0.12
48 0.12
49 0.12
50 0.08
51 0.08
52 0.08
53 0.08
54 0.08
55 0.08
56 0.08
57 0.08
58 0.08
59 0.005
60 0.005
61 0.005
62 0.005
63 0.005
64 0.005
65 0.005
66 0.005
67 0.082
68 0.082
69 0.082
70 0.082
71 0.082
72 0.082
73 0.082
74 0.082
75 0.082
76 0.004
77 0.004
78 0.004
79 0.004
$EndElementData
$ElementData
1
"Attribute:SectionDimension3"
1
0
3
0
1
79
1 0.008
2 0.008
3 0.008
4 0.008
5 0.008
6 0.008
7 0.008
8 0.008
9 0.008
10 0.008
11 0.008
12 0.008
13 0.008
14 0.008
15 0.008
16 0.008
17 0.0063
18 0.0063
19 0.0063
20 0.0063
21 0.0063
22 0.0063
23 0.0063
24 0.0063
25 0.0063
26 0
27 0
28 0
29 0
30 0
31 0
32 0
33 0
34 0.008
35 0.008
36 0.008
37 0.008
38 0.008
39 0.008
40 0.008
41 0.008
42 0.008
43 0.008
44 0.008
45 0.008
46 0.008
47 0.008
48 0.008
49 0.008
50 0.0063
51 0.0063
52 0.0063
53 0.0063
54 0.0063
55 0.0063
56 0.0063
57 0.0063
58 0.0063
59 0
60 0
61 0
62 0
63 0
64 0
65 0
66 0
67 0.005
68 0.005
69 0.005
70 0.005
71 0.005
72 0.005
73 0.005
74 0.005
75 0.005
76 0
77 0
78 0
79 0
$EndElementData
$ElementData
1
"Attribute:SectionDimension4"
1
0
3
0
1
79
1 0.012
2 0.012
3 0.012
4 0.012
5 0.012
6 0.012
7 0.012
8 0.012
9 0.012
10 0.012
11 0.012
12 0.012
13 0.012
14 0.012
15 0.012
16 0.012
17 0.00945
18 0.00945
19 0.00945
20 0.00945
21 0.00945
22 0.00945
23 0.00945
24 0.00945
25 0.00945
26 0
27 0
28 0
29 0
30 0
31 0
32 0
33 0
34 0.012
35 0.012
36 0.012
37 0.012
38 0.012
39 0.012
40 0.012
41 0.012
42 0.012
43 0.012
44 0.012
45 0.012
46 0.012
47 0.012
48 0.012
49 0.012
50 0.00945
51 0.00945
52 0.00945
53 0.00945
54 0.00945
55 0.00945
56 0.00945
57 0.00945
58 0.00945
59 0
60 0
61 0
62 0
63 0
64 0
65 0
66 0
67 0.0074
68 0.0074
69 0.0074
70 0.0074
71 0.0074
72 0.0074
73 0.0074
74 0.0074
75 0.0074
76 0
77 0
78 0
79 0
$EndElementData
$ElementData
1
"Attribute:SectionDimension5"
1
0
3
0
1
79
1 0.008
2 0.008
3 0.008
4 0.008
5 0.008
6 0.008
7 0.008
8 0.008
9 0.008
10 0.008
11 0.008
12 0.008
13 0.008
14 0.008
15 0.008
16 0.008
17 0.0063
18 0.0063
19 0.0063
20 0.0063
21 0.0063
22 0.0063
23 0.0063
24 0.0063
25 0.0063
26 0
27 0
28 0
29 0
30 0
31 0
32 0
33 0
34 0.008
35 0.008
36 0.008
37 0.008
38 0.008
39 0.008
40 0.008
41 0.008
42 0.008
43 0.008
44 0.008
45 0.008
46 0.008
47 0.008
48 0.008
49 0.008
50 0.0063
51 0.0063
52 0.0063
53 0.0063
54 0.0063
55 0.0063
56 0.0063
57 0.0063
58 0.0063
59 0
60 0
61 0
62 0
63 0
64 0
65 0
66 0
67 0.009
68 0.009
69 0.009
70 0.009
71 0.009
72 0.009
73 0.009
74 0.009
75 0.009
76 0
77 0
78 0
79 0
$EndElementData
$ElementData
1
"Attribute:SectionShape"
1
0
3
0
1
79
1 4
2 4
3 4
4 4
5 4
6 4
7 4
8 4
9 4
10 4
11 4
12 4
13 4
14 4
15 4
16 4
17 4
18 4
19 4
20 4
21 4
22 4
23 4
24 4
25 4
26 3
27 3
28 3
29 3
30 3
31 3
32 3
33 3
34 4
35 4
36 4
37 4
38 4
39 4
40 4
41 4
42 4
43 4
44 4
45 4
46 4
47 4
48 4
49 4
50 4
51 4
52 4
53 4
54 4
55 4
56 4
57 4
58 4
59 3
60 3
61 3
62 3
63 3
64 3
65 3
66 3
67 5
68 5
69 5
70 5
71 5
72 5
73 5
74 5
75 5
76 3
77 3
78 3
79 3
$EndElementData
$ElementData
1
"Attribute:ShearAreaY"
1
0
3
0
1
79
1 0.0015309633621351227
2 0.0015309633621351227
3 0.0015309633621351227
4 0.0015309633621351227
5 0.0015309633621351227
6 0.0015309633621351227
7 0.0015309633621351227
8 0.0015309633621351227
9 0.0015309633621351227
10 0.0015309633621351227
11 0.0015309633621351227
12 0.0015309633621351227
13 0.0015309633621351227
14 0.0015309633621351227
15 0.0015309633621351227
16 0.0015309633621351227
17 0.0007903008191571506
18 0.0007903008191571506
19 0.0007903008191571506
20 0.0007903008191571506
21 0.0007903008191571506
22 0.0007903008191571506
23 0.0007903008191571506
24 0.0007903008191571506
25 0.0007903008191571506
26 0.0007032744663677642
27 0.0007032744663677642
28 0.0007032744663677642
29 0.0007032744663677642
30 0.0007032744663677642
31 0.0007032744663677642
32 0.0007032744663677642
33 0.0007032744663677642
34 0.0015309633621351227
35 0.0015309633621351227
36 0.0015309633621351227
37 0.0015309633621351227
38 0.0015309633621351227
39 0.0015309633621351227
40 0.0015309633621351227
41 0.0015309633621351227
42 0.0015309633621351227
43 0.0015309633621351227
44 0.0015309633621351227
45 0.0015309633621351227
46 0.0015309633621351227
47 0.0015309633621351227
48 0.0015309633621351227
49 0.0015309633621351227
50 0.0007903008191571506
51 0.0007903008191571506
52 0.0007903008191571506
53 0.0007903008191571506
54 0.0007903008191571506
55 0.0007903008191571506
56 0.0007903008191571506
57 0.0007903008191571506
58 0.0007903008191571506
59 0.0007032744663677642
60 0.0007032744663677642
61 0.0007032744663677642
62 0.0007032744663677642
63 0.0007032744663677642
64 0.0007032744663677642
65 0.0007032744663677642
66 0.0007032744663677642
67 0.0007467657340962774
68 0.0007467657340962774
69 0.0007467657340962774
70 0.0007467657340962774
71 0.0007467657340962774
72 0.0007467657340962774
73 0.0007467657340962774
74 0.0007467657340962774
75 0.0007467657340962774
76 0.0003784372030213672
77 0.0003784372030213672
78 0.0003784372030213672
79 0.0003784372030213672
$EndElementData
$ElementData
1
"Attribute:ShearAreaZ"
1
0
3
0
1
79
1 0.0015309633621351227
2 0.0015309633621351227
3 0.0015309633621351227
4 0.0015309633621351227
5 0.0015309633621351227
6 0.0015309633621351227
7 0.0015309633621351227
8 0.0015309633621351227
9 0.0015309633621351227
10 0.0015309633621351227
11 0.0015309633621351227
12 0.0015309633621351227
13 0.0015309633621351227
14 0.0015309633621351227
15 0.0015309633621351227
16 0.0015309633621351227
17 0.0007903008191571506
18 0.0007903008191571506
19 0.0007903008191571506
20 0.0007903008191571506
21 0.0007903008191571506
22 0.0007903008191571506
23 0.0007903008191571506
24 0.0007903008191571506
25 0.0007903008191571506
26 0.0007032744663677642
27 0.0007032744663677642
28 0.0007032744663677642
29 0.0007032744663677642
30 0.0007032744663677642
31 0.0007032744663677642
32 0.0007032744663677642
33 0.0007032744663677642
34 0.0015309633621351227
35 0.0015309633621351227
36 0.0015309633621351227
37 0.0015309633621351227
38 0.0015309633621351227
39 0.0015309633621351227
40 0.0015309633621351227
41 0.0015309633621351227
42 0.0015309633621351227
43 0.0015309633621351227
44 0.0015309633621351227
45 0.0015309633621351227
46 0.0015309633621351227
47 0.0015309633621351227
48 0.0015309633621351227
49 0.0015309633621351227
50 0.0007903008191571506
51 0.0007903008191571506
52 0.0007903008191571506
53 0.0007903008191571506
54 0.0007903008191571506
55 0.0007903008191571506
56 0.0007903008191571506
57 0.0007903008191571506
58 0.0007903008191571506
59 0.0007032744663677642
60 0.0007032744663677642
61 0.0007032744663677642
62 0.0007032744663677642
63 0.0007032744663677642
64 0.0007032744663677642
65 0.0007032744663677642
66 0.0007032744663677642
67 0.0010311633986928104
68 0.0010311633986928104
69 0.0010311633986928104
70 0.0010311633986928104
71 0.0010311633986928104
72 0.0010311633986928104
73 0.0010311633986928104
74 0.0010311633986928104
75 0.0010311633986928104
76 0.0003784372030213672
77 0.0003784372030213672
78 0.0003784372030213672
79 0.0003784372030213672
$EndElementData
$ElementData
1
"Attribute:TorsionConstant"
1
0
3
0
1
79
1 1.1601421473294262e-05
2 1.1601421473294262e-05
3 1.1601421473294262e-05
4 1.1601421473294262e-05
5 1.1601421473294262e-05
6 1.1601421473294262e-05
7 1.1601421473294262e-05
8 1.1601421473294262e-05
9 1.1601421473294262e-05
10 1.1601421473294262e-05
11 1.1601421473294262e-05
12 1.1601421473294262e-05
13 1.1601421473294262e-05
14 1.1601421473294262e-05
15 1.1601421473294262e-05
16 1.1601421473294262e-05
17 2.615096439570015e-06
18 2.615096439570015e-06
19 2.615096439570015e-06
20 2.615096439570015e-06
21 2.615096439570015e-06
22 2.615096439570015e-06
23 2.615096439570015e-06
24 2.615096439570015e-06
25 2.615096439570015e-06
26 2.3274772663587045e-06
27 2.3274772663587045e-06
28 2.3274772663587045e-06
29 2.3274772663587045e-06
30 2.3274772663587045e-06
31 2.3274772663587045e-06
32 2.3274772663587045e-06
33 2.3274772663587045e-06
34 1.1601421473294262e-05
35 1.1601421473294262e-05
36 1.1601421473294262e-05
37 1.1601421473294262e-05
38 1.1601421473294262e-05
39 1.1601421473294262e-05
40 1.1601421473294262e-05
41 1.1601421473294262e-05
42 1.1601421473294262e-05
43 1.1601421473294262e-05
44 1.1601421473294262e-05
45 1.1601421473294262e-05
46 1.1601421473294262e-05
47 1.1601421473294262e-05
48 1.1601421473294262e-05
49 1.1601421473294262e-05
50 2.615096439570015e-06
51 2.615096439570015e-06
52 2.615096439570015e-06
53 2.615096439570015e-06
54 2.615096439570015e-06
55 2.615096439570015e-06
56 2.615096439570015e-06
57 2.615096439570015e-06
58 2.615096439570015e-06
59 2.3274772663587045e-06
60 2.3274772663587045e-06
61 2.3274772663587045e-06
62 2.3274772663587045e-06
63 2.3274772663587045e-06
64 2.3274772663587045e-06
65 2.3274772663587045e-06
66 2.3274772663587045e-06
67 3.604337384329226e-08
68 3.604337384329226e-08
69 3.604337384329226e-08
70 3.604337384329226e-08
71 3.604337384329226e-08
72 3.604337384329226e-08
73 3.604337384329226e-08
74 3.604337384329226e-08
75 3.604337384329226e-08
76 5.634582989245944e-07
77 5.634582989245944e-07
78 5.634582989245944e-07
79 5.634582989245944e-07
$EndElementData
$ElementData
1
"Attribute:UniformLoadGlobalX"
1
0
3
0
1
79
1 0
2 0
3 0
4 0
5 0
6 0
7 0
8 0
9 0
10 0
11 0
12 0
13 0
14 0
15 0
16 0
17 0
18 0
19 0
20 0
21 0
22 0
23 0
24 0
25 0
26 0
27 0
28 0
29 0
30 0
31 0
32 0
33 0
34 0
35 0
36 0
37 0
38 0
39 0
40 0
41 0
42 0
43 0
44 0
45 0
46 0
47 0
48 0
49 0
50 0
51 0
52 0
53 0
54 0
55 0
56 0
57 0
58 0
59 0
60 0
61 0
62 0
63 0
64 0
65 0
66 0
67 0
68 0
69 0
70 0
71 0
72 0
73 0
74 0
75 0
76 0
77 0
78 0
79 0
$EndElementData
$ElementData
1
"Attribute:UniformLoadGlobalY"
1
0
3
0
1
79
1 0
2 0
3 0
4 0
5 0
6 0
7 0
8 0
9 0
10 0
11 0
12 0
13 0
14 0
15 0
16 0
17 0
18 0
19 0
20 0
21 0
22 0
23 0
24 0
25 0
26 0
27 0
28 0
29 0
30 0
31 0
32 0
33 0
34 0
35 0
36 0
37 0
38 0
39 0
40 0
41 0
42 0
43 0
44 0
45 0
46 0
47 0
48 0
49 0
50 0
51 0
52 0
53 0
54 0
55 0
56 0
57 0
58 0
59 0
60 0
61 0
62 0
63 0
64 0
65 0
66 0
67 0
68 0
69 0
70 0
71 0
72 0
73 0
74 0
75 0
76 0
77 0
78 0
79 0
$EndElementData
$ElementData
1
"Attribute:UniformLoadGlobalZ"
1
0
3
0
1
79
1 0
2 0
3 0
4 0
5 0
6 0
7 0
8 0
9 0
10 0
11 0
12 0
13 0
14 0
15 0
16 0
17 0
18 0
19 0
20 0
21 0
22 0
23 0
24 0
25 0
26 0
27 0
28 0
29 0
30 0
31 0
32 0
33 0
34 0
35 0
36 0
37 0
38 0
39 0
40 0
41 0
42 0
43 0
44 0
45 0
46 0
47 0
48 0
49 0
50 0
51 0
52 0
53 0
54 0
55 0
56 0
57 0
58 0
59 0
60 0
61 0
62 0
63 0
64 0
65 0
66 0
67 0
68 0
69 0
70 0
71 0
72 0
73 0
74 0
75 0
76 0
77 0
78 0
79 0
$EndElementData
$ElementData
1
"Attribute:UniformLoadLocalX"
1
0
3
0
1
79
1 0
2 0
3 0
4 0
5 0
6 0
7 0
8 0
9 0
10 0
11 0
12 0
13 0
14 0
15 0
16 0
17 0
18 0
19 0
20 0
21 0
22 0
23 0
24 0
25 0
26 0
27 0
28 0
29 0
30 0
31 0
32 0
33 0
34 0
35 0
36 0
37 0
38 0
39 0
40 0
41 0
42 0
43 0
44 0
45 0
46 0
47 0
48 0
49 0
50 0
51 0
52 0
53 0
54 0
55 0
56 0
57 0
58 0
59 0
60 0
61 0
62 0
63 0
64 0
65 0
66 0
67 0
68 0
69 0
70 0
71 0
72 0
73 0
74 0
75 0
76 0
77 0
78 0
79 0
$EndElementData
$ElementData
1
"Attribute:UniformLoadLocalY"
1
0
3
0
1
79
1 0
2 0
3 0
4 0
5 0
6 0
7 0
8 0
9 0
10 0
11 0
12 0
13 0
14 0
15 0
16 0
17 0
18 0
19 0
20 0
21 0
22 0
23 0
24 0
25 0
26 0
27 0
28 0
29 0
30 0
31 0
32 0
33 0
34 0
35 0
36 0
37 0
38 0
39 0
40 0
41 0
42 0
43 0
44 0
45 0
46 0
47 0
48 0
49 0
50 0
51 0
52 0
53 0
54 0
55 0
56 0
57 0
58 0
59 0
60 0
61 0
62 0
63 0
64 0
65 0
66 0
67 0
68 0
69 0
70 0
71 0
72 0
73 0
74 0
75 0
76 0
77 0
78 0
79 0
$EndElementData
$ElementData
1
"Attribute:UniformLoadLocalZ"
1
0
3
0
1
79
1 0
2 0
3 0
4 0
5 0
6 0
7 0
8 0
9 0
10 0
11 0
12 0
13 0
14 0
15 0
16 0
17 0
18 0
19 0
20 0
21 0
22 0
23 0
24 0
25 0
26 0
27 0
28 0
29 0
30 0
31 0
32 0
33 0
34 0
35 0
36 0
37 0
38 0
39 0
40 0
41 0
42 0
43 0
44 0
45 0
46 0
47 0
48 0
49 0
50 0
51 0
52 0
53 0
54 0
55 0
56 0
57 0
58 0
59 0
60 0
61 0
62 0
63 0
64 0
65 0
66 0
67 0
68 0
69 0
70 0
71 0
72 0
73 0
74 0
75 0
76 0
77 0
78 0
79 0
$EndElementData
$ElementData
1
"BeamOrientation"
1
0
3
0
3
79
1 0 0 0
2 0 0 0
3 0 0 0
4 0 0 0
5 0 0 0
6 0 0 0
7 0 0 0
8 0 0 0
9 0 0 0
10 0 0 0
11 0 0 0
12 0 0 0
13 0 0 0
14 0 0 0
15 0 0 0
16 0 0 0
17 1 0 0
18 1 0 0
19 1 0 0
20 1 0 0
21 1 0 0
22 1 0 0
23 1 0 0
24 1 0 0
25 1 0 0
26 0 0 0
27 0 0 0
28 0 0 0
29 0 0 0
30 0 0 0
31 0 0 0
32 0 0 0
33 0 0 0
34 0 0 0
35 0 0 0
36 0 0 0
37 0 0 0
38 0 0 0
39 0 0 0
40 0 0 0
41 0 0 0
42 0 0 0
43 0 0 0
44 0 0 0
45 0 0 0
46 0 0 0
47 0 0 0
48 0 0 0
49 0 0 0
50 1 0 0
51 1 0 0
52 1 0 0
53 1 0 0
54 1 0 0
55 1 0 0
56 1 0 0
57 1 0 0
58 1 0 0
59 0 0 0
60 0 0 0
61 0 0 0
62 0 0 0
63 0 0 0
64 0 0 0
65 0 0 0
66 0 0 0
67 0 0 0
68 0 0 0
69 0 0 0
70 0 0 0
71 0 0 0
72 0 0 0
73 0 0 0
74 0 0 0
75 0 0 0
76 0 0 0
77 0 0 0
78 0 0 0
79 0 0 0
$EndElementData
$AnafData
1
1
GLOBAL 3 1
"Gravity"
0 -9.80665 0
$EndAnafData
