$MeshFormat
4.1 0 8
$EndMeshFormat
$PhysicalNames
4
1 1 "Material:Structural Steel S355 (EN 10025)"
1 2 "Section:IPE 200"
1 3 "Section:IPE 300"
1 4 "Section:HEB 260"
$EndPhysicalNames
$Entities
0 3 0 0
1 0 0 0 24 8 6 2 1 4 0
2 0 4 0 24 8 6 2 1 3 0
3 0 4 0 24 8 6 2 1 2 0
$EndEntities
$Nodes
1 30 1 30
1 1 0 30
1
2
3
4
5
6
7
8
9
10
11
12
13
14
15
16
17
18
19
20
21
22
23
24
25
26
27
28
29
30
0 0 0
0 4 0
0 8 0
0 0 6
0 4 6
0 8 6
6 0 0
6 4 0
6 8 0
6 0 6
6 4 6
6 8 6
12 0 0
12 4 0
12 8 0
12 0 6
12 4 6
12 8 6
18 0 0
18 4 0
18 8 0
18 0 6
18 4 6
18 8 6
24 0 0
24 4 0
24 8 0
24 0 6
24 4 6
24 8 6
$EndNodes
$Elements
3 46 1 46
1 1 1 20
1 1 2
2 2 3
3 4 5
4 5 6
7 7 8
8 8 9
9 10 11
10 11 12
13 13 14
14 14 15
15 16 17
16 17 18
19 19 20
20 20 21
21 22 23
22 23 24
25 25 26
26 26 27
27 28 29
28 29 30
1 2 1 10
5 2 5
6 3 6
11 8 11
12 9 12
17 14 17
18 15 18
23 20 23
24 21 24
29 26 29
30 27 30
1 3 1 16
31 2 8
32 3 9
33 5 11
34 6 12
35 8 14
36 9 15
37 11 17
38 12 18
39 14 20
40 15 21
41 17 23
42 18 24
43 20 26
44 21 27
45 23 29
46 24 30
$EndElements
$NodeData
1
"Displacement"
1
0
3
0
3
30
1 0 0 0
2 -2.984458996398511e-06 -0.00014514417829441183 -1.914725295743304e-05
3 4.943117388619678e-06 -0.000209006330298104 3.356859057160429e-05
4 0 0 0
5 -2.984458996398513e-06 -0.00014514417829441189 1.914725295743305e-05
6 4.9431173886196894e-06 -0.000209006330298104 -3.356859057160459e-05
7 0 0 0
8 -1.3685386437048176e-06 -0.00014731257581032135 -1.9147252957433054e-05
9 2.3999819144653634e-06 -0.00021227266109809885 3.356859057160479e-05
10 0 0 0
11 -1.3685386437048184e-06 -0.00014731257581032144 1.9147252957433037e-05
12 2.3999819144653727e-06 -0.000212272661098099 -3.356859057160409e-05
13 0 0 0
14 -8.711543691098275e-21 -0.00014728815874689758 -1.9147252957433745e-05
15 -3.072365458322334e-20 -0.00021222954490432563 3.3568590571602615e-05
16 0 0 0
17 -9.515812585566465e-21 -0.00014728815874689763 1.9147252957432322e-05
18 -2.4781223137922415e-20 -0.00021222954490432569 -3.356859057160625e-05
19 0 0 0
20 1.3685386437048004e-06 -0.0001473125758103214 -1.9147252957432173e-05
21 -2.3999819144654253e-06 -0.00021227266109809896 3.356859057160684e-05
22 0 0 0
23 1.368538643704799e-06 -0.0001473125758103213 1.9147252957433915e-05
24 -2.399981914465421e-06 -0.00021227266109809882 -3.356859057160203e-05
25 0 0 0
26 2.984458996398495e-06 -0.00014514417829441186 -1.9147252957432048e-05
27 -4.943117388619741e-06 -0.00020900633029810402 3.356859057160721e-05
28 0 0 0
29 2.9844589963984933e-06 -0.00014514417829441197 1.9147252957434043e-05
30 -4.943117388619738e-06 -0.0002090063302981041 -3.356859057160168e-05
$EndNodeData
$NodeData
1
"Rotation"
1
0
3
0
3
30
1 0 0 0
2 0.001333910886167367 -1.0604745559161944e-21 -6.37548246559739e-06
3 0.0018196799422028917 9.140751175498543e-22 -1.916761017574378e-05
4 0 0 0
5 -0.001333910886167367 -3.596883563683927e-21 -6.37548246559739e-06
6 -0.0018196799422028915 -2.794367539472476e-20 -1.9167610175743795e-05
7 0 0 0
8 0.001333910886167367 2.985559846013155e-20 -2.0013931022418236e-07
9 0.0018196799422028917 8.292611449303318e-20 -4.6941798553340357e-07
10 0 0 0
11 -0.0013339108861673667 9.548105933750631e-21 -2.0013931022418342e-07
12 -0.0018196799422028917 7.138014796488783e-20 -4.694179855334066e-07
13 0 0 0
14 0.0013339108861673667 -2.390258805299722e-20 2.989725027264737e-21
15 0.0018196799422028906 -5.36099878422417e-20 4.9014027738568214e-21
16 0 0 0
17 -0.0013339108861673665 -2.4744142498391543e-20 3.555284441580604e-21
18 -0.0018196799422028915 -6.640339794836888e-20 7.505487081847925e-21
19 0 0 0
20 0.001333910886167367 -5.30263524585868e-20 2.0013931022419014e-07
21 0.0018196799422028915 -1.4557366959192158e-19 4.694179855334147e-07
22 0 0 0
23 -0.0013339108861673667 -4.423015202894889e-20 2.0013931022419025e-07
24 -0.0018196799422028915 -9.578312540231358e-20 4.6941798553341e-07
25 0 0 0
26 0.0013339108861673671 9.74460780557256e-21 6.375482465597396e-06
27 0.0018196799422028921 -2.217270389955808e-20 1.9167610175743802e-05
28 0 0 0
29 -0.0013339108861673665 -2.901234415371666e-20 6.375482465597397e-06
30 -0.0018196799422028915 7.864073750860626e-22 1.9167610175743795e-05
$EndNodeData
$ElementData
1
"BeamSectionForce"
1
0
3
0
12
46
1 -92079.09695054583 -92.43813019415728 5432.28880649126 -2.6515269426156627e-17 -7268.858616310716 -134.93902485170608 -88431.85182590484 -92.43813019415728 5432.28880649126 -2.6515269426156627e-17 14460.296609654324 234.81349592492307
2 -41535.23133835164 -253.53629661575837 12644.754854960265 4.937008275700616e-17 -23980.06015006207 -406.87570649816104 -37887.98621371063 -253.53629661575837 12644.754854960265 4.937008275700616e-17 26598.959269778992 607.2694799648723
3 -92079.09695054588 -92.4381301941573 -5432.28880649126 -8.993363985352485e-17 7268.858616310716 -134.9390248517061 -88431.85182590489 -92.4381301941573 -5432.28880649126 -8.993363985352485e-17 -14460.296609654324 234.81349592492307
4 -41535.231338351594 -253.53629661575846 -12644.754854960265 -6.087479812326713e-16 23980.06015006207 -406.87570649816115 -37887.98621371059 -253.53629661575846 -12644.754854960265 -6.087479812326713e-16 -26598.959269778985 607.2694799648726
5 7212.466048469005 -46242.770266020416 -8.711245442525919e-16 -0 1.9642936934302153e-15 -38440.35675971639 7212.466048469005 46242.770266020416 -8.711245442525919e-16 0 -3.040408967160305e-15 -38440.35675971639
6 -12644.754854960263 -37242.770266020416 -6.515748569157092e-15 -4.163336342344337e-17 1.3586608650626763e-14 -26598.959269778985 -12644.754854960263 37242.770266020416 -6.515748569157092e-15 -4.163336342344337e-17 -2.5618905066778307e-14 -26598.95926977899
7 -93427.47859947207 -10.390959996110698 5432.28880649126 7.464858375273406e-16 -7268.858616310716 -19.214289004491455 -89780.23347483108 -10.390959996110698 5432.28880649126 7.464858375273406e-16 14460.296609654324 22.349550979951335
8 -42217.96274767306 14.271604379613676 12644.754854960265 1.3269333274873556e-15 -23980.06015006207 30.65238758709862 -38570.717623032055 14.271604379613676 12644.754854960265 1.3269333274873556e-15 26598.95926977899 -26.434029931356086
9 -93427.47859947213 -10.390959996110716 -5432.2888064912595 2.3873331041323915e-16 7268.858616310715 -19.214289004491484 -89780.23347483114 -10.390959996110716 -5432.2888064912595 2.3873331041323915e-16 -14460.296609654322 22.34955097995138
10 -42217.96274767312 14.27160437961369 -12644.754854960265 1.5459996135490566e-15 23980.06015006207 30.65238758709866 -38570.71762303211 14.27160437961369 -12644.754854960265 1.5459996135490566e-15 -26598.959269778992 -26.4340299313561
11 7212.466048469005 -46242.770266020416 8.387633728623953e-15 -2.8189256484623115e-18 -2.945956551359032e-14 -38440.35675971639 7212.466048469005 46242.770266020416 8.387633728623953e-15 -2.8189256484623115e-18 2.083848128253777e-14 -38440.35675971639
12 -12644.754854960265 -37242.770266020416 3.193186204375664e-14 -8.239936510889834e-18 -9.833614900212439e-14 -26598.959269778985 -12644.754854960265 37242.770266020416 3.193186204375664e-14 -8.239936510889834e-18 9.353257901657172e-14 -26598.959269778985
13 -93412.29525785703 -1.6049750451076818e-14 5432.288806491261 -5.976414602989678e-16 -7268.8586163107175 -5.551711732284644e-14 -89765.05013321603 -1.6049750451076818e-14 5432.288806491261 -5.976414602989678e-16 14460.296609654326 8.681884481460853e-15
14 -42206.335006897185 -3.659743627033927e-14 12644.754854960262 -7.427803948410953e-16 -23980.06015006207 -8.816846903581327e-14 -38559.08988225618 -3.659743627033927e-14 12644.754854960262 -7.427803948410953e-16 26598.95926977898 5.822127604554386e-14
15 -93412.29525785705 -1.4129662571195813e-14 -5432.288806491257 -6.186830239384953e-16 7268.85861631071 -5.6106798257857945e-14 -89765.05013321606 -1.4129662571195813e-14 -5432.288806491257 -6.186830239384953e-16 -14460.296609654315 4.1185202692531464e-16
16 -42206.335006897185 4.027651692584679e-14 -12644.754854960262 -1.0416151676500254e-15 23980.060150062058 4.961228533127893e-14 -38559.08988225618 4.027651692584679e-14 -12644.754854960262 -1.0416151676500254e-15 -26598.959269778978 -1.1149378237210821e-13
17 7212.466048469001 -46242.770266020416 -1.0223492856218572e-14 1.5322648982447063e-18 3.049263922267547e-14 -38440.35675971639 7212.466048469001 46242.770266020416 -1.0223492856218572e-14 1.5322648982447063e-18 -3.084831791463595e-14 -38440.35675971639
18 -12644.754854960262 -37242.770266020416 -2.57801122639179e-14 7.05522156682926e-18 7.46368020429537e-14 -26598.959269779 -12644.754854960262 37242.770266020416 -2.57801122639179e-14 7.05522156682926e-18 -8.004387154055372e-14 -26598.95926977898
19 -93427.47859947212 10.390959996110688 5432.288806491259 -1.325829096305903e-15 -7268.858616310712 19.214289004491373 -89780.23347483113 10.390959996110688 5432.288806491259 -1.325829096305903e-15 14460.29660965432 -22.349550979951378
20 -42217.962747673075 -14.27160437961372 12644.754854960262 -2.3139801278289772e-15 -23980.06015006206 -30.652387587098723 -38570.71762303207 -14.27160437961372 12644.754854960262 -2.3139801278289772e-15 26598.959269778978 26.434029931356143
21 -93427.47859947204 10.39095999611068 -5432.288806491261 -1.105895838108282e-15 7268.858616310718 19.21428900449136 -89780.23347483105 10.39095999611068 -5432.288806491261 -1.105895838108282e-15 -14460.296609654326 -22.349550979951363
22 -42217.96274767306 -14.271604379613738 -12644.754854960267 -1.2889898876765397e-15 23980.060150062072 -30.652387587098726 -38570.717623032055 -14.271604379613738 -12644.754854960267 -1.2889898876765397e-15 -26598.959269778992 26.43402993135623
23 7212.466048469005 -46242.770266020416 -2.0449054272294524e-14 3.2526065174565133e-19 6.315808018832344e-14 -38440.35675971639 7212.466048469005 46242.770266020416 -2.0449054272294524e-14 3.2526065174565133e-19 -5.948073429421245e-14 -38440.35675971639
24 -12644.754854960262 -37242.770266020416 -5.129961370269577e-14 -1.2576745200831851e-17 1.643831387257815e-13 -26598.959269778985 -12644.754854960262 37242.770266020416 -5.129961370269577e-14 -1.2576745200831851e-17 -1.4335903233916185e-13 -26598.959269778985
25 -92079.09695054585 92.43813019415727 5432.2888064912595 2.4364648824012357e-16 -7268.858616310713 134.939024851706 -88431.85182590486 92.43813019415727 5432.2888064912595 2.4364648824012357e-16 14460.296609654322 -234.81349592492305
26 -41535.23133835164 253.5362966157584 12644.754854960265 -7.980352894832126e-16 -23980.060150062065 406.87570649816104 -37887.98621371063 253.5362966157584 12644.754854960265 -7.980352894832126e-16 26598.959269778985 -607.2694799648725
27 -92079.09695054592 92.43813019415725 -5432.28880649126 -7.254017719034931e-16 7268.858616310717 134.93902485170597 -88431.85182590493 92.43813019415725 -5432.28880649126 -7.254017719034931e-16 -14460.296609654322 -234.81349592492305
28 -41535.23133835162 253.53629661575837 -12644.754854960267 7.450644816901589e-16 23980.06015006207 406.875706498161 -37887.98621371062 253.53629661575837 -12644.754854960267 7.450644816901589e-16 -26598.959269778992 -607.2694799648724
29 7212.466048469005 -46242.770266020416 -3.9660247064223064e-15 3.469446951953614e-18 3.713201919269018e-15 -38440.356759716386 7212.466048469005 46242.770266020416 -3.9660247064223064e-15 3.469446951953614e-18 -2.008294631926482e-14 -38440.35675971639
30 -12644.754854960265 -37242.770266020416 -4.718795776297783e-15 -1.3877787807814457e-17 1.8985509564371912e-14 -26598.959269778985 -12644.754854960265 37242.770266020416 -4.718795776297783e-15 -1.3877787807814457e-17 -9.327265093414785e-15 -26598.959269778992
31 161.09816642160106 -653.8502215328782 1.2101163083485608e-15 -0 -2.0871657093095747e-15 -641.6892024230842 161.09816642160106 661.8113348769986 1.2101163083485608e-15 0 5.17353214078179e-15 -665.5725424554453
32 -253.53629661575832 -645.2159476901952 1.2458790957713996e-14 -0 -3.357732150750421e-14 -607.2694799648724 -253.53629661575832 670.4456087196816 1.2458790957713996e-14 0 4.1619513448629825e-14 -682.9584630533312
33 161.0981664216011 -653.8502215328782 8.719369606707407e-17 2.220446049250313e-16 3.8072412017843013e-16 -641.6892024230842 161.0981664216011 661.8113348769986 8.719369606707407e-17 2.220446049250313e-16 9.038862965808745e-16 -665.5725424554453
34 -253.53629661575854 -645.2159476901953 1.0329155743712268e-14 -2.220446049250313e-16 -2.620942661055032e-14 -607.2694799648724 -253.53629661575854 670.4456087196814 1.0329155743712268e-14 -2.220446049250313e-16 3.598755245664832e-14 -682.9584630533311
35 136.4356020458767 -657.6891262606241 -1.118304723923973e-14 -2.220446049250313e-16 3.080378946563065e-14 -657.269705848298 136.4356020458767 657.9724301492527 -1.118304723923973e-14 -2.220446049250313e-16 -3.6183471667345216e-14 -658.1196175141838
36 -239.26469223614458 -657.5017482919811 -3.464575061241464e-14 -1.1102230246251565e-15 9.749116605030826e-14 -656.5244331219751 -239.26469223614458 658.1598081178956 -3.464575061241464e-14 -1.1102230246251565e-15 -1.110494714389547e-13 -658.4986125997183
37 136.43560204587672 -657.6891262606241 -1.2612759764569786e-14 -0 3.621672747292862e-14 -657.269705848298 136.43560204587672 657.9724301492527 -1.2612759764569786e-14 0 -3.957085341695261e-14 -658.1196175141838
38 -239.2646922361449 -657.5017482919811 -3.550527695631921e-14 2.220446049250313e-16 9.987635255289249e-14 -656.5244331219751 -239.2646922361449 658.1598081178956 -3.550527695631921e-14 2.220446049250313e-16 -1.1359939839487284e-13 -658.4986125997184
39 136.43560204587675 -657.9724301492527 2.228226131728504e-14 2.220446049250313e-16 -6.821227305908592e-14 -658.1196175141838 136.43560204587675 657.6891262606241 2.228226131728504e-14 2.220446049250313e-16 6.537027254216181e-14 -657.2697058482979
40 -239.26469223614458 -658.1598081178956 6.013675965194148e-14 8.881784197001252e-16 -1.8533258854691713e-13 -658.4986125997184 -239.26469223614458 657.5017482919811 6.013675965194148e-14 8.881784197001252e-16 1.7615410317950684e-13 -656.524433121975
41 136.43560204587664 -657.9724301492527 2.3053633344244465e-14 -0 -6.99770617179298e-14 -658.1196175141837 136.43560204587664 657.6891262606241 2.3053633344244465e-14 0 6.801167144014945e-14 -657.269705848298
42 -239.26469223614478 -658.1598081178956 6.195163460898142e-14 -0 -1.8718598162159676e-13 -658.4986125997184 -239.26469223614478 657.5017482919811 6.195163460898142e-14 0 1.8430178142736675e-13 -656.5244331219751
43 161.09816642160112 -661.8113348769986 -6.954828264679679e-17 2.220446049250313e-16 3.247721034244032e-15 -665.5725424554453 161.09816642160112 653.8502215328782 -6.954828264679679e-17 2.220446049250313e-16 2.941453640825767e-15 -641.6892024230841
44 -253.53629661575843 -670.4456087196816 -2.1040424901130853e-15 6.661338147750939e-16 1.2867824572302392e-14 -682.9584630533312 -253.53629661575843 645.2159476901952 -2.1040424901130853e-15 6.661338147750939e-16 -4.225641831512141e-16 -607.2694799648723
45 161.09816642160112 -661.8113348769987 -1.5566759201892158e-15 -0 5.2227755871662294e-15 -665.5725424554454 161.09816642160112 653.8502215328781 -1.5566759201892158e-15 0 -3.784213026581519e-15 -641.689202423084
46 -253.5362966157585 -670.4456087196816 1.0383865480571846e-15 -0 1.4759405826861317e-15 -682.9584630533313 -253.5362966157585 645.2159476901952 1.0383865480571846e-15 0 8.150349080879301e-15 -607.2694799648723
$EndElementData
$ElementData
1
"AxialForce"
1
0
3
0
1
46
1 -90255.47438822534
2 -39711.608776031135
3 -90255.47438822538
4 -39711.60877603109
5 7212.466048469005
6 -12644.754854960263
7 -91603.85603715158
8 -40394.34018535256
9 -91603.85603715164
10 -40394.340185352616
11 7212.466048469005
12 -12644.754854960265
13 -91588.67269553653
14 -40382.71244457668
15 -91588.67269553656
16 -40382.71244457668
17 7212.466048469001
18 -12644.754854960262
19 -91603.85603715162
20 -40394.34018535257
21 -91603.85603715155
22 -40394.34018535256
23 7212.466048469005
24 -12644.754854960262
25 -90255.47438822535
26 -39711.608776031135
27 -90255.47438822543
28 -39711.60877603112
29 7212.466048469005
30 -12644.754854960265
31 161.09816642160106
32 -253.53629661575832
33 161.0981664216011
34 -253.53629661575854
35 136.4356020458767
36 -239.26469223614458
37 136.43560204587672
38 -239.2646922361449
39 136.43560204587675
40 -239.26469223614458
41 136.43560204587664
42 -239.26469223614478
43 161.09816642160112
44 -253.53629661575843
45 161.09816642160112
46 -253.5362966157585
$EndElementData
$ElementData
1
"VonMisesStress"
1
0
3
0
1
46
1 44312110.44638144
2 71174863.6254941
3 44312110.44638144
4 71174863.6254941
5 82142229.48188531
6 60635362.03787982
7 44238674.30431
8 70717692.57350554
9 44238674.30431001
10 70717692.57350554
11 82142229.48188531
12 60635362.03787982
13 44217658.99621375
14 70693165.62422833
15 44217658.99621372
16 70693165.62422836
17 82142229.48188531
18 60635362.03787984
19 44238674.30431
20 70717692.57350552
21 44238674.30431001
22 70717692.57350554
23 82142229.48188531
24 60635362.03787982
25 44312110.44638144
26 71174863.6254941
27 44312110.44638145
28 71174863.62549411
29 82142229.48188528
30 60635362.03787982
31 3670570.2195501267
32 3791100.2783784447
33 3670570.219550127
34 3791100.2783784405
35 3623851.524388316
36 3660040.695595224
37 3623851.524388316
38 3660040.695595225
39 3623851.5243883156
40 3660040.6955952253
41 3623851.5243883147
42 3660040.6955952253
43 3670570.219550127
44 3791100.278378441
45 3670570.2195501276
46 3791100.278378441
$EndElementData
$NodeData
1
"Fixity"
1
0
3
0
3
30
1 1 1 1
2 0 0 0
3 0 0 0
4 1 1 1
5 0 0 0
6 0 0 0
7 1 1 1
8 0 0 0
9 0 0 0
10 1 1 1
11 0 0 0
12 0 0 0
13 1 1 1
14 0 0 0
15 0 0 0
16 1 1 1
17 0 0 0
18 0 0 0
19 1 1 1
20 0 0 0
21 0 0 0
22 1 1 1
23 0 0 0
24 0 0 0
25 1 1 1
26 0 0 0
27 0 0 0
28 1 1 1
29 0 0 0
30 0 0 0
$EndNodeData
$NodeData
1
"FixityRotation"
1
0
3
0
3
30
1 1 1 1
2 0 0 0
3 0 0 0
4 1 1 1
5 0 0 0
6 0 0 0
7 1 1 1
8 0 0 0
9 0 0 0
10 1 1 1
11 0 0 0
12 0 0 0
13 1 1 1
14 0 0 0
15 0 0 0
16 1 1 1
17 0 0 0
18 0 0 0
19 1 1 1
20 0 0 0
21 0 0 0
22 1 1 1
23 0 0 0
24 0 0 0
25 1 1 1
26 0 0 0
27 0 0 0
28 1 1 1
29 0 0 0
30 0 0 0
$EndNodeData
$ElementData
1
"CrossSectionArea"
1
0
3
0
1
46
1 0.011844442631532283
2 0.011844442631532283
3 0.011844442631532283
4 0.011844442631532283
5 0.005381201652942294
6 0.005381201652942294
7 0.011844442631532283
8 0.011844442631532283
9 0.011844442631532283
10 0.011844442631532283
11 0.005381201652942294
12 0.005381201652942294
13 0.011844442631532283
14 0.011844442631532283
15 0.011844442631532283
16 0.011844442631532283
17 0.005381201652942294
18 0.005381201652942294
19 0.011844442631532283
20 0.011844442631532283
21 0.011844442631532283
22 0.011844442631532283
23 0.005381201652942294
24 0.005381201652942294
25 0.011844442631532283
26 0.011844442631532283
27 0.011844442631532283
28 0.011844442631532283
29 0.005381201652942294
30 0.005381201652942294
31 0.002848410657883071
32 0.002848410657883071
33 0.002848410657883071
34 0.002848410657883071
35 0.002848410657883071
36 0.002848410657883071
37 0.002848410657883071
38 0.002848410657883071
39 0.002848410657883071
40 0.002848410657883071
41 0.002848410657883071
42 0.002848410657883071
43 0.002848410657883071
44 0.002848410657883071
45 0.002848410657883071
46 0.002848410657883071
$EndElementData
$ElementData
1
"Attribute:ElementFormulation"
1
0
3
0
1
46
1 1
2 1
3 1
4 1
5 1
6 1
7 1
8 1
9 1
10 1
11 1
12 1
13 1
14 1
15 1
16 1
17 1
18 1
19 1
20 1
21 1
22 1
23 1
24 1
25 1
26 1
27 1
28 1
29 1
30 1
31 1
32 1
33 1
34 1
35 1
36 1
37 1
38 1
39 1
40 1
41 1
42 1
43 1
44 1
45 1
46 1
$EndElementData
$ElementData
1
"MaterialID"
1
0
3
0
1
46
1 3
2 3
3 3
4 3
5 3
6 3
7 3
8 3
9 3
10 3
11 3
12 3
13 3
14 3
15 3
16 3
17 3
18 3
19 3
20 3
21 3
22 3
23 3
24 3
25 3
26 3
27 3
28 3
29 3
30 3
31 3
32 3
33 3
34 3
35 3
36 3
37 3
38 3
39 3
40 3
41 3
42 3
43 3
44 3
45 3
46 3
$EndElementData
$ElementData
1
"Attribute:SecondMomentY"
1
0
3
0
1
46
1 5.1345173325392617e-05
2 5.1345173325392617e-05
3 5.1345173325392617e-05
4 5.1345173325392617e-05
5 6.037784243992912e-06
6 6.037784243992912e-06
7 5.1345173325392617e-05
8 5.1345173325392617e-05
9 5.1345173325392617e-05
10 5.1345173325392617e-05
11 6.037784243992912e-06
12 6.037784243992912e-06
13 5.1345173325392617e-05
14 5.1345173325392617e-05
15 5.1345173325392617e-05
16 5.1345173325392617e-05
17 6.037784243992912e-06
18 6.037784243992912e-06
19 5.1345173325392617e-05
20 5.1345173325392617e-05
21 5.1345173325392617e-05
22 5.1345173325392617e-05
23 6.037784243992912e-06
24 6.037784243992912e-06
25 5.1345173325392617e-05
26 5.1345173325392617e-05
27 5.1345173325392617e-05
28 5.1345173325392617e-05
29 6.037784243992912e-06
30 6.037784243992912e-06
31 1.423683272853165e-06
32 1.423683272853165e-06
33 1.423683272853165e-06
34 1.423683272853165e-06
35 1.423683272853165e-06
36 1.423683272853165e-06
37 1.423683272853165e-06
38 1.423683272853165e-06
39 1.423683272853165e-06
40 1.423683272853165e-06
41 1.423683272853165e-06
42 1.423683272853165e-06
43 1.423683272853165e-06
44 1.423683272853165e-06
45 1.423683272853165e-06
46 1.423683272853165e-06
$EndElementData
$ElementData
1
"Attribute:SecondMomentZ"
1
0
3
0
1
46
1 0.00014919426787309272
2 0.00014919426787309272
3 0.00014919426787309272
4 0.00014919426787309272
5 8.356109185847977e-05
6 8.356109185847977e-05
7 0.00014919426787309272
8 0.00014919426787309272
9 0.00014919426787309272
10 0.00014919426787309272
11 8.356109185847977e-05
12 8.356109185847977e-05
13 0.00014919426787309272
14 0.00014919426787309272
15 0.00014919426787309272
16 0.00014919426787309272
17 8.356109185847977e-05
18 8.356109185847977e-05
19 0.00014919426787309272
20 0.00014919426787309272
21 0.00014919426787309272
22 0.00014919426787309272
23 8.356109185847977e-05
24 8.356109185847977e-05
25 0.00014919426787309272
26 0.00014919426787309272
27 0.00014919426787309272
28 0.00014919426787309272
29 8.356109185847977e-05
30 8.356109185847977e-05
31 1.9431682510835934e-05
32 1.9431682510835934e-05
33 1.9431682510835934e-05
34 1.9431682510835934e-05
35 1.9431682510835934e-05
36 1.9431682510835934e-05
37 1.9431682510835934e-05
38 1.9431682510835934e-05
39 1.9431682510835934e-05
40 1.9431682510835934e-05
41 1.9431682510835934e-05
42 1.9431682510835934e-05
43 1.9431682510835934e-05
44 1.9431682510835934e-05
45 1.9431682510835934e-05
46 1.9431682510835934e-05
$EndElementData
$ElementData
1
"Attribute:SectionDimension1"
1
0
3
0
1
46
1 0.26
2 0.26
3 0.26
4 0.26
5 0.3
6 0.3
7 0.26
8 0.26
9 0.26
10 0.26
11 0.3
12 0.3
13 0.26
14 0.26
15 0.26
16 0.26
17 0.3
18 0.3
19 0.26
20 0.26
21 0.26
22 0.26
23 0.3
24 0.3
25 0.26
26 0.26
27 0.26
28 0.26
29 0.3
30 0.3
31 0.2
32 0.2
33 0.2
34 0.2
35 0.2
36 0.2
37 0.2
38 0.2
39 0.2
40 0.2
41 0.2
42 0.2
43 0.2
44 0.2
45 0.2
46 0.2
$EndElementData
$ElementData
1
"Attribute:SectionDimension2"
1
0
3
0
1
46
1 0.26
2 0.26
3 0.26
4 0.26
5 0.15
6 0.15
7 0.26
8 0.26
9 0.26
10 0.26
11 0.15
12 0.15
13 0.26
14 0.26
15 0.26
16 0.26
17 0.15
18 0.15
19 0.26
20 0.26
21 0.26
22 0.26
23 0.15
24 0.15
25 0.26
26 0.26
27 0.26
28 0.26
29 0.15
30 0.15
31 0.1
32 0.1
33 0.1
34 0.1
35 0.1
36 0.1
37 0.1
38 0.1
39 0.1
40 0.1
41 0.1
42 0.1
43 0.1
44 0.1
45 0.1
46 0.1
$EndElementData
$ElementData
1
"Attribute:SectionDimension3"
1
0
3
0
1
46
1 0.01
2 0.01
3 0.01
4 0.01
5 0.0071
6 0.0071
7 0.01
8 0.01
9 0.01
10 0.01
11 0.0071
12 0.0071
13 0.01
14 0.01
15 0.01
16 0.01
17 0.0071
18 0.0071
19 0.01
20 0.01
21 0.01
22 0.01
23 0.0071
24 0.0071
25 0.01
26 0.01
27 0.01
28 0.01
29 0.0071
30 0.0071
31 0.0056
32 0.0056
33 0.0056
34 0.0056
35 0.0056
36 0.0056
37 0.0056
38 0.0056
39 0.0056
40 0.0056
41 0.0056
42 0.0056
43 0.0056
44 0.0056
45 0.0056
46 0.0056
$EndElementData
$ElementData
1
"Attribute:SectionDimension4"
1
0
3
0
1
46
1 0.0175
2 0.0175
3 0.0175
4 0.0175
5 0.0107
6 0.0107
7 0.0175
8 0.0175
9 0.0175
10 0.0175
11 0.0107
12 0.0107
13 0.0175
14 0.0175
15 0.0175
16 0.0175
17 0.0107
18 0.0107
19 0.0175
20 0.0175
21 0.0175
22 0.0175
23 0.0107
24 0.0107
25 0.0175
26 0.0175
27 0.0175
28 0.0175
29 0.0107
30 0.0107
31 0.0085
32 0.0085
33 0.0085
34 0.0085
35 0.0085
36 0.0085
37 0.0085
38 0.0085
39 0.0085
40 0.0085
41 0.0085
42 0.0085
43 0.0085
44 0.0085
45 0.0085
46 0.0085
$EndElementData
$ElementData
1
"Attribute:SectionDimension5"
1
0
3
0
1
46
1 0.024
2 0.024
3 0.024
4 0.024
5 0.015
6 0.015
7 0.024
8 0.024
9 0.024
10 0.024
11 0.015
12 0.015
13 0.024
14 0.024
15 0.024
16 0.024
17 0.015
18 0.015
19 0.024
20 0.024
21 0.024
22 0.024
23 0.015
24 0.015
25 0.024
26 0.024
27 0.024
28 0.024
29 0.015
30 0.015
31 0.012
32 0.012
33 0.012
34 0.012
35 0.012
36 0.012
37 0.012
38 0.012
39 0.012
40 0.012
41 0.012
42 0.012
43 0.012
44 0.012
45 0.012
46 0.012
$EndElementData
$ElementData
1
"Attribute:SectionShape"
1
0
3
0
1
46
1 5
2 5
3 5
4 5
5 5
6 5
7 5
8 5
9 5
10 5
11 5
12 5
13 5
14 5
15 5
16 5
17 5
18 5
19 5
20 5
21 5
22 5
23 5
24 5
25 5
26 5
27 5
28 5
29 5
30 5
31 5
32 5
33 5
34 5
35 5
36 5
37 5
38 5
39 5
40 5
41 5
42 5
43 5
44 5
45 5
46 5
$EndElementData
$ElementData
1
"Attribute:ShearAreaY"
1
0
3
0
1
46
1 0.002288291515591876
2 0.002288291515591876
3 0.002288291515591876
4 0.002288291515591876
5 0.0020268632069733684
6 0.0020268632069733684
7 0.002288291515591876
8 0.002288291515591876
9 0.002288291515591876
10 0.002288291515591876
11 0.0020268632069733684
12 0.0020268632069733684
13 0.002288291515591876
14 0.002288291515591876
15 0.002288291515591876
16 0.002288291515591876
17 0.0020268632069733684
18 0.0020268632069733684
19 0.002288291515591876
20 0.002288291515591876
21 0.002288291515591876
22 0.002288291515591876
23 0.0020268632069733684
24 0.0020268632069733684
25 0.002288291515591876
26 0.002288291515591876
27 0.002288291515591876
28 0.002288291515591876
29 0.0020268632069733684
30 0.0020268632069733684
31 0.0010633841173523775
32 0.0010633841173523775
33 0.0010633841173523775
34 0.0010633841173523775
35 0.0010633841173523775
36 0.0010633841173523775
37 0.0010633841173523775
38 0.0010633841173523775
39 0.0010633841173523775
40 0.0010633841173523775
41 0.0010633841173523775
42 0.0010633841173523775
43 0.0010633841173523775
44 0.0010633841173523775
45 0.0010633841173523775
46 0.0010633841173523775
$EndElementData
$ElementData
1
"Attribute:ShearAreaZ"
1
0
3
0
1
46
1 0.00773202614379085
2 0.00773202614379085
3 0.00773202614379085
4 0.00773202614379085
5 0.0027274509803921565
6 0.0027274509803921565
7 0.00773202614379085
8 0.00773202614379085
9 0.00773202614379085
10 0.00773202614379085
11 0.0027274509803921565
12 0.0027274509803921565
13 0.00773202614379085
14 0.00773202614379085
15 0.00773202614379085
16 0.00773202614379085
17 0.0027274509803921565
18 0.0027274509803921565
19 0.00773202614379085
20 0.00773202614379085
21 0.00773202614379085
22 0.00773202614379085
23 0.0027274509803921565
24 0.0027274509803921565
25 0.00773202614379085
26 0.00773202614379085
27 0.00773202614379085
28 0.00773202614379085
29 0.0027274509803921565
30 0.0027274509803921565
31 0.0014444444444444446
32 0.0014444444444444446
33 0.0014444444444444446
34 0.0014444444444444446
35 0.0014444444444444446
36 0.0014444444444444446
37 0.0014444444444444446
38 0.0014444444444444446
39 0.0014444444444444446
40 0.0014444444444444446
41 0.0014444444444444446
42 0.0014444444444444446
43 0.0014444444444444446
44 0.0014444444444444446
45 0.0014444444444444446
46 0.0014444444444444446
$EndElementData
$ElementData
1
"Attribute:TorsionConstant"
1
0
3
0
1
46
1 1.2377827388519793e-06
2 1.2377827388519793e-06
3 1.2377827388519793e-06
4 1.2377827388519793e-06
5 2.011849577943933e-07
6 2.011849577943933e-07
7 1.2377827388519793e-06
8 1.2377827388519793e-06
9 1.2377827388519793e-06
10 1.2377827388519793e-06
11 2.011849577943933e-07
12 2.011849577943933e-07
13 1.2377827388519793e-06
14 1.2377827388519793e-06
15 1.2377827388519793e-06
16 1.2377827388519793e-06
17 2.011849577943933e-07
18 2.011849577943933e-07
19 1.2377827388519793e-06
20 1.2377827388519793e-06
21 1.2377827388519793e-06
22 1.2377827388519793e-06
23 2.011849577943933e-07
24 2.011849577943933e-07
25 1.2377827388519793e-06
26 1.2377827388519793e-06
27 1.2377827388519793e-06
28 1.2377827388519793e-06
29 2.011849577943933e-07
30 2.011849577943933e-07
31 6.980120130097939e-08
32 6.980120130097939e-08
33 6.980120130097939e-08
34 6.980120130097939e-08
35 6.980120130097939e-08
36 6.980120130097939e-08
37 6.980120130097939e-08
38 6.980120130097939e-08
39 6.980120130097939e-08
40 6.980120130097939e-08
41 6.980120130097939e-08
42 6.980120130097939e-08
43 6.980120130097939e-08
44 6.980120130097939e-08
45 6.980120130097939e-08
46 6.980120130097939e-08
$EndElementData
$ElementData
1
"Attribute:UniformLoadGlobalX"
1
0
3
0
1
46
1 0
2 0
3 0
4 0
5 0
6 0
7 0
8 0
9 0
10 0
11 0
12 0
13 0
14 0
15 0
16 0
17 0
18 0
19 0
20 0
21 0
22 0
23 0
24 0
25 0
26 0
27 0
28 0
29 0
30 0
31 0
32 0
33 0
34 0
35 0
36 0
37 0
38 0
39 0
40 0
41 0
42 0
43 0
44 0
45 0
46 0
$EndElementData
$ElementData
1
"Attribute:UniformLoadGlobalY"
1
0
3
0
1
46
1 0
2 0
3 0
4 0
5 -15000
6 -12000
7 0
8 0
9 0
10 0
11 -15000
12 -12000
13 0
14 0
15 0
16 0
17 -15000
18 -12000
19 0
20 0
21 0
22 0
23 -15000
24 -12000
25 0
26 0
27 0
28 0
29 -15000
30 -12000
31 0
32 0
33 0
34 0
35 0
36 0
37 0
38 0
39 0
40 0
41 0
42 0
43 0
44 0
45 0
46 0
$EndElementData
$ElementData
1
"Attribute:UniformLoadGlobalZ"
1
0
3
0
1
46
1 0
2 0
3 0
4 0
5 0
6 0
7 0
8 0
9 0
10 0
11 0
12 0
13 0
14 0
15 0
16 0
17 0
18 0
19 0
20 0
21 0
22 0
23 0
24 0
25 0
26 0
27 0
28 0
29 0
30 0
31 0
32 0
33 0
34 0
35 0
36 0
37 0
38 0
39 0
40 0
41 0
42 0
43 0
44 0
45 0
46 0
$EndElementData
$ElementData
1
"Attribute:UniformLoadLocalX"
1
0
3
0
1
46
1 0
2 0
3 0
4 0
5 0
6 0
7 0
8 0
9 0
10 0
11 0
12 0
13 0
14 0
15 0
16 0
17 0
18 0
19 0
20 0
21 0
22 0
23 0
24 0
25 0
26 0
27 0
28 0
29 0
30 0
31 0
32 0
33 0
34 0
35 0
36 0
37 0
38 0
39 0
40 0
41 0
42 0
43 0
44 0
45 0
46 0
$EndElementData
$ElementData
1
"Attribute:UniformLoadLocalY"
1
0
3
0
1
46
1 0
2 0
3 0
4 0
5 0
6 0
7 0
8 0
9 0
10 0
11 0
12 0
13 0
14 0
15 0
16 0
17 0
18 0
19 0
20 0
21 0
22 0
23 0
24 0
25 0
26 0
27 0
28 0
29 0
30 0
31 0
32 0
33 0
34 0
35 0
36 0
37 0
38 0
39 0
40 0
41 0
42 0
43 0
44 0
45 0
46 0
$EndElementData
$ElementData
1
"Attribute:UniformLoadLocalZ"
1
0
3
0
1
46
1 0
2 0
3 0
4 0
5 0
6 0
7 0
8 0
9 0
10 0
11 0
12 0
13 0
14 0
15 0
16 0
17 0
18 0
19 0
20 0
21 0
22 0
23 0
24 0
25 0
26 0
27 0
28 0
29 0
30 0
31 0
32 0
33 0
34 0
35 0
36 0
37 0
38 0
39 0
40 0
41 0
42 0
43 0
44 0
45 0
46 0
$EndElementData
$ElementData
1
"BeamOrientation"
1
0
3
0
3
46
1 1 0 0
2 1 0 0
3 1 0 0
4 1 0 0
5 0 0 0
6 0 0 0
7 1 0 0
8 1 0 0
9 1 0 0
10 1 0 0
11 0 0 0
12 0 0 0
13 1 0 0
14 1 0 0
15 1 0 0
16 1 0 0
17 0 0 0
18 0 0 0
19 1 0 0
20 1 0 0
21 1 0 0
22 1 0 0
23 0 0 0
24 0 0 0
25 1 0 0
26 1 0 0
27 1 0 0
28 1 0 0
29 0 0 0
30 0 0 0
31 0 0 0
32 0 0 0
33 0 0 0
34 0 0 0
35 0 0 0
36 0 0 0
37 0 0 0
38 0 0 0
39 0 0 0
40 0 0 0
41 0 0 0
42 0 0 0
43 0 0 0
44 0 0 0
45 0 0 0
46 0 0 0
$EndElementData
$AnafData
1
1
GLOBAL 3 1
"Gravity"
0 -9.80665 0
$EndAnafData
