$MeshFormat
4.1 0 8
$EndMeshFormat
$PhysicalNames
3
1 1 "Material:Structural Steel S355 (EN 10025)"
1 2 "Section:CHS 323.9x12.5"
1 3 "Section:RHS 300x200x12.5"
$EndPhysicalNames
$Entities
0 2 0 0
1 0 0 0 18 7 0 2 1 2 0
2 0 7 0 18 7 0 2 1 3 0
$EndEntities
$Nodes
1 12 1 12
1 1 0 12
1
2
3
4
5
6
7
8
9
10
11
12
0 0 0
18 0 0
0 7 0
2 7 0
4 7 0
6 7 0
8 7 0
10 7 0
12 7 0
14 7 0
16 7 0
18 7 0
$EndNodes
$Elements
2 11 1 11
1 1 1 2
1 1 3
2 2 12
1 2 1 9
3 3 4
4 4 5
5 5 6
6 6 7
7 7 8
8 8 9
9 9 10
10 10 11
11 11 12
$EndElements
$NodeData
1
"Displacement"
1
0
3
0
3
12
1 0 0 0
2 0 0 0
3 6.951265256723984e-05 -0.0001046890543100472 0.06600869191125804
4 5.4065396441213006e-05 -0.014536055418309055 0.0899112344481682
5 3.861814031518617e-05 -0.03264857330787338 0.1149143375544042
6 2.317088418915933e-05 -0.04819453433737575 0.13495269019834874
7 7.723628063132501e-06 -0.05700879958306473 0.14598275169225713
8 -7.723628062894326e-06 -0.05700879958306464 0.145982751692257
9 -2.3170884188921153e-05 -0.04819453433737552 0.13495269019834835
10 -3.861814031494798e-05 -0.03264857330787313 0.11491433755440365
11 -5.406539644097482e-05 -0.014536055418308914 0.08991123444816769
12 -6.951265256700165e-05 -0.00010468905431004631 0.06600869191125765
$EndNodeData
$NodeData
1
"Rotation"
1
0
3
0
3
12
1 0 0 0
2 0 0 0
3 0.014144719695269583 -0.010412524661203362 -0.004993789386935831
4 0.01414471969526957 -0.012816094427749329 -0.008743387156437925
5 0.01414471969526956 -0.011681566092518554 -0.008848488367657456
6 0.014144719695269557 -0.008019824827447264 -0.006350377751532297
7 0.014144719695269549 -0.0028417558044717714 -0.0022903400390003777
8 0.01414471969526954 0.0028417558044719045 0.002290340039000459
9 0.014144719695269531 0.008019824827447373 0.006350377751532349
10 0.014144719695269519 0.011681566092518596 0.008848488367657425
11 0.014144719695269509 0.012816094427749268 0.00874338715643786
12 0.014144719695269503 0.010412524661203309 0.004993789386935763
$EndNodeData
$ElementData
1
"BeamSectionForce"
1
0
3
0
12
11
1 -41701.031524672435 -18988.863106212266 -18000.000000000422 -35688.17243822596 126000.00000000316 -44218.88824876986 -35111.31297157785 -18988.863106212266 -18000.000000000422 -35688.17243822596 5.820766091346741e-11 88703.15349471601
2 -41701.03152467211 18988.863106212266 -18000.000000000306 35688.172438225774 126000.00000000239 44218.88824877016 -35111.31297157752 18988.863106212266 -18000.000000000306 35688.172438225774 1.1641532182693481e-10 -88703.15349471572
3 -18988.863106212273 -35111.312971577725 18000.00000000029 -8.731149137020111e-11 -35688.172438226036 -88703.15349471595 -18988.863106212273 -27308.79897789368 14000.000000000291 -8.731149137020111e-11 -3688.1724382255147 -26283.04154524449
4 -18988.86310621228 -27308.79897789405 14000.00000000035 -5.820766091346741e-11 -3688.172438225631 -26283.04154524484 -18988.86310621228 -19506.28498421 10000.00000000035 -5.820766091346741e-11 20311.827561775066 20532.042416859327
5 -18988.863106212288 -19506.284984209324 9999.999999999825 -1.4551915228366852e-11 20311.827561775488 20532.042416859473 -18988.863106212288 -11703.770990525274 5999.999999999825 -1.4551915228366852e-11 36311.82756177516 51742.098391594336
6 -18988.863106212273 -11703.770990525805 6000.000000000131 -5.820766091346741e-11 36311.82756177467 51742.098391594205 -18988.863106212273 -3901.2569968417565 2000.000000000131 -5.820766091346741e-11 44311.82756177447 67347.12637896131
7 -18988.863106212273 -3901.2569968414564 1999.9999999997672 -5.820766091346741e-11 44311.82756177523 67347.12637896194 -18988.863106212273 3901.2569968425914 -2000.0000000002328 -5.820766091346741e-11 44311.827561775215 67347.12637896079
8 -18988.863106212273 3901.2569968415382 -2000.000000000029 -5.820766091346741e-11 44311.82756177431 67347.12637896097 -18988.863106212273 11703.770990525587 -6000.000000000029 -5.820766091346741e-11 36311.82756177472 51742.09839159387
9 -18988.863106212273 11703.770990525332 -6000.000000000291 -7.275957614183426e-11 36311.82756177513 51742.098391593 -18988.863106212273 19506.284984209382 -10000.000000000291 -7.275957614183426e-11 20311.827561774484 20532.04241685828
10 -18988.86310621228 19506.28498420942 -10000.000000000116 -5.820766091346741e-11 20311.827561773873 20532.04241685828 -18988.86310621228 27308.798977893468 -14000.000000000116 -5.820766091346741e-11 -3688.1724382258058 -26283.04154524484
11 -18988.863106212288 27308.798977893504 -14000.000000000087 -4.3655745685100555e-11 -3688.1724382254856 -26283.041545244738 -18988.863106212288 35111.31297157755 -18000.000000000087 -4.3655745685100555e-11 -35688.17243822592 -88703.15349471572
$EndElementData
$ElementData
1
"AxialForce"
1
0
3
0
1
11
1 -38406.17224812514
2 -38406.172248124814
3 -18988.863106212273
4 -18988.86310621228
5 -18988.863106212288
6 -18988.863106212273
7 -18988.863106212273
8 -18988.863106212273
9 -18988.863106212273
10 -18988.86310621228
11 -18988.863106212288
$EndElementData
$ElementData
1
"VonMisesStress"
1
0
3
0
1
11
1 155481780.88334668
2 155481780.88334596
3 137393668.5165632
4 49065358.18482185
5 99817748.98587357
6 125471813.6577664
7 128683546.2782799
8 125471813.65776479
9 99817748.98587249
10 49065358.184819385
11 137393668.51656255
$EndElementData
$NodeData
1
"Fixity"
1
0
3
0
3
12
1 1 1 1
2 1 1 1
3 0 0 0
4 0 0 0
5 0 0 0
6 0 0 0
7 0 0 0
8 0 0 0
9 0 0 0
10 0 0 0
11 0 0 0
12 0 0 0
$EndNodeData
$NodeData
1
"FixityRotation"
1
0
3
0
3
12
1 1 1 1
2 1 1 1
3 0 0 0
4 0 0 0
5 0 0 0
6 0 0 0
7 0 0 0
8 0 0 0
9 0 0 0
10 0 0 0
11 0 0 0
12 0 0 0
$EndNodeData
$ElementData
1
"CrossSectionArea"
1
0
3
0
1
11
1 0.01222864940409828
2 0.01222864940409828
3 0.01170734231515426
4 0.01170734231515426
5 0.01170734231515426
6 0.01170734231515426
7 0.01170734231515426
8 0.01170734231515426
9 0.01170734231515426
10 0.01170734231515426
11 0.01170734231515426
$EndElementData
$ElementData
1
"Attribute:ElementFormulation"
1
0
3
0
1
11
1 1
2 1
3 1
4 1
5 1
6 1
7 1
8 1
9 1
10 1
11 1
$EndElementData
$ElementData
1
"MaterialID"
1
0
3
0
1
11
1 3
2 3
3 3
4 3
5 3
6 3
7 3
8 3
9 3
10 3
11 3
$EndElementData
$ElementData
1
"Attribute:SecondMomentY"
1
0
3
0
1
11
1 0.00014846529625485306
2 0.00014846529625485306
3 7.537006012715123e-05
4 7.537006012715123e-05
5 7.537006012715123e-05
6 7.537006012715123e-05
7 7.537006012715123e-05
8 7.537006012715123e-05
9 7.537006012715123e-05
10 7.537006012715123e-05
11 7.537006012715123e-05
$EndElementData
$ElementData
1
"Attribute:SecondMomentZ"
1
0
3
0
1
11
1 0.00014846529625485306
2 0.00014846529625485306
3 0.00014272687359157574
4 0.00014272687359157574
5 0.00014272687359157574
6 0.00014272687359157574
7 0.00014272687359157574
8 0.00014272687359157574
9 0.00014272687359157574
10 0.00014272687359157574
11 0.00014272687359157574
$EndElementData
$ElementData
1
"Attribute:SectionDimension1"
1
0
3
0
1
11
1 0.3239
2 0.3239
3 0.3
4 0.3
5 0.3
6 0.3
7 0.3
8 0.3
9 0.3
10 0.3
11 0.3
$EndElementData
$ElementData
1
"Attribute:SectionDimension2"
1
0
3
0
1
11
1 0.0125
2 0.0125
3 0.2
4 0.2
5 0.2
6 0.2
7 0.2
8 0.2
9 0.2
10 0.2
11 0.2
$EndElementData
$ElementData
1
"Attribute:SectionDimension3"
1
0
3
0
1
11
1 0
2 0
3 0.0125
4 0.0125
5 0.0125
6 0.0125
7 0.0125
8 0.0125
9 0.0125
10 0.0125
11 0.0125
$EndElementData
$ElementData
1
"Attribute:SectionDimension4"
1
0
3
0
1
11
1 0
2 0
3 0.01875
4 0.01875
5 0.01875
6 0.01875
7 0.01875
8 0.01875
9 0.01875
10 0.01875
11 0.01875
$EndElementData
$ElementData
1
"Attribute:SectionDimension5"
1
0
3
0
1
11
1 0
2 0
3 0.0125
4 0.0125
5 0.0125
6 0.0125
7 0.0125
8 0.0125
9 0.0125
10 0.0125
11 0.0125
$EndElementData
$ElementData
1
"Attribute:SectionShape"
1
0
3
0
1
11
1 3
2 3
3 4
4 4
5 4
6 4
7 4
8 4
9 4
10 4
11 4
$EndElementData
$ElementData
1
"Attribute:ShearAreaY"
1
0
3
0
1
11
1 0.006505445863801528
2 0.006505445863801528
3 0.0065459767763115665
4 0.0065459767763115665
5 0.0065459767763115665
6 0.0065459767763115665
7 0.0065459767763115665
8 0.0065459767763115665
9 0.0065459767763115665
10 0.0065459767763115665
11 0.0065459767763115665
$EndElementData
$ElementData
1
"Attribute:ShearAreaZ"
1
0
3
0
1
11
1 0.006505445863801528
2 0.006505445863801528
3 0.003641912063947484
4 0.003641912063947484
5 0.003641912063947484
6 0.003641912063947484
7 0.003641912063947484
8 0.003641912063947484
9 0.003641912063947484
10 0.003641912063947484
11 0.003641912063947484
$EndElementData
$ElementData
1
"Attribute:TorsionConstant"
1
0
3
0
1
11
1 0.0002969305925097061
2 0.0002969305925097061
3 0.00015676502090145543
4 0.00015676502090145543
5 0.00015676502090145543
6 0.00015676502090145543
7 0.00015676502090145543
8 0.00015676502090145543
9 0.00015676502090145543
10 0.00015676502090145543
11 0.00015676502090145543
$EndElementData
$ElementData
1
"Attribute:UniformLoadGlobalX"
1
0
3
0
1
11
1 0
2 0
3 0
4 0
5 0
6 0
7 0
8 0
9 0
10 0
11 0
$EndElementData
$ElementData
1
"Attribute:UniformLoadGlobalY"
1
0
3
0
1
11
1 0
2 0
3 -3000
4 -3000
5 -3000
6 -3000
7 -3000
8 -3000
9 -3000
10 -3000
11 -3000
$EndElementData
$ElementData
1
"Attribute:UniformLoadGlobalZ"
1
0
3
0
1
11
1 0
2 0
3 2000
4 2000
5 2000
6 2000
7 2000
8 2000
9 2000
10 2000
11 2000
$EndElementData
$ElementData
1
"Attribute:UniformLoadLocalX"
1
0
3
0
1
11
1 0
2 0
3 0
4 0
5 0
6 0
7 0
8 0
9 0
10 0
11 0
$EndElementData
$ElementData
1
"Attribute:UniformLoadLocalY"
1
0
3
0
1
11
1 0
2 0
3 0
4 0
5 0
6 0
7 0
8 0
9 0
10 0
11 0
$EndElementData
$ElementData
1
"Attribute:UniformLoadLocalZ"
1
0
3
0
1
11
1 0
2 0
3 0
4 0
5 0
6 0
7 0
8 0
9 0
10 0
11 0
$EndElementData
$ElementData
1
"BeamOrientation"
1
0
3
0
3
11
1 0 0 0
2 0 0 0
3 0 0 0
4 0 0 0
5 0 0 0
6 0 0 0
7 0 0 0
8 0 0 0
9 0 0 0
10 0 0 0
11 0 0 0
$EndElementData
$AnafData
1
1
GLOBAL 3 1
"Gravity"
0 -9.80665 0
$EndAnafData
