$MeshFormat
4.1 0 8
$EndMeshFormat
$PhysicalNames
4
1 1 "Material:Structural Steel S355 (EN 10025)"
1 2 "Section:RHS 100x50x5"
1 3 "Section:Box 40x40x2"
1 4 "Section:Box 120x60x4"
$EndPhysicalNames
$Entities
0 3 0 0
1 0 0 0 8.100000000000001 6 1.1 2 1 2 0
2 0 0 0 8.100000000000001 6 1.1 2 1 3 0
3 0 1.5 0 8.100000000000001 6 1.1 2 1 4 0
$EndEntities
$Nodes
1 40 1 40
1 1 0 40
1
2
3
4
5
6
7
8
9
10
11
12
13
14
15
16
17
18
19
20
21
22
23
24
25
26
27
28
29
30
31
32
33
34
35
36
37
38
39
40
0 0 0
0 1.5 0
0 3 0
0 4.5 0
0 6 0
0 0 1.1
0 1.5 1.1
0 3 1.1
0 4.5 1.1
0 6 1.1
2.7 0 0
2.7 1.5 0
2.7 3 0
2.7 4.5 0
2.7 6 0
2.7 0 1.1
2.7 1.5 1.1
2.7 3 1.1
2.7 4.5 1.1
2.7 6 1.1
5.4 0 0
5.4 1.5 0
5.4 3 0
5.4 4.5 0
5.4 6 0
5.4 0 1.1
5.4 1.5 1.1
5.4 3 1.1
5.4 4.5 1.1
5.4 6 1.1
8.100000000000001 0 0
8.100000000000001 1.5 0
8.100000000000001 3 0
8.100000000000001 4.5 0
8.100000000000001 6 0
8.100000000000001 0 1.1
8.100000000000001 1.5 1.1
8.100000000000001 3 1.1
8.100000000000001 4.5 1.1
8.100000000000001 6 1.1
$EndNodes
$Elements
3 88 1 88
1 1 1 32
1 1 2
2 2 3
3 3 4
4 4 5
5 6 7
6 7 8
7 8 9
8 9 10
17 11 12
18 12 13
19 13 14
20 14 15
21 16 17
22 17 18
23 18 19
24 19 20
33 21 22
34 22 23
35 23 24
36 24 25
37 26 27
38 27 28
39 28 29
40 29 30
49 31 32
50 32 33
51 33 34
52 34 35
53 36 37
54 37 38
55 38 39
56 39 40
1 2 1 32
9 1 7
10 2 7
11 7 3
12 3 8
13 3 9
14 4 9
15 9 5
16 5 10
25 11 17
26 12 17
27 17 13
28 13 18
29 13 19
30 14 19
31 19 15
32 15 20
41 21 27
42 22 27
43 27 23
44 23 28
45 23 29
46 24 29
47 29 25
48 25 30
57 31 37
58 32 37
59 37 33
60 33 38
61 33 39
62 34 39
63 39 35
64 35 40
1 3 1 24
65 2 12
66 7 17
67 3 13
68 8 18
69 4 14
70 9 19
71 5 15
72 10 20
73 12 22
74 17 27
75 13 23
76 18 28
77 14 24
78 19 29
79 15 25
80 20 30
81 22 32
82 27 37
83 23 33
84 28 38
85 24 34
86 29 39
87 25 35
88 30 40
$EndElements
$NodeData
1
"Displacement"
1
0
3
0
3
40
1 0 0 0
2 -5.633347565527042e-06 -9.603866221454384e-05 0.00011065518065658121
3 8.302570068558154e-07 -0.00016786074876121648 3.609855380485861e-05
4 -2.933765024089879e-06 -0.00021553240428517833 9.287099679516294e-05
5 1.5505987267845335e-05 -0.00023852508684467269 7.014116844521782e-05
6 0 0 0
7 -6.465263141058835e-06 -9.698946487446862e-05 0.00011438190049950706
8 7.818171844197344e-07 -0.00016937105277077503 3.890432980752445e-05
9 -3.1267876525230856e-06 -0.00021721394493004503 9.431522931318272e-05
10 1.463899370550597e-05 -0.00024034384047235156 7.045452997945918e-05
11 0 0 0
12 -1.6678739461589452e-06 -0.00022030585515870487 0.00024054075743842472
13 1.4997240582940553e-07 -0.0003850896142313687 5.893418227932295e-05
14 -7.098229208356877e-07 -0.000495275570664258 0.000176220245076286
15 4.526455130801479e-06 -0.0005504166344170985 0.00011087981575978617
16 0 0 0
17 -1.9314589079889984e-06 -0.00021922731879192673 0.0002491979371100382
18 1.2321811463759466e-07 -0.0003838989564675984 6.535666517850332e-05
19 -7.862020161422624e-07 -0.000493378520077998 0.00017986362942350303
20 4.245323655704533e-06 -0.0005491204053208427 0.0001117959810289803
21 0 0 0
22 1.6678739461586803e-06 -0.00022030585515870474 0.00024054075743842556
23 -1.499724058295822e-07 -0.00038508961423136843 5.893418227932396e-05
24 7.098229208362234e-07 -0.0004952755706642577 0.00017622024507628735
25 -4.5264551308001245e-06 -0.0005504166344170983 0.00011087981575978824
26 0 0 0
27 1.9314589079890395e-06 -0.000219227318791927 0.000249197937110039
28 -1.2321811463742049e-07 -0.00038389895646759884 6.53566651785044e-05
29 7.862020161426959e-07 -0.0004933785200779983 0.00017986362942350441
30 -4.245323655704508e-06 -0.000549120405320843 0.00011179598102898236
31 0 0 0
32 5.633347565526782e-06 -9.603866221454384e-05 0.00011065518065658109
33 -8.302570068559953e-07 -0.0001678607487612165 3.609855380485826e-05
34 2.933765024090415e-06 -0.00021553240428517838 9.287099679516222e-05
35 -1.550598726784399e-05 -0.00023852508684467274 7.014116844521689e-05
36 0 0 0
37 6.4652631410588796e-06 -9.698946487446855e-05 0.00011438190049950694
38 -7.818171844195617e-07 -0.00016937105277077492 3.890432980752412e-05
39 3.1267876525235227e-06 -0.00021721394493004486 9.431522931318206e-05
40 -1.4638993705505952e-05 -0.00024034384047235137 7.045452997945827e-05
$EndNodeData
$NodeData
1
"Rotation"
1
0
3
0
3
40
1 0 0 0
2 2.321719126677234e-05 -3.437501076058332e-05 -0.0016248643501274769
3 -1.717152652944234e-05 -3.94422787412987e-06 -0.001378304917253927
4 3.004120686563842e-05 -1.5169815860063787e-06 -0.001397486538339403
5 -3.136123082474418e-05 0.00010559128807427452 -0.0021694736539603155
6 0 0 0
7 1.9622623830307923e-05 -1.7863222956598707e-06 -0.0015489266334515186
8 -2.267081850531356e-05 -6.337822751616866e-06 -0.0014665102346617955
9 2.565904921048856e-05 -8.251184970381611e-06 -0.0013067625628299575
10 -3.890923409608869e-05 -2.233722280732299e-05 -0.0022454962202343013
11 0 0 0
12 4.03943688392411e-05 -2.4036189636336533e-05 0.00030413311392692827
13 -4.800548097385774e-05 -1.2082113260989241e-05 0.0001965591313713965
14 5.536941702927281e-05 -2.7203044370765417e-05 0.00017722862813392284
15 -7.740596607431715e-05 -5.404476974369723e-05 0.0004511112595586475
16 0 0 0
17 3.888256572041374e-05 -3.451230697506531e-05 0.00027771223360189765
18 -5.4939870770998544e-05 -1.174378751771052e-05 0.00022800239770139592
19 5.0273023040230095e-05 -2.313958331550691e-05 0.00014659007030559757
20 -8.566338539334649e-05 -6.439200711654476e-06 0.0004822001351225276
21 0 0 0
22 4.0394368839241545e-05 2.4036189636336367e-05 -0.00030413311392692903
23 -4.800548097385772e-05 1.2082113260989011e-05 -0.0001965591313713973
24 5.5369417029273146e-05 2.720304437076511e-05 -0.00017722862813392362
25 -7.740596607431655e-05 5.4044769743696733e-05 -0.00045111125955864847
26 0 0 0
27 3.8882565720414183e-05 3.4512306975065184e-05 -0.00027771223360189857
28 -5.493987077099836e-05 1.1743787517710236e-05 -0.00022800239770139695
29 5.027302304023022e-05 2.3139583315506567e-05 -0.00014659007030559825
30 -8.566338539334564e-05 6.439200711653955e-06 -0.0004822001351225286
31 0 0 0
32 2.321719126677223e-05 3.4375010760583785e-05 0.0016248643501274782
33 -1.717152652944254e-05 3.944227874130612e-06 0.0013783049172539277
34 3.0041206865638276e-05 1.5169815860072758e-06 0.0013974865383394029
35 -3.1361230824744315e-05 -0.00010559128807427358 0.002169473653960317
36 0 0 0
37 1.9622623830307815e-05 1.7863222956602919e-06 0.00154892663345152
38 -2.2670818505313723e-05 6.337822751617611e-06 0.0014665102346617972
39 2.5659049210488348e-05 8.251184970382545e-06 0.0013067625628299584
40 -3.89092340960888e-05 2.2337222807324135e-05 0.002245496220234303
$EndNodeData
$ElementData
1
"BeamSectionForce"
1
0
3
0
12
88
1 -18542.184025052535 115.92971463863049 -496.3478794911229 -2.4949908784198502 248.74490726140485 92.3597223026064 -18383.61899768545 115.92971463863049 -496.3478794911229 -2.4949908784198502 -495.7769119752795 -81.53484965533934
2 -13886.681322404396 -98.33502470700131 -910.5375083132722 2.208712784228023 701.6456407186198 -83.16676417541417 -13728.11629503731 -98.33502470700131 -910.5375083132722 2.208712784228023 -664.1606217512884 64.33577288508775
3 -9243.894561866871 58.58532112641887 -845.5464069146363 0.17617324953657076 632.7016913717271 54.9453141433294 -9085.329534499784 58.58532112641887 -845.5464069146363 0.17617324953657076 -635.6179190002274 -32.9326675462989
4 -4499.498536994918 -27.029474385812588 -1077.111101616487 7.774082098969492 749.149804486335 -34.58636026986159 -4340.933509627833 -27.029474385812588 -1077.111101616487 7.774082098969492 -866.5168479383957 5.957851308857283
5 -18724.97057644913 123.91509845003887 -473.5951698848461 -0.12965400548179362 237.45287119841652 97.5107876804555 -18566.405549082046 123.91509845003887 -473.5951698848461 -0.12965400548179362 -472.9398836288526 -88.36185999460278
6 -13994.242361631388 -91.00013772741977 -913.9500170399726 -0.33035486737237574 691.7274936729156 -78.10963199214868 -13835.677334264301 -91.00013772741977 -913.9500170399726 -0.33035486737237574 -679.1975318870434 58.39057459898096
7 -9276.813857699724 66.10682129896287 -844.839188428663 -0.13887475748531808 645.7728012061123 60.84686777618447 -9118.248830332637 66.10682129896287 -844.839188428663 -0.13887475748531808 -621.4859814368822 -38.31336417225983
8 -4525.876973859061 -17.310777102018996 -1072.914162049532 -1.0223861793388784 733.3266624761081 -28.035365331647906 -4367.3119464919755 -17.310777102018996 -1072.914162049532 -1.0223861793388784 -876.0445805981899 -2.0691996786194196
9 -367.48305458005245 -16.00447311846487 31.717301204567946 -4.494114076707522 -19.720330380774236 -7.328448193748725 -333.5686478270916 8.86609183370646 31.717301204567946 -4.494114076707522 39.277260223643275 -0.6893698260760233
10 208.95654970055693 -9.464184850988625 -2.5040655447260622 0.6290411521087655 1.8090198276470493 -0.5980718777190603 208.95654970055693 15.406380101182704 -2.5040655447260622 0.6290411521087655 -0.9454522715516194 -3.866279265325804
11 -376.9509392884199 -15.351591610946747 -59.54661610118327 -0.5027953274276658 56.449612337353884 -6.855776871909404 -343.036532535459 9.518973341224582 -59.54661610118327 -0.5027953274276658 -54.31349628772884 -1.4311283085039612
12 157.3193847298644 -15.513142343842993 -0.7367187211388975 -0.7306616120830949 0.3734813649525428 -3.8997618539129224 157.3193847298644 9.357422608328335 -0.7367187211388975 -0.7306616120830949 -0.4369092283002445 -0.5141159993798572
13 -195.06150157375959 -14.289607443740724 54.648988659124605 0.19023600912891903 -51.298487138004525 -5.9153715366437325 -161.1470948207987 10.580957508430604 54.648988659124605 0.19023600912891903 50.354507833463714 -2.466127712786897
14 80.97787240530306 -8.630779848714266 -0.6805821452087361 0.7515252838306257 0.2850953624077615 -0.12926395106847055 80.97787240530306 16.239785103457063 -0.6805821452087361 0.7515252838306257 -0.4635449973218481 -4.314216841177008
15 -112.7745559432221 -13.163375338870216 -68.88718562063006 2.948883359240542 59.145318804152595 -4.979095322910139 -78.8601491902612 11.707189613301113 -68.88718562063006 2.948883359240542 -68.9922534603856 -3.6247643108385694
16 17.570128092198956 -17.752712589693303 6.130693544297607 -0.6297440161299086 -5.0668700589215305 -5.104381091949939 17.570128092198956 7.1178523624780246 6.130693544297607 -0.6297440161299086 1.676892839805838 0.7447920330184683
17 -42431.86440499108 261.40114490554225 91.79997723258342 -1.7445834217278289 -45.730941378800836 205.46767170634908 -42273.29937762399 261.40114490554225 91.79997723258342 -1.7445834217278289 91.96902447007429 -186.63404565196433
18 -31758.048588488553 -218.69726174933606 152.97986451908253 0.8676451543289525 -122.91226303013977 -184.63088947939625 -31599.48356112147 -218.69726174933606 152.97986451908253 0.8676451543289525 106.55753374848402 143.41500314460785
19 -21261.923073709517 138.95696818659638 113.30711220289261 -1.0975003165778299 -86.44976542084937 128.31668136993704 -21103.358046342433 138.95696818659638 113.30711220289261 -1.0975003165778299 83.51090288348954 -80.11877090995756
20 -10679.846972052675 -60.69005129277541 193.1789154442591 -1.9482134982575086 -124.06467155972392 -76.47039138520188 -10521.281944685588 -60.69005129277541 193.1789154442591 -1.9482134982575086 165.70370160666474 14.564685553961269
21 -42224.52175509275 273.5745008047628 83.65945572440555 -2.504956047744741 -41.63396499086911 214.24525417732423 -42065.95672772566 273.5745008047628 83.65945572440555 -2.504956047744741 83.8552185957392 -196.11649702982004
22 -31736.49387018813 -213.59972707911106 154.60301099726274 1.6525739804673478 -119.7310107375119 -182.07186232222293 -31577.928842821046 -213.59972707911106 154.60301099726274 1.6525739804673478 112.17350575838225 138.3277282964437
23 -21126.122961450234 146.72022580299978 113.53167683756202 -0.8271242957817411 -91.33741283604427 134.56760170335775 -20967.55793408315 146.72022580299978 113.53167683756202 -0.8271242957817411 78.96010242029877 -85.51273700114197
24 -10795.351579677079 -51.62858229144858 193.23283055641744 1.212139322746391 -119.41282339159412 -70.41119394443788 -10636.786552309992 -51.62858229144858 193.23283055641744 1.212139322746391 170.43642244303206 7.031679492734995
25 -992.4356777263595 -20.4363539156582 -6.1233189798902625 0.6681658085215204 3.78040558872287 -11.601242484019382 -958.5212709733985 4.43421103651313 -6.1233189798902625 0.6681658085215204 -7.609626116238085 3.281610698981376
26 485.40659629995935 -6.564219413575586 -4.196664302405366 -0.21886121583435614 2.1693620656422192 0.9693135302123013 485.40659629995935 18.306345538595743 -4.196664302405366 -0.21886121583435614 -2.446968667003684 -5.488855838548783
27 -721.1301682564524 -19.039459532776952 9.026179596897082 0.3236968050487896 -8.80366005623965 -10.678191607172668 -687.2157615034914 5.831105419394374 9.026179596897082 0.3236968050487896 7.986004522882425 1.6062878243132928
28 360.1075271786285 -19.718689777026476 -1.7183821373497612 0.2604648828550786 0.9495928219612612 -6.193798615772555 360.1075271786285 5.151875175144852 -1.7183821373497612 0.2604648828550786 -0.9406275291234765 1.817949415262337
29 -541.2273538576289 -16.76815974489611 -7.494623136917475 -0.18843472276091888 7.23489234666787 -8.655008025909295 -507.312947104668 8.10240520727522 -7.494623136917475 -0.18843472276091888 -6.705912538161729 -0.5953904186063927
30 204.2839425862985 -4.551231793960042 -3.6282250715669178 -0.25379896260934776 2.0493626104078793 2.123950752261506 204.2839425862985 20.319333158211286 -3.6282250715669178 -0.25379896260934776 -1.941684968315731 -6.548504998076666
31 -189.42012816255982 -14.177812479674305 11.17238929615632 -1.004246489657468 -8.610034296449719 -6.476206603759126 -155.50572140959895 10.692752472497023 11.17238929615632 -1.004246489657468 12.171811091860828 -3.2349134336822587
32 51.36923130126888 -24.049978664671887 -4.334235369407628 0.25752923525366755 3.014579367362711 -8.558478026347752 51.36923130126888 0.8205862874994416 -4.334235369407628 0.25752923525366755 -1.75307953898568 4.217687781097093
33 -42431.86440499106 261.4011449055429 -91.79997723258377 1.7445834217278169 45.730941378801035 205.46767170634965 -42273.29937762397 261.4011449055429 -91.79997723258377 1.7445834217278169 -91.96902447007461 -186.63404565196467
34 -31758.048588488517 -218.69726174933623 -152.97986451908298 -0.8676451543289572 122.91226303014011 -184.6308894793965 -31599.483561121433 -218.69726174933623 -152.97986451908298 -0.8676451543289572 -106.55753374848436 143.4150031446079
35 -21261.923073709517 138.95696818659653 -113.30711220289281 1.097500316577824 86.44976542084952 128.3166813699372 -21103.358046342433 138.95696818659653 -113.30711220289281 1.097500316577824 -83.51090288348969 -80.11877090995756
36 -10679.84697205269 -60.690051292775365 -193.1789154442593 1.948213498257495 124.06467155972408 -76.47039138520176 -10521.281944685603 -60.690051292775365 -193.1789154442593 1.948213498257495 -165.7037016066649 14.564685553961269
37 -42224.5217550928 273.5745008047634 -83.65945572440582 2.5049560477447312 41.63396499086924 214.24525417732474 -42065.95672772571 273.5745008047634 -83.65945572440582 2.5049560477447312 -83.85521859573949 -196.11649702982035
38 -31736.493870188166 -213.59972707911123 -154.6030109972633 -1.6525739804673587 119.73101073751229 -182.07186232222315 -31577.928842821082 -213.59972707911123 -154.6030109972633 -1.6525739804673587 -112.17350575838266 138.32772829644378
39 -21126.12296145022 146.7202258029999 -113.53167683756243 0.8271242957817369 91.3374128360446 134.5676017033578 -20967.557934083135 146.7202258029999 -113.53167683756243 0.8271242957817369 -78.96010242029905 -85.51273700114203
40 -10795.351579677064 -51.62858229144861 -193.2328305564181 -1.212139322746404 119.41282339159457 -70.41119394443777 -10636.786552309977 -51.62858229144861 -193.2328305564181 -1.212139322746404 -170.43642244303257 7.031679492735236
41 -992.4356777263514 -20.436353915658206 6.123318979890279 -0.6681658085215236 -3.78040558872288 -11.601242484019394 -958.5212709733904 4.434211036513123 6.123318979890279 -0.6681658085215236 7.609626116238107 3.2816106989813814
42 485.4065962999539 -6.564219413575575 4.1966643024053045 0.21886121583435525 -2.1693620656421846 0.9693135302123075 485.4065962999539 18.306345538595753 4.1966643024053045 0.21886121583435525 2.4469686670036506 -5.488855838548787
43 -721.1301682564415 -19.039459532776952 -9.02617959689713 -0.3236968050487903 8.803660056239693 -10.678191607172668 -687.2157615034805 5.831105419394377 -9.02617959689713 -0.3236968050487903 -7.986004522882467 1.6062878243132865
44 360.10752717863306 -19.718689777026547 1.718382137349678 -0.2604648828550804 -0.9495928219612162 -6.1937986157726 360.10752717863306 5.151875175144781 1.718382137349678 -0.2604648828550804 0.94062752912343 1.8179494152623814
45 -541.227353857638 -16.768159744896124 7.49462313691748 0.18843472276091877 -7.234892346667875 -8.655008025909309 -507.3129471046771 8.102405207275204 7.49462313691748 0.18843472276091877 6.705912538161732 -0.5953904186063803
46 204.28394258630215 -4.55123179396009 3.6282250715668845 0.25379896260934887 -2.049362610407861 2.1239507522614813 204.28394258630215 20.319333158211236 3.6282250715668845 0.25379896260934887 1.941684968315712 -6.548504998076645
47 -189.42012816255982 -14.1778124796743 -11.17238929615634 1.0042464896574685 8.610034296449733 -6.476206603759117 -155.50572140959895 10.692752472497029 -11.17238929615634 1.0042464896574685 -12.17181109186085 -3.23491343368226
48 51.36923130126797 -24.049978664671855 4.334235369407729 -0.25752923525366755 -3.0145793673627668 -8.558478026347736 51.36923130126797 0.8205862874994754 4.334235369407729 -0.25752923525366755 1.7530795389857354 4.217687781097069
49 -18542.184025052535 115.92971463863046 496.3478794911232 2.494990878419884 -248.744907261405 92.35972230260634 -18383.61899768545 115.92971463863046 496.3478794911232 2.494990878419884 495.77691197527986 -81.53484965533933
50 -13886.6813224044 -98.3350247070013 910.5375083132728 -2.2087127842280028 -701.6456407186204 -83.16676417541419 -13728.116295037313 -98.3350247070013 910.5375083132728 -2.2087127842280028 664.1606217512889 64.33577288508774
51 -9243.894561866875 58.58532112641872 845.5464069146367 -0.17617324953655952 -632.7016913717275 54.945314143329306 -9085.329534499788 58.58532112641872 845.5464069146367 -0.17617324953655952 635.6179190002277 -32.93266754629879
52 -4499.498536994925 -27.029474385812605 1077.111101616488 -7.7740820989694885 -749.1498044863356 -34.586360269861615 -4340.93350962784 -27.029474385812605 1077.111101616488 -7.7740820989694885 866.5168479383965 5.957851308857315
53 -18724.970576449115 123.91509845003881 473.5951698848465 0.12965400548182418 -237.45287119841674 97.51078768045544 -18566.405549082032 123.91509845003881 473.5951698848465 0.12965400548182418 472.939883628853 -88.36185999460278
54 -13994.24236163138 -91.00013772741976 913.9500170399735 0.3303548673723993 -691.7274936729162 -78.10963199214869 -13835.677334264294 -91.00013772741976 913.9500170399735 0.3303548673723993 679.1975318870441 58.39057459898093
55 -9276.813857699717 66.10682129896279 844.8391884286639 0.13887475748533168 -645.7728012061131 60.8468677761844 -9118.24883033263 66.10682129896279 844.8391884286639 0.13887475748533168 621.4859814368829 -38.313364172259796
56 -4525.876973859054 -17.310777102019003 1072.9141620495327 1.022386179338894 -733.3266624761086 -28.035365331647895 -4367.311946491968 -17.310777102019003 1072.9141620495327 1.022386179338894 876.0445805981905 -2.0691996786193982
57 -367.4830545800529 -16.00447311846487 -31.717301204567967 4.494114076707527 19.72033038077425 -7.328448193748724 -333.56864782709204 8.86609183370646 -31.717301204567967 4.494114076707527 -39.2772602236433 -0.6893698260760233
58 208.95654970055602 -9.46418485098863 2.5040655447260867 -0.6290411521087655 -1.8090198276470635 -0.5980718777190641 208.95654970055602 15.406380101182698 2.5040655447260867 -0.6290411521087655 0.9454522715516319 -3.8662792653258
59 -376.95093928841624 -15.351591610946747 59.54661610118332 0.502795327427668 -56.449612337353926 -6.855776871909404 -343.03653253545536 9.518973341224582 59.54661610118332 0.502795327427668 54.313496287728896 -1.4311283085039626
60 157.319384729866 -15.513142343843 0.7367187211389585 0.7306616120831038 -0.37348136495257644 -3.899761853912927 157.319384729866 9.357422608328328 0.7367187211389585 0.7306616120831038 0.4369092283002781 -0.5141159993798539
61 -195.06150157376095 -14.289607443740724 -54.64898865912463 -0.19023600912891725 51.298487138004546 -5.9153715366437325 -161.14709482080008 10.580957508430604 -54.64898865912463 -0.19023600912891725 -50.35450783346374 -2.466127712786897
62 80.97787240530579 -8.630779848714262 0.6805821452088814 -0.7515252838306168 -0.28509536240784095 -0.12926395106846744 80.97787240530579 16.239785103457066 0.6805821452088814 -0.7515252838306168 0.46354499732192855 -4.314216841177009
63 -112.7745559432221 -13.163375338870216 68.88718562063016 -2.9488833592405443 -59.145318804152694 -4.979095322910138 -78.8601491902612 11.707189613301113 68.88718562063016 -2.9488833592405443 68.99225346038571 -3.6247643108385685
64 17.57012809220032 -17.75271258969329 -6.130693544297282 0.6297440161299086 5.066870058921355 -5.104381091949932 17.57012809220032 7.117852362478038 -6.130693544297282 0.6297440161299086 -1.6768928398056566 0.7447920330184603
65 411.68556327742317 -4487.473490430072 5.308189645075267 1.033842642355794 -6.512723490294935 -1198.0515938460082 411.68556327742317 5509.966549671247 5.308189645075267 1.033842642355794 7.819388551408301 -2578.4172238215933
66 470.6882275964682 -4507.4516527769965 8.92625918326291 1.1591979608570973 -14.118475848198518 -1244.1879550725344 470.6882275964682 5489.9883873243225 8.92625918326291 1.1591979608570973 9.982423946611352 -2570.6125467114243
67 -70.62544756183327 -4573.956865497247 0.12483110463850555 -1.8558029573022032 -0.6827726189963377 -1381.1128463441023 -70.62544756183327 5423.483174604072 0.12483110463850555 -1.8558029573022032 -0.3457286364723675 -2527.973363638315
68 -68.3741098901707 -4549.506053956257 0.21242570348235335 -1.9421771778236454 -0.6283893381873007 -1325.7009947052384 -68.3741098901707 5447.933986145062 0.21242570348235335 -1.9421771778236454 -0.05483993878494253 -2538.578703160125
69 230.88411255664218 -4577.200217656172 4.636923106927259 1.5244287724942702 -7.883004211840678 -1385.5192487703926 230.88411255664218 5420.239822445147 4.636923106927259 1.5244287724942702 4.6366881768629336 -2523.622715235508
70 242.9937527275831 -4601.0983927202815 4.490634503430757 1.4814410362621075 -7.003186762285964 -1440.5059647448234 242.9937527275831 5396.341647381038 4.490634503430757 1.4814410362621075 5.12152639697709 -2514.0843585368434
71 -1139.86759369282 -4379.8508087785885 11.476160452949536 -2.771294093931279 -25.58056533727355 -923.2666642549948 -1139.86759369282 5617.5892313227305 11.476160452949536 -2.771294093931279 5.405067885690199 -2594.2135346895852
72 -1079.0448555938294 -4360.194094129501 0.2593509901794494 -2.8139917116379047 0.6545066604669546 -876.6743246143194 -1079.0448555938294 5637.245945971818 0.2593509901794494 -2.8139917116379047 1.3547543339514758 -2600.694324601448
73 346.3090116885187 -4998.7200200506595 6.483702463810914e-14 2.708944180085382e-14 3.037797909709297 -2363.3170751055454 346.3090116885187 4998.7200200506595 6.483702463810914e-14 2.708944180085382e-14 3.037797909709462 -2363.3170751055463
74 401.03847600900934 -4998.7200200506595 5.861977570020827e-14 2.6201263381153694e-14 4.3618150619683425 -2353.4228711171363 401.03847600900934 4998.7200200506595 5.861977570020827e-14 2.6201263381153694e-14 4.3618150619685085 -2353.422871117137
75 -31.139520923013514 -4998.7200200506595 7.216449660063518e-14 1.3322676295501878e-15 1.5269898833555977 -2323.032311155358 -31.139520923013514 4998.7200200506595 7.216449660063518e-14 1.3322676295501878e-15 1.5269898833557911 -2323.0323111553594
76 -25.58439359312033 -4998.7200200506595 7.238654120556021e-14 1.1102230246251565e-14 1.4842308083406714 -2334.807319682843 -25.58439359312033 4998.7200200506595 7.238654120556021e-14 1.1102230246251565e-14 1.484230808340869 -2334.807319682844
77 147.38408424370877 -4998.7200200506595 1.0036416142611415e-13 2.042810365310288e-14 3.438038748134727 -2315.7933418296852 147.38408424370877 4998.7200200506595 1.0036416142611415e-13 2.042810365310288e-14 3.4380387481349874 -2315.7933418296866
78 163.2430579210557 -4998.7200200506595 9.636735853746359e-14 7.549516567451064e-15 2.9244809136105383 -2304.3196839751845 163.2430579210557 4998.7200200506595 9.636735853746359e-14 7.549516567451064e-15 2.9244809136107914 -2304.319683975185
79 -939.8505243218124 -4998.7200200506595 1.4832579608992091e-13 3.6415315207705135e-14 6.830412434004504 -2418.3580781617766 -939.8505243218124 4998.7200200506595 1.4832579608992091e-13 3.6415315207705135e-14 6.830412434004897 -2418.358078161778
80 -881.4777896680041 -4998.7200200506595 1.4144241333724494e-13 5.1514348342607263e-14 0.8138141177121794 -2430.0003729231626 -881.4777896680041 4998.7200200506595 1.4144241333724494e-13 5.1514348342607263e-14 0.8138141177125569 -2430.000372923163
81 411.6855632774235 -5509.966549671249 -5.308189645075317 -1.0338426423558271 7.819388551408407 -2578.417223821595 411.6855632774235 4487.473490430074 -5.308189645075317 -1.0338426423558271 -6.51272349029496 -1198.0515938460094
82 470.68822759646844 -5489.988387324324 -8.92625918326295 -1.15919796085713 9.982423946611446 -2570.6125467114257 470.68822759646844 4507.451652776998 -8.92625918326295 -1.15919796085713 -14.118475848198537 -1244.187955072536
83 -70.62544756183357 -5423.483174604073 -0.12483110463857505 1.8558029573021892 -0.345728636472213 -2527.973363638316 -70.62544756183357 4573.95686549725 -0.12483110463857505 1.8558029573021892 -0.6827726189963687 -1381.112846344104
84 -68.37410989017081 -5447.9339861450635 -0.2124257034824356 1.9421771778236239 -0.05483993878476634 -2538.578703160126 -68.37410989017081 4549.506053956259 -0.2124257034824356 1.9421771778236239 -0.6283893381873458 -1325.7009947052397
85 230.88411255664218 -5420.239822445148 -4.6369231069273855 -1.5244287724942989 4.636688176863182 -2523.6227152355095 230.88411255664218 4577.200217656175 -4.6369231069273855 -1.5244287724942989 -7.883004211840775 -1385.5192487703946
86 242.99375272758334 -5396.341647381039 -4.490634503430883 -1.4814410362621273 5.12152639697734 -2514.084358536845 242.99375272758334 4601.098392720283 -4.490634503430883 -1.4814410362621273 -7.003186762286051 -1440.505964744825
87 -1139.8675936928205 -5617.589231322732 -11.476160452949781 2.7712940939312345 5.405067885690624 -2594.2135346895866 -1139.8675936928205 4379.85080877859 -11.476160452949781 2.7712940939312345 -25.580565337273793 -923.2666642549959
88 -1079.0448555938297 -5637.24594597182 -0.25935099017966934 2.8139917116378452 1.3547543339518757 -2600.6943246014494 -1079.0448555938297 4360.194094129502 -0.25935099017966934 2.8139917116378452 0.6545066604667635 -876.6743246143205
$EndElementData
$ElementData
1
"AxialForce"
1
0
3
0
1
88
1 -18462.901511368993
2 -13807.398808720853
3 -9164.612048183328
4 -4420.2160233113755
5 -18645.68806276559
6 -13914.959847947845
7 -9197.53134401618
8 -4446.594460175518
9 -350.525851203572
10 208.95654970055693
11 -359.99373591193944
12 157.3193847298644
13 -178.10429819727915
14 80.97787240530306
15 -95.81735256674165
16 17.570128092198956
17 -42352.581891307535
18 -31678.76607480501
19 -21182.640560025975
20 -10600.564458369132
21 -42145.2392414092
22 -31657.211356504587
23 -21046.84044776669
24 -10716.069065993535
25 -975.478474349879
26 485.40659629995935
27 -704.1729648799719
28 360.1075271786285
29 -524.2701504811484
30 204.2839425862985
31 -172.46292478607938
32 51.36923130126888
33 -42352.58189130751
34 -31678.766074804975
35 -21182.640560025975
36 -10600.564458369146
37 -42145.239241409254
38 -31657.211356504624
39 -21046.840447766677
40 -10716.06906599352
41 -975.4784743498709
42 485.4065962999539
43 -704.172964879961
44 360.10752717863306
45 -524.2701504811575
46 204.28394258630215
47 -172.46292478607938
48 51.36923130126797
49 -18462.901511368993
50 -13807.398808720856
51 -9164.612048183331
52 -4420.216023311383
53 -18645.688062765574
54 -13914.959847947837
55 -9197.531344016174
56 -4446.594460175511
57 -350.5258512035725
58 208.95654970055602
59 -359.9937359119358
60 157.319384729866
61 -178.1042981972805
62 80.97787240530579
63 -95.81735256674165
64 17.57012809220032
65 411.68556327742317
66 470.6882275964682
67 -70.62544756183327
68 -68.3741098901707
69 230.88411255664218
70 242.9937527275831
71 -1139.86759369282
72 -1079.0448555938294
73 346.3090116885187
74 401.03847600900934
75 -31.139520923013514
76 -25.58439359312033
77 147.38408424370877
78 163.2430579210557
79 -939.8505243218124
80 -881.4777896680041
81 411.6855632774235
82 470.68822759646844
83 -70.62544756183357
84 -68.37410989017081
85 230.88411255664218
86 242.99375272758334
87 -1139.8675936928205
88 -1079.0448555938297
$EndElementData
$ElementData
1
"VonMisesStress"
1
0
3
0
1
88
1 38380594.53936416
2 44732379.4810091
3 37443798.84863868
4 43476671.18709002
5 37629624.38259981
6 44219166.46817061
7 38218539.76104312
8 43799739.23730969
9 12752847.925908381
10 2092865.6012515775
11 19187866.73007234
12 1798709.754047461
13 16857036.287915055
14 1686956.0689748728
15 21079916.665406015
16 2862853.7219834747
17 40049217.785222344
18 33711361.05083147
19 22886360.204228874
20 15696575.176836122
21 39812825.351114154
22 33484393.240662754
23 23177644.723577447
24 15802275.604187436
25 7647794.541957043
26 3845158.619461734
27 7757946.598040287
28 3253525.3544321572
29 6167312.106195899
30 3070826.107866968
31 4842655.092260487
32 3395052.2260331046
33 40049217.78522235
34 33711361.05083147
35 22886360.204228885
36 15696575.176836144
37 39812825.35111421
38 33484393.240662802
39 23177644.723577455
40 15802275.604187451
41 7647794.541957022
42 3845158.619461709
43 7757946.598040261
44 3253525.354432176
45 6167312.106195935
46 3070826.1078669676
47 4842655.092260493
48 3395052.2260331106
49 38380594.539364174
50 44732379.48100914
51 37443798.848638706
52 43476671.18709006
53 37629624.382599816
54 44219166.468170635
55 38218539.76104314
56 43799739.23730971
57 12752847.925908385
58 2092865.601251577
59 19187866.73007234
60 1798709.754047476
61 16857036.287915066
62 1686956.0689749
63 21079916.665406045
64 2862853.721983429
65 65990196.3227241
66 65895363.90455793
67 64270051.5375627
68 64531354.650735214
69 64395649.600312635
70 64173350.911324196
71 66910534.99875369
72 66916470.11673312
73 60320212.71502819
74 60153570.87466424
75 59062486.669131055
76 59345293.56798002
77 59021737.71521211
78 58739132.467623465
79 62206371.96600455
80 62288214.012349956
81 65990196.32272413
82 65895363.904557995
83 64270051.537562765
84 64531354.65073529
85 64395649.60031269
86 64173350.91132423
87 66910534.9987537
88 66916470.116733186
$EndElementData
$NodeData
1
"Fixity"
1
0
3
0
3
40
1 1 1 1
2 0 0 0
3 0 0 0
4 0 0 0
5 0 0 0
6 1 1 1
7 0 0 0
8 0 0 0
9 0 0 0
10 0 0 0
11 1 1 1
12 0 0 0
13 0 0 0
14 0 0 0
15 0 0 0
16 1 1 1
17 0 0 0
18 0 0 0
19 0 0 0
20 0 0 0
21 1 1 1
22 0 0 0
23 0 0 0
24 0 0 0
25 0 0 0
26 1 1 1
27 0 0 0
28 0 0 0
29 0 0 0
30 0 0 0
31 1 1 1
32 0 0 0
33 0 0 0
34 0 0 0
35 0 0 0
36 1 1 1
37 0 0 0
38 0 0 0
39 0 0 0
40 0 0 0
$EndNodeData
$NodeData
1
"FixityRotation"
1
0
3
0
3
40
1 1 1 1
2 0 0 0
3 0 0 0
4 0 0 0
5 0 0 0
6 1 1 1
7 0 0 0
8 0 0 0
9 0 0 0
10 0 0 0
11 1 1 1
12 0 0 0
13 0 0 0
14 0 0 0
15 0 0 0
16 1 1 1
17 0 0 0
18 0 0 0
19 0 0 0
20 0 0 0
21 1 1 1
22 0 0 0
23 0 0 0
24 0 0 0
25 0 0 0
26 1 1 1
27 0 0 0
28 0 0 0
29 0 0 0
30 0 0 0
31 1 1 1
32 0 0 0
33 0 0 0
34 0 0 0
35 0 0 0
36 1 1 1
37 0 0 0
38 0 0 0
39 0 0 0
40 0 0 0
$EndNodeData
$ElementData
1
"CrossSectionArea"
1
0
3
0
1
88
1 0.0013731747704246833
2 0.0013731747704246833
3 0.0013731747704246833
4 0.0013731747704246833
5 0.0013731747704246833
6 0.0013731747704246833
7 0.0013731747704246833
8 0.0013731747704246833
9 0.00029369911184307746
10 0.00029369911184307746
11 0.00029369911184307746
12 0.00029369911184307746
13 0.00029369911184307746
14 0.00029369911184307746
15 0.00029369911184307746
16 0.00029369911184307746
17 0.0013731747704246833
18 0.0013731747704246833
19 0.0013731747704246833
20 0.0013731747704246833
21 0.0013731747704246833
22 0.0013731747704246833
23 0.0013731747704246833
24 0.0013731747704246833
25 0.00029369911184307746
26 0.00029369911184307746
27 0.00029369911184307746
28 0.00029369911184307746
29 0.00029369911184307746
30 0.00029369911184307746
31 0.00029369911184307746
32 0.00029369911184307746
33 0.0013731747704246833
34 0.0013731747704246833
35 0.0013731747704246833
36 0.0013731747704246833
37 0.0013731747704246833
38 0.0013731747704246833
39 0.0013731747704246833
40 0.0013731747704246833
41 0.00029369911184307746
42 0.00029369911184307746
43 0.00029369911184307746
44 0.00029369911184307746
45 0.00029369911184307746
46 0.00029369911184307746
47 0.00029369911184307746
48 0.00029369911184307746
49 0.0013731747704246833
50 0.0013731747704246833
51 0.0013731747704246833
52 0.0013731747704246833
53 0.0013731747704246833
54 0.0013731747704246833
55 0.0013731747704246833
56 0.0013731747704246833
57 0.00029369911184307746
58 0.00029369911184307746
59 0.00029369911184307746
60 0.00029369911184307746
61 0.00029369911184307746
62 0.00029369911184307746
63 0.00029369911184307746
64 0.00029369911184307746
65 0.0013347964473723111
66 0.0013347964473723111
67 0.0013347964473723111
68 0.0013347964473723111
69 0.0013347964473723111
70 0.0013347964473723111
71 0.0013347964473723111
72 0.0013347964473723111
73 0.0013347964473723111
74 0.0013347964473723111
75 0.0013347964473723111
76 0.0013347964473723111
77 0.0013347964473723111
78 0.0013347964473723111
79 0.0013347964473723111
80 0.0013347964473723111
81 0.0013347964473723111
82 0.0013347964473723111
83 0.0013347964473723111
84 0.0013347964473723111
85 0.0013347964473723111
86 0.0013347964473723111
87 0.0013347964473723111
88 0.0013347964473723111
$EndElementData
$ElementData
1
"Attribute:ElementFormulation"
1
0
3
0
1
88
1 1
2 1
3 1
4 1
5 1
6 1
7 1
8 1
9 1
10 1
11 1
12 1
13 1
14 1
15 1
16 1
17 1
18 1
19 1
20 1
21 1
22 1
23 1
24 1
25 1
26 1
27 1
28 1
29 1
30 1
31 1
32 1
33 1
34 1
35 1
36 1
37 1
38 1
39 1
40 1
41 1
42 1
43 1
44 1
45 1
46 1
47 1
48 1
49 1
50 1
51 1
52 1
53 1
54 1
55 1
56 1
57 1
58 1
59 1
60 1
61 1
62 1
63 1
64 1
65 1
66 1
67 1
68 1
69 1
70 1
71 1
72 1
73 1
74 1
75 1
76 1
77 1
78 1
79 1
80 1
81 1
82 1
83 1
84 1
85 1
86 1
87 1
88 1
$EndElementData
$ElementData
1
"MaterialID"
1
0
3
0
1
88
1 3
2 3
3 3
4 3
5 3
6 3
7 3
8 3
9 3
10 3
11 3
12 3
13 3
14 3
15 3
16 3
17 3
18 3
19 3
20 3
21 3
22 3
23 3
24 3
25 3
26 3
27 3
28 3
29 3
30 3
31 3
32 3
33 3
34 3
35 3
36 3
37 3
38 3
39 3
40 3
41 3
42 3
43 3
44 3
45 3
46 3
47 3
48 3
49 3
50 3
51 3
52 3
53 3
54 3
55 3
56 3
57 3
58 3
59 3
60 3
61 3
62 3
63 3
64 3
65 3
66 3
67 3
68 3
69 3
70 3
71 3
72 3
73 3
74 3
75 3
76 3
77 3
78 3
79 3
80 3
81 3
82 3
83 3
84 3
85 3
86 3
87 3
88 3
$EndElementData
$ElementData
1
"Attribute:SecondMomentY"
1
0
3
0
1
88
1 5.429728085444136e-07
2 5.429728085444136e-07
3 5.429728085444136e-07
4 5.429728085444136e-07
5 5.429728085444136e-07
6 5.429728085444136e-07
7 5.429728085444136e-07
8 5.429728085444136e-07
9 6.940213485770978e-08
10 6.940213485770978e-08
11 6.940213485770978e-08
12 6.940213485770978e-08
13 6.940213485770978e-08
14 6.940213485770978e-08
15 6.940213485770978e-08
16 6.940213485770978e-08
17 5.429728085444136e-07
18 5.429728085444136e-07
19 5.429728085444136e-07
20 5.429728085444136e-07
21 5.429728085444136e-07
22 5.429728085444136e-07
23 5.429728085444136e-07
24 5.429728085444136e-07
25 6.940213485770978e-08
26 6.940213485770978e-08
27 6.940213485770978e-08
28 6.940213485770978e-08
29 6.940213485770978e-08
30 6.940213485770978e-08
31 6.940213485770978e-08
32 6.940213485770978e-08
33 5.429728085444136e-07
34 5.429728085444136e-07
35 5.429728085444136e-07
36 5.429728085444136e-07
37 5.429728085444136e-07
38 5.429728085444136e-07
39 5.429728085444136e-07
40 5.429728085444136e-07
41 6.940213485770978e-08
42 6.940213485770978e-08
43 6.940213485770978e-08
44 6.940213485770978e-08
45 6.940213485770978e-08
46 6.940213485770978e-08
47 6.940213485770978e-08
48 6.940213485770978e-08
49 5.429728085444136e-07
50 5.429728085444136e-07
51 5.429728085444136e-07
52 5.429728085444136e-07
53 5.429728085444136e-07
54 5.429728085444136e-07
55 5.429728085444136e-07
56 5.429728085444136e-07
57 6.940213485770978e-08
58 6.940213485770978e-08
59 6.940213485770978e-08
60 6.940213485770978e-08
61 6.940213485770978e-08
62 6.940213485770978e-08
63 6.940213485770978e-08
64 6.940213485770978e-08
65 8.124707428089777e-07
66 8.124707428089777e-07
67 8.124707428089777e-07
68 8.124707428089777e-07
69 8.124707428089777e-07
70 8.124707428089777e-07
71 8.124707428089777e-07
72 8.124707428089777e-07
73 8.124707428089777e-07
74 8.124707428089777e-07
75 8.124707428089777e-07
76 8.124707428089777e-07
77 8.124707428089777e-07
78 8.124707428089777e-07
79 8.124707428089777e-07
80 8.124707428089777e-07
81 8.124707428089777e-07
82 8.124707428089777e-07
83 8.124707428089777e-07
84 8.124707428089777e-07
85 8.124707428089777e-07
86 8.124707428089777e-07
87 8.124707428089777e-07
88 8.124707428089777e-07
$EndElementData
$ElementData
1
"Attribute:SecondMomentZ"
1
0
3
0
1
88
1 1.6651566078905721e-06
2 1.6651566078905721e-06
3 1.6651566078905721e-06
4 1.6651566078905721e-06
5 1.6651566078905721e-06
6 1.6651566078905721e-06
7 1.6651566078905721e-06
8 1.6651566078905721e-06
9 6.940213485770978e-08
10 6.940213485770978e-08
11 6.940213485770978e-08
12 6.940213485770978e-08
13 6.940213485770978e-08
14 6.940213485770978e-08
15 6.940213485770978e-08
16 6.940213485770978e-08
17 1.6651566078905721e-06
18 1.6651566078905721e-06
19 1.6651566078905721e-06
20 1.6651566078905721e-06
21 1.6651566078905721e-06
22 1.6651566078905721e-06
23 1.6651566078905721e-06
24 1.6651566078905721e-06
25 6.940213485770978e-08
26 6.940213485770978e-08
27 6.940213485770978e-08
28 6.940213485770978e-08
29 6.940213485770978e-08
30 6.940213485770978e-08
31 6.940213485770978e-08
32 6.940213485770978e-08
33 1.6651566078905721e-06
34 1.6651566078905721e-06
35 1.6651566078905721e-06
36 1.6651566078905721e-06
37 1.6651566078905721e-06
38 1.6651566078905721e-06
39 1.6651566078905721e-06
40 1.6651566078905721e-06
41 6.940213485770978e-08
42 6.940213485770978e-08
43 6.940213485770978e-08
44 6.940213485770978e-08
45 6.940213485770978e-08
46 6.940213485770978e-08
47 6.940213485770978e-08
48 6.940213485770978e-08
49 1.6651566078905721e-06
50 1.6651566078905721e-06
51 1.6651566078905721e-06
52 1.6651566078905721e-06
53 1.6651566078905721e-06
54 1.6651566078905721e-06
55 1.6651566078905721e-06
56 1.6651566078905721e-06
57 6.940213485770978e-08
58 6.940213485770978e-08
59 6.940213485770978e-08
60 6.940213485770978e-08
61 6.940213485770978e-08
62 6.940213485770978e-08
63 6.940213485770978e-08
64 6.940213485770978e-08
65 2.40739885597551e-06
66 2.40739885597551e-06
67 2.40739885597551e-06
68 2.40739885597551e-06
69 2.40739885597551e-06
70 2.40739885597551e-06
71 2.40739885597551e-06
72 2.40739885597551e-06
73 2.40739885597551e-06
74 2.40739885597551e-06
75 2.40739885597551e-06
76 2.40739885597551e-06
77 2.40739885597551e-06
78 2.40739885597551e-06
79 2.40739885597551e-06
80 2.40739885597551e-06
81 2.40739885597551e-06
82 2.40739885597551e-06
83 2.40739885597551e-06
84 2.40739885597551e-06
85 2.40739885597551e-06
86 2.40739885597551e-06
87 2.40739885597551e-06
88 2.40739885597551e-06
$EndElementData
$ElementData
1
"Attribute:SectionDimension1"
1
0
3
0
1
88
1 0.1
2 0.1
3 0.1
4 0.1
5 0.1
6 0.1
7 0.1
8 0.1
9 0.04
10 0.04
11 0.04
12 0.04
13 0.04
14 0.04
15 0.04
16 0.04
17 0.1
18 0.1
19 0.1
20 0.1
21 0.1
22 0.1
23 0.1
24 0.1
25 0.04
26 0.04
27 0.04
28 0.04
29 0.04
30 0.04
31 0.04
32 0.04
33 0.1
34 0.1
35 0.1
36 0.1
37 0.1
38 0.1
39 0.1
40 0.1
41 0.04
42 0.04
43 0.04
44 0.04
45 0.04
46 0.04
47 0.04
48 0.04
49 0.1
50 0.1
51 0.1
52 0.1
53 0.1
54 0.1
55 0.1
56 0.1
57 0.04
58 0.04
59 0.04
60 0.04
61 0.04
62 0.04
63 0.04
64 0.04
65 0.12
66 0.12
67 0.12
68 0.12
69 0.12
70 0.12
71 0.12
72 0.12
73 0.12
74 0.12
75 0.12
76 0.12
77 0.12
78 0.12
79 0.12
80 0.12
81 0.12
82 0.12
83 0.12
84 0.12
85 0.12
86 0.12
87 0.12
88 0.12
$EndElementData
$ElementData
1
"Attribute:SectionDimension2"
1
0
3
0
1
88
1 0.05
2 0.05
3 0.05
4 0.05
5 0.05
6 0.05
7 0.05
8 0.05
9 0.04
10 0.04
11 0.04
12 0.04
13 0.04
14 0.04
15 0.04
16 0.04
17 0.05
18 0.05
19 0.05
20 0.05
21 0.05
22 0.05
23 0.05
24 0.05
25 0.04
26 0.04
27 0.04
28 0.04
29 0.04
30 0.04
31 0.04
32 0.04
33 0.05
34 0.05
35 0.05
36 0.05
37 0.05
38 0.05
39 0.05
40 0.05
41 0.04
42 0.04
43 0.04
44 0.04
45 0.04
46 0.04
47 0.04
48 0.04
49 0.05
50 0.05
51 0.05
52 0.05
53 0.05
54 0.05
55 0.05
56 0.05
57 0.04
58 0.04
59 0.04
60 0.04
61 0.04
62 0.04
63 0.04
64 0.04
65 0.06
66 0.06
67 0.06
68 0.06
69 0.06
70 0.06
71 0.06
72 0.06
73 0.06
74 0.06
75 0.06
76 0.06
77 0.06
78 0.06
79 0.06
80 0.06
81 0.06
82 0.06
83 0.06
84 0.06
85 0.06
86 0.06
87 0.06
88 0.06
$EndElementData
$ElementData
1
"Attribute:SectionDimension3"
1
0
3
0
1
88
1 0.005
2 0.005
3 0.005
4 0.005
5 0.005
6 0.005
7 0.005
8 0.005
9 0.002
10 0.002
11 0.002
12 0.002
13 0.002
14 0.002
15 0.002
16 0.002
17 0.005
18 0.005
19 0.005
20 0.005
21 0.005
22 0.005
23 0.005
24 0.005
25 0.002
26 0.002
27 0.002
28 0.002
29 0.002
30 0.002
31 0.002
32 0.002
33 0.005
34 0.005
35 0.005
36 0.005
37 0.005
38 0.005
39 0.005
40 0.005
41 0.002
42 0.002
43 0.002
44 0.002
45 0.002
46 0.002
47 0.002
48 0.002
49 0.005
50 0.005
51 0.005
52 0.005
53 0.005
54 0.005
55 0.005
56 0.005
57 0.002
58 0.002
59 0.002
60 0.002
61 0.002
62 0.002
63 0.002
64 0.002
65 0.004
66 0.004
67 0.004
68 0.004
69 0.004
70 0.004
71 0.004
72 0.004
73 0.004
74 0.004
75 0.004
76 0.004
77 0.004
78 0.004
79 0.004
80 0.004
81 0.004
82 0.004
83 0.004
84 0.004
85 0.004
86 0.004
87 0.004
88 0.004
$EndElementData
$ElementData
1
"Attribute:SectionDimension4"
1
0
3
0
1
88
1 0.0075
2 0.0075
3 0.0075
4 0.0075
5 0.0075
6 0.0075
7 0.0075
8 0.0075
9 0.004
10 0.004
11 0.004
12 0.004
13 0.004
14 0.004
15 0.004
16 0.004
17 0.0075
18 0.0075
19 0.0075
20 0.0075
21 0.0075
22 0.0075
23 0.0075
24 0.0075
25 0.004
26 0.004
27 0.004
28 0.004
29 0.004
30 0.004
31 0.004
32 0.004
33 0.0075
34 0.0075
35 0.0075
36 0.0075
37 0.0075
38 0.0075
39 0.0075
40 0.0075
41 0.004
42 0.004
43 0.004
44 0.004
45 0.004
46 0.004
47 0.004
48 0.004
49 0.0075
50 0.0075
51 0.0075
52 0.0075
53 0.0075
54 0.0075
55 0.0075
56 0.0075
57 0.004
58 0.004
59 0.004
60 0.004
61 0.004
62 0.004
63 0.004
64 0.004
65 0.008
66 0.008
67 0.008
68 0.008
69 0.008
70 0.008
71 0.008
72 0.008
73 0.008
74 0.008
75 0.008
76 0.008
77 0.008
78 0.008
79 0.008
80 0.008
81 0.008
82 0.008
83 0.008
84 0.008
85 0.008
86 0.008
87 0.008
88 0.008
$EndElementData
$ElementData
1
"Attribute:SectionDimension5"
1
0
3
0
1
88
1 0.005
2 0.005
3 0.005
4 0.005
5 0.005
6 0.005
7 0.005
8 0.005
9 0.002
10 0.002
11 0.002
12 0.002
13 0.002
14 0.002
15 0.002
16 0.002
17 0.005
18 0.005
19 0.005
20 0.005
21 0.005
22 0.005
23 0.005
24 0.005
25 0.002
26 0.002
27 0.002
28 0.002
29 0.002
30 0.002
31 0.002
32 0.002
33 0.005
34 0.005
35 0.005
36 0.005
37 0.005
38 0.005
39 0.005
40 0.005
41 0.002
42 0.002
43 0.002
44 0.002
45 0.002
46 0.002
47 0.002
48 0.002
49 0.005
50 0.005
51 0.005
52 0.005
53 0.005
54 0.005
55 0.005
56 0.005
57 0.002
58 0.002
59 0.002
60 0.002
61 0.002
62 0.002
63 0.002
64 0.002
65 0.004
66 0.004
67 0.004
68 0.004
69 0.004
70 0.004
71 0.004
72 0.004
73 0.004
74 0.004
75 0.004
76 0.004
77 0.004
78 0.004
79 0.004
80 0.004
81 0.004
82 0.004
83 0.004
84 0.004
85 0.004
86 0.004
87 0.004
88 0.004
$EndElementData
$ElementData
1
"Attribute:SectionShape"
1
0
3
0
1
88
1 4
2 4
3 4
4 4
5 4
6 4
7 4
8 4
9 4
10 4
11 4
12 4
13 4
14 4
15 4
16 4
17 4
18 4
19 4
20 4
21 4
22 4
23 4
24 4
25 4
26 4
27 4
28 4
29 4
30 4
31 4
32 4
33 4
34 4
35 4
36 4
37 4
38 4
39 4
40 4
41 4
42 4
43 4
44 4
45 4
46 4
47 4
48 4
49 4
50 4
51 4
52 4
53 4
54 4
55 4
56 4
57 4
58 4
59 4
60 4
61 4
62 4
63 4
64 4
65 4
66 4
67 4
68 4
69 4
70 4
71 4
72 4
73 4
74 4
75 4
76 4
77 4
78 4
79 4
80 4
81 4
82 4
83 4
84 4
85 4
86 4
87 4
88 4
$EndElementData
$ElementData
1
"Attribute:ShearAreaY"
1
0
3
0
1
88
1 0.0008794283120705842
2 0.0008794283120705842
3 0.0008794283120705842
4 0.0008794283120705842
5 0.0008794283120705842
6 0.0008794283120705842
7 0.0008794283120705842
8 0.0008794283120705842
9 0.00012790916093668363
10 0.00012790916093668363
11 0.00012790916093668363
12 0.00012790916093668363
13 0.00012790916093668363
14 0.00012790916093668363
15 0.00012790916093668363
16 0.00012790916093668363
17 0.0008794283120705842
18 0.0008794283120705842
19 0.0008794283120705842
20 0.0008794283120705842
21 0.0008794283120705842
22 0.0008794283120705842
23 0.0008794283120705842
24 0.0008794283120705842
25 0.00012790916093668363
26 0.00012790916093668363
27 0.00012790916093668363
28 0.00012790916093668363
29 0.00012790916093668363
30 0.00012790916093668363
31 0.00012790916093668363
32 0.00012790916093668363
33 0.0008794283120705842
34 0.0008794283120705842
35 0.0008794283120705842
36 0.0008794283120705842
37 0.0008794283120705842
38 0.0008794283120705842
39 0.0008794283120705842
40 0.0008794283120705842
41 0.00012790916093668363
42 0.00012790916093668363
43 0.00012790916093668363
44 0.00012790916093668363
45 0.00012790916093668363
46 0.00012790916093668363
47 0.00012790916093668363
48 0.00012790916093668363
49 0.0008794283120705842
50 0.0008794283120705842
51 0.0008794283120705842
52 0.0008794283120705842
53 0.0008794283120705842
54 0.0008794283120705842
55 0.0008794283120705842
56 0.0008794283120705842
57 0.00012790916093668363
58 0.00012790916093668363
59 0.00012790916093668363
60 0.00012790916093668363
61 0.00012790916093668363
62 0.00012790916093668363
63 0.00012790916093668363
64 0.00012790916093668363
65 0.0008489283664454384
66 0.0008489283664454384
67 0.0008489283664454384
68 0.0008489283664454384
69 0.0008489283664454384
70 0.0008489283664454384
71 0.0008489283664454384
72 0.0008489283664454384
73 0.0008489283664454384
74 0.0008489283664454384
75 0.0008489283664454384
76 0.0008489283664454384
77 0.0008489283664454384
78 0.0008489283664454384
79 0.0008489283664454384
80 0.0008489283664454384
81 0.0008489283664454384
82 0.0008489283664454384
83 0.0008489283664454384
84 0.0008489283664454384
85 0.0008489283664454384
86 0.0008489283664454384
87 0.0008489283664454384
88 0.0008489283664454384
$EndElementData
$ElementData
1
"Attribute:ShearAreaZ"
1
0
3
0
1
88
1 0.0003131810890662662
2 0.0003131810890662662
3 0.0003131810890662662
4 0.0003131810890662662
5 0.0003131810890662662
6 0.0003131810890662662
7 0.0003131810890662662
8 0.0003131810890662662
9 0.00012790916093668363
10 0.00012790916093668363
11 0.00012790916093668363
12 0.00012790916093668363
13 0.00012790916093668363
14 0.00012790916093668363
15 0.00012790916093668363
16 0.00012790916093668363
17 0.0003131810890662662
18 0.0003131810890662662
19 0.0003131810890662662
20 0.0003131810890662662
21 0.0003131810890662662
22 0.0003131810890662662
23 0.0003131810890662662
24 0.0003131810890662662
25 0.00012790916093668363
26 0.00012790916093668363
27 0.00012790916093668363
28 0.00012790916093668363
29 0.00012790916093668363
30 0.00012790916093668363
31 0.00012790916093668363
32 0.00012790916093668363
33 0.0003131810890662662
34 0.0003131810890662662
35 0.0003131810890662662
36 0.0003131810890662662
37 0.0003131810890662662
38 0.0003131810890662662
39 0.0003131810890662662
40 0.0003131810890662662
41 0.00012790916093668363
42 0.00012790916093668363
43 0.00012790916093668363
44 0.00012790916093668363
45 0.00012790916093668363
46 0.00012790916093668363
47 0.00012790916093668363
48 0.00012790916093668363
49 0.0003131810890662662
50 0.0003131810890662662
51 0.0003131810890662662
52 0.0003131810890662662
53 0.0003131810890662662
54 0.0003131810890662662
55 0.0003131810890662662
56 0.0003131810890662662
57 0.00012790916093668363
58 0.00012790916093668363
59 0.00012790916093668363
60 0.00012790916093668363
61 0.00012790916093668363
62 0.00012790916093668363
63 0.00012790916093668363
64 0.00012790916093668363
65 0.0003105200387595582
66 0.0003105200387595582
67 0.0003105200387595582
68 0.0003105200387595582
69 0.0003105200387595582
70 0.0003105200387595582
71 0.0003105200387595582
72 0.0003105200387595582
73 0.0003105200387595582
74 0.0003105200387595582
75 0.0003105200387595582
76 0.0003105200387595582
77 0.0003105200387595582
78 0.0003105200387595582
79 0.0003105200387595582
80 0.0003105200387595582
81 0.0003105200387595582
82 0.0003105200387595582
83 0.0003105200387595582
84 0.0003105200387595582
85 0.0003105200387595582
86 0.0003105200387595582
87 0.0003105200387595582
88 0.0003105200387595582
$EndElementData
$ElementData
1
"Attribute:TorsionConstant"
1
0
3
0
1
88
1 1.3474293955356876e-06
2 1.3474293955356876e-06
3 1.3474293955356876e-06
4 1.3474293955356876e-06
5 1.3474293955356876e-06
6 1.3474293955356876e-06
7 1.3474293955356876e-06
8 1.3474293955356876e-06
9 1.1277240646474328e-07
10 1.1277240646474328e-07
11 1.1277240646474328e-07
12 1.1277240646474328e-07
13 1.1277240646474328e-07
14 1.1277240646474328e-07
15 1.1277240646474328e-07
16 1.1277240646474328e-07
17 1.3474293955356876e-06
18 1.3474293955356876e-06
19 1.3474293955356876e-06
20 1.3474293955356876e-06
21 1.3474293955356876e-06
22 1.3474293955356876e-06
23 1.3474293955356876e-06
24 1.3474293955356876e-06
25 1.1277240646474328e-07
26 1.1277240646474328e-07
27 1.1277240646474328e-07
28 1.1277240646474328e-07
29 1.1277240646474328e-07
30 1.1277240646474328e-07
31 1.1277240646474328e-07
32 1.1277240646474328e-07
33 1.3474293955356876e-06
34 1.3474293955356876e-06
35 1.3474293955356876e-06
36 1.3474293955356876e-06
37 1.3474293955356876e-06
38 1.3474293955356876e-06
39 1.3474293955356876e-06
40 1.3474293955356876e-06
41 1.1277240646474328e-07
42 1.1277240646474328e-07
43 1.1277240646474328e-07
44 1.1277240646474328e-07
45 1.1277240646474328e-07
46 1.1277240646474328e-07
47 1.1277240646474328e-07
48 1.1277240646474328e-07
49 1.3474293955356876e-06
50 1.3474293955356876e-06
51 1.3474293955356876e-06
52 1.3474293955356876e-06
53 1.3474293955356876e-06
54 1.3474293955356876e-06
55 1.3474293955356876e-06
56 1.3474293955356876e-06
57 1.1277240646474328e-07
58 1.1277240646474328e-07
59 1.1277240646474328e-07
60 1.1277240646474328e-07
61 1.1277240646474328e-07
62 1.1277240646474328e-07
63 1.1277240646474328e-07
64 1.1277240646474328e-07
65 2.0111989769075784e-06
66 2.0111989769075784e-06
67 2.0111989769075784e-06
68 2.0111989769075784e-06
69 2.0111989769075784e-06
70 2.0111989769075784e-06
71 2.0111989769075784e-06
72 2.0111989769075784e-06
73 2.0111989769075784e-06
74 2.0111989769075784e-06
75 2.0111989769075784e-06
76 2.0111989769075784e-06
77 2.0111989769075784e-06
78 2.0111989769075784e-06
79 2.0111989769075784e-06
80 2.0111989769075784e-06
81 2.0111989769075784e-06
82 2.0111989769075784e-06
83 2.0111989769075784e-06
84 2.0111989769075784e-06
85 2.0111989769075784e-06
86 2.0111989769075784e-06
87 2.0111989769075784e-06
88 2.0111989769075784e-06
$EndElementData
$ElementData
1
"Attribute:UniformLoadGlobalX"
1
0
3
0
1
88
1 0
2 0
3 0
4 0
5 0
6 0
7 0
8 0
9 0
10 0
11 0
12 0
13 0
14 0
15 0
16 0
17 0
18 0
19 0
20 0
21 0
22 0
23 0
24 0
25 0
26 0
27 0
28 0
29 0
30 0
31 0
32 0
33 0
34 0
35 0
36 0
37 0
38 0
39 0
40 0
41 0
42 0
43 0
44 0
45 0
46 0
47 0
48 0
49 0
50 0
51 0
52 0
53 0
54 0
55 0
56 0
57 0
58 0
59 0
60 0
61 0
62 0
63 0
64 0
65 0
66 0
67 0
68 0
69 0
70 0
71 0
72 0
73 0
74 0
75 0
76 0
77 0
78 0
79 0
80 0
81 0
82 0
83 0
84 0
85 0
86 0
87 0
88 0
$EndElementData
$ElementData
1
"Attribute:UniformLoadGlobalY"
1
0
3
0
1
88
1 0
2 0
3 0
4 0
5 0
6 0
7 0
8 0
9 0
10 0
11 0
12 0
13 0
14 0
15 0
16 0
17 0
18 0
19 0
20 0
21 0
22 0
23 0
24 0
25 0
26 0
27 0
28 0
29 0
30 0
31 0
32 0
33 0
34 0
35 0
36 0
37 0
38 0
39 0
40 0
41 0
42 0
43 0
44 0
45 0
46 0
47 0
48 0
49 0
50 0
51 0
52 0
53 0
54 0
55 0
56 0
57 0
58 0
59 0
60 0
61 0
62 0
63 0
64 0
65 -3600
66 -3600
67 -3600
68 -3600
69 -3600
70 -3600
71 -3600
72 -3600
73 -3600
74 -3600
75 -3600
76 -3600
77 -3600
78 -3600
79 -3600
80 -3600
81 -3600
82 -3600
83 -3600
84 -3600
85 -3600
86 -3600
87 -3600
88 -3600
$EndElementData
$ElementData
1
"Attribute:UniformLoadGlobalZ"
1
0
3
0
1
88
1 0
2 0
3 0
4 0
5 0
6 0
7 0
8 0
9 0
10 0
11 0
12 0
13 0
14 0
15 0
16 0
17 0
18 0
19 0
20 0
21 0
22 0
23 0
24 0
25 0
26 0
27 0
28 0
29 0
30 0
31 0
32 0
33 0
34 0
35 0
36 0
37 0
38 0
39 0
40 0
41 0
42 0
43 0
44 0
45 0
46 0
47 0
48 0
49 0
50 0
51 0
52 0
53 0
54 0
55 0
56 0
57 0
58 0
59 0
60 0
61 0
62 0
63 0
64 0
65 0
66 0
67 0
68 0
69 0
70 0
71 0
72 0
73 0
74 0
75 0
76 0
77 0
78 0
79 0
80 0
81 0
82 0
83 0
84 0
85 0
86 0
87 0
88 0
$EndElementData
$ElementData
1
"Attribute:UniformLoadLocalX"
1
0
3
0
1
88
1 0
2 0
3 0
4 0
5 0
6 0
7 0
8 0
9 0
10 0
11 0
12 0
13 0
14 0
15 0
16 0
17 0
18 0
19 0
20 0
21 0
22 0
23 0
24 0
25 0
26 0
27 0
28 0
29 0
30 0
31 0
32 0
33 0
34 0
35 0
36 0
37 0
38 0
39 0
40 0
41 0
42 0
43 0
44 0
45 0
46 0
47 0
48 0
49 0
50 0
51 0
52 0
53 0
54 0
55 0
56 0
57 0
58 0
59 0
60 0
61 0
62 0
63 0
64 0
65 0
66 0
67 0
68 0
69 0
70 0
71 0
72 0
73 0
74 0
75 0
76 0
77 0
78 0
79 0
80 0
81 0
82 0
83 0
84 0
85 0
86 0
87 0
88 0
$EndElementData
$ElementData
1
"Attribute:UniformLoadLocalY"
1
0
3
0
1
88
1 0
2 0
3 0
4 0
5 0
6 0
7 0
8 0
9 0
10 0
11 0
12 0
13 0
14 0
15 0
16 0
17 0
18 0
19 0
20 0
21 0
22 0
23 0
24 0
25 0
26 0
27 0
28 0
29 0
30 0
31 0
32 0
33 0
34 0
35 0
36 0
37 0
38 0
39 0
40 0
41 0
42 0
43 0
44 0
45 0
46 0
47 0
48 0
49 0
50 0
51 0
52 0
53 0
54 0
55 0
56 0
57 0
58 0
59 0
60 0
61 0
62 0
63 0
64 0
65 0
66 0
67 0
68 0
69 0
70 0
71 0
72 0
73 0
74 0
75 0
76 0
77 0
78 0
79 0
80 0
81 0
82 0
83 0
84 0
85 0
86 0
87 0
88 0
$EndElementData
$ElementData
1
"Attribute:UniformLoadLocalZ"
1
0
3
0
1
88
1 0
2 0
3 0
4 0
5 0
6 0
7 0
8 0
9 0
10 0
11 0
12 0
13 0
14 0
15 0
16 0
17 0
18 0
19 0
20 0
21 0
22 0
23 0
24 0
25 0
26 0
27 0
28 0
29 0
30 0
31 0
32 0
33 0
34 0
35 0
36 0
37 0
38 0
39 0
40 0
41 0
42 0
43 0
44 0
45 0
46 0
47 0
48 0
49 0
50 0
51 0
52 0
53 0
54 0
55 0
56 0
57 0
58 0
59 0
60 0
61 0
62 0
63 0
64 0
65 0
66 0
67 0
68 0
69 0
70 0
71 0
72 0
73 0
74 0
75 0
76 0
77 0
78 0
79 0
80 0
81 0
82 0
83 0
84 0
85 0
86 0
87 0
88 0
$EndElementData
$ElementData
1
"BeamOrientation"
1
0
3
0
3
88
1 0 0 1
2 0 0 1
3 0 0 1
4 0 0 1
5 0 0 1
6 0 0 1
7 0 0 1
8 0 0 1
9 0 0 0
10 0 0 0
11 0 0 0
12 0 0 0
13 0 0 0
14 0 0 0
15 0 0 0
16 0 0 0
17 0 0 1
18 0 0 1
19 0 0 1
20 0 0 1
21 0 0 1
22 0 0 1
23 0 0 1
24 0 0 1
25 0 0 0
26 0 0 0
27 0 0 0
28 0 0 0
29 0 0 0
30 0 0 0
31 0 0 0
32 0 0 0
33 0 0 1
34 0 0 1
35 0 0 1
36 0 0 1
37 0 0 1
38 0 0 1
39 0 0 1
40 0 0 1
41 0 0 0
42 0 0 0
43 0 0 0
44 0 0 0
45 0 0 0
46 0 0 0
47 0 0 0
48 0 0 0
49 0 0 1
50 0 0 1
51 0 0 1
52 0 0 1
53 0 0 1
54 0 0 1
55 0 0 1
56 0 0 1
57 0 0 0
58 0 0 0
59 0 0 0
60 0 0 0
61 0 0 0
62 0 0 0
63 0 0 0
64 0 0 0
65 0 0 0
66 0 0 0
67 0 0 0
68 0 0 0
69 0 0 0
70 0 0 0
71 0 0 0
72 0 0 0
73 0 0 0
74 0 0 0
75 0 0 0
76 0 0 0
77 0 0 0
78 0 0 0
79 0 0 0
80 0 0 0
81 0 0 0
82 0 0 0
83 0 0 0
84 0 0 0
85 0 0 0
86 0 0 0
87 0 0 0
88 0 0 0
$EndElementData
$AnafData
1
1
GLOBAL 3 1
"Gravity"
0 -9.80665 0
$EndAnafData
