$MeshFormat
4.1 0 8
$EndMeshFormat
$PhysicalNames
4
1 1 "Material:Structural Steel S355 (EN 10025)"
1 2 "Section:IPE 200"
1 3 "Section:IPE 300"
1 4 "Section:HEB 260"
$EndPhysicalNames
$Entities
0 3 0 0
1 0 0 0 24 8 6 2 1 4 0
2 0 4 0 24 8 6 2 1 3 0
3 0 4 0 24 8 6 2 1 2 0
$EndEntities
$Nodes
1 30 1 30
1 1 0 30
1
2
3
4
5
6
7
8
9
10
11
12
13
14
15
16
17
18
19
20
21
22
23
24
25
26
27
28
29
30
0 0 0
0 4 0
0 8 0
0 0 6
0 4 6
0 8 6
6 0 0
6 4 0
6 8 0
6 0 6
6 4 6
6 8 6
12 0 0
12 4 0
12 8 0
12 0 6
12 4 6
12 8 6
18 0 0
18 4 0
18 8 0
18 0 6
18 4 6
18 8 6
24 0 0
24 4 0
24 8 0
24 0 6
24 4 6
24 8 6
$EndNodes
$Elements
3 46 1 46
1 1 1 20
1 1 2
2 2 3
3 4 5
4 5 6
7 7 8
8 8 9
9 10 11
10 11 12
13 13 14
14 14 15
15 16 17
16 17 18
19 19 20
20 20 21
21 22 23
22 23 24
25 25 26
26 26 27
27 28 29
28 29 30
1 2 1 10
5 2 5
6 3 6
11 8 11
12 9 12
17 14 17
18 15 18
23 20 23
24 21 24
29 26 29
30 27 30
1 3 1 16
31 2 8
32 3 9
33 5 11
34 6 12
35 8 14
36 9 15
37 11 17
38 12 18
39 14 20
40 15 21
41 17 23
42 18 24
43 20 26
44 21 27
45 23 29
46 24 30
$EndElements
$NodeData
1
"Fixity"
1
0
3
0
3
30
1 1 1 1
2 0 0 0
3 0 0 0
4 1 1 1
5 0 0 0
6 0 0 0
7 1 1 1
8 0 0 0
9 0 0 0
10 1 1 1
11 0 0 0
12 0 0 0
13 1 1 1
14 0 0 0
15 0 0 0
16 1 1 1
17 0 0 0
18 0 0 0
19 1 1 1
20 0 0 0
21 0 0 0
22 1 1 1
23 0 0 0
24 0 0 0
25 1 1 1
26 0 0 0
27 0 0 0
28 1 1 1
29 0 0 0
30 0 0 0
$EndNodeData
$NodeData
1
"FixityRotation"
1
0
3
0
3
30
1 1 1 1
2 0 0 0
3 0 0 0
4 1 1 1
5 0 0 0
6 0 0 0
7 1 1 1
8 0 0 0
9 0 0 0
10 1 1 1
11 0 0 0
12 0 0 0
13 1 1 1
14 0 0 0
15 0 0 0
16 1 1 1
17 0 0 0
18 0 0 0
19 1 1 1
20 0 0 0
21 0 0 0
22 1 1 1
23 0 0 0
24 0 0 0
25 1 1 1
26 0 0 0
27 0 0 0
28 1 1 1
29 0 0 0
30 0 0 0
$EndNodeData
$ElementData
1
"CrossSectionArea"
1
0
3
0
1
46
1 0.011844442631532283
2 0.011844442631532283
3 0.011844442631532283
4 0.011844442631532283
5 0.005381201652942294
6 0.005381201652942294
7 0.011844442631532283
8 0.011844442631532283
9 0.011844442631532283
10 0.011844442631532283
11 0.005381201652942294
12 0.005381201652942294
13 0.011844442631532283
14 0.011844442631532283
15 0.011844442631532283
16 0.011844442631532283
17 0.005381201652942294
18 0.005381201652942294
19 0.011844442631532283
20 0.011844442631532283
21 0.011844442631532283
22 0.011844442631532283
23 0.005381201652942294
24 0.005381201652942294
25 0.011844442631532283
26 0.011844442631532283
27 0.011844442631532283
28 0.011844442631532283
29 0.005381201652942294
30 0.005381201652942294
31 0.002848410657883071
32 0.002848410657883071
33 0.002848410657883071
34 0.002848410657883071
35 0.002848410657883071
36 0.002848410657883071
37 0.002848410657883071
38 0.002848410657883071
39 0.002848410657883071
40 0.002848410657883071
41 0.002848410657883071
42 0.002848410657883071
43 0.002848410657883071
44 0.002848410657883071
45 0.002848410657883071
46 0.002848410657883071
$EndElementData
$ElementData
1
"Attribute:ElementFormulation"
1
0
3
0
1
46
1 1
2 1
3 1
4 1
5 1
6 1
7 1
8 1
9 1
10 1
11 1
12 1
13 1
14 1
15 1
16 1
17 1
18 1
19 1
20 1
21 1
22 1
23 1
24 1
25 1
26 1
27 1
28 1
29 1
30 1
31 1
32 1
33 1
34 1
35 1
36 1
37 1
38 1
39 1
40 1
41 1
42 1
43 1
44 1
45 1
46 1
$EndElementData
$ElementData
1
"MaterialID"
1
0
3
0
1
46
1 3
2 3
3 3
4 3
5 3
6 3
7 3
8 3
9 3
10 3
11 3
12 3
13 3
14 3
15 3
16 3
17 3
18 3
19 3
20 3
21 3
22 3
23 3
24 3
25 3
26 3
27 3
28 3
29 3
30 3
31 3
32 3
33 3
34 3
35 3
36 3
37 3
38 3
39 3
40 3
41 3
42 3
43 3
44 3
45 3
46 3
$EndElementData
$ElementData
1
"Attribute:SecondMomentY"
1
0
3
0
1
46
1 5.1345173325392617e-05
2 5.1345173325392617e-05
3 5.1345173325392617e-05
4 5.1345173325392617e-05
5 6.037784243992912e-06
6 6.037784243992912e-06
7 5.1345173325392617e-05
8 5.1345173325392617e-05
9 5.1345173325392617e-05
10 5.1345173325392617e-05
11 6.037784243992912e-06
12 6.037784243992912e-06
13 5.1345173325392617e-05
14 5.1345173325392617e-05
15 5.1345173325392617e-05
16 5.1345173325392617e-05
17 6.037784243992912e-06
18 6.037784243992912e-06
19 5.1345173325392617e-05
20 5.1345173325392617e-05
21 5.1345173325392617e-05
22 5.1345173325392617e-05
23 6.037784243992912e-06
24 6.037784243992912e-06
25 5.1345173325392617e-05
26 5.1345173325392617e-05
27 5.1345173325392617e-05
28 5.1345173325392617e-05
29 6.037784243992912e-06
30 6.037784243992912e-06
31 1.423683272853165e-06
32 1.423683272853165e-06
33 1.423683272853165e-06
34 1.423683272853165e-06
35 1.423683272853165e-06
36 1.423683272853165e-06
37 1.423683272853165e-06
38 1.423683272853165e-06
39 1.423683272853165e-06
40 1.423683272853165e-06
41 1.423683272853165e-06
42 1.423683272853165e-06
43 1.423683272853165e-06
44 1.423683272853165e-06
45 1.423683272853165e-06
46 1.423683272853165e-06
$EndElementData
$ElementData
1
"Attribute:SecondMomentZ"
1
0
3
0
1
46
1 0.00014919426787309272
2 0.00014919426787309272
3 0.00014919426787309272
4 0.00014919426787309272
5 8.356109185847977e-05
6 8.356109185847977e-05
7 0.00014919426787309272
8 0.00014919426787309272
9 0.00014919426787309272
10 0.00014919426787309272
11 8.356109185847977e-05
12 8.356109185847977e-05
13 0.00014919426787309272
14 0.00014919426787309272
15 0.00014919426787309272
16 0.00014919426787309272
17 8.356109185847977e-05
18 8.356109185847977e-05
19 0.00014919426787309272
20 0.00014919426787309272
21 0.00014919426787309272
22 0.00014919426787309272
23 8.356109185847977e-05
24 8.356109185847977e-05
25 0.00014919426787309272
26 0.00014919426787309272
27 0.00014919426787309272
28 0.00014919426787309272
29 8.356109185847977e-05
30 8.356109185847977e-05
31 1.9431682510835934e-05
32 1.9431682510835934e-05
33 1.9431682510835934e-05
34 1.9431682510835934e-05
35 1.9431682510835934e-05
36 1.9431682510835934e-05
37 1.9431682510835934e-05
38 1.9431682510835934e-05
39 1.9431682510835934e-05
40 1.9431682510835934e-05
41 1.9431682510835934e-05
42 1.9431682510835934e-05
43 1.9431682510835934e-05
44 1.9431682510835934e-05
45 1.9431682510835934e-05
46 1.9431682510835934e-05
$EndElementData
$ElementData
1
"Attribute:SectionDimension1"
1
0
3
0
1
46
1 0.26
2 0.26
3 0.26
4 0.26
5 0.3
6 0.3
7 0.26
8 0.26
9 0.26
10 0.26
11 0.3
12 0.3
13 0.26
14 0.26
15 0.26
16 0.26
17 0.3
18 0.3
19 0.26
20 0.26
21 0.26
22 0.26
23 0.3
24 0.3
25 0.26
26 0.26
27 0.26
28 0.26
29 0.3
30 0.3
31 0.2
32 0.2
33 0.2
34 0.2
35 0.2
36 0.2
37 0.2
38 0.2
39 0.2
40 0.2
41 0.2
42 0.2
43 0.2
44 0.2
45 0.2
46 0.2
$EndElementData
$ElementData
1
"Attribute:SectionDimension2"
1
0
3
0
1
46
1 0.26
2 0.26
3 0.26
4 0.26
5 0.15
6 0.15
7 0.26
8 0.26
9 0.26
10 0.26
11 0.15
12 0.15
13 0.26
14 0.26
15 0.26
16 0.26
17 0.15
18 0.15
19 0.26
20 0.26
21 0.26
22 0.26
23 0.15
24 0.15
25 0.26
26 0.26
27 0.26
28 0.26
29 0.15
30 0.15
31 0.1
32 0.1
33 0.1
34 0.1
35 0.1
36 0.1
37 0.1
38 0.1
39 0.1
40 0.1
41 0.1
42 0.1
43 0.1
44 0.1
45 0.1
46 0.1
$EndElementData
$ElementData
1
"Attribute:SectionDimension3"
1
0
3
0
1
46
1 0.01
2 0.01
3 0.01
4 0.01
5 0.0071
6 0.0071
7 0.01
8 0.01
9 0.01
10 0.01
11 0.0071
12 0.0071
13 0.01
14 0.01
15 0.01
16 0.01
17 0.0071
18 0.0071
19 0.01
20 0.01
21 0.01
22 0.01
23 0.0071
24 0.0071
25 0.01
26 0.01
27 0.01
28 0.01
29 0.0071
30 0.0071
31 0.0056
32 0.0056
33 0.0056
34 0.0056
35 0.0056
36 0.0056
37 0.0056
38 0.0056
39 0.0056
40 0.0056
41 0.0056
42 0.0056
43 0.0056
44 0.0056
45 0.0056
46 0.0056
$EndElementData
$ElementData
1
"Attribute:SectionDimension4"
1
0
3
0
1
46
1 0.0175
2 0.0175
3 0.0175
4 0.0175
5 0.0107
6 0.0107
7 0.0175
8 0.0175
9 0.0175
10 0.0175
11 0.0107
12 0.0107
13 0.0175
14 0.0175
15 0.0175
16 0.0175
17 0.0107
18 0.0107
19 0.0175
20 0.0175
21 0.0175
22 0.0175
23 0.0107
24 0.0107
25 0.0175
26 0.0175
27 0.0175
28 0.0175
29 0.0107
30 0.0107
31 0.0085
32 0.0085
33 0.0085
34 0.0085
35 0.0085
36 0.0085
37 0.0085
38 0.0085
39 0.0085
40 0.0085
41 0.0085
42 0.0085
43 0.0085
44 0.0085
45 0.0085
46 0.0085
$EndElementData
$ElementData
1
"Attribute:SectionDimension5"
1
0
3
0
1
46
1 0.024
2 0.024
3 0.024
4 0.024
5 0.015
6 0.015
7 0.024
8 0.024
9 0.024
10 0.024
11 0.015
12 0.015
13 0.024
14 0.024
15 0.024
16 0.024
17 0.015
18 0.015
19 0.024
20 0.024
21 0.024
22 0.024
23 0.015
24 0.015
25 0.024
26 0.024
27 0.024
28 0.024
29 0.015
30 0.015
31 0.012
32 0.012
33 0.012
34 0.012
35 0.012
36 0.012
37 0.012
38 0.012
39 0.012
40 0.012
41 0.012
42 0.012
43 0.012
44 0.012
45 0.012
46 0.012
$EndElementData
$ElementData
1
"Attribute:SectionShape"
1
0
3
0
1
46
1 5
2 5
3 5
4 5
5 5
6 5
7 5
8 5
9 5
10 5
11 5
12 5
13 5
14 5
15 5
16 5
17 5
18 5
19 5
20 5
21 5
22 5
23 5
24 5
25 5
26 5
27 5
28 5
29 5
30 5
31 5
32 5
33 5
34 5
35 5
36 5
37 5
38 5
39 5
40 5
41 5
42 5
43 5
44 5
45 5
46 5
$EndElementData
$ElementData
1
"Attribute:ShearAreaY"
1
0
3
0
1
46
1 0.002288291515591876
2 0.002288291515591876
3 0.002288291515591876
4 0.002288291515591876
5 0.0020268632069733684
6 0.0020268632069733684
7 0.002288291515591876
8 0.002288291515591876
9 0.002288291515591876
10 0.002288291515591876
11 0.0020268632069733684
12 0.0020268632069733684
13 0.002288291515591876
14 0.002288291515591876
15 0.002288291515591876
16 0.002288291515591876
17 0.0020268632069733684
18 0.0020268632069733684
19 0.002288291515591876
20 0.002288291515591876
21 0.002288291515591876
22 0.002288291515591876
23 0.0020268632069733684
24 0.0020268632069733684
25 0.002288291515591876
26 0.002288291515591876
27 0.002288291515591876
28 0.002288291515591876
29 0.0020268632069733684
30 0.0020268632069733684
31 0.0010633841173523775
32 0.0010633841173523775
33 0.0010633841173523775
34 0.0010633841173523775
35 0.0010633841173523775
36 0.0010633841173523775
37 0.0010633841173523775
38 0.0010633841173523775
39 0.0010633841173523775
40 0.0010633841173523775
41 0.0010633841173523775
42 0.0010633841173523775
43 0.0010633841173523775
44 0.0010633841173523775
45 0.0010633841173523775
46 0.0010633841173523775
$EndElementData
$ElementData
1
"Attribute:ShearAreaZ"
1
0
3
0
1
46
1 0.00773202614379085
2 0.00773202614379085
3 0.00773202614379085
4 0.00773202614379085
5 0.0027274509803921565
6 0.0027274509803921565
7 0.00773202614379085
8 0.00773202614379085
9 0.00773202614379085
10 0.00773202614379085
11 0.0027274509803921565
12 0.0027274509803921565
13 0.00773202614379085
14 0.00773202614379085
15 0.00773202614379085
16 0.00773202614379085
17 0.0027274509803921565
18 0.0027274509803921565
19 0.00773202614379085
20 0.00773202614379085
21 0.00773202614379085
22 0.00773202614379085
23 0.0027274509803921565
24 0.0027274509803921565
25 0.00773202614379085
26 0.00773202614379085
27 0.00773202614379085
28 0.00773202614379085
29 0.0027274509803921565
30 0.0027274509803921565
31 0.0014444444444444446
32 0.0014444444444444446
33 0.0014444444444444446
34 0.0014444444444444446
35 0.0014444444444444446
36 0.0014444444444444446
37 0.0014444444444444446
38 0.0014444444444444446
39 0.0014444444444444446
40 0.0014444444444444446
41 0.0014444444444444446
42 0.0014444444444444446
43 0.0014444444444444446
44 0.0014444444444444446
45 0.0014444444444444446
46 0.0014444444444444446
$EndElementData
$ElementData
1
"Attribute:TorsionConstant"
1
0
3
0
1
46
1 1.2377827388519793e-06
2 1.2377827388519793e-06
3 1.2377827388519793e-06
4 1.2377827388519793e-06
5 2.011849577943933e-07
6 2.011849577943933e-07
7 1.2377827388519793e-06
8 1.2377827388519793e-06
9 1.2377827388519793e-06
10 1.2377827388519793e-06
11 2.011849577943933e-07
12 2.011849577943933e-07
13 1.2377827388519793e-06
14 1.2377827388519793e-06
15 1.2377827388519793e-06
16 1.2377827388519793e-06
17 2.011849577943933e-07
18 2.011849577943933e-07
19 1.2377827388519793e-06
20 1.2377827388519793e-06
21 1.2377827388519793e-06
22 1.2377827388519793e-06
23 2.011849577943933e-07
24 2.011849577943933e-07
25 1.2377827388519793e-06
26 1.2377827388519793e-06
27 1.2377827388519793e-06
28 1.2377827388519793e-06
29 2.011849577943933e-07
30 2.011849577943933e-07
31 6.980120130097939e-08
32 6.980120130097939e-08
33 6.980120130097939e-08
34 6.980120130097939e-08
35 6.980120130097939e-08
36 6.980120130097939e-08
37 6.980120130097939e-08
38 6.980120130097939e-08
39 6.980120130097939e-08
40 6.980120130097939e-08
41 6.980120130097939e-08
42 6.980120130097939e-08
43 6.980120130097939e-08
44 6.980120130097939e-08
45 6.980120130097939e-08
46 6.980120130097939e-08
$EndElementData
$ElementData
1
"Attribute:UniformLoadGlobalX"
1
0
3
0
1
46
1 0
2 0
3 0
4 0
5 0
6 0
7 0
8 0
9 0
10 0
11 0
12 0
13 0
14 0
15 0
16 0
17 0
18 0
19 0
20 0
21 0
22 0
23 0
24 0
25 0
26 0
27 0
28 0
29 0
30 0
31 0
32 0
33 0
34 0
35 0
36 0
37 0
38 0
39 0
40 0
41 0
42 0
43 0
44 0
45 0
46 0
$EndElementData
$ElementData
1
"Attribute:UniformLoadGlobalY"
1
0
3
0
1
46
1 0
2 0
3 0
4 0
5 -15000
6 -12000
7 0
8 0
9 0
10 0
11 -15000
12 -12000
13 0
14 0
15 0
16 0
17 -15000
18 -12000
19 0
20 0
21 0
22 0
23 -15000
24 -12000
25 0
26 0
27 0
28 0
29 -15000
30 -12000
31 0
32 0
33 0
34 0
35 0
36 0
37 0
38 0
39 0
40 0
41 0
42 0
43 0
44 0
45 0
46 0
$EndElementData
$ElementData
1
"Attribute:UniformLoadGlobalZ"
1
0
3
0
1
46
1 0
2 0
3 0
4 0
5 0
6 0
7 0
8 0
9 0
10 0
11 0
12 0
13 0
14 0
15 0
16 0
17 0
18 0
19 0
20 0
21 0
22 0
23 0
24 0
25 0
26 0
27 0
28 0
29 0
30 0
31 0
32 0
33 0
34 0
35 0
36 0
37 0
38 0
39 0
40 0
41 0
42 0
43 0
44 0
45 0
46 0
$EndElementData
$ElementData
1
"Attribute:UniformLoadLocalX"
1
0
3
0
1
46
1 0
2 0
3 0
4 0
5 0
6 0
7 0
8 0
9 0
10 0
11 0
12 0
13 0
14 0
15 0
16 0
17 0
18 0
19 0
20 0
21 0
22 0
23 0
24 0
25 0
26 0
27 0
28 0
29 0
30 0
31 0
32 0
33 0
34 0
35 0
36 0
37 0
38 0
39 0
40 0
41 0
42 0
43 0
44 0
45 0
46 0
$EndElementData
$ElementData
1
"Attribute:UniformLoadLocalY"
1
0
3
0
1
46
1 0
2 0
3 0
4 0
5 0
6 0
7 0
8 0
9 0
10 0
11 0
12 0
13 0
14 0
15 0
16 0
17 0
18 0
19 0
20 0
21 0
22 0
23 0
24 0
25 0
26 0
27 0
28 0
29 0
30 0
31 0
32 0
33 0
34 0
35 0
36 0
37 0
38 0
39 0
40 0
41 0
42 0
43 0
44 0
45 0
46 0
$EndElementData
$ElementData
1
"Attribute:UniformLoadLocalZ"
1
0
3
0
1
46
1 0
2 0
3 0
4 0
5 0
6 0
7 0
8 0
9 0
10 0
11 0
12 0
13 0
14 0
15 0
16 0
17 0
18 0
19 0
20 0
21 0
22 0
23 0
24 0
25 0
26 0
27 0
28 0
29 0
30 0
31 0
32 0
33 0
34 0
35 0
36 0
37 0
38 0
39 0
40 0
41 0
42 0
43 0
44 0
45 0
46 0
$EndElementData
$ElementData
1
"BeamOrientation"
1
0
3
0
3
46
1 1 0 0
2 1 0 0
3 1 0 0
4 1 0 0
5 0 0 0
6 0 0 0
7 1 0 0
8 1 0 0
9 1 0 0
10 1 0 0
11 0 0 0
12 0 0 0
13 1 0 0
14 1 0 0
15 1 0 0
16 1 0 0
17 0 0 0
18 0 0 0
19 1 0 0
20 1 0 0
21 1 0 0
22 1 0 0
23 0 0 0
24 0 0 0
25 1 0 0
26 1 0 0
27 1 0 0
28 1 0 0
29 0 0 0
30 0 0 0
31 0 0 0
32 0 0 0
33 0 0 0
34 0 0 0
35 0 0 0
36 0 0 0
37 0 0 0
38 0 0 0
39 0 0 0
40 0 0 0
41 0 0 0
42 0 0 0
43 0 0 0
44 0 0 0
45 0 0 0
46 0 0 0
$EndElementData
$AnafData
1
1
GLOBAL 3 1
"Gravity"
0 -9.80665 0
$EndAnafData
