$MeshFormat
4.1 0 8
$EndMeshFormat
$PhysicalNames
2
1 1 "Material:Structural Steel S235 (EN 10025)"
1 2 "Section:CHS 48.3x3.2"
$EndPhysicalNames
$Entities
0 1 0 0
1 0 0 0 2.5 8 1.3 2 1 2 0
$EndEntities
$Nodes
1 20 1 20
1 1 0 20
1
2
3
4
5
6
7
8
9
10
11
12
13
14
15
16
17
18
19
20
0 0 0
0 2 0
0 4 0
0 6 0
0 8 0
2.5 0 0
2.5 2 0
2.5 4 0
2.5 6 0
2.5 8 0
2.5 0 1.3
2.5 2 1.3
2.5 4 1.3
2.5 6 1.3
2.5 8 1.3
0 0 1.3
0 2 1.3
0 4 1.3
0 6 1.3
0 8 1.3
$EndNodes
$Elements
1 48 1 48
1 1 1 48
1 1 2
2 2 3
3 3 4
4 4 5
5 6 7
6 7 8
7 8 9
8 9 10
9 11 12
10 12 13
11 13 14
12 14 15
13 16 17
14 17 18
15 18 19
16 19 20
17 2 7
18 7 12
19 12 17
20 17 2
21 3 8
22 8 13
23 13 18
24 18 3
25 4 9
26 9 14
27 14 19
28 19 4
29 5 10
30 10 15
31 15 20
32 20 5
33 1 7
34 16 12
35 6 12
36 2 16
37 3 7
38 18 12
39 7 13
40 3 17
41 3 9
42 18 14
43 8 14
44 4 18
45 5 9
46 20 14
47 9 15
48 5 19
$EndElements
$NodeData
1
"Displacement"
1
0
3
0
3
20
1 0 0 0
2 4.4803268079340185e-05 -4.47218750712946e-05 -6.569147499949904e-05
3 2.151311951952441e-05 -8.673588004965411e-05 -0.00011689989937868275
4 6.521877720620328e-05 -0.00012508719190479665 -0.0001559919653774985
5 4.896019537091138e-05 -0.00016010440728639252 -0.00018940270300216915
6 0 0 0
7 4.514004606317176e-05 -5.344606446873188e-05 6.49435188244466e-05
8 2.1757644426504023e-05 -9.854878818661941e-05 0.00011310316111601799
9 6.510312362393654e-05 -0.00013918658431637344 0.00015220534264420127
10 4.8560548718962516e-05 -0.00017290761338182808 0.0001825311177768289
11 0 0 0
12 3.145037181460442e-05 -4.4582644511527896e-05 6.53983384504999e-05
13 -1.4089111973058614e-05 -8.643365692375826e-05 0.00011342091846113903
14 5.4475813306041945e-06 -0.0001252248423453694 0.0001524124493350698
15 -3.3747136476441036e-05 -0.00015947023383256525 0.00018252486828384092
16 0 0 0
17 3.086622253518826e-05 -5.1571568740751703e-05 -6.522649067598385e-05
18 -1.3996440821220416e-05 -9.846506035657353e-05 -0.00011658755640198225
19 5.1157283013657065e-06 -0.00013756546295291673 -0.00015578614376442069
20 -3.306062365165789e-05 -0.00017245140869903296 -0.00018939853144539062
$EndNodeData
$NodeData
1
"Rotation"
1
0
3
0
3
20
1 0 0 0
2 5.058587172628829e-05 -2.496909730823365e-05 -0.00010563316901061529
3 4.870653747739488e-05 -3.133114159563564e-05 -0.0003109726134863184
4 5.9083421215462605e-05 -4.514614449000506e-05 -3.7076014975700424e-05
5 7.224630290859033e-05 -6.493886300542445e-05 -0.0003234549683158846
6 0 0 0
7 7.677297245150431e-05 -1.2793171591090079e-05 0.00030574692465941037
8 7.88931228672963e-05 -2.294746249977551e-05 2.6507389522678248e-05
9 6.547886325402772e-05 -6.25963273189941e-05 0.00029372425112156287
10 5.514971347626347e-05 -0.0001111069121467195 0.00019394385522165407
11 0 0 0
12 -4.4352480772647765e-05 -4.932461915409031e-06 0.0003068615249004751
13 -5.9208806824837416e-05 -2.4116867921419488e-05 4.352870811061371e-05
14 -4.812075637915613e-05 -5.6057386489813707e-05 0.00031103972570395324
15 -9.125187836433715e-05 -3.836202820401038e-05 0.0001490989136165174
16 0 0 0
17 -9.458767023307085e-05 1.1051433688444652e-05 -7.282595922761611e-05
18 -6.441058470908932e-05 -4.001725389162429e-05 -0.0003121850466195454
19 -8.061158246429958e-05 -4.7887520388893405e-05 -1.2871104811190259e-05
20 -5.174780774324379e-05 -0.00010654215245748455 -0.00038424857964939783
$EndNodeData
$ElementData
1
"BeamSectionForce"
1
0
3
0
12
48
1 -2163.952511193623 -2.219974956845313 4.2435182998457055 -0.23374084781626042 -3.628144573639225 -0.9349545626770293 -2094.1458734042767 -2.219974956845313 4.2435182998457055 -0.23374084781626042 4.858892026052185 3.504995351013596
2 -2035.040460323144 -16.053913217242282 5.492497545175683 -0.0595564031500479 -5.515359519874598 -13.555972690134286 -1965.2338225337976 -16.053913217242282 5.492497545175683 -0.0595564031500479 5.4696355704767665 18.55185374435028
3 -1860.6726856448122 -11.106935291189815 5.360429845096155 -0.12932507928707465 -5.234195752564194 -14.438868984707016 -1790.8660478554657 -11.106935291189815 5.360429845096155 -0.12932507928707465 5.486663937628115 7.77500159767261
4 -1701.9482271390998 -13.75085912974491 6.012169901024254 -0.18528370286166346 -5.852044330806876 -10.267078429520698 -1632.1415893497533 -13.75085912974491 6.012169901024254 -0.18528370286166346 6.172295471241633 17.234639829969122
5 -2579.280096641825 12.805549175026716 0.4317135225142077 -0.1197595066031576 0.5022245221845065 9.086158406753034 -2509.4734588524784 12.805549175026716 0.4317135225142077 -0.1197595066031576 1.3656515672129212 -16.524939943300396
6 -2182.083358840869 11.272218106987086 3.923426304595711 -0.09505640258714587 -3.8976348174282345 14.669148265095968 -2112.2767210515226 11.272218106987086 3.923426304595711 -0.09505640258714587 3.9492177917631857 -7.875287948878203
7 -1969.5240584977018 13.268673605803677 3.8418002714290043 -0.3711611662765415 -4.004983837132555 10.017998462414734 -1899.7174207083553 13.268673605803677 3.8418002714290043 -0.3711611662765415 3.678616705725452 -16.51934874919262
8 -1640.2414130788648 17.193631179918718 3.2955825179835916 -0.4541175472112926 -3.421235930099931 18.407452982961313 -1570.4347752895183 17.193631179918718 3.2955825179835916 -0.4541175472112926 3.1699291058672507 -15.979809376876124
9 -2157.3242401217576 12.346624387220933 -4.0053339959226815 -0.04617378897189623 3.4657890512937684 8.613674582003382 -2087.517602332411 12.346624387220933 -4.0053339959226815 -0.04617378897189623 -4.544878940551595 -16.079574192438486
10 -2027.2809647582826 11.125466563164922 -5.532022653332595 -0.17958916453169368 5.351296446419699 14.32889256276498 -1957.474326968936 11.125466563164922 -5.532022653332595 -0.17958916453169368 -5.71274886024549 -7.922040563564864
11 -1881.6134995062766 13.652891106434577 -5.339958795563172 -0.29900175395630335 5.474844183246992 10.398637575163477 -1811.8068617169301 13.652891106434577 -5.339958795563172 -0.29900175395630335 -5.205073407879354 -16.907144637705677
12 -1665.2044404273456 15.362263454149517 -6.185322826376059 0.16564988301648598 5.660635629225437 17.332262538051058 -1595.3978026379991 15.362263454149517 -6.185322826376059 0.16564988301648598 -6.710010023526681 -13.392264370247975
13 -2490.042031170244 -1.5313121216201302 -1.071530321803622 0.10345474039505725 -0.07912232286091347 -0.6453892272407116 -2420.2353933808977 -1.5313121216201302 -1.071530321803622 0.10345474039505725 -2.2221829664681567 2.4172350159995486
14 -2267.3354405260375 -15.688152793760072 -3.9281974954235825 -0.4780644724346053 4.295299710552428 -12.77636559936824 -2197.528802736691 -15.688152793760072 -3.9281974954235825 -0.4780644724346053 -3.561095280294735 18.599939988151903
15 -1896.3342278983382 -11.165363883938523 -3.8620101862313967 -0.0736751810008357 3.664926138518811 -14.806497848630839 -1826.5275901089917 -11.165363883938523 -3.8620101862313967 -0.0736751810008357 -4.059094233943982 7.524229919246205
16 -1695.698947319197 -15.886040990663616 -3.6037519265435156 -0.5490780567202321 3.954877804112411 -11.368258994992754 -1625.8923095298505 -15.886040990663616 -3.6037519265435156 -0.5490780567202321 -3.2526260489746215 20.403822986334482
17 12.826240282951176 -48.466154152602044 1.558957954903804 0.19611426235559998 -1.830201989893361 -20.22153991218098 12.826240282951176 38.79214308408116 1.558957954903804 0.19611426235559998 2.0671928973661493 -8.12902607652988
18 33.31129619528565 -18.708876835400936 0.2881062448302244 0.016052310403878778 -0.04015366783571497 -0.06277154768641058 33.31129619528565 26.665437727674338 0.2881062448302244 0.016052310403878778 0.3343844504435765 -5.234536127664121
19 22.247413366104865 -38.29344735164776 2.583687717895125 0.37620954028859627 -3.0740552356507864 -7.8140871812641155 22.247413366104865 48.96484988503545 2.583687717895125 0.37620954028859627 3.3851640590870264 -21.153340347998736
20 34.055765493644685 -17.976107380953984 0.6499049724933079 0.47248465909070014 -1.0965725954524919 0.8635953385400885 34.055765493644685 27.39820718212129 0.6499049724933079 0.47248465909070014 -0.2516961312111927 -5.260769532218658
21 9.31276794404505 -37.20571618648225 3.0299171295020777 0.2260662602131575 -3.7058068981500676 -6.865184159331948 9.31276794404505 50.052581050200956 3.0299171295020777 0.2260662602131575 3.868985925605127 -22.923765238980334
22 23.272762289097955 -19.376886505732553 0.6983269330854269 0.24513855227220338 -0.47579825770307327 -0.1792583040475444 23.272762289097955 25.99742805734272 0.6983269330854269 0.24513855227220338 0.43202675530798285 -4.482610312594155
23 -3.5293947877811434 -50.12887710563312 2.7998262156561977 0.0389559288526134 -3.654524470028422 -22.8416854179124 -3.5293947877811434 37.12942013105008 2.7998262156561977 0.0389559288526134 3.3450410691120727 -6.592364199683612
24 22.87621029389993 -19.771983899327964 -1.4440972332724418 -0.01746128547389869 1.1012262349989486 -0.9036693058303253 22.87621029389993 25.60233066374731 -1.4440972332724418 -0.01746128547389869 -0.7761001682552251 -4.693394702702898
25 -4.404684115215332 -49.88704888178132 3.242265010203576 0.047895237086076736 -4.222655502827872 -22.781856868558393 -4.404684115215332 37.37124835490189 3.242265010203576 0.047895237086076736 3.8830070226810705 -7.137106209959104
26 15.16863373599881 -19.33242501117323 -2.3214972912416107 0.24937494407994354 1.6313513550863663 -0.6089259531799369 15.16863373599881 26.041889551902045 -2.3214972912416107 0.24937494407994354 -1.3865951235277247 -4.970077904653668
27 12.638672644844632 -36.89551094039433 3.3309874963288664 0.24332263650998087 -4.084225673242286 -6.609482058100891 12.638672644844632 50.362786296288874 3.3309874963288664 0.24332263650998087 4.243243067579881 -23.44357625296907
28 15.07451377180223 -19.169360947997482 -0.04901409418394831 0.34859559234220583 0.08316478179525233 -0.014551864012363858 15.07451377180223 26.20495361507779 -0.04901409418394831 0.34859559234220583 0.01944645935612188 -4.587687097614562
29 -15.220602985546293 -40.843432397817665 2.8378654361587525 -0.12803574784774763 -3.99663676454621 -9.661369145858531 -15.220602985546293 46.41486483886554 2.8378654361587525 -0.12803574784774763 3.098026825850673 -16.625659697168377
30 -0.4577170818229206 -24.019910450652514 -1.9730281943726529 -0.6458503202922592 2.6439092786393807 -3.041893358019501 -0.4577170818229206 21.35440411242276 -1.9730281943726529 -0.6458503202922592 0.07897262595493304 -1.3093142381701623
31 -26.145944422542243 -49.36401958515037 3.565034686825301 -0.2958445744411573 -5.119818658118824 -20.156891534630482 -26.145944422542243 37.89427765153283 3.565034686825301 -0.2958445744411573 3.7927680589444304 -5.819714117608559
32 0.3055276322411373 -22.81699310834403 -3.9125135945961578 -0.8755407398495807 3.3217510936806613 -2.679359394932259 0.3055276322411373 22.557321454731245 -3.9125135945961578 -0.8755407398495807 -1.76451657929434 -2.51057282008395
33 20.44077948655353 -48.60574027692841 -0.24751790074886115 0.3038438813332908 -0.0441577923650287 -28.923186922420857 90.24741727590009 38.65255695975481 -0.24751790074886115 0.3038438813332908 -0.8366017271067949 -12.990319587969218
34 -132.8040737327503 -48.483953309344486 0.9215799960022616 -0.22055205481837611 -1.2939634665028432 -28.7197623882074 -62.99743594340375 38.774343927338734 0.9215799960022616 -0.22055205481837611 1.6565321380648312 -13.17680359572579
35 -104.30411933874473 -25.52716813484885 -7.34625751736225 1.2801491400316454 6.110143106897082 -11.95441525288114 -34.49748154939817 19.847146428226417 -7.34625751736225 1.2801491400316454 -11.413414529036148 -5.17993263270961
36 -32.78036342943151 -19.680307280169604 -1.6576029499390077 0.28753189107715044 3.019148374042855 -4.917367751352524 -102.58700121877808 25.694007282905662 -1.6576029499390077 0.28753189107715044 -0.9348514363502367 -12.089823818547092
37 -34.87903274700712 -43.19213836751291 2.243490996530457 0.060441690886598065 -3.3480919465497685 -17.893998570309858 -104.68567053635368 44.06615886917031 2.243490996530457 0.060441690886598065 3.8345838416235036 -19.293114034853787
38 89.26476167048534 -42.92641235407696 0.15156354205857253 -0.03657596300680749 0.06079874373575905 -17.450945405904722 19.458123881138782 44.33188488260626 0.15156354205857253 -0.03657596300680749 0.5460388385689671 -19.70079920902272
39 -84.34315544245763 -23.497566709381417 -6.755146264136134 -1.1961648660356399 10.236261231073724 -8.599154831380476 -14.53651765311107 21.87674785369385 -6.755146264136134 -1.1961648660356399 -5.877276120289382 -6.666026802045712
40 -17.860198751421272 -22.5200716854357 -8.7404776664579 0.7397671977884657 12.696818520984118 -7.358726238538164 -87.66683654076783 22.854242877639567 -8.7404776664579 0.7397671977884657 -8.152472943652347 -7.757287555849267
41 2.9366166868078025 -43.99015274554566 0.33372448211881434 -0.03762666998334542 -0.7993740995675005 -19.26280965513575 72.74325447615436 43.26814449113756 0.33372448211881434 -0.03762666998334542 0.2690655604723502 -18.107032516778986
42 -80.5080445181625 -43.906810191152594 2.325969119294955 0.015789486882457904 -3.8958838310352504 -18.98859598681684 -10.701406728815947 43.351487045530625 2.325969119294955 0.015789486882457904 3.5508507906036795 -18.099645213481974
43 -72.55396480481468 -22.91936397602581 -8.014639378313914 0.9992048249676245 6.941638359780623 -8.001009585061354 -2.747327015468123 22.454950587049456 -8.014639378313914 0.9992048249676245 -12.176258711643058 -7.4471102172953625
44 1.1264850914476838 -21.80106046807081 -6.999593859585719 -1.2105388345321748 6.024150835654025 -6.703125933734357 -68.68015269789888 23.573254095004458 -6.999593859585719 -1.2105388345321748 -10.672484986964982 -8.81679654017643
45 21.171064701918148 -42.97068685952732 2.8462215657424395 -0.03946076027161671 -4.574403704617555 -17.536009901059924 -48.63557308742842 44.2876103771559 2.8462215657424395 -0.03946076027161671 4.537951441737186 -19.64411612470315
46 51.78507052444778 -42.04440141425467 0.3442448719590967 -0.16786587177185783 -0.23425967075855292 -15.459649608575514 -18.021567264898785 45.21389582242855 0.3442448719590967 -0.16786587177185783 0.8678616708680744 -20.53331622492202
47 -54.17875084385768 -24.13298549234637 -8.81065277402101 -0.45915755006980624 11.879859723232427 -9.145378618446452 15.62788694548889 21.241329070728895 -8.81065277402101 -0.45915755006980624 -9.136825484283813 -5.696540359797674
48 11.872149639596763 -22.031258186175958 -7.8689814439356285 1.216319469299303 12.13605759242834 -6.678179415687646 -57.934488149749804 23.34305637689931 -7.8689814439356285 1.216319469299303 -6.634391107878973 -8.242742810554006
$EndElementData
$ElementData
1
"AxialForce"
1
0
3
0
1
48
1 -2129.04919229895
2 -2000.1371414284708
3 -1825.769366750139
4 -1667.0449082444266
5 -2544.3767777471517
6 -2147.180039946196
7 -1934.6207396030286
8 -1605.3380941841915
9 -2122.4209212270844
10 -1992.3776458636094
11 -1846.7101806116034
12 -1630.3011215326724
13 -2455.138712275571
14 -2232.432121631364
15 -1861.430909003665
16 -1660.7956284245238
17 12.826240282951176
18 33.31129619528565
19 22.247413366104865
20 34.055765493644685
21 9.31276794404505
22 23.272762289097955
23 -3.5293947877811434
24 22.87621029389993
25 -4.404684115215332
26 15.16863373599881
27 12.638672644844632
28 15.07451377180223
29 -15.220602985546293
30 -0.4577170818229206
31 -26.145944422542243
32 0.3055276322411373
33 55.344098381226814
34 -97.90075483807703
35 -69.40080044407145
36 -67.6836823241048
37 -69.7823516416804
38 54.361442775812066
39 -49.43983654778435
40 -52.763517646094556
41 37.839935581481086
42 -45.60472562348923
43 -37.65064591014141
44 -33.7768338032256
45 -13.732254192755136
46 16.8817516297745
47 -19.275431949184394
48 -23.03116925507652
$EndElementData
$ElementData
1
"VonMisesStress"
1
0
3
0
1
48
1 5868366.103508293
2 8367973.081286506
3 7306786.00440378
4 7418062.666458467
5 8992013.268473843
6 7977717.162857543
7 7720269.422704444
8 7524153.884957464
9 8088348.112144868
10 7661311.332818547
11 7686143.605296493
12 7475933.798510564
13 6022585.030005781
14 8797523.033230567
15 7363151.1005578125
16 7896750.809188996
17 4280941.446349126
18 1185240.6680921444
19 4537954.0326591
20 1234311.5283723657
21 4886827.047831989
22 1136362.4315003096
23 4847009.804515659
24 1062840.4903147195
25 4857030.430722095
26 1139317.5186724742
27 5014516.460510018
28 1129327.6015436656
29 3581005.8139834874
30 1129976.4675515774
31 4416389.613544079
32 1027351.5019356414
33 6089037.885978742
34 6299299.874233062
35 3066571.578111965
36 2766144.5259871376
37 4346389.647103128
38 4165416.175196947
39 3006047.7683949973
40 3120593.4883010234
41 4039916.8419927643
42 4233046.246258579
43 3009635.4875257113
44 3070440.8263237947
45 4325391.331561508
46 4340112.396935455
47 3261723.136088308
48 2947758.846039788
$EndElementData
$NodeData
1
"Fixity"
1
0
3
0
3
20
1 1 1 1
2 0 0 0
3 0 0 0
4 0 0 0
5 0 0 0
6 1 1 1
7 0 0 0
8 0 0 0
9 0 0 0
10 0 0 0
11 1 1 1
12 0 0 0
13 0 0 0
14 0 0 0
15 0 0 0
16 1 1 1
17 0 0 0
18 0 0 0
19 0 0 0
20 0 0 0
$EndNodeData
$NodeData
1
"FixityRotation"
1
0
3
0
3
20
1 1 1 1
2 0 0 0
3 0 0 0
4 0 0 0
5 0 0 0
6 1 1 1
7 0 0 0
8 0 0 0
9 0 0 0
10 0 0 0
11 1 1 1
12 0 0 0
13 0 0 0
14 0 0 0
15 0 0 0
16 1 1 1
17 0 0 0
18 0 0 0
19 0 0 0
20 0 0 0
$EndNodeData
$NodeData
1
"NodalForce"
1
0
3
0
3
20
1 0 0 0
2 0 0 0
3 0 0 0
4 0 0 0
5 0 -1500 0
6 0 0 0
7 0 0 0
8 0 0 0
9 0 0 0
10 0 -1500 0
11 0 0 0
12 0 0 0
13 0 0 0
14 0 0 0
15 0 -1500 0
16 0 0 0
17 0 0 0
18 0 0 0
19 0 0 0
20 0 -1500 0
$EndNodeData
$ElementData
1
"CrossSectionArea"
1
0
3
0
1
48
1 0.0004533946517660792
2 0.0004533946517660792
3 0.0004533946517660792
4 0.0004533946517660792
5 0.0004533946517660792
6 0.0004533946517660792
7 0.0004533946517660792
8 0.0004533946517660792
9 0.0004533946517660792
10 0.0004533946517660792
11 0.0004533946517660792
12 0.0004533946517660792
13 0.0004533946517660792
14 0.0004533946517660792
15 0.0004533946517660792
16 0.0004533946517660792
17 0.0004533946517660792
18 0.0004533946517660792
19 0.0004533946517660792
20 0.0004533946517660792
21 0.0004533946517660792
22 0.0004533946517660792
23 0.0004533946517660792
24 0.0004533946517660792
25 0.0004533946517660792
26 0.0004533946517660792
27 0.0004533946517660792
28 0.0004533946517660792
29 0.0004533946517660792
30 0.0004533946517660792
31 0.0004533946517660792
32 0.0004533946517660792
33 0.0004533946517660792
34 0.0004533946517660792
35 0.0004533946517660792
36 0.0004533946517660792
37 0.0004533946517660792
38 0.0004533946517660792
39 0.0004533946517660792
40 0.0004533946517660792
41 0.0004533946517660792
42 0.0004533946517660792
43 0.0004533946517660792
44 0.0004533946517660792
45 0.0004533946517660792
46 0.0004533946517660792
47 0.0004533946517660792
48 0.0004533946517660792
$EndElementData
$ElementData
1
"Attribute:ElementFormulation"
1
0
3
0
1
48
1 1
2 1
3 1
4 1
5 1
6 1
7 1
8 1
9 1
10 1
11 1
12 1
13 1
14 1
15 1
16 1
17 1
18 1
19 1
20 1
21 1
22 1
23 1
24 1
25 1
26 1
27 1
28 1
29 1
30 1
31 1
32 1
33 1
34 1
35 1
36 1
37 1
38 1
39 1
40 1
41 1
42 1
43 1
44 1
45 1
46 1
47 1
48 1
$EndElementData
$ElementData
1
"MaterialID"
1
0
3
0
1
48
1 2
2 2
3 2
4 2
5 2
6 2
7 2
8 2
9 2
10 2
11 2
12 2
13 2
14 2
15 2
16 2
17 2
18 2
19 2
20 2
21 2
22 2
23 2
24 2
25 2
26 2
27 2
28 2
29 2
30 2
31 2
32 2
33 2
34 2
35 2
36 2
37 2
38 2
39 2
40 2
41 2
42 2
43 2
44 2
45 2
46 2
47 2
48 2
$EndElementData
$ElementData
1
"Attribute:SecondMomentY"
1
0
3
0
1
48
1 1.1585650210910092e-07
2 1.1585650210910092e-07
3 1.1585650210910092e-07
4 1.1585650210910092e-07
5 1.1585650210910092e-07
6 1.1585650210910092e-07
7 1.1585650210910092e-07
8 1.1585650210910092e-07
9 1.1585650210910092e-07
10 1.1585650210910092e-07
11 1.1585650210910092e-07
12 1.1585650210910092e-07
13 1.1585650210910092e-07
14 1.1585650210910092e-07
15 1.1585650210910092e-07
16 1.1585650210910092e-07
17 1.1585650210910092e-07
18 1.1585650210910092e-07
19 1.1585650210910092e-07
20 1.1585650210910092e-07
21 1.1585650210910092e-07
22 1.1585650210910092e-07
23 1.1585650210910092e-07
24 1.1585650210910092e-07
25 1.1585650210910092e-07
26 1.1585650210910092e-07
27 1.1585650210910092e-07
28 1.1585650210910092e-07
29 1.1585650210910092e-07
30 1.1585650210910092e-07
31 1.1585650210910092e-07
32 1.1585650210910092e-07
33 1.1585650210910092e-07
34 1.1585650210910092e-07
35 1.1585650210910092e-07
36 1.1585650210910092e-07
37 1.1585650210910092e-07
38 1.1585650210910092e-07
39 1.1585650210910092e-07
40 1.1585650210910092e-07
41 1.1585650210910092e-07
42 1.1585650210910092e-07
43 1.1585650210910092e-07
44 1.1585650210910092e-07
45 1.1585650210910092e-07
46 1.1585650210910092e-07
47 1.1585650210910092e-07
48 1.1585650210910092e-07
$EndElementData
$ElementData
1
"Attribute:SecondMomentZ"
1
0
3
0
1
48
1 1.1585650210910092e-07
2 1.1585650210910092e-07
3 1.1585650210910092e-07
4 1.1585650210910092e-07
5 1.1585650210910092e-07
6 1.1585650210910092e-07
7 1.1585650210910092e-07
8 1.1585650210910092e-07
9 1.1585650210910092e-07
10 1.1585650210910092e-07
11 1.1585650210910092e-07
12 1.1585650210910092e-07
13 1.1585650210910092e-07
14 1.1585650210910092e-07
15 1.1585650210910092e-07
16 1.1585650210910092e-07
17 1.1585650210910092e-07
18 1.1585650210910092e-07
19 1.1585650210910092e-07
20 1.1585650210910092e-07
21 1.1585650210910092e-07
22 1.1585650210910092e-07
23 1.1585650210910092e-07
24 1.1585650210910092e-07
25 1.1585650210910092e-07
26 1.1585650210910092e-07
27 1.1585650210910092e-07
28 1.1585650210910092e-07
29 1.1585650210910092e-07
30 1.1585650210910092e-07
31 1.1585650210910092e-07
32 1.1585650210910092e-07
33 1.1585650210910092e-07
34 1.1585650210910092e-07
35 1.1585650210910092e-07
36 1.1585650210910092e-07
37 1.1585650210910092e-07
38 1.1585650210910092e-07
39 1.1585650210910092e-07
40 1.1585650210910092e-07
41 1.1585650210910092e-07
42 1.1585650210910092e-07
43 1.1585650210910092e-07
44 1.1585650210910092e-07
45 1.1585650210910092e-07
46 1.1585650210910092e-07
47 1.1585650210910092e-07
48 1.1585650210910092e-07
$EndElementData
$ElementData
1
"Attribute:SectionDimension1"
1
0
3
0
1
48
1 0.0483
2 0.0483
3 0.0483
4 0.0483
5 0.0483
6 0.0483
7 0.0483
8 0.0483
9 0.0483
10 0.0483
11 0.0483
12 0.0483
13 0.0483
14 0.0483
15 0.0483
16 0.0483
17 0.0483
18 0.0483
19 0.0483
20 0.0483
21 0.0483
22 0.0483
23 0.0483
24 0.0483
25 0.0483
26 0.0483
27 0.0483
28 0.0483
29 0.0483
30 0.0483
31 0.0483
32 0.0483
33 0.0483
34 0.0483
35 0.0483
36 0.0483
37 0.0483
38 0.0483
39 0.0483
40 0.0483
41 0.0483
42 0.0483
43 0.0483
44 0.0483
45 0.0483
46 0.0483
47 0.0483
48 0.0483
$EndElementData
$ElementData
1
"Attribute:SectionDimension2"
1
0
3
0
1
48
1 0.0032
2 0.0032
3 0.0032
4 0.0032
5 0.0032
6 0.0032
7 0.0032
8 0.0032
9 0.0032
10 0.0032
11 0.0032
12 0.0032
13 0.0032
14 0.0032
15 0.0032
16 0.0032
17 0.0032
18 0.0032
19 0.0032
20 0.0032
21 0.0032
22 0.0032
23 0.0032
24 0.0032
25 0.0032
26 0.0032
27 0.0032
28 0.0032
29 0.0032
30 0.0032
31 0.0032
32 0.0032
33 0.0032
34 0.0032
35 0.0032
36 0.0032
37 0.0032
38 0.0032
39 0.0032
40 0.0032
41 0.0032
42 0.0032
43 0.0032
44 0.0032
45 0.0032
46 0.0032
47 0.0032
48 0.0032
$EndElementData
$ElementData
1
"Attribute:SectionDimension3"
1
0
3
0
1
48
1 0
2 0
3 0
4 0
5 0
6 0
7 0
8 0
9 0
10 0
11 0
12 0
13 0
14 0
15 0
16 0
17 0
18 0
19 0
20 0
21 0
22 0
23 0
24 0
25 0
26 0
27 0
28 0
29 0
30 0
31 0
32 0
33 0
34 0
35 0
36 0
37 0
38 0
39 0
40 0
41 0
42 0
43 0
44 0
45 0
46 0
47 0
48 0
$EndElementData
$ElementData
1
"Attribute:SectionDimension4"
1
0
3
0
1
48
1 0
2 0
3 0
4 0
5 0
6 0
7 0
8 0
9 0
10 0
11 0
12 0
13 0
14 0
15 0
16 0
17 0
18 0
19 0
20 0
21 0
22 0
23 0
24 0
25 0
26 0
27 0
28 0
29 0
30 0
31 0
32 0
33 0
34 0
35 0
36 0
37 0
38 0
39 0
40 0
41 0
42 0
43 0
44 0
45 0
46 0
47 0
48 0
$EndElementData
$ElementData
1
"Attribute:SectionDimension5"
1
0
3
0
1
48
1 0
2 0
3 0
4 0
5 0
6 0
7 0
8 0
9 0
10 0
11 0
12 0
13 0
14 0
15 0
16 0
17 0
18 0
19 0
20 0
21 0
22 0
23 0
24 0
25 0
26 0
27 0
28 0
29 0
30 0
31 0
32 0
33 0
34 0
35 0
36 0
37 0
38 0
39 0
40 0
41 0
42 0
43 0
44 0
45 0
46 0
47 0
48 0
$EndElementData
$ElementData
1
"Attribute:SectionShape"
1
0
3
0
1
48
1 3
2 3
3 3
4 3
5 3
6 3
7 3
8 3
9 3
10 3
11 3
12 3
13 3
14 3
15 3
16 3
17 3
18 3
19 3
20 3
21 3
22 3
23 3
24 3
25 3
26 3
27 3
28 3
29 3
30 3
31 3
32 3
33 3
34 3
35 3
36 3
37 3
38 3
39 3
40 3
41 3
42 3
43 3
44 3
45 3
46 3
47 3
48 3
$EndElementData
$ElementData
1
"Attribute:ShearAreaY"
1
0
3
0
1
48
1 0.00024251729314391117
2 0.00024251729314391117
3 0.00024251729314391117
4 0.00024251729314391117
5 0.00024251729314391117
6 0.00024251729314391117
7 0.00024251729314391117
8 0.00024251729314391117
9 0.00024251729314391117
10 0.00024251729314391117
11 0.00024251729314391117
12 0.00024251729314391117
13 0.00024251729314391117
14 0.00024251729314391117
15 0.00024251729314391117
16 0.00024251729314391117
17 0.00024251729314391117
18 0.00024251729314391117
19 0.00024251729314391117
20 0.00024251729314391117
21 0.00024251729314391117
22 0.00024251729314391117
23 0.00024251729314391117
24 0.00024251729314391117
25 0.00024251729314391117
26 0.00024251729314391117
27 0.00024251729314391117
28 0.00024251729314391117
29 0.00024251729314391117
30 0.00024251729314391117
31 0.00024251729314391117
32 0.00024251729314391117
33 0.00024251729314391117
34 0.00024251729314391117
35 0.00024251729314391117
36 0.00024251729314391117
37 0.00024251729314391117
38 0.00024251729314391117
39 0.00024251729314391117
40 0.00024251729314391117
41 0.00024251729314391117
42 0.00024251729314391117
43 0.00024251729314391117
44 0.00024251729314391117
45 0.00024251729314391117
46 0.00024251729314391117
47 0.00024251729314391117
48 0.00024251729314391117
$EndElementData
$ElementData
1
"Attribute:ShearAreaZ"
1
0
3
0
1
48
1 0.00024251729314391117
2 0.00024251729314391117
3 0.00024251729314391117
4 0.00024251729314391117
5 0.00024251729314391117
6 0.00024251729314391117
7 0.00024251729314391117
8 0.00024251729314391117
9 0.00024251729314391117
10 0.00024251729314391117
11 0.00024251729314391117
12 0.00024251729314391117
13 0.00024251729314391117
14 0.00024251729314391117
15 0.00024251729314391117
16 0.00024251729314391117
17 0.00024251729314391117
18 0.00024251729314391117
19 0.00024251729314391117
20 0.00024251729314391117
21 0.00024251729314391117
22 0.00024251729314391117
23 0.00024251729314391117
24 0.00024251729314391117
25 0.00024251729314391117
26 0.00024251729314391117
27 0.00024251729314391117
28 0.00024251729314391117
29 0.00024251729314391117
30 0.00024251729314391117
31 0.00024251729314391117
32 0.00024251729314391117
33 0.00024251729314391117
34 0.00024251729314391117
35 0.00024251729314391117
36 0.00024251729314391117
37 0.00024251729314391117
38 0.00024251729314391117
39 0.00024251729314391117
40 0.00024251729314391117
41 0.00024251729314391117
42 0.00024251729314391117
43 0.00024251729314391117
44 0.00024251729314391117
45 0.00024251729314391117
46 0.00024251729314391117
47 0.00024251729314391117
48 0.00024251729314391117
$EndElementData
$ElementData
1
"Attribute:TorsionConstant"
1
0
3
0
1
48
1 2.3171300421820185e-07
2 2.3171300421820185e-07
3 2.3171300421820185e-07
4 2.3171300421820185e-07
5 2.3171300421820185e-07
6 2.3171300421820185e-07
7 2.3171300421820185e-07
8 2.3171300421820185e-07
9 2.3171300421820185e-07
10 2.3171300421820185e-07
11 2.3171300421820185e-07
12 2.3171300421820185e-07
13 2.3171300421820185e-07
14 2.3171300421820185e-07
15 2.3171300421820185e-07
16 2.3171300421820185e-07
17 2.3171300421820185e-07
18 2.3171300421820185e-07
19 2.3171300421820185e-07
20 2.3171300421820185e-07
21 2.3171300421820185e-07
22 2.3171300421820185e-07
23 2.3171300421820185e-07
24 2.3171300421820185e-07
25 2.3171300421820185e-07
26 2.3171300421820185e-07
27 2.3171300421820185e-07
28 2.3171300421820185e-07
29 2.3171300421820185e-07
30 2.3171300421820185e-07
31 2.3171300421820185e-07
32 2.3171300421820185e-07
33 2.3171300421820185e-07
34 2.3171300421820185e-07
35 2.3171300421820185e-07
36 2.3171300421820185e-07
37 2.3171300421820185e-07
38 2.3171300421820185e-07
39 2.3171300421820185e-07
40 2.3171300421820185e-07
41 2.3171300421820185e-07
42 2.3171300421820185e-07
43 2.3171300421820185e-07
44 2.3171300421820185e-07
45 2.3171300421820185e-07
46 2.3171300421820185e-07
47 2.3171300421820185e-07
48 2.3171300421820185e-07
$EndElementData
$ElementData
1
"Attribute:UniformLoadGlobalX"
1
0
3
0
1
48
1 0
2 0
3 0
4 0
5 0
6 0
7 0
8 0
9 0
10 0
11 0
12 0
13 0
14 0
15 0
16 0
17 0
18 0
19 0
20 0
21 0
22 0
23 0
24 0
25 0
26 0
27 0
28 0
29 0
30 0
31 0
32 0
33 0
34 0
35 0
36 0
37 0
38 0
39 0
40 0
41 0
42 0
43 0
44 0
45 0
46 0
47 0
48 0
$EndElementData
$ElementData
1
"Attribute:UniformLoadGlobalY"
1
0
3
0
1
48
1 0
2 0
3 0
4 0
5 0
6 0
7 0
8 0
9 0
10 0
11 0
12 0
13 0
14 0
15 0
16 0
17 0
18 0
19 0
20 0
21 0
22 0
23 0
24 0
25 0
26 0
27 0
28 0
29 0
30 0
31 0
32 0
33 0
34 0
35 0
36 0
37 0
38 0
39 0
40 0
41 0
42 0
43 0
44 0
45 0
46 0
47 0
48 0
$EndElementData
$ElementData
1
"Attribute:UniformLoadGlobalZ"
1
0
3
0
1
48
1 0
2 0
3 0
4 0
5 0
6 0
7 0
8 0
9 0
10 0
11 0
12 0
13 0
14 0
15 0
16 0
17 0
18 0
19 0
20 0
21 0
22 0
23 0
24 0
25 0
26 0
27 0
28 0
29 0
30 0
31 0
32 0
33 0
34 0
35 0
36 0
37 0
38 0
39 0
40 0
41 0
42 0
43 0
44 0
45 0
46 0
47 0
48 0
$EndElementData
$ElementData
1
"Attribute:UniformLoadLocalX"
1
0
3
0
1
48
1 0
2 0
3 0
4 0
5 0
6 0
7 0
8 0
9 0
10 0
11 0
12 0
13 0
14 0
15 0
16 0
17 0
18 0
19 0
20 0
21 0
22 0
23 0
24 0
25 0
26 0
27 0
28 0
29 0
30 0
31 0
32 0
33 0
34 0
35 0
36 0
37 0
38 0
39 0
40 0
41 0
42 0
43 0
44 0
45 0
46 0
47 0
48 0
$EndElementData
$ElementData
1
"Attribute:UniformLoadLocalY"
1
0
3
0
1
48
1 0
2 0
3 0
4 0
5 0
6 0
7 0
8 0
9 0
10 0
11 0
12 0
13 0
14 0
15 0
16 0
17 0
18 0
19 0
20 0
21 0
22 0
23 0
24 0
25 0
26 0
27 0
28 0
29 0
30 0
31 0
32 0
33 0
34 0
35 0
36 0
37 0
38 0
39 0
40 0
41 0
42 0
43 0
44 0
45 0
46 0
47 0
48 0
$EndElementData
$ElementData
1
"Attribute:UniformLoadLocalZ"
1
0
3
0
1
48
1 0
2 0
3 0
4 0
5 0
6 0
7 0
8 0
9 0
10 0
11 0
12 0
13 0
14 0
15 0
16 0
17 0
18 0
19 0
20 0
21 0
22 0
23 0
24 0
25 0
26 0
27 0
28 0
29 0
30 0
31 0
32 0
33 0
34 0
35 0
36 0
37 0
38 0
39 0
40 0
41 0
42 0
43 0
44 0
45 0
46 0
47 0
48 0
$EndElementData
$ElementData
1
"BeamOrientation"
1
0
3
0
3
48
1 0 0 0
2 0 0 0
3 0 0 0
4 0 0 0
5 0 0 0
6 0 0 0
7 0 0 0
8 0 0 0
9 0 0 0
10 0 0 0
11 0 0 0
12 0 0 0
13 0 0 0
14 0 0 0
15 0 0 0
16 0 0 0
17 0 0 0
18 0 0 0
19 0 0 0
20 0 0 0
21 0 0 0
22 0 0 0
23 0 0 0
24 0 0 0
25 0 0 0
26 0 0 0
27 0 0 0
28 0 0 0
29 0 0 0
30 0 0 0
31 0 0 0
32 0 0 0
33 0 0 0
34 0 0 0
35 0 0 0
36 0 0 0
37 0 0 0
38 0 0 0
39 0 0 0
40 0 0 0
41 0 0 0
42 0 0 0
43 0 0 0
44 0 0 0
45 0 0 0
46 0 0 0
47 0 0 0
48 0 0 0
$EndElementData
$AnafData
1
1
GLOBAL 3 1
"Gravity"
0 -9.80665 0
$EndAnafData
