$MeshFormat
4.1 0 8
$EndMeshFormat
$PhysicalNames
4
1 1 "Material:Structural Steel S355 (EN 10025)"
1 2 "Section:IPE 360"
1 3 "Section:HEB 600"
1 4 "Section:CHS 323.9x12.5"
$EndPhysicalNames
$Entities
0 3 0 0
1 0 9 0 12 9 2.5 2 1 3 0
2 0 0 0 12 9 2.5 2 1 4 0
3 0 9 0 12 9 2.5 2 1 2 0
$EndEntities
$Nodes
1 22 1 22
1 1 0 22
1
2
3
4
5
6
7
8
9
10
11
12
13
14
15
16
17
18
19
20
21
22
0 9 0
1.5 9 0
3 9 0
4.5 9 0
6 9 0
7.5 9 0
9 9 0
10.5 9 0
12 9 0
0 0 0
12 0 0
0 9 2.5
1.5 9 2.5
3 9 2.5
4.5 9 2.5
6 9 2.5
7.5 9 2.5
9 9 2.5
10.5 9 2.5
12 9 2.5
0 0 2.5
12 0 2.5
$EndNodes
$Elements
3 22 1 22
1 1 1 16
1 1 2
2 2 3
3 3 4
4 4 5
5 5 6
6 6 7
7 7 8
8 8 9
11 12 13
12 13 14
13 14 15
14 15 16
15 16 17
16 17 18
17 18 19
18 19 20
1 2 1 4
9 10 1
10 11 9
19 21 12
20 22 20
1 3 1 2
21 1 12
22 9 20
$EndElements
$NodeData
1
"Displacement"
1
0
3
0
3
22
1 3.8090508757042366e-06 -0.0001661389122539552 1.337937216416065e-08
2 2.8567881567785844e-06 -0.0025952902030449672 1.337937216459656e-08
3 1.9045254378529323e-06 -0.004771060285114432 1.337937216492549e-08
4 9.522627189272806e-07 -0.006338335008062406 1.337937216515641e-08
5 1.628353831658433e-18 -0.006971291034659558 1.3379372165326982e-08
6 -9.522627189240237e-07 -0.006338335008062407 1.33793721654898e-08
7 -1.9045254378496757e-06 -0.004771060285114433 1.3379372165690545e-08
8 -2.856788156775328e-06 -0.0025952902030449685 1.3379372165979777e-08
9 -3.80905087570098e-06 -0.00016613891225395573 1.3379372166401895e-08
10 0 0 0
11 0 0 0
12 3.8090508757016477e-06 -0.00016613891225395044 -1.3379372185131245e-08
13 2.8567881567760293e-06 -0.0025952902030448722 -1.3379372184654709e-08
14 1.9045254378504111e-06 -0.0047710602851142574 -1.3379372184329104e-08
15 9.522627189247929e-07 -0.006338335008062182 -1.337937218410698e-08
16 -8.251198043481383e-19 -0.0069712910346593215 -1.3379372183940923e-08
17 -9.522627189264435e-07 -0.00633833500806219 -1.3379372183783566e-08
18 -1.9045254378520611e-06 -0.004771060285114269 -1.3379372183587534e-08
19 -2.8567881567776797e-06 -0.002595290203044879 -1.3379372183305498e-08
20 -3.809050875703299e-06 -0.00016613891225395055 -1.3379372182890995e-08
21 0 0 0
22 0 0 0
$EndNodeData
$NodeData
1
"Rotation"
1
0
3
0
3
22
1 7.081511540409958e-06 -3.4381388891070726e-19 -0.0015592151159402867
2 7.081511540409923e-06 -2.57259400420063e-19 -0.0015196436851600537
3 7.081511540409932e-06 -1.8699339285276768e-19 -0.001233565883056325
4 7.081511540409909e-06 -1.254273752642327e-19 -0.0007205089184095053
5 7.081511540409892e-06 -1.084831339403882e-19 -2.9143003699964195e-19
6 7.081511540409872e-06 -1.146517900409925e-19 0.0007205089184095052
7 7.081511540409847e-06 -1.5850501216333927e-19 0.0012335658830563252
8 7.0815115404098215e-06 -2.3262284854494097e-19 0.0015196436851600535
9 7.081511540409796e-06 -3.3572028615149016e-19 0.0015592151159402865
10 0 0 0
11 0 0 0
12 -7.081511540413761e-06 -3.788707853261984e-19 -0.0015592151159402286
13 -7.081511540413789e-06 -2.624198760173996e-19 -0.0015196436851599973
14 -7.081511540413818e-06 -1.776409326802716e-19 -0.0012335658830562822
15 -7.0815115404138415e-06 -1.2445073255125525e-19 -0.0007205089184094843
16 -7.081511540413871e-06 -1.0286846568386935e-19 -2.2501271581541654e-18
17 -7.081511540413895e-06 -1.1285316673558378e-19 0.000720508918409481
18 -7.081511540413919e-06 -1.5440423596756628e-19 0.0012335658830562833
19 -7.081511540413928e-06 -2.2750880888463894e-19 0.0015196436851600012
20 -7.081511540413857e-06 -3.3054115690712636e-19 0.0015592151159402332
21 0 0 0
22 0 0 0
$EndNodeData
$ElementData
1
"BeamSectionForce"
1
0
3
0
12
22
1 -3598.99034147965 -42469.16713320127 -1.3404419760758383e-12 -1.2434497875801753e-14 2.644803661222851e-12 -21596.87433263108 -3598.99034147965 -39351.87534990114 -1.3404419760758383e-12 -1.2434497875801753e-14 6.34362741714014e-13 39768.907529695905
2 -3598.990341479651 -39351.87534990139 -3.831803675289994e-13 3.552713678800501e-15 1.618449518708822e-12 39768.907529696364 -3598.990341479651 -36234.583566601264 -3.831803675289994e-13 3.552713678800501e-15 1.0435679451128588e-12 96458.75171707351
3 -3598.990341479648 -36234.58356660049 -3.0576102348205076e-13 -8.43769498715119e-15 1.3954878047461104e-12 96458.7517170735 -3598.990341479648 -33117.29178330037 -3.0576102348205076e-13 -8.43769498715119e-15 9.368462695230318e-13 148472.65822949947
4 -3598.9903414796504 -33117.291783300105 -4.373473570695549e-13 -6.217248937900877e-15 6.490184505312692e-13 148472.65822949924 -3598.9903414796504 -29999.999999999978 -4.373473570695549e-13 -6.217248937900877e-15 -7.0025850730655625e-15 195810.6270669743
5 -3598.9903414796495 29999.99999999947 -4.082663133131417e-13 -7.105427357601002e-15 1.8906031795352724e-13 195810.6270669744 -3598.9903414796495 33117.291783299595 -4.082663133131417e-13 -7.105427357601002e-15 -4.2278404050387434e-13 148472.65822949942
6 -3598.99034147965 33117.291783300745 -3.708889760878472e-13 -8.881784197001252e-15 -5.524159564858015e-13 148472.65822949936 -3598.99034147965 36234.58356660087 -3.708889760878472e-13 -8.881784197001252e-15 -1.1089714652224989e-12 96458.75171707362
7 -3598.990341479651 36234.58356660115 -3.7020698887847364e-13 -9.325873406851315e-15 -1.1262241398556104e-12 96458.75171707323 -3598.990341479651 39351.875349901275 -3.7020698887847364e-13 -9.325873406851315e-15 -1.6816456454757867e-12 39768.907529696255
8 -3598.99034147965 39351.87534990155 -3.723377230181196e-13 -9.325873406851315e-15 -1.673656212609541e-12 39768.90752969607 -3598.99034147965 42469.16713320168 -3.723377230181196e-13 -9.325873406851315e-15 -2.232162797136727e-12 -21596.874332631458
9 -51641.51954901863 -3598.990341479651 16.347602330557063 -9.165311143537406e-13 -49.03250728266053 -10794.038740685633 -43169.02426646845 -3598.990341479651 16.347602330557063 -9.165311143537406e-13 98.09591369235304 21596.87433263122
10 -51641.519549018776 3598.990341479652 16.34760233055554 -8.949553752829774e-13 -49.03250728265423 10794.03874068564 -43169.024266468594 3598.990341479652 16.34760233055554 -8.949553752829774e-13 98.09591369234562 -21596.87433263123
11 -3598.9903414795226 -42469.167133199815 -3.991023275940169e-13 -1.021405182655144e-14 2.5049607891516962e-12 -21596.874332630483 -3598.9903414795226 -39351.87534989969 -3.991023275940169e-13 -1.021405182655144e-14 1.9067513869705177e-12 39768.90752969416
12 -3598.9903414795217 -39351.87534989976 -3.994378606248007e-13 -1.021405182655144e-14 1.90572182798319e-12 39768.90752969422 -3598.9903414795217 -36234.583566599635 -3.994378606248007e-13 -1.021405182655144e-14 1.3061209478361357e-12 96458.75171706908
13 -3598.990341479522 -36234.583566599766 -3.999387434745338e-13 -8.43769498715119e-15 1.3075959357867372e-12 96458.75171706891 -3598.990341479522 -33117.29178329964 -3.999387434745338e-13 -8.43769498715119e-15 7.075767982724723e-13 148472.6582294936
14 -3598.9903414795212 -33117.291783300534 -3.9901358846933167e-13 -1.0658141036401503e-14 7.079713553366626e-13 148472.6582294933 -3598.9903414795212 -30000.000000000407 -3.9901358846933167e-13 -1.0658141036401503e-14 1.0967301723758891e-13 195810.62706696926
15 -3598.990341479522 29999.999999999585 -3.987825075199877e-13 -8.43769498715119e-15 1.1010232859975496e-13 195810.62706696885 -3598.990341479522 33117.29178329971 -3.987825075199877e-13 -8.43769498715119e-15 -4.884044995876161e-13 148472.65822949412
16 -3598.9903414795194 33117.29178329935 -3.9698457646963015e-13 -8.881784197001252e-15 -4.893608116192541e-13 148472.65822949435 -3598.9903414795194 36234.583566599475 -3.9698457646963015e-13 -8.881784197001252e-15 -1.0848376763237018e-12 96458.75171707025
17 -3598.9903414795235 36234.58356659981 -3.9608220242150997e-13 -3.1086244689504383e-15 -1.0879389982400954e-12 96458.7517170697 -3598.9903414795235 39351.875349899936 -3.9608220242150997e-13 -3.1086244689504383e-15 -1.6816182126625111e-12 39768.90752969486
18 -3598.9903414795263 39351.87534989986 -3.629556522752259e-13 2.531308496145357e-14 -1.679399365177861e-12 39768.90752969463 -3598.9903414795263 42469.16713319999 -3.629556522752259e-13 2.531308496145357e-14 -2.2239438658931673e-12 -21596.87433263041
19 -51641.51954901727 -3598.990341479518 -16.347602330555084 -1.0099849781265868e-12 49.03250728263844 -10794.038740685237 -43169.02426646709 -3598.990341479518 -16.347602330555084 -1.0099849781265868e-12 -98.0959136923573 21596.87433263042
20 -51641.5195490173 3598.9903414795276 -16.347602330556455 -8.811489723108403e-13 49.03250728264428 10794.038740685264 -43169.02426646712 3598.9903414795276 -16.347602330556455 -8.811489723108403e-13 -98.0959136923638 -21596.87433263048
21 -16.347602330555485 -699.8571332671286 2.8365456487759783e-12 6.998845947236987e-13 -3.5760035538007024e-12 -98.09591369235503 -16.347602330555485 699.8571332671302 2.8365456487759783e-12 6.998845947236987e-13 3.515804657349092e-12 -98.09591369235619
22 -16.347602330556093 -699.8571332671271 2.501228032087221e-12 -6.465938895416912e-13 -3.120712879459447e-12 -98.095913692354 -16.347602330556093 699.8571332671316 2.501228032087221e-12 -6.465938895416912e-13 3.1310249331290554e-12 -98.09591369235915
$EndElementData
$ElementData
1
"AxialForce"
1
0
3
0
1
22
1 -3598.99034147965
2 -3598.990341479651
3 -3598.990341479648
4 -3598.9903414796504
5 -3598.9903414796495
6 -3598.99034147965
7 -3598.990341479651
8 -3598.99034147965
9 -47405.27190774354
10 -47405.271907743685
11 -3598.9903414795226
12 -3598.9903414795217
13 -3598.990341479522
14 -3598.9903414795212
15 -3598.990341479522
16 -3598.9903414795194
17 -3598.9903414795235
18 -3598.9903414795263
19 -47405.27190774218
20 -47405.27190774221
21 -16.347602330555485
22 -16.347602330556093
$EndElementData
$ElementData
1
"VonMisesStress"
1
0
3
0
1
22
1 10897235.690925175
2 18670898.933263596
3 27082073.486632045
4 35048041.59894475
5 35048041.59894475
6 27082073.4866321
7 18670898.933263563
8 10897235.690925278
9 27108169.528680142
10 27108169.52868016
11 10897235.69092476
12 18670898.933262717
13 27082073.486631043
14 35048041.59894385
15 35048041.598943785
16 27082073.486631174
17 18670898.93326288
18 10897235.690924842
19 27108169.528679155
20 27108169.528679226
21 487456.71917016717
22 487456.7191701649
$EndElementData
$NodeData
1
"Fixity"
1
0
3
0
3
22
1 0 0 0
2 0 0 0
3 0 0 0
4 0 0 0
5 0 0 0
6 0 0 0
7 0 0 0
8 0 0 0
9 0 0 0
10 1 1 1
11 1 1 1
12 0 0 0
13 0 0 0
14 0 0 0
15 0 0 0
16 0 0 0
17 0 0 0
18 0 0 0
19 0 0 0
20 0 0 0
21 1 1 1
22 1 1 1
$EndNodeData
$NodeData
1
"FixityRotation"
1
0
3
0
3
22
1 0 0 0
2 0 0 0
3 0 0 0
4 0 0 0
5 0 0 0
6 0 0 0
7 0 0 0
8 0 0 0
9 0 0 0
10 1 1 1
11 1 1 1
12 0 0 0
13 0 0 0
14 0 0 0
15 0 0 0
16 0 0 0
17 0 0 0
18 0 0 0
19 0 0 0
20 0 0 0
21 1 1 1
22 1 1 1
$EndNodeData
$NodeData
1
"NodalForce"
1
0
3
0
3
22
1 0 0 0
2 0 0 0
3 0 0 0
4 0 0 0
5 0 -60000 0
6 0 0 0
7 0 0 0
8 0 0 0
9 0 0 0
10 0 0 0
11 0 0 0
12 0 0 0
13 0 0 0
14 0 0 0
15 0 0 0
16 0 -60000 0
17 0 0 0
18 0 0 0
19 0 0 0
20 0 0 0
21 0 0 0
22 0 0 0
$EndNodeData
$ElementData
1
"CrossSectionArea"
1
0
3
0
1
22
1 0.026995778955533033
2 0.026995778955533033
3 0.026995778955533033
4 0.026995778955533033
5 0.026995778955533033
6 0.026995778955533033
7 0.026995778955533033
8 0.026995778955533033
9 0.01222864940409828
10 0.01222864940409828
11 0.026995778955533033
12 0.026995778955533033
13 0.026995778955533033
14 0.026995778955533033
15 0.026995778955533033
16 0.026995778955533033
17 0.026995778955533033
18 0.026995778955533033
19 0.01222864940409828
20 0.01222864940409828
21 0.007272923980236907
22 0.007272923980236907
$EndElementData
$ElementData
1
"Attribute:ElementFormulation"
1
0
3
0
1
22
1 2
2 2
3 2
4 2
5 2
6 2
7 2
8 2
9 1
10 1
11 2
12 2
13 2
14 2
15 2
16 2
17 2
18 2
19 1
20 1
21 1
22 1
$EndElementData
$ElementData
1
"MaterialID"
1
0
3
0
1
22
1 3
2 3
3 3
4 3
5 3
6 3
7 3
8 3
9 3
10 3
11 3
12 3
13 3
14 3
15 3
16 3
17 3
18 3
19 3
20 3
21 3
22 3
$EndElementData
$ElementData
1
"Attribute:SecondMomentY"
1
0
3
0
1
22
1 0.00013530245778963672
2 0.00013530245778963672
3 0.00013530245778963672
4 0.00013530245778963672
5 0.00013530245778963672
6 0.00013530245778963672
7 0.00013530245778963672
8 0.00013530245778963672
9 0.00014846529625485306
10 0.00014846529625485306
11 0.00013530245778963672
12 0.00013530245778963672
13 0.00013530245778963672
14 0.00013530245778963672
15 0.00013530245778963672
16 0.00013530245778963672
17 0.00013530245778963672
18 0.00013530245778963672
19 0.00014846529625485306
20 0.00014846529625485306
21 1.0434519648833853e-05
22 1.0434519648833853e-05
$EndElementData
$ElementData
1
"Attribute:SecondMomentZ"
1
0
3
0
1
22
1 0.001710411108759916
2 0.001710411108759916
3 0.001710411108759916
4 0.001710411108759916
5 0.001710411108759916
6 0.001710411108759916
7 0.001710411108759916
8 0.001710411108759916
9 0.00014846529625485306
10 0.00014846529625485306
11 0.001710411108759916
12 0.001710411108759916
13 0.001710411108759916
14 0.001710411108759916
15 0.001710411108759916
16 0.001710411108759916
17 0.001710411108759916
18 0.001710411108759916
19 0.00014846529625485306
20 0.00014846529625485306
21 0.00016265630920663017
22 0.00016265630920663017
$EndElementData
$ElementData
1
"Attribute:SectionDimension1"
1
0
3
0
1
22
1 0.6
2 0.6
3 0.6
4 0.6
5 0.6
6 0.6
7 0.6
8 0.6
9 0.3239
10 0.3239
11 0.6
12 0.6
13 0.6
14 0.6
15 0.6
16 0.6
17 0.6
18 0.6
19 0.3239
20 0.3239
21 0.36
22 0.36
$EndElementData
$ElementData
1
"Attribute:SectionDimension2"
1
0
3
0
1
22
1 0.3
2 0.3
3 0.3
4 0.3
5 0.3
6 0.3
7 0.3
8 0.3
9 0.0125
10 0.0125
11 0.3
12 0.3
13 0.3
14 0.3
15 0.3
16 0.3
17 0.3
18 0.3
19 0.0125
20 0.0125
21 0.17
22 0.17
$EndElementData
$ElementData
1
"Attribute:SectionDimension3"
1
0
3
0
1
22
1 0.0155
2 0.0155
3 0.0155
4 0.0155
5 0.0155
6 0.0155
7 0.0155
8 0.0155
9 0
10 0
11 0.0155
12 0.0155
13 0.0155
14 0.0155
15 0.0155
16 0.0155
17 0.0155
18 0.0155
19 0
20 0
21 0.008
22 0.008
$EndElementData
$ElementData
1
"Attribute:SectionDimension4"
1
0
3
0
1
22
1 0.03
2 0.03
3 0.03
4 0.03
5 0.03
6 0.03
7 0.03
8 0.03
9 0
10 0
11 0.03
12 0.03
13 0.03
14 0.03
15 0.03
16 0.03
17 0.03
18 0.03
19 0
20 0
21 0.0127
22 0.0127
$EndElementData
$ElementData
1
"Attribute:SectionDimension5"
1
0
3
0
1
22
1 0.027
2 0.027
3 0.027
4 0.027
5 0.027
6 0.027
7 0.027
8 0.027
9 0
10 0
11 0.027
12 0.027
13 0.027
14 0.027
15 0.027
16 0.027
17 0.027
18 0.027
19 0
20 0
21 0.018
22 0.018
$EndElementData
$ElementData
1
"Attribute:SectionShape"
1
0
3
0
1
22
1 5
2 5
3 5
4 5
5 5
6 5
7 5
8 5
9 3
10 3
11 5
12 5
13 5
14 5
15 5
16 5
17 5
18 5
19 3
20 3
21 5
22 5
$EndElementData
$ElementData
1
"Attribute:ShearAreaY"
1
0
3
0
1
22
1 0.008633031428391261
2 0.008633031428391261
3 0.008633031428391261
4 0.008633031428391261
5 0.008633031428391261
6 0.008633031428391261
7 0.008633031428391261
8 0.008633031428391261
9 0.006505445863801528
10 0.006505445863801528
11 0.008633031428391261
12 0.008633031428391261
13 0.008633031428391261
14 0.008633031428391261
15 0.008633031428391261
16 0.008633031428391261
17 0.008633031428391261
18 0.008633031428391261
19 0.006505445863801528
20 0.006505445863801528
21 0.0027606736487631755
22 0.0027606736487631755
$EndElementData
$ElementData
1
"Attribute:ShearAreaZ"
1
0
3
0
1
22
1 0.015294117647058823
2 0.015294117647058823
3 0.015294117647058823
4 0.015294117647058823
5 0.015294117647058823
6 0.015294117647058823
7 0.015294117647058823
8 0.015294117647058823
9 0.006505445863801528
10 0.006505445863801528
11 0.015294117647058823
12 0.015294117647058823
13 0.015294117647058823
14 0.015294117647058823
15 0.015294117647058823
16 0.015294117647058823
17 0.015294117647058823
18 0.015294117647058823
19 0.006505445863801528
20 0.006505445863801528
21 0.003668888888888889
22 0.003668888888888889
$EndElementData
$ElementData
1
"Attribute:TorsionConstant"
1
0
3
0
1
22
1 6.671750497336342e-06
2 6.671750497336342e-06
3 6.671750497336342e-06
4 6.671750497336342e-06
5 6.671750497336342e-06
6 6.671750497336342e-06
7 6.671750497336342e-06
8 6.671750497336342e-06
9 0.0002969305925097061
10 0.0002969305925097061
11 6.671750497336342e-06
12 6.671750497336342e-06
13 6.671750497336342e-06
14 6.671750497336342e-06
15 6.671750497336342e-06
16 6.671750497336342e-06
17 6.671750497336342e-06
18 6.671750497336342e-06
19 0.0002969305925097061
20 0.0002969305925097061
21 3.7320927697764195e-07
22 3.7320927697764195e-07
$EndElementData
$ElementData
1
"Attribute:UniformLoadGlobalX"
1
0
3
0
1
22
1 0
2 0
3 0
4 0
5 0
6 0
7 0
8 0
9 0
10 0
11 0
12 0
13 0
14 0
15 0
16 0
17 0
18 0
19 0
20 0
21 0
22 0
$EndElementData
$ElementData
1
"Attribute:UniformLoadGlobalY"
1
0
3
0
1
22
1 0
2 0
3 0
4 0
5 0
6 0
7 0
8 0
9 0
10 0
11 0
12 0
13 0
14 0
15 0
16 0
17 0
18 0
19 0
20 0
21 0
22 0
$EndElementData
$ElementData
1
"Attribute:UniformLoadGlobalZ"
1
0
3
0
1
22
1 0
2 0
3 0
4 0
5 0
6 0
7 0
8 0
9 0
10 0
11 0
12 0
13 0
14 0
15 0
16 0
17 0
18 0
19 0
20 0
21 0
22 0
$EndElementData
$ElementData
1
"Attribute:UniformLoadLocalX"
1
0
3
0
1
22
1 0
2 0
3 0
4 0
5 0
6 0
7 0
8 0
9 0
10 0
11 0
12 0
13 0
14 0
15 0
16 0
17 0
18 0
19 0
20 0
21 0
22 0
$EndElementData
$ElementData
1
"Attribute:UniformLoadLocalY"
1
0
3
0
1
22
1 0
2 0
3 0
4 0
5 0
6 0
7 0
8 0
9 0
10 0
11 0
12 0
13 0
14 0
15 0
16 0
17 0
18 0
19 0
20 0
21 0
22 0
$EndElementData
$ElementData
1
"Attribute:UniformLoadLocalZ"
1
0
3
0
1
22
1 0
2 0
3 0
4 0
5 0
6 0
7 0
8 0
9 0
10 0
11 0
12 0
13 0
14 0
15 0
16 0
17 0
18 0
19 0
20 0
21 0
22 0
$EndElementData
$ElementData
1
"BeamOrientation"
1
0
3
0
3
22
1 0 0 0
2 0 0 0
3 0 0 0
4 0 0 0
5 0 0 0
6 0 0 0
7 0 0 0
8 0 0 0
9 0 0 0
10 0 0 0
11 0 0 0
12 0 0 0
13 0 0 0
14 0 0 0
15 0 0 0
16 0 0 0
17 0 0 0
18 0 0 0
19 0 0 0
20 0 0 0
21 0 0 0
22 0 0 0
$EndElementData
$AnafData
1
1
GLOBAL 3 1
"Gravity"
0 -9.80665 0
$EndAnafData
