$MeshFormat
4.1 0 8
$EndMeshFormat
$PhysicalNames
4
1 1 "Material:Structural Steel S355 (EN 10025)"
1 2 "Section:IPE 360"
1 3 "Section:HEB 600"
1 4 "Section:CHS 323.9x12.5"
$EndPhysicalNames
$Entities
0 3 0 0
1 0 9 0 12 9 2.5 2 1 3 0
2 0 0 0 12 9 2.5 2 1 4 0
3 0 9 0 12 9 2.5 2 1 2 0
$EndEntities
$Nodes
1 22 1 22
1 1 0 22
1
2
3
4
5
6
7
8
9
10
11
12
13
14
15
16
17
18
19
20
21
22
0 9 0
1.5 9 0
3 9 0
4.5 9 0
6 9 0
7.5 9 0
9 9 0
10.5 9 0
12 9 0
0 0 0
12 0 0
0 9 2.5
1.5 9 2.5
3 9 2.5
4.5 9 2.5
6 9 2.5
7.5 9 2.5
9 9 2.5
10.5 9 2.5
12 9 2.5
0 0 2.5
12 0 2.5
$EndNodes
$Elements
3 22 1 22
1 1 1 16
1 1 2
2 2 3
3 3 4
4 4 5
5 5 6
6 6 7
7 7 8
8 8 9
11 12 13
12 13 14
13 14 15
14 15 16
15 16 17
16 17 18
17 18 19
18 19 20
1 2 1 4
9 10 1
10 11 9
19 21 12
20 22 20
1 3 1 2
21 1 12
22 9 20
$EndElements
$NodeData
1
"Fixity"
1
0
3
0
3
22
1 0 0 0
2 0 0 0
3 0 0 0
4 0 0 0
5 0 0 0
6 0 0 0
7 0 0 0
8 0 0 0
9 0 0 0
10 1 1 1
11 1 1 1
12 0 0 0
13 0 0 0
14 0 0 0
15 0 0 0
16 0 0 0
17 0 0 0
18 0 0 0
19 0 0 0
20 0 0 0
21 1 1 1
22 1 1 1
$EndNodeData
$NodeData
1
"FixityRotation"
1
0
3
0
3
22
1 0 0 0
2 0 0 0
3 0 0 0
4 0 0 0
5 0 0 0
6 0 0 0
7 0 0 0
8 0 0 0
9 0 0 0
10 1 1 1
11 1 1 1
12 0 0 0
13 0 0 0
14 0 0 0
15 0 0 0
16 0 0 0
17 0 0 0
18 0 0 0
19 0 0 0
20 0 0 0
21 1 1 1
22 1 1 1
$EndNodeData
$NodeData
1
"NodalForce"
1
0
3
0
3
22
1 0 0 0
2 0 0 0
3 0 0 0
4 0 0 0
5 0 -60000 0
6 0 0 0
7 0 0 0
8 0 0 0
9 0 0 0
10 0 0 0
11 0 0 0
12 0 0 0
13 0 0 0
14 0 0 0
15 0 0 0
16 0 -60000 0
17 0 0 0
18 0 0 0
19 0 0 0
20 0 0 0
21 0 0 0
22 0 0 0
$EndNodeData
$ElementData
1
"CrossSectionArea"
1
0
3
0
1
22
1 0.026995778955533033
2 0.026995778955533033
3 0.026995778955533033
4 0.026995778955533033
5 0.026995778955533033
6 0.026995778955533033
7 0.026995778955533033
8 0.026995778955533033
9 0.01222864940409828
10 0.01222864940409828
11 0.026995778955533033
12 0.026995778955533033
13 0.026995778955533033
14 0.026995778955533033
15 0.026995778955533033
16 0.026995778955533033
17 0.026995778955533033
18 0.026995778955533033
19 0.01222864940409828
20 0.01222864940409828
21 0.007272923980236907
22 0.007272923980236907
$EndElementData
$ElementData
1
"Attribute:ElementFormulation"
1
0
3
0
1
22
1 2
2 2
3 2
4 2
5 2
6 2
7 2
8 2
9 1
10 1
11 2
12 2
13 2
14 2
15 2
16 2
17 2
18 2
19 1
20 1
21 1
22 1
$EndElementData
$ElementData
1
"MaterialID"
1
0
3
0
1
22
1 3
2 3
3 3
4 3
5 3
6 3
7 3
8 3
9 3
10 3
11 3
12 3
13 3
14 3
15 3
16 3
17 3
18 3
19 3
20 3
21 3
22 3
$EndElementData
$ElementData
1
"Attribute:SecondMomentY"
1
0
3
0
1
22
1 0.00013530245778963672
2 0.00013530245778963672
3 0.00013530245778963672
4 0.00013530245778963672
5 0.00013530245778963672
6 0.00013530245778963672
7 0.00013530245778963672
8 0.00013530245778963672
9 0.00014846529625485306
10 0.00014846529625485306
11 0.00013530245778963672
12 0.00013530245778963672
13 0.00013530245778963672
14 0.00013530245778963672
15 0.00013530245778963672
16 0.00013530245778963672
17 0.00013530245778963672
18 0.00013530245778963672
19 0.00014846529625485306
20 0.00014846529625485306
21 1.0434519648833853e-05
22 1.0434519648833853e-05
$EndElementData
$ElementData
1
"Attribute:SecondMomentZ"
1
0
3
0
1
22
1 0.001710411108759916
2 0.001710411108759916
3 0.001710411108759916
4 0.001710411108759916
5 0.001710411108759916
6 0.001710411108759916
7 0.001710411108759916
8 0.001710411108759916
9 0.00014846529625485306
10 0.00014846529625485306
11 0.001710411108759916
12 0.001710411108759916
13 0.001710411108759916
14 0.001710411108759916
15 0.001710411108759916
16 0.001710411108759916
17 0.001710411108759916
18 0.001710411108759916
19 0.00014846529625485306
20 0.00014846529625485306
21 0.00016265630920663017
22 0.00016265630920663017
$EndElementData
$ElementData
1
"Attribute:SectionDimension1"
1
0
3
0
1
22
1 0.6
2 0.6
3 0.6
4 0.6
5 0.6
6 0.6
7 0.6
8 0.6
9 0.3239
10 0.3239
11 0.6
12 0.6
13 0.6
14 0.6
15 0.6
16 0.6
17 0.6
18 0.6
19 0.3239
20 0.3239
21 0.36
22 0.36
$EndElementData
$ElementData
1
"Attribute:SectionDimension2"
1
0
3
0
1
22
1 0.3
2 0.3
3 0.3
4 0.3
5 0.3
6 0.3
7 0.3
8 0.3
9 0.0125
10 0.0125
11 0.3
12 0.3
13 0.3
14 0.3
15 0.3
16 0.3
17 0.3
18 0.3
19 0.0125
20 0.0125
21 0.17
22 0.17
$EndElementData
$ElementData
1
"Attribute:SectionDimension3"
1
0
3
0
1
22
1 0.0155
2 0.0155
3 0.0155
4 0.0155
5 0.0155
6 0.0155
7 0.0155
8 0.0155
9 0
10 0
11 0.0155
12 0.0155
13 0.0155
14 0.0155
15 0.0155
16 0.0155
17 0.0155
18 0.0155
19 0
20 0
21 0.008
22 0.008
$EndElementData
$ElementData
1
"Attribute:SectionDimension4"
1
0
3
0
1
22
1 0.03
2 0.03
3 0.03
4 0.03
5 0.03
6 0.03
7 0.03
8 0.03
9 0
10 0
11 0.03
12 0.03
13 0.03
14 0.03
15 0.03
16 0.03
17 0.03
18 0.03
19 0
20 0
21 0.0127
22 0.0127
$EndElementData
$ElementData
1
"Attribute:SectionDimension5"
1
0
3
0
1
22
1 0.027
2 0.027
3 0.027
4 0.027
5 0.027
6 0.027
7 0.027
8 0.027
9 0
10 0
11 0.027
12 0.027
13 0.027
14 0.027
15 0.027
16 0.027
17 0.027
18 0.027
19 0
20 0
21 0.018
22 0.018
$EndElementData
$ElementData
1
"Attribute:SectionShape"
1
0
3
0
1
22
1 5
2 5
3 5
4 5
5 5
6 5
7 5
8 5
9 3
10 3
11 5
12 5
13 5
14 5
15 5
16 5
17 5
18 5
19 3
20 3
21 5
22 5
$EndElementData
$ElementData
1
"Attribute:ShearAreaY"
1
0
3
0
1
22
1 0.008633031428391261
2 0.008633031428391261
3 0.008633031428391261
4 0.008633031428391261
5 0.008633031428391261
6 0.008633031428391261
7 0.008633031428391261
8 0.008633031428391261
9 0.006505445863801528
10 0.006505445863801528
11 0.008633031428391261
12 0.008633031428391261
13 0.008633031428391261
14 0.008633031428391261
15 0.008633031428391261
16 0.008633031428391261
17 0.008633031428391261
18 0.008633031428391261
19 0.006505445863801528
20 0.006505445863801528
21 0.0027606736487631755
22 0.0027606736487631755
$EndElementData
$ElementData
1
"Attribute:ShearAreaZ"
1
0
3
0
1
22
1 0.015294117647058823
2 0.015294117647058823
3 0.015294117647058823
4 0.015294117647058823
5 0.015294117647058823
6 0.015294117647058823
7 0.015294117647058823
8 0.015294117647058823
9 0.006505445863801528
10 0.006505445863801528
11 0.015294117647058823
12 0.015294117647058823
13 0.015294117647058823
14 0.015294117647058823
15 0.015294117647058823
16 0.015294117647058823
17 0.015294117647058823
18 0.015294117647058823
19 0.006505445863801528
20 0.006505445863801528
21 0.003668888888888889
22 0.003668888888888889
$EndElementData
$ElementData
1
"Attribute:TorsionConstant"
1
0
3
0
1
22
1 6.671750497336342e-06
2 6.671750497336342e-06
3 6.671750497336342e-06
4 6.671750497336342e-06
5 6.671750497336342e-06
6 6.671750497336342e-06
7 6.671750497336342e-06
8 6.671750497336342e-06
9 0.0002969305925097061
10 0.0002969305925097061
11 6.671750497336342e-06
12 6.671750497336342e-06
13 6.671750497336342e-06
14 6.671750497336342e-06
15 6.671750497336342e-06
16 6.671750497336342e-06
17 6.671750497336342e-06
18 6.671750497336342e-06
19 0.0002969305925097061
20 0.0002969305925097061
21 3.7320927697764195e-07
22 3.7320927697764195e-07
$EndElementData
$ElementData
1
"Attribute:UniformLoadGlobalX"
1
0
3
0
1
22
1 0
2 0
3 0
4 0
5 0
6 0
7 0
8 0
9 0
10 0
11 0
12 0
13 0
14 0
15 0
16 0
17 0
18 0
19 0
20 0
21 0
22 0
$EndElementData
$ElementData
1
"Attribute:UniformLoadGlobalY"
1
0
3
0
1
22
1 0
2 0
3 0
4 0
5 0
6 0
7 0
8 0
9 0
10 0
11 0
12 0
13 0
14 0
15 0
16 0
17 0
18 0
19 0
20 0
21 0
22 0
$EndElementData
$ElementData
1
"Attribute:UniformLoadGlobalZ"
1
0
3
0
1
22
1 0
2 0
3 0
4 0
5 0
6 0
7 0
8 0
9 0
10 0
11 0
12 0
13 0
14 0
15 0
16 0
17 0
18 0
19 0
20 0
21 0
22 0
$EndElementData
$ElementData
1
"Attribute:UniformLoadLocalX"
1
0
3
0
1
22
1 0
2 0
3 0
4 0
5 0
6 0
7 0
8 0
9 0
10 0
11 0
12 0
13 0
14 0
15 0
16 0
17 0
18 0
19 0
20 0
21 0
22 0
$EndElementData
$ElementData
1
"Attribute:UniformLoadLocalY"
1
0
3
0
1
22
1 0
2 0
3 0
4 0
5 0
6 0
7 0
8 0
9 0
10 0
11 0
12 0
13 0
14 0
15 0
16 0
17 0
18 0
19 0
20 0
21 0
22 0
$EndElementData
$ElementData
1
"Attribute:UniformLoadLocalZ"
1
0
3
0
1
22
1 0
2 0
3 0
4 0
5 0
6 0
7 0
8 0
9 0
10 0
11 0
12 0
13 0
14 0
15 0
16 0
17 0
18 0
19 0
20 0
21 0
22 0
$EndElementData
$ElementData
1
"BeamOrientation"
1
0
3
0
3
22
1 0 0 0
2 0 0 0
3 0 0 0
4 0 0 0
5 0 0 0
6 0 0 0
7 0 0 0
8 0 0 0
9 0 0 0
10 0 0 0
11 0 0 0
12 0 0 0
13 0 0 0
14 0 0 0
15 0 0 0
16 0 0 0
17 0 0 0
18 0 0 0
19 0 0 0
20 0 0 0
21 0 0 0
22 0 0 0
$EndElementData
$AnafData
1
1
GLOBAL 3 1
"Gravity"
0 -9.80665 0
$EndAnafData
