$MeshFormat
4.1 0 8
$EndMeshFormat
$PhysicalNames
3
1 1 "Material:Structural Steel S355 (EN 10025)"
1 2 "Section:CHS 323.9x12.5"
1 3 "Section:RHS 300x200x12.5"
$EndPhysicalNames
$Entities
0 2 0 0
1 0 0 0 18 7 0 2 1 2 0
2 0 7 0 18 7 0 2 1 3 0
$EndEntities
$Nodes
1 12 1 12
1 1 0 12
1
2
3
4
5
6
7
8
9
10
11
12
0 0 0
18 0 0
0 7 0
2 7 0
4 7 0
6 7 0
8 7 0
10 7 0
12 7 0
14 7 0
16 7 0
18 7 0
$EndNodes
$Elements
2 11 1 11
1 1 1 2
1 1 3
2 2 12
1 2 1 9
3 3 4
4 4 5
5 5 6
6 6 7
7 7 8
8 8 9
9 9 10
10 10 11
11 11 12
$EndElements
$NodeData
1
"Fixity"
1
0
3
0
3
12
1 1 1 1
2 1 1 1
3 0 0 0
4 0 0 0
5 0 0 0
6 0 0 0
7 0 0 0
8 0 0 0
9 0 0 0
10 0 0 0
11 0 0 0
12 0 0 0
$EndNodeData
$NodeData
1
"FixityRotation"
1
0
3
0
3
12
1 1 1 1
2 1 1 1
3 0 0 0
4 0 0 0
5 0 0 0
6 0 0 0
7 0 0 0
8 0 0 0
9 0 0 0
10 0 0 0
11 0 0 0
12 0 0 0
$EndNodeData
$ElementData
1
"CrossSectionArea"
1
0
3
0
1
11
1 0.01222864940409828
2 0.01222864940409828
3 0.01170734231515426
4 0.01170734231515426
5 0.01170734231515426
6 0.01170734231515426
7 0.01170734231515426
8 0.01170734231515426
9 0.01170734231515426
10 0.01170734231515426
11 0.01170734231515426
$EndElementData
$ElementData
1
"Attribute:ElementFormulation"
1
0
3
0
1
11
1 1
2 1
3 1
4 1
5 1
6 1
7 1
8 1
9 1
10 1
11 1
$EndElementData
$ElementData
1
"MaterialID"
1
0
3
0
1
11
1 3
2 3
3 3
4 3
5 3
6 3
7 3
8 3
9 3
10 3
11 3
$EndElementData
$ElementData
1
"Attribute:SecondMomentY"
1
0
3
0
1
11
1 0.00014846529625485306
2 0.00014846529625485306
3 7.537006012715123e-05
4 7.537006012715123e-05
5 7.537006012715123e-05
6 7.537006012715123e-05
7 7.537006012715123e-05
8 7.537006012715123e-05
9 7.537006012715123e-05
10 7.537006012715123e-05
11 7.537006012715123e-05
$EndElementData
$ElementData
1
"Attribute:SecondMomentZ"
1
0
3
0
1
11
1 0.00014846529625485306
2 0.00014846529625485306
3 0.00014272687359157574
4 0.00014272687359157574
5 0.00014272687359157574
6 0.00014272687359157574
7 0.00014272687359157574
8 0.00014272687359157574
9 0.00014272687359157574
10 0.00014272687359157574
11 0.00014272687359157574
$EndElementData
$ElementData
1
"Attribute:SectionDimension1"
1
0
3
0
1
11
1 0.3239
2 0.3239
3 0.3
4 0.3
5 0.3
6 0.3
7 0.3
8 0.3
9 0.3
10 0.3
11 0.3
$EndElementData
$ElementData
1
"Attribute:SectionDimension2"
1
0
3
0
1
11
1 0.0125
2 0.0125
3 0.2
4 0.2
5 0.2
6 0.2
7 0.2
8 0.2
9 0.2
10 0.2
11 0.2
$EndElementData
$ElementData
1
"Attribute:SectionDimension3"
1
0
3
0
1
11
1 0
2 0
3 0.0125
4 0.0125
5 0.0125
6 0.0125
7 0.0125
8 0.0125
9 0.0125
10 0.0125
11 0.0125
$EndElementData
$ElementData
1
"Attribute:SectionDimension4"
1
0
3
0
1
11
1 0
2 0
3 0.01875
4 0.01875
5 0.01875
6 0.01875
7 0.01875
8 0.01875
9 0.01875
10 0.01875
11 0.01875
$EndElementData
$ElementData
1
"Attribute:SectionDimension5"
1
0
3
0
1
11
1 0
2 0
3 0.0125
4 0.0125
5 0.0125
6 0.0125
7 0.0125
8 0.0125
9 0.0125
10 0.0125
11 0.0125
$EndElementData
$ElementData
1
"Attribute:SectionShape"
1
0
3
0
1
11
1 3
2 3
3 4
4 4
5 4
6 4
7 4
8 4
9 4
10 4
11 4
$EndElementData
$ElementData
1
"Attribute:ShearAreaY"
1
0
3
0
1
11
1 0.006505445863801528
2 0.006505445863801528
3 0.0065459767763115665
4 0.0065459767763115665
5 0.0065459767763115665
6 0.0065459767763115665
7 0.0065459767763115665
8 0.0065459767763115665
9 0.0065459767763115665
10 0.0065459767763115665
11 0.0065459767763115665
$EndElementData
$ElementData
1
"Attribute:ShearAreaZ"
1
0
3
0
1
11
1 0.006505445863801528
2 0.006505445863801528
3 0.003641912063947484
4 0.003641912063947484
5 0.003641912063947484
6 0.003641912063947484
7 0.003641912063947484
8 0.003641912063947484
9 0.003641912063947484
10 0.003641912063947484
11 0.003641912063947484
$EndElementData
$ElementData
1
"Attribute:TorsionConstant"
1
0
3
0
1
11
1 0.0002969305925097061
2 0.0002969305925097061
3 0.00015676502090145543
4 0.00015676502090145543
5 0.00015676502090145543
6 0.00015676502090145543
7 0.00015676502090145543
8 0.00015676502090145543
9 0.00015676502090145543
10 0.00015676502090145543
11 0.00015676502090145543
$EndElementData
$ElementData
1
"Attribute:UniformLoadGlobalX"
1
0
3
0
1
11
1 0
2 0
3 0
4 0
5 0
6 0
7 0
8 0
9 0
10 0
11 0
$EndElementData
$ElementData
1
"Attribute:UniformLoadGlobalY"
1
0
3
0
1
11
1 0
2 0
3 -3000
4 -3000
5 -3000
6 -3000
7 -3000
8 -3000
9 -3000
10 -3000
11 -3000
$EndElementData
$ElementData
1
"Attribute:UniformLoadGlobalZ"
1
0
3
0
1
11
1 0
2 0
3 2000
4 2000
5 2000
6 2000
7 2000
8 2000
9 2000
10 2000
11 2000
$EndElementData
$ElementData
1
"Attribute:UniformLoadLocalX"
1
0
3
0
1
11
1 0
2 0
3 0
4 0
5 0
6 0
7 0
8 0
9 0
10 0
11 0
$EndElementData
$ElementData
1
"Attribute:UniformLoadLocalY"
1
0
3
0
1
11
1 0
2 0
3 0
4 0
5 0
6 0
7 0
8 0
9 0
10 0
11 0
$EndElementData
$ElementData
1
"Attribute:UniformLoadLocalZ"
1
0
3
0
1
11
1 0
2 0
3 0
4 0
5 0
6 0
7 0
8 0
9 0
10 0
11 0
$EndElementData
$ElementData
1
"BeamOrientation"
1
0
3
0
3
11
1 0 0 0
2 0 0 0
3 0 0 0
4 0 0 0
5 0 0 0
6 0 0 0
7 0 0 0
8 0 0 0
9 0 0 0
10 0 0 0
11 0 0 0
$EndElementData
$AnafData
1
1
GLOBAL 3 1
"Gravity"
0 -9.80665 0
$EndAnafData
