$MeshFormat
4.1 0 8
$EndMeshFormat
$PhysicalNames
3
1 1 "Material:Structural Steel S355 (EN 10025)"
1 2 "Section:HEB 300"
1 3 "Section:HEB 450"
$EndPhysicalNames
$Entities
0 2 0 0
1 0 7 0 24 7 0 2 1 3 0
2 0 0 0 24 7 0 2 1 2 0
$EndEntities
$Nodes
1 22 1 22
1 1 0 22
1
2
3
4
5
6
7
8
9
10
11
12
13
14
15
16
17
18
19
20
21
22
0 7 0
1.5 7 0
3 7 0
4.5 7 0
6 7 0
7.5 7 0
9 7 0
10.5 7 0
12 7 0
13.5 7 0
15 7 0
16.5 7 0
18 7 0
19.5 7 0
21 7 0
22.5 7 0
24 7 0
0 0 0
6 0 0
12 0 0
18 0 0
24 0 0
$EndNodes
$Elements
2 21 1 21
1 1 1 16
1 1 2
2 2 3
3 3 4
4 4 5
5 5 6
6 6 7
7 7 8
8 8 9
9 9 10
10 10 11
11 11 12
12 12 13
13 13 14
14 14 15
15 15 16
16 16 17
1 2 1 5
17 18 1
18 19 5
19 20 9
20 21 13
21 22 17
$EndElements
$NodeData
1
"Displacement"
1
0
3
0
3
22
1 1.1645158711346432e-06 -1.1329550104956702e-05 0.005017865036387744
2 1.2217568415819929e-06 3.552320191277673e-05 0.014140174810801232
3 1.2789978120293421e-06 8.486506999838236e-05 0.023179354137635427
4 1.3362387824766916e-06 8.18685176242902e-05 0.03204038584439622
5 1.393479752924041e-06 -7.893112675198427e-05 0.04062825275858951
6 1.0451098146929896e-06 -0.00048749879285162366 0.0487064743974438
7 6.967398764619383e-07 -0.0008648658563934375 0.055450798641802496
8 3.483699382308871e-07 -0.0008390523604387233 0.059884550864593766
9 -1.6422220949673948e-19 -0.000491066669165712 0.061305281758476424
10 -3.483699382312147e-07 -0.0008390523604387219 0.0598845508645946
11 -6.967398764622651e-07 -0.0008648658563934358 0.05545079864180407
12 -1.0451098146933155e-06 -0.0004874987928516227 0.048706474397445944
13 -1.393479752924366e-06 -7.893112675198423e-05 0.040628252758592054
14 -1.3362387824770169e-06 8.186851762428994e-05 0.03204038584439905
15 -1.2789978120296676e-06 8.486506999838209e-05 0.02317935413763839
16 -1.221756841582318e-06 3.552320191277654e-05 0.014140174810804226
17 -1.164515871134968e-06 -1.132955010495672e-05 0.0050178650363906984
18 0 0 0
19 0 0 0
20 0 0 0
21 0 0 0
22 0 0 0
$EndNodeData
$NodeData
1
"Rotation"
1
0
3
0
3
22
1 0.0011189496411605094 -0.006088135071581188 2.6661088152223962e-05
2 0.0030111501574229677 -0.0060643871640263455 3.534364770334777e-05
3 0.004903350673685428 -0.0059772944748087845 2.4353561241063063e-05
4 0.006795551189947887 -0.0058268570039284855 -4.00672612445731e-05
5 0.008687751706210342 -0.005613074751385432 -0.00019167690976350387
6 0.009787330106781136 -0.005049368030745641 -0.0003061225237078356
7 0.010886908507351927 -0.0038345448920579653 -0.00015570245468806036
8 0.011986486907922715 -0.0019686053353224044 0.00022582520728587783
9 0.013086065308493492 -2.7868716482109834e-16 4.622670715622926e-19
10 0.011986486907922839 0.0019686053353218684 -0.00022582520728587716
11 0.010886908507352187 0.0038345448920575316 0.00015570245468806015
12 0.009787330106781535 0.005049368030745323 0.0003061225237078348
13 0.008687751706210887 0.005613074751385205 0.00019167690976350352
14 0.0067955511899484514 0.005826857003928352 4.006726124457304e-05
15 0.004903350673686014 0.005977294474808738 -2.4353561241063043e-05
16 0.003011150157423578 0.006064387164026357 -3.534364770334768e-05
17 0.0011189496411611426 0.006088135071581221 -2.6661088152223837e-05
18 0 0 0
19 0 0 0
20 0 0 0
21 0 0 0
22 0 0 0
$EndNodeData
$ElementData
1
"BeamSectionForce"
1
0
3
0
12
21
1 174.68164294161352 -1050.2350545796312 692.9861370012513 448.9613350456539 -130.03968699646066 812.6690718148233 174.68164294161352 1466.8264958279929 692.9861370012513 448.9613350456539 909.4395185054163 500.22549087855475
2 174.6816429416126 1466.8264958279847 692.9861370018916 448.96133504565444 909.4395185049507 500.22549087855657 174.6816429416126 3983.8880462356087 692.9861370018916 448.96133504565444 1948.9187240084866 -3587.810415669131
3 174.68164294161352 3983.888046235604 692.9861370011349 448.9613350456541 1948.9187240084575 -3587.8104156691275 174.68164294161352 6500.949596643228 692.9861370011349 448.9613350456541 2988.397929509927 -11451.438647828256
4 174.68164294161306 6500.949596643224 692.9861370028812 448.9613350456532 2988.3979295097815 -11451.43864782827 174.68164294161306 9018.011147050847 692.9861370028812 448.9613350456532 4027.877135014336 -23090.65920559883
5 -1063.1167271638424 -22265.90475851112 7123.154258921393 260.8963386622154 3907.984511874558 -28870.05741643627 -1063.1167271638424 -19748.84320810349 7123.154258921393 260.8963386622154 14592.715900257346 2641.0035585246865
6 -1063.1167271638415 -19748.84320810349 7123.15425892215 260.896338662214 14592.715900257026 2641.00355852465 -1063.1167271638415 -17231.781657695865 7123.15425892215 260.896338662214 25277.44728863932 30376.472207874198
7 -1063.1167271638415 -17231.781657695836 7123.154258921466 260.896338662214 25277.447288638585 30376.47220787414 -1063.1167271638415 -14714.72010728821 7123.154258921466 260.896338662214 35962.17867702218 54336.348531612115
8 -1063.1167271638415 105285.27989271184 -4876.845741078855 260.89633866221084 35962.178677022755 54336.34853161207 -1063.1167271638415 107802.34144311945 -4876.845741078855 260.89633866221084 28646.91006540401 -105479.36747026147
9 -1063.1167271638392 -107802.34144311941 4876.845741079669 -260.89633866218173 28646.910065403434 -105479.36747026141 -1063.1167271638392 -105285.2798927118 4876.845741079669 -260.89633866218173 35962.1786770234 54336.348531611926
10 -1063.1167271638387 14714.720107288123 -7123.15425891988 -260.8963386621813 35962.17867702292 54336.34853161197 -1063.1167271638387 17231.78165769575 -7123.15425891988 -260.8963386621813 25277.447288641706 30376.472207874067
11 -1063.1167271638387 17231.781657695938 -7123.154258922208 -260.8963386621813 25277.447288641008 30376.47220787414 -1063.1167271638387 19748.843208103564 -7123.154258922208 -260.8963386621813 14592.715900259092 2641.003558524599
12 -1063.1167271638392 19748.843208103448 -7123.154258921975 -260.89633866218037 14592.715900258976 2641.0035585246865 -1063.1167271638392 22265.904758511075 -7123.154258921975 -260.89633866218037 3907.9845118753146 -28870.057416436182
13 174.68164294161215 -9018.011147050836 -692.9861370015424 -448.96133504564887 4027.877135014278 -23090.659205598793 174.68164294161215 -6500.949596643213 -692.9861370015424 -448.96133504564887 2988.397929512663 -11451.438647828238
14 174.6816429416126 -6500.949596643215 -692.986137001717 -448.96133504564887 2988.397929512168 -11451.438647828241 174.6816429416126 -3983.8880462355914 -692.986137001717 -448.96133504564887 1948.9187240093597 -3587.810415669133
15 174.68164294161352 -3983.8880462356105 -692.986137001717 -448.96133504564875 1948.9187240090396 -3587.8104156691284 174.68164294161352 -1466.8264958279865 -692.986137001717 -448.96133504564875 909.4395185063477 500.2254908785693
16 174.68164294161443 -1466.8264958279874 -692.9861370018334 -448.9613350456485 909.4395185062895 500.22549087856385 174.68164294161443 1050.2350545796367 -692.9861370018334 -448.9613350456485 -130.0396869966644 812.6690718148224
17 -9083.670663240211 174.68164294161426 -692.9861370014596 -130.03968699649533 5299.864294055864 410.10242877647437 -1050.2350545796303 174.68164294161426 -692.9861370014596 -130.03968699649533 448.96133504565114 -812.6690718148253
18 -39317.35151422256 -1237.7983701054548 -6430.1681219199745 -119.89262313927601 44823.11185705634 -2885.1903799007714 -31283.915905561975 -1237.7983701054548 -6430.1681219199745 -119.89262313927601 -188.06499638347304 5779.398210837412
19 -223638.1184948995 2.687779409973962e-12 -9753.691482159418 -5.9526260927493055e-12 67754.04769779154 5.9172484163782605e-12 -215604.68288623894 2.687779409973962e-12 -9753.691482159418 -5.9526260927493055e-12 -521.7926773243526 -1.2897207453439473e-11
20 -39317.35151422254 1237.7983701054518 -6430.168121920382 119.89262313927117 44823.11185705914 2885.1903799007637 -31283.915905561953 1237.7983701054518 -6430.168121920382 119.89262313927117 -188.06499638347304 -5779.398210837398
21 -9083.67066324022 -174.68164294161403 -692.9861370019239 130.03968699649604 5299.864294059116 -410.1024287764746 -1050.2350545796385 -174.68164294161403 -692.9861370019239 130.03968699649604 448.96133504565114 812.6690718148236
$EndElementData
$ElementData
1
"AxialForce"
1
0
3
0
1
21
1 174.68164294161352
2 174.6816429416126
3 174.68164294161352
4 174.68164294161306
5 -1063.1167271638424
6 -1063.1167271638415
7 -1063.1167271638415
8 -1063.1167271638415
9 -1063.1167271638392
10 -1063.1167271638387
11 -1063.1167271638387
12 -1063.1167271638392
13 174.68164294161215
14 174.6816429416126
15 174.68164294161352
16 174.68164294161443
17 -5066.952858909921
18 -35300.63370989227
19 -219621.40069056922
20 -35300.633709892245
21 -5066.952858909929
$EndElementData
$ElementData
1
"VonMisesStress"
1
0
3
0
1
21
1 5322251.640187182
2 6895683.350394405
3 9738359.9333119
4 13861445.550015135
5 21859642.206511553
6 41965721.55811124
7 61944804.80216829
8 75892471.40943353
9 75892471.40943228
10 61944804.80217085
11 41965721.558112115
12 21859642.206514075
13 13861445.550015168
14 9738359.933313787
15 6895683.350395145
16 5322251.640187498
17 10459190.915409926
18 82988880.07380474
19 133708558.410649
20 82988880.07380962
21 10459190.91541548
$EndElementData
$NodeData
1
"Fixity"
1
0
3
0
3
22
1 0 0 0
2 0 0 0
3 0 0 0
4 0 0 0
5 0 0 0
6 0 0 0
7 0 0 0
8 0 0 0
9 0 0 0
10 0 0 0
11 0 0 0
12 0 0 0
13 0 0 0
14 0 0 0
15 0 0 0
16 0 0 0
17 0 0 0
18 1 1 1
19 1 1 1
20 1 1 1
21 1 1 1
22 1 1 1
$EndNodeData
$NodeData
1
"FixityRotation"
1
0
3
0
3
22
1 0 0 0
2 0 0 0
3 0 0 0
4 0 0 0
5 0 0 0
6 0 0 0
7 0 0 0
8 0 0 0
9 0 0 0
10 0 0 0
11 0 0 0
12 0 0 0
13 0 0 0
14 0 0 0
15 0 0 0
16 0 0 0
17 0 0 0
18 1 1 1
19 1 1 1
20 1 1 1
21 1 1 1
22 1 1 1
$EndNodeData
$NodeData
1
"NodalForce"
1
0
3
0
3
22
1 0 0 0
2 0 0 0
3 0 0 0
4 0 0 0
5 0 0 0
6 0 0 0
7 0 0 0
8 0 -120000 12000
9 0 0 0
10 0 -120000 12000
11 0 0 0
12 0 0 0
13 0 0 0
14 0 0 0
15 0 0 0
16 0 0 0
17 0 0 0
18 0 0 0
19 0 0 0
20 0 0 0
21 0 0 0
22 0 0 0
$EndNodeData
$ElementData
1
"CrossSectionArea"
1
0
3
0
1
21
1 0.021797778955533035
2 0.021797778955533035
3 0.021797778955533035
4 0.021797778955533035
5 0.021797778955533035
6 0.021797778955533035
7 0.021797778955533035
8 0.021797778955533035
9 0.021797778955533035
10 0.021797778955533035
11 0.021797778955533035
12 0.021797778955533035
13 0.021797778955533035
14 0.021797778955533035
15 0.021797778955533035
16 0.021797778955533035
17 0.014907778955533042
18 0.014907778955533042
19 0.014907778955533042
20 0.014907778955533042
21 0.014907778955533042
$EndElementData
$ElementData
1
"Attribute:ElementFormulation"
1
0
3
0
1
21
1 1
2 1
3 1
4 1
5 1
6 1
7 1
8 1
9 1
10 1
11 1
12 1
13 1
14 1
15 1
16 1
17 1
18 1
19 1
20 1
21 1
$EndElementData
$ElementData
1
"MaterialID"
1
0
3
0
1
21
1 3
2 3
3 3
4 3
5 3
6 3
7 3
8 3
9 3
10 3
11 3
12 3
13 3
14 3
15 3
16 3
17 3
18 3
19 3
20 3
21 3
$EndElementData
$ElementData
1
"Attribute:SecondMomentY"
1
0
3
0
1
21
1 0.00011721330902057542
2 0.00011721330902057542
3 0.00011721330902057542
4 0.00011721330902057542
5 0.00011721330902057542
6 0.00011721330902057542
7 0.00011721330902057542
8 0.00011721330902057542
9 0.00011721330902057542
10 0.00011721330902057542
11 0.00011721330902057542
12 0.00011721330902057542
13 0.00011721330902057542
14 0.00011721330902057542
15 0.00011721330902057542
16 0.00011721330902057542
17 8.562830440309431e-05
18 8.562830440309431e-05
19 8.562830440309431e-05
20 8.562830440309431e-05
21 8.562830440309431e-05
$EndElementData
$ElementData
1
"Attribute:SecondMomentZ"
1
0
3
0
1
21
1 0.0007988756651684687
2 0.0007988756651684687
3 0.0007988756651684687
4 0.0007988756651684687
5 0.0007988756651684687
6 0.0007988756651684687
7 0.0007988756651684687
8 0.0007988756651684687
9 0.0007988756651684687
10 0.0007988756651684687
11 0.0007988756651684687
12 0.0007988756651684687
13 0.0007988756651684687
14 0.0007988756651684687
15 0.0007988756651684687
16 0.0007988756651684687
17 0.0002516567970643579
18 0.0002516567970643579
19 0.0002516567970643579
20 0.0002516567970643579
21 0.0002516567970643579
$EndElementData
$ElementData
1
"Attribute:SectionDimension1"
1
0
3
0
1
21
1 0.45
2 0.45
3 0.45
4 0.45
5 0.45
6 0.45
7 0.45
8 0.45
9 0.45
10 0.45
11 0.45
12 0.45
13 0.45
14 0.45
15 0.45
16 0.45
17 0.3
18 0.3
19 0.3
20 0.3
21 0.3
$EndElementData
$ElementData
1
"Attribute:SectionDimension2"
1
0
3
0
1
21
1 0.3
2 0.3
3 0.3
4 0.3
5 0.3
6 0.3
7 0.3
8 0.3
9 0.3
10 0.3
11 0.3
12 0.3
13 0.3
14 0.3
15 0.3
16 0.3
17 0.3
18 0.3
19 0.3
20 0.3
21 0.3
$EndElementData
$ElementData
1
"Attribute:SectionDimension3"
1
0
3
0
1
21
1 0.014
2 0.014
3 0.014
4 0.014
5 0.014
6 0.014
7 0.014
8 0.014
9 0.014
10 0.014
11 0.014
12 0.014
13 0.014
14 0.014
15 0.014
16 0.014
17 0.011
18 0.011
19 0.011
20 0.011
21 0.011
$EndElementData
$ElementData
1
"Attribute:SectionDimension4"
1
0
3
0
1
21
1 0.026
2 0.026
3 0.026
4 0.026
5 0.026
6 0.026
7 0.026
8 0.026
9 0.026
10 0.026
11 0.026
12 0.026
13 0.026
14 0.026
15 0.026
16 0.026
17 0.019
18 0.019
19 0.019
20 0.019
21 0.019
$EndElementData
$ElementData
1
"Attribute:SectionDimension5"
1
0
3
0
1
21
1 0.027
2 0.027
3 0.027
4 0.027
5 0.027
6 0.027
7 0.027
8 0.027
9 0.027
10 0.027
11 0.027
12 0.027
13 0.027
14 0.027
15 0.027
16 0.027
17 0.027
18 0.027
19 0.027
20 0.027
21 0.027
$EndElementData
$ElementData
1
"Attribute:SectionShape"
1
0
3
0
1
21
1 5
2 5
3 5
4 5
5 5
6 5
7 5
8 5
9 5
10 5
11 5
12 5
13 5
14 5
15 5
16 5
17 5
18 5
19 5
20 5
21 5
$EndElementData
$ElementData
1
"Attribute:ShearAreaY"
1
0
3
0
1
21
1 0.005732527422003635
2 0.005732527422003635
3 0.005732527422003635
4 0.005732527422003635
5 0.005732527422003635
6 0.005732527422003635
7 0.005732527422003635
8 0.005732527422003635
9 0.005732527422003635
10 0.005732527422003635
11 0.005732527422003635
12 0.005732527422003635
13 0.005732527422003635
14 0.005732527422003635
15 0.005732527422003635
16 0.005732527422003635
17 0.0029183471282896657
18 0.0029183471282896657
19 0.0029183471282896657
20 0.0029183471282896657
21 0.0029183471282896657
$EndElementData
$ElementData
1
"Attribute:ShearAreaZ"
1
0
3
0
1
21
1 0.013254901960784313
2 0.013254901960784313
3 0.013254901960784313
4 0.013254901960784313
5 0.013254901960784313
6 0.013254901960784313
7 0.013254901960784313
8 0.013254901960784313
9 0.013254901960784313
10 0.013254901960784313
11 0.013254901960784313
12 0.013254901960784313
13 0.013254901960784313
14 0.013254901960784313
15 0.013254901960784313
16 0.013254901960784313
17 0.009686274509803921
18 0.009686274509803921
19 0.009686274509803921
20 0.009686274509803921
21 0.009686274509803921
$EndElementData
$ElementData
1
"Attribute:TorsionConstant"
1
0
3
0
1
21
1 4.404754241412462e-06
2 4.404754241412462e-06
3 4.404754241412462e-06
4 4.404754241412462e-06
5 4.404754241412462e-06
6 4.404754241412462e-06
7 4.404754241412462e-06
8 4.404754241412462e-06
9 4.404754241412462e-06
10 4.404754241412462e-06
11 4.404754241412462e-06
12 4.404754241412462e-06
13 4.404754241412462e-06
14 4.404754241412462e-06
15 4.404754241412462e-06
16 4.404754241412462e-06
17 1.8504540939155354e-06
18 1.8504540939155354e-06
19 1.8504540939155354e-06
20 1.8504540939155354e-06
21 1.8504540939155354e-06
$EndElementData
$ElementData
1
"Attribute:UniformLoadGlobalX"
1
0
3
0
1
21
1 0
2 0
3 0
4 0
5 0
6 0
7 0
8 0
9 0
10 0
11 0
12 0
13 0
14 0
15 0
16 0
17 0
18 0
19 0
20 0
21 0
$EndElementData
$ElementData
1
"Attribute:UniformLoadGlobalY"
1
0
3
0
1
21
1 0
2 0
3 0
4 0
5 0
6 0
7 0
8 0
9 0
10 0
11 0
12 0
13 0
14 0
15 0
16 0
17 0
18 0
19 0
20 0
21 0
$EndElementData
$ElementData
1
"Attribute:UniformLoadGlobalZ"
1
0
3
0
1
21
1 0
2 0
3 0
4 0
5 0
6 0
7 0
8 0
9 0
10 0
11 0
12 0
13 0
14 0
15 0
16 0
17 0
18 0
19 0
20 0
21 0
$EndElementData
$ElementData
1
"Attribute:UniformLoadLocalX"
1
0
3
0
1
21
1 0
2 0
3 0
4 0
5 0
6 0
7 0
8 0
9 0
10 0
11 0
12 0
13 0
14 0
15 0
16 0
17 0
18 0
19 0
20 0
21 0
$EndElementData
$ElementData
1
"Attribute:UniformLoadLocalY"
1
0
3
0
1
21
1 0
2 0
3 0
4 0
5 0
6 0
7 0
8 0
9 0
10 0
11 0
12 0
13 0
14 0
15 0
16 0
17 0
18 0
19 0
20 0
21 0
$EndElementData
$ElementData
1
"Attribute:UniformLoadLocalZ"
1
0
3
0
1
21
1 0
2 0
3 0
4 0
5 0
6 0
7 0
8 0
9 0
10 0
11 0
12 0
13 0
14 0
15 0
16 0
17 0
18 0
19 0
20 0
21 0
$EndElementData
$ElementData
1
"BeamOrientation"
1
0
3
0
3
21
1 0 0 0
2 0 0 0
3 0 0 0
4 0 0 0
5 0 0 0
6 0 0 0
7 0 0 0
8 0 0 0
9 0 0 0
10 0 0 0
11 0 0 0
12 0 0 0
13 0 0 0
14 0 0 0
15 0 0 0
16 0 0 0
17 1 0 0
18 1 0 0
19 1 0 0
20 1 0 0
21 1 0 0
$EndElementData
$AnafData
1
1
GLOBAL 3 1
"Gravity"
0 -9.80665 0
$EndAnafData
