$MeshFormat
4.1 0 8
$EndMeshFormat
$PhysicalNames
3
1 1 "Material:Structural Steel S355 (EN 10025)"
1 2 "Section:HEB 300"
1 3 "Section:HEB 450"
$EndPhysicalNames
$Entities
0 2 0 0
1 0 7 0 24 7 0 2 1 3 0
2 0 0 0 24 7 0 2 1 2 0
$EndEntities
$Nodes
1 22 1 22
1 1 0 22
1
2
3
4
5
6
7
8
9
10
11
12
13
14
15
16
17
18
19
20
21
22
0 7 0
1.5 7 0
3 7 0
4.5 7 0
6 7 0
7.5 7 0
9 7 0
10.5 7 0
12 7 0
13.5 7 0
15 7 0
16.5 7 0
18 7 0
19.5 7 0
21 7 0
22.5 7 0
24 7 0
0 0 0
6 0 0
12 0 0
18 0 0
24 0 0
$EndNodes
$Elements
2 21 1 21
1 1 1 16
1 1 2
2 2 3
3 3 4
4 4 5
5 5 6
6 6 7
7 7 8
8 8 9
9 9 10
10 10 11
11 11 12
12 12 13
13 13 14
14 14 15
15 15 16
16 16 17
1 2 1 5
17 18 1
18 19 5
19 20 9
20 21 13
21 22 17
$EndElements
$NodeData
1
"Fixity"
1
0
3
0
3
22
1 0 0 0
2 0 0 0
3 0 0 0
4 0 0 0
5 0 0 0
6 0 0 0
7 0 0 0
8 0 0 0
9 0 0 0
10 0 0 0
11 0 0 0
12 0 0 0
13 0 0 0
14 0 0 0
15 0 0 0
16 0 0 0
17 0 0 0
18 1 1 1
19 1 1 1
20 1 1 1
21 1 1 1
22 1 1 1
$EndNodeData
$NodeData
1
"FixityRotation"
1
0
3
0
3
22
1 0 0 0
2 0 0 0
3 0 0 0
4 0 0 0
5 0 0 0
6 0 0 0
7 0 0 0
8 0 0 0
9 0 0 0
10 0 0 0
11 0 0 0
12 0 0 0
13 0 0 0
14 0 0 0
15 0 0 0
16 0 0 0
17 0 0 0
18 1 1 1
19 1 1 1
20 1 1 1
21 1 1 1
22 1 1 1
$EndNodeData
$NodeData
1
"NodalForce"
1
0
3
0
3
22
1 0 0 0
2 0 0 0
3 0 0 0
4 0 0 0
5 0 0 0
6 0 0 0
7 0 0 0
8 0 -120000 12000
9 0 0 0
10 0 -120000 12000
11 0 0 0
12 0 0 0
13 0 0 0
14 0 0 0
15 0 0 0
16 0 0 0
17 0 0 0
18 0 0 0
19 0 0 0
20 0 0 0
21 0 0 0
22 0 0 0
$EndNodeData
$ElementData
1
"CrossSectionArea"
1
0
3
0
1
21
1 0.021797778955533035
2 0.021797778955533035
3 0.021797778955533035
4 0.021797778955533035
5 0.021797778955533035
6 0.021797778955533035
7 0.021797778955533035
8 0.021797778955533035
9 0.021797778955533035
10 0.021797778955533035
11 0.021797778955533035
12 0.021797778955533035
13 0.021797778955533035
14 0.021797778955533035
15 0.021797778955533035
16 0.021797778955533035
17 0.014907778955533042
18 0.014907778955533042
19 0.014907778955533042
20 0.014907778955533042
21 0.014907778955533042
$EndElementData
$ElementData
1
"Attribute:ElementFormulation"
1
0
3
0
1
21
1 1
2 1
3 1
4 1
5 1
6 1
7 1
8 1
9 1
10 1
11 1
12 1
13 1
14 1
15 1
16 1
17 1
18 1
19 1
20 1
21 1
$EndElementData
$ElementData
1
"MaterialID"
1
0
3
0
1
21
1 3
2 3
3 3
4 3
5 3
6 3
7 3
8 3
9 3
10 3
11 3
12 3
13 3
14 3
15 3
16 3
17 3
18 3
19 3
20 3
21 3
$EndElementData
$ElementData
1
"Attribute:SecondMomentY"
1
0
3
0
1
21
1 0.00011721330902057542
2 0.00011721330902057542
3 0.00011721330902057542
4 0.00011721330902057542
5 0.00011721330902057542
6 0.00011721330902057542
7 0.00011721330902057542
8 0.00011721330902057542
9 0.00011721330902057542
10 0.00011721330902057542
11 0.00011721330902057542
12 0.00011721330902057542
13 0.00011721330902057542
14 0.00011721330902057542
15 0.00011721330902057542
16 0.00011721330902057542
17 8.562830440309431e-05
18 8.562830440309431e-05
19 8.562830440309431e-05
20 8.562830440309431e-05
21 8.562830440309431e-05
$EndElementData
$ElementData
1
"Attribute:SecondMomentZ"
1
0
3
0
1
21
1 0.0007988756651684687
2 0.0007988756651684687
3 0.0007988756651684687
4 0.0007988756651684687
5 0.0007988756651684687
6 0.0007988756651684687
7 0.0007988756651684687
8 0.0007988756651684687
9 0.0007988756651684687
10 0.0007988756651684687
11 0.0007988756651684687
12 0.0007988756651684687
13 0.0007988756651684687
14 0.0007988756651684687
15 0.0007988756651684687
16 0.0007988756651684687
17 0.0002516567970643579
18 0.0002516567970643579
19 0.0002516567970643579
20 0.0002516567970643579
21 0.0002516567970643579
$EndElementData
$ElementData
1
"Attribute:SectionDimension1"
1
0
3
0
1
21
1 0.45
2 0.45
3 0.45
4 0.45
5 0.45
6 0.45
7 0.45
8 0.45
9 0.45
10 0.45
11 0.45
12 0.45
13 0.45
14 0.45
15 0.45
16 0.45
17 0.3
18 0.3
19 0.3
20 0.3
21 0.3
$EndElementData
$ElementData
1
"Attribute:SectionDimension2"
1
0
3
0
1
21
1 0.3
2 0.3
3 0.3
4 0.3
5 0.3
6 0.3
7 0.3
8 0.3
9 0.3
10 0.3
11 0.3
12 0.3
13 0.3
14 0.3
15 0.3
16 0.3
17 0.3
18 0.3
19 0.3
20 0.3
21 0.3
$EndElementData
$ElementData
1
"Attribute:SectionDimension3"
1
0
3
0
1
21
1 0.014
2 0.014
3 0.014
4 0.014
5 0.014
6 0.014
7 0.014
8 0.014
9 0.014
10 0.014
11 0.014
12 0.014
13 0.014
14 0.014
15 0.014
16 0.014
17 0.011
18 0.011
19 0.011
20 0.011
21 0.011
$EndElementData
$ElementData
1
"Attribute:SectionDimension4"
1
0
3
0
1
21
1 0.026
2 0.026
3 0.026
4 0.026
5 0.026
6 0.026
7 0.026
8 0.026
9 0.026
10 0.026
11 0.026
12 0.026
13 0.026
14 0.026
15 0.026
16 0.026
17 0.019
18 0.019
19 0.019
20 0.019
21 0.019
$EndElementData
$ElementData
1
"Attribute:SectionDimension5"
1
0
3
0
1
21
1 0.027
2 0.027
3 0.027
4 0.027
5 0.027
6 0.027
7 0.027
8 0.027
9 0.027
10 0.027
11 0.027
12 0.027
13 0.027
14 0.027
15 0.027
16 0.027
17 0.027
18 0.027
19 0.027
20 0.027
21 0.027
$EndElementData
$ElementData
1
"Attribute:SectionShape"
1
0
3
0
1
21
1 5
2 5
3 5
4 5
5 5
6 5
7 5
8 5
9 5
10 5
11 5
12 5
13 5
14 5
15 5
16 5
17 5
18 5
19 5
20 5
21 5
$EndElementData
$ElementData
1
"Attribute:ShearAreaY"
1
0
3
0
1
21
1 0.005732527422003635
2 0.005732527422003635
3 0.005732527422003635
4 0.005732527422003635
5 0.005732527422003635
6 0.005732527422003635
7 0.005732527422003635
8 0.005732527422003635
9 0.005732527422003635
10 0.005732527422003635
11 0.005732527422003635
12 0.005732527422003635
13 0.005732527422003635
14 0.005732527422003635
15 0.005732527422003635
16 0.005732527422003635
17 0.0029183471282896657
18 0.0029183471282896657
19 0.0029183471282896657
20 0.0029183471282896657
21 0.0029183471282896657
$EndElementData
$ElementData
1
"Attribute:ShearAreaZ"
1
0
3
0
1
21
1 0.013254901960784313
2 0.013254901960784313
3 0.013254901960784313
4 0.013254901960784313
5 0.013254901960784313
6 0.013254901960784313
7 0.013254901960784313
8 0.013254901960784313
9 0.013254901960784313
10 0.013254901960784313
11 0.013254901960784313
12 0.013254901960784313
13 0.013254901960784313
14 0.013254901960784313
15 0.013254901960784313
16 0.013254901960784313
17 0.009686274509803921
18 0.009686274509803921
19 0.009686274509803921
20 0.009686274509803921
21 0.009686274509803921
$EndElementData
$ElementData
1
"Attribute:TorsionConstant"
1
0
3
0
1
21
1 4.404754241412462e-06
2 4.404754241412462e-06
3 4.404754241412462e-06
4 4.404754241412462e-06
5 4.404754241412462e-06
6 4.404754241412462e-06
7 4.404754241412462e-06
8 4.404754241412462e-06
9 4.404754241412462e-06
10 4.404754241412462e-06
11 4.404754241412462e-06
12 4.404754241412462e-06
13 4.404754241412462e-06
14 4.404754241412462e-06
15 4.404754241412462e-06
16 4.404754241412462e-06
17 1.8504540939155354e-06
18 1.8504540939155354e-06
19 1.8504540939155354e-06
20 1.8504540939155354e-06
21 1.8504540939155354e-06
$EndElementData
$ElementData
1
"Attribute:UniformLoadGlobalX"
1
0
3
0
1
21
1 0
2 0
3 0
4 0
5 0
6 0
7 0
8 0
9 0
10 0
11 0
12 0
13 0
14 0
15 0
16 0
17 0
18 0
19 0
20 0
21 0
$EndElementData
$ElementData
1
"Attribute:UniformLoadGlobalY"
1
0
3
0
1
21
1 0
2 0
3 0
4 0
5 0
6 0
7 0
8 0
9 0
10 0
11 0
12 0
13 0
14 0
15 0
16 0
17 0
18 0
19 0
20 0
21 0
$EndElementData
$ElementData
1
"Attribute:UniformLoadGlobalZ"
1
0
3
0
1
21
1 0
2 0
3 0
4 0
5 0
6 0
7 0
8 0
9 0
10 0
11 0
12 0
13 0
14 0
15 0
16 0
17 0
18 0
19 0
20 0
21 0
$EndElementData
$ElementData
1
"Attribute:UniformLoadLocalX"
1
0
3
0
1
21
1 0
2 0
3 0
4 0
5 0
6 0
7 0
8 0
9 0
10 0
11 0
12 0
13 0
14 0
15 0
16 0
17 0
18 0
19 0
20 0
21 0
$EndElementData
$ElementData
1
"Attribute:UniformLoadLocalY"
1
0
3
0
1
21
1 0
2 0
3 0
4 0
5 0
6 0
7 0
8 0
9 0
10 0
11 0
12 0
13 0
14 0
15 0
16 0
17 0
18 0
19 0
20 0
21 0
$EndElementData
$ElementData
1
"Attribute:UniformLoadLocalZ"
1
0
3
0
1
21
1 0
2 0
3 0
4 0
5 0
6 0
7 0
8 0
9 0
10 0
11 0
12 0
13 0
14 0
15 0
16 0
17 0
18 0
19 0
20 0
21 0
$EndElementData
$ElementData
1
"BeamOrientation"
1
0
3
0
3
21
1 0 0 0
2 0 0 0
3 0 0 0
4 0 0 0
5 0 0 0
6 0 0 0
7 0 0 0
8 0 0 0
9 0 0 0
10 0 0 0
11 0 0 0
12 0 0 0
13 0 0 0
14 0 0 0
15 0 0 0
16 0 0 0
17 1 0 0
18 1 0 0
19 1 0 0
20 1 0 0
21 1 0 0
$EndElementData
$AnafData
1
1
GLOBAL 3 1
"Gravity"
0 -9.80665 0
$EndAnafData
