$MeshFormat
4.1 0 8
$EndMeshFormat
$PhysicalNames
4
1 1 "Material:Structural Steel S355 (EN 10025)"
1 2 "Section:RHS 100x50x5"
1 3 "Section:Box 40x40x2"
1 4 "Section:Box 120x60x4"
$EndPhysicalNames
$Entities
0 3 0 0
1 0 0 0 8.100000000000001 6 1.1 2 1 2 0
2 0 0 0 8.100000000000001 6 1.1 2 1 3 0
3 0 1.5 0 8.100000000000001 6 1.1 2 1 4 0
$EndEntities
$Nodes
1 40 1 40
1 1 0 40
1
2
3
4
5
6
7
8
9
10
11
12
13
14
15
16
17
18
19
20
21
22
23
24
25
26
27
28
29
30
31
32
33
34
35
36
37
38
39
40
0 0 0
0 1.5 0
0 3 0
0 4.5 0
0 6 0
0 0 1.1
0 1.5 1.1
0 3 1.1
0 4.5 1.1
0 6 1.1
2.7 0 0
2.7 1.5 0
2.7 3 0
2.7 4.5 0
2.7 6 0
2.7 0 1.1
2.7 1.5 1.1
2.7 3 1.1
2.7 4.5 1.1
2.7 6 1.1
5.4 0 0
5.4 1.5 0
5.4 3 0
5.4 4.5 0
5.4 6 0
5.4 0 1.1
5.4 1.5 1.1
5.4 3 1.1
5.4 4.5 1.1
5.4 6 1.1
8.100000000000001 0 0
8.100000000000001 1.5 0
8.100000000000001 3 0
8.100000000000001 4.5 0
8.100000000000001 6 0
8.100000000000001 0 1.1
8.100000000000001 1.5 1.1
8.100000000000001 3 1.1
8.100000000000001 4.5 1.1
8.100000000000001 6 1.1
$EndNodes
$Elements
3 88 1 88
1 1 1 32
1 1 2
2 2 3
3 3 4
4 4 5
5 6 7
6 7 8
7 8 9
8 9 10
17 11 12
18 12 13
19 13 14
20 14 15
21 16 17
22 17 18
23 18 19
24 19 20
33 21 22
34 22 23
35 23 24
36 24 25
37 26 27
38 27 28
39 28 29
40 29 30
49 31 32
50 32 33
51 33 34
52 34 35
53 36 37
54 37 38
55 38 39
56 39 40
1 2 1 32
9 1 7
10 2 7
11 7 3
12 3 8
13 3 9
14 4 9
15 9 5
16 5 10
25 11 17
26 12 17
27 17 13
28 13 18
29 13 19
30 14 19
31 19 15
32 15 20
41 21 27
42 22 27
43 27 23
44 23 28
45 23 29
46 24 29
47 29 25
48 25 30
57 31 37
58 32 37
59 37 33
60 33 38
61 33 39
62 34 39
63 39 35
64 35 40
1 3 1 24
65 2 12
66 7 17
67 3 13
68 8 18
69 4 14
70 9 19
71 5 15
72 10 20
73 12 22
74 17 27
75 13 23
76 18 28
77 14 24
78 19 29
79 15 25
80 20 30
81 22 32
82 27 37
83 23 33
84 28 38
85 24 34
86 29 39
87 25 35
88 30 40
$EndElements
$NodeData
1
"Fixity"
1
0
3
0
3
40
1 1 1 1
2 0 0 0
3 0 0 0
4 0 0 0
5 0 0 0
6 1 1 1
7 0 0 0
8 0 0 0
9 0 0 0
10 0 0 0
11 1 1 1
12 0 0 0
13 0 0 0
14 0 0 0
15 0 0 0
16 1 1 1
17 0 0 0
18 0 0 0
19 0 0 0
20 0 0 0
21 1 1 1
22 0 0 0
23 0 0 0
24 0 0 0
25 0 0 0
26 1 1 1
27 0 0 0
28 0 0 0
29 0 0 0
30 0 0 0
31 1 1 1
32 0 0 0
33 0 0 0
34 0 0 0
35 0 0 0
36 1 1 1
37 0 0 0
38 0 0 0
39 0 0 0
40 0 0 0
$EndNodeData
$NodeData
1
"FixityRotation"
1
0
3
0
3
40
1 1 1 1
2 0 0 0
3 0 0 0
4 0 0 0
5 0 0 0
6 1 1 1
7 0 0 0
8 0 0 0
9 0 0 0
10 0 0 0
11 1 1 1
12 0 0 0
13 0 0 0
14 0 0 0
15 0 0 0
16 1 1 1
17 0 0 0
18 0 0 0
19 0 0 0
20 0 0 0
21 1 1 1
22 0 0 0
23 0 0 0
24 0 0 0
25 0 0 0
26 1 1 1
27 0 0 0
28 0 0 0
29 0 0 0
30 0 0 0
31 1 1 1
32 0 0 0
33 0 0 0
34 0 0 0
35 0 0 0
36 1 1 1
37 0 0 0
38 0 0 0
39 0 0 0
40 0 0 0
$EndNodeData
$ElementData
1
"CrossSectionArea"
1
0
3
0
1
88
1 0.0013731747704246833
2 0.0013731747704246833
3 0.0013731747704246833
4 0.0013731747704246833
5 0.0013731747704246833
6 0.0013731747704246833
7 0.0013731747704246833
8 0.0013731747704246833
9 0.00029369911184307746
10 0.00029369911184307746
11 0.00029369911184307746
12 0.00029369911184307746
13 0.00029369911184307746
14 0.00029369911184307746
15 0.00029369911184307746
16 0.00029369911184307746
17 0.0013731747704246833
18 0.0013731747704246833
19 0.0013731747704246833
20 0.0013731747704246833
21 0.0013731747704246833
22 0.0013731747704246833
23 0.0013731747704246833
24 0.0013731747704246833
25 0.00029369911184307746
26 0.00029369911184307746
27 0.00029369911184307746
28 0.00029369911184307746
29 0.00029369911184307746
30 0.00029369911184307746
31 0.00029369911184307746
32 0.00029369911184307746
33 0.0013731747704246833
34 0.0013731747704246833
35 0.0013731747704246833
36 0.0013731747704246833
37 0.0013731747704246833
38 0.0013731747704246833
39 0.0013731747704246833
40 0.0013731747704246833
41 0.00029369911184307746
42 0.00029369911184307746
43 0.00029369911184307746
44 0.00029369911184307746
45 0.00029369911184307746
46 0.00029369911184307746
47 0.00029369911184307746
48 0.00029369911184307746
49 0.0013731747704246833
50 0.0013731747704246833
51 0.0013731747704246833
52 0.0013731747704246833
53 0.0013731747704246833
54 0.0013731747704246833
55 0.0013731747704246833
56 0.0013731747704246833
57 0.00029369911184307746
58 0.00029369911184307746
59 0.00029369911184307746
60 0.00029369911184307746
61 0.00029369911184307746
62 0.00029369911184307746
63 0.00029369911184307746
64 0.00029369911184307746
65 0.0013347964473723111
66 0.0013347964473723111
67 0.0013347964473723111
68 0.0013347964473723111
69 0.0013347964473723111
70 0.0013347964473723111
71 0.0013347964473723111
72 0.0013347964473723111
73 0.0013347964473723111
74 0.0013347964473723111
75 0.0013347964473723111
76 0.0013347964473723111
77 0.0013347964473723111
78 0.0013347964473723111
79 0.0013347964473723111
80 0.0013347964473723111
81 0.0013347964473723111
82 0.0013347964473723111
83 0.0013347964473723111
84 0.0013347964473723111
85 0.0013347964473723111
86 0.0013347964473723111
87 0.0013347964473723111
88 0.0013347964473723111
$EndElementData
$ElementData
1
"Attribute:ElementFormulation"
1
0
3
0
1
88
1 1
2 1
3 1
4 1
5 1
6 1
7 1
8 1
9 1
10 1
11 1
12 1
13 1
14 1
15 1
16 1
17 1
18 1
19 1
20 1
21 1
22 1
23 1
24 1
25 1
26 1
27 1
28 1
29 1
30 1
31 1
32 1
33 1
34 1
35 1
36 1
37 1
38 1
39 1
40 1
41 1
42 1
43 1
44 1
45 1
46 1
47 1
48 1
49 1
50 1
51 1
52 1
53 1
54 1
55 1
56 1
57 1
58 1
59 1
60 1
61 1
62 1
63 1
64 1
65 1
66 1
67 1
68 1
69 1
70 1
71 1
72 1
73 1
74 1
75 1
76 1
77 1
78 1
79 1
80 1
81 1
82 1
83 1
84 1
85 1
86 1
87 1
88 1
$EndElementData
$ElementData
1
"MaterialID"
1
0
3
0
1
88
1 3
2 3
3 3
4 3
5 3
6 3
7 3
8 3
9 3
10 3
11 3
12 3
13 3
14 3
15 3
16 3
17 3
18 3
19 3
20 3
21 3
22 3
23 3
24 3
25 3
26 3
27 3
28 3
29 3
30 3
31 3
32 3
33 3
34 3
35 3
36 3
37 3
38 3
39 3
40 3
41 3
42 3
43 3
44 3
45 3
46 3
47 3
48 3
49 3
50 3
51 3
52 3
53 3
54 3
55 3
56 3
57 3
58 3
59 3
60 3
61 3
62 3
63 3
64 3
65 3
66 3
67 3
68 3
69 3
70 3
71 3
72 3
73 3
74 3
75 3
76 3
77 3
78 3
79 3
80 3
81 3
82 3
83 3
84 3
85 3
86 3
87 3
88 3
$EndElementData
$ElementData
1
"Attribute:SecondMomentY"
1
0
3
0
1
88
1 5.429728085444136e-07
2 5.429728085444136e-07
3 5.429728085444136e-07
4 5.429728085444136e-07
5 5.429728085444136e-07
6 5.429728085444136e-07
7 5.429728085444136e-07
8 5.429728085444136e-07
9 6.940213485770978e-08
10 6.940213485770978e-08
11 6.940213485770978e-08
12 6.940213485770978e-08
13 6.940213485770978e-08
14 6.940213485770978e-08
15 6.940213485770978e-08
16 6.940213485770978e-08
17 5.429728085444136e-07
18 5.429728085444136e-07
19 5.429728085444136e-07
20 5.429728085444136e-07
21 5.429728085444136e-07
22 5.429728085444136e-07
23 5.429728085444136e-07
24 5.429728085444136e-07
25 6.940213485770978e-08
26 6.940213485770978e-08
27 6.940213485770978e-08
28 6.940213485770978e-08
29 6.940213485770978e-08
30 6.940213485770978e-08
31 6.940213485770978e-08
32 6.940213485770978e-08
33 5.429728085444136e-07
34 5.429728085444136e-07
35 5.429728085444136e-07
36 5.429728085444136e-07
37 5.429728085444136e-07
38 5.429728085444136e-07
39 5.429728085444136e-07
40 5.429728085444136e-07
41 6.940213485770978e-08
42 6.940213485770978e-08
43 6.940213485770978e-08
44 6.940213485770978e-08
45 6.940213485770978e-08
46 6.940213485770978e-08
47 6.940213485770978e-08
48 6.940213485770978e-08
49 5.429728085444136e-07
50 5.429728085444136e-07
51 5.429728085444136e-07
52 5.429728085444136e-07
53 5.429728085444136e-07
54 5.429728085444136e-07
55 5.429728085444136e-07
56 5.429728085444136e-07
57 6.940213485770978e-08
58 6.940213485770978e-08
59 6.940213485770978e-08
60 6.940213485770978e-08
61 6.940213485770978e-08
62 6.940213485770978e-08
63 6.940213485770978e-08
64 6.940213485770978e-08
65 8.124707428089777e-07
66 8.124707428089777e-07
67 8.124707428089777e-07
68 8.124707428089777e-07
69 8.124707428089777e-07
70 8.124707428089777e-07
71 8.124707428089777e-07
72 8.124707428089777e-07
73 8.124707428089777e-07
74 8.124707428089777e-07
75 8.124707428089777e-07
76 8.124707428089777e-07
77 8.124707428089777e-07
78 8.124707428089777e-07
79 8.124707428089777e-07
80 8.124707428089777e-07
81 8.124707428089777e-07
82 8.124707428089777e-07
83 8.124707428089777e-07
84 8.124707428089777e-07
85 8.124707428089777e-07
86 8.124707428089777e-07
87 8.124707428089777e-07
88 8.124707428089777e-07
$EndElementData
$ElementData
1
"Attribute:SecondMomentZ"
1
0
3
0
1
88
1 1.6651566078905721e-06
2 1.6651566078905721e-06
3 1.6651566078905721e-06
4 1.6651566078905721e-06
5 1.6651566078905721e-06
6 1.6651566078905721e-06
7 1.6651566078905721e-06
8 1.6651566078905721e-06
9 6.940213485770978e-08
10 6.940213485770978e-08
11 6.940213485770978e-08
12 6.940213485770978e-08
13 6.940213485770978e-08
14 6.940213485770978e-08
15 6.940213485770978e-08
16 6.940213485770978e-08
17 1.6651566078905721e-06
18 1.6651566078905721e-06
19 1.6651566078905721e-06
20 1.6651566078905721e-06
21 1.6651566078905721e-06
22 1.6651566078905721e-06
23 1.6651566078905721e-06
24 1.6651566078905721e-06
25 6.940213485770978e-08
26 6.940213485770978e-08
27 6.940213485770978e-08
28 6.940213485770978e-08
29 6.940213485770978e-08
30 6.940213485770978e-08
31 6.940213485770978e-08
32 6.940213485770978e-08
33 1.6651566078905721e-06
34 1.6651566078905721e-06
35 1.6651566078905721e-06
36 1.6651566078905721e-06
37 1.6651566078905721e-06
38 1.6651566078905721e-06
39 1.6651566078905721e-06
40 1.6651566078905721e-06
41 6.940213485770978e-08
42 6.940213485770978e-08
43 6.940213485770978e-08
44 6.940213485770978e-08
45 6.940213485770978e-08
46 6.940213485770978e-08
47 6.940213485770978e-08
48 6.940213485770978e-08
49 1.6651566078905721e-06
50 1.6651566078905721e-06
51 1.6651566078905721e-06
52 1.6651566078905721e-06
53 1.6651566078905721e-06
54 1.6651566078905721e-06
55 1.6651566078905721e-06
56 1.6651566078905721e-06
57 6.940213485770978e-08
58 6.940213485770978e-08
59 6.940213485770978e-08
60 6.940213485770978e-08
61 6.940213485770978e-08
62 6.940213485770978e-08
63 6.940213485770978e-08
64 6.940213485770978e-08
65 2.40739885597551e-06
66 2.40739885597551e-06
67 2.40739885597551e-06
68 2.40739885597551e-06
69 2.40739885597551e-06
70 2.40739885597551e-06
71 2.40739885597551e-06
72 2.40739885597551e-06
73 2.40739885597551e-06
74 2.40739885597551e-06
75 2.40739885597551e-06
76 2.40739885597551e-06
77 2.40739885597551e-06
78 2.40739885597551e-06
79 2.40739885597551e-06
80 2.40739885597551e-06
81 2.40739885597551e-06
82 2.40739885597551e-06
83 2.40739885597551e-06
84 2.40739885597551e-06
85 2.40739885597551e-06
86 2.40739885597551e-06
87 2.40739885597551e-06
88 2.40739885597551e-06
$EndElementData
$ElementData
1
"Attribute:SectionDimension1"
1
0
3
0
1
88
1 0.1
2 0.1
3 0.1
4 0.1
5 0.1
6 0.1
7 0.1
8 0.1
9 0.04
10 0.04
11 0.04
12 0.04
13 0.04
14 0.04
15 0.04
16 0.04
17 0.1
18 0.1
19 0.1
20 0.1
21 0.1
22 0.1
23 0.1
24 0.1
25 0.04
26 0.04
27 0.04
28 0.04
29 0.04
30 0.04
31 0.04
32 0.04
33 0.1
34 0.1
35 0.1
36 0.1
37 0.1
38 0.1
39 0.1
40 0.1
41 0.04
42 0.04
43 0.04
44 0.04
45 0.04
46 0.04
47 0.04
48 0.04
49 0.1
50 0.1
51 0.1
52 0.1
53 0.1
54 0.1
55 0.1
56 0.1
57 0.04
58 0.04
59 0.04
60 0.04
61 0.04
62 0.04
63 0.04
64 0.04
65 0.12
66 0.12
67 0.12
68 0.12
69 0.12
70 0.12
71 0.12
72 0.12
73 0.12
74 0.12
75 0.12
76 0.12
77 0.12
78 0.12
79 0.12
80 0.12
81 0.12
82 0.12
83 0.12
84 0.12
85 0.12
86 0.12
87 0.12
88 0.12
$EndElementData
$ElementData
1
"Attribute:SectionDimension2"
1
0
3
0
1
88
1 0.05
2 0.05
3 0.05
4 0.05
5 0.05
6 0.05
7 0.05
8 0.05
9 0.04
10 0.04
11 0.04
12 0.04
13 0.04
14 0.04
15 0.04
16 0.04
17 0.05
18 0.05
19 0.05
20 0.05
21 0.05
22 0.05
23 0.05
24 0.05
25 0.04
26 0.04
27 0.04
28 0.04
29 0.04
30 0.04
31 0.04
32 0.04
33 0.05
34 0.05
35 0.05
36 0.05
37 0.05
38 0.05
39 0.05
40 0.05
41 0.04
42 0.04
43 0.04
44 0.04
45 0.04
46 0.04
47 0.04
48 0.04
49 0.05
50 0.05
51 0.05
52 0.05
53 0.05
54 0.05
55 0.05
56 0.05
57 0.04
58 0.04
59 0.04
60 0.04
61 0.04
62 0.04
63 0.04
64 0.04
65 0.06
66 0.06
67 0.06
68 0.06
69 0.06
70 0.06
71 0.06
72 0.06
73 0.06
74 0.06
75 0.06
76 0.06
77 0.06
78 0.06
79 0.06
80 0.06
81 0.06
82 0.06
83 0.06
84 0.06
85 0.06
86 0.06
87 0.06
88 0.06
$EndElementData
$ElementData
1
"Attribute:SectionDimension3"
1
0
3
0
1
88
1 0.005
2 0.005
3 0.005
4 0.005
5 0.005
6 0.005
7 0.005
8 0.005
9 0.002
10 0.002
11 0.002
12 0.002
13 0.002
14 0.002
15 0.002
16 0.002
17 0.005
18 0.005
19 0.005
20 0.005
21 0.005
22 0.005
23 0.005
24 0.005
25 0.002
26 0.002
27 0.002
28 0.002
29 0.002
30 0.002
31 0.002
32 0.002
33 0.005
34 0.005
35 0.005
36 0.005
37 0.005
38 0.005
39 0.005
40 0.005
41 0.002
42 0.002
43 0.002
44 0.002
45 0.002
46 0.002
47 0.002
48 0.002
49 0.005
50 0.005
51 0.005
52 0.005
53 0.005
54 0.005
55 0.005
56 0.005
57 0.002
58 0.002
59 0.002
60 0.002
61 0.002
62 0.002
63 0.002
64 0.002
65 0.004
66 0.004
67 0.004
68 0.004
69 0.004
70 0.004
71 0.004
72 0.004
73 0.004
74 0.004
75 0.004
76 0.004
77 0.004
78 0.004
79 0.004
80 0.004
81 0.004
82 0.004
83 0.004
84 0.004
85 0.004
86 0.004
87 0.004
88 0.004
$EndElementData
$ElementData
1
"Attribute:SectionDimension4"
1
0
3
0
1
88
1 0.0075
2 0.0075
3 0.0075
4 0.0075
5 0.0075
6 0.0075
7 0.0075
8 0.0075
9 0.004
10 0.004
11 0.004
12 0.004
13 0.004
14 0.004
15 0.004
16 0.004
17 0.0075
18 0.0075
19 0.0075
20 0.0075
21 0.0075
22 0.0075
23 0.0075
24 0.0075
25 0.004
26 0.004
27 0.004
28 0.004
29 0.004
30 0.004
31 0.004
32 0.004
33 0.0075
34 0.0075
35 0.0075
36 0.0075
37 0.0075
38 0.0075
39 0.0075
40 0.0075
41 0.004
42 0.004
43 0.004
44 0.004
45 0.004
46 0.004
47 0.004
48 0.004
49 0.0075
50 0.0075
51 0.0075
52 0.0075
53 0.0075
54 0.0075
55 0.0075
56 0.0075
57 0.004
58 0.004
59 0.004
60 0.004
61 0.004
62 0.004
63 0.004
64 0.004
65 0.008
66 0.008
67 0.008
68 0.008
69 0.008
70 0.008
71 0.008
72 0.008
73 0.008
74 0.008
75 0.008
76 0.008
77 0.008
78 0.008
79 0.008
80 0.008
81 0.008
82 0.008
83 0.008
84 0.008
85 0.008
86 0.008
87 0.008
88 0.008
$EndElementData
$ElementData
1
"Attribute:SectionDimension5"
1
0
3
0
1
88
1 0.005
2 0.005
3 0.005
4 0.005
5 0.005
6 0.005
7 0.005
8 0.005
9 0.002
10 0.002
11 0.002
12 0.002
13 0.002
14 0.002
15 0.002
16 0.002
17 0.005
18 0.005
19 0.005
20 0.005
21 0.005
22 0.005
23 0.005
24 0.005
25 0.002
26 0.002
27 0.002
28 0.002
29 0.002
30 0.002
31 0.002
32 0.002
33 0.005
34 0.005
35 0.005
36 0.005
37 0.005
38 0.005
39 0.005
40 0.005
41 0.002
42 0.002
43 0.002
44 0.002
45 0.002
46 0.002
47 0.002
48 0.002
49 0.005
50 0.005
51 0.005
52 0.005
53 0.005
54 0.005
55 0.005
56 0.005
57 0.002
58 0.002
59 0.002
60 0.002
61 0.002
62 0.002
63 0.002
64 0.002
65 0.004
66 0.004
67 0.004
68 0.004
69 0.004
70 0.004
71 0.004
72 0.004
73 0.004
74 0.004
75 0.004
76 0.004
77 0.004
78 0.004
79 0.004
80 0.004
81 0.004
82 0.004
83 0.004
84 0.004
85 0.004
86 0.004
87 0.004
88 0.004
$EndElementData
$ElementData
1
"Attribute:SectionShape"
1
0
3
0
1
88
1 4
2 4
3 4
4 4
5 4
6 4
7 4
8 4
9 4
10 4
11 4
12 4
13 4
14 4
15 4
16 4
17 4
18 4
19 4
20 4
21 4
22 4
23 4
24 4
25 4
26 4
27 4
28 4
29 4
30 4
31 4
32 4
33 4
34 4
35 4
36 4
37 4
38 4
39 4
40 4
41 4
42 4
43 4
44 4
45 4
46 4
47 4
48 4
49 4
50 4
51 4
52 4
53 4
54 4
55 4
56 4
57 4
58 4
59 4
60 4
61 4
62 4
63 4
64 4
65 4
66 4
67 4
68 4
69 4
70 4
71 4
72 4
73 4
74 4
75 4
76 4
77 4
78 4
79 4
80 4
81 4
82 4
83 4
84 4
85 4
86 4
87 4
88 4
$EndElementData
$ElementData
1
"Attribute:ShearAreaY"
1
0
3
0
1
88
1 0.0008794283120705842
2 0.0008794283120705842
3 0.0008794283120705842
4 0.0008794283120705842
5 0.0008794283120705842
6 0.0008794283120705842
7 0.0008794283120705842
8 0.0008794283120705842
9 0.00012790916093668363
10 0.00012790916093668363
11 0.00012790916093668363
12 0.00012790916093668363
13 0.00012790916093668363
14 0.00012790916093668363
15 0.00012790916093668363
16 0.00012790916093668363
17 0.0008794283120705842
18 0.0008794283120705842
19 0.0008794283120705842
20 0.0008794283120705842
21 0.0008794283120705842
22 0.0008794283120705842
23 0.0008794283120705842
24 0.0008794283120705842
25 0.00012790916093668363
26 0.00012790916093668363
27 0.00012790916093668363
28 0.00012790916093668363
29 0.00012790916093668363
30 0.00012790916093668363
31 0.00012790916093668363
32 0.00012790916093668363
33 0.0008794283120705842
34 0.0008794283120705842
35 0.0008794283120705842
36 0.0008794283120705842
37 0.0008794283120705842
38 0.0008794283120705842
39 0.0008794283120705842
40 0.0008794283120705842
41 0.00012790916093668363
42 0.00012790916093668363
43 0.00012790916093668363
44 0.00012790916093668363
45 0.00012790916093668363
46 0.00012790916093668363
47 0.00012790916093668363
48 0.00012790916093668363
49 0.0008794283120705842
50 0.0008794283120705842
51 0.0008794283120705842
52 0.0008794283120705842
53 0.0008794283120705842
54 0.0008794283120705842
55 0.0008794283120705842
56 0.0008794283120705842
57 0.00012790916093668363
58 0.00012790916093668363
59 0.00012790916093668363
60 0.00012790916093668363
61 0.00012790916093668363
62 0.00012790916093668363
63 0.00012790916093668363
64 0.00012790916093668363
65 0.0008489283664454384
66 0.0008489283664454384
67 0.0008489283664454384
68 0.0008489283664454384
69 0.0008489283664454384
70 0.0008489283664454384
71 0.0008489283664454384
72 0.0008489283664454384
73 0.0008489283664454384
74 0.0008489283664454384
75 0.0008489283664454384
76 0.0008489283664454384
77 0.0008489283664454384
78 0.0008489283664454384
79 0.0008489283664454384
80 0.0008489283664454384
81 0.0008489283664454384
82 0.0008489283664454384
83 0.0008489283664454384
84 0.0008489283664454384
85 0.0008489283664454384
86 0.0008489283664454384
87 0.0008489283664454384
88 0.0008489283664454384
$EndElementData
$ElementData
1
"Attribute:ShearAreaZ"
1
0
3
0
1
88
1 0.0003131810890662662
2 0.0003131810890662662
3 0.0003131810890662662
4 0.0003131810890662662
5 0.0003131810890662662
6 0.0003131810890662662
7 0.0003131810890662662
8 0.0003131810890662662
9 0.00012790916093668363
10 0.00012790916093668363
11 0.00012790916093668363
12 0.00012790916093668363
13 0.00012790916093668363
14 0.00012790916093668363
15 0.00012790916093668363
16 0.00012790916093668363
17 0.0003131810890662662
18 0.0003131810890662662
19 0.0003131810890662662
20 0.0003131810890662662
21 0.0003131810890662662
22 0.0003131810890662662
23 0.0003131810890662662
24 0.0003131810890662662
25 0.00012790916093668363
26 0.00012790916093668363
27 0.00012790916093668363
28 0.00012790916093668363
29 0.00012790916093668363
30 0.00012790916093668363
31 0.00012790916093668363
32 0.00012790916093668363
33 0.0003131810890662662
34 0.0003131810890662662
35 0.0003131810890662662
36 0.0003131810890662662
37 0.0003131810890662662
38 0.0003131810890662662
39 0.0003131810890662662
40 0.0003131810890662662
41 0.00012790916093668363
42 0.00012790916093668363
43 0.00012790916093668363
44 0.00012790916093668363
45 0.00012790916093668363
46 0.00012790916093668363
47 0.00012790916093668363
48 0.00012790916093668363
49 0.0003131810890662662
50 0.0003131810890662662
51 0.0003131810890662662
52 0.0003131810890662662
53 0.0003131810890662662
54 0.0003131810890662662
55 0.0003131810890662662
56 0.0003131810890662662
57 0.00012790916093668363
58 0.00012790916093668363
59 0.00012790916093668363
60 0.00012790916093668363
61 0.00012790916093668363
62 0.00012790916093668363
63 0.00012790916093668363
64 0.00012790916093668363
65 0.0003105200387595582
66 0.0003105200387595582
67 0.0003105200387595582
68 0.0003105200387595582
69 0.0003105200387595582
70 0.0003105200387595582
71 0.0003105200387595582
72 0.0003105200387595582
73 0.0003105200387595582
74 0.0003105200387595582
75 0.0003105200387595582
76 0.0003105200387595582
77 0.0003105200387595582
78 0.0003105200387595582
79 0.0003105200387595582
80 0.0003105200387595582
81 0.0003105200387595582
82 0.0003105200387595582
83 0.0003105200387595582
84 0.0003105200387595582
85 0.0003105200387595582
86 0.0003105200387595582
87 0.0003105200387595582
88 0.0003105200387595582
$EndElementData
$ElementData
1
"Attribute:TorsionConstant"
1
0
3
0
1
88
1 1.3474293955356876e-06
2 1.3474293955356876e-06
3 1.3474293955356876e-06
4 1.3474293955356876e-06
5 1.3474293955356876e-06
6 1.3474293955356876e-06
7 1.3474293955356876e-06
8 1.3474293955356876e-06
9 1.1277240646474328e-07
10 1.1277240646474328e-07
11 1.1277240646474328e-07
12 1.1277240646474328e-07
13 1.1277240646474328e-07
14 1.1277240646474328e-07
15 1.1277240646474328e-07
16 1.1277240646474328e-07
17 1.3474293955356876e-06
18 1.3474293955356876e-06
19 1.3474293955356876e-06
20 1.3474293955356876e-06
21 1.3474293955356876e-06
22 1.3474293955356876e-06
23 1.3474293955356876e-06
24 1.3474293955356876e-06
25 1.1277240646474328e-07
26 1.1277240646474328e-07
27 1.1277240646474328e-07
28 1.1277240646474328e-07
29 1.1277240646474328e-07
30 1.1277240646474328e-07
31 1.1277240646474328e-07
32 1.1277240646474328e-07
33 1.3474293955356876e-06
34 1.3474293955356876e-06
35 1.3474293955356876e-06
36 1.3474293955356876e-06
37 1.3474293955356876e-06
38 1.3474293955356876e-06
39 1.3474293955356876e-06
40 1.3474293955356876e-06
41 1.1277240646474328e-07
42 1.1277240646474328e-07
43 1.1277240646474328e-07
44 1.1277240646474328e-07
45 1.1277240646474328e-07
46 1.1277240646474328e-07
47 1.1277240646474328e-07
48 1.1277240646474328e-07
49 1.3474293955356876e-06
50 1.3474293955356876e-06
51 1.3474293955356876e-06
52 1.3474293955356876e-06
53 1.3474293955356876e-06
54 1.3474293955356876e-06
55 1.3474293955356876e-06
56 1.3474293955356876e-06
57 1.1277240646474328e-07
58 1.1277240646474328e-07
59 1.1277240646474328e-07
60 1.1277240646474328e-07
61 1.1277240646474328e-07
62 1.1277240646474328e-07
63 1.1277240646474328e-07
64 1.1277240646474328e-07
65 2.0111989769075784e-06
66 2.0111989769075784e-06
67 2.0111989769075784e-06
68 2.0111989769075784e-06
69 2.0111989769075784e-06
70 2.0111989769075784e-06
71 2.0111989769075784e-06
72 2.0111989769075784e-06
73 2.0111989769075784e-06
74 2.0111989769075784e-06
75 2.0111989769075784e-06
76 2.0111989769075784e-06
77 2.0111989769075784e-06
78 2.0111989769075784e-06
79 2.0111989769075784e-06
80 2.0111989769075784e-06
81 2.0111989769075784e-06
82 2.0111989769075784e-06
83 2.0111989769075784e-06
84 2.0111989769075784e-06
85 2.0111989769075784e-06
86 2.0111989769075784e-06
87 2.0111989769075784e-06
88 2.0111989769075784e-06
$EndElementData
$ElementData
1
"Attribute:UniformLoadGlobalX"
1
0
3
0
1
88
1 0
2 0
3 0
4 0
5 0
6 0
7 0
8 0
9 0
10 0
11 0
12 0
13 0
14 0
15 0
16 0
17 0
18 0
19 0
20 0
21 0
22 0
23 0
24 0
25 0
26 0
27 0
28 0
29 0
30 0
31 0
32 0
33 0
34 0
35 0
36 0
37 0
38 0
39 0
40 0
41 0
42 0
43 0
44 0
45 0
46 0
47 0
48 0
49 0
50 0
51 0
52 0
53 0
54 0
55 0
56 0
57 0
58 0
59 0
60 0
61 0
62 0
63 0
64 0
65 0
66 0
67 0
68 0
69 0
70 0
71 0
72 0
73 0
74 0
75 0
76 0
77 0
78 0
79 0
80 0
81 0
82 0
83 0
84 0
85 0
86 0
87 0
88 0
$EndElementData
$ElementData
1
"Attribute:UniformLoadGlobalY"
1
0
3
0
1
88
1 0
2 0
3 0
4 0
5 0
6 0
7 0
8 0
9 0
10 0
11 0
12 0
13 0
14 0
15 0
16 0
17 0
18 0
19 0
20 0
21 0
22 0
23 0
24 0
25 0
26 0
27 0
28 0
29 0
30 0
31 0
32 0
33 0
34 0
35 0
36 0
37 0
38 0
39 0
40 0
41 0
42 0
43 0
44 0
45 0
46 0
47 0
48 0
49 0
50 0
51 0
52 0
53 0
54 0
55 0
56 0
57 0
58 0
59 0
60 0
61 0
62 0
63 0
64 0
65 -3600
66 -3600
67 -3600
68 -3600
69 -3600
70 -3600
71 -3600
72 -3600
73 -3600
74 -3600
75 -3600
76 -3600
77 -3600
78 -3600
79 -3600
80 -3600
81 -3600
82 -3600
83 -3600
84 -3600
85 -3600
86 -3600
87 -3600
88 -3600
$EndElementData
$ElementData
1
"Attribute:UniformLoadGlobalZ"
1
0
3
0
1
88
1 0
2 0
3 0
4 0
5 0
6 0
7 0
8 0
9 0
10 0
11 0
12 0
13 0
14 0
15 0
16 0
17 0
18 0
19 0
20 0
21 0
22 0
23 0
24 0
25 0
26 0
27 0
28 0
29 0
30 0
31 0
32 0
33 0
34 0
35 0
36 0
37 0
38 0
39 0
40 0
41 0
42 0
43 0
44 0
45 0
46 0
47 0
48 0
49 0
50 0
51 0
52 0
53 0
54 0
55 0
56 0
57 0
58 0
59 0
60 0
61 0
62 0
63 0
64 0
65 0
66 0
67 0
68 0
69 0
70 0
71 0
72 0
73 0
74 0
75 0
76 0
77 0
78 0
79 0
80 0
81 0
82 0
83 0
84 0
85 0
86 0
87 0
88 0
$EndElementData
$ElementData
1
"Attribute:UniformLoadLocalX"
1
0
3
0
1
88
1 0
2 0
3 0
4 0
5 0
6 0
7 0
8 0
9 0
10 0
11 0
12 0
13 0
14 0
15 0
16 0
17 0
18 0
19 0
20 0
21 0
22 0
23 0
24 0
25 0
26 0
27 0
28 0
29 0
30 0
31 0
32 0
33 0
34 0
35 0
36 0
37 0
38 0
39 0
40 0
41 0
42 0
43 0
44 0
45 0
46 0
47 0
48 0
49 0
50 0
51 0
52 0
53 0
54 0
55 0
56 0
57 0
58 0
59 0
60 0
61 0
62 0
63 0
64 0
65 0
66 0
67 0
68 0
69 0
70 0
71 0
72 0
73 0
74 0
75 0
76 0
77 0
78 0
79 0
80 0
81 0
82 0
83 0
84 0
85 0
86 0
87 0
88 0
$EndElementData
$ElementData
1
"Attribute:UniformLoadLocalY"
1
0
3
0
1
88
1 0
2 0
3 0
4 0
5 0
6 0
7 0
8 0
9 0
10 0
11 0
12 0
13 0
14 0
15 0
16 0
17 0
18 0
19 0
20 0
21 0
22 0
23 0
24 0
25 0
26 0
27 0
28 0
29 0
30 0
31 0
32 0
33 0
34 0
35 0
36 0
37 0
38 0
39 0
40 0
41 0
42 0
43 0
44 0
45 0
46 0
47 0
48 0
49 0
50 0
51 0
52 0
53 0
54 0
55 0
56 0
57 0
58 0
59 0
60 0
61 0
62 0
63 0
64 0
65 0
66 0
67 0
68 0
69 0
70 0
71 0
72 0
73 0
74 0
75 0
76 0
77 0
78 0
79 0
80 0
81 0
82 0
83 0
84 0
85 0
86 0
87 0
88 0
$EndElementData
$ElementData
1
"Attribute:UniformLoadLocalZ"
1
0
3
0
1
88
1 0
2 0
3 0
4 0
5 0
6 0
7 0
8 0
9 0
10 0
11 0
12 0
13 0
14 0
15 0
16 0
17 0
18 0
19 0
20 0
21 0
22 0
23 0
24 0
25 0
26 0
27 0
28 0
29 0
30 0
31 0
32 0
33 0
34 0
35 0
36 0
37 0
38 0
39 0
40 0
41 0
42 0
43 0
44 0
45 0
46 0
47 0
48 0
49 0
50 0
51 0
52 0
53 0
54 0
55 0
56 0
57 0
58 0
59 0
60 0
61 0
62 0
63 0
64 0
65 0
66 0
67 0
68 0
69 0
70 0
71 0
72 0
73 0
74 0
75 0
76 0
77 0
78 0
79 0
80 0
81 0
82 0
83 0
84 0
85 0
86 0
87 0
88 0
$EndElementData
$ElementData
1
"BeamOrientation"
1
0
3
0
3
88
1 0 0 1
2 0 0 1
3 0 0 1
4 0 0 1
5 0 0 1
6 0 0 1
7 0 0 1
8 0 0 1
9 0 0 0
10 0 0 0
11 0 0 0
12 0 0 0
13 0 0 0
14 0 0 0
15 0 0 0
16 0 0 0
17 0 0 1
18 0 0 1
19 0 0 1
20 0 0 1
21 0 0 1
22 0 0 1
23 0 0 1
24 0 0 1
25 0 0 0
26 0 0 0
27 0 0 0
28 0 0 0
29 0 0 0
30 0 0 0
31 0 0 0
32 0 0 0
33 0 0 1
34 0 0 1
35 0 0 1
36 0 0 1
37 0 0 1
38 0 0 1
39 0 0 1
40 0 0 1
41 0 0 0
42 0 0 0
43 0 0 0
44 0 0 0
45 0 0 0
46 0 0 0
47 0 0 0
48 0 0 0
49 0 0 1
50 0 0 1
51 0 0 1
52 0 0 1
53 0 0 1
54 0 0 1
55 0 0 1
56 0 0 1
57 0 0 0
58 0 0 0
59 0 0 0
60 0 0 0
61 0 0 0
62 0 0 0
63 0 0 0
64 0 0 0
65 0 0 0
66 0 0 0
67 0 0 0
68 0 0 0
69 0 0 0
70 0 0 0
71 0 0 0
72 0 0 0
73 0 0 0
74 0 0 0
75 0 0 0
76 0 0 0
77 0 0 0
78 0 0 0
79 0 0 0
80 0 0 0
81 0 0 0
82 0 0 0
83 0 0 0
84 0 0 0
85 0 0 0
86 0 0 0
87 0 0 0
88 0 0 0
$EndElementData
$AnafData
1
1
GLOBAL 3 1
"Gravity"
0 -9.80665 0
$EndAnafData
