$MeshFormat
4.1 0 8
$EndMeshFormat
$PhysicalNames
2
1 1 "Material:Structural Steel S235 (EN 10025)"
1 2 "Section:CHS 48.3x3.2"
$EndPhysicalNames
$Entities
0 1 0 0
1 0 0 0 2.5 8 1.3 2 1 2 0
$EndEntities
$Nodes
1 20 1 20
1 1 0 20
1
2
3
4
5
6
7
8
9
10
11
12
13
14
15
16
17
18
19
20
0 0 0
0 2 0
0 4 0
0 6 0
0 8 0
2.5 0 0
2.5 2 0
2.5 4 0
2.5 6 0
2.5 8 0
2.5 0 1.3
2.5 2 1.3
2.5 4 1.3
2.5 6 1.3
2.5 8 1.3
0 0 1.3
0 2 1.3
0 4 1.3
0 6 1.3
0 8 1.3
$EndNodes
$Elements
1 48 1 48
1 1 1 48
1 1 2
2 2 3
3 3 4
4 4 5
5 6 7
6 7 8
7 8 9
8 9 10
9 11 12
10 12 13
11 13 14
12 14 15
13 16 17
14 17 18
15 18 19
16 19 20
17 2 7
18 7 12
19 12 17
20 17 2
21 3 8
22 8 13
23 13 18
24 18 3
25 4 9
26 9 14
27 14 19
28 19 4
29 5 10
30 10 15
31 15 20
32 20 5
33 1 7
34 16 12
35 6 12
36 2 16
37 3 7
38 18 12
39 7 13
40 3 17
41 3 9
42 18 14
43 8 14
44 4 18
45 5 9
46 20 14
47 9 15
48 5 19
$EndElements
$NodeData
1
"Fixity"
1
0
3
0
3
20
1 1 1 1
2 0 0 0
3 0 0 0
4 0 0 0
5 0 0 0
6 1 1 1
7 0 0 0
8 0 0 0
9 0 0 0
10 0 0 0
11 1 1 1
12 0 0 0
13 0 0 0
14 0 0 0
15 0 0 0
16 1 1 1
17 0 0 0
18 0 0 0
19 0 0 0
20 0 0 0
$EndNodeData
$NodeData
1
"FixityRotation"
1
0
3
0
3
20
1 1 1 1
2 0 0 0
3 0 0 0
4 0 0 0
5 0 0 0
6 1 1 1
7 0 0 0
8 0 0 0
9 0 0 0
10 0 0 0
11 1 1 1
12 0 0 0
13 0 0 0
14 0 0 0
15 0 0 0
16 1 1 1
17 0 0 0
18 0 0 0
19 0 0 0
20 0 0 0
$EndNodeData
$NodeData
1
"NodalForce"
1
0
3
0
3
20
1 0 0 0
2 0 0 0
3 0 0 0
4 0 0 0
5 0 -1500 0
6 0 0 0
7 0 0 0
8 0 0 0
9 0 0 0
10 0 -1500 0
11 0 0 0
12 0 0 0
13 0 0 0
14 0 0 0
15 0 -1500 0
16 0 0 0
17 0 0 0
18 0 0 0
19 0 0 0
20 0 -1500 0
$EndNodeData
$ElementData
1
"CrossSectionArea"
1
0
3
0
1
48
1 0.0004533946517660792
2 0.0004533946517660792
3 0.0004533946517660792
4 0.0004533946517660792
5 0.0004533946517660792
6 0.0004533946517660792
7 0.0004533946517660792
8 0.0004533946517660792
9 0.0004533946517660792
10 0.0004533946517660792
11 0.0004533946517660792
12 0.0004533946517660792
13 0.0004533946517660792
14 0.0004533946517660792
15 0.0004533946517660792
16 0.0004533946517660792
17 0.0004533946517660792
18 0.0004533946517660792
19 0.0004533946517660792
20 0.0004533946517660792
21 0.0004533946517660792
22 0.0004533946517660792
23 0.0004533946517660792
24 0.0004533946517660792
25 0.0004533946517660792
26 0.0004533946517660792
27 0.0004533946517660792
28 0.0004533946517660792
29 0.0004533946517660792
30 0.0004533946517660792
31 0.0004533946517660792
32 0.0004533946517660792
33 0.0004533946517660792
34 0.0004533946517660792
35 0.0004533946517660792
36 0.0004533946517660792
37 0.0004533946517660792
38 0.0004533946517660792
39 0.0004533946517660792
40 0.0004533946517660792
41 0.0004533946517660792
42 0.0004533946517660792
43 0.0004533946517660792
44 0.0004533946517660792
45 0.0004533946517660792
46 0.0004533946517660792
47 0.0004533946517660792
48 0.0004533946517660792
$EndElementData
$ElementData
1
"Attribute:ElementFormulation"
1
0
3
0
1
48
1 1
2 1
3 1
4 1
5 1
6 1
7 1
8 1
9 1
10 1
11 1
12 1
13 1
14 1
15 1
16 1
17 1
18 1
19 1
20 1
21 1
22 1
23 1
24 1
25 1
26 1
27 1
28 1
29 1
30 1
31 1
32 1
33 1
34 1
35 1
36 1
37 1
38 1
39 1
40 1
41 1
42 1
43 1
44 1
45 1
46 1
47 1
48 1
$EndElementData
$ElementData
1
"MaterialID"
1
0
3
0
1
48
1 2
2 2
3 2
4 2
5 2
6 2
7 2
8 2
9 2
10 2
11 2
12 2
13 2
14 2
15 2
16 2
17 2
18 2
19 2
20 2
21 2
22 2
23 2
24 2
25 2
26 2
27 2
28 2
29 2
30 2
31 2
32 2
33 2
34 2
35 2
36 2
37 2
38 2
39 2
40 2
41 2
42 2
43 2
44 2
45 2
46 2
47 2
48 2
$EndElementData
$ElementData
1
"Attribute:SecondMomentY"
1
0
3
0
1
48
1 1.1585650210910092e-07
2 1.1585650210910092e-07
3 1.1585650210910092e-07
4 1.1585650210910092e-07
5 1.1585650210910092e-07
6 1.1585650210910092e-07
7 1.1585650210910092e-07
8 1.1585650210910092e-07
9 1.1585650210910092e-07
10 1.1585650210910092e-07
11 1.1585650210910092e-07
12 1.1585650210910092e-07
13 1.1585650210910092e-07
14 1.1585650210910092e-07
15 1.1585650210910092e-07
16 1.1585650210910092e-07
17 1.1585650210910092e-07
18 1.1585650210910092e-07
19 1.1585650210910092e-07
20 1.1585650210910092e-07
21 1.1585650210910092e-07
22 1.1585650210910092e-07
23 1.1585650210910092e-07
24 1.1585650210910092e-07
25 1.1585650210910092e-07
26 1.1585650210910092e-07
27 1.1585650210910092e-07
28 1.1585650210910092e-07
29 1.1585650210910092e-07
30 1.1585650210910092e-07
31 1.1585650210910092e-07
32 1.1585650210910092e-07
33 1.1585650210910092e-07
34 1.1585650210910092e-07
35 1.1585650210910092e-07
36 1.1585650210910092e-07
37 1.1585650210910092e-07
38 1.1585650210910092e-07
39 1.1585650210910092e-07
40 1.1585650210910092e-07
41 1.1585650210910092e-07
42 1.1585650210910092e-07
43 1.1585650210910092e-07
44 1.1585650210910092e-07
45 1.1585650210910092e-07
46 1.1585650210910092e-07
47 1.1585650210910092e-07
48 1.1585650210910092e-07
$EndElementData
$ElementData
1
"Attribute:SecondMomentZ"
1
0
3
0
1
48
1 1.1585650210910092e-07
2 1.1585650210910092e-07
3 1.1585650210910092e-07
4 1.1585650210910092e-07
5 1.1585650210910092e-07
6 1.1585650210910092e-07
7 1.1585650210910092e-07
8 1.1585650210910092e-07
9 1.1585650210910092e-07
10 1.1585650210910092e-07
11 1.1585650210910092e-07
12 1.1585650210910092e-07
13 1.1585650210910092e-07
14 1.1585650210910092e-07
15 1.1585650210910092e-07
16 1.1585650210910092e-07
17 1.1585650210910092e-07
18 1.1585650210910092e-07
19 1.1585650210910092e-07
20 1.1585650210910092e-07
21 1.1585650210910092e-07
22 1.1585650210910092e-07
23 1.1585650210910092e-07
24 1.1585650210910092e-07
25 1.1585650210910092e-07
26 1.1585650210910092e-07
27 1.1585650210910092e-07
28 1.1585650210910092e-07
29 1.1585650210910092e-07
30 1.1585650210910092e-07
31 1.1585650210910092e-07
32 1.1585650210910092e-07
33 1.1585650210910092e-07
34 1.1585650210910092e-07
35 1.1585650210910092e-07
36 1.1585650210910092e-07
37 1.1585650210910092e-07
38 1.1585650210910092e-07
39 1.1585650210910092e-07
40 1.1585650210910092e-07
41 1.1585650210910092e-07
42 1.1585650210910092e-07
43 1.1585650210910092e-07
44 1.1585650210910092e-07
45 1.1585650210910092e-07
46 1.1585650210910092e-07
47 1.1585650210910092e-07
48 1.1585650210910092e-07
$EndElementData
$ElementData
1
"Attribute:SectionDimension1"
1
0
3
0
1
48
1 0.0483
2 0.0483
3 0.0483
4 0.0483
5 0.0483
6 0.0483
7 0.0483
8 0.0483
9 0.0483
10 0.0483
11 0.0483
12 0.0483
13 0.0483
14 0.0483
15 0.0483
16 0.0483
17 0.0483
18 0.0483
19 0.0483
20 0.0483
21 0.0483
22 0.0483
23 0.0483
24 0.0483
25 0.0483
26 0.0483
27 0.0483
28 0.0483
29 0.0483
30 0.0483
31 0.0483
32 0.0483
33 0.0483
34 0.0483
35 0.0483
36 0.0483
37 0.0483
38 0.0483
39 0.0483
40 0.0483
41 0.0483
42 0.0483
43 0.0483
44 0.0483
45 0.0483
46 0.0483
47 0.0483
48 0.0483
$EndElementData
$ElementData
1
"Attribute:SectionDimension2"
1
0
3
0
1
48
1 0.0032
2 0.0032
3 0.0032
4 0.0032
5 0.0032
6 0.0032
7 0.0032
8 0.0032
9 0.0032
10 0.0032
11 0.0032
12 0.0032
13 0.0032
14 0.0032
15 0.0032
16 0.0032
17 0.0032
18 0.0032
19 0.0032
20 0.0032
21 0.0032
22 0.0032
23 0.0032
24 0.0032
25 0.0032
26 0.0032
27 0.0032
28 0.0032
29 0.0032
30 0.0032
31 0.0032
32 0.0032
33 0.0032
34 0.0032
35 0.0032
36 0.0032
37 0.0032
38 0.0032
39 0.0032
40 0.0032
41 0.0032
42 0.0032
43 0.0032
44 0.0032
45 0.0032
46 0.0032
47 0.0032
48 0.0032
$EndElementData
$ElementData
1
"Attribute:SectionDimension3"
1
0
3
0
1
48
1 0
2 0
3 0
4 0
5 0
6 0
7 0
8 0
9 0
10 0
11 0
12 0
13 0
14 0
15 0
16 0
17 0
18 0
19 0
20 0
21 0
22 0
23 0
24 0
25 0
26 0
27 0
28 0
29 0
30 0
31 0
32 0
33 0
34 0
35 0
36 0
37 0
38 0
39 0
40 0
41 0
42 0
43 0
44 0
45 0
46 0
47 0
48 0
$EndElementData
$ElementData
1
"Attribute:SectionDimension4"
1
0
3
0
1
48
1 0
2 0
3 0
4 0
5 0
6 0
7 0
8 0
9 0
10 0
11 0
12 0
13 0
14 0
15 0
16 0
17 0
18 0
19 0
20 0
21 0
22 0
23 0
24 0
25 0
26 0
27 0
28 0
29 0
30 0
31 0
32 0
33 0
34 0
35 0
36 0
37 0
38 0
39 0
40 0
41 0
42 0
43 0
44 0
45 0
46 0
47 0
48 0
$EndElementData
$ElementData
1
"Attribute:SectionDimension5"
1
0
3
0
1
48
1 0
2 0
3 0
4 0
5 0
6 0
7 0
8 0
9 0
10 0
11 0
12 0
13 0
14 0
15 0
16 0
17 0
18 0
19 0
20 0
21 0
22 0
23 0
24 0
25 0
26 0
27 0
28 0
29 0
30 0
31 0
32 0
33 0
34 0
35 0
36 0
37 0
38 0
39 0
40 0
41 0
42 0
43 0
44 0
45 0
46 0
47 0
48 0
$EndElementData
$ElementData
1
"Attribute:SectionShape"
1
0
3
0
1
48
1 3
2 3
3 3
4 3
5 3
6 3
7 3
8 3
9 3
10 3
11 3
12 3
13 3
14 3
15 3
16 3
17 3
18 3
19 3
20 3
21 3
22 3
23 3
24 3
25 3
26 3
27 3
28 3
29 3
30 3
31 3
32 3
33 3
34 3
35 3
36 3
37 3
38 3
39 3
40 3
41 3
42 3
43 3
44 3
45 3
46 3
47 3
48 3
$EndElementData
$ElementData
1
"Attribute:ShearAreaY"
1
0
3
0
1
48
1 0.00024251729314391117
2 0.00024251729314391117
3 0.00024251729314391117
4 0.00024251729314391117
5 0.00024251729314391117
6 0.00024251729314391117
7 0.00024251729314391117
8 0.00024251729314391117
9 0.00024251729314391117
10 0.00024251729314391117
11 0.00024251729314391117
12 0.00024251729314391117
13 0.00024251729314391117
14 0.00024251729314391117
15 0.00024251729314391117
16 0.00024251729314391117
17 0.00024251729314391117
18 0.00024251729314391117
19 0.00024251729314391117
20 0.00024251729314391117
21 0.00024251729314391117
22 0.00024251729314391117
23 0.00024251729314391117
24 0.00024251729314391117
25 0.00024251729314391117
26 0.00024251729314391117
27 0.00024251729314391117
28 0.00024251729314391117
29 0.00024251729314391117
30 0.00024251729314391117
31 0.00024251729314391117
32 0.00024251729314391117
33 0.00024251729314391117
34 0.00024251729314391117
35 0.00024251729314391117
36 0.00024251729314391117
37 0.00024251729314391117
38 0.00024251729314391117
39 0.00024251729314391117
40 0.00024251729314391117
41 0.00024251729314391117
42 0.00024251729314391117
43 0.00024251729314391117
44 0.00024251729314391117
45 0.00024251729314391117
46 0.00024251729314391117
47 0.00024251729314391117
48 0.00024251729314391117
$EndElementData
$ElementData
1
"Attribute:ShearAreaZ"
1
0
3
0
1
48
1 0.00024251729314391117
2 0.00024251729314391117
3 0.00024251729314391117
4 0.00024251729314391117
5 0.00024251729314391117
6 0.00024251729314391117
7 0.00024251729314391117
8 0.00024251729314391117
9 0.00024251729314391117
10 0.00024251729314391117
11 0.00024251729314391117
12 0.00024251729314391117
13 0.00024251729314391117
14 0.00024251729314391117
15 0.00024251729314391117
16 0.00024251729314391117
17 0.00024251729314391117
18 0.00024251729314391117
19 0.00024251729314391117
20 0.00024251729314391117
21 0.00024251729314391117
22 0.00024251729314391117
23 0.00024251729314391117
24 0.00024251729314391117
25 0.00024251729314391117
26 0.00024251729314391117
27 0.00024251729314391117
28 0.00024251729314391117
29 0.00024251729314391117
30 0.00024251729314391117
31 0.00024251729314391117
32 0.00024251729314391117
33 0.00024251729314391117
34 0.00024251729314391117
35 0.00024251729314391117
36 0.00024251729314391117
37 0.00024251729314391117
38 0.00024251729314391117
39 0.00024251729314391117
40 0.00024251729314391117
41 0.00024251729314391117
42 0.00024251729314391117
43 0.00024251729314391117
44 0.00024251729314391117
45 0.00024251729314391117
46 0.00024251729314391117
47 0.00024251729314391117
48 0.00024251729314391117
$EndElementData
$ElementData
1
"Attribute:TorsionConstant"
1
0
3
0
1
48
1 2.3171300421820185e-07
2 2.3171300421820185e-07
3 2.3171300421820185e-07
4 2.3171300421820185e-07
5 2.3171300421820185e-07
6 2.3171300421820185e-07
7 2.3171300421820185e-07
8 2.3171300421820185e-07
9 2.3171300421820185e-07
10 2.3171300421820185e-07
11 2.3171300421820185e-07
12 2.3171300421820185e-07
13 2.3171300421820185e-07
14 2.3171300421820185e-07
15 2.3171300421820185e-07
16 2.3171300421820185e-07
17 2.3171300421820185e-07
18 2.3171300421820185e-07
19 2.3171300421820185e-07
20 2.3171300421820185e-07
21 2.3171300421820185e-07
22 2.3171300421820185e-07
23 2.3171300421820185e-07
24 2.3171300421820185e-07
25 2.3171300421820185e-07
26 2.3171300421820185e-07
27 2.3171300421820185e-07
28 2.3171300421820185e-07
29 2.3171300421820185e-07
30 2.3171300421820185e-07
31 2.3171300421820185e-07
32 2.3171300421820185e-07
33 2.3171300421820185e-07
34 2.3171300421820185e-07
35 2.3171300421820185e-07
36 2.3171300421820185e-07
37 2.3171300421820185e-07
38 2.3171300421820185e-07
39 2.3171300421820185e-07
40 2.3171300421820185e-07
41 2.3171300421820185e-07
42 2.3171300421820185e-07
43 2.3171300421820185e-07
44 2.3171300421820185e-07
45 2.3171300421820185e-07
46 2.3171300421820185e-07
47 2.3171300421820185e-07
48 2.3171300421820185e-07
$EndElementData
$ElementData
1
"Attribute:UniformLoadGlobalX"
1
0
3
0
1
48
1 0
2 0
3 0
4 0
5 0
6 0
7 0
8 0
9 0
10 0
11 0
12 0
13 0
14 0
15 0
16 0
17 0
18 0
19 0
20 0
21 0
22 0
23 0
24 0
25 0
26 0
27 0
28 0
29 0
30 0
31 0
32 0
33 0
34 0
35 0
36 0
37 0
38 0
39 0
40 0
41 0
42 0
43 0
44 0
45 0
46 0
47 0
48 0
$EndElementData
$ElementData
1
"Attribute:UniformLoadGlobalY"
1
0
3
0
1
48
1 0
2 0
3 0
4 0
5 0
6 0
7 0
8 0
9 0
10 0
11 0
12 0
13 0
14 0
15 0
16 0
17 0
18 0
19 0
20 0
21 0
22 0
23 0
24 0
25 0
26 0
27 0
28 0
29 0
30 0
31 0
32 0
33 0
34 0
35 0
36 0
37 0
38 0
39 0
40 0
41 0
42 0
43 0
44 0
45 0
46 0
47 0
48 0
$EndElementData
$ElementData
1
"Attribute:UniformLoadGlobalZ"
1
0
3
0
1
48
1 0
2 0
3 0
4 0
5 0
6 0
7 0
8 0
9 0
10 0
11 0
12 0
13 0
14 0
15 0
16 0
17 0
18 0
19 0
20 0
21 0
22 0
23 0
24 0
25 0
26 0
27 0
28 0
29 0
30 0
31 0
32 0
33 0
34 0
35 0
36 0
37 0
38 0
39 0
40 0
41 0
42 0
43 0
44 0
45 0
46 0
47 0
48 0
$EndElementData
$ElementData
1
"Attribute:UniformLoadLocalX"
1
0
3
0
1
48
1 0
2 0
3 0
4 0
5 0
6 0
7 0
8 0
9 0
10 0
11 0
12 0
13 0
14 0
15 0
16 0
17 0
18 0
19 0
20 0
21 0
22 0
23 0
24 0
25 0
26 0
27 0
28 0
29 0
30 0
31 0
32 0
33 0
34 0
35 0
36 0
37 0
38 0
39 0
40 0
41 0
42 0
43 0
44 0
45 0
46 0
47 0
48 0
$EndElementData
$ElementData
1
"Attribute:UniformLoadLocalY"
1
0
3
0
1
48
1 0
2 0
3 0
4 0
5 0
6 0
7 0
8 0
9 0
10 0
11 0
12 0
13 0
14 0
15 0
16 0
17 0
18 0
19 0
20 0
21 0
22 0
23 0
24 0
25 0
26 0
27 0
28 0
29 0
30 0
31 0
32 0
33 0
34 0
35 0
36 0
37 0
38 0
39 0
40 0
41 0
42 0
43 0
44 0
45 0
46 0
47 0
48 0
$EndElementData
$ElementData
1
"Attribute:UniformLoadLocalZ"
1
0
3
0
1
48
1 0
2 0
3 0
4 0
5 0
6 0
7 0
8 0
9 0
10 0
11 0
12 0
13 0
14 0
15 0
16 0
17 0
18 0
19 0
20 0
21 0
22 0
23 0
24 0
25 0
26 0
27 0
28 0
29 0
30 0
31 0
32 0
33 0
34 0
35 0
36 0
37 0
38 0
39 0
40 0
41 0
42 0
43 0
44 0
45 0
46 0
47 0
48 0
$EndElementData
$ElementData
1
"BeamOrientation"
1
0
3
0
3
48
1 0 0 0
2 0 0 0
3 0 0 0
4 0 0 0
5 0 0 0
6 0 0 0
7 0 0 0
8 0 0 0
9 0 0 0
10 0 0 0
11 0 0 0
12 0 0 0
13 0 0 0
14 0 0 0
15 0 0 0
16 0 0 0
17 0 0 0
18 0 0 0
19 0 0 0
20 0 0 0
21 0 0 0
22 0 0 0
23 0 0 0
24 0 0 0
25 0 0 0
26 0 0 0
27 0 0 0
28 0 0 0
29 0 0 0
30 0 0 0
31 0 0 0
32 0 0 0
33 0 0 0
34 0 0 0
35 0 0 0
36 0 0 0
37 0 0 0
38 0 0 0
39 0 0 0
40 0 0 0
41 0 0 0
42 0 0 0
43 0 0 0
44 0 0 0
45 0 0 0
46 0 0 0
47 0 0 0
48 0 0 0
$EndElementData
$AnafData
1
1
GLOBAL 3 1
"Gravity"
0 -9.80665 0
$EndAnafData
