$MeshFormat
4.1 0 8
$EndMeshFormat
$PhysicalNames
4
1 1 "Material:Aluminum 7075-T6"
1 2 "Section:Tube 63.5x1.65"
1 3 "Section:Tube 76.2x2.11"
1 4 "Section:Tube 101.6x2.11"
$EndPhysicalNames
$Entities
0 3 0 0
1 0 0 0 0.8660254037844387 1.0999999999999999 0 2 1 4 0
2 0.8660254037844387 0.8263838853394649 0 1.6177795004131656 1.0999999999999999 0 2 1 3 0
3 1.6177795004131656 0.8263838853394649 0 1.9177795004131657 0.8263838853394649 0 2 1 2 0
$EndEntities
$Nodes
1 5 1 5
1 1 0 5
1
2
3
4
5
0 0 0
0 0.6 0
0.8660254037844387 1.0999999999999999 0
1.6177795004131656 0.8263838853394649 0
1.9177795004131657 0.8263838853394649 0
$EndNodes
$Elements
3 4 1 4
1 1 1 2
1 1 2
2 2 3
1 2 1 1
3 3 4
1 3 1 1
4 4 5
$EndElements
$NodeData
1
"Displacement"
1
0
3
0
3
5
1 0 0 0
2 0.0021184726739208602 -5.9269741286126085e-06 9.631368529364389e-05
3 0.008023837036043315 -0.010243888910229591 0.0019768227144770162
4 0.0027814991921754836 -0.024653638131548063 0.004513426535947863
5 0.002781499192175484 -0.03140385386863823 0.005699513320481619
$EndNodeData
$NodeData
1
"Rotation"
1
0
3
0
3
5
1 0 0 0
2 0.0002697918058601569 -0.0013051193769345916 -0.007061575579736106
3 6.464195189619073e-05 -0.002680248101897459 -0.01546045816715833
4 -0.00010937888307529358 -0.0038172584712579368 -0.021679823549465856
5 -0.00010937888307529355 -0.004021804687039815 -0.02304707926939906
$EndNodeData
$ElementData
1
"BeamSectionForce"
1
0
3
0
12
4
1 -472.55509429780204 9.276845958083868e-11 -50.00000000000716 -95.88897502067279 41.319194266979046 688.8829663357437 -461.6509898029441 9.276845958083868e-11 -50.00000000000716 -95.88897502067279 11.31919426697472 688.8829663356883
2 -230.8254949013675 -399.8014848515936 50.00000000000716 -38.14177772476506 -88.70188544424155 -688.8829663356878 -221.73874115565252 -384.0627656881484 50.00000000000716 -38.14177772476506 -38.70188544423445 -296.9508410658166
3 100.37521056313837 -275.7786244949296 50.00000000000739 5.130302149885942 -54.09538931179742 -296.9508410658171 96.67215191892045 -265.6045544870246 50.00000000000739 5.130302149885942 -14.09538931179111 -80.39756947303529
4 2.9103830456733704e-11 -202.65046315349798 50.00000000000591 8.881784197001252e-16 -15.00000000000233 -80.39756947303003 2.9103830456733704e-11 -200.0000000000374 50.00000000000591 8.881784197001252e-16 -7.958078640513122e-13 -20.000000000001858
$EndElementData
$ElementData
1
"AxialForce"
1
0
3
0
1
4
1 -467.10304205037306
2 -226.28211802851
3 98.52368124102941
4 2.9103830456733704e-11
$EndElementData
$ElementData
1
"VonMisesStress"
1
0
3
0
1
4
1 43997956.280700624
2 43795265.71909255
3 34416080.50734111
4 17144153.99083156
$EndElementData
$NodeData
1
"Fixity"
1
0
3
0
3
5
1 1 1 1
2 0 0 0
3 0 0 0
4 0 0 0
5 0 0 0
$EndNodeData
$NodeData
1
"FixityRotation"
1
0
3
0
3
5
1 1 1 1
2 0 0 0
3 0 0 0
4 0 0 0
5 0 0 0
$EndNodeData
$NodeData
1
"NodalForce"
1
0
3
0
3
5
1 0 0 0
2 0 0 0
3 0 -150 0
4 0 -80 0
5 0 -200 50
$EndNodeData
$NodeData
1
"NodalMoment"
1
0
3
0
3
5
1 0 0 0
2 0 0 0
3 0 0 0
4 0 0 0
5 0 0 -20
$EndNodeData
$ElementData
1
"CrossSectionArea"
1
0
3
0
1
4
1 0.000659495382052919
2 0.000659495382052919
3 0.0004911248653764272
4 0.00032060738428047234
$EndElementData
$ElementData
1
"Attribute:ElementFormulation"
1
0
3
0
1
4
1 1
2 1
3 1
4 1
$EndElementData
$ElementData
1
"MaterialID"
1
0
3
0
1
4
1 13
2 13
3 13
4 13
$EndElementData
$ElementData
1
"Attribute:SecondMomentY"
1
0
3
0
1
4
1 8.163491207123878e-07
2 8.163491207123878e-07
3 3.3726650764158525e-07
4 1.5341644438704604e-07
$EndElementData
$ElementData
1
"Attribute:SecondMomentZ"
1
0
3
0
1
4
1 8.163491207123878e-07
2 8.163491207123878e-07
3 3.3726650764158525e-07
4 1.5341644438704604e-07
$EndElementData
$ElementData
1
"Attribute:SectionDimension1"
1
0
3
0
1
4
1 0.1016
2 0.1016
3 0.0762
4 0.0635
$EndElementData
$ElementData
1
"Attribute:SectionDimension2"
1
0
3
0
1
4
1 0.00211
2 0.00211
3 0.00211
4 0.00165
$EndElementData
$ElementData
1
"Attribute:SectionDimension3"
1
0
3
0
1
4
1 0
2 0
3 0
4 0
$EndElementData
$ElementData
1
"Attribute:SectionDimension4"
1
0
3
0
1
4
1 0
2 0
3 0
4 0
$EndElementData
$ElementData
1
"Attribute:SectionDimension5"
1
0
3
0
1
4
1 0
2 0
3 0
4 0
$EndElementData
$ElementData
1
"Attribute:SectionShape"
1
0
3
0
1
4
1 3
2 3
3 3
4 3
$EndElementData
$ElementData
1
"Attribute:ShearAreaY"
1
0
3
0
1
4
1 0.0003518076905884543
2 0.0003518076905884543
3 0.0002621417693926878
4 0.00017109955695503065
$EndElementData
$ElementData
1
"Attribute:ShearAreaZ"
1
0
3
0
1
4
1 0.0003518076905884543
2 0.0003518076905884543
3 0.0002621417693926878
4 0.00017109955695503065
$EndElementData
$ElementData
1
"Attribute:TorsionConstant"
1
0
3
0
1
4
1 1.6326982414247755e-06
2 1.6326982414247755e-06
3 6.745330152831705e-07
4 3.068328887740921e-07
$EndElementData
$ElementData
1
"Attribute:UniformLoadGlobalX"
1
0
3
0
1
4
1 0
2 0
3 0
4 0
$EndElementData
$ElementData
1
"Attribute:UniformLoadGlobalY"
1
0
3
0
1
4
1 0
2 0
3 0
4 0
$EndElementData
$ElementData
1
"Attribute:UniformLoadGlobalZ"
1
0
3
0
1
4
1 0
2 0
3 0
4 0
$EndElementData
$ElementData
1
"Attribute:UniformLoadLocalX"
1
0
3
0
1
4
1 0
2 0
3 0
4 0
$EndElementData
$ElementData
1
"Attribute:UniformLoadLocalY"
1
0
3
0
1
4
1 0
2 0
3 0
4 0
$EndElementData
$ElementData
1
"Attribute:UniformLoadLocalZ"
1
0
3
0
1
4
1 0
2 0
3 0
4 0
$EndElementData
$ElementData
1
"BeamOrientation"
1
0
3
0
3
4
1 0 0 0
2 0 0 0
3 0 0 0
4 0 0 0
$EndElementData
$AnafData
1
1
GLOBAL 3 1
"Gravity"
0 -9.80665 0
$EndAnafData
