$MeshFormat
4.1 0 8
$EndMeshFormat
$PhysicalNames
4
1 1 "Material:Aluminum 7075-T6"
1 2 "Section:Tube 63.5x1.65"
1 3 "Section:Tube 76.2x2.11"
1 4 "Section:Tube 101.6x2.11"
$EndPhysicalNames
$Entities
0 3 0 0
1 0 0 0 0.8660254037844387 1.0999999999999999 0 2 1 4 0
2 0.8660254037844387 0.8263838853394649 0 1.6177795004131656 1.0999999999999999 0 2 1 3 0
3 1.6177795004131656 0.8263838853394649 0 1.9177795004131657 0.8263838853394649 0 2 1 2 0
$EndEntities
$Nodes
1 5 1 5
1 1 0 5
1
2
3
4
5
0 0 0
0 0.6 0
0.8660254037844387 1.0999999999999999 0
1.6177795004131656 0.8263838853394649 0
1.9177795004131657 0.8263838853394649 0
$EndNodes
$Elements
3 4 1 4
1 1 1 2
1 1 2
2 2 3
1 2 1 1
3 3 4
1 3 1 1
4 4 5
$EndElements
$NodeData
1
"Fixity"
1
0
3
0
3
5
1 1 1 1
2 0 0 0
3 0 0 0
4 0 0 0
5 0 0 0
$EndNodeData
$NodeData
1
"FixityRotation"
1
0
3
0
3
5
1 1 1 1
2 0 0 0
3 0 0 0
4 0 0 0
5 0 0 0
$EndNodeData
$NodeData
1
"NodalForce"
1
0
3
0
3
5
1 0 0 0
2 0 0 0
3 0 -150 0
4 0 -80 0
5 0 -200 50
$EndNodeData
$NodeData
1
"NodalMoment"
1
0
3
0
3
5
1 0 0 0
2 0 0 0
3 0 0 0
4 0 0 0
5 0 0 -20
$EndNodeData
$ElementData
1
"CrossSectionArea"
1
0
3
0
1
4
1 0.000659495382052919
2 0.000659495382052919
3 0.0004911248653764272
4 0.00032060738428047234
$EndElementData
$ElementData
1
"Attribute:ElementFormulation"
1
0
3
0
1
4
1 1
2 1
3 1
4 1
$EndElementData
$ElementData
1
"MaterialID"
1
0
3
0
1
4
1 13
2 13
3 13
4 13
$EndElementData
$ElementData
1
"Attribute:SecondMomentY"
1
0
3
0
1
4
1 8.163491207123878e-07
2 8.163491207123878e-07
3 3.3726650764158525e-07
4 1.5341644438704604e-07
$EndElementData
$ElementData
1
"Attribute:SecondMomentZ"
1
0
3
0
1
4
1 8.163491207123878e-07
2 8.163491207123878e-07
3 3.3726650764158525e-07
4 1.5341644438704604e-07
$EndElementData
$ElementData
1
"Attribute:SectionDimension1"
1
0
3
0
1
4
1 0.1016
2 0.1016
3 0.0762
4 0.0635
$EndElementData
$ElementData
1
"Attribute:SectionDimension2"
1
0
3
0
1
4
1 0.00211
2 0.00211
3 0.00211
4 0.00165
$EndElementData
$ElementData
1
"Attribute:SectionDimension3"
1
0
3
0
1
4
1 0
2 0
3 0
4 0
$EndElementData
$ElementData
1
"Attribute:SectionDimension4"
1
0
3
0
1
4
1 0
2 0
3 0
4 0
$EndElementData
$ElementData
1
"Attribute:SectionDimension5"
1
0
3
0
1
4
1 0
2 0
3 0
4 0
$EndElementData
$ElementData
1
"Attribute:SectionShape"
1
0
3
0
1
4
1 3
2 3
3 3
4 3
$EndElementData
$ElementData
1
"Attribute:ShearAreaY"
1
0
3
0
1
4
1 0.0003518076905884543
2 0.0003518076905884543
3 0.0002621417693926878
4 0.00017109955695503065
$EndElementData
$ElementData
1
"Attribute:ShearAreaZ"
1
0
3
0
1
4
1 0.0003518076905884543
2 0.0003518076905884543
3 0.0002621417693926878
4 0.00017109955695503065
$EndElementData
$ElementData
1
"Attribute:TorsionConstant"
1
0
3
0
1
4
1 1.6326982414247755e-06
2 1.6326982414247755e-06
3 6.745330152831705e-07
4 3.068328887740921e-07
$EndElementData
$ElementData
1
"Attribute:UniformLoadGlobalX"
1
0
3
0
1
4
1 0
2 0
3 0
4 0
$EndElementData
$ElementData
1
"Attribute:UniformLoadGlobalY"
1
0
3
0
1
4
1 0
2 0
3 0
4 0
$EndElementData
$ElementData
1
"Attribute:UniformLoadGlobalZ"
1
0
3
0
1
4
1 0
2 0
3 0
4 0
$EndElementData
$ElementData
1
"Attribute:UniformLoadLocalX"
1
0
3
0
1
4
1 0
2 0
3 0
4 0
$EndElementData
$ElementData
1
"Attribute:UniformLoadLocalY"
1
0
3
0
1
4
1 0
2 0
3 0
4 0
$EndElementData
$ElementData
1
"Attribute:UniformLoadLocalZ"
1
0
3
0
1
4
1 0
2 0
3 0
4 0
$EndElementData
$ElementData
1
"BeamOrientation"
1
0
3
0
3
4
1 0 0 0
2 0 0 0
3 0 0 0
4 0 0 0
$EndElementData
$AnafData
1
1
GLOBAL 3 1
"Gravity"
0 -9.80665 0
$EndAnafData
