$MeshFormat
4.1 0 8
$EndMeshFormat
$PhysicalNames
3
1 1 "Material:Aluminum 6061-T6"
1 2 "Section:Box 120x60x4"
1 3 "Section:Box 200x100x6"
$EndPhysicalNames
$Entities
0 2 0 0
1 0 0.6 0 2 0.6 0 2 1 3 0
2 0 0 0 2 0.6 0 2 1 2 0
$EndEntities
$Nodes
1 11 1 11
1 1 0 11
1
2
3
4
5
6
7
8
9
10
11
0 0.6 0
0.25 0.6 0
0.5 0.6 0
0.75 0.6 0
1 0.6 0
1.25 0.6 0
1.5 0.6 0
1.75 0.6 0
2 0.6 0
0 0 0
2 0 0
$EndNodes
$Elements
2 10 1 10
1 1 1 8
1 1 2
2 2 3
3 3 4
4 4 5
5 5 6
6 6 7
7 7 8
8 8 9
1 2 1 2
9 10 1
10 11 9
$EndElements
$NodeData
1
"Fixity"
1
0
3
0
3
11
1 0 0 0
2 0 0 0
3 0 0 0
4 0 0 0
5 0 0 0
6 0 0 0
7 0 0 0
8 0 0 0
9 0 0 0
10 1 1 1
11 1 1 1
$EndNodeData
$NodeData
1
"FixityRotation"
1
0
3
0
3
11
1 0 0 0
2 0 0 0
3 0 0 0
4 0 0 0
5 0 0 0
6 0 0 0
7 0 0 0
8 0 0 0
9 0 0 0
10 1 1 1
11 1 1 1
$EndNodeData
$NodeData
1
"NodalForce"
1
0
3
0
3
11
1 0 0 0
2 0 0 0
3 0 0 0
4 0 0 0
5 0 -2000 500
6 0 0 0
7 0 0 0
8 0 0 0
9 0 0 0
10 0 0 0
11 0 0 0
$EndNodeData
$NodeData
1
"NodalMoment"
1
0
3
0
3
11
1 0 0 0
2 0 0 0
3 0 0 0
4 0 0 0
5 300 0 0
6 0 0 0
7 0 0 0
8 0 0 0
9 0 0 0
10 0 0 0
11 0 0 0
$EndNodeData
$ElementData
1
"CrossSectionArea"
1
0
3
0
1
10
1 0.0033632920065877047
2 0.0033632920065877047
3 0.0033632920065877047
4 0.0033632920065877047
5 0.0033632920065877047
6 0.0033632920065877047
7 0.0033632920065877047
8 0.0033632920065877047
9 0.0013347964473723111
10 0.0013347964473723111
$EndElementData
$ElementData
1
"Attribute:ElementFormulation"
1
0
3
0
1
10
1 2
2 2
3 2
4 2
5 2
6 2
7 2
8 2
9 2
10 2
$EndElementData
$ElementData
1
"MaterialID"
1
0
3
0
1
10
1 1
2 1
3 1
4 1
5 1
6 1
7 1
8 1
9 1
10 1
$EndElementData
$ElementData
1
"Attribute:SecondMomentY"
1
0
3
0
1
10
1 5.769141797809077e-06
2 5.769141797809077e-06
3 5.769141797809077e-06
4 5.769141797809077e-06
5 5.769141797809077e-06
6 5.769141797809077e-06
7 5.769141797809077e-06
8 5.769141797809077e-06
9 8.124707428089777e-07
10 8.124707428089777e-07
$EndElementData
$ElementData
1
"Attribute:SecondMomentZ"
1
0
3
0
1
10
1 1.703308143931157e-05
2 1.703308143931157e-05
3 1.703308143931157e-05
4 1.703308143931157e-05
5 1.703308143931157e-05
6 1.703308143931157e-05
7 1.703308143931157e-05
8 1.703308143931157e-05
9 2.40739885597551e-06
10 2.40739885597551e-06
$EndElementData
$ElementData
1
"Attribute:SectionDimension1"
1
0
3
0
1
10
1 0.2
2 0.2
3 0.2
4 0.2
5 0.2
6 0.2
7 0.2
8 0.2
9 0.12
10 0.12
$EndElementData
$ElementData
1
"Attribute:SectionDimension2"
1
0
3
0
1
10
1 0.1
2 0.1
3 0.1
4 0.1
5 0.1
6 0.1
7 0.1
8 0.1
9 0.06
10 0.06
$EndElementData
$ElementData
1
"Attribute:SectionDimension3"
1
0
3
0
1
10
1 0.006
2 0.006
3 0.006
4 0.006
5 0.006
6 0.006
7 0.006
8 0.006
9 0.004
10 0.004
$EndElementData
$ElementData
1
"Attribute:SectionDimension4"
1
0
3
0
1
10
1 0.012
2 0.012
3 0.012
4 0.012
5 0.012
6 0.012
7 0.012
8 0.012
9 0.008
10 0.008
$EndElementData
$ElementData
1
"Attribute:SectionDimension5"
1
0
3
0
1
10
1 0.006
2 0.006
3 0.006
4 0.006
5 0.006
6 0.006
7 0.006
8 0.006
9 0.004
10 0.004
$EndElementData
$ElementData
1
"Attribute:SectionShape"
1
0
3
0
1
10
1 4
2 4
3 4
4 4
5 4
6 4
7 4
8 4
9 4
10 4
$EndElementData
$ElementData
1
"Attribute:ShearAreaY"
1
0
3
0
1
10
1 0.002140588373979719
2 0.002140588373979719
3 0.002140588373979719
4 0.002140588373979719
5 0.002140588373979719
6 0.002140588373979719
7 0.002140588373979719
8 0.002140588373979719
9 0.0008506937422671438
10 0.0008506937422671438
$EndElementData
$ElementData
1
"Attribute:ShearAreaZ"
1
0
3
0
1
10
1 0.0007903482879247669
2 0.0007903482879247669
3 0.0007903482879247669
4 0.0007903482879247669
5 0.0007903482879247669
6 0.0007903482879247669
7 0.0007903482879247669
8 0.0007903482879247669
9 0.00031247790836282926
10 0.00031247790836282926
$EndElementData
$ElementData
1
"Attribute:TorsionConstant"
1
0
3
0
1
10
1 1.4170255375859663e-05
2 1.4170255375859663e-05
3 1.4170255375859663e-05
4 1.4170255375859663e-05
5 1.4170255375859663e-05
6 1.4170255375859663e-05
7 1.4170255375859663e-05
8 1.4170255375859663e-05
9 2.0111989769075784e-06
10 2.0111989769075784e-06
$EndElementData
$ElementData
1
"Attribute:UniformLoadGlobalX"
1
0
3
0
1
10
1 0
2 0
3 0
4 0
5 0
6 0
7 0
8 0
9 0
10 0
$EndElementData
$ElementData
1
"Attribute:UniformLoadGlobalY"
1
0
3
0
1
10
1 0
2 0
3 0
4 0
5 0
6 0
7 0
8 0
9 0
10 0
$EndElementData
$ElementData
1
"Attribute:UniformLoadGlobalZ"
1
0
3
0
1
10
1 0
2 0
3 0
4 0
5 0
6 0
7 0
8 0
9 0
10 0
$EndElementData
$ElementData
1
"Attribute:UniformLoadLocalX"
1
0
3
0
1
10
1 0
2 0
3 0
4 0
5 0
6 0
7 0
8 0
9 0
10 0
$EndElementData
$ElementData
1
"Attribute:UniformLoadLocalY"
1
0
3
0
1
10
1 0
2 0
3 0
4 0
5 0
6 0
7 0
8 0
9 0
10 0
$EndElementData
$ElementData
1
"Attribute:UniformLoadLocalZ"
1
0
3
0
1
10
1 0
2 0
3 0
4 0
5 0
6 0
7 0
8 0
9 0
10 0
$EndElementData
$ElementData
1
"BeamOrientation"
1
0
3
0
3
10
1 0 0 0
2 0 0 0
3 0 0 0
4 0 0 0
5 0 0 0
6 0 0 0
7 0 0 0
8 0 0 0
9 0 0 1
10 0 0 1
$EndElementData
$AnafData
1
1
GLOBAL 3 1
"Gravity"
0 -9.80665 0
$EndAnafData
