$MeshFormat
4.1 0 8
$EndMeshFormat
$PhysicalNames
4
1 1 "Material:Structural Steel S355 (EN 10025)"
1 2 "Section:SHS 100x100x6.3"
1 3 "Section:RHS 120x60x6.3"
1 4 "Section:RHS 150x100x8"
$EndPhysicalNames
$Entities
0 3 0 0
1 0 0.8 0 3 0.8 1.5 2 1 4 0
2 0 0.8 0 3 0.8 1.5 2 1 3 0
3 0 0 0 3 0.8 1.5 2 1 2 0
$EndEntities
$Nodes
1 21 1 21
1 1 0 21
1
2
3
4
5
6
7
8
9
10
11
12
13
14
15
16
17
18
19
20
21
0 0.8 0
0.75 0.8 0
1.5 0.8 0
2.25 0.8 0
3 0.8 0
0 0.8 1.5
0.75 0.8 1.5
1.5 0.8 1.5
2.25 0.8 1.5
3 0.8 1.5
0 0.8 0.75
0.75 0.8 0.75
1.5 0.8 0.75
2.25 0.8 0.75
3 0.8 0.75
0 0 0
1.5 0 0
3 0 0
0 0 1.5
1.5 0 1.5
3 0 1.5
$EndNodes
$Elements
3 24 1 24
1 1 1 8
1 1 2
2 2 3
3 3 4
4 4 5
5 6 7
6 7 8
7 8 9
8 9 10
1 2 1 10
9 1 11
10 11 6
11 2 12
12 12 7
13 3 13
14 13 8
15 4 14
16 14 9
17 5 15
18 15 10
1 3 1 6
19 16 1
20 17 3
21 18 5
22 19 6
23 20 8
24 21 10
$EndElements
$NodeData
1
"Displacement"
1
0
3
0
3
21
1 -6.520130501137504e-05 -2.8581110511393684e-06 -7.231990704277415e-06
2 -6.635053964241162e-05 -4.805062109608294e-05 -3.1780782367185066e-05
3 -6.759473417124865e-05 -1.857027609750783e-05 5.76546525699472e-06
4 -6.712181547470328e-05 -5.612549304778973e-05 3.2268536745513775e-05
5 -6.674385667595833e-05 -1.8357124232994856e-06 9.718682974515422e-06
6 6.674385667596013e-05 -1.835712423299475e-06 -9.718682974515319e-06
7 6.712181547470509e-05 -5.6125493047789894e-05 -3.2268536745513775e-05
8 6.759473417125046e-05 -1.857027609750783e-05 -5.765465256994749e-06
9 6.635053964241345e-05 -4.805062109608278e-05 3.1780782367185066e-05
10 6.520130501137686e-05 -2.85811105113938e-06 7.231990704277523e-06
11 1.9899483550969298e-06 -5.6904672621248896e-05 -8.475336839396366e-06
12 -1.3911390789848763e-06 -0.0003950373003589052 -3.202465955634942e-05
13 9.049125655141314e-19 -0.000663366486774859 -1.427777617337253e-20
14 1.3911390789866926e-06 -0.000395037300358905 3.202465955634942e-05
15 -1.9899483550951057e-06 -5.690467262124886e-05 8.475336839396473e-06
16 0 0 0
17 0 0 0
18 0 0 0
19 0 0 0
20 0 0 0
21 0 0 0
$EndNodeData
$NodeData
1
"Rotation"
1
0
3
0
3
21
1 0.0001303420943932485 4.628834308092525e-05 -3.504187716643922e-05
2 0.0005490467380320607 6.708838431555038e-06 -1.0103897548495853e-05
3 0.000636242237321744 -0.00010515873637535957 1.2946811294364133e-05
4 0.0005464747164664772 1.6184982405590186e-05 -8.402936118805201e-06
5 0.0001435351902581577 3.978875629263512e-05 0.00010841016877537719
6 -0.0001435351902581577 3.9788756292635254e-05 -0.00010841016877537829
7 -0.0005464747164664773 1.6184982405590274e-05 8.402936118805465e-06
8 -0.000636242237321744 -0.00010515873637535957 -1.2946811294364403e-05
9 -0.0005490467380320607 6.708838431554943e-06 1.0103897548496109e-05
10 -0.00013034209439324832 4.628834308092512e-05 3.5041877166438116e-05
11 1.9553414974915334e-06 0.00010818888492987893 -7.172602297090876e-05
12 7.209835363441328e-06 0.00012388811857898238 -8.504807148451945e-07
13 0 0.0014432512194528084 -1.3496183623989872e-19
14 -7.209835363441297e-06 0.00012388811857898244 8.50480714845454e-07
15 -1.9553414974915656e-06 0.00010818888492987898 7.172602297090766e-05
16 0 0 0
17 0 0 0
18 0 0 0
19 0 0 0
20 0 0 0
21 0 0 0
$EndNodeData
$ElementData
1
"BeamSectionForce"
1
0
3
0
12
24
1 -1182.6677919275826 -1525.9819797351943 -124.42078989372305 542.7571212711789 -16.433823745513003 -469.82449237050344 -1182.6677919275826 -1313.7808804053248 -124.42078989372305 542.7571212711789 -109.74941616580531 595.0865801821913
2 -1280.3902322546783 1321.3873740675763 16.70182684534666 113.02950397439713 -184.58543992098114 592.1954948080382 -1280.3902322546783 1533.5884733974458 16.70182684534666 113.02950397439713 -172.05906978697112 -478.42044799134504
3 486.6766937749635 -2078.4203064536514 -182.6339771393081 -116.36355589379195 261.9154221714937 -817.8560433021004 486.6766937749635 -1866.2192071237819 -182.6339771393081 -116.36355589379195 124.93993931701256 661.3837742894369
4 388.95425344788237 737.2557032060481 -41.511360400238914 -522.321165083271 53.19230258154214 658.4926889152836 388.95425344788237 949.4568025359176 -41.511360400238914 -522.321165083271 22.058782281362852 25.975499262047073
5 388.9542534478969 -949.4568025359108 -41.511360400239425 -522.3211650832712 -22.058782281362753 25.97549926205371 388.9542534478969 -737.2557032060413 -41.511360400239425 -522.3211650832712 -53.19230258154241 658.4926889152854
6 486.67669377497805 1866.2192071237905 -182.63397713930817 -116.36355589379173 -124.9399393170128 661.3837742894385 486.67669377497805 2078.42030645366 -182.63397713930817 -116.36355589379173 -261.91542217149373 -817.8560433021051
7 -1280.3902322546783 -1533.5884733974376 16.701826845346517 113.02950397439713 172.05906978697104 -478.42044799134027 -1280.3902322546783 -1321.387374067568 16.701826845346517 113.02950397439713 184.58543992098092 592.1954948080366
8 -1182.6677919275826 1313.7808804053325 -124.42078989372237 542.7571212711791 109.74941616580503 595.0865801821898 -1182.6677919275826 1525.981979735202 -124.42078989372237 542.7571212711791 16.433823745513223 -469.8244923705103
9 -719.4779499535198 -142.19852373265937 -56.62203254701245 -11.461387647957523 41.40737843667522 90.38229964997356 -719.4779499535198 -22.87694133129159 -56.62203254701245 -11.461387647957523 -1.0591459735840942 152.2855990489552
10 -719.4779499535216 -22.876941331291505 -56.622032547012395 -11.461387647957526 -1.0591459735840587 152.2855990489552 -719.4779499535216 96.44464107007627 -56.622032547012395 -11.461387647957526 -43.52567038384327 124.69771164691088
11 -141.1226167390705 -2635.168254472902 -97.72244032709762 2.891085374153215 74.83602375517589 -429.72761729678217 -141.1226167390705 -2515.846672071534 -97.72244032709762 2.891085374153215 1.5441935098527608 1501.902980157382
12 -141.1226167390705 2484.153327928464 -97.72244032709762 2.891085374153215 1.544193509852759 1501.902980157382 -141.1226167390705 2603.474910329832 -97.72244032709762 2.891085374153215 -71.74763673547037 -405.9576091894792
13 -3336.259313850656 -7619.321582401366 2654.279850013393 -4.045028711874332 -490.70988751004506 -2204.0821265366485 -3336.259313850656 -7499.999999999998 2654.279850013393 -4.045028711874332 1499.9999999999998 3465.663466863863
14 -3336.259313850656 7499.999999999997 2654.279850013393 -4.045028711874332 -1499.9999999999998 3465.663466863864 -3336.259313850656 7619.321582401365 2654.279850013393 -4.045028711874332 490.709887510045 -2204.082126536649
15 -141.1226167390705 -2603.474910329832 -97.72244032709773 2.8910853741532136 71.74763673547045 -405.95760918947923 -141.1226167390705 -2484.153327928464 -97.72244032709773 2.8910853741532136 -1.5441935098527892 1501.9029801573818
16 -141.1226167390705 2515.846672071534 -97.72244032709776 2.8910853741532136 -1.5441935098527404 1501.9029801573818 -141.1226167390705 2635.168254472902 -97.72244032709776 2.8910853741532136 -74.836023755176 -429.727617296782
17 -719.4779499535189 -96.44464107007562 -56.62203254701271 -11.461387647957526 43.52567038384343 124.69771164691116 -719.4779499535189 22.876941331292166 -56.62203254701271 -11.461387647957526 1.059145973584009 152.28559904895502
18 -719.4779499535189 22.876941331291732 -56.62203254701262 -11.461387647957526 1.0591459735840694 152.28559904895502 -719.4779499535189 142.1985237326595 -56.62203254701262 -11.461387647957526 -41.40737843667531 90.38229964997328
19 -1810.976470053313 -1126.0457593805695 843.898739847242 24.97355469116221 -222.74417025658832 -419.55072748599457 -1668.180503467854 -1126.0457593805695 843.898739847242 24.97355469116221 452.3748216212053 481.28588001846106
20 -11374.12632883792 -887.2129239837369 3535.5951178353107 -56.73539555158034 -853.7870275997891 -366.28971516435996 -11231.330362252462 -887.2129239837369 3535.5951178353107 -56.73539555158034 1974.6890666684592 343.4806240226297
21 -1188.6974101914525 -332.3322209008785 677.9665895532804 21.466888102480453 -144.74981820626445 -228.42888981069876 -1045.9014436059933 -332.3322209008785 677.9665895532804 21.466888102480453 397.62345343635985 37.43688691000415
22 -1188.697410191446 332.3322209008978 -677.9665895532819 21.466888102480524 144.74981820626505 228.42888981070746 -1045.9014436059867 332.3322209008978 -677.9665895532819 21.466888102480524 -397.6234534363604 -37.43688691001091
23 -11374.12632883792 887.2129239837611 -3535.5951178353102 -56.73539555158034 853.7870275997889 366.2897151643699 -11231.330362252462 887.2129239837611 -3535.5951178353102 -56.73539555158034 -1974.689066668459 -343.4806240226392
24 -1810.9764700533199 1126.045759380589 -843.8987398472426 24.97355469116214 222.74417025658872 419.5507274860034 -1668.1805034678607 1126.045759380589 -843.8987398472426 24.97355469116214 -452.3748216212054 -481.28588001846794
$EndElementData
$ElementData
1
"AxialForce"
1
0
3
0
1
24
1 -1182.6677919275826
2 -1280.3902322546783
3 486.6766937749635
4 388.95425344788237
5 388.9542534478969
6 486.67669377497805
7 -1280.3902322546783
8 -1182.6677919275826
9 -719.4779499535198
10 -719.4779499535216
11 -141.1226167390705
12 -141.1226167390705
13 -3336.259313850656
14 -3336.259313850656
15 -141.1226167390705
16 -141.1226167390705
17 -719.4779499535189
18 -719.4779499535189
19 -1739.5784867605835
20 -11302.72834554519
21 -1117.299426898723
22 -1117.2994268987163
23 -11302.72834554519
24 -1739.5784867605903
$EndElementData
$ElementData
1
"VonMisesStress"
1
0
3
0
1
24
1 7838414.0322880745
2 6160866.924721247
3 8270045.880488131
4 7130944.271305441
5 7130944.271305453
6 8270045.880488169
7 6160866.924721234
8 7838414.032288072
9 3011995.6118057854
10 3410641.554370386
11 25568259.49688565
12 25560949.62179734
13 94036383.91364542
14 94036383.91364543
15 25560949.621797338
16 25568259.496885654
17 3410641.554370389
18 3011995.611805785
19 14335785.609331958
20 39368193.05775661
21 7122887.005930634
22 7122887.005930733
23 39368193.05775674
24 14335785.60933206
$EndElementData
$NodeData
1
"Fixity"
1
0
3
0
3
21
1 0 0 0
2 0 0 0
3 0 0 0
4 0 0 0
5 0 0 0
6 0 0 0
7 0 0 0
8 0 0 0
9 0 0 0
10 0 0 0
11 0 0 0
12 0 0 0
13 0 0 0
14 0 0 0
15 0 0 0
16 1 1 1
17 1 1 1
18 1 1 1
19 1 1 1
20 1 1 1
21 1 1 1
$EndNodeData
$NodeData
1
"FixityRotation"
1
0
3
0
3
21
1 0 0 0
2 0 0 0
3 0 0 0
4 0 0 0
5 0 0 0
6 0 0 0
7 0 0 0
8 0 0 0
9 0 0 0
10 0 0 0
11 0 0 0
12 0 0 0
13 0 0 0
14 0 0 0
15 0 0 0
16 1 1 1
17 1 1 1
18 1 1 1
19 1 1 1
20 1 1 1
21 1 1 1
$EndNodeData
$NodeData
1
"NodalForce"
1
0
3
0
3
21
1 0 0 0
2 0 0 0
3 0 0 0
4 0 0 0
5 0 0 0
6 0 0 0
7 0 0 0
8 0 0 0
9 0 0 0
10 0 0 0
11 0 0 0
12 0 -5000 0
13 0 -15000 0
14 0 -5000 0
15 0 0 0
16 0 0 0
17 0 0 0
18 0 0 0
19 0 0 0
20 0 0 0
21 0 0 0
$EndNodeData
$NodeData
1
"NodalMoment"
1
0
3
0
3
21
1 0 0 0
2 0 0 0
3 0 0 0
4 0 0 0
5 0 0 0
6 0 0 0
7 0 0 0
8 0 0 0
9 0 0 0
10 0 0 0
11 0 0 0
12 0 0 0
13 0 3000 0
14 0 0 0
15 0 0 0
16 0 0 0
17 0 0 0
18 0 0 0
19 0 0 0
20 0 0 0
21 0 0 0
$EndNodeData
$ElementData
1
"CrossSectionArea"
1
0
3
0
1
24
1 0.003675327412287179
2 0.003675327412287179
3 0.003675327412287179
4 0.003675327412287179
5 0.003675327412287179
6 0.003675327412287179
7 0.003675327412287179
8 0.003675327412287179
9 0.0020666522655262264
10 0.0020666522655262264
11 0.0020666522655262264
12 0.0020666522655262264
13 0.0020666522655262264
14 0.0020666522655262264
15 0.0020666522655262264
16 0.0020666522655262264
17 0.0020666522655262264
18 0.0020666522655262264
19 0.002318652265526227
20 0.002318652265526227
21 0.002318652265526227
22 0.002318652265526227
23 0.002318652265526227
24 0.002318652265526227
$EndElementData
$ElementData
1
"Attribute:ElementFormulation"
1
0
3
0
1
24
1 2
2 2
3 2
4 2
5 2
6 2
7 2
8 2
9 2
10 2
11 2
12 2
13 2
14 2
15 2
16 2
17 2
18 2
19 2
20 2
21 2
22 2
23 2
24 2
$EndElementData
$ElementData
1
"MaterialID"
1
0
3
0
1
24
1 3
2 3
3 3
4 3
5 3
6 3
7 3
8 3
9 3
10 3
11 3
12 3
13 3
14 3
15 3
16 3
17 3
18 3
19 3
20 3
21 3
22 3
23 3
24 3
$EndElementData
$ElementData
1
"Attribute:SecondMomentY"
1
0
3
0
1
24
1 5.693027644572594e-06
2 5.693027644572594e-06
3 5.693027644572594e-06
4 5.693027644572594e-06
5 5.693027644572594e-06
6 5.693027644572594e-06
7 5.693027644572594e-06
8 5.693027644572594e-06
9 1.1639706690851954e-06
10 1.1639706690851954e-06
11 1.1639706690851954e-06
12 1.1639706690851954e-06
13 1.1639706690851954e-06
14 1.1639706690851954e-06
15 1.1639706690851954e-06
16 1.1639706690851954e-06
17 1.1639706690851954e-06
18 1.1639706690851954e-06
19 3.3557211039232845e-06
20 3.3557211039232845e-06
21 3.3557211039232845e-06
22 3.3557211039232845e-06
23 3.3557211039232845e-06
24 3.3557211039232845e-06
$EndElementData
$ElementData
1
"Attribute:SecondMomentZ"
1
0
3
0
1
24
1 1.0868908413230331e-05
2 1.0868908413230331e-05
3 1.0868908413230331e-05
4 1.0868908413230331e-05
5 1.0868908413230331e-05
6 1.0868908413230331e-05
7 1.0868908413230331e-05
8 1.0868908413230331e-05
9 3.582689061000196e-06
10 3.582689061000196e-06
11 3.582689061000196e-06
12 3.582689061000196e-06
13 3.582689061000196e-06
14 3.582689061000196e-06
15 3.582689061000196e-06
16 3.582689061000196e-06
17 3.582689061000196e-06
18 3.582689061000196e-06
19 3.3557211039232845e-06
20 3.3557211039232845e-06
21 3.3557211039232845e-06
22 3.3557211039232845e-06
23 3.3557211039232845e-06
24 3.3557211039232845e-06
$EndElementData
$ElementData
1
"Attribute:SectionDimension1"
1
0
3
0
1
24
1 0.15
2 0.15
3 0.15
4 0.15
5 0.15
6 0.15
7 0.15
8 0.15
9 0.12
10 0.12
11 0.12
12 0.12
13 0.12
14 0.12
15 0.12
16 0.12
17 0.12
18 0.12
19 0.1
20 0.1
21 0.1
22 0.1
23 0.1
24 0.1
$EndElementData
$ElementData
1
"Attribute:SectionDimension2"
1
0
3
0
1
24
1 0.1
2 0.1
3 0.1
4 0.1
5 0.1
6 0.1
7 0.1
8 0.1
9 0.06
10 0.06
11 0.06
12 0.06
13 0.06
14 0.06
15 0.06
16 0.06
17 0.06
18 0.06
19 0.1
20 0.1
21 0.1
22 0.1
23 0.1
24 0.1
$EndElementData
$ElementData
1
"Attribute:SectionDimension3"
1
0
3
0
1
24
1 0.008
2 0.008
3 0.008
4 0.008
5 0.008
6 0.008
7 0.008
8 0.008
9 0.0063
10 0.0063
11 0.0063
12 0.0063
13 0.0063
14 0.0063
15 0.0063
16 0.0063
17 0.0063
18 0.0063
19 0.0063
20 0.0063
21 0.0063
22 0.0063
23 0.0063
24 0.0063
$EndElementData
$ElementData
1
"Attribute:SectionDimension4"
1
0
3
0
1
24
1 0.012
2 0.012
3 0.012
4 0.012
5 0.012
6 0.012
7 0.012
8 0.012
9 0.00945
10 0.00945
11 0.00945
12 0.00945
13 0.00945
14 0.00945
15 0.00945
16 0.00945
17 0.00945
18 0.00945
19 0.00945
20 0.00945
21 0.00945
22 0.00945
23 0.00945
24 0.00945
$EndElementData
$ElementData
1
"Attribute:SectionDimension5"
1
0
3
0
1
24
1 0.008
2 0.008
3 0.008
4 0.008
5 0.008
6 0.008
7 0.008
8 0.008
9 0.0063
10 0.0063
11 0.0063
12 0.0063
13 0.0063
14 0.0063
15 0.0063
16 0.0063
17 0.0063
18 0.0063
19 0.0063
20 0.0063
21 0.0063
22 0.0063
23 0.0063
24 0.0063
$EndElementData
$ElementData
1
"Attribute:SectionShape"
1
0
3
0
1
24
1 4
2 4
3 4
4 4
5 4
6 4
7 4
8 4
9 4
10 4
11 4
12 4
13 4
14 4
15 4
16 4
17 4
18 4
19 4
20 4
21 4
22 4
23 4
24 4
$EndElementData
$ElementData
1
"Attribute:ShearAreaY"
1
0
3
0
1
24
1 0.0020616263116318683
2 0.0020616263116318683
3 0.0020616263116318683
4 0.0020616263116318683
5 0.0020616263116318683
6 0.0020616263116318683
7 0.0020616263116318683
8 0.0020616263116318683
9 0.001324963666377315
10 0.001324963666377315
11 0.001324963666377315
12 0.001324963666377315
13 0.001324963666377315
14 0.001324963666377315
15 0.001324963666377315
16 0.001324963666377315
17 0.001324963666377315
18 0.001324963666377315
19 0.0010097983065943366
20 0.0010097983065943366
21 0.0010097983065943366
22 0.0010097983065943366
23 0.0010097983065943366
24 0.0010097983065943366
$EndElementData
$ElementData
1
"Attribute:ShearAreaZ"
1
0
3
0
1
24
1 0.001136599962239897
2 0.001136599962239897
3 0.001136599962239897
4 0.001136599962239897
5 0.001136599962239897
6 0.001136599962239897
7 0.001136599962239897
8 0.001136599962239897
9 0.00046989302409791635
10 0.00046989302409791635
11 0.00046989302409791635
12 0.00046989302409791635
13 0.00046989302409791635
14 0.00046989302409791635
15 0.00046989302409791635
16 0.00046989302409791635
17 0.00046989302409791635
18 0.00046989302409791635
19 0.0010097983065943366
20 0.0010097983065943366
21 0.0010097983065943366
22 0.0010097983065943366
23 0.0010097983065943366
24 0.0010097983065943366
$EndElementData
$ElementData
1
"Attribute:TorsionConstant"
1
0
3
0
1
24
1 1.2032272402923005e-05
2 1.2032272402923005e-05
3 1.2032272402923005e-05
4 1.2032272402923005e-05
5 1.2032272402923005e-05
6 1.2032272402923005e-05
7 1.2032272402923005e-05
8 1.2032272402923005e-05
9 2.9000714188340457e-06
10 2.9000714188340457e-06
11 2.9000714188340457e-06
12 2.9000714188340457e-06
13 2.9000714188340457e-06
14 2.9000714188340457e-06
15 2.9000714188340457e-06
16 2.9000714188340457e-06
17 2.9000714188340457e-06
18 2.9000714188340457e-06
19 5.3417966873861325e-06
20 5.3417966873861325e-06
21 5.3417966873861325e-06
22 5.3417966873861325e-06
23 5.3417966873861325e-06
24 5.3417966873861325e-06
$EndElementData
$ElementData
1
"Attribute:UniformLoadGlobalX"
1
0
3
0
1
24
1 0
2 0
3 0
4 0
5 0
6 0
7 0
8 0
9 0
10 0
11 0
12 0
13 0
14 0
15 0
16 0
17 0
18 0
19 0
20 0
21 0
22 0
23 0
24 0
$EndElementData
$ElementData
1
"Attribute:UniformLoadGlobalY"
1
0
3
0
1
24
1 0
2 0
3 0
4 0
5 0
6 0
7 0
8 0
9 0
10 0
11 0
12 0
13 0
14 0
15 0
16 0
17 0
18 0
19 0
20 0
21 0
22 0
23 0
24 0
$EndElementData
$ElementData
1
"Attribute:UniformLoadGlobalZ"
1
0
3
0
1
24
1 0
2 0
3 0
4 0
5 0
6 0
7 0
8 0
9 0
10 0
11 0
12 0
13 0
14 0
15 0
16 0
17 0
18 0
19 0
20 0
21 0
22 0
23 0
24 0
$EndElementData
$ElementData
1
"Attribute:UniformLoadLocalX"
1
0
3
0
1
24
1 0
2 0
3 0
4 0
5 0
6 0
7 0
8 0
9 0
10 0
11 0
12 0
13 0
14 0
15 0
16 0
17 0
18 0
19 0
20 0
21 0
22 0
23 0
24 0
$EndElementData
$ElementData
1
"Attribute:UniformLoadLocalY"
1
0
3
0
1
24
1 0
2 0
3 0
4 0
5 0
6 0
7 0
8 0
9 0
10 0
11 0
12 0
13 0
14 0
15 0
16 0
17 0
18 0
19 0
20 0
21 0
22 0
23 0
24 0
$EndElementData
$ElementData
1
"Attribute:UniformLoadLocalZ"
1
0
3
0
1
24
1 0
2 0
3 0
4 0
5 0
6 0
7 0
8 0
9 0
10 0
11 0
12 0
13 0
14 0
15 0
16 0
17 0
18 0
19 0
20 0
21 0
22 0
23 0
24 0
$EndElementData
$ElementData
1
"BeamOrientation"
1
0
3
0
3
24
1 0 0 0
2 0 0 0
3 0 0 0
4 0 0 0
5 0 0 0
6 0 0 0
7 0 0 0
8 0 0 0
9 0 0 0
10 0 0 0
11 0 0 0
12 0 0 0
13 0 0 0
14 0 0 0
15 0 0 0
16 0 0 0
17 0 0 0
18 0 0 0
19 1 0 0
20 1 0 0
21 1 0 0
22 1 0 0
23 1 0 0
24 1 0 0
$EndElementData
$AnafData
1
1
GLOBAL 3 1
"Gravity"
0 -9.80665 0
$EndAnafData
