$MeshFormat
4.1 0 8
$EndMeshFormat
$PhysicalNames
4
1 1 "Material:Structural Steel S355 (EN 10025)"
1 2 "Section:SHS 100x100x6.3"
1 3 "Section:RHS 120x60x6.3"
1 4 "Section:RHS 150x100x8"
$EndPhysicalNames
$Entities
0 3 0 0
1 0 0.8 0 3 0.8 1.5 2 1 4 0
2 0 0.8 0 3 0.8 1.5 2 1 3 0
3 0 0 0 3 0.8 1.5 2 1 2 0
$EndEntities
$Nodes
1 21 1 21
1 1 0 21
1
2
3
4
5
6
7
8
9
10
11
12
13
14
15
16
17
18
19
20
21
0 0.8 0
0.75 0.8 0
1.5 0.8 0
2.25 0.8 0
3 0.8 0
0 0.8 1.5
0.75 0.8 1.5
1.5 0.8 1.5
2.25 0.8 1.5
3 0.8 1.5
0 0.8 0.75
0.75 0.8 0.75
1.5 0.8 0.75
2.25 0.8 0.75
3 0.8 0.75
0 0 0
1.5 0 0
3 0 0
0 0 1.5
1.5 0 1.5
3 0 1.5
$EndNodes
$Elements
3 24 1 24
1 1 1 8
1 1 2
2 2 3
3 3 4
4 4 5
5 6 7
6 7 8
7 8 9
8 9 10
1 2 1 10
9 1 11
10 11 6
11 2 12
12 12 7
13 3 13
14 13 8
15 4 14
16 14 9
17 5 15
18 15 10
1 3 1 6
19 16 1
20 17 3
21 18 5
22 19 6
23 20 8
24 21 10
$EndElements
$NodeData
1
"Fixity"
1
0
3
0
3
21
1 0 0 0
2 0 0 0
3 0 0 0
4 0 0 0
5 0 0 0
6 0 0 0
7 0 0 0
8 0 0 0
9 0 0 0
10 0 0 0
11 0 0 0
12 0 0 0
13 0 0 0
14 0 0 0
15 0 0 0
16 1 1 1
17 1 1 1
18 1 1 1
19 1 1 1
20 1 1 1
21 1 1 1
$EndNodeData
$NodeData
1
"FixityRotation"
1
0
3
0
3
21
1 0 0 0
2 0 0 0
3 0 0 0
4 0 0 0
5 0 0 0
6 0 0 0
7 0 0 0
8 0 0 0
9 0 0 0
10 0 0 0
11 0 0 0
12 0 0 0
13 0 0 0
14 0 0 0
15 0 0 0
16 1 1 1
17 1 1 1
18 1 1 1
19 1 1 1
20 1 1 1
21 1 1 1
$EndNodeData
$NodeData
1
"NodalForce"
1
0
3
0
3
21
1 0 0 0
2 0 0 0
3 0 0 0
4 0 0 0
5 0 0 0
6 0 0 0
7 0 0 0
8 0 0 0
9 0 0 0
10 0 0 0
11 0 0 0
12 0 -5000 0
13 0 -15000 0
14 0 -5000 0
15 0 0 0
16 0 0 0
17 0 0 0
18 0 0 0
19 0 0 0
20 0 0 0
21 0 0 0
$EndNodeData
$NodeData
1
"NodalMoment"
1
0
3
0
3
21
1 0 0 0
2 0 0 0
3 0 0 0
4 0 0 0
5 0 0 0
6 0 0 0
7 0 0 0
8 0 0 0
9 0 0 0
10 0 0 0
11 0 0 0
12 0 0 0
13 0 3000 0
14 0 0 0
15 0 0 0
16 0 0 0
17 0 0 0
18 0 0 0
19 0 0 0
20 0 0 0
21 0 0 0
$EndNodeData
$ElementData
1
"CrossSectionArea"
1
0
3
0
1
24
1 0.003675327412287179
2 0.003675327412287179
3 0.003675327412287179
4 0.003675327412287179
5 0.003675327412287179
6 0.003675327412287179
7 0.003675327412287179
8 0.003675327412287179
9 0.0020666522655262264
10 0.0020666522655262264
11 0.0020666522655262264
12 0.0020666522655262264
13 0.0020666522655262264
14 0.0020666522655262264
15 0.0020666522655262264
16 0.0020666522655262264
17 0.0020666522655262264
18 0.0020666522655262264
19 0.002318652265526227
20 0.002318652265526227
21 0.002318652265526227
22 0.002318652265526227
23 0.002318652265526227
24 0.002318652265526227
$EndElementData
$ElementData
1
"Attribute:ElementFormulation"
1
0
3
0
1
24
1 2
2 2
3 2
4 2
5 2
6 2
7 2
8 2
9 2
10 2
11 2
12 2
13 2
14 2
15 2
16 2
17 2
18 2
19 2
20 2
21 2
22 2
23 2
24 2
$EndElementData
$ElementData
1
"MaterialID"
1
0
3
0
1
24
1 3
2 3
3 3
4 3
5 3
6 3
7 3
8 3
9 3
10 3
11 3
12 3
13 3
14 3
15 3
16 3
17 3
18 3
19 3
20 3
21 3
22 3
23 3
24 3
$EndElementData
$ElementData
1
"Attribute:SecondMomentY"
1
0
3
0
1
24
1 5.693027644572594e-06
2 5.693027644572594e-06
3 5.693027644572594e-06
4 5.693027644572594e-06
5 5.693027644572594e-06
6 5.693027644572594e-06
7 5.693027644572594e-06
8 5.693027644572594e-06
9 1.1639706690851954e-06
10 1.1639706690851954e-06
11 1.1639706690851954e-06
12 1.1639706690851954e-06
13 1.1639706690851954e-06
14 1.1639706690851954e-06
15 1.1639706690851954e-06
16 1.1639706690851954e-06
17 1.1639706690851954e-06
18 1.1639706690851954e-06
19 3.3557211039232845e-06
20 3.3557211039232845e-06
21 3.3557211039232845e-06
22 3.3557211039232845e-06
23 3.3557211039232845e-06
24 3.3557211039232845e-06
$EndElementData
$ElementData
1
"Attribute:SecondMomentZ"
1
0
3
0
1
24
1 1.0868908413230331e-05
2 1.0868908413230331e-05
3 1.0868908413230331e-05
4 1.0868908413230331e-05
5 1.0868908413230331e-05
6 1.0868908413230331e-05
7 1.0868908413230331e-05
8 1.0868908413230331e-05
9 3.582689061000196e-06
10 3.582689061000196e-06
11 3.582689061000196e-06
12 3.582689061000196e-06
13 3.582689061000196e-06
14 3.582689061000196e-06
15 3.582689061000196e-06
16 3.582689061000196e-06
17 3.582689061000196e-06
18 3.582689061000196e-06
19 3.3557211039232845e-06
20 3.3557211039232845e-06
21 3.3557211039232845e-06
22 3.3557211039232845e-06
23 3.3557211039232845e-06
24 3.3557211039232845e-06
$EndElementData
$ElementData
1
"Attribute:SectionDimension1"
1
0
3
0
1
24
1 0.15
2 0.15
3 0.15
4 0.15
5 0.15
6 0.15
7 0.15
8 0.15
9 0.12
10 0.12
11 0.12
12 0.12
13 0.12
14 0.12
15 0.12
16 0.12
17 0.12
18 0.12
19 0.1
20 0.1
21 0.1
22 0.1
23 0.1
24 0.1
$EndElementData
$ElementData
1
"Attribute:SectionDimension2"
1
0
3
0
1
24
1 0.1
2 0.1
3 0.1
4 0.1
5 0.1
6 0.1
7 0.1
8 0.1
9 0.06
10 0.06
11 0.06
12 0.06
13 0.06
14 0.06
15 0.06
16 0.06
17 0.06
18 0.06
19 0.1
20 0.1
21 0.1
22 0.1
23 0.1
24 0.1
$EndElementData
$ElementData
1
"Attribute:SectionDimension3"
1
0
3
0
1
24
1 0.008
2 0.008
3 0.008
4 0.008
5 0.008
6 0.008
7 0.008
8 0.008
9 0.0063
10 0.0063
11 0.0063
12 0.0063
13 0.0063
14 0.0063
15 0.0063
16 0.0063
17 0.0063
18 0.0063
19 0.0063
20 0.0063
21 0.0063
22 0.0063
23 0.0063
24 0.0063
$EndElementData
$ElementData
1
"Attribute:SectionDimension4"
1
0
3
0
1
24
1 0.012
2 0.012
3 0.012
4 0.012
5 0.012
6 0.012
7 0.012
8 0.012
9 0.00945
10 0.00945
11 0.00945
12 0.00945
13 0.00945
14 0.00945
15 0.00945
16 0.00945
17 0.00945
18 0.00945
19 0.00945
20 0.00945
21 0.00945
22 0.00945
23 0.00945
24 0.00945
$EndElementData
$ElementData
1
"Attribute:SectionDimension5"
1
0
3
0
1
24
1 0.008
2 0.008
3 0.008
4 0.008
5 0.008
6 0.008
7 0.008
8 0.008
9 0.0063
10 0.0063
11 0.0063
12 0.0063
13 0.0063
14 0.0063
15 0.0063
16 0.0063
17 0.0063
18 0.0063
19 0.0063
20 0.0063
21 0.0063
22 0.0063
23 0.0063
24 0.0063
$EndElementData
$ElementData
1
"Attribute:SectionShape"
1
0
3
0
1
24
1 4
2 4
3 4
4 4
5 4
6 4
7 4
8 4
9 4
10 4
11 4
12 4
13 4
14 4
15 4
16 4
17 4
18 4
19 4
20 4
21 4
22 4
23 4
24 4
$EndElementData
$ElementData
1
"Attribute:ShearAreaY"
1
0
3
0
1
24
1 0.0020616263116318683
2 0.0020616263116318683
3 0.0020616263116318683
4 0.0020616263116318683
5 0.0020616263116318683
6 0.0020616263116318683
7 0.0020616263116318683
8 0.0020616263116318683
9 0.001324963666377315
10 0.001324963666377315
11 0.001324963666377315
12 0.001324963666377315
13 0.001324963666377315
14 0.001324963666377315
15 0.001324963666377315
16 0.001324963666377315
17 0.001324963666377315
18 0.001324963666377315
19 0.0010097983065943366
20 0.0010097983065943366
21 0.0010097983065943366
22 0.0010097983065943366
23 0.0010097983065943366
24 0.0010097983065943366
$EndElementData
$ElementData
1
"Attribute:ShearAreaZ"
1
0
3
0
1
24
1 0.001136599962239897
2 0.001136599962239897
3 0.001136599962239897
4 0.001136599962239897
5 0.001136599962239897
6 0.001136599962239897
7 0.001136599962239897
8 0.001136599962239897
9 0.00046989302409791635
10 0.00046989302409791635
11 0.00046989302409791635
12 0.00046989302409791635
13 0.00046989302409791635
14 0.00046989302409791635
15 0.00046989302409791635
16 0.00046989302409791635
17 0.00046989302409791635
18 0.00046989302409791635
19 0.0010097983065943366
20 0.0010097983065943366
21 0.0010097983065943366
22 0.0010097983065943366
23 0.0010097983065943366
24 0.0010097983065943366
$EndElementData
$ElementData
1
"Attribute:TorsionConstant"
1
0
3
0
1
24
1 1.2032272402923005e-05
2 1.2032272402923005e-05
3 1.2032272402923005e-05
4 1.2032272402923005e-05
5 1.2032272402923005e-05
6 1.2032272402923005e-05
7 1.2032272402923005e-05
8 1.2032272402923005e-05
9 2.9000714188340457e-06
10 2.9000714188340457e-06
11 2.9000714188340457e-06
12 2.9000714188340457e-06
13 2.9000714188340457e-06
14 2.9000714188340457e-06
15 2.9000714188340457e-06
16 2.9000714188340457e-06
17 2.9000714188340457e-06
18 2.9000714188340457e-06
19 5.3417966873861325e-06
20 5.3417966873861325e-06
21 5.3417966873861325e-06
22 5.3417966873861325e-06
23 5.3417966873861325e-06
24 5.3417966873861325e-06
$EndElementData
$ElementData
1
"Attribute:UniformLoadGlobalX"
1
0
3
0
1
24
1 0
2 0
3 0
4 0
5 0
6 0
7 0
8 0
9 0
10 0
11 0
12 0
13 0
14 0
15 0
16 0
17 0
18 0
19 0
20 0
21 0
22 0
23 0
24 0
$EndElementData
$ElementData
1
"Attribute:UniformLoadGlobalY"
1
0
3
0
1
24
1 0
2 0
3 0
4 0
5 0
6 0
7 0
8 0
9 0
10 0
11 0
12 0
13 0
14 0
15 0
16 0
17 0
18 0
19 0
20 0
21 0
22 0
23 0
24 0
$EndElementData
$ElementData
1
"Attribute:UniformLoadGlobalZ"
1
0
3
0
1
24
1 0
2 0
3 0
4 0
5 0
6 0
7 0
8 0
9 0
10 0
11 0
12 0
13 0
14 0
15 0
16 0
17 0
18 0
19 0
20 0
21 0
22 0
23 0
24 0
$EndElementData
$ElementData
1
"Attribute:UniformLoadLocalX"
1
0
3
0
1
24
1 0
2 0
3 0
4 0
5 0
6 0
7 0
8 0
9 0
10 0
11 0
12 0
13 0
14 0
15 0
16 0
17 0
18 0
19 0
20 0
21 0
22 0
23 0
24 0
$EndElementData
$ElementData
1
"Attribute:UniformLoadLocalY"
1
0
3
0
1
24
1 0
2 0
3 0
4 0
5 0
6 0
7 0
8 0
9 0
10 0
11 0
12 0
13 0
14 0
15 0
16 0
17 0
18 0
19 0
20 0
21 0
22 0
23 0
24 0
$EndElementData
$ElementData
1
"Attribute:UniformLoadLocalZ"
1
0
3
0
1
24
1 0
2 0
3 0
4 0
5 0
6 0
7 0
8 0
9 0
10 0
11 0
12 0
13 0
14 0
15 0
16 0
17 0
18 0
19 0
20 0
21 0
22 0
23 0
24 0
$EndElementData
$ElementData
1
"BeamOrientation"
1
0
3
0
3
24
1 0 0 0
2 0 0 0
3 0 0 0
4 0 0 0
5 0 0 0
6 0 0 0
7 0 0 0
8 0 0 0
9 0 0 0
10 0 0 0
11 0 0 0
12 0 0 0
13 0 0 0
14 0 0 0
15 0 0 0
16 0 0 0
17 0 0 0
18 0 0 0
19 1 0 0
20 1 0 0
21 1 0 0
22 1 0 0
23 1 0 0
24 1 0 0
$EndElementData
$AnafData
1
1
GLOBAL 3 1
"Gravity"
0 -9.80665 0
$EndAnafData
