$MeshFormat
4.1 0 8
$EndMeshFormat
$PhysicalNames
3
1 1 "Material:Aluminum 6061-T6"
1 2 "Section:Box 120x60x4"
1 3 "Section:Box 200x100x6"
$EndPhysicalNames
$Entities
0 2 0 0
1 0 0.6 0 2 0.6 0 2 1 3 0
2 0 0 0 2 0.6 0 2 1 2 0
$EndEntities
$Nodes
1 11 1 11
1 1 0 11
1
2
3
4
5
6
7
8
9
10
11
0 0.6 0
0.25 0.6 0
0.5 0.6 0
0.75 0.6 0
1 0.6 0
1.25 0.6 0
1.5 0.6 0
1.75 0.6 0
2 0.6 0
0 0 0
2 0 0
$EndNodes
$Elements
2 10 1 10
1 1 1 8
1 1 2
2 2 3
3 3 4
4 4 5
5 5 6
6 6 7
7 7 8
8 8 9
1 2 1 2
9 10 1
10 11 9
$EndElements
$NodeData
1
"Displacement"
1
0
3
0
3
11
1 1.149806016709553e-06 -7.174205201163563e-06 0.0002780789518421286
2 8.623545125322028e-07 -0.00010137411621775709 0.0003457298509204839
3 5.749030083548526e-07 -0.000187168171581842 0.000407087926402649
4 2.874515041775024e-07 -0.0002505013696688598 0.00045232598271127624
5 1.5228105197535354e-19 -0.00027761512141597535 0.0004716168242690175
6 -2.87451504177198e-07 -0.0002505013696688597 0.0004523259827112767
7 -5.749030083545484e-07 -0.0001871681715818418 0.00040708792640265
8 -8.623545125318988e-07 -0.00010137411621775689 0.0003457298509204852
9 -1.1498060167092493e-06 -7.174205201163523e-06 0.0002780789518421301
10 0 0 0
11 0 0 0
$EndNodeData
$NodeData
1
"Rotation"
1
0
3
0
3
11
1 0.0008138914698161694 -0.0002579203067766088 -0.0003550071162144884
2 0.0009156756405351254 -0.0002524034035465445 -0.0003502889343464938
3 0.0010174598112540811 -0.00020757771800708846 -0.0002887579208568186
4 0.001119243981973037 -0.0001234432501582406 -0.00017159972599235608
5 0.001221028152691993 -1.0100425964127096e-18 3.991495173784042e-19
6 0.0011192439819730383 0.00012344325015823862 0.00017159972599235654
7 0.0010174598112540833 0.00020757771800708675 0.00028875792085681864
8 0.000915675640535128 0.0002524034035465435 0.00035028893434649344
9 0.0008138914698161725 0.0002579203067766082 0.0003550071162144878
10 0 0 0
11 0 0 0
$EndNodeData
$ElementData
1
"BeamSectionForce"
1
0
3
0
12
10
1 -266.44549023512457 -1089.053094402291 250.00000000000364 150.00000000000114 -22.478259141555355 -113.05535789382623 -266.44549023512457 -1066.7898208017189 250.00000000000364 150.00000000000114 40.02174085844604 156.42500650667466
2 -266.4454902351247 -1066.7898208017193 249.9999999999941 150.0000000000009 40.02174085844608 156.42500650667705 -266.4454902351247 -1044.5265472011472 249.9999999999941 150.0000000000009 102.52174085844467 420.3395525070348
3 -266.4454902351247 -1044.5265472011417 249.99999999999898 150.0000000000009 102.52174085844493 420.3395525070355 -266.4454902351247 -1022.2632736005696 249.99999999999898 150.0000000000009 165.02174085844513 678.6882801072502
4 -266.4454902351246 -1022.263273600583 250.00000000000273 150.00000000000136 165.02174085844476 678.6882801072494 -266.4454902351246 -1000.0000000000109 250.00000000000273 150.00000000000136 227.52174085844547 931.4711893073236
5 -266.44549023512474 1000.0000000000048 -250.00000000000045 -149.99999999999955 227.52174085844555 931.4711893073213 -266.44549023512474 1022.2632736005769 -250.00000000000045 -149.99999999999955 165.02174085844496 678.6882801072486
6 -266.4454902351249 1022.2632736005737 -250.00000000000068 -149.99999999999955 165.02174085844592 678.6882801072486 -266.4454902351249 1044.5265472011458 -250.00000000000068 -149.99999999999955 102.5217408584457 420.339552507033
7 -266.4454902351249 1044.5265472011563 -249.9999999999934 -150.00000000000023 102.5217408584455 420.33955250703355 -266.4454902351249 1066.7898208017284 -249.9999999999934 -150.00000000000023 40.021740858447174 156.4250065066733
8 -266.4454902351248 1066.7898208017116 -250.0000000000059 -150.00000000000045 40.021740858446606 156.4250065066733 -266.4454902351248 1089.0530944022837 -250.0000000000059 -150.00000000000045 -22.478259141554872 -113.05535789382634
9 -1110.2587025629039 250.0000000000025 -266.4454902351247 -22.47825914155486 46.81193624724824 300.0000000000022 -1089.0530944022937 250.0000000000025 -266.4454902351247 -22.47825914155486 -113.05535789382658 150.00000000000114
10 -1110.2587025628977 250.00000000000614 266.445490235125 22.47825914155481 -46.81193624724839 300.0000000000043 -1089.0530944022876 250.00000000000614 266.445490235125 22.47825914155481 113.05535789382662 150.00000000000068
$EndElementData
$ElementData
1
"AxialForce"
1
0
3
0
1
10
1 -266.44549023512457
2 -266.4454902351247
3 -266.4454902351247
4 -266.4454902351246
5 -266.44549023512474
6 -266.4454902351249
7 -266.4454902351249
8 -266.4454902351248
9 -1099.6558984825988
10 -1099.6558984825926
$EndElementData
$ElementData
1
"VonMisesStress"
1
0
3
0
1
10
1 2872500.059295582
2 4161468.3768774797
3 5836466.966445764
4 7623202.400386551
5 7623202.400386532
6 5836466.966445769
7 4161468.3768774783
8 2872500.059295574
9 9976606.047935173
10 9976606.047935225
$EndElementData
$NodeData
1
"Fixity"
1
0
3
0
3
11
1 0 0 0
2 0 0 0
3 0 0 0
4 0 0 0
5 0 0 0
6 0 0 0
7 0 0 0
8 0 0 0
9 0 0 0
10 1 1 1
11 1 1 1
$EndNodeData
$NodeData
1
"FixityRotation"
1
0
3
0
3
11
1 0 0 0
2 0 0 0
3 0 0 0
4 0 0 0
5 0 0 0
6 0 0 0
7 0 0 0
8 0 0 0
9 0 0 0
10 1 1 1
11 1 1 1
$EndNodeData
$NodeData
1
"NodalForce"
1
0
3
0
3
11
1 0 0 0
2 0 0 0
3 0 0 0
4 0 0 0
5 0 -2000 500
6 0 0 0
7 0 0 0
8 0 0 0
9 0 0 0
10 0 0 0
11 0 0 0
$EndNodeData
$NodeData
1
"NodalMoment"
1
0
3
0
3
11
1 0 0 0
2 0 0 0
3 0 0 0
4 0 0 0
5 300 0 0
6 0 0 0
7 0 0 0
8 0 0 0
9 0 0 0
10 0 0 0
11 0 0 0
$EndNodeData
$ElementData
1
"CrossSectionArea"
1
0
3
0
1
10
1 0.0033632920065877047
2 0.0033632920065877047
3 0.0033632920065877047
4 0.0033632920065877047
5 0.0033632920065877047
6 0.0033632920065877047
7 0.0033632920065877047
8 0.0033632920065877047
9 0.0013347964473723111
10 0.0013347964473723111
$EndElementData
$ElementData
1
"Attribute:ElementFormulation"
1
0
3
0
1
10
1 2
2 2
3 2
4 2
5 2
6 2
7 2
8 2
9 2
10 2
$EndElementData
$ElementData
1
"MaterialID"
1
0
3
0
1
10
1 1
2 1
3 1
4 1
5 1
6 1
7 1
8 1
9 1
10 1
$EndElementData
$ElementData
1
"Attribute:SecondMomentY"
1
0
3
0
1
10
1 5.769141797809077e-06
2 5.769141797809077e-06
3 5.769141797809077e-06
4 5.769141797809077e-06
5 5.769141797809077e-06
6 5.769141797809077e-06
7 5.769141797809077e-06
8 5.769141797809077e-06
9 8.124707428089777e-07
10 8.124707428089777e-07
$EndElementData
$ElementData
1
"Attribute:SecondMomentZ"
1
0
3
0
1
10
1 1.703308143931157e-05
2 1.703308143931157e-05
3 1.703308143931157e-05
4 1.703308143931157e-05
5 1.703308143931157e-05
6 1.703308143931157e-05
7 1.703308143931157e-05
8 1.703308143931157e-05
9 2.40739885597551e-06
10 2.40739885597551e-06
$EndElementData
$ElementData
1
"Attribute:SectionDimension1"
1
0
3
0
1
10
1 0.2
2 0.2
3 0.2
4 0.2
5 0.2
6 0.2
7 0.2
8 0.2
9 0.12
10 0.12
$EndElementData
$ElementData
1
"Attribute:SectionDimension2"
1
0
3
0
1
10
1 0.1
2 0.1
3 0.1
4 0.1
5 0.1
6 0.1
7 0.1
8 0.1
9 0.06
10 0.06
$EndElementData
$ElementData
1
"Attribute:SectionDimension3"
1
0
3
0
1
10
1 0.006
2 0.006
3 0.006
4 0.006
5 0.006
6 0.006
7 0.006
8 0.006
9 0.004
10 0.004
$EndElementData
$ElementData
1
"Attribute:SectionDimension4"
1
0
3
0
1
10
1 0.012
2 0.012
3 0.012
4 0.012
5 0.012
6 0.012
7 0.012
8 0.012
9 0.008
10 0.008
$EndElementData
$ElementData
1
"Attribute:SectionDimension5"
1
0
3
0
1
10
1 0.006
2 0.006
3 0.006
4 0.006
5 0.006
6 0.006
7 0.006
8 0.006
9 0.004
10 0.004
$EndElementData
$ElementData
1
"Attribute:SectionShape"
1
0
3
0
1
10
1 4
2 4
3 4
4 4
5 4
6 4
7 4
8 4
9 4
10 4
$EndElementData
$ElementData
1
"Attribute:ShearAreaY"
1
0
3
0
1
10
1 0.002140588373979719
2 0.002140588373979719
3 0.002140588373979719
4 0.002140588373979719
5 0.002140588373979719
6 0.002140588373979719
7 0.002140588373979719
8 0.002140588373979719
9 0.0008506937422671438
10 0.0008506937422671438
$EndElementData
$ElementData
1
"Attribute:ShearAreaZ"
1
0
3
0
1
10
1 0.0007903482879247669
2 0.0007903482879247669
3 0.0007903482879247669
4 0.0007903482879247669
5 0.0007903482879247669
6 0.0007903482879247669
7 0.0007903482879247669
8 0.0007903482879247669
9 0.00031247790836282926
10 0.00031247790836282926
$EndElementData
$ElementData
1
"Attribute:TorsionConstant"
1
0
3
0
1
10
1 1.4170255375859663e-05
2 1.4170255375859663e-05
3 1.4170255375859663e-05
4 1.4170255375859663e-05
5 1.4170255375859663e-05
6 1.4170255375859663e-05
7 1.4170255375859663e-05
8 1.4170255375859663e-05
9 2.0111989769075784e-06
10 2.0111989769075784e-06
$EndElementData
$ElementData
1
"Attribute:UniformLoadGlobalX"
1
0
3
0
1
10
1 0
2 0
3 0
4 0
5 0
6 0
7 0
8 0
9 0
10 0
$EndElementData
$ElementData
1
"Attribute:UniformLoadGlobalY"
1
0
3
0
1
10
1 0
2 0
3 0
4 0
5 0
6 0
7 0
8 0
9 0
10 0
$EndElementData
$ElementData
1
"Attribute:UniformLoadGlobalZ"
1
0
3
0
1
10
1 0
2 0
3 0
4 0
5 0
6 0
7 0
8 0
9 0
10 0
$EndElementData
$ElementData
1
"Attribute:UniformLoadLocalX"
1
0
3
0
1
10
1 0
2 0
3 0
4 0
5 0
6 0
7 0
8 0
9 0
10 0
$EndElementData
$ElementData
1
"Attribute:UniformLoadLocalY"
1
0
3
0
1
10
1 0
2 0
3 0
4 0
5 0
6 0
7 0
8 0
9 0
10 0
$EndElementData
$ElementData
1
"Attribute:UniformLoadLocalZ"
1
0
3
0
1
10
1 0
2 0
3 0
4 0
5 0
6 0
7 0
8 0
9 0
10 0
$EndElementData
$ElementData
1
"BeamOrientation"
1
0
3
0
3
10
1 0 0 0
2 0 0 0
3 0 0 0
4 0 0 0
5 0 0 0
6 0 0 0
7 0 0 0
8 0 0 0
9 0 0 1
10 0 0 1
$EndElementData
$AnafData
1
1
GLOBAL 3 1
"Gravity"
0 -9.80665 0
$EndAnafData
