$MeshFormat
4.1 0 8
$EndMeshFormat
$PhysicalNames
4
1 1 "Material:Structural Steel S355 (EN 10025)"
1 2 "Section:HEB 600"
1 3 "Section:Tube 600x12"
1 4 "Section:Tube 1000x16"
$EndPhysicalNames
$Entities
0 3 0 0
1 -10 0 -10 10 40 10 2 1 4 0
2 -10 0 -10 10 40 10 2 1 3 0
3 -6 40 -6 6 40 6 2 1 2 0
$EndEntities
$Nodes
1 20 1 20
1 1 0 20
1
2
3
4
5
6
7
8
9
10
11
12
13
14
15
16
17
18
19
20
-10 0 -10
-9 10 -9
-8 20 -8
-7 30 -7
-6 40 -6
10 0 -10
9 10 -9
8 20 -8
7 30 -7
6 40 -6
10 0 10
9 10 9
8 20 8
7 30 7
6 40 6
-10 0 10
-9 10 9
-8 20 8
-7 30 7
-6 40 6
$EndNodes
$Elements
3 64 1 64
1 1 1 16
1 1 2
2 2 3
3 3 4
4 4 5
5 6 7
6 7 8
7 8 9
8 9 10
9 11 12
10 12 13
11 13 14
12 14 15
13 16 17
14 17 18
15 18 19
16 19 20
1 2 1 44
17 2 7
18 7 12
19 12 17
20 17 2
21 3 8
22 8 13
23 13 18
24 18 3
25 4 9
26 9 14
27 14 19
28 19 4
33 1 7
34 6 2
35 6 12
36 11 7
37 11 17
38 16 12
39 16 2
40 1 17
41 2 8
42 7 3
43 7 13
44 12 8
45 12 18
46 17 13
47 17 3
48 2 18
49 3 9
50 8 4
51 8 14
52 13 9
53 13 19
54 18 14
55 18 4
56 3 19
57 4 10
58 9 5
59 9 15
60 14 10
61 14 20
62 19 15
63 19 5
64 4 20
1 3 1 4
29 5 10
30 10 15
31 15 20
32 20 5
$EndElements
$NodeData
1
"Fixity"
1
0
3
0
3
20
1 1 1 1
2 0 0 0
3 0 0 0
4 0 0 0
5 0 0 0
6 1 1 1
7 0 0 0
8 0 0 0
9 0 0 0
10 0 0 0
11 1 1 1
12 0 0 0
13 0 0 0
14 0 0 0
15 0 0 0
16 1 1 1
17 0 0 0
18 0 0 0
19 0 0 0
20 0 0 0
$EndNodeData
$NodeData
1
"FixityRotation"
1
0
3
0
3
20
1 1 1 1
2 0 0 0
3 0 0 0
4 0 0 0
5 0 0 0
6 1 1 1
7 0 0 0
8 0 0 0
9 0 0 0
10 0 0 0
11 1 1 1
12 0 0 0
13 0 0 0
14 0 0 0
15 0 0 0
16 1 1 1
17 0 0 0
18 0 0 0
19 0 0 0
20 0 0 0
$EndNodeData
$NodeData
1
"NodalForce"
1
0
3
0
3
20
1 0 0 0
2 150000 0 0
3 150000 0 0
4 150000 0 0
5 0 0 0
6 0 0 0
7 0 0 0
8 0 0 0
9 0 0 0
10 0 0 0
11 0 0 0
12 0 0 0
13 0 0 0
14 0 0 0
15 0 0 0
16 0 0 0
17 150000 0 0
18 150000 0 0
19 150000 0 0
20 0 0 0
$EndNodeData
$ElementData
1
"CrossSectionArea"
1
0
3
0
1
64
1 0.049461234738117726
2 0.049461234738117726
3 0.049461234738117726
4 0.049461234738117726
5 0.049461234738117726
6 0.049461234738117726
7 0.049461234738117726
8 0.049461234738117726
9 0.049461234738117726
10 0.049461234738117726
11 0.049461234738117726
12 0.049461234738117726
13 0.049461234738117726
14 0.049461234738117726
15 0.049461234738117726
16 0.049461234738117726
17 0.0221670777637296
18 0.0221670777637296
19 0.0221670777637296
20 0.0221670777637296
21 0.0221670777637296
22 0.0221670777637296
23 0.0221670777637296
24 0.0221670777637296
25 0.0221670777637296
26 0.0221670777637296
27 0.0221670777637296
28 0.0221670777637296
29 0.026995778955533033
30 0.026995778955533033
31 0.026995778955533033
32 0.026995778955533033
33 0.0221670777637296
34 0.0221670777637296
35 0.0221670777637296
36 0.0221670777637296
37 0.0221670777637296
38 0.0221670777637296
39 0.0221670777637296
40 0.0221670777637296
41 0.0221670777637296
42 0.0221670777637296
43 0.0221670777637296
44 0.0221670777637296
45 0.0221670777637296
46 0.0221670777637296
47 0.0221670777637296
48 0.0221670777637296
49 0.0221670777637296
50 0.0221670777637296
51 0.0221670777637296
52 0.0221670777637296
53 0.0221670777637296
54 0.0221670777637296
55 0.0221670777637296
56 0.0221670777637296
57 0.0221670777637296
58 0.0221670777637296
59 0.0221670777637296
60 0.0221670777637296
61 0.0221670777637296
62 0.0221670777637296
63 0.0221670777637296
64 0.0221670777637296
$EndElementData
$ElementData
1
"Attribute:ElementFormulation"
1
0
3
0
1
64
1 1
2 1
3 1
4 1
5 1
6 1
7 1
8 1
9 1
10 1
11 1
12 1
13 1
14 1
15 1
16 1
17 1
18 1
19 1
20 1
21 1
22 1
23 1
24 1
25 1
26 1
27 1
28 1
29 1
30 1
31 1
32 1
33 1
34 1
35 1
36 1
37 1
38 1
39 1
40 1
41 1
42 1
43 1
44 1
45 1
46 1
47 1
48 1
49 1
50 1
51 1
52 1
53 1
54 1
55 1
56 1
57 1
58 1
59 1
60 1
61 1
62 1
63 1
64 1
$EndElementData
$ElementData
1
"MaterialID"
1
0
3
0
1
64
1 3
2 3
3 3
4 3
5 3
6 3
7 3
8 3
9 3
10 3
11 3
12 3
13 3
14 3
15 3
16 3
17 3
18 3
19 3
20 3
21 3
22 3
23 3
24 3
25 3
26 3
27 3
28 3
29 3
30 3
31 3
32 3
33 3
34 3
35 3
36 3
37 3
38 3
39 3
40 3
41 3
42 3
43 3
44 3
45 3
46 3
47 3
48 3
49 3
50 3
51 3
52 3
53 3
54 3
55 3
56 3
57 3
58 3
59 3
60 3
61 3
62 3
63 3
64 3
$EndElementData
$ElementData
1
"Attribute:SecondMomentY"
1
0
3
0
1
64
1 0.005987974922335487
2 0.005987974922335487
3 0.005987974922335487
4 0.005987974922335487
5 0.005987974922335487
6 0.005987974922335487
7 0.005987974922335487
8 0.005987974922335487
9 0.005987974922335487
10 0.005987974922335487
11 0.005987974922335487
12 0.005987974922335487
13 0.005987974922335487
14 0.005987974922335487
15 0.005987974922335487
16 0.005987974922335487
17 0.0009584157741926139
18 0.0009584157741926139
19 0.0009584157741926139
20 0.0009584157741926139
21 0.0009584157741926139
22 0.0009584157741926139
23 0.0009584157741926139
24 0.0009584157741926139
25 0.0009584157741926139
26 0.0009584157741926139
27 0.0009584157741926139
28 0.0009584157741926139
29 0.00013530245778963672
30 0.00013530245778963672
31 0.00013530245778963672
32 0.00013530245778963672
33 0.0009584157741926139
34 0.0009584157741926139
35 0.0009584157741926139
36 0.0009584157741926139
37 0.0009584157741926139
38 0.0009584157741926139
39 0.0009584157741926139
40 0.0009584157741926139
41 0.0009584157741926139
42 0.0009584157741926139
43 0.0009584157741926139
44 0.0009584157741926139
45 0.0009584157741926139
46 0.0009584157741926139
47 0.0009584157741926139
48 0.0009584157741926139
49 0.0009584157741926139
50 0.0009584157741926139
51 0.0009584157741926139
52 0.0009584157741926139
53 0.0009584157741926139
54 0.0009584157741926139
55 0.0009584157741926139
56 0.0009584157741926139
57 0.0009584157741926139
58 0.0009584157741926139
59 0.0009584157741926139
60 0.0009584157741926139
61 0.0009584157741926139
62 0.0009584157741926139
63 0.0009584157741926139
64 0.0009584157741926139
$EndElementData
$ElementData
1
"Attribute:SecondMomentZ"
1
0
3
0
1
64
1 0.005987974922335487
2 0.005987974922335487
3 0.005987974922335487
4 0.005987974922335487
5 0.005987974922335487
6 0.005987974922335487
7 0.005987974922335487
8 0.005987974922335487
9 0.005987974922335487
10 0.005987974922335487
11 0.005987974922335487
12 0.005987974922335487
13 0.005987974922335487
14 0.005987974922335487
15 0.005987974922335487
16 0.005987974922335487
17 0.0009584157741926139
18 0.0009584157741926139
19 0.0009584157741926139
20 0.0009584157741926139
21 0.0009584157741926139
22 0.0009584157741926139
23 0.0009584157741926139
24 0.0009584157741926139
25 0.0009584157741926139
26 0.0009584157741926139
27 0.0009584157741926139
28 0.0009584157741926139
29 0.001710411108759916
30 0.001710411108759916
31 0.001710411108759916
32 0.001710411108759916
33 0.0009584157741926139
34 0.0009584157741926139
35 0.0009584157741926139
36 0.0009584157741926139
37 0.0009584157741926139
38 0.0009584157741926139
39 0.0009584157741926139
40 0.0009584157741926139
41 0.0009584157741926139
42 0.0009584157741926139
43 0.0009584157741926139
44 0.0009584157741926139
45 0.0009584157741926139
46 0.0009584157741926139
47 0.0009584157741926139
48 0.0009584157741926139
49 0.0009584157741926139
50 0.0009584157741926139
51 0.0009584157741926139
52 0.0009584157741926139
53 0.0009584157741926139
54 0.0009584157741926139
55 0.0009584157741926139
56 0.0009584157741926139
57 0.0009584157741926139
58 0.0009584157741926139
59 0.0009584157741926139
60 0.0009584157741926139
61 0.0009584157741926139
62 0.0009584157741926139
63 0.0009584157741926139
64 0.0009584157741926139
$EndElementData
$ElementData
1
"Attribute:SectionDimension1"
1
0
3
0
1
64
1 1
2 1
3 1
4 1
5 1
6 1
7 1
8 1
9 1
10 1
11 1
12 1
13 1
14 1
15 1
16 1
17 0.6
18 0.6
19 0.6
20 0.6
21 0.6
22 0.6
23 0.6
24 0.6
25 0.6
26 0.6
27 0.6
28 0.6
29 0.6
30 0.6
31 0.6
32 0.6
33 0.6
34 0.6
35 0.6
36 0.6
37 0.6
38 0.6
39 0.6
40 0.6
41 0.6
42 0.6
43 0.6
44 0.6
45 0.6
46 0.6
47 0.6
48 0.6
49 0.6
50 0.6
51 0.6
52 0.6
53 0.6
54 0.6
55 0.6
56 0.6
57 0.6
58 0.6
59 0.6
60 0.6
61 0.6
62 0.6
63 0.6
64 0.6
$EndElementData
$ElementData
1
"Attribute:SectionDimension2"
1
0
3
0
1
64
1 0.016
2 0.016
3 0.016
4 0.016
5 0.016
6 0.016
7 0.016
8 0.016
9 0.016
10 0.016
11 0.016
12 0.016
13 0.016
14 0.016
15 0.016
16 0.016
17 0.012
18 0.012
19 0.012
20 0.012
21 0.012
22 0.012
23 0.012
24 0.012
25 0.012
26 0.012
27 0.012
28 0.012
29 0.3
30 0.3
31 0.3
32 0.3
33 0.012
34 0.012
35 0.012
36 0.012
37 0.012
38 0.012
39 0.012
40 0.012
41 0.012
42 0.012
43 0.012
44 0.012
45 0.012
46 0.012
47 0.012
48 0.012
49 0.012
50 0.012
51 0.012
52 0.012
53 0.012
54 0.012
55 0.012
56 0.012
57 0.012
58 0.012
59 0.012
60 0.012
61 0.012
62 0.012
63 0.012
64 0.012
$EndElementData
$ElementData
1
"Attribute:SectionDimension3"
1
0
3
0
1
64
1 0
2 0
3 0
4 0
5 0
6 0
7 0
8 0
9 0
10 0
11 0
12 0
13 0
14 0
15 0
16 0
17 0
18 0
19 0
20 0
21 0
22 0
23 0
24 0
25 0
26 0
27 0
28 0
29 0.0155
30 0.0155
31 0.0155
32 0.0155
33 0
34 0
35 0
36 0
37 0
38 0
39 0
40 0
41 0
42 0
43 0
44 0
45 0
46 0
47 0
48 0
49 0
50 0
51 0
52 0
53 0
54 0
55 0
56 0
57 0
58 0
59 0
60 0
61 0
62 0
63 0
64 0
$EndElementData
$ElementData
1
"Attribute:SectionDimension4"
1
0
3
0
1
64
1 0
2 0
3 0
4 0
5 0
6 0
7 0
8 0
9 0
10 0
11 0
12 0
13 0
14 0
15 0
16 0
17 0
18 0
19 0
20 0
21 0
22 0
23 0
24 0
25 0
26 0
27 0
28 0
29 0.03
30 0.03
31 0.03
32 0.03
33 0
34 0
35 0
36 0
37 0
38 0
39 0
40 0
41 0
42 0
43 0
44 0
45 0
46 0
47 0
48 0
49 0
50 0
51 0
52 0
53 0
54 0
55 0
56 0
57 0
58 0
59 0
60 0
61 0
62 0
63 0
64 0
$EndElementData
$ElementData
1
"Attribute:SectionDimension5"
1
0
3
0
1
64
1 0
2 0
3 0
4 0
5 0
6 0
7 0
8 0
9 0
10 0
11 0
12 0
13 0
14 0
15 0
16 0
17 0
18 0
19 0
20 0
21 0
22 0
23 0
24 0
25 0
26 0
27 0
28 0
29 0.027
30 0.027
31 0.027
32 0.027
33 0
34 0
35 0
36 0
37 0
38 0
39 0
40 0
41 0
42 0
43 0
44 0
45 0
46 0
47 0
48 0
49 0
50 0
51 0
52 0
53 0
54 0
55 0
56 0
57 0
58 0
59 0
60 0
61 0
62 0
63 0
64 0
$EndElementData
$ElementData
1
"Attribute:SectionShape"
1
0
3
0
1
64
1 3
2 3
3 3
4 3
5 3
6 3
7 3
8 3
9 3
10 3
11 3
12 3
13 3
14 3
15 3
16 3
17 3
18 3
19 3
20 3
21 3
22 3
23 3
24 3
25 3
26 3
27 3
28 3
29 5
30 5
31 5
32 5
33 3
34 3
35 3
36 3
37 3
38 3
39 3
40 3
41 3
42 3
43 3
44 3
45 3
46 3
47 3
48 3
49 3
50 3
51 3
52 3
53 3
54 3
55 3
56 3
57 3
58 3
59 3
60 3
61 3
62 3
63 3
64 3
$EndElementData
$ElementData
1
"Attribute:ShearAreaY"
1
0
3
0
1
64
1 0.026255875674694704
2 0.026255875674694704
3 0.026255875674694704
4 0.026255875674694704
5 0.026255875674694704
6 0.026255875674694704
7 0.026255875674694704
8 0.026255875674694704
9 0.026255875674694704
10 0.026255875674694704
11 0.026255875674694704
12 0.026255875674694704
13 0.026255875674694704
14 0.026255875674694704
15 0.026255875674694704
16 0.026255875674694704
17 0.01176998641119943
18 0.01176998641119943
19 0.01176998641119943
20 0.01176998641119943
21 0.01176998641119943
22 0.01176998641119943
23 0.01176998641119943
24 0.01176998641119943
25 0.01176998641119943
26 0.01176998641119943
27 0.01176998641119943
28 0.01176998641119943
29 0.008633031428391261
30 0.008633031428391261
31 0.008633031428391261
32 0.008633031428391261
33 0.01176998641119943
34 0.01176998641119943
35 0.01176998641119943
36 0.01176998641119943
37 0.01176998641119943
38 0.01176998641119943
39 0.01176998641119943
40 0.01176998641119943
41 0.01176998641119943
42 0.01176998641119943
43 0.01176998641119943
44 0.01176998641119943
45 0.01176998641119943
46 0.01176998641119943
47 0.01176998641119943
48 0.01176998641119943
49 0.01176998641119943
50 0.01176998641119943
51 0.01176998641119943
52 0.01176998641119943
53 0.01176998641119943
54 0.01176998641119943
55 0.01176998641119943
56 0.01176998641119943
57 0.01176998641119943
58 0.01176998641119943
59 0.01176998641119943
60 0.01176998641119943
61 0.01176998641119943
62 0.01176998641119943
63 0.01176998641119943
64 0.01176998641119943
$EndElementData
$ElementData
1
"Attribute:ShearAreaZ"
1
0
3
0
1
64
1 0.026255875674694704
2 0.026255875674694704
3 0.026255875674694704
4 0.026255875674694704
5 0.026255875674694704
6 0.026255875674694704
7 0.026255875674694704
8 0.026255875674694704
9 0.026255875674694704
10 0.026255875674694704
11 0.026255875674694704
12 0.026255875674694704
13 0.026255875674694704
14 0.026255875674694704
15 0.026255875674694704
16 0.026255875674694704
17 0.01176998641119943
18 0.01176998641119943
19 0.01176998641119943
20 0.01176998641119943
21 0.01176998641119943
22 0.01176998641119943
23 0.01176998641119943
24 0.01176998641119943
25 0.01176998641119943
26 0.01176998641119943
27 0.01176998641119943
28 0.01176998641119943
29 0.015294117647058823
30 0.015294117647058823
31 0.015294117647058823
32 0.015294117647058823
33 0.01176998641119943
34 0.01176998641119943
35 0.01176998641119943
36 0.01176998641119943
37 0.01176998641119943
38 0.01176998641119943
39 0.01176998641119943
40 0.01176998641119943
41 0.01176998641119943
42 0.01176998641119943
43 0.01176998641119943
44 0.01176998641119943
45 0.01176998641119943
46 0.01176998641119943
47 0.01176998641119943
48 0.01176998641119943
49 0.01176998641119943
50 0.01176998641119943
51 0.01176998641119943
52 0.01176998641119943
53 0.01176998641119943
54 0.01176998641119943
55 0.01176998641119943
56 0.01176998641119943
57 0.01176998641119943
58 0.01176998641119943
59 0.01176998641119943
60 0.01176998641119943
61 0.01176998641119943
62 0.01176998641119943
63 0.01176998641119943
64 0.01176998641119943
$EndElementData
$ElementData
1
"Attribute:TorsionConstant"
1
0
3
0
1
64
1 0.011975949844670973
2 0.011975949844670973
3 0.011975949844670973
4 0.011975949844670973
5 0.011975949844670973
6 0.011975949844670973
7 0.011975949844670973
8 0.011975949844670973
9 0.011975949844670973
10 0.011975949844670973
11 0.011975949844670973
12 0.011975949844670973
13 0.011975949844670973
14 0.011975949844670973
15 0.011975949844670973
16 0.011975949844670973
17 0.0019168315483852278
18 0.0019168315483852278
19 0.0019168315483852278
20 0.0019168315483852278
21 0.0019168315483852278
22 0.0019168315483852278
23 0.0019168315483852278
24 0.0019168315483852278
25 0.0019168315483852278
26 0.0019168315483852278
27 0.0019168315483852278
28 0.0019168315483852278
29 6.671750497336342e-06
30 6.671750497336342e-06
31 6.671750497336342e-06
32 6.671750497336342e-06
33 0.0019168315483852278
34 0.0019168315483852278
35 0.0019168315483852278
36 0.0019168315483852278
37 0.0019168315483852278
38 0.0019168315483852278
39 0.0019168315483852278
40 0.0019168315483852278
41 0.0019168315483852278
42 0.0019168315483852278
43 0.0019168315483852278
44 0.0019168315483852278
45 0.0019168315483852278
46 0.0019168315483852278
47 0.0019168315483852278
48 0.0019168315483852278
49 0.0019168315483852278
50 0.0019168315483852278
51 0.0019168315483852278
52 0.0019168315483852278
53 0.0019168315483852278
54 0.0019168315483852278
55 0.0019168315483852278
56 0.0019168315483852278
57 0.0019168315483852278
58 0.0019168315483852278
59 0.0019168315483852278
60 0.0019168315483852278
61 0.0019168315483852278
62 0.0019168315483852278
63 0.0019168315483852278
64 0.0019168315483852278
$EndElementData
$ElementData
1
"Attribute:UniformLoadGlobalX"
1
0
3
0
1
64
1 0
2 0
3 0
4 0
5 0
6 0
7 0
8 0
9 0
10 0
11 0
12 0
13 0
14 0
15 0
16 0
17 0
18 0
19 0
20 0
21 0
22 0
23 0
24 0
25 0
26 0
27 0
28 0
29 0
30 0
31 0
32 0
33 0
34 0
35 0
36 0
37 0
38 0
39 0
40 0
41 0
42 0
43 0
44 0
45 0
46 0
47 0
48 0
49 0
50 0
51 0
52 0
53 0
54 0
55 0
56 0
57 0
58 0
59 0
60 0
61 0
62 0
63 0
64 0
$EndElementData
$ElementData
1
"Attribute:UniformLoadGlobalY"
1
0
3
0
1
64
1 0
2 0
3 0
4 0
5 0
6 0
7 0
8 0
9 0
10 0
11 0
12 0
13 0
14 0
15 0
16 0
17 0
18 0
19 0
20 0
21 0
22 0
23 0
24 0
25 0
26 0
27 0
28 0
29 -50000
30 -50000
31 -50000
32 -50000
33 0
34 0
35 0
36 0
37 0
38 0
39 0
40 0
41 0
42 0
43 0
44 0
45 0
46 0
47 0
48 0
49 0
50 0
51 0
52 0
53 0
54 0
55 0
56 0
57 0
58 0
59 0
60 0
61 0
62 0
63 0
64 0
$EndElementData
$ElementData
1
"Attribute:UniformLoadGlobalZ"
1
0
3
0
1
64
1 0
2 0
3 0
4 0
5 0
6 0
7 0
8 0
9 0
10 0
11 0
12 0
13 0
14 0
15 0
16 0
17 0
18 0
19 0
20 0
21 0
22 0
23 0
24 0
25 0
26 0
27 0
28 0
29 0
30 0
31 0
32 0
33 0
34 0
35 0
36 0
37 0
38 0
39 0
40 0
41 0
42 0
43 0
44 0
45 0
46 0
47 0
48 0
49 0
50 0
51 0
52 0
53 0
54 0
55 0
56 0
57 0
58 0
59 0
60 0
61 0
62 0
63 0
64 0
$EndElementData
$ElementData
1
"Attribute:UniformLoadLocalX"
1
0
3
0
1
64
1 0
2 0
3 0
4 0
5 0
6 0
7 0
8 0
9 0
10 0
11 0
12 0
13 0
14 0
15 0
16 0
17 0
18 0
19 0
20 0
21 0
22 0
23 0
24 0
25 0
26 0
27 0
28 0
29 0
30 0
31 0
32 0
33 0
34 0
35 0
36 0
37 0
38 0
39 0
40 0
41 0
42 0
43 0
44 0
45 0
46 0
47 0
48 0
49 0
50 0
51 0
52 0
53 0
54 0
55 0
56 0
57 0
58 0
59 0
60 0
61 0
62 0
63 0
64 0
$EndElementData
$ElementData
1
"Attribute:UniformLoadLocalY"
1
0
3
0
1
64
1 0
2 0
3 0
4 0
5 0
6 0
7 0
8 0
9 0
10 0
11 0
12 0
13 0
14 0
15 0
16 0
17 0
18 0
19 0
20 0
21 0
22 0
23 0
24 0
25 0
26 0
27 0
28 0
29 0
30 0
31 0
32 0
33 0
34 0
35 0
36 0
37 0
38 0
39 0
40 0
41 0
42 0
43 0
44 0
45 0
46 0
47 0
48 0
49 0
50 0
51 0
52 0
53 0
54 0
55 0
56 0
57 0
58 0
59 0
60 0
61 0
62 0
63 0
64 0
$EndElementData
$ElementData
1
"Attribute:UniformLoadLocalZ"
1
0
3
0
1
64
1 0
2 0
3 0
4 0
5 0
6 0
7 0
8 0
9 0
10 0
11 0
12 0
13 0
14 0
15 0
16 0
17 0
18 0
19 0
20 0
21 0
22 0
23 0
24 0
25 0
26 0
27 0
28 0
29 0
30 0
31 0
32 0
33 0
34 0
35 0
36 0
37 0
38 0
39 0
40 0
41 0
42 0
43 0
44 0
45 0
46 0
47 0
48 0
49 0
50 0
51 0
52 0
53 0
54 0
55 0
56 0
57 0
58 0
59 0
60 0
61 0
62 0
63 0
64 0
$EndElementData
$ElementData
1
"BeamOrientation"
1
0
3
0
3
64
1 0 0 0
2 0 0 0
3 0 0 0
4 0 0 0
5 0 0 0
6 0 0 0
7 0 0 0
8 0 0 0
9 0 0 0
10 0 0 0
11 0 0 0
12 0 0 0
13 0 0 0
14 0 0 0
15 0 0 0
16 0 0 0
17 0 0 0
18 0 0 0
19 0 0 0
20 0 0 0
21 0 0 0
22 0 0 0
23 0 0 0
24 0 0 0
25 0 0 0
26 0 0 0
27 0 0 0
28 0 0 0
29 0 0 0
30 0 0 0
31 0 0 0
32 0 0 0
33 0 0 0
34 0 0 0
35 0 0 0
36 0 0 0
37 0 0 0
38 0 0 0
39 0 0 0
40 0 0 0
41 0 0 0
42 0 0 0
43 0 0 0
44 0 0 0
45 0 0 0
46 0 0 0
47 0 0 0
48 0 0 0
49 0 0 0
50 0 0 0
51 0 0 0
52 0 0 0
53 0 0 0
54 0 0 0
55 0 0 0
56 0 0 0
57 0 0 0
58 0 0 0
59 0 0 0
60 0 0 0
61 0 0 0
62 0 0 0
63 0 0 0
64 0 0 0
$EndElementData
$AnafData
1
1
GLOBAL 3 1
"Gravity"
0 -9.80665 0
$EndAnafData
