$MeshFormat
4.1 0 8
$EndMeshFormat
$PhysicalNames
4
1 1 "Material:Structural Steel S355 (EN 10025)"
1 2 "Section:HEB 600"
1 3 "Section:Tube 600x12"
1 4 "Section:Tube 1000x16"
$EndPhysicalNames
$Entities
0 3 0 0
1 -10 0 -10 10 40 10 2 1 4 0
2 -10 0 -10 10 40 10 2 1 3 0
3 -6 40 -6 6 40 6 2 1 2 0
$EndEntities
$Nodes
1 20 1 20
1 1 0 20
1
2
3
4
5
6
7
8
9
10
11
12
13
14
15
16
17
18
19
20
-10 0 -10
-9 10 -9
-8 20 -8
-7 30 -7
-6 40 -6
10 0 -10
9 10 -9
8 20 -8
7 30 -7
6 40 -6
10 0 10
9 10 9
8 20 8
7 30 7
6 40 6
-10 0 10
-9 10 9
-8 20 8
-7 30 7
-6 40 6
$EndNodes
$Elements
3 64 1 64
1 1 1 16
1 1 2
2 2 3
3 3 4
4 4 5
5 6 7
6 7 8
7 8 9
8 9 10
9 11 12
10 12 13
11 13 14
12 14 15
13 16 17
14 17 18
15 18 19
16 19 20
1 2 1 44
17 2 7
18 7 12
19 12 17
20 17 2
21 3 8
22 8 13
23 13 18
24 18 3
25 4 9
26 9 14
27 14 19
28 19 4
33 1 7
34 6 2
35 6 12
36 11 7
37 11 17
38 16 12
39 16 2
40 1 17
41 2 8
42 7 3
43 7 13
44 12 8
45 12 18
46 17 13
47 17 3
48 2 18
49 3 9
50 8 4
51 8 14
52 13 9
53 13 19
54 18 14
55 18 4
56 3 19
57 4 10
58 9 5
59 9 15
60 14 10
61 14 20
62 19 15
63 19 5
64 4 20
1 3 1 4
29 5 10
30 10 15
31 15 20
32 20 5
$EndElements
$NodeData
1
"Displacement"
1
0
3
0
3
20
1 0 0 0
2 0.0010898949686121272 -0.0007505221095767867 -0.00012589842027766997
3 0.0022188120168592286 -0.001556392961957967 -6.62920180970498e-05
4 0.0028350991301033662 -0.002288758701334797 -0.0002129946778902577
5 0.0034200157090864994 -0.0029509419557100193 8.170676637174979e-05
6 0 0 0
7 0.001294924996304188 -0.0011724216951440117 -0.00022819950426247748
8 0.0022717413649664463 -0.002110207635606569 -9.68285069804834e-05
9 0.00313727091467887 -0.0027881497840978237 -0.00021908241408328158
10 0.0032752334223662767 -0.0033799716770235365 8.243724879280622e-05
11 0 0 0
12 0.001294924996304183 -0.001172421695144011 0.00022819950426247883
13 0.0022717413649664332 -0.0021102076356065685 9.682850698048505e-05
14 0.003137270914678849 -0.002788149784097823 0.00021908241408328136
15 0.003275233422366252 -0.0033799716770235365 -8.243724879281088e-05
16 0 0 0
17 0.0010898949686121216 -0.0007505221095767889 0.00012589842027767133
18 0.0022188120168592155 -0.0015563929619579703 6.629201809705523e-05
19 0.0028350991301033454 -0.0022887587013348007 0.0002129946778902691
20 0.003420015709086474 -0.0029509419557100214 -8.170676637173022e-05
$EndNodeData
$NodeData
1
"Rotation"
1
0
3
0
3
20
1 0 0 0
2 0.00011679360791333479 7.686501090589455e-06 -0.00025011436558903383
3 0.00011658282969874278 4.861914083493429e-06 -0.000198275815977988
4 -0.00014247862592968742 -1.238497409272527e-07 9.285569018264723e-05
5 0.0011269634162860672 -1.2595531663837874e-06 -0.0011497271374726762
6 0 0 0
7 0.0001177849969575652 8.19137405118623e-06 -7.93022529514329e-06
8 0.00012302850653217774 4.727474055935087e-06 3.951454732754255e-05
9 -0.0001418458526602922 9.875062236361894e-07 -0.00019634634219804962
10 0.0011275225725778657 6.065940232302163e-08 0.0010891378660282342
11 0 0 0
12 -0.00011778499695756507 -8.19137405118651e-06 -7.930225295142551e-06
13 -0.00012302850653217774 -4.727474055935717e-06 3.951454732754341e-05
14 0.00014184585266029207 -9.875062236371552e-07 -0.00019634634219804921
15 -0.0011275225725778661 -6.065940232405617e-08 0.0010891378660282348
16 0 0 0
17 -0.0001167936079133346 -7.686501090589716e-06 -0.0002501143655890332
18 -0.00011658282969874224 -4.86191408349407e-06 -0.00019827581597798736
19 0.00014247862592968794 1.2384974092633156e-07 9.285569018264794e-05
20 -0.0011269634162860663 1.2595531663827265e-06 -0.001149727137472676
$EndNodeData
$ElementData
1
"BeamSectionForce"
1
0
3
0
12
64
1 -685143.8503270763 5072.488196532114 -5608.7515803444885 -535.5861205303611 40078.84562480975 2375.9069077188988 -647067.5024419782 10457.296955006303 -5608.7515803444885 -535.5861205303611 -16566.768658925517 -76045.66400711324
2 -718642.54343159 19124.66386650269 189.61396261468235 221.82014299814 -5507.318897426872 110221.26896708504 -680566.1955464919 24509.47262497688 189.61396261468235 221.82014299814 -3592.311745617535 -110120.31952134633
3 -717001.8134403516 -4851.059544467335 -1053.0937756481676 -168.74783598398847 2435.2816039074823 33006.78508841883 -678925.4655552536 533.7492140068543 -1053.0937756481676 -168.74783598398847 -8200.444183809566 54808.13358988248
4 -603779.0981213726 93699.47584209015 728.5094471937052 147.06656248184788 -6040.002674539073 261062.36039006678 -565702.7502362746 99084.28460056434 728.5094471937052 147.06656248184788 1317.5820850371265 -712447.9099232333
5 -1368040.8376178239 16269.348250313073 -4453.395838900131 -415.5372485765898 33590.38686331126 81548.45875707467 -1329964.4897327255 21654.15700878726 -4453.395838900131 -415.5372485765898 -11386.706404141754 -109955.85556506732
6 -1060097.2743182597 18302.20781703366 -508.7995246010887 71.74191088635428 -1169.908889443188 96846.8821995975 -1022020.9264331615 23687.01657550785 -508.7995246010887 71.74191088635428 -6308.53220078817 -115188.30735563567
7 -809987.8292875657 -3139.712665693417 -491.87297959552734 -79.55854305494779 -110.57182085862951 37294.36454819299 -771911.4814024676 2245.096092780773 -491.87297959552734 -79.55854305494779 -5078.245407330505 41811.9567962289
8 -605046.6262718741 92667.79757780029 269.21828114103846 64.95931709738437 -2780.5129241700315 252082.04819033566 -566970.278386776 98052.60633627448 269.21828114103846 64.95931709738437 -61.54156428878741 -711008.7823979682
9 -1368040.837617823 16269.348250313069 4453.395838900107 415.5372485765548 -33590.38686331107 81548.4587570746 -1329964.4897327246 21654.157008787257 4453.395838900107 415.5372485765548 11386.70640414171 -109955.85556506737
10 -1060097.2743182587 18302.207817033654 508.7995246010796 -71.74191088638736 1169.9088894432352 96846.88219959746 -1022020.9264331606 23687.01657550784 508.7995246010796 -71.74191088638736 6308.532200788104 -115188.30735563568
11 -809987.8292875643 -3139.712665693446 491.8729795955119 79.5585430549217 110.5718208586477 37294.36454819287 -771911.4814024662 2245.0960927807437 491.8729795955119 79.5585430549217 5078.245407330396 41811.956796229075
12 -605046.626271875 92667.7975778003 -269.2182811410232 -64.95931709739023 2780.512924169946 252082.0481903357 -566970.2783867769 98052.60633627449 -269.2182811410232 -64.95931709739023 61.54156428890019 -711008.7823979683
13 -685143.8503270793 5072.488196532137 5608.751580344464 535.5861205303319 -40078.8456248096 2375.9069077190807 -647067.5024419812 10457.296955006328 5608.751580344464 535.5861205303319 16566.76865892543 -76045.66400711327
14 -718642.543431592 19124.6638665027 -189.61396261469326 -221.82014299817246 5507.3188974269015 110221.26896708511 -680566.195546494 24509.472624976886 -189.61396261469326 -221.82014299817246 3592.311745617433 -110120.31952134635
15 -717001.8134403533 -4851.059544467332 1053.0937756481458 168.74783598396118 -2435.281603907366 33006.78508841888 -678925.4655552552 533.749214006858 1053.0937756481458 168.74783598396118 8200.44418380945 54808.1335898824
16 -603779.0981213733 93699.47584209016 -728.5094471937023 -147.06656248185368 6040.002674539031 261062.36039006684 -565702.7502362753 99084.28460056435 -728.5094471937023 -147.06656248185368 -1317.5820850372174 -712447.9099232336
17 53024.02662374469 -14571.178922275789 16.81360305713775 8.530351354095046 -145.67718173791494 -36283.21879112111 53024.02662374469 16145.289524056434 16.81360305713775 8.530351354095046 156.96767329056473 -50450.21420714693
18 118032.04365472094 -15358.234223166111 9.592326932761353e-13 6.352252057695296e-12 -183.18398240262087 -43440.672691726606 118032.04365472094 15358.234223166111 9.592326932761353e-13 6.352252057695296e-12 -183.1839824026032 -43440.67269172662
19 53024.02662374487 -16145.28952405643 -16.81360305713978 -8.530351354095501 156.96767329058306 -50450.214207146884 53024.02662374487 14571.178922275793 -16.81360305713978 -8.530351354095501 -145.6771817379328 -36283.218791121144
20 65118.66836126953 -15358.234223166111 1.3500311979441904e-12 5.9117155615240335e-12 171.89349084994984 -43462.84315935483 65118.66836126953 15358.234223166111 1.3500311979441904e-12 5.9117155615240335e-12 171.893490849974 -43462.84315935484
21 15399.417803125223 -13229.411683518507 27.229236292082334 62.39414736037088 -219.52503927727793 -30034.67256929371 15399.417803125223 14074.115824332357 27.229236292082334 62.39414736037088 216.14274139603933 -36792.3056958045
22 56343.13240453349 -13651.763753925432 4.806821607417078e-12 8.29913915367797e-12 -118.93574981652655 -33309.501233736446 56343.13240453349 13651.763753925432 4.806821607417078e-12 8.29913915367797e-12 -118.93574981645142 -33309.501233736446
23 15399.417803125223 -14074.115824332352 -27.229236292090565 -62.39414736037611 216.142741396105 -36792.305695804454 15399.417803125223 13229.411683518512 -27.229236292090565 -62.39414736037611 -219.5250392773439 -30034.672569293747
24 38574.383407138244 -13651.763753925432 4.725109192804666e-12 6.366462912410498e-12 122.31804769769008 -33471.664240489896 38574.383407138244 13651.763753925432 4.725109192804666e-12 6.366462912410498e-12 122.31804769776568 -33471.66424048989
25 100473.98170035216 -11747.215019215302 -0.03709140697993174 7.00027979090919 16.23675615656937 -30643.439985744946 100473.98170035216 12143.371550154203 -0.03709140697993174 7.00027979090919 15.7174764588502 -33416.535702317255
26 145692.5072894913 -11945.293284684753 1.2756906642152899e-11 4.092726157978177e-12 -28.39324625549288 -31950.770078400514 145692.5072894913 11945.293284684753 1.2756906642152899e-11 4.092726157978177e-12 -28.393246255313365 -31950.770078400514
27 100473.98170035204 -12143.3715501542 0.037091406958074224 -7.000279790916466 15.717476459003986 -33416.53570231723 100473.98170035204 11747.215019215306 0.037091406958074224 -7.000279790916466 16.236756156416853 -30643.43998574497
28 141644.0876416202 -11945.293284684753 1.3021139722013686e-11 7.73070496506989e-12 -3.560986360104664 -31968.9638748868 141644.0876416202 11945.293284684753 1.3021139722013686e-11 7.73070496506989e-12 -3.560986359929643 -31968.963874886795
29 -68398.93565707537 -312632.5322926483 -1.2752302069725834 0.025119045203830126 10.777371335474498 -558904.3826955569 -68398.93565707537 312305.8019737526 -1.2752302069725834 0.025119045203830126 -4.5253911481964755 -556944.0007821831
30 -77891.02111395297 -312469.16713320045 3.6991243401729434e-12 2.842170943040401e-14 -0.2872578178069206 -557439.884593385 -77891.02111395297 312469.16713320045 3.6991243401729434e-12 2.842170943040401e-14 -0.2872578177625311 -557439.8845933849
31 -68398.93565707514 -312305.8019737526 1.2752302069653185 -0.02511904520388697 -4.525391148152935 -556944.0007821831 -68398.93565707514 312632.5322926483 1.2752302069653185 -0.02511904520388697 10.777371335430844 -558904.3826955569
32 -77200.82314500056 -312469.16713320045 3.632205647363662e-12 7.105427357601002e-15 -5.964722369515107 -557473.3581430409 -77200.82314500056 312469.16713320045 3.632205647363662e-12 7.105427357601002e-15 -5.964722369471065 -557473.3581430409
33 118940.01751567438 -16594.40385464214 -195.55634643349936 775.0363807490534 1658.96015383823 -62162.17939636865 136004.72220808116 15873.411122429574 -195.55634643349936 775.0363807490534 -2544.364185212171 -54413.603717649654
34 -294075.7903841245 -16908.398650265422 192.2505754755505 -801.9993936763404 -1437.0547452849412 -63123.28367900318 -277011.0856917177 15559.416326806293 192.2505754755505 -801.9993936763404 2695.214740367503 -48625.64569241725
35 -96025.31825379177 -16812.941075652958 -334.2784545471952 -38.486344441455785 3532.156439776156 -63273.4028385037 -78960.61356138499 15654.873901418756 -334.2784545471952 -38.486344441455785 -3652.8865907561662 -50827.54764512788
36 -96025.31825379215 -16812.941075652958 334.2784545471949 38.48634444145951 -3532.156439776158 -63273.40283850371 -78960.61356138537 15654.873901418756 334.2784545471949 38.48634444145951 3652.886590756157 -50827.547645127874
37 -294075.79038412374 -16908.398650265422 -192.25057547555127 801.9993936763383 1437.0547452849482 -63123.28367900318 -277011.08569171693 15559.416326806293 -192.25057547555127 801.9993936763383 -2695.2147403675126 -48625.64569241726
38 118940.01751567349 -16594.40385464214 195.55634643349885 -775.0363807490536 -1658.9601538382274 -62162.17939636866 136004.7222080803 15873.411122429574 195.55634643349885 -775.0363807490536 2544.3641852121623 -54413.60371764963
39 -49070.457691865624 -16686.695116298735 -30.31481321302624 1658.031036637307 -725.3360911871982 -62052.8929470463 -32005.752999458837 15781.11986077298 -30.31481321302624 1658.031036637307 -1376.9283025164846 -52320.59179238242
40 -49070.45769186565 -16686.695116298735 30.31481321302624 -1658.0310366373037 725.3360911871932 -62052.8929470463 -32005.752999458866 15781.11986077298 30.31481321302624 -1658.0310366373037 1376.9283025164796 -52320.59179238242
41 69334.15270608323 -14390.77323341202 -335.5021652623044 145.36158882680627 3166.9214377405588 -43505.906245496146 86398.85739849001 14669.37170933123 -335.5021652623044 145.36158882680627 -3458.7154470668866 -46256.845776181886
42 -239900.70083823538 -15083.744724787499 352.98107813936195 -80.69777477987645 -3463.1790626881684 -51354.10711230077 -222835.99614582857 13976.40021795575 352.98107813936195 -80.69777477987645 3507.6386938255027 -40419.95620612527
43 -66174.25224772516 -14836.539286402303 -352.4437029595389 364.6375948649436 3049.1637995188166 -48428.8031743728 -49109.54755531838 14223.605656340946 -352.4437029595389 364.6375948649436 -3911.0416475045927 -42376.568512789636
44 -66174.25224772554 -14836.539286402303 352.44370295954155 -364.63759486493416 -3049.1637995188557 -48428.803174372806 -49109.54755531876 14223.605656340946 352.44370295954155 -364.63759486493416 3911.0416475046095 -42376.56851278963
45 -239900.70083823428 -15083.744724787495 -352.9810781393646 80.69777477987236 3463.179062688193 -51354.10711230075 -222835.99614582746 13976.400217955754 -352.9810781393646 80.69777477987236 -3507.6386938255296 -40419.956206125295
46 69334.15270608204 -14390.773233412021 335.5021652623019 -145.3615888268091 -3166.921437740535 -43505.906245496175 86398.85739848882 14669.371709331228 335.5021652623019 -145.3615888268091 3458.715447066859 -46256.84577618186
47 -52249.03226328638 -14706.79934175085 -359.49186000660774 -207.45767645075057 3856.3152392090497 -47163.97039497227 -35184.3275708796 14353.3456009924 -359.49186000660774 -207.45767645075057 -3243.0801568999764 -43673.894347308866
48 -52249.03226328644 -14706.79934175085 359.4918600066114 207.45767645075784 -3856.3152392090956 -47163.97039497227 -35184.32757087966 14353.3456009924 359.4918600066114 207.45767645075784 3243.0801569000023 -43673.89434730887
49 10124.046332082577 -12001.376640547089 35.98788880566673 -1859.1512829255535 1230.3234321364705 -30933.364046272014 27188.751024489367 13652.499684489132 35.98788880566673 -1859.1512829255535 1880.1016818991293 -45839.26540976792
50 -156353.38081793662 -12273.97766303176 -11.49820568087057 1894.3983822673895 -1598.6990136252452 -34003.831311064256 -139288.6761255298 13379.898662004462 -11.49820568087057 1894.3983822673895 -1806.3045223304593 -43987.79306787481
51 -50032.407265807895 -12176.744770229934 5.745983399927695 -1716.9256785714983 1355.7552201746435 -32764.03105037475 -32967.70257340111 13477.131554806287 5.745983399927695 -1716.9256785714983 1459.5016515624811 -44503.578394472686
52 -50032.40726580807 -12176.744770229934 -5.745983399917634 1716.9256785715058 -1355.7552201747449 -32764.03105037475 -32967.702573401286 13477.131554806287 -5.745983399917634 1716.9256785715058 -1459.501651562401 -44503.578394472686
53 -156353.38081793592 -12273.977663031756 11.498205680862782 -1894.398382267394 1598.6990136253155 -34003.83131106423 -139288.6761255291 13379.898662004465 11.498205680862782 -1894.398382267394 1806.3045223303898 -43987.79306787483
54 10124.04633208147 -12001.37664054709 -35.98788880567491 1859.1512829255473 -1230.3234321363952 -30933.36404627202 27188.75102448826 13652.49968448913 -35.98788880567491 1859.1512829255473 -1880.1016818992018 -45839.26540976792
55 -44488.893740252315 -12166.298559107188 48.86865424949673 -2064.5064253203927 1406.856602595949 -32707.472242600765 -27424.189047845528 13487.577765929032 48.86865424949673 -2064.5064253203927 2289.2031275050376 -44635.63083912984
56 -44488.89374025246 -12166.298559107188 -48.86865424948792 2064.506425320401 -1406.8566025960408 -32707.47224260076 -27424.189047845673 13487.577765929032 -48.86865424948792 2064.506425320401 -2289.2031275049685 -44635.630839129844
57 -92926.51636989143 -16682.20902272318 -2778.3368657349315 10043.188791137447 12819.421602330125 -65150.97807473895 -75861.81167748464 5567.443752239075 -2778.3368657349315 10043.188791137447 -32833.3116090066 26166.136825548347
58 -94786.18598335689 -16774.1878914507 2778.510814351982 -10021.522249489375 -12874.283785314352 -66429.4818154615 -77721.4812909501 5475.464883511556 2778.510814351982 -10021.522249489375 32781.307693464536 26399.000121301862
59 -82320.54452288801 -16776.512578140973 -2765.266281187777 10145.49386317121 12591.042723317601 -66069.82695457846 -65255.83983048123 5473.1401968212795 -2765.266281187777 10145.49386317121 -32846.91886813147 26796.85348236681
60 -82320.5445228879 -16776.512578140973 2765.2662811877944 -10145.493863171203 -12591.042723317754 -66069.82695457846 -65255.83983048111 5473.140196821282 2765.2662811877944 -10145.493863171203 32846.918868131615 26796.85348236678
61 -94786.18598335689 -16774.1878914507 -2778.510814351998 10021.522249489368 12874.28378531449 -66429.4818154615 -77721.4812909501 5475.464883511556 -2778.510814351998 10021.522249489368 -32781.30769346466 26399.000121301862
62 -92926.51636989154 -16682.209022723182 2778.3368657349165 -10043.188791137454 -12819.421602329992 -65150.97807473898 -75861.81167748476 5567.443752239073 2778.3368657349165 -10043.188791137454 32833.31160900649 26166.13682554836
63 -83189.12892383702 -16767.5484510448 -2825.3105847943484 9822.963599744231 13400.639912398628 -65970.43269136155 -66124.42423143024 5482.104323917456 -2825.3105847943484 9822.963599744231 -33023.95026510069 26748.95210701615
64 -83189.12892383685 -16767.548451044797 2825.310584794367 -9822.963599744226 -13400.639912398789 -65970.43269136152 -66124.42423143006 5482.104323917458 2825.310584794367 -9822.963599744226 33023.95026510083 26748.952107016135
$EndElementData
$ElementData
1
"AxialForce"
1
0
3
0
1
64
1 -666105.6763845272
2 -699604.3694890409
3 -697963.6394978026
4 -584740.9241788236
5 -1349002.6636752747
6 -1041059.1003757105
7 -790949.6553450166
8 -586008.452329325
9 -1349002.6636752738
10 -1041059.1003757096
11 -790949.6553450152
12 -586008.452329326
13 -666105.6763845303
14 -699604.369489043
15 -697963.6394978042
16 -584740.9241788243
17 53024.02662374469
18 118032.04365472094
19 53024.02662374487
20 65118.66836126953
21 15399.417803125223
22 56343.13240453349
23 15399.417803125223
24 38574.383407138244
25 100473.98170035216
26 145692.5072894913
27 100473.98170035204
28 141644.0876416202
29 -68398.93565707537
30 -77891.02111395297
31 -68398.93565707514
32 -77200.82314500056
33 127472.36986187777
34 -285543.4380379211
35 -87492.96590758838
36 -87492.96590758876
37 -285543.43803792034
38 127472.36986187688
39 -40538.10534566223
40 -40538.10534566226
41 77866.50505228662
42 -231368.34849203198
43 -57641.89990152177
44 -57641.89990152215
45 -231368.34849203087
46 77866.50505228543
47 -43716.67991708299
48 -43716.67991708305
49 18656.398678285972
50 -147821.0284717332
51 -41500.0549196045
52 -41500.05491960468
53 -147821.0284717325
54 18656.398678284866
55 -35956.54139404892
56 -35956.54139404907
57 -84394.16402368803
58 -86253.8336371535
59 -73788.19217668462
60 -73788.1921766845
61 -86253.8336371535
62 -84394.16402368815
63 -74656.77657763363
64 -74656.77657763346
$EndElementData
$ElementData
1
"VonMisesStress"
1
0
3
0
1
64
1 19615667.60442784
2 23783847.00336163
3 18490042.814728875
4 71271868.0411232
5 36167283.49461882
6 30343415.8106756
7 19882287.78936907
8 71166916.45548454
9 36167283.4946188
10 30343415.810675576
11 19882287.78936904
12 71166916.45548457
13 19615667.604427904
14 23783847.003361676
15 18490042.81472891
16 71271868.04112323
17 18358635.263067592
18 19073943.35705621
19 18358635.263067596
20 16715431.760696778
21 12411641.724505067
22 13142453.688230587
23 12411641.724505052
24 12402185.319045002
25 15112301.204800263
26 16678333.19783826
27 15112301.204800248
28 16502515.219271762
29 120087623.95039171
30 120138315.66896021
31 120087623.95039177
32 120127087.32386598
33 24991446.46902321
34 33156188.68913774
35 24317513.85966088
36 24317513.859660897
37 33156188.6891377
38 24991446.46902317
39 21854025.633174554
40 21854025.633174554
41 18570803.133075267
42 27043299.163571566
43 18341602.62639061
44 18341602.626390632
45 27043299.163571503
46 18570803.133075207
47 17337744.71965164
48 17337744.719651643
49 15809459.974613547
50 20232581.06719088
51 15638016.237790674
52 15638016.23779068
53 20232581.06719086
54 15809459.974613503
55 15460290.744729813
56 15460290.744729811
57 25632665.549774762
58 26102443.39740727
59 25437590.280008264
60 25437590.280008268
61 26102443.39740728
62 25632665.549774766
63 25475708.302052032
64 25475708.302052025
$EndElementData
$NodeData
1
"Fixity"
1
0
3
0
3
20
1 1 1 1
2 0 0 0
3 0 0 0
4 0 0 0
5 0 0 0
6 1 1 1
7 0 0 0
8 0 0 0
9 0 0 0
10 0 0 0
11 1 1 1
12 0 0 0
13 0 0 0
14 0 0 0
15 0 0 0
16 1 1 1
17 0 0 0
18 0 0 0
19 0 0 0
20 0 0 0
$EndNodeData
$NodeData
1
"FixityRotation"
1
0
3
0
3
20
1 1 1 1
2 0 0 0
3 0 0 0
4 0 0 0
5 0 0 0
6 1 1 1
7 0 0 0
8 0 0 0
9 0 0 0
10 0 0 0
11 1 1 1
12 0 0 0
13 0 0 0
14 0 0 0
15 0 0 0
16 1 1 1
17 0 0 0
18 0 0 0
19 0 0 0
20 0 0 0
$EndNodeData
$NodeData
1
"NodalForce"
1
0
3
0
3
20
1 0 0 0
2 150000 0 0
3 150000 0 0
4 150000 0 0
5 0 0 0
6 0 0 0
7 0 0 0
8 0 0 0
9 0 0 0
10 0 0 0
11 0 0 0
12 0 0 0
13 0 0 0
14 0 0 0
15 0 0 0
16 0 0 0
17 150000 0 0
18 150000 0 0
19 150000 0 0
20 0 0 0
$EndNodeData
$ElementData
1
"CrossSectionArea"
1
0
3
0
1
64
1 0.049461234738117726
2 0.049461234738117726
3 0.049461234738117726
4 0.049461234738117726
5 0.049461234738117726
6 0.049461234738117726
7 0.049461234738117726
8 0.049461234738117726
9 0.049461234738117726
10 0.049461234738117726
11 0.049461234738117726
12 0.049461234738117726
13 0.049461234738117726
14 0.049461234738117726
15 0.049461234738117726
16 0.049461234738117726
17 0.0221670777637296
18 0.0221670777637296
19 0.0221670777637296
20 0.0221670777637296
21 0.0221670777637296
22 0.0221670777637296
23 0.0221670777637296
24 0.0221670777637296
25 0.0221670777637296
26 0.0221670777637296
27 0.0221670777637296
28 0.0221670777637296
29 0.026995778955533033
30 0.026995778955533033
31 0.026995778955533033
32 0.026995778955533033
33 0.0221670777637296
34 0.0221670777637296
35 0.0221670777637296
36 0.0221670777637296
37 0.0221670777637296
38 0.0221670777637296
39 0.0221670777637296
40 0.0221670777637296
41 0.0221670777637296
42 0.0221670777637296
43 0.0221670777637296
44 0.0221670777637296
45 0.0221670777637296
46 0.0221670777637296
47 0.0221670777637296
48 0.0221670777637296
49 0.0221670777637296
50 0.0221670777637296
51 0.0221670777637296
52 0.0221670777637296
53 0.0221670777637296
54 0.0221670777637296
55 0.0221670777637296
56 0.0221670777637296
57 0.0221670777637296
58 0.0221670777637296
59 0.0221670777637296
60 0.0221670777637296
61 0.0221670777637296
62 0.0221670777637296
63 0.0221670777637296
64 0.0221670777637296
$EndElementData
$ElementData
1
"Attribute:ElementFormulation"
1
0
3
0
1
64
1 1
2 1
3 1
4 1
5 1
6 1
7 1
8 1
9 1
10 1
11 1
12 1
13 1
14 1
15 1
16 1
17 1
18 1
19 1
20 1
21 1
22 1
23 1
24 1
25 1
26 1
27 1
28 1
29 1
30 1
31 1
32 1
33 1
34 1
35 1
36 1
37 1
38 1
39 1
40 1
41 1
42 1
43 1
44 1
45 1
46 1
47 1
48 1
49 1
50 1
51 1
52 1
53 1
54 1
55 1
56 1
57 1
58 1
59 1
60 1
61 1
62 1
63 1
64 1
$EndElementData
$ElementData
1
"MaterialID"
1
0
3
0
1
64
1 3
2 3
3 3
4 3
5 3
6 3
7 3
8 3
9 3
10 3
11 3
12 3
13 3
14 3
15 3
16 3
17 3
18 3
19 3
20 3
21 3
22 3
23 3
24 3
25 3
26 3
27 3
28 3
29 3
30 3
31 3
32 3
33 3
34 3
35 3
36 3
37 3
38 3
39 3
40 3
41 3
42 3
43 3
44 3
45 3
46 3
47 3
48 3
49 3
50 3
51 3
52 3
53 3
54 3
55 3
56 3
57 3
58 3
59 3
60 3
61 3
62 3
63 3
64 3
$EndElementData
$ElementData
1
"Attribute:SecondMomentY"
1
0
3
0
1
64
1 0.005987974922335487
2 0.005987974922335487
3 0.005987974922335487
4 0.005987974922335487
5 0.005987974922335487
6 0.005987974922335487
7 0.005987974922335487
8 0.005987974922335487
9 0.005987974922335487
10 0.005987974922335487
11 0.005987974922335487
12 0.005987974922335487
13 0.005987974922335487
14 0.005987974922335487
15 0.005987974922335487
16 0.005987974922335487
17 0.0009584157741926139
18 0.0009584157741926139
19 0.0009584157741926139
20 0.0009584157741926139
21 0.0009584157741926139
22 0.0009584157741926139
23 0.0009584157741926139
24 0.0009584157741926139
25 0.0009584157741926139
26 0.0009584157741926139
27 0.0009584157741926139
28 0.0009584157741926139
29 0.00013530245778963672
30 0.00013530245778963672
31 0.00013530245778963672
32 0.00013530245778963672
33 0.0009584157741926139
34 0.0009584157741926139
35 0.0009584157741926139
36 0.0009584157741926139
37 0.0009584157741926139
38 0.0009584157741926139
39 0.0009584157741926139
40 0.0009584157741926139
41 0.0009584157741926139
42 0.0009584157741926139
43 0.0009584157741926139
44 0.0009584157741926139
45 0.0009584157741926139
46 0.0009584157741926139
47 0.0009584157741926139
48 0.0009584157741926139
49 0.0009584157741926139
50 0.0009584157741926139
51 0.0009584157741926139
52 0.0009584157741926139
53 0.0009584157741926139
54 0.0009584157741926139
55 0.0009584157741926139
56 0.0009584157741926139
57 0.0009584157741926139
58 0.0009584157741926139
59 0.0009584157741926139
60 0.0009584157741926139
61 0.0009584157741926139
62 0.0009584157741926139
63 0.0009584157741926139
64 0.0009584157741926139
$EndElementData
$ElementData
1
"Attribute:SecondMomentZ"
1
0
3
0
1
64
1 0.005987974922335487
2 0.005987974922335487
3 0.005987974922335487
4 0.005987974922335487
5 0.005987974922335487
6 0.005987974922335487
7 0.005987974922335487
8 0.005987974922335487
9 0.005987974922335487
10 0.005987974922335487
11 0.005987974922335487
12 0.005987974922335487
13 0.005987974922335487
14 0.005987974922335487
15 0.005987974922335487
16 0.005987974922335487
17 0.0009584157741926139
18 0.0009584157741926139
19 0.0009584157741926139
20 0.0009584157741926139
21 0.0009584157741926139
22 0.0009584157741926139
23 0.0009584157741926139
24 0.0009584157741926139
25 0.0009584157741926139
26 0.0009584157741926139
27 0.0009584157741926139
28 0.0009584157741926139
29 0.001710411108759916
30 0.001710411108759916
31 0.001710411108759916
32 0.001710411108759916
33 0.0009584157741926139
34 0.0009584157741926139
35 0.0009584157741926139
36 0.0009584157741926139
37 0.0009584157741926139
38 0.0009584157741926139
39 0.0009584157741926139
40 0.0009584157741926139
41 0.0009584157741926139
42 0.0009584157741926139
43 0.0009584157741926139
44 0.0009584157741926139
45 0.0009584157741926139
46 0.0009584157741926139
47 0.0009584157741926139
48 0.0009584157741926139
49 0.0009584157741926139
50 0.0009584157741926139
51 0.0009584157741926139
52 0.0009584157741926139
53 0.0009584157741926139
54 0.0009584157741926139
55 0.0009584157741926139
56 0.0009584157741926139
57 0.0009584157741926139
58 0.0009584157741926139
59 0.0009584157741926139
60 0.0009584157741926139
61 0.0009584157741926139
62 0.0009584157741926139
63 0.0009584157741926139
64 0.0009584157741926139
$EndElementData
$ElementData
1
"Attribute:SectionDimension1"
1
0
3
0
1
64
1 1
2 1
3 1
4 1
5 1
6 1
7 1
8 1
9 1
10 1
11 1
12 1
13 1
14 1
15 1
16 1
17 0.6
18 0.6
19 0.6
20 0.6
21 0.6
22 0.6
23 0.6
24 0.6
25 0.6
26 0.6
27 0.6
28 0.6
29 0.6
30 0.6
31 0.6
32 0.6
33 0.6
34 0.6
35 0.6
36 0.6
37 0.6
38 0.6
39 0.6
40 0.6
41 0.6
42 0.6
43 0.6
44 0.6
45 0.6
46 0.6
47 0.6
48 0.6
49 0.6
50 0.6
51 0.6
52 0.6
53 0.6
54 0.6
55 0.6
56 0.6
57 0.6
58 0.6
59 0.6
60 0.6
61 0.6
62 0.6
63 0.6
64 0.6
$EndElementData
$ElementData
1
"Attribute:SectionDimension2"
1
0
3
0
1
64
1 0.016
2 0.016
3 0.016
4 0.016
5 0.016
6 0.016
7 0.016
8 0.016
9 0.016
10 0.016
11 0.016
12 0.016
13 0.016
14 0.016
15 0.016
16 0.016
17 0.012
18 0.012
19 0.012
20 0.012
21 0.012
22 0.012
23 0.012
24 0.012
25 0.012
26 0.012
27 0.012
28 0.012
29 0.3
30 0.3
31 0.3
32 0.3
33 0.012
34 0.012
35 0.012
36 0.012
37 0.012
38 0.012
39 0.012
40 0.012
41 0.012
42 0.012
43 0.012
44 0.012
45 0.012
46 0.012
47 0.012
48 0.012
49 0.012
50 0.012
51 0.012
52 0.012
53 0.012
54 0.012
55 0.012
56 0.012
57 0.012
58 0.012
59 0.012
60 0.012
61 0.012
62 0.012
63 0.012
64 0.012
$EndElementData
$ElementData
1
"Attribute:SectionDimension3"
1
0
3
0
1
64
1 0
2 0
3 0
4 0
5 0
6 0
7 0
8 0
9 0
10 0
11 0
12 0
13 0
14 0
15 0
16 0
17 0
18 0
19 0
20 0
21 0
22 0
23 0
24 0
25 0
26 0
27 0
28 0
29 0.0155
30 0.0155
31 0.0155
32 0.0155
33 0
34 0
35 0
36 0
37 0
38 0
39 0
40 0
41 0
42 0
43 0
44 0
45 0
46 0
47 0
48 0
49 0
50 0
51 0
52 0
53 0
54 0
55 0
56 0
57 0
58 0
59 0
60 0
61 0
62 0
63 0
64 0
$EndElementData
$ElementData
1
"Attribute:SectionDimension4"
1
0
3
0
1
64
1 0
2 0
3 0
4 0
5 0
6 0
7 0
8 0
9 0
10 0
11 0
12 0
13 0
14 0
15 0
16 0
17 0
18 0
19 0
20 0
21 0
22 0
23 0
24 0
25 0
26 0
27 0
28 0
29 0.03
30 0.03
31 0.03
32 0.03
33 0
34 0
35 0
36 0
37 0
38 0
39 0
40 0
41 0
42 0
43 0
44 0
45 0
46 0
47 0
48 0
49 0
50 0
51 0
52 0
53 0
54 0
55 0
56 0
57 0
58 0
59 0
60 0
61 0
62 0
63 0
64 0
$EndElementData
$ElementData
1
"Attribute:SectionDimension5"
1
0
3
0
1
64
1 0
2 0
3 0
4 0
5 0
6 0
7 0
8 0
9 0
10 0
11 0
12 0
13 0
14 0
15 0
16 0
17 0
18 0
19 0
20 0
21 0
22 0
23 0
24 0
25 0
26 0
27 0
28 0
29 0.027
30 0.027
31 0.027
32 0.027
33 0
34 0
35 0
36 0
37 0
38 0
39 0
40 0
41 0
42 0
43 0
44 0
45 0
46 0
47 0
48 0
49 0
50 0
51 0
52 0
53 0
54 0
55 0
56 0
57 0
58 0
59 0
60 0
61 0
62 0
63 0
64 0
$EndElementData
$ElementData
1
"Attribute:SectionShape"
1
0
3
0
1
64
1 3
2 3
3 3
4 3
5 3
6 3
7 3
8 3
9 3
10 3
11 3
12 3
13 3
14 3
15 3
16 3
17 3
18 3
19 3
20 3
21 3
22 3
23 3
24 3
25 3
26 3
27 3
28 3
29 5
30 5
31 5
32 5
33 3
34 3
35 3
36 3
37 3
38 3
39 3
40 3
41 3
42 3
43 3
44 3
45 3
46 3
47 3
48 3
49 3
50 3
51 3
52 3
53 3
54 3
55 3
56 3
57 3
58 3
59 3
60 3
61 3
62 3
63 3
64 3
$EndElementData
$ElementData
1
"Attribute:ShearAreaY"
1
0
3
0
1
64
1 0.026255875674694704
2 0.026255875674694704
3 0.026255875674694704
4 0.026255875674694704
5 0.026255875674694704
6 0.026255875674694704
7 0.026255875674694704
8 0.026255875674694704
9 0.026255875674694704
10 0.026255875674694704
11 0.026255875674694704
12 0.026255875674694704
13 0.026255875674694704
14 0.026255875674694704
15 0.026255875674694704
16 0.026255875674694704
17 0.01176998641119943
18 0.01176998641119943
19 0.01176998641119943
20 0.01176998641119943
21 0.01176998641119943
22 0.01176998641119943
23 0.01176998641119943
24 0.01176998641119943
25 0.01176998641119943
26 0.01176998641119943
27 0.01176998641119943
28 0.01176998641119943
29 0.008633031428391261
30 0.008633031428391261
31 0.008633031428391261
32 0.008633031428391261
33 0.01176998641119943
34 0.01176998641119943
35 0.01176998641119943
36 0.01176998641119943
37 0.01176998641119943
38 0.01176998641119943
39 0.01176998641119943
40 0.01176998641119943
41 0.01176998641119943
42 0.01176998641119943
43 0.01176998641119943
44 0.01176998641119943
45 0.01176998641119943
46 0.01176998641119943
47 0.01176998641119943
48 0.01176998641119943
49 0.01176998641119943
50 0.01176998641119943
51 0.01176998641119943
52 0.01176998641119943
53 0.01176998641119943
54 0.01176998641119943
55 0.01176998641119943
56 0.01176998641119943
57 0.01176998641119943
58 0.01176998641119943
59 0.01176998641119943
60 0.01176998641119943
61 0.01176998641119943
62 0.01176998641119943
63 0.01176998641119943
64 0.01176998641119943
$EndElementData
$ElementData
1
"Attribute:ShearAreaZ"
1
0
3
0
1
64
1 0.026255875674694704
2 0.026255875674694704
3 0.026255875674694704
4 0.026255875674694704
5 0.026255875674694704
6 0.026255875674694704
7 0.026255875674694704
8 0.026255875674694704
9 0.026255875674694704
10 0.026255875674694704
11 0.026255875674694704
12 0.026255875674694704
13 0.026255875674694704
14 0.026255875674694704
15 0.026255875674694704
16 0.026255875674694704
17 0.01176998641119943
18 0.01176998641119943
19 0.01176998641119943
20 0.01176998641119943
21 0.01176998641119943
22 0.01176998641119943
23 0.01176998641119943
24 0.01176998641119943
25 0.01176998641119943
26 0.01176998641119943
27 0.01176998641119943
28 0.01176998641119943
29 0.015294117647058823
30 0.015294117647058823
31 0.015294117647058823
32 0.015294117647058823
33 0.01176998641119943
34 0.01176998641119943
35 0.01176998641119943
36 0.01176998641119943
37 0.01176998641119943
38 0.01176998641119943
39 0.01176998641119943
40 0.01176998641119943
41 0.01176998641119943
42 0.01176998641119943
43 0.01176998641119943
44 0.01176998641119943
45 0.01176998641119943
46 0.01176998641119943
47 0.01176998641119943
48 0.01176998641119943
49 0.01176998641119943
50 0.01176998641119943
51 0.01176998641119943
52 0.01176998641119943
53 0.01176998641119943
54 0.01176998641119943
55 0.01176998641119943
56 0.01176998641119943
57 0.01176998641119943
58 0.01176998641119943
59 0.01176998641119943
60 0.01176998641119943
61 0.01176998641119943
62 0.01176998641119943
63 0.01176998641119943
64 0.01176998641119943
$EndElementData
$ElementData
1
"Attribute:TorsionConstant"
1
0
3
0
1
64
1 0.011975949844670973
2 0.011975949844670973
3 0.011975949844670973
4 0.011975949844670973
5 0.011975949844670973
6 0.011975949844670973
7 0.011975949844670973
8 0.011975949844670973
9 0.011975949844670973
10 0.011975949844670973
11 0.011975949844670973
12 0.011975949844670973
13 0.011975949844670973
14 0.011975949844670973
15 0.011975949844670973
16 0.011975949844670973
17 0.0019168315483852278
18 0.0019168315483852278
19 0.0019168315483852278
20 0.0019168315483852278
21 0.0019168315483852278
22 0.0019168315483852278
23 0.0019168315483852278
24 0.0019168315483852278
25 0.0019168315483852278
26 0.0019168315483852278
27 0.0019168315483852278
28 0.0019168315483852278
29 6.671750497336342e-06
30 6.671750497336342e-06
31 6.671750497336342e-06
32 6.671750497336342e-06
33 0.0019168315483852278
34 0.0019168315483852278
35 0.0019168315483852278
36 0.0019168315483852278
37 0.0019168315483852278
38 0.0019168315483852278
39 0.0019168315483852278
40 0.0019168315483852278
41 0.0019168315483852278
42 0.0019168315483852278
43 0.0019168315483852278
44 0.0019168315483852278
45 0.0019168315483852278
46 0.0019168315483852278
47 0.0019168315483852278
48 0.0019168315483852278
49 0.0019168315483852278
50 0.0019168315483852278
51 0.0019168315483852278
52 0.0019168315483852278
53 0.0019168315483852278
54 0.0019168315483852278
55 0.0019168315483852278
56 0.0019168315483852278
57 0.0019168315483852278
58 0.0019168315483852278
59 0.0019168315483852278
60 0.0019168315483852278
61 0.0019168315483852278
62 0.0019168315483852278
63 0.0019168315483852278
64 0.0019168315483852278
$EndElementData
$ElementData
1
"Attribute:UniformLoadGlobalX"
1
0
3
0
1
64
1 0
2 0
3 0
4 0
5 0
6 0
7 0
8 0
9 0
10 0
11 0
12 0
13 0
14 0
15 0
16 0
17 0
18 0
19 0
20 0
21 0
22 0
23 0
24 0
25 0
26 0
27 0
28 0
29 0
30 0
31 0
32 0
33 0
34 0
35 0
36 0
37 0
38 0
39 0
40 0
41 0
42 0
43 0
44 0
45 0
46 0
47 0
48 0
49 0
50 0
51 0
52 0
53 0
54 0
55 0
56 0
57 0
58 0
59 0
60 0
61 0
62 0
63 0
64 0
$EndElementData
$ElementData
1
"Attribute:UniformLoadGlobalY"
1
0
3
0
1
64
1 0
2 0
3 0
4 0
5 0
6 0
7 0
8 0
9 0
10 0
11 0
12 0
13 0
14 0
15 0
16 0
17 0
18 0
19 0
20 0
21 0
22 0
23 0
24 0
25 0
26 0
27 0
28 0
29 -50000
30 -50000
31 -50000
32 -50000
33 0
34 0
35 0
36 0
37 0
38 0
39 0
40 0
41 0
42 0
43 0
44 0
45 0
46 0
47 0
48 0
49 0
50 0
51 0
52 0
53 0
54 0
55 0
56 0
57 0
58 0
59 0
60 0
61 0
62 0
63 0
64 0
$EndElementData
$ElementData
1
"Attribute:UniformLoadGlobalZ"
1
0
3
0
1
64
1 0
2 0
3 0
4 0
5 0
6 0
7 0
8 0
9 0
10 0
11 0
12 0
13 0
14 0
15 0
16 0
17 0
18 0
19 0
20 0
21 0
22 0
23 0
24 0
25 0
26 0
27 0
28 0
29 0
30 0
31 0
32 0
33 0
34 0
35 0
36 0
37 0
38 0
39 0
40 0
41 0
42 0
43 0
44 0
45 0
46 0
47 0
48 0
49 0
50 0
51 0
52 0
53 0
54 0
55 0
56 0
57 0
58 0
59 0
60 0
61 0
62 0
63 0
64 0
$EndElementData
$ElementData
1
"Attribute:UniformLoadLocalX"
1
0
3
0
1
64
1 0
2 0
3 0
4 0
5 0
6 0
7 0
8 0
9 0
10 0
11 0
12 0
13 0
14 0
15 0
16 0
17 0
18 0
19 0
20 0
21 0
22 0
23 0
24 0
25 0
26 0
27 0
28 0
29 0
30 0
31 0
32 0
33 0
34 0
35 0
36 0
37 0
38 0
39 0
40 0
41 0
42 0
43 0
44 0
45 0
46 0
47 0
48 0
49 0
50 0
51 0
52 0
53 0
54 0
55 0
56 0
57 0
58 0
59 0
60 0
61 0
62 0
63 0
64 0
$EndElementData
$ElementData
1
"Attribute:UniformLoadLocalY"
1
0
3
0
1
64
1 0
2 0
3 0
4 0
5 0
6 0
7 0
8 0
9 0
10 0
11 0
12 0
13 0
14 0
15 0
16 0
17 0
18 0
19 0
20 0
21 0
22 0
23 0
24 0
25 0
26 0
27 0
28 0
29 0
30 0
31 0
32 0
33 0
34 0
35 0
36 0
37 0
38 0
39 0
40 0
41 0
42 0
43 0
44 0
45 0
46 0
47 0
48 0
49 0
50 0
51 0
52 0
53 0
54 0
55 0
56 0
57 0
58 0
59 0
60 0
61 0
62 0
63 0
64 0
$EndElementData
$ElementData
1
"Attribute:UniformLoadLocalZ"
1
0
3
0
1
64
1 0
2 0
3 0
4 0
5 0
6 0
7 0
8 0
9 0
10 0
11 0
12 0
13 0
14 0
15 0
16 0
17 0
18 0
19 0
20 0
21 0
22 0
23 0
24 0
25 0
26 0
27 0
28 0
29 0
30 0
31 0
32 0
33 0
34 0
35 0
36 0
37 0
38 0
39 0
40 0
41 0
42 0
43 0
44 0
45 0
46 0
47 0
48 0
49 0
50 0
51 0
52 0
53 0
54 0
55 0
56 0
57 0
58 0
59 0
60 0
61 0
62 0
63 0
64 0
$EndElementData
$ElementData
1
"BeamOrientation"
1
0
3
0
3
64
1 0 0 0
2 0 0 0
3 0 0 0
4 0 0 0
5 0 0 0
6 0 0 0
7 0 0 0
8 0 0 0
9 0 0 0
10 0 0 0
11 0 0 0
12 0 0 0
13 0 0 0
14 0 0 0
15 0 0 0
16 0 0 0
17 0 0 0
18 0 0 0
19 0 0 0
20 0 0 0
21 0 0 0
22 0 0 0
23 0 0 0
24 0 0 0
25 0 0 0
26 0 0 0
27 0 0 0
28 0 0 0
29 0 0 0
30 0 0 0
31 0 0 0
32 0 0 0
33 0 0 0
34 0 0 0
35 0 0 0
36 0 0 0
37 0 0 0
38 0 0 0
39 0 0 0
40 0 0 0
41 0 0 0
42 0 0 0
43 0 0 0
44 0 0 0
45 0 0 0
46 0 0 0
47 0 0 0
48 0 0 0
49 0 0 0
50 0 0 0
51 0 0 0
52 0 0 0
53 0 0 0
54 0 0 0
55 0 0 0
56 0 0 0
57 0 0 0
58 0 0 0
59 0 0 0
60 0 0 0
61 0 0 0
62 0 0 0
63 0 0 0
64 0 0 0
$EndElementData
$AnafData
1
1
GLOBAL 3 1
"Gravity"
0 -9.80665 0
$EndAnafData
