$MeshFormat
4.1 0 8
$EndMeshFormat
$PhysicalNames
4
1 1 "Material:Titanium Ti-6Al-4V (Grade 5, annealed)"
1 2 "Section:Tube 63.5x1.65"
1 3 "Section:Tube 101.6x2.11"
1 4 "Section:Box 200x100x6"
$EndPhysicalNames
$Entities
0 3 0 0
1 -1.5 1.2 -1.5 1.5 2 1.5 2 1 4 0
2 -2.625 0 -2.625 2.625 2 2.625 2 1 3 0
3 -2.625 0 -2.625 2.625 1.2 2.625 2 1 2 0
$EndEntities
$Nodes
1 16 1 16
1 1 0 16
1
2
3
4
5
6
7
8
9
10
11
12
13
14
15
16
-1.5 2 -1.5
-1.5 1.2 -1.5
1.5 2 -1.5
1.5 1.2 -1.5
1.5 2 1.5
1.5 1.2 1.5
-1.5 2 1.5
-1.5 1.2 1.5
0 1.2 -1.5
1.5 1.2 0
0 1.2 1.5
-1.5 1.2 0
-2.625 0 -2.625
2.625 0 -2.625
2.625 0 2.625
-2.625 0 2.625
$EndNodes
$Elements
3 28 1 28
1 1 1 16
1 1 3
2 2 9
3 9 4
4 1 2
5 3 5
6 4 10
7 10 6
8 3 4
9 5 7
10 6 11
11 11 8
12 5 6
13 7 1
14 8 12
15 12 2
16 7 8
1 2 1 4
17 1 13
20 3 14
23 5 15
26 7 16
1 3 1 8
18 9 13
19 12 13
21 10 14
22 9 14
24 11 15
25 10 15
27 12 16
28 11 16
$EndElements
$NodeData
1
"Displacement"
1
0
3
0
3
16
1 2.3717411043227948e-05 -0.0006697173972257892 2.401874150995314e-05
2 3.883906752400889e-06 -0.0006678264724692799 3.6657188125536186e-06
3 -2.3717411043230706e-05 -0.000669717397225794 2.4018741509954373e-05
4 -3.8839067524037765e-06 -0.0006678264724692847 3.665718812554532e-06
5 -2.3717411043230327e-05 -0.0006697173972257951 -2.4018741509955688e-05
6 -3.883906752403066e-06 -0.0006678264724692858 -3.6657188125554507e-06
7 2.371741104322844e-05 -0.0006697173972257938 -2.4018741509956782e-05
8 3.883906752401604e-06 -0.0006678264724692845 -3.665718812556356e-06
9 -1.3996924710356653e-18 -0.0005729590660953189 0.0002512597085664537
10 -0.00022532853331883377 -0.0005361874309573274 -4.449724113922659e-19
11 -7.080459601655003e-19 -0.0005729590660953218 -0.0002512597085664561
12 0.00022532853331883103 -0.0005361874309573244 -1.324781041017088e-18
13 0 0 0
14 0 0 0
15 0 0 0
16 0 0 0
$EndNodeData
$NodeData
1
"Rotation"
1
0
3
0
3
16
1 6.637188445869921e-05 -4.984785312964652e-06 -4.812169869387994e-05
2 -7.686687917375506e-05 -1.1645947654472297e-05 2.3505355551830087e-05
3 6.637188445869898e-05 4.984785312964313e-06 4.8121698693879184e-05
4 -7.686687917375545e-05 1.1645947654471904e-05 -2.3505355551830863e-05
5 -6.6371884458699e-05 -4.9847853129646335e-06 4.8121698693879834e-05
6 7.686687917375546e-05 -1.1645947654472275e-05 -2.350535555183038e-05
7 -6.637188445869853e-05 4.9847853129645564e-06 -4.812169869387952e-05
8 7.686687917375576e-05 1.1645947654472448e-05 2.3505355551830568e-05
9 -7.467494783765535e-05 -3.643788676040647e-19 -2.2721183268275052e-18
10 5.477400271435302e-19 4.54204913123258e-19 -2.2862802853862794e-05
11 7.467494783765565e-05 -4.839393240605453e-19 -6.201462554598878e-19
12 2.1691213431676013e-18 3.2045686912167447e-19 2.2862802853862506e-05
13 0.00021406074682716122 -5.0619215409757264e-06 -0.00022906072307138958
14 0.00021406074682716336 5.06192154097481e-06 0.000229060723071392
15 -0.00021406074682716385 -5.0619215409757705e-06 0.00022906072307139226
16 -0.00021406074682716418 5.061921540976642e-06 -0.00022906072307139123
$EndNodeData
$ElementData
1
"BeamSectionForce"
1
0
3
0
12
28
1 -6051.776191846772 -108.6165063651512 2.1183055309847987e-13 -4.618527782440651e-14 2.1817685398544744 7.87668048570665 -6051.776191846772 108.61650636514472 2.1183055309847987e-13 -4.618527782440651e-14 2.1817685398551108 7.876680485716463
2 -991.0244576315589 478.0158912132154 557.5752862640584 0.8779690775150648 -413.08420160363545 355.2914111974657 -991.0244576315589 586.6323975783633 557.5752862640584 0.8779690775150648 423.2787277924521 -443.19480539621844
3 -991.0244576315813 -586.6323975783685 -557.5752862640583 -0.8779690775152247 423.2787277924521 -443.19480539621736 -991.0244576315813 -478.0158912132205 -557.5752862640583 -0.8779690775152247 -413.08420160363517 355.2914111974744
4 -875.7074921772762 -453.71212587045454 -377.7759540289998 5.0026896883987995 33.55999758295023 -7.935661338151959 -933.6362955720217 -453.71212587045454 -377.7759540289998 5.0026896883987995 -268.6607656402497 355.0340393582119
5 -6128.664202139501 -108.6165063651489 -2.5002222514558525e-13 1.2967404927621828e-13 -2.1817685398544113 31.46035733050796 -6128.664202139501 108.61650636514702 -2.5002222514558525e-13 1.2967404927621828e-13 -2.181768539855166 31.460357330510774
6 -935.3512402930669 455.62040435883915 537.3123317611044 0.2573718392537181 -408.0815119152365 269.53873471776825 -935.3512402930669 564.2369107239871 537.3123317611044 0.2573718392537181 397.8869857264202 -495.35425159435215
7 -935.3512402930742 -564.2369107239888 -537.312331761105 -0.25737183925352625 397.8869857264202 -495.35425159435204 -935.3512402930742 -455.6204043588408 -537.312331761105 -0.25737183925352625 -408.0815119152376 269.53873471777086
8 -875.7074921773344 453.71212587047654 -377.7759540290086 -5.0026896883987595 33.559997582953585 7.935661338160699 -933.6362955720799 453.71212587047654 -377.7759540290086 -5.0026896883987595 -268.6607656402533 -355.0340393582207
9 -6051.776191846787 -108.61650636514639 2.8554936193359026e-13 -9.237055564881302e-14 2.181768539854414 7.876680485714061 -6051.776191846787 108.61650636514952 2.8554936193359026e-13 -9.237055564881302e-14 2.1817685398552706 7.876680485709372
10 -991.0244576315765 478.01589121321916 557.5752862640595 0.877969077515111 -413.0842016036364 355.2914111974719 -991.0244576315765 586.6323975783671 557.5752862640595 0.877969077515111 423.2787277924529 -443.19480539621804
11 -991.0244576315648 -586.6323975783646 -557.5752862640587 -0.8779690775152318 423.2787277924529 -443.1948053962177 -991.0244576315648 -478.01589121321666 -557.5752862640587 -0.8779690775152318 -413.08420160363534 355.2914111974682
12 -875.7074921773344 453.71212587047125 377.77595402901466 5.002689688398798 -33.55999758295599 7.9356613381580985 -933.6362955720799 453.71212587047125 377.77595402901466 5.002689688398798 268.66076564025576 -355.03403935821893
13 -6128.664202139484 -108.61650636514486 -1.851852005074761e-13 8.348877145181177e-14 -2.1817685398545685 31.460357330514043 -6128.664202139484 108.61650636515105 -1.851852005074761e-13 8.348877145181177e-14 -2.181768539855123 31.46035733050452
14 -935.3512402930808 455.62040435884285 537.3123317611038 0.2573718392537163 -408.0815119152363 269.5387347177735 -935.3512402930808 564.2369107239908 537.3123317611038 0.2573718392537163 397.8869857264195 -495.3542515943513
15 -935.3512402930583 -564.2369107239854 -537.3123317611041 -0.2573718392535227 397.8869857264195 -495.35425159435215 -935.3512402930583 -455.62040435883745 -537.3123317611041 -0.2573718392535227 -408.0815119152368 269.5387347177648
16 -875.7074921772762 -453.712125870461 377.7759540290222 -5.002689688398986 -33.559997582959156 -7.935661338154247 -933.6362955720217 -453.712125870461 377.7759540290222 -5.002689688398986 268.66076564025866 355.03403935821444
17 -14760.139480324338 -15.335178660740986 -0.6730514234788035 0.39811560928780987 1.5271428918869179 -1.5263756212805477 -14788.537087677385 7.254979659172179 -0.6730514234788035 0.39811560928780987 -0.1929282158110165 8.79862805764407
18 -1535.2337899971171 -8.761318603962202 1.4164700762065816 -0.6699415994448528 -2.6026648629683238 -1.564819996845407 -1543.5169254316152 10.951956419249875 1.4164700762065816 -0.6699415994448528 1.7852498837118524 -4.957878606342687
19 -1478.3807240654648 -9.16491779227249 -1.065713910040222 0.5782843964853049 1.9458096148684723 -2.349380421562375 -1486.6638594999629 10.548357230939587 -1.065713910040222 0.5782843964853049 -1.3555391818043654 -4.492176946542041
20 -14760.139480324402 -15.335178660740848 0.6730514234788222 -0.39811560928780715 -1.5271428918869703 -1.526375621280228 -14788.537087677449 7.254979659172317 0.6730514234788222 -0.39811560928780715 0.19292821581101183 8.798628057644034
21 -1478.3807240654583 -9.164917792272483 1.0657139100402282 -0.5782843964853062 -1.9458096148684931 -2.349380421562335 -1486.6638594999563 10.548357230939594 1.0657139100402282 -0.5782843964853062 1.3555391818043638 -4.492176946542029
22 -1535.233789997089 -8.761318603962183 -1.4164700762065785 0.6699415994448501 2.6026648629683167 -1.5648199968453351 -1543.516925431587 10.951956419249894 -1.4164700762065785 0.6699415994448501 -1.785249883711851 -4.957878606342677
23 -14760.13948032441 -15.335178660740855 -0.6730514234787912 0.3981156092878104 1.5271428918868986 -1.5263756212802422 -14788.537087677456 7.25497965917231 -0.6730514234787912 0.3981156092878104 -0.1929282158110045 8.798628057644052
24 -1535.2337899970985 -8.761318603962184 1.4164700762065803 -0.6699415994448548 -2.6026648629683224 -1.5648199968453436 -1543.5169254315965 10.951956419249893 1.4164700762065803 -0.6699415994448548 1.7852498837118498 -4.95787860634268
25 -1478.3807240654494 -9.164917792272476 -1.0657139100402246 0.5782843964853077 1.9458096148684767 -2.349380421562316 -1486.6638594999474 10.548357230939601 -1.0657139100402246 0.5782843964853077 -1.3555391818043687 -4.492176946542031
26 -14760.139480324393 -15.335178660740851 0.6730514234787497 -0.3981156092878125 -1.5271428918867938 -1.5263756212802315 -14788.53708767744 7.254979659172314 0.6730514234787497 -0.3981156092878125 0.1929282158110024 8.798628057644052
27 -1478.3807240654387 -9.164917792272478 1.0657139100402215 -0.5782843964853002 -1.9458096148684674 -2.349380421562314 -1486.6638594999367 10.5483572309396 1.0657139100402215 -0.5782843964853002 1.3555391818043692 -4.49217694654202
28 -1535.2337899971126 -8.761318603962192 -1.416470076206584 0.6699415994448565 2.60266486296834 -1.5648199968453649 -1543.5169254316106 10.951956419249885 -1.416470076206584 0.6699415994448565 -1.7852498837118436 -4.957878606342682
$EndElementData
$ElementData
1
"AxialForce"
1
0
3
0
1
28
1 -6051.776191846772
2 -991.0244576315589
3 -991.0244576315813
4 -904.671893874649
5 -6128.664202139501
6 -935.3512402930669
7 -935.3512402930742
8 -904.6718938747072
9 -6051.776191846787
10 -991.0244576315765
11 -991.0244576315648
12 -904.6718938747072
13 -6128.664202139484
14 -935.3512402930808
15 -935.3512402930583
16 -904.671893874649
17 -14774.338284000862
18 -1539.3753577143661
19 -1482.5222917827139
20 -14774.338284000925
21 -1482.5222917827073
22 -1539.375357714338
23 -14774.338284000933
24 -1539.3753577143475
25 -1482.5222917826984
26 -14774.338284000916
27 -1482.5222917826877
28 -1539.3753577143616
$EndElementData
$ElementData
1
"VonMisesStress"
1
0
3
0
1
28
1 2338398.3329271935
2 6472089.606482832
3 6472089.606482833
4 4619606.230312162
5 2499683.2852892163
6 6507733.039103927
7 6507733.039103934
8 4619606.230312263
9 2338398.332927199
10 6472089.606482841
11 6472089.606482836
12 4619606.230312278
13 2499683.285289211
14 6507733.039103926
15 6507733.039103923
16 4619606.230312262
17 23143551.955031045
18 5910337.5926191555
19 5612773.487554314
20 23143551.955031145
21 5612773.48755429
22 5910337.592619066
23 23143551.955031157
24 5910337.592619097
25 5612773.487554264
26 23143551.95503113
27 5612773.48755423
28 5910337.59261914
$EndElementData
$NodeData
1
"Fixity"
1
0
3
0
3
16
1 0 0 0
2 0 0 0
3 0 0 0
4 0 0 0
5 0 0 0
6 0 0 0
7 0 0 0
8 0 0 0
9 0 0 0
10 0 0 0
11 0 0 0
12 0 0 0
13 1 1 1
14 1 1 1
15 1 1 1
16 1 1 1
$EndNodeData
$NodeData
1
"NodalForce"
1
0
3
0
3
16
1 0 -12200 0
2 0 0 0
3 0 -12200 0
4 0 0 0
5 0 -12200 0
6 0 0 0
7 0 -12200 0
8 0 0 0
9 0 0 0
10 0 0 0
11 0 0 0
12 0 0 0
13 0 0 0
14 0 0 0
15 0 0 0
16 0 0 0
$EndNodeData
$ElementData
1
"CrossSectionArea"
1
0
3
0
1
28
1 0.0033632920065877047
2 0.0033632920065877047
3 0.0033632920065877047
4 0.0033632920065877047
5 0.0033632920065877047
6 0.0033632920065877047
7 0.0033632920065877047
8 0.0033632920065877047
9 0.0033632920065877047
10 0.0033632920065877047
11 0.0033632920065877047
12 0.0033632920065877047
13 0.0033632920065877047
14 0.0033632920065877047
15 0.0033632920065877047
16 0.0033632920065877047
17 0.000659495382052919
18 0.00032060738428047234
19 0.00032060738428047234
20 0.000659495382052919
21 0.00032060738428047234
22 0.00032060738428047234
23 0.000659495382052919
24 0.00032060738428047234
25 0.00032060738428047234
26 0.000659495382052919
27 0.00032060738428047234
28 0.00032060738428047234
$EndElementData
$ElementData
1
"Attribute:ElementFormulation"
1
0
3
0
1
28
1 1
2 1
3 1
4 1
5 1
6 1
7 1
8 1
9 1
10 1
11 1
12 1
13 1
14 1
15 1
16 1
17 1
18 1
19 1
20 1
21 1
22 1
23 1
24 1
25 1
26 1
27 1
28 1
$EndElementData
$ElementData
1
"MaterialID"
1
0
3
0
1
28
1 15
2 15
3 15
4 15
5 15
6 15
7 15
8 15
9 15
10 15
11 15
12 15
13 15
14 15
15 15
16 15
17 15
18 15
19 15
20 15
21 15
22 15
23 15
24 15
25 15
26 15
27 15
28 15
$EndElementData
$ElementData
1
"Attribute:SecondMomentY"
1
0
3
0
1
28
1 5.769141797809077e-06
2 5.769141797809077e-06
3 5.769141797809077e-06
4 5.769141797809077e-06
5 5.769141797809077e-06
6 5.769141797809077e-06
7 5.769141797809077e-06
8 5.769141797809077e-06
9 5.769141797809077e-06
10 5.769141797809077e-06
11 5.769141797809077e-06
12 5.769141797809077e-06
13 5.769141797809077e-06
14 5.769141797809077e-06
15 5.769141797809077e-06
16 5.769141797809077e-06
17 8.163491207123878e-07
18 1.5341644438704604e-07
19 1.5341644438704604e-07
20 8.163491207123878e-07
21 1.5341644438704604e-07
22 1.5341644438704604e-07
23 8.163491207123878e-07
24 1.5341644438704604e-07
25 1.5341644438704604e-07
26 8.163491207123878e-07
27 1.5341644438704604e-07
28 1.5341644438704604e-07
$EndElementData
$ElementData
1
"Attribute:SecondMomentZ"
1
0
3
0
1
28
1 1.703308143931157e-05
2 1.703308143931157e-05
3 1.703308143931157e-05
4 1.703308143931157e-05
5 1.703308143931157e-05
6 1.703308143931157e-05
7 1.703308143931157e-05
8 1.703308143931157e-05
9 1.703308143931157e-05
10 1.703308143931157e-05
11 1.703308143931157e-05
12 1.703308143931157e-05
13 1.703308143931157e-05
14 1.703308143931157e-05
15 1.703308143931157e-05
16 1.703308143931157e-05
17 8.163491207123878e-07
18 1.5341644438704604e-07
19 1.5341644438704604e-07
20 8.163491207123878e-07
21 1.5341644438704604e-07
22 1.5341644438704604e-07
23 8.163491207123878e-07
24 1.5341644438704604e-07
25 1.5341644438704604e-07
26 8.163491207123878e-07
27 1.5341644438704604e-07
28 1.5341644438704604e-07
$EndElementData
$ElementData
1
"Attribute:SectionDimension1"
1
0
3
0
1
28
1 0.2
2 0.2
3 0.2
4 0.2
5 0.2
6 0.2
7 0.2
8 0.2
9 0.2
10 0.2
11 0.2
12 0.2
13 0.2
14 0.2
15 0.2
16 0.2
17 0.1016
18 0.0635
19 0.0635
20 0.1016
21 0.0635
22 0.0635
23 0.1016
24 0.0635
25 0.0635
26 0.1016
27 0.0635
28 0.0635
$EndElementData
$ElementData
1
"Attribute:SectionDimension2"
1
0
3
0
1
28
1 0.1
2 0.1
3 0.1
4 0.1
5 0.1
6 0.1
7 0.1
8 0.1
9 0.1
10 0.1
11 0.1
12 0.1
13 0.1
14 0.1
15 0.1
16 0.1
17 0.00211
18 0.00165
19 0.00165
20 0.00211
21 0.00165
22 0.00165
23 0.00211
24 0.00165
25 0.00165
26 0.00211
27 0.00165
28 0.00165
$EndElementData
$ElementData
1
"Attribute:SectionDimension3"
1
0
3
0
1
28
1 0.006
2 0.006
3 0.006
4 0.006
5 0.006
6 0.006
7 0.006
8 0.006
9 0.006
10 0.006
11 0.006
12 0.006
13 0.006
14 0.006
15 0.006
16 0.006
17 0
18 0
19 0
20 0
21 0
22 0
23 0
24 0
25 0
26 0
27 0
28 0
$EndElementData
$ElementData
1
"Attribute:SectionDimension4"
1
0
3
0
1
28
1 0.012
2 0.012
3 0.012
4 0.012
5 0.012
6 0.012
7 0.012
8 0.012
9 0.012
10 0.012
11 0.012
12 0.012
13 0.012
14 0.012
15 0.012
16 0.012
17 0
18 0
19 0
20 0
21 0
22 0
23 0
24 0
25 0
26 0
27 0
28 0
$EndElementData
$ElementData
1
"Attribute:SectionDimension5"
1
0
3
0
1
28
1 0.006
2 0.006
3 0.006
4 0.006
5 0.006
6 0.006
7 0.006
8 0.006
9 0.006
10 0.006
11 0.006
12 0.006
13 0.006
14 0.006
15 0.006
16 0.006
17 0
18 0
19 0
20 0
21 0
22 0
23 0
24 0
25 0
26 0
27 0
28 0
$EndElementData
$ElementData
1
"Attribute:SectionShape"
1
0
3
0
1
28
1 4
2 4
3 4
4 4
5 4
6 4
7 4
8 4
9 4
10 4
11 4
12 4
13 4
14 4
15 4
16 4
17 3
18 3
19 3
20 3
21 3
22 3
23 3
24 3
25 3
26 3
27 3
28 3
$EndElementData
$ElementData
1
"Attribute:ShearAreaY"
1
0
3
0
1
28
1 0.002142317809904676
2 0.002142317809904676
3 0.002142317809904676
4 0.002142317809904676
5 0.002142317809904676
6 0.002142317809904676
7 0.002142317809904676
8 0.002142317809904676
9 0.002142317809904676
10 0.002142317809904676
11 0.002142317809904676
12 0.002142317809904676
13 0.002142317809904676
14 0.002142317809904676
15 0.002142317809904676
16 0.002142317809904676
17 0.0003524389440980115
18 0.00017140647743002412
19 0.00017140647743002412
20 0.0003524389440980115
21 0.00017140647743002412
22 0.00017140647743002412
23 0.0003524389440980115
24 0.00017140647743002412
25 0.00017140647743002412
26 0.0003524389440980115
27 0.00017140647743002412
28 0.00017140647743002412
$EndElementData
$ElementData
1
"Attribute:ShearAreaZ"
1
0
3
0
1
28
1 0.0007922781466742113
2 0.0007922781466742113
3 0.0007922781466742113
4 0.0007922781466742113
5 0.0007922781466742113
6 0.0007922781466742113
7 0.0007922781466742113
8 0.0007922781466742113
9 0.0007922781466742113
10 0.0007922781466742113
11 0.0007922781466742113
12 0.0007922781466742113
13 0.0007922781466742113
14 0.0007922781466742113
15 0.0007922781466742113
16 0.0007922781466742113
17 0.0003524389440980115
18 0.00017140647743002412
19 0.00017140647743002412
20 0.0003524389440980115
21 0.00017140647743002412
22 0.00017140647743002412
23 0.0003524389440980115
24 0.00017140647743002412
25 0.00017140647743002412
26 0.0003524389440980115
27 0.00017140647743002412
28 0.00017140647743002412
$EndElementData
$ElementData
1
"Attribute:TorsionConstant"
1
0
3
0
1
28
1 1.4170255375859663e-05
2 1.4170255375859663e-05
3 1.4170255375859663e-05
4 1.4170255375859663e-05
5 1.4170255375859663e-05
6 1.4170255375859663e-05
7 1.4170255375859663e-05
8 1.4170255375859663e-05
9 1.4170255375859663e-05
10 1.4170255375859663e-05
11 1.4170255375859663e-05
12 1.4170255375859663e-05
13 1.4170255375859663e-05
14 1.4170255375859663e-05
15 1.4170255375859663e-05
16 1.4170255375859663e-05
17 1.6326982414247755e-06
18 3.068328887740921e-07
19 3.068328887740921e-07
20 1.6326982414247755e-06
21 3.068328887740921e-07
22 3.068328887740921e-07
23 1.6326982414247755e-06
24 3.068328887740921e-07
25 3.068328887740921e-07
26 1.6326982414247755e-06
27 3.068328887740921e-07
28 3.068328887740921e-07
$EndElementData
$ElementData
1
"Attribute:UniformLoadGlobalX"
1
0
3
0
1
28
1 0
2 0
3 0
4 0
5 0
6 0
7 0
8 0
9 0
10 0
11 0
12 0
13 0
14 0
15 0
16 0
17 0
18 0
19 0
20 0
21 0
22 0
23 0
24 0
25 0
26 0
27 0
28 0
$EndElementData
$ElementData
1
"Attribute:UniformLoadGlobalY"
1
0
3
0
1
28
1 0
2 0
3 0
4 0
5 0
6 0
7 0
8 0
9 0
10 0
11 0
12 0
13 0
14 0
15 0
16 0
17 0
18 0
19 0
20 0
21 0
22 0
23 0
24 0
25 0
26 0
27 0
28 0
$EndElementData
$ElementData
1
"Attribute:UniformLoadGlobalZ"
1
0
3
0
1
28
1 0
2 0
3 0
4 0
5 0
6 0
7 0
8 0
9 0
10 0
11 0
12 0
13 0
14 0
15 0
16 0
17 0
18 0
19 0
20 0
21 0
22 0
23 0
24 0
25 0
26 0
27 0
28 0
$EndElementData
$ElementData
1
"Attribute:UniformLoadLocalX"
1
0
3
0
1
28
1 0
2 0
3 0
4 0
5 0
6 0
7 0
8 0
9 0
10 0
11 0
12 0
13 0
14 0
15 0
16 0
17 0
18 0
19 0
20 0
21 0
22 0
23 0
24 0
25 0
26 0
27 0
28 0
$EndElementData
$ElementData
1
"Attribute:UniformLoadLocalY"
1
0
3
0
1
28
1 0
2 0
3 0
4 0
5 0
6 0
7 0
8 0
9 0
10 0
11 0
12 0
13 0
14 0
15 0
16 0
17 0
18 0
19 0
20 0
21 0
22 0
23 0
24 0
25 0
26 0
27 0
28 0
$EndElementData
$ElementData
1
"Attribute:UniformLoadLocalZ"
1
0
3
0
1
28
1 0
2 0
3 0
4 0
5 0
6 0
7 0
8 0
9 0
10 0
11 0
12 0
13 0
14 0
15 0
16 0
17 0
18 0
19 0
20 0
21 0
22 0
23 0
24 0
25 0
26 0
27 0
28 0
$EndElementData
$ElementData
1
"BeamOrientation"
1
0
3
0
3
28
1 0 0 0
2 0 0 0
3 0 0 0
4 1 0 0
5 0 0 0
6 0 0 0
7 0 0 0
8 1 0 0
9 0 0 0
10 0 0 0
11 0 0 0
12 1 0 0
13 0 0 0
14 0 0 0
15 0 0 0
16 1 0 0
17 0 0 0
18 0 0 0
19 0 0 0
20 0 0 0
21 0 0 0
22 0 0 0
23 0 0 0
24 0 0 0
25 0 0 0
26 0 0 0
27 0 0 0
28 0 0 0
$EndElementData
$AnafData
1
1
GLOBAL 3 1
"Gravity"
0 -4.86 0
$EndAnafData
