$MeshFormat
4.1 0 8
$EndMeshFormat
$PhysicalNames
3
1 1 "Material:Aluminum 7075-T6"
1 2 "Section:Box 60x40x3"
1 3 "Section:Box 80x40x3"
$EndPhysicalNames
$Entities
0 2 0 0
1 -0.6 0 -0.6 0.6 1.4 0.6 2 1 3 0
2 -0.6 0 -0.6 0.6 1.4 0.6 2 1 2 0
$EndEntities
$Nodes
1 12 1 12
1 1 0 12
1
2
3
4
5
6
7
8
9
10
11
12
-0.6 0 -0.6
-0.6 0.7 -0.6
-0.6 1.4 -0.6
0.6 0 -0.6
0.6 0.7 -0.6
0.6 1.4 -0.6
0.6 0 0.6
0.6 0.7 0.6
0.6 1.4 0.6
-0.6 0 0.6
-0.6 0.7 0.6
-0.6 1.4 0.6
$EndNodes
$Elements
2 20 1 20
1 1 1 8
1 1 2
2 2 3
3 4 5
4 5 6
5 7 8
6 8 9
7 10 11
8 11 12
1 2 1 12
9 1 4
10 4 7
11 7 10
12 10 1
13 2 5
14 5 8
15 8 11
16 11 2
17 3 6
18 6 9
19 9 12
20 12 3
$EndElements
$NodeData
1
"Displacement"
1
0
3
0
3
12
1 0 0 0
2 0.002050630165953925 -4.087117001043102e-05 -1.544558149003133e-07
3 0.004173498955900371 -5.153452581341127e-05 3.81954132880142e-07
4 0 0 0
5 0.002051142635080327 -6.448191809202758e-05 -2.673536413876033e-07
6 0.004172766606967857 -8.419783781226322e-05 2.4873056899906734e-07
7 0 0 0
8 0.0020511426350803656 -6.448191809202784e-05 2.673536413688245e-07
9 0.004172766606967961 -8.41978378122636e-05 -2.487305690376778e-07
10 0 0 0
11 0.0020506301659539644 -4.087117001043075e-05 1.5445581491949543e-07
12 0.004173498955900474 -5.153452581341086e-05 -3.8195413284073537e-07
$EndNodeData
$NodeData
1
"Rotation"
1
0
3
0
3
12
1 0 0 0
2 4.324455724922929e-05 4.577212945568837e-05 -0.0032836135758030063
3 9.053666167237276e-05 5.367802501989173e-05 -0.0020862334750257807
4 0 0 0
5 4.313353179167882e-05 4.57721294556885e-05 -0.0032541005070260195
6 9.054411257864296e-05 5.367802501989352e-05 -0.0020090146074357627
7 0 0 0
8 -4.313353179170082e-05 -4.5772129455638797e-05 -0.0032541005070260962
9 -9.054411257865547e-05 -5.36780250197848e-05 -0.0020090146074358294
10 0 0 0
11 -4.324455724920685e-05 -4.5772129455638193e-05 -0.003283613575803081
12 -9.053666167236e-05 -5.3678025019784425e-05 -0.002086233475025848
$EndNodeData
$ElementData
1
"BeamSectionForce"
1
0
3
0
12
20
1 -2804.6944552600557 1194.1503155772139 6.733328725574697 0.7746756600867515 -1.5790454929273257 590.7156756488421 -2728.212067648888 1168.6561863734914 6.733328725574697 0.7746756600867515 3.134284614974963 -236.2666000339042
2 -760.0134218009007 331.7962738946748 20.383561965330188 0.1338042371549535 -6.283844514258554 49.07118791632772 -683.531034189733 306.3021446909523 20.383561965330188 0.1338042371549535 7.984648861472576 -174.26325858864132
3 -4402.838844545766 1208.360784358007 6.76593348059186 0.7746756600867537 -1.592453606518339 594.1098148264886 -4326.356456934598 1182.8666551542847 6.76593348059186 0.7746756600867537 3.1436998298959633 -242.819789002813
4 -1372.75572810201 379.1267760729108 20.37654886543563 0.13380423715498158 -6.279259498464708 63.08367283771208 -1296.2733404908422 353.63264686918825 20.37654886543563 0.13380423715498158 7.984324707340232 -193.38212519202236
5 -4402.838844545783 1208.3607843580223 -6.765933480586981 -0.7746756600859125 1.5924536065162358 594.109814826498 -4326.356456934615 1182.8666551543 -6.765933480586981 -0.7746756600859125 -3.143699829894652 -242.81978900281425
6 -1372.755728102019 379.12677607293114 -20.376548865432213 -0.1338042371539827 6.279259498463684 63.08367283771836 -1296.2733404908513 353.6326468692086 -20.376548865432213 -0.1338042371539827 -7.984324707338867 -193.3821251920297
7 -2804.6944552600376 1194.1503155772316 -6.733328725579685 -0.7746756600859023 1.579045492929475 590.7156756488523 -2728.21206764887 1168.6561863735092 -6.733328725579685 -0.7746756600859023 -3.1342846149763055 -236.26660003390637
8 -760.0134218008916 331.7962738946921 -20.383561965333666 -0.1338042371539866 6.283844514259597 49.071187916333265 -683.5310341897239 306.30214469096956 -20.383561965333666 -0.1338042371539866 -7.984648861473968 -174.26325858864786
9 17.883947890047917 -53.651843670143755 -0 -0 -0 -10.730368734028751 -17.883947890047917 53.651843670143755 0 0 0 -10.730368734028751
10 -0 -53.651843670143755 -17.883947890047917 -0 3.576789578009583 -10.730368734028751 0 53.651843670143755 17.883947890047917 0 3.576789578009583 -10.730368734028751
11 -17.883947890047917 -53.651843670143755 -0 -0 -0 -10.730368734028751 17.883947890047917 53.651843670143755 0 0 0 -10.730368734028751
12 -0 -53.651843670143755 17.883947890047917 -0 -3.576789578009583 -10.730368734028751 0 53.651843670143755 -17.883947890047917 0 -3.576789578009583 -10.730368734028751
13 34.44396458877577 439.0491978221544 3.6680089755086422 -0.000731526024512652 -2.200805385305185 285.3377879502322 -1.3239311913200673 546.3528851624419 3.6680089755086422 -0.000731526024512652 2.2008053853051868 -305.9034618405257
14 17.278624360352403 -53.65184367014545 -17.883947890048475 -5.044853423896711e-13 2.841676808236947 -9.422227802336156 17.278624360352403 53.65184367014206 17.88394789004736 -5.044853423896711e-13 2.84167680823625 -9.422227802334115
15 -1.3239311913491711 -546.3528851624534 -3.6680089755071723 0.0007315260242197752 2.2008053853043084 -305.9034618405326 34.44396458874667 -439.04919782216587 -3.6680089755071723 0.0007315260242197752 -2.2008053853042986 285.3377879502391
16 9.982224264246844 -53.651843670145496 17.883947890047285 -4.902744876744691e-13 -2.8416768082362225 -9.418860655260113 9.982224264246844 53.651843670142014 -17.88394789004855 -4.902744876744691e-13 -2.841676808236988 -9.41886065525803
17 -5.78130319909565 252.71930948041035 4.301502919360923 4.909263121355423e-05 -2.58090175161654 174.2632585886417 -41.54919897919149 360.02299682069787 4.301502919360923 4.909263121355423e-05 2.580901751616569 -193.38212519202327
18 -16.075045946074702 -53.65184367014475 -17.883947890050507 -4.3876013933186186e-13 2.7147059887715392 -7.984373799971446 -16.075045946074702 53.65184367014276 17.883947890045327 -4.3876013933186186e-13 2.714705988768425 -7.984373799970248
19 -41.54919897913328 -360.02299682070793 -4.30150291935747 -4.9092631380198704e-05 2.5809017516144857 -193.3821251920293 -5.781303199037442 -252.7193094804204 -4.30150291935747 -4.9092631380198704e-05 -2.5809017516144794 174.26325858864774
20 -24.685064884691133 -53.65184367014478 17.883947890045423 -4.4231285301066237e-13 -2.71470598876851 -7.984599768842589 -24.685064884691133 53.65184367014273 -17.88394789005041 -4.4231285301066237e-13 -2.7147059887715272 -7.984599768841365
$EndElementData
$ElementData
1
"AxialForce"
1
0
3
0
1
20
1 -2766.453261454472
2 -721.7722279953168
3 -4364.597650740182
4 -1334.514534296426
5 -4364.597650740199
6 -1334.5145342964352
7 -2766.4532614544537
8 -721.7722279953077
9 0
10 0
11 0
12 0
13 16.56001669872785
14 17.278624360352403
15 16.560016698698746
16 9.982224264246844
17 -23.665251089143567
18 -16.075045946074702
19 -23.66525108908536
20 -24.685064884691133
$EndElementData
$ElementData
1
"VonMisesStress"
1
0
3
0
1
20
1 49906353.77316132
2 15113400.453052763
3 52576639.19558444
4 17511965.379514594
5 52576639.195585
6 17511965.3795151
7 49906353.77316224
8 15113400.453053366
9 1340579.3924775373
10 1752394.800402646
11 1340579.3924775373
12 1752394.800402646
13 36542505.20906597
14 1549602.0675157732
15 36542505.20906676
16 1536394.0883613091
17 23309992.691089842
18 1376083.0845237363
19 23309992.69109024
20 1391064.4367392538
$EndElementData
$NodeData
1
"Fixity"
1
0
3
0
3
12
1 1 1 1
2 0 0 0
3 0 0 0
4 1 1 1
5 0 0 0
6 0 0 0
7 1 1 1
8 0 0 0
9 0 0 0
10 1 1 1
11 0 0 0
12 0 0 0
$EndNodeData
$NodeData
1
"FixityRotation"
1
0
3
0
3
12
1 1 1 1
2 0 0 0
3 0 0 0
4 1 1 1
5 0 0 0
6 0 0 0
7 1 1 1
8 0 0 0
9 0 0 0
10 1 1 1
11 0 0 0
12 0 0 0
$EndNodeData
$NodeData
1
"NodalForce"
1
0
3
0
3
12
1 0 0 0
2 784.5319999999999 -2353.596 0
3 294.1995 -882.5985 0
4 0 0 0
5 784.5319999999999 -2353.596 0
6 294.1995 -882.5985 0
7 0 0 0
8 784.5319999999999 -2353.596 0
9 294.1995 -882.5985 0
10 0 0 0
11 784.5319999999999 -2353.596 0
12 294.1995 -882.5985 0
$EndNodeData
$ElementData
1
"CrossSectionArea"
1
0
3
0
1
20
1 0.0006608230016469244
2 0.0006608230016469244
3 0.0006608230016469244
4 0.0006608230016469244
5 0.0006608230016469244
6 0.0006608230016469244
7 0.0006608230016469244
8 0.0006608230016469244
9 0.0005408230016469239
10 0.0005408230016469239
11 0.0005408230016469239
12 0.0005408230016469239
13 0.0005408230016469239
14 0.0005408230016469239
15 0.0005408230016469239
16 0.0005408230016469239
17 0.0005408230016469239
18 0.0005408230016469239
19 0.0005408230016469239
20 0.0005408230016469239
$EndElementData
$ElementData
1
"Attribute:ElementFormulation"
1
0
3
0
1
20
1 1
2 1
3 1
4 1
5 1
6 1
7 1
8 1
9 1
10 1
11 1
12 1
13 1
14 1
15 1
16 1
17 1
18 1
19 1
20 1
$EndElementData
$ElementData
1
"MaterialID"
1
0
3
0
1
20
1 13
2 13
3 13
4 13
5 13
6 13
7 13
8 13
9 13
10 13
11 13
12 13
13 13
14 13
15 13
16 13
17 13
18 13
19 13
20 13
$EndElementData
$ElementData
1
"Attribute:SecondMomentY"
1
0
3
0
1
20
1 1.7555556709132495e-07
2 1.7555556709132495e-07
3 1.7555556709132495e-07
4 1.7555556709132495e-07
5 1.7555556709132495e-07
6 1.7555556709132495e-07
7 1.7555556709132495e-07
8 1.7555556709132495e-07
9 1.3439556709132484e-07
10 1.3439556709132484e-07
11 1.3439556709132484e-07
12 1.3439556709132484e-07
13 1.3439556709132484e-07
14 1.3439556709132484e-07
15 1.3439556709132484e-07
16 1.3439556709132484e-07
17 1.3439556709132484e-07
18 1.3439556709132484e-07
19 1.3439556709132484e-07
20 1.3439556709132484e-07
$EndElementData
$ElementData
1
"Attribute:SecondMomentZ"
1
0
3
0
1
20
1 5.225056486723729e-07
2 5.225056486723729e-07
3 5.225056486723729e-07
4 5.225056486723729e-07
5 5.225056486723729e-07
6 5.225056486723729e-07
7 5.225056486723729e-07
8 5.225056486723729e-07
9 2.537883077171562e-07
10 2.537883077171562e-07
11 2.537883077171562e-07
12 2.537883077171562e-07
13 2.537883077171562e-07
14 2.537883077171562e-07
15 2.537883077171562e-07
16 2.537883077171562e-07
17 2.537883077171562e-07
18 2.537883077171562e-07
19 2.537883077171562e-07
20 2.537883077171562e-07
$EndElementData
$ElementData
1
"Attribute:SectionDimension1"
1
0
3
0
1
20
1 0.08
2 0.08
3 0.08
4 0.08
5 0.08
6 0.08
7 0.08
8 0.08
9 0.06
10 0.06
11 0.06
12 0.06
13 0.06
14 0.06
15 0.06
16 0.06
17 0.06
18 0.06
19 0.06
20 0.06
$EndElementData
$ElementData
1
"Attribute:SectionDimension2"
1
0
3
0
1
20
1 0.04
2 0.04
3 0.04
4 0.04
5 0.04
6 0.04
7 0.04
8 0.04
9 0.04
10 0.04
11 0.04
12 0.04
13 0.04
14 0.04
15 0.04
16 0.04
17 0.04
18 0.04
19 0.04
20 0.04
$EndElementData
$ElementData
1
"Attribute:SectionDimension3"
1
0
3
0
1
20
1 0.003
2 0.003
3 0.003
4 0.003
5 0.003
6 0.003
7 0.003
8 0.003
9 0.003
10 0.003
11 0.003
12 0.003
13 0.003
14 0.003
15 0.003
16 0.003
17 0.003
18 0.003
19 0.003
20 0.003
$EndElementData
$ElementData
1
"Attribute:SectionDimension4"
1
0
3
0
1
20
1 0.006
2 0.006
3 0.006
4 0.006
5 0.006
6 0.006
7 0.006
8 0.006
9 0.006
10 0.006
11 0.006
12 0.006
13 0.006
14 0.006
15 0.006
16 0.006
17 0.006
18 0.006
19 0.006
20 0.006
$EndElementData
$ElementData
1
"Attribute:SectionDimension5"
1
0
3
0
1
20
1 0.003
2 0.003
3 0.003
4 0.003
5 0.003
6 0.003
7 0.003
8 0.003
9 0.003
10 0.003
11 0.003
12 0.003
13 0.003
14 0.003
15 0.003
16 0.003
17 0.003
18 0.003
19 0.003
20 0.003
$EndElementData
$ElementData
1
"Attribute:SectionShape"
1
0
3
0
1
20
1 4
2 4
3 4
4 4
5 4
6 4
7 4
8 4
9 4
10 4
11 4
12 4
13 4
14 4
15 4
16 4
17 4
18 4
19 4
20 4
$EndElementData
$ElementData
1
"Attribute:ShearAreaY"
1
0
3
0
1
20
1 0.00042187725572707756
2 0.00042187725572707756
3 0.00042187725572707756
4 0.00042187725572707756
5 0.00042187725572707756
6 0.00042187725572707756
7 0.00042187725572707756
8 0.00042187725572707756
9 0.0003038347602687874
10 0.0003038347602687874
11 0.0003038347602687874
12 0.0003038347602687874
13 0.0003038347602687874
14 0.0003038347602687874
15 0.0003038347602687874
16 0.0003038347602687874
17 0.0003038347602687874
18 0.0003038347602687874
19 0.0003038347602687874
20 0.0003038347602687874
$EndElementData
$ElementData
1
"Attribute:ShearAreaZ"
1
0
3
0
1
20
1 0.00015395668953075635
2 0.00015395668953075635
3 0.00015395668953075635
4 0.00015395668953075635
5 0.00015395668953075635
6 0.00015395668953075635
7 0.00015395668953075635
8 0.00015395668953075635
9 0.00016836011980367143
10 0.00016836011980367143
11 0.00016836011980367143
12 0.00016836011980367143
13 0.00016836011980367143
14 0.00016836011980367143
15 0.00016836011980367143
16 0.00016836011980367143
17 0.00016836011980367143
18 0.00016836011980367143
19 0.00016836011980367143
20 0.00016836011980367143
$EndElementData
$ElementData
1
"Attribute:TorsionConstant"
1
0
3
0
1
20
1 4.387863098978217e-07
2 4.387863098978217e-07
3 4.387863098978217e-07
4 4.387863098978217e-07
5 4.387863098978217e-07
6 4.387863098978217e-07
7 4.387863098978217e-07
8 4.387863098978217e-07
9 2.928361519369186e-07
10 2.928361519369186e-07
11 2.928361519369186e-07
12 2.928361519369186e-07
13 2.928361519369186e-07
14 2.928361519369186e-07
15 2.928361519369186e-07
16 2.928361519369186e-07
17 2.928361519369186e-07
18 2.928361519369186e-07
19 2.928361519369186e-07
20 2.928361519369186e-07
$EndElementData
$ElementData
1
"Attribute:UniformLoadGlobalX"
1
0
3
0
1
20
1 0
2 0
3 0
4 0
5 0
6 0
7 0
8 0
9 0
10 0
11 0
12 0
13 0
14 0
15 0
16 0
17 0
18 0
19 0
20 0
$EndElementData
$ElementData
1
"Attribute:UniformLoadGlobalY"
1
0
3
0
1
20
1 0
2 0
3 0
4 0
5 0
6 0
7 0
8 0
9 0
10 0
11 0
12 0
13 0
14 0
15 0
16 0
17 0
18 0
19 0
20 0
$EndElementData
$ElementData
1
"Attribute:UniformLoadGlobalZ"
1
0
3
0
1
20
1 0
2 0
3 0
4 0
5 0
6 0
7 0
8 0
9 0
10 0
11 0
12 0
13 0
14 0
15 0
16 0
17 0
18 0
19 0
20 0
$EndElementData
$ElementData
1
"Attribute:UniformLoadLocalX"
1
0
3
0
1
20
1 0
2 0
3 0
4 0
5 0
6 0
7 0
8 0
9 0
10 0
11 0
12 0
13 0
14 0
15 0
16 0
17 0
18 0
19 0
20 0
$EndElementData
$ElementData
1
"Attribute:UniformLoadLocalY"
1
0
3
0
1
20
1 0
2 0
3 0
4 0
5 0
6 0
7 0
8 0
9 0
10 0
11 0
12 0
13 0
14 0
15 0
16 0
17 0
18 0
19 0
20 0
$EndElementData
$ElementData
1
"Attribute:UniformLoadLocalZ"
1
0
3
0
1
20
1 0
2 0
3 0
4 0
5 0
6 0
7 0
8 0
9 0
10 0
11 0
12 0
13 0
14 0
15 0
16 0
17 0
18 0
19 0
20 0
$EndElementData
$ElementData
1
"BeamOrientation"
1
0
3
0
3
20
1 0 0 0
2 0 0 0
3 0 0 0
4 0 0 0
5 0 0 0
6 0 0 0
7 0 0 0
8 0 0 0
9 0 0 0
10 0 0 0
11 0 0 0
12 0 0 0
13 0 0 0
14 0 0 0
15 0 0 0
16 0 0 0
17 0 0 0
18 0 0 0
19 0 0 0
20 0 0 0
$EndElementData
$AnafData
1
1
GLOBAL 3 1
"Gravity"
19.6133 -58.8399 0
$EndAnafData
