$MeshFormat
4.1 0 8
$EndMeshFormat
$PhysicalNames
3
1 1 "Material:Aluminum 2024-T3"
1 2 "Section:Tube 63.5x1.65"
1 3 "Section:Tube 101.6x2.11"
$EndPhysicalNames
$Entities
0 2 0 0
1 0 -1.5 -1.5 16 1.5 1.5 2 1 3 0
2 0 -1.5 -1.5 16 1.5 1.5 2 1 2 0
$EndEntities
$Nodes
1 20 1 20
1 1 0 20
1
2
3
4
5
6
7
8
9
10
11
12
13
14
15
16
17
18
19
20
0 -1.5 -1.5
4 -1.5 -1.5
8 -1.5 -1.5
12 -1.5 -1.5
16 -1.5 -1.5
0 1.5 -1.5
4 1.5 -1.5
8 1.5 -1.5
12 1.5 -1.5
16 1.5 -1.5
0 1.5 1.5
4 1.5 1.5
8 1.5 1.5
12 1.5 1.5
16 1.5 1.5
0 -1.5 1.5
4 -1.5 1.5
8 -1.5 1.5
12 -1.5 1.5
16 -1.5 1.5
$EndNodes
$Elements
2 52 1 52
1 1 1 16
1 1 2
2 2 3
3 3 4
4 4 5
5 6 7
6 7 8
7 8 9
8 9 10
9 11 12
10 12 13
11 13 14
12 14 15
13 16 17
14 17 18
15 18 19
16 19 20
1 2 1 36
17 1 6
18 6 11
19 11 16
20 16 1
21 2 7
22 7 12
23 12 17
24 17 2
25 3 8
26 8 13
27 13 18
28 18 3
29 4 9
30 9 14
31 14 19
32 19 4
33 5 10
34 10 15
35 15 20
36 20 5
37 1 7
38 6 12
39 11 17
40 16 2
41 2 8
42 7 13
43 12 18
44 17 3
45 3 9
46 8 14
47 13 19
48 18 4
49 4 10
50 9 15
51 14 20
52 19 5
$EndElements
$NodeData
1
"Fixity"
1
0
3
0
3
20
1 1 1 1
2 0 0 0
3 0 0 0
4 0 0 0
5 0 0 0
6 1 1 1
7 0 0 0
8 0 0 0
9 0 0 0
10 0 0 0
11 1 1 1
12 0 0 0
13 0 0 0
14 0 0 0
15 0 0 0
16 1 1 1
17 0 0 0
18 0 0 0
19 0 0 0
20 0 0 0
$EndNodeData
$NodeData
1
"FixityRotation"
1
0
3
0
3
20
1 1 1 1
2 0 0 0
3 0 0 0
4 0 0 0
5 0 0 0
6 1 1 1
7 0 0 0
8 0 0 0
9 0 0 0
10 0 0 0
11 1 1 1
12 0 0 0
13 0 0 0
14 0 0 0
15 0 0 0
16 1 1 1
17 0 0 0
18 0 0 0
19 0 0 0
20 0 0 0
$EndNodeData
$NodeData
1
"NodalForce"
1
0
3
0
3
20
1 0 0 0
2 0 0 0
3 0 0 0
4 0 0 0
5 0 2000 0
6 0 0 0
7 0 0 0
8 0 0 0
9 0 0 0
10 0 2000 0
11 0 0 0
12 0 0 0
13 0 0 0
14 0 0 0
15 0 2000 0
16 0 0 0
17 0 0 0
18 0 0 0
19 0 0 0
20 0 2000 0
$EndNodeData
$NodeData
1
"NodalMoment"
1
0
3
0
3
20
1 0 0 0
2 0 0 0
3 0 0 0
4 0 0 0
5 750 0 0
6 0 0 0
7 0 0 0
8 0 0 0
9 0 0 0
10 750 0 0
11 0 0 0
12 0 0 0
13 0 0 0
14 0 0 0
15 750 0 0
16 0 0 0
17 0 0 0
18 0 0 0
19 0 0 0
20 750 0 0
$EndNodeData
$ElementData
1
"CrossSectionArea"
1
0
3
0
1
52
1 0.000659495382052919
2 0.000659495382052919
3 0.000659495382052919
4 0.000659495382052919
5 0.000659495382052919
6 0.000659495382052919
7 0.000659495382052919
8 0.000659495382052919
9 0.000659495382052919
10 0.000659495382052919
11 0.000659495382052919
12 0.000659495382052919
13 0.000659495382052919
14 0.000659495382052919
15 0.000659495382052919
16 0.000659495382052919
17 0.00032060738428047234
18 0.00032060738428047234
19 0.00032060738428047234
20 0.00032060738428047234
21 0.00032060738428047234
22 0.00032060738428047234
23 0.00032060738428047234
24 0.00032060738428047234
25 0.00032060738428047234
26 0.00032060738428047234
27 0.00032060738428047234
28 0.00032060738428047234
29 0.00032060738428047234
30 0.00032060738428047234
31 0.00032060738428047234
32 0.00032060738428047234
33 0.00032060738428047234
34 0.00032060738428047234
35 0.00032060738428047234
36 0.00032060738428047234
37 0.00032060738428047234
38 0.00032060738428047234
39 0.00032060738428047234
40 0.00032060738428047234
41 0.00032060738428047234
42 0.00032060738428047234
43 0.00032060738428047234
44 0.00032060738428047234
45 0.00032060738428047234
46 0.00032060738428047234
47 0.00032060738428047234
48 0.00032060738428047234
49 0.00032060738428047234
50 0.00032060738428047234
51 0.00032060738428047234
52 0.00032060738428047234
$EndElementData
$ElementData
1
"Attribute:ElementFormulation"
1
0
3
0
1
52
1 1
2 1
3 1
4 1
5 1
6 1
7 1
8 1
9 1
10 1
11 1
12 1
13 1
14 1
15 1
16 1
17 1
18 1
19 1
20 1
21 1
22 1
23 1
24 1
25 1
26 1
27 1
28 1
29 1
30 1
31 1
32 1
33 1
34 1
35 1
36 1
37 1
38 1
39 1
40 1
41 1
42 1
43 1
44 1
45 1
46 1
47 1
48 1
49 1
50 1
51 1
52 1
$EndElementData
$ElementData
1
"MaterialID"
1
0
3
0
1
52
1 10
2 10
3 10
4 10
5 10
6 10
7 10
8 10
9 10
10 10
11 10
12 10
13 10
14 10
15 10
16 10
17 10
18 10
19 10
20 10
21 10
22 10
23 10
24 10
25 10
26 10
27 10
28 10
29 10
30 10
31 10
32 10
33 10
34 10
35 10
36 10
37 10
38 10
39 10
40 10
41 10
42 10
43 10
44 10
45 10
46 10
47 10
48 10
49 10
50 10
51 10
52 10
$EndElementData
$ElementData
1
"Attribute:SecondMomentY"
1
0
3
0
1
52
1 8.163491207123878e-07
2 8.163491207123878e-07
3 8.163491207123878e-07
4 8.163491207123878e-07
5 8.163491207123878e-07
6 8.163491207123878e-07
7 8.163491207123878e-07
8 8.163491207123878e-07
9 8.163491207123878e-07
10 8.163491207123878e-07
11 8.163491207123878e-07
12 8.163491207123878e-07
13 8.163491207123878e-07
14 8.163491207123878e-07
15 8.163491207123878e-07
16 8.163491207123878e-07
17 1.5341644438704604e-07
18 1.5341644438704604e-07
19 1.5341644438704604e-07
20 1.5341644438704604e-07
21 1.5341644438704604e-07
22 1.5341644438704604e-07
23 1.5341644438704604e-07
24 1.5341644438704604e-07
25 1.5341644438704604e-07
26 1.5341644438704604e-07
27 1.5341644438704604e-07
28 1.5341644438704604e-07
29 1.5341644438704604e-07
30 1.5341644438704604e-07
31 1.5341644438704604e-07
32 1.5341644438704604e-07
33 1.5341644438704604e-07
34 1.5341644438704604e-07
35 1.5341644438704604e-07
36 1.5341644438704604e-07
37 1.5341644438704604e-07
38 1.5341644438704604e-07
39 1.5341644438704604e-07
40 1.5341644438704604e-07
41 1.5341644438704604e-07
42 1.5341644438704604e-07
43 1.5341644438704604e-07
44 1.5341644438704604e-07
45 1.5341644438704604e-07
46 1.5341644438704604e-07
47 1.5341644438704604e-07
48 1.5341644438704604e-07
49 1.5341644438704604e-07
50 1.5341644438704604e-07
51 1.5341644438704604e-07
52 1.5341644438704604e-07
$EndElementData
$ElementData
1
"Attribute:SecondMomentZ"
1
0
3
0
1
52
1 8.163491207123878e-07
2 8.163491207123878e-07
3 8.163491207123878e-07
4 8.163491207123878e-07
5 8.163491207123878e-07
6 8.163491207123878e-07
7 8.163491207123878e-07
8 8.163491207123878e-07
9 8.163491207123878e-07
10 8.163491207123878e-07
11 8.163491207123878e-07
12 8.163491207123878e-07
13 8.163491207123878e-07
14 8.163491207123878e-07
15 8.163491207123878e-07
16 8.163491207123878e-07
17 1.5341644438704604e-07
18 1.5341644438704604e-07
19 1.5341644438704604e-07
20 1.5341644438704604e-07
21 1.5341644438704604e-07
22 1.5341644438704604e-07
23 1.5341644438704604e-07
24 1.5341644438704604e-07
25 1.5341644438704604e-07
26 1.5341644438704604e-07
27 1.5341644438704604e-07
28 1.5341644438704604e-07
29 1.5341644438704604e-07
30 1.5341644438704604e-07
31 1.5341644438704604e-07
32 1.5341644438704604e-07
33 1.5341644438704604e-07
34 1.5341644438704604e-07
35 1.5341644438704604e-07
36 1.5341644438704604e-07
37 1.5341644438704604e-07
38 1.5341644438704604e-07
39 1.5341644438704604e-07
40 1.5341644438704604e-07
41 1.5341644438704604e-07
42 1.5341644438704604e-07
43 1.5341644438704604e-07
44 1.5341644438704604e-07
45 1.5341644438704604e-07
46 1.5341644438704604e-07
47 1.5341644438704604e-07
48 1.5341644438704604e-07
49 1.5341644438704604e-07
50 1.5341644438704604e-07
51 1.5341644438704604e-07
52 1.5341644438704604e-07
$EndElementData
$ElementData
1
"Attribute:SectionDimension1"
1
0
3
0
1
52
1 0.1016
2 0.1016
3 0.1016
4 0.1016
5 0.1016
6 0.1016
7 0.1016
8 0.1016
9 0.1016
10 0.1016
11 0.1016
12 0.1016
13 0.1016
14 0.1016
15 0.1016
16 0.1016
17 0.0635
18 0.0635
19 0.0635
20 0.0635
21 0.0635
22 0.0635
23 0.0635
24 0.0635
25 0.0635
26 0.0635
27 0.0635
28 0.0635
29 0.0635
30 0.0635
31 0.0635
32 0.0635
33 0.0635
34 0.0635
35 0.0635
36 0.0635
37 0.0635
38 0.0635
39 0.0635
40 0.0635
41 0.0635
42 0.0635
43 0.0635
44 0.0635
45 0.0635
46 0.0635
47 0.0635
48 0.0635
49 0.0635
50 0.0635
51 0.0635
52 0.0635
$EndElementData
$ElementData
1
"Attribute:SectionDimension2"
1
0
3
0
1
52
1 0.00211
2 0.00211
3 0.00211
4 0.00211
5 0.00211
6 0.00211
7 0.00211
8 0.00211
9 0.00211
10 0.00211
11 0.00211
12 0.00211
13 0.00211
14 0.00211
15 0.00211
16 0.00211
17 0.00165
18 0.00165
19 0.00165
20 0.00165
21 0.00165
22 0.00165
23 0.00165
24 0.00165
25 0.00165
26 0.00165
27 0.00165
28 0.00165
29 0.00165
30 0.00165
31 0.00165
32 0.00165
33 0.00165
34 0.00165
35 0.00165
36 0.00165
37 0.00165
38 0.00165
39 0.00165
40 0.00165
41 0.00165
42 0.00165
43 0.00165
44 0.00165
45 0.00165
46 0.00165
47 0.00165
48 0.00165
49 0.00165
50 0.00165
51 0.00165
52 0.00165
$EndElementData
$ElementData
1
"Attribute:SectionDimension3"
1
0
3
0
1
52
1 0
2 0
3 0
4 0
5 0
6 0
7 0
8 0
9 0
10 0
11 0
12 0
13 0
14 0
15 0
16 0
17 0
18 0
19 0
20 0
21 0
22 0
23 0
24 0
25 0
26 0
27 0
28 0
29 0
30 0
31 0
32 0
33 0
34 0
35 0
36 0
37 0
38 0
39 0
40 0
41 0
42 0
43 0
44 0
45 0
46 0
47 0
48 0
49 0
50 0
51 0
52 0
$EndElementData
$ElementData
1
"Attribute:SectionDimension4"
1
0
3
0
1
52
1 0
2 0
3 0
4 0
5 0
6 0
7 0
8 0
9 0
10 0
11 0
12 0
13 0
14 0
15 0
16 0
17 0
18 0
19 0
20 0
21 0
22 0
23 0
24 0
25 0
26 0
27 0
28 0
29 0
30 0
31 0
32 0
33 0
34 0
35 0
36 0
37 0
38 0
39 0
40 0
41 0
42 0
43 0
44 0
45 0
46 0
47 0
48 0
49 0
50 0
51 0
52 0
$EndElementData
$ElementData
1
"Attribute:SectionDimension5"
1
0
3
0
1
52
1 0
2 0
3 0
4 0
5 0
6 0
7 0
8 0
9 0
10 0
11 0
12 0
13 0
14 0
15 0
16 0
17 0
18 0
19 0
20 0
21 0
22 0
23 0
24 0
25 0
26 0
27 0
28 0
29 0
30 0
31 0
32 0
33 0
34 0
35 0
36 0
37 0
38 0
39 0
40 0
41 0
42 0
43 0
44 0
45 0
46 0
47 0
48 0
49 0
50 0
51 0
52 0
$EndElementData
$ElementData
1
"Attribute:SectionShape"
1
0
3
0
1
52
1 3
2 3
3 3
4 3
5 3
6 3
7 3
8 3
9 3
10 3
11 3
12 3
13 3
14 3
15 3
16 3
17 3
18 3
19 3
20 3
21 3
22 3
23 3
24 3
25 3
26 3
27 3
28 3
29 3
30 3
31 3
32 3
33 3
34 3
35 3
36 3
37 3
38 3
39 3
40 3
41 3
42 3
43 3
44 3
45 3
46 3
47 3
48 3
49 3
50 3
51 3
52 3
$EndElementData
$ElementData
1
"Attribute:ShearAreaY"
1
0
3
0
1
52
1 0.0003518076905884543
2 0.0003518076905884543
3 0.0003518076905884543
4 0.0003518076905884543
5 0.0003518076905884543
6 0.0003518076905884543
7 0.0003518076905884543
8 0.0003518076905884543
9 0.0003518076905884543
10 0.0003518076905884543
11 0.0003518076905884543
12 0.0003518076905884543
13 0.0003518076905884543
14 0.0003518076905884543
15 0.0003518076905884543
16 0.0003518076905884543
17 0.00017109955695503065
18 0.00017109955695503065
19 0.00017109955695503065
20 0.00017109955695503065
21 0.00017109955695503065
22 0.00017109955695503065
23 0.00017109955695503065
24 0.00017109955695503065
25 0.00017109955695503065
26 0.00017109955695503065
27 0.00017109955695503065
28 0.00017109955695503065
29 0.00017109955695503065
30 0.00017109955695503065
31 0.00017109955695503065
32 0.00017109955695503065
33 0.00017109955695503065
34 0.00017109955695503065
35 0.00017109955695503065
36 0.00017109955695503065
37 0.00017109955695503065
38 0.00017109955695503065
39 0.00017109955695503065
40 0.00017109955695503065
41 0.00017109955695503065
42 0.00017109955695503065
43 0.00017109955695503065
44 0.00017109955695503065
45 0.00017109955695503065
46 0.00017109955695503065
47 0.00017109955695503065
48 0.00017109955695503065
49 0.00017109955695503065
50 0.00017109955695503065
51 0.00017109955695503065
52 0.00017109955695503065
$EndElementData
$ElementData
1
"Attribute:ShearAreaZ"
1
0
3
0
1
52
1 0.0003518076905884543
2 0.0003518076905884543
3 0.0003518076905884543
4 0.0003518076905884543
5 0.0003518076905884543
6 0.0003518076905884543
7 0.0003518076905884543
8 0.0003518076905884543
9 0.0003518076905884543
10 0.0003518076905884543
11 0.0003518076905884543
12 0.0003518076905884543
13 0.0003518076905884543
14 0.0003518076905884543
15 0.0003518076905884543
16 0.0003518076905884543
17 0.00017109955695503065
18 0.00017109955695503065
19 0.00017109955695503065
20 0.00017109955695503065
21 0.00017109955695503065
22 0.00017109955695503065
23 0.00017109955695503065
24 0.00017109955695503065
25 0.00017109955695503065
26 0.00017109955695503065
27 0.00017109955695503065
28 0.00017109955695503065
29 0.00017109955695503065
30 0.00017109955695503065
31 0.00017109955695503065
32 0.00017109955695503065
33 0.00017109955695503065
34 0.00017109955695503065
35 0.00017109955695503065
36 0.00017109955695503065
37 0.00017109955695503065
38 0.00017109955695503065
39 0.00017109955695503065
40 0.00017109955695503065
41 0.00017109955695503065
42 0.00017109955695503065
43 0.00017109955695503065
44 0.00017109955695503065
45 0.00017109955695503065
46 0.00017109955695503065
47 0.00017109955695503065
48 0.00017109955695503065
49 0.00017109955695503065
50 0.00017109955695503065
51 0.00017109955695503065
52 0.00017109955695503065
$EndElementData
$ElementData
1
"Attribute:TorsionConstant"
1
0
3
0
1
52
1 1.6326982414247755e-06
2 1.6326982414247755e-06
3 1.6326982414247755e-06
4 1.6326982414247755e-06
5 1.6326982414247755e-06
6 1.6326982414247755e-06
7 1.6326982414247755e-06
8 1.6326982414247755e-06
9 1.6326982414247755e-06
10 1.6326982414247755e-06
11 1.6326982414247755e-06
12 1.6326982414247755e-06
13 1.6326982414247755e-06
14 1.6326982414247755e-06
15 1.6326982414247755e-06
16 1.6326982414247755e-06
17 3.068328887740921e-07
18 3.068328887740921e-07
19 3.068328887740921e-07
20 3.068328887740921e-07
21 3.068328887740921e-07
22 3.068328887740921e-07
23 3.068328887740921e-07
24 3.068328887740921e-07
25 3.068328887740921e-07
26 3.068328887740921e-07
27 3.068328887740921e-07
28 3.068328887740921e-07
29 3.068328887740921e-07
30 3.068328887740921e-07
31 3.068328887740921e-07
32 3.068328887740921e-07
33 3.068328887740921e-07
34 3.068328887740921e-07
35 3.068328887740921e-07
36 3.068328887740921e-07
37 3.068328887740921e-07
38 3.068328887740921e-07
39 3.068328887740921e-07
40 3.068328887740921e-07
41 3.068328887740921e-07
42 3.068328887740921e-07
43 3.068328887740921e-07
44 3.068328887740921e-07
45 3.068328887740921e-07
46 3.068328887740921e-07
47 3.068328887740921e-07
48 3.068328887740921e-07
49 3.068328887740921e-07
50 3.068328887740921e-07
51 3.068328887740921e-07
52 3.068328887740921e-07
$EndElementData
$ElementData
1
"Attribute:UniformLoadGlobalX"
1
0
3
0
1
52
1 0
2 0
3 0
4 0
5 0
6 0
7 0
8 0
9 0
10 0
11 0
12 0
13 0
14 0
15 0
16 0
17 0
18 0
19 0
20 0
21 0
22 0
23 0
24 0
25 0
26 0
27 0
28 0
29 0
30 0
31 0
32 0
33 0
34 0
35 0
36 0
37 0
38 0
39 0
40 0
41 0
42 0
43 0
44 0
45 0
46 0
47 0
48 0
49 0
50 0
51 0
52 0
$EndElementData
$ElementData
1
"Attribute:UniformLoadGlobalY"
1
0
3
0
1
52
1 0
2 0
3 0
4 0
5 0
6 0
7 0
8 0
9 0
10 0
11 0
12 0
13 0
14 0
15 0
16 0
17 0
18 0
19 0
20 0
21 0
22 0
23 0
24 0
25 0
26 0
27 0
28 0
29 0
30 0
31 0
32 0
33 0
34 0
35 0
36 0
37 0
38 0
39 0
40 0
41 0
42 0
43 0
44 0
45 0
46 0
47 0
48 0
49 0
50 0
51 0
52 0
$EndElementData
$ElementData
1
"Attribute:UniformLoadGlobalZ"
1
0
3
0
1
52
1 0
2 0
3 0
4 0
5 0
6 0
7 0
8 0
9 0
10 0
11 0
12 0
13 0
14 0
15 0
16 0
17 0
18 0
19 0
20 0
21 0
22 0
23 0
24 0
25 0
26 0
27 0
28 0
29 0
30 0
31 0
32 0
33 0
34 0
35 0
36 0
37 0
38 0
39 0
40 0
41 0
42 0
43 0
44 0
45 0
46 0
47 0
48 0
49 0
50 0
51 0
52 0
$EndElementData
$ElementData
1
"Attribute:UniformLoadLocalX"
1
0
3
0
1
52
1 0
2 0
3 0
4 0
5 0
6 0
7 0
8 0
9 0
10 0
11 0
12 0
13 0
14 0
15 0
16 0
17 0
18 0
19 0
20 0
21 0
22 0
23 0
24 0
25 0
26 0
27 0
28 0
29 0
30 0
31 0
32 0
33 0
34 0
35 0
36 0
37 0
38 0
39 0
40 0
41 0
42 0
43 0
44 0
45 0
46 0
47 0
48 0
49 0
50 0
51 0
52 0
$EndElementData
$ElementData
1
"Attribute:UniformLoadLocalY"
1
0
3
0
1
52
1 0
2 0
3 0
4 0
5 0
6 0
7 0
8 0
9 0
10 0
11 0
12 0
13 0
14 0
15 0
16 0
17 0
18 0
19 0
20 0
21 0
22 0
23 0
24 0
25 0
26 0
27 0
28 0
29 0
30 0
31 0
32 0
33 0
34 0
35 0
36 0
37 0
38 0
39 0
40 0
41 0
42 0
43 0
44 0
45 0
46 0
47 0
48 0
49 0
50 0
51 0
52 0
$EndElementData
$ElementData
1
"Attribute:UniformLoadLocalZ"
1
0
3
0
1
52
1 0
2 0
3 0
4 0
5 0
6 0
7 0
8 0
9 0
10 0
11 0
12 0
13 0
14 0
15 0
16 0
17 0
18 0
19 0
20 0
21 0
22 0
23 0
24 0
25 0
26 0
27 0
28 0
29 0
30 0
31 0
32 0
33 0
34 0
35 0
36 0
37 0
38 0
39 0
40 0
41 0
42 0
43 0
44 0
45 0
46 0
47 0
48 0
49 0
50 0
51 0
52 0
$EndElementData
$ElementData
1
"BeamOrientation"
1
0
3
0
3
52
1 0 0 0
2 0 0 0
3 0 0 0
4 0 0 0
5 0 0 0
6 0 0 0
7 0 0 0
8 0 0 0
9 0 0 0
10 0 0 0
11 0 0 0
12 0 0 0
13 0 0 0
14 0 0 0
15 0 0 0
16 0 0 0
17 0 0 0
18 0 0 0
19 0 0 0
20 0 0 0
21 0 0 0
22 0 0 0
23 0 0 0
24 0 0 0
25 0 0 0
26 0 0 0
27 0 0 0
28 0 0 0
29 0 0 0
30 0 0 0
31 0 0 0
32 0 0 0
33 0 0 0
34 0 0 0
35 0 0 0
36 0 0 0
37 0 0 0
38 0 0 0
39 0 0 0
40 0 0 0
41 0 0 0
42 0 0 0
43 0 0 0
44 0 0 0
45 0 0 0
46 0 0 0
47 0 0 0
48 0 0 0
49 0 0 0
50 0 0 0
51 0 0 0
52 0 0 0
$EndElementData
$AnafData
1
1
GLOBAL 3 1
"Gravity"
0 0 0
$EndAnafData
