$MeshFormat
4.1 0 8
$EndMeshFormat
$PhysicalNames
4
1 1 "Material:Titanium Ti-6Al-4V (Grade 5, annealed)"
1 2 "Section:Tube 63.5x1.65"
1 3 "Section:Tube 101.6x2.11"
1 4 "Section:Box 200x100x6"
$EndPhysicalNames
$Entities
0 3 0 0
1 -1.5 1.2 -1.5 1.5 2 1.5 2 1 4 0
2 -2.625 0 -2.625 2.625 2 2.625 2 1 3 0
3 -2.625 0 -2.625 2.625 1.2 2.625 2 1 2 0
$EndEntities
$Nodes
1 16 1 16
1 1 0 16
1
2
3
4
5
6
7
8
9
10
11
12
13
14
15
16
-1.5 2 -1.5
-1.5 1.2 -1.5
1.5 2 -1.5
1.5 1.2 -1.5
1.5 2 1.5
1.5 1.2 1.5
-1.5 2 1.5
-1.5 1.2 1.5
0 1.2 -1.5
1.5 1.2 0
0 1.2 1.5
-1.5 1.2 0
-2.625 0 -2.625
2.625 0 -2.625
2.625 0 2.625
-2.625 0 2.625
$EndNodes
$Elements
3 28 1 28
1 1 1 16
1 1 3
2 2 9
3 9 4
4 1 2
5 3 5
6 4 10
7 10 6
8 3 4
9 5 7
10 6 11
11 11 8
12 5 6
13 7 1
14 8 12
15 12 2
16 7 8
1 2 1 4
17 1 13
20 3 14
23 5 15
26 7 16
1 3 1 8
18 9 13
19 12 13
21 10 14
22 9 14
24 11 15
25 10 15
27 12 16
28 11 16
$EndElements
$NodeData
1
"Fixity"
1
0
3
0
3
16
1 0 0 0
2 0 0 0
3 0 0 0
4 0 0 0
5 0 0 0
6 0 0 0
7 0 0 0
8 0 0 0
9 0 0 0
10 0 0 0
11 0 0 0
12 0 0 0
13 1 1 1
14 1 1 1
15 1 1 1
16 1 1 1
$EndNodeData
$NodeData
1
"NodalForce"
1
0
3
0
3
16
1 0 -12200 0
2 0 0 0
3 0 -12200 0
4 0 0 0
5 0 -12200 0
6 0 0 0
7 0 -12200 0
8 0 0 0
9 0 0 0
10 0 0 0
11 0 0 0
12 0 0 0
13 0 0 0
14 0 0 0
15 0 0 0
16 0 0 0
$EndNodeData
$ElementData
1
"CrossSectionArea"
1
0
3
0
1
28
1 0.0033632920065877047
2 0.0033632920065877047
3 0.0033632920065877047
4 0.0033632920065877047
5 0.0033632920065877047
6 0.0033632920065877047
7 0.0033632920065877047
8 0.0033632920065877047
9 0.0033632920065877047
10 0.0033632920065877047
11 0.0033632920065877047
12 0.0033632920065877047
13 0.0033632920065877047
14 0.0033632920065877047
15 0.0033632920065877047
16 0.0033632920065877047
17 0.000659495382052919
18 0.00032060738428047234
19 0.00032060738428047234
20 0.000659495382052919
21 0.00032060738428047234
22 0.00032060738428047234
23 0.000659495382052919
24 0.00032060738428047234
25 0.00032060738428047234
26 0.000659495382052919
27 0.00032060738428047234
28 0.00032060738428047234
$EndElementData
$ElementData
1
"Attribute:ElementFormulation"
1
0
3
0
1
28
1 1
2 1
3 1
4 1
5 1
6 1
7 1
8 1
9 1
10 1
11 1
12 1
13 1
14 1
15 1
16 1
17 1
18 1
19 1
20 1
21 1
22 1
23 1
24 1
25 1
26 1
27 1
28 1
$EndElementData
$ElementData
1
"MaterialID"
1
0
3
0
1
28
1 15
2 15
3 15
4 15
5 15
6 15
7 15
8 15
9 15
10 15
11 15
12 15
13 15
14 15
15 15
16 15
17 15
18 15
19 15
20 15
21 15
22 15
23 15
24 15
25 15
26 15
27 15
28 15
$EndElementData
$ElementData
1
"Attribute:SecondMomentY"
1
0
3
0
1
28
1 5.769141797809077e-06
2 5.769141797809077e-06
3 5.769141797809077e-06
4 5.769141797809077e-06
5 5.769141797809077e-06
6 5.769141797809077e-06
7 5.769141797809077e-06
8 5.769141797809077e-06
9 5.769141797809077e-06
10 5.769141797809077e-06
11 5.769141797809077e-06
12 5.769141797809077e-06
13 5.769141797809077e-06
14 5.769141797809077e-06
15 5.769141797809077e-06
16 5.769141797809077e-06
17 8.163491207123878e-07
18 1.5341644438704604e-07
19 1.5341644438704604e-07
20 8.163491207123878e-07
21 1.5341644438704604e-07
22 1.5341644438704604e-07
23 8.163491207123878e-07
24 1.5341644438704604e-07
25 1.5341644438704604e-07
26 8.163491207123878e-07
27 1.5341644438704604e-07
28 1.5341644438704604e-07
$EndElementData
$ElementData
1
"Attribute:SecondMomentZ"
1
0
3
0
1
28
1 1.703308143931157e-05
2 1.703308143931157e-05
3 1.703308143931157e-05
4 1.703308143931157e-05
5 1.703308143931157e-05
6 1.703308143931157e-05
7 1.703308143931157e-05
8 1.703308143931157e-05
9 1.703308143931157e-05
10 1.703308143931157e-05
11 1.703308143931157e-05
12 1.703308143931157e-05
13 1.703308143931157e-05
14 1.703308143931157e-05
15 1.703308143931157e-05
16 1.703308143931157e-05
17 8.163491207123878e-07
18 1.5341644438704604e-07
19 1.5341644438704604e-07
20 8.163491207123878e-07
21 1.5341644438704604e-07
22 1.5341644438704604e-07
23 8.163491207123878e-07
24 1.5341644438704604e-07
25 1.5341644438704604e-07
26 8.163491207123878e-07
27 1.5341644438704604e-07
28 1.5341644438704604e-07
$EndElementData
$ElementData
1
"Attribute:SectionDimension1"
1
0
3
0
1
28
1 0.2
2 0.2
3 0.2
4 0.2
5 0.2
6 0.2
7 0.2
8 0.2
9 0.2
10 0.2
11 0.2
12 0.2
13 0.2
14 0.2
15 0.2
16 0.2
17 0.1016
18 0.0635
19 0.0635
20 0.1016
21 0.0635
22 0.0635
23 0.1016
24 0.0635
25 0.0635
26 0.1016
27 0.0635
28 0.0635
$EndElementData
$ElementData
1
"Attribute:SectionDimension2"
1
0
3
0
1
28
1 0.1
2 0.1
3 0.1
4 0.1
5 0.1
6 0.1
7 0.1
8 0.1
9 0.1
10 0.1
11 0.1
12 0.1
13 0.1
14 0.1
15 0.1
16 0.1
17 0.00211
18 0.00165
19 0.00165
20 0.00211
21 0.00165
22 0.00165
23 0.00211
24 0.00165
25 0.00165
26 0.00211
27 0.00165
28 0.00165
$EndElementData
$ElementData
1
"Attribute:SectionDimension3"
1
0
3
0
1
28
1 0.006
2 0.006
3 0.006
4 0.006
5 0.006
6 0.006
7 0.006
8 0.006
9 0.006
10 0.006
11 0.006
12 0.006
13 0.006
14 0.006
15 0.006
16 0.006
17 0
18 0
19 0
20 0
21 0
22 0
23 0
24 0
25 0
26 0
27 0
28 0
$EndElementData
$ElementData
1
"Attribute:SectionDimension4"
1
0
3
0
1
28
1 0.012
2 0.012
3 0.012
4 0.012
5 0.012
6 0.012
7 0.012
8 0.012
9 0.012
10 0.012
11 0.012
12 0.012
13 0.012
14 0.012
15 0.012
16 0.012
17 0
18 0
19 0
20 0
21 0
22 0
23 0
24 0
25 0
26 0
27 0
28 0
$EndElementData
$ElementData
1
"Attribute:SectionDimension5"
1
0
3
0
1
28
1 0.006
2 0.006
3 0.006
4 0.006
5 0.006
6 0.006
7 0.006
8 0.006
9 0.006
10 0.006
11 0.006
12 0.006
13 0.006
14 0.006
15 0.006
16 0.006
17 0
18 0
19 0
20 0
21 0
22 0
23 0
24 0
25 0
26 0
27 0
28 0
$EndElementData
$ElementData
1
"Attribute:SectionShape"
1
0
3
0
1
28
1 4
2 4
3 4
4 4
5 4
6 4
7 4
8 4
9 4
10 4
11 4
12 4
13 4
14 4
15 4
16 4
17 3
18 3
19 3
20 3
21 3
22 3
23 3
24 3
25 3
26 3
27 3
28 3
$EndElementData
$ElementData
1
"Attribute:ShearAreaY"
1
0
3
0
1
28
1 0.002142317809904676
2 0.002142317809904676
3 0.002142317809904676
4 0.002142317809904676
5 0.002142317809904676
6 0.002142317809904676
7 0.002142317809904676
8 0.002142317809904676
9 0.002142317809904676
10 0.002142317809904676
11 0.002142317809904676
12 0.002142317809904676
13 0.002142317809904676
14 0.002142317809904676
15 0.002142317809904676
16 0.002142317809904676
17 0.0003524389440980115
18 0.00017140647743002412
19 0.00017140647743002412
20 0.0003524389440980115
21 0.00017140647743002412
22 0.00017140647743002412
23 0.0003524389440980115
24 0.00017140647743002412
25 0.00017140647743002412
26 0.0003524389440980115
27 0.00017140647743002412
28 0.00017140647743002412
$EndElementData
$ElementData
1
"Attribute:ShearAreaZ"
1
0
3
0
1
28
1 0.0007922781466742113
2 0.0007922781466742113
3 0.0007922781466742113
4 0.0007922781466742113
5 0.0007922781466742113
6 0.0007922781466742113
7 0.0007922781466742113
8 0.0007922781466742113
9 0.0007922781466742113
10 0.0007922781466742113
11 0.0007922781466742113
12 0.0007922781466742113
13 0.0007922781466742113
14 0.0007922781466742113
15 0.0007922781466742113
16 0.0007922781466742113
17 0.0003524389440980115
18 0.00017140647743002412
19 0.00017140647743002412
20 0.0003524389440980115
21 0.00017140647743002412
22 0.00017140647743002412
23 0.0003524389440980115
24 0.00017140647743002412
25 0.00017140647743002412
26 0.0003524389440980115
27 0.00017140647743002412
28 0.00017140647743002412
$EndElementData
$ElementData
1
"Attribute:TorsionConstant"
1
0
3
0
1
28
1 1.4170255375859663e-05
2 1.4170255375859663e-05
3 1.4170255375859663e-05
4 1.4170255375859663e-05
5 1.4170255375859663e-05
6 1.4170255375859663e-05
7 1.4170255375859663e-05
8 1.4170255375859663e-05
9 1.4170255375859663e-05
10 1.4170255375859663e-05
11 1.4170255375859663e-05
12 1.4170255375859663e-05
13 1.4170255375859663e-05
14 1.4170255375859663e-05
15 1.4170255375859663e-05
16 1.4170255375859663e-05
17 1.6326982414247755e-06
18 3.068328887740921e-07
19 3.068328887740921e-07
20 1.6326982414247755e-06
21 3.068328887740921e-07
22 3.068328887740921e-07
23 1.6326982414247755e-06
24 3.068328887740921e-07
25 3.068328887740921e-07
26 1.6326982414247755e-06
27 3.068328887740921e-07
28 3.068328887740921e-07
$EndElementData
$ElementData
1
"Attribute:UniformLoadGlobalX"
1
0
3
0
1
28
1 0
2 0
3 0
4 0
5 0
6 0
7 0
8 0
9 0
10 0
11 0
12 0
13 0
14 0
15 0
16 0
17 0
18 0
19 0
20 0
21 0
22 0
23 0
24 0
25 0
26 0
27 0
28 0
$EndElementData
$ElementData
1
"Attribute:UniformLoadGlobalY"
1
0
3
0
1
28
1 0
2 0
3 0
4 0
5 0
6 0
7 0
8 0
9 0
10 0
11 0
12 0
13 0
14 0
15 0
16 0
17 0
18 0
19 0
20 0
21 0
22 0
23 0
24 0
25 0
26 0
27 0
28 0
$EndElementData
$ElementData
1
"Attribute:UniformLoadGlobalZ"
1
0
3
0
1
28
1 0
2 0
3 0
4 0
5 0
6 0
7 0
8 0
9 0
10 0
11 0
12 0
13 0
14 0
15 0
16 0
17 0
18 0
19 0
20 0
21 0
22 0
23 0
24 0
25 0
26 0
27 0
28 0
$EndElementData
$ElementData
1
"Attribute:UniformLoadLocalX"
1
0
3
0
1
28
1 0
2 0
3 0
4 0
5 0
6 0
7 0
8 0
9 0
10 0
11 0
12 0
13 0
14 0
15 0
16 0
17 0
18 0
19 0
20 0
21 0
22 0
23 0
24 0
25 0
26 0
27 0
28 0
$EndElementData
$ElementData
1
"Attribute:UniformLoadLocalY"
1
0
3
0
1
28
1 0
2 0
3 0
4 0
5 0
6 0
7 0
8 0
9 0
10 0
11 0
12 0
13 0
14 0
15 0
16 0
17 0
18 0
19 0
20 0
21 0
22 0
23 0
24 0
25 0
26 0
27 0
28 0
$EndElementData
$ElementData
1
"Attribute:UniformLoadLocalZ"
1
0
3
0
1
28
1 0
2 0
3 0
4 0
5 0
6 0
7 0
8 0
9 0
10 0
11 0
12 0
13 0
14 0
15 0
16 0
17 0
18 0
19 0
20 0
21 0
22 0
23 0
24 0
25 0
26 0
27 0
28 0
$EndElementData
$ElementData
1
"BeamOrientation"
1
0
3
0
3
28
1 0 0 0
2 0 0 0
3 0 0 0
4 1 0 0
5 0 0 0
6 0 0 0
7 0 0 0
8 1 0 0
9 0 0 0
10 0 0 0
11 0 0 0
12 1 0 0
13 0 0 0
14 0 0 0
15 0 0 0
16 1 0 0
17 0 0 0
18 0 0 0
19 0 0 0
20 0 0 0
21 0 0 0
22 0 0 0
23 0 0 0
24 0 0 0
25 0 0 0
26 0 0 0
27 0 0 0
28 0 0 0
$EndElementData
$AnafData
1
1
GLOBAL 3 1
"Gravity"
0 -4.86 0
$EndAnafData
