$MeshFormat
4.1 0 8
$EndMeshFormat
$PhysicalNames
2
1 1 "Material:Aluminum 6061-T6"
1 2 "Section:Tube 76.2x2.11"
$EndPhysicalNames
$Entities
0 1 0 0
1 0 0 0 10 0 0 2 1 2 0
$EndEntities
$Nodes
1 11 1 11
1 1 0 11
1
2
3
4
5
6
7
8
9
10
11
0 0 0
1 0 0
2 0 0
3 0 0
4 0 0
5 0 0
6 0 0
7 0 0
8 0 0
9 0 0
10 0 0
$EndNodes
$Elements
1 10 1 10
1 1 1 10
1 1 2
2 2 3
3 3 4
4 4 5
5 5 6
6 6 7
7 7 8
8 8 9
9 9 10
10 10 11
$EndElements
$NodeData
1
"Fixity"
1
0
3
0
3
11
1 1 1 1
2 0 0 0
3 0 0 0
4 0 0 0
5 0 0 0
6 0 0 0
7 0 0 0
8 0 0 0
9 0 0 0
10 0 0 0
11 0 0 0
$EndNodeData
$NodeData
1
"FixityRotation"
1
0
3
0
3
11
1 1 1 1
2 0 0 0
3 0 0 0
4 0 0 0
5 0 0 0
6 0 0 0
7 0 0 0
8 0 0 0
9 0 0 0
10 0 0 0
11 0 0 0
$EndNodeData
$NodeData
1
"NodalForce"
1
0
3
0
3
11
1 0 0 0
2 0 0 0
3 0 0 0
4 0 0 0
5 0 0 0
6 0 0 0
7 0 0 0
8 0 0 0
9 0 0 0
10 0 0 0
11 0 40 20
$EndNodeData
$ElementData
1
"CrossSectionArea"
1
0
3
0
1
10
1 0.0004911248653764272
2 0.0004911248653764272
3 0.0004911248653764272
4 0.0004911248653764272
5 0.0004911248653764272
6 0.0004911248653764272
7 0.0004911248653764272
8 0.0004911248653764272
9 0.0004911248653764272
10 0.0004911248653764272
$EndElementData
$ElementData
1
"Attribute:ElementFormulation"
1
0
3
0
1
10
1 1
2 1
3 1
4 1
5 1
6 1
7 1
8 1
9 1
10 1
$EndElementData
$ElementData
1
"MaterialID"
1
0
3
0
1
10
1 1
2 1
3 1
4 1
5 1
6 1
7 1
8 1
9 1
10 1
$EndElementData
$ElementData
1
"Attribute:SecondMomentY"
1
0
3
0
1
10
1 3.3726650764158525e-07
2 3.3726650764158525e-07
3 3.3726650764158525e-07
4 3.3726650764158525e-07
5 3.3726650764158525e-07
6 3.3726650764158525e-07
7 3.3726650764158525e-07
8 3.3726650764158525e-07
9 3.3726650764158525e-07
10 3.3726650764158525e-07
$EndElementData
$ElementData
1
"Attribute:SecondMomentZ"
1
0
3
0
1
10
1 3.3726650764158525e-07
2 3.3726650764158525e-07
3 3.3726650764158525e-07
4 3.3726650764158525e-07
5 3.3726650764158525e-07
6 3.3726650764158525e-07
7 3.3726650764158525e-07
8 3.3726650764158525e-07
9 3.3726650764158525e-07
10 3.3726650764158525e-07
$EndElementData
$ElementData
1
"Attribute:SectionDimension1"
1
0
3
0
1
10
1 0.0762
2 0.0762
3 0.0762
4 0.0762
5 0.0762
6 0.0762
7 0.0762
8 0.0762
9 0.0762
10 0.0762
$EndElementData
$ElementData
1
"Attribute:SectionDimension2"
1
0
3
0
1
10
1 0.00211
2 0.00211
3 0.00211
4 0.00211
5 0.00211
6 0.00211
7 0.00211
8 0.00211
9 0.00211
10 0.00211
$EndElementData
$ElementData
1
"Attribute:SectionDimension3"
1
0
3
0
1
10
1 0
2 0
3 0
4 0
5 0
6 0
7 0
8 0
9 0
10 0
$EndElementData
$ElementData
1
"Attribute:SectionDimension4"
1
0
3
0
1
10
1 0
2 0
3 0
4 0
5 0
6 0
7 0
8 0
9 0
10 0
$EndElementData
$ElementData
1
"Attribute:SectionDimension5"
1
0
3
0
1
10
1 0
2 0
3 0
4 0
5 0
6 0
7 0
8 0
9 0
10 0
$EndElementData
$ElementData
1
"Attribute:SectionShape"
1
0
3
0
1
10
1 3
2 3
3 3
4 3
5 3
6 3
7 3
8 3
9 3
10 3
$EndElementData
$ElementData
1
"Attribute:ShearAreaY"
1
0
3
0
1
10
1 0.0002621417693926878
2 0.0002621417693926878
3 0.0002621417693926878
4 0.0002621417693926878
5 0.0002621417693926878
6 0.0002621417693926878
7 0.0002621417693926878
8 0.0002621417693926878
9 0.0002621417693926878
10 0.0002621417693926878
$EndElementData
$ElementData
1
"Attribute:ShearAreaZ"
1
0
3
0
1
10
1 0.0002621417693926878
2 0.0002621417693926878
3 0.0002621417693926878
4 0.0002621417693926878
5 0.0002621417693926878
6 0.0002621417693926878
7 0.0002621417693926878
8 0.0002621417693926878
9 0.0002621417693926878
10 0.0002621417693926878
$EndElementData
$ElementData
1
"Attribute:TorsionConstant"
1
0
3
0
1
10
1 6.745330152831705e-07
2 6.745330152831705e-07
3 6.745330152831705e-07
4 6.745330152831705e-07
5 6.745330152831705e-07
6 6.745330152831705e-07
7 6.745330152831705e-07
8 6.745330152831705e-07
9 6.745330152831705e-07
10 6.745330152831705e-07
$EndElementData
$ElementData
1
"Attribute:UniformLoadGlobalX"
1
0
3
0
1
10
1 0
2 0
3 0
4 0
5 0
6 0
7 0
8 0
9 0
10 0
$EndElementData
$ElementData
1
"Attribute:UniformLoadGlobalY"
1
0
3
0
1
10
1 0
2 0
3 0
4 0
5 0
6 0
7 0
8 0
9 0
10 0
$EndElementData
$ElementData
1
"Attribute:UniformLoadGlobalZ"
1
0
3
0
1
10
1 0
2 0
3 0
4 0
5 0
6 0
7 0
8 0
9 0
10 0
$EndElementData
$ElementData
1
"Attribute:UniformLoadLocalX"
1
0
3
0
1
10
1 0
2 0
3 0
4 0
5 0
6 0
7 0
8 0
9 0
10 0
$EndElementData
$ElementData
1
"Attribute:UniformLoadLocalY"
1
0
3
0
1
10
1 0
2 0
3 0
4 0
5 0
6 0
7 0
8 0
9 0
10 0
$EndElementData
$ElementData
1
"Attribute:UniformLoadLocalZ"
1
0
3
0
1
10
1 0
2 0
3 0
4 0
5 0
6 0
7 0
8 0
9 0
10 0
$EndElementData
$ElementData
1
"BeamOrientation"
1
0
3
0
3
10
1 0 0 0
2 0 0 0
3 0 0 0
4 0 0 0
5 0 0 0
6 0 0 0
7 0 0 0
8 0 0 0
9 0 0 0
10 0 0 0
$EndElementData
$AnafData
1
1
GLOBAL 3 1
"Gravity"
0 0 0
$EndAnafData
