$MeshFormat
4.1 0 8
$EndMeshFormat
$PhysicalNames
3
1 1 "Material:Aluminum 7075-T6"
1 2 "Section:Box 60x40x3"
1 3 "Section:Box 80x40x3"
$EndPhysicalNames
$Entities
0 2 0 0
1 -0.6 0 -0.6 0.6 1.4 0.6 2 1 3 0
2 -0.6 0 -0.6 0.6 1.4 0.6 2 1 2 0
$EndEntities
$Nodes
1 12 1 12
1 1 0 12
1
2
3
4
5
6
7
8
9
10
11
12
-0.6 0 -0.6
-0.6 0.7 -0.6
-0.6 1.4 -0.6
0.6 0 -0.6
0.6 0.7 -0.6
0.6 1.4 -0.6
0.6 0 0.6
0.6 0.7 0.6
0.6 1.4 0.6
-0.6 0 0.6
-0.6 0.7 0.6
-0.6 1.4 0.6
$EndNodes
$Elements
2 20 1 20
1 1 1 8
1 1 2
2 2 3
3 4 5
4 5 6
5 7 8
6 8 9
7 10 11
8 11 12
1 2 1 12
9 1 4
10 4 7
11 7 10
12 10 1
13 2 5
14 5 8
15 8 11
16 11 2
17 3 6
18 6 9
19 9 12
20 12 3
$EndElements
$NodeData
1
"Fixity"
1
0
3
0
3
12
1 1 1 1
2 0 0 0
3 0 0 0
4 1 1 1
5 0 0 0
6 0 0 0
7 1 1 1
8 0 0 0
9 0 0 0
10 1 1 1
11 0 0 0
12 0 0 0
$EndNodeData
$NodeData
1
"FixityRotation"
1
0
3
0
3
12
1 1 1 1
2 0 0 0
3 0 0 0
4 1 1 1
5 0 0 0
6 0 0 0
7 1 1 1
8 0 0 0
9 0 0 0
10 1 1 1
11 0 0 0
12 0 0 0
$EndNodeData
$NodeData
1
"NodalForce"
1
0
3
0
3
12
1 0 0 0
2 784.5319999999999 -2353.596 0
3 294.1995 -882.5985 0
4 0 0 0
5 784.5319999999999 -2353.596 0
6 294.1995 -882.5985 0
7 0 0 0
8 784.5319999999999 -2353.596 0
9 294.1995 -882.5985 0
10 0 0 0
11 784.5319999999999 -2353.596 0
12 294.1995 -882.5985 0
$EndNodeData
$ElementData
1
"CrossSectionArea"
1
0
3
0
1
20
1 0.0006608230016469244
2 0.0006608230016469244
3 0.0006608230016469244
4 0.0006608230016469244
5 0.0006608230016469244
6 0.0006608230016469244
7 0.0006608230016469244
8 0.0006608230016469244
9 0.0005408230016469239
10 0.0005408230016469239
11 0.0005408230016469239
12 0.0005408230016469239
13 0.0005408230016469239
14 0.0005408230016469239
15 0.0005408230016469239
16 0.0005408230016469239
17 0.0005408230016469239
18 0.0005408230016469239
19 0.0005408230016469239
20 0.0005408230016469239
$EndElementData
$ElementData
1
"Attribute:ElementFormulation"
1
0
3
0
1
20
1 1
2 1
3 1
4 1
5 1
6 1
7 1
8 1
9 1
10 1
11 1
12 1
13 1
14 1
15 1
16 1
17 1
18 1
19 1
20 1
$EndElementData
$ElementData
1
"MaterialID"
1
0
3
0
1
20
1 13
2 13
3 13
4 13
5 13
6 13
7 13
8 13
9 13
10 13
11 13
12 13
13 13
14 13
15 13
16 13
17 13
18 13
19 13
20 13
$EndElementData
$ElementData
1
"Attribute:SecondMomentY"
1
0
3
0
1
20
1 1.7555556709132495e-07
2 1.7555556709132495e-07
3 1.7555556709132495e-07
4 1.7555556709132495e-07
5 1.7555556709132495e-07
6 1.7555556709132495e-07
7 1.7555556709132495e-07
8 1.7555556709132495e-07
9 1.3439556709132484e-07
10 1.3439556709132484e-07
11 1.3439556709132484e-07
12 1.3439556709132484e-07
13 1.3439556709132484e-07
14 1.3439556709132484e-07
15 1.3439556709132484e-07
16 1.3439556709132484e-07
17 1.3439556709132484e-07
18 1.3439556709132484e-07
19 1.3439556709132484e-07
20 1.3439556709132484e-07
$EndElementData
$ElementData
1
"Attribute:SecondMomentZ"
1
0
3
0
1
20
1 5.225056486723729e-07
2 5.225056486723729e-07
3 5.225056486723729e-07
4 5.225056486723729e-07
5 5.225056486723729e-07
6 5.225056486723729e-07
7 5.225056486723729e-07
8 5.225056486723729e-07
9 2.537883077171562e-07
10 2.537883077171562e-07
11 2.537883077171562e-07
12 2.537883077171562e-07
13 2.537883077171562e-07
14 2.537883077171562e-07
15 2.537883077171562e-07
16 2.537883077171562e-07
17 2.537883077171562e-07
18 2.537883077171562e-07
19 2.537883077171562e-07
20 2.537883077171562e-07
$EndElementData
$ElementData
1
"Attribute:SectionDimension1"
1
0
3
0
1
20
1 0.08
2 0.08
3 0.08
4 0.08
5 0.08
6 0.08
7 0.08
8 0.08
9 0.06
10 0.06
11 0.06
12 0.06
13 0.06
14 0.06
15 0.06
16 0.06
17 0.06
18 0.06
19 0.06
20 0.06
$EndElementData
$ElementData
1
"Attribute:SectionDimension2"
1
0
3
0
1
20
1 0.04
2 0.04
3 0.04
4 0.04
5 0.04
6 0.04
7 0.04
8 0.04
9 0.04
10 0.04
11 0.04
12 0.04
13 0.04
14 0.04
15 0.04
16 0.04
17 0.04
18 0.04
19 0.04
20 0.04
$EndElementData
$ElementData
1
"Attribute:SectionDimension3"
1
0
3
0
1
20
1 0.003
2 0.003
3 0.003
4 0.003
5 0.003
6 0.003
7 0.003
8 0.003
9 0.003
10 0.003
11 0.003
12 0.003
13 0.003
14 0.003
15 0.003
16 0.003
17 0.003
18 0.003
19 0.003
20 0.003
$EndElementData
$ElementData
1
"Attribute:SectionDimension4"
1
0
3
0
1
20
1 0.006
2 0.006
3 0.006
4 0.006
5 0.006
6 0.006
7 0.006
8 0.006
9 0.006
10 0.006
11 0.006
12 0.006
13 0.006
14 0.006
15 0.006
16 0.006
17 0.006
18 0.006
19 0.006
20 0.006
$EndElementData
$ElementData
1
"Attribute:SectionDimension5"
1
0
3
0
1
20
1 0.003
2 0.003
3 0.003
4 0.003
5 0.003
6 0.003
7 0.003
8 0.003
9 0.003
10 0.003
11 0.003
12 0.003
13 0.003
14 0.003
15 0.003
16 0.003
17 0.003
18 0.003
19 0.003
20 0.003
$EndElementData
$ElementData
1
"Attribute:SectionShape"
1
0
3
0
1
20
1 4
2 4
3 4
4 4
5 4
6 4
7 4
8 4
9 4
10 4
11 4
12 4
13 4
14 4
15 4
16 4
17 4
18 4
19 4
20 4
$EndElementData
$ElementData
1
"Attribute:ShearAreaY"
1
0
3
0
1
20
1 0.00042187725572707756
2 0.00042187725572707756
3 0.00042187725572707756
4 0.00042187725572707756
5 0.00042187725572707756
6 0.00042187725572707756
7 0.00042187725572707756
8 0.00042187725572707756
9 0.0003038347602687874
10 0.0003038347602687874
11 0.0003038347602687874
12 0.0003038347602687874
13 0.0003038347602687874
14 0.0003038347602687874
15 0.0003038347602687874
16 0.0003038347602687874
17 0.0003038347602687874
18 0.0003038347602687874
19 0.0003038347602687874
20 0.0003038347602687874
$EndElementData
$ElementData
1
"Attribute:ShearAreaZ"
1
0
3
0
1
20
1 0.00015395668953075635
2 0.00015395668953075635
3 0.00015395668953075635
4 0.00015395668953075635
5 0.00015395668953075635
6 0.00015395668953075635
7 0.00015395668953075635
8 0.00015395668953075635
9 0.00016836011980367143
10 0.00016836011980367143
11 0.00016836011980367143
12 0.00016836011980367143
13 0.00016836011980367143
14 0.00016836011980367143
15 0.00016836011980367143
16 0.00016836011980367143
17 0.00016836011980367143
18 0.00016836011980367143
19 0.00016836011980367143
20 0.00016836011980367143
$EndElementData
$ElementData
1
"Attribute:TorsionConstant"
1
0
3
0
1
20
1 4.387863098978217e-07
2 4.387863098978217e-07
3 4.387863098978217e-07
4 4.387863098978217e-07
5 4.387863098978217e-07
6 4.387863098978217e-07
7 4.387863098978217e-07
8 4.387863098978217e-07
9 2.928361519369186e-07
10 2.928361519369186e-07
11 2.928361519369186e-07
12 2.928361519369186e-07
13 2.928361519369186e-07
14 2.928361519369186e-07
15 2.928361519369186e-07
16 2.928361519369186e-07
17 2.928361519369186e-07
18 2.928361519369186e-07
19 2.928361519369186e-07
20 2.928361519369186e-07
$EndElementData
$ElementData
1
"Attribute:UniformLoadGlobalX"
1
0
3
0
1
20
1 0
2 0
3 0
4 0
5 0
6 0
7 0
8 0
9 0
10 0
11 0
12 0
13 0
14 0
15 0
16 0
17 0
18 0
19 0
20 0
$EndElementData
$ElementData
1
"Attribute:UniformLoadGlobalY"
1
0
3
0
1
20
1 0
2 0
3 0
4 0
5 0
6 0
7 0
8 0
9 0
10 0
11 0
12 0
13 0
14 0
15 0
16 0
17 0
18 0
19 0
20 0
$EndElementData
$ElementData
1
"Attribute:UniformLoadGlobalZ"
1
0
3
0
1
20
1 0
2 0
3 0
4 0
5 0
6 0
7 0
8 0
9 0
10 0
11 0
12 0
13 0
14 0
15 0
16 0
17 0
18 0
19 0
20 0
$EndElementData
$ElementData
1
"Attribute:UniformLoadLocalX"
1
0
3
0
1
20
1 0
2 0
3 0
4 0
5 0
6 0
7 0
8 0
9 0
10 0
11 0
12 0
13 0
14 0
15 0
16 0
17 0
18 0
19 0
20 0
$EndElementData
$ElementData
1
"Attribute:UniformLoadLocalY"
1
0
3
0
1
20
1 0
2 0
3 0
4 0
5 0
6 0
7 0
8 0
9 0
10 0
11 0
12 0
13 0
14 0
15 0
16 0
17 0
18 0
19 0
20 0
$EndElementData
$ElementData
1
"Attribute:UniformLoadLocalZ"
1
0
3
0
1
20
1 0
2 0
3 0
4 0
5 0
6 0
7 0
8 0
9 0
10 0
11 0
12 0
13 0
14 0
15 0
16 0
17 0
18 0
19 0
20 0
$EndElementData
$ElementData
1
"BeamOrientation"
1
0
3
0
3
20
1 0 0 0
2 0 0 0
3 0 0 0
4 0 0 0
5 0 0 0
6 0 0 0
7 0 0 0
8 0 0 0
9 0 0 0
10 0 0 0
11 0 0 0
12 0 0 0
13 0 0 0
14 0 0 0
15 0 0 0
16 0 0 0
17 0 0 0
18 0 0 0
19 0 0 0
20 0 0 0
$EndElementData
$AnafData
1
1
GLOBAL 3 1
"Gravity"
19.6133 -58.8399 0
$EndAnafData
