$MeshFormat
4.1 0 8
$EndMeshFormat
$PhysicalNames
2
1 1 "Material:Aluminum 6061-T6"
1 2 "Section:Tube 76.2x2.11"
$EndPhysicalNames
$Entities
0 1 0 0
1 0 0 0 10 0 0 2 1 2 0
$EndEntities
$Nodes
1 11 1 11
1 1 0 11
1
2
3
4
5
6
7
8
9
10
11
0 0 0
1 0 0
2 0 0
3 0 0
4 0 0
5 0 0
6 0 0
7 0 0
8 0 0
9 0 0
10 0 0
$EndNodes
$Elements
1 10 1 10
1 1 1 10
1 1 2
2 2 3
3 3 4
4 4 5
5 5 6
6 6 7
7 7 8
8 8 9
9 9 10
10 10 11
$EndElements
$NodeData
1
"Displacement"
1
0
3
0
3
11
1 0 0 0
2 0 0.008319827106568577 0.0041599135532842885
3 0 0.03213174606674765 0.016065873033373826
4 0 0.0697144133412472 0.0348572066706236
5 0 0.11934648539077719 0.059673242695388595
6 0 0.17930661867604758 0.08965330933802379
7 0 0.24787346965776832 0.12393673482888416
8 0 0.3233256947966493 0.16166284739832465
9 0 0.4039419505534005 0.20197097527670024
10 0 0.4880008933887318 0.24400044669436596
11 0 0.5737811797633533 0.2868905898816767
$EndNodeData
$NodeData
1
"Rotation"
1
0
3
0
3
11
1 0 0 0
2 0 -0.008176381811627748 0.016352763623255495
3 0 -0.015492091853610493 0.030984183707220985
4 0 -0.021947130125948223 0.043894260251896446
5 0 -0.027541496628640933 0.055082993257281866
6 0 -0.032275191361688625 0.06455038272337725
7 0 -0.03614821432509128 0.07229642865018256
8 0 -0.039160565518848896 0.07832113103769779
9 0 -0.04131224494296149 0.08262448988592298
10 0 -0.042603252597429045 0.08520650519485809
11 0 -0.043033588482251556 0.08606717696450311
$EndNodeData
$ElementData
1
"BeamSectionForce"
1
0
3
0
12
10
1 -0 39.999999999998636 19.999999999999318 -0 -200.0000000000034 400.0000000000068 0 39.999999999998636 19.999999999999318 0 -180.0000000000041 360.0000000000082
2 -0 39.99999999999909 19.999999999999545 -0 -180.00000000000387 360.00000000000773 0 39.99999999999909 19.999999999999545 0 -160.00000000000387 320.00000000000773
3 -0 39.99999999999727 19.999999999998636 -0 -160.00000000000364 320.0000000000073 0 39.99999999999727 19.999999999998636 0 -140.00000000000364 280.0000000000073
4 -0 40.00000000000273 20.000000000001364 -0 -140.00000000000477 280.00000000000955 0 40.00000000000273 20.000000000001364 0 -120.00000000000227 240.00000000000455
5 -0 39.999999999992724 19.999999999996362 -0 -120.00000000000182 240.00000000000364 0 39.999999999992724 19.999999999996362 0 -100.00000000000364 200.00000000000728
6 -0 39.99999999999818 19.99999999999909 -0 -100.00000000000205 200.0000000000041 0 39.99999999999818 19.99999999999909 0 -80.00000000000318 160.00000000000637
7 -0 40.00000000000182 20.00000000000091 -0 -80.00000000000182 160.00000000000364 0 40.00000000000182 20.00000000000091 0 -60 120
8 -0 39.99999999998181 19.999999999990905 -0 -59.99999999999841 119.99999999999682 0 39.99999999998181 19.999999999990905 0 -40.00000000000682 80.00000000001364
9 -0 40 20.000000000014552 -0 -40.0000000000075 80.00000000000045 0 40 20.000000000014552 0 -19.99999999999227 39.99999999999909
10 -0 40.00000000001273 19.999999999991815 -0 -19.999999999999773 39.999999999999545 0 40.00000000001273 19.999999999991815 0 -4.547473508864641e-13 9.094947017729282e-13
$EndElementData
$ElementData
1
"AxialForce"
1
0
3
0
1
10
1 0
2 0
3 0
4 0
5 0
6 0
7 0
8 0
9 0
10 0
$EndElementData
$ElementData
1
"VonMisesStress"
1
0
3
0
1
10
1 50522168.00179578
2 45470324.99175811
3 40418531.16005528
4 35366807.58059021
5 30315189.37388333
6 25263739.749534912
7 20212585.10225489
8 15162020.245514423
9 10112928.871537887
10 5069715.3590709455
$EndElementData
$NodeData
1
"Fixity"
1
0
3
0
3
11
1 1 1 1
2 0 0 0
3 0 0 0
4 0 0 0
5 0 0 0
6 0 0 0
7 0 0 0
8 0 0 0
9 0 0 0
10 0 0 0
11 0 0 0
$EndNodeData
$NodeData
1
"FixityRotation"
1
0
3
0
3
11
1 1 1 1
2 0 0 0
3 0 0 0
4 0 0 0
5 0 0 0
6 0 0 0
7 0 0 0
8 0 0 0
9 0 0 0
10 0 0 0
11 0 0 0
$EndNodeData
$NodeData
1
"NodalForce"
1
0
3
0
3
11
1 0 0 0
2 0 0 0
3 0 0 0
4 0 0 0
5 0 0 0
6 0 0 0
7 0 0 0
8 0 0 0
9 0 0 0
10 0 0 0
11 0 40 20
$EndNodeData
$ElementData
1
"CrossSectionArea"
1
0
3
0
1
10
1 0.0004911248653764272
2 0.0004911248653764272
3 0.0004911248653764272
4 0.0004911248653764272
5 0.0004911248653764272
6 0.0004911248653764272
7 0.0004911248653764272
8 0.0004911248653764272
9 0.0004911248653764272
10 0.0004911248653764272
$EndElementData
$ElementData
1
"Attribute:ElementFormulation"
1
0
3
0
1
10
1 1
2 1
3 1
4 1
5 1
6 1
7 1
8 1
9 1
10 1
$EndElementData
$ElementData
1
"MaterialID"
1
0
3
0
1
10
1 1
2 1
3 1
4 1
5 1
6 1
7 1
8 1
9 1
10 1
$EndElementData
$ElementData
1
"Attribute:SecondMomentY"
1
0
3
0
1
10
1 3.3726650764158525e-07
2 3.3726650764158525e-07
3 3.3726650764158525e-07
4 3.3726650764158525e-07
5 3.3726650764158525e-07
6 3.3726650764158525e-07
7 3.3726650764158525e-07
8 3.3726650764158525e-07
9 3.3726650764158525e-07
10 3.3726650764158525e-07
$EndElementData
$ElementData
1
"Attribute:SecondMomentZ"
1
0
3
0
1
10
1 3.3726650764158525e-07
2 3.3726650764158525e-07
3 3.3726650764158525e-07
4 3.3726650764158525e-07
5 3.3726650764158525e-07
6 3.3726650764158525e-07
7 3.3726650764158525e-07
8 3.3726650764158525e-07
9 3.3726650764158525e-07
10 3.3726650764158525e-07
$EndElementData
$ElementData
1
"Attribute:SectionDimension1"
1
0
3
0
1
10
1 0.0762
2 0.0762
3 0.0762
4 0.0762
5 0.0762
6 0.0762
7 0.0762
8 0.0762
9 0.0762
10 0.0762
$EndElementData
$ElementData
1
"Attribute:SectionDimension2"
1
0
3
0
1
10
1 0.00211
2 0.00211
3 0.00211
4 0.00211
5 0.00211
6 0.00211
7 0.00211
8 0.00211
9 0.00211
10 0.00211
$EndElementData
$ElementData
1
"Attribute:SectionDimension3"
1
0
3
0
1
10
1 0
2 0
3 0
4 0
5 0
6 0
7 0
8 0
9 0
10 0
$EndElementData
$ElementData
1
"Attribute:SectionDimension4"
1
0
3
0
1
10
1 0
2 0
3 0
4 0
5 0
6 0
7 0
8 0
9 0
10 0
$EndElementData
$ElementData
1
"Attribute:SectionDimension5"
1
0
3
0
1
10
1 0
2 0
3 0
4 0
5 0
6 0
7 0
8 0
9 0
10 0
$EndElementData
$ElementData
1
"Attribute:SectionShape"
1
0
3
0
1
10
1 3
2 3
3 3
4 3
5 3
6 3
7 3
8 3
9 3
10 3
$EndElementData
$ElementData
1
"Attribute:ShearAreaY"
1
0
3
0
1
10
1 0.0002621417693926878
2 0.0002621417693926878
3 0.0002621417693926878
4 0.0002621417693926878
5 0.0002621417693926878
6 0.0002621417693926878
7 0.0002621417693926878
8 0.0002621417693926878
9 0.0002621417693926878
10 0.0002621417693926878
$EndElementData
$ElementData
1
"Attribute:ShearAreaZ"
1
0
3
0
1
10
1 0.0002621417693926878
2 0.0002621417693926878
3 0.0002621417693926878
4 0.0002621417693926878
5 0.0002621417693926878
6 0.0002621417693926878
7 0.0002621417693926878
8 0.0002621417693926878
9 0.0002621417693926878
10 0.0002621417693926878
$EndElementData
$ElementData
1
"Attribute:TorsionConstant"
1
0
3
0
1
10
1 6.745330152831705e-07
2 6.745330152831705e-07
3 6.745330152831705e-07
4 6.745330152831705e-07
5 6.745330152831705e-07
6 6.745330152831705e-07
7 6.745330152831705e-07
8 6.745330152831705e-07
9 6.745330152831705e-07
10 6.745330152831705e-07
$EndElementData
$ElementData
1
"Attribute:UniformLoadGlobalX"
1
0
3
0
1
10
1 0
2 0
3 0
4 0
5 0
6 0
7 0
8 0
9 0
10 0
$EndElementData
$ElementData
1
"Attribute:UniformLoadGlobalY"
1
0
3
0
1
10
1 0
2 0
3 0
4 0
5 0
6 0
7 0
8 0
9 0
10 0
$EndElementData
$ElementData
1
"Attribute:UniformLoadGlobalZ"
1
0
3
0
1
10
1 0
2 0
3 0
4 0
5 0
6 0
7 0
8 0
9 0
10 0
$EndElementData
$ElementData
1
"Attribute:UniformLoadLocalX"
1
0
3
0
1
10
1 0
2 0
3 0
4 0
5 0
6 0
7 0
8 0
9 0
10 0
$EndElementData
$ElementData
1
"Attribute:UniformLoadLocalY"
1
0
3
0
1
10
1 0
2 0
3 0
4 0
5 0
6 0
7 0
8 0
9 0
10 0
$EndElementData
$ElementData
1
"Attribute:UniformLoadLocalZ"
1
0
3
0
1
10
1 0
2 0
3 0
4 0
5 0
6 0
7 0
8 0
9 0
10 0
$EndElementData
$ElementData
1
"BeamOrientation"
1
0
3
0
3
10
1 0 0 0
2 0 0 0
3 0 0 0
4 0 0 0
5 0 0 0
6 0 0 0
7 0 0 0
8 0 0 0
9 0 0 0
10 0 0 0
$EndElementData
$AnafData
1
1
GLOBAL 3 1
"Gravity"
0 0 0
$EndAnafData
