$MeshFormat
4.1 0 8
$EndMeshFormat
$PhysicalNames
3
1 1 "Material:Aluminum 2024-T3"
1 2 "Section:Tube 63.5x1.65"
1 3 "Section:Tube 101.6x2.11"
$EndPhysicalNames
$Entities
0 2 0 0
1 0 -1.5 -1.5 16 1.5 1.5 2 1 3 0
2 0 -1.5 -1.5 16 1.5 1.5 2 1 2 0
$EndEntities
$Nodes
1 20 1 20
1 1 0 20
1
2
3
4
5
6
7
8
9
10
11
12
13
14
15
16
17
18
19
20
0 -1.5 -1.5
4 -1.5 -1.5
8 -1.5 -1.5
12 -1.5 -1.5
16 -1.5 -1.5
0 1.5 -1.5
4 1.5 -1.5
8 1.5 -1.5
12 1.5 -1.5
16 1.5 -1.5
0 1.5 1.5
4 1.5 1.5
8 1.5 1.5
12 1.5 1.5
16 1.5 1.5
0 -1.5 1.5
4 -1.5 1.5
8 -1.5 1.5
12 -1.5 1.5
16 -1.5 1.5
$EndNodes
$Elements
2 52 1 52
1 1 1 16
1 1 2
2 2 3
3 3 4
4 4 5
5 6 7
6 7 8
7 8 9
8 9 10
9 11 12
10 12 13
11 13 14
12 14 15
13 16 17
14 17 18
15 18 19
16 19 20
1 2 1 36
17 1 6
18 6 11
19 11 16
20 16 1
21 2 7
22 7 12
23 12 17
24 17 2
25 3 8
26 8 13
27 13 18
28 18 3
29 4 9
30 9 14
31 14 19
32 19 4
33 5 10
34 10 15
35 15 20
36 20 5
37 1 7
38 6 12
39 11 17
40 16 2
41 2 8
42 7 13
43 12 18
44 17 3
45 3 9
46 8 14
47 13 19
48 18 4
49 4 10
50 9 15
51 14 20
52 19 5
$EndElements
$NodeData
1
"Displacement"
1
0
3
0
3
20
1 0 0 0
2 0.001271279685205585 0.005642696403287247 0.0013878245278143016
3 0.002101873411236597 0.014838696358768052 0.001552235220420788
4 0.0024904205809230507 0.02637939979443381 0.0005407482461599417
5 0.0024476909630522675 0.038743205628619985 -0.0015675285033753183
6 0 0 0
7 -0.0018200696820685899 0.00507067278569004 0.00217953782643808
8 -0.0032010154277585068 0.014264981262799703 0.003202500015035911
9 -0.004138698418879231 0.02581316884711825 0.003034476171947688
10 -0.004624147989615023 0.03846246925729814 0.0015930400830729348
11 0 0 0
12 -0.0013804066810332635 0.004786306564517013 0.0021179340016900666
13 -0.0023202864942823303 0.013125249123618763 0.003139688724798842
14 -0.002817143027016776 0.023829393693689124 0.0029783693073276653
15 -0.002861852063877644 0.035557288060382344 0.0015673659054676312
16 0 0 0
17 0.0017109426862409374 0.0043405633118143334 0.001323147987667781
18 0.002982602344712813 0.01267752775842183 0.0014890527798864352
19 0.003811975972785555 0.023375547785950836 0.0004844700712026868
20 0.004209986888789698 0.03532757484845565 -0.0015928774851651775
$EndNodeData
$NodeData
1
"Rotation"
1
0
3
0
3
20
1 0 0 0
2 0.00042078406333710114 -0.0002630448471747663 0.001950420429283608
3 0.0009478895862327692 0.00012713977274369495 0.0024726554214043682
4 0.002817031435777144 0.000686823020820262 0.0030135315850231396
5 0.0139085539824545 0.0005523164707614252 0.0023407754366735526
6 0 0 0
7 0.00021736320123217354 -0.0004719058465371598 0.0018828731540723052
8 0.0006858910485465348 -1.1114567501989323e-05 0.002489045482541078
9 0.0025681077647489174 0.00018159599232959976 0.003276631244086904
10 0.01372757670622026 0.0010789845101984608 0.0029437229424528104
11 0 0 0
12 0.000186600780998517 -0.0004766267715188672 0.001731567073180119
13 0.00068360747840717 -2.139774995106809e-05 0.002352353794866214
14 0.0025596700297956265 -5.297460700688692e-05 0.0027400669164783583
15 0.013696242531263968 0.000492723255222476 0.0034531906270826264
16 0 0 0
17 0.00039002164310343265 -0.00025305249043364517 0.001669291229728224
18 0.0009456060160933884 0.0001091870590361955 0.0023405079598463416
19 0.002808593700823842 0.000455060660874424 0.0025368336162597785
20 0.013877219807498243 -3.343068021055878e-05 0.0028841297269139
$EndNodeData
$ElementData
1
"BeamSectionForce"
1
0
3
0
12
52
1 15321.816317898854 19.489769984075295 9.642024416090855 4.723217126581638 -23.20835708493176 68.07743361320124 15321.816317898854 19.489769984075295 9.642024416090855 4.723217126581638 15.359740579431667 -9.881646323099957
2 10010.546580069324 3.914481899777641 -1.2017016595793182 5.916654289404676 8.224481893736563 15.620072849841037 10010.546580069324 3.914481899777641 -1.2017016595793182 5.916654289404676 3.4176752554192893 -0.0378547492695418
3 4682.878546755499 6.359086296989091 6.897384120341988 20.980744198731305 -5.4449768916310095 20.787385184159504 4682.878546755499 6.359086296989091 6.897384120341988 20.980744198731305 22.144559589736943 -4.6489600037969865
4 -514.9892379852463 18.520081863198534 4.139986492487875 124.50012682719813 -10.286646638210751 27.00346263374064 -514.9892379852463 18.520081863198534 4.139986492487875 124.50012682719813 6.273299331740752 -47.07686481905341
5 -21935.98598244083 14.600933453168658 13.826644910695778 2.4398585502653267 -34.69354941201708 57.292037600683756 -21935.98598244083 14.600933453168658 13.826644910695778 2.4398585502653267 20.61303023076604 -1.1116962119909033
6 -16643.542177756983 5.040360651455906 0.6368979488965765 5.259131572534767 5.6006479034630825 19.124073023153812 -16643.542177756983 5.040360651455906 0.6368979488965765 5.259131572534767 8.148239699049402 -1.037369582669811
7 -11301.216185206613 0.18835852564589572 1.9350292677726095 21.127506967352126 -0.9950520548566528 12.12653590149435 -11301.216185206613 0.18835852564589572 1.9350292677726095 21.127506967352126 6.745065016233786 11.373101798910682
8 -5850.773233439824 2.333954061759499 12.081134010359158 125.2628115473258 -10.774325985662436 -0.2986776489963603 -5850.773233439824 2.333954061759499 12.081134010359158 125.2628115473258 37.55021005577419 -9.634493896034456
9 -16637.04522059733 14.805088836051098 13.031708807821802 2.0945565230202825 -33.1741076483223 55.44304620556664 -16637.04522059733 14.805088836051098 13.031708807821802 2.0945565230202825 18.95272758296491 -3.7773091386377615
10 -11327.692896449043 1.9144616754479742 0.28762304388259563 5.578800980743672 6.216215617025106 13.090303991026147 -11327.692896449043 1.9144616754479742 0.28762304388259563 5.578800980743672 7.366707792555496 5.432457289234236
11 -5988.253111803777 5.810527127318714 -3.469333963636875 21.05842769562682 6.467579738050538 17.405261089265693 -5988.253111803777 5.810527127318714 -3.469333963636875 21.05842769562682 -7.409756116496963 -5.836847420009207
12 -538.845746144063 -7.3693633130556435 -5.947067063821914 125.00580357819726 20.03528057949562 -4.099790745733586 -538.845746144063 -7.3693633130556435 -5.947067063821914 125.00580357819726 -3.752987675792024 25.37766250648886
13 20620.757079742667 11.211249061437933 9.141963762671432 4.377915099336459 -22.059162004381804 47.32628703729394 20620.757079742667 11.211249061437933 9.141963762671432 4.377915099336459 14.508693046303929 2.4812907915422073
14 15326.395861377423 3.5510359479943148 -1.3631222754332235 6.236323697613537 8.130416762278308 17.11580674644314 15326.395861377423 3.5510359479943148 -1.3631222754332235 6.236323697613537 2.6779276605454285 2.911662954465811
15 9995.84162015844 10.555076609625047 1.3864700981024356 20.91166492700605 2.3870720400369088 24.039092531176465 9995.84162015844 10.555076609625047 1.3864700981024356 20.91166492700605 7.932952432446651 -18.18121390732381
16 4796.938249310559 12.42100761806958 -13.808311165894507 124.24311885807012 20.328927393811043 30.023249568710938 4796.938249310559 12.42100761806958 -13.808311165894507 124.24311885807012 -34.90431726976699 -19.6607809035676
17 -0 -0 -0 -0 -0 -0 0 0 0 0 0 0
18 -0 -0 -0 -0 -0 -0 0 0 0 0 0 0
19 -0 -0 -0 -0 -0 -0 0 0 0 0 0 0
20 -0 -0 -0 -0 -0 -0 0 0 0 0 0 0
21 -4468.724730615497 13.251294426981866 0.8249444565368678 -0.5874497180438976 -1.9978541858561951 20.129450063812317 -4468.724730615497 13.251294426981866 0.8249444565368678 -0.5874497180438976 0.47697918375440995 -19.624433217133287
22 -481.25728848104336 1.6028595467910218 -9.28312451840838 -0.4255687506513297 13.907038792255559 2.5192868564603383 -481.25728848104336 1.6028595467910218 -9.28312451840838 -0.4255687506513297 -13.94233476296958 -2.2892917839127414
23 3482.2056914790955 -10.018194334620793 0.3496388844664997 -0.6288328064422207 0.23597917435109927 -15.260094009404433 3482.2056914790955 -10.018194334620793 0.3496388844664997 -0.6288328064422207 1.2848958277505957 14.79448899445795
24 -505.2617506554034 0.4282762057870473 -6.05002442604723 -0.7907137738346615 9.037682737847536 0.7574118449544125 -505.2617506554034 0.4282762057870473 -6.05002442604723 -0.7907137738346615 -9.11239054029415 -0.5274167724067187
25 -4481.938785063408 10.664783678034395 3.989488275540639 -0.38885897052877894 -6.963647755550246 15.935905414251412 -4481.938785063408 10.664783678034395 3.989488275540639 -0.38885897052877894 5.0048170710716775 -16.058445619851774
26 -490.69016979278604 4.5582476271909105 -4.632921652302078 -0.38446379950627474 6.910941398794363 6.845907990834819 -490.69016979278604 4.5582476271909105 -4.632921652302078 -0.38446379950627474 -6.987823558111868 -6.828834890737955
27 3497.6589698946773 -8.65480919742408 3.953492139854058 -0.36728737990610516 -4.950822867541862 -13.026496457644686 3497.6589698946773 -8.65480919742408 3.953492139854058 -0.36728737990610516 6.909653552020314 12.937931134627558
28 -493.58964537600696 -3.384732788205615 -2.6229471716917265 -0.3716825509284494 4.00153244218757 -5.068562632259931 -493.58964537600696 -3.384732788205615 -2.6229471716917265 -0.3716825509284494 -3.8673090728876076 5.085635732356915
29 -4423.471618423006 13.986653718785574 27.832402363999467 -1.4210191291866203 -42.67914180245138 19.996448971854765 -4423.471618423006 13.986653718785574 27.832402363999467 -1.4210191291866203 40.81806528954702 -21.963512184501962
30 -438.31430341629675 28.45001397796439 -5.625430833741194 -1.5091595076548678 7.561263326541604 42.7065633073733 -438.31430341629675 28.45001397796439 -5.625430833741194 -1.5091595076548678 -9.315029174681984 -42.64347862651985
31 3545.504712406517 -6.411003506815492 27.705379135070952 -1.428917681062138 -40.627530446154296 -10.376241608547364 3545.504712406517 -6.411003506815492 27.705379135070952 -1.428917681062138 42.48860695905857 8.856768911899117
32 -439.65260260019477 -27.087767521109146 1.9502193782288986 -1.340777302593704 -2.058944036765893 -40.60010894123694 -439.65260260019477 -27.087767521109146 1.9502193782288986 -1.340777302593704 3.7917140979208046 40.66319362209047
33 -2193.1499447153765 4.261146504298434 190.8680690224611 1.4813248630166531 -286.9786413590774 4.13775283380653 -2193.1499447153765 4.261146504298434 190.8680690224611 1.4813248630166531 285.6255657083059 -8.645686679088776
34 -200.5700968868441 190.55365855810396 2.967000688225557 1.4329465462767992 -6.642090621939719 285.9476227340131 -200.5700968868441 190.55365855810396 2.967000688225557 1.4329465462767992 2.2589114427369523 -285.7133529402988
35 1794.5502239887137 -12.132564443808903 190.40115031823152 1.4798788761971058 -284.9251876519614 -20.326137074338536 1794.5502239887137 -12.132564443808903 190.40115031823152 1.4798788761971058 286.2782633027332 16.07155625708818
36 -198.02962383981503 -190.71556078259334 -4.904417251284728 1.5282571929372208 9.546293618591946 -285.95620627703295 -198.02962383981503 -190.71556078259334 -4.904417251284728 1.5282571929372208 -5.166958135262233 286.19047607074697
37 7435.656839112089 0.475214901452758 0.979376785171824 -0.18437318523594512 -3.587731008939888 5.411224613854587 7435.656839112089 0.475214901452758 0.979376785171824 -0.18437318523594512 1.3091529169192349 3.0351501065907946
38 780.1277032059833 1.7258934576728509 1.4330010260966257 2.0052188290584705 -4.651551827890371 7.170664588867949 780.1277032059833 1.7258934576728509 1.4330010260966257 2.0052188290584705 2.51345330259276 -1.4588026994963066
39 -5791.527360958425 0.3507485270446251 1.5094958203823456 0.7827823846755855 -3.7029274410298942 4.621005438739994 -5791.527360958425 0.3507485270446251 1.5094958203823456 0.7827823846755855 3.8445516608818346 2.8672628035168675
40 864.0017749477493 1.1957744224622964 1.3085346516884784 -1.4068096296187884 -3.8613326527756975 7.055468156777829 864.0017749477493 1.1957744224622964 1.3085346516884784 -1.4068096296187884 2.6813406056666946 1.0765960444663474
41 7478.718409377401 -1.6337203729907692 -0.42381605968906677 0.6130032203558928 1.1548206711225109 -2.8761927219496073 7478.718409377401 -1.6337203729907692 -0.42381605968906677 0.6130032203558928 -0.9642596273228206 5.292409143004242
42 824.5726467217186 1.0072580278470684 -0.1776503269366027 1.1048318792223801 1.4545922393973094 2.733104639621481 824.5726467217186 1.0072580278470684 -0.1776503269366027 1.1048318792223801 0.5663406047142958 -2.3031854996138623
43 -5832.501957663382 -1.3451286923319632 0.36018114289103464 0.4315412483538136 1.1721530601662877 -1.9969987330727044 -5832.501957663382 -1.3451286923319632 0.36018114289103464 0.4315412483538136 2.973058774621462 4.728644728587106
44 821.6438049923836 0.22326082526671875 0.1109413537222041 -0.060287410512585904 0.5753982505204139 2.750437028664587 821.6438049923836 0.22326082526671875 0.1109413537222041 -0.060287410512585904 1.130105019131433 1.6341329023309896
45 7463.209154238131 -1.9909797995278424 -3.4174820408262234 2.242538951548949 6.460979616116915 -3.1741732000768916 7463.209154238131 -1.9909797995278424 -3.4174820408262234 2.242538951548949 -10.626430588014198 6.780725797562315
46 809.1159038440755 4.279038763286245 -0.6135102097114814 2.7838942627329994 1.4398856149382053 8.626345650698145 809.1159038440755 4.279038763286245 -0.6135102097114814 2.7838942627329994 -1.627665433619201 -12.768848165733083
47 -5832.706923036276 -0.36967965496096333 3.7147628463613094 2.3864316445135256 -5.572229115113268 -0.5104204140505963 -5832.706923036276 -0.36967965496096333 3.7147628463613094 2.3864316445135256 13.001585116693274 1.337977860754222
48 821.3863273577927 -2.853206123901778 1.0077899348553752 1.8450763333295832 -1.2238671710880524 -3.4068630805333555 821.3863273577927 -2.853206123901778 1.0077899348553752 1.8450763333295832 3.8150825031888234 10.859167538975527
49 7303.657858524879 -1.0313323790255966 -21.78316187474365 15.12702468384565 40.478508934920754 -2.734908131905728 7303.657858524879 -1.0313323790255966 -21.78316187474365 15.12702468384565 -68.43730043879752 2.421753763222231
50 661.8951344721199 22.265480766182623 -0.2734580179656192 15.202476987371437 1.3814874466860685 41.00461343150461 661.8951344721199 22.265480766182623 -0.2734580179656192 15.202476987371437 0.014197356857973631 -70.32279039940852
51 -5986.616275047258 -0.6951368003744038 21.436784687477985 15.259635390997348 -38.32608468844687 -1.414716548329892 -5986.616275047258 -0.6951368003744038 21.436784687477985 15.259635390997348 68.85783874894305 2.0609674535421405
52 655.1464490055223 -20.954465796039717 0.0627375606856011 15.18418308747161 0.06129586311012947 -37.799980191864954 655.1464490055223 -20.954465796039717 0.0627375606856011 15.18418308747161 0.3749836665381343 66.97234878833365
$EndElementData
$ElementData
1
"AxialForce"
1
0
3
0
1
52
1 15321.816317898854
2 10010.546580069324
3 4682.878546755499
4 -514.9892379852463
5 -21935.98598244083
6 -16643.542177756983
7 -11301.216185206613
8 -5850.773233439824
9 -16637.04522059733
10 -11327.692896449043
11 -5988.253111803777
12 -538.845746144063
13 20620.757079742667
14 15326.395861377423
15 9995.84162015844
16 4796.938249310559
17 0
18 0
19 0
20 0
21 -4468.724730615497
22 -481.25728848104336
23 3482.2056914790955
24 -505.2617506554034
25 -4481.938785063408
26 -490.69016979278604
27 3497.6589698946773
28 -493.58964537600696
29 -4423.471618423006
30 -438.31430341629675
31 3545.504712406517
32 -439.65260260019477
33 -2193.1499447153765
34 -200.5700968868441
35 1794.5502239887137
36 -198.02962383981503
37 7435.656839112089
38 780.1277032059833
39 -5791.527360958425
40 864.0017749477493
41 7478.718409377401
42 824.5726467217186
43 -5832.501957663382
44 821.6438049923836
45 7463.209154238131
46 809.1159038440755
47 -5832.706923036276
48 821.3863273577927
49 7303.657858524879
50 661.8951344721199
51 -5986.616275047258
52 655.1464490055223
$EndElementData
$ElementData
1
"VonMisesStress"
1
0
3
0
1
52
1 27711384.017113104
2 16281287.773252033
3 8592999.492112739
4 7783812.545112076
5 37430736.91941095
6 26478678.06607507
7 17995756.475606784
8 13188091.315069435
9 29248648.68385343
10 18080767.196082737
11 10303717.174681438
12 7221851.79257633
13 34518416.20553739
14 24421408.801963426
15 16702493.12514724
16 11919744.840041589
17 0
18 0
19 0
20 0
21 18126453.915374946
22 4430269.179905415
23 14021577.849396266
24 3471404.746447598
25 17580114.460163325
26 3556514.501185763
27 13946408.494945237
28 2879001.9190502116
29 23561732.674849384
30 10420012.602582375
31 20050594.412414387
32 9838793.923555644
33 66280372.740084164
34 59865303.3987834
35 64983088.5335085
36 59902871.050435856
37 24536107.45500767
38 4220542.750189295
39 19290395.892668482
40 4368340.067915962
41 24440387.108508307
42 3219559.8620827245
43 19348236.939616304
44 3144339.482733745
45 25891188.933656756
46 5216894.922719633
47 20902931.47439597
48 4957969.827516355
49 37071030.06967066
50 16881001.102778
51 33063474.62812415
52 16174793.169026364
$EndElementData
$NodeData
1
"Fixity"
1
0
3
0
3
20
1 1 1 1
2 0 0 0
3 0 0 0
4 0 0 0
5 0 0 0
6 1 1 1
7 0 0 0
8 0 0 0
9 0 0 0
10 0 0 0
11 1 1 1
12 0 0 0
13 0 0 0
14 0 0 0
15 0 0 0
16 1 1 1
17 0 0 0
18 0 0 0
19 0 0 0
20 0 0 0
$EndNodeData
$NodeData
1
"FixityRotation"
1
0
3
0
3
20
1 1 1 1
2 0 0 0
3 0 0 0
4 0 0 0
5 0 0 0
6 1 1 1
7 0 0 0
8 0 0 0
9 0 0 0
10 0 0 0
11 1 1 1
12 0 0 0
13 0 0 0
14 0 0 0
15 0 0 0
16 1 1 1
17 0 0 0
18 0 0 0
19 0 0 0
20 0 0 0
$EndNodeData
$NodeData
1
"NodalForce"
1
0
3
0
3
20
1 0 0 0
2 0 0 0
3 0 0 0
4 0 0 0
5 0 2000 0
6 0 0 0
7 0 0 0
8 0 0 0
9 0 0 0
10 0 2000 0
11 0 0 0
12 0 0 0
13 0 0 0
14 0 0 0
15 0 2000 0
16 0 0 0
17 0 0 0
18 0 0 0
19 0 0 0
20 0 2000 0
$EndNodeData
$NodeData
1
"NodalMoment"
1
0
3
0
3
20
1 0 0 0
2 0 0 0
3 0 0 0
4 0 0 0
5 750 0 0
6 0 0 0
7 0 0 0
8 0 0 0
9 0 0 0
10 750 0 0
11 0 0 0
12 0 0 0
13 0 0 0
14 0 0 0
15 750 0 0
16 0 0 0
17 0 0 0
18 0 0 0
19 0 0 0
20 750 0 0
$EndNodeData
$ElementData
1
"CrossSectionArea"
1
0
3
0
1
52
1 0.000659495382052919
2 0.000659495382052919
3 0.000659495382052919
4 0.000659495382052919
5 0.000659495382052919
6 0.000659495382052919
7 0.000659495382052919
8 0.000659495382052919
9 0.000659495382052919
10 0.000659495382052919
11 0.000659495382052919
12 0.000659495382052919
13 0.000659495382052919
14 0.000659495382052919
15 0.000659495382052919
16 0.000659495382052919
17 0.00032060738428047234
18 0.00032060738428047234
19 0.00032060738428047234
20 0.00032060738428047234
21 0.00032060738428047234
22 0.00032060738428047234
23 0.00032060738428047234
24 0.00032060738428047234
25 0.00032060738428047234
26 0.00032060738428047234
27 0.00032060738428047234
28 0.00032060738428047234
29 0.00032060738428047234
30 0.00032060738428047234
31 0.00032060738428047234
32 0.00032060738428047234
33 0.00032060738428047234
34 0.00032060738428047234
35 0.00032060738428047234
36 0.00032060738428047234
37 0.00032060738428047234
38 0.00032060738428047234
39 0.00032060738428047234
40 0.00032060738428047234
41 0.00032060738428047234
42 0.00032060738428047234
43 0.00032060738428047234
44 0.00032060738428047234
45 0.00032060738428047234
46 0.00032060738428047234
47 0.00032060738428047234
48 0.00032060738428047234
49 0.00032060738428047234
50 0.00032060738428047234
51 0.00032060738428047234
52 0.00032060738428047234
$EndElementData
$ElementData
1
"Attribute:ElementFormulation"
1
0
3
0
1
52
1 1
2 1
3 1
4 1
5 1
6 1
7 1
8 1
9 1
10 1
11 1
12 1
13 1
14 1
15 1
16 1
17 1
18 1
19 1
20 1
21 1
22 1
23 1
24 1
25 1
26 1
27 1
28 1
29 1
30 1
31 1
32 1
33 1
34 1
35 1
36 1
37 1
38 1
39 1
40 1
41 1
42 1
43 1
44 1
45 1
46 1
47 1
48 1
49 1
50 1
51 1
52 1
$EndElementData
$ElementData
1
"MaterialID"
1
0
3
0
1
52
1 10
2 10
3 10
4 10
5 10
6 10
7 10
8 10
9 10
10 10
11 10
12 10
13 10
14 10
15 10
16 10
17 10
18 10
19 10
20 10
21 10
22 10
23 10
24 10
25 10
26 10
27 10
28 10
29 10
30 10
31 10
32 10
33 10
34 10
35 10
36 10
37 10
38 10
39 10
40 10
41 10
42 10
43 10
44 10
45 10
46 10
47 10
48 10
49 10
50 10
51 10
52 10
$EndElementData
$ElementData
1
"Attribute:SecondMomentY"
1
0
3
0
1
52
1 8.163491207123878e-07
2 8.163491207123878e-07
3 8.163491207123878e-07
4 8.163491207123878e-07
5 8.163491207123878e-07
6 8.163491207123878e-07
7 8.163491207123878e-07
8 8.163491207123878e-07
9 8.163491207123878e-07
10 8.163491207123878e-07
11 8.163491207123878e-07
12 8.163491207123878e-07
13 8.163491207123878e-07
14 8.163491207123878e-07
15 8.163491207123878e-07
16 8.163491207123878e-07
17 1.5341644438704604e-07
18 1.5341644438704604e-07
19 1.5341644438704604e-07
20 1.5341644438704604e-07
21 1.5341644438704604e-07
22 1.5341644438704604e-07
23 1.5341644438704604e-07
24 1.5341644438704604e-07
25 1.5341644438704604e-07
26 1.5341644438704604e-07
27 1.5341644438704604e-07
28 1.5341644438704604e-07
29 1.5341644438704604e-07
30 1.5341644438704604e-07
31 1.5341644438704604e-07
32 1.5341644438704604e-07
33 1.5341644438704604e-07
34 1.5341644438704604e-07
35 1.5341644438704604e-07
36 1.5341644438704604e-07
37 1.5341644438704604e-07
38 1.5341644438704604e-07
39 1.5341644438704604e-07
40 1.5341644438704604e-07
41 1.5341644438704604e-07
42 1.5341644438704604e-07
43 1.5341644438704604e-07
44 1.5341644438704604e-07
45 1.5341644438704604e-07
46 1.5341644438704604e-07
47 1.5341644438704604e-07
48 1.5341644438704604e-07
49 1.5341644438704604e-07
50 1.5341644438704604e-07
51 1.5341644438704604e-07
52 1.5341644438704604e-07
$EndElementData
$ElementData
1
"Attribute:SecondMomentZ"
1
0
3
0
1
52
1 8.163491207123878e-07
2 8.163491207123878e-07
3 8.163491207123878e-07
4 8.163491207123878e-07
5 8.163491207123878e-07
6 8.163491207123878e-07
7 8.163491207123878e-07
8 8.163491207123878e-07
9 8.163491207123878e-07
10 8.163491207123878e-07
11 8.163491207123878e-07
12 8.163491207123878e-07
13 8.163491207123878e-07
14 8.163491207123878e-07
15 8.163491207123878e-07
16 8.163491207123878e-07
17 1.5341644438704604e-07
18 1.5341644438704604e-07
19 1.5341644438704604e-07
20 1.5341644438704604e-07
21 1.5341644438704604e-07
22 1.5341644438704604e-07
23 1.5341644438704604e-07
24 1.5341644438704604e-07
25 1.5341644438704604e-07
26 1.5341644438704604e-07
27 1.5341644438704604e-07
28 1.5341644438704604e-07
29 1.5341644438704604e-07
30 1.5341644438704604e-07
31 1.5341644438704604e-07
32 1.5341644438704604e-07
33 1.5341644438704604e-07
34 1.5341644438704604e-07
35 1.5341644438704604e-07
36 1.5341644438704604e-07
37 1.5341644438704604e-07
38 1.5341644438704604e-07
39 1.5341644438704604e-07
40 1.5341644438704604e-07
41 1.5341644438704604e-07
42 1.5341644438704604e-07
43 1.5341644438704604e-07
44 1.5341644438704604e-07
45 1.5341644438704604e-07
46 1.5341644438704604e-07
47 1.5341644438704604e-07
48 1.5341644438704604e-07
49 1.5341644438704604e-07
50 1.5341644438704604e-07
51 1.5341644438704604e-07
52 1.5341644438704604e-07
$EndElementData
$ElementData
1
"Attribute:SectionDimension1"
1
0
3
0
1
52
1 0.1016
2 0.1016
3 0.1016
4 0.1016
5 0.1016
6 0.1016
7 0.1016
8 0.1016
9 0.1016
10 0.1016
11 0.1016
12 0.1016
13 0.1016
14 0.1016
15 0.1016
16 0.1016
17 0.0635
18 0.0635
19 0.0635
20 0.0635
21 0.0635
22 0.0635
23 0.0635
24 0.0635
25 0.0635
26 0.0635
27 0.0635
28 0.0635
29 0.0635
30 0.0635
31 0.0635
32 0.0635
33 0.0635
34 0.0635
35 0.0635
36 0.0635
37 0.0635
38 0.0635
39 0.0635
40 0.0635
41 0.0635
42 0.0635
43 0.0635
44 0.0635
45 0.0635
46 0.0635
47 0.0635
48 0.0635
49 0.0635
50 0.0635
51 0.0635
52 0.0635
$EndElementData
$ElementData
1
"Attribute:SectionDimension2"
1
0
3
0
1
52
1 0.00211
2 0.00211
3 0.00211
4 0.00211
5 0.00211
6 0.00211
7 0.00211
8 0.00211
9 0.00211
10 0.00211
11 0.00211
12 0.00211
13 0.00211
14 0.00211
15 0.00211
16 0.00211
17 0.00165
18 0.00165
19 0.00165
20 0.00165
21 0.00165
22 0.00165
23 0.00165
24 0.00165
25 0.00165
26 0.00165
27 0.00165
28 0.00165
29 0.00165
30 0.00165
31 0.00165
32 0.00165
33 0.00165
34 0.00165
35 0.00165
36 0.00165
37 0.00165
38 0.00165
39 0.00165
40 0.00165
41 0.00165
42 0.00165
43 0.00165
44 0.00165
45 0.00165
46 0.00165
47 0.00165
48 0.00165
49 0.00165
50 0.00165
51 0.00165
52 0.00165
$EndElementData
$ElementData
1
"Attribute:SectionDimension3"
1
0
3
0
1
52
1 0
2 0
3 0
4 0
5 0
6 0
7 0
8 0
9 0
10 0
11 0
12 0
13 0
14 0
15 0
16 0
17 0
18 0
19 0
20 0
21 0
22 0
23 0
24 0
25 0
26 0
27 0
28 0
29 0
30 0
31 0
32 0
33 0
34 0
35 0
36 0
37 0
38 0
39 0
40 0
41 0
42 0
43 0
44 0
45 0
46 0
47 0
48 0
49 0
50 0
51 0
52 0
$EndElementData
$ElementData
1
"Attribute:SectionDimension4"
1
0
3
0
1
52
1 0
2 0
3 0
4 0
5 0
6 0
7 0
8 0
9 0
10 0
11 0
12 0
13 0
14 0
15 0
16 0
17 0
18 0
19 0
20 0
21 0
22 0
23 0
24 0
25 0
26 0
27 0
28 0
29 0
30 0
31 0
32 0
33 0
34 0
35 0
36 0
37 0
38 0
39 0
40 0
41 0
42 0
43 0
44 0
45 0
46 0
47 0
48 0
49 0
50 0
51 0
52 0
$EndElementData
$ElementData
1
"Attribute:SectionDimension5"
1
0
3
0
1
52
1 0
2 0
3 0
4 0
5 0
6 0
7 0
8 0
9 0
10 0
11 0
12 0
13 0
14 0
15 0
16 0
17 0
18 0
19 0
20 0
21 0
22 0
23 0
24 0
25 0
26 0
27 0
28 0
29 0
30 0
31 0
32 0
33 0
34 0
35 0
36 0
37 0
38 0
39 0
40 0
41 0
42 0
43 0
44 0
45 0
46 0
47 0
48 0
49 0
50 0
51 0
52 0
$EndElementData
$ElementData
1
"Attribute:SectionShape"
1
0
3
0
1
52
1 3
2 3
3 3
4 3
5 3
6 3
7 3
8 3
9 3
10 3
11 3
12 3
13 3
14 3
15 3
16 3
17 3
18 3
19 3
20 3
21 3
22 3
23 3
24 3
25 3
26 3
27 3
28 3
29 3
30 3
31 3
32 3
33 3
34 3
35 3
36 3
37 3
38 3
39 3
40 3
41 3
42 3
43 3
44 3
45 3
46 3
47 3
48 3
49 3
50 3
51 3
52 3
$EndElementData
$ElementData
1
"Attribute:ShearAreaY"
1
0
3
0
1
52
1 0.0003518076905884543
2 0.0003518076905884543
3 0.0003518076905884543
4 0.0003518076905884543
5 0.0003518076905884543
6 0.0003518076905884543
7 0.0003518076905884543
8 0.0003518076905884543
9 0.0003518076905884543
10 0.0003518076905884543
11 0.0003518076905884543
12 0.0003518076905884543
13 0.0003518076905884543
14 0.0003518076905884543
15 0.0003518076905884543
16 0.0003518076905884543
17 0.00017109955695503065
18 0.00017109955695503065
19 0.00017109955695503065
20 0.00017109955695503065
21 0.00017109955695503065
22 0.00017109955695503065
23 0.00017109955695503065
24 0.00017109955695503065
25 0.00017109955695503065
26 0.00017109955695503065
27 0.00017109955695503065
28 0.00017109955695503065
29 0.00017109955695503065
30 0.00017109955695503065
31 0.00017109955695503065
32 0.00017109955695503065
33 0.00017109955695503065
34 0.00017109955695503065
35 0.00017109955695503065
36 0.00017109955695503065
37 0.00017109955695503065
38 0.00017109955695503065
39 0.00017109955695503065
40 0.00017109955695503065
41 0.00017109955695503065
42 0.00017109955695503065
43 0.00017109955695503065
44 0.00017109955695503065
45 0.00017109955695503065
46 0.00017109955695503065
47 0.00017109955695503065
48 0.00017109955695503065
49 0.00017109955695503065
50 0.00017109955695503065
51 0.00017109955695503065
52 0.00017109955695503065
$EndElementData
$ElementData
1
"Attribute:ShearAreaZ"
1
0
3
0
1
52
1 0.0003518076905884543
2 0.0003518076905884543
3 0.0003518076905884543
4 0.0003518076905884543
5 0.0003518076905884543
6 0.0003518076905884543
7 0.0003518076905884543
8 0.0003518076905884543
9 0.0003518076905884543
10 0.0003518076905884543
11 0.0003518076905884543
12 0.0003518076905884543
13 0.0003518076905884543
14 0.0003518076905884543
15 0.0003518076905884543
16 0.0003518076905884543
17 0.00017109955695503065
18 0.00017109955695503065
19 0.00017109955695503065
20 0.00017109955695503065
21 0.00017109955695503065
22 0.00017109955695503065
23 0.00017109955695503065
24 0.00017109955695503065
25 0.00017109955695503065
26 0.00017109955695503065
27 0.00017109955695503065
28 0.00017109955695503065
29 0.00017109955695503065
30 0.00017109955695503065
31 0.00017109955695503065
32 0.00017109955695503065
33 0.00017109955695503065
34 0.00017109955695503065
35 0.00017109955695503065
36 0.00017109955695503065
37 0.00017109955695503065
38 0.00017109955695503065
39 0.00017109955695503065
40 0.00017109955695503065
41 0.00017109955695503065
42 0.00017109955695503065
43 0.00017109955695503065
44 0.00017109955695503065
45 0.00017109955695503065
46 0.00017109955695503065
47 0.00017109955695503065
48 0.00017109955695503065
49 0.00017109955695503065
50 0.00017109955695503065
51 0.00017109955695503065
52 0.00017109955695503065
$EndElementData
$ElementData
1
"Attribute:TorsionConstant"
1
0
3
0
1
52
1 1.6326982414247755e-06
2 1.6326982414247755e-06
3 1.6326982414247755e-06
4 1.6326982414247755e-06
5 1.6326982414247755e-06
6 1.6326982414247755e-06
7 1.6326982414247755e-06
8 1.6326982414247755e-06
9 1.6326982414247755e-06
10 1.6326982414247755e-06
11 1.6326982414247755e-06
12 1.6326982414247755e-06
13 1.6326982414247755e-06
14 1.6326982414247755e-06
15 1.6326982414247755e-06
16 1.6326982414247755e-06
17 3.068328887740921e-07
18 3.068328887740921e-07
19 3.068328887740921e-07
20 3.068328887740921e-07
21 3.068328887740921e-07
22 3.068328887740921e-07
23 3.068328887740921e-07
24 3.068328887740921e-07
25 3.068328887740921e-07
26 3.068328887740921e-07
27 3.068328887740921e-07
28 3.068328887740921e-07
29 3.068328887740921e-07
30 3.068328887740921e-07
31 3.068328887740921e-07
32 3.068328887740921e-07
33 3.068328887740921e-07
34 3.068328887740921e-07
35 3.068328887740921e-07
36 3.068328887740921e-07
37 3.068328887740921e-07
38 3.068328887740921e-07
39 3.068328887740921e-07
40 3.068328887740921e-07
41 3.068328887740921e-07
42 3.068328887740921e-07
43 3.068328887740921e-07
44 3.068328887740921e-07
45 3.068328887740921e-07
46 3.068328887740921e-07
47 3.068328887740921e-07
48 3.068328887740921e-07
49 3.068328887740921e-07
50 3.068328887740921e-07
51 3.068328887740921e-07
52 3.068328887740921e-07
$EndElementData
$ElementData
1
"Attribute:UniformLoadGlobalX"
1
0
3
0
1
52
1 0
2 0
3 0
4 0
5 0
6 0
7 0
8 0
9 0
10 0
11 0
12 0
13 0
14 0
15 0
16 0
17 0
18 0
19 0
20 0
21 0
22 0
23 0
24 0
25 0
26 0
27 0
28 0
29 0
30 0
31 0
32 0
33 0
34 0
35 0
36 0
37 0
38 0
39 0
40 0
41 0
42 0
43 0
44 0
45 0
46 0
47 0
48 0
49 0
50 0
51 0
52 0
$EndElementData
$ElementData
1
"Attribute:UniformLoadGlobalY"
1
0
3
0
1
52
1 0
2 0
3 0
4 0
5 0
6 0
7 0
8 0
9 0
10 0
11 0
12 0
13 0
14 0
15 0
16 0
17 0
18 0
19 0
20 0
21 0
22 0
23 0
24 0
25 0
26 0
27 0
28 0
29 0
30 0
31 0
32 0
33 0
34 0
35 0
36 0
37 0
38 0
39 0
40 0
41 0
42 0
43 0
44 0
45 0
46 0
47 0
48 0
49 0
50 0
51 0
52 0
$EndElementData
$ElementData
1
"Attribute:UniformLoadGlobalZ"
1
0
3
0
1
52
1 0
2 0
3 0
4 0
5 0
6 0
7 0
8 0
9 0
10 0
11 0
12 0
13 0
14 0
15 0
16 0
17 0
18 0
19 0
20 0
21 0
22 0
23 0
24 0
25 0
26 0
27 0
28 0
29 0
30 0
31 0
32 0
33 0
34 0
35 0
36 0
37 0
38 0
39 0
40 0
41 0
42 0
43 0
44 0
45 0
46 0
47 0
48 0
49 0
50 0
51 0
52 0
$EndElementData
$ElementData
1
"Attribute:UniformLoadLocalX"
1
0
3
0
1
52
1 0
2 0
3 0
4 0
5 0
6 0
7 0
8 0
9 0
10 0
11 0
12 0
13 0
14 0
15 0
16 0
17 0
18 0
19 0
20 0
21 0
22 0
23 0
24 0
25 0
26 0
27 0
28 0
29 0
30 0
31 0
32 0
33 0
34 0
35 0
36 0
37 0
38 0
39 0
40 0
41 0
42 0
43 0
44 0
45 0
46 0
47 0
48 0
49 0
50 0
51 0
52 0
$EndElementData
$ElementData
1
"Attribute:UniformLoadLocalY"
1
0
3
0
1
52
1 0
2 0
3 0
4 0
5 0
6 0
7 0
8 0
9 0
10 0
11 0
12 0
13 0
14 0
15 0
16 0
17 0
18 0
19 0
20 0
21 0
22 0
23 0
24 0
25 0
26 0
27 0
28 0
29 0
30 0
31 0
32 0
33 0
34 0
35 0
36 0
37 0
38 0
39 0
40 0
41 0
42 0
43 0
44 0
45 0
46 0
47 0
48 0
49 0
50 0
51 0
52 0
$EndElementData
$ElementData
1
"Attribute:UniformLoadLocalZ"
1
0
3
0
1
52
1 0
2 0
3 0
4 0
5 0
6 0
7 0
8 0
9 0
10 0
11 0
12 0
13 0
14 0
15 0
16 0
17 0
18 0
19 0
20 0
21 0
22 0
23 0
24 0
25 0
26 0
27 0
28 0
29 0
30 0
31 0
32 0
33 0
34 0
35 0
36 0
37 0
38 0
39 0
40 0
41 0
42 0
43 0
44 0
45 0
46 0
47 0
48 0
49 0
50 0
51 0
52 0
$EndElementData
$ElementData
1
"BeamOrientation"
1
0
3
0
3
52
1 0 0 0
2 0 0 0
3 0 0 0
4 0 0 0
5 0 0 0
6 0 0 0
7 0 0 0
8 0 0 0
9 0 0 0
10 0 0 0
11 0 0 0
12 0 0 0
13 0 0 0
14 0 0 0
15 0 0 0
16 0 0 0
17 0 0 0
18 0 0 0
19 0 0 0
20 0 0 0
21 0 0 0
22 0 0 0
23 0 0 0
24 0 0 0
25 0 0 0
26 0 0 0
27 0 0 0
28 0 0 0
29 0 0 0
30 0 0 0
31 0 0 0
32 0 0 0
33 0 0 0
34 0 0 0
35 0 0 0
36 0 0 0
37 0 0 0
38 0 0 0
39 0 0 0
40 0 0 0
41 0 0 0
42 0 0 0
43 0 0 0
44 0 0 0
45 0 0 0
46 0 0 0
47 0 0 0
48 0 0 0
49 0 0 0
50 0 0 0
51 0 0 0
52 0 0 0
$EndElementData
$AnafData
1
1
GLOBAL 3 1
"Gravity"
0 0 0
$EndAnafData
