$MeshFormat
4.1 0 8
$EndMeshFormat
$PhysicalNames
3
1 1 "Material:Titanium Ti-6Al-4V (Grade 5, annealed)"
1 2 "Section:Tube 101.6x2.11"
1 3 "Section:Box 200x100x6"
$EndPhysicalNames
$Entities
0 2 0 0
1 -1.2 1.5 -1.2 1.2 1.5 1.2 2 1 3 0
2 -1.2 0 -1.2 1.2 1.5 1.2 2 1 2 0
$EndEntities
$Nodes
1 9 1 9
1 1 0 9
1
2
3
4
5
6
7
8
9
0 0 0
1.2 1.5 0
0.848528137423857 1.5 0.8485281374238569
7.347880794884119e-17 1.5 1.2
-0.8485281374238569 1.5 0.848528137423857
-1.2 1.5 1.4695761589768238e-16
-0.8485281374238572 1.5 -0.8485281374238569
-2.2043642384652356e-16 1.5 -1.2
0.8485281374238568 1.5 -0.8485281374238572
$EndNodes
$Elements
2 16 1 16
1 1 1 8
1 2 3
3 3 4
5 4 5
7 5 6
9 6 7
11 7 8
13 8 9
15 9 2
1 2 1 8
2 1 2
4 1 3
6 1 4
8 1 5
10 1 6
12 1 7
14 1 8
16 1 9
$EndElements
$NodeData
1
"Fixity"
1
0
3
0
3
9
1 0 0 0
2 1 1 1
3 1 1 1
4 1 1 1
5 1 1 1
6 1 1 1
7 1 1 1
8 1 1 1
9 1 1 1
$EndNodeData
$NodeData
1
"FixityRotation"
1
0
3
0
3
9
1 0 0 0
2 1 1 1
3 1 1 1
4 1 1 1
5 1 1 1
6 1 1 1
7 1 1 1
8 1 1 1
9 1 1 1
$EndNodeData
$NodeData
1
"NodalForce"
1
0
3
0
3
9
1 9000 9e+05 0
2 0 0 0
3 0 0 0
4 0 0 0
5 0 0 0
6 0 0 0
7 0 0 0
8 0 0 0
9 0 0 0
$EndNodeData
$ElementData
1
"CrossSectionArea"
1
0
3
0
1
16
1 0.0033632920065877047
2 0.000659495382052919
3 0.0033632920065877047
4 0.000659495382052919
5 0.0033632920065877047
6 0.000659495382052919
7 0.0033632920065877047
8 0.000659495382052919
9 0.0033632920065877047
10 0.000659495382052919
11 0.0033632920065877047
12 0.000659495382052919
13 0.0033632920065877047
14 0.000659495382052919
15 0.0033632920065877047
16 0.000659495382052919
$EndElementData
$ElementData
1
"Attribute:ElementFormulation"
1
0
3
0
1
16
1 1
2 1
3 1
4 1
5 1
6 1
7 1
8 1
9 1
10 1
11 1
12 1
13 1
14 1
15 1
16 1
$EndElementData
$ElementData
1
"MaterialID"
1
0
3
0
1
16
1 15
2 15
3 15
4 15
5 15
6 15
7 15
8 15
9 15
10 15
11 15
12 15
13 15
14 15
15 15
16 15
$EndElementData
$ElementData
1
"Attribute:SecondMomentY"
1
0
3
0
1
16
1 5.769141797809077e-06
2 8.163491207123878e-07
3 5.769141797809077e-06
4 8.163491207123878e-07
5 5.769141797809077e-06
6 8.163491207123878e-07
7 5.769141797809077e-06
8 8.163491207123878e-07
9 5.769141797809077e-06
10 8.163491207123878e-07
11 5.769141797809077e-06
12 8.163491207123878e-07
13 5.769141797809077e-06
14 8.163491207123878e-07
15 5.769141797809077e-06
16 8.163491207123878e-07
$EndElementData
$ElementData
1
"Attribute:SecondMomentZ"
1
0
3
0
1
16
1 1.703308143931157e-05
2 8.163491207123878e-07
3 1.703308143931157e-05
4 8.163491207123878e-07
5 1.703308143931157e-05
6 8.163491207123878e-07
7 1.703308143931157e-05
8 8.163491207123878e-07
9 1.703308143931157e-05
10 8.163491207123878e-07
11 1.703308143931157e-05
12 8.163491207123878e-07
13 1.703308143931157e-05
14 8.163491207123878e-07
15 1.703308143931157e-05
16 8.163491207123878e-07
$EndElementData
$ElementData
1
"Attribute:SectionDimension1"
1
0
3
0
1
16
1 0.2
2 0.1016
3 0.2
4 0.1016
5 0.2
6 0.1016
7 0.2
8 0.1016
9 0.2
10 0.1016
11 0.2
12 0.1016
13 0.2
14 0.1016
15 0.2
16 0.1016
$EndElementData
$ElementData
1
"Attribute:SectionDimension2"
1
0
3
0
1
16
1 0.1
2 0.00211
3 0.1
4 0.00211
5 0.1
6 0.00211
7 0.1
8 0.00211
9 0.1
10 0.00211
11 0.1
12 0.00211
13 0.1
14 0.00211
15 0.1
16 0.00211
$EndElementData
$ElementData
1
"Attribute:SectionDimension3"
1
0
3
0
1
16
1 0.006
2 0
3 0.006
4 0
5 0.006
6 0
7 0.006
8 0
9 0.006
10 0
11 0.006
12 0
13 0.006
14 0
15 0.006
16 0
$EndElementData
$ElementData
1
"Attribute:SectionDimension4"
1
0
3
0
1
16
1 0.012
2 0
3 0.012
4 0
5 0.012
6 0
7 0.012
8 0
9 0.012
10 0
11 0.012
12 0
13 0.012
14 0
15 0.012
16 0
$EndElementData
$ElementData
1
"Attribute:SectionDimension5"
1
0
3
0
1
16
1 0.006
2 0
3 0.006
4 0
5 0.006
6 0
7 0.006
8 0
9 0.006
10 0
11 0.006
12 0
13 0.006
14 0
15 0.006
16 0
$EndElementData
$ElementData
1
"Attribute:SectionShape"
1
0
3
0
1
16
1 4
2 3
3 4
4 3
5 4
6 3
7 4
8 3
9 4
10 3
11 4
12 3
13 4
14 3
15 4
16 3
$EndElementData
$ElementData
1
"Attribute:ShearAreaY"
1
0
3
0
1
16
1 0.002142317809904676
2 0.0003524389440980115
3 0.002142317809904676
4 0.0003524389440980115
5 0.002142317809904676
6 0.0003524389440980115
7 0.002142317809904676
8 0.0003524389440980115
9 0.002142317809904676
10 0.0003524389440980115
11 0.002142317809904676
12 0.0003524389440980115
13 0.002142317809904676
14 0.0003524389440980115
15 0.002142317809904676
16 0.0003524389440980115
$EndElementData
$ElementData
1
"Attribute:ShearAreaZ"
1
0
3
0
1
16
1 0.0007922781466742113
2 0.0003524389440980115
3 0.0007922781466742113
4 0.0003524389440980115
5 0.0007922781466742113
6 0.0003524389440980115
7 0.0007922781466742113
8 0.0003524389440980115
9 0.0007922781466742113
10 0.0003524389440980115
11 0.0007922781466742113
12 0.0003524389440980115
13 0.0007922781466742113
14 0.0003524389440980115
15 0.0007922781466742113
16 0.0003524389440980115
$EndElementData
$ElementData
1
"Attribute:TorsionConstant"
1
0
3
0
1
16
1 1.4170255375859663e-05
2 1.6326982414247755e-06
3 1.4170255375859663e-05
4 1.6326982414247755e-06
5 1.4170255375859663e-05
6 1.6326982414247755e-06
7 1.4170255375859663e-05
8 1.6326982414247755e-06
9 1.4170255375859663e-05
10 1.6326982414247755e-06
11 1.4170255375859663e-05
12 1.6326982414247755e-06
13 1.4170255375859663e-05
14 1.6326982414247755e-06
15 1.4170255375859663e-05
16 1.6326982414247755e-06
$EndElementData
$ElementData
1
"Attribute:UniformLoadGlobalX"
1
0
3
0
1
16
1 0
2 0
3 0
4 0
5 0
6 0
7 0
8 0
9 0
10 0
11 0
12 0
13 0
14 0
15 0
16 0
$EndElementData
$ElementData
1
"Attribute:UniformLoadGlobalY"
1
0
3
0
1
16
1 0
2 0
3 0
4 0
5 0
6 0
7 0
8 0
9 0
10 0
11 0
12 0
13 0
14 0
15 0
16 0
$EndElementData
$ElementData
1
"Attribute:UniformLoadGlobalZ"
1
0
3
0
1
16
1 0
2 0
3 0
4 0
5 0
6 0
7 0
8 0
9 0
10 0
11 0
12 0
13 0
14 0
15 0
16 0
$EndElementData
$ElementData
1
"Attribute:UniformLoadLocalX"
1
0
3
0
1
16
1 0
2 0
3 0
4 0
5 0
6 0
7 0
8 0
9 0
10 0
11 0
12 0
13 0
14 0
15 0
16 0
$EndElementData
$ElementData
1
"Attribute:UniformLoadLocalY"
1
0
3
0
1
16
1 0
2 0
3 0
4 0
5 0
6 0
7 0
8 0
9 0
10 0
11 0
12 0
13 0
14 0
15 0
16 0
$EndElementData
$ElementData
1
"Attribute:UniformLoadLocalZ"
1
0
3
0
1
16
1 0
2 0
3 0
4 0
5 0
6 0
7 0
8 0
9 0
10 0
11 0
12 0
13 0
14 0
15 0
16 0
$EndElementData
$ElementData
1
"BeamOrientation"
1
0
3
0
3
16
1 0 0 0
2 0 0 0
3 0 0 0
4 0 0 0
5 0 0 0
6 0 0 0
7 0 0 0
8 0 0 0
9 0 0 0
10 0 0 0
11 0 0 0
12 0 0 0
13 0 0 0
14 0 0 0
15 0 0 0
16 0 0 0
$EndElementData
$AnafData
1
1
GLOBAL 3 1
"Gravity"
0 -9.80665 0
$EndAnafData
