$MeshFormat
4.1 0 8
$EndMeshFormat
$PhysicalNames
4
1 1 "Material:Structural Steel S355 (EN 10025)"
1 2 "Section:Tube 2500x22"
1 3 "Section:Tube 3500x26"
1 4 "Section:Tube 4200x30"
$EndPhysicalNames
$Entities
0 3 0 0
1 0 0 0 0 30 0 2 1 4 0
2 0 30 0 0 60 0 2 1 3 0
3 0 60 0 0 90 0 2 1 2 0
$EndEntities
$Nodes
1 10 1 10
1 1 0 10
1
2
3
4
5
6
7
8
9
10
0 0 0
0 10 0
0 20 0
0 30 0
0 40 0
0 50 0
0 60 0
0 70 0
0 80 0
0 90 0
$EndNodes
$Elements
3 9 1 9
1 1 1 3
1 1 2
2 2 3
3 3 4
1 2 1 3
4 4 5
5 5 6
6 6 7
1 3 1 3
7 7 8
8 8 9
9 9 10
$EndElements
$NodeData
1
"Displacement"
1
0
3
0
3
10
1 0 0 0
2 0.0063807723715215425 -0.0005755589431923642 0
3 0.024036682783734192 -0.0011144596947180614 0
4 0.050738121183109976 -0.001616702254577092 0
5 0.08727835325689466 -0.0022686000569060857 0
6 0.13297083769648338 -0.0028838396675684125 0
7 0.1833662539545723 -0.003462421086564073 0
8 0.23262821733943606 -0.004372337475309838 0
9 0.26822763317420184 -0.005245595672388936 0
10 0.27567611593384467 -0.006082195677801367 0
$EndNodeData
$NodeData
1
"Rotation"
1
0
3
0
3
10
1 0 0 0
2 0 0 -0.001238994306745509
3 0 0 -0.002255027608138221
4 0 0 -0.0030480999041781363
5 0 0 -0.004185791168123737
6 0 0 -0.004878550377338944
7 0 0 -0.005126377531823774
8 0 0 -0.004484542053065229
9 0 0 -0.002393868021804177
10 0 0 0.0011456445619593464
$EndNodeData
$ElementData
1
"BeamSectionForce"
1
0
3
0
12
9
1 -4901523.122733114 400000.0000000093 -0 -0 -0 24228000.000000723 -4598972.873722333 400000.0000000093 0 0 0 20228000.00000067
2 -4598972.873722332 400000.0000000149 -0 -0 -0 20228000.00000067 -4296422.624711551 400000.0000000149 0 0 0 16228000.000000596
3 -4296422.624711552 400000.0000000112 -0 -0 -0 16228000.000000551 -3993872.375700771 400000.0000000112 0 0 0 12228000.000000566
4 -3993872.3757007723 400000.0000000149 -0 -0 -0 12228000.000000551 -3775426.7426739926 400000.0000000149 0 0 0 8228000.000000387
5 -3775426.7426739917 400000.0000000037 -0 -0 -0 8228000.000000179 -3556981.109647212 400000.0000000037 0 0 0 4228000.000000238
6 -3556981.109647215 400000.00000002235 -0 -0 -0 4228000.000000253 -3338535.4766204352 400000.00000002235 0 0 0 228000.0000000894
7 -3338535.47662043 400000.00000001583 -0 -0 -0 228000.0000002645 -3206690.317746954 400000.00000001583 0 0 0 -3771999.9999999925
8 -3206690.317746952 400000.00000000605 -0 -0 -0 -3771999.999999948 -3074845.158873476 400000.00000000605 0 0 0 -7771999.999999985
9 -3074845.15887348 399999.99999997625 -0 -0 -0 -7772000.00000007 -2943000.0000000037 399999.99999997625 0 0 0 -11771999.99999992
$EndElementData
$ElementData
1
"AxialForce"
1
0
3
0
1
9
1 -4750247.998227724
2 -4447697.749216941
3 -4145147.5002061613
4 -3884649.5591873825
5 -3666203.926160602
6 -3447758.293133825
7 -3272612.897183692
8 -3140767.738310214
9 -3008922.579436742
$EndElementData
$ElementData
1
"VonMisesStress"
1
0
3
0
1
9
1 72113819.85076827
2 61526279.04360221
3 50944920.10087837
4 64246373.9569618
5 47192763.96368762
6 30215555.51776506
7 55183757.79049839
8 92205309.18687236
9 129365113.39829576
$EndElementData
$NodeData
1
"Fixity"
1
0
3
0
3
10
1 1 1 1
2 0 0 0
3 0 0 0
4 0 0 0
5 0 0 0
6 0 0 0
7 0 0 0
8 0 0 0
9 0 0 0
10 0 0 0
$EndNodeData
$NodeData
1
"FixityRotation"
1
0
3
0
3
10
1 1 1 1
2 0 0 0
3 0 0 0
4 0 0 0
5 0 0 0
6 0 0 0
7 0 0 0
8 0 0 0
9 0 0 0
10 0 0 0
$EndNodeData
$NodeData
1
"NodalForce"
1
0
3
0
3
10
1 0 0 0
2 0 0 0
3 0 0 0
4 0 0 0
5 0 0 0
6 0 0 0
7 0 0 0
8 0 0 0
9 0 0 0
10 4e+05 -2943000 0
$EndNodeData
$NodeData
1
"NodalMoment"
1
0
3
0
3
10
1 0 0 0
2 0 0 0
3 0 0 0
4 0 0 0
5 0 0 0
6 0 0 0
7 0 0 0
8 0 0 0
9 0 0 0
10 0 0 11772000
$EndNodeData
$ElementData
1
"CrossSectionArea"
1
0
3
0
1
9
1 0.3930132409640796
2 0.3930132409640796
3 0.3930132409640796
4 0.2837612148428454
5 0.2837612148428454
6 0.2837612148428454
7 0.1712670651031012
8 0.1712670651031012
9 0.1712670651031012
$EndElementData
$ElementData
1
"Attribute:ElementFormulation"
1
0
3
0
1
9
1 1
2 1
3 1
4 1
5 1
6 1
7 1
8 1
9 1
$EndElementData
$ElementData
1
"MaterialID"
1
0
3
0
1
9
1 3
2 3
3 3
4 3
5 3
6 3
7 3
8 3
9 3
$EndElementData
$ElementData
1
"Attribute:SecondMomentY"
1
0
3
0
1
9
1 0.8543027072146474
2 0.8543027072146474
3 0.8543027072146474
4 0.4281017482357402
5 0.4281017482357402
6 0.4281017482357402
7 0.13146819578150776
8 0.13146819578150776
9 0.13146819578150776
$EndElementData
$ElementData
1
"Attribute:SecondMomentZ"
1
0
3
0
1
9
1 0.8543027072146474
2 0.8543027072146474
3 0.8543027072146474
4 0.4281017482357402
5 0.4281017482357402
6 0.4281017482357402
7 0.13146819578150776
8 0.13146819578150776
9 0.13146819578150776
$EndElementData
$ElementData
1
"Attribute:SectionDimension1"
1
0
3
0
1
9
1 4.2
2 4.2
3 4.2
4 3.5
5 3.5
6 3.5
7 2.5
8 2.5
9 2.5
$EndElementData
$ElementData
1
"Attribute:SectionDimension2"
1
0
3
0
1
9
1 0.03
2 0.03
3 0.03
4 0.026
5 0.026
6 0.026
7 0.022
8 0.022
9 0.022
$EndElementData
$ElementData
1
"Attribute:SectionDimension3"
1
0
3
0
1
9
1 0
2 0
3 0
4 0
5 0
6 0
7 0
8 0
9 0
$EndElementData
$ElementData
1
"Attribute:SectionDimension4"
1
0
3
0
1
9
1 0
2 0
3 0
4 0
5 0
6 0
7 0
8 0
9 0
$EndElementData
$ElementData
1
"Attribute:SectionDimension5"
1
0
3
0
1
9
1 0
2 0
3 0
4 0
5 0
6 0
7 0
8 0
9 0
$EndElementData
$ElementData
1
"Attribute:SectionShape"
1
0
3
0
1
9
1 3
2 3
3 3
4 3
5 3
6 3
7 3
8 3
9 3
$EndElementData
$ElementData
1
"Attribute:ShearAreaY"
1
0
3
0
1
9
1 0.20855496575171617
2 0.20855496575171617
3 0.20855496575171617
4 0.15058071471689766
5 0.15058071471689766
6 0.15058071471689766
7 0.09088790128772217
8 0.09088790128772217
9 0.09088790128772217
$EndElementData
$ElementData
1
"Attribute:ShearAreaZ"
1
0
3
0
1
9
1 0.20855496575171617
2 0.20855496575171617
3 0.20855496575171617
4 0.15058071471689766
5 0.15058071471689766
6 0.15058071471689766
7 0.09088790128772217
8 0.09088790128772217
9 0.09088790128772217
$EndElementData
$ElementData
1
"Attribute:TorsionConstant"
1
0
3
0
1
9
1 1.7086054144292948
2 1.7086054144292948
3 1.7086054144292948
4 0.8562034964714804
5 0.8562034964714804
6 0.8562034964714804
7 0.2629363915630155
8 0.2629363915630155
9 0.2629363915630155
$EndElementData
$ElementData
1
"Attribute:UniformLoadGlobalX"
1
0
3
0
1
9
1 0
2 0
3 0
4 0
5 0
6 0
7 0
8 0
9 0
$EndElementData
$ElementData
1
"Attribute:UniformLoadGlobalY"
1
0
3
0
1
9
1 0
2 0
3 0
4 0
5 0
6 0
7 0
8 0
9 0
$EndElementData
$ElementData
1
"Attribute:UniformLoadGlobalZ"
1
0
3
0
1
9
1 0
2 0
3 0
4 0
5 0
6 0
7 0
8 0
9 0
$EndElementData
$ElementData
1
"Attribute:UniformLoadLocalX"
1
0
3
0
1
9
1 0
2 0
3 0
4 0
5 0
6 0
7 0
8 0
9 0
$EndElementData
$ElementData
1
"Attribute:UniformLoadLocalY"
1
0
3
0
1
9
1 0
2 0
3 0
4 0
5 0
6 0
7 0
8 0
9 0
$EndElementData
$ElementData
1
"Attribute:UniformLoadLocalZ"
1
0
3
0
1
9
1 0
2 0
3 0
4 0
5 0
6 0
7 0
8 0
9 0
$EndElementData
$ElementData
1
"BeamOrientation"
1
0
3
0
3
9
1 0 0 0
2 0 0 0
3 0 0 0
4 0 0 0
5 0 0 0
6 0 0 0
7 0 0 0
8 0 0 0
9 0 0 0
$EndElementData
$AnafData
1
1
GLOBAL 3 1
"Gravity"
0 -9.80665 0
$EndAnafData
