$MeshFormat
4.1 0 8
$EndMeshFormat
$PhysicalNames
4
1 1 "Material:Structural Steel S355 (EN 10025)"
1 2 "Section:Tube 2500x22"
1 3 "Section:Tube 3500x26"
1 4 "Section:Tube 4200x30"
$EndPhysicalNames
$Entities
0 3 0 0
1 0 0 0 0 30 0 2 1 4 0
2 0 30 0 0 60 0 2 1 3 0
3 0 60 0 0 90 0 2 1 2 0
$EndEntities
$Nodes
1 10 1 10
1 1 0 10
1
2
3
4
5
6
7
8
9
10
0 0 0
0 10 0
0 20 0
0 30 0
0 40 0
0 50 0
0 60 0
0 70 0
0 80 0
0 90 0
$EndNodes
$Elements
3 9 1 9
1 1 1 3
1 1 2
2 2 3
3 3 4
1 2 1 3
4 4 5
5 5 6
6 6 7
1 3 1 3
7 7 8
8 8 9
9 9 10
$EndElements
$NodeData
1
"Fixity"
1
0
3
0
3
10
1 1 1 1
2 0 0 0
3 0 0 0
4 0 0 0
5 0 0 0
6 0 0 0
7 0 0 0
8 0 0 0
9 0 0 0
10 0 0 0
$EndNodeData
$NodeData
1
"FixityRotation"
1
0
3
0
3
10
1 1 1 1
2 0 0 0
3 0 0 0
4 0 0 0
5 0 0 0
6 0 0 0
7 0 0 0
8 0 0 0
9 0 0 0
10 0 0 0
$EndNodeData
$NodeData
1
"NodalForce"
1
0
3
0
3
10
1 0 0 0
2 0 0 0
3 0 0 0
4 0 0 0
5 0 0 0
6 0 0 0
7 0 0 0
8 0 0 0
9 0 0 0
10 4e+05 -2943000 0
$EndNodeData
$NodeData
1
"NodalMoment"
1
0
3
0
3
10
1 0 0 0
2 0 0 0
3 0 0 0
4 0 0 0
5 0 0 0
6 0 0 0
7 0 0 0
8 0 0 0
9 0 0 0
10 0 0 11772000
$EndNodeData
$ElementData
1
"CrossSectionArea"
1
0
3
0
1
9
1 0.3930132409640796
2 0.3930132409640796
3 0.3930132409640796
4 0.2837612148428454
5 0.2837612148428454
6 0.2837612148428454
7 0.1712670651031012
8 0.1712670651031012
9 0.1712670651031012
$EndElementData
$ElementData
1
"Attribute:ElementFormulation"
1
0
3
0
1
9
1 1
2 1
3 1
4 1
5 1
6 1
7 1
8 1
9 1
$EndElementData
$ElementData
1
"MaterialID"
1
0
3
0
1
9
1 3
2 3
3 3
4 3
5 3
6 3
7 3
8 3
9 3
$EndElementData
$ElementData
1
"Attribute:SecondMomentY"
1
0
3
0
1
9
1 0.8543027072146474
2 0.8543027072146474
3 0.8543027072146474
4 0.4281017482357402
5 0.4281017482357402
6 0.4281017482357402
7 0.13146819578150776
8 0.13146819578150776
9 0.13146819578150776
$EndElementData
$ElementData
1
"Attribute:SecondMomentZ"
1
0
3
0
1
9
1 0.8543027072146474
2 0.8543027072146474
3 0.8543027072146474
4 0.4281017482357402
5 0.4281017482357402
6 0.4281017482357402
7 0.13146819578150776
8 0.13146819578150776
9 0.13146819578150776
$EndElementData
$ElementData
1
"Attribute:SectionDimension1"
1
0
3
0
1
9
1 4.2
2 4.2
3 4.2
4 3.5
5 3.5
6 3.5
7 2.5
8 2.5
9 2.5
$EndElementData
$ElementData
1
"Attribute:SectionDimension2"
1
0
3
0
1
9
1 0.03
2 0.03
3 0.03
4 0.026
5 0.026
6 0.026
7 0.022
8 0.022
9 0.022
$EndElementData
$ElementData
1
"Attribute:SectionDimension3"
1
0
3
0
1
9
1 0
2 0
3 0
4 0
5 0
6 0
7 0
8 0
9 0
$EndElementData
$ElementData
1
"Attribute:SectionDimension4"
1
0
3
0
1
9
1 0
2 0
3 0
4 0
5 0
6 0
7 0
8 0
9 0
$EndElementData
$ElementData
1
"Attribute:SectionDimension5"
1
0
3
0
1
9
1 0
2 0
3 0
4 0
5 0
6 0
7 0
8 0
9 0
$EndElementData
$ElementData
1
"Attribute:SectionShape"
1
0
3
0
1
9
1 3
2 3
3 3
4 3
5 3
6 3
7 3
8 3
9 3
$EndElementData
$ElementData
1
"Attribute:ShearAreaY"
1
0
3
0
1
9
1 0.20855496575171617
2 0.20855496575171617
3 0.20855496575171617
4 0.15058071471689766
5 0.15058071471689766
6 0.15058071471689766
7 0.09088790128772217
8 0.09088790128772217
9 0.09088790128772217
$EndElementData
$ElementData
1
"Attribute:ShearAreaZ"
1
0
3
0
1
9
1 0.20855496575171617
2 0.20855496575171617
3 0.20855496575171617
4 0.15058071471689766
5 0.15058071471689766
6 0.15058071471689766
7 0.09088790128772217
8 0.09088790128772217
9 0.09088790128772217
$EndElementData
$ElementData
1
"Attribute:TorsionConstant"
1
0
3
0
1
9
1 1.7086054144292948
2 1.7086054144292948
3 1.7086054144292948
4 0.8562034964714804
5 0.8562034964714804
6 0.8562034964714804
7 0.2629363915630155
8 0.2629363915630155
9 0.2629363915630155
$EndElementData
$ElementData
1
"Attribute:UniformLoadGlobalX"
1
0
3
0
1
9
1 0
2 0
3 0
4 0
5 0
6 0
7 0
8 0
9 0
$EndElementData
$ElementData
1
"Attribute:UniformLoadGlobalY"
1
0
3
0
1
9
1 0
2 0
3 0
4 0
5 0
6 0
7 0
8 0
9 0
$EndElementData
$ElementData
1
"Attribute:UniformLoadGlobalZ"
1
0
3
0
1
9
1 0
2 0
3 0
4 0
5 0
6 0
7 0
8 0
9 0
$EndElementData
$ElementData
1
"Attribute:UniformLoadLocalX"
1
0
3
0
1
9
1 0
2 0
3 0
4 0
5 0
6 0
7 0
8 0
9 0
$EndElementData
$ElementData
1
"Attribute:UniformLoadLocalY"
1
0
3
0
1
9
1 0
2 0
3 0
4 0
5 0
6 0
7 0
8 0
9 0
$EndElementData
$ElementData
1
"Attribute:UniformLoadLocalZ"
1
0
3
0
1
9
1 0
2 0
3 0
4 0
5 0
6 0
7 0
8 0
9 0
$EndElementData
$ElementData
1
"BeamOrientation"
1
0
3
0
3
9
1 0 0 0
2 0 0 0
3 0 0 0
4 0 0 0
5 0 0 0
6 0 0 0
7 0 0 0
8 0 0 0
9 0 0 0
$EndElementData
$AnafData
1
1
GLOBAL 3 1
"Gravity"
0 -9.80665 0
$EndAnafData
