$MeshFormat
4.1 0 8
$EndMeshFormat
$PhysicalNames
4
1 1 "Material:Structural Steel S355 (EN 10025)"
1 2 "Section:Tube 600x12"
1 3 "Section:Tube 1000x16"
1 4 "Section:Box 120x60x4"
$EndPhysicalNames
$Entities
0 3 0 0
1 0 0 0 0 18 0 2 1 3 0
2 0 18 0 0 36 0 2 1 2 0
3 -0.7500000000000007 36 -1.2990381056766576 1.5 36 1.299038105676658 2 1 4 0
$EndEntities
$Nodes
1 10 1 10
1 1 0 10
1
2
3
4
5
6
7
8
9
10
0 0 0
0 6 0
0 12 0
0 18 0
0 24 0
0 30 0
0 36 0
1.5 36 0
-0.7499999999999997 36 1.299038105676658
-0.7500000000000007 36 -1.2990381056766576
$EndNodes
$Elements
3 9 1 9
1 1 1 3
1 1 2
2 2 3
3 3 4
1 2 1 3
4 4 5
5 5 6
6 6 7
1 3 1 3
7 7 8
8 7 9
9 7 10
$EndElements
$NodeData
1
"Displacement"
1
0
3
0
3
10
1 0 0 0
2 0.016812266229752973 -5.2042713460541176e-05 -3.642696072013024e-19
3 0.06080758360492937 -9.088847792108236e-05 -1.3797736968261372e-18
4 0.12348319679094051 -0.00011653729338162356 -2.9305551709058947e-18
5 0.22323493382321286 -0.00015244570211330724 -5.899488479059916e-18
6 0.36242675627333637 -0.00017515716184499094 -1.0763769520543865e-17
7 0.5169116730691541 -0.00018467167257667466 -1.6798923371843596e-17
8 0.516927726881307 -0.04077275411799116 -1.218886158919678e-15
9 0.5317513855738497 0.01791368315144493 0.008558443336514659
10 0.5317513855738252 0.017913683151444953 -0.008558443336500476
$EndNodeData
$NodeData
1
"Rotation"
1
0
3
0
3
10
1 0 0 0
2 -1.182021719013061e-19 3.6856850280230045e-17 -0.005324957886307412
3 -2.1707816080784414e-19 7.371370056046011e-17 -0.009103960257235033
4 -2.9662796671961324e-19 1.1057055084069018e-16 -0.011594666365346222
5 -6.728921659007791e-19 3.4084419734886763e-16 -0.020716862992604966
6 -9.284105444962553e-19 5.711178438570451e-16 -0.025009661405431847
7 -1.0631831025060394e-18 8.013914903652225e-16 -0.026082861008638266
8 -1.0631831025060392e-18 8.01391490365223e-16 -0.027532360679474017
9 0.0012553035377209313 0.017130789682181017 -0.02535811117322038
10 -0.0012553035377209387 -0.017130789682153296 -0.025358111173220378
$EndNodeData
$ElementData
1
"BeamSectionForce"
1
0
3
0
12
9
1 -101516.29470634436 62999.9999999858 6.750607448499717e-13 5.9441299772329085e-09 -2.6797889673421246e-11 1295999.9999995055 -78670.48597528548 53999.9999999858 6.750607448499717e-13 5.9441299772329085e-09 -2.2747525204321403e-11 944999.9999995898
2 -78670.48597528551 53999.99999998673 6.750607448499781e-13 5.9441299772329135e-09 -2.2747525204321416e-11 944999.9999995916 -55824.67724422664 44999.99999998673 6.750607448499781e-13 5.9441299772329135e-09 -1.8697160735221586e-11 647999.999999675
3 -55824.67724422661 44999.99999998603 6.750607448500815e-13 5.944129977232911e-09 -1.869716073522174e-11 647999.9999996759 -32978.868513167734 35999.99999998603 6.750607448500815e-13 5.944129977232911e-09 -1.4646796266121304e-11 404999.99999975786
4 -32978.86851316771 35999.999999986496 6.750607448500718e-13 5.944129977232909e-09 -1.4646796266121556e-11 404999.9999997602 -22740.04569772364 26999.999999986496 6.750607448500718e-13 5.944129977232909e-09 -1.0596431797021112e-11 215999.99999984074
5 -22740.045697723654 26999.999999986612 6.750607448500815e-13 5.944129977232908e-09 -1.0596431797021099e-11 215999.9999998419 -12501.22288227958 17999.999999986612 6.750607448500815e-13 5.944129977232908e-09 -6.546067327920636e-12 80999.99999991944
6 -12501.222882279566 17999.99999998696 6.750607448501009e-13 5.944129977232908e-09 -6.546067327920545e-12 80999.99999991804 -2262.400066835493 8999.999999986961 6.750607448501009e-13 5.944129977232908e-09 -2.495702858820043e-12 1.862645149230957e-09
7 2999.999999985099 -754.1333556118386 -0 -0 1.0339757656912846e-25 -1015.6000167088854 2999.999999985099 -599.9999999999948 0 0 0 4.1602277178753866e-12
8 -1500 -754.1333556118514 -2598.076211357222 1.3642420526593924e-12 3897.114317035838 -1015.6000167088918 -1500 -600.0000000000075 -2598.076211357222 1.3642420526593924e-12 3.456079866737127e-11 9.613643214834156e-12
9 -1500 -754.1333556118459 2598.0762113533065 -1.3642420526593924e-12 -3897.1143170300097 -1015.6000167088872 -1500 -600.000000000002 2598.0762113533065 -1.3642420526593924e-12 3.728928277269006e-11 5.222489107836736e-13
$EndElementData
$ElementData
1
"AxialForce"
1
0
3
0
1
9
1 -90093.39034081492
2 -67247.58160975607
3 -44401.77287869717
4 -27859.457105445676
5 -17620.634290001617
6 -7381.811474557529
7 2999.999999985099
8 -1500
9 -1500
$EndElementData
$ElementData
1
"VonMisesStress"
1
0
3
0
1
9
1 110357538.2944538
2 80587456.56372188
3 55326905.05244708
4 128382697.83108525
5 68766916.90352406
6 26070405.644343562
7 27612628.10644046
8 167572333.12763914
9 167572333.12742344
$EndElementData
$NodeData
1
"Fixity"
1
0
3
0
3
10
1 1 1 1
2 0 0 0
3 0 0 0
4 0 0 0
5 0 0 0
6 0 0 0
7 0 0 0
8 0 0 0
9 0 0 0
10 0 0 0
$EndNodeData
$NodeData
1
"FixityRotation"
1
0
3
0
3
10
1 1 1 1
2 0 0 0
3 0 0 0
4 0 0 0
5 0 0 0
6 0 0 0
7 0 0 0
8 0 0 0
9 0 0 0
10 0 0 0
$EndNodeData
$NodeData
1
"NodalForce"
1
0
3
0
3
10
1 0 0 0
2 0 0 0
3 0 0 0
4 0 0 0
5 0 0 0
6 0 0 0
7 0 0 0
8 3000 -600 0
9 3000 -600 0
10 3000 -600 0
$EndNodeData
$ElementData
1
"CrossSectionArea"
1
0
3
0
1
9
1 0.049461234738117726
2 0.049461234738117726
3 0.049461234738117726
4 0.0221670777637296
5 0.0221670777637296
6 0.0221670777637296
7 0.0013347964473723111
8 0.0013347964473723111
9 0.0013347964473723111
$EndElementData
$ElementData
1
"Attribute:ElementFormulation"
1
0
3
0
1
9
1 1
2 1
3 1
4 1
5 1
6 1
7 1
8 1
9 1
$EndElementData
$ElementData
1
"MaterialID"
1
0
3
0
1
9
1 3
2 3
3 3
4 3
5 3
6 3
7 3
8 3
9 3
$EndElementData
$ElementData
1
"Attribute:SecondMomentY"
1
0
3
0
1
9
1 0.005987974922335487
2 0.005987974922335487
3 0.005987974922335487
4 0.0009584157741926139
5 0.0009584157741926139
6 0.0009584157741926139
7 8.124707428089777e-07
8 8.124707428089777e-07
9 8.124707428089777e-07
$EndElementData
$ElementData
1
"Attribute:SecondMomentZ"
1
0
3
0
1
9
1 0.005987974922335487
2 0.005987974922335487
3 0.005987974922335487
4 0.0009584157741926139
5 0.0009584157741926139
6 0.0009584157741926139
7 2.40739885597551e-06
8 2.40739885597551e-06
9 2.40739885597551e-06
$EndElementData
$ElementData
1
"Attribute:SectionDimension1"
1
0
3
0
1
9
1 1
2 1
3 1
4 0.6
5 0.6
6 0.6
7 0.12
8 0.12
9 0.12
$EndElementData
$ElementData
1
"Attribute:SectionDimension2"
1
0
3
0
1
9
1 0.016
2 0.016
3 0.016
4 0.012
5 0.012
6 0.012
7 0.06
8 0.06
9 0.06
$EndElementData
$ElementData
1
"Attribute:SectionDimension3"
1
0
3
0
1
9
1 0
2 0
3 0
4 0
5 0
6 0
7 0.004
8 0.004
9 0.004
$EndElementData
$ElementData
1
"Attribute:SectionDimension4"
1
0
3
0
1
9
1 0
2 0
3 0
4 0
5 0
6 0
7 0.008
8 0.008
9 0.008
$EndElementData
$ElementData
1
"Attribute:SectionDimension5"
1
0
3
0
1
9
1 0
2 0
3 0
4 0
5 0
6 0
7 0.004
8 0.004
9 0.004
$EndElementData
$ElementData
1
"Attribute:SectionShape"
1
0
3
0
1
9
1 3
2 3
3 3
4 3
5 3
6 3
7 4
8 4
9 4
$EndElementData
$ElementData
1
"Attribute:ShearAreaY"
1
0
3
0
1
9
1 0.026255875674694704
2 0.026255875674694704
3 0.026255875674694704
4 0.01176998641119943
5 0.01176998641119943
6 0.01176998641119943
7 0.0008489283664454384
8 0.0008489283664454384
9 0.0008489283664454384
$EndElementData
$ElementData
1
"Attribute:ShearAreaZ"
1
0
3
0
1
9
1 0.026255875674694704
2 0.026255875674694704
3 0.026255875674694704
4 0.01176998641119943
5 0.01176998641119943
6 0.01176998641119943
7 0.0003105200387595582
8 0.0003105200387595582
9 0.0003105200387595582
$EndElementData
$ElementData
1
"Attribute:TorsionConstant"
1
0
3
0
1
9
1 0.011975949844670973
2 0.011975949844670973
3 0.011975949844670973
4 0.0019168315483852278
5 0.0019168315483852278
6 0.0019168315483852278
7 2.0111989769075784e-06
8 2.0111989769075784e-06
9 2.0111989769075784e-06
$EndElementData
$ElementData
1
"Attribute:UniformLoadGlobalX"
1
0
3
0
1
9
1 1500
2 1500
3 1500
4 1500
5 1500
6 1500
7 0
8 0
9 0
$EndElementData
$ElementData
1
"Attribute:UniformLoadGlobalY"
1
0
3
0
1
9
1 0
2 0
3 0
4 0
5 0
6 0
7 0
8 0
9 0
$EndElementData
$ElementData
1
"Attribute:UniformLoadGlobalZ"
1
0
3
0
1
9
1 0
2 0
3 0
4 0
5 0
6 0
7 0
8 0
9 0
$EndElementData
$ElementData
1
"Attribute:UniformLoadLocalX"
1
0
3
0
1
9
1 0
2 0
3 0
4 0
5 0
6 0
7 0
8 0
9 0
$EndElementData
$ElementData
1
"Attribute:UniformLoadLocalY"
1
0
3
0
1
9
1 0
2 0
3 0
4 0
5 0
6 0
7 0
8 0
9 0
$EndElementData
$ElementData
1
"Attribute:UniformLoadLocalZ"
1
0
3
0
1
9
1 0
2 0
3 0
4 0
5 0
6 0
7 0
8 0
9 0
$EndElementData
$ElementData
1
"BeamOrientation"
1
0
3
0
3
9
1 0 0 0
2 0 0 0
3 0 0 0
4 0 0 0
5 0 0 0
6 0 0 0
7 0 0 0
8 0 0 0
9 0 0 0
$EndElementData
$AnafData
1
1
GLOBAL 3 1
"Gravity"
0 -9.80665 0
$EndAnafData
