$MeshFormat
4.1 0 8
$EndMeshFormat
$PhysicalNames
7
1 1 "Material:Structural Steel (AISI 4130)"
1 2 "Section:Tube 19.05x0.89"
1 3 "Section:Tube 22.2x0.89"
1 4 "Section:Tube 25.4x0.89"
1 5 "Section:Tube 25.4x1.24"
1 6 "Section:Tube 31.75x1.24"
1 7 "Section:Tube 38.1x1.24"
$EndPhysicalNames
$Entities
0 6 0 0
1 0.33 0.8 0 0.98 0.86 0 2 1 4 0
2 0.41 0.27 0 1.02 0.71 0 2 1 6 0
3 0.33 0.27 0 0.41 0.8 0 2 1 5 0
4 0.98 0.71 0 1.02 0.86 0 2 1 7 0
5 0 0.34 -0.065 0.33 0.8 0.065 2 1 2 0
6 0 0.27 -0.065 0.41 0.34 0.065 2 1 3 0
$EndEntities
$Nodes
1 6 1 6
1 1 0 6
1
2
3
4
5
6
0.41 0.27 0
0.33 0.8 0
0.98 0.86 0
1.02 0.71 0
0 0.34 -0.065
0 0.34 0.065
$EndNodes
$Elements
6 8 1 8
1 1 1 1
1 2 3
1 2 1 1
2 1 4
1 3 1 1
3 1 2
1 4 1 1
4 4 3
1 5 1 2
5 2 5
7 2 6
1 6 1 2
6 1 5
8 1 6
$EndElements
$NodeData
1
"Fixity"
1
0
3
0
3
6
1 0 0 0
2 0 0 0
3 0 0 0
4 0 1 1
5 1 1 1
6 0 1 1
$EndNodeData
$NodeData
1
"NodalForce"
1
0
3
0
3
6
1 0 -1200 150
2 0 -800 0
3 0 0 0
4 0 0 0
5 0 0 0
6 0 0 0
$EndNodeData
$ElementData
1
"CrossSectionArea"
1
0
3
0
1
8
1 6.853038798614242e-05
2 0.00011885398990767053
3 9.411708935330451e-05
4 0.00014359089046203665
5 5.077567710437967e-05
6 5.958313210871866e-05
7 5.077567710437967e-05
8 5.958313210871866e-05
$EndElementData
$ElementData
1
"Attribute:ElementFormulation"
1
0
3
0
1
8
1 1
2 1
3 1
4 1
5 1
6 1
7 1
8 1
$EndElementData
$ElementData
1
"MaterialID"
1
0
3
0
1
8
1 0
2 0
3 0
4 0
5 0
6 0
7 0
8 0
$EndElementData
$ElementData
1
"Attribute:SecondMomentY"
1
0
3
0
1
8
1 5.152904381519726e-09
2 1.3852398353216895e-08
3 6.885173318476729e-09
4 2.4413990893996126e-08
5 2.098163319138562e-09
6 3.388106922242427e-09
7 2.098163319138562e-09
8 3.388106922242427e-09
$EndElementData
$ElementData
1
"Attribute:SecondMomentZ"
1
0
3
0
1
8
1 5.152904381519726e-09
2 1.3852398353216895e-08
3 6.885173318476729e-09
4 2.4413990893996126e-08
5 2.098163319138562e-09
6 3.388106922242427e-09
7 2.098163319138562e-09
8 3.388106922242427e-09
$EndElementData
$ElementData
1
"Attribute:SectionDimension1"
1
0
3
0
1
8
1 0.0254
2 0.03175
3 0.0254
4 0.0381
5 0.01905
6 0.0222
7 0.01905
8 0.0222
$EndElementData
$ElementData
1
"Attribute:SectionDimension2"
1
0
3
0
1
8
1 0.00089
2 0.00124
3 0.00124
4 0.00124
5 0.00089
6 0.00089
7 0.00089
8 0.00089
$EndElementData
$ElementData
1
"Attribute:SectionDimension3"
1
0
3
0
1
8
1 0
2 0
3 0
4 0
5 0
6 0
7 0
8 0
$EndElementData
$ElementData
1
"Attribute:SectionDimension4"
1
0
3
0
1
8
1 0
2 0
3 0
4 0
5 0
6 0
7 0
8 0
$EndElementData
$ElementData
1
"Attribute:SectionDimension5"
1
0
3
0
1
8
1 0
2 0
3 0
4 0
5 0
6 0
7 0
8 0
$EndElementData
$ElementData
1
"Attribute:SectionShape"
1
0
3
0
1
8
1 3
2 3
3 3
4 3
5 3
6 3
7 3
8 3
$EndElementData
$ElementData
1
"Attribute:ShearAreaY"
1
0
3
0
1
8
1 3.638251997176054e-05
2 6.313281182933904e-05
3 5.00716638172669e-05
4 7.620903308826951e-05
5 2.70033762752256e-05
6 3.165402705135591e-05
7 2.70033762752256e-05
8 3.165402705135591e-05
$EndElementData
$ElementData
1
"Attribute:ShearAreaZ"
1
0
3
0
1
8
1 3.638251997176054e-05
2 6.313281182933904e-05
3 5.00716638172669e-05
4 7.620903308826951e-05
5 2.70033762752256e-05
6 3.165402705135591e-05
7 2.70033762752256e-05
8 3.165402705135591e-05
$EndElementData
$ElementData
1
"Attribute:TorsionConstant"
1
0
3
0
1
8
1 1.0305808763039453e-08
2 2.770479670643379e-08
3 1.3770346636953458e-08
4 4.882798178799225e-08
5 4.196326638277124e-09
6 6.776213844484854e-09
7 4.196326638277124e-09
8 6.776213844484854e-09
$EndElementData
$ElementData
1
"Attribute:UniformLoadGlobalX"
1
0
3
0
1
8
1 0
2 0
3 0
4 0
5 0
6 0
7 0
8 0
$EndElementData
$ElementData
1
"Attribute:UniformLoadGlobalY"
1
0
3
0
1
8
1 0
2 0
3 0
4 0
5 0
6 0
7 0
8 0
$EndElementData
$ElementData
1
"Attribute:UniformLoadGlobalZ"
1
0
3
0
1
8
1 0
2 0
3 0
4 0
5 0
6 0
7 0
8 0
$EndElementData
$ElementData
1
"Attribute:UniformLoadLocalX"
1
0
3
0
1
8
1 0
2 0
3 0
4 0
5 0
6 0
7 0
8 0
$EndElementData
$ElementData
1
"Attribute:UniformLoadLocalY"
1
0
3
0
1
8
1 0
2 0
3 0
4 0
5 0
6 0
7 0
8 0
$EndElementData
$ElementData
1
"Attribute:UniformLoadLocalZ"
1
0
3
0
1
8
1 0
2 0
3 0
4 0
5 0
6 0
7 0
8 0
$EndElementData
$ElementData
1
"BeamOrientation"
1
0
3
0
3
8
1 0 0 0
2 0 0 0
3 0 0 0
4 0 0 0
5 0 0 0
6 0 0 0
7 0 0 0
8 0 0 0
$EndElementData
$AnafData
1
1
GLOBAL 3 1
"Gravity"
0 -9.80665 0
$EndAnafData
