$MeshFormat
4.1 0 8
$EndMeshFormat
$PhysicalNames
3
1 1 "Material:Structural Steel (AISI 4130)"
1 2 "Section:Tube 44.45x1.65"
1 3 "Section:Tube 50.8x1.65"
$EndPhysicalNames
$Entities
0 2 0 0
1 1.3 0 -0.7 1.3 1.15 0.7 2 1 3 0
2 0 0 -0.7 2.3 1.15 0.7 2 1 2 0
$EndEntities
$Nodes
1 14 1 14
1 1 0 14
1
2
3
4
5
6
7
8
9
10
11
12
13
14
1.3 0 -0.7
1.3 0.45 -0.7
1.3 1.15 -0.6
0 0 -0.7
0.25 0.45 -0.7
0.65 1.1 -0.6
2.3 0.2 -0.6
1.3 0 0.7
1.3 0.45 0.7
1.3 1.15 0.6
0 0 0.7
0.25 0.45 0.7
0.65 1.1 0.6
2.3 0.2 0.6
$EndNodes
$Elements
2 18 1 18
1 1 1 5
1 1 2
2 2 3
8 8 9
9 9 10
15 3 10
1 2 1 13
3 4 5
4 5 6
5 6 3
6 5 2
7 3 7
10 11 12
11 12 13
12 13 10
13 12 9
14 10 14
16 6 13
17 3 9
18 6 10
$EndElements
$NodeData
1
"Displacement"
1
0
3
0
3
14
1 0 0 0
2 -0.00043864846193766567 -0.00030376847959165875 -0.0019668612377438375
3 -0.0011785994271189515 -0.0013144498449411401 0.0017031457425537991
4 0 0 0
5 -0.0004407836342216614 0.0002316149834791476 0.0001818080665856698
6 -0.001304547504002963 0.0004975973218162773 0.0017932077468341035
7 0 0 0
8 0 0 0
9 -0.00033854126784201624 -0.00030518051987263447 0.0022943097174677614
10 -0.0008104344150649455 -0.0009003619499490062 0.0015926056833566017
11 0 0 0
12 -0.0003403600322196653 0.0001771794218554186 0.0008559038674807958
13 -0.0009212231740925173 0.0006617780292783769 0.0017905389492055362
14 0 0 0
$EndNodeData
$NodeData
1
"Rotation"
1
0
3
0
3
14
1 0 0 0
2 -0.0015607155169633064 0.001183142689699014 0.0011858094278359367
3 0.0039626082506097095 0.00033199019070017695 -0.0002670509330378057
4 0 0 0
5 0.0014964679249625129 0.0008381982057320897 0.0012022670239992127
6 0.0019133573418698862 2.572576950459357e-05 -0.001611343406732372
7 0 0 0
8 0 0 0
9 0.0035550428100394947 -0.0002074324674533009 0.0008555569666737026
10 -0.0021256862644510217 0.0006663937088153027 -0.0006570881977091947
11 0 0 0
12 0.0020466662908122384 -0.0013636674497019996 0.0009142398735831488
13 -0.00036630988561434514 1.5846624363130513e-05 -0.0013278766557754005
14 0 0 0
$EndNodeData
$ElementData
1
"BeamSectionForce"
1
0
3
0
12
18
1 -35261.091335350604 -357.29651922975495 3359.401596268238 31.59022917186148 -810.6260177688425 -121.99808553814147 -35252.26541131493 -357.29651922975495 3359.401596268238 31.59022917186148 701.1047005518647 38.78534811524827
2 -35572.29172277035 -1569.4825530059013 264.8107163052686 -17.8086396667314 -64.19740887769899 -677.9959263610244 -35558.56250760376 -1567.521236553531 264.8107163052686 -17.8086396667314 123.05204435262345 431.10239974166143
3 -1028.3127848361778 170.66287969532078 -45.98525707911955 22.501723972390266 -6.420254882784505 68.65196338898926 -1020.6271378631054 174.93268356924995 -45.98525707911955 22.501723972390266 -30.092614824025475 -20.301139054463103
4 -886.5463526749412 268.4600249305582 249.18365932176556 -8.609402385909094 -98.61979248844571 65.87031952248505 -875.4448626027255 275.5019658797108 249.18365932176556 -8.609402385909094 93.18689124088654 -143.48439060599267
5 -935.3170125476342 -549.4644607215866 -54.52447990258863 25.161038964651283 20.143656173045205 -156.39061226239784 -934.4630517728485 -538.3629706493709 -54.52447990258863 25.161038964651283 -15.40195587929265 198.19774808955052
6 92.48580292448605 -202.3982955162635 -117.57168497693434 -23.10877419084038 65.15150160263943 -103.2842741963882 92.48580292448605 -184.465119245761 -117.57168497693434 -23.10877419084038 -58.298767623141636 99.81901855367464
7 -1668.3650455803702 84.41258267833942 16.458809530963393 -15.215341876423036 -33.80828105374126 64.16120199835507 -1684.590300301301 101.49179817405604 16.458809530963393 -15.215341876423036 -11.10645706835735 -64.04881599484233
8 -35424.97881341769 -303.65174652854125 -3107.243455496081 -5.538502871704752 823.8651847682215 -98.34047885727833 -35416.15288938202 -303.65174652854125 -3107.243455496081 -5.538502871704752 -574.3943702050151 38.30280708056533
9 -36196.985336480786 -689.1708486610399 -203.36383471521216 18.33370178295891 41.22272725176724 -370.27346712145174 -36183.256121314196 -687.2095322086697 -203.36383471521216 18.33370178295891 -102.57721932345947 116.35048328109573
10 -923.6378694889562 133.88495859540632 206.3781698643602 -3.0544283270909025 -102.78578682066251 53.350080712065385 -915.9522225158838 138.15476246933548 206.3781698643602 -3.0544283270909025 3.4538784841995778 -16.670428081430895
11 -836.0841619053122 250.1691703359362 -20.42427789787747 2.085738392002488 38.43575633161392 59.78337394606978 -824.9826718330964 257.21111128508875 -20.42427789787747 2.085738392002488 22.714368252552266 -135.49212981743656
12 -652.6058814883897 -420.6912266178931 38.89094292567739 -20.7489508542135 -0.14096247011266527 -125.19073336693894 -651.751920713604 -409.5897365456773 38.89094292567739 -20.7489508542135 25.212830396054805 145.44774923555707
13 78.78047362180041 -161.57174628905074 66.33723698248778 11.401583529325631 -23.342055279909957 -82.26976395603502 78.78047362180041 -143.63857001854825 66.33723698248778 11.401583529325631 46.31204355170222 77.96565210545445
14 -1065.4920524517897 70.8294054523643 -108.22403751787454 11.508905113318434 82.05469223920578 57.742778033951154 -1081.7173071727207 87.90862094808092 -108.22403751787454 11.508905113318434 -67.2199588888919 -51.73180845879361
15 -4811.1583035092335 154.4826919880055 25.313584648473608 -3.9052875924679267 -10.788208095986086 177.50402688673057 -4811.1583035092335 178.0184894164487 25.313584648473608 -3.9052875924679267 19.58809348218228 -21.996681955941924
16 -101.14998995618953 68.8743914105 -25.95710941782934 1.874845950544513 15.488401457830765 65.2372826329723 -101.14998995618953 89.36945000535995 -25.95710941782934 1.874845950544513 -15.660129843564455 -29.70902221654369
17 1299.9924091943315 250.1498221566416 -21.50743819152563 6.68796655905986 16.282312417849997 193.01362037704905 1288.03695834733 272.3528023010732 -21.50743819152563 6.68796655905986 -15.473039519828202 -192.7193195542378
18 256.92727241710344 -50.42239132639946 -0.2624018152551244 -6.163196585717019 5.372097891389608 1.4701669641220243 257.78123319188927 -27.11379830514979 -0.2624018152551244 -6.163196585717019 5.013748844940878 54.41381674932025
$EndElementData
$ElementData
1
"AxialForce"
1
0
3
0
1
18
1 -35256.67837333277
2 -35565.427115187056
3 -1024.4699613496416
4 -880.9956076388333
5 -934.8900321602414
6 92.48580292448605
7 -1676.4776729408356
8 -35420.56585139986
9 -36190.12072889749
10 -919.79504600242
11 -830.5334168692043
12 -652.1789011009969
13 78.78047362180041
14 -1073.6046798122552
15 -4811.1583035092335
16 -101.14998995618953
17 1294.0146837708307
18 257.35425280449635
$EndElementData
$ElementData
1
"VonMisesStress"
1
0
3
0
1
18
1 413053842.14939034
2 365448882.7287986
3 36733925.840175785
4 79511976.3560988
5 92967449.67181413
6 55488378.346189044
7 39880383.28167383
8 415444044.65159935
9 265507300.9750587
10 55132148.554526135
11 63938045.93211992
12 69037505.39761142
13 40683118.06471496
14 49155358.54122741
15 77611613.79554823
16 29826687.064026963
17 90727698.55622405
18 25184240.634120315
$EndElementData
$NodeData
1
"Fixity"
1
0
3
0
3
14
1 1 1 1
2 0 0 0
3 0 0 0
4 1 1 1
5 0 0 0
6 0 0 0
7 1 1 1
8 1 1 1
9 0 0 0
10 0 0 0
11 1 1 1
12 0 0 0
13 0 0 0
14 1 1 1
$EndNodeData
$NodeData
1
"FixityRotation"
1
0
3
0
3
14
1 1 1 1
2 0 0 0
3 0 0 0
4 1 1 1
5 0 0 0
6 0 0 0
7 1 1 1
8 1 1 1
9 0 0 0
10 0 0 0
11 1 1 1
12 0 0 0
13 0 0 0
14 1 1 1
$EndNodeData
$NodeData
1
"NodalForce"
1
0
3
0
3
14
1 0 0 0
2 0 0 0
3 0 -37000 0
4 0 0 0
5 0 0 0
6 0 0 0
7 0 0 0
8 0 0 0
9 0 0 0
10 0 -37000 0
11 0 0 0
12 0 0 0
13 0 0 0
14 0 0 0
$EndNodeData
$ElementData
1
"CrossSectionArea"
1
0
3
0
1
18
1 0.00025477531022449816
2 0.00025477531022449816
3 0.00022185927319651094
4 0.00022185927319651094
5 0.00022185927319651094
6 0.00022185927319651094
7 0.00022185927319651094
8 0.00025477531022449816
9 0.00025477531022449816
10 0.00022185927319651094
11 0.00022185927319651094
12 0.00022185927319651094
13 0.00022185927319651094
14 0.00022185927319651094
15 0.00025477531022449816
16 0.00022185927319651094
17 0.00022185927319651094
18 0.00022185927319651094
$EndElementData
$ElementData
1
"Attribute:ElementFormulation"
1
0
3
0
1
18
1 1
2 1
3 1
4 1
5 1
6 1
7 1
8 1
9 1
10 1
11 1
12 1
13 1
14 1
15 1
16 1
17 1
18 1
$EndElementData
$ElementData
1
"MaterialID"
1
0
3
0
1
18
1 0
2 0
3 0
4 0
5 0
6 0
7 0
8 0
9 0
10 0
11 0
12 0
13 0
14 0
15 0
16 0
17 0
18 0
$EndElementData
$ElementData
1
"Attribute:SecondMomentY"
1
0
3
0
1
18
1 7.702000939198577e-08
2 7.702000939198577e-08
3 5.087683786044679e-08
4 5.087683786044679e-08
5 5.087683786044679e-08
6 5.087683786044679e-08
7 5.087683786044679e-08
8 7.702000939198577e-08
9 7.702000939198577e-08
10 5.087683786044679e-08
11 5.087683786044679e-08
12 5.087683786044679e-08
13 5.087683786044679e-08
14 5.087683786044679e-08
15 7.702000939198577e-08
16 5.087683786044679e-08
17 5.087683786044679e-08
18 5.087683786044679e-08
$EndElementData
$ElementData
1
"Attribute:SecondMomentZ"
1
0
3
0
1
18
1 7.702000939198577e-08
2 7.702000939198577e-08
3 5.087683786044679e-08
4 5.087683786044679e-08
5 5.087683786044679e-08
6 5.087683786044679e-08
7 5.087683786044679e-08
8 7.702000939198577e-08
9 7.702000939198577e-08
10 5.087683786044679e-08
11 5.087683786044679e-08
12 5.087683786044679e-08
13 5.087683786044679e-08
14 5.087683786044679e-08
15 7.702000939198577e-08
16 5.087683786044679e-08
17 5.087683786044679e-08
18 5.087683786044679e-08
$EndElementData
$ElementData
1
"Attribute:SectionDimension1"
1
0
3
0
1
18
1 0.0508
2 0.0508
3 0.04445
4 0.04445
5 0.04445
6 0.04445
7 0.04445
8 0.0508
9 0.0508
10 0.04445
11 0.04445
12 0.04445
13 0.04445
14 0.04445
15 0.0508
16 0.04445
17 0.04445
18 0.04445
$EndElementData
$ElementData
1
"Attribute:SectionDimension2"
1
0
3
0
1
18
1 0.00165
2 0.00165
3 0.00165
4 0.00165
5 0.00165
6 0.00165
7 0.00165
8 0.00165
9 0.00165
10 0.00165
11 0.00165
12 0.00165
13 0.00165
14 0.00165
15 0.00165
16 0.00165
17 0.00165
18 0.00165
$EndElementData
$ElementData
1
"Attribute:SectionDimension3"
1
0
3
0
1
18
1 0
2 0
3 0
4 0
5 0
6 0
7 0
8 0
9 0
10 0
11 0
12 0
13 0
14 0
15 0
16 0
17 0
18 0
$EndElementData
$ElementData
1
"Attribute:SectionDimension4"
1
0
3
0
1
18
1 0
2 0
3 0
4 0
5 0
6 0
7 0
8 0
9 0
10 0
11 0
12 0
13 0
14 0
15 0
16 0
17 0
18 0
$EndElementData
$ElementData
1
"Attribute:SectionDimension5"
1
0
3
0
1
18
1 0
2 0
3 0
4 0
5 0
6 0
7 0
8 0
9 0
10 0
11 0
12 0
13 0
14 0
15 0
16 0
17 0
18 0
$EndElementData
$ElementData
1
"Attribute:SectionShape"
1
0
3
0
1
18
1 3
2 3
3 3
4 3
5 3
6 3
7 3
8 3
9 3
10 3
11 3
12 3
13 3
14 3
15 3
16 3
17 3
18 3
$EndElementData
$ElementData
1
"Attribute:ShearAreaY"
1
0
3
0
1
18
1 0.00013521772419358846
2 0.00013521772419358846
3 0.00011781587339518587
4 0.00011781587339518587
5 0.00011781587339518587
6 0.00011781587339518587
7 0.00011781587339518587
8 0.00013521772419358846
9 0.00013521772419358846
10 0.00011781587339518587
11 0.00011781587339518587
12 0.00011781587339518587
13 0.00011781587339518587
14 0.00011781587339518587
15 0.00013521772419358846
16 0.00011781587339518587
17 0.00011781587339518587
18 0.00011781587339518587
$EndElementData
$ElementData
1
"Attribute:ShearAreaZ"
1
0
3
0
1
18
1 0.00013521772419358846
2 0.00013521772419358846
3 0.00011781587339518587
4 0.00011781587339518587
5 0.00011781587339518587
6 0.00011781587339518587
7 0.00011781587339518587
8 0.00013521772419358846
9 0.00013521772419358846
10 0.00011781587339518587
11 0.00011781587339518587
12 0.00011781587339518587
13 0.00011781587339518587
14 0.00011781587339518587
15 0.00013521772419358846
16 0.00011781587339518587
17 0.00011781587339518587
18 0.00011781587339518587
$EndElementData
$ElementData
1
"Attribute:TorsionConstant"
1
0
3
0
1
18
1 1.5404001878397154e-07
2 1.5404001878397154e-07
3 1.0175367572089358e-07
4 1.0175367572089358e-07
5 1.0175367572089358e-07
6 1.0175367572089358e-07
7 1.0175367572089358e-07
8 1.5404001878397154e-07
9 1.5404001878397154e-07
10 1.0175367572089358e-07
11 1.0175367572089358e-07
12 1.0175367572089358e-07
13 1.0175367572089358e-07
14 1.0175367572089358e-07
15 1.5404001878397154e-07
16 1.0175367572089358e-07
17 1.0175367572089358e-07
18 1.0175367572089358e-07
$EndElementData
$ElementData
1
"Attribute:UniformLoadGlobalX"
1
0
3
0
1
18
1 0
2 0
3 0
4 0
5 0
6 0
7 0
8 0
9 0
10 0
11 0
12 0
13 0
14 0
15 0
16 0
17 0
18 0
$EndElementData
$ElementData
1
"Attribute:UniformLoadGlobalY"
1
0
3
0
1
18
1 0
2 0
3 0
4 0
5 0
6 0
7 0
8 0
9 0
10 0
11 0
12 0
13 0
14 0
15 0
16 0
17 0
18 0
$EndElementData
$ElementData
1
"Attribute:UniformLoadGlobalZ"
1
0
3
0
1
18
1 0
2 0
3 0
4 0
5 0
6 0
7 0
8 0
9 0
10 0
11 0
12 0
13 0
14 0
15 0
16 0
17 0
18 0
$EndElementData
$ElementData
1
"Attribute:UniformLoadLocalX"
1
0
3
0
1
18
1 0
2 0
3 0
4 0
5 0
6 0
7 0
8 0
9 0
10 0
11 0
12 0
13 0
14 0
15 0
16 0
17 0
18 0
$EndElementData
$ElementData
1
"Attribute:UniformLoadLocalY"
1
0
3
0
1
18
1 0
2 0
3 0
4 0
5 0
6 0
7 0
8 0
9 0
10 0
11 0
12 0
13 0
14 0
15 0
16 0
17 0
18 0
$EndElementData
$ElementData
1
"Attribute:UniformLoadLocalZ"
1
0
3
0
1
18
1 0
2 0
3 0
4 0
5 0
6 0
7 0
8 0
9 0
10 0
11 0
12 0
13 0
14 0
15 0
16 0
17 0
18 0
$EndElementData
$ElementData
1
"BeamOrientation"
1
0
3
0
3
18
1 0 0 0
2 0 0 0
3 0 0 0
4 0 0 0
5 0 0 0
6 0 0 0
7 0 0 0
8 0 0 0
9 0 0 0
10 0 0 0
11 0 0 0
12 0 0 0
13 0 0 0
14 0 0 0
15 0 0 0
16 0 0 0
17 0 0 0
18 0 0 0
$EndElementData
$AnafData
1
1
GLOBAL 3 1
"Gravity"
0 -9.80665 0
$EndAnafData
