$MeshFormat
4.1 0 8
$EndMeshFormat
$PhysicalNames
3
1 1 "Material:Structural Steel S355 (EN 10025)"
1 2 "Section:RHS 200x100x10"
1 3 "Section:Box 120x60x4"
$EndPhysicalNames
$Entities
0 2 0 0
1 0 0.9 -0.45 7 0.9 0.45 2 1 2 0
2 0 0.9 -0.45 7 0.9 0.45 2 1 3 0
$EndEntities
$Nodes
1 22 1 22
1 1 0 22
1
2
3
4
5
6
7
8
9
10
11
12
13
14
15
16
17
18
19
20
21
22
0 0.9 -0.45
0.7 0.9 -0.45
1.4 0.9 -0.45
2.0999999999999996 0.9 -0.45
2.8 0.9 -0.45
3.5 0.9 -0.45
4.199999999999999 0.9 -0.45
4.8999999999999995 0.9 -0.45
5.6 0.9 -0.45
6.3 0.9 -0.45
7 0.9 -0.45
0 0.9 0.45
0.7 0.9 0.45
1.4 0.9 0.45
2.0999999999999996 0.9 0.45
2.8 0.9 0.45
3.5 0.9 0.45
4.199999999999999 0.9 0.45
4.8999999999999995 0.9 0.45
5.6 0.9 0.45
6.3 0.9 0.45
7 0.9 0.45
$EndNodes
$Elements
2 26 1 26
1 1 1 20
1 1 2
2 2 3
3 3 4
4 4 5
5 5 6
6 6 7
7 7 8
8 8 9
9 9 10
10 10 11
11 12 13
12 13 14
13 14 15
14 15 16
15 16 17
16 17 18
17 18 19
18 19 20
19 20 21
20 21 22
1 2 1 6
21 1 12
22 3 14
23 5 16
24 7 18
25 9 20
26 11 22
$EndElements
$NodeData
1
"Displacement"
1
0
3
0
3
22
1 0 0.0038111091935836504 0
2 0 0 0
3 0 -0.003671977464738265 0
4 0 -0.006533897066845542 0
5 0 -0.008041843539852591 0
6 0 -0.007903953319953652 0
7 0 -0.0061774048227540655 0
8 0 -0.003281778147496983 0
9 0 0 0
10 0 0.0028649624581747798 0
11 0 0.005516240370464009 0
12 0 0.003811109193583665 0
13 0 0 0
14 0 -0.0036719774647382755 0
15 0 -0.0065338970668455615 0
16 0 -0.008041843539852617 0
17 0 -0.007903953319953671 0
18 0 -0.006177404822754072 0
19 0 -0.0032817781474969838 0
20 0 0 0
21 0 0.0028649624581747724 0
22 0 0.0055162403704639845 0
$EndNodeData
$NodeData
1
"Rotation"
1
0
3
0
3
22
1 6.173825020405351e-06 0 -0.005442686658451605
2 6.173825020414431e-06 0 -0.005449031900168446
3 6.17382502042351e-06 0 -0.004831557133682817
4 6.173825020429186e-06 0 -0.0032271555658668965
5 6.173825020435017e-06 0 -0.0010082532492871916
6 6.173825020430225e-06 0 0.0013884989068380553
7 6.173825020426164e-06 0 0.0034447092666429506
8 6.173825020424656e-06 0 0.004641986194261593
9 6.1738250204228285e-06 0 0.004461938053828098
10 6.173825020429824e-06 0 0.003853435614733564
11 6.173825020436846e-06 0 0.003765349646369103
12 -6.1738250204246725e-06 0 -0.005442686658451628
13 -6.173825020415422e-06 0 -0.005449031900168465
14 -6.173825020406371e-06 0 -0.00483155713368283
15 -6.1738250204003304e-06 0 -0.0032271555658669104
16 -6.173825020394519e-06 0 -0.0010082532492871946
17 -6.1738250204000534e-06 0 0.001388498906838072
18 -6.173825020405591e-06 0 0.0034447092666429627
19 -6.17382502040714e-06 0 0.004641986194261598
20 -6.173825020408744e-06 0 0.004461938053828093
21 -6.17382502040136e-06 0 0.003853435614733548
22 -6.173825020394151e-06 0 0.003765349646369072
$EndNodeData
$ElementData
1
"BeamSectionForce"
1
0
3
0
12
26
1 -0 46.240006683472586 -0 2.2595258997171186e-11 -0 -5.2953197382521466e-11 0 342.22805776869967 0 2.2595258997171186e-11 0 -135.9638225584442
2 -0 -14588.052178354681 -0 2.2595258997171186e-11 -0 -135.96382255848786 0 -14292.064127269454 0 2.2595258997171186e-11 0 9972.07688440984
3 -0 -8245.824120585845 -0 1.4123813230071391e-11 -0 9972.07688440984 0 -7949.836069500618 0 1.4123813230071391e-11 0 15640.557950940149
4 -0 -7949.836069500519 -0 1.4511059021060646e-11 -0 15640.557950940061 0 -2053.848018415292 0 1.4511059021060646e-11 0 19141.847381710704
5 -0 -2007.608011731611 -0 -1.1926459819733282e-11 -0 19141.847381710577 0 3888.380039353617 0 -1.1926459819733282e-11 0 18483.577172042937
6 -0 3888.380039353558 -0 -1.0105694059348025e-11 -0 18483.577172042827 0 9784.368090438778 0 -1.0105694059348025e-11 0 13698.11532661544
7 -0 9830.60809712277 -0 -3.751665644813329e-12 -0 13698.115326615234 0 15726.596148207997 0 -3.751665644813329e-12 0 4753.093840749537
8 -0 15726.596148208095 -0 -4.5492498657040414e-12 -0 4753.093840749508 0 21622.584199293324 0 -4.5492498657040414e-12 0 -8319.119280876059
9 -0 -11838.216108853734 -0 1.7408297026122455e-11 -0 -8319.11928087603 0 -5942.228057768507 0 1.7408297026122455e-11 0 -2095.963822558192
10 -0 -5942.228057768671 -0 1.7474022229180264e-11 -0 -2095.96382255809 0 -46.24000668344297 0 1.7474022229180264e-11 0 6.815525921410881e-11
11 -0 46.240006683530794 -0 2.3019808281787846e-11 -0 -9.297451697420911e-12 0 342.2280577687579 0 2.3019808281787846e-11 0 -135.9638225584151
12 -0 -14588.052178354623 -0 2.2524204723595176e-11 -0 -135.96382255840055 0 -14292.064127269396 0 2.2524204723595176e-11 0 9972.07688440987
13 -0 -8245.824120585816 -0 1.503153157500492e-11 -0 9972.076884409775 0 -7949.836069500589 0 1.503153157500492e-11 0 15640.557950940221
14 -0 -7949.836069500781 -0 1.446309738639684e-11 -0 15640.557950940227 0 -2053.8480184155537 0 1.446309738639684e-11 0 19141.847381710722
15 -0 -2007.6080117311162 -0 -1.3773870932709542e-11 -0 19141.847381710893 0 3888.380039354112 0 -1.3773870932709542e-11 0 18483.577172042886
16 -0 3888.380039354373 -0 -1.3780976360067143e-11 -0 18483.57717204304 0 9784.368090439593 0 -1.3780976360067143e-11 0 13698.115326615192
17 -0 9830.608097122653 -0 -3.852917984659143e-12 -0 13698.115326615205 0 15726.59614820788 0 -3.852917984659143e-12 0 4753.093840749479
18 -0 15726.596148208153 -0 -3.991473818132363e-12 -0 4753.09384074945 0 21622.584199293382 0 -3.991473818132363e-12 0 -8319.119280876146
19 -0 -11838.216108853909 -0 1.837463514675619e-11 -0 -8319.119280876153 0 -5942.2280577686815 0 1.837463514675619e-11 0 -2095.963822558265
20 -0 -5942.228057768874 -0 1.793942772110313e-11 -0 -2095.963822558294 0 -46.2400066836467 0 1.793942772110313e-11 0 9.947598300641403e-12
21 -0 -46.240006683505534 -0 -4.092726157978177e-12 -0 2.1015189588524663e-11 0 46.24000668360073 0 -4.092726157978177e-12 0 -2.291500322826323e-11
22 -0 -46.24000668357524 -0 -2.3874235921539366e-12 -0 -1.1174172698247276e-11 0 46.24000668353103 0 -2.3874235921539366e-12 0 8.72191208145523e-12
23 -0 -46.240006683625445 -0 -5.400124791776761e-13 -0 -3.242028867589397e-11 0 46.24000668348082 0 -5.400124791776761e-13 0 2.7567281790652487e-11
24 -0 -46.24000668352866 -0 2.1600499167107046e-12 -0 9.709566484161769e-12 0 46.240006683577604 0 2.1600499167107046e-12 0 -9.398704037266725e-12
25 -0 -46.24000668350039 -0 -6.821210263296962e-13 -0 2.3669954885008337e-11 0 46.24000668360588 0 -6.821210263296962e-13 0 -2.3798740755864856e-11
26 -0 -46.24000668359496 -0 -5.6843418860808015e-12 -0 -2.1093349289458274e-11 0 46.240006683511304 0 -5.6843418860808015e-12 0 1.9465318246147945e-11
$EndElementData
$ElementData
1
"AxialForce"
1
0
3
0
1
26
1 0
2 0
3 0
4 0
5 0
6 0
7 0
8 0
9 0
10 0
11 0
12 0
13 0
14 0
15 0
16 0
17 0
18 0
19 0
20 0
21 0
22 0
23 0
24 0
25 0
26 0
$EndElementData
$ElementData
1
"VonMisesStress"
1
0
3
0
1
26
1 544407.4454203785
2 38257506.97314903
3 58870257.12836029
4 71856032.9250254
5 72745060.60149711
6 69409707.60993607
7 51702158.05804806
8 33443902.607871614
9 31906304.273194615
10 8528002.24422756
11 544407.4454203802
12 38257506.97314919
13 58870257.12835996
14 71856032.92502671
15 72745060.60149786
16 69409707.60993686
17 51702158.05804794
18 33443902.60787198
19 31906304.27319509
20 8528002.24422831
21 259300.65085745533
22 259300.6508574349
23 259300.65085746848
24 259300.65085743298
25 259300.6508574639
26 259300.6508574089
$EndElementData
$NodeData
1
"Fixity"
1
0
3
0
3
22
1 0 0 0
2 1 1 1
3 0 0 0
4 0 0 0
5 0 0 0
6 0 0 0
7 0 0 0
8 0 0 0
9 0 1 1
10 0 0 0
11 0 0 0
12 0 0 0
13 0 1 0
14 0 0 0
15 0 0 0
16 0 0 0
17 0 0 0
18 0 0 0
19 0 0 0
20 0 1 0
21 0 0 0
22 0 0 0
$EndNodeData
$NodeData
1
"NodalForce"
1
0
3
0
3
22
1 0 0 0
2 0 0 0
3 0 -6000 0
4 0 0 0
5 0 0 0
6 0 0 0
7 0 0 0
8 0 0 0
9 0 0 0
10 0 0 0
11 0 0 0
12 0 0 0
13 0 0 0
14 0 -6000 0
15 0 0 0
16 0 0 0
17 0 0 0
18 0 0 0
19 0 0 0
20 0 0 0
21 0 0 0
22 0 0 0
$EndNodeData
$ElementData
1
"CrossSectionArea"
1
0
3
0
1
26
1 0.005492699081698733
2 0.005492699081698733
3 0.005492699081698733
4 0.005492699081698733
5 0.005492699081698733
6 0.005492699081698733
7 0.005492699081698733
8 0.005492699081698733
9 0.005492699081698733
10 0.005492699081698733
11 0.005492699081698733
12 0.005492699081698733
13 0.005492699081698733
14 0.005492699081698733
15 0.005492699081698733
16 0.005492699081698733
17 0.005492699081698733
18 0.005492699081698733
19 0.005492699081698733
20 0.005492699081698733
21 0.0013347964473723111
22 0.0013347964473723111
23 0.0013347964473723111
24 0.0013347964473723111
25 0.0013347964473723111
26 0.0013347964473723111
$EndElementData
$ElementData
1
"Attribute:ElementFormulation"
1
0
3
0
1
26
1 1
2 1
3 1
4 1
5 1
6 1
7 1
8 1
9 1
10 1
11 1
12 1
13 1
14 1
15 1
16 1
17 1
18 1
19 1
20 1
21 1
22 1
23 1
24 1
25 1
26 1
$EndElementData
$ElementData
1
"MaterialID"
1
0
3
0
1
26
1 3
2 3
3 3
4 3
5 3
6 3
7 3
8 3
9 3
10 3
11 3
12 3
13 3
14 3
15 3
16 3
17 3
18 3
19 3
20 3
21 3
22 3
23 3
24 3
25 3
26 3
$EndElementData
$ElementData
1
"Attribute:SecondMomentY"
1
0
3
0
1
26
1 8.687564936710617e-06
2 8.687564936710617e-06
3 8.687564936710617e-06
4 8.687564936710617e-06
5 8.687564936710617e-06
6 8.687564936710617e-06
7 8.687564936710617e-06
8 8.687564936710617e-06
9 8.687564936710617e-06
10 8.687564936710617e-06
11 8.687564936710617e-06
12 8.687564936710617e-06
13 8.687564936710617e-06
14 8.687564936710617e-06
15 8.687564936710617e-06
16 8.687564936710617e-06
17 8.687564936710617e-06
18 8.687564936710617e-06
19 8.687564936710617e-06
20 8.687564936710617e-06
21 8.124707428089777e-07
22 8.124707428089777e-07
23 8.124707428089777e-07
24 8.124707428089777e-07
25 8.124707428089777e-07
26 8.124707428089777e-07
$EndElementData
$ElementData
1
"Attribute:SecondMomentZ"
1
0
3
0
1
26
1 2.6642505726249154e-05
2 2.6642505726249154e-05
3 2.6642505726249154e-05
4 2.6642505726249154e-05
5 2.6642505726249154e-05
6 2.6642505726249154e-05
7 2.6642505726249154e-05
8 2.6642505726249154e-05
9 2.6642505726249154e-05
10 2.6642505726249154e-05
11 2.6642505726249154e-05
12 2.6642505726249154e-05
13 2.6642505726249154e-05
14 2.6642505726249154e-05
15 2.6642505726249154e-05
16 2.6642505726249154e-05
17 2.6642505726249154e-05
18 2.6642505726249154e-05
19 2.6642505726249154e-05
20 2.6642505726249154e-05
21 2.40739885597551e-06
22 2.40739885597551e-06
23 2.40739885597551e-06
24 2.40739885597551e-06
25 2.40739885597551e-06
26 2.40739885597551e-06
$EndElementData
$ElementData
1
"Attribute:SectionDimension1"
1
0
3
0
1
26
1 0.2
2 0.2
3 0.2
4 0.2
5 0.2
6 0.2
7 0.2
8 0.2
9 0.2
10 0.2
11 0.2
12 0.2
13 0.2
14 0.2
15 0.2
16 0.2
17 0.2
18 0.2
19 0.2
20 0.2
21 0.12
22 0.12
23 0.12
24 0.12
25 0.12
26 0.12
$EndElementData
$ElementData
1
"Attribute:SectionDimension2"
1
0
3
0
1
26
1 0.1
2 0.1
3 0.1
4 0.1
5 0.1
6 0.1
7 0.1
8 0.1
9 0.1
10 0.1
11 0.1
12 0.1
13 0.1
14 0.1
15 0.1
16 0.1
17 0.1
18 0.1
19 0.1
20 0.1
21 0.06
22 0.06
23 0.06
24 0.06
25 0.06
26 0.06
$EndElementData
$ElementData
1
"Attribute:SectionDimension3"
1
0
3
0
1
26
1 0.01
2 0.01
3 0.01
4 0.01
5 0.01
6 0.01
7 0.01
8 0.01
9 0.01
10 0.01
11 0.01
12 0.01
13 0.01
14 0.01
15 0.01
16 0.01
17 0.01
18 0.01
19 0.01
20 0.01
21 0.004
22 0.004
23 0.004
24 0.004
25 0.004
26 0.004
$EndElementData
$ElementData
1
"Attribute:SectionDimension4"
1
0
3
0
1
26
1 0.015
2 0.015
3 0.015
4 0.015
5 0.015
6 0.015
7 0.015
8 0.015
9 0.015
10 0.015
11 0.015
12 0.015
13 0.015
14 0.015
15 0.015
16 0.015
17 0.015
18 0.015
19 0.015
20 0.015
21 0.008
22 0.008
23 0.008
24 0.008
25 0.008
26 0.008
$EndElementData
$ElementData
1
"Attribute:SectionDimension5"
1
0
3
0
1
26
1 0.01
2 0.01
3 0.01
4 0.01
5 0.01
6 0.01
7 0.01
8 0.01
9 0.01
10 0.01
11 0.01
12 0.01
13 0.01
14 0.01
15 0.01
16 0.01
17 0.01
18 0.01
19 0.01
20 0.01
21 0.004
22 0.004
23 0.004
24 0.004
25 0.004
26 0.004
$EndElementData
$ElementData
1
"Attribute:SectionShape"
1
0
3
0
1
26
1 4
2 4
3 4
4 4
5 4
6 4
7 4
8 4
9 4
10 4
11 4
12 4
13 4
14 4
15 4
16 4
17 4
18 4
19 4
20 4
21 4
22 4
23 4
24 4
25 4
26 4
$EndElementData
$ElementData
1
"Attribute:ShearAreaY"
1
0
3
0
1
26
1 0.003517713248282337
2 0.003517713248282337
3 0.003517713248282337
4 0.003517713248282337
5 0.003517713248282337
6 0.003517713248282337
7 0.003517713248282337
8 0.003517713248282337
9 0.003517713248282337
10 0.003517713248282337
11 0.003517713248282337
12 0.003517713248282337
13 0.003517713248282337
14 0.003517713248282337
15 0.003517713248282337
16 0.003517713248282337
17 0.003517713248282337
18 0.003517713248282337
19 0.003517713248282337
20 0.003517713248282337
21 0.0008489283664454384
22 0.0008489283664454384
23 0.0008489283664454384
24 0.0008489283664454384
25 0.0008489283664454384
26 0.0008489283664454384
$EndElementData
$ElementData
1
"Attribute:ShearAreaZ"
1
0
3
0
1
26
1 0.0012527243562650647
2 0.0012527243562650647
3 0.0012527243562650647
4 0.0012527243562650647
5 0.0012527243562650647
6 0.0012527243562650647
7 0.0012527243562650647
8 0.0012527243562650647
9 0.0012527243562650647
10 0.0012527243562650647
11 0.0012527243562650647
12 0.0012527243562650647
13 0.0012527243562650647
14 0.0012527243562650647
15 0.0012527243562650647
16 0.0012527243562650647
17 0.0012527243562650647
18 0.0012527243562650647
19 0.0012527243562650647
20 0.0012527243562650647
21 0.0003105200387595582
22 0.0003105200387595582
23 0.0003105200387595582
24 0.0003105200387595582
25 0.0003105200387595582
26 0.0003105200387595582
$EndElementData
$ElementData
1
"Attribute:TorsionConstant"
1
0
3
0
1
26
1 2.1558870328571e-05
2 2.1558870328571e-05
3 2.1558870328571e-05
4 2.1558870328571e-05
5 2.1558870328571e-05
6 2.1558870328571e-05
7 2.1558870328571e-05
8 2.1558870328571e-05
9 2.1558870328571e-05
10 2.1558870328571e-05
11 2.1558870328571e-05
12 2.1558870328571e-05
13 2.1558870328571e-05
14 2.1558870328571e-05
15 2.1558870328571e-05
16 2.1558870328571e-05
17 2.1558870328571e-05
18 2.1558870328571e-05
19 2.1558870328571e-05
20 2.1558870328571e-05
21 2.0111989769075784e-06
22 2.0111989769075784e-06
23 2.0111989769075784e-06
24 2.0111989769075784e-06
25 2.0111989769075784e-06
26 2.0111989769075784e-06
$EndElementData
$ElementData
1
"Attribute:UniformLoadGlobalX"
1
0
3
0
1
26
1 0
2 0
3 0
4 0
5 0
6 0
7 0
8 0
9 0
10 0
11 0
12 0
13 0
14 0
15 0
16 0
17 0
18 0
19 0
20 0
21 0
22 0
23 0
24 0
25 0
26 0
$EndElementData
$ElementData
1
"Attribute:UniformLoadGlobalY"
1
0
3
0
1
26
1 0
2 0
3 0
4 -8000
5 -8000
6 -8000
7 -8000
8 -8000
9 -8000
10 -8000
11 0
12 0
13 0
14 -8000
15 -8000
16 -8000
17 -8000
18 -8000
19 -8000
20 -8000
21 0
22 0
23 0
24 0
25 0
26 0
$EndElementData
$ElementData
1
"Attribute:UniformLoadGlobalZ"
1
0
3
0
1
26
1 0
2 0
3 0
4 0
5 0
6 0
7 0
8 0
9 0
10 0
11 0
12 0
13 0
14 0
15 0
16 0
17 0
18 0
19 0
20 0
21 0
22 0
23 0
24 0
25 0
26 0
$EndElementData
$ElementData
1
"Attribute:UniformLoadLocalX"
1
0
3
0
1
26
1 0
2 0
3 0
4 0
5 0
6 0
7 0
8 0
9 0
10 0
11 0
12 0
13 0
14 0
15 0
16 0
17 0
18 0
19 0
20 0
21 0
22 0
23 0
24 0
25 0
26 0
$EndElementData
$ElementData
1
"Attribute:UniformLoadLocalY"
1
0
3
0
1
26
1 0
2 0
3 0
4 0
5 0
6 0
7 0
8 0
9 0
10 0
11 0
12 0
13 0
14 0
15 0
16 0
17 0
18 0
19 0
20 0
21 0
22 0
23 0
24 0
25 0
26 0
$EndElementData
$ElementData
1
"Attribute:UniformLoadLocalZ"
1
0
3
0
1
26
1 0
2 0
3 0
4 0
5 0
6 0
7 0
8 0
9 0
10 0
11 0
12 0
13 0
14 0
15 0
16 0
17 0
18 0
19 0
20 0
21 0
22 0
23 0
24 0
25 0
26 0
$EndElementData
$ElementData
1
"BeamOrientation"
1
0
3
0
3
26
1 0 0 0
2 0 0 0
3 0 0 0
4 0 0 0
5 0 0 0
6 0 0 0
7 0 0 0
8 0 0 0
9 0 0 0
10 0 0 0
11 0 0 0
12 0 0 0
13 0 0 0
14 0 0 0
15 0 0 0
16 0 0 0
17 0 0 0
18 0 0 0
19 0 0 0
20 0 0 0
21 0 0 0
22 0 0 0
23 0 0 0
24 0 0 0
25 0 0 0
26 0 0 0
$EndElementData
$AnafData
1
1
GLOBAL 3 1
"Gravity"
0 -9.80665 0
$EndAnafData
