$MeshFormat
4.1 0 8
$EndMeshFormat
$PhysicalNames
7
1 1 "Material:Structural Steel (AISI 4130)"
1 2 "Section:Tube 19.05x0.89"
1 3 "Section:Tube 22.2x0.89"
1 4 "Section:Tube 25.4x0.89"
1 5 "Section:Tube 25.4x1.24"
1 6 "Section:Tube 31.75x1.24"
1 7 "Section:Tube 38.1x1.24"
$EndPhysicalNames
$Entities
0 6 0 0
1 0.33 0.8 0 0.98 0.86 0 2 1 4 0
2 0.41 0.27 0 1.02 0.71 0 2 1 6 0
3 0.33 0.27 0 0.41 0.8 0 2 1 5 0
4 0.98 0.71 0 1.02 0.86 0 2 1 7 0
5 0 0.34 -0.065 0.33 0.8 0.065 2 1 2 0
6 0 0.27 -0.065 0.41 0.34 0.065 2 1 3 0
$EndEntities
$Nodes
1 6 1 6
1 1 0 6
1
2
3
4
5
6
0.41 0.27 0
0.33 0.8 0
0.98 0.86 0
1.02 0.71 0
0 0.34 -0.065
0 0.34 0.065
$EndNodes
$Elements
6 8 1 8
1 1 1 1
1 2 3
1 2 1 1
2 1 4
1 3 1 1
3 1 2
1 4 1 1
4 4 3
1 5 1 2
5 2 5
7 2 6
1 6 1 2
6 1 5
8 1 6
$EndElements
$NodeData
1
"Displacement"
1
0
3
0
3
6
1 -0.00034390096039955633 -0.00044324786182994716 0.0018201413147903665
2 0.0001548785828967894 -0.00035949009206203265 0.0013039070019202823
3 7.001530894941453e-05 0.0001839912236800237 -0.00020006470069028334
4 -0.0006244259789861944 0 0
5 0 0 0
6 -0.0005649594810225614 0 0
$EndNodeData
$NodeData
1
"Rotation"
1
0
3
0
3
6
1 -0.002084752662084775 -0.0013867753981230062 0.0005641259380201242
2 1.4869951946983105e-05 -0.0002134735800395306 6.505477844535213e-05
3 -0.0020617589676208067 0.002965077754005006 -0.004613559679807584
4 -0.002173838732216667 0.0028373471919040105 -0.004066420285333601
5 -0.0002957863451303776 -0.005472559028214304 -0.0019281114597620305
6 -0.0006437832455611637 -0.005475857657253634 -0.0016042735338137107
$EndNodeData
$ElementData
1
"BeamSectionForce"
1
0
3
0
12
8
1 -743.7171711158128 90.96208735056004 -24.988093708128574 -2.1866760543196597 13.586516074332572 22.49018228247749 -743.4006339034916 94.39124048403934 -24.988093708128574 -2.1866760543196597 -2.724795854985807 -38.00574795456715
2 1027.7545954610675 144.6308015005954 -35.30602393893017 6.892317345112115 26.408912330286775 37.60716555292029 1031.7804379054298 150.2120830711886 -35.30602393893017 6.892317345112115 -0.14581832417625407 -73.27296921857818
3 299.5616814152983 73.87700427059312 -10.591276799578132 1.6968562149968165 8.766636463664126 21.165161228394105 303.40171205589087 74.45663153709765 -10.591276799578132 1.6968562149968165 3.0896725795382487 -18.588529908961622
4 -219.42343374980584 716.5881515845186 -24.98809370812978 2.3193467840013255 6.491989823231606 73.27296921857831 -217.76534229880025 717.0303093047868 -24.98809370812978 2.3193467840013255 2.6127945027164117 -38.005747954566935
5 -944.7691265180201 0.26060527806757827 12.255692781871456 2.672385590989163 -5.414486649606126 1.629891291092198 -946.5671853082051 1.5753013094635313 12.255692781871456 2.672385590989163 1.5693766263068003 1.1067988465087741
6 574.4444661789709 25.97768794398807 37.7643521068332 -2.5573110956284326 -14.2185183516013 10.1249481462043 574.7655450308813 27.881779402961318 37.7643521068332 -2.5573110956284326 1.6795562567879685 -1.2119579898733401
7 -402.12145706164335 2.5216726558456526 14.92767091711313 2.5497096392483454 -6.400492702293599 2.17568943465926 -403.91951585182835 3.8363686872416056 14.92767091711313 2.5497096392483454 2.105987883377562 0.36413572516986703
8 230.87390206054965 14.910439980302465 35.66708557871402 -3.035957016389186 -13.676518917682344 6.433285080197961 231.1949809124601 16.814531439275715 35.66708557871402 -3.035957016389186 1.338646336313893 -0.24451997191373342
$EndElementData
$ElementData
1
"AxialForce"
1
0
3
0
1
8
1 -743.5589025096522
2 1029.7675166832487
3 301.4816967355946
4 -218.59438802430304
5 -945.6681559131126
6 574.6050056049261
7 -403.02048645673585
8 231.03444148650487
$EndElementData
$ElementData
1
"VonMisesStress"
1
0
3
0
1
8
1 105302935.05309732
2 93458065.6219636
3 45809786.843662016
4 62051448.19998799
5 45710152.50744079
6 67719242.87000507
7 40203856.43429485
8 54626130.687430255
$EndElementData
$NodeData
1
"Fixity"
1
0
3
0
3
6
1 0 0 0
2 0 0 0
3 0 0 0
4 0 1 1
5 1 1 1
6 0 1 1
$EndNodeData
$NodeData
1
"NodalForce"
1
0
3
0
3
6
1 0 -1200 150
2 0 -800 0
3 0 0 0
4 0 0 0
5 0 0 0
6 0 0 0
$EndNodeData
$ElementData
1
"CrossSectionArea"
1
0
3
0
1
8
1 6.853038798614242e-05
2 0.00011885398990767053
3 9.411708935330451e-05
4 0.00014359089046203665
5 5.077567710437967e-05
6 5.958313210871866e-05
7 5.077567710437967e-05
8 5.958313210871866e-05
$EndElementData
$ElementData
1
"Attribute:ElementFormulation"
1
0
3
0
1
8
1 1
2 1
3 1
4 1
5 1
6 1
7 1
8 1
$EndElementData
$ElementData
1
"MaterialID"
1
0
3
0
1
8
1 0
2 0
3 0
4 0
5 0
6 0
7 0
8 0
$EndElementData
$ElementData
1
"Attribute:SecondMomentY"
1
0
3
0
1
8
1 5.152904381519726e-09
2 1.3852398353216895e-08
3 6.885173318476729e-09
4 2.4413990893996126e-08
5 2.098163319138562e-09
6 3.388106922242427e-09
7 2.098163319138562e-09
8 3.388106922242427e-09
$EndElementData
$ElementData
1
"Attribute:SecondMomentZ"
1
0
3
0
1
8
1 5.152904381519726e-09
2 1.3852398353216895e-08
3 6.885173318476729e-09
4 2.4413990893996126e-08
5 2.098163319138562e-09
6 3.388106922242427e-09
7 2.098163319138562e-09
8 3.388106922242427e-09
$EndElementData
$ElementData
1
"Attribute:SectionDimension1"
1
0
3
0
1
8
1 0.0254
2 0.03175
3 0.0254
4 0.0381
5 0.01905
6 0.0222
7 0.01905
8 0.0222
$EndElementData
$ElementData
1
"Attribute:SectionDimension2"
1
0
3
0
1
8
1 0.00089
2 0.00124
3 0.00124
4 0.00124
5 0.00089
6 0.00089
7 0.00089
8 0.00089
$EndElementData
$ElementData
1
"Attribute:SectionDimension3"
1
0
3
0
1
8
1 0
2 0
3 0
4 0
5 0
6 0
7 0
8 0
$EndElementData
$ElementData
1
"Attribute:SectionDimension4"
1
0
3
0
1
8
1 0
2 0
3 0
4 0
5 0
6 0
7 0
8 0
$EndElementData
$ElementData
1
"Attribute:SectionDimension5"
1
0
3
0
1
8
1 0
2 0
3 0
4 0
5 0
6 0
7 0
8 0
$EndElementData
$ElementData
1
"Attribute:SectionShape"
1
0
3
0
1
8
1 3
2 3
3 3
4 3
5 3
6 3
7 3
8 3
$EndElementData
$ElementData
1
"Attribute:ShearAreaY"
1
0
3
0
1
8
1 3.638251997176054e-05
2 6.313281182933904e-05
3 5.00716638172669e-05
4 7.620903308826951e-05
5 2.70033762752256e-05
6 3.165402705135591e-05
7 2.70033762752256e-05
8 3.165402705135591e-05
$EndElementData
$ElementData
1
"Attribute:ShearAreaZ"
1
0
3
0
1
8
1 3.638251997176054e-05
2 6.313281182933904e-05
3 5.00716638172669e-05
4 7.620903308826951e-05
5 2.70033762752256e-05
6 3.165402705135591e-05
7 2.70033762752256e-05
8 3.165402705135591e-05
$EndElementData
$ElementData
1
"Attribute:TorsionConstant"
1
0
3
0
1
8
1 1.0305808763039453e-08
2 2.770479670643379e-08
3 1.3770346636953458e-08
4 4.882798178799225e-08
5 4.196326638277124e-09
6 6.776213844484854e-09
7 4.196326638277124e-09
8 6.776213844484854e-09
$EndElementData
$ElementData
1
"Attribute:UniformLoadGlobalX"
1
0
3
0
1
8
1 0
2 0
3 0
4 0
5 0
6 0
7 0
8 0
$EndElementData
$ElementData
1
"Attribute:UniformLoadGlobalY"
1
0
3
0
1
8
1 0
2 0
3 0
4 0
5 0
6 0
7 0
8 0
$EndElementData
$ElementData
1
"Attribute:UniformLoadGlobalZ"
1
0
3
0
1
8
1 0
2 0
3 0
4 0
5 0
6 0
7 0
8 0
$EndElementData
$ElementData
1
"Attribute:UniformLoadLocalX"
1
0
3
0
1
8
1 0
2 0
3 0
4 0
5 0
6 0
7 0
8 0
$EndElementData
$ElementData
1
"Attribute:UniformLoadLocalY"
1
0
3
0
1
8
1 0
2 0
3 0
4 0
5 0
6 0
7 0
8 0
$EndElementData
$ElementData
1
"Attribute:UniformLoadLocalZ"
1
0
3
0
1
8
1 0
2 0
3 0
4 0
5 0
6 0
7 0
8 0
$EndElementData
$ElementData
1
"BeamOrientation"
1
0
3
0
3
8
1 0 0 0
2 0 0 0
3 0 0 0
4 0 0 0
5 0 0 0
6 0 0 0
7 0 0 0
8 0 0 0
$EndElementData
$AnafData
1
1
GLOBAL 3 1
"Gravity"
0 -9.80665 0
$EndAnafData
