$MeshFormat
4.1 0 8
$EndMeshFormat
$PhysicalNames
3
1 1 "Material:Structural Steel (AISI 4130)"
1 2 "Section:Tube 44.45x1.65"
1 3 "Section:Tube 50.8x1.65"
$EndPhysicalNames
$Entities
0 2 0 0
1 1.3 0 -0.7 1.3 1.15 0.7 2 1 3 0
2 0 0 -0.7 2.3 1.15 0.7 2 1 2 0
$EndEntities
$Nodes
1 14 1 14
1 1 0 14
1
2
3
4
5
6
7
8
9
10
11
12
13
14
1.3 0 -0.7
1.3 0.45 -0.7
1.3 1.15 -0.6
0 0 -0.7
0.25 0.45 -0.7
0.65 1.1 -0.6
2.3 0.2 -0.6
1.3 0 0.7
1.3 0.45 0.7
1.3 1.15 0.6
0 0 0.7
0.25 0.45 0.7
0.65 1.1 0.6
2.3 0.2 0.6
$EndNodes
$Elements
2 18 1 18
1 1 1 5
1 1 2
2 2 3
8 8 9
9 9 10
15 3 10
1 2 1 13
3 4 5
4 5 6
5 6 3
6 5 2
7 3 7
10 11 12
11 12 13
12 13 10
13 12 9
14 10 14
16 6 13
17 3 9
18 6 10
$EndElements
$NodeData
1
"Fixity"
1
0
3
0
3
14
1 1 1 1
2 0 0 0
3 0 0 0
4 1 1 1
5 0 0 0
6 0 0 0
7 1 1 1
8 1 1 1
9 0 0 0
10 0 0 0
11 1 1 1
12 0 0 0
13 0 0 0
14 1 1 1
$EndNodeData
$NodeData
1
"FixityRotation"
1
0
3
0
3
14
1 1 1 1
2 0 0 0
3 0 0 0
4 1 1 1
5 0 0 0
6 0 0 0
7 1 1 1
8 1 1 1
9 0 0 0
10 0 0 0
11 1 1 1
12 0 0 0
13 0 0 0
14 1 1 1
$EndNodeData
$NodeData
1
"NodalForce"
1
0
3
0
3
14
1 0 0 0
2 0 0 0
3 0 -37000 0
4 0 0 0
5 0 0 0
6 0 0 0
7 0 0 0
8 0 0 0
9 0 0 0
10 0 -37000 0
11 0 0 0
12 0 0 0
13 0 0 0
14 0 0 0
$EndNodeData
$ElementData
1
"CrossSectionArea"
1
0
3
0
1
18
1 0.00025477531022449816
2 0.00025477531022449816
3 0.00022185927319651094
4 0.00022185927319651094
5 0.00022185927319651094
6 0.00022185927319651094
7 0.00022185927319651094
8 0.00025477531022449816
9 0.00025477531022449816
10 0.00022185927319651094
11 0.00022185927319651094
12 0.00022185927319651094
13 0.00022185927319651094
14 0.00022185927319651094
15 0.00025477531022449816
16 0.00022185927319651094
17 0.00022185927319651094
18 0.00022185927319651094
$EndElementData
$ElementData
1
"Attribute:ElementFormulation"
1
0
3
0
1
18
1 1
2 1
3 1
4 1
5 1
6 1
7 1
8 1
9 1
10 1
11 1
12 1
13 1
14 1
15 1
16 1
17 1
18 1
$EndElementData
$ElementData
1
"MaterialID"
1
0
3
0
1
18
1 0
2 0
3 0
4 0
5 0
6 0
7 0
8 0
9 0
10 0
11 0
12 0
13 0
14 0
15 0
16 0
17 0
18 0
$EndElementData
$ElementData
1
"Attribute:SecondMomentY"
1
0
3
0
1
18
1 7.702000939198577e-08
2 7.702000939198577e-08
3 5.087683786044679e-08
4 5.087683786044679e-08
5 5.087683786044679e-08
6 5.087683786044679e-08
7 5.087683786044679e-08
8 7.702000939198577e-08
9 7.702000939198577e-08
10 5.087683786044679e-08
11 5.087683786044679e-08
12 5.087683786044679e-08
13 5.087683786044679e-08
14 5.087683786044679e-08
15 7.702000939198577e-08
16 5.087683786044679e-08
17 5.087683786044679e-08
18 5.087683786044679e-08
$EndElementData
$ElementData
1
"Attribute:SecondMomentZ"
1
0
3
0
1
18
1 7.702000939198577e-08
2 7.702000939198577e-08
3 5.087683786044679e-08
4 5.087683786044679e-08
5 5.087683786044679e-08
6 5.087683786044679e-08
7 5.087683786044679e-08
8 7.702000939198577e-08
9 7.702000939198577e-08
10 5.087683786044679e-08
11 5.087683786044679e-08
12 5.087683786044679e-08
13 5.087683786044679e-08
14 5.087683786044679e-08
15 7.702000939198577e-08
16 5.087683786044679e-08
17 5.087683786044679e-08
18 5.087683786044679e-08
$EndElementData
$ElementData
1
"Attribute:SectionDimension1"
1
0
3
0
1
18
1 0.0508
2 0.0508
3 0.04445
4 0.04445
5 0.04445
6 0.04445
7 0.04445
8 0.0508
9 0.0508
10 0.04445
11 0.04445
12 0.04445
13 0.04445
14 0.04445
15 0.0508
16 0.04445
17 0.04445
18 0.04445
$EndElementData
$ElementData
1
"Attribute:SectionDimension2"
1
0
3
0
1
18
1 0.00165
2 0.00165
3 0.00165
4 0.00165
5 0.00165
6 0.00165
7 0.00165
8 0.00165
9 0.00165
10 0.00165
11 0.00165
12 0.00165
13 0.00165
14 0.00165
15 0.00165
16 0.00165
17 0.00165
18 0.00165
$EndElementData
$ElementData
1
"Attribute:SectionDimension3"
1
0
3
0
1
18
1 0
2 0
3 0
4 0
5 0
6 0
7 0
8 0
9 0
10 0
11 0
12 0
13 0
14 0
15 0
16 0
17 0
18 0
$EndElementData
$ElementData
1
"Attribute:SectionDimension4"
1
0
3
0
1
18
1 0
2 0
3 0
4 0
5 0
6 0
7 0
8 0
9 0
10 0
11 0
12 0
13 0
14 0
15 0
16 0
17 0
18 0
$EndElementData
$ElementData
1
"Attribute:SectionDimension5"
1
0
3
0
1
18
1 0
2 0
3 0
4 0
5 0
6 0
7 0
8 0
9 0
10 0
11 0
12 0
13 0
14 0
15 0
16 0
17 0
18 0
$EndElementData
$ElementData
1
"Attribute:SectionShape"
1
0
3
0
1
18
1 3
2 3
3 3
4 3
5 3
6 3
7 3
8 3
9 3
10 3
11 3
12 3
13 3
14 3
15 3
16 3
17 3
18 3
$EndElementData
$ElementData
1
"Attribute:ShearAreaY"
1
0
3
0
1
18
1 0.00013521772419358846
2 0.00013521772419358846
3 0.00011781587339518587
4 0.00011781587339518587
5 0.00011781587339518587
6 0.00011781587339518587
7 0.00011781587339518587
8 0.00013521772419358846
9 0.00013521772419358846
10 0.00011781587339518587
11 0.00011781587339518587
12 0.00011781587339518587
13 0.00011781587339518587
14 0.00011781587339518587
15 0.00013521772419358846
16 0.00011781587339518587
17 0.00011781587339518587
18 0.00011781587339518587
$EndElementData
$ElementData
1
"Attribute:ShearAreaZ"
1
0
3
0
1
18
1 0.00013521772419358846
2 0.00013521772419358846
3 0.00011781587339518587
4 0.00011781587339518587
5 0.00011781587339518587
6 0.00011781587339518587
7 0.00011781587339518587
8 0.00013521772419358846
9 0.00013521772419358846
10 0.00011781587339518587
11 0.00011781587339518587
12 0.00011781587339518587
13 0.00011781587339518587
14 0.00011781587339518587
15 0.00013521772419358846
16 0.00011781587339518587
17 0.00011781587339518587
18 0.00011781587339518587
$EndElementData
$ElementData
1
"Attribute:TorsionConstant"
1
0
3
0
1
18
1 1.5404001878397154e-07
2 1.5404001878397154e-07
3 1.0175367572089358e-07
4 1.0175367572089358e-07
5 1.0175367572089358e-07
6 1.0175367572089358e-07
7 1.0175367572089358e-07
8 1.5404001878397154e-07
9 1.5404001878397154e-07
10 1.0175367572089358e-07
11 1.0175367572089358e-07
12 1.0175367572089358e-07
13 1.0175367572089358e-07
14 1.0175367572089358e-07
15 1.5404001878397154e-07
16 1.0175367572089358e-07
17 1.0175367572089358e-07
18 1.0175367572089358e-07
$EndElementData
$ElementData
1
"Attribute:UniformLoadGlobalX"
1
0
3
0
1
18
1 0
2 0
3 0
4 0
5 0
6 0
7 0
8 0
9 0
10 0
11 0
12 0
13 0
14 0
15 0
16 0
17 0
18 0
$EndElementData
$ElementData
1
"Attribute:UniformLoadGlobalY"
1
0
3
0
1
18
1 0
2 0
3 0
4 0
5 0
6 0
7 0
8 0
9 0
10 0
11 0
12 0
13 0
14 0
15 0
16 0
17 0
18 0
$EndElementData
$ElementData
1
"Attribute:UniformLoadGlobalZ"
1
0
3
0
1
18
1 0
2 0
3 0
4 0
5 0
6 0
7 0
8 0
9 0
10 0
11 0
12 0
13 0
14 0
15 0
16 0
17 0
18 0
$EndElementData
$ElementData
1
"Attribute:UniformLoadLocalX"
1
0
3
0
1
18
1 0
2 0
3 0
4 0
5 0
6 0
7 0
8 0
9 0
10 0
11 0
12 0
13 0
14 0
15 0
16 0
17 0
18 0
$EndElementData
$ElementData
1
"Attribute:UniformLoadLocalY"
1
0
3
0
1
18
1 0
2 0
3 0
4 0
5 0
6 0
7 0
8 0
9 0
10 0
11 0
12 0
13 0
14 0
15 0
16 0
17 0
18 0
$EndElementData
$ElementData
1
"Attribute:UniformLoadLocalZ"
1
0
3
0
1
18
1 0
2 0
3 0
4 0
5 0
6 0
7 0
8 0
9 0
10 0
11 0
12 0
13 0
14 0
15 0
16 0
17 0
18 0
$EndElementData
$ElementData
1
"BeamOrientation"
1
0
3
0
3
18
1 0 0 0
2 0 0 0
3 0 0 0
4 0 0 0
5 0 0 0
6 0 0 0
7 0 0 0
8 0 0 0
9 0 0 0
10 0 0 0
11 0 0 0
12 0 0 0
13 0 0 0
14 0 0 0
15 0 0 0
16 0 0 0
17 0 0 0
18 0 0 0
$EndElementData
$AnafData
1
1
GLOBAL 3 1
"Gravity"
0 -9.80665 0
$EndAnafData
