$MeshFormat
4.1 0 8
$EndMeshFormat
$PhysicalNames
1
1 1 "Material:Aluminum 7075-T6"
$EndPhysicalNames
$Entities
0 1 0 0
1 -1.1212924306420051 -1.4850408113066735 -17 7.7946148723249795 1.4373299528888601 17 1 1 0
$EndEntities
$Nodes
1 222 1 222
1 1 0 222
1
2
3
4
5
6
7
8
9
10
11
12
13
14
15
16
17
18
19
20
21
22
23
24
25
26
27
28
29
30
31
32
33
34
35
36
37
38
39
40
41
42
43
44
45
46
47
48
49
50
51
52
53
54
55
56
57
58
59
60
61
62
63
64
65
66
67
68
69
70
71
72
73
74
75
76
77
78
79
80
81
82
83
84
85
86
87
88
89
90
91
92
93
94
95
96
97
98
99
100
101
102
103
104
105
106
107
108
109
110
111
112
113
114
115
116
117
118
119
120
121
122
123
124
125
126
127
128
129
130
131
132
133
134
135
136
137
138
139
140
141
142
143
144
145
146
147
148
149
150
151
152
153
154
155
156
157
158
159
160
161
162
163
164
165
166
167
168
169
170
171
172
173
174
175
176
177
178
179
180
181
182
183
184
185
186
187
188
189
190
191
192
193
194
195
196
197
198
199
200
201
202
203
204
205
206
207
208
209
210
211
212
213
214
215
216
217
218
219
220
221
222
6.994614872324979 1.1873299528888601 -17
6.994614872324979 1.4373299528888601 -17
7.7946148723249795 1.39982995288886 -17
7.7946148723249795 1.2248299528888602 -17
6.714830277431979 1.1228367547733056 -16.4
6.714830277431979 1.3968367547733056 -16.4
7.61083027743198 1.3557367547733057 -16.4
7.61083027743198 1.1639367547733055 -16.4
6.435045682538981 1.0583435566577513 -15.8
6.435045682538981 1.3563435566577513 -15.8
7.427045682538981 1.3116435566577513 -15.8
7.427045682538981 1.1030435566577512 -15.8
6.155261087645981 0.9938503585421967 -15.2
6.155261087645981 1.3158503585421968 -15.2
7.243261087645981 1.2675503585421968 -15.2
7.243261087645981 1.0421503585421967 -15.2
5.875476492752982 0.9293571604266424 -14.6
5.875476492752982 1.2753571604266425 -14.6
7.0594764927529825 1.2234571604266424 -14.6
7.0594764927529825 0.9812571604266425 -14.6
5.595691897859983 0.8648639623110881 -14
5.595691897859983 1.2348639623110882 -14
6.8756918978599835 1.179363962311088 -14
6.8756918978599835 0.9203639623110882 -14
5.315907302966984 0.8003707641955338 -13.4
5.315907302966984 1.1943707641955337 -13.4
6.691907302966984 1.1352707641955337 -13.4
6.691907302966984 0.8594707641955337 -13.4
5.036122708073985 0.7358775660799793 -12.8
5.036122708073985 1.1538775660799794 -12.8
6.508122708073985 1.0911775660799792 -12.8
6.508122708073985 0.7985775660799793 -12.8
4.756338113180985 0.6713843679644248 -12.2
4.756338113180985 1.1133843679644249 -12.2
6.3243381131809855 1.0470843679644248 -12.2
6.3243381131809855 0.7376843679644247 -12.2
4.476553518287987 0.6068911698488706 -11.600000000000001
4.476553518287987 1.0728911698488706 -11.600000000000001
6.1405535182879865 1.0029911698488705 -11.600000000000001
6.1405535182879865 0.6767911698488707 -11.600000000000001
4.196768923394988 0.542397971733316 -11
4.196768923394988 1.032397971733316 -11
5.956768923394987 0.958897971733316 -11
5.956768923394987 0.6158979717333161 -11
3.916984328501988 0.47790477361776174 -10.4
3.916984328501988 0.9919047736177617 -10.4
5.772984328501988 0.9148047736177618 -10.4
5.772984328501988 0.5550047736177617 -10.4
3.6371997336089894 0.4134115755022073 -9.8
3.6371997336089894 0.9514115755022073 -9.8
5.589199733608989 0.8707115755022073 -9.8
5.589199733608989 0.4941115755022073 -9.8
3.3574151387159894 0.34891837738665277 -9.2
3.3574151387159894 0.9109183773866528 -9.2
5.405415138715989 0.8266183773866528 -9.2
5.405415138715989 0.4332183773866528 -9.2
3.0776305438229903 0.2844251792710984 -8.6
3.0776305438229903 0.8704251792710984 -8.6
5.22163054382299 0.7825251792710983 -8.6
5.22163054382299 0.3723251792710984 -8.6
2.7978459489299916 0.21993198115554408 -8
2.7978459489299916 0.8299319811555441 -8
5.037845948929991 0.7384319811555441 -8
5.037845948929991 0.31143198115554405 -8
2.5180613540369925 0.1554387830399897 -7.4
2.5180613540369925 0.7894387830399896 -7.4
4.854061354036993 0.6943387830399896 -7.4
4.854061354036993 0.25053878303998967 -7.4
2.2382767591439934 0.09094558492443533 -6.800000000000001
2.2382767591439934 0.7489455849244353 -6.800000000000001
4.670276759143993 0.6502455849244353 -6.800000000000001
4.670276759143993 0.18964558492443534 -6.800000000000001
1.9584921642509945 0.026452386808880957 -6.200000000000001
1.9584921642509945 0.7084523868088809 -6.200000000000001
4.486492164250994 0.606152386808881 -6.200000000000001
4.486492164250994 0.12875238680888096 -6.200000000000001
1.6787075693579947 -0.03804081130667358 -5.6
1.6787075693579947 0.6679591886933264 -5.6
4.302707569357995 0.5620591886933264 -5.6
4.302707569357995 0.06785918869332644 -5.6
1.3989229744649958 -0.10253400942222796 -5
1.3989229744649958 0.627465990577772 -5
4.118922974464996 0.517965990577772 -5
4.118922974464996 0.00696599057777203 -5
1.1191383795719967 -0.16702720753778236 -4.4
1.1191383795719967 0.5869727924622177 -4.4
3.935138379571997 0.4738727924622176 -4.4
3.935138379571997 -0.05392720753778232 -4.4
0.8393537846789978 -0.23152040565333667 -3.8000000000000007
0.8393537846789978 0.5464795943466633 -3.8000000000000007
3.7513537846789977 0.42977959434666324 -3.8000000000000007
3.7513537846789977 -0.11482040565333665 -3.8000000000000007
0.5595691897859988 -0.2960136037688911 -3.200000000000001
0.5595691897859988 0.5059863962311089 -3.200000000000001
3.5675691897859987 0.38568639623110884 -3.200000000000001
3.5675691897859987 -0.17571360376889106 -3.200000000000001
0.27978459489299984 -0.36050680188444545 -2.6000000000000014
0.27978459489299984 0.4654931981155545 -2.6000000000000014
3.383784594893 0.3415931981155545 -2.6000000000000014
3.383784594893 -0.23660680188444544 -2.6000000000000014
0 -0.425 -2
0 0.425 -2
3.2 0.2975 -2
3.2 -0.2975 -2
0 -0.425 -1
0 0.425 -1
3.2 0.2975 -1
3.2 -0.2975 -1
0 -0.425 0
0 0.425 0
3.2 0.2975 0
3.2 -0.2975 0
0 -0.425 1
0 0.425 1
3.2 0.2975 1
3.2 -0.2975 1
0 -0.425 2
0 0.425 2
3.2 0.2975 2
3.2 -0.2975 2
0.27978459489299917 -0.36050680188444556 2.6
0.27978459489299917 0.4654931981155544 2.6
3.383784594892999 0.3415931981155544 2.6
3.383784594892999 -0.23660680188444555 2.6
0.5595691897859983 -0.29601360376889113 3.2
0.5595691897859983 0.5059863962311087 3.2
3.5675691897859982 0.3856863962311088 3.2
3.5675691897859982 -0.1757136037688911 3.2
0.8393537846789973 -0.2315204056533368 3.8
0.8393537846789973 0.5464795943466632 3.8
3.7513537846789977 0.4297795943466632 3.8
3.7513537846789977 -0.11482040565333679 3.8
1.1191383795719967 -0.16702720753778236 4.4
1.1191383795719967 0.5869727924622177 4.4
3.935138379571997 0.4738727924622176 4.4
3.935138379571997 -0.05392720753778232 4.4
1.3989229744649958 -0.10253400942222796 5
1.3989229744649958 0.627465990577772 5
4.118922974464996 0.517965990577772 5
4.118922974464996 0.00696599057777203 5
1.6787075693579947 -0.03804081130667358 5.6
1.6787075693579947 0.6679591886933264 5.6
4.302707569357995 0.5620591886933264 5.6
4.302707569357995 0.06785918869332644 5.6
1.958492164250994 0.0264523868088809 6.2
1.958492164250994 0.7084523868088808 6.2
4.486492164250994 0.6061523868088808 6.2
4.486492164250994 0.1287523868088809 6.2
2.238276759143993 0.09094558492443527 6.8
2.238276759143993 0.7489455849244352 6.8
4.670276759143993 0.6502455849244352 6.8
4.670276759143993 0.18964558492443528 6.8
2.518061354036992 0.1554387830399896 7.3999999999999995
2.518061354036992 0.7894387830399896 7.3999999999999995
4.854061354036992 0.6943387830399896 7.3999999999999995
4.854061354036992 0.2505387830399896 7.3999999999999995
2.7978459489299916 0.21993198115554408 8
2.7978459489299916 0.8299319811555441 8
5.037845948929991 0.7384319811555441 8
5.037845948929991 0.31143198115554405 8
3.0776305438229903 0.2844251792710984 8.6
3.0776305438229903 0.8704251792710984 8.6
5.22163054382299 0.7825251792710983 8.6
5.22163054382299 0.3723251792710984 8.6
3.3574151387159894 0.34891837738665277 9.2
3.3574151387159894 0.9109183773866528 9.2
5.405415138715989 0.8266183773866528 9.2
5.405415138715989 0.4332183773866528 9.2
3.6371997336089894 0.4134115755022073 9.8
3.6371997336089894 0.9514115755022073 9.8
5.589199733608989 0.8707115755022073 9.8
5.589199733608989 0.4941115755022073 9.8
3.916984328501988 0.47790477361776174 10.4
3.916984328501988 0.9919047736177617 10.4
5.772984328501988 0.9148047736177618 10.4
5.772984328501988 0.5550047736177617 10.4
4.196768923394988 0.542397971733316 11
4.196768923394988 1.032397971733316 11
5.956768923394987 0.958897971733316 11
5.956768923394987 0.6158979717333161 11
4.476553518287986 0.6068911698488705 11.6
4.476553518287986 1.0728911698488703 11.6
6.140553518287986 1.0029911698488705 11.6
6.140553518287986 0.6767911698488704 11.6
4.756338113180985 0.6713843679644248 12.2
4.756338113180985 1.1133843679644249 12.2
6.3243381131809855 1.0470843679644248 12.2
6.3243381131809855 0.7376843679644247 12.2
5.036122708073984 0.7358775660799792 12.799999999999999
5.036122708073984 1.1538775660799792 12.799999999999999
6.5081227080739845 1.0911775660799792 12.799999999999999
6.5081227080739845 0.7985775660799792 12.799999999999999
5.315907302966984 0.8003707641955338 13.4
5.315907302966984 1.1943707641955337 13.4
6.691907302966984 1.1352707641955337 13.4
6.691907302966984 0.8594707641955337 13.4
5.595691897859983 0.8648639623110881 14
5.595691897859983 1.2348639623110882 14
6.8756918978599835 1.179363962311088 14
6.8756918978599835 0.9203639623110882 14
5.875476492752982 0.9293571604266424 14.6
5.875476492752982 1.2753571604266425 14.6
7.0594764927529825 1.2234571604266424 14.6
7.0594764927529825 0.9812571604266425 14.6
6.155261087645981 0.9938503585421967 15.2
6.155261087645981 1.3158503585421968 15.2
7.243261087645981 1.2675503585421968 15.2
7.243261087645981 1.0421503585421967 15.2
6.43504568253898 1.0583435566577513 15.799999999999999
6.43504568253898 1.3563435566577513 15.799999999999999
7.42704568253898 1.3116435566577513 15.799999999999999
7.42704568253898 1.1030435566577512 15.799999999999999
6.714830277431979 1.1228367547733056 16.4
6.714830277431979 1.3968367547733056 16.4
7.61083027743198 1.3557367547733057 16.4
7.61083027743198 1.1639367547733055 16.4
6.994614872324979 1.1873299528888601 17
6.994614872324979 1.4373299528888601 17
7.7946148723249795 1.39982995288886 17
7.7946148723249795 1.2248299528888602 17
-1.1212924306420051 -1.4850408113066735 -5.6
-1.1212924306420051 -1.4850408113066735 5.6
$EndNodes
$Elements
1 831 1 831
1 1 1 831
1 1 2
2 1 3
3 1 4
4 1 5
5 1 6
6 1 8
7 2 3
8 2 6
9 2 7
10 3 4
11 3 6
12 3 7
13 3 8
14 4 5
15 4 8
16 5 6
17 5 7
18 5 8
19 5 9
20 5 12
21 6 7
22 6 9
23 6 10
24 6 11
25 7 8
26 7 10
27 7 11
28 8 9
29 8 11
30 8 12
31 9 10
32 9 11
33 9 12
34 9 13
35 9 14
36 9 16
37 10 11
38 10 14
39 10 15
40 11 12
41 11 14
42 11 15
43 11 16
44 12 13
45 12 16
46 13 14
47 13 15
48 13 16
49 13 17
50 13 20
51 14 15
52 14 17
53 14 18
54 14 19
55 15 16
56 15 18
57 15 19
58 16 17
59 16 19
60 16 20
61 17 18
62 17 19
63 17 20
64 17 21
65 17 22
66 17 24
67 18 19
68 18 22
69 18 23
70 19 20
71 19 22
72 19 23
73 19 24
74 20 21
75 20 24
76 21 22
77 21 23
78 21 24
79 21 25
80 21 28
81 22 23
82 22 25
83 22 26
84 22 27
85 23 24
86 23 26
87 23 27
88 24 25
89 24 27
90 24 28
91 25 26
92 25 27
93 25 28
94 25 29
95 25 30
96 25 32
97 26 27
98 26 30
99 26 31
100 27 28
101 27 30
102 27 31
103 27 32
104 28 29
105 28 32
106 29 30
107 29 31
108 29 32
109 29 33
110 29 36
111 30 31
112 30 33
113 30 34
114 30 35
115 31 32
116 31 34
117 31 35
118 32 33
119 32 35
120 32 36
121 33 34
122 33 35
123 33 36
124 33 37
125 33 38
126 33 40
127 34 35
128 34 38
129 34 39
130 35 36
131 35 38
132 35 39
133 35 40
134 36 37
135 36 40
136 37 38
137 37 39
138 37 40
139 37 41
140 37 44
141 38 39
142 38 41
143 38 42
144 38 43
145 39 40
146 39 42
147 39 43
148 40 41
149 40 43
150 40 44
151 41 42
152 41 43
153 41 44
154 41 45
155 41 46
156 41 48
157 42 43
158 42 46
159 42 47
160 43 44
161 43 46
162 43 47
163 43 48
164 44 45
165 44 48
166 45 46
167 45 47
168 45 48
169 45 49
170 45 52
171 46 47
172 46 49
173 46 50
174 46 51
175 47 48
176 47 50
177 47 51
178 48 49
179 48 51
180 48 52
181 49 50
182 49 51
183 49 52
184 49 53
185 49 54
186 49 56
187 50 51
188 50 54
189 50 55
190 51 52
191 51 54
192 51 55
193 51 56
194 52 53
195 52 56
196 53 54
197 53 55
198 53 56
199 53 57
200 53 60
201 54 55
202 54 57
203 54 58
204 54 59
205 55 56
206 55 58
207 55 59
208 56 57
209 56 59
210 56 60
211 57 58
212 57 59
213 57 60
214 57 61
215 57 62
216 57 64
217 58 59
218 58 62
219 58 63
220 59 60
221 59 62
222 59 63
223 59 64
224 60 61
225 60 64
226 61 62
227 61 63
228 61 64
229 61 65
230 61 68
231 62 63
232 62 65
233 62 66
234 62 67
235 63 64
236 63 66
237 63 67
238 64 65
239 64 67
240 64 68
241 65 66
242 65 67
243 65 68
244 65 69
245 65 70
246 65 72
247 66 67
248 66 70
249 66 71
250 67 68
251 67 70
252 67 71
253 67 72
254 68 69
255 68 72
256 69 70
257 69 71
258 69 72
259 69 73
260 69 76
261 70 71
262 70 73
263 70 74
264 70 75
265 71 72
266 71 74
267 71 75
268 72 73
269 72 75
270 72 76
271 73 74
272 73 75
273 73 76
274 73 77
275 73 78
276 73 80
277 73 221
278 74 75
279 74 78
280 74 79
281 74 221
282 75 76
283 75 78
284 75 79
285 75 80
286 75 221
287 76 77
288 76 80
289 76 221
290 77 78
291 77 79
292 77 80
293 77 81
294 77 84
295 77 221
296 78 79
297 78 81
298 78 82
299 78 83
300 78 221
301 79 80
302 79 82
303 79 83
304 79 221
305 80 81
306 80 83
307 80 84
308 80 221
309 81 82
310 81 83
311 81 84
312 81 85
313 81 86
314 81 88
315 82 83
316 82 86
317 82 87
318 83 84
319 83 86
320 83 87
321 83 88
322 84 85
323 84 88
324 85 86
325 85 87
326 85 88
327 85 89
328 85 92
329 86 87
330 86 89
331 86 90
332 86 91
333 87 88
334 87 90
335 87 91
336 88 89
337 88 91
338 88 92
339 89 90
340 89 91
341 89 92
342 89 93
343 89 94
344 89 96
345 90 91
346 90 94
347 90 95
348 91 92
349 91 94
350 91 95
351 91 96
352 92 93
353 92 96
354 93 94
355 93 95
356 93 96
357 93 97
358 93 100
359 94 95
360 94 97
361 94 98
362 94 99
363 95 96
364 95 98
365 95 99
366 96 97
367 96 99
368 96 100
369 97 98
370 97 99
371 97 100
372 97 101
373 97 102
374 97 104
375 98 99
376 98 102
377 98 103
378 99 100
379 99 102
380 99 103
381 99 104
382 100 101
383 100 104
384 101 102
385 101 103
386 101 104
387 101 105
388 101 108
389 102 103
390 102 105
391 102 106
392 102 107
393 103 104
394 103 106
395 103 107
396 104 105
397 104 107
398 104 108
399 105 106
400 105 107
401 105 108
402 105 109
403 105 110
404 105 112
405 106 107
406 106 110
407 106 111
408 107 108
409 107 110
410 107 111
411 107 112
412 108 109
413 108 112
414 109 110
415 109 111
416 109 112
417 109 113
418 109 116
419 110 111
420 110 113
421 110 114
422 110 115
423 111 112
424 111 114
425 111 115
426 112 113
427 112 115
428 112 116
429 113 114
430 113 115
431 113 116
432 113 117
433 113 118
434 113 120
435 114 115
436 114 118
437 114 119
438 115 116
439 115 118
440 115 119
441 115 120
442 116 117
443 116 120
444 117 118
445 117 119
446 117 120
447 117 121
448 117 124
449 118 119
450 118 121
451 118 122
452 118 123
453 119 120
454 119 122
455 119 123
456 120 121
457 120 123
458 120 124
459 121 122
460 121 123
461 121 124
462 121 125
463 121 126
464 121 128
465 122 123
466 122 126
467 122 127
468 123 124
469 123 126
470 123 127
471 123 128
472 124 125
473 124 128
474 125 126
475 125 127
476 125 128
477 125 129
478 125 132
479 126 127
480 126 129
481 126 130
482 126 131
483 127 128
484 127 130
485 127 131
486 128 129
487 128 131
488 128 132
489 129 130
490 129 131
491 129 132
492 129 133
493 129 134
494 129 136
495 130 131
496 130 134
497 130 135
498 131 132
499 131 134
500 131 135
501 131 136
502 132 133
503 132 136
504 133 134
505 133 135
506 133 136
507 133 137
508 133 140
509 134 135
510 134 137
511 134 138
512 134 139
513 135 136
514 135 138
515 135 139
516 136 137
517 136 139
518 136 140
519 137 138
520 137 139
521 137 140
522 137 141
523 137 142
524 137 144
525 138 139
526 138 142
527 138 143
528 139 140
529 139 142
530 139 143
531 139 144
532 140 141
533 140 144
534 141 142
535 141 143
536 141 144
537 141 145
538 141 148
539 141 222
540 142 143
541 142 145
542 142 146
543 142 147
544 142 222
545 143 144
546 143 146
547 143 147
548 143 222
549 144 145
550 144 147
551 144 148
552 144 222
553 145 146
554 145 147
555 145 148
556 145 149
557 145 150
558 145 152
559 145 222
560 146 147
561 146 150
562 146 151
563 146 222
564 147 148
565 147 150
566 147 151
567 147 152
568 147 222
569 148 149
570 148 152
571 148 222
572 149 150
573 149 151
574 149 152
575 149 153
576 149 156
577 150 151
578 150 153
579 150 154
580 150 155
581 151 152
582 151 154
583 151 155
584 152 153
585 152 155
586 152 156
587 153 154
588 153 155
589 153 156
590 153 157
591 153 158
592 153 160
593 154 155
594 154 158
595 154 159
596 155 156
597 155 158
598 155 159
599 155 160
600 156 157
601 156 160
602 157 158
603 157 159
604 157 160
605 157 161
606 157 164
607 158 159
608 158 161
609 158 162
610 158 163
611 159 160
612 159 162
613 159 163
614 160 161
615 160 163
616 160 164
617 161 162
618 161 163
619 161 164
620 161 165
621 161 166
622 161 168
623 162 163
624 162 166
625 162 167
626 163 164
627 163 166
628 163 167
629 163 168
630 164 165
631 164 168
632 165 166
633 165 167
634 165 168
635 165 169
636 165 172
637 166 167
638 166 169
639 166 170
640 166 171
641 167 168
642 167 170
643 167 171
644 168 169
645 168 171
646 168 172
647 169 170
648 169 171
649 169 172
650 169 173
651 169 174
652 169 176
653 170 171
654 170 174
655 170 175
656 171 172
657 171 174
658 171 175
659 171 176
660 172 173
661 172 176
662 173 174
663 173 175
664 173 176
665 173 177
666 173 180
667 174 175
668 174 177
669 174 178
670 174 179
671 175 176
672 175 178
673 175 179
674 176 177
675 176 179
676 176 180
677 177 178
678 177 179
679 177 180
680 177 181
681 177 182
682 177 184
683 178 179
684 178 182
685 178 183
686 179 180
687 179 182
688 179 183
689 179 184
690 180 181
691 180 184
692 181 182
693 181 183
694 181 184
695 181 185
696 181 188
697 182 183
698 182 185
699 182 186
700 182 187
701 183 184
702 183 186
703 183 187
704 184 185
705 184 187
706 184 188
707 185 186
708 185 187
709 185 188
710 185 189
711 185 190
712 185 192
713 186 187
714 186 190
715 186 191
716 187 188
717 187 190
718 187 191
719 187 192
720 188 189
721 188 192
722 189 190
723 189 191
724 189 192
725 189 193
726 189 196
727 190 191
728 190 193
729 190 194
730 190 195
731 191 192
732 191 194
733 191 195
734 192 193
735 192 195
736 192 196
737 193 194
738 193 195
739 193 196
740 193 197
741 193 198
742 193 200
743 194 195
744 194 198
745 194 199
746 195 196
747 195 198
748 195 199
749 195 200
750 196 197
751 196 200
752 197 198
753 197 199
754 197 200
755 197 201
756 197 204
757 198 199
758 198 201
759 198 202
760 198 203
761 199 200
762 199 202
763 199 203
764 200 201
765 200 203
766 200 204
767 201 202
768 201 203
769 201 204
770 201 205
771 201 206
772 201 208
773 202 203
774 202 206
775 202 207
776 203 204
777 203 206
778 203 207
779 203 208
780 204 205
781 204 208
782 205 206
783 205 207
784 205 208
785 205 209
786 205 212
787 206 207
788 206 209
789 206 210
790 206 211
791 207 208
792 207 210
793 207 211
794 208 209
795 208 211
796 208 212
797 209 210
798 209 211
799 209 212
800 209 213
801 209 214
802 209 216
803 210 211
804 210 214
805 210 215
806 211 212
807 211 214
808 211 215
809 211 216
810 212 213
811 212 216
812 213 214
813 213 215
814 213 216
815 213 217
816 213 220
817 214 215
818 214 217
819 214 218
820 214 219
821 215 216
822 215 218
823 215 219
824 216 217
825 216 219
826 216 220
827 217 218
828 217 219
829 217 220
830 218 219
831 219 220
$EndElements
$NodeData
1
"Fixity"
1
0
3
0
3
222
1 0 0 0
2 0 0 0
3 0 0 0
4 0 0 0
5 0 0 0
6 0 0 0
7 0 0 0
8 0 0 0
9 0 0 0
10 0 0 0
11 0 0 0
12 0 0 0
13 0 0 0
14 0 0 0
15 0 0 0
16 0 0 0
17 0 0 0
18 0 0 0
19 0 0 0
20 0 0 0
21 0 0 0
22 0 0 0
23 0 0 0
24 0 0 0
25 0 0 0
26 0 0 0
27 0 0 0
28 0 0 0
29 0 0 0
30 0 0 0
31 0 0 0
32 0 0 0
33 0 0 0
34 0 0 0
35 0 0 0
36 0 0 0
37 0 0 0
38 0 0 0
39 0 0 0
40 0 0 0
41 0 0 0
42 0 0 0
43 0 0 0
44 0 0 0
45 0 0 0
46 0 0 0
47 0 0 0
48 0 0 0
49 0 0 0
50 0 0 0
51 0 0 0
52 0 0 0
53 0 0 0
54 0 0 0
55 0 0 0
56 0 0 0
57 0 0 0
58 0 0 0
59 0 0 0
60 0 0 0
61 0 0 0
62 0 0 0
63 0 0 0
64 0 0 0
65 0 0 0
66 0 0 0
67 0 0 0
68 0 0 0
69 0 0 0
70 0 0 0
71 0 0 0
72 0 0 0
73 0 0 0
74 0 0 0
75 0 0 0
76 0 0 0
77 0 0 0
78 0 0 0
79 0 0 0
80 0 0 0
81 0 0 0
82 0 0 0
83 0 0 0
84 0 0 0
85 0 0 0
86 0 0 0
87 0 0 0
88 0 0 0
89 0 0 0
90 0 0 0
91 0 0 0
92 0 0 0
93 0 0 0
94 0 0 0
95 0 0 0
96 0 0 0
97 0 0 0
98 0 0 0
99 0 0 0
100 0 0 0
101 1 1 1
102 1 1 1
103 1 1 1
104 1 1 1
105 0 0 0
106 0 0 0
107 0 0 0
108 0 0 0
109 0 0 0
110 0 0 0
111 0 0 0
112 0 0 0
113 0 0 0
114 0 0 0
115 0 0 0
116 0 0 0
117 1 1 1
118 1 1 1
119 1 1 1
120 1 1 1
121 0 0 0
122 0 0 0
123 0 0 0
124 0 0 0
125 0 0 0
126 0 0 0
127 0 0 0
128 0 0 0
129 0 0 0
130 0 0 0
131 0 0 0
132 0 0 0
133 0 0 0
134 0 0 0
135 0 0 0
136 0 0 0
137 0 0 0
138 0 0 0
139 0 0 0
140 0 0 0
141 0 0 0
142 0 0 0
143 0 0 0
144 0 0 0
145 0 0 0
146 0 0 0
147 0 0 0
148 0 0 0
149 0 0 0
150 0 0 0
151 0 0 0
152 0 0 0
153 0 0 0
154 0 0 0
155 0 0 0
156 0 0 0
157 0 0 0
158 0 0 0
159 0 0 0
160 0 0 0
161 0 0 0
162 0 0 0
163 0 0 0
164 0 0 0
165 0 0 0
166 0 0 0
167 0 0 0
168 0 0 0
169 0 0 0
170 0 0 0
171 0 0 0
172 0 0 0
173 0 0 0
174 0 0 0
175 0 0 0
176 0 0 0
177 0 0 0
178 0 0 0
179 0 0 0
180 0 0 0
181 0 0 0
182 0 0 0
183 0 0 0
184 0 0 0
185 0 0 0
186 0 0 0
187 0 0 0
188 0 0 0
189 0 0 0
190 0 0 0
191 0 0 0
192 0 0 0
193 0 0 0
194 0 0 0
195 0 0 0
196 0 0 0
197 0 0 0
198 0 0 0
199 0 0 0
200 0 0 0
201 0 0 0
202 0 0 0
203 0 0 0
204 0 0 0
205 0 0 0
206 0 0 0
207 0 0 0
208 0 0 0
209 0 0 0
210 0 0 0
211 0 0 0
212 0 0 0
213 0 0 0
214 0 0 0
215 0 0 0
216 0 0 0
217 0 0 0
218 0 0 0
219 0 0 0
220 0 0 0
221 0 0 0
222 0 0 0
$EndNodeData
$NodeData
1
"NodalForce"
1
0
3
0
3
222
1 0 0 0
2 0 1055.882695322083 0
3 0 703.9217968813888 0
4 0 0 0
5 0 0 0
6 0 3940.0586378775174 0
7 0 2626.705758585012 0
8 0 0 0
9 0 0 0
10 0 4789.159182021598 0
11 0 3192.772788014399 0
12 0 0 0
13 0 0 0
14 0 5470.11243600116 0
15 0 3646.7416240007733 0
16 0 0 0
17 0 0 0
18 0 6061.101727209109 0
19 0 4040.7344848060734 0
20 0 0 0
21 0 0 0
22 0 6592.674072220737 0
23 0 4395.116048147159 0
24 0 0 0
25 0 0 0
26 0 7080.608865455579 0
27 0 4720.40591030372 0
28 0 0 0
29 0 0 0
30 0 7534.334689547094 0
31 0 5022.889793031397 0
32 0 0 0
33 0 0 0
34 0 7960.021770580024 0
35 0 5306.681180386684 0
36 0 0 0
37 0 0 0
38 0 8361.967674447325 0
39 0 5574.6451162982175 0
40 0 0 0
41 0 0 0
42 0 8743.303976502224 0
43 0 5828.86931766815 0
44 0 0 0
45 0 0 0
46 0 9106.391373648303 0
47 0 6070.927582432203 0
48 0 0 0
49 0 -2263.0730769230768 0
50 0 9453.056399011126 0
51 0 6302.037599340751 0
52 0 -2263.0730769230768 0
53 0 -2263.0730769230768 0
54 0 9784.74108010726 0
55 0 6523.160720071508 0
56 0 -2263.0730769230768 0
57 0 -2263.0730769230768 0
58 0 10102.601714604429 0
59 0 6735.067809736287 0
60 0 -2263.0730769230768 0
61 0 -2263.0730769230768 0
62 0 10407.57638119793 0
63 0 6938.384254131954 0
64 0 -2263.0730769230768 0
65 0 -2263.0730769230768 0
66 0 10700.43242146741 0
67 0 7133.621614311608 0
68 0 -2263.0730769230768 0
69 0 -2263.0730769230768 0
70 0 10981.800625613558 0
71 0 7321.200417075705 0
72 0 -2263.0730769230768 0
73 0 -2263.0730769230768 0
74 0 11252.200312434567 0
75 0 7501.466874956378 0
76 0 -2263.0730769230768 0
77 0 -2263.0730769230768 0
78 0 11512.057996025176 0
79 0 7674.705330683451 0
80 0 -2263.0730769230768 0
81 0 -2263.0730769230768 0
82 0 11761.721415989578 0
83 0 7841.147610659718 0
84 0 -2263.0730769230768 0
85 0 -2263.0730769230768 0
86 0 12001.470129366631 0
87 0 8000.980086244422 0
88 0 -2263.0730769230768 0
89 0 -2263.0730769230768 0
90 0 12231.52348551564 0
91 0 8154.34899034376 0
92 0 -2263.0730769230768 0
93 0 -2263.0730769230768 0
94 0 12452.046552179581 0
95 0 8301.36436811972 0
96 0 -2263.0730769230768 0
97 0 -2263.0730769230768 0
98 0 12663.154385654325 0
99 0 8442.102923769551 0
100 0 -2263.0730769230768 0
101 0 0 0
102 0 0 0
103 0 0 0
104 0 0 0
105 0 0 0
106 0 0 0
107 0 0 0
108 0 0 0
109 0 0 0
110 0 0 0
111 0 0 0
112 0 0 0
113 0 0 0
114 0 0 0
115 0 0 0
116 0 0 0
117 0 0 0
118 0 0 0
119 0 0 0
120 0 0 0
121 0 -2263.0730769230768 0
122 0 12663.154385654325 0
123 0 8442.102923769551 0
124 0 -2263.0730769230768 0
125 0 -2263.0730769230768 0
126 0 12452.046552179581 0
127 0 8301.36436811972 0
128 0 -2263.0730769230768 0
129 0 -2263.0730769230768 0
130 0 12231.52348551564 0
131 0 8154.34899034376 0
132 0 -2263.0730769230768 0
133 0 -2263.0730769230768 0
134 0 12001.470129366631 0
135 0 8000.980086244422 0
136 0 -2263.0730769230768 0
137 0 -2263.0730769230768 0
138 0 11761.721415989578 0
139 0 7841.147610659718 0
140 0 -2263.0730769230768 0
141 0 -2263.0730769230768 0
142 0 11512.057996025176 0
143 0 7674.705330683451 0
144 0 -2263.0730769230768 0
145 0 -2263.0730769230768 0
146 0 11252.200312434567 0
147 0 7501.466874956378 0
148 0 -2263.0730769230768 0
149 0 -2263.0730769230768 0
150 0 10981.800625613558 0
151 0 7321.200417075705 0
152 0 -2263.0730769230768 0
153 0 -2263.0730769230768 0
154 0 10700.43242146741 0
155 0 7133.621614311608 0
156 0 -2263.0730769230768 0
157 0 -2263.0730769230768 0
158 0 10407.57638119793 0
159 0 6938.384254131954 0
160 0 -2263.0730769230768 0
161 0 -2263.0730769230768 0
162 0 10102.601714604429 0
163 0 6735.067809736287 0
164 0 -2263.0730769230768 0
165 0 -2263.0730769230768 0
166 0 9784.74108010726 0
167 0 6523.160720071508 0
168 0 -2263.0730769230768 0
169 0 -2263.0730769230768 0
170 0 9453.056399011126 0
171 0 6302.037599340751 0
172 0 -2263.0730769230768 0
173 0 0 0
174 0 9106.391373648303 0
175 0 6070.927582432203 0
176 0 0 0
177 0 0 0
178 0 8743.303976502224 0
179 0 5828.86931766815 0
180 0 0 0
181 0 0 0
182 0 8361.967674447327 0
183 0 5574.645116298218 0
184 0 0 0
185 0 0 0
186 0 7960.021770580024 0
187 0 5306.681180386684 0
188 0 0 0
189 0 0 0
190 0 7534.334689547097 0
191 0 5022.889793031398 0
192 0 0 0
193 0 0 0
194 0 7080.608865455579 0
195 0 4720.40591030372 0
196 0 0 0
197 0 0 0
198 0 6592.674072220737 0
199 0 4395.116048147159 0
200 0 0 0
201 0 0 0
202 0 6061.101727209109 0
203 0 4040.7344848060734 0
204 0 0 0
205 0 0 0
206 0 5470.11243600116 0
207 0 3646.7416240007733 0
208 0 0 0
209 0 0 0
210 0 4789.1591820216 0
211 0 3192.7727880144002 0
212 0 0 0
213 0 0 0
214 0 3940.0586378775174 0
215 0 2626.705758585012 0
216 0 0 0
217 0 0 0
218 0 1055.882695322083 0
219 0 703.9217968813888 0
220 0 0 0
221 -25000 -34323.274999999994 0
222 -25000 -34323.274999999994 0
$EndNodeData
$ElementData
1
"CrossSectionArea"
1
0
3
0
1
831
1 0.0025
2 0.0025
3 0.0025
4 0.01648
5 0.006
6 0.006
7 0.0025
8 0.01648
9 0.006
10 0.0025
11 0.006
12 0.01648
13 0.006
14 0.006
15 0.01648
16 0.0025
17 0.0025
18 0.0025
19 0.017439999999999997
20 0.006
21 0.0025
22 0.006
23 0.017439999999999997
24 0.006
25 0.0025
26 0.006
27 0.017439999999999997
28 0.006
29 0.006
30 0.017439999999999997
31 0.0025
32 0.0025
33 0.0025
34 0.0184
35 0.006
36 0.006
37 0.0025
38 0.0184
39 0.006
40 0.0025
41 0.006
42 0.0184
43 0.006
44 0.006
45 0.0184
46 0.0025
47 0.0025
48 0.0025
49 0.019360000000000006
50 0.006
51 0.0025
52 0.006
53 0.019360000000000006
54 0.006
55 0.0025
56 0.006
57 0.019360000000000006
58 0.006
59 0.006
60 0.019360000000000006
61 0.0025
62 0.0025
63 0.0025
64 0.02032
65 0.006
66 0.006
67 0.0025
68 0.02032
69 0.006
70 0.0025
71 0.006
72 0.02032
73 0.006
74 0.006
75 0.02032
76 0.0025
77 0.0025
78 0.0025
79 0.021280000000000004
80 0.006
81 0.0025
82 0.006
83 0.021280000000000004
84 0.006
85 0.0025
86 0.006
87 0.021280000000000004
88 0.006
89 0.006
90 0.021280000000000004
91 0.0025
92 0.0025
93 0.0025
94 0.02224
95 0.006
96 0.006
97 0.0025
98 0.02224
99 0.006
100 0.0025
101 0.006
102 0.02224
103 0.006
104 0.006
105 0.02224
106 0.0025
107 0.0025
108 0.0025
109 0.023200000000000005
110 0.006
111 0.0025
112 0.006
113 0.023200000000000005
114 0.006
115 0.0025
116 0.006
117 0.023200000000000005
118 0.006
119 0.006
120 0.023200000000000005
121 0.0025
122 0.0025
123 0.0025
124 0.02416
125 0.006
126 0.006
127 0.0025
128 0.02416
129 0.006
130 0.0025
131 0.006
132 0.02416
133 0.006
134 0.006
135 0.02416
136 0.0025
137 0.0025
138 0.0025
139 0.02512
140 0.006
141 0.0025
142 0.006
143 0.02512
144 0.006
145 0.0025
146 0.006
147 0.02512
148 0.006
149 0.006
150 0.02512
151 0.0025
152 0.0025
153 0.0025
154 0.026080000000000002
155 0.006
156 0.006
157 0.0025
158 0.026080000000000002
159 0.006
160 0.0025
161 0.006
162 0.026080000000000002
163 0.006
164 0.006
165 0.026080000000000002
166 0.0025
167 0.0025
168 0.0025
169 0.027039999999999998
170 0.006
171 0.0025
172 0.006
173 0.027039999999999998
174 0.006
175 0.0025
176 0.006
177 0.027039999999999998
178 0.006
179 0.006
180 0.027039999999999998
181 0.0025
182 0.0025
183 0.0025
184 0.028
185 0.006
186 0.006
187 0.0025
188 0.028
189 0.006
190 0.0025
191 0.006
192 0.028
193 0.006
194 0.006
195 0.028
196 0.0025
197 0.0025
198 0.0025
199 0.028960000000000003
200 0.006
201 0.0025
202 0.006
203 0.028960000000000003
204 0.006
205 0.0025
206 0.006
207 0.028960000000000003
208 0.006
209 0.006
210 0.028960000000000003
211 0.0025
212 0.0025
213 0.0025
214 0.02992
215 0.006
216 0.006
217 0.0025
218 0.02992
219 0.006
220 0.0025
221 0.006
222 0.02992
223 0.006
224 0.006
225 0.02992
226 0.0025
227 0.0025
228 0.0025
229 0.03088
230 0.006
231 0.0025
232 0.006
233 0.03088
234 0.006
235 0.0025
236 0.006
237 0.03088
238 0.006
239 0.006
240 0.03088
241 0.0025
242 0.0025
243 0.0025
244 0.03184000000000001
245 0.006
246 0.006
247 0.0025
248 0.03184000000000001
249 0.006
250 0.0025
251 0.006
252 0.03184000000000001
253 0.006
254 0.006
255 0.03184000000000001
256 0.0025
257 0.0025
258 0.0025
259 0.0328
260 0.006
261 0.0025
262 0.006
263 0.0328
264 0.006
265 0.0025
266 0.006
267 0.0328
268 0.006
269 0.006
270 0.0328
271 0.0025
272 0.0025
273 0.0025
274 0.03376
275 0.006
276 0.006
277 0.004
278 0.0025
279 0.03376
280 0.006
281 0.004
282 0.0025
283 0.006
284 0.03376
285 0.006
286 0.004
287 0.006
288 0.03376
289 0.004
290 0.0025
291 0.0025
292 0.0025
293 0.03472
294 0.006
295 0.004
296 0.0025
297 0.006
298 0.03472
299 0.006
300 0.004
301 0.0025
302 0.006
303 0.03472
304 0.004
305 0.006
306 0.006
307 0.03472
308 0.004
309 0.0025
310 0.0025
311 0.0025
312 0.03568
313 0.006
314 0.006
315 0.0025
316 0.03568
317 0.006
318 0.0025
319 0.006
320 0.03568
321 0.006
322 0.006
323 0.03568
324 0.0025
325 0.0025
326 0.0025
327 0.03664
328 0.006
329 0.0025
330 0.006
331 0.03664
332 0.006
333 0.0025
334 0.006
335 0.03664
336 0.006
337 0.006
338 0.03664
339 0.0025
340 0.0025
341 0.0025
342 0.0376
343 0.006
344 0.006
345 0.0025
346 0.0376
347 0.006
348 0.0025
349 0.006
350 0.0376
351 0.006
352 0.006
353 0.0376
354 0.0025
355 0.0025
356 0.0025
357 0.03856
358 0.006
359 0.0025
360 0.006
361 0.03856
362 0.006
363 0.0025
364 0.006
365 0.03856
366 0.006
367 0.006
368 0.03856
369 0.0025
370 0.0025
371 0.0025
372 0.03952
373 0.006
374 0.006
375 0.0025
376 0.03952
377 0.006
378 0.0025
379 0.006
380 0.03952
381 0.006
382 0.006
383 0.03952
384 0.0025
385 0.0025
386 0.0025
387 0.04
388 0.006
389 0.0025
390 0.006
391 0.04
392 0.006
393 0.0025
394 0.006
395 0.04
396 0.006
397 0.006
398 0.04
399 0.0025
400 0.0025
401 0.0025
402 0.04
403 0.006
404 0.006
405 0.0025
406 0.04
407 0.006
408 0.0025
409 0.006
410 0.04
411 0.006
412 0.006
413 0.04
414 0.0025
415 0.0025
416 0.0025
417 0.04
418 0.006
419 0.0025
420 0.006
421 0.04
422 0.006
423 0.0025
424 0.006
425 0.04
426 0.006
427 0.006
428 0.04
429 0.0025
430 0.0025
431 0.0025
432 0.04
433 0.006
434 0.006
435 0.0025
436 0.04
437 0.006
438 0.0025
439 0.006
440 0.04
441 0.006
442 0.006
443 0.04
444 0.0025
445 0.0025
446 0.0025
447 0.03952
448 0.006
449 0.0025
450 0.006
451 0.03952
452 0.006
453 0.0025
454 0.006
455 0.03952
456 0.006
457 0.006
458 0.03952
459 0.0025
460 0.0025
461 0.0025
462 0.03856
463 0.006
464 0.006
465 0.0025
466 0.03856
467 0.006
468 0.0025
469 0.006
470 0.03856
471 0.006
472 0.006
473 0.03856
474 0.0025
475 0.0025
476 0.0025
477 0.0376
478 0.006
479 0.0025
480 0.006
481 0.0376
482 0.006
483 0.0025
484 0.006
485 0.0376
486 0.006
487 0.006
488 0.0376
489 0.0025
490 0.0025
491 0.0025
492 0.036640000000000006
493 0.006
494 0.006
495 0.0025
496 0.036640000000000006
497 0.006
498 0.0025
499 0.006
500 0.036640000000000006
501 0.006
502 0.006
503 0.036640000000000006
504 0.0025
505 0.0025
506 0.0025
507 0.03568
508 0.006
509 0.0025
510 0.006
511 0.03568
512 0.006
513 0.0025
514 0.006
515 0.03568
516 0.006
517 0.006
518 0.03568
519 0.0025
520 0.0025
521 0.0025
522 0.03472
523 0.006
524 0.006
525 0.0025
526 0.03472
527 0.006
528 0.0025
529 0.006
530 0.03472
531 0.006
532 0.006
533 0.03472
534 0.0025
535 0.0025
536 0.0025
537 0.03376
538 0.006
539 0.004
540 0.0025
541 0.006
542 0.03376
543 0.006
544 0.004
545 0.0025
546 0.006
547 0.03376
548 0.004
549 0.006
550 0.006
551 0.03376
552 0.004
553 0.0025
554 0.0025
555 0.0025
556 0.0328
557 0.006
558 0.006
559 0.004
560 0.0025
561 0.0328
562 0.006
563 0.004
564 0.0025
565 0.006
566 0.0328
567 0.006
568 0.004
569 0.006
570 0.0328
571 0.004
572 0.0025
573 0.0025
574 0.0025
575 0.03184000000000001
576 0.006
577 0.0025
578 0.006
579 0.03184000000000001
580 0.006
581 0.0025
582 0.006
583 0.03184000000000001
584 0.006
585 0.006
586 0.03184000000000001
587 0.0025
588 0.0025
589 0.0025
590 0.03088
591 0.006
592 0.006
593 0.0025
594 0.03088
595 0.006
596 0.0025
597 0.006
598 0.03088
599 0.006
600 0.006
601 0.03088
602 0.0025
603 0.0025
604 0.0025
605 0.02992
606 0.006
607 0.0025
608 0.006
609 0.02992
610 0.006
611 0.0025
612 0.006
613 0.02992
614 0.006
615 0.006
616 0.02992
617 0.0025
618 0.0025
619 0.0025
620 0.028960000000000003
621 0.006
622 0.006
623 0.0025
624 0.028960000000000003
625 0.006
626 0.0025
627 0.006
628 0.028960000000000003
629 0.006
630 0.006
631 0.028960000000000003
632 0.0025
633 0.0025
634 0.0025
635 0.028
636 0.006
637 0.0025
638 0.006
639 0.028
640 0.006
641 0.0025
642 0.006
643 0.028
644 0.006
645 0.006
646 0.028
647 0.0025
648 0.0025
649 0.0025
650 0.027039999999999998
651 0.006
652 0.006
653 0.0025
654 0.027039999999999998
655 0.006
656 0.0025
657 0.006
658 0.027039999999999998
659 0.006
660 0.006
661 0.027039999999999998
662 0.0025
663 0.0025
664 0.0025
665 0.026080000000000002
666 0.006
667 0.0025
668 0.006
669 0.026080000000000002
670 0.006
671 0.0025
672 0.006
673 0.026080000000000002
674 0.006
675 0.006
676 0.026080000000000002
677 0.0025
678 0.0025
679 0.0025
680 0.02512
681 0.006
682 0.006
683 0.0025
684 0.02512
685 0.006
686 0.0025
687 0.006
688 0.02512
689 0.006
690 0.006
691 0.02512
692 0.0025
693 0.0025
694 0.0025
695 0.024160000000000004
696 0.006
697 0.0025
698 0.006
699 0.024160000000000004
700 0.006
701 0.0025
702 0.006
703 0.024160000000000004
704 0.006
705 0.006
706 0.024160000000000004
707 0.0025
708 0.0025
709 0.0025
710 0.023200000000000005
711 0.006
712 0.006
713 0.0025
714 0.023200000000000005
715 0.006
716 0.0025
717 0.006
718 0.023200000000000005
719 0.006
720 0.006
721 0.023200000000000005
722 0.0025
723 0.0025
724 0.0025
725 0.022240000000000003
726 0.006
727 0.0025
728 0.006
729 0.022240000000000003
730 0.006
731 0.0025
732 0.006
733 0.022240000000000003
734 0.006
735 0.006
736 0.022240000000000003
737 0.0025
738 0.0025
739 0.0025
740 0.021280000000000004
741 0.006
742 0.006
743 0.0025
744 0.021280000000000004
745 0.006
746 0.0025
747 0.006
748 0.021280000000000004
749 0.006
750 0.006
751 0.021280000000000004
752 0.0025
753 0.0025
754 0.0025
755 0.02032
756 0.006
757 0.0025
758 0.006
759 0.02032
760 0.006
761 0.0025
762 0.006
763 0.02032
764 0.006
765 0.006
766 0.02032
767 0.0025
768 0.0025
769 0.0025
770 0.019360000000000006
771 0.006
772 0.006
773 0.0025
774 0.019360000000000006
775 0.006
776 0.0025
777 0.006
778 0.019360000000000006
779 0.006
780 0.006
781 0.019360000000000006
782 0.0025
783 0.0025
784 0.0025
785 0.0184
786 0.006
787 0.0025
788 0.006
789 0.0184
790 0.006
791 0.0025
792 0.006
793 0.0184
794 0.006
795 0.006
796 0.0184
797 0.0025
798 0.0025
799 0.0025
800 0.017440000000000008
801 0.006
802 0.006
803 0.0025
804 0.017440000000000008
805 0.006
806 0.0025
807 0.006
808 0.017440000000000008
809 0.006
810 0.006
811 0.017440000000000008
812 0.0025
813 0.0025
814 0.0025
815 0.01648
816 0.006
817 0.0025
818 0.006
819 0.01648
820 0.006
821 0.0025
822 0.006
823 0.01648
824 0.006
825 0.006
826 0.01648
827 0.0025
828 0.0025
829 0.0025
830 0.0025
831 0.0025
$EndElementData
$ElementData
1
"MaterialID"
1
0
3
0
1
831
1 13
2 13
3 13
4 13
5 13
6 13
7 13
8 13
9 13
10 13
11 13
12 13
13 13
14 13
15 13
16 13
17 13
18 13
19 13
20 13
21 13
22 13
23 13
24 13
25 13
26 13
27 13
28 13
29 13
30 13
31 13
32 13
33 13
34 13
35 13
36 13
37 13
38 13
39 13
40 13
41 13
42 13
43 13
44 13
45 13
46 13
47 13
48 13
49 13
50 13
51 13
52 13
53 13
54 13
55 13
56 13
57 13
58 13
59 13
60 13
61 13
62 13
63 13
64 13
65 13
66 13
67 13
68 13
69 13
70 13
71 13
72 13
73 13
74 13
75 13
76 13
77 13
78 13
79 13
80 13
81 13
82 13
83 13
84 13
85 13
86 13
87 13
88 13
89 13
90 13
91 13
92 13
93 13
94 13
95 13
96 13
97 13
98 13
99 13
100 13
101 13
102 13
103 13
104 13
105 13
106 13
107 13
108 13
109 13
110 13
111 13
112 13
113 13
114 13
115 13
116 13
117 13
118 13
119 13
120 13
121 13
122 13
123 13
124 13
125 13
126 13
127 13
128 13
129 13
130 13
131 13
132 13
133 13
134 13
135 13
136 13
137 13
138 13
139 13
140 13
141 13
142 13
143 13
144 13
145 13
146 13
147 13
148 13
149 13
150 13
151 13
152 13
153 13
154 13
155 13
156 13
157 13
158 13
159 13
160 13
161 13
162 13
163 13
164 13
165 13
166 13
167 13
168 13
169 13
170 13
171 13
172 13
173 13
174 13
175 13
176 13
177 13
178 13
179 13
180 13
181 13
182 13
183 13
184 13
185 13
186 13
187 13
188 13
189 13
190 13
191 13
192 13
193 13
194 13
195 13
196 13
197 13
198 13
199 13
200 13
201 13
202 13
203 13
204 13
205 13
206 13
207 13
208 13
209 13
210 13
211 13
212 13
213 13
214 13
215 13
216 13
217 13
218 13
219 13
220 13
221 13
222 13
223 13
224 13
225 13
226 13
227 13
228 13
229 13
230 13
231 13
232 13
233 13
234 13
235 13
236 13
237 13
238 13
239 13
240 13
241 13
242 13
243 13
244 13
245 13
246 13
247 13
248 13
249 13
250 13
251 13
252 13
253 13
254 13
255 13
256 13
257 13
258 13
259 13
260 13
261 13
262 13
263 13
264 13
265 13
266 13
267 13
268 13
269 13
270 13
271 13
272 13
273 13
274 13
275 13
276 13
277 13
278 13
279 13
280 13
281 13
282 13
283 13
284 13
285 13
286 13
287 13
288 13
289 13
290 13
291 13
292 13
293 13
294 13
295 13
296 13
297 13
298 13
299 13
300 13
301 13
302 13
303 13
304 13
305 13
306 13
307 13
308 13
309 13
310 13
311 13
312 13
313 13
314 13
315 13
316 13
317 13
318 13
319 13
320 13
321 13
322 13
323 13
324 13
325 13
326 13
327 13
328 13
329 13
330 13
331 13
332 13
333 13
334 13
335 13
336 13
337 13
338 13
339 13
340 13
341 13
342 13
343 13
344 13
345 13
346 13
347 13
348 13
349 13
350 13
351 13
352 13
353 13
354 13
355 13
356 13
357 13
358 13
359 13
360 13
361 13
362 13
363 13
364 13
365 13
366 13
367 13
368 13
369 13
370 13
371 13
372 13
373 13
374 13
375 13
376 13
377 13
378 13
379 13
380 13
381 13
382 13
383 13
384 13
385 13
386 13
387 13
388 13
389 13
390 13
391 13
392 13
393 13
394 13
395 13
396 13
397 13
398 13
399 13
400 13
401 13
402 13
403 13
404 13
405 13
406 13
407 13
408 13
409 13
410 13
411 13
412 13
413 13
414 13
415 13
416 13
417 13
418 13
419 13
420 13
421 13
422 13
423 13
424 13
425 13
426 13
427 13
428 13
429 13
430 13
431 13
432 13
433 13
434 13
435 13
436 13
437 13
438 13
439 13
440 13
441 13
442 13
443 13
444 13
445 13
446 13
447 13
448 13
449 13
450 13
451 13
452 13
453 13
454 13
455 13
456 13
457 13
458 13
459 13
460 13
461 13
462 13
463 13
464 13
465 13
466 13
467 13
468 13
469 13
470 13
471 13
472 13
473 13
474 13
475 13
476 13
477 13
478 13
479 13
480 13
481 13
482 13
483 13
484 13
485 13
486 13
487 13
488 13
489 13
490 13
491 13
492 13
493 13
494 13
495 13
496 13
497 13
498 13
499 13
500 13
501 13
502 13
503 13
504 13
505 13
506 13
507 13
508 13
509 13
510 13
511 13
512 13
513 13
514 13
515 13
516 13
517 13
518 13
519 13
520 13
521 13
522 13
523 13
524 13
525 13
526 13
527 13
528 13
529 13
530 13
531 13
532 13
533 13
534 13
535 13
536 13
537 13
538 13
539 13
540 13
541 13
542 13
543 13
544 13
545 13
546 13
547 13
548 13
549 13
550 13
551 13
552 13
553 13
554 13
555 13
556 13
557 13
558 13
559 13
560 13
561 13
562 13
563 13
564 13
565 13
566 13
567 13
568 13
569 13
570 13
571 13
572 13
573 13
574 13
575 13
576 13
577 13
578 13
579 13
580 13
581 13
582 13
583 13
584 13
585 13
586 13
587 13
588 13
589 13
590 13
591 13
592 13
593 13
594 13
595 13
596 13
597 13
598 13
599 13
600 13
601 13
602 13
603 13
604 13
605 13
606 13
607 13
608 13
609 13
610 13
611 13
612 13
613 13
614 13
615 13
616 13
617 13
618 13
619 13
620 13
621 13
622 13
623 13
624 13
625 13
626 13
627 13
628 13
629 13
630 13
631 13
632 13
633 13
634 13
635 13
636 13
637 13
638 13
639 13
640 13
641 13
642 13
643 13
644 13
645 13
646 13
647 13
648 13
649 13
650 13
651 13
652 13
653 13
654 13
655 13
656 13
657 13
658 13
659 13
660 13
661 13
662 13
663 13
664 13
665 13
666 13
667 13
668 13
669 13
670 13
671 13
672 13
673 13
674 13
675 13
676 13
677 13
678 13
679 13
680 13
681 13
682 13
683 13
684 13
685 13
686 13
687 13
688 13
689 13
690 13
691 13
692 13
693 13
694 13
695 13
696 13
697 13
698 13
699 13
700 13
701 13
702 13
703 13
704 13
705 13
706 13
707 13
708 13
709 13
710 13
711 13
712 13
713 13
714 13
715 13
716 13
717 13
718 13
719 13
720 13
721 13
722 13
723 13
724 13
725 13
726 13
727 13
728 13
729 13
730 13
731 13
732 13
733 13
734 13
735 13
736 13
737 13
738 13
739 13
740 13
741 13
742 13
743 13
744 13
745 13
746 13
747 13
748 13
749 13
750 13
751 13
752 13
753 13
754 13
755 13
756 13
757 13
758 13
759 13
760 13
761 13
762 13
763 13
764 13
765 13
766 13
767 13
768 13
769 13
770 13
771 13
772 13
773 13
774 13
775 13
776 13
777 13
778 13
779 13
780 13
781 13
782 13
783 13
784 13
785 13
786 13
787 13
788 13
789 13
790 13
791 13
792 13
793 13
794 13
795 13
796 13
797 13
798 13
799 13
800 13
801 13
802 13
803 13
804 13
805 13
806 13
807 13
808 13
809 13
810 13
811 13
812 13
813 13
814 13
815 13
816 13
817 13
818 13
819 13
820 13
821 13
822 13
823 13
824 13
825 13
826 13
827 13
828 13
829 13
830 13
831 13
$EndElementData
