$MeshFormat
4.1 0 8
$EndMeshFormat
$PhysicalNames
1
1 1 "Material:Aluminum 6061-T6"
$EndPhysicalNames
$Entities
0 1 0 0
1 0.4 -1.1 0 1.2 0.19 5 1 1 0
$EndEntities
$Nodes
1 85 1 85
1 1 0 85
1
2
3
4
5
6
7
8
9
10
11
12
13
14
15
16
17
18
19
20
21
22
23
24
25
26
27
28
29
30
31
32
33
34
35
36
37
38
39
40
41
42
43
44
45
46
47
48
49
50
51
52
53
54
55
56
57
58
59
60
61
62
63
64
65
66
67
68
69
70
71
72
73
74
75
76
77
78
79
80
81
82
83
84
85
0.4 0 0
0.4 0.19 0
1.2 0.15 0
1.2 0.02 0
0.4 0 0.25
0.4 0.19 0.25
1.2 0.15 0.25
1.2 0.02 0.25
0.4 0 0.5
0.4 0.19 0.5
1.2 0.15 0.5
1.2 0.02 0.5
0.4 0 0.75
0.4 0.19 0.75
1.2 0.15 0.75
1.2 0.02 0.75
0.4 0 1
0.4 0.19 1
1.2 0.15 1
1.2 0.02 1
0.4 0 1.25
0.4 0.19 1.25
1.2 0.15 1.25
1.2 0.02 1.25
0.4 0 1.5
0.4 0.19 1.5
1.2 0.15 1.5
1.2 0.02 1.5
0.4 0 1.75
0.4 0.19 1.75
1.2 0.15 1.75
1.2 0.02 1.75
0.4 0 2
0.4 0.19 2
1.2 0.15 2
1.2 0.02 2
0.4 0 2.25
0.4 0.19 2.25
1.2 0.15 2.25
1.2 0.02 2.25
0.4 0 2.5
0.4 0.19 2.5
1.2 0.15 2.5
1.2 0.02 2.5
0.4 0 2.75
0.4 0.19 2.75
1.2 0.15 2.75
1.2 0.02 2.75
0.4 0 3
0.4 0.19 3
1.2 0.15 3
1.2 0.02 3
0.4 0 3.25
0.4 0.19 3.25
1.2 0.15 3.25
1.2 0.02 3.25
0.4 0 3.5
0.4 0.19 3.5
1.2 0.15 3.5
1.2 0.02 3.5
0.4 0 3.75
0.4 0.19 3.75
1.2 0.15 3.75
1.2 0.02 3.75
0.4 0 4
0.4 0.19 4
1.2 0.15 4
1.2 0.02 4
0.4 0 4.25
0.4 0.19 4.25
1.2 0.15 4.25
1.2 0.02 4.25
0.4 0 4.5
0.4 0.19 4.5
1.2 0.15 4.5
1.2 0.02 4.5
0.4 0 4.75
0.4 0.19 4.75
1.2 0.15 4.75
1.2 0.02 4.75
0.4 0 5
0.4 0.19 5
1.2 0.15 5
1.2 0.02 5
0.8 -1.1 0
$EndNodes
$Elements
1 302 1 302
1 1 1 302
1 1 5
2 1 6
3 1 8
4 2 6
5 2 7
6 3 6
7 3 7
8 4 5
9 4 7
10 4 8
11 5 6
12 5 7
13 5 8
14 5 9
15 5 12
16 6 7
17 6 9
18 6 10
19 6 11
20 7 8
21 7 10
22 7 11
23 7 12
24 8 9
25 8 12
26 9 10
27 9 11
28 9 12
29 9 13
30 9 14
31 9 16
32 10 11
33 10 14
34 10 15
35 11 12
36 11 14
37 11 15
38 12 13
39 12 15
40 12 16
41 13 14
42 13 15
43 13 16
44 13 17
45 13 20
46 14 15
47 14 17
48 14 18
49 14 19
50 15 16
51 15 18
52 15 19
53 15 20
54 16 17
55 16 20
56 17 18
57 17 19
58 17 20
59 17 21
60 17 22
61 17 24
62 18 19
63 18 22
64 18 23
65 19 20
66 19 22
67 19 23
68 20 21
69 20 23
70 20 24
71 21 22
72 21 23
73 21 24
74 21 25
75 21 28
76 22 23
77 22 25
78 22 26
79 22 27
80 23 24
81 23 26
82 23 27
83 23 28
84 24 25
85 24 28
86 25 26
87 25 27
88 25 28
89 25 29
90 25 30
91 25 32
92 26 27
93 26 30
94 26 31
95 27 28
96 27 30
97 27 31
98 28 29
99 28 31
100 28 32
101 29 30
102 29 31
103 29 32
104 29 33
105 29 36
106 30 31
107 30 33
108 30 34
109 30 35
110 31 32
111 31 34
112 31 35
113 31 36
114 32 33
115 32 36
116 33 34
117 33 35
118 33 36
119 33 37
120 33 38
121 33 40
122 34 35
123 34 38
124 34 39
125 35 36
126 35 38
127 35 39
128 36 37
129 36 39
130 36 40
131 37 38
132 37 39
133 37 40
134 37 41
135 37 44
136 38 39
137 38 41
138 38 42
139 38 43
140 39 40
141 39 42
142 39 43
143 39 44
144 40 41
145 40 44
146 41 42
147 41 43
148 41 44
149 41 45
150 41 46
151 41 48
152 42 43
153 42 46
154 42 47
155 43 44
156 43 46
157 43 47
158 44 45
159 44 47
160 44 48
161 45 46
162 45 47
163 45 48
164 45 49
165 45 52
166 46 47
167 46 49
168 46 50
169 46 51
170 47 48
171 47 50
172 47 51
173 47 52
174 48 49
175 48 52
176 49 50
177 49 51
178 49 52
179 49 53
180 49 54
181 49 56
182 49 85
183 50 51
184 50 54
185 50 55
186 51 52
187 51 54
188 51 55
189 52 53
190 52 55
191 52 56
192 52 85
193 53 54
194 53 55
195 53 56
196 53 57
197 53 60
198 54 55
199 54 57
200 54 58
201 54 59
202 55 56
203 55 58
204 55 59
205 55 60
206 56 57
207 56 60
208 57 58
209 57 59
210 57 60
211 57 61
212 57 62
213 57 64
214 58 59
215 58 62
216 58 63
217 59 60
218 59 62
219 59 63
220 60 61
221 60 63
222 60 64
223 61 62
224 61 63
225 61 64
226 61 65
227 61 68
228 62 63
229 62 65
230 62 66
231 62 67
232 63 64
233 63 66
234 63 67
235 63 68
236 64 65
237 64 68
238 65 66
239 65 67
240 65 68
241 65 69
242 65 70
243 65 72
244 66 67
245 66 70
246 66 71
247 67 68
248 67 70
249 67 71
250 68 69
251 68 71
252 68 72
253 69 70
254 69 71
255 69 72
256 69 73
257 69 76
258 70 71
259 70 73
260 70 74
261 70 75
262 71 72
263 71 74
264 71 75
265 71 76
266 72 73
267 72 76
268 73 74
269 73 75
270 73 76
271 73 77
272 73 78
273 73 80
274 74 75
275 74 78
276 74 79
277 75 76
278 75 78
279 75 79
280 76 77
281 76 79
282 76 80
283 77 78
284 77 79
285 77 80
286 77 81
287 77 84
288 78 79
289 78 81
290 78 82
291 78 83
292 79 80
293 79 82
294 79 83
295 79 84
296 80 81
297 80 84
298 81 82
299 81 83
300 81 84
301 82 83
302 83 84
$EndElements
$NodeData
1
"Fixity"
1
0
3
0
3
85
1 1 1 1
2 1 1 1
3 1 1 1
4 1 1 1
5 0 0 0
6 0 0 0
7 0 0 0
8 0 0 0
9 0 0 0
10 0 0 0
11 0 0 0
12 0 0 0
13 0 0 0
14 0 0 0
15 0 0 0
16 0 0 0
17 0 0 0
18 0 0 0
19 0 0 0
20 0 0 0
21 0 0 0
22 0 0 0
23 0 0 0
24 0 0 0
25 0 0 0
26 0 0 0
27 0 0 0
28 0 0 0
29 0 0 0
30 0 0 0
31 0 0 0
32 0 0 0
33 0 0 0
34 0 0 0
35 0 0 0
36 0 0 0
37 0 0 0
38 0 0 0
39 0 0 0
40 0 0 0
41 0 0 0
42 0 0 0
43 0 0 0
44 0 0 0
45 0 0 0
46 0 0 0
47 0 0 0
48 0 0 0
49 0 0 0
50 0 0 0
51 0 0 0
52 0 0 0
53 0 0 0
54 0 0 0
55 0 0 0
56 0 0 0
57 0 0 0
58 0 0 0
59 0 0 0
60 0 0 0
61 0 0 0
62 0 0 0
63 0 0 0
64 0 0 0
65 0 0 0
66 0 0 0
67 0 0 0
68 0 0 0
69 0 0 0
70 0 0 0
71 0 0 0
72 0 0 0
73 0 0 0
74 0 0 0
75 0 0 0
76 0 0 0
77 0 0 0
78 0 0 0
79 0 0 0
80 0 0 0
81 0 0 0
82 0 0 0
83 0 0 0
84 0 0 0
85 1 1 1
$EndNodeData
$NodeData
1
"NodalForce"
1
0
3
0
3
85
1 0 0 0
2 0 0 0
3 0 0 0
4 0 0 0
5 0 0 0
6 0 410.04663364340945 0
7 0 175.7342715614612 0
8 0 0 0
9 0 0 0
10 0 409.1820719403872 0
11 0 175.3637451173088 0
12 0 0 0
13 0 0 0
14 0 407.7338258662311 0
15 0 174.74306822838477 0
16 0 0 0
17 0 0 0
18 0 405.69063401329777 0
19 0 173.86741457712762 0
20 0 0 0
21 0 0 0
22 0 403.03610922371314 0
23 0 172.72976109587708 0
24 0 0 0
25 0 0 0
26 0 399.74804701666125 0
27 0 171.3205915785691 0
28 0 0 0
29 0 0 0
30 0 395.79742199379046 0
31 0 169.62746656876735 0
32 0 0 0
33 0 0 0
34 0 391.1469577922422 0
35 0 167.6344104823895 0
36 0 0 0
37 0 0 0
38 0 385.7490883037532 0
39 0 165.32103784446565 0
40 0 0 0
41 0 0 0
42 0 379.54301398492214 0
43 0 162.66129170782378 0
44 0 0 0
45 0 0 0
46 0 372.4503564386265 0
47 0 159.62158133083992 0
48 0 0 0
49 0 0 0
50 0 364.3685419415804 0
51 0 156.15794654639163 0
52 0 0 0
53 0 0 0
54 0 355.16030979715646 0
55 0 152.2115613416385 0
56 0 0 0
57 0 0 0
58 0 344.63618202929587 0
59 0 147.70122086969823 0
60 0 0 0
61 0 0 0
62 0 332.5231053624729 0
63 0 142.50990229820266 0
64 0 0 0
65 0 0 0
66 0 318.4029857357182 0
67 0 136.45842245816493 0
68 0 0 0
69 0 0 0
70 0 301.57561330369555 0
71 0 129.24669141586952 0
72 0 0 0
73 0 0 0
74 0 280.68592431062774 0
75 0 120.2939675616976 0
76 0 0 0
77 0 0 0
78 0 252.2700187433513 0
79 0 108.11572231857913 0
80 0 0 0
81 0 0 0
82 0 90.25315855906585 0
83 0 38.67992509674251 0
84 0 0 0
85 0 0 0
$EndNodeData
$ElementData
1
"CrossSectionArea"
1
0
3
0
1
302
1 4e-04
2 0.00012
3 0.00012
4 4e-04
5 0.00012
6 0.00012
7 4e-04
8 0.00012
9 0.00012
10 4e-04
11 0.00012
12 0.00012
13 0.00012
14 4e-04
15 0.00012
16 0.00012
17 0.00012
18 4e-04
19 0.00012
20 0.00012
21 0.00012
22 4e-04
23 0.00012
24 0.00012
25 4e-04
26 0.00012
27 0.00012
28 0.00012
29 4e-04
30 0.00012
31 0.00012
32 0.00012
33 4e-04
34 0.00012
35 0.00012
36 0.00012
37 4e-04
38 0.00012
39 0.00012
40 4e-04
41 0.00012
42 0.00012
43 0.00012
44 4e-04
45 0.00012
46 0.00012
47 0.00012
48 4e-04
49 0.00012
50 0.00012
51 0.00012
52 4e-04
53 0.00012
54 0.00012
55 4e-04
56 0.00012
57 0.00012
58 0.00012
59 4e-04
60 0.00012
61 0.00012
62 0.00012
63 4e-04
64 0.00012
65 0.00012
66 0.00012
67 4e-04
68 0.00012
69 0.00012
70 4e-04
71 0.00012
72 0.00012
73 0.00012
74 4e-04
75 0.00012
76 0.00012
77 0.00012
78 4e-04
79 0.00012
80 0.00012
81 0.00012
82 4e-04
83 0.00012
84 0.00012
85 4e-04
86 0.00012
87 0.00012
88 0.00012
89 4e-04
90 0.00012
91 0.00012
92 0.00012
93 4e-04
94 0.00012
95 0.00012
96 0.00012
97 4e-04
98 0.00012
99 0.00012
100 4e-04
101 0.00012
102 0.00012
103 0.00012
104 4e-04
105 0.00012
106 0.00012
107 0.00012
108 4e-04
109 0.00012
110 0.00012
111 0.00012
112 4e-04
113 0.00012
114 0.00012
115 4e-04
116 0.00012
117 0.00012
118 0.00012
119 4e-04
120 0.00012
121 0.00012
122 0.00012
123 4e-04
124 0.00012
125 0.00012
126 0.00012
127 4e-04
128 0.00012
129 0.00012
130 4e-04
131 0.00012
132 0.00012
133 0.00012
134 4e-04
135 0.00012
136 0.00012
137 0.00012
138 4e-04
139 0.00012
140 0.00012
141 0.00012
142 4e-04
143 0.00012
144 0.00012
145 4e-04
146 0.00012
147 0.00012
148 0.00012
149 4e-04
150 0.00012
151 0.00012
152 0.00012
153 4e-04
154 0.00012
155 0.00012
156 0.00012
157 4e-04
158 0.00012
159 0.00012
160 4e-04
161 0.00012
162 0.00012
163 0.00012
164 4e-04
165 0.00012
166 0.00012
167 0.00012
168 4e-04
169 0.00012
170 0.00012
171 0.00012
172 4e-04
173 0.00012
174 0.00012
175 4e-04
176 0.00012
177 0.00012
178 0.00012
179 4e-04
180 0.00012
181 0.00012
182 0.00030000000000000003
183 0.00012
184 4e-04
185 0.00012
186 0.00012
187 0.00012
188 4e-04
189 0.00012
190 0.00012
191 4e-04
192 0.00030000000000000003
193 0.00012
194 0.00012
195 0.00012
196 4e-04
197 0.00012
198 0.00012
199 0.00012
200 4e-04
201 0.00012
202 0.00012
203 0.00012
204 4e-04
205 0.00012
206 0.00012
207 4e-04
208 0.00012
209 0.00012
210 0.00012
211 4e-04
212 0.00012
213 0.00012
214 0.00012
215 4e-04
216 0.00012
217 0.00012
218 0.00012
219 4e-04
220 0.00012
221 0.00012
222 4e-04
223 0.00012
224 0.00012
225 0.00012
226 4e-04
227 0.00012
228 0.00012
229 0.00012
230 4e-04
231 0.00012
232 0.00012
233 0.00012
234 4e-04
235 0.00012
236 0.00012
237 4e-04
238 0.00012
239 0.00012
240 0.00012
241 4e-04
242 0.00012
243 0.00012
244 0.00012
245 4e-04
246 0.00012
247 0.00012
248 0.00012
249 4e-04
250 0.00012
251 0.00012
252 4e-04
253 0.00012
254 0.00012
255 0.00012
256 4e-04
257 0.00012
258 0.00012
259 0.00012
260 4e-04
261 0.00012
262 0.00012
263 0.00012
264 4e-04
265 0.00012
266 0.00012
267 4e-04
268 0.00012
269 0.00012
270 0.00012
271 4e-04
272 0.00012
273 0.00012
274 0.00012
275 4e-04
276 0.00012
277 0.00012
278 0.00012
279 4e-04
280 0.00012
281 0.00012
282 4e-04
283 0.00012
284 0.00012
285 0.00012
286 4e-04
287 0.00012
288 0.00012
289 0.00012
290 4e-04
291 0.00012
292 0.00012
293 0.00012
294 4e-04
295 0.00012
296 0.00012
297 4e-04
298 0.00012
299 0.00012
300 0.00012
301 0.00012
302 0.00012
$EndElementData
$ElementData
1
"MaterialID"
1
0
3
0
1
302
1 1
2 1
3 1
4 1
5 1
6 1
7 1
8 1
9 1
10 1
11 1
12 1
13 1
14 1
15 1
16 1
17 1
18 1
19 1
20 1
21 1
22 1
23 1
24 1
25 1
26 1
27 1
28 1
29 1
30 1
31 1
32 1
33 1
34 1
35 1
36 1
37 1
38 1
39 1
40 1
41 1
42 1
43 1
44 1
45 1
46 1
47 1
48 1
49 1
50 1
51 1
52 1
53 1
54 1
55 1
56 1
57 1
58 1
59 1
60 1
61 1
62 1
63 1
64 1
65 1
66 1
67 1
68 1
69 1
70 1
71 1
72 1
73 1
74 1
75 1
76 1
77 1
78 1
79 1
80 1
81 1
82 1
83 1
84 1
85 1
86 1
87 1
88 1
89 1
90 1
91 1
92 1
93 1
94 1
95 1
96 1
97 1
98 1
99 1
100 1
101 1
102 1
103 1
104 1
105 1
106 1
107 1
108 1
109 1
110 1
111 1
112 1
113 1
114 1
115 1
116 1
117 1
118 1
119 1
120 1
121 1
122 1
123 1
124 1
125 1
126 1
127 1
128 1
129 1
130 1
131 1
132 1
133 1
134 1
135 1
136 1
137 1
138 1
139 1
140 1
141 1
142 1
143 1
144 1
145 1
146 1
147 1
148 1
149 1
150 1
151 1
152 1
153 1
154 1
155 1
156 1
157 1
158 1
159 1
160 1
161 1
162 1
163 1
164 1
165 1
166 1
167 1
168 1
169 1
170 1
171 1
172 1
173 1
174 1
175 1
176 1
177 1
178 1
179 1
180 1
181 1
182 1
183 1
184 1
185 1
186 1
187 1
188 1
189 1
190 1
191 1
192 1
193 1
194 1
195 1
196 1
197 1
198 1
199 1
200 1
201 1
202 1
203 1
204 1
205 1
206 1
207 1
208 1
209 1
210 1
211 1
212 1
213 1
214 1
215 1
216 1
217 1
218 1
219 1
220 1
221 1
222 1
223 1
224 1
225 1
226 1
227 1
228 1
229 1
230 1
231 1
232 1
233 1
234 1
235 1
236 1
237 1
238 1
239 1
240 1
241 1
242 1
243 1
244 1
245 1
246 1
247 1
248 1
249 1
250 1
251 1
252 1
253 1
254 1
255 1
256 1
257 1
258 1
259 1
260 1
261 1
262 1
263 1
264 1
265 1
266 1
267 1
268 1
269 1
270 1
271 1
272 1
273 1
274 1
275 1
276 1
277 1
278 1
279 1
280 1
281 1
282 1
283 1
284 1
285 1
286 1
287 1
288 1
289 1
290 1
291 1
292 1
293 1
294 1
295 1
296 1
297 1
298 1
299 1
300 1
301 1
302 1
$EndElementData
