$MeshFormat
4.1 0 8
$EndMeshFormat
$PhysicalNames
1
1 1 "Material:Structural Steel (AISI 4130)"
$EndPhysicalNames
$Entities
0 1 0 0
1 0 0 -0.375 5.9 1.15 0.375 1 1 0
$EndEntities
$Nodes
1 40 1 40
1 1 0 40
1
2
3
4
5
6
7
8
9
10
11
12
13
14
15
16
17
18
19
20
21
22
23
24
25
26
27
28
29
30
31
32
33
34
35
36
37
38
39
40
0 0 -0.375
0 1.15 -0.375
0 1.15 0.375
0 0 0.375
0.6 0 -0.375
0.6 1.15 -0.375
0.6 1.15 0.375
0.6 0 0.375
1.2 0 -0.375
1.2 1.15 -0.375
1.2 1.15 0.375
1.2 0 0.375
1.8 0 -0.375
1.8 1.15 -0.375
1.8 1.15 0.375
1.8 0 0.375
2.4 0.08048780487804875 -0.3310975609756098
2.4 1.120731707317073 -0.3310975609756098
2.4 1.120731707317073 0.3310975609756098
2.4 0.08048780487804875 0.3310975609756098
3.1 0.174390243902439 -0.27987804878048783
3.1 1.0865853658536584 -0.27987804878048783
3.1 1.0865853658536584 0.27987804878048783
3.1 0.174390243902439 0.27987804878048783
3.8 0.26829268292682923 -0.2286585365853659
3.8 1.0524390243902437 -0.2286585365853659
3.8 1.0524390243902437 0.2286585365853659
3.8 0.26829268292682923 0.2286585365853659
4.5 0.3621951219512195 -0.17743902439024392
4.5 1.0182926829268293 -0.17743902439024392
4.5 1.0182926829268293 0.17743902439024392
4.5 0.3621951219512195 0.17743902439024392
5.2 0.4560975609756098 -0.12621951219512198
5.2 0.9841463414634145 -0.12621951219512198
5.2 0.9841463414634145 0.12621951219512198
5.2 0.4560975609756098 0.12621951219512198
5.9 0.55 -0.07500000000000001
5.9 0.95 -0.07500000000000001
5.9 0.95 0.07500000000000001
5.9 0.55 0.07500000000000001
$EndNodes
$Elements
1 122 1 122
1 1 1 122
1 1 2
2 1 3
3 1 4
4 1 5
5 1 6
6 2 3
7 2 6
8 2 7
9 3 4
10 3 7
11 4 5
12 4 7
13 4 8
14 5 6
15 5 7
16 5 8
17 5 9
18 5 12
19 6 7
20 6 9
21 6 10
22 7 8
23 7 10
24 7 11
25 7 12
26 8 12
27 9 10
28 9 11
29 9 12
30 9 13
31 9 14
32 10 11
33 10 14
34 10 15
35 11 12
36 11 15
37 12 13
38 12 15
39 12 16
40 13 14
41 13 15
42 13 16
43 13 17
44 13 20
45 14 15
46 14 17
47 14 18
48 15 16
49 15 18
50 15 19
51 15 20
52 16 20
53 17 18
54 17 19
55 17 20
56 17 21
57 17 22
58 18 19
59 18 22
60 18 23
61 19 20
62 19 23
63 20 21
64 20 23
65 20 24
66 21 22
67 21 23
68 21 24
69 21 25
70 21 28
71 22 23
72 22 25
73 22 26
74 23 24
75 23 26
76 23 27
77 23 28
78 24 28
79 25 26
80 25 27
81 25 28
82 25 29
83 25 30
84 26 27
85 26 30
86 26 31
87 27 28
88 27 31
89 28 29
90 28 31
91 28 32
92 29 30
93 29 31
94 29 32
95 29 33
96 29 36
97 30 31
98 30 33
99 30 34
100 31 32
101 31 34
102 31 35
103 31 36
104 32 36
105 33 34
106 33 35
107 33 36
108 33 37
109 33 38
110 34 35
111 34 38
112 34 39
113 35 36
114 35 39
115 36 37
116 36 39
117 36 40
118 37 38
119 37 39
120 37 40
121 38 39
122 39 40
$EndElements
$NodeData
1
"Fixity"
1
0
3
0
3
40
1 0 0 0
2 0 0 0
3 0 0 0
4 0 0 0
5 0 0 0
6 1 1 1
7 1 1 1
8 0 0 0
9 0 0 0
10 1 1 1
11 1 1 1
12 0 0 0
13 0 0 0
14 0 0 0
15 0 0 0
16 0 0 0
17 0 0 0
18 0 0 0
19 0 0 0
20 0 0 0
21 0 0 0
22 0 0 0
23 0 0 0
24 0 0 0
25 0 0 0
26 0 0 0
27 0 0 0
28 0 0 0
29 0 0 0
30 0 0 0
31 0 0 0
32 0 0 0
33 0 0 0
34 0 0 0
35 0 0 0
36 0 0 0
37 0 0 0
38 0 0 0
39 0 0 0
40 0 0 0
$EndNodeData
$NodeData
1
"NodalForce"
1
0
3
0
3
40
1 0 -1030 0
2 0 -1030 0
3 0 -1030 0
4 0 -1030 0
5 0 -1120 0
6 0 0 0
7 0 0 0
8 0 -1120 0
9 0 -1120 0
10 0 0 0
11 0 0 0
12 0 -1120 0
13 0 -1120 0
14 0 0 0
15 0 0 0
16 0 -1120 0
17 0 -370 0
18 0 0 0
19 0 0 0
20 0 -370 0
21 0 0 0
22 0 0 0
23 0 0 0
24 0 0 0
25 0 0 0
26 0 0 0
27 0 0 0
28 0 0 0
29 0 0 0
30 0 0 0
31 0 0 0
32 0 0 0
33 0 0 0
34 0 0 0
35 0 0 0
36 0 0 0
37 0 0 0
38 0 -900 0
39 0 -900 0
40 0 0 0
$EndNodeData
$ElementData
1
"CrossSectionArea"
1
0
3
0
1
122
1 7.2e-05
2 7.2e-05
3 7.2e-05
4 9.4e-05
5 7.2e-05
6 7.2e-05
7 9.4e-05
8 7.2e-05
9 7.2e-05
10 9.4e-05
11 7.2e-05
12 7.2e-05
13 9.4e-05
14 7.2e-05
15 7.2e-05
16 7.2e-05
17 9.4e-05
18 7.2e-05
19 7.2e-05
20 7.2e-05
21 9.4e-05
22 7.2e-05
23 7.2e-05
24 9.4e-05
25 7.2e-05
26 9.4e-05
27 7.2e-05
28 7.2e-05
29 7.2e-05
30 9.4e-05
31 7.2e-05
32 7.2e-05
33 9.4e-05
34 7.2e-05
35 7.2e-05
36 9.4e-05
37 7.2e-05
38 7.2e-05
39 9.4e-05
40 7.2e-05
41 7.2e-05
42 7.2e-05
43 9.4e-05
44 7.2e-05
45 7.2e-05
46 7.2e-05
47 9.4e-05
48 7.2e-05
49 7.2e-05
50 9.4e-05
51 7.2e-05
52 9.4e-05
53 7.2e-05
54 7.2e-05
55 7.2e-05
56 9.4e-05
57 7.2e-05
58 7.2e-05
59 9.4e-05
60 7.2e-05
61 7.2e-05
62 9.4e-05
63 7.2e-05
64 7.2e-05
65 9.4e-05
66 7.2e-05
67 7.2e-05
68 7.2e-05
69 9.4e-05
70 7.2e-05
71 7.2e-05
72 7.2e-05
73 9.4e-05
74 7.2e-05
75 7.2e-05
76 9.4e-05
77 7.2e-05
78 9.4e-05
79 7.2e-05
80 7.2e-05
81 7.2e-05
82 9.4e-05
83 7.2e-05
84 7.2e-05
85 9.4e-05
86 7.2e-05
87 7.2e-05
88 9.4e-05
89 7.2e-05
90 7.2e-05
91 9.4e-05
92 7.2e-05
93 7.2e-05
94 7.2e-05
95 9.4e-05
96 7.2e-05
97 7.2e-05
98 7.2e-05
99 9.4e-05
100 7.2e-05
101 7.2e-05
102 9.4e-05
103 7.2e-05
104 9.4e-05
105 7.2e-05
106 7.2e-05
107 7.2e-05
108 9.4e-05
109 7.2e-05
110 7.2e-05
111 9.4e-05
112 7.2e-05
113 7.2e-05
114 9.4e-05
115 7.2e-05
116 7.2e-05
117 9.4e-05
118 7.2e-05
119 7.2e-05
120 7.2e-05
121 7.2e-05
122 7.2e-05
$EndElementData
$ElementData
1
"MaterialID"
1
0
3
0
1
122
1 0
2 0
3 0
4 0
5 0
6 0
7 0
8 0
9 0
10 0
11 0
12 0
13 0
14 0
15 0
16 0
17 0
18 0
19 0
20 0
21 0
22 0
23 0
24 0
25 0
26 0
27 0
28 0
29 0
30 0
31 0
32 0
33 0
34 0
35 0
36 0
37 0
38 0
39 0
40 0
41 0
42 0
43 0
44 0
45 0
46 0
47 0
48 0
49 0
50 0
51 0
52 0
53 0
54 0
55 0
56 0
57 0
58 0
59 0
60 0
61 0
62 0
63 0
64 0
65 0
66 0
67 0
68 0
69 0
70 0
71 0
72 0
73 0
74 0
75 0
76 0
77 0
78 0
79 0
80 0
81 0
82 0
83 0
84 0
85 0
86 0
87 0
88 0
89 0
90 0
91 0
92 0
93 0
94 0
95 0
96 0
97 0
98 0
99 0
100 0
101 0
102 0
103 0
104 0
105 0
106 0
107 0
108 0
109 0
110 0
111 0
112 0
113 0
114 0
115 0
116 0
117 0
118 0
119 0
120 0
121 0
122 0
$EndElementData
