$MeshFormat
4.1 0 8
$EndMeshFormat
$PhysicalNames
1
1 1 "Material:Structural Steel (AISI 4130)"
$EndPhysicalNames
$Entities
0 1 0 0
1 -0.85 0.3 -0.3 0 0.9 0.3 1 1 0
$EndEntities
$Nodes
1 9 1 9
1 1 0 9
1
2
3
4
5
6
7
8
9
0 0.3 -0.3
-0.5 0.45 -0.2
0 0.9 -0.3
-0.5 0.75 -0.2
0 0.9 0.3
-0.5 0.75 0.2
0 0.3 0.3
-0.5 0.45 0.2
-0.85 0.6 0
$EndNodes
$Elements
1 17 1 17
1 1 1 17
1 1 2
2 1 8
3 2 3
4 2 4
5 2 6
6 2 8
7 2 9
8 3 4
9 4 5
10 4 6
11 4 9
12 5 6
13 6 7
14 6 8
15 6 9
16 7 8
17 8 9
$EndElements
$NodeData
1
"Fixity"
1
0
3
0
3
9
1 1 1 1
2 0 0 0
3 1 1 1
4 0 0 0
5 1 1 1
6 0 0 0
7 1 1 1
8 0 0 0
9 0 0 0
$EndNodeData
$NodeData
1
"NodalForce"
1
0
3
0
3
9
1 0 0 0
2 0 0 0
3 0 0 0
4 0 0 0
5 0 0 0
6 0 0 0
7 0 0 0
8 0 0 0
9 -2200 -4100 0
$EndNodeData
$ElementData
1
"CrossSectionArea"
1
0
3
0
1
17
1 7.2e-05
2 7.2e-05
3 7.2e-05
4 7.2e-05
5 7.2e-05
6 7.2e-05
7 0.002
8 7.2e-05
9 7.2e-05
10 7.2e-05
11 0.002
12 7.2e-05
13 7.2e-05
14 7.2e-05
15 0.002
16 7.2e-05
17 0.002
$EndElementData
$ElementData
1
"MaterialID"
1
0
3
0
1
17
1 0
2 0
3 0
4 0
5 0
6 0
7 0
8 0
9 0
10 0
11 0
12 0
13 0
14 0
15 0
16 0
17 0
$EndElementData
