$MeshFormat
4.1 0 8
$EndMeshFormat
$PhysicalNames
1
1 1 "Material:Structural Steel (AISI 4130)"
$EndPhysicalNames
$Entities
0 1 0 0
1 0.3 0 0 1.5 1.5 4.6 1 1 0
$EndEntities
$Nodes
1 12 1 12
1 1 0 12
1
2
3
4
5
6
7
8
9
10
11
12
0.6 0 0
0.3 1.5 0
1.2 1.5 0
1.5 0 0
0.6 0 2.3
0.3 1.5 2.3
1.2 1.5 2.3
1.5 0 2.3
0.6 0 4.6
0.3 1.5 4.6
1.2 1.5 4.6
1.5 0 4.6
$EndNodes
$Elements
1 30 1 30
1 1 1 30
1 1 5
2 1 6
3 1 8
4 2 6
5 2 7
6 3 6
7 3 7
8 4 5
9 4 7
10 4 8
11 5 6
12 5 7
13 5 8
14 5 9
15 5 10
16 5 12
17 6 7
18 6 10
19 6 11
20 7 8
21 7 10
22 7 11
23 8 9
24 8 11
25 8 12
26 9 10
27 9 11
28 9 12
29 10 11
30 11 12
$EndElements
$NodeData
1
"Fixity"
1
0
3
0
3
12
1 1 1 1
2 1 1 1
3 1 1 1
4 1 1 1
5 0 0 0
6 0 0 0
7 0 0 0
8 0 0 0
9 0 0 0
10 0 0 0
11 0 0 0
12 0 0 0
$EndNodeData
$NodeData
1
"NodalForce"
1
0
3
0
3
12
1 0 0 0
2 0 0 0
3 0 0 0
4 0 0 0
5 0 2135.25 0
6 0 2609.7500000000005 0
7 0 1405.25 0
8 0 1149.75 0
9 0 1067.625 0
10 0 1304.8750000000002 0
11 0 702.625 0
12 0 574.875 0
$EndNodeData
$ElementData
1
"CrossSectionArea"
1
0
3
0
1
30
1 0.0006000000000000001
2 8e-05
3 8e-05
4 0.0006000000000000001
5 8e-05
6 8e-05
7 0.0006000000000000001
8 8e-05
9 8e-05
10 0.0006000000000000001
11 4e-04
12 4e-04
13 4e-04
14 0.0006000000000000001
15 8e-05
16 8e-05
17 4e-04
18 0.0006000000000000001
19 8e-05
20 4e-04
21 8e-05
22 0.0006000000000000001
23 8e-05
24 8e-05
25 0.0006000000000000001
26 4e-04
27 4e-04
28 4e-04
29 4e-04
30 4e-04
$EndElementData
$ElementData
1
"MaterialID"
1
0
3
0
1
30
1 0
2 0
3 0
4 0
5 0
6 0
7 0
8 0
9 0
10 0
11 0
12 0
13 0
14 0
15 0
16 0
17 0
18 0
19 0
20 0
21 0
22 0
23 0
24 0
25 0
26 0
27 0
28 0
29 0
30 0
$EndElementData
