$MeshFormat
4.1 0 8
$EndMeshFormat
$PhysicalNames
1
1 1 "Material:Aluminum 2024-T3"
$EndPhysicalNames
$Entities
0 1 0 0
1 0 -15 -15 200 15 15 1 1 0
$EndEntities
$Nodes
1 325 1 325
1 1 0 325
1
2
3
4
5
6
7
8
9
10
11
12
13
14
15
16
17
18
19
20
21
22
23
24
25
26
27
28
29
30
31
32
33
34
35
36
37
38
39
40
41
42
43
44
45
46
47
48
49
50
51
52
53
54
55
56
57
58
59
60
61
62
63
64
65
66
67
68
69
70
71
72
73
74
75
76
77
78
79
80
81
82
83
84
85
86
87
88
89
90
91
92
93
94
95
96
97
98
99
100
101
102
103
104
105
106
107
108
109
110
111
112
113
114
115
116
117
118
119
120
121
122
123
124
125
126
127
128
129
130
131
132
133
134
135
136
137
138
139
140
141
142
143
144
145
146
147
148
149
150
151
152
153
154
155
156
157
158
159
160
161
162
163
164
165
166
167
168
169
170
171
172
173
174
175
176
177
178
179
180
181
182
183
184
185
186
187
188
189
190
191
192
193
194
195
196
197
198
199
200
201
202
203
204
205
206
207
208
209
210
211
212
213
214
215
216
217
218
219
220
221
222
223
224
225
226
227
228
229
230
231
232
233
234
235
236
237
238
239
240
241
242
243
244
245
246
247
248
249
250
251
252
253
254
255
256
257
258
259
260
261
262
263
264
265
266
267
268
269
270
271
272
273
274
275
276
277
278
279
280
281
282
283
284
285
286
287
288
289
290
291
292
293
294
295
296
297
298
299
300
301
302
303
304
305
306
307
308
309
310
311
312
313
314
315
316
317
318
319
320
321
322
323
324
325
0 0 0
10 0 0
10 -6.538348415311009 0
10 -6.0406462773334475 2.5021176135700625
10 -4.623310502226731 4.6233105022267305
10 -2.502117613570063 6.0406462773334475
10 -4.003583729260398e-16 6.538348415311009
10 2.502117613570062 6.0406462773334475
10 4.6233105022267305 4.623310502226731
10 6.0406462773334475 2.502117613570063
10 6.538348415311009 8.007167458520796e-16
10 6.040646277333448 -2.5021176135700616
10 4.623310502226732 -4.6233105022267305
10 2.502117613570066 -6.040646277333446
10 1.2010751187781194e-15 -6.538348415311009
10 -2.502117613570064 -6.040646277333447
10 -4.6233105022267305 -4.623310502226732
10 -6.040646277333446 -2.5021176135700665
20 0 0
20 -8.999999999999998 0
20 -8.314915792601578 3.4441508912858074
20 -6.363961030678927 6.363961030678926
20 -3.444150891285808 8.314915792601578
20 -5.510910596163089e-16 8.999999999999998
20 3.444150891285807 8.314915792601578
20 6.363961030678926 6.363961030678927
20 8.314915792601578 3.4441508912858083
20 8.999999999999998 1.1021821192326177e-15
20 8.31491579260158 -3.4441508912858065
20 6.363961030678928 -6.363961030678926
20 3.4441508912858123 -8.314915792601576
20 1.6532731788489265e-15 -8.999999999999998
20 -3.444150891285809 -8.314915792601578
20 -6.363961030678925 -6.363961030678928
20 -8.314915792601576 -3.4441508912858128
30 0 0
30 -10.712142642814275 0
30 -9.896729337037472 4.09935951453661
30 -7.574628703771559 7.574628703771558
30 -4.099359514536611 9.896729337037472
30 -6.559295599766185e-16 10.712142642814275
30 4.09935951453661 9.896729337037472
30 7.574628703771558 7.574628703771559
30 9.896729337037472 4.099359514536612
30 10.712142642814275 1.311859119953237e-15
30 9.896729337037472 -4.0993595145366095
30 7.57462870377156 -7.574628703771558
30 4.099359514536617 -9.896729337037469
30 1.9677886799298555e-15 -10.712142642814275
30 -4.099359514536613 -9.89672933703747
30 -7.574628703771556 -7.57462870377156
30 -9.896729337037469 -4.0993595145366175
40 0 0
40 -12 0
40 -11.08655439013544 4.592201188381077
40 -8.485281374238571 8.48528137423857
40 -4.592201188381078 11.08655439013544
40 -7.347880794884119e-16 12
40 4.592201188381077 11.08655439013544
40 8.48528137423857 8.485281374238571
40 11.08655439013544 4.592201188381079
40 12 1.4695761589768238e-15
40 11.086554390135442 -4.592201188381076
40 8.485281374238571 -8.48528137423857
40 4.592201188381084 -11.086554390135438
40 2.204364238465236e-15 -12
40 -4.59220118838108 -11.08655439013544
40 -8.485281374238568 -8.485281374238571
40 -11.086554390135438 -4.592201188381084
50 0 0
50 -12.990381056766578 0
50 -12.001547177868982 4.971203610533877
50 -9.185586535436917 9.185586535436917
50 -4.971203610533877 12.001547177868982
50 -7.954314290436801e-16 12.990381056766578
50 4.971203610533876 12.001547177868982
50 9.185586535436917 9.185586535436917
50 12.001547177868982 4.971203610533878
50 12.990381056766578 1.5908628580873602e-15
50 12.001547177868982 -4.971203610533875
50 9.185586535436919 -9.185586535436917
50 4.971203610533884 -12.001547177868979
50 2.3862942871310403e-15 -12.990381056766578
50 -4.9712036105338795 -12.00154717786898
50 -9.185586535436915 -9.185586535436919
50 -12.001547177868979 -4.971203610533884
60 0 0
60 -13.74772708486752 0
60 -12.70124367226016 5.261027388055613
60 -9.72111104761179 9.72111104761179
60 -5.261027388055614 12.70124367226016
60 -8.418054985017191e-16 13.74772708486752
60 5.261027388055612 12.70124367226016
60 9.72111104761179 9.72111104761179
60 12.70124367226016 5.261027388055614
60 13.74772708486752 1.6836109970034383e-15
60 12.70124367226016 -5.261027388055611
60 9.721111047611792 -9.72111104761179
60 5.26102738805562 -12.701243672260157
60 2.525416495505157e-15 -13.74772708486752
60 -5.2610273880556155 -12.701243672260158
60 -9.721111047611789 -9.721111047611792
60 -12.701243672260157 -5.261027388055621
70 0 0
70 -14.309088021254185 0
70 -13.21987355173917 5.475850917987742
70 -10.118053172424032 10.11805317242403
70 -5.475850917987743 13.21987355173917
70 -8.761789421973336e-16 14.309088021254185
70 5.475850917987741 13.21987355173917
70 10.11805317242403 10.118053172424032
70 13.21987355173917 5.475850917987744
70 14.309088021254185 1.7523578843946671e-15
70 13.219873551739171 -5.47585091798774
70 10.118053172424034 -10.11805317242403
70 5.47585091798775 -13.219873551739166
70 2.6285368265920007e-15 -14.309088021254185
70 -5.475850917987746 -13.219873551739168
70 -10.118053172424029 -10.118053172424034
70 -13.219873551739166 -5.475850917987751
80 0 0
80 -14.696938456699067 0
80 -13.578200630722286 5.6242748538680845
80 -10.392304845413264 10.392304845413262
80 -5.624274853868085 13.578200630722286
80 -8.999279319131078e-16 14.696938456699067
80 5.624274853868084 13.578200630722286
80 10.392304845413262 10.392304845413264
80 13.578200630722286 5.624274853868086
80 14.696938456699067 1.7998558638262156e-15
80 13.578200630722288 -5.624274853868083
80 10.392304845413266 -10.392304845413262
80 5.6242748538680924 -13.578200630722282
80 2.6997837957393228e-15 -14.696938456699067
80 -5.624274853868088 -13.578200630722284
80 -10.39230484541326 -10.392304845413266
80 -13.578200630722282 -5.624274853868093
90 0 0
90 -14.9248115565993 0
90 -13.788727923730011 5.7114781138815784
90 -10.553435459602717 10.553435459602715
90 -5.711478113881579 13.788727923730011
90 -9.13881135033338e-16 14.9248115565993
90 5.711478113881578 13.788727923730011
90 10.553435459602715 10.553435459602717
90 13.788727923730011 5.71147811388158
90 14.9248115565993 1.827762270066676e-15
90 13.788727923730013 -5.711478113881577
90 10.553435459602719 -10.553435459602715
90 5.711478113881586 -13.788727923730008
90 2.7416434051000137e-15 -14.9248115565993
90 -5.711478113881582 -13.78872792373001
90 -10.553435459602714 -10.553435459602719
90 -13.788727923730008 -5.711478113881587
100 0 0
100 -15 0
100 -13.858192987669302 5.740251485476347
100 -10.606601717798213 10.606601717798211
100 -5.740251485476348 13.858192987669302
100 -9.18485099360515e-16 15
100 5.740251485476346 13.858192987669302
100 10.606601717798211 10.606601717798213
100 13.858192987669302 5.740251485476349
100 15 1.83697019872103e-15
100 13.858192987669304 -5.740251485476345
100 10.606601717798215 -10.606601717798211
100 5.740251485476355 -13.858192987669298
100 2.7554552980815444e-15 -15
100 -5.7402514854763504 -13.8581929876693
100 -10.60660171779821 -10.606601717798215
100 -13.858192987669298 -5.740251485476356
110.00000000000001 0 0
110.00000000000001 -14.9248115565993 0
110.00000000000001 -13.788727923730011 5.7114781138815784
110.00000000000001 -10.553435459602717 10.553435459602715
110.00000000000001 -5.711478113881579 13.788727923730011
110.00000000000001 -9.13881135033338e-16 14.9248115565993
110.00000000000001 5.711478113881578 13.788727923730011
110.00000000000001 10.553435459602715 10.553435459602717
110.00000000000001 13.788727923730011 5.71147811388158
110.00000000000001 14.9248115565993 1.827762270066676e-15
110.00000000000001 13.788727923730013 -5.711478113881577
110.00000000000001 10.553435459602719 -10.553435459602715
110.00000000000001 5.711478113881586 -13.788727923730008
110.00000000000001 2.7416434051000137e-15 -14.9248115565993
110.00000000000001 -5.711478113881582 -13.78872792373001
110.00000000000001 -10.553435459602714 -10.553435459602719
110.00000000000001 -13.788727923730008 -5.711478113881587
120 0 0
120 -14.696938456699067 0
120 -13.578200630722286 5.6242748538680845
120 -10.392304845413264 10.392304845413262
120 -5.624274853868085 13.578200630722286
120 -8.999279319131078e-16 14.696938456699067
120 5.624274853868084 13.578200630722286
120 10.392304845413262 10.392304845413264
120 13.578200630722286 5.624274853868086
120 14.696938456699067 1.7998558638262156e-15
120 13.578200630722288 -5.624274853868083
120 10.392304845413266 -10.392304845413262
120 5.6242748538680924 -13.578200630722282
120 2.6997837957393228e-15 -14.696938456699067
120 -5.624274853868088 -13.578200630722284
120 -10.39230484541326 -10.392304845413266
120 -13.578200630722282 -5.624274853868093
130 0 0
130 -14.309088021254185 0
130 -13.21987355173917 5.475850917987742
130 -10.118053172424032 10.11805317242403
130 -5.475850917987743 13.21987355173917
130 -8.761789421973336e-16 14.309088021254185
130 5.475850917987741 13.21987355173917
130 10.11805317242403 10.118053172424032
130 13.21987355173917 5.475850917987744
130 14.309088021254185 1.7523578843946671e-15
130 13.219873551739171 -5.47585091798774
130 10.118053172424034 -10.11805317242403
130 5.47585091798775 -13.219873551739166
130 2.6285368265920007e-15 -14.309088021254185
130 -5.475850917987746 -13.219873551739168
130 -10.118053172424029 -10.118053172424034
130 -13.219873551739166 -5.475850917987751
140 0 0
140 -13.747727084867522 0
140 -12.701243672260162 5.261027388055614
140 -9.721111047611792 9.72111104761179
140 -5.261027388055614 12.701243672260162
140 -8.418054985017192e-16 13.747727084867522
140 5.261027388055613 12.701243672260162
140 9.72111104761179 9.721111047611792
140 12.701243672260162 5.261027388055615
140 13.747727084867522 1.6836109970034385e-15
140 12.701243672260162 -5.261027388055612
140 9.721111047611794 -9.72111104761179
140 5.261027388055621 -12.701243672260158
140 2.5254164955051575e-15 -13.747727084867522
140 -5.261027388055616 -12.70124367226016
140 -9.721111047611789 -9.721111047611794
140 -12.701243672260158 -5.261027388055622
150 0 0
150 -12.990381056766578 0
150 -12.001547177868982 4.971203610533877
150 -9.185586535436917 9.185586535436917
150 -4.971203610533877 12.001547177868982
150 -7.954314290436801e-16 12.990381056766578
150 4.971203610533876 12.001547177868982
150 9.185586535436917 9.185586535436917
150 12.001547177868982 4.971203610533878
150 12.990381056766578 1.5908628580873602e-15
150 12.001547177868982 -4.971203610533875
150 9.185586535436919 -9.185586535436917
150 4.971203610533884 -12.001547177868979
150 2.3862942871310403e-15 -12.990381056766578
150 -4.9712036105338795 -12.00154717786898
150 -9.185586535436915 -9.185586535436919
150 -12.001547177868979 -4.971203610533884
160 0 0
160 -11.999999999999998 0
160 -11.08655439013544 4.592201188381076
160 -8.48528137423857 8.485281374238568
160 -4.592201188381077 11.08655439013544
160 -7.347880794884118e-16 11.999999999999998
160 4.592201188381076 11.08655439013544
160 8.485281374238568 8.48528137423857
160 11.08655439013544 4.592201188381078
160 11.999999999999998 1.4695761589768236e-15
160 11.08655439013544 -4.592201188381075
160 8.485281374238571 -8.485281374238568
160 4.592201188381083 -11.086554390135436
160 2.2043642384652354e-15 -11.999999999999998
160 -4.592201188381079 -11.086554390135438
160 -8.485281374238568 -8.485281374238571
160 -11.086554390135436 -4.592201188381084
170 0 0
170 -10.712142642814275 0
170 -9.896729337037472 4.09935951453661
170 -7.574628703771559 7.574628703771558
170 -4.099359514536611 9.896729337037472
170 -6.559295599766185e-16 10.712142642814275
170 4.09935951453661 9.896729337037472
170 7.574628703771558 7.574628703771559
170 9.896729337037472 4.099359514536612
170 10.712142642814275 1.311859119953237e-15
170 9.896729337037472 -4.0993595145366095
170 7.57462870377156 -7.574628703771558
170 4.099359514536617 -9.896729337037469
170 1.9677886799298555e-15 -10.712142642814275
170 -4.099359514536613 -9.89672933703747
170 -7.574628703771556 -7.57462870377156
170 -9.896729337037469 -4.0993595145366175
180 0 0
180 -8.999999999999998 0
180 -8.314915792601578 3.4441508912858074
180 -6.363961030678927 6.363961030678926
180 -3.444150891285808 8.314915792601578
180 -5.510910596163089e-16 8.999999999999998
180 3.444150891285807 8.314915792601578
180 6.363961030678926 6.363961030678927
180 8.314915792601578 3.4441508912858083
180 8.999999999999998 1.1021821192326177e-15
180 8.31491579260158 -3.4441508912858065
180 6.363961030678928 -6.363961030678926
180 3.4441508912858123 -8.314915792601576
180 1.6532731788489265e-15 -8.999999999999998
180 -3.444150891285809 -8.314915792601578
180 -6.363961030678925 -6.363961030678928
180 -8.314915792601576 -3.4441508912858128
190 0 0
190 -6.538348415311013 0
190 -6.040646277333451 2.5021176135700642
190 -4.623310502226735 4.623310502226734
190 -2.5021176135700642 6.040646277333451
190 -4.0035837292604007e-16 6.538348415311013
190 2.502117613570064 6.040646277333451
190 4.623310502226734 4.623310502226735
190 6.040646277333451 2.5021176135700647
190 6.538348415311013 8.007167458520801e-16
190 6.040646277333452 -2.5021176135700633
190 4.623310502226736 -4.623310502226734
190 2.502117613570068 -6.04064627733345
190 1.2010751187781202e-15 -6.538348415311013
190 -2.5021176135700656 -6.04064627733345
190 -4.623310502226733 -4.623310502226736
190 -6.04064627733345 -2.5021176135700682
200 0 0
$EndNodes
$Elements
1 1524 1 1524
1 1 1 1524
1 1 2
2 1 3
3 1 4
4 1 5
5 1 6
6 1 7
7 1 8
8 1 9
9 1 10
10 1 11
11 1 12
12 1 13
13 1 14
14 1 15
15 1 16
16 1 17
17 1 18
18 2 3
19 2 4
20 2 5
21 2 6
22 2 7
23 2 8
24 2 9
25 2 10
26 2 11
27 2 12
28 2 13
29 2 14
30 2 15
31 2 16
32 2 17
33 2 18
34 2 19
35 3 4
36 3 18
37 3 20
38 3 21
39 3 35
40 4 5
41 4 20
42 4 21
43 4 22
44 5 6
45 5 21
46 5 22
47 5 23
48 6 7
49 6 22
50 6 23
51 6 24
52 7 8
53 7 23
54 7 24
55 7 25
56 8 9
57 8 24
58 8 25
59 8 26
60 9 10
61 9 25
62 9 26
63 9 27
64 10 11
65 10 26
66 10 27
67 10 28
68 11 12
69 11 27
70 11 28
71 11 29
72 12 13
73 12 28
74 12 29
75 12 30
76 13 14
77 13 29
78 13 30
79 13 31
80 14 15
81 14 30
82 14 31
83 14 32
84 15 16
85 15 31
86 15 32
87 15 33
88 16 17
89 16 32
90 16 33
91 16 34
92 17 18
93 17 33
94 17 34
95 17 35
96 18 20
97 18 34
98 18 35
99 19 20
100 19 21
101 19 22
102 19 23
103 19 24
104 19 25
105 19 26
106 19 27
107 19 28
108 19 29
109 19 30
110 19 31
111 19 32
112 19 33
113 19 34
114 19 35
115 19 36
116 20 21
117 20 35
118 20 37
119 20 38
120 20 52
121 21 22
122 21 37
123 21 38
124 21 39
125 22 23
126 22 38
127 22 39
128 22 40
129 23 24
130 23 39
131 23 40
132 23 41
133 24 25
134 24 40
135 24 41
136 24 42
137 25 26
138 25 41
139 25 42
140 25 43
141 26 27
142 26 42
143 26 43
144 26 44
145 27 28
146 27 43
147 27 44
148 27 45
149 28 29
150 28 44
151 28 45
152 28 46
153 29 30
154 29 45
155 29 46
156 29 47
157 30 31
158 30 46
159 30 47
160 30 48
161 31 32
162 31 47
163 31 48
164 31 49
165 32 33
166 32 48
167 32 49
168 32 50
169 33 34
170 33 49
171 33 50
172 33 51
173 34 35
174 34 50
175 34 51
176 34 52
177 35 37
178 35 51
179 35 52
180 36 37
181 36 38
182 36 39
183 36 40
184 36 41
185 36 42
186 36 43
187 36 44
188 36 45
189 36 46
190 36 47
191 36 48
192 36 49
193 36 50
194 36 51
195 36 52
196 36 53
197 37 38
198 37 52
199 37 54
200 37 55
201 37 69
202 38 39
203 38 54
204 38 55
205 38 56
206 39 40
207 39 55
208 39 56
209 39 57
210 40 41
211 40 56
212 40 57
213 40 58
214 41 42
215 41 57
216 41 58
217 41 59
218 42 43
219 42 58
220 42 59
221 42 60
222 43 44
223 43 59
224 43 60
225 43 61
226 44 45
227 44 60
228 44 61
229 44 62
230 45 46
231 45 61
232 45 62
233 45 63
234 46 47
235 46 62
236 46 63
237 46 64
238 47 48
239 47 63
240 47 64
241 47 65
242 48 49
243 48 64
244 48 65
245 48 66
246 49 50
247 49 65
248 49 66
249 49 67
250 50 51
251 50 66
252 50 67
253 50 68
254 51 52
255 51 67
256 51 68
257 51 69
258 52 54
259 52 68
260 52 69
261 53 54
262 53 55
263 53 56
264 53 57
265 53 58
266 53 59
267 53 60
268 53 61
269 53 62
270 53 63
271 53 64
272 53 65
273 53 66
274 53 67
275 53 68
276 53 69
277 53 70
278 54 55
279 54 69
280 54 71
281 54 72
282 54 86
283 55 56
284 55 71
285 55 72
286 55 73
287 56 57
288 56 72
289 56 73
290 56 74
291 57 58
292 57 73
293 57 74
294 57 75
295 58 59
296 58 74
297 58 75
298 58 76
299 59 60
300 59 75
301 59 76
302 59 77
303 60 61
304 60 76
305 60 77
306 60 78
307 61 62
308 61 77
309 61 78
310 61 79
311 62 63
312 62 78
313 62 79
314 62 80
315 63 64
316 63 79
317 63 80
318 63 81
319 64 65
320 64 80
321 64 81
322 64 82
323 65 66
324 65 81
325 65 82
326 65 83
327 66 67
328 66 82
329 66 83
330 66 84
331 67 68
332 67 83
333 67 84
334 67 85
335 68 69
336 68 84
337 68 85
338 68 86
339 69 71
340 69 85
341 69 86
342 70 71
343 70 72
344 70 73
345 70 74
346 70 75
347 70 76
348 70 77
349 70 78
350 70 79
351 70 80
352 70 81
353 70 82
354 70 83
355 70 84
356 70 85
357 70 86
358 70 87
359 71 72
360 71 86
361 71 88
362 71 89
363 71 103
364 72 73
365 72 88
366 72 89
367 72 90
368 73 74
369 73 89
370 73 90
371 73 91
372 74 75
373 74 90
374 74 91
375 74 92
376 75 76
377 75 91
378 75 92
379 75 93
380 76 77
381 76 92
382 76 93
383 76 94
384 77 78
385 77 93
386 77 94
387 77 95
388 78 79
389 78 94
390 78 95
391 78 96
392 79 80
393 79 95
394 79 96
395 79 97
396 80 81
397 80 96
398 80 97
399 80 98
400 81 82
401 81 97
402 81 98
403 81 99
404 82 83
405 82 98
406 82 99
407 82 100
408 83 84
409 83 99
410 83 100
411 83 101
412 84 85
413 84 100
414 84 101
415 84 102
416 85 86
417 85 101
418 85 102
419 85 103
420 86 88
421 86 102
422 86 103
423 87 88
424 87 89
425 87 90
426 87 91
427 87 92
428 87 93
429 87 94
430 87 95
431 87 96
432 87 97
433 87 98
434 87 99
435 87 100
436 87 101
437 87 102
438 87 103
439 87 104
440 88 89
441 88 103
442 88 105
443 88 106
444 88 120
445 89 90
446 89 105
447 89 106
448 89 107
449 90 91
450 90 106
451 90 107
452 90 108
453 91 92
454 91 107
455 91 108
456 91 109
457 92 93
458 92 108
459 92 109
460 92 110
461 93 94
462 93 109
463 93 110
464 93 111
465 94 95
466 94 110
467 94 111
468 94 112
469 95 96
470 95 111
471 95 112
472 95 113
473 96 97
474 96 112
475 96 113
476 96 114
477 97 98
478 97 113
479 97 114
480 97 115
481 98 99
482 98 114
483 98 115
484 98 116
485 99 100
486 99 115
487 99 116
488 99 117
489 100 101
490 100 116
491 100 117
492 100 118
493 101 102
494 101 117
495 101 118
496 101 119
497 102 103
498 102 118
499 102 119
500 102 120
501 103 105
502 103 119
503 103 120
504 104 105
505 104 106
506 104 107
507 104 108
508 104 109
509 104 110
510 104 111
511 104 112
512 104 113
513 104 114
514 104 115
515 104 116
516 104 117
517 104 118
518 104 119
519 104 120
520 104 121
521 105 106
522 105 120
523 105 122
524 105 123
525 105 137
526 106 107
527 106 122
528 106 123
529 106 124
530 107 108
531 107 123
532 107 124
533 107 125
534 108 109
535 108 124
536 108 125
537 108 126
538 109 110
539 109 125
540 109 126
541 109 127
542 110 111
543 110 126
544 110 127
545 110 128
546 111 112
547 111 127
548 111 128
549 111 129
550 112 113
551 112 128
552 112 129
553 112 130
554 113 114
555 113 129
556 113 130
557 113 131
558 114 115
559 114 130
560 114 131
561 114 132
562 115 116
563 115 131
564 115 132
565 115 133
566 116 117
567 116 132
568 116 133
569 116 134
570 117 118
571 117 133
572 117 134
573 117 135
574 118 119
575 118 134
576 118 135
577 118 136
578 119 120
579 119 135
580 119 136
581 119 137
582 120 122
583 120 136
584 120 137
585 121 122
586 121 123
587 121 124
588 121 125
589 121 126
590 121 127
591 121 128
592 121 129
593 121 130
594 121 131
595 121 132
596 121 133
597 121 134
598 121 135
599 121 136
600 121 137
601 121 138
602 122 123
603 122 137
604 122 139
605 122 140
606 122 154
607 123 124
608 123 139
609 123 140
610 123 141
611 124 125
612 124 140
613 124 141
614 124 142
615 125 126
616 125 141
617 125 142
618 125 143
619 126 127
620 126 142
621 126 143
622 126 144
623 127 128
624 127 143
625 127 144
626 127 145
627 128 129
628 128 144
629 128 145
630 128 146
631 129 130
632 129 145
633 129 146
634 129 147
635 130 131
636 130 146
637 130 147
638 130 148
639 131 132
640 131 147
641 131 148
642 131 149
643 132 133
644 132 148
645 132 149
646 132 150
647 133 134
648 133 149
649 133 150
650 133 151
651 134 135
652 134 150
653 134 151
654 134 152
655 135 136
656 135 151
657 135 152
658 135 153
659 136 137
660 136 152
661 136 153
662 136 154
663 137 139
664 137 153
665 137 154
666 138 139
667 138 140
668 138 141
669 138 142
670 138 143
671 138 144
672 138 145
673 138 146
674 138 147
675 138 148
676 138 149
677 138 150
678 138 151
679 138 152
680 138 153
681 138 154
682 138 155
683 139 140
684 139 154
685 139 156
686 139 157
687 139 171
688 140 141
689 140 156
690 140 157
691 140 158
692 141 142
693 141 157
694 141 158
695 141 159
696 142 143
697 142 158
698 142 159
699 142 160
700 143 144
701 143 159
702 143 160
703 143 161
704 144 145
705 144 160
706 144 161
707 144 162
708 145 146
709 145 161
710 145 162
711 145 163
712 146 147
713 146 162
714 146 163
715 146 164
716 147 148
717 147 163
718 147 164
719 147 165
720 148 149
721 148 164
722 148 165
723 148 166
724 149 150
725 149 165
726 149 166
727 149 167
728 150 151
729 150 166
730 150 167
731 150 168
732 151 152
733 151 167
734 151 168
735 151 169
736 152 153
737 152 168
738 152 169
739 152 170
740 153 154
741 153 169
742 153 170
743 153 171
744 154 156
745 154 170
746 154 171
747 155 156
748 155 157
749 155 158
750 155 159
751 155 160
752 155 161
753 155 162
754 155 163
755 155 164
756 155 165
757 155 166
758 155 167
759 155 168
760 155 169
761 155 170
762 155 171
763 155 172
764 156 157
765 156 171
766 156 173
767 156 174
768 156 188
769 157 158
770 157 173
771 157 174
772 157 175
773 158 159
774 158 174
775 158 175
776 158 176
777 159 160
778 159 175
779 159 176
780 159 177
781 160 161
782 160 176
783 160 177
784 160 178
785 161 162
786 161 177
787 161 178
788 161 179
789 162 163
790 162 178
791 162 179
792 162 180
793 163 164
794 163 179
795 163 180
796 163 181
797 164 165
798 164 180
799 164 181
800 164 182
801 165 166
802 165 181
803 165 182
804 165 183
805 166 167
806 166 182
807 166 183
808 166 184
809 167 168
810 167 183
811 167 184
812 167 185
813 168 169
814 168 184
815 168 185
816 168 186
817 169 170
818 169 185
819 169 186
820 169 187
821 170 171
822 170 186
823 170 187
824 170 188
825 171 173
826 171 187
827 171 188
828 172 173
829 172 174
830 172 175
831 172 176
832 172 177
833 172 178
834 172 179
835 172 180
836 172 181
837 172 182
838 172 183
839 172 184
840 172 185
841 172 186
842 172 187
843 172 188
844 172 189
845 173 174
846 173 188
847 173 190
848 173 191
849 173 205
850 174 175
851 174 190
852 174 191
853 174 192
854 175 176
855 175 191
856 175 192
857 175 193
858 176 177
859 176 192
860 176 193
861 176 194
862 177 178
863 177 193
864 177 194
865 177 195
866 178 179
867 178 194
868 178 195
869 178 196
870 179 180
871 179 195
872 179 196
873 179 197
874 180 181
875 180 196
876 180 197
877 180 198
878 181 182
879 181 197
880 181 198
881 181 199
882 182 183
883 182 198
884 182 199
885 182 200
886 183 184
887 183 199
888 183 200
889 183 201
890 184 185
891 184 200
892 184 201
893 184 202
894 185 186
895 185 201
896 185 202
897 185 203
898 186 187
899 186 202
900 186 203
901 186 204
902 187 188
903 187 203
904 187 204
905 187 205
906 188 190
907 188 204
908 188 205
909 189 190
910 189 191
911 189 192
912 189 193
913 189 194
914 189 195
915 189 196
916 189 197
917 189 198
918 189 199
919 189 200
920 189 201
921 189 202
922 189 203
923 189 204
924 189 205
925 189 206
926 190 191
927 190 205
928 190 207
929 190 208
930 190 222
931 191 192
932 191 207
933 191 208
934 191 209
935 192 193
936 192 208
937 192 209
938 192 210
939 193 194
940 193 209
941 193 210
942 193 211
943 194 195
944 194 210
945 194 211
946 194 212
947 195 196
948 195 211
949 195 212
950 195 213
951 196 197
952 196 212
953 196 213
954 196 214
955 197 198
956 197 213
957 197 214
958 197 215
959 198 199
960 198 214
961 198 215
962 198 216
963 199 200
964 199 215
965 199 216
966 199 217
967 200 201
968 200 216
969 200 217
970 200 218
971 201 202
972 201 217
973 201 218
974 201 219
975 202 203
976 202 218
977 202 219
978 202 220
979 203 204
980 203 219
981 203 220
982 203 221
983 204 205
984 204 220
985 204 221
986 204 222
987 205 207
988 205 221
989 205 222
990 206 207
991 206 208
992 206 209
993 206 210
994 206 211
995 206 212
996 206 213
997 206 214
998 206 215
999 206 216
1000 206 217
1001 206 218
1002 206 219
1003 206 220
1004 206 221
1005 206 222
1006 206 223
1007 207 208
1008 207 222
1009 207 224
1010 207 225
1011 207 239
1012 208 209
1013 208 224
1014 208 225
1015 208 226
1016 209 210
1017 209 225
1018 209 226
1019 209 227
1020 210 211
1021 210 226
1022 210 227
1023 210 228
1024 211 212
1025 211 227
1026 211 228
1027 211 229
1028 212 213
1029 212 228
1030 212 229
1031 212 230
1032 213 214
1033 213 229
1034 213 230
1035 213 231
1036 214 215
1037 214 230
1038 214 231
1039 214 232
1040 215 216
1041 215 231
1042 215 232
1043 215 233
1044 216 217
1045 216 232
1046 216 233
1047 216 234
1048 217 218
1049 217 233
1050 217 234
1051 217 235
1052 218 219
1053 218 234
1054 218 235
1055 218 236
1056 219 220
1057 219 235
1058 219 236
1059 219 237
1060 220 221
1061 220 236
1062 220 237
1063 220 238
1064 221 222
1065 221 237
1066 221 238
1067 221 239
1068 222 224
1069 222 238
1070 222 239
1071 223 224
1072 223 225
1073 223 226
1074 223 227
1075 223 228
1076 223 229
1077 223 230
1078 223 231
1079 223 232
1080 223 233
1081 223 234
1082 223 235
1083 223 236
1084 223 237
1085 223 238
1086 223 239
1087 223 240
1088 224 225
1089 224 239
1090 224 241
1091 224 242
1092 224 256
1093 225 226
1094 225 241
1095 225 242
1096 225 243
1097 226 227
1098 226 242
1099 226 243
1100 226 244
1101 227 228
1102 227 243
1103 227 244
1104 227 245
1105 228 229
1106 228 244
1107 228 245
1108 228 246
1109 229 230
1110 229 245
1111 229 246
1112 229 247
1113 230 231
1114 230 246
1115 230 247
1116 230 248
1117 231 232
1118 231 247
1119 231 248
1120 231 249
1121 232 233
1122 232 248
1123 232 249
1124 232 250
1125 233 234
1126 233 249
1127 233 250
1128 233 251
1129 234 235
1130 234 250
1131 234 251
1132 234 252
1133 235 236
1134 235 251
1135 235 252
1136 235 253
1137 236 237
1138 236 252
1139 236 253
1140 236 254
1141 237 238
1142 237 253
1143 237 254
1144 237 255
1145 238 239
1146 238 254
1147 238 255
1148 238 256
1149 239 241
1150 239 255
1151 239 256
1152 240 241
1153 240 242
1154 240 243
1155 240 244
1156 240 245
1157 240 246
1158 240 247
1159 240 248
1160 240 249
1161 240 250
1162 240 251
1163 240 252
1164 240 253
1165 240 254
1166 240 255
1167 240 256
1168 240 257
1169 241 242
1170 241 256
1171 241 258
1172 241 259
1173 241 273
1174 242 243
1175 242 258
1176 242 259
1177 242 260
1178 243 244
1179 243 259
1180 243 260
1181 243 261
1182 244 245
1183 244 260
1184 244 261
1185 244 262
1186 245 246
1187 245 261
1188 245 262
1189 245 263
1190 246 247
1191 246 262
1192 246 263
1193 246 264
1194 247 248
1195 247 263
1196 247 264
1197 247 265
1198 248 249
1199 248 264
1200 248 265
1201 248 266
1202 249 250
1203 249 265
1204 249 266
1205 249 267
1206 250 251
1207 250 266
1208 250 267
1209 250 268
1210 251 252
1211 251 267
1212 251 268
1213 251 269
1214 252 253
1215 252 268
1216 252 269
1217 252 270
1218 253 254
1219 253 269
1220 253 270
1221 253 271
1222 254 255
1223 254 270
1224 254 271
1225 254 272
1226 255 256
1227 255 271
1228 255 272
1229 255 273
1230 256 258
1231 256 272
1232 256 273
1233 257 258
1234 257 259
1235 257 260
1236 257 261
1237 257 262
1238 257 263
1239 257 264
1240 257 265
1241 257 266
1242 257 267
1243 257 268
1244 257 269
1245 257 270
1246 257 271
1247 257 272
1248 257 273
1249 257 274
1250 258 259
1251 258 273
1252 258 275
1253 258 276
1254 258 290
1255 259 260
1256 259 275
1257 259 276
1258 259 277
1259 260 261
1260 260 276
1261 260 277
1262 260 278
1263 261 262
1264 261 277
1265 261 278
1266 261 279
1267 262 263
1268 262 278
1269 262 279
1270 262 280
1271 263 264
1272 263 279
1273 263 280
1274 263 281
1275 264 265
1276 264 280
1277 264 281
1278 264 282
1279 265 266
1280 265 281
1281 265 282
1282 265 283
1283 266 267
1284 266 282
1285 266 283
1286 266 284
1287 267 268
1288 267 283
1289 267 284
1290 267 285
1291 268 269
1292 268 284
1293 268 285
1294 268 286
1295 269 270
1296 269 285
1297 269 286
1298 269 287
1299 270 271
1300 270 286
1301 270 287
1302 270 288
1303 271 272
1304 271 287
1305 271 288
1306 271 289
1307 272 273
1308 272 288
1309 272 289
1310 272 290
1311 273 275
1312 273 289
1313 273 290
1314 274 275
1315 274 276
1316 274 277
1317 274 278
1318 274 279
1319 274 280
1320 274 281
1321 274 282
1322 274 283
1323 274 284
1324 274 285
1325 274 286
1326 274 287
1327 274 288
1328 274 289
1329 274 290
1330 274 291
1331 275 276
1332 275 290
1333 275 292
1334 275 293
1335 275 307
1336 276 277
1337 276 292
1338 276 293
1339 276 294
1340 277 278
1341 277 293
1342 277 294
1343 277 295
1344 278 279
1345 278 294
1346 278 295
1347 278 296
1348 279 280
1349 279 295
1350 279 296
1351 279 297
1352 280 281
1353 280 296
1354 280 297
1355 280 298
1356 281 282
1357 281 297
1358 281 298
1359 281 299
1360 282 283
1361 282 298
1362 282 299
1363 282 300
1364 283 284
1365 283 299
1366 283 300
1367 283 301
1368 284 285
1369 284 300
1370 284 301
1371 284 302
1372 285 286
1373 285 301
1374 285 302
1375 285 303
1376 286 287
1377 286 302
1378 286 303
1379 286 304
1380 287 288
1381 287 303
1382 287 304
1383 287 305
1384 288 289
1385 288 304
1386 288 305
1387 288 306
1388 289 290
1389 289 305
1390 289 306
1391 289 307
1392 290 292
1393 290 306
1394 290 307
1395 291 292
1396 291 293
1397 291 294
1398 291 295
1399 291 296
1400 291 297
1401 291 298
1402 291 299
1403 291 300
1404 291 301
1405 291 302
1406 291 303
1407 291 304
1408 291 305
1409 291 306
1410 291 307
1411 291 308
1412 292 293
1413 292 307
1414 292 309
1415 292 310
1416 292 324
1417 293 294
1418 293 309
1419 293 310
1420 293 311
1421 294 295
1422 294 310
1423 294 311
1424 294 312
1425 295 296
1426 295 311
1427 295 312
1428 295 313
1429 296 297
1430 296 312
1431 296 313
1432 296 314
1433 297 298
1434 297 313
1435 297 314
1436 297 315
1437 298 299
1438 298 314
1439 298 315
1440 298 316
1441 299 300
1442 299 315
1443 299 316
1444 299 317
1445 300 301
1446 300 316
1447 300 317
1448 300 318
1449 301 302
1450 301 317
1451 301 318
1452 301 319
1453 302 303
1454 302 318
1455 302 319
1456 302 320
1457 303 304
1458 303 319
1459 303 320
1460 303 321
1461 304 305
1462 304 320
1463 304 321
1464 304 322
1465 305 306
1466 305 321
1467 305 322
1468 305 323
1469 306 307
1470 306 322
1471 306 323
1472 306 324
1473 307 309
1474 307 323
1475 307 324
1476 308 309
1477 308 310
1478 308 311
1479 308 312
1480 308 313
1481 308 314
1482 308 315
1483 308 316
1484 308 317
1485 308 318
1486 308 319
1487 308 320
1488 308 321
1489 308 322
1490 308 323
1491 308 324
1492 308 325
1493 309 310
1494 309 324
1495 309 325
1496 310 311
1497 310 325
1498 311 312
1499 311 325
1500 312 313
1501 312 325
1502 313 314
1503 313 325
1504 314 315
1505 314 325
1506 315 316
1507 315 325
1508 316 317
1509 316 325
1510 317 318
1511 317 325
1512 318 319
1513 318 325
1514 319 320
1515 319 325
1516 320 321
1517 320 325
1518 321 322
1519 321 325
1520 322 323
1521 322 325
1522 323 324
1523 323 325
1524 324 325
$EndElements
$NodeData
1
"Fixity"
1
0
3
0
3
325
1 1 1 1
2 0 0 0
3 0 0 0
4 0 0 0
5 0 0 0
6 0 0 0
7 0 0 0
8 0 0 0
9 0 0 0
10 0 0 0
11 0 0 0
12 0 0 0
13 0 0 0
14 0 0 0
15 0 0 0
16 0 0 0
17 0 0 0
18 0 0 0
19 0 0 0
20 0 0 0
21 0 0 0
22 0 0 0
23 0 0 0
24 0 0 0
25 0 0 0
26 0 0 0
27 0 0 0
28 0 0 0
29 0 0 0
30 0 0 0
31 0 0 0
32 0 0 0
33 0 0 0
34 0 0 0
35 0 0 0
36 0 0 0
37 0 0 0
38 0 0 0
39 0 0 0
40 0 0 0
41 0 0 0
42 0 0 0
43 0 0 0
44 0 0 0
45 0 0 0
46 0 0 0
47 0 0 0
48 0 0 0
49 0 0 0
50 0 0 0
51 0 0 0
52 0 0 0
53 0 0 0
54 0 0 0
55 0 0 0
56 0 0 0
57 0 0 0
58 0 0 0
59 0 0 0
60 0 0 0
61 0 0 0
62 0 0 0
63 0 0 0
64 0 0 0
65 0 0 0
66 0 0 0
67 0 0 0
68 0 0 0
69 0 0 0
70 0 0 0
71 0 0 0
72 0 0 0
73 0 0 0
74 0 0 0
75 0 0 0
76 0 0 0
77 0 0 0
78 0 0 0
79 0 0 0
80 0 0 0
81 0 0 0
82 0 0 0
83 0 0 0
84 0 0 0
85 0 0 0
86 0 0 0
87 0 0 0
88 0 0 0
89 0 0 0
90 0 0 0
91 0 0 0
92 0 0 0
93 0 0 0
94 0 0 0
95 0 0 0
96 0 0 0
97 0 0 0
98 0 0 0
99 0 0 0
100 0 0 0
101 0 0 0
102 0 0 0
103 0 0 0
104 0 0 0
105 0 0 0
106 0 0 0
107 0 0 0
108 0 0 0
109 0 0 0
110 0 0 0
111 0 0 0
112 0 0 0
113 0 0 0
114 0 0 0
115 0 0 0
116 0 0 0
117 0 0 0
118 0 0 0
119 0 0 0
120 0 0 0
121 0 0 0
122 0 0 0
123 0 0 0
124 0 0 0
125 0 0 0
126 0 0 0
127 0 0 0
128 0 0 0
129 0 0 0
130 0 0 0
131 0 0 0
132 0 0 0
133 0 0 0
134 0 0 0
135 0 0 0
136 0 0 0
137 0 0 0
138 0 0 0
139 0 0 0
140 0 0 0
141 0 0 0
142 0 0 0
143 0 0 0
144 0 0 0
145 0 0 0
146 0 0 0
147 0 0 0
148 0 0 0
149 0 0 0
150 0 0 0
151 0 0 0
152 0 0 0
153 0 0 0
154 0 0 0
155 0 0 0
156 0 0 1
157 0 0 0
158 0 0 0
159 0 0 0
160 0 0 0
161 0 0 0
162 0 0 0
163 0 0 0
164 0 0 0
165 0 0 0
166 0 0 0
167 0 0 0
168 0 0 0
169 0 0 0
170 0 0 0
171 0 0 0
172 0 0 0
173 0 0 0
174 0 0 0
175 0 0 0
176 0 0 0
177 0 0 0
178 0 0 0
179 0 0 0
180 0 0 0
181 0 0 0
182 0 0 0
183 0 0 0
184 0 0 0
185 0 0 0
186 0 0 0
187 0 0 0
188 0 0 0
189 0 0 0
190 0 0 0
191 0 0 0
192 0 0 0
193 0 0 0
194 0 0 0
195 0 0 0
196 0 0 0
197 0 0 0
198 0 0 0
199 0 0 0
200 0 0 0
201 0 0 0
202 0 0 0
203 0 0 0
204 0 0 0
205 0 0 0
206 0 0 0
207 0 0 0
208 0 0 0
209 0 0 0
210 0 0 0
211 0 0 0
212 0 0 0
213 0 0 0
214 0 0 0
215 0 0 0
216 0 0 0
217 0 0 0
218 0 0 0
219 0 0 0
220 0 0 0
221 0 0 0
222 0 0 0
223 0 0 0
224 0 0 0
225 0 0 0
226 0 0 0
227 0 0 0
228 0 0 0
229 0 0 0
230 0 0 0
231 0 0 0
232 0 0 0
233 0 0 0
234 0 0 0
235 0 0 0
236 0 0 0
237 0 0 0
238 0 0 0
239 0 0 0
240 0 0 0
241 0 0 0
242 0 0 0
243 0 0 0
244 0 0 0
245 0 0 0
246 0 0 0
247 0 0 0
248 0 0 0
249 0 0 0
250 0 0 0
251 0 0 0
252 0 0 0
253 0 0 0
254 0 0 0
255 0 0 0
256 0 0 0
257 0 0 0
258 0 0 0
259 0 0 0
260 0 0 0
261 0 0 0
262 0 0 0
263 0 0 0
264 0 0 0
265 0 0 0
266 0 0 0
267 0 0 0
268 0 0 0
269 0 0 0
270 0 0 0
271 0 0 0
272 0 0 0
273 0 0 0
274 0 0 0
275 0 0 0
276 0 0 0
277 0 0 0
278 0 0 0
279 0 0 0
280 0 0 0
281 0 0 0
282 0 0 0
283 0 0 0
284 0 0 0
285 0 0 0
286 0 0 0
287 0 0 0
288 0 0 0
289 0 0 0
290 0 0 0
291 0 0 0
292 0 0 0
293 0 0 0
294 0 0 0
295 0 0 0
296 0 0 0
297 0 0 0
298 0 0 0
299 0 0 0
300 0 0 0
301 0 0 0
302 0 0 0
303 0 0 0
304 0 0 0
305 0 0 0
306 0 0 0
307 0 0 0
308 0 0 0
309 0 0 0
310 0 0 0
311 0 0 0
312 0 0 0
313 0 0 0
314 0 0 0
315 0 0 0
316 0 0 0
317 0 0 0
318 0 0 0
319 0 0 0
320 0 0 0
321 0 0 0
322 0 0 0
323 0 0 0
324 0 0 0
325 0 1 1
$EndNodeData
$NodeData
1
"NodalForce"
1
0
3
0
3
325
1 0 0 0
2 0 0 0
3 0 0 0
4 0 0 0
5 0 0 0
6 0 0 0
7 0 0 0
8 0 2205.8816185398346 0
9 0 2205.8816185398346 0
10 0 2205.8816185398346 0
11 0 2205.8816185398346 0
12 0 2205.8816185398346 0
13 0 2205.8816185398346 0
14 0 2205.8816185398346 0
15 0 0 0
16 0 0 0
17 0 0 0
18 0 0 0
19 0 0 0
20 0 -12959.812024385912 0
21 0 -12959.812024385912 0
22 0 0 0
23 0 0 0
24 0 0 0
25 0 3906.270229277281 0
26 0 3906.270229277281 0
27 0 3906.270229277281 0
28 0 3906.270229277281 0
29 0 3906.270229277281 0
30 0 3906.270229277281 0
31 0 3906.270229277281 0
32 0 0 0
33 0 0 0
34 0 0 0
35 0 -12959.812024385912 0
36 0 0 0
37 0 -32573.11202438591 0
38 0 -12959.812024385912 0
39 0 0 0
40 0 0 0
41 0 0 0
42 0 5590.542629846056 0
43 0 5590.542629846056 0
44 0 5590.542629846056 0
45 0 5590.542629846056 0
46 0 5590.542629846056 0
47 0 5590.542629846056 0
48 0 5590.542629846056 0
49 0 0 0
50 0 0 0
51 0 0 0
52 0 -12959.812024385912 0
53 0 0 0
54 0 -32573.11202438591 0
55 0 -12959.812024385912 0
56 0 0 0
57 0 0 0
58 0 0 0
59 0 7042.57791139116 0
60 0 7042.57791139116 0
61 0 7042.57791139116 0
62 0 7042.57791139116 0
63 0 7042.57791139116 0
64 0 7042.57791139116 0
65 0 7042.57791139116 0
66 0 0 0
67 0 0 0
68 0 0 0
69 0 -12959.812024385912 0
70 0 0 0
71 0 -12959.812024385912 0
72 0 -12959.812024385912 0
73 0 0 0
74 0 0 0
75 0 0 0
76 0 8268.896748395526 0
77 0 8268.896748395526 0
78 0 8268.896748395526 0
79 0 8268.896748395526 0
80 0 8268.896748395526 0
81 0 8268.896748395526 0
82 0 8268.896748395526 0
83 0 0 0
84 0 0 0
85 0 0 0
86 0 -12959.812024385912 0
87 0 0 0
88 0 -12959.812024385912 0
89 0 -12959.812024385912 0
90 0 0 0
91 0 -24516.624999999996 0
92 0 0 0
93 0 9271.33521145833 0
94 0 9271.33521145833 0
95 0 9271.33521145833 0
96 0 9271.33521145833 0
97 0 9271.33521145833 0
98 0 9271.33521145833 0
99 0 9271.33521145833 0
100 0 0 0
101 0 -24516.624999999996 0
102 0 0 0
103 0 -12959.812024385912 0
104 0 0 0
105 0 -12959.812024385912 0
106 0 -12959.812024385912 0
107 0 0 0
108 0 0 0
109 0 0 0
110 0 10050.620207870288 0
111 0 10050.620207870288 0
112 0 10050.620207870288 0
113 0 10050.620207870288 0
114 0 10050.620207870288 0
115 0 10050.620207870288 0
116 0 10050.620207870288 0
117 0 0 0
118 0 0 0
119 0 0 0
120 0 -12959.812024385912 0
121 0 0 0
122 0 -12959.812024385912 0
123 0 -12959.812024385912 0
124 0 0 0
125 0 0 0
126 0 0 0
127 0 10607.091711197265 0
128 0 10607.091711197265 0
129 0 10607.091711197265 0
130 0 10607.091711197265 0
131 0 10607.091711197265 0
132 0 10607.091711197265 0
133 0 10607.091711197265 0
134 0 0 0
135 0 0 0
136 0 0 0
137 0 -12959.812024385912 0
138 0 0 0
139 0 -12959.812024385912 0
140 0 -12959.812024385912 0
141 0 0 0
142 0 0 0
143 0 0 0
144 0 10940.92053350432 0
145 0 10940.92053350432 0
146 0 10940.92053350432 0
147 0 10940.92053350432 0
148 0 10940.92053350432 0
149 0 10940.92053350432 0
150 0 10940.92053350432 0
151 0 0 0
152 0 0 0
153 0 0 0
154 0 -12959.812024385912 0
155 0 0 0
156 0 -12959.812024385912 0
157 0 -12959.812024385912 0
158 0 0 0
159 0 0 0
160 0 0 0
161 0 11052.188639806272 0
162 0 11052.188639806272 0
163 0 11052.188639806272 0
164 0 11052.188639806272 0
165 0 11052.188639806272 0
166 0 11052.188639806272 0
167 0 11052.188639806272 0
168 0 0 0
169 0 0 0
170 0 0 0
171 0 -12959.812024385912 0
172 0 0 0
173 0 -12959.812024385912 0
174 0 -12959.812024385912 0
175 0 0 0
176 0 -24516.624999999996 0
177 0 0 0
178 0 10940.920533504319 0
179 0 10940.920533504319 0
180 0 10940.920533504319 0
181 0 10940.920533504319 0
182 0 10940.920533504319 0
183 0 10940.920533504319 0
184 0 10940.920533504319 0
185 0 0 0
186 0 -24516.624999999996 0
187 0 0 0
188 0 -12959.812024385912 0
189 0 0 0
190 0 -12959.812024385912 0
191 0 -12959.812024385912 0
192 0 0 0
193 0 0 0
194 0 0 0
195 0 10607.091711197256 0
196 0 10607.091711197256 0
197 0 10607.091711197256 0
198 0 10607.091711197256 0
199 0 10607.091711197256 0
200 0 10607.091711197256 0
201 0 10607.091711197256 0
202 0 0 0
203 0 0 0
204 0 0 0
205 0 -12959.812024385912 0
206 0 0 0
207 0 -12959.812024385912 0
208 0 -12959.812024385912 0
209 0 0 0
210 0 0 0
211 0 0 0
212 0 10050.620207870292 0
213 0 10050.620207870292 0
214 0 10050.620207870292 0
215 0 10050.620207870292 0
216 0 10050.620207870292 0
217 0 10050.620207870292 0
218 0 10050.620207870292 0
219 0 0 0
220 0 0 0
221 0 0 0
222 0 -12959.812024385912 0
223 0 0 0
224 0 -12959.812024385912 0
225 0 -12959.812024385912 0
226 0 0 0
227 0 0 0
228 0 0 0
229 0 9271.335211458334 0
230 0 9271.335211458334 0
231 0 9271.335211458334 0
232 0 9271.335211458334 0
233 0 9271.335211458334 0
234 0 9271.335211458334 0
235 0 9271.335211458334 0
236 0 0 0
237 0 0 0
238 0 0 0
239 0 -12959.812024385912 0
240 0 0 0
241 0 -12959.812024385912 0
242 0 -12959.812024385912 0
243 0 0 0
244 0 0 0
245 0 0 0
246 0 8268.896748395526 0
247 0 8268.896748395526 0
248 0 8268.896748395526 0
249 0 8268.896748395526 0
250 0 8268.896748395526 0
251 0 8268.896748395526 0
252 0 8268.896748395526 0
253 0 0 0
254 0 0 0
255 0 0 0
256 0 -12959.812024385912 0
257 0 0 0
258 0 -37476.43702438591 0
259 0 -12959.812024385912 0
260 0 0 0
261 0 0 0
262 0 0 0
263 0 7042.577911391158 0
264 0 7042.577911391158 0
265 0 7042.577911391158 0
266 0 7042.577911391158 0
267 0 7042.577911391158 0
268 0 7042.577911391158 0
269 0 7042.577911391158 0
270 0 0 0
271 0 0 0
272 0 0 0
273 0 -12959.812024385912 0
274 0 0 0
275 0 -12959.812024385912 0
276 0 -12959.812024385912 0
277 0 0 0
278 0 0 0
279 0 0 0
280 0 5590.542629846056 0
281 0 5590.542629846056 0
282 0 5590.542629846056 0
283 0 5590.542629846056 0
284 0 5590.542629846056 0
285 0 5590.542629846056 0
286 0 5590.542629846056 0
287 0 0 0
288 0 0 0
289 0 0 0
290 0 -12959.812024385912 0
291 0 0 0
292 0 -12959.812024385912 0
293 0 -12959.812024385912 0
294 0 0 0
295 0 0 0
296 0 0 0
297 0 3906.270229277282 0
298 0 3906.270229277282 0
299 0 3906.270229277282 0
300 0 3906.270229277282 0
301 0 3906.270229277282 0
302 0 3906.270229277282 0
303 0 3906.270229277282 0
304 0 0 0
305 0 0 0
306 0 0 0
307 0 -12959.812024385912 0
308 0 0 0
309 0 0 0
310 0 0 0
311 0 0 0
312 0 0 0
313 0 0 0
314 0 2205.881618539836 0
315 0 2205.881618539836 0
316 0 2205.881618539836 0
317 0 2205.881618539836 0
318 0 2205.881618539836 0
319 0 2205.881618539836 0
320 0 2205.881618539836 0
321 0 0 0
322 0 0 0
323 0 0 0
324 0 0 0
325 0 0 0
$EndNodeData
$ElementData
1
"CrossSectionArea"
1
0
3
0
1
1524
1 0.0006000000000000001
2 0.0012000000000000001
3 0.0012000000000000001
4 0.0012000000000000001
5 0.0012000000000000001
6 0.0012000000000000001
7 0.0012000000000000001
8 0.0012000000000000001
9 0.0012000000000000001
10 0.0012000000000000001
11 0.0012000000000000001
12 0.0012000000000000001
13 0.0012000000000000001
14 0.0012000000000000001
15 0.0012000000000000001
16 0.0012000000000000001
17 0.0012000000000000001
18 2e-04
19 2e-04
20 2e-04
21 2e-04
22 2e-04
23 2e-04
24 2e-04
25 2e-04
26 2e-04
27 2e-04
28 2e-04
29 2e-04
30 2e-04
31 2e-04
32 2e-04
33 2e-04
34 0.0006000000000000001
35 0.0012000000000000001
36 0.0012000000000000001
37 0.0012000000000000001
38 0.00015000000000000001
39 0.00015000000000000001
40 0.0012000000000000001
41 0.00015000000000000001
42 0.0012000000000000001
43 0.00015000000000000001
44 0.0012000000000000001
45 0.00015000000000000001
46 0.0012000000000000001
47 0.00015000000000000001
48 0.0012000000000000001
49 0.00015000000000000001
50 0.0012000000000000001
51 0.00015000000000000001
52 0.0012000000000000001
53 0.00015000000000000001
54 0.0012000000000000001
55 0.00015000000000000001
56 0.0012000000000000001
57 0.00015000000000000001
58 0.0012000000000000001
59 0.00015000000000000001
60 0.0012000000000000001
61 0.00015000000000000001
62 0.0012000000000000001
63 0.00015000000000000001
64 0.0012000000000000001
65 0.00015000000000000001
66 0.0012000000000000001
67 0.00015000000000000001
68 0.0012000000000000001
69 0.00015000000000000001
70 0.0012000000000000001
71 0.00015000000000000001
72 0.0012000000000000001
73 0.00015000000000000001
74 0.0012000000000000001
75 0.00015000000000000001
76 0.0012000000000000001
77 0.00015000000000000001
78 0.0012000000000000001
79 0.00015000000000000001
80 0.0012000000000000001
81 0.00015000000000000001
82 0.0012000000000000001
83 0.00015000000000000001
84 0.0012000000000000001
85 0.00015000000000000001
86 0.0012000000000000001
87 0.00015000000000000001
88 0.0012000000000000001
89 0.00015000000000000001
90 0.0012000000000000001
91 0.00015000000000000001
92 0.0012000000000000001
93 0.00015000000000000001
94 0.0012000000000000001
95 0.00015000000000000001
96 0.00015000000000000001
97 0.00015000000000000001
98 0.0012000000000000001
99 2e-04
100 2e-04
101 2e-04
102 2e-04
103 2e-04
104 2e-04
105 2e-04
106 2e-04
107 2e-04
108 2e-04
109 2e-04
110 2e-04
111 2e-04
112 2e-04
113 2e-04
114 2e-04
115 0.0006000000000000001
116 0.0012000000000000001
117 0.0012000000000000001
118 0.0012000000000000001
119 0.00015000000000000001
120 0.00015000000000000001
121 0.0012000000000000001
122 0.00015000000000000001
123 0.0012000000000000001
124 0.00015000000000000001
125 0.0012000000000000001
126 0.00015000000000000001
127 0.0012000000000000001
128 0.00015000000000000001
129 0.0012000000000000001
130 0.00015000000000000001
131 0.0012000000000000001
132 0.00015000000000000001
133 0.0012000000000000001
134 0.00015000000000000001
135 0.0012000000000000001
136 0.00015000000000000001
137 0.0012000000000000001
138 0.00015000000000000001
139 0.0012000000000000001
140 0.00015000000000000001
141 0.0012000000000000001
142 0.00015000000000000001
143 0.0012000000000000001
144 0.00015000000000000001
145 0.0012000000000000001
146 0.00015000000000000001
147 0.0012000000000000001
148 0.00015000000000000001
149 0.0012000000000000001
150 0.00015000000000000001
151 0.0012000000000000001
152 0.00015000000000000001
153 0.0012000000000000001
154 0.00015000000000000001
155 0.0012000000000000001
156 0.00015000000000000001
157 0.0012000000000000001
158 0.00015000000000000001
159 0.0012000000000000001
160 0.00015000000000000001
161 0.0012000000000000001
162 0.00015000000000000001
163 0.0012000000000000001
164 0.00015000000000000001
165 0.0012000000000000001
166 0.00015000000000000001
167 0.0012000000000000001
168 0.00015000000000000001
169 0.0012000000000000001
170 0.00015000000000000001
171 0.0012000000000000001
172 0.00015000000000000001
173 0.0012000000000000001
174 0.00015000000000000001
175 0.0012000000000000001
176 0.00015000000000000001
177 0.00015000000000000001
178 0.00015000000000000001
179 0.0012000000000000001
180 2e-04
181 2e-04
182 2e-04
183 2e-04
184 2e-04
185 2e-04
186 2e-04
187 2e-04
188 2e-04
189 2e-04
190 2e-04
191 2e-04
192 2e-04
193 2e-04
194 2e-04
195 2e-04
196 0.0006000000000000001
197 0.0012000000000000001
198 0.0012000000000000001
199 0.0012000000000000001
200 0.00015000000000000001
201 0.00015000000000000001
202 0.0012000000000000001
203 0.00015000000000000001
204 0.0012000000000000001
205 0.00015000000000000001
206 0.0012000000000000001
207 0.00015000000000000001
208 0.0012000000000000001
209 0.00015000000000000001
210 0.0012000000000000001
211 0.00015000000000000001
212 0.0012000000000000001
213 0.00015000000000000001
214 0.0012000000000000001
215 0.00015000000000000001
216 0.0012000000000000001
217 0.00015000000000000001
218 0.0012000000000000001
219 0.00015000000000000001
220 0.0012000000000000001
221 0.00015000000000000001
222 0.0012000000000000001
223 0.00015000000000000001
224 0.0012000000000000001
225 0.00015000000000000001
226 0.0012000000000000001
227 0.00015000000000000001
228 0.0012000000000000001
229 0.00015000000000000001
230 0.0012000000000000001
231 0.00015000000000000001
232 0.0012000000000000001
233 0.00015000000000000001
234 0.0012000000000000001
235 0.00015000000000000001
236 0.0012000000000000001
237 0.00015000000000000001
238 0.0012000000000000001
239 0.00015000000000000001
240 0.0012000000000000001
241 0.00015000000000000001
242 0.0012000000000000001
243 0.00015000000000000001
244 0.0012000000000000001
245 0.00015000000000000001
246 0.0012000000000000001
247 0.00015000000000000001
248 0.0012000000000000001
249 0.00015000000000000001
250 0.0012000000000000001
251 0.00015000000000000001
252 0.0012000000000000001
253 0.00015000000000000001
254 0.0012000000000000001
255 0.00015000000000000001
256 0.0012000000000000001
257 0.00015000000000000001
258 0.00015000000000000001
259 0.00015000000000000001
260 0.0012000000000000001
261 2e-04
262 2e-04
263 2e-04
264 2e-04
265 2e-04
266 2e-04
267 2e-04
268 2e-04
269 2e-04
270 2e-04
271 2e-04
272 2e-04
273 2e-04
274 2e-04
275 2e-04
276 2e-04
277 0.0006000000000000001
278 0.0012000000000000001
279 0.0012000000000000001
280 0.0012000000000000001
281 0.00015000000000000001
282 0.00015000000000000001
283 0.0012000000000000001
284 0.00015000000000000001
285 0.0012000000000000001
286 0.00015000000000000001
287 0.0012000000000000001
288 0.00015000000000000001
289 0.0012000000000000001
290 0.00015000000000000001
291 0.0012000000000000001
292 0.00015000000000000001
293 0.0012000000000000001
294 0.00015000000000000001
295 0.0012000000000000001
296 0.00015000000000000001
297 0.0012000000000000001
298 0.00015000000000000001
299 0.0012000000000000001
300 0.00015000000000000001
301 0.0012000000000000001
302 0.00015000000000000001
303 0.0012000000000000001
304 0.00015000000000000001
305 0.0012000000000000001
306 0.00015000000000000001
307 0.0012000000000000001
308 0.00015000000000000001
309 0.0012000000000000001
310 0.00015000000000000001
311 0.0012000000000000001
312 0.00015000000000000001
313 0.0012000000000000001
314 0.00015000000000000001
315 0.0012000000000000001
316 0.00015000000000000001
317 0.0012000000000000001
318 0.00015000000000000001
319 0.0012000000000000001
320 0.00015000000000000001
321 0.0012000000000000001
322 0.00015000000000000001
323 0.0012000000000000001
324 0.00015000000000000001
325 0.0012000000000000001
326 0.00015000000000000001
327 0.0012000000000000001
328 0.00015000000000000001
329 0.0012000000000000001
330 0.00015000000000000001
331 0.0012000000000000001
332 0.00015000000000000001
333 0.0012000000000000001
334 0.00015000000000000001
335 0.0012000000000000001
336 0.00015000000000000001
337 0.0012000000000000001
338 0.00015000000000000001
339 0.00015000000000000001
340 0.00015000000000000001
341 0.0012000000000000001
342 2e-04
343 2e-04
344 2e-04
345 2e-04
346 2e-04
347 2e-04
348 2e-04
349 2e-04
350 2e-04
351 2e-04
352 2e-04
353 2e-04
354 2e-04
355 2e-04
356 2e-04
357 2e-04
358 0.0006000000000000001
359 0.0012000000000000001
360 0.0012000000000000001
361 0.0012000000000000001
362 0.00015000000000000001
363 0.00015000000000000001
364 0.0012000000000000001
365 0.00015000000000000001
366 0.0012000000000000001
367 0.00015000000000000001
368 0.0012000000000000001
369 0.00015000000000000001
370 0.0012000000000000001
371 0.00015000000000000001
372 0.0012000000000000001
373 0.00015000000000000001
374 0.0012000000000000001
375 0.00015000000000000001
376 0.0012000000000000001
377 0.00015000000000000001
378 0.0012000000000000001
379 0.00015000000000000001
380 0.0012000000000000001
381 0.00015000000000000001
382 0.0012000000000000001
383 0.00015000000000000001
384 0.0012000000000000001
385 0.00015000000000000001
386 0.0012000000000000001
387 0.00015000000000000001
388 0.0012000000000000001
389 0.00015000000000000001
390 0.0012000000000000001
391 0.00015000000000000001
392 0.0012000000000000001
393 0.00015000000000000001
394 0.0012000000000000001
395 0.00015000000000000001
396 0.0012000000000000001
397 0.00015000000000000001
398 0.0012000000000000001
399 0.00015000000000000001
400 0.0012000000000000001
401 0.00015000000000000001
402 0.0012000000000000001
403 0.00015000000000000001
404 0.0012000000000000001
405 0.00015000000000000001
406 0.0012000000000000001
407 0.00015000000000000001
408 0.0012000000000000001
409 0.00015000000000000001
410 0.0012000000000000001
411 0.00015000000000000001
412 0.0012000000000000001
413 0.00015000000000000001
414 0.0012000000000000001
415 0.00015000000000000001
416 0.0012000000000000001
417 0.00015000000000000001
418 0.0012000000000000001
419 0.00015000000000000001
420 0.00015000000000000001
421 0.00015000000000000001
422 0.0012000000000000001
423 2e-04
424 2e-04
425 2e-04
426 2e-04
427 2e-04
428 2e-04
429 2e-04
430 2e-04
431 2e-04
432 2e-04
433 2e-04
434 2e-04
435 2e-04
436 2e-04
437 2e-04
438 2e-04
439 0.0006000000000000001
440 0.0012000000000000001
441 0.0012000000000000001
442 0.0012000000000000001
443 0.00015000000000000001
444 0.00015000000000000001
445 0.0012000000000000001
446 0.00015000000000000001
447 0.0012000000000000001
448 0.00015000000000000001
449 0.0012000000000000001
450 0.00015000000000000001
451 0.0012000000000000001
452 0.00015000000000000001
453 0.0012000000000000001
454 0.00015000000000000001
455 0.0012000000000000001
456 0.00015000000000000001
457 0.0012000000000000001
458 0.00015000000000000001
459 0.0012000000000000001
460 0.00015000000000000001
461 0.0012000000000000001
462 0.00015000000000000001
463 0.0012000000000000001
464 0.00015000000000000001
465 0.0012000000000000001
466 0.00015000000000000001
467 0.0012000000000000001
468 0.00015000000000000001
469 0.0012000000000000001
470 0.00015000000000000001
471 0.0012000000000000001
472 0.00015000000000000001
473 0.0012000000000000001
474 0.00015000000000000001
475 0.0012000000000000001
476 0.00015000000000000001
477 0.0012000000000000001
478 0.00015000000000000001
479 0.0012000000000000001
480 0.00015000000000000001
481 0.0012000000000000001
482 0.00015000000000000001
483 0.0012000000000000001
484 0.00015000000000000001
485 0.0012000000000000001
486 0.00015000000000000001
487 0.0012000000000000001
488 0.00015000000000000001
489 0.0012000000000000001
490 0.00015000000000000001
491 0.0012000000000000001
492 0.00015000000000000001
493 0.0012000000000000001
494 0.00015000000000000001
495 0.0012000000000000001
496 0.00015000000000000001
497 0.0012000000000000001
498 0.00015000000000000001
499 0.0012000000000000001
500 0.00015000000000000001
501 0.00015000000000000001
502 0.00015000000000000001
503 0.0012000000000000001
504 2e-04
505 2e-04
506 2e-04
507 2e-04
508 2e-04
509 2e-04
510 2e-04
511 2e-04
512 2e-04
513 2e-04
514 2e-04
515 2e-04
516 2e-04
517 2e-04
518 2e-04
519 2e-04
520 0.0006000000000000001
521 0.0012000000000000001
522 0.0012000000000000001
523 0.0012000000000000001
524 0.00015000000000000001
525 0.00015000000000000001
526 0.0012000000000000001
527 0.00015000000000000001
528 0.0012000000000000001
529 0.00015000000000000001
530 0.0012000000000000001
531 0.00015000000000000001
532 0.0012000000000000001
533 0.00015000000000000001
534 0.0012000000000000001
535 0.00015000000000000001
536 0.0012000000000000001
537 0.00015000000000000001
538 0.0012000000000000001
539 0.00015000000000000001
540 0.0012000000000000001
541 0.00015000000000000001
542 0.0012000000000000001
543 0.00015000000000000001
544 0.0012000000000000001
545 0.00015000000000000001
546 0.0012000000000000001
547 0.00015000000000000001
548 0.0012000000000000001
549 0.00015000000000000001
550 0.0012000000000000001
551 0.00015000000000000001
552 0.0012000000000000001
553 0.00015000000000000001
554 0.0012000000000000001
555 0.00015000000000000001
556 0.0012000000000000001
557 0.00015000000000000001
558 0.0012000000000000001
559 0.00015000000000000001
560 0.0012000000000000001
561 0.00015000000000000001
562 0.0012000000000000001
563 0.00015000000000000001
564 0.0012000000000000001
565 0.00015000000000000001
566 0.0012000000000000001
567 0.00015000000000000001
568 0.0012000000000000001
569 0.00015000000000000001
570 0.0012000000000000001
571 0.00015000000000000001
572 0.0012000000000000001
573 0.00015000000000000001
574 0.0012000000000000001
575 0.00015000000000000001
576 0.0012000000000000001
577 0.00015000000000000001
578 0.0012000000000000001
579 0.00015000000000000001
580 0.0012000000000000001
581 0.00015000000000000001
582 0.00015000000000000001
583 0.00015000000000000001
584 0.0012000000000000001
585 2e-04
586 2e-04
587 2e-04
588 2e-04
589 2e-04
590 2e-04
591 2e-04
592 2e-04
593 2e-04
594 2e-04
595 2e-04
596 2e-04
597 2e-04
598 2e-04
599 2e-04
600 2e-04
601 0.0006000000000000001
602 0.0012000000000000001
603 0.0012000000000000001
604 0.0012000000000000001
605 0.00015000000000000001
606 0.00015000000000000001
607 0.0012000000000000001
608 0.00015000000000000001
609 0.0012000000000000001
610 0.00015000000000000001
611 0.0012000000000000001
612 0.00015000000000000001
613 0.0012000000000000001
614 0.00015000000000000001
615 0.0012000000000000001
616 0.00015000000000000001
617 0.0012000000000000001
618 0.00015000000000000001
619 0.0012000000000000001
620 0.00015000000000000001
621 0.0012000000000000001
622 0.00015000000000000001
623 0.0012000000000000001
624 0.00015000000000000001
625 0.0012000000000000001
626 0.00015000000000000001
627 0.0012000000000000001
628 0.00015000000000000001
629 0.0012000000000000001
630 0.00015000000000000001
631 0.0012000000000000001
632 0.00015000000000000001
633 0.0012000000000000001
634 0.00015000000000000001
635 0.0012000000000000001
636 0.00015000000000000001
637 0.0012000000000000001
638 0.00015000000000000001
639 0.0012000000000000001
640 0.00015000000000000001
641 0.0012000000000000001
642 0.00015000000000000001
643 0.0012000000000000001
644 0.00015000000000000001
645 0.0012000000000000001
646 0.00015000000000000001
647 0.0012000000000000001
648 0.00015000000000000001
649 0.0012000000000000001
650 0.00015000000000000001
651 0.0012000000000000001
652 0.00015000000000000001
653 0.0012000000000000001
654 0.00015000000000000001
655 0.0012000000000000001
656 0.00015000000000000001
657 0.0012000000000000001
658 0.00015000000000000001
659 0.0012000000000000001
660 0.00015000000000000001
661 0.0012000000000000001
662 0.00015000000000000001
663 0.00015000000000000001
664 0.00015000000000000001
665 0.0012000000000000001
666 2e-04
667 2e-04
668 2e-04
669 2e-04
670 2e-04
671 2e-04
672 2e-04
673 2e-04
674 2e-04
675 2e-04
676 2e-04
677 2e-04
678 2e-04
679 2e-04
680 2e-04
681 2e-04
682 0.0006000000000000001
683 0.0012000000000000001
684 0.0012000000000000001
685 0.0012000000000000001
686 0.00015000000000000001
687 0.00015000000000000001
688 0.0012000000000000001
689 0.00015000000000000001
690 0.0012000000000000001
691 0.00015000000000000001
692 0.0012000000000000001
693 0.00015000000000000001
694 0.0012000000000000001
695 0.00015000000000000001
696 0.0012000000000000001
697 0.00015000000000000001
698 0.0012000000000000001
699 0.00015000000000000001
700 0.0012000000000000001
701 0.00015000000000000001
702 0.0012000000000000001
703 0.00015000000000000001
704 0.0012000000000000001
705 0.00015000000000000001
706 0.0012000000000000001
707 0.00015000000000000001
708 0.0012000000000000001
709 0.00015000000000000001
710 0.0012000000000000001
711 0.00015000000000000001
712 0.0012000000000000001
713 0.00015000000000000001
714 0.0012000000000000001
715 0.00015000000000000001
716 0.0012000000000000001
717 0.00015000000000000001
718 0.0012000000000000001
719 0.00015000000000000001
720 0.0012000000000000001
721 0.00015000000000000001
722 0.0012000000000000001
723 0.00015000000000000001
724 0.0012000000000000001
725 0.00015000000000000001
726 0.0012000000000000001
727 0.00015000000000000001
728 0.0012000000000000001
729 0.00015000000000000001
730 0.0012000000000000001
731 0.00015000000000000001
732 0.0012000000000000001
733 0.00015000000000000001
734 0.0012000000000000001
735 0.00015000000000000001
736 0.0012000000000000001
737 0.00015000000000000001
738 0.0012000000000000001
739 0.00015000000000000001
740 0.0012000000000000001
741 0.00015000000000000001
742 0.0012000000000000001
743 0.00015000000000000001
744 0.00015000000000000001
745 0.00015000000000000001
746 0.0012000000000000001
747 2e-04
748 2e-04
749 2e-04
750 2e-04
751 2e-04
752 2e-04
753 2e-04
754 2e-04
755 2e-04
756 2e-04
757 2e-04
758 2e-04
759 2e-04
760 2e-04
761 2e-04
762 2e-04
763 0.0006000000000000001
764 0.0012000000000000001
765 0.0012000000000000001
766 0.0012000000000000001
767 0.00015000000000000001
768 0.00015000000000000001
769 0.0012000000000000001
770 0.00015000000000000001
771 0.0012000000000000001
772 0.00015000000000000001
773 0.0012000000000000001
774 0.00015000000000000001
775 0.0012000000000000001
776 0.00015000000000000001
777 0.0012000000000000001
778 0.00015000000000000001
779 0.0012000000000000001
780 0.00015000000000000001
781 0.0012000000000000001
782 0.00015000000000000001
783 0.0012000000000000001
784 0.00015000000000000001
785 0.0012000000000000001
786 0.00015000000000000001
787 0.0012000000000000001
788 0.00015000000000000001
789 0.0012000000000000001
790 0.00015000000000000001
791 0.0012000000000000001
792 0.00015000000000000001
793 0.0012000000000000001
794 0.00015000000000000001
795 0.0012000000000000001
796 0.00015000000000000001
797 0.0012000000000000001
798 0.00015000000000000001
799 0.0012000000000000001
800 0.00015000000000000001
801 0.0012000000000000001
802 0.00015000000000000001
803 0.0012000000000000001
804 0.00015000000000000001
805 0.0012000000000000001
806 0.00015000000000000001
807 0.0012000000000000001
808 0.00015000000000000001
809 0.0012000000000000001
810 0.00015000000000000001
811 0.0012000000000000001
812 0.00015000000000000001
813 0.0012000000000000001
814 0.00015000000000000001
815 0.0012000000000000001
816 0.00015000000000000001
817 0.0012000000000000001
818 0.00015000000000000001
819 0.0012000000000000001
820 0.00015000000000000001
821 0.0012000000000000001
822 0.00015000000000000001
823 0.0012000000000000001
824 0.00015000000000000001
825 0.00015000000000000001
826 0.00015000000000000001
827 0.0012000000000000001
828 2e-04
829 2e-04
830 2e-04
831 2e-04
832 2e-04
833 2e-04
834 2e-04
835 2e-04
836 2e-04
837 2e-04
838 2e-04
839 2e-04
840 2e-04
841 2e-04
842 2e-04
843 2e-04
844 0.0006000000000000001
845 0.0012000000000000001
846 0.0012000000000000001
847 0.0012000000000000001
848 0.00015000000000000001
849 0.00015000000000000001
850 0.0012000000000000001
851 0.00015000000000000001
852 0.0012000000000000001
853 0.00015000000000000001
854 0.0012000000000000001
855 0.00015000000000000001
856 0.0012000000000000001
857 0.00015000000000000001
858 0.0012000000000000001
859 0.00015000000000000001
860 0.0012000000000000001
861 0.00015000000000000001
862 0.0012000000000000001
863 0.00015000000000000001
864 0.0012000000000000001
865 0.00015000000000000001
866 0.0012000000000000001
867 0.00015000000000000001
868 0.0012000000000000001
869 0.00015000000000000001
870 0.0012000000000000001
871 0.00015000000000000001
872 0.0012000000000000001
873 0.00015000000000000001
874 0.0012000000000000001
875 0.00015000000000000001
876 0.0012000000000000001
877 0.00015000000000000001
878 0.0012000000000000001
879 0.00015000000000000001
880 0.0012000000000000001
881 0.00015000000000000001
882 0.0012000000000000001
883 0.00015000000000000001
884 0.0012000000000000001
885 0.00015000000000000001
886 0.0012000000000000001
887 0.00015000000000000001
888 0.0012000000000000001
889 0.00015000000000000001
890 0.0012000000000000001
891 0.00015000000000000001
892 0.0012000000000000001
893 0.00015000000000000001
894 0.0012000000000000001
895 0.00015000000000000001
896 0.0012000000000000001
897 0.00015000000000000001
898 0.0012000000000000001
899 0.00015000000000000001
900 0.0012000000000000001
901 0.00015000000000000001
902 0.0012000000000000001
903 0.00015000000000000001
904 0.0012000000000000001
905 0.00015000000000000001
906 0.00015000000000000001
907 0.00015000000000000001
908 0.0012000000000000001
909 2e-04
910 2e-04
911 2e-04
912 2e-04
913 2e-04
914 2e-04
915 2e-04
916 2e-04
917 2e-04
918 2e-04
919 2e-04
920 2e-04
921 2e-04
922 2e-04
923 2e-04
924 2e-04
925 0.0006000000000000001
926 0.0012000000000000001
927 0.0012000000000000001
928 0.0012000000000000001
929 0.00015000000000000001
930 0.00015000000000000001
931 0.0012000000000000001
932 0.00015000000000000001
933 0.0012000000000000001
934 0.00015000000000000001
935 0.0012000000000000001
936 0.00015000000000000001
937 0.0012000000000000001
938 0.00015000000000000001
939 0.0012000000000000001
940 0.00015000000000000001
941 0.0012000000000000001
942 0.00015000000000000001
943 0.0012000000000000001
944 0.00015000000000000001
945 0.0012000000000000001
946 0.00015000000000000001
947 0.0012000000000000001
948 0.00015000000000000001
949 0.0012000000000000001
950 0.00015000000000000001
951 0.0012000000000000001
952 0.00015000000000000001
953 0.0012000000000000001
954 0.00015000000000000001
955 0.0012000000000000001
956 0.00015000000000000001
957 0.0012000000000000001
958 0.00015000000000000001
959 0.0012000000000000001
960 0.00015000000000000001
961 0.0012000000000000001
962 0.00015000000000000001
963 0.0012000000000000001
964 0.00015000000000000001
965 0.0012000000000000001
966 0.00015000000000000001
967 0.0012000000000000001
968 0.00015000000000000001
969 0.0012000000000000001
970 0.00015000000000000001
971 0.0012000000000000001
972 0.00015000000000000001
973 0.0012000000000000001
974 0.00015000000000000001
975 0.0012000000000000001
976 0.00015000000000000001
977 0.0012000000000000001
978 0.00015000000000000001
979 0.0012000000000000001
980 0.00015000000000000001
981 0.0012000000000000001
982 0.00015000000000000001
983 0.0012000000000000001
984 0.00015000000000000001
985 0.0012000000000000001
986 0.00015000000000000001
987 0.00015000000000000001
988 0.00015000000000000001
989 0.0012000000000000001
990 2e-04
991 2e-04
992 2e-04
993 2e-04
994 2e-04
995 2e-04
996 2e-04
997 2e-04
998 2e-04
999 2e-04
1000 2e-04
1001 2e-04
1002 2e-04
1003 2e-04
1004 2e-04
1005 2e-04
1006 0.0006000000000000001
1007 0.0012000000000000001
1008 0.0012000000000000001
1009 0.0012000000000000001
1010 0.00015000000000000001
1011 0.00015000000000000001
1012 0.0012000000000000001
1013 0.00015000000000000001
1014 0.0012000000000000001
1015 0.00015000000000000001
1016 0.0012000000000000001
1017 0.00015000000000000001
1018 0.0012000000000000001
1019 0.00015000000000000001
1020 0.0012000000000000001
1021 0.00015000000000000001
1022 0.0012000000000000001
1023 0.00015000000000000001
1024 0.0012000000000000001
1025 0.00015000000000000001
1026 0.0012000000000000001
1027 0.00015000000000000001
1028 0.0012000000000000001
1029 0.00015000000000000001
1030 0.0012000000000000001
1031 0.00015000000000000001
1032 0.0012000000000000001
1033 0.00015000000000000001
1034 0.0012000000000000001
1035 0.00015000000000000001
1036 0.0012000000000000001
1037 0.00015000000000000001
1038 0.0012000000000000001
1039 0.00015000000000000001
1040 0.0012000000000000001
1041 0.00015000000000000001
1042 0.0012000000000000001
1043 0.00015000000000000001
1044 0.0012000000000000001
1045 0.00015000000000000001
1046 0.0012000000000000001
1047 0.00015000000000000001
1048 0.0012000000000000001
1049 0.00015000000000000001
1050 0.0012000000000000001
1051 0.00015000000000000001
1052 0.0012000000000000001
1053 0.00015000000000000001
1054 0.0012000000000000001
1055 0.00015000000000000001
1056 0.0012000000000000001
1057 0.00015000000000000001
1058 0.0012000000000000001
1059 0.00015000000000000001
1060 0.0012000000000000001
1061 0.00015000000000000001
1062 0.0012000000000000001
1063 0.00015000000000000001
1064 0.0012000000000000001
1065 0.00015000000000000001
1066 0.0012000000000000001
1067 0.00015000000000000001
1068 0.00015000000000000001
1069 0.00015000000000000001
1070 0.0012000000000000001
1071 2e-04
1072 2e-04
1073 2e-04
1074 2e-04
1075 2e-04
1076 2e-04
1077 2e-04
1078 2e-04
1079 2e-04
1080 2e-04
1081 2e-04
1082 2e-04
1083 2e-04
1084 2e-04
1085 2e-04
1086 2e-04
1087 0.0006000000000000001
1088 0.0012000000000000001
1089 0.0012000000000000001
1090 0.0012000000000000001
1091 0.00015000000000000001
1092 0.00015000000000000001
1093 0.0012000000000000001
1094 0.00015000000000000001
1095 0.0012000000000000001
1096 0.00015000000000000001
1097 0.0012000000000000001
1098 0.00015000000000000001
1099 0.0012000000000000001
1100 0.00015000000000000001
1101 0.0012000000000000001
1102 0.00015000000000000001
1103 0.0012000000000000001
1104 0.00015000000000000001
1105 0.0012000000000000001
1106 0.00015000000000000001
1107 0.0012000000000000001
1108 0.00015000000000000001
1109 0.0012000000000000001
1110 0.00015000000000000001
1111 0.0012000000000000001
1112 0.00015000000000000001
1113 0.0012000000000000001
1114 0.00015000000000000001
1115 0.0012000000000000001
1116 0.00015000000000000001
1117 0.0012000000000000001
1118 0.00015000000000000001
1119 0.0012000000000000001
1120 0.00015000000000000001
1121 0.0012000000000000001
1122 0.00015000000000000001
1123 0.0012000000000000001
1124 0.00015000000000000001
1125 0.0012000000000000001
1126 0.00015000000000000001
1127 0.0012000000000000001
1128 0.00015000000000000001
1129 0.0012000000000000001
1130 0.00015000000000000001
1131 0.0012000000000000001
1132 0.00015000000000000001
1133 0.0012000000000000001
1134 0.00015000000000000001
1135 0.0012000000000000001
1136 0.00015000000000000001
1137 0.0012000000000000001
1138 0.00015000000000000001
1139 0.0012000000000000001
1140 0.00015000000000000001
1141 0.0012000000000000001
1142 0.00015000000000000001
1143 0.0012000000000000001
1144 0.00015000000000000001
1145 0.0012000000000000001
1146 0.00015000000000000001
1147 0.0012000000000000001
1148 0.00015000000000000001
1149 0.00015000000000000001
1150 0.00015000000000000001
1151 0.0012000000000000001
1152 2e-04
1153 2e-04
1154 2e-04
1155 2e-04
1156 2e-04
1157 2e-04
1158 2e-04
1159 2e-04
1160 2e-04
1161 2e-04
1162 2e-04
1163 2e-04
1164 2e-04
1165 2e-04
1166 2e-04
1167 2e-04
1168 0.0006000000000000001
1169 0.0012000000000000001
1170 0.0012000000000000001
1171 0.0012000000000000001
1172 0.00015000000000000001
1173 0.00015000000000000001
1174 0.0012000000000000001
1175 0.00015000000000000001
1176 0.0012000000000000001
1177 0.00015000000000000001
1178 0.0012000000000000001
1179 0.00015000000000000001
1180 0.0012000000000000001
1181 0.00015000000000000001
1182 0.0012000000000000001
1183 0.00015000000000000001
1184 0.0012000000000000001
1185 0.00015000000000000001
1186 0.0012000000000000001
1187 0.00015000000000000001
1188 0.0012000000000000001
1189 0.00015000000000000001
1190 0.0012000000000000001
1191 0.00015000000000000001
1192 0.0012000000000000001
1193 0.00015000000000000001
1194 0.0012000000000000001
1195 0.00015000000000000001
1196 0.0012000000000000001
1197 0.00015000000000000001
1198 0.0012000000000000001
1199 0.00015000000000000001
1200 0.0012000000000000001
1201 0.00015000000000000001
1202 0.0012000000000000001
1203 0.00015000000000000001
1204 0.0012000000000000001
1205 0.00015000000000000001
1206 0.0012000000000000001
1207 0.00015000000000000001
1208 0.0012000000000000001
1209 0.00015000000000000001
1210 0.0012000000000000001
1211 0.00015000000000000001
1212 0.0012000000000000001
1213 0.00015000000000000001
1214 0.0012000000000000001
1215 0.00015000000000000001
1216 0.0012000000000000001
1217 0.00015000000000000001
1218 0.0012000000000000001
1219 0.00015000000000000001
1220 0.0012000000000000001
1221 0.00015000000000000001
1222 0.0012000000000000001
1223 0.00015000000000000001
1224 0.0012000000000000001
1225 0.00015000000000000001
1226 0.0012000000000000001
1227 0.00015000000000000001
1228 0.0012000000000000001
1229 0.00015000000000000001
1230 0.00015000000000000001
1231 0.00015000000000000001
1232 0.0012000000000000001
1233 2e-04
1234 2e-04
1235 2e-04
1236 2e-04
1237 2e-04
1238 2e-04
1239 2e-04
1240 2e-04
1241 2e-04
1242 2e-04
1243 2e-04
1244 2e-04
1245 2e-04
1246 2e-04
1247 2e-04
1248 2e-04
1249 0.0006000000000000001
1250 0.0012000000000000001
1251 0.0012000000000000001
1252 0.0012000000000000001
1253 0.00015000000000000001
1254 0.00015000000000000001
1255 0.0012000000000000001
1256 0.00015000000000000001
1257 0.0012000000000000001
1258 0.00015000000000000001
1259 0.0012000000000000001
1260 0.00015000000000000001
1261 0.0012000000000000001
1262 0.00015000000000000001
1263 0.0012000000000000001
1264 0.00015000000000000001
1265 0.0012000000000000001
1266 0.00015000000000000001
1267 0.0012000000000000001
1268 0.00015000000000000001
1269 0.0012000000000000001
1270 0.00015000000000000001
1271 0.0012000000000000001
1272 0.00015000000000000001
1273 0.0012000000000000001
1274 0.00015000000000000001
1275 0.0012000000000000001
1276 0.00015000000000000001
1277 0.0012000000000000001
1278 0.00015000000000000001
1279 0.0012000000000000001
1280 0.00015000000000000001
1281 0.0012000000000000001
1282 0.00015000000000000001
1283 0.0012000000000000001
1284 0.00015000000000000001
1285 0.0012000000000000001
1286 0.00015000000000000001
1287 0.0012000000000000001
1288 0.00015000000000000001
1289 0.0012000000000000001
1290 0.00015000000000000001
1291 0.0012000000000000001
1292 0.00015000000000000001
1293 0.0012000000000000001
1294 0.00015000000000000001
1295 0.0012000000000000001
1296 0.00015000000000000001
1297 0.0012000000000000001
1298 0.00015000000000000001
1299 0.0012000000000000001
1300 0.00015000000000000001
1301 0.0012000000000000001
1302 0.00015000000000000001
1303 0.0012000000000000001
1304 0.00015000000000000001
1305 0.0012000000000000001
1306 0.00015000000000000001
1307 0.0012000000000000001
1308 0.00015000000000000001
1309 0.0012000000000000001
1310 0.00015000000000000001
1311 0.00015000000000000001
1312 0.00015000000000000001
1313 0.0012000000000000001
1314 2e-04
1315 2e-04
1316 2e-04
1317 2e-04
1318 2e-04
1319 2e-04
1320 2e-04
1321 2e-04
1322 2e-04
1323 2e-04
1324 2e-04
1325 2e-04
1326 2e-04
1327 2e-04
1328 2e-04
1329 2e-04
1330 0.0006000000000000001
1331 0.0012000000000000001
1332 0.0012000000000000001
1333 0.0012000000000000001
1334 0.00015000000000000001
1335 0.00015000000000000001
1336 0.0012000000000000001
1337 0.00015000000000000001
1338 0.0012000000000000001
1339 0.00015000000000000001
1340 0.0012000000000000001
1341 0.00015000000000000001
1342 0.0012000000000000001
1343 0.00015000000000000001
1344 0.0012000000000000001
1345 0.00015000000000000001
1346 0.0012000000000000001
1347 0.00015000000000000001
1348 0.0012000000000000001
1349 0.00015000000000000001
1350 0.0012000000000000001
1351 0.00015000000000000001
1352 0.0012000000000000001
1353 0.00015000000000000001
1354 0.0012000000000000001
1355 0.00015000000000000001
1356 0.0012000000000000001
1357 0.00015000000000000001
1358 0.0012000000000000001
1359 0.00015000000000000001
1360 0.0012000000000000001
1361 0.00015000000000000001
1362 0.0012000000000000001
1363 0.00015000000000000001
1364 0.0012000000000000001
1365 0.00015000000000000001
1366 0.0012000000000000001
1367 0.00015000000000000001
1368 0.0012000000000000001
1369 0.00015000000000000001
1370 0.0012000000000000001
1371 0.00015000000000000001
1372 0.0012000000000000001
1373 0.00015000000000000001
1374 0.0012000000000000001
1375 0.00015000000000000001
1376 0.0012000000000000001
1377 0.00015000000000000001
1378 0.0012000000000000001
1379 0.00015000000000000001
1380 0.0012000000000000001
1381 0.00015000000000000001
1382 0.0012000000000000001
1383 0.00015000000000000001
1384 0.0012000000000000001
1385 0.00015000000000000001
1386 0.0012000000000000001
1387 0.00015000000000000001
1388 0.0012000000000000001
1389 0.00015000000000000001
1390 0.0012000000000000001
1391 0.00015000000000000001
1392 0.00015000000000000001
1393 0.00015000000000000001
1394 0.0012000000000000001
1395 2e-04
1396 2e-04
1397 2e-04
1398 2e-04
1399 2e-04
1400 2e-04
1401 2e-04
1402 2e-04
1403 2e-04
1404 2e-04
1405 2e-04
1406 2e-04
1407 2e-04
1408 2e-04
1409 2e-04
1410 2e-04
1411 0.0006000000000000001
1412 0.0012000000000000001
1413 0.0012000000000000001
1414 0.0012000000000000001
1415 0.00015000000000000001
1416 0.00015000000000000001
1417 0.0012000000000000001
1418 0.00015000000000000001
1419 0.0012000000000000001
1420 0.00015000000000000001
1421 0.0012000000000000001
1422 0.00015000000000000001
1423 0.0012000000000000001
1424 0.00015000000000000001
1425 0.0012000000000000001
1426 0.00015000000000000001
1427 0.0012000000000000001
1428 0.00015000000000000001
1429 0.0012000000000000001
1430 0.00015000000000000001
1431 0.0012000000000000001
1432 0.00015000000000000001
1433 0.0012000000000000001
1434 0.00015000000000000001
1435 0.0012000000000000001
1436 0.00015000000000000001
1437 0.0012000000000000001
1438 0.00015000000000000001
1439 0.0012000000000000001
1440 0.00015000000000000001
1441 0.0012000000000000001
1442 0.00015000000000000001
1443 0.0012000000000000001
1444 0.00015000000000000001
1445 0.0012000000000000001
1446 0.00015000000000000001
1447 0.0012000000000000001
1448 0.00015000000000000001
1449 0.0012000000000000001
1450 0.00015000000000000001
1451 0.0012000000000000001
1452 0.00015000000000000001
1453 0.0012000000000000001
1454 0.00015000000000000001
1455 0.0012000000000000001
1456 0.00015000000000000001
1457 0.0012000000000000001
1458 0.00015000000000000001
1459 0.0012000000000000001
1460 0.00015000000000000001
1461 0.0012000000000000001
1462 0.00015000000000000001
1463 0.0012000000000000001
1464 0.00015000000000000001
1465 0.0012000000000000001
1466 0.00015000000000000001
1467 0.0012000000000000001
1468 0.00015000000000000001
1469 0.0012000000000000001
1470 0.00015000000000000001
1471 0.0012000000000000001
1472 0.00015000000000000001
1473 0.00015000000000000001
1474 0.00015000000000000001
1475 0.0012000000000000001
1476 2e-04
1477 2e-04
1478 2e-04
1479 2e-04
1480 2e-04
1481 2e-04
1482 2e-04
1483 2e-04
1484 2e-04
1485 2e-04
1486 2e-04
1487 2e-04
1488 2e-04
1489 2e-04
1490 2e-04
1491 2e-04
1492 0.0006000000000000001
1493 0.0012000000000000001
1494 0.0012000000000000001
1495 0.0012000000000000001
1496 0.0012000000000000001
1497 0.0012000000000000001
1498 0.0012000000000000001
1499 0.0012000000000000001
1500 0.0012000000000000001
1501 0.0012000000000000001
1502 0.0012000000000000001
1503 0.0012000000000000001
1504 0.0012000000000000001
1505 0.0012000000000000001
1506 0.0012000000000000001
1507 0.0012000000000000001
1508 0.0012000000000000001
1509 0.0012000000000000001
1510 0.0012000000000000001
1511 0.0012000000000000001
1512 0.0012000000000000001
1513 0.0012000000000000001
1514 0.0012000000000000001
1515 0.0012000000000000001
1516 0.0012000000000000001
1517 0.0012000000000000001
1518 0.0012000000000000001
1519 0.0012000000000000001
1520 0.0012000000000000001
1521 0.0012000000000000001
1522 0.0012000000000000001
1523 0.0012000000000000001
1524 0.0012000000000000001
$EndElementData
$ElementData
1
"MaterialID"
1
0
3
0
1
1524
1 10
2 10
3 10
4 10
5 10
6 10
7 10
8 10
9 10
10 10
11 10
12 10
13 10
14 10
15 10
16 10
17 10
18 10
19 10
20 10
21 10
22 10
23 10
24 10
25 10
26 10
27 10
28 10
29 10
30 10
31 10
32 10
33 10
34 10
35 10
36 10
37 10
38 10
39 10
40 10
41 10
42 10
43 10
44 10
45 10
46 10
47 10
48 10
49 10
50 10
51 10
52 10
53 10
54 10
55 10
56 10
57 10
58 10
59 10
60 10
61 10
62 10
63 10
64 10
65 10
66 10
67 10
68 10
69 10
70 10
71 10
72 10
73 10
74 10
75 10
76 10
77 10
78 10
79 10
80 10
81 10
82 10
83 10
84 10
85 10
86 10
87 10
88 10
89 10
90 10
91 10
92 10
93 10
94 10
95 10
96 10
97 10
98 10
99 10
100 10
101 10
102 10
103 10
104 10
105 10
106 10
107 10
108 10
109 10
110 10
111 10
112 10
113 10
114 10
115 10
116 10
117 10
118 10
119 10
120 10
121 10
122 10
123 10
124 10
125 10
126 10
127 10
128 10
129 10
130 10
131 10
132 10
133 10
134 10
135 10
136 10
137 10
138 10
139 10
140 10
141 10
142 10
143 10
144 10
145 10
146 10
147 10
148 10
149 10
150 10
151 10
152 10
153 10
154 10
155 10
156 10
157 10
158 10
159 10
160 10
161 10
162 10
163 10
164 10
165 10
166 10
167 10
168 10
169 10
170 10
171 10
172 10
173 10
174 10
175 10
176 10
177 10
178 10
179 10
180 10
181 10
182 10
183 10
184 10
185 10
186 10
187 10
188 10
189 10
190 10
191 10
192 10
193 10
194 10
195 10
196 10
197 10
198 10
199 10
200 10
201 10
202 10
203 10
204 10
205 10
206 10
207 10
208 10
209 10
210 10
211 10
212 10
213 10
214 10
215 10
216 10
217 10
218 10
219 10
220 10
221 10
222 10
223 10
224 10
225 10
226 10
227 10
228 10
229 10
230 10
231 10
232 10
233 10
234 10
235 10
236 10
237 10
238 10
239 10
240 10
241 10
242 10
243 10
244 10
245 10
246 10
247 10
248 10
249 10
250 10
251 10
252 10
253 10
254 10
255 10
256 10
257 10
258 10
259 10
260 10
261 10
262 10
263 10
264 10
265 10
266 10
267 10
268 10
269 10
270 10
271 10
272 10
273 10
274 10
275 10
276 10
277 10
278 10
279 10
280 10
281 10
282 10
283 10
284 10
285 10
286 10
287 10
288 10
289 10
290 10
291 10
292 10
293 10
294 10
295 10
296 10
297 10
298 10
299 10
300 10
301 10
302 10
303 10
304 10
305 10
306 10
307 10
308 10
309 10
310 10
311 10
312 10
313 10
314 10
315 10
316 10
317 10
318 10
319 10
320 10
321 10
322 10
323 10
324 10
325 10
326 10
327 10
328 10
329 10
330 10
331 10
332 10
333 10
334 10
335 10
336 10
337 10
338 10
339 10
340 10
341 10
342 10
343 10
344 10
345 10
346 10
347 10
348 10
349 10
350 10
351 10
352 10
353 10
354 10
355 10
356 10
357 10
358 10
359 10
360 10
361 10
362 10
363 10
364 10
365 10
366 10
367 10
368 10
369 10
370 10
371 10
372 10
373 10
374 10
375 10
376 10
377 10
378 10
379 10
380 10
381 10
382 10
383 10
384 10
385 10
386 10
387 10
388 10
389 10
390 10
391 10
392 10
393 10
394 10
395 10
396 10
397 10
398 10
399 10
400 10
401 10
402 10
403 10
404 10
405 10
406 10
407 10
408 10
409 10
410 10
411 10
412 10
413 10
414 10
415 10
416 10
417 10
418 10
419 10
420 10
421 10
422 10
423 10
424 10
425 10
426 10
427 10
428 10
429 10
430 10
431 10
432 10
433 10
434 10
435 10
436 10
437 10
438 10
439 10
440 10
441 10
442 10
443 10
444 10
445 10
446 10
447 10
448 10
449 10
450 10
451 10
452 10
453 10
454 10
455 10
456 10
457 10
458 10
459 10
460 10
461 10
462 10
463 10
464 10
465 10
466 10
467 10
468 10
469 10
470 10
471 10
472 10
473 10
474 10
475 10
476 10
477 10
478 10
479 10
480 10
481 10
482 10
483 10
484 10
485 10
486 10
487 10
488 10
489 10
490 10
491 10
492 10
493 10
494 10
495 10
496 10
497 10
498 10
499 10
500 10
501 10
502 10
503 10
504 10
505 10
506 10
507 10
508 10
509 10
510 10
511 10
512 10
513 10
514 10
515 10
516 10
517 10
518 10
519 10
520 10
521 10
522 10
523 10
524 10
525 10
526 10
527 10
528 10
529 10
530 10
531 10
532 10
533 10
534 10
535 10
536 10
537 10
538 10
539 10
540 10
541 10
542 10
543 10
544 10
545 10
546 10
547 10
548 10
549 10
550 10
551 10
552 10
553 10
554 10
555 10
556 10
557 10
558 10
559 10
560 10
561 10
562 10
563 10
564 10
565 10
566 10
567 10
568 10
569 10
570 10
571 10
572 10
573 10
574 10
575 10
576 10
577 10
578 10
579 10
580 10
581 10
582 10
583 10
584 10
585 10
586 10
587 10
588 10
589 10
590 10
591 10
592 10
593 10
594 10
595 10
596 10
597 10
598 10
599 10
600 10
601 10
602 10
603 10
604 10
605 10
606 10
607 10
608 10
609 10
610 10
611 10
612 10
613 10
614 10
615 10
616 10
617 10
618 10
619 10
620 10
621 10
622 10
623 10
624 10
625 10
626 10
627 10
628 10
629 10
630 10
631 10
632 10
633 10
634 10
635 10
636 10
637 10
638 10
639 10
640 10
641 10
642 10
643 10
644 10
645 10
646 10
647 10
648 10
649 10
650 10
651 10
652 10
653 10
654 10
655 10
656 10
657 10
658 10
659 10
660 10
661 10
662 10
663 10
664 10
665 10
666 10
667 10
668 10
669 10
670 10
671 10
672 10
673 10
674 10
675 10
676 10
677 10
678 10
679 10
680 10
681 10
682 10
683 10
684 10
685 10
686 10
687 10
688 10
689 10
690 10
691 10
692 10
693 10
694 10
695 10
696 10
697 10
698 10
699 10
700 10
701 10
702 10
703 10
704 10
705 10
706 10
707 10
708 10
709 10
710 10
711 10
712 10
713 10
714 10
715 10
716 10
717 10
718 10
719 10
720 10
721 10
722 10
723 10
724 10
725 10
726 10
727 10
728 10
729 10
730 10
731 10
732 10
733 10
734 10
735 10
736 10
737 10
738 10
739 10
740 10
741 10
742 10
743 10
744 10
745 10
746 10
747 10
748 10
749 10
750 10
751 10
752 10
753 10
754 10
755 10
756 10
757 10
758 10
759 10
760 10
761 10
762 10
763 10
764 10
765 10
766 10
767 10
768 10
769 10
770 10
771 10
772 10
773 10
774 10
775 10
776 10
777 10
778 10
779 10
780 10
781 10
782 10
783 10
784 10
785 10
786 10
787 10
788 10
789 10
790 10
791 10
792 10
793 10
794 10
795 10
796 10
797 10
798 10
799 10
800 10
801 10
802 10
803 10
804 10
805 10
806 10
807 10
808 10
809 10
810 10
811 10
812 10
813 10
814 10
815 10
816 10
817 10
818 10
819 10
820 10
821 10
822 10
823 10
824 10
825 10
826 10
827 10
828 10
829 10
830 10
831 10
832 10
833 10
834 10
835 10
836 10
837 10
838 10
839 10
840 10
841 10
842 10
843 10
844 10
845 10
846 10
847 10
848 10
849 10
850 10
851 10
852 10
853 10
854 10
855 10
856 10
857 10
858 10
859 10
860 10
861 10
862 10
863 10
864 10
865 10
866 10
867 10
868 10
869 10
870 10
871 10
872 10
873 10
874 10
875 10
876 10
877 10
878 10
879 10
880 10
881 10
882 10
883 10
884 10
885 10
886 10
887 10
888 10
889 10
890 10
891 10
892 10
893 10
894 10
895 10
896 10
897 10
898 10
899 10
900 10
901 10
902 10
903 10
904 10
905 10
906 10
907 10
908 10
909 10
910 10
911 10
912 10
913 10
914 10
915 10
916 10
917 10
918 10
919 10
920 10
921 10
922 10
923 10
924 10
925 10
926 10
927 10
928 10
929 10
930 10
931 10
932 10
933 10
934 10
935 10
936 10
937 10
938 10
939 10
940 10
941 10
942 10
943 10
944 10
945 10
946 10
947 10
948 10
949 10
950 10
951 10
952 10
953 10
954 10
955 10
956 10
957 10
958 10
959 10
960 10
961 10
962 10
963 10
964 10
965 10
966 10
967 10
968 10
969 10
970 10
971 10
972 10
973 10
974 10
975 10
976 10
977 10
978 10
979 10
980 10
981 10
982 10
983 10
984 10
985 10
986 10
987 10
988 10
989 10
990 10
991 10
992 10
993 10
994 10
995 10
996 10
997 10
998 10
999 10
1000 10
1001 10
1002 10
1003 10
1004 10
1005 10
1006 10
1007 10
1008 10
1009 10
1010 10
1011 10
1012 10
1013 10
1014 10
1015 10
1016 10
1017 10
1018 10
1019 10
1020 10
1021 10
1022 10
1023 10
1024 10
1025 10
1026 10
1027 10
1028 10
1029 10
1030 10
1031 10
1032 10
1033 10
1034 10
1035 10
1036 10
1037 10
1038 10
1039 10
1040 10
1041 10
1042 10
1043 10
1044 10
1045 10
1046 10
1047 10
1048 10
1049 10
1050 10
1051 10
1052 10
1053 10
1054 10
1055 10
1056 10
1057 10
1058 10
1059 10
1060 10
1061 10
1062 10
1063 10
1064 10
1065 10
1066 10
1067 10
1068 10
1069 10
1070 10
1071 10
1072 10
1073 10
1074 10
1075 10
1076 10
1077 10
1078 10
1079 10
1080 10
1081 10
1082 10
1083 10
1084 10
1085 10
1086 10
1087 10
1088 10
1089 10
1090 10
1091 10
1092 10
1093 10
1094 10
1095 10
1096 10
1097 10
1098 10
1099 10
1100 10
1101 10
1102 10
1103 10
1104 10
1105 10
1106 10
1107 10
1108 10
1109 10
1110 10
1111 10
1112 10
1113 10
1114 10
1115 10
1116 10
1117 10
1118 10
1119 10
1120 10
1121 10
1122 10
1123 10
1124 10
1125 10
1126 10
1127 10
1128 10
1129 10
1130 10
1131 10
1132 10
1133 10
1134 10
1135 10
1136 10
1137 10
1138 10
1139 10
1140 10
1141 10
1142 10
1143 10
1144 10
1145 10
1146 10
1147 10
1148 10
1149 10
1150 10
1151 10
1152 10
1153 10
1154 10
1155 10
1156 10
1157 10
1158 10
1159 10
1160 10
1161 10
1162 10
1163 10
1164 10
1165 10
1166 10
1167 10
1168 10
1169 10
1170 10
1171 10
1172 10
1173 10
1174 10
1175 10
1176 10
1177 10
1178 10
1179 10
1180 10
1181 10
1182 10
1183 10
1184 10
1185 10
1186 10
1187 10
1188 10
1189 10
1190 10
1191 10
1192 10
1193 10
1194 10
1195 10
1196 10
1197 10
1198 10
1199 10
1200 10
1201 10
1202 10
1203 10
1204 10
1205 10
1206 10
1207 10
1208 10
1209 10
1210 10
1211 10
1212 10
1213 10
1214 10
1215 10
1216 10
1217 10
1218 10
1219 10
1220 10
1221 10
1222 10
1223 10
1224 10
1225 10
1226 10
1227 10
1228 10
1229 10
1230 10
1231 10
1232 10
1233 10
1234 10
1235 10
1236 10
1237 10
1238 10
1239 10
1240 10
1241 10
1242 10
1243 10
1244 10
1245 10
1246 10
1247 10
1248 10
1249 10
1250 10
1251 10
1252 10
1253 10
1254 10
1255 10
1256 10
1257 10
1258 10
1259 10
1260 10
1261 10
1262 10
1263 10
1264 10
1265 10
1266 10
1267 10
1268 10
1269 10
1270 10
1271 10
1272 10
1273 10
1274 10
1275 10
1276 10
1277 10
1278 10
1279 10
1280 10
1281 10
1282 10
1283 10
1284 10
1285 10
1286 10
1287 10
1288 10
1289 10
1290 10
1291 10
1292 10
1293 10
1294 10
1295 10
1296 10
1297 10
1298 10
1299 10
1300 10
1301 10
1302 10
1303 10
1304 10
1305 10
1306 10
1307 10
1308 10
1309 10
1310 10
1311 10
1312 10
1313 10
1314 10
1315 10
1316 10
1317 10
1318 10
1319 10
1320 10
1321 10
1322 10
1323 10
1324 10
1325 10
1326 10
1327 10
1328 10
1329 10
1330 10
1331 10
1332 10
1333 10
1334 10
1335 10
1336 10
1337 10
1338 10
1339 10
1340 10
1341 10
1342 10
1343 10
1344 10
1345 10
1346 10
1347 10
1348 10
1349 10
1350 10
1351 10
1352 10
1353 10
1354 10
1355 10
1356 10
1357 10
1358 10
1359 10
1360 10
1361 10
1362 10
1363 10
1364 10
1365 10
1366 10
1367 10
1368 10
1369 10
1370 10
1371 10
1372 10
1373 10
1374 10
1375 10
1376 10
1377 10
1378 10
1379 10
1380 10
1381 10
1382 10
1383 10
1384 10
1385 10
1386 10
1387 10
1388 10
1389 10
1390 10
1391 10
1392 10
1393 10
1394 10
1395 10
1396 10
1397 10
1398 10
1399 10
1400 10
1401 10
1402 10
1403 10
1404 10
1405 10
1406 10
1407 10
1408 10
1409 10
1410 10
1411 10
1412 10
1413 10
1414 10
1415 10
1416 10
1417 10
1418 10
1419 10
1420 10
1421 10
1422 10
1423 10
1424 10
1425 10
1426 10
1427 10
1428 10
1429 10
1430 10
1431 10
1432 10
1433 10
1434 10
1435 10
1436 10
1437 10
1438 10
1439 10
1440 10
1441 10
1442 10
1443 10
1444 10
1445 10
1446 10
1447 10
1448 10
1449 10
1450 10
1451 10
1452 10
1453 10
1454 10
1455 10
1456 10
1457 10
1458 10
1459 10
1460 10
1461 10
1462 10
1463 10
1464 10
1465 10
1466 10
1467 10
1468 10
1469 10
1470 10
1471 10
1472 10
1473 10
1474 10
1475 10
1476 10
1477 10
1478 10
1479 10
1480 10
1481 10
1482 10
1483 10
1484 10
1485 10
1486 10
1487 10
1488 10
1489 10
1490 10
1491 10
1492 10
1493 10
1494 10
1495 10
1496 10
1497 10
1498 10
1499 10
1500 10
1501 10
1502 10
1503 10
1504 10
1505 10
1506 10
1507 10
1508 10
1509 10
1510 10
1511 10
1512 10
1513 10
1514 10
1515 10
1516 10
1517 10
1518 10
1519 10
1520 10
1521 10
1522 10
1523 10
1524 10
$EndElementData
