$MeshFormat
4.1 0 8
$EndMeshFormat
$PhysicalNames
1
1 1 "Material:Structural Steel S355 (EN 10025)"
$EndPhysicalNames
$Entities
0 1 0 0
1 0 0 0 360 24 12 1 1 0
$EndEntities
$Nodes
1 148 1 148
1 1 0 148
1
2
3
4
5
6
7
8
9
10
11
12
13
14
15
16
17
18
19
20
21
22
23
24
25
26
27
28
29
30
31
32
33
34
35
36
37
38
39
40
41
42
43
44
45
46
47
48
49
50
51
52
53
54
55
56
57
58
59
60
61
62
63
64
65
66
67
68
69
70
71
72
73
74
75
76
77
78
79
80
81
82
83
84
85
86
87
88
89
90
91
92
93
94
95
96
97
98
99
100
101
102
103
104
105
106
107
108
109
110
111
112
113
114
115
116
117
118
119
120
121
122
123
124
125
126
127
128
129
130
131
132
133
134
135
136
137
138
139
140
141
142
143
144
145
146
147
148
0 0 0
0 14 0
10 0 0
10 14 0
20 0 0
20 14 0
30 0 0
30 14 0
40 0 0
40 14 0
50 0 0
50 14 0
60 0 0
60 14 0
70 0 0
70 14 0
80 0 0
80 14 0
90 0 0
90 16.5 0
100 0 0
100 19 0
110 0 0
110 21.5 0
120 0 0
120 24 0
130 0 0
130 21.5 0
140 0 0
140 19 0
150 0 0
150 16.5 0
160 0 0
160 14 0
170 0 0
170 14 0
180 0 0
180 14 0
190 0 0
190 14 0
200 0 0
200 14 0
210 0 0
210 16.5 0
220 0 0
220 19 0
230 0 0
230 21.5 0
240 0 0
240 24 0
250 0 0
250 21.5 0
260 0 0
260 19 0
270 0 0
270 16.5 0
280 0 0
280 14 0
290 0 0
290 14 0
300 0 0
300 14 0
310 0 0
310 14 0
320 0 0
320 14 0
330 0 0
330 14 0
340 0 0
340 14 0
350 0 0
350 14 0
360 0 0
360 14 0
0 0 12
0 14 12
10 0 12
10 14 12
20 0 12
20 14 12
30 0 12
30 14 12
40 0 12
40 14 12
50 0 12
50 14 12
60 0 12
60 14 12
70 0 12
70 14 12
80 0 12
80 14 12
90 0 12
90 16.5 12
100 0 12
100 19 12
110 0 12
110 21.5 12
120 0 12
120 24 12
130 0 12
130 21.5 12
140 0 12
140 19 12
150 0 12
150 16.5 12
160 0 12
160 14 12
170 0 12
170 14 12
180 0 12
180 14 12
190 0 12
190 14 12
200 0 12
200 14 12
210 0 12
210 16.5 12
220 0 12
220 19 12
230 0 12
230 21.5 12
240 0 12
240 24 12
250 0 12
250 21.5 12
260 0 12
260 19 12
270 0 12
270 16.5 12
280 0 12
280 14 12
290 0 12
290 14 12
300 0 12
300 14 12
310 0 12
310 14 12
320 0 12
320 14 12
330 0 12
330 14 12
340 0 12
340 14 12
350 0 12
350 14 12
360 0 12
360 14 12
$EndNodes
$Elements
1 509 1 509
1 1 1 509
1 1 2
2 1 3
3 1 4
4 1 75
5 1 76
6 1 77
7 1 78
8 2 4
9 2 76
10 2 78
11 3 4
12 3 5
13 3 77
14 3 78
15 3 79
16 4 5
17 4 6
18 4 78
19 4 79
20 4 80
21 5 6
22 5 7
23 5 8
24 5 79
25 5 80
26 5 81
27 5 82
28 6 8
29 6 80
30 6 82
31 7 8
32 7 9
33 7 81
34 7 82
35 7 83
36 8 9
37 8 10
38 8 82
39 8 83
40 8 84
41 9 10
42 9 11
43 9 12
44 9 83
45 9 84
46 9 85
47 9 86
48 10 12
49 10 84
50 10 86
51 11 12
52 11 13
53 11 85
54 11 86
55 11 87
56 12 13
57 12 14
58 12 86
59 12 87
60 12 88
61 13 14
62 13 15
63 13 16
64 13 87
65 13 88
66 13 89
67 13 90
68 14 16
69 14 88
70 14 90
71 15 16
72 15 17
73 15 89
74 15 90
75 15 91
76 16 17
77 16 18
78 16 90
79 16 91
80 16 92
81 17 18
82 17 19
83 17 20
84 17 91
85 17 92
86 17 93
87 17 94
88 18 20
89 18 92
90 18 94
91 19 20
92 19 21
93 19 93
94 19 94
95 19 95
96 20 21
97 20 22
98 20 94
99 20 95
100 20 96
101 21 22
102 21 23
103 21 24
104 21 95
105 21 96
106 21 97
107 21 98
108 22 24
109 22 96
110 22 98
111 23 24
112 23 25
113 23 97
114 23 98
115 23 99
116 24 25
117 24 26
118 24 98
119 24 99
120 24 100
121 25 26
122 25 27
123 25 28
124 25 99
125 25 100
126 25 101
127 25 102
128 26 28
129 26 100
130 26 102
131 27 28
132 27 29
133 27 101
134 27 102
135 27 103
136 28 29
137 28 30
138 28 102
139 28 103
140 28 104
141 29 30
142 29 31
143 29 32
144 29 103
145 29 104
146 29 105
147 29 106
148 30 32
149 30 104
150 30 106
151 31 32
152 31 33
153 31 105
154 31 106
155 31 107
156 32 33
157 32 34
158 32 106
159 32 107
160 32 108
161 33 34
162 33 35
163 33 36
164 33 107
165 33 108
166 33 109
167 33 110
168 34 36
169 34 108
170 34 110
171 35 36
172 35 37
173 35 109
174 35 110
175 35 111
176 36 37
177 36 38
178 36 110
179 36 111
180 36 112
181 37 38
182 37 39
183 37 40
184 37 111
185 37 112
186 37 113
187 37 114
188 38 40
189 38 112
190 38 114
191 39 40
192 39 41
193 39 113
194 39 114
195 39 115
196 40 41
197 40 42
198 40 114
199 40 115
200 40 116
201 41 42
202 41 43
203 41 44
204 41 115
205 41 116
206 41 117
207 41 118
208 42 44
209 42 116
210 42 118
211 43 44
212 43 45
213 43 117
214 43 118
215 43 119
216 44 45
217 44 46
218 44 118
219 44 119
220 44 120
221 45 46
222 45 47
223 45 48
224 45 119
225 45 120
226 45 121
227 45 122
228 46 48
229 46 120
230 46 122
231 47 48
232 47 49
233 47 121
234 47 122
235 47 123
236 48 49
237 48 50
238 48 122
239 48 123
240 48 124
241 49 50
242 49 51
243 49 52
244 49 123
245 49 124
246 49 125
247 49 126
248 50 52
249 50 124
250 50 126
251 51 52
252 51 53
253 51 125
254 51 126
255 51 127
256 52 53
257 52 54
258 52 126
259 52 127
260 52 128
261 53 54
262 53 55
263 53 56
264 53 127
265 53 128
266 53 129
267 53 130
268 54 56
269 54 128
270 54 130
271 55 56
272 55 57
273 55 129
274 55 130
275 55 131
276 56 57
277 56 58
278 56 130
279 56 131
280 56 132
281 57 58
282 57 59
283 57 60
284 57 131
285 57 132
286 57 133
287 57 134
288 58 60
289 58 132
290 58 134
291 59 60
292 59 61
293 59 133
294 59 134
295 59 135
296 60 61
297 60 62
298 60 134
299 60 135
300 60 136
301 61 62
302 61 63
303 61 64
304 61 135
305 61 136
306 61 137
307 61 138
308 62 64
309 62 136
310 62 138
311 63 64
312 63 65
313 63 137
314 63 138
315 63 139
316 64 65
317 64 66
318 64 138
319 64 139
320 64 140
321 65 66
322 65 67
323 65 68
324 65 139
325 65 140
326 65 141
327 65 142
328 66 68
329 66 140
330 66 142
331 67 68
332 67 69
333 67 141
334 67 142
335 67 143
336 68 69
337 68 70
338 68 142
339 68 143
340 68 144
341 69 70
342 69 71
343 69 72
344 69 143
345 69 144
346 69 145
347 69 146
348 70 72
349 70 144
350 70 146
351 71 72
352 71 73
353 71 145
354 71 146
355 71 147
356 72 73
357 72 74
358 72 146
359 72 147
360 72 148
361 73 74
362 73 147
363 73 148
364 74 148
365 75 76
366 75 77
367 75 78
368 76 78
369 77 78
370 77 79
371 78 79
372 78 80
373 79 80
374 79 81
375 79 82
376 80 82
377 81 82
378 81 83
379 82 83
380 82 84
381 83 84
382 83 85
383 83 86
384 84 86
385 85 86
386 85 87
387 86 87
388 86 88
389 87 88
390 87 89
391 87 90
392 88 90
393 89 90
394 89 91
395 90 91
396 90 92
397 91 92
398 91 93
399 91 94
400 92 94
401 93 94
402 93 95
403 94 95
404 94 96
405 95 96
406 95 97
407 95 98
408 96 98
409 97 98
410 97 99
411 98 99
412 98 100
413 99 100
414 99 101
415 99 102
416 100 102
417 101 102
418 101 103
419 102 103
420 102 104
421 103 104
422 103 105
423 103 106
424 104 106
425 105 106
426 105 107
427 106 107
428 106 108
429 107 108
430 107 109
431 107 110
432 108 110
433 109 110
434 109 111
435 110 111
436 110 112
437 111 112
438 111 113
439 111 114
440 112 114
441 113 114
442 113 115
443 114 115
444 114 116
445 115 116
446 115 117
447 115 118
448 116 118
449 117 118
450 117 119
451 118 119
452 118 120
453 119 120
454 119 121
455 119 122
456 120 122
457 121 122
458 121 123
459 122 123
460 122 124
461 123 124
462 123 125
463 123 126
464 124 126
465 125 126
466 125 127
467 126 127
468 126 128
469 127 128
470 127 129
471 127 130
472 128 130
473 129 130
474 129 131
475 130 131
476 130 132
477 131 132
478 131 133
479 131 134
480 132 134
481 133 134
482 133 135
483 134 135
484 134 136
485 135 136
486 135 137
487 135 138
488 136 138
489 137 138
490 137 139
491 138 139
492 138 140
493 139 140
494 139 141
495 139 142
496 140 142
497 141 142
498 141 143
499 142 143
500 142 144
501 143 144
502 143 145
503 143 146
504 144 146
505 145 146
506 145 147
507 146 147
508 146 148
509 147 148
$EndElements
$NodeData
1
"Fixity"
1
0
3
0
3
148
1 0 1 0
2 0 0 0
3 0 0 0
4 0 0 0
5 0 0 0
6 0 0 0
7 0 0 0
8 0 0 0
9 0 0 0
10 0 0 0
11 0 0 0
12 0 0 0
13 0 0 0
14 0 0 0
15 0 0 0
16 0 0 0
17 0 0 0
18 0 0 0
19 0 0 0
20 0 0 0
21 0 0 0
22 0 0 0
23 0 0 0
24 0 0 0
25 1 1 1
26 0 0 0
27 0 0 0
28 0 0 0
29 0 0 0
30 0 0 0
31 0 0 0
32 0 0 0
33 0 0 0
34 0 0 0
35 0 0 0
36 0 0 0
37 0 0 0
38 0 0 0
39 0 0 0
40 0 0 0
41 0 0 0
42 0 0 0
43 0 0 0
44 0 0 0
45 0 0 0
46 0 0 0
47 0 0 0
48 0 0 0
49 0 1 0
50 0 0 0
51 0 0 0
52 0 0 0
53 0 0 0
54 0 0 0
55 0 0 0
56 0 0 0
57 0 0 0
58 0 0 0
59 0 0 0
60 0 0 0
61 0 0 0
62 0 0 0
63 0 0 0
64 0 0 0
65 0 0 0
66 0 0 0
67 0 0 0
68 0 0 0
69 0 0 0
70 0 0 0
71 0 0 0
72 0 0 0
73 0 1 0
74 0 0 0
75 0 1 0
76 0 0 0
77 0 0 0
78 0 0 0
79 0 0 0
80 0 0 0
81 0 0 0
82 0 0 0
83 0 0 0
84 0 0 0
85 0 0 0
86 0 0 0
87 0 0 0
88 0 0 0
89 0 0 0
90 0 0 0
91 0 0 0
92 0 0 0
93 0 0 0
94 0 0 0
95 0 0 0
96 0 0 0
97 0 0 0
98 0 0 0
99 1 1 1
100 0 0 0
101 0 0 0
102 0 0 0
103 0 0 0
104 0 0 0
105 0 0 0
106 0 0 0
107 0 0 0
108 0 0 0
109 0 0 0
110 0 0 0
111 0 0 0
112 0 0 0
113 0 0 0
114 0 0 0
115 0 0 0
116 0 0 0
117 0 0 0
118 0 0 0
119 0 0 0
120 0 0 0
121 0 0 0
122 0 0 0
123 0 1 0
124 0 0 0
125 0 0 0
126 0 0 0
127 0 0 0
128 0 0 0
129 0 0 0
130 0 0 0
131 0 0 0
132 0 0 0
133 0 0 0
134 0 0 0
135 0 0 0
136 0 0 0
137 0 0 0
138 0 0 0
139 0 0 0
140 0 0 0
141 0 0 0
142 0 0 0
143 0 0 0
144 0 0 0
145 0 0 0
146 0 0 0
147 0 1 0
148 0 0 0
$EndNodeData
$NodeData
1
"NodalForce"
1
0
3
0
3
148
1 0 0 0
2 0 0 0
3 0 -9e+05 0
4 0 0 0
5 0 -9e+05 0
6 0 0 0
7 0 -9e+05 0
8 0 0 0
9 0 -9e+05 0
10 0 0 0
11 0 -9e+05 0
12 0 0 0
13 0 -9e+05 0
14 0 0 0
15 0 -9e+05 0
16 0 0 0
17 0 -9e+05 0
18 0 0 0
19 0 -9e+05 0
20 0 0 0
21 0 -9e+05 0
22 0 0 0
23 0 -9e+05 0
24 0 0 0
25 0 -9e+05 0
26 0 0 0
27 0 -9e+05 0
28 0 0 0
29 0 -9e+05 0
30 0 0 0
31 0 -9e+05 0
32 0 0 0
33 0 -9e+05 0
34 0 0 0
35 0 -9e+05 0
36 0 0 0
37 0 -9e+05 0
38 0 0 0
39 0 -9e+05 0
40 0 0 0
41 0 -9e+05 0
42 0 0 0
43 0 -9e+05 0
44 0 0 0
45 0 -9e+05 0
46 0 0 0
47 0 -9e+05 0
48 0 0 0
49 0 -9e+05 0
50 0 0 0
51 0 -9e+05 0
52 0 0 0
53 0 -9e+05 0
54 0 0 0
55 0 -9e+05 0
56 0 0 0
57 0 -9e+05 0
58 0 0 0
59 0 -9e+05 0
60 0 0 0
61 0 -9e+05 0
62 0 0 0
63 0 -9e+05 0
64 0 0 0
65 0 -9e+05 0
66 0 0 0
67 0 -9e+05 0
68 0 0 0
69 0 -9e+05 0
70 0 0 0
71 0 -9e+05 0
72 0 0 0
73 0 0 0
74 0 0 0
75 0 0 0
76 0 0 0
77 0 -9e+05 0
78 0 0 0
79 0 -9e+05 0
80 0 0 0
81 0 -9e+05 0
82 0 0 0
83 0 -9e+05 0
84 0 0 0
85 0 -9e+05 0
86 0 0 0
87 0 -9e+05 0
88 0 0 0
89 0 -9e+05 0
90 0 0 0
91 0 -9e+05 0
92 0 0 0
93 0 -9e+05 0
94 0 0 0
95 0 -9e+05 0
96 0 0 0
97 0 -9e+05 0
98 0 0 0
99 0 -9e+05 0
100 0 0 0
101 0 -9e+05 0
102 0 0 0
103 0 -9e+05 0
104 0 0 0
105 0 -9e+05 0
106 0 0 0
107 0 -9e+05 0
108 0 0 0
109 0 -9e+05 0
110 0 0 0
111 0 -9e+05 0
112 0 0 0
113 0 -9e+05 0
114 0 0 0
115 0 -9e+05 0
116 0 0 0
117 0 -9e+05 0
118 0 0 0
119 0 -9e+05 0
120 0 0 0
121 0 -9e+05 0
122 0 0 0
123 0 -9e+05 0
124 0 0 0
125 0 -9e+05 0
126 0 0 0
127 0 -9e+05 0
128 0 0 0
129 0 -9e+05 0
130 0 0 0
131 0 -9e+05 0
132 0 0 0
133 0 -9e+05 0
134 0 0 0
135 0 -9e+05 0
136 0 0 0
137 0 -9e+05 0
138 0 0 0
139 0 -9e+05 0
140 0 0 0
141 0 -9e+05 0
142 0 0 0
143 0 -9e+05 0
144 0 0 0
145 0 -9e+05 0
146 0 0 0
147 0 0 0
148 0 0 0
$EndNodeData
$ElementData
1
"CrossSectionArea"
1
0
3
0
1
509
1 0.035
2 0.065
3 0.035
4 0.015000000000000001
5 0.015000000000000001
6 0.015000000000000001
7 0.015000000000000001
8 0.065
9 0.015000000000000001
10 0.015000000000000001
11 0.035
12 0.065
13 0.015000000000000001
14 0.015000000000000001
15 0.015000000000000001
16 0.035
17 0.065
18 0.015000000000000001
19 0.015000000000000001
20 0.015000000000000001
21 0.035
22 0.065
23 0.035
24 0.015000000000000001
25 0.015000000000000001
26 0.015000000000000001
27 0.015000000000000001
28 0.065
29 0.015000000000000001
30 0.015000000000000001
31 0.035
32 0.065
33 0.015000000000000001
34 0.015000000000000001
35 0.015000000000000001
36 0.035
37 0.065
38 0.015000000000000001
39 0.015000000000000001
40 0.015000000000000001
41 0.035
42 0.065
43 0.035
44 0.015000000000000001
45 0.015000000000000001
46 0.015000000000000001
47 0.015000000000000001
48 0.065
49 0.015000000000000001
50 0.015000000000000001
51 0.035
52 0.065
53 0.015000000000000001
54 0.015000000000000001
55 0.015000000000000001
56 0.035
57 0.065
58 0.015000000000000001
59 0.015000000000000001
60 0.015000000000000001
61 0.035
62 0.065
63 0.035
64 0.015000000000000001
65 0.015000000000000001
66 0.015000000000000001
67 0.015000000000000001
68 0.065
69 0.015000000000000001
70 0.015000000000000001
71 0.035
72 0.065
73 0.015000000000000001
74 0.015000000000000001
75 0.015000000000000001
76 0.035
77 0.065
78 0.015000000000000001
79 0.015000000000000001
80 0.015000000000000001
81 0.035
82 0.065
83 0.035
84 0.015000000000000001
85 0.015000000000000001
86 0.015000000000000001
87 0.015000000000000001
88 0.065
89 0.015000000000000001
90 0.015000000000000001
91 0.035
92 0.065
93 0.015000000000000001
94 0.015000000000000001
95 0.015000000000000001
96 0.035
97 0.065
98 0.015000000000000001
99 0.015000000000000001
100 0.015000000000000001
101 0.035
102 0.065
103 0.035
104 0.015000000000000001
105 0.015000000000000001
106 0.015000000000000001
107 0.015000000000000001
108 0.065
109 0.015000000000000001
110 0.015000000000000001
111 0.035
112 0.065
113 0.015000000000000001
114 0.015000000000000001
115 0.015000000000000001
116 0.035
117 0.065
118 0.015000000000000001
119 0.015000000000000001
120 0.015000000000000001
121 0.035
122 0.065
123 0.035
124 0.015000000000000001
125 0.015000000000000001
126 0.015000000000000001
127 0.015000000000000001
128 0.065
129 0.015000000000000001
130 0.015000000000000001
131 0.035
132 0.065
133 0.015000000000000001
134 0.015000000000000001
135 0.015000000000000001
136 0.035
137 0.065
138 0.015000000000000001
139 0.015000000000000001
140 0.015000000000000001
141 0.035
142 0.065
143 0.035
144 0.015000000000000001
145 0.015000000000000001
146 0.015000000000000001
147 0.015000000000000001
148 0.065
149 0.015000000000000001
150 0.015000000000000001
151 0.035
152 0.065
153 0.015000000000000001
154 0.015000000000000001
155 0.015000000000000001
156 0.035
157 0.065
158 0.015000000000000001
159 0.015000000000000001
160 0.015000000000000001
161 0.035
162 0.065
163 0.035
164 0.015000000000000001
165 0.015000000000000001
166 0.015000000000000001
167 0.015000000000000001
168 0.065
169 0.015000000000000001
170 0.015000000000000001
171 0.035
172 0.065
173 0.015000000000000001
174 0.015000000000000001
175 0.015000000000000001
176 0.035
177 0.065
178 0.015000000000000001
179 0.015000000000000001
180 0.015000000000000001
181 0.035
182 0.065
183 0.035
184 0.015000000000000001
185 0.015000000000000001
186 0.015000000000000001
187 0.015000000000000001
188 0.065
189 0.015000000000000001
190 0.015000000000000001
191 0.035
192 0.065
193 0.015000000000000001
194 0.015000000000000001
195 0.015000000000000001
196 0.035
197 0.065
198 0.015000000000000001
199 0.015000000000000001
200 0.015000000000000001
201 0.035
202 0.065
203 0.035
204 0.015000000000000001
205 0.015000000000000001
206 0.015000000000000001
207 0.015000000000000001
208 0.065
209 0.015000000000000001
210 0.015000000000000001
211 0.035
212 0.065
213 0.015000000000000001
214 0.015000000000000001
215 0.015000000000000001
216 0.035
217 0.065
218 0.015000000000000001
219 0.015000000000000001
220 0.015000000000000001
221 0.035
222 0.065
223 0.035
224 0.015000000000000001
225 0.015000000000000001
226 0.015000000000000001
227 0.015000000000000001
228 0.065
229 0.015000000000000001
230 0.015000000000000001
231 0.035
232 0.065
233 0.015000000000000001
234 0.015000000000000001
235 0.015000000000000001
236 0.035
237 0.065
238 0.015000000000000001
239 0.015000000000000001
240 0.015000000000000001
241 0.035
242 0.065
243 0.035
244 0.015000000000000001
245 0.015000000000000001
246 0.015000000000000001
247 0.015000000000000001
248 0.065
249 0.015000000000000001
250 0.015000000000000001
251 0.035
252 0.065
253 0.015000000000000001
254 0.015000000000000001
255 0.015000000000000001
256 0.035
257 0.065
258 0.015000000000000001
259 0.015000000000000001
260 0.015000000000000001
261 0.035
262 0.065
263 0.035
264 0.015000000000000001
265 0.015000000000000001
266 0.015000000000000001
267 0.015000000000000001
268 0.065
269 0.015000000000000001
270 0.015000000000000001
271 0.035
272 0.065
273 0.015000000000000001
274 0.015000000000000001
275 0.015000000000000001
276 0.035
277 0.065
278 0.015000000000000001
279 0.015000000000000001
280 0.015000000000000001
281 0.035
282 0.065
283 0.035
284 0.015000000000000001
285 0.015000000000000001
286 0.015000000000000001
287 0.015000000000000001
288 0.065
289 0.015000000000000001
290 0.015000000000000001
291 0.035
292 0.065
293 0.015000000000000001
294 0.015000000000000001
295 0.015000000000000001
296 0.035
297 0.065
298 0.015000000000000001
299 0.015000000000000001
300 0.015000000000000001
301 0.035
302 0.065
303 0.035
304 0.015000000000000001
305 0.015000000000000001
306 0.015000000000000001
307 0.015000000000000001
308 0.065
309 0.015000000000000001
310 0.015000000000000001
311 0.035
312 0.065
313 0.015000000000000001
314 0.015000000000000001
315 0.015000000000000001
316 0.035
317 0.065
318 0.015000000000000001
319 0.015000000000000001
320 0.015000000000000001
321 0.035
322 0.065
323 0.035
324 0.015000000000000001
325 0.015000000000000001
326 0.015000000000000001
327 0.015000000000000001
328 0.065
329 0.015000000000000001
330 0.015000000000000001
331 0.035
332 0.065
333 0.015000000000000001
334 0.015000000000000001
335 0.015000000000000001
336 0.035
337 0.065
338 0.015000000000000001
339 0.015000000000000001
340 0.015000000000000001
341 0.035
342 0.065
343 0.035
344 0.015000000000000001
345 0.015000000000000001
346 0.015000000000000001
347 0.015000000000000001
348 0.065
349 0.015000000000000001
350 0.015000000000000001
351 0.035
352 0.065
353 0.015000000000000001
354 0.015000000000000001
355 0.015000000000000001
356 0.035
357 0.065
358 0.015000000000000001
359 0.015000000000000001
360 0.015000000000000001
361 0.035
362 0.015000000000000001
363 0.015000000000000001
364 0.015000000000000001
365 0.035
366 0.065
367 0.035
368 0.065
369 0.035
370 0.065
371 0.035
372 0.065
373 0.035
374 0.065
375 0.035
376 0.065
377 0.035
378 0.065
379 0.035
380 0.065
381 0.035
382 0.065
383 0.035
384 0.065
385 0.035
386 0.065
387 0.035
388 0.065
389 0.035
390 0.065
391 0.035
392 0.065
393 0.035
394 0.065
395 0.035
396 0.065
397 0.035
398 0.065
399 0.035
400 0.065
401 0.035
402 0.065
403 0.035
404 0.065
405 0.035
406 0.065
407 0.035
408 0.065
409 0.035
410 0.065
411 0.035
412 0.065
413 0.035
414 0.065
415 0.035
416 0.065
417 0.035
418 0.065
419 0.035
420 0.065
421 0.035
422 0.065
423 0.035
424 0.065
425 0.035
426 0.065
427 0.035
428 0.065
429 0.035
430 0.065
431 0.035
432 0.065
433 0.035
434 0.065
435 0.035
436 0.065
437 0.035
438 0.065
439 0.035
440 0.065
441 0.035
442 0.065
443 0.035
444 0.065
445 0.035
446 0.065
447 0.035
448 0.065
449 0.035
450 0.065
451 0.035
452 0.065
453 0.035
454 0.065
455 0.035
456 0.065
457 0.035
458 0.065
459 0.035
460 0.065
461 0.035
462 0.065
463 0.035
464 0.065
465 0.035
466 0.065
467 0.035
468 0.065
469 0.035
470 0.065
471 0.035
472 0.065
473 0.035
474 0.065
475 0.035
476 0.065
477 0.035
478 0.065
479 0.035
480 0.065
481 0.035
482 0.065
483 0.035
484 0.065
485 0.035
486 0.065
487 0.035
488 0.065
489 0.035
490 0.065
491 0.035
492 0.065
493 0.035
494 0.065
495 0.035
496 0.065
497 0.035
498 0.065
499 0.035
500 0.065
501 0.035
502 0.065
503 0.035
504 0.065
505 0.035
506 0.065
507 0.035
508 0.065
509 0.035
$EndElementData
$ElementData
1
"MaterialID"
1
0
3
0
1
509
1 3
2 3
3 3
4 3
5 3
6 3
7 3
8 3
9 3
10 3
11 3
12 3
13 3
14 3
15 3
16 3
17 3
18 3
19 3
20 3
21 3
22 3
23 3
24 3
25 3
26 3
27 3
28 3
29 3
30 3
31 3
32 3
33 3
34 3
35 3
36 3
37 3
38 3
39 3
40 3
41 3
42 3
43 3
44 3
45 3
46 3
47 3
48 3
49 3
50 3
51 3
52 3
53 3
54 3
55 3
56 3
57 3
58 3
59 3
60 3
61 3
62 3
63 3
64 3
65 3
66 3
67 3
68 3
69 3
70 3
71 3
72 3
73 3
74 3
75 3
76 3
77 3
78 3
79 3
80 3
81 3
82 3
83 3
84 3
85 3
86 3
87 3
88 3
89 3
90 3
91 3
92 3
93 3
94 3
95 3
96 3
97 3
98 3
99 3
100 3
101 3
102 3
103 3
104 3
105 3
106 3
107 3
108 3
109 3
110 3
111 3
112 3
113 3
114 3
115 3
116 3
117 3
118 3
119 3
120 3
121 3
122 3
123 3
124 3
125 3
126 3
127 3
128 3
129 3
130 3
131 3
132 3
133 3
134 3
135 3
136 3
137 3
138 3
139 3
140 3
141 3
142 3
143 3
144 3
145 3
146 3
147 3
148 3
149 3
150 3
151 3
152 3
153 3
154 3
155 3
156 3
157 3
158 3
159 3
160 3
161 3
162 3
163 3
164 3
165 3
166 3
167 3
168 3
169 3
170 3
171 3
172 3
173 3
174 3
175 3
176 3
177 3
178 3
179 3
180 3
181 3
182 3
183 3
184 3
185 3
186 3
187 3
188 3
189 3
190 3
191 3
192 3
193 3
194 3
195 3
196 3
197 3
198 3
199 3
200 3
201 3
202 3
203 3
204 3
205 3
206 3
207 3
208 3
209 3
210 3
211 3
212 3
213 3
214 3
215 3
216 3
217 3
218 3
219 3
220 3
221 3
222 3
223 3
224 3
225 3
226 3
227 3
228 3
229 3
230 3
231 3
232 3
233 3
234 3
235 3
236 3
237 3
238 3
239 3
240 3
241 3
242 3
243 3
244 3
245 3
246 3
247 3
248 3
249 3
250 3
251 3
252 3
253 3
254 3
255 3
256 3
257 3
258 3
259 3
260 3
261 3
262 3
263 3
264 3
265 3
266 3
267 3
268 3
269 3
270 3
271 3
272 3
273 3
274 3
275 3
276 3
277 3
278 3
279 3
280 3
281 3
282 3
283 3
284 3
285 3
286 3
287 3
288 3
289 3
290 3
291 3
292 3
293 3
294 3
295 3
296 3
297 3
298 3
299 3
300 3
301 3
302 3
303 3
304 3
305 3
306 3
307 3
308 3
309 3
310 3
311 3
312 3
313 3
314 3
315 3
316 3
317 3
318 3
319 3
320 3
321 3
322 3
323 3
324 3
325 3
326 3
327 3
328 3
329 3
330 3
331 3
332 3
333 3
334 3
335 3
336 3
337 3
338 3
339 3
340 3
341 3
342 3
343 3
344 3
345 3
346 3
347 3
348 3
349 3
350 3
351 3
352 3
353 3
354 3
355 3
356 3
357 3
358 3
359 3
360 3
361 3
362 3
363 3
364 3
365 3
366 3
367 3
368 3
369 3
370 3
371 3
372 3
373 3
374 3
375 3
376 3
377 3
378 3
379 3
380 3
381 3
382 3
383 3
384 3
385 3
386 3
387 3
388 3
389 3
390 3
391 3
392 3
393 3
394 3
395 3
396 3
397 3
398 3
399 3
400 3
401 3
402 3
403 3
404 3
405 3
406 3
407 3
408 3
409 3
410 3
411 3
412 3
413 3
414 3
415 3
416 3
417 3
418 3
419 3
420 3
421 3
422 3
423 3
424 3
425 3
426 3
427 3
428 3
429 3
430 3
431 3
432 3
433 3
434 3
435 3
436 3
437 3
438 3
439 3
440 3
441 3
442 3
443 3
444 3
445 3
446 3
447 3
448 3
449 3
450 3
451 3
452 3
453 3
454 3
455 3
456 3
457 3
458 3
459 3
460 3
461 3
462 3
463 3
464 3
465 3
466 3
467 3
468 3
469 3
470 3
471 3
472 3
473 3
474 3
475 3
476 3
477 3
478 3
479 3
480 3
481 3
482 3
483 3
484 3
485 3
486 3
487 3
488 3
489 3
490 3
491 3
492 3
493 3
494 3
495 3
496 3
497 3
498 3
499 3
500 3
501 3
502 3
503 3
504 3
505 3
506 3
507 3
508 3
509 3
$EndElementData
