$MeshFormat
4.1 0 8
$EndMeshFormat
$PhysicalNames
1
1 1 "Material:Structural Steel (AISI 4130)"
$EndPhysicalNames
$Entities
0 1 0 0
1 0 0 0 48 8 8 1 1 0
$EndEntities
$Nodes
1 42 1 42
1 1 0 42
1
2
3
4
5
6
7
8
9
10
11
12
13
14
15
16
17
18
19
20
21
22
23
24
25
26
27
28
29
30
31
32
33
34
35
36
37
38
39
40
41
42
0 0 0
6 0 0
12 0 0
18 0 0
24 0 0
30 0 0
36 0 0
42 0 0
48 0 0
6 8 0
12 8 0
18 8 0
24 8 0
30 8 0
36 8 0
42 8 0
12 4 0
18 4 0
24 4 0
30 4 0
36 4 0
0 0 8
6 0 8
12 0 8
18 0 8
24 0 8
30 0 8
36 0 8
42 0 8
48 0 8
6 8 8
12 8 8
18 8 8
24 8 8
30 8 8
36 8 8
42 8 8
12 4 8
18 4 8
24 4 8
30 4 8
36 4 8
$EndNodes
$Elements
1 141 1 141
1 1 1 141
1 1 2
2 1 10
3 1 22
4 1 23
5 1 31
6 2 3
7 2 10
8 2 17
9 2 23
10 2 24
11 2 31
12 3 4
13 3 17
14 3 18
15 3 24
16 3 25
17 3 38
18 4 5
19 4 18
20 4 19
21 4 25
22 4 26
23 4 39
24 5 6
25 5 19
26 5 26
27 5 27
28 5 40
29 6 7
30 6 19
31 6 20
32 6 27
33 6 28
34 6 41
35 7 8
36 7 20
37 7 21
38 7 28
39 7 29
40 7 42
41 8 9
42 8 16
43 8 21
44 8 29
45 8 30
46 8 37
47 9 16
48 9 30
49 10 11
50 10 17
51 10 31
52 10 32
53 11 12
54 11 17
55 11 18
56 11 32
57 11 33
58 12 13
59 12 18
60 12 19
61 12 33
62 12 34
63 13 14
64 13 19
65 13 34
66 13 35
67 14 15
68 14 19
69 14 20
70 14 35
71 14 36
72 15 16
73 15 20
74 15 21
75 15 36
76 15 37
77 16 21
78 16 30
79 16 37
80 17 23
81 17 31
82 17 32
83 17 38
84 18 24
85 18 32
86 18 33
87 18 39
88 19 25
89 19 27
90 19 33
91 19 34
92 19 35
93 19 40
94 20 28
95 20 35
96 20 36
97 20 41
98 21 29
99 21 36
100 21 37
101 21 42
102 22 23
103 22 31
104 23 24
105 23 31
106 23 38
107 24 25
108 24 38
109 24 39
110 25 26
111 25 39
112 25 40
113 26 27
114 26 40
115 27 28
116 27 40
117 27 41
118 28 29
119 28 41
120 28 42
121 29 30
122 29 37
123 29 42
124 30 37
125 31 32
126 31 38
127 32 33
128 32 38
129 32 39
130 33 34
131 33 39
132 33 40
133 34 35
134 34 40
135 35 36
136 35 40
137 35 41
138 36 37
139 36 41
140 36 42
141 37 42
$EndElements
$NodeData
1
"Fixity"
1
0
3
0
3
42
1 1 1 1
2 0 0 0
3 0 0 0
4 0 0 0
5 0 0 0
6 0 0 0
7 0 0 0
8 0 0 0
9 0 1 0
10 0 0 0
11 0 0 0
12 0 0 0
13 0 0 0
14 0 0 0
15 0 0 0
16 0 0 0
17 0 0 0
18 0 0 0
19 0 0 0
20 0 0 0
21 0 0 0
22 1 1 1
23 0 0 0
24 0 0 0
25 0 0 0
26 0 0 0
27 0 0 0
28 0 0 0
29 0 0 0
30 0 1 0
31 0 0 0
32 0 0 0
33 0 0 0
34 0 0 0
35 0 0 0
36 0 0 0
37 0 0 0
38 0 0 0
39 0 0 0
40 0 0 0
41 0 0 0
42 0 0 0
$EndNodeData
$NodeData
1
"NodalForce"
1
0
3
0
3
42
1 0 0 0
2 0 -2e+05 0
3 0 -2e+05 0
4 0 -2e+05 0
5 0 -2e+05 0
6 0 -2e+05 0
7 0 -2e+05 0
8 0 -2e+05 0
9 0 0 0
10 0 0 0
11 0 0 0
12 0 0 0
13 0 0 0
14 0 0 0
15 0 0 0
16 0 0 0
17 0 0 0
18 0 0 0
19 0 0 0
20 0 0 0
21 0 0 0
22 0 0 0
23 0 -2e+05 0
24 0 -2e+05 0
25 0 -2e+05 0
26 0 -2e+05 0
27 0 -2e+05 0
28 0 -2e+05 0
29 0 -2e+05 0
30 0 0 0
31 0 0 0
32 0 0 0
33 0 0 0
34 0 0 0
35 0 0 0
36 0 0 0
37 0 0 0
38 0 0 0
39 0 0 0
40 0 0 0
41 0 0 0
42 0 0 0
$EndNodeData
$ElementData
1
"CrossSectionArea"
1
0
3
0
1
141
1 0.026000000000000002
2 0.026000000000000002
3 0.007
4 0.007
5 0.007
6 0.026000000000000002
7 0.014
8 0.014
9 0.007
10 0.007
11 0.007
12 0.026000000000000002
13 0.014
14 0.014
15 0.007
16 0.007
17 0.007
18 0.026000000000000002
19 0.014
20 0.014
21 0.007
22 0.007
23 0.007
24 0.026000000000000002
25 0.014
26 0.007
27 0.007
28 0.007
29 0.026000000000000002
30 0.014
31 0.014
32 0.007
33 0.007
34 0.007
35 0.026000000000000002
36 0.014
37 0.014
38 0.007
39 0.007
40 0.007
41 0.026000000000000002
42 0.014
43 0.014
44 0.007
45 0.007
46 0.007
47 0.026000000000000002
48 0.007
49 0.026000000000000002
50 0.014
51 0.007
52 0.007
53 0.026000000000000002
54 0.014
55 0.014
56 0.007
57 0.007
58 0.026000000000000002
59 0.014
60 0.014
61 0.007
62 0.007
63 0.026000000000000002
64 0.014
65 0.007
66 0.007
67 0.026000000000000002
68 0.014
69 0.014
70 0.007
71 0.007
72 0.026000000000000002
73 0.014
74 0.014
75 0.007
76 0.007
77 0.014
78 0.007
79 0.007
80 0.007
81 0.007
82 0.007
83 0.007
84 0.007
85 0.007
86 0.007
87 0.007
88 0.007
89 0.007
90 0.007
91 0.007
92 0.007
93 0.007
94 0.007
95 0.007
96 0.007
97 0.007
98 0.007
99 0.007
100 0.007
101 0.007
102 0.026000000000000002
103 0.026000000000000002
104 0.026000000000000002
105 0.014
106 0.014
107 0.026000000000000002
108 0.014
109 0.014
110 0.026000000000000002
111 0.014
112 0.014
113 0.026000000000000002
114 0.014
115 0.026000000000000002
116 0.014
117 0.014
118 0.026000000000000002
119 0.014
120 0.014
121 0.026000000000000002
122 0.014
123 0.014
124 0.026000000000000002
125 0.026000000000000002
126 0.014
127 0.026000000000000002
128 0.014
129 0.014
130 0.026000000000000002
131 0.014
132 0.014
133 0.026000000000000002
134 0.014
135 0.026000000000000002
136 0.014
137 0.014
138 0.026000000000000002
139 0.014
140 0.014
141 0.014
$EndElementData
$ElementData
1
"MaterialID"
1
0
3
0
1
141
1 0
2 0
3 0
4 0
5 0
6 0
7 0
8 0
9 0
10 0
11 0
12 0
13 0
14 0
15 0
16 0
17 0
18 0
19 0
20 0
21 0
22 0
23 0
24 0
25 0
26 0
27 0
28 0
29 0
30 0
31 0
32 0
33 0
34 0
35 0
36 0
37 0
38 0
39 0
40 0
41 0
42 0
43 0
44 0
45 0
46 0
47 0
48 0
49 0
50 0
51 0
52 0
53 0
54 0
55 0
56 0
57 0
58 0
59 0
60 0
61 0
62 0
63 0
64 0
65 0
66 0
67 0
68 0
69 0
70 0
71 0
72 0
73 0
74 0
75 0
76 0
77 0
78 0
79 0
80 0
81 0
82 0
83 0
84 0
85 0
86 0
87 0
88 0
89 0
90 0
91 0
92 0
93 0
94 0
95 0
96 0
97 0
98 0
99 0
100 0
101 0
102 0
103 0
104 0
105 0
106 0
107 0
108 0
109 0
110 0
111 0
112 0
113 0
114 0
115 0
116 0
117 0
118 0
119 0
120 0
121 0
122 0
123 0
124 0
125 0
126 0
127 0
128 0
129 0
130 0
131 0
132 0
133 0
134 0
135 0
136 0
137 0
138 0
139 0
140 0
141 0
$EndElementData
