$MeshFormat
4.1 0 8
$EndMeshFormat
$PhysicalNames
1
1 1 "Material:Structural Steel (AISI 4130)"
$EndPhysicalNames
$Entities
0 1 0 0
1 0 0 0 48 9 8 1 1 0
$EndEntities
$Nodes
1 32 1 32
1 1 0 32
1
2
3
4
5
6
7
8
9
10
11
12
13
14
15
16
17
18
19
20
21
22
23
24
25
26
27
28
29
30
31
32
0 0 0
6 0 0
12 0 0
18 0 0
24 0 0
30 0 0
36 0 0
42 0 0
48 0 0
6 7.148050297095269 0
12 8.121320343559642 0
18 8.77163859753386 0
24 9 0
30 8.77163859753386 0
36 8.121320343559642 0
42 7.14805029709527 0
0 0 8
6 0 8
12 0 8
18 0 8
24 0 8
30 0 8
36 0 8
42 0 8
48 0 8
6 7.148050297095269 8
12 8.121320343559642 8
18 8.77163859753386 8
24 9 8
30 8.77163859753386 8
36 8.121320343559642 8
42 7.14805029709527 8
$EndNodes
$Elements
1 103 1 103
1 1 1 103
1 1 2
2 1 10
3 1 17
4 1 18
5 1 26
6 2 3
7 2 10
8 2 18
9 2 19
10 2 26
11 3 4
12 3 10
13 3 11
14 3 19
15 3 20
16 3 27
17 4 5
18 4 11
19 4 12
20 4 20
21 4 21
22 4 28
23 5 6
24 5 12
25 5 13
26 5 14
27 5 21
28 5 22
29 5 29
30 6 7
31 6 14
32 6 15
33 6 22
34 6 23
35 6 30
36 7 8
37 7 15
38 7 16
39 7 23
40 7 24
41 7 31
42 8 9
43 8 16
44 8 24
45 8 25
46 8 32
47 9 16
48 9 25
49 10 11
50 10 19
51 10 26
52 10 27
53 11 12
54 11 20
55 11 27
56 11 28
57 12 13
58 12 21
59 12 28
60 12 29
61 13 14
62 13 29
63 13 30
64 14 15
65 14 21
66 14 30
67 14 31
68 15 16
69 15 22
70 15 31
71 15 32
72 16 23
73 16 25
74 16 32
75 17 18
76 17 26
77 18 19
78 18 26
79 19 20
80 19 26
81 19 27
82 20 21
83 20 27
84 20 28
85 21 22
86 21 28
87 21 29
88 21 30
89 22 23
90 22 30
91 22 31
92 23 24
93 23 31
94 23 32
95 24 25
96 24 32
97 25 32
98 26 27
99 27 28
100 28 29
101 29 30
102 30 31
103 31 32
$EndElements
$NodeData
1
"Fixity"
1
0
3
0
3
32
1 1 1 1
2 0 0 0
3 0 0 0
4 0 0 0
5 0 0 0
6 0 0 0
7 0 0 0
8 0 0 0
9 0 1 0
10 0 0 0
11 0 0 0
12 0 0 0
13 0 0 0
14 0 0 0
15 0 0 0
16 0 0 0
17 1 1 1
18 0 0 0
19 0 0 0
20 0 0 0
21 0 0 0
22 0 0 0
23 0 0 0
24 0 0 0
25 0 1 0
26 0 0 0
27 0 0 0
28 0 0 0
29 0 0 0
30 0 0 0
31 0 0 0
32 0 0 0
$EndNodeData
$NodeData
1
"NodalForce"
1
0
3
0
3
32
1 0 0 0
2 0 -2e+05 0
3 0 -2e+05 0
4 0 -2e+05 0
5 0 -2e+05 0
6 0 -2e+05 0
7 0 -2e+05 0
8 0 -2e+05 0
9 0 0 0
10 0 0 0
11 0 0 0
12 0 0 0
13 0 0 0
14 0 0 0
15 0 0 0
16 0 0 0
17 0 0 0
18 0 -2e+05 0
19 0 -2e+05 0
20 0 -2e+05 0
21 0 -2e+05 0
22 0 -2e+05 0
23 0 -2e+05 0
24 0 -2e+05 0
25 0 0 0
26 0 0 0
27 0 0 0
28 0 0 0
29 0 0 0
30 0 0 0
31 0 0 0
32 0 0 0
$EndNodeData
$ElementData
1
"CrossSectionArea"
1
0
3
0
1
103
1 0.026000000000000002
2 0.026000000000000002
3 0.007
4 0.007
5 0.007
6 0.026000000000000002
7 0.014
8 0.007
9 0.007
10 0.007
11 0.026000000000000002
12 0.014
13 0.014
14 0.007
15 0.007
16 0.007
17 0.026000000000000002
18 0.014
19 0.014
20 0.007
21 0.007
22 0.007
23 0.026000000000000002
24 0.014
25 0.014
26 0.014
27 0.007
28 0.007
29 0.007
30 0.026000000000000002
31 0.014
32 0.014
33 0.007
34 0.007
35 0.007
36 0.026000000000000002
37 0.014
38 0.014
39 0.007
40 0.007
41 0.007
42 0.026000000000000002
43 0.014
44 0.007
45 0.007
46 0.007
47 0.026000000000000002
48 0.007
49 0.026000000000000002
50 0.007
51 0.007
52 0.007
53 0.026000000000000002
54 0.007
55 0.007
56 0.007
57 0.026000000000000002
58 0.007
59 0.007
60 0.007
61 0.026000000000000002
62 0.007
63 0.007
64 0.026000000000000002
65 0.007
66 0.007
67 0.007
68 0.026000000000000002
69 0.007
70 0.007
71 0.007
72 0.007
73 0.007
74 0.007
75 0.026000000000000002
76 0.026000000000000002
77 0.026000000000000002
78 0.014
79 0.026000000000000002
80 0.014
81 0.014
82 0.026000000000000002
83 0.014
84 0.014
85 0.026000000000000002
86 0.014
87 0.014
88 0.014
89 0.026000000000000002
90 0.014
91 0.014
92 0.026000000000000002
93 0.014
94 0.014
95 0.026000000000000002
96 0.014
97 0.026000000000000002
98 0.026000000000000002
99 0.026000000000000002
100 0.026000000000000002
101 0.026000000000000002
102 0.026000000000000002
103 0.026000000000000002
$EndElementData
$ElementData
1
"MaterialID"
1
0
3
0
1
103
1 0
2 0
3 0
4 0
5 0
6 0
7 0
8 0
9 0
10 0
11 0
12 0
13 0
14 0
15 0
16 0
17 0
18 0
19 0
20 0
21 0
22 0
23 0
24 0
25 0
26 0
27 0
28 0
29 0
30 0
31 0
32 0
33 0
34 0
35 0
36 0
37 0
38 0
39 0
40 0
41 0
42 0
43 0
44 0
45 0
46 0
47 0
48 0
49 0
50 0
51 0
52 0
53 0
54 0
55 0
56 0
57 0
58 0
59 0
60 0
61 0
62 0
63 0
64 0
65 0
66 0
67 0
68 0
69 0
70 0
71 0
72 0
73 0
74 0
75 0
76 0
77 0
78 0
79 0
80 0
81 0
82 0
83 0
84 0
85 0
86 0
87 0
88 0
89 0
90 0
91 0
92 0
93 0
94 0
95 0
96 0
97 0
98 0
99 0
100 0
101 0
102 0
103 0
$EndElementData
