$MeshFormat
4.1 0 8
$EndMeshFormat
$PhysicalNames
1
1 1 "Material:Structural Steel (AISI 4130)"
$EndPhysicalNames
$Entities
0 1 0 0
1 0 0 0 36 6 7 1 1 0
$EndEntities
$Nodes
1 24 1 24
1 1 0 24
1
2
3
4
5
6
7
8
9
10
11
12
13
14
15
16
17
18
19
20
21
22
23
24
0 0 0
6 0 0
12 0 0
18 0 0
24 0 0
30 0 0
36 0 0
6 6 0
12 6 0
18 6 0
24 6 0
30 6 0
0 0 7
6 0 7
12 0 7
18 0 7
24 0 7
30 0 7
36 0 7
6 6 7
12 6 7
18 6 7
24 6 7
30 6 7
$EndNodes
$Elements
1 75 1 75
1 1 1 75
1 1 2
2 1 8
3 1 13
4 1 14
5 1 20
6 2 3
7 2 8
8 2 14
9 2 15
10 2 20
11 3 4
12 3 8
13 3 9
14 3 15
15 3 16
16 3 21
17 4 5
18 4 9
19 4 10
20 4 11
21 4 16
22 4 17
23 4 22
24 5 6
25 5 11
26 5 12
27 5 17
28 5 18
29 5 23
30 6 7
31 6 12
32 6 18
33 6 19
34 6 24
35 7 12
36 7 19
37 8 9
38 8 15
39 8 20
40 8 21
41 9 10
42 9 16
43 9 21
44 9 22
45 10 11
46 10 22
47 10 23
48 11 12
49 11 16
50 11 23
51 11 24
52 12 17
53 12 19
54 12 24
55 13 14
56 13 20
57 14 15
58 14 20
59 15 16
60 15 20
61 15 21
62 16 17
63 16 21
64 16 22
65 16 23
66 17 18
67 17 23
68 17 24
69 18 19
70 18 24
71 19 24
72 20 21
73 21 22
74 22 23
75 23 24
$EndElements
$NodeData
1
"Fixity"
1
0
3
0
3
24
1 1 1 1
2 0 0 0
3 0 0 0
4 0 0 0
5 0 0 0
6 0 0 0
7 0 1 0
8 0 0 0
9 0 0 0
10 0 0 0
11 0 0 0
12 0 0 0
13 1 1 1
14 0 0 0
15 0 0 0
16 0 0 0
17 0 0 0
18 0 0 0
19 0 1 0
20 0 0 0
21 0 0 0
22 0 0 0
23 0 0 0
24 0 0 0
$EndNodeData
$NodeData
1
"NodalForce"
1
0
3
0
3
24
1 0 0 0
2 0 -150000 0
3 0 -150000 0
4 0 -150000 0
5 0 -150000 0
6 0 -150000 0
7 0 0 0
8 0 0 0
9 0 0 0
10 0 0 0
11 0 0 0
12 0 0 0
13 0 0 0
14 0 -150000 0
15 0 -150000 0
16 0 -150000 0
17 0 -150000 0
18 0 -150000 0
19 0 0 0
20 0 0 0
21 0 0 0
22 0 0 0
23 0 0 0
24 0 0 0
$EndNodeData
$ElementData
1
"CrossSectionArea"
1
0
3
0
1
75
1 0.022000000000000002
2 0.022000000000000002
3 0.006
4 0.006
5 0.006
6 0.022000000000000002
7 0.012
8 0.006
9 0.006
10 0.006
11 0.022000000000000002
12 0.012
13 0.012
14 0.006
15 0.006
16 0.006
17 0.022000000000000002
18 0.012
19 0.012
20 0.012
21 0.006
22 0.006
23 0.006
24 0.022000000000000002
25 0.012
26 0.012
27 0.006
28 0.006
29 0.006
30 0.022000000000000002
31 0.012
32 0.006
33 0.006
34 0.006
35 0.022000000000000002
36 0.006
37 0.022000000000000002
38 0.006
39 0.006
40 0.006
41 0.022000000000000002
42 0.006
43 0.006
44 0.006
45 0.022000000000000002
46 0.006
47 0.006
48 0.022000000000000002
49 0.006
50 0.006
51 0.006
52 0.006
53 0.006
54 0.006
55 0.022000000000000002
56 0.022000000000000002
57 0.022000000000000002
58 0.012
59 0.022000000000000002
60 0.012
61 0.012
62 0.022000000000000002
63 0.012
64 0.012
65 0.012
66 0.022000000000000002
67 0.012
68 0.012
69 0.022000000000000002
70 0.012
71 0.022000000000000002
72 0.022000000000000002
73 0.022000000000000002
74 0.022000000000000002
75 0.022000000000000002
$EndElementData
$ElementData
1
"MaterialID"
1
0
3
0
1
75
1 0
2 0
3 0
4 0
5 0
6 0
7 0
8 0
9 0
10 0
11 0
12 0
13 0
14 0
15 0
16 0
17 0
18 0
19 0
20 0
21 0
22 0
23 0
24 0
25 0
26 0
27 0
28 0
29 0
30 0
31 0
32 0
33 0
34 0
35 0
36 0
37 0
38 0
39 0
40 0
41 0
42 0
43 0
44 0
45 0
46 0
47 0
48 0
49 0
50 0
51 0
52 0
53 0
54 0
55 0
56 0
57 0
58 0
59 0
60 0
61 0
62 0
63 0
64 0
65 0
66 0
67 0
68 0
69 0
70 0
71 0
72 0
73 0
74 0
75 0
$EndElementData
