$MeshFormat
4.1 0 8
$EndMeshFormat
$PhysicalNames
1
1 1 "Material:Structural Steel (AISI 4130)"
$EndPhysicalNames
$Entities
0 1 0 0
1 0 0 0 36 6 7 1 1 0
$EndEntities
$Nodes
1 24 1 24
1 1 0 24
1
2
3
4
5
6
7
8
9
10
11
12
13
14
15
16
17
18
19
20
21
22
23
24
0 0 0
6 0 0
12 0 0
18 0 0
24 0 0
30 0 0
36 0 0
6 6 0
12 6 0
18 6 0
24 6 0
30 6 0
0 0 7
6 0 7
12 0 7
18 0 7
24 0 7
30 0 7
36 0 7
6 6 7
12 6 7
18 6 7
24 6 7
30 6 7
$EndNodes
$Elements
1 75 1 75
1 1 1 75
1 1 2
2 1 8
3 1 13
4 1 14
5 1 20
6 2 3
7 2 8
8 2 9
9 2 14
10 2 15
11 2 20
12 2 21
13 3 4
14 3 9
15 3 10
16 3 15
17 3 16
18 3 21
19 3 22
20 4 5
21 4 10
22 4 16
23 4 17
24 4 22
25 5 6
26 5 10
27 5 11
28 5 17
29 5 18
30 5 22
31 5 23
32 6 7
33 6 11
34 6 12
35 6 18
36 6 19
37 6 23
38 6 24
39 7 12
40 7 19
41 8 9
42 8 20
43 8 21
44 9 10
45 9 21
46 9 22
47 10 11
48 10 22
49 10 23
50 11 12
51 11 23
52 11 24
53 12 19
54 12 24
55 13 14
56 13 20
57 14 15
58 14 20
59 14 21
60 15 16
61 15 21
62 15 22
63 16 17
64 16 22
65 17 18
66 17 22
67 17 23
68 18 19
69 18 23
70 18 24
71 19 24
72 20 21
73 21 22
74 22 23
75 23 24
$EndElements
$NodeData
1
"Fixity"
1
0
3
0
3
24
1 1 1 1
2 0 0 0
3 0 0 0
4 0 0 0
5 0 0 0
6 0 0 0
7 0 1 0
8 0 0 0
9 0 0 0
10 0 0 0
11 0 0 0
12 0 0 0
13 1 1 1
14 0 0 0
15 0 0 0
16 0 0 0
17 0 0 0
18 0 0 0
19 0 1 0
20 0 0 0
21 0 0 0
22 0 0 0
23 0 0 0
24 0 0 0
$EndNodeData
$NodeData
1
"NodalForce"
1
0
3
0
3
24
1 0 0 0
2 0 -150000 0
3 0 -150000 0
4 0 -150000 0
5 0 -150000 0
6 0 -150000 0
7 0 0 0
8 0 0 0
9 0 0 0
10 0 0 0
11 0 0 0
12 0 0 0
13 0 0 0
14 0 -150000 0
15 0 -150000 0
16 0 -150000 0
17 0 -150000 0
18 0 -150000 0
19 0 0 0
20 0 0 0
21 0 0 0
22 0 0 0
23 0 0 0
24 0 0 0
$EndNodeData
$ElementData
1
"CrossSectionArea"
1
0
3
0
1
75
1 0.022000000000000002
2 0.022000000000000002
3 0.006
4 0.006
5 0.006
6 0.022000000000000002
7 0.012
8 0.012
9 0.006
10 0.006
11 0.006
12 0.006
13 0.022000000000000002
14 0.012
15 0.012
16 0.006
17 0.006
18 0.006
19 0.006
20 0.022000000000000002
21 0.012
22 0.006
23 0.006
24 0.006
25 0.022000000000000002
26 0.012
27 0.012
28 0.006
29 0.006
30 0.006
31 0.006
32 0.022000000000000002
33 0.012
34 0.012
35 0.006
36 0.006
37 0.006
38 0.006
39 0.022000000000000002
40 0.006
41 0.022000000000000002
42 0.006
43 0.006
44 0.022000000000000002
45 0.006
46 0.006
47 0.022000000000000002
48 0.006
49 0.006
50 0.022000000000000002
51 0.006
52 0.006
53 0.006
54 0.006
55 0.022000000000000002
56 0.022000000000000002
57 0.022000000000000002
58 0.012
59 0.012
60 0.022000000000000002
61 0.012
62 0.012
63 0.022000000000000002
64 0.012
65 0.022000000000000002
66 0.012
67 0.012
68 0.022000000000000002
69 0.012
70 0.012
71 0.022000000000000002
72 0.022000000000000002
73 0.022000000000000002
74 0.022000000000000002
75 0.022000000000000002
$EndElementData
$ElementData
1
"MaterialID"
1
0
3
0
1
75
1 0
2 0
3 0
4 0
5 0
6 0
7 0
8 0
9 0
10 0
11 0
12 0
13 0
14 0
15 0
16 0
17 0
18 0
19 0
20 0
21 0
22 0
23 0
24 0
25 0
26 0
27 0
28 0
29 0
30 0
31 0
32 0
33 0
34 0
35 0
36 0
37 0
38 0
39 0
40 0
41 0
42 0
43 0
44 0
45 0
46 0
47 0
48 0
49 0
50 0
51 0
52 0
53 0
54 0
55 0
56 0
57 0
58 0
59 0
60 0
61 0
62 0
63 0
64 0
65 0
66 0
67 0
68 0
69 0
70 0
71 0
72 0
73 0
74 0
75 0
$EndElementData
