$MeshFormat
4.1 0 8
$EndMeshFormat
$PhysicalNames
1
1 1 "Material:Structural Steel (AISI 4130)"
$EndPhysicalNames
$Entities
0 1 0 0
1 0 0 0 30 4.5 6 1 1 0
$EndEntities
$Nodes
1 26 1 26
1 1 0 26
1
2
3
4
5
6
7
8
9
10
11
12
13
14
15
16
17
18
19
20
21
22
23
24
25
26
0 0 0
5 0 0
10 0 0
15 0 0
20 0 0
25 0 0
30 0 0
2.5 4.5 0
7.5 4.5 0
12.5 4.5 0
17.5 4.5 0
22.5 4.5 0
27.5 4.5 0
0 0 6
5 0 6
10 0 6
15 0 6
20 0 6
25 0 6
30 0 6
2.5 4.5 6
7.5 4.5 6
12.5 4.5 6
17.5 4.5 6
22.5 4.5 6
27.5 4.5 6
$EndNodes
$Elements
1 82 1 82
1 1 1 82
1 1 2
2 1 8
3 1 14
4 1 15
5 1 21
6 2 3
7 2 8
8 2 9
9 2 15
10 2 16
11 2 22
12 3 4
13 3 9
14 3 10
15 3 16
16 3 17
17 3 23
18 4 5
19 4 10
20 4 11
21 4 17
22 4 18
23 4 24
24 5 6
25 5 11
26 5 12
27 5 18
28 5 19
29 5 25
30 6 7
31 6 12
32 6 13
33 6 19
34 6 20
35 6 26
36 7 13
37 7 20
38 8 9
39 8 15
40 8 21
41 8 22
42 9 10
43 9 16
44 9 22
45 9 23
46 10 11
47 10 17
48 10 23
49 10 24
50 11 12
51 11 18
52 11 24
53 11 25
54 12 13
55 12 19
56 12 25
57 12 26
58 13 20
59 13 26
60 14 15
61 14 21
62 15 16
63 15 21
64 15 22
65 16 17
66 16 22
67 16 23
68 17 18
69 17 23
70 17 24
71 18 19
72 18 24
73 18 25
74 19 20
75 19 25
76 19 26
77 20 26
78 21 22
79 22 23
80 23 24
81 24 25
82 25 26
$EndElements
$NodeData
1
"Fixity"
1
0
3
0
3
26
1 1 1 1
2 0 0 0
3 0 0 0
4 0 0 0
5 0 0 0
6 0 0 0
7 0 1 0
8 0 0 0
9 0 0 0
10 0 0 0
11 0 0 0
12 0 0 0
13 0 0 0
14 1 1 1
15 0 0 0
16 0 0 0
17 0 0 0
18 0 0 0
19 0 0 0
20 0 1 0
21 0 0 0
22 0 0 0
23 0 0 0
24 0 0 0
25 0 0 0
26 0 0 0
$EndNodeData
$NodeData
1
"NodalForce"
1
0
3
0
3
26
1 0 0 0
2 0 -1e+05 0
3 0 -1e+05 0
4 0 -1e+05 0
5 0 -1e+05 0
6 0 -1e+05 0
7 0 0 0
8 0 0 0
9 0 0 0
10 0 0 0
11 0 0 0
12 0 0 0
13 0 0 0
14 0 0 0
15 0 -1e+05 0
16 0 -1e+05 0
17 0 -1e+05 0
18 0 -1e+05 0
19 0 -1e+05 0
20 0 0 0
21 0 0 0
22 0 0 0
23 0 0 0
24 0 0 0
25 0 0 0
26 0 0 0
$EndNodeData
$ElementData
1
"CrossSectionArea"
1
0
3
0
1
82
1 0.018000000000000002
2 0.01
3 0.005
4 0.005
5 0.005
6 0.018000000000000002
7 0.01
8 0.01
9 0.005
10 0.005
11 0.005
12 0.018000000000000002
13 0.01
14 0.01
15 0.005
16 0.005
17 0.005
18 0.018000000000000002
19 0.01
20 0.01
21 0.005
22 0.005
23 0.005
24 0.018000000000000002
25 0.01
26 0.01
27 0.005
28 0.005
29 0.005
30 0.018000000000000002
31 0.01
32 0.01
33 0.005
34 0.005
35 0.005
36 0.01
37 0.005
38 0.018000000000000002
39 0.005
40 0.005
41 0.005
42 0.018000000000000002
43 0.005
44 0.005
45 0.005
46 0.018000000000000002
47 0.005
48 0.005
49 0.005
50 0.018000000000000002
51 0.005
52 0.005
53 0.005
54 0.018000000000000002
55 0.005
56 0.005
57 0.005
58 0.005
59 0.005
60 0.018000000000000002
61 0.01
62 0.018000000000000002
63 0.01
64 0.01
65 0.018000000000000002
66 0.01
67 0.01
68 0.018000000000000002
69 0.01
70 0.01
71 0.018000000000000002
72 0.01
73 0.01
74 0.018000000000000002
75 0.01
76 0.01
77 0.01
78 0.018000000000000002
79 0.018000000000000002
80 0.018000000000000002
81 0.018000000000000002
82 0.018000000000000002
$EndElementData
$ElementData
1
"MaterialID"
1
0
3
0
1
82
1 0
2 0
3 0
4 0
5 0
6 0
7 0
8 0
9 0
10 0
11 0
12 0
13 0
14 0
15 0
16 0
17 0
18 0
19 0
20 0
21 0
22 0
23 0
24 0
25 0
26 0
27 0
28 0
29 0
30 0
31 0
32 0
33 0
34 0
35 0
36 0
37 0
38 0
39 0
40 0
41 0
42 0
43 0
44 0
45 0
46 0
47 0
48 0
49 0
50 0
51 0
52 0
53 0
54 0
55 0
56 0
57 0
58 0
59 0
60 0
61 0
62 0
63 0
64 0
65 0
66 0
67 0
68 0
69 0
70 0
71 0
72 0
73 0
74 0
75 0
76 0
77 0
78 0
79 0
80 0
81 0
82 0
$EndElementData
