$MeshFormat
4.1 0 8
$EndMeshFormat
$PhysicalNames
1
1 1 "Material:Structural Steel (AISI 4130)"
$EndPhysicalNames
$Entities
0 1 0 0
1 -12 0 -12 12 40 12 1 1 0
$EndEntities
$Nodes
1 20 1 20
1 1 0 20
1
2
3
4
5
6
7
8
9
10
11
12
13
14
15
16
17
18
19
20
-12 0 -12
12 0 -12
12 0 12
-12 0 12
-10.75 10 -10.75
10.75 10 -10.75
10.75 10 10.75
-10.75 10 10.75
-9.5 20 -9.5
9.5 20 -9.5
9.5 20 9.5
-9.5 20 9.5
-8.25 30 -8.25
8.25 30 -8.25
8.25 30 8.25
-8.25 30 8.25
-7 40 -7
7 40 -7
7 40 7
-7 40 7
$EndNodes
$Elements
1 72 1 72
1 1 1 72
1 1 2
2 1 4
3 1 5
4 1 6
5 1 8
6 2 3
7 2 5
8 2 6
9 2 7
10 3 4
11 3 6
12 3 7
13 3 8
14 4 5
15 4 7
16 4 8
17 5 6
18 5 7
19 5 8
20 5 9
21 5 10
22 5 12
23 6 7
24 6 9
25 6 10
26 6 11
27 7 8
28 7 10
29 7 11
30 7 12
31 8 9
32 8 11
33 8 12
34 9 10
35 9 11
36 9 12
37 9 13
38 9 14
39 9 16
40 10 11
41 10 13
42 10 14
43 10 15
44 11 12
45 11 14
46 11 15
47 11 16
48 12 13
49 12 15
50 12 16
51 13 14
52 13 15
53 13 16
54 13 17
55 13 18
56 13 20
57 14 15
58 14 17
59 14 18
60 14 19
61 15 16
62 15 18
63 15 19
64 15 20
65 16 17
66 16 19
67 16 20
68 17 18
69 17 19
70 17 20
71 18 19
72 19 20
$EndElements
$NodeData
1
"Fixity"
1
0
3
0
3
20
1 1 1 1
2 1 1 1
3 1 1 1
4 1 1 1
5 0 0 0
6 0 0 0
7 0 0 0
8 0 0 0
9 0 0 0
10 0 0 0
11 0 0 0
12 0 0 0
13 0 0 0
14 0 0 0
15 0 0 0
16 0 0 0
17 0 0 0
18 0 0 0
19 0 0 0
20 0 0 0
$EndNodeData
$NodeData
1
"NodalForce"
1
0
3
0
3
20
1 0 0 0
2 0 0 0
3 0 0 0
4 0 0 0
5 150000 0 0
6 150000 0 0
7 150000 0 0
8 150000 0 0
9 150000 0 0
10 150000 0 0
11 150000 0 0
12 150000 0 0
13 0 0 0
14 0 0 0
15 0 0 0
16 0 0 0
17 0 -2500000 0
18 0 -2500000 0
19 0 -2500000 0
20 0 -2500000 0
$EndNodeData
$ElementData
1
"CrossSectionArea"
1
0
3
0
1
72
1 0.015000000000000001
2 0.015000000000000001
3 0.04
4 0.015000000000000001
5 0.015000000000000001
6 0.015000000000000001
7 0.015000000000000001
8 0.04
9 0.015000000000000001
10 0.015000000000000001
11 0.015000000000000001
12 0.04
13 0.015000000000000001
14 0.015000000000000001
15 0.015000000000000001
16 0.04
17 0.015000000000000001
18 0.015000000000000001
19 0.015000000000000001
20 0.04
21 0.015000000000000001
22 0.015000000000000001
23 0.015000000000000001
24 0.015000000000000001
25 0.04
26 0.015000000000000001
27 0.015000000000000001
28 0.015000000000000001
29 0.04
30 0.015000000000000001
31 0.015000000000000001
32 0.015000000000000001
33 0.04
34 0.015000000000000001
35 0.015000000000000001
36 0.015000000000000001
37 0.04
38 0.015000000000000001
39 0.015000000000000001
40 0.015000000000000001
41 0.015000000000000001
42 0.04
43 0.015000000000000001
44 0.015000000000000001
45 0.015000000000000001
46 0.04
47 0.015000000000000001
48 0.015000000000000001
49 0.015000000000000001
50 0.04
51 0.015000000000000001
52 0.015000000000000001
53 0.015000000000000001
54 0.04
55 0.015000000000000001
56 0.015000000000000001
57 0.015000000000000001
58 0.015000000000000001
59 0.04
60 0.015000000000000001
61 0.015000000000000001
62 0.015000000000000001
63 0.04
64 0.015000000000000001
65 0.015000000000000001
66 0.015000000000000001
67 0.04
68 0.015000000000000001
69 0.015000000000000001
70 0.015000000000000001
71 0.015000000000000001
72 0.015000000000000001
$EndElementData
$ElementData
1
"MaterialID"
1
0
3
0
1
72
1 0
2 0
3 0
4 0
5 0
6 0
7 0
8 0
9 0
10 0
11 0
12 0
13 0
14 0
15 0
16 0
17 0
18 0
19 0
20 0
21 0
22 0
23 0
24 0
25 0
26 0
27 0
28 0
29 0
30 0
31 0
32 0
33 0
34 0
35 0
36 0
37 0
38 0
39 0
40 0
41 0
42 0
43 0
44 0
45 0
46 0
47 0
48 0
49 0
50 0
51 0
52 0
53 0
54 0
55 0
56 0
57 0
58 0
59 0
60 0
61 0
62 0
63 0
64 0
65 0
66 0
67 0
68 0
69 0
70 0
71 0
72 0
$EndElementData
