$MeshFormat
4.1 0 8
$EndMeshFormat
$PhysicalNames
1
1 1 "Material:Structural Steel (AISI 4130)"
$EndPhysicalNames
$Entities
0 1 0 0
1 0 0 0 8 2 12 1 1 0
$EndEntities
$Nodes
1 24 1 24
1 1 0 24
1
2
3
4
5
6
7
8
9
10
11
12
13
14
15
16
17
18
19
20
21
22
23
24
0 0 0
4 0 0
8 0 0
4 2 0
2 1 0
6 1 0
0 0 4
4 0 4
8 0 4
4 2 4
2 1 4
6 1 4
0 0 8
4 0 8
8 0 8
4 2 8
2 1 8
6 1 8
0 0 12
4 0 12
8 0 12
4 2 12
2 1 12
6 1 12
$EndNodes
$Elements
1 81 1 81
1 1 1 81
1 1 2
2 1 5
3 1 7
4 1 8
5 1 11
6 2 3
7 2 4
8 2 5
9 2 6
10 2 8
11 2 9
12 2 10
13 2 11
14 2 12
15 3 6
16 3 9
17 4 5
18 4 6
19 4 10
20 4 12
21 5 10
22 5 11
23 6 9
24 6 12
25 7 8
26 7 11
27 7 13
28 7 14
29 7 17
30 8 9
31 8 10
32 8 11
33 8 12
34 8 14
35 8 15
36 8 16
37 8 17
38 8 18
39 9 12
40 9 15
41 10 11
42 10 12
43 10 16
44 10 18
45 11 16
46 11 17
47 12 15
48 12 18
49 13 14
50 13 17
51 13 19
52 13 20
53 13 23
54 14 15
55 14 16
56 14 17
57 14 18
58 14 20
59 14 21
60 14 22
61 14 23
62 14 24
63 15 18
64 15 21
65 16 17
66 16 18
67 16 22
68 16 24
69 17 22
70 17 23
71 18 21
72 18 24
73 19 20
74 19 23
75 20 21
76 20 22
77 20 23
78 20 24
79 21 24
80 22 23
81 22 24
$EndElements
$NodeData
1
"Fixity"
1
0
3
0
3
24
1 1 1 1
2 0 0 0
3 0 1 0
4 0 0 0
5 0 0 0
6 0 0 0
7 1 1 1
8 0 0 0
9 0 1 0
10 0 0 0
11 0 0 0
12 0 0 0
13 1 1 1
14 0 0 0
15 0 1 0
16 0 0 0
17 0 0 0
18 0 0 0
19 1 1 1
20 0 0 0
21 0 1 0
22 0 0 0
23 0 0 0
24 0 0 0
$EndNodeData
$NodeData
1
"NodalForce"
1
0
3
0
3
24
1 0 0 0
2 0 0 0
3 0 0 0
4 0 -3000 0
5 0 -3000 0
6 0 -3000 0
7 0 0 0
8 0 0 0
9 0 0 0
10 0 -6000 0
11 0 -6000 0
12 0 -6000 0
13 0 0 0
14 0 0 0
15 0 0 0
16 0 -6000 0
17 0 -6000 0
18 0 -6000 0
19 0 0 0
20 0 0 0
21 0 0 0
22 0 -3000 0
23 0 -3000 0
24 0 -3000 0
$EndNodeData
$ElementData
1
"CrossSectionArea"
1
0
3
0
1
81
1 0.0012000000000000001
2 0.0012000000000000001
3 0.0006000000000000001
4 0.0006000000000000001
5 0.0006000000000000001
6 0.0012000000000000001
7 8e-04
8 8e-04
9 8e-04
10 0.0006000000000000001
11 0.0006000000000000001
12 0.0006000000000000001
13 0.0006000000000000001
14 0.0006000000000000001
15 0.0012000000000000001
16 0.0006000000000000001
17 0.0012000000000000001
18 0.0012000000000000001
19 0.0006000000000000001
20 0.0006000000000000001
21 0.0006000000000000001
22 0.0006000000000000001
23 0.0006000000000000001
24 0.0006000000000000001
25 0.0012000000000000001
26 0.0012000000000000001
27 0.0006000000000000001
28 0.0006000000000000001
29 0.0006000000000000001
30 0.0012000000000000001
31 8e-04
32 8e-04
33 8e-04
34 0.0006000000000000001
35 0.0006000000000000001
36 0.0006000000000000001
37 0.0006000000000000001
38 0.0006000000000000001
39 0.0012000000000000001
40 0.0006000000000000001
41 0.0012000000000000001
42 0.0012000000000000001
43 0.0006000000000000001
44 0.0006000000000000001
45 0.0006000000000000001
46 0.0006000000000000001
47 0.0006000000000000001
48 0.0006000000000000001
49 0.0012000000000000001
50 0.0012000000000000001
51 0.0006000000000000001
52 0.0006000000000000001
53 0.0006000000000000001
54 0.0012000000000000001
55 8e-04
56 8e-04
57 8e-04
58 0.0006000000000000001
59 0.0006000000000000001
60 0.0006000000000000001
61 0.0006000000000000001
62 0.0006000000000000001
63 0.0012000000000000001
64 0.0006000000000000001
65 0.0012000000000000001
66 0.0012000000000000001
67 0.0006000000000000001
68 0.0006000000000000001
69 0.0006000000000000001
70 0.0006000000000000001
71 0.0006000000000000001
72 0.0006000000000000001
73 0.0012000000000000001
74 0.0012000000000000001
75 0.0012000000000000001
76 8e-04
77 8e-04
78 8e-04
79 0.0012000000000000001
80 0.0012000000000000001
81 0.0012000000000000001
$EndElementData
$ElementData
1
"MaterialID"
1
0
3
0
1
81
1 0
2 0
3 0
4 0
5 0
6 0
7 0
8 0
9 0
10 0
11 0
12 0
13 0
14 0
15 0
16 0
17 0
18 0
19 0
20 0
21 0
22 0
23 0
24 0
25 0
26 0
27 0
28 0
29 0
30 0
31 0
32 0
33 0
34 0
35 0
36 0
37 0
38 0
39 0
40 0
41 0
42 0
43 0
44 0
45 0
46 0
47 0
48 0
49 0
50 0
51 0
52 0
53 0
54 0
55 0
56 0
57 0
58 0
59 0
60 0
61 0
62 0
63 0
64 0
65 0
66 0
67 0
68 0
69 0
70 0
71 0
72 0
73 0
74 0
75 0
76 0
77 0
78 0
79 0
80 0
81 0
$EndElementData
