$MeshFormat
4.1 0 8
$EndMeshFormat
$PhysicalNames
1
1 1 "Material:Structural Steel (AISI 4130)"
$EndPhysicalNames
$Entities
0 1 0 0
1 0 0 0 16 4 24 1 1 0
$EndEntities
$Nodes
1 80 1 80
1 1 0 80
1
2
3
4
5
6
7
8
9
10
11
12
13
14
15
16
17
18
19
20
21
22
23
24
25
26
27
28
29
30
31
32
33
34
35
36
37
38
39
40
41
42
43
44
45
46
47
48
49
50
51
52
53
54
55
56
57
58
59
60
61
62
63
64
65
66
67
68
69
70
71
72
73
74
75
76
77
78
79
80
0 0 0
2 0 0
4 0 0
6 0 0
8 0 0
10 0 0
12 0 0
14 0 0
16 0 0
2 1 0
4 2 0
6 3 0
8 4 0
10 3 0
12 2 0
14 1 0
0 0 6
2 0 6
4 0 6
6 0 6
8 0 6
10 0 6
12 0 6
14 0 6
16 0 6
2 1 6
4 2 6
6 3 6
8 4 6
10 3 6
12 2 6
14 1 6
0 0 12
2 0 12
4 0 12
6 0 12
8 0 12
10 0 12
12 0 12
14 0 12
16 0 12
2 1 12
4 2 12
6 3 12
8 4 12
10 3 12
12 2 12
14 1 12
0 0 18
2 0 18
4 0 18
6 0 18
8 0 18
10 0 18
12 0 18
14 0 18
16 0 18
2 1 18
4 2 18
6 3 18
8 4 18
10 3 18
12 2 18
14 1 18
0 0 24
2 0 24
4 0 24
6 0 24
8 0 24
10 0 24
12 0 24
14 0 24
16 0 24
2 1 24
4 2 24
6 3 24
8 4 24
10 3 24
12 2 24
14 1 24
$EndNodes
$Elements
1 325 1 325
1 1 1 325
1 1 2
2 1 10
3 1 17
4 1 18
5 1 26
6 2 3
7 2 10
8 2 11
9 2 18
10 2 19
11 2 26
12 2 27
13 3 4
14 3 11
15 3 12
16 3 19
17 3 20
18 3 27
19 3 28
20 4 5
21 4 12
22 4 13
23 4 20
24 4 21
25 4 28
26 4 29
27 5 6
28 5 13
29 5 21
30 5 22
31 5 29
32 6 7
33 6 13
34 6 14
35 6 22
36 6 23
37 6 29
38 6 30
39 7 8
40 7 14
41 7 15
42 7 23
43 7 24
44 7 30
45 7 31
46 8 9
47 8 15
48 8 16
49 8 24
50 8 25
51 8 31
52 8 32
53 9 16
54 9 25
55 10 11
56 10 26
57 10 27
58 11 12
59 11 27
60 11 28
61 12 13
62 12 28
63 12 29
64 13 14
65 13 29
66 13 30
67 14 15
68 14 30
69 14 31
70 15 16
71 15 31
72 15 32
73 16 25
74 16 32
75 17 18
76 17 26
77 17 33
78 17 34
79 17 42
80 18 19
81 18 26
82 18 27
83 18 34
84 18 35
85 18 42
86 18 43
87 19 20
88 19 27
89 19 28
90 19 35
91 19 36
92 19 43
93 19 44
94 20 21
95 20 28
96 20 29
97 20 36
98 20 37
99 20 44
100 20 45
101 21 22
102 21 29
103 21 37
104 21 38
105 21 45
106 22 23
107 22 29
108 22 30
109 22 38
110 22 39
111 22 45
112 22 46
113 23 24
114 23 30
115 23 31
116 23 39
117 23 40
118 23 46
119 23 47
120 24 25
121 24 31
122 24 32
123 24 40
124 24 41
125 24 47
126 24 48
127 25 32
128 25 41
129 26 27
130 26 42
131 26 43
132 27 28
133 27 43
134 27 44
135 28 29
136 28 44
137 28 45
138 29 30
139 29 45
140 29 46
141 30 31
142 30 46
143 30 47
144 31 32
145 31 47
146 31 48
147 32 41
148 32 48
149 33 34
150 33 42
151 33 49
152 33 50
153 33 58
154 34 35
155 34 42
156 34 43
157 34 50
158 34 51
159 34 58
160 34 59
161 35 36
162 35 43
163 35 44
164 35 51
165 35 52
166 35 59
167 35 60
168 36 37
169 36 44
170 36 45
171 36 52
172 36 53
173 36 60
174 36 61
175 37 38
176 37 45
177 37 53
178 37 54
179 37 61
180 38 39
181 38 45
182 38 46
183 38 54
184 38 55
185 38 61
186 38 62
187 39 40
188 39 46
189 39 47
190 39 55
191 39 56
192 39 62
193 39 63
194 40 41
195 40 47
196 40 48
197 40 56
198 40 57
199 40 63
200 40 64
201 41 48
202 41 57
203 42 43
204 42 58
205 42 59
206 43 44
207 43 59
208 43 60
209 44 45
210 44 60
211 44 61
212 45 46
213 45 61
214 45 62
215 46 47
216 46 62
217 46 63
218 47 48
219 47 63
220 47 64
221 48 57
222 48 64
223 49 50
224 49 58
225 49 65
226 49 66
227 49 74
228 50 51
229 50 58
230 50 59
231 50 66
232 50 67
233 50 74
234 50 75
235 51 52
236 51 59
237 51 60
238 51 67
239 51 68
240 51 75
241 51 76
242 52 53
243 52 60
244 52 61
245 52 68
246 52 69
247 52 76
248 52 77
249 53 54
250 53 61
251 53 69
252 53 70
253 53 77
254 54 55
255 54 61
256 54 62
257 54 70
258 54 71
259 54 77
260 54 78
261 55 56
262 55 62
263 55 63
264 55 71
265 55 72
266 55 78
267 55 79
268 56 57
269 56 63
270 56 64
271 56 72
272 56 73
273 56 79
274 56 80
275 57 64
276 57 73
277 58 59
278 58 74
279 58 75
280 59 60
281 59 75
282 59 76
283 60 61
284 60 76
285 60 77
286 61 62
287 61 77
288 61 78
289 62 63
290 62 78
291 62 79
292 63 64
293 63 79
294 63 80
295 64 73
296 64 80
297 65 66
298 65 74
299 66 67
300 66 74
301 66 75
302 67 68
303 67 75
304 67 76
305 68 69
306 68 76
307 68 77
308 69 70
309 69 77
310 70 71
311 70 77
312 70 78
313 71 72
314 71 78
315 71 79
316 72 73
317 72 79
318 72 80
319 73 80
320 74 75
321 75 76
322 76 77
323 77 78
324 78 79
325 79 80
$EndElements
$NodeData
1
"Fixity"
1
0
3
0
3
80
1 1 1 1
2 0 0 0
3 0 0 0
4 0 0 0
5 0 0 0
6 0 0 0
7 0 0 0
8 0 0 0
9 0 1 0
10 0 0 0
11 0 0 0
12 0 0 0
13 0 0 0
14 0 0 0
15 0 0 0
16 0 0 0
17 1 1 1
18 0 0 0
19 0 0 0
20 0 0 0
21 0 0 0
22 0 0 0
23 0 0 0
24 0 0 0
25 0 1 0
26 0 0 0
27 0 0 0
28 0 0 0
29 0 0 0
30 0 0 0
31 0 0 0
32 0 0 0
33 1 1 1
34 0 0 0
35 0 0 0
36 0 0 0
37 0 0 0
38 0 0 0
39 0 0 0
40 0 0 0
41 0 1 0
42 0 0 0
43 0 0 0
44 0 0 0
45 0 0 0
46 0 0 0
47 0 0 0
48 0 0 0
49 1 1 1
50 0 0 0
51 0 0 0
52 0 0 0
53 0 0 0
54 0 0 0
55 0 0 0
56 0 0 0
57 0 1 0
58 0 0 0
59 0 0 0
60 0 0 0
61 0 0 0
62 0 0 0
63 0 0 0
64 0 0 0
65 1 1 1
66 0 0 0
67 0 0 0
68 0 0 0
69 0 0 0
70 0 0 0
71 0 0 0
72 0 0 0
73 0 1 0
74 0 0 0
75 0 0 0
76 0 0 0
77 0 0 0
78 0 0 0
79 0 0 0
80 0 0 0
$EndNodeData
$NodeData
1
"NodalForce"
1
0
3
0
3
80
1 0 0 0
2 0 0 0
3 0 0 0
4 0 0 0
5 0 0 0
6 0 0 0
7 0 0 0
8 0 0 0
9 0 0 0
10 0 -6000 0
11 0 -6000 0
12 0 -6000 0
13 0 -6000 0
14 0 -6000 0
15 0 -6000 0
16 0 -6000 0
17 0 0 0
18 0 0 0
19 0 0 0
20 0 0 0
21 0 0 0
22 0 0 0
23 0 0 0
24 0 0 0
25 0 0 0
26 0 -12000 0
27 0 -12000 0
28 0 -12000 0
29 0 -12000 0
30 0 -12000 0
31 0 -12000 0
32 0 -12000 0
33 0 0 0
34 0 0 0
35 0 0 0
36 0 0 0
37 0 0 0
38 0 0 0
39 0 0 0
40 0 0 0
41 0 0 0
42 0 -12000 0
43 0 -12000 0
44 0 -12000 0
45 0 -12000 0
46 0 -12000 0
47 0 -12000 0
48 0 -12000 0
49 0 0 0
50 0 0 0
51 0 0 0
52 0 0 0
53 0 0 0
54 0 0 0
55 0 0 0
56 0 0 0
57 0 0 0
58 0 -12000 0
59 0 -12000 0
60 0 -12000 0
61 0 -12000 0
62 0 -12000 0
63 0 -12000 0
64 0 -12000 0
65 0 0 0
66 0 0 0
67 0 0 0
68 0 0 0
69 0 0 0
70 0 0 0
71 0 0 0
72 0 0 0
73 0 0 0
74 0 -6000 0
75 0 -6000 0
76 0 -6000 0
77 0 -6000 0
78 0 -6000 0
79 0 -6000 0
80 0 -6000 0
$EndNodeData
$ElementData
1
"CrossSectionArea"
1
0
3
0
1
325
1 0.002
2 0.002
3 8e-04
4 8e-04
5 8e-04
6 0.002
7 0.0012000000000000001
8 0.0012000000000000001
9 8e-04
10 8e-04
11 8e-04
12 8e-04
13 0.002
14 0.0012000000000000001
15 0.0012000000000000001
16 8e-04
17 8e-04
18 8e-04
19 8e-04
20 0.002
21 0.0012000000000000001
22 0.0012000000000000001
23 8e-04
24 8e-04
25 8e-04
26 8e-04
27 0.002
28 0.0012000000000000001
29 8e-04
30 8e-04
31 8e-04
32 0.002
33 0.0012000000000000001
34 0.0012000000000000001
35 8e-04
36 8e-04
37 8e-04
38 8e-04
39 0.002
40 0.0012000000000000001
41 0.0012000000000000001
42 8e-04
43 8e-04
44 8e-04
45 8e-04
46 0.002
47 0.0012000000000000001
48 0.0012000000000000001
49 8e-04
50 8e-04
51 8e-04
52 8e-04
53 0.002
54 8e-04
55 0.002
56 8e-04
57 8e-04
58 0.002
59 8e-04
60 8e-04
61 0.002
62 8e-04
63 8e-04
64 0.002
65 8e-04
66 8e-04
67 0.002
68 8e-04
69 8e-04
70 0.002
71 8e-04
72 8e-04
73 8e-04
74 8e-04
75 0.002
76 0.002
77 8e-04
78 8e-04
79 8e-04
80 0.002
81 0.0012000000000000001
82 0.0012000000000000001
83 8e-04
84 8e-04
85 8e-04
86 8e-04
87 0.002
88 0.0012000000000000001
89 0.0012000000000000001
90 8e-04
91 8e-04
92 8e-04
93 8e-04
94 0.002
95 0.0012000000000000001
96 0.0012000000000000001
97 8e-04
98 8e-04
99 8e-04
100 8e-04
101 0.002
102 0.0012000000000000001
103 8e-04
104 8e-04
105 8e-04
106 0.002
107 0.0012000000000000001
108 0.0012000000000000001
109 8e-04
110 8e-04
111 8e-04
112 8e-04
113 0.002
114 0.0012000000000000001
115 0.0012000000000000001
116 8e-04
117 8e-04
118 8e-04
119 8e-04
120 0.002
121 0.0012000000000000001
122 0.0012000000000000001
123 8e-04
124 8e-04
125 8e-04
126 8e-04
127 0.002
128 8e-04
129 0.002
130 8e-04
131 8e-04
132 0.002
133 8e-04
134 8e-04
135 0.002
136 8e-04
137 8e-04
138 0.002
139 8e-04
140 8e-04
141 0.002
142 8e-04
143 8e-04
144 0.002
145 8e-04
146 8e-04
147 8e-04
148 8e-04
149 0.002
150 0.002
151 8e-04
152 8e-04
153 8e-04
154 0.002
155 0.0012000000000000001
156 0.0012000000000000001
157 8e-04
158 8e-04
159 8e-04
160 8e-04
161 0.002
162 0.0012000000000000001
163 0.0012000000000000001
164 8e-04
165 8e-04
166 8e-04
167 8e-04
168 0.002
169 0.0012000000000000001
170 0.0012000000000000001
171 8e-04
172 8e-04
173 8e-04
174 8e-04
175 0.002
176 0.0012000000000000001
177 8e-04
178 8e-04
179 8e-04
180 0.002
181 0.0012000000000000001
182 0.0012000000000000001
183 8e-04
184 8e-04
185 8e-04
186 8e-04
187 0.002
188 0.0012000000000000001
189 0.0012000000000000001
190 8e-04
191 8e-04
192 8e-04
193 8e-04
194 0.002
195 0.0012000000000000001
196 0.0012000000000000001
197 8e-04
198 8e-04
199 8e-04
200 8e-04
201 0.002
202 8e-04
203 0.002
204 8e-04
205 8e-04
206 0.002
207 8e-04
208 8e-04
209 0.002
210 8e-04
211 8e-04
212 0.002
213 8e-04
214 8e-04
215 0.002
216 8e-04
217 8e-04
218 0.002
219 8e-04
220 8e-04
221 8e-04
222 8e-04
223 0.002
224 0.002
225 8e-04
226 8e-04
227 8e-04
228 0.002
229 0.0012000000000000001
230 0.0012000000000000001
231 8e-04
232 8e-04
233 8e-04
234 8e-04
235 0.002
236 0.0012000000000000001
237 0.0012000000000000001
238 8e-04
239 8e-04
240 8e-04
241 8e-04
242 0.002
243 0.0012000000000000001
244 0.0012000000000000001
245 8e-04
246 8e-04
247 8e-04
248 8e-04
249 0.002
250 0.0012000000000000001
251 8e-04
252 8e-04
253 8e-04
254 0.002
255 0.0012000000000000001
256 0.0012000000000000001
257 8e-04
258 8e-04
259 8e-04
260 8e-04
261 0.002
262 0.0012000000000000001
263 0.0012000000000000001
264 8e-04
265 8e-04
266 8e-04
267 8e-04
268 0.002
269 0.0012000000000000001
270 0.0012000000000000001
271 8e-04
272 8e-04
273 8e-04
274 8e-04
275 0.002
276 8e-04
277 0.002
278 8e-04
279 8e-04
280 0.002
281 8e-04
282 8e-04
283 0.002
284 8e-04
285 8e-04
286 0.002
287 8e-04
288 8e-04
289 0.002
290 8e-04
291 8e-04
292 0.002
293 8e-04
294 8e-04
295 8e-04
296 8e-04
297 0.002
298 0.002
299 0.002
300 0.0012000000000000001
301 0.0012000000000000001
302 0.002
303 0.0012000000000000001
304 0.0012000000000000001
305 0.002
306 0.0012000000000000001
307 0.0012000000000000001
308 0.002
309 0.0012000000000000001
310 0.002
311 0.0012000000000000001
312 0.0012000000000000001
313 0.002
314 0.0012000000000000001
315 0.0012000000000000001
316 0.002
317 0.0012000000000000001
318 0.0012000000000000001
319 0.002
320 0.002
321 0.002
322 0.002
323 0.002
324 0.002
325 0.002
$EndElementData
$ElementData
1
"MaterialID"
1
0
3
0
1
325
1 0
2 0
3 0
4 0
5 0
6 0
7 0
8 0
9 0
10 0
11 0
12 0
13 0
14 0
15 0
16 0
17 0
18 0
19 0
20 0
21 0
22 0
23 0
24 0
25 0
26 0
27 0
28 0
29 0
30 0
31 0
32 0
33 0
34 0
35 0
36 0
37 0
38 0
39 0
40 0
41 0
42 0
43 0
44 0
45 0
46 0
47 0
48 0
49 0
50 0
51 0
52 0
53 0
54 0
55 0
56 0
57 0
58 0
59 0
60 0
61 0
62 0
63 0
64 0
65 0
66 0
67 0
68 0
69 0
70 0
71 0
72 0
73 0
74 0
75 0
76 0
77 0
78 0
79 0
80 0
81 0
82 0
83 0
84 0
85 0
86 0
87 0
88 0
89 0
90 0
91 0
92 0
93 0
94 0
95 0
96 0
97 0
98 0
99 0
100 0
101 0
102 0
103 0
104 0
105 0
106 0
107 0
108 0
109 0
110 0
111 0
112 0
113 0
114 0
115 0
116 0
117 0
118 0
119 0
120 0
121 0
122 0
123 0
124 0
125 0
126 0
127 0
128 0
129 0
130 0
131 0
132 0
133 0
134 0
135 0
136 0
137 0
138 0
139 0
140 0
141 0
142 0
143 0
144 0
145 0
146 0
147 0
148 0
149 0
150 0
151 0
152 0
153 0
154 0
155 0
156 0
157 0
158 0
159 0
160 0
161 0
162 0
163 0
164 0
165 0
166 0
167 0
168 0
169 0
170 0
171 0
172 0
173 0
174 0
175 0
176 0
177 0
178 0
179 0
180 0
181 0
182 0
183 0
184 0
185 0
186 0
187 0
188 0
189 0
190 0
191 0
192 0
193 0
194 0
195 0
196 0
197 0
198 0
199 0
200 0
201 0
202 0
203 0
204 0
205 0
206 0
207 0
208 0
209 0
210 0
211 0
212 0
213 0
214 0
215 0
216 0
217 0
218 0
219 0
220 0
221 0
222 0
223 0
224 0
225 0
226 0
227 0
228 0
229 0
230 0
231 0
232 0
233 0
234 0
235 0
236 0
237 0
238 0
239 0
240 0
241 0
242 0
243 0
244 0
245 0
246 0
247 0
248 0
249 0
250 0
251 0
252 0
253 0
254 0
255 0
256 0
257 0
258 0
259 0
260 0
261 0
262 0
263 0
264 0
265 0
266 0
267 0
268 0
269 0
270 0
271 0
272 0
273 0
274 0
275 0
276 0
277 0
278 0
279 0
280 0
281 0
282 0
283 0
284 0
285 0
286 0
287 0
288 0
289 0
290 0
291 0
292 0
293 0
294 0
295 0
296 0
297 0
298 0
299 0
300 0
301 0
302 0
303 0
304 0
305 0
306 0
307 0
308 0
309 0
310 0
311 0
312 0
313 0
314 0
315 0
316 0
317 0
318 0
319 0
320 0
321 0
322 0
323 0
324 0
325 0
$EndElementData
