$MeshFormat
4.1 0 8
$EndMeshFormat
$PhysicalNames
1
1 1 "Material:Structural Steel (AISI 4130)"
$EndPhysicalNames
$Entities
0 1 0 0
1 0 0 0 24 4.5 24 1 1 0
$EndEntities
$Nodes
1 80 1 80
1 1 0 80
1
2
3
4
5
6
7
8
9
10
11
12
13
14
15
16
17
18
19
20
21
22
23
24
25
26
27
28
29
30
31
32
33
34
35
36
37
38
39
40
41
42
43
44
45
46
47
48
49
50
51
52
53
54
55
56
57
58
59
60
61
62
63
64
65
66
67
68
69
70
71
72
73
74
75
76
77
78
79
80
0 0 0
3 0 0
6 0 0
9 0 0
12 0 0
15 0 0
18 0 0
21 0 0
24 0 0
3 1.96875 0
6 3.375 0
9 4.21875 0
12 4.5 0
15 4.21875 0
18 3.375 0
21 1.96875 0
0 0 6
3 0 6
6 0 6
9 0 6
12 0 6
15 0 6
18 0 6
21 0 6
24 0 6
3 1.96875 6
6 3.375 6
9 4.21875 6
12 4.5 6
15 4.21875 6
18 3.375 6
21 1.96875 6
0 0 12
3 0 12
6 0 12
9 0 12
12 0 12
15 0 12
18 0 12
21 0 12
24 0 12
3 1.96875 12
6 3.375 12
9 4.21875 12
12 4.5 12
15 4.21875 12
18 3.375 12
21 1.96875 12
0 0 18
3 0 18
6 0 18
9 0 18
12 0 18
15 0 18
18 0 18
21 0 18
24 0 18
3 1.96875 18
6 3.375 18
9 4.21875 18
12 4.5 18
15 4.21875 18
18 3.375 18
21 1.96875 18
0 0 24
3 0 24
6 0 24
9 0 24
12 0 24
15 0 24
18 0 24
21 0 24
24 0 24
3 1.96875 24
6 3.375 24
9 4.21875 24
12 4.5 24
15 4.21875 24
18 3.375 24
21 1.96875 24
$EndNodes
$Elements
1 325 1 325
1 1 1 325
1 1 2
2 1 10
3 1 17
4 1 18
5 1 26
6 2 3
7 2 10
8 2 18
9 2 19
10 2 26
11 3 4
12 3 10
13 3 11
14 3 19
15 3 20
16 3 27
17 4 5
18 4 11
19 4 12
20 4 20
21 4 21
22 4 28
23 5 6
24 5 12
25 5 13
26 5 14
27 5 21
28 5 22
29 5 29
30 6 7
31 6 14
32 6 15
33 6 22
34 6 23
35 6 30
36 7 8
37 7 15
38 7 16
39 7 23
40 7 24
41 7 31
42 8 9
43 8 16
44 8 24
45 8 25
46 8 32
47 9 16
48 9 25
49 10 11
50 10 19
51 10 26
52 10 27
53 11 12
54 11 20
55 11 27
56 11 28
57 12 13
58 12 21
59 12 28
60 12 29
61 13 14
62 13 29
63 13 30
64 14 15
65 14 21
66 14 30
67 14 31
68 15 16
69 15 22
70 15 31
71 15 32
72 16 23
73 16 25
74 16 32
75 17 18
76 17 26
77 17 33
78 17 34
79 17 42
80 18 19
81 18 26
82 18 34
83 18 35
84 18 42
85 19 20
86 19 26
87 19 27
88 19 35
89 19 36
90 19 43
91 20 21
92 20 27
93 20 28
94 20 36
95 20 37
96 20 44
97 21 22
98 21 28
99 21 29
100 21 30
101 21 37
102 21 38
103 21 45
104 22 23
105 22 30
106 22 31
107 22 38
108 22 39
109 22 46
110 23 24
111 23 31
112 23 32
113 23 39
114 23 40
115 23 47
116 24 25
117 24 32
118 24 40
119 24 41
120 24 48
121 25 32
122 25 41
123 26 27
124 26 35
125 26 42
126 26 43
127 27 28
128 27 36
129 27 43
130 27 44
131 28 29
132 28 37
133 28 44
134 28 45
135 29 30
136 29 45
137 29 46
138 30 31
139 30 37
140 30 46
141 30 47
142 31 32
143 31 38
144 31 47
145 31 48
146 32 39
147 32 41
148 32 48
149 33 34
150 33 42
151 33 49
152 33 50
153 33 58
154 34 35
155 34 42
156 34 50
157 34 51
158 34 58
159 35 36
160 35 42
161 35 43
162 35 51
163 35 52
164 35 59
165 36 37
166 36 43
167 36 44
168 36 52
169 36 53
170 36 60
171 37 38
172 37 44
173 37 45
174 37 46
175 37 53
176 37 54
177 37 61
178 38 39
179 38 46
180 38 47
181 38 54
182 38 55
183 38 62
184 39 40
185 39 47
186 39 48
187 39 55
188 39 56
189 39 63
190 40 41
191 40 48
192 40 56
193 40 57
194 40 64
195 41 48
196 41 57
197 42 43
198 42 51
199 42 58
200 42 59
201 43 44
202 43 52
203 43 59
204 43 60
205 44 45
206 44 53
207 44 60
208 44 61
209 45 46
210 45 61
211 45 62
212 46 47
213 46 53
214 46 62
215 46 63
216 47 48
217 47 54
218 47 63
219 47 64
220 48 55
221 48 57
222 48 64
223 49 50
224 49 58
225 49 65
226 49 66
227 49 74
228 50 51
229 50 58
230 50 66
231 50 67
232 50 74
233 51 52
234 51 58
235 51 59
236 51 67
237 51 68
238 51 75
239 52 53
240 52 59
241 52 60
242 52 68
243 52 69
244 52 76
245 53 54
246 53 60
247 53 61
248 53 62
249 53 69
250 53 70
251 53 77
252 54 55
253 54 62
254 54 63
255 54 70
256 54 71
257 54 78
258 55 56
259 55 63
260 55 64
261 55 71
262 55 72
263 55 79
264 56 57
265 56 64
266 56 72
267 56 73
268 56 80
269 57 64
270 57 73
271 58 59
272 58 67
273 58 74
274 58 75
275 59 60
276 59 68
277 59 75
278 59 76
279 60 61
280 60 69
281 60 76
282 60 77
283 61 62
284 61 77
285 61 78
286 62 63
287 62 69
288 62 78
289 62 79
290 63 64
291 63 70
292 63 79
293 63 80
294 64 71
295 64 73
296 64 80
297 65 66
298 65 74
299 66 67
300 66 74
301 67 68
302 67 74
303 67 75
304 68 69
305 68 75
306 68 76
307 69 70
308 69 76
309 69 77
310 69 78
311 70 71
312 70 78
313 70 79
314 71 72
315 71 79
316 71 80
317 72 73
318 72 80
319 73 80
320 74 75
321 75 76
322 76 77
323 77 78
324 78 79
325 79 80
$EndElements
$NodeData
1
"Fixity"
1
0
3
0
3
80
1 1 1 1
2 0 0 0
3 0 0 0
4 0 0 0
5 0 0 0
6 0 0 0
7 0 0 0
8 0 0 0
9 0 1 0
10 0 0 0
11 0 0 0
12 0 0 0
13 0 0 0
14 0 0 0
15 0 0 0
16 0 0 0
17 1 1 1
18 0 0 0
19 0 0 0
20 0 0 0
21 0 0 0
22 0 0 0
23 0 0 0
24 0 0 0
25 0 1 0
26 0 0 0
27 0 0 0
28 0 0 0
29 0 0 0
30 0 0 0
31 0 0 0
32 0 0 0
33 1 1 1
34 0 0 0
35 0 0 0
36 0 0 0
37 0 0 0
38 0 0 0
39 0 0 0
40 0 0 0
41 0 1 0
42 0 0 0
43 0 0 0
44 0 0 0
45 0 0 0
46 0 0 0
47 0 0 0
48 0 0 0
49 1 1 1
50 0 0 0
51 0 0 0
52 0 0 0
53 0 0 0
54 0 0 0
55 0 0 0
56 0 0 0
57 0 1 0
58 0 0 0
59 0 0 0
60 0 0 0
61 0 0 0
62 0 0 0
63 0 0 0
64 0 0 0
65 1 1 1
66 0 0 0
67 0 0 0
68 0 0 0
69 0 0 0
70 0 0 0
71 0 0 0
72 0 0 0
73 0 1 0
74 0 0 0
75 0 0 0
76 0 0 0
77 0 0 0
78 0 0 0
79 0 0 0
80 0 0 0
$EndNodeData
$NodeData
1
"NodalForce"
1
0
3
0
3
80
1 0 0 0
2 0 0 0
3 0 0 0
4 0 0 0
5 0 0 0
6 0 0 0
7 0 0 0
8 0 0 0
9 0 0 0
10 0 -7000 0
11 0 -7000 0
12 0 -7000 0
13 0 -7000 0
14 0 -7000 0
15 0 -7000 0
16 0 -7000 0
17 0 0 0
18 0 0 0
19 0 0 0
20 0 0 0
21 0 0 0
22 0 0 0
23 0 0 0
24 0 0 0
25 0 0 0
26 0 -14000 0
27 0 -14000 0
28 0 -14000 0
29 0 -14000 0
30 0 -14000 0
31 0 -14000 0
32 0 -14000 0
33 0 0 0
34 0 0 0
35 0 0 0
36 0 0 0
37 0 0 0
38 0 0 0
39 0 0 0
40 0 0 0
41 0 0 0
42 0 -14000 0
43 0 -14000 0
44 0 -14000 0
45 0 -14000 0
46 0 -14000 0
47 0 -14000 0
48 0 -14000 0
49 0 0 0
50 0 0 0
51 0 0 0
52 0 0 0
53 0 0 0
54 0 0 0
55 0 0 0
56 0 0 0
57 0 0 0
58 0 -14000 0
59 0 -14000 0
60 0 -14000 0
61 0 -14000 0
62 0 -14000 0
63 0 -14000 0
64 0 -14000 0
65 0 0 0
66 0 0 0
67 0 0 0
68 0 0 0
69 0 0 0
70 0 0 0
71 0 0 0
72 0 0 0
73 0 0 0
74 0 -7000 0
75 0 -7000 0
76 0 -7000 0
77 0 -7000 0
78 0 -7000 0
79 0 -7000 0
80 0 -7000 0
$EndNodeData
$ElementData
1
"CrossSectionArea"
1
0
3
0
1
325
1 0.003
2 0.003
3 0.001
4 0.001
5 0.001
6 0.003
7 0.0014
8 0.001
9 0.001
10 0.001
11 0.003
12 0.0014
13 0.0014
14 0.001
15 0.001
16 0.001
17 0.003
18 0.0014
19 0.0014
20 0.001
21 0.001
22 0.001
23 0.003
24 0.0014
25 0.0014
26 0.0014
27 0.001
28 0.001
29 0.001
30 0.003
31 0.0014
32 0.0014
33 0.001
34 0.001
35 0.001
36 0.003
37 0.0014
38 0.0014
39 0.001
40 0.001
41 0.001
42 0.003
43 0.0014
44 0.001
45 0.001
46 0.001
47 0.003
48 0.001
49 0.003
50 0.001
51 0.001
52 0.001
53 0.003
54 0.001
55 0.001
56 0.001
57 0.003
58 0.001
59 0.001
60 0.001
61 0.003
62 0.001
63 0.001
64 0.003
65 0.001
66 0.001
67 0.001
68 0.003
69 0.001
70 0.001
71 0.001
72 0.001
73 0.001
74 0.001
75 0.003
76 0.003
77 0.001
78 0.001
79 0.001
80 0.003
81 0.0014
82 0.001
83 0.001
84 0.001
85 0.003
86 0.0014
87 0.0014
88 0.001
89 0.001
90 0.001
91 0.003
92 0.0014
93 0.0014
94 0.001
95 0.001
96 0.001
97 0.003
98 0.0014
99 0.0014
100 0.0014
101 0.001
102 0.001
103 0.001
104 0.003
105 0.0014
106 0.0014
107 0.001
108 0.001
109 0.001
110 0.003
111 0.0014
112 0.0014
113 0.001
114 0.001
115 0.001
116 0.003
117 0.0014
118 0.001
119 0.001
120 0.001
121 0.003
122 0.001
123 0.003
124 0.001
125 0.001
126 0.001
127 0.003
128 0.001
129 0.001
130 0.001
131 0.003
132 0.001
133 0.001
134 0.001
135 0.003
136 0.001
137 0.001
138 0.003
139 0.001
140 0.001
141 0.001
142 0.003
143 0.001
144 0.001
145 0.001
146 0.001
147 0.001
148 0.001
149 0.003
150 0.003
151 0.001
152 0.001
153 0.001
154 0.003
155 0.0014
156 0.001
157 0.001
158 0.001
159 0.003
160 0.0014
161 0.0014
162 0.001
163 0.001
164 0.001
165 0.003
166 0.0014
167 0.0014
168 0.001
169 0.001
170 0.001
171 0.003
172 0.0014
173 0.0014
174 0.0014
175 0.001
176 0.001
177 0.001
178 0.003
179 0.0014
180 0.0014
181 0.001
182 0.001
183 0.001
184 0.003
185 0.0014
186 0.0014
187 0.001
188 0.001
189 0.001
190 0.003
191 0.0014
192 0.001
193 0.001
194 0.001
195 0.003
196 0.001
197 0.003
198 0.001
199 0.001
200 0.001
201 0.003
202 0.001
203 0.001
204 0.001
205 0.003
206 0.001
207 0.001
208 0.001
209 0.003
210 0.001
211 0.001
212 0.003
213 0.001
214 0.001
215 0.001
216 0.003
217 0.001
218 0.001
219 0.001
220 0.001
221 0.001
222 0.001
223 0.003
224 0.003
225 0.001
226 0.001
227 0.001
228 0.003
229 0.0014
230 0.001
231 0.001
232 0.001
233 0.003
234 0.0014
235 0.0014
236 0.001
237 0.001
238 0.001
239 0.003
240 0.0014
241 0.0014
242 0.001
243 0.001
244 0.001
245 0.003
246 0.0014
247 0.0014
248 0.0014
249 0.001
250 0.001
251 0.001
252 0.003
253 0.0014
254 0.0014
255 0.001
256 0.001
257 0.001
258 0.003
259 0.0014
260 0.0014
261 0.001
262 0.001
263 0.001
264 0.003
265 0.0014
266 0.001
267 0.001
268 0.001
269 0.003
270 0.001
271 0.003
272 0.001
273 0.001
274 0.001
275 0.003
276 0.001
277 0.001
278 0.001
279 0.003
280 0.001
281 0.001
282 0.001
283 0.003
284 0.001
285 0.001
286 0.003
287 0.001
288 0.001
289 0.001
290 0.003
291 0.001
292 0.001
293 0.001
294 0.001
295 0.001
296 0.001
297 0.003
298 0.003
299 0.003
300 0.0014
301 0.003
302 0.0014
303 0.0014
304 0.003
305 0.0014
306 0.0014
307 0.003
308 0.0014
309 0.0014
310 0.0014
311 0.003
312 0.0014
313 0.0014
314 0.003
315 0.0014
316 0.0014
317 0.003
318 0.0014
319 0.003
320 0.003
321 0.003
322 0.003
323 0.003
324 0.003
325 0.003
$EndElementData
$ElementData
1
"MaterialID"
1
0
3
0
1
325
1 0
2 0
3 0
4 0
5 0
6 0
7 0
8 0
9 0
10 0
11 0
12 0
13 0
14 0
15 0
16 0
17 0
18 0
19 0
20 0
21 0
22 0
23 0
24 0
25 0
26 0
27 0
28 0
29 0
30 0
31 0
32 0
33 0
34 0
35 0
36 0
37 0
38 0
39 0
40 0
41 0
42 0
43 0
44 0
45 0
46 0
47 0
48 0
49 0
50 0
51 0
52 0
53 0
54 0
55 0
56 0
57 0
58 0
59 0
60 0
61 0
62 0
63 0
64 0
65 0
66 0
67 0
68 0
69 0
70 0
71 0
72 0
73 0
74 0
75 0
76 0
77 0
78 0
79 0
80 0
81 0
82 0
83 0
84 0
85 0
86 0
87 0
88 0
89 0
90 0
91 0
92 0
93 0
94 0
95 0
96 0
97 0
98 0
99 0
100 0
101 0
102 0
103 0
104 0
105 0
106 0
107 0
108 0
109 0
110 0
111 0
112 0
113 0
114 0
115 0
116 0
117 0
118 0
119 0
120 0
121 0
122 0
123 0
124 0
125 0
126 0
127 0
128 0
129 0
130 0
131 0
132 0
133 0
134 0
135 0
136 0
137 0
138 0
139 0
140 0
141 0
142 0
143 0
144 0
145 0
146 0
147 0
148 0
149 0
150 0
151 0
152 0
153 0
154 0
155 0
156 0
157 0
158 0
159 0
160 0
161 0
162 0
163 0
164 0
165 0
166 0
167 0
168 0
169 0
170 0
171 0
172 0
173 0
174 0
175 0
176 0
177 0
178 0
179 0
180 0
181 0
182 0
183 0
184 0
185 0
186 0
187 0
188 0
189 0
190 0
191 0
192 0
193 0
194 0
195 0
196 0
197 0
198 0
199 0
200 0
201 0
202 0
203 0
204 0
205 0
206 0
207 0
208 0
209 0
210 0
211 0
212 0
213 0
214 0
215 0
216 0
217 0
218 0
219 0
220 0
221 0
222 0
223 0
224 0
225 0
226 0
227 0
228 0
229 0
230 0
231 0
232 0
233 0
234 0
235 0
236 0
237 0
238 0
239 0
240 0
241 0
242 0
243 0
244 0
245 0
246 0
247 0
248 0
249 0
250 0
251 0
252 0
253 0
254 0
255 0
256 0
257 0
258 0
259 0
260 0
261 0
262 0
263 0
264 0
265 0
266 0
267 0
268 0
269 0
270 0
271 0
272 0
273 0
274 0
275 0
276 0
277 0
278 0
279 0
280 0
281 0
282 0
283 0
284 0
285 0
286 0
287 0
288 0
289 0
290 0
291 0
292 0
293 0
294 0
295 0
296 0
297 0
298 0
299 0
300 0
301 0
302 0
303 0
304 0
305 0
306 0
307 0
308 0
309 0
310 0
311 0
312 0
313 0
314 0
315 0
316 0
317 0
318 0
319 0
320 0
321 0
322 0
323 0
324 0
325 0
$EndElementData
