$MeshFormat
4.1 0 8
$EndMeshFormat
$PhysicalNames
1
1 1 "Material:Structural Steel (AISI 4130)"
$EndPhysicalNames
$Entities
0 1 0 0
1 0 0 0 10 2.5 13.5 1 1 0
$EndEntities
$Nodes
1 28 1 28
1 1 0 28
1
2
3
4
5
6
7
8
9
10
11
12
13
14
15
16
17
18
19
20
21
22
23
24
25
26
27
28
0 0 0
3.3333333333333335 0 0
6.666666666666667 0 0
10 0 0
3.3333333333333335 1.6666666666666667 0
5 2.5 0
6.666666666666667 1.6666666666666667 0
0 0 4.5
3.3333333333333335 0 4.5
6.666666666666667 0 4.5
10 0 4.5
3.3333333333333335 1.6666666666666667 4.5
5 2.5 4.5
6.666666666666667 1.6666666666666667 4.5
0 0 9
3.3333333333333335 0 9
6.666666666666667 0 9
10 0 9
3.3333333333333335 1.6666666666666667 9
5 2.5 9
6.666666666666667 1.6666666666666667 9
0 0 13.5
3.3333333333333335 0 13.5
6.666666666666667 0 13.5
10 0 13.5
3.3333333333333335 1.6666666666666667 13.5
5 2.5 13.5
6.666666666666667 1.6666666666666667 13.5
$EndNodes
$Elements
1 98 1 98
1 1 1 98
1 1 2
2 1 5
3 1 8
4 1 9
5 1 12
6 2 3
7 2 5
8 2 6
9 2 9
10 2 10
11 2 12
12 2 13
13 3 4
14 3 6
15 3 7
16 3 10
17 3 11
18 3 13
19 3 14
20 4 7
21 4 11
22 5 6
23 5 12
24 5 13
25 6 7
26 6 13
27 6 14
28 7 11
29 7 14
30 8 9
31 8 12
32 8 15
33 8 16
34 8 19
35 9 10
36 9 12
37 9 13
38 9 16
39 9 17
40 9 19
41 9 20
42 10 11
43 10 13
44 10 14
45 10 17
46 10 18
47 10 20
48 10 21
49 11 14
50 11 18
51 12 13
52 12 19
53 12 20
54 13 14
55 13 20
56 13 21
57 14 18
58 14 21
59 15 16
60 15 19
61 15 22
62 15 23
63 15 26
64 16 17
65 16 19
66 16 20
67 16 23
68 16 24
69 16 26
70 16 27
71 17 18
72 17 20
73 17 21
74 17 24
75 17 25
76 17 27
77 17 28
78 18 21
79 18 25
80 19 20
81 19 26
82 19 27
83 20 21
84 20 27
85 20 28
86 21 25
87 21 28
88 22 23
89 22 26
90 23 24
91 23 26
92 23 27
93 24 25
94 24 27
95 24 28
96 25 28
97 26 27
98 27 28
$EndElements
$NodeData
1
"Fixity"
1
0
3
0
3
28
1 1 1 1
2 0 0 0
3 0 0 0
4 0 1 0
5 0 0 0
6 0 0 0
7 0 0 0
8 1 1 1
9 0 0 0
10 0 0 0
11 0 1 0
12 0 0 0
13 0 0 0
14 0 0 0
15 1 1 1
16 0 0 0
17 0 0 0
18 0 1 0
19 0 0 0
20 0 0 0
21 0 0 0
22 1 1 1
23 0 0 0
24 0 0 0
25 0 1 0
26 0 0 0
27 0 0 0
28 0 0 0
$EndNodeData
$NodeData
1
"NodalForce"
1
0
3
0
3
28
1 0 0 0
2 0 0 0
3 0 0 0
4 0 0 0
5 0 -4000 0
6 0 -4000 0
7 0 -4000 0
8 0 0 0
9 0 0 0
10 0 0 0
11 0 0 0
12 0 -8000 0
13 0 -8000 0
14 0 -8000 0
15 0 0 0
16 0 0 0
17 0 0 0
18 0 0 0
19 0 -8000 0
20 0 -8000 0
21 0 -8000 0
22 0 0 0
23 0 0 0
24 0 0 0
25 0 0 0
26 0 -4000 0
27 0 -4000 0
28 0 -4000 0
$EndNodeData
$ElementData
1
"CrossSectionArea"
1
0
3
0
1
98
1 0.0014
2 0.0014
3 0.0006000000000000001
4 0.0006000000000000001
5 0.0006000000000000001
6 0.0014
7 0.0009000000000000001
8 0.0009000000000000001
9 0.0006000000000000001
10 0.0006000000000000001
11 0.0006000000000000001
12 0.0006000000000000001
13 0.0014
14 0.0009000000000000001
15 0.0009000000000000001
16 0.0006000000000000001
17 0.0006000000000000001
18 0.0006000000000000001
19 0.0006000000000000001
20 0.0014
21 0.0006000000000000001
22 0.0014
23 0.0006000000000000001
24 0.0006000000000000001
25 0.0014
26 0.0006000000000000001
27 0.0006000000000000001
28 0.0006000000000000001
29 0.0006000000000000001
30 0.0014
31 0.0014
32 0.0006000000000000001
33 0.0006000000000000001
34 0.0006000000000000001
35 0.0014
36 0.0009000000000000001
37 0.0009000000000000001
38 0.0006000000000000001
39 0.0006000000000000001
40 0.0006000000000000001
41 0.0006000000000000001
42 0.0014
43 0.0009000000000000001
44 0.0009000000000000001
45 0.0006000000000000001
46 0.0006000000000000001
47 0.0006000000000000001
48 0.0006000000000000001
49 0.0014
50 0.0006000000000000001
51 0.0014
52 0.0006000000000000001
53 0.0006000000000000001
54 0.0014
55 0.0006000000000000001
56 0.0006000000000000001
57 0.0006000000000000001
58 0.0006000000000000001
59 0.0014
60 0.0014
61 0.0006000000000000001
62 0.0006000000000000001
63 0.0006000000000000001
64 0.0014
65 0.0009000000000000001
66 0.0009000000000000001
67 0.0006000000000000001
68 0.0006000000000000001
69 0.0006000000000000001
70 0.0006000000000000001
71 0.0014
72 0.0009000000000000001
73 0.0009000000000000001
74 0.0006000000000000001
75 0.0006000000000000001
76 0.0006000000000000001
77 0.0006000000000000001
78 0.0014
79 0.0006000000000000001
80 0.0014
81 0.0006000000000000001
82 0.0006000000000000001
83 0.0014
84 0.0006000000000000001
85 0.0006000000000000001
86 0.0006000000000000001
87 0.0006000000000000001
88 0.0014
89 0.0014
90 0.0014
91 0.0009000000000000001
92 0.0009000000000000001
93 0.0014
94 0.0009000000000000001
95 0.0009000000000000001
96 0.0014
97 0.0014
98 0.0014
$EndElementData
$ElementData
1
"MaterialID"
1
0
3
0
1
98
1 0
2 0
3 0
4 0
5 0
6 0
7 0
8 0
9 0
10 0
11 0
12 0
13 0
14 0
15 0
16 0
17 0
18 0
19 0
20 0
21 0
22 0
23 0
24 0
25 0
26 0
27 0
28 0
29 0
30 0
31 0
32 0
33 0
34 0
35 0
36 0
37 0
38 0
39 0
40 0
41 0
42 0
43 0
44 0
45 0
46 0
47 0
48 0
49 0
50 0
51 0
52 0
53 0
54 0
55 0
56 0
57 0
58 0
59 0
60 0
61 0
62 0
63 0
64 0
65 0
66 0
67 0
68 0
69 0
70 0
71 0
72 0
73 0
74 0
75 0
76 0
77 0
78 0
79 0
80 0
81 0
82 0
83 0
84 0
85 0
86 0
87 0
88 0
89 0
90 0
91 0
92 0
93 0
94 0
95 0
96 0
97 0
98 0
$EndElementData
