$MeshFormat
4.1 0 8
$EndMeshFormat
$PhysicalNames
1
1 1 "Material:Structural Steel (AISI 4130)"
$EndPhysicalNames
$Entities
0 1 0 0
1 0 0 0 10 3.5 12 1 1 0
$EndEntities
$Nodes
1 48 1 48
1 1 0 48
1
2
3
4
5
6
7
8
9
10
11
12
13
14
15
16
17
18
19
20
21
22
23
24
25
26
27
28
29
30
31
32
33
34
35
36
37
38
39
40
41
42
43
44
45
46
47
48
0 0 0
1.6666666666666667 0.5 0
3.3333333333333335 1 0
5 1.5 0
6.666666666666667 1 0
8.333333333333334 0.4999999999999999 0
10 0 0
1.6666666666666667 1.1666666666666667 0
3.3333333333333335 2.3333333333333335 0
5 3.5 0
6.666666666666667 2.333333333333333 0
8.333333333333334 1.1666666666666665 0
0 0 4
1.6666666666666667 0.5 4
3.3333333333333335 1 4
5 1.5 4
6.666666666666667 1 4
8.333333333333334 0.4999999999999999 4
10 0 4
1.6666666666666667 1.1666666666666667 4
3.3333333333333335 2.3333333333333335 4
5 3.5 4
6.666666666666667 2.333333333333333 4
8.333333333333334 1.1666666666666665 4
0 0 8
1.6666666666666667 0.5 8
3.3333333333333335 1 8
5 1.5 8
6.666666666666667 1 8
8.333333333333334 0.4999999999999999 8
10 0 8
1.6666666666666667 1.1666666666666667 8
3.3333333333333335 2.3333333333333335 8
5 3.5 8
6.666666666666667 2.333333333333333 8
8.333333333333334 1.1666666666666665 8
0 0 12
1.6666666666666667 0.5 12
3.3333333333333335 1 12
5 1.5 12
6.666666666666667 1 12
8.333333333333334 0.4999999999999999 12
10 0 12
1.6666666666666667 1.1666666666666667 12
3.3333333333333335 2.3333333333333335 12
5 3.5 12
6.666666666666667 2.333333333333333 12
8.333333333333334 1.1666666666666665 12
$EndNodes
$Elements
1 183 1 183
1 1 1 183
1 1 2
2 1 8
3 1 13
4 1 14
5 1 20
6 2 3
7 2 8
8 2 14
9 2 15
10 2 20
11 3 4
12 3 8
13 3 9
14 3 15
15 3 16
16 3 21
17 4 5
18 4 9
19 4 10
20 4 11
21 4 16
22 4 17
23 4 22
24 5 6
25 5 11
26 5 12
27 5 17
28 5 18
29 5 23
30 6 7
31 6 12
32 6 18
33 6 19
34 6 24
35 7 12
36 7 19
37 8 9
38 8 15
39 8 20
40 8 21
41 9 10
42 9 16
43 9 21
44 9 22
45 10 11
46 10 22
47 10 23
48 11 12
49 11 16
50 11 23
51 11 24
52 12 17
53 12 19
54 12 24
55 13 14
56 13 20
57 13 25
58 13 26
59 13 32
60 14 15
61 14 20
62 14 26
63 14 27
64 14 32
65 15 16
66 15 20
67 15 21
68 15 27
69 15 28
70 15 33
71 16 17
72 16 21
73 16 22
74 16 23
75 16 28
76 16 29
77 16 34
78 17 18
79 17 23
80 17 24
81 17 29
82 17 30
83 17 35
84 18 19
85 18 24
86 18 30
87 18 31
88 18 36
89 19 24
90 19 31
91 20 21
92 20 27
93 20 32
94 20 33
95 21 22
96 21 28
97 21 33
98 21 34
99 22 23
100 22 34
101 22 35
102 23 24
103 23 28
104 23 35
105 23 36
106 24 29
107 24 31
108 24 36
109 25 26
110 25 32
111 25 37
112 25 38
113 25 44
114 26 27
115 26 32
116 26 38
117 26 39
118 26 44
119 27 28
120 27 32
121 27 33
122 27 39
123 27 40
124 27 45
125 28 29
126 28 33
127 28 34
128 28 35
129 28 40
130 28 41
131 28 46
132 29 30
133 29 35
134 29 36
135 29 41
136 29 42
137 29 47
138 30 31
139 30 36
140 30 42
141 30 43
142 30 48
143 31 36
144 31 43
145 32 33
146 32 39
147 32 44
148 32 45
149 33 34
150 33 40
151 33 45
152 33 46
153 34 35
154 34 46
155 34 47
156 35 36
157 35 40
158 35 47
159 35 48
160 36 41
161 36 43
162 36 48
163 37 38
164 37 44
165 38 39
166 38 44
167 39 40
168 39 44
169 39 45
170 40 41
171 40 45
172 40 46
173 40 47
174 41 42
175 41 47
176 41 48
177 42 43
178 42 48
179 43 48
180 44 45
181 45 46
182 46 47
183 47 48
$EndElements
$NodeData
1
"Fixity"
1
0
3
0
3
48
1 1 1 1
2 0 0 0
3 0 0 0
4 0 0 0
5 0 0 0
6 0 0 0
7 0 1 0
8 0 0 0
9 0 0 0
10 0 0 0
11 0 0 0
12 0 0 0
13 1 1 1
14 0 0 0
15 0 0 0
16 0 0 0
17 0 0 0
18 0 0 0
19 0 1 0
20 0 0 0
21 0 0 0
22 0 0 0
23 0 0 0
24 0 0 0
25 1 1 1
26 0 0 0
27 0 0 0
28 0 0 0
29 0 0 0
30 0 0 0
31 0 1 0
32 0 0 0
33 0 0 0
34 0 0 0
35 0 0 0
36 0 0 0
37 1 1 1
38 0 0 0
39 0 0 0
40 0 0 0
41 0 0 0
42 0 0 0
43 0 1 0
44 0 0 0
45 0 0 0
46 0 0 0
47 0 0 0
48 0 0 0
$EndNodeData
$NodeData
1
"NodalForce"
1
0
3
0
3
48
1 0 0 0
2 0 0 0
3 0 0 0
4 0 0 0
5 0 0 0
6 0 0 0
7 0 0 0
8 0 -3000 0
9 0 -3000 0
10 0 -3000 0
11 0 -3000 0
12 0 -3000 0
13 0 0 0
14 0 0 0
15 0 0 0
16 0 0 0
17 0 0 0
18 0 0 0
19 0 0 0
20 0 -6000 0
21 0 -6000 0
22 0 -6000 0
23 0 -6000 0
24 0 -6000 0
25 0 0 0
26 0 0 0
27 0 0 0
28 0 0 0
29 0 0 0
30 0 0 0
31 0 0 0
32 0 -6000 0
33 0 -6000 0
34 0 -6000 0
35 0 -6000 0
36 0 -6000 0
37 0 0 0
38 0 0 0
39 0 0 0
40 0 0 0
41 0 0 0
42 0 0 0
43 0 0 0
44 0 -3000 0
45 0 -3000 0
46 0 -3000 0
47 0 -3000 0
48 0 -3000 0
$EndNodeData
$ElementData
1
"CrossSectionArea"
1
0
3
0
1
183
1 0.0014
2 0.0014
3 0.0006000000000000001
4 0.0006000000000000001
5 0.0006000000000000001
6 0.0014
7 0.0009000000000000001
8 0.0006000000000000001
9 0.0006000000000000001
10 0.0006000000000000001
11 0.0014
12 0.0009000000000000001
13 0.0009000000000000001
14 0.0006000000000000001
15 0.0006000000000000001
16 0.0006000000000000001
17 0.0014
18 0.0009000000000000001
19 0.0009000000000000001
20 0.0009000000000000001
21 0.0006000000000000001
22 0.0006000000000000001
23 0.0006000000000000001
24 0.0014
25 0.0009000000000000001
26 0.0009000000000000001
27 0.0006000000000000001
28 0.0006000000000000001
29 0.0006000000000000001
30 0.0014
31 0.0009000000000000001
32 0.0006000000000000001
33 0.0006000000000000001
34 0.0006000000000000001
35 0.0014
36 0.0006000000000000001
37 0.0014
38 0.0006000000000000001
39 0.0006000000000000001
40 0.0006000000000000001
41 0.0014
42 0.0006000000000000001
43 0.0006000000000000001
44 0.0006000000000000001
45 0.0014
46 0.0006000000000000001
47 0.0006000000000000001
48 0.0014
49 0.0006000000000000001
50 0.0006000000000000001
51 0.0006000000000000001
52 0.0006000000000000001
53 0.0006000000000000001
54 0.0006000000000000001
55 0.0014
56 0.0014
57 0.0006000000000000001
58 0.0006000000000000001
59 0.0006000000000000001
60 0.0014
61 0.0009000000000000001
62 0.0006000000000000001
63 0.0006000000000000001
64 0.0006000000000000001
65 0.0014
66 0.0009000000000000001
67 0.0009000000000000001
68 0.0006000000000000001
69 0.0006000000000000001
70 0.0006000000000000001
71 0.0014
72 0.0009000000000000001
73 0.0009000000000000001
74 0.0009000000000000001
75 0.0006000000000000001
76 0.0006000000000000001
77 0.0006000000000000001
78 0.0014
79 0.0009000000000000001
80 0.0009000000000000001
81 0.0006000000000000001
82 0.0006000000000000001
83 0.0006000000000000001
84 0.0014
85 0.0009000000000000001
86 0.0006000000000000001
87 0.0006000000000000001
88 0.0006000000000000001
89 0.0014
90 0.0006000000000000001
91 0.0014
92 0.0006000000000000001
93 0.0006000000000000001
94 0.0006000000000000001
95 0.0014
96 0.0006000000000000001
97 0.0006000000000000001
98 0.0006000000000000001
99 0.0014
100 0.0006000000000000001
101 0.0006000000000000001
102 0.0014
103 0.0006000000000000001
104 0.0006000000000000001
105 0.0006000000000000001
106 0.0006000000000000001
107 0.0006000000000000001
108 0.0006000000000000001
109 0.0014
110 0.0014
111 0.0006000000000000001
112 0.0006000000000000001
113 0.0006000000000000001
114 0.0014
115 0.0009000000000000001
116 0.0006000000000000001
117 0.0006000000000000001
118 0.0006000000000000001
119 0.0014
120 0.0009000000000000001
121 0.0009000000000000001
122 0.0006000000000000001
123 0.0006000000000000001
124 0.0006000000000000001
125 0.0014
126 0.0009000000000000001
127 0.0009000000000000001
128 0.0009000000000000001
129 0.0006000000000000001
130 0.0006000000000000001
131 0.0006000000000000001
132 0.0014
133 0.0009000000000000001
134 0.0009000000000000001
135 0.0006000000000000001
136 0.0006000000000000001
137 0.0006000000000000001
138 0.0014
139 0.0009000000000000001
140 0.0006000000000000001
141 0.0006000000000000001
142 0.0006000000000000001
143 0.0014
144 0.0006000000000000001
145 0.0014
146 0.0006000000000000001
147 0.0006000000000000001
148 0.0006000000000000001
149 0.0014
150 0.0006000000000000001
151 0.0006000000000000001
152 0.0006000000000000001
153 0.0014
154 0.0006000000000000001
155 0.0006000000000000001
156 0.0014
157 0.0006000000000000001
158 0.0006000000000000001
159 0.0006000000000000001
160 0.0006000000000000001
161 0.0006000000000000001
162 0.0006000000000000001
163 0.0014
164 0.0014
165 0.0014
166 0.0009000000000000001
167 0.0014
168 0.0009000000000000001
169 0.0009000000000000001
170 0.0014
171 0.0009000000000000001
172 0.0009000000000000001
173 0.0009000000000000001
174 0.0014
175 0.0009000000000000001
176 0.0009000000000000001
177 0.0014
178 0.0009000000000000001
179 0.0014
180 0.0014
181 0.0014
182 0.0014
183 0.0014
$EndElementData
$ElementData
1
"MaterialID"
1
0
3
0
1
183
1 0
2 0
3 0
4 0
5 0
6 0
7 0
8 0
9 0
10 0
11 0
12 0
13 0
14 0
15 0
16 0
17 0
18 0
19 0
20 0
21 0
22 0
23 0
24 0
25 0
26 0
27 0
28 0
29 0
30 0
31 0
32 0
33 0
34 0
35 0
36 0
37 0
38 0
39 0
40 0
41 0
42 0
43 0
44 0
45 0
46 0
47 0
48 0
49 0
50 0
51 0
52 0
53 0
54 0
55 0
56 0
57 0
58 0
59 0
60 0
61 0
62 0
63 0
64 0
65 0
66 0
67 0
68 0
69 0
70 0
71 0
72 0
73 0
74 0
75 0
76 0
77 0
78 0
79 0
80 0
81 0
82 0
83 0
84 0
85 0
86 0
87 0
88 0
89 0
90 0
91 0
92 0
93 0
94 0
95 0
96 0
97 0
98 0
99 0
100 0
101 0
102 0
103 0
104 0
105 0
106 0
107 0
108 0
109 0
110 0
111 0
112 0
113 0
114 0
115 0
116 0
117 0
118 0
119 0
120 0
121 0
122 0
123 0
124 0
125 0
126 0
127 0
128 0
129 0
130 0
131 0
132 0
133 0
134 0
135 0
136 0
137 0
138 0
139 0
140 0
141 0
142 0
143 0
144 0
145 0
146 0
147 0
148 0
149 0
150 0
151 0
152 0
153 0
154 0
155 0
156 0
157 0
158 0
159 0
160 0
161 0
162 0
163 0
164 0
165 0
166 0
167 0
168 0
169 0
170 0
171 0
172 0
173 0
174 0
175 0
176 0
177 0
178 0
179 0
180 0
181 0
182 0
183 0
$EndElementData
