$MeshFormat
4.1 0 8
$EndMeshFormat
$PhysicalNames
1
1 1 "Material:Structural Steel (AISI 4130)"
$EndPhysicalNames
$Entities
0 1 0 0
1 0 0 0 20 4 24 1 1 0
$EndEntities
$Nodes
1 100 1 100
1 1 0 100
1
2
3
4
5
6
7
8
9
10
11
12
13
14
15
16
17
18
19
20
21
22
23
24
25
26
27
28
29
30
31
32
33
34
35
36
37
38
39
40
41
42
43
44
45
46
47
48
49
50
51
52
53
54
55
56
57
58
59
60
61
62
63
64
65
66
67
68
69
70
71
72
73
74
75
76
77
78
79
80
81
82
83
84
85
86
87
88
89
90
91
92
93
94
95
96
97
98
99
100
0 0 0
2 0 0
4 0 0
6 0 0
8 0 0
10 0 0
12 0 0
14 0 0
16 0 0
18 0 0
20 0 0
2 0.7999999999999998 0
4 1.6 0
6 2.4 0
8 3.2 0
10 4 0
12 3.2 0
14 2.4 0
16 1.6 0
18 0.7999999999999998 0
0 0 6
2 0 6
4 0 6
6 0 6
8 0 6
10 0 6
12 0 6
14 0 6
16 0 6
18 0 6
20 0 6
2 0.7999999999999998 6
4 1.6 6
6 2.4 6
8 3.2 6
10 4 6
12 3.2 6
14 2.4 6
16 1.6 6
18 0.7999999999999998 6
0 0 12
2 0 12
4 0 12
6 0 12
8 0 12
10 0 12
12 0 12
14 0 12
16 0 12
18 0 12
20 0 12
2 0.7999999999999998 12
4 1.6 12
6 2.4 12
8 3.2 12
10 4 12
12 3.2 12
14 2.4 12
16 1.6 12
18 0.7999999999999998 12
0 0 18
2 0 18
4 0 18
6 0 18
8 0 18
10 0 18
12 0 18
14 0 18
16 0 18
18 0 18
20 0 18
2 0.7999999999999998 18
4 1.6 18
6 2.4 18
8 3.2 18
10 4 18
12 3.2 18
14 2.4 18
16 1.6 18
18 0.7999999999999998 18
0 0 24
2 0 24
4 0 24
6 0 24
8 0 24
10 0 24
12 0 24
14 0 24
16 0 24
18 0 24
20 0 24
2 0.7999999999999998 24
4 1.6 24
6 2.4 24
8 3.2 24
10 4 24
12 3.2 24
14 2.4 24
16 1.6 24
18 0.7999999999999998 24
$EndNodes
$Elements
1 413 1 413
1 1 1 413
1 1 2
2 1 12
3 1 21
4 1 22
5 1 32
6 2 3
7 2 12
8 2 22
9 2 23
10 2 32
11 3 4
12 3 12
13 3 13
14 3 23
15 3 24
16 3 33
17 4 5
18 4 13
19 4 14
20 4 24
21 4 25
22 4 34
23 5 6
24 5 14
25 5 15
26 5 25
27 5 26
28 5 35
29 6 7
30 6 15
31 6 16
32 6 17
33 6 26
34 6 27
35 6 36
36 7 8
37 7 17
38 7 18
39 7 27
40 7 28
41 7 37
42 8 9
43 8 18
44 8 19
45 8 28
46 8 29
47 8 38
48 9 10
49 9 19
50 9 20
51 9 29
52 9 30
53 9 39
54 10 11
55 10 20
56 10 30
57 10 31
58 10 40
59 11 20
60 11 31
61 12 13
62 12 23
63 12 32
64 12 33
65 13 14
66 13 24
67 13 33
68 13 34
69 14 15
70 14 25
71 14 34
72 14 35
73 15 16
74 15 26
75 15 35
76 15 36
77 16 17
78 16 36
79 16 37
80 17 18
81 17 26
82 17 37
83 17 38
84 18 19
85 18 27
86 18 38
87 18 39
88 19 20
89 19 28
90 19 39
91 19 40
92 20 29
93 20 31
94 20 40
95 21 22
96 21 32
97 21 41
98 21 42
99 21 52
100 22 23
101 22 32
102 22 42
103 22 43
104 22 52
105 23 24
106 23 32
107 23 33
108 23 43
109 23 44
110 23 53
111 24 25
112 24 33
113 24 34
114 24 44
115 24 45
116 24 54
117 25 26
118 25 34
119 25 35
120 25 45
121 25 46
122 25 55
123 26 27
124 26 35
125 26 36
126 26 37
127 26 46
128 26 47
129 26 56
130 27 28
131 27 37
132 27 38
133 27 47
134 27 48
135 27 57
136 28 29
137 28 38
138 28 39
139 28 48
140 28 49
141 28 58
142 29 30
143 29 39
144 29 40
145 29 49
146 29 50
147 29 59
148 30 31
149 30 40
150 30 50
151 30 51
152 30 60
153 31 40
154 31 51
155 32 33
156 32 43
157 32 52
158 32 53
159 33 34
160 33 44
161 33 53
162 33 54
163 34 35
164 34 45
165 34 54
166 34 55
167 35 36
168 35 46
169 35 55
170 35 56
171 36 37
172 36 56
173 36 57
174 37 38
175 37 46
176 37 57
177 37 58
178 38 39
179 38 47
180 38 58
181 38 59
182 39 40
183 39 48
184 39 59
185 39 60
186 40 49
187 40 51
188 40 60
189 41 42
190 41 52
191 41 61
192 41 62
193 41 72
194 42 43
195 42 52
196 42 62
197 42 63
198 42 72
199 43 44
200 43 52
201 43 53
202 43 63
203 43 64
204 43 73
205 44 45
206 44 53
207 44 54
208 44 64
209 44 65
210 44 74
211 45 46
212 45 54
213 45 55
214 45 65
215 45 66
216 45 75
217 46 47
218 46 55
219 46 56
220 46 57
221 46 66
222 46 67
223 46 76
224 47 48
225 47 57
226 47 58
227 47 67
228 47 68
229 47 77
230 48 49
231 48 58
232 48 59
233 48 68
234 48 69
235 48 78
236 49 50
237 49 59
238 49 60
239 49 69
240 49 70
241 49 79
242 50 51
243 50 60
244 50 70
245 50 71
246 50 80
247 51 60
248 51 71
249 52 53
250 52 63
251 52 72
252 52 73
253 53 54
254 53 64
255 53 73
256 53 74
257 54 55
258 54 65
259 54 74
260 54 75
261 55 56
262 55 66
263 55 75
264 55 76
265 56 57
266 56 76
267 56 77
268 57 58
269 57 66
270 57 77
271 57 78
272 58 59
273 58 67
274 58 78
275 58 79
276 59 60
277 59 68
278 59 79
279 59 80
280 60 69
281 60 71
282 60 80
283 61 62
284 61 72
285 61 81
286 61 82
287 61 92
288 62 63
289 62 72
290 62 82
291 62 83
292 62 92
293 63 64
294 63 72
295 63 73
296 63 83
297 63 84
298 63 93
299 64 65
300 64 73
301 64 74
302 64 84
303 64 85
304 64 94
305 65 66
306 65 74
307 65 75
308 65 85
309 65 86
310 65 95
311 66 67
312 66 75
313 66 76
314 66 77
315 66 86
316 66 87
317 66 96
318 67 68
319 67 77
320 67 78
321 67 87
322 67 88
323 67 97
324 68 69
325 68 78
326 68 79
327 68 88
328 68 89
329 68 98
330 69 70
331 69 79
332 69 80
333 69 89
334 69 90
335 69 99
336 70 71
337 70 80
338 70 90
339 70 91
340 70 100
341 71 80
342 71 91
343 72 73
344 72 83
345 72 92
346 72 93
347 73 74
348 73 84
349 73 93
350 73 94
351 74 75
352 74 85
353 74 94
354 74 95
355 75 76
356 75 86
357 75 95
358 75 96
359 76 77
360 76 96
361 76 97
362 77 78
363 77 86
364 77 97
365 77 98
366 78 79
367 78 87
368 78 98
369 78 99
370 79 80
371 79 88
372 79 99
373 79 100
374 80 89
375 80 91
376 80 100
377 81 82
378 81 92
379 82 83
380 82 92
381 83 84
382 83 92
383 83 93
384 84 85
385 84 93
386 84 94
387 85 86
388 85 94
389 85 95
390 86 87
391 86 95
392 86 96
393 86 97
394 87 88
395 87 97
396 87 98
397 88 89
398 88 98
399 88 99
400 89 90
401 89 99
402 89 100
403 90 91
404 90 100
405 91 100
406 92 93
407 93 94
408 94 95
409 95 96
410 96 97
411 97 98
412 98 99
413 99 100
$EndElements
$NodeData
1
"Fixity"
1
0
3
0
3
100
1 1 1 1
2 0 0 0
3 0 0 0
4 0 0 0
5 0 0 0
6 0 0 0
7 0 0 0
8 0 0 0
9 0 0 0
10 0 0 0
11 0 1 0
12 0 0 0
13 0 0 0
14 0 0 0
15 0 0 0
16 0 0 0
17 0 0 0
18 0 0 0
19 0 0 0
20 0 0 0
21 1 1 1
22 0 0 0
23 0 0 0
24 0 0 0
25 0 0 0
26 0 0 0
27 0 0 0
28 0 0 0
29 0 0 0
30 0 0 0
31 0 1 0
32 0 0 0
33 0 0 0
34 0 0 0
35 0 0 0
36 0 0 0
37 0 0 0
38 0 0 0
39 0 0 0
40 0 0 0
41 1 1 1
42 0 0 0
43 0 0 0
44 0 0 0
45 0 0 0
46 0 0 0
47 0 0 0
48 0 0 0
49 0 0 0
50 0 0 0
51 0 1 0
52 0 0 0
53 0 0 0
54 0 0 0
55 0 0 0
56 0 0 0
57 0 0 0
58 0 0 0
59 0 0 0
60 0 0 0
61 1 1 1
62 0 0 0
63 0 0 0
64 0 0 0
65 0 0 0
66 0 0 0
67 0 0 0
68 0 0 0
69 0 0 0
70 0 0 0
71 0 1 0
72 0 0 0
73 0 0 0
74 0 0 0
75 0 0 0
76 0 0 0
77 0 0 0
78 0 0 0
79 0 0 0
80 0 0 0
81 1 1 1
82 0 0 0
83 0 0 0
84 0 0 0
85 0 0 0
86 0 0 0
87 0 0 0
88 0 0 0
89 0 0 0
90 0 0 0
91 0 1 0
92 0 0 0
93 0 0 0
94 0 0 0
95 0 0 0
96 0 0 0
97 0 0 0
98 0 0 0
99 0 0 0
100 0 0 0
$EndNodeData
$NodeData
1
"NodalForce"
1
0
3
0
3
100
1 0 0 0
2 0 0 0
3 0 0 0
4 0 0 0
5 0 0 0
6 0 0 0
7 0 0 0
8 0 0 0
9 0 0 0
10 0 0 0
11 0 0 0
12 0 -6000 0
13 0 -6000 0
14 0 -6000 0
15 0 -6000 0
16 0 -6000 0
17 0 -6000 0
18 0 -6000 0
19 0 -6000 0
20 0 -6000 0
21 0 0 0
22 0 0 0
23 0 0 0
24 0 0 0
25 0 0 0
26 0 0 0
27 0 0 0
28 0 0 0
29 0 0 0
30 0 0 0
31 0 0 0
32 0 -12000 0
33 0 -12000 0
34 0 -12000 0
35 0 -12000 0
36 0 -12000 0
37 0 -12000 0
38 0 -12000 0
39 0 -12000 0
40 0 -12000 0
41 0 0 0
42 0 0 0
43 0 0 0
44 0 0 0
45 0 0 0
46 0 0 0
47 0 0 0
48 0 0 0
49 0 0 0
50 0 0 0
51 0 0 0
52 0 -12000 0
53 0 -12000 0
54 0 -12000 0
55 0 -12000 0
56 0 -12000 0
57 0 -12000 0
58 0 -12000 0
59 0 -12000 0
60 0 -12000 0
61 0 0 0
62 0 0 0
63 0 0 0
64 0 0 0
65 0 0 0
66 0 0 0
67 0 0 0
68 0 0 0
69 0 0 0
70 0 0 0
71 0 0 0
72 0 -12000 0
73 0 -12000 0
74 0 -12000 0
75 0 -12000 0
76 0 -12000 0
77 0 -12000 0
78 0 -12000 0
79 0 -12000 0
80 0 -12000 0
81 0 0 0
82 0 0 0
83 0 0 0
84 0 0 0
85 0 0 0
86 0 0 0
87 0 0 0
88 0 0 0
89 0 0 0
90 0 0 0
91 0 0 0
92 0 -6000 0
93 0 -6000 0
94 0 -6000 0
95 0 -6000 0
96 0 -6000 0
97 0 -6000 0
98 0 -6000 0
99 0 -6000 0
100 0 -6000 0
$EndNodeData
$ElementData
1
"CrossSectionArea"
1
0
3
0
1
413
1 0.0024000000000000002
2 0.0024000000000000002
3 8e-04
4 8e-04
5 8e-04
6 0.0024000000000000002
7 0.0014
8 8e-04
9 8e-04
10 8e-04
11 0.0024000000000000002
12 0.0014
13 0.0014
14 8e-04
15 8e-04
16 8e-04
17 0.0024000000000000002
18 0.0014
19 0.0014
20 8e-04
21 8e-04
22 8e-04
23 0.0024000000000000002
24 0.0014
25 0.0014
26 8e-04
27 8e-04
28 8e-04
29 0.0024000000000000002
30 0.0014
31 0.0014
32 0.0014
33 8e-04
34 8e-04
35 8e-04
36 0.0024000000000000002
37 0.0014
38 0.0014
39 8e-04
40 8e-04
41 8e-04
42 0.0024000000000000002
43 0.0014
44 0.0014
45 8e-04
46 8e-04
47 8e-04
48 0.0024000000000000002
49 0.0014
50 0.0014
51 8e-04
52 8e-04
53 8e-04
54 0.0024000000000000002
55 0.0014
56 8e-04
57 8e-04
58 8e-04
59 0.0024000000000000002
60 8e-04
61 0.0024000000000000002
62 8e-04
63 8e-04
64 8e-04
65 0.0024000000000000002
66 8e-04
67 8e-04
68 8e-04
69 0.0024000000000000002
70 8e-04
71 8e-04
72 8e-04
73 0.0024000000000000002
74 8e-04
75 8e-04
76 8e-04
77 0.0024000000000000002
78 8e-04
79 8e-04
80 0.0024000000000000002
81 8e-04
82 8e-04
83 8e-04
84 0.0024000000000000002
85 8e-04
86 8e-04
87 8e-04
88 0.0024000000000000002
89 8e-04
90 8e-04
91 8e-04
92 8e-04
93 8e-04
94 8e-04
95 0.0024000000000000002
96 0.0024000000000000002
97 8e-04
98 8e-04
99 8e-04
100 0.0024000000000000002
101 0.0014
102 8e-04
103 8e-04
104 8e-04
105 0.0024000000000000002
106 0.0014
107 0.0014
108 8e-04
109 8e-04
110 8e-04
111 0.0024000000000000002
112 0.0014
113 0.0014
114 8e-04
115 8e-04
116 8e-04
117 0.0024000000000000002
118 0.0014
119 0.0014
120 8e-04
121 8e-04
122 8e-04
123 0.0024000000000000002
124 0.0014
125 0.0014
126 0.0014
127 8e-04
128 8e-04
129 8e-04
130 0.0024000000000000002
131 0.0014
132 0.0014
133 8e-04
134 8e-04
135 8e-04
136 0.0024000000000000002
137 0.0014
138 0.0014
139 8e-04
140 8e-04
141 8e-04
142 0.0024000000000000002
143 0.0014
144 0.0014
145 8e-04
146 8e-04
147 8e-04
148 0.0024000000000000002
149 0.0014
150 8e-04
151 8e-04
152 8e-04
153 0.0024000000000000002
154 8e-04
155 0.0024000000000000002
156 8e-04
157 8e-04
158 8e-04
159 0.0024000000000000002
160 8e-04
161 8e-04
162 8e-04
163 0.0024000000000000002
164 8e-04
165 8e-04
166 8e-04
167 0.0024000000000000002
168 8e-04
169 8e-04
170 8e-04
171 0.0024000000000000002
172 8e-04
173 8e-04
174 0.0024000000000000002
175 8e-04
176 8e-04
177 8e-04
178 0.0024000000000000002
179 8e-04
180 8e-04
181 8e-04
182 0.0024000000000000002
183 8e-04
184 8e-04
185 8e-04
186 8e-04
187 8e-04
188 8e-04
189 0.0024000000000000002
190 0.0024000000000000002
191 8e-04
192 8e-04
193 8e-04
194 0.0024000000000000002
195 0.0014
196 8e-04
197 8e-04
198 8e-04
199 0.0024000000000000002
200 0.0014
201 0.0014
202 8e-04
203 8e-04
204 8e-04
205 0.0024000000000000002
206 0.0014
207 0.0014
208 8e-04
209 8e-04
210 8e-04
211 0.0024000000000000002
212 0.0014
213 0.0014
214 8e-04
215 8e-04
216 8e-04
217 0.0024000000000000002
218 0.0014
219 0.0014
220 0.0014
221 8e-04
222 8e-04
223 8e-04
224 0.0024000000000000002
225 0.0014
226 0.0014
227 8e-04
228 8e-04
229 8e-04
230 0.0024000000000000002
231 0.0014
232 0.0014
233 8e-04
234 8e-04
235 8e-04
236 0.0024000000000000002
237 0.0014
238 0.0014
239 8e-04
240 8e-04
241 8e-04
242 0.0024000000000000002
243 0.0014
244 8e-04
245 8e-04
246 8e-04
247 0.0024000000000000002
248 8e-04
249 0.0024000000000000002
250 8e-04
251 8e-04
252 8e-04
253 0.0024000000000000002
254 8e-04
255 8e-04
256 8e-04
257 0.0024000000000000002
258 8e-04
259 8e-04
260 8e-04
261 0.0024000000000000002
262 8e-04
263 8e-04
264 8e-04
265 0.0024000000000000002
266 8e-04
267 8e-04
268 0.0024000000000000002
269 8e-04
270 8e-04
271 8e-04
272 0.0024000000000000002
273 8e-04
274 8e-04
275 8e-04
276 0.0024000000000000002
277 8e-04
278 8e-04
279 8e-04
280 8e-04
281 8e-04
282 8e-04
283 0.0024000000000000002
284 0.0024000000000000002
285 8e-04
286 8e-04
287 8e-04
288 0.0024000000000000002
289 0.0014
290 8e-04
291 8e-04
292 8e-04
293 0.0024000000000000002
294 0.0014
295 0.0014
296 8e-04
297 8e-04
298 8e-04
299 0.0024000000000000002
300 0.0014
301 0.0014
302 8e-04
303 8e-04
304 8e-04
305 0.0024000000000000002
306 0.0014
307 0.0014
308 8e-04
309 8e-04
310 8e-04
311 0.0024000000000000002
312 0.0014
313 0.0014
314 0.0014
315 8e-04
316 8e-04
317 8e-04
318 0.0024000000000000002
319 0.0014
320 0.0014
321 8e-04
322 8e-04
323 8e-04
324 0.0024000000000000002
325 0.0014
326 0.0014
327 8e-04
328 8e-04
329 8e-04
330 0.0024000000000000002
331 0.0014
332 0.0014
333 8e-04
334 8e-04
335 8e-04
336 0.0024000000000000002
337 0.0014
338 8e-04
339 8e-04
340 8e-04
341 0.0024000000000000002
342 8e-04
343 0.0024000000000000002
344 8e-04
345 8e-04
346 8e-04
347 0.0024000000000000002
348 8e-04
349 8e-04
350 8e-04
351 0.0024000000000000002
352 8e-04
353 8e-04
354 8e-04
355 0.0024000000000000002
356 8e-04
357 8e-04
358 8e-04
359 0.0024000000000000002
360 8e-04
361 8e-04
362 0.0024000000000000002
363 8e-04
364 8e-04
365 8e-04
366 0.0024000000000000002
367 8e-04
368 8e-04
369 8e-04
370 0.0024000000000000002
371 8e-04
372 8e-04
373 8e-04
374 8e-04
375 8e-04
376 8e-04
377 0.0024000000000000002
378 0.0024000000000000002
379 0.0024000000000000002
380 0.0014
381 0.0024000000000000002
382 0.0014
383 0.0014
384 0.0024000000000000002
385 0.0014
386 0.0014
387 0.0024000000000000002
388 0.0014
389 0.0014
390 0.0024000000000000002
391 0.0014
392 0.0014
393 0.0014
394 0.0024000000000000002
395 0.0014
396 0.0014
397 0.0024000000000000002
398 0.0014
399 0.0014
400 0.0024000000000000002
401 0.0014
402 0.0014
403 0.0024000000000000002
404 0.0014
405 0.0024000000000000002
406 0.0024000000000000002
407 0.0024000000000000002
408 0.0024000000000000002
409 0.0024000000000000002
410 0.0024000000000000002
411 0.0024000000000000002
412 0.0024000000000000002
413 0.0024000000000000002
$EndElementData
$ElementData
1
"MaterialID"
1
0
3
0
1
413
1 0
2 0
3 0
4 0
5 0
6 0
7 0
8 0
9 0
10 0
11 0
12 0
13 0
14 0
15 0
16 0
17 0
18 0
19 0
20 0
21 0
22 0
23 0
24 0
25 0
26 0
27 0
28 0
29 0
30 0
31 0
32 0
33 0
34 0
35 0
36 0
37 0
38 0
39 0
40 0
41 0
42 0
43 0
44 0
45 0
46 0
47 0
48 0
49 0
50 0
51 0
52 0
53 0
54 0
55 0
56 0
57 0
58 0
59 0
60 0
61 0
62 0
63 0
64 0
65 0
66 0
67 0
68 0
69 0
70 0
71 0
72 0
73 0
74 0
75 0
76 0
77 0
78 0
79 0
80 0
81 0
82 0
83 0
84 0
85 0
86 0
87 0
88 0
89 0
90 0
91 0
92 0
93 0
94 0
95 0
96 0
97 0
98 0
99 0
100 0
101 0
102 0
103 0
104 0
105 0
106 0
107 0
108 0
109 0
110 0
111 0
112 0
113 0
114 0
115 0
116 0
117 0
118 0
119 0
120 0
121 0
122 0
123 0
124 0
125 0
126 0
127 0
128 0
129 0
130 0
131 0
132 0
133 0
134 0
135 0
136 0
137 0
138 0
139 0
140 0
141 0
142 0
143 0
144 0
145 0
146 0
147 0
148 0
149 0
150 0
151 0
152 0
153 0
154 0
155 0
156 0
157 0
158 0
159 0
160 0
161 0
162 0
163 0
164 0
165 0
166 0
167 0
168 0
169 0
170 0
171 0
172 0
173 0
174 0
175 0
176 0
177 0
178 0
179 0
180 0
181 0
182 0
183 0
184 0
185 0
186 0
187 0
188 0
189 0
190 0
191 0
192 0
193 0
194 0
195 0
196 0
197 0
198 0
199 0
200 0
201 0
202 0
203 0
204 0
205 0
206 0
207 0
208 0
209 0
210 0
211 0
212 0
213 0
214 0
215 0
216 0
217 0
218 0
219 0
220 0
221 0
222 0
223 0
224 0
225 0
226 0
227 0
228 0
229 0
230 0
231 0
232 0
233 0
234 0
235 0
236 0
237 0
238 0
239 0
240 0
241 0
242 0
243 0
244 0
245 0
246 0
247 0
248 0
249 0
250 0
251 0
252 0
253 0
254 0
255 0
256 0
257 0
258 0
259 0
260 0
261 0
262 0
263 0
264 0
265 0
266 0
267 0
268 0
269 0
270 0
271 0
272 0
273 0
274 0
275 0
276 0
277 0
278 0
279 0
280 0
281 0
282 0
283 0
284 0
285 0
286 0
287 0
288 0
289 0
290 0
291 0
292 0
293 0
294 0
295 0
296 0
297 0
298 0
299 0
300 0
301 0
302 0
303 0
304 0
305 0
306 0
307 0
308 0
309 0
310 0
311 0
312 0
313 0
314 0
315 0
316 0
317 0
318 0
319 0
320 0
321 0
322 0
323 0
324 0
325 0
326 0
327 0
328 0
329 0
330 0
331 0
332 0
333 0
334 0
335 0
336 0
337 0
338 0
339 0
340 0
341 0
342 0
343 0
344 0
345 0
346 0
347 0
348 0
349 0
350 0
351 0
352 0
353 0
354 0
355 0
356 0
357 0
358 0
359 0
360 0
361 0
362 0
363 0
364 0
365 0
366 0
367 0
368 0
369 0
370 0
371 0
372 0
373 0
374 0
375 0
376 0
377 0
378 0
379 0
380 0
381 0
382 0
383 0
384 0
385 0
386 0
387 0
388 0
389 0
390 0
391 0
392 0
393 0
394 0
395 0
396 0
397 0
398 0
399 0
400 0
401 0
402 0
403 0
404 0
405 0
406 0
407 0
408 0
409 0
410 0
411 0
412 0
413 0
$EndElementData
