$MeshFormat
4.1 0 8
$EndMeshFormat
$PhysicalNames
1
1 1 "Material:Structural Steel S355 (EN 10025)"
$EndPhysicalNames
$Entities
0 1 0 0
1 -105 0 -105 105 36 105 1 1 0
$EndEntities
$Nodes
1 469 1 469
1 1 0 469
1
2
3
4
5
6
7
8
9
10
11
12
13
14
15
16
17
18
19
20
21
22
23
24
25
26
27
28
29
30
31
32
33
34
35
36
37
38
39
40
41
42
43
44
45
46
47
48
49
50
51
52
53
54
55
56
57
58
59
60
61
62
63
64
65
66
67
68
69
70
71
72
73
74
75
76
77
78
79
80
81
82
83
84
85
86
87
88
89
90
91
92
93
94
95
96
97
98
99
100
101
102
103
104
105
106
107
108
109
110
111
112
113
114
115
116
117
118
119
120
121
122
123
124
125
126
127
128
129
130
131
132
133
134
135
136
137
138
139
140
141
142
143
144
145
146
147
148
149
150
151
152
153
154
155
156
157
158
159
160
161
162
163
164
165
166
167
168
169
170
171
172
173
174
175
176
177
178
179
180
181
182
183
184
185
186
187
188
189
190
191
192
193
194
195
196
197
198
199
200
201
202
203
204
205
206
207
208
209
210
211
212
213
214
215
216
217
218
219
220
221
222
223
224
225
226
227
228
229
230
231
232
233
234
235
236
237
238
239
240
241
242
243
244
245
246
247
248
249
250
251
252
253
254
255
256
257
258
259
260
261
262
263
264
265
266
267
268
269
270
271
272
273
274
275
276
277
278
279
280
281
282
283
284
285
286
287
288
289
290
291
292
293
294
295
296
297
298
299
300
301
302
303
304
305
306
307
308
309
310
311
312
313
314
315
316
317
318
319
320
321
322
323
324
325
326
327
328
329
330
331
332
333
334
335
336
337
338
339
340
341
342
343
344
345
346
347
348
349
350
351
352
353
354
355
356
357
358
359
360
361
362
363
364
365
366
367
368
369
370
371
372
373
374
375
376
377
378
379
380
381
382
383
384
385
386
387
388
389
390
391
392
393
394
395
396
397
398
399
400
401
402
403
404
405
406
407
408
409
410
411
412
413
414
415
416
417
418
419
420
421
422
423
424
425
426
427
428
429
430
431
432
433
434
435
436
437
438
439
440
441
442
443
444
445
446
447
448
449
450
451
452
453
454
455
456
457
458
459
460
461
462
463
464
465
466
467
468
469
0 36 0
9.415598535988861 35.74077225766746 0
4.707799267994432 35.74077225766746 8.154147524001923
-4.707799267994429 35.74077225766746 8.154147524001925
-9.415598535988861 35.74077225766746 1.1530782609155264e-15
-4.707799267994435 35.74077225766746 -8.154147524001921
4.707799267994432 35.74077225766746 -8.154147524001923
18.802670739166103 34.96387441004043 0
16.283590519112174 34.96387441004043 9.40133536958305
9.401335369583053 34.96387441004043 16.283590519112174
1.1513315268070684e-15 34.96387441004043 18.802670739166103
-9.401335369583048 34.96387441004043 16.283590519112174
-16.283590519112174 34.96387441004043 9.40133536958305
-18.802670739166103 34.96387441004043 2.3026630536141367e-15
-16.283590519112177 34.96387441004043 -9.401335369583046
-9.40133536958306 34.96387441004043 -16.28359051911217
-3.4539945804212047e-15 34.96387441004043 -18.802670739166103
9.401335369583053 34.96387441004043 -16.283590519112174
16.28359051911217 34.96387441004043 -9.40133536958306
28.132776702629265 33.6716602157756 0
26.436162669678442 33.6716602157756 9.621976319982295
21.550957262556192 33.6716602157756 18.083400290528225
14.066388351314636 33.6716602157756 24.363699303471957
4.885205407122247 33.6716602157756 27.70537661051052
-4.885205407122244 33.6716602157756 27.70537661051052
-14.066388351314625 33.6716602157756 24.36369930347196
-21.550957262556192 33.6716602157756 18.083400290528232
-26.43616266967844 33.6716602157756 9.6219763199823
-28.132776702629265 33.6716602157756 3.445271494000216e-15
-26.436162669678442 33.6716602157756 -9.621976319982293
-21.550957262556203 33.6716602157756 -18.083400290528214
-14.066388351314645 33.6716602157756 -24.36369930347195
-4.885205407122245 33.6716602157756 -27.70537661051052
4.885205407122235 33.6716602157756 -27.705376610510523
14.066388351314613 33.6716602157756 -24.363699303471968
21.55095726255619 33.6716602157756 -18.083400290528235
26.436162669678442 33.6716602157756 -9.621976319982291
37.37764910945059 31.868044681659683 0
36.104036600788916 31.868044681659683 9.674047450685086
32.36999366252501 31.868044681659683 18.68882455472529
26.429989150103832 31.868044681659683 26.429989150103825
18.688824554725297 31.868044681659683 32.369993662525005
9.674047450685086 31.868044681659683 36.104036600788916
2.288720917077079e-15 31.868044681659683 37.37764910945059
-9.674047450685082 31.868044681659683 36.104036600788916
-18.688824554725286 31.868044681659683 32.36999366252501
-26.429989150103825 31.868044681659683 26.429989150103832
-32.36999366252501 31.868044681659683 18.68882455472529
-36.10403660078891 31.868044681659683 9.674047450685096
-37.37764910945059 31.868044681659683 4.577441834154158e-15
-36.104036600788916 31.868044681659683 -9.674047450685087
-32.36999366252501 31.868044681659683 -18.688824554725283
-26.429989150103843 31.868044681659683 -26.429989150103815
-18.68882455472531 31.868044681659683 -32.369993662525
-9.674047450685082 31.868044681659683 -36.104036600788916
-6.8661627512312366e-15 31.868044681659683 -37.37764910945059
9.67404745068507 31.868044681659683 -36.10403660078892
18.688824554725297 31.868044681659683 -32.369993662525005
26.42998915010382 31.868044681659683 -26.429989150103836
32.369993662525 31.868044681659683 -18.68882455472531
36.10403660078891 31.868044681659683 -9.674047450685118
46.50927887384864 29.558492201357495 0
45.492939542314524 29.558492201357495 9.669822809376564
42.48834045343741 29.558492201357495 18.91702796102543
37.62679700506727 29.558492201357495 27.337468216806116
31.120781974171578 29.558492201357495 34.5631299317857
23.254639436924325 29.558492201357495 40.27821701644783
14.37215756814295 29.558492201357495 44.23295274116227
4.8615434483701385 29.558492201357495 46.25449617783154
-4.861543448370133 29.558492201357495 46.25449617783155
-14.372157568142944 29.558492201357495 44.23295274116228
-23.25463943692431 29.558492201357495 40.27821701644783
-31.120781974171564 29.558492201357495 34.56312993178572
-37.62679700506727 29.558492201357495 27.33746821680612
-42.48834045343741 29.558492201357495 18.917027961025422
-45.492939542314524 29.558492201357495 9.669822809376564
-46.50927887384864 29.558492201357495 2.6350012856134692e-14
-45.492939542314524 29.558492201357495 -9.669822809376553
-42.48834045343741 29.558492201357495 -18.91702796102543
-37.626797005067274 29.558492201357495 -27.337468216806112
-31.12078197417159 29.558492201357495 -34.563129931785696
-23.254639436924343 29.558492201357495 -40.27821701644782
-14.372157568142955 29.558492201357495 -44.23295274116227
-4.861543448370175 29.558492201357495 -46.25449617783154
4.861543448370117 29.558492201357495 -46.25449617783155
14.372157568142939 29.558492201357495 -44.23295274116228
23.254639436924325 29.558492201357495 -40.27821701644783
31.12078197417159 29.558492201357495 -34.563129931785696
37.62679700506727 29.558492201357495 -27.337468216806126
42.48834045343741 29.558492201357495 -18.91702796102543
45.492939542314524 29.558492201357495 -9.669822809376548
55.5 26.75 0
54.656830292177546 26.75 9.637473860514634
52.152940453617916 26.75 18.982117954574612
48.064409910036346 26.75 27.749999999999996
42.51546659310328 26.75 35.67471233760293
35.674712337602934 26.75 42.51546659310328
27.750000000000007 26.75 48.06440991003634
18.98211795457462 26.75 52.15294045361791
9.637473860514637 26.75 54.656830292177546
3.398394867633905e-15 26.75 55.5
-9.637473860514632 26.75 54.656830292177546
-18.9821179545746 26.75 52.152940453617916
-27.74999999999999 26.75 48.064409910036346
-35.674712337602934 26.75 42.51546659310328
-42.51546659310328 26.75 35.67471233760294
-48.06440991003634 26.75 27.750000000000018
-52.15294045361791 26.75 18.982117954574623
-54.656830292177546 26.75 9.63747386051463
-55.5 26.75 6.79678973526781e-15
-54.65683029217755 26.75 -9.637473860514616
-52.152940453617916 26.75 -18.982117954574612
-48.06440991003634 26.75 -27.750000000000007
-42.5154665931033 26.75 -35.67471233760291
-35.67471233760294 26.75 -42.51546659310328
-27.750000000000025 26.75 -48.06440991003633
-18.982117954574605 26.75 -52.152940453617916
-9.637473860514634 26.75 -54.656830292177546
-1.0195184602901715e-14 26.75 -55.5
9.637473860514614 26.75 -54.65683029217755
18.98211795457463 26.75 -52.15294045361791
27.749999999999964 26.75 -48.06440991003637
35.67471233760293 26.75 -42.515466593103284
42.51546659310327 26.75 -35.67471233760295
48.06440991003635 26.75 -27.749999999999982
52.152940453617916 26.75 -18.98211795457461
54.656830292177546 26.75 -9.637473860514637
64.32257340139512 23.45107693477013 0
63.60414340142801 23.45107693477013 9.586782106027249
61.46490194055612 23.45107693477013 18.959411341486405
57.95263613802522 23.45107693477013 27.908518657060903
53.14580420801932 23.45107693477013 36.23419578327549
47.15178283280409 23.45107693477013 43.75046085089783
40.10446854507969 23.45107693477013 50.28941291857141
32.161286700697566 23.45107693477013 55.7049826023974
23.499674856348324 23.45107693477013 59.87619502459866
14.313119107752032 23.45107693477013 62.709872192384246
4.8068319300059095 23.45107693477013 64.14271444033639
-4.806831930005887 23.45107693477013 64.14271444033639
-14.313119107752025 23.45107693477013 62.709872192384246
-23.49967485634833 23.45107693477013 59.87619502459866
-32.161286700697545 23.45107693477013 55.70498260239741
-40.10446854507968 23.45107693477013 50.289412918571415
-47.15178283280409 23.45107693477013 43.75046085089783
-53.14580420801933 23.45107693477013 36.234195783275474
-57.95263613802521 23.45107693477013 27.90851865706091
-61.46490194055611 23.45107693477013 18.95941134148643
-63.60414340142801 23.45107693477013 9.586782106027268
-64.32257340139512 23.45107693477013 7.877243362893922e-15
-63.60414340142802 23.45107693477013 -9.586782106027222
-61.464901940556125 23.45107693477013 -18.959411341486387
-57.95263613802522 23.45107693477013 -27.908518657060895
-53.14580420801932 23.45107693477013 -36.23419578327549
-47.15178283280408 23.45107693477013 -43.75046085089784
-40.1044685450797 23.45107693477013 -50.2894129185714
-32.16128670069759 23.45107693477013 -55.704982602397386
-23.499674856348317 23.45107693477013 -59.876195024598665
-14.31311910775204 23.45107693477013 -62.709872192384246
-4.806831930005931 23.45107693477013 -64.14271444033639
4.806831930005908 23.45107693477013 -64.14271444033639
14.313119107752017 23.45107693477013 -62.709872192384246
23.49967485634835 23.45107693477013 -59.87619502459865
32.16128670069752 23.45107693477013 -55.70498260239743
40.104468545079676 23.45107693477013 -50.289412918571415
47.1517828328041 23.45107693477013 -43.75046085089782
53.14580420801929 23.45107693477013 -36.23419578327553
57.95263613802521 23.45107693477013 -27.908518657060917
61.46490194055611 23.45107693477013 -18.959411341486437
63.604143401428004 23.45107693477013 -9.586782106027304
72.95026942679186 19.671717715714095 0
72.32616975902778 19.671717715714095 9.521920889705987
70.46454927408409 19.671717715714095 18.88091907301388
67.39726081459688 19.671717715714095 27.916859496202783
63.176786536521014 19.671717715714095 36.475134713395924
57.875339924890895 19.671717715714095 44.409310262825
51.58363020107021 19.671717715714095 51.5836302010702
44.409310262825 19.671717715714095 57.875339924890895
36.47513471339594 19.671717715714095 63.17678653652101
27.916859496202786 19.671717715714095 67.39726081459688
18.88091907301388 19.671717715714095 70.46454927408409
9.521920889705996 19.671717715714095 72.32616975902778
4.466915697522884e-15 19.671717715714095 72.95026942679186
-9.521920889705989 19.671717715714095 72.32616975902778
-18.880919073013875 19.671717715714095 70.46454927408409
-27.91685949620276 19.671717715714095 67.39726081459689
-36.47513471339592 19.671717715714095 63.176786536521014
-44.409310262825 19.671717715714095 57.875339924890895
-51.5836302010702 19.671717715714095 51.58363020107021
-57.87533992489089 19.671717715714095 44.40931026282502
-63.176786536521014 19.671717715714095 36.475134713395924
-67.39726081459688 19.671717715714095 27.91685949620279
-70.46454927408408 19.671717715714095 18.880919073013903
-72.32616975902778 19.671717715714095 9.521920889706017
-72.95026942679186 19.671717715714095 8.933831395045768e-15
-72.32616975902778 19.671717715714095 -9.521920889706001
-70.46454927408409 19.671717715714095 -18.88091907301389
-67.39726081459689 19.671717715714095 -27.916859496202772
-63.17678653652103 19.671717715714095 -36.47513471339591
-57.875339924890895 19.671717715714095 -44.409310262825
-51.58363020107023 19.671717715714095 -51.58363020107017
-44.40931026282502 19.671717715714095 -57.87533992489088
-36.47513471339597 19.671717715714095 -63.17678653652099
-27.91685949620276 19.671717715714095 -67.39726081459689
-18.880919073013875 19.671717715714095 -70.46454927408409
-9.52192088970599 19.671717715714095 -72.32616975902778
-1.340074709256865e-14 19.671717715714095 -72.95026942679186
9.521920889705964 19.671717715714095 -72.32616975902778
18.88091907301385 19.671717715714095 -70.46454927408409
27.916859496202736 19.671717715714095 -67.39726081459689
36.47513471339594 19.671717715714095 -63.17678653652101
44.409310262824945 19.671717715714095 -57.87533992489094
51.583630201070186 19.671717715714095 -51.583630201070214
57.87533992489088 19.671717715714095 -44.40931026282502
63.17678653652099 19.671717715714095 -36.47513471339597
67.39726081459689 19.671717715714095 -27.916859496202765
70.46454927408408 19.671717715714095 -18.880919073013942
72.32616975902778 19.671717715714095 -9.521920889705994
81.35694884273869 15.423372624880926 0
80.80684225945704 15.423372624880926 9.444965275490812
79.16396175745201 15.423372624880926 18.762203598316344
76.45052447717819 15.423372624880926 27.825715303732583
72.70322500299335 15.423372624880926 36.512931944232065
67.97273913185398 15.423372624880926 44.70637381753218
62.323038570094944 15.423372624880926 52.29523867801406
55.83052582584377 15.423372624880926 59.17690014701506
48.58300099616545 15.423372624880926 65.25829555854632
40.67847442136935 15.423372624880926 70.45718447220268
32.2238412632916 15.423372624880926 74.70326083403714
23.333435931608253 15.423372624880926 77.93910374533141
14.127485907083257 15.423372624880926 80.12095398174665
4.730485871139363 15.423372624880926 81.21930576176425
-4.730485871139371 15.423372624880926 81.21930576176425
-14.12748590708323 15.423372624880926 80.12095398174665
-23.333435931608246 15.423372624880926 77.93910374533141
-32.22384126329159 15.423372624880926 74.70326083403714
-40.67847442136932 15.423372624880926 70.4571844722027
-48.58300099616544 15.423372624880926 65.25829555854634
-55.83052582584376 15.423372624880926 59.17690014701508
-62.32303857009496 15.423372624880926 52.29523867801405
-67.97273913185397 15.423372624880926 44.706373817532196
-72.70322500299335 15.423372624880926 36.51293194423208
-76.45052447717819 15.423372624880926 27.825715303732597
-79.16396175745201 15.423372624880926 18.762203598316354
-80.80684225945704 15.423372624880926 9.444965275490787
-81.35694884273869 15.423372624880926 9.96335269886549e-15
-80.80684225945704 15.423372624880926 -9.444965275490803
-79.16396175745201 15.423372624880926 -18.762203598316336
-76.4505244771782 15.423372624880926 -27.825715303732544
-72.70322500299335 15.423372624880926 -36.51293194423206
-67.97273913185398 15.423372624880926 -44.70637381753218
-62.323038570094944 15.423372624880926 -52.29523867801406
-55.83052582584377 15.423372624880926 -59.17690014701506
-48.58300099616545 15.423372624880926 -65.25829555854632
-40.67847442136938 15.423372624880926 -70.45718447220267
-32.22384126329159 15.423372624880926 -74.70326083403714
-23.333435931608282 15.423372624880926 -77.93910374533141
-14.12748590708325 15.423372624880926 -80.12095398174665
-4.730485871139408 15.423372624880926 -81.21930576176425
4.730485871139306 15.423372624880926 -81.21930576176425
14.12748590708329 15.423372624880926 -80.12095398174665
23.333435931608253 15.423372624880926 -77.93910374533141
32.22384126329157 15.423372624880926 -74.70326083403714
40.67847442136935 15.423372624880926 -70.45718447220268
48.58300099616543 15.423372624880926 -65.25829555854634
55.83052582584378 15.423372624880926 -59.17690014701506
62.32303857009492 15.423372624880926 -52.29523867801409
67.97273913185394 15.423372624880926 -44.70637381753223
72.70322500299335 15.423372624880926 -36.512931944232086
76.45052447717818 15.423372624880926 -27.825715303732643
79.16396175745203 15.423372624880926 -18.762203598316294
80.80684225945704 15.423372624880926 -9.444965275490796
89.51714202731588 10.71891282553193 0
89.02675775695711 10.71891282553193 9.357089292227606
87.56097769856636 10.71891282553193 18.611660356072747
85.13586124519752 10.71891282553193 27.66231817431644
81.777978480202 10.71891282553193 36.409901845930094
77.52411906983518 10.71891282553193 44.758571013657935
72.42088918797438 10.71891282553193 52.61685591102702
66.52420088912477 10.71891282553193 59.89865952424991
59.89865952424991 10.71891282553193 66.52420088912477
52.61685591102702 10.71891282553193 72.42088918797438
44.75857101365795 10.71891282553193 77.52411906983518
36.40990184593011 10.71891282553193 81.777978480202
27.662318174316443 10.71891282553193 85.13586124519752
18.61166035607274 10.71891282553193 87.56097769856636
9.357089292227606 10.71891282553193 89.02675775695711
2.5358142508101843e-14 10.71891282553193 89.51714202731588
-9.357089292227595 10.71891282553193 89.02675775695712
-18.61166035607275 10.71891282553193 87.56097769856636
-27.662318174316436 10.71891282553193 85.13586124519753
-36.40990184593008 10.71891282553193 81.777978480202
-44.75857101365792 10.71891282553193 77.52411906983518
-52.61685591102701 10.71891282553193 72.42088918797438
-59.89865952424988 10.71891282553193 66.5242008891248
-66.52420088912476 10.71891282553193 59.89865952424992
-72.42088918797438 10.71891282553193 52.61685591102703
-77.52411906983518 10.71891282553193 44.758571013657935
-81.777978480202 10.71891282553193 36.40990184593008
-85.13586124519752 10.71891282553193 27.66231817431645
-87.56097769856636 10.71891282553193 18.611660356072747
-89.02675775695712 10.71891282553193 9.357089292227592
-89.51714202731588 10.71891282553193 5.0716285016203686e-14
-89.02675775695712 10.71891282553193 -9.35708929222757
-87.56097769856636 10.71891282553193 -18.611660356072726
-85.13586124519753 10.71891282553193 -27.66231817431643
-81.777978480202 10.71891282553193 -36.409901845930094
-77.5241190698352 10.71891282553193 -44.75857101365792
-72.4208891879744 10.71891282553193 -52.61685591102701
-66.52420088912477 10.71891282553193 -59.89865952424991
-59.89865952424993 10.71891282553193 -66.52420088912476
-52.61685591102703 10.71891282553193 -72.42088918797438
-44.758571013657985 10.71891282553193 -77.52411906983515
-36.40990184593016 10.71891282553193 -81.77797848020197
-27.662318174316454 10.71891282553193 -85.13586124519752
-18.61166035607279 10.71891282553193 -87.56097769856635
-9.357089292227675 10.71891282553193 -89.02675775695711
-1.644403221788571e-14 10.71891282553193 -89.51714202731588
9.357089292227563 10.71891282553193 -89.02675775695712
18.611660356072758 10.71891282553193 -87.56097769856635
27.662318174316425 10.71891282553193 -85.13586124519753
36.40990184593006 10.71891282553193 -81.77797848020201
44.75857101365795 10.71891282553193 -77.52411906983518
52.616855911026995 10.71891282553193 -72.4208891879744
59.89865952424993 10.71891282553193 -66.52420088912476
66.52420088912477 10.71891282553193 -59.8986595242499
72.42088918797438 10.71891282553193 -52.61685591102704
77.5241190698352 10.71891282553193 -44.758571013657914
81.777978480202 10.71891282553193 -36.409901845930094
85.13586124519752 10.71891282553193 -27.66231817431646
87.56097769856636 10.71891282553193 -18.61166035607272
89.02675775695711 10.71891282553193 -9.357089292227602
97.40612613516195 5.572591366522403 0
96.96506365416606 5.572591366522403 9.259040943996633
95.64587054130646 5.572591366522403 18.43423057940647
93.46049361369535 5.572591366522403 27.442476968077983
90.42872398320316 5.572591366522403 36.2022000357539
86.57801782508474 5.572591366522403 44.634070373856666
81.94324773060464 5.572591366522403 52.66172765889701
76.56638689545036 5.572591366522403 60.21247218338811
70.49612900397257 5.572591366522403 67.21792323565447
63.78744725163917 5.572591366522403 73.61463836614584
56.50109649926436 5.572591366522403 79.34468793208464
48.70306306758099 5.572591366522403 84.35617971728159
40.463967154901695 5.572591366522403 88.60372887608126
31.858423289667286 5.572591366522403 92.04886894555231
22.964364609722786 5.572591366522403 94.66040020373246
13.862337087752806 5.572591366522403 96.414672219142
4.634770094480111 5.572591366522403 97.29579803275367
-4.634770094480099 5.572591366522403 97.29579803275367
-13.862337087752774 5.572591366522403 96.41467221914202
-22.964364609722754 5.572591366522403 94.66040020373246
-31.858423289667297 5.572591366522403 92.04886894555231
-40.4639671549017 5.572591366522403 88.60372887608126
-48.703063067580956 5.572591366522403 84.3561797172816
-56.50109649926435 5.572591366522403 79.34468793208465
-63.787447251639165 5.572591366522403 73.61463836614584
-70.49612900397257 5.572591366522403 67.21792323565447
-76.56638689545036 5.572591366522403 60.212472183388094
-81.94324773060464 5.572591366522403 52.66172765889703
-86.57801782508473 5.572591366522403 44.63407037385668
-90.42872398320316 5.572591366522403 36.202200035753904
-93.46049361369535 5.572591366522403 27.442476968078022
-95.64587054130645 5.572591366522403 18.434230579406503
-96.96506365416606 5.572591366522403 9.259040943996654
-97.40612613516195 5.572591366522403 1.1928810058876944e-14
-96.96506365416606 5.572591366522403 -9.25904094399663
-95.64587054130648 5.572591366522403 -18.43423057940644
-93.46049361369536 5.572591366522403 -27.44247696807796
-90.42872398320316 5.572591366522403 -36.20220003575388
-86.57801782508477 5.572591366522403 -44.634070373856616
-81.94324773060467 5.572591366522403 -52.66172765889697
-76.56638689545036 5.572591366522403 -60.212472183388115
-70.49612900397258 5.572591366522403 -67.21792323565445
-63.78744725163915 5.572591366522403 -73.61463836614585
-56.50109649926437 5.572591366522403 -79.34468793208463
-48.70306306758102 5.572591366522403 -84.35617971728156
-40.46396715490169 5.572591366522403 -88.60372887608128
-31.858423289667318 5.572591366522403 -92.0488689455523
-22.964364609722757 5.572591366522403 -94.66040020373246
-13.862337087752795 5.572591366522403 -96.414672219142
-4.634770094480145 5.572591366522403 -97.29579803275367
4.634770094480109 5.572591366522403 -97.29579803275367
13.86233708775276 5.572591366522403 -96.41467221914202
22.964364609722807 5.572591366522403 -94.66040020373246
31.858423289667286 5.572591366522403 -92.04886894555233
40.46396715490165 5.572591366522403 -88.60372887608129
48.70306306758099 5.572591366522403 -84.35617971728159
56.501096499264335 5.572591366522403 -79.34468793208465
63.78744725163912 5.572591366522403 -73.61463836614588
70.49612900397257 5.572591366522403 -67.21792323565448
76.56638689545034 5.572591366522403 -60.21247218338814
81.9432477306046 5.572591366522403 -52.66172765889707
86.57801782508473 5.572591366522403 -44.63407037385669
90.42872398320313 5.572591366522403 -36.202200035753954
93.46049361369535 5.572591366522403 -27.442476968077994
95.64587054130645 5.572591366522403 -18.434230579406517
96.96506365416604 5.572591366522403 -9.259040943996709
105 0 0
104.60044329963328 0 9.151352988504108
103.40481406628184 0 18.233058655027683
101.42221176035217 0 27.175999735764677
98.66772518252039 0 35.912115049195215
95.16231763884824 0 44.37491748277344
90.93266739736606 0 52.49999999999999
86.01096465034414 0 60.225525816859836
80.4346665274927 0 67.49269901708662
74.24621202458749 0 74.24621202458748
67.49269901708664 0 80.4346665274927
60.22552581685985 0 86.01096465034412
52.500000000000014 0 90.93266739736605
44.37491748277344 0 95.16231763884824
35.91211504919523 0 98.66772518252037
27.1759997357647 0 101.42221176035216
18.233058655027694 0 103.40481406628184
9.151352988504105 0 104.60044329963328
6.429395695523604e-15 0 105
-9.151352988504092 0 104.60044329963328
-18.233058655027683 0 103.40481406628184
-27.17599973576469 0 101.42221176035217
-35.912115049195194 0 98.66772518252039
-44.37491748277343 0 95.16231763884825
-52.49999999999998 0 90.93266739736606
-60.22552581685985 0 86.01096465034412
-67.49269901708664 0 80.4346665274927
-74.24621202458748 0 74.24621202458749
-80.43466652749268 0 67.49269901708665
-86.01096465034415 0 60.22552581685982
-90.93266739736605 0 52.500000000000036
-95.16231763884824 0 44.37491748277345
-98.66772518252037 0 35.91211504919523
-101.42221176035217 0 27.17599973576466
-103.40481406628184 0 18.23305865502768
-104.60044329963328 0 9.15135298850411
-105 0 1.2858791391047208e-14
-104.60044329963328 0 -9.151352988504085
-103.40481406628186 0 -18.23305865502765
-101.42221176035218 0 -27.175999735764638
-98.66772518252039 0 -35.91211504919521
-95.16231763884828 0 -44.374917482773384
-90.93266739736605 0 -52.500000000000014
-86.01096465034416 0 -60.225525816859815
-80.43466652749272 0 -67.4926990170866
-74.2462120245875 0 -74.24621202458748
-67.49269901708665 0 -80.43466652749268
-60.2255258168598 0 -86.01096465034418
-52.50000000000005 0 -90.93266739736603
-44.37491748277349 0 -95.16231763884822
-35.9121150491952 0 -98.66772518252039
-27.175999735764666 0 -101.42221176035217
-18.233058655027683 0 -103.40481406628184
-9.151352988504117 0 -104.60044329963328
-1.928818708657081e-14 0 -105
9.151352988504078 0 -104.60044329963328
18.233058655027648 0 -103.40481406628186
27.17599973576463 0 -101.42221176035218
35.91211504919524 0 -98.66772518252037
44.37491748277338 0 -95.16231763884828
52.49999999999993 0 -90.9326673973661
60.225525816859836 0 -86.01096465034414
67.49269901708662 0 -80.43466652749271
74.24621202458748 0 -74.2462120245875
80.43466652749267 0 -67.49269901708665
86.01096465034412 0 -60.22552581685988
90.93266739736607 0 -52.499999999999964
95.16231763884822 0 -44.3749174827735
98.66772518252039 0 -35.9121150491952
101.42221176035217 0 -27.175999735764673
103.40481406628184 0 -18.23305865502769
104.60044329963328 0 -9.151352988504124
$EndNodes
$Elements
1 1332 1 1332
1 1 1 1332
1 1 2
2 1 3
3 1 4
4 1 5
5 1 6
6 1 7
7 2 3
8 2 7
9 2 8
10 2 9
11 2 19
12 3 4
13 3 9
14 3 10
15 3 11
16 4 5
17 4 11
18 4 12
19 4 13
20 5 6
21 5 13
22 5 14
23 5 15
24 6 7
25 6 15
26 6 16
27 6 17
28 7 17
29 7 18
30 7 19
31 8 9
32 8 19
33 8 20
34 8 21
35 8 37
36 9 10
37 9 21
38 9 22
39 10 11
40 10 22
41 10 23
42 10 24
43 11 12
44 11 24
45 11 25
46 12 13
47 12 25
48 12 26
49 12 27
50 13 14
51 13 27
52 13 28
53 14 15
54 14 28
55 14 29
56 14 30
57 15 16
58 15 30
59 15 31
60 16 17
61 16 31
62 16 32
63 16 33
64 17 18
65 17 33
66 17 34
67 18 19
68 18 34
69 18 35
70 18 36
71 19 36
72 19 37
73 20 21
74 20 37
75 20 38
76 20 39
77 20 61
78 21 22
79 21 39
80 21 40
81 22 23
82 22 40
83 22 41
84 23 24
85 23 41
86 23 42
87 23 43
88 24 25
89 24 43
90 24 44
91 25 26
92 25 44
93 25 45
94 26 27
95 26 45
96 26 46
97 26 47
98 27 28
99 27 47
100 27 48
101 28 29
102 28 48
103 28 49
104 29 30
105 29 49
106 29 50
107 29 51
108 30 31
109 30 51
110 30 52
111 31 32
112 31 52
113 31 53
114 32 33
115 32 53
116 32 54
117 32 55
118 33 34
119 33 55
120 33 56
121 34 35
122 34 56
123 34 57
124 35 36
125 35 57
126 35 58
127 35 59
128 36 37
129 36 59
130 36 60
131 37 60
132 37 61
133 38 39
134 38 61
135 38 62
136 38 63
137 38 91
138 39 40
139 39 63
140 39 64
141 40 41
142 40 64
143 40 65
144 41 42
145 41 65
146 41 66
147 42 43
148 42 66
149 42 67
150 42 68
151 43 44
152 43 68
153 43 69
154 44 45
155 44 69
156 44 70
157 45 46
158 45 70
159 45 71
160 46 47
161 46 71
162 46 72
163 46 73
164 47 48
165 47 73
166 47 74
167 48 49
168 48 74
169 48 75
170 49 50
171 49 75
172 49 76
173 50 51
174 50 76
175 50 77
176 50 78
177 51 52
178 51 78
179 51 79
180 52 53
181 52 79
182 52 80
183 53 54
184 53 80
185 53 81
186 54 55
187 54 81
188 54 82
189 54 83
190 55 56
191 55 83
192 55 84
193 56 57
194 56 84
195 56 85
196 57 58
197 57 85
198 57 86
199 58 59
200 58 86
201 58 87
202 58 88
203 59 60
204 59 88
205 59 89
206 60 61
207 60 89
208 60 90
209 61 90
210 61 91
211 62 63
212 62 91
213 62 92
214 62 93
215 62 127
216 63 64
217 63 93
218 63 94
219 64 65
220 64 94
221 64 95
222 65 66
223 65 95
224 65 96
225 66 67
226 66 96
227 66 97
228 67 68
229 67 97
230 67 98
231 67 99
232 68 69
233 68 99
234 68 100
235 69 70
236 69 100
237 69 101
238 70 71
239 70 101
240 70 102
241 71 72
242 71 102
243 71 103
244 72 73
245 72 103
246 72 104
247 72 105
248 73 74
249 73 105
250 73 106
251 74 75
252 74 106
253 74 107
254 75 76
255 75 107
256 75 108
257 76 77
258 76 108
259 76 109
260 77 78
261 77 109
262 77 110
263 77 111
264 78 79
265 78 111
266 78 112
267 79 80
268 79 112
269 79 113
270 80 81
271 80 113
272 80 114
273 81 82
274 81 114
275 81 115
276 82 83
277 82 115
278 82 116
279 82 117
280 83 84
281 83 117
282 83 118
283 84 85
284 84 118
285 84 119
286 85 86
287 85 119
288 85 120
289 86 87
290 86 120
291 86 121
292 87 88
293 87 121
294 87 122
295 87 123
296 88 89
297 88 123
298 88 124
299 89 90
300 89 124
301 89 125
302 90 91
303 90 125
304 90 126
305 91 126
306 91 127
307 92 93
308 92 127
309 92 128
310 92 129
311 92 169
312 93 94
313 93 129
314 93 130
315 94 95
316 94 130
317 94 131
318 95 96
319 95 131
320 95 132
321 96 97
322 96 132
323 96 133
324 97 98
325 97 133
326 97 134
327 98 99
328 98 134
329 98 135
330 98 136
331 99 100
332 99 136
333 99 137
334 100 101
335 100 137
336 100 138
337 101 102
338 101 138
339 101 139
340 102 103
341 102 139
342 102 140
343 103 104
344 103 140
345 103 141
346 104 105
347 104 141
348 104 142
349 104 143
350 105 106
351 105 143
352 105 144
353 106 107
354 106 144
355 106 145
356 107 108
357 107 145
358 107 146
359 108 109
360 108 146
361 108 147
362 109 110
363 109 147
364 109 148
365 110 111
366 110 148
367 110 149
368 110 150
369 111 112
370 111 150
371 111 151
372 112 113
373 112 151
374 112 152
375 113 114
376 113 152
377 113 153
378 114 115
379 114 153
380 114 154
381 115 116
382 115 154
383 115 155
384 116 117
385 116 155
386 116 156
387 116 157
388 117 118
389 117 157
390 117 158
391 118 119
392 118 158
393 118 159
394 119 120
395 119 159
396 119 160
397 120 121
398 120 160
399 120 161
400 121 122
401 121 161
402 121 162
403 122 123
404 122 162
405 122 163
406 122 164
407 123 124
408 123 164
409 123 165
410 124 125
411 124 165
412 124 166
413 125 126
414 125 166
415 125 167
416 126 127
417 126 167
418 126 168
419 127 168
420 127 169
421 128 129
422 128 169
423 128 170
424 128 171
425 128 217
426 129 130
427 129 171
428 129 172
429 130 131
430 130 172
431 130 173
432 131 132
433 131 173
434 131 174
435 132 133
436 132 174
437 132 175
438 133 134
439 133 175
440 133 176
441 134 135
442 134 176
443 134 177
444 135 136
445 135 177
446 135 178
447 135 179
448 136 137
449 136 179
450 136 180
451 137 138
452 137 180
453 137 181
454 138 139
455 138 181
456 138 182
457 139 140
458 139 182
459 139 183
460 140 141
461 140 183
462 140 184
463 141 142
464 141 184
465 141 185
466 142 143
467 142 185
468 142 186
469 142 187
470 143 144
471 143 187
472 143 188
473 144 145
474 144 188
475 144 189
476 145 146
477 145 189
478 145 190
479 146 147
480 146 190
481 146 191
482 147 148
483 147 191
484 147 192
485 148 149
486 148 192
487 148 193
488 149 150
489 149 193
490 149 194
491 149 195
492 150 151
493 150 195
494 150 196
495 151 152
496 151 196
497 151 197
498 152 153
499 152 197
500 152 198
501 153 154
502 153 198
503 153 199
504 154 155
505 154 199
506 154 200
507 155 156
508 155 200
509 155 201
510 156 157
511 156 201
512 156 202
513 156 203
514 157 158
515 157 203
516 157 204
517 158 159
518 158 204
519 158 205
520 159 160
521 159 205
522 159 206
523 160 161
524 160 206
525 160 207
526 161 162
527 161 207
528 161 208
529 162 163
530 162 208
531 162 209
532 163 164
533 163 209
534 163 210
535 163 211
536 164 165
537 164 211
538 164 212
539 165 166
540 165 212
541 165 213
542 166 167
543 166 213
544 166 214
545 167 168
546 167 214
547 167 215
548 168 169
549 168 215
550 168 216
551 169 216
552 169 217
553 170 171
554 170 217
555 170 218
556 170 219
557 170 271
558 171 172
559 171 219
560 171 220
561 172 173
562 172 220
563 172 221
564 173 174
565 173 221
566 173 222
567 174 175
568 174 222
569 174 223
570 175 176
571 175 223
572 175 224
573 176 177
574 176 224
575 176 225
576 177 178
577 177 225
578 177 226
579 178 179
580 178 226
581 178 227
582 178 228
583 179 180
584 179 228
585 179 229
586 180 181
587 180 229
588 180 230
589 181 182
590 181 230
591 181 231
592 182 183
593 182 231
594 182 232
595 183 184
596 183 232
597 183 233
598 184 185
599 184 233
600 184 234
601 185 186
602 185 234
603 185 235
604 186 187
605 186 235
606 186 236
607 186 237
608 187 188
609 187 237
610 187 238
611 188 189
612 188 238
613 188 239
614 189 190
615 189 239
616 189 240
617 190 191
618 190 240
619 190 241
620 191 192
621 191 241
622 191 242
623 192 193
624 192 242
625 192 243
626 193 194
627 193 243
628 193 244
629 194 195
630 194 244
631 194 245
632 194 246
633 195 196
634 195 246
635 195 247
636 196 197
637 196 247
638 196 248
639 197 198
640 197 248
641 197 249
642 198 199
643 198 249
644 198 250
645 199 200
646 199 250
647 199 251
648 200 201
649 200 251
650 200 252
651 201 202
652 201 252
653 201 253
654 202 203
655 202 253
656 202 254
657 202 255
658 203 204
659 203 255
660 203 256
661 204 205
662 204 256
663 204 257
664 205 206
665 205 257
666 205 258
667 206 207
668 206 258
669 206 259
670 207 208
671 207 259
672 207 260
673 208 209
674 208 260
675 208 261
676 209 210
677 209 261
678 209 262
679 210 211
680 210 262
681 210 263
682 210 264
683 211 212
684 211 264
685 211 265
686 212 213
687 212 265
688 212 266
689 213 214
690 213 266
691 213 267
692 214 215
693 214 267
694 214 268
695 215 216
696 215 268
697 215 269
698 216 217
699 216 269
700 216 270
701 217 270
702 217 271
703 218 219
704 218 271
705 218 272
706 218 273
707 218 331
708 219 220
709 219 273
710 219 274
711 220 221
712 220 274
713 220 275
714 221 222
715 221 275
716 221 276
717 222 223
718 222 276
719 222 277
720 223 224
721 223 277
722 223 278
723 224 225
724 224 278
725 224 279
726 225 226
727 225 279
728 225 280
729 226 227
730 226 280
731 226 281
732 227 228
733 227 281
734 227 282
735 227 283
736 228 229
737 228 283
738 228 284
739 229 230
740 229 284
741 229 285
742 230 231
743 230 285
744 230 286
745 231 232
746 231 286
747 231 287
748 232 233
749 232 287
750 232 288
751 233 234
752 233 288
753 233 289
754 234 235
755 234 289
756 234 290
757 235 236
758 235 290
759 235 291
760 236 237
761 236 291
762 236 292
763 236 293
764 237 238
765 237 293
766 237 294
767 238 239
768 238 294
769 238 295
770 239 240
771 239 295
772 239 296
773 240 241
774 240 296
775 240 297
776 241 242
777 241 297
778 241 298
779 242 243
780 242 298
781 242 299
782 243 244
783 243 299
784 243 300
785 244 245
786 244 300
787 244 301
788 245 246
789 245 301
790 245 302
791 245 303
792 246 247
793 246 303
794 246 304
795 247 248
796 247 304
797 247 305
798 248 249
799 248 305
800 248 306
801 249 250
802 249 306
803 249 307
804 250 251
805 250 307
806 250 308
807 251 252
808 251 308
809 251 309
810 252 253
811 252 309
812 252 310
813 253 254
814 253 310
815 253 311
816 254 255
817 254 311
818 254 312
819 254 313
820 255 256
821 255 313
822 255 314
823 256 257
824 256 314
825 256 315
826 257 258
827 257 315
828 257 316
829 258 259
830 258 316
831 258 317
832 259 260
833 259 317
834 259 318
835 260 261
836 260 318
837 260 319
838 261 262
839 261 319
840 261 320
841 262 263
842 262 320
843 262 321
844 263 264
845 263 321
846 263 322
847 263 323
848 264 265
849 264 323
850 264 324
851 265 266
852 265 324
853 265 325
854 266 267
855 266 325
856 266 326
857 267 268
858 267 326
859 267 327
860 268 269
861 268 327
862 268 328
863 269 270
864 269 328
865 269 329
866 270 271
867 270 329
868 270 330
869 271 330
870 271 331
871 272 273
872 272 331
873 272 332
874 272 333
875 272 397
876 273 274
877 273 333
878 273 334
879 274 275
880 274 334
881 274 335
882 275 276
883 275 335
884 275 336
885 276 277
886 276 336
887 276 337
888 277 278
889 277 337
890 277 338
891 278 279
892 278 338
893 278 339
894 279 280
895 279 339
896 279 340
897 280 281
898 280 340
899 280 341
900 281 282
901 281 341
902 281 342
903 282 283
904 282 342
905 282 343
906 282 344
907 283 284
908 283 344
909 283 345
910 284 285
911 284 345
912 284 346
913 285 286
914 285 346
915 285 347
916 286 287
917 286 347
918 286 348
919 287 288
920 287 348
921 287 349
922 288 289
923 288 349
924 288 350
925 289 290
926 289 350
927 289 351
928 290 291
929 290 351
930 290 352
931 291 292
932 291 352
933 291 353
934 292 293
935 292 353
936 292 354
937 292 355
938 293 294
939 293 355
940 293 356
941 294 295
942 294 356
943 294 357
944 295 296
945 295 357
946 295 358
947 296 297
948 296 358
949 296 359
950 297 298
951 297 359
952 297 360
953 298 299
954 298 360
955 298 361
956 299 300
957 299 361
958 299 362
959 300 301
960 300 362
961 300 363
962 301 302
963 301 363
964 301 364
965 302 303
966 302 364
967 302 365
968 302 366
969 303 304
970 303 366
971 303 367
972 304 305
973 304 367
974 304 368
975 305 306
976 305 368
977 305 369
978 306 307
979 306 369
980 306 370
981 307 308
982 307 370
983 307 371
984 308 309
985 308 371
986 308 372
987 309 310
988 309 372
989 309 373
990 310 311
991 310 373
992 310 374
993 311 312
994 311 374
995 311 375
996 312 313
997 312 375
998 312 376
999 312 377
1000 313 314
1001 313 377
1002 313 378
1003 314 315
1004 314 378
1005 314 379
1006 315 316
1007 315 379
1008 315 380
1009 316 317
1010 316 380
1011 316 381
1012 317 318
1013 317 381
1014 317 382
1015 318 319
1016 318 382
1017 318 383
1018 319 320
1019 319 383
1020 319 384
1021 320 321
1022 320 384
1023 320 385
1024 321 322
1025 321 385
1026 321 386
1027 322 323
1028 322 386
1029 322 387
1030 322 388
1031 323 324
1032 323 388
1033 323 389
1034 324 325
1035 324 389
1036 324 390
1037 325 326
1038 325 390
1039 325 391
1040 326 327
1041 326 391
1042 326 392
1043 327 328
1044 327 392
1045 327 393
1046 328 329
1047 328 393
1048 328 394
1049 329 330
1050 329 394
1051 329 395
1052 330 331
1053 330 395
1054 330 396
1055 331 396
1056 331 397
1057 332 333
1058 332 397
1059 332 398
1060 332 399
1061 332 469
1062 333 334
1063 333 399
1064 333 400
1065 334 335
1066 334 400
1067 334 401
1068 335 336
1069 335 401
1070 335 402
1071 336 337
1072 336 402
1073 336 403
1074 337 338
1075 337 403
1076 337 404
1077 338 339
1078 338 404
1079 338 405
1080 339 340
1081 339 405
1082 339 406
1083 340 341
1084 340 406
1085 340 407
1086 341 342
1087 341 407
1088 341 408
1089 342 343
1090 342 408
1091 342 409
1092 343 344
1093 343 409
1094 343 410
1095 343 411
1096 344 345
1097 344 411
1098 344 412
1099 345 346
1100 345 412
1101 345 413
1102 346 347
1103 346 413
1104 346 414
1105 347 348
1106 347 414
1107 347 415
1108 348 349
1109 348 415
1110 348 416
1111 349 350
1112 349 416
1113 349 417
1114 350 351
1115 350 417
1116 350 418
1117 351 352
1118 351 418
1119 351 419
1120 352 353
1121 352 419
1122 352 420
1123 353 354
1124 353 420
1125 353 421
1126 354 355
1127 354 421
1128 354 422
1129 354 423
1130 355 356
1131 355 423
1132 355 424
1133 356 357
1134 356 424
1135 356 425
1136 357 358
1137 357 425
1138 357 426
1139 358 359
1140 358 426
1141 358 427
1142 359 360
1143 359 427
1144 359 428
1145 360 361
1146 360 428
1147 360 429
1148 361 362
1149 361 429
1150 361 430
1151 362 363
1152 362 430
1153 362 431
1154 363 364
1155 363 431
1156 363 432
1157 364 365
1158 364 432
1159 364 433
1160 365 366
1161 365 433
1162 365 434
1163 365 435
1164 366 367
1165 366 435
1166 366 436
1167 367 368
1168 367 436
1169 367 437
1170 368 369
1171 368 437
1172 368 438
1173 369 370
1174 369 438
1175 369 439
1176 370 371
1177 370 439
1178 370 440
1179 371 372
1180 371 440
1181 371 441
1182 372 373
1183 372 441
1184 372 442
1185 373 374
1186 373 442
1187 373 443
1188 374 375
1189 374 443
1190 374 444
1191 375 376
1192 375 444
1193 375 445
1194 376 377
1195 376 445
1196 376 446
1197 376 447
1198 377 378
1199 377 447
1200 377 448
1201 378 379
1202 378 448
1203 378 449
1204 379 380
1205 379 449
1206 379 450
1207 380 381
1208 380 450
1209 380 451
1210 381 382
1211 381 451
1212 381 452
1213 382 383
1214 382 452
1215 382 453
1216 383 384
1217 383 453
1218 383 454
1219 384 385
1220 384 454
1221 384 455
1222 385 386
1223 385 455
1224 385 456
1225 386 387
1226 386 456
1227 386 457
1228 387 388
1229 387 457
1230 387 458
1231 387 459
1232 388 389
1233 388 459
1234 388 460
1235 389 390
1236 389 460
1237 389 461
1238 390 391
1239 390 461
1240 390 462
1241 391 392
1242 391 462
1243 391 463
1244 392 393
1245 392 463
1246 392 464
1247 393 394
1248 393 464
1249 393 465
1250 394 395
1251 394 465
1252 394 466
1253 395 396
1254 395 466
1255 395 467
1256 396 397
1257 396 467
1258 396 468
1259 397 468
1260 397 469
1261 398 399
1262 398 469
1263 399 400
1264 400 401
1265 401 402
1266 402 403
1267 403 404
1268 404 405
1269 405 406
1270 406 407
1271 407 408
1272 408 409
1273 409 410
1274 410 411
1275 411 412
1276 412 413
1277 413 414
1278 414 415
1279 415 416
1280 416 417
1281 417 418
1282 418 419
1283 419 420
1284 420 421
1285 421 422
1286 422 423
1287 423 424
1288 424 425
1289 425 426
1290 426 427
1291 427 428
1292 428 429
1293 429 430
1294 430 431
1295 431 432
1296 432 433
1297 433 434
1298 434 435
1299 435 436
1300 436 437
1301 437 438
1302 438 439
1303 439 440
1304 440 441
1305 441 442
1306 442 443
1307 443 444
1308 444 445
1309 445 446
1310 446 447
1311 447 448
1312 448 449
1313 449 450
1314 450 451
1315 451 452
1316 452 453
1317 453 454
1318 454 455
1319 455 456
1320 456 457
1321 457 458
1322 458 459
1323 459 460
1324 460 461
1325 461 462
1326 462 463
1327 463 464
1328 464 465
1329 465 466
1330 466 467
1331 467 468
1332 468 469
$EndElements
$NodeData
1
"Fixity"
1
0
3
0
3
469
1 0 0 0
2 0 0 0
3 0 0 0
4 0 0 0
5 0 0 0
6 0 0 0
7 0 0 0
8 0 0 0
9 0 0 0
10 0 0 0
11 0 0 0
12 0 0 0
13 0 0 0
14 0 0 0
15 0 0 0
16 0 0 0
17 0 0 0
18 0 0 0
19 0 0 0
20 0 0 0
21 0 0 0
22 0 0 0
23 0 0 0
24 0 0 0
25 0 0 0
26 0 0 0
27 0 0 0
28 0 0 0
29 0 0 0
30 0 0 0
31 0 0 0
32 0 0 0
33 0 0 0
34 0 0 0
35 0 0 0
36 0 0 0
37 0 0 0
38 0 0 0
39 0 0 0
40 0 0 0
41 0 0 0
42 0 0 0
43 0 0 0
44 0 0 0
45 0 0 0
46 0 0 0
47 0 0 0
48 0 0 0
49 0 0 0
50 0 0 0
51 0 0 0
52 0 0 0
53 0 0 0
54 0 0 0
55 0 0 0
56 0 0 0
57 0 0 0
58 0 0 0
59 0 0 0
60 0 0 0
61 0 0 0
62 0 0 0
63 0 0 0
64 0 0 0
65 0 0 0
66 0 0 0
67 0 0 0
68 0 0 0
69 0 0 0
70 0 0 0
71 0 0 0
72 0 0 0
73 0 0 0
74 0 0 0
75 0 0 0
76 0 0 0
77 0 0 0
78 0 0 0
79 0 0 0
80 0 0 0
81 0 0 0
82 0 0 0
83 0 0 0
84 0 0 0
85 0 0 0
86 0 0 0
87 0 0 0
88 0 0 0
89 0 0 0
90 0 0 0
91 0 0 0
92 0 0 0
93 0 0 0
94 0 0 0
95 0 0 0
96 0 0 0
97 0 0 0
98 0 0 0
99 0 0 0
100 0 0 0
101 0 0 0
102 0 0 0
103 0 0 0
104 0 0 0
105 0 0 0
106 0 0 0
107 0 0 0
108 0 0 0
109 0 0 0
110 0 0 0
111 0 0 0
112 0 0 0
113 0 0 0
114 0 0 0
115 0 0 0
116 0 0 0
117 0 0 0
118 0 0 0
119 0 0 0
120 0 0 0
121 0 0 0
122 0 0 0
123 0 0 0
124 0 0 0
125 0 0 0
126 0 0 0
127 0 0 0
128 0 0 0
129 0 0 0
130 0 0 0
131 0 0 0
132 0 0 0
133 0 0 0
134 0 0 0
135 0 0 0
136 0 0 0
137 0 0 0
138 0 0 0
139 0 0 0
140 0 0 0
141 0 0 0
142 0 0 0
143 0 0 0
144 0 0 0
145 0 0 0
146 0 0 0
147 0 0 0
148 0 0 0
149 0 0 0
150 0 0 0
151 0 0 0
152 0 0 0
153 0 0 0
154 0 0 0
155 0 0 0
156 0 0 0
157 0 0 0
158 0 0 0
159 0 0 0
160 0 0 0
161 0 0 0
162 0 0 0
163 0 0 0
164 0 0 0
165 0 0 0
166 0 0 0
167 0 0 0
168 0 0 0
169 0 0 0
170 0 0 0
171 0 0 0
172 0 0 0
173 0 0 0
174 0 0 0
175 0 0 0
176 0 0 0
177 0 0 0
178 0 0 0
179 0 0 0
180 0 0 0
181 0 0 0
182 0 0 0
183 0 0 0
184 0 0 0
185 0 0 0
186 0 0 0
187 0 0 0
188 0 0 0
189 0 0 0
190 0 0 0
191 0 0 0
192 0 0 0
193 0 0 0
194 0 0 0
195 0 0 0
196 0 0 0
197 0 0 0
198 0 0 0
199 0 0 0
200 0 0 0
201 0 0 0
202 0 0 0
203 0 0 0
204 0 0 0
205 0 0 0
206 0 0 0
207 0 0 0
208 0 0 0
209 0 0 0
210 0 0 0
211 0 0 0
212 0 0 0
213 0 0 0
214 0 0 0
215 0 0 0
216 0 0 0
217 0 0 0
218 0 0 0
219 0 0 0
220 0 0 0
221 0 0 0
222 0 0 0
223 0 0 0
224 0 0 0
225 0 0 0
226 0 0 0
227 0 0 0
228 0 0 0
229 0 0 0
230 0 0 0
231 0 0 0
232 0 0 0
233 0 0 0
234 0 0 0
235 0 0 0
236 0 0 0
237 0 0 0
238 0 0 0
239 0 0 0
240 0 0 0
241 0 0 0
242 0 0 0
243 0 0 0
244 0 0 0
245 0 0 0
246 0 0 0
247 0 0 0
248 0 0 0
249 0 0 0
250 0 0 0
251 0 0 0
252 0 0 0
253 0 0 0
254 0 0 0
255 0 0 0
256 0 0 0
257 0 0 0
258 0 0 0
259 0 0 0
260 0 0 0
261 0 0 0
262 0 0 0
263 0 0 0
264 0 0 0
265 0 0 0
266 0 0 0
267 0 0 0
268 0 0 0
269 0 0 0
270 0 0 0
271 0 0 0
272 0 0 0
273 0 0 0
274 0 0 0
275 0 0 0
276 0 0 0
277 0 0 0
278 0 0 0
279 0 0 0
280 0 0 0
281 0 0 0
282 0 0 0
283 0 0 0
284 0 0 0
285 0 0 0
286 0 0 0
287 0 0 0
288 0 0 0
289 0 0 0
290 0 0 0
291 0 0 0
292 0 0 0
293 0 0 0
294 0 0 0
295 0 0 0
296 0 0 0
297 0 0 0
298 0 0 0
299 0 0 0
300 0 0 0
301 0 0 0
302 0 0 0
303 0 0 0
304 0 0 0
305 0 0 0
306 0 0 0
307 0 0 0
308 0 0 0
309 0 0 0
310 0 0 0
311 0 0 0
312 0 0 0
313 0 0 0
314 0 0 0
315 0 0 0
316 0 0 0
317 0 0 0
318 0 0 0
319 0 0 0
320 0 0 0
321 0 0 0
322 0 0 0
323 0 0 0
324 0 0 0
325 0 0 0
326 0 0 0
327 0 0 0
328 0 0 0
329 0 0 0
330 0 0 0
331 0 0 0
332 0 0 0
333 0 0 0
334 0 0 0
335 0 0 0
336 0 0 0
337 0 0 0
338 0 0 0
339 0 0 0
340 0 0 0
341 0 0 0
342 0 0 0
343 0 0 0
344 0 0 0
345 0 0 0
346 0 0 0
347 0 0 0
348 0 0 0
349 0 0 0
350 0 0 0
351 0 0 0
352 0 0 0
353 0 0 0
354 0 0 0
355 0 0 0
356 0 0 0
357 0 0 0
358 0 0 0
359 0 0 0
360 0 0 0
361 0 0 0
362 0 0 0
363 0 0 0
364 0 0 0
365 0 0 0
366 0 0 0
367 0 0 0
368 0 0 0
369 0 0 0
370 0 0 0
371 0 0 0
372 0 0 0
373 0 0 0
374 0 0 0
375 0 0 0
376 0 0 0
377 0 0 0
378 0 0 0
379 0 0 0
380 0 0 0
381 0 0 0
382 0 0 0
383 0 0 0
384 0 0 0
385 0 0 0
386 0 0 0
387 0 0 0
388 0 0 0
389 0 0 0
390 0 0 0
391 0 0 0
392 0 0 0
393 0 0 0
394 0 0 0
395 0 0 0
396 0 0 0
397 0 0 0
398 1 1 1
399 1 1 1
400 1 1 1
401 1 1 1
402 1 1 1
403 1 1 1
404 1 1 1
405 1 1 1
406 1 1 1
407 1 1 1
408 1 1 1
409 1 1 1
410 1 1 1
411 1 1 1
412 1 1 1
413 1 1 1
414 1 1 1
415 1 1 1
416 1 1 1
417 1 1 1
418 1 1 1
419 1 1 1
420 1 1 1
421 1 1 1
422 1 1 1
423 1 1 1
424 1 1 1
425 1 1 1
426 1 1 1
427 1 1 1
428 1 1 1
429 1 1 1
430 1 1 1
431 1 1 1
432 1 1 1
433 1 1 1
434 1 1 1
435 1 1 1
436 1 1 1
437 1 1 1
438 1 1 1
439 1 1 1
440 1 1 1
441 1 1 1
442 1 1 1
443 1 1 1
444 1 1 1
445 1 1 1
446 1 1 1
447 1 1 1
448 1 1 1
449 1 1 1
450 1 1 1
451 1 1 1
452 1 1 1
453 1 1 1
454 1 1 1
455 1 1 1
456 1 1 1
457 1 1 1
458 1 1 1
459 1 1 1
460 1 1 1
461 1 1 1
462 1 1 1
463 1 1 1
464 1 1 1
465 1 1 1
466 1 1 1
467 1 1 1
468 1 1 1
469 1 1 1
$EndNodeData
$NodeData
1
"NodalForce"
1
0
3
0
3
469
1 0 -83617.28491406339 0
2 0 -111236.50679335286 0
3 0 -111236.50679335286 0
4 0 -111236.50679335286 0
5 0 -111236.50679335286 0
6 0 -111236.50679335286 0
7 0 -111236.50679335286 0
8 0 -110562.99333111003 0
9 0 -110562.99333111003 0
10 0 -110562.99333111003 0
11 0 -110562.99333111003 0
12 0 -110562.99333111003 0
13 0 -110562.99333111003 0
14 0 -110562.99333111003 0
15 0 -110562.99333111003 0
16 0 -110562.99333111003 0
17 0 -110562.99333111003 0
18 0 -110562.99333111003 0
19 0 -110562.99333111003 0
20 0 -109445.90820230957 0
21 0 -109445.90820230957 0
22 0 -109445.90820230957 0
23 0 -109445.90820230957 0
24 0 -109445.90820230957 0
25 0 -109445.90820230957 0
26 0 -109445.90820230957 0
27 0 -109445.90820230957 0
28 0 -109445.90820230957 0
29 0 -109445.90820230957 0
30 0 -109445.90820230957 0
31 0 -109445.90820230957 0
32 0 -109445.90820230957 0
33 0 -109445.90820230957 0
34 0 -109445.90820230957 0
35 0 -109445.90820230957 0
36 0 -109445.90820230957 0
37 0 -109445.90820230957 0
38 0 -107893.35798673547 0
39 0 -107893.35798673547 0
40 0 -107893.35798673547 0
41 0 -107893.35798673547 0
42 0 -107893.35798673547 0
43 0 -107893.35798673547 0
44 0 -107893.35798673547 0
45 0 -107893.35798673547 0
46 0 -107893.35798673547 0
47 0 -107893.35798673547 0
48 0 -107893.35798673547 0
49 0 -107893.35798673547 0
50 0 -107893.35798673547 0
51 0 -107893.35798673547 0
52 0 -107893.35798673547 0
53 0 -107893.35798673547 0
54 0 -107893.35798673547 0
55 0 -107893.35798673547 0
56 0 -107893.35798673547 0
57 0 -107893.35798673547 0
58 0 -107893.35798673547 0
59 0 -107893.35798673547 0
60 0 -107893.35798673547 0
61 0 -107893.35798673547 0
62 0 -105916.59360924024 0
63 0 -105916.59360924024 0
64 0 -105916.59360924024 0
65 0 -105916.59360924024 0
66 0 -105916.59360924024 0
67 0 -105916.59360924024 0
68 0 -105916.59360924024 0
69 0 -105916.59360924024 0
70 0 -105916.59360924024 0
71 0 -105916.59360924024 0
72 0 -105916.59360924024 0
73 0 -105916.59360924024 0
74 0 -105916.59360924024 0
75 0 -105916.59360924024 0
76 0 -105916.59360924024 0
77 0 -105916.59360924024 0
78 0 -105916.59360924024 0
79 0 -105916.59360924024 0
80 0 -105916.59360924024 0
81 0 -105916.59360924024 0
82 0 -105916.59360924024 0
83 0 -105916.59360924024 0
84 0 -105916.59360924024 0
85 0 -105916.59360924024 0
86 0 -105916.59360924024 0
87 0 -105916.59360924024 0
88 0 -105916.59360924024 0
89 0 -105916.59360924024 0
90 0 -105916.59360924024 0
91 0 -105916.59360924024 0
92 0 -103529.91316434693 0
93 0 -103529.91316434693 0
94 0 -103529.91316434693 0
95 0 -103529.91316434693 0
96 0 -103529.91316434693 0
97 0 -103529.91316434693 0
98 0 -103529.91316434693 0
99 0 -103529.91316434693 0
100 0 -103529.91316434693 0
101 0 -103529.91316434693 0
102 0 -103529.91316434693 0
103 0 -103529.91316434693 0
104 0 -103529.91316434693 0
105 0 -103529.91316434693 0
106 0 -103529.91316434693 0
107 0 -103529.91316434693 0
108 0 -103529.91316434693 0
109 0 -103529.91316434693 0
110 0 -103529.91316434693 0
111 0 -103529.91316434693 0
112 0 -103529.91316434693 0
113 0 -103529.91316434693 0
114 0 -103529.91316434693 0
115 0 -103529.91316434693 0
116 0 -103529.91316434693 0
117 0 -103529.91316434693 0
118 0 -103529.91316434693 0
119 0 -103529.91316434693 0
120 0 -103529.91316434693 0
121 0 -103529.91316434693 0
122 0 -103529.91316434693 0
123 0 -103529.91316434693 0
124 0 -103529.91316434693 0
125 0 -103529.91316434693 0
126 0 -103529.91316434693 0
127 0 -103529.91316434693 0
128 0 -100750.53855186046 0
129 0 -100750.53855186046 0
130 0 -100750.53855186046 0
131 0 -100750.53855186046 0
132 0 -100750.53855186046 0
133 0 -100750.53855186046 0
134 0 -100750.53855186046 0
135 0 -100750.53855186046 0
136 0 -100750.53855186046 0
137 0 -100750.53855186046 0
138 0 -100750.53855186046 0
139 0 -100750.53855186046 0
140 0 -100750.53855186046 0
141 0 -100750.53855186046 0
142 0 -100750.53855186046 0
143 0 -100750.53855186046 0
144 0 -100750.53855186046 0
145 0 -100750.53855186046 0
146 0 -100750.53855186046 0
147 0 -100750.53855186046 0
148 0 -100750.53855186046 0
149 0 -100750.53855186046 0
150 0 -100750.53855186046 0
151 0 -100750.53855186046 0
152 0 -100750.53855186046 0
153 0 -100750.53855186046 0
154 0 -100750.53855186046 0
155 0 -100750.53855186046 0
156 0 -100750.53855186046 0
157 0 -100750.53855186046 0
158 0 -100750.53855186046 0
159 0 -100750.53855186046 0
160 0 -100750.53855186046 0
161 0 -100750.53855186046 0
162 0 -100750.53855186046 0
163 0 -100750.53855186046 0
164 0 -100750.53855186046 0
165 0 -100750.53855186046 0
166 0 -100750.53855186046 0
167 0 -100750.53855186046 0
168 0 -100750.53855186046 0
169 0 -100750.53855186046 0
170 0 -97598.46708355393 0
171 0 -97598.46708355393 0
172 0 -97598.46708355393 0
173 0 -97598.46708355393 0
174 0 -97598.46708355393 0
175 0 -97598.46708355393 0
176 0 -97598.46708355393 0
177 0 -97598.46708355393 0
178 0 -97598.46708355393 0
179 0 -97598.46708355393 0
180 0 -97598.46708355393 0
181 0 -97598.46708355393 0
182 0 -97598.46708355393 0
183 0 -97598.46708355393 0
184 0 -97598.46708355393 0
185 0 -97598.46708355393 0
186 0 -97598.46708355393 0
187 0 -97598.46708355393 0
188 0 -97598.46708355393 0
189 0 -97598.46708355393 0
190 0 -97598.46708355393 0
191 0 -97598.46708355393 0
192 0 -97598.46708355393 0
193 0 -97598.46708355393 0
194 0 -97598.46708355393 0
195 0 -97598.46708355393 0
196 0 -97598.46708355393 0
197 0 -97598.46708355393 0
198 0 -97598.46708355393 0
199 0 -97598.46708355393 0
200 0 -97598.46708355393 0
201 0 -97598.46708355393 0
202 0 -97598.46708355393 0
203 0 -97598.46708355393 0
204 0 -97598.46708355393 0
205 0 -97598.46708355393 0
206 0 -97598.46708355393 0
207 0 -97598.46708355393 0
208 0 -97598.46708355393 0
209 0 -97598.46708355393 0
210 0 -97598.46708355393 0
211 0 -97598.46708355393 0
212 0 -97598.46708355393 0
213 0 -97598.46708355393 0
214 0 -97598.46708355393 0
215 0 -97598.46708355393 0
216 0 -97598.46708355393 0
217 0 -97598.46708355393 0
218 0 -94096.29945516324 0
219 0 -94096.29945516324 0
220 0 -94096.29945516324 0
221 0 -94096.29945516324 0
222 0 -94096.29945516324 0
223 0 -94096.29945516324 0
224 0 -94096.29945516324 0
225 0 -94096.29945516324 0
226 0 -94096.29945516324 0
227 0 -94096.29945516324 0
228 0 -94096.29945516324 0
229 0 -94096.29945516324 0
230 0 -94096.29945516324 0
231 0 -94096.29945516324 0
232 0 -94096.29945516324 0
233 0 -94096.29945516324 0
234 0 -94096.29945516324 0
235 0 -94096.29945516324 0
236 0 -94096.29945516324 0
237 0 -94096.29945516324 0
238 0 -94096.29945516324 0
239 0 -94096.29945516324 0
240 0 -94096.29945516324 0
241 0 -94096.29945516324 0
242 0 -94096.29945516324 0
243 0 -94096.29945516324 0
244 0 -94096.29945516324 0
245 0 -94096.29945516324 0
246 0 -94096.29945516324 0
247 0 -94096.29945516324 0
248 0 -94096.29945516324 0
249 0 -94096.29945516324 0
250 0 -94096.29945516324 0
251 0 -94096.29945516324 0
252 0 -94096.29945516324 0
253 0 -94096.29945516324 0
254 0 -94096.29945516324 0
255 0 -94096.29945516324 0
256 0 -94096.29945516324 0
257 0 -94096.29945516324 0
258 0 -94096.29945516324 0
259 0 -94096.29945516324 0
260 0 -94096.29945516324 0
261 0 -94096.29945516324 0
262 0 -94096.29945516324 0
263 0 -94096.29945516324 0
264 0 -94096.29945516324 0
265 0 -94096.29945516324 0
266 0 -94096.29945516324 0
267 0 -94096.29945516324 0
268 0 -94096.29945516324 0
269 0 -94096.29945516324 0
270 0 -94096.29945516324 0
271 0 -94096.29945516324 0
272 0 -90269.04569831009 0
273 0 -90269.04569831009 0
274 0 -90269.04569831009 0
275 0 -90269.04569831009 0
276 0 -90269.04569831009 0
277 0 -90269.04569831009 0
278 0 -90269.04569831009 0
279 0 -90269.04569831009 0
280 0 -90269.04569831009 0
281 0 -90269.04569831009 0
282 0 -90269.04569831009 0
283 0 -90269.04569831009 0
284 0 -90269.04569831009 0
285 0 -90269.04569831009 0
286 0 -90269.04569831009 0
287 0 -90269.04569831009 0
288 0 -90269.04569831009 0
289 0 -90269.04569831009 0
290 0 -90269.04569831009 0
291 0 -90269.04569831009 0
292 0 -90269.04569831009 0
293 0 -90269.04569831009 0
294 0 -90269.04569831009 0
295 0 -90269.04569831009 0
296 0 -90269.04569831009 0
297 0 -90269.04569831009 0
298 0 -90269.04569831009 0
299 0 -90269.04569831009 0
300 0 -90269.04569831009 0
301 0 -90269.04569831009 0
302 0 -90269.04569831009 0
303 0 -90269.04569831009 0
304 0 -90269.04569831009 0
305 0 -90269.04569831009 0
306 0 -90269.04569831009 0
307 0 -90269.04569831009 0
308 0 -90269.04569831009 0
309 0 -90269.04569831009 0
310 0 -90269.04569831009 0
311 0 -90269.04569831009 0
312 0 -90269.04569831009 0
313 0 -90269.04569831009 0
314 0 -90269.04569831009 0
315 0 -90269.04569831009 0
316 0 -90269.04569831009 0
317 0 -90269.04569831009 0
318 0 -90269.04569831009 0
319 0 -90269.04569831009 0
320 0 -90269.04569831009 0
321 0 -90269.04569831009 0
322 0 -90269.04569831009 0
323 0 -90269.04569831009 0
324 0 -90269.04569831009 0
325 0 -90269.04569831009 0
326 0 -90269.04569831009 0
327 0 -90269.04569831009 0
328 0 -90269.04569831009 0
329 0 -90269.04569831009 0
330 0 -90269.04569831009 0
331 0 -90269.04569831009 0
332 0 -86143.91093140232 0
333 0 -86143.91093140232 0
334 0 -86143.91093140232 0
335 0 -86143.91093140232 0
336 0 -86143.91093140232 0
337 0 -86143.91093140232 0
338 0 -86143.91093140232 0
339 0 -86143.91093140232 0
340 0 -86143.91093140232 0
341 0 -86143.91093140232 0
342 0 -86143.91093140232 0
343 0 -86143.91093140232 0
344 0 -86143.91093140232 0
345 0 -86143.91093140232 0
346 0 -86143.91093140232 0
347 0 -86143.91093140232 0
348 0 -86143.91093140232 0
349 0 -86143.91093140232 0
350 0 -86143.91093140232 0
351 0 -86143.91093140232 0
352 0 -86143.91093140232 0
353 0 -86143.91093140232 0
354 0 -86143.91093140232 0
355 0 -86143.91093140232 0
356 0 -86143.91093140232 0
357 0 -86143.91093140232 0
358 0 -86143.91093140232 0
359 0 -86143.91093140232 0
360 0 -86143.91093140232 0
361 0 -86143.91093140232 0
362 0 -86143.91093140232 0
363 0 -86143.91093140232 0
364 0 -86143.91093140232 0
365 0 -86143.91093140232 0
366 0 -86143.91093140232 0
367 0 -86143.91093140232 0
368 0 -86143.91093140232 0
369 0 -86143.91093140232 0
370 0 -86143.91093140232 0
371 0 -86143.91093140232 0
372 0 -86143.91093140232 0
373 0 -86143.91093140232 0
374 0 -86143.91093140232 0
375 0 -86143.91093140232 0
376 0 -86143.91093140232 0
377 0 -86143.91093140232 0
378 0 -86143.91093140232 0
379 0 -86143.91093140232 0
380 0 -86143.91093140232 0
381 0 -86143.91093140232 0
382 0 -86143.91093140232 0
383 0 -86143.91093140232 0
384 0 -86143.91093140232 0
385 0 -86143.91093140232 0
386 0 -86143.91093140232 0
387 0 -86143.91093140232 0
388 0 -86143.91093140232 0
389 0 -86143.91093140232 0
390 0 -86143.91093140232 0
391 0 -86143.91093140232 0
392 0 -86143.91093140232 0
393 0 -86143.91093140232 0
394 0 -86143.91093140232 0
395 0 -86143.91093140232 0
396 0 -86143.91093140232 0
397 0 -86143.91093140232 0
398 0 0 0
399 0 0 0
400 0 0 0
401 0 0 0
402 0 0 0
403 0 0 0
404 0 0 0
405 0 0 0
406 0 0 0
407 0 0 0
408 0 0 0
409 0 0 0
410 0 0 0
411 0 0 0
412 0 0 0
413 0 0 0
414 0 0 0
415 0 0 0
416 0 0 0
417 0 0 0
418 0 0 0
419 0 0 0
420 0 0 0
421 0 0 0
422 0 0 0
423 0 0 0
424 0 0 0
425 0 0 0
426 0 0 0
427 0 0 0
428 0 0 0
429 0 0 0
430 0 0 0
431 0 0 0
432 0 0 0
433 0 0 0
434 0 0 0
435 0 0 0
436 0 0 0
437 0 0 0
438 0 0 0
439 0 0 0
440 0 0 0
441 0 0 0
442 0 0 0
443 0 0 0
444 0 0 0
445 0 0 0
446 0 0 0
447 0 0 0
448 0 0 0
449 0 0 0
450 0 0 0
451 0 0 0
452 0 0 0
453 0 0 0
454 0 0 0
455 0 0 0
456 0 0 0
457 0 0 0
458 0 0 0
459 0 0 0
460 0 0 0
461 0 0 0
462 0 0 0
463 0 0 0
464 0 0 0
465 0 0 0
466 0 0 0
467 0 0 0
468 0 0 0
469 0 0 0
$EndNodeData
$ElementData
1
"CrossSectionArea"
1
0
3
0
1
1332
1 0.026000000000000002
2 0.026000000000000002
3 0.026000000000000002
4 0.026000000000000002
5 0.026000000000000002
6 0.026000000000000002
7 0.018000000000000002
8 0.018000000000000002
9 0.026000000000000002
10 0.018000000000000002
11 0.018000000000000002
12 0.018000000000000002
13 0.018000000000000002
14 0.026000000000000002
15 0.018000000000000002
16 0.018000000000000002
17 0.018000000000000002
18 0.026000000000000002
19 0.018000000000000002
20 0.018000000000000002
21 0.018000000000000002
22 0.026000000000000002
23 0.018000000000000002
24 0.018000000000000002
25 0.018000000000000002
26 0.026000000000000002
27 0.018000000000000002
28 0.018000000000000002
29 0.026000000000000002
30 0.018000000000000002
31 0.018000000000000002
32 0.018000000000000002
33 0.026000000000000002
34 0.018000000000000002
35 0.018000000000000002
36 0.018000000000000002
37 0.018000000000000002
38 0.018000000000000002
39 0.018000000000000002
40 0.018000000000000002
41 0.026000000000000002
42 0.018000000000000002
43 0.018000000000000002
44 0.018000000000000002
45 0.018000000000000002
46 0.018000000000000002
47 0.018000000000000002
48 0.026000000000000002
49 0.018000000000000002
50 0.018000000000000002
51 0.018000000000000002
52 0.018000000000000002
53 0.018000000000000002
54 0.018000000000000002
55 0.026000000000000002
56 0.018000000000000002
57 0.018000000000000002
58 0.018000000000000002
59 0.018000000000000002
60 0.018000000000000002
61 0.018000000000000002
62 0.026000000000000002
63 0.018000000000000002
64 0.018000000000000002
65 0.018000000000000002
66 0.018000000000000002
67 0.018000000000000002
68 0.018000000000000002
69 0.026000000000000002
70 0.018000000000000002
71 0.018000000000000002
72 0.018000000000000002
73 0.018000000000000002
74 0.018000000000000002
75 0.026000000000000002
76 0.018000000000000002
77 0.018000000000000002
78 0.018000000000000002
79 0.018000000000000002
80 0.018000000000000002
81 0.018000000000000002
82 0.018000000000000002
83 0.018000000000000002
84 0.018000000000000002
85 0.018000000000000002
86 0.026000000000000002
87 0.018000000000000002
88 0.018000000000000002
89 0.018000000000000002
90 0.018000000000000002
91 0.018000000000000002
92 0.018000000000000002
93 0.018000000000000002
94 0.018000000000000002
95 0.018000000000000002
96 0.026000000000000002
97 0.018000000000000002
98 0.018000000000000002
99 0.018000000000000002
100 0.018000000000000002
101 0.018000000000000002
102 0.018000000000000002
103 0.018000000000000002
104 0.018000000000000002
105 0.018000000000000002
106 0.026000000000000002
107 0.018000000000000002
108 0.018000000000000002
109 0.018000000000000002
110 0.018000000000000002
111 0.018000000000000002
112 0.018000000000000002
113 0.018000000000000002
114 0.018000000000000002
115 0.018000000000000002
116 0.026000000000000002
117 0.018000000000000002
118 0.018000000000000002
119 0.018000000000000002
120 0.018000000000000002
121 0.018000000000000002
122 0.018000000000000002
123 0.018000000000000002
124 0.018000000000000002
125 0.018000000000000002
126 0.026000000000000002
127 0.018000000000000002
128 0.018000000000000002
129 0.018000000000000002
130 0.018000000000000002
131 0.018000000000000002
132 0.018000000000000002
133 0.018000000000000002
134 0.018000000000000002
135 0.026000000000000002
136 0.018000000000000002
137 0.018000000000000002
138 0.018000000000000002
139 0.018000000000000002
140 0.018000000000000002
141 0.018000000000000002
142 0.018000000000000002
143 0.018000000000000002
144 0.018000000000000002
145 0.018000000000000002
146 0.018000000000000002
147 0.018000000000000002
148 0.018000000000000002
149 0.026000000000000002
150 0.018000000000000002
151 0.018000000000000002
152 0.018000000000000002
153 0.018000000000000002
154 0.018000000000000002
155 0.018000000000000002
156 0.018000000000000002
157 0.018000000000000002
158 0.018000000000000002
159 0.018000000000000002
160 0.018000000000000002
161 0.018000000000000002
162 0.026000000000000002
163 0.018000000000000002
164 0.018000000000000002
165 0.018000000000000002
166 0.018000000000000002
167 0.018000000000000002
168 0.018000000000000002
169 0.018000000000000002
170 0.018000000000000002
171 0.018000000000000002
172 0.018000000000000002
173 0.018000000000000002
174 0.018000000000000002
175 0.026000000000000002
176 0.018000000000000002
177 0.018000000000000002
178 0.018000000000000002
179 0.018000000000000002
180 0.018000000000000002
181 0.018000000000000002
182 0.018000000000000002
183 0.018000000000000002
184 0.018000000000000002
185 0.018000000000000002
186 0.018000000000000002
187 0.018000000000000002
188 0.026000000000000002
189 0.018000000000000002
190 0.018000000000000002
191 0.018000000000000002
192 0.018000000000000002
193 0.018000000000000002
194 0.018000000000000002
195 0.018000000000000002
196 0.018000000000000002
197 0.018000000000000002
198 0.018000000000000002
199 0.018000000000000002
200 0.018000000000000002
201 0.026000000000000002
202 0.018000000000000002
203 0.018000000000000002
204 0.018000000000000002
205 0.018000000000000002
206 0.018000000000000002
207 0.018000000000000002
208 0.018000000000000002
209 0.018000000000000002
210 0.018000000000000002
211 0.018000000000000002
212 0.018000000000000002
213 0.026000000000000002
214 0.018000000000000002
215 0.018000000000000002
216 0.018000000000000002
217 0.018000000000000002
218 0.018000000000000002
219 0.018000000000000002
220 0.018000000000000002
221 0.018000000000000002
222 0.018000000000000002
223 0.018000000000000002
224 0.018000000000000002
225 0.018000000000000002
226 0.018000000000000002
227 0.018000000000000002
228 0.018000000000000002
229 0.018000000000000002
230 0.026000000000000002
231 0.018000000000000002
232 0.018000000000000002
233 0.018000000000000002
234 0.018000000000000002
235 0.018000000000000002
236 0.018000000000000002
237 0.018000000000000002
238 0.018000000000000002
239 0.018000000000000002
240 0.018000000000000002
241 0.018000000000000002
242 0.018000000000000002
243 0.018000000000000002
244 0.018000000000000002
245 0.018000000000000002
246 0.026000000000000002
247 0.018000000000000002
248 0.018000000000000002
249 0.018000000000000002
250 0.018000000000000002
251 0.018000000000000002
252 0.018000000000000002
253 0.018000000000000002
254 0.018000000000000002
255 0.018000000000000002
256 0.018000000000000002
257 0.018000000000000002
258 0.018000000000000002
259 0.018000000000000002
260 0.018000000000000002
261 0.018000000000000002
262 0.026000000000000002
263 0.018000000000000002
264 0.018000000000000002
265 0.018000000000000002
266 0.018000000000000002
267 0.018000000000000002
268 0.018000000000000002
269 0.018000000000000002
270 0.018000000000000002
271 0.018000000000000002
272 0.018000000000000002
273 0.018000000000000002
274 0.018000000000000002
275 0.018000000000000002
276 0.018000000000000002
277 0.018000000000000002
278 0.026000000000000002
279 0.018000000000000002
280 0.018000000000000002
281 0.018000000000000002
282 0.018000000000000002
283 0.018000000000000002
284 0.018000000000000002
285 0.018000000000000002
286 0.018000000000000002
287 0.018000000000000002
288 0.018000000000000002
289 0.018000000000000002
290 0.018000000000000002
291 0.018000000000000002
292 0.018000000000000002
293 0.018000000000000002
294 0.026000000000000002
295 0.018000000000000002
296 0.018000000000000002
297 0.018000000000000002
298 0.018000000000000002
299 0.018000000000000002
300 0.018000000000000002
301 0.018000000000000002
302 0.018000000000000002
303 0.018000000000000002
304 0.018000000000000002
305 0.018000000000000002
306 0.018000000000000002
307 0.018000000000000002
308 0.018000000000000002
309 0.026000000000000002
310 0.018000000000000002
311 0.018000000000000002
312 0.018000000000000002
313 0.018000000000000002
314 0.018000000000000002
315 0.018000000000000002
316 0.018000000000000002
317 0.018000000000000002
318 0.018000000000000002
319 0.018000000000000002
320 0.018000000000000002
321 0.018000000000000002
322 0.018000000000000002
323 0.018000000000000002
324 0.018000000000000002
325 0.018000000000000002
326 0.018000000000000002
327 0.018000000000000002
328 0.018000000000000002
329 0.026000000000000002
330 0.018000000000000002
331 0.018000000000000002
332 0.018000000000000002
333 0.018000000000000002
334 0.018000000000000002
335 0.018000000000000002
336 0.018000000000000002
337 0.018000000000000002
338 0.018000000000000002
339 0.018000000000000002
340 0.018000000000000002
341 0.018000000000000002
342 0.018000000000000002
343 0.018000000000000002
344 0.018000000000000002
345 0.018000000000000002
346 0.018000000000000002
347 0.018000000000000002
348 0.026000000000000002
349 0.018000000000000002
350 0.018000000000000002
351 0.018000000000000002
352 0.018000000000000002
353 0.018000000000000002
354 0.018000000000000002
355 0.018000000000000002
356 0.018000000000000002
357 0.018000000000000002
358 0.018000000000000002
359 0.018000000000000002
360 0.018000000000000002
361 0.018000000000000002
362 0.018000000000000002
363 0.018000000000000002
364 0.018000000000000002
365 0.018000000000000002
366 0.018000000000000002
367 0.026000000000000002
368 0.018000000000000002
369 0.018000000000000002
370 0.018000000000000002
371 0.018000000000000002
372 0.018000000000000002
373 0.018000000000000002
374 0.018000000000000002
375 0.018000000000000002
376 0.018000000000000002
377 0.018000000000000002
378 0.018000000000000002
379 0.018000000000000002
380 0.018000000000000002
381 0.018000000000000002
382 0.018000000000000002
383 0.018000000000000002
384 0.018000000000000002
385 0.018000000000000002
386 0.026000000000000002
387 0.018000000000000002
388 0.018000000000000002
389 0.018000000000000002
390 0.018000000000000002
391 0.018000000000000002
392 0.018000000000000002
393 0.018000000000000002
394 0.018000000000000002
395 0.018000000000000002
396 0.018000000000000002
397 0.018000000000000002
398 0.018000000000000002
399 0.018000000000000002
400 0.018000000000000002
401 0.018000000000000002
402 0.018000000000000002
403 0.018000000000000002
404 0.018000000000000002
405 0.026000000000000002
406 0.018000000000000002
407 0.018000000000000002
408 0.018000000000000002
409 0.018000000000000002
410 0.018000000000000002
411 0.018000000000000002
412 0.018000000000000002
413 0.018000000000000002
414 0.018000000000000002
415 0.018000000000000002
416 0.018000000000000002
417 0.018000000000000002
418 0.018000000000000002
419 0.018000000000000002
420 0.018000000000000002
421 0.018000000000000002
422 0.018000000000000002
423 0.026000000000000002
424 0.018000000000000002
425 0.018000000000000002
426 0.018000000000000002
427 0.018000000000000002
428 0.018000000000000002
429 0.018000000000000002
430 0.018000000000000002
431 0.018000000000000002
432 0.018000000000000002
433 0.018000000000000002
434 0.018000000000000002
435 0.018000000000000002
436 0.018000000000000002
437 0.018000000000000002
438 0.018000000000000002
439 0.018000000000000002
440 0.018000000000000002
441 0.018000000000000002
442 0.018000000000000002
443 0.018000000000000002
444 0.018000000000000002
445 0.018000000000000002
446 0.026000000000000002
447 0.018000000000000002
448 0.018000000000000002
449 0.018000000000000002
450 0.018000000000000002
451 0.018000000000000002
452 0.018000000000000002
453 0.018000000000000002
454 0.018000000000000002
455 0.018000000000000002
456 0.018000000000000002
457 0.018000000000000002
458 0.018000000000000002
459 0.018000000000000002
460 0.018000000000000002
461 0.018000000000000002
462 0.018000000000000002
463 0.018000000000000002
464 0.018000000000000002
465 0.018000000000000002
466 0.018000000000000002
467 0.018000000000000002
468 0.026000000000000002
469 0.018000000000000002
470 0.018000000000000002
471 0.018000000000000002
472 0.018000000000000002
473 0.018000000000000002
474 0.018000000000000002
475 0.018000000000000002
476 0.018000000000000002
477 0.018000000000000002
478 0.018000000000000002
479 0.018000000000000002
480 0.018000000000000002
481 0.018000000000000002
482 0.018000000000000002
483 0.018000000000000002
484 0.018000000000000002
485 0.018000000000000002
486 0.018000000000000002
487 0.018000000000000002
488 0.018000000000000002
489 0.018000000000000002
490 0.026000000000000002
491 0.018000000000000002
492 0.018000000000000002
493 0.018000000000000002
494 0.018000000000000002
495 0.018000000000000002
496 0.018000000000000002
497 0.018000000000000002
498 0.018000000000000002
499 0.018000000000000002
500 0.018000000000000002
501 0.018000000000000002
502 0.018000000000000002
503 0.018000000000000002
504 0.018000000000000002
505 0.018000000000000002
506 0.018000000000000002
507 0.018000000000000002
508 0.018000000000000002
509 0.018000000000000002
510 0.018000000000000002
511 0.018000000000000002
512 0.026000000000000002
513 0.018000000000000002
514 0.018000000000000002
515 0.018000000000000002
516 0.018000000000000002
517 0.018000000000000002
518 0.018000000000000002
519 0.018000000000000002
520 0.018000000000000002
521 0.018000000000000002
522 0.018000000000000002
523 0.018000000000000002
524 0.018000000000000002
525 0.018000000000000002
526 0.018000000000000002
527 0.018000000000000002
528 0.018000000000000002
529 0.018000000000000002
530 0.018000000000000002
531 0.018000000000000002
532 0.018000000000000002
533 0.018000000000000002
534 0.026000000000000002
535 0.018000000000000002
536 0.018000000000000002
537 0.018000000000000002
538 0.018000000000000002
539 0.018000000000000002
540 0.018000000000000002
541 0.018000000000000002
542 0.018000000000000002
543 0.018000000000000002
544 0.018000000000000002
545 0.018000000000000002
546 0.018000000000000002
547 0.018000000000000002
548 0.018000000000000002
549 0.018000000000000002
550 0.018000000000000002
551 0.018000000000000002
552 0.018000000000000002
553 0.018000000000000002
554 0.018000000000000002
555 0.026000000000000002
556 0.018000000000000002
557 0.018000000000000002
558 0.018000000000000002
559 0.018000000000000002
560 0.018000000000000002
561 0.018000000000000002
562 0.018000000000000002
563 0.018000000000000002
564 0.018000000000000002
565 0.018000000000000002
566 0.018000000000000002
567 0.018000000000000002
568 0.018000000000000002
569 0.018000000000000002
570 0.018000000000000002
571 0.018000000000000002
572 0.018000000000000002
573 0.018000000000000002
574 0.018000000000000002
575 0.018000000000000002
576 0.018000000000000002
577 0.018000000000000002
578 0.018000000000000002
579 0.018000000000000002
580 0.018000000000000002
581 0.026000000000000002
582 0.018000000000000002
583 0.018000000000000002
584 0.018000000000000002
585 0.018000000000000002
586 0.018000000000000002
587 0.018000000000000002
588 0.018000000000000002
589 0.018000000000000002
590 0.018000000000000002
591 0.018000000000000002
592 0.018000000000000002
593 0.018000000000000002
594 0.018000000000000002
595 0.018000000000000002
596 0.018000000000000002
597 0.018000000000000002
598 0.018000000000000002
599 0.018000000000000002
600 0.018000000000000002
601 0.018000000000000002
602 0.018000000000000002
603 0.018000000000000002
604 0.018000000000000002
605 0.018000000000000002
606 0.026000000000000002
607 0.018000000000000002
608 0.018000000000000002
609 0.018000000000000002
610 0.018000000000000002
611 0.018000000000000002
612 0.018000000000000002
613 0.018000000000000002
614 0.018000000000000002
615 0.018000000000000002
616 0.018000000000000002
617 0.018000000000000002
618 0.018000000000000002
619 0.018000000000000002
620 0.018000000000000002
621 0.018000000000000002
622 0.018000000000000002
623 0.018000000000000002
624 0.018000000000000002
625 0.018000000000000002
626 0.018000000000000002
627 0.018000000000000002
628 0.018000000000000002
629 0.018000000000000002
630 0.018000000000000002
631 0.026000000000000002
632 0.018000000000000002
633 0.018000000000000002
634 0.018000000000000002
635 0.018000000000000002
636 0.018000000000000002
637 0.018000000000000002
638 0.018000000000000002
639 0.018000000000000002
640 0.018000000000000002
641 0.018000000000000002
642 0.018000000000000002
643 0.018000000000000002
644 0.018000000000000002
645 0.018000000000000002
646 0.018000000000000002
647 0.018000000000000002
648 0.018000000000000002
649 0.018000000000000002
650 0.018000000000000002
651 0.018000000000000002
652 0.018000000000000002
653 0.018000000000000002
654 0.018000000000000002
655 0.018000000000000002
656 0.026000000000000002
657 0.018000000000000002
658 0.018000000000000002
659 0.018000000000000002
660 0.018000000000000002
661 0.018000000000000002
662 0.018000000000000002
663 0.018000000000000002
664 0.018000000000000002
665 0.018000000000000002
666 0.018000000000000002
667 0.018000000000000002
668 0.018000000000000002
669 0.018000000000000002
670 0.018000000000000002
671 0.018000000000000002
672 0.018000000000000002
673 0.018000000000000002
674 0.018000000000000002
675 0.018000000000000002
676 0.018000000000000002
677 0.018000000000000002
678 0.018000000000000002
679 0.018000000000000002
680 0.018000000000000002
681 0.026000000000000002
682 0.018000000000000002
683 0.018000000000000002
684 0.018000000000000002
685 0.018000000000000002
686 0.018000000000000002
687 0.018000000000000002
688 0.018000000000000002
689 0.018000000000000002
690 0.018000000000000002
691 0.018000000000000002
692 0.018000000000000002
693 0.018000000000000002
694 0.018000000000000002
695 0.018000000000000002
696 0.018000000000000002
697 0.018000000000000002
698 0.018000000000000002
699 0.018000000000000002
700 0.018000000000000002
701 0.018000000000000002
702 0.018000000000000002
703 0.018000000000000002
704 0.018000000000000002
705 0.026000000000000002
706 0.018000000000000002
707 0.018000000000000002
708 0.018000000000000002
709 0.018000000000000002
710 0.018000000000000002
711 0.018000000000000002
712 0.018000000000000002
713 0.018000000000000002
714 0.018000000000000002
715 0.018000000000000002
716 0.018000000000000002
717 0.018000000000000002
718 0.018000000000000002
719 0.018000000000000002
720 0.018000000000000002
721 0.018000000000000002
722 0.018000000000000002
723 0.018000000000000002
724 0.018000000000000002
725 0.018000000000000002
726 0.018000000000000002
727 0.018000000000000002
728 0.018000000000000002
729 0.018000000000000002
730 0.018000000000000002
731 0.018000000000000002
732 0.018000000000000002
733 0.018000000000000002
734 0.026000000000000002
735 0.018000000000000002
736 0.018000000000000002
737 0.018000000000000002
738 0.018000000000000002
739 0.018000000000000002
740 0.018000000000000002
741 0.018000000000000002
742 0.018000000000000002
743 0.018000000000000002
744 0.018000000000000002
745 0.018000000000000002
746 0.018000000000000002
747 0.018000000000000002
748 0.018000000000000002
749 0.018000000000000002
750 0.018000000000000002
751 0.018000000000000002
752 0.018000000000000002
753 0.018000000000000002
754 0.018000000000000002
755 0.018000000000000002
756 0.018000000000000002
757 0.018000000000000002
758 0.018000000000000002
759 0.018000000000000002
760 0.018000000000000002
761 0.018000000000000002
762 0.026000000000000002
763 0.018000000000000002
764 0.018000000000000002
765 0.018000000000000002
766 0.018000000000000002
767 0.018000000000000002
768 0.018000000000000002
769 0.018000000000000002
770 0.018000000000000002
771 0.018000000000000002
772 0.018000000000000002
773 0.018000000000000002
774 0.018000000000000002
775 0.018000000000000002
776 0.018000000000000002
777 0.018000000000000002
778 0.018000000000000002
779 0.018000000000000002
780 0.018000000000000002
781 0.018000000000000002
782 0.018000000000000002
783 0.018000000000000002
784 0.018000000000000002
785 0.018000000000000002
786 0.018000000000000002
787 0.018000000000000002
788 0.018000000000000002
789 0.018000000000000002
790 0.026000000000000002
791 0.018000000000000002
792 0.018000000000000002
793 0.018000000000000002
794 0.018000000000000002
795 0.018000000000000002
796 0.018000000000000002
797 0.018000000000000002
798 0.018000000000000002
799 0.018000000000000002
800 0.018000000000000002
801 0.018000000000000002
802 0.018000000000000002
803 0.018000000000000002
804 0.018000000000000002
805 0.018000000000000002
806 0.018000000000000002
807 0.018000000000000002
808 0.018000000000000002
809 0.018000000000000002
810 0.018000000000000002
811 0.018000000000000002
812 0.018000000000000002
813 0.018000000000000002
814 0.018000000000000002
815 0.018000000000000002
816 0.018000000000000002
817 0.018000000000000002
818 0.026000000000000002
819 0.018000000000000002
820 0.018000000000000002
821 0.018000000000000002
822 0.018000000000000002
823 0.018000000000000002
824 0.018000000000000002
825 0.018000000000000002
826 0.018000000000000002
827 0.018000000000000002
828 0.018000000000000002
829 0.018000000000000002
830 0.018000000000000002
831 0.018000000000000002
832 0.018000000000000002
833 0.018000000000000002
834 0.018000000000000002
835 0.018000000000000002
836 0.018000000000000002
837 0.018000000000000002
838 0.018000000000000002
839 0.018000000000000002
840 0.018000000000000002
841 0.018000000000000002
842 0.018000000000000002
843 0.018000000000000002
844 0.018000000000000002
845 0.018000000000000002
846 0.026000000000000002
847 0.018000000000000002
848 0.018000000000000002
849 0.018000000000000002
850 0.018000000000000002
851 0.018000000000000002
852 0.018000000000000002
853 0.018000000000000002
854 0.018000000000000002
855 0.018000000000000002
856 0.018000000000000002
857 0.018000000000000002
858 0.018000000000000002
859 0.018000000000000002
860 0.018000000000000002
861 0.018000000000000002
862 0.018000000000000002
863 0.018000000000000002
864 0.018000000000000002
865 0.018000000000000002
866 0.018000000000000002
867 0.018000000000000002
868 0.018000000000000002
869 0.018000000000000002
870 0.018000000000000002
871 0.018000000000000002
872 0.018000000000000002
873 0.026000000000000002
874 0.018000000000000002
875 0.018000000000000002
876 0.018000000000000002
877 0.018000000000000002
878 0.018000000000000002
879 0.018000000000000002
880 0.018000000000000002
881 0.018000000000000002
882 0.018000000000000002
883 0.018000000000000002
884 0.018000000000000002
885 0.018000000000000002
886 0.018000000000000002
887 0.018000000000000002
888 0.018000000000000002
889 0.018000000000000002
890 0.018000000000000002
891 0.018000000000000002
892 0.018000000000000002
893 0.018000000000000002
894 0.018000000000000002
895 0.018000000000000002
896 0.018000000000000002
897 0.018000000000000002
898 0.018000000000000002
899 0.018000000000000002
900 0.018000000000000002
901 0.018000000000000002
902 0.018000000000000002
903 0.018000000000000002
904 0.018000000000000002
905 0.026000000000000002
906 0.018000000000000002
907 0.018000000000000002
908 0.018000000000000002
909 0.018000000000000002
910 0.018000000000000002
911 0.018000000000000002
912 0.018000000000000002
913 0.018000000000000002
914 0.018000000000000002
915 0.018000000000000002
916 0.018000000000000002
917 0.018000000000000002
918 0.018000000000000002
919 0.018000000000000002
920 0.018000000000000002
921 0.018000000000000002
922 0.018000000000000002
923 0.018000000000000002
924 0.018000000000000002
925 0.018000000000000002
926 0.018000000000000002
927 0.018000000000000002
928 0.018000000000000002
929 0.018000000000000002
930 0.018000000000000002
931 0.018000000000000002
932 0.018000000000000002
933 0.018000000000000002
934 0.018000000000000002
935 0.018000000000000002
936 0.026000000000000002
937 0.018000000000000002
938 0.018000000000000002
939 0.018000000000000002
940 0.018000000000000002
941 0.018000000000000002
942 0.018000000000000002
943 0.018000000000000002
944 0.018000000000000002
945 0.018000000000000002
946 0.018000000000000002
947 0.018000000000000002
948 0.018000000000000002
949 0.018000000000000002
950 0.018000000000000002
951 0.018000000000000002
952 0.018000000000000002
953 0.018000000000000002
954 0.018000000000000002
955 0.018000000000000002
956 0.018000000000000002
957 0.018000000000000002
958 0.018000000000000002
959 0.018000000000000002
960 0.018000000000000002
961 0.018000000000000002
962 0.018000000000000002
963 0.018000000000000002
964 0.018000000000000002
965 0.018000000000000002
966 0.018000000000000002
967 0.026000000000000002
968 0.018000000000000002
969 0.018000000000000002
970 0.018000000000000002
971 0.018000000000000002
972 0.018000000000000002
973 0.018000000000000002
974 0.018000000000000002
975 0.018000000000000002
976 0.018000000000000002
977 0.018000000000000002
978 0.018000000000000002
979 0.018000000000000002
980 0.018000000000000002
981 0.018000000000000002
982 0.018000000000000002
983 0.018000000000000002
984 0.018000000000000002
985 0.018000000000000002
986 0.018000000000000002
987 0.018000000000000002
988 0.018000000000000002
989 0.018000000000000002
990 0.018000000000000002
991 0.018000000000000002
992 0.018000000000000002
993 0.018000000000000002
994 0.018000000000000002
995 0.018000000000000002
996 0.018000000000000002
997 0.018000000000000002
998 0.026000000000000002
999 0.018000000000000002
1000 0.018000000000000002
1001 0.018000000000000002
1002 0.018000000000000002
1003 0.018000000000000002
1004 0.018000000000000002
1005 0.018000000000000002
1006 0.018000000000000002
1007 0.018000000000000002
1008 0.018000000000000002
1009 0.018000000000000002
1010 0.018000000000000002
1011 0.018000000000000002
1012 0.018000000000000002
1013 0.018000000000000002
1014 0.018000000000000002
1015 0.018000000000000002
1016 0.018000000000000002
1017 0.018000000000000002
1018 0.018000000000000002
1019 0.018000000000000002
1020 0.018000000000000002
1021 0.018000000000000002
1022 0.018000000000000002
1023 0.018000000000000002
1024 0.018000000000000002
1025 0.018000000000000002
1026 0.018000000000000002
1027 0.018000000000000002
1028 0.018000000000000002
1029 0.026000000000000002
1030 0.018000000000000002
1031 0.018000000000000002
1032 0.018000000000000002
1033 0.018000000000000002
1034 0.018000000000000002
1035 0.018000000000000002
1036 0.018000000000000002
1037 0.018000000000000002
1038 0.018000000000000002
1039 0.018000000000000002
1040 0.018000000000000002
1041 0.018000000000000002
1042 0.018000000000000002
1043 0.018000000000000002
1044 0.018000000000000002
1045 0.018000000000000002
1046 0.018000000000000002
1047 0.018000000000000002
1048 0.018000000000000002
1049 0.018000000000000002
1050 0.018000000000000002
1051 0.018000000000000002
1052 0.018000000000000002
1053 0.018000000000000002
1054 0.018000000000000002
1055 0.018000000000000002
1056 0.018000000000000002
1057 0.018000000000000002
1058 0.018000000000000002
1059 0.026000000000000002
1060 0.018000000000000002
1061 0.018000000000000002
1062 0.018000000000000002
1063 0.018000000000000002
1064 0.018000000000000002
1065 0.018000000000000002
1066 0.018000000000000002
1067 0.018000000000000002
1068 0.018000000000000002
1069 0.018000000000000002
1070 0.018000000000000002
1071 0.018000000000000002
1072 0.018000000000000002
1073 0.018000000000000002
1074 0.018000000000000002
1075 0.018000000000000002
1076 0.018000000000000002
1077 0.018000000000000002
1078 0.018000000000000002
1079 0.018000000000000002
1080 0.018000000000000002
1081 0.018000000000000002
1082 0.018000000000000002
1083 0.018000000000000002
1084 0.018000000000000002
1085 0.018000000000000002
1086 0.018000000000000002
1087 0.018000000000000002
1088 0.018000000000000002
1089 0.018000000000000002
1090 0.018000000000000002
1091 0.018000000000000002
1092 0.018000000000000002
1093 0.018000000000000002
1094 0.026000000000000002
1095 0.018000000000000002
1096 0.018000000000000002
1097 0.018000000000000002
1098 0.018000000000000002
1099 0.018000000000000002
1100 0.018000000000000002
1101 0.018000000000000002
1102 0.018000000000000002
1103 0.018000000000000002
1104 0.018000000000000002
1105 0.018000000000000002
1106 0.018000000000000002
1107 0.018000000000000002
1108 0.018000000000000002
1109 0.018000000000000002
1110 0.018000000000000002
1111 0.018000000000000002
1112 0.018000000000000002
1113 0.018000000000000002
1114 0.018000000000000002
1115 0.018000000000000002
1116 0.018000000000000002
1117 0.018000000000000002
1118 0.018000000000000002
1119 0.018000000000000002
1120 0.018000000000000002
1121 0.018000000000000002
1122 0.018000000000000002
1123 0.018000000000000002
1124 0.018000000000000002
1125 0.018000000000000002
1126 0.018000000000000002
1127 0.018000000000000002
1128 0.026000000000000002
1129 0.018000000000000002
1130 0.018000000000000002
1131 0.018000000000000002
1132 0.018000000000000002
1133 0.018000000000000002
1134 0.018000000000000002
1135 0.018000000000000002
1136 0.018000000000000002
1137 0.018000000000000002
1138 0.018000000000000002
1139 0.018000000000000002
1140 0.018000000000000002
1141 0.018000000000000002
1142 0.018000000000000002
1143 0.018000000000000002
1144 0.018000000000000002
1145 0.018000000000000002
1146 0.018000000000000002
1147 0.018000000000000002
1148 0.018000000000000002
1149 0.018000000000000002
1150 0.018000000000000002
1151 0.018000000000000002
1152 0.018000000000000002
1153 0.018000000000000002
1154 0.018000000000000002
1155 0.018000000000000002
1156 0.018000000000000002
1157 0.018000000000000002
1158 0.018000000000000002
1159 0.018000000000000002
1160 0.018000000000000002
1161 0.018000000000000002
1162 0.026000000000000002
1163 0.018000000000000002
1164 0.018000000000000002
1165 0.018000000000000002
1166 0.018000000000000002
1167 0.018000000000000002
1168 0.018000000000000002
1169 0.018000000000000002
1170 0.018000000000000002
1171 0.018000000000000002
1172 0.018000000000000002
1173 0.018000000000000002
1174 0.018000000000000002
1175 0.018000000000000002
1176 0.018000000000000002
1177 0.018000000000000002
1178 0.018000000000000002
1179 0.018000000000000002
1180 0.018000000000000002
1181 0.018000000000000002
1182 0.018000000000000002
1183 0.018000000000000002
1184 0.018000000000000002
1185 0.018000000000000002
1186 0.018000000000000002
1187 0.018000000000000002
1188 0.018000000000000002
1189 0.018000000000000002
1190 0.018000000000000002
1191 0.018000000000000002
1192 0.018000000000000002
1193 0.018000000000000002
1194 0.018000000000000002
1195 0.018000000000000002
1196 0.026000000000000002
1197 0.018000000000000002
1198 0.018000000000000002
1199 0.018000000000000002
1200 0.018000000000000002
1201 0.018000000000000002
1202 0.018000000000000002
1203 0.018000000000000002
1204 0.018000000000000002
1205 0.018000000000000002
1206 0.018000000000000002
1207 0.018000000000000002
1208 0.018000000000000002
1209 0.018000000000000002
1210 0.018000000000000002
1211 0.018000000000000002
1212 0.018000000000000002
1213 0.018000000000000002
1214 0.018000000000000002
1215 0.018000000000000002
1216 0.018000000000000002
1217 0.018000000000000002
1218 0.018000000000000002
1219 0.018000000000000002
1220 0.018000000000000002
1221 0.018000000000000002
1222 0.018000000000000002
1223 0.018000000000000002
1224 0.018000000000000002
1225 0.018000000000000002
1226 0.018000000000000002
1227 0.018000000000000002
1228 0.018000000000000002
1229 0.018000000000000002
1230 0.026000000000000002
1231 0.018000000000000002
1232 0.018000000000000002
1233 0.018000000000000002
1234 0.018000000000000002
1235 0.018000000000000002
1236 0.018000000000000002
1237 0.018000000000000002
1238 0.018000000000000002
1239 0.018000000000000002
1240 0.018000000000000002
1241 0.018000000000000002
1242 0.018000000000000002
1243 0.018000000000000002
1244 0.018000000000000002
1245 0.018000000000000002
1246 0.018000000000000002
1247 0.018000000000000002
1248 0.018000000000000002
1249 0.018000000000000002
1250 0.018000000000000002
1251 0.018000000000000002
1252 0.018000000000000002
1253 0.018000000000000002
1254 0.018000000000000002
1255 0.018000000000000002
1256 0.018000000000000002
1257 0.018000000000000002
1258 0.018000000000000002
1259 0.018000000000000002
1260 0.018000000000000002
1261 0.060000000000000005
1262 0.060000000000000005
1263 0.060000000000000005
1264 0.060000000000000005
1265 0.060000000000000005
1266 0.060000000000000005
1267 0.060000000000000005
1268 0.060000000000000005
1269 0.060000000000000005
1270 0.060000000000000005
1271 0.060000000000000005
1272 0.060000000000000005
1273 0.060000000000000005
1274 0.060000000000000005
1275 0.060000000000000005
1276 0.060000000000000005
1277 0.060000000000000005
1278 0.060000000000000005
1279 0.060000000000000005
1280 0.060000000000000005
1281 0.060000000000000005
1282 0.060000000000000005
1283 0.060000000000000005
1284 0.060000000000000005
1285 0.060000000000000005
1286 0.060000000000000005
1287 0.060000000000000005
1288 0.060000000000000005
1289 0.060000000000000005
1290 0.060000000000000005
1291 0.060000000000000005
1292 0.060000000000000005
1293 0.060000000000000005
1294 0.060000000000000005
1295 0.060000000000000005
1296 0.060000000000000005
1297 0.060000000000000005
1298 0.060000000000000005
1299 0.060000000000000005
1300 0.060000000000000005
1301 0.060000000000000005
1302 0.060000000000000005
1303 0.060000000000000005
1304 0.060000000000000005
1305 0.060000000000000005
1306 0.060000000000000005
1307 0.060000000000000005
1308 0.060000000000000005
1309 0.060000000000000005
1310 0.060000000000000005
1311 0.060000000000000005
1312 0.060000000000000005
1313 0.060000000000000005
1314 0.060000000000000005
1315 0.060000000000000005
1316 0.060000000000000005
1317 0.060000000000000005
1318 0.060000000000000005
1319 0.060000000000000005
1320 0.060000000000000005
1321 0.060000000000000005
1322 0.060000000000000005
1323 0.060000000000000005
1324 0.060000000000000005
1325 0.060000000000000005
1326 0.060000000000000005
1327 0.060000000000000005
1328 0.060000000000000005
1329 0.060000000000000005
1330 0.060000000000000005
1331 0.060000000000000005
1332 0.060000000000000005
$EndElementData
$ElementData
1
"MaterialID"
1
0
3
0
1
1332
1 3
2 3
3 3
4 3
5 3
6 3
7 3
8 3
9 3
10 3
11 3
12 3
13 3
14 3
15 3
16 3
17 3
18 3
19 3
20 3
21 3
22 3
23 3
24 3
25 3
26 3
27 3
28 3
29 3
30 3
31 3
32 3
33 3
34 3
35 3
36 3
37 3
38 3
39 3
40 3
41 3
42 3
43 3
44 3
45 3
46 3
47 3
48 3
49 3
50 3
51 3
52 3
53 3
54 3
55 3
56 3
57 3
58 3
59 3
60 3
61 3
62 3
63 3
64 3
65 3
66 3
67 3
68 3
69 3
70 3
71 3
72 3
73 3
74 3
75 3
76 3
77 3
78 3
79 3
80 3
81 3
82 3
83 3
84 3
85 3
86 3
87 3
88 3
89 3
90 3
91 3
92 3
93 3
94 3
95 3
96 3
97 3
98 3
99 3
100 3
101 3
102 3
103 3
104 3
105 3
106 3
107 3
108 3
109 3
110 3
111 3
112 3
113 3
114 3
115 3
116 3
117 3
118 3
119 3
120 3
121 3
122 3
123 3
124 3
125 3
126 3
127 3
128 3
129 3
130 3
131 3
132 3
133 3
134 3
135 3
136 3
137 3
138 3
139 3
140 3
141 3
142 3
143 3
144 3
145 3
146 3
147 3
148 3
149 3
150 3
151 3
152 3
153 3
154 3
155 3
156 3
157 3
158 3
159 3
160 3
161 3
162 3
163 3
164 3
165 3
166 3
167 3
168 3
169 3
170 3
171 3
172 3
173 3
174 3
175 3
176 3
177 3
178 3
179 3
180 3
181 3
182 3
183 3
184 3
185 3
186 3
187 3
188 3
189 3
190 3
191 3
192 3
193 3
194 3
195 3
196 3
197 3
198 3
199 3
200 3
201 3
202 3
203 3
204 3
205 3
206 3
207 3
208 3
209 3
210 3
211 3
212 3
213 3
214 3
215 3
216 3
217 3
218 3
219 3
220 3
221 3
222 3
223 3
224 3
225 3
226 3
227 3
228 3
229 3
230 3
231 3
232 3
233 3
234 3
235 3
236 3
237 3
238 3
239 3
240 3
241 3
242 3
243 3
244 3
245 3
246 3
247 3
248 3
249 3
250 3
251 3
252 3
253 3
254 3
255 3
256 3
257 3
258 3
259 3
260 3
261 3
262 3
263 3
264 3
265 3
266 3
267 3
268 3
269 3
270 3
271 3
272 3
273 3
274 3
275 3
276 3
277 3
278 3
279 3
280 3
281 3
282 3
283 3
284 3
285 3
286 3
287 3
288 3
289 3
290 3
291 3
292 3
293 3
294 3
295 3
296 3
297 3
298 3
299 3
300 3
301 3
302 3
303 3
304 3
305 3
306 3
307 3
308 3
309 3
310 3
311 3
312 3
313 3
314 3
315 3
316 3
317 3
318 3
319 3
320 3
321 3
322 3
323 3
324 3
325 3
326 3
327 3
328 3
329 3
330 3
331 3
332 3
333 3
334 3
335 3
336 3
337 3
338 3
339 3
340 3
341 3
342 3
343 3
344 3
345 3
346 3
347 3
348 3
349 3
350 3
351 3
352 3
353 3
354 3
355 3
356 3
357 3
358 3
359 3
360 3
361 3
362 3
363 3
364 3
365 3
366 3
367 3
368 3
369 3
370 3
371 3
372 3
373 3
374 3
375 3
376 3
377 3
378 3
379 3
380 3
381 3
382 3
383 3
384 3
385 3
386 3
387 3
388 3
389 3
390 3
391 3
392 3
393 3
394 3
395 3
396 3
397 3
398 3
399 3
400 3
401 3
402 3
403 3
404 3
405 3
406 3
407 3
408 3
409 3
410 3
411 3
412 3
413 3
414 3
415 3
416 3
417 3
418 3
419 3
420 3
421 3
422 3
423 3
424 3
425 3
426 3
427 3
428 3
429 3
430 3
431 3
432 3
433 3
434 3
435 3
436 3
437 3
438 3
439 3
440 3
441 3
442 3
443 3
444 3
445 3
446 3
447 3
448 3
449 3
450 3
451 3
452 3
453 3
454 3
455 3
456 3
457 3
458 3
459 3
460 3
461 3
462 3
463 3
464 3
465 3
466 3
467 3
468 3
469 3
470 3
471 3
472 3
473 3
474 3
475 3
476 3
477 3
478 3
479 3
480 3
481 3
482 3
483 3
484 3
485 3
486 3
487 3
488 3
489 3
490 3
491 3
492 3
493 3
494 3
495 3
496 3
497 3
498 3
499 3
500 3
501 3
502 3
503 3
504 3
505 3
506 3
507 3
508 3
509 3
510 3
511 3
512 3
513 3
514 3
515 3
516 3
517 3
518 3
519 3
520 3
521 3
522 3
523 3
524 3
525 3
526 3
527 3
528 3
529 3
530 3
531 3
532 3
533 3
534 3
535 3
536 3
537 3
538 3
539 3
540 3
541 3
542 3
543 3
544 3
545 3
546 3
547 3
548 3
549 3
550 3
551 3
552 3
553 3
554 3
555 3
556 3
557 3
558 3
559 3
560 3
561 3
562 3
563 3
564 3
565 3
566 3
567 3
568 3
569 3
570 3
571 3
572 3
573 3
574 3
575 3
576 3
577 3
578 3
579 3
580 3
581 3
582 3
583 3
584 3
585 3
586 3
587 3
588 3
589 3
590 3
591 3
592 3
593 3
594 3
595 3
596 3
597 3
598 3
599 3
600 3
601 3
602 3
603 3
604 3
605 3
606 3
607 3
608 3
609 3
610 3
611 3
612 3
613 3
614 3
615 3
616 3
617 3
618 3
619 3
620 3
621 3
622 3
623 3
624 3
625 3
626 3
627 3
628 3
629 3
630 3
631 3
632 3
633 3
634 3
635 3
636 3
637 3
638 3
639 3
640 3
641 3
642 3
643 3
644 3
645 3
646 3
647 3
648 3
649 3
650 3
651 3
652 3
653 3
654 3
655 3
656 3
657 3
658 3
659 3
660 3
661 3
662 3
663 3
664 3
665 3
666 3
667 3
668 3
669 3
670 3
671 3
672 3
673 3
674 3
675 3
676 3
677 3
678 3
679 3
680 3
681 3
682 3
683 3
684 3
685 3
686 3
687 3
688 3
689 3
690 3
691 3
692 3
693 3
694 3
695 3
696 3
697 3
698 3
699 3
700 3
701 3
702 3
703 3
704 3
705 3
706 3
707 3
708 3
709 3
710 3
711 3
712 3
713 3
714 3
715 3
716 3
717 3
718 3
719 3
720 3
721 3
722 3
723 3
724 3
725 3
726 3
727 3
728 3
729 3
730 3
731 3
732 3
733 3
734 3
735 3
736 3
737 3
738 3
739 3
740 3
741 3
742 3
743 3
744 3
745 3
746 3
747 3
748 3
749 3
750 3
751 3
752 3
753 3
754 3
755 3
756 3
757 3
758 3
759 3
760 3
761 3
762 3
763 3
764 3
765 3
766 3
767 3
768 3
769 3
770 3
771 3
772 3
773 3
774 3
775 3
776 3
777 3
778 3
779 3
780 3
781 3
782 3
783 3
784 3
785 3
786 3
787 3
788 3
789 3
790 3
791 3
792 3
793 3
794 3
795 3
796 3
797 3
798 3
799 3
800 3
801 3
802 3
803 3
804 3
805 3
806 3
807 3
808 3
809 3
810 3
811 3
812 3
813 3
814 3
815 3
816 3
817 3
818 3
819 3
820 3
821 3
822 3
823 3
824 3
825 3
826 3
827 3
828 3
829 3
830 3
831 3
832 3
833 3
834 3
835 3
836 3
837 3
838 3
839 3
840 3
841 3
842 3
843 3
844 3
845 3
846 3
847 3
848 3
849 3
850 3
851 3
852 3
853 3
854 3
855 3
856 3
857 3
858 3
859 3
860 3
861 3
862 3
863 3
864 3
865 3
866 3
867 3
868 3
869 3
870 3
871 3
872 3
873 3
874 3
875 3
876 3
877 3
878 3
879 3
880 3
881 3
882 3
883 3
884 3
885 3
886 3
887 3
888 3
889 3
890 3
891 3
892 3
893 3
894 3
895 3
896 3
897 3
898 3
899 3
900 3
901 3
902 3
903 3
904 3
905 3
906 3
907 3
908 3
909 3
910 3
911 3
912 3
913 3
914 3
915 3
916 3
917 3
918 3
919 3
920 3
921 3
922 3
923 3
924 3
925 3
926 3
927 3
928 3
929 3
930 3
931 3
932 3
933 3
934 3
935 3
936 3
937 3
938 3
939 3
940 3
941 3
942 3
943 3
944 3
945 3
946 3
947 3
948 3
949 3
950 3
951 3
952 3
953 3
954 3
955 3
956 3
957 3
958 3
959 3
960 3
961 3
962 3
963 3
964 3
965 3
966 3
967 3
968 3
969 3
970 3
971 3
972 3
973 3
974 3
975 3
976 3
977 3
978 3
979 3
980 3
981 3
982 3
983 3
984 3
985 3
986 3
987 3
988 3
989 3
990 3
991 3
992 3
993 3
994 3
995 3
996 3
997 3
998 3
999 3
1000 3
1001 3
1002 3
1003 3
1004 3
1005 3
1006 3
1007 3
1008 3
1009 3
1010 3
1011 3
1012 3
1013 3
1014 3
1015 3
1016 3
1017 3
1018 3
1019 3
1020 3
1021 3
1022 3
1023 3
1024 3
1025 3
1026 3
1027 3
1028 3
1029 3
1030 3
1031 3
1032 3
1033 3
1034 3
1035 3
1036 3
1037 3
1038 3
1039 3
1040 3
1041 3
1042 3
1043 3
1044 3
1045 3
1046 3
1047 3
1048 3
1049 3
1050 3
1051 3
1052 3
1053 3
1054 3
1055 3
1056 3
1057 3
1058 3
1059 3
1060 3
1061 3
1062 3
1063 3
1064 3
1065 3
1066 3
1067 3
1068 3
1069 3
1070 3
1071 3
1072 3
1073 3
1074 3
1075 3
1076 3
1077 3
1078 3
1079 3
1080 3
1081 3
1082 3
1083 3
1084 3
1085 3
1086 3
1087 3
1088 3
1089 3
1090 3
1091 3
1092 3
1093 3
1094 3
1095 3
1096 3
1097 3
1098 3
1099 3
1100 3
1101 3
1102 3
1103 3
1104 3
1105 3
1106 3
1107 3
1108 3
1109 3
1110 3
1111 3
1112 3
1113 3
1114 3
1115 3
1116 3
1117 3
1118 3
1119 3
1120 3
1121 3
1122 3
1123 3
1124 3
1125 3
1126 3
1127 3
1128 3
1129 3
1130 3
1131 3
1132 3
1133 3
1134 3
1135 3
1136 3
1137 3
1138 3
1139 3
1140 3
1141 3
1142 3
1143 3
1144 3
1145 3
1146 3
1147 3
1148 3
1149 3
1150 3
1151 3
1152 3
1153 3
1154 3
1155 3
1156 3
1157 3
1158 3
1159 3
1160 3
1161 3
1162 3
1163 3
1164 3
1165 3
1166 3
1167 3
1168 3
1169 3
1170 3
1171 3
1172 3
1173 3
1174 3
1175 3
1176 3
1177 3
1178 3
1179 3
1180 3
1181 3
1182 3
1183 3
1184 3
1185 3
1186 3
1187 3
1188 3
1189 3
1190 3
1191 3
1192 3
1193 3
1194 3
1195 3
1196 3
1197 3
1198 3
1199 3
1200 3
1201 3
1202 3
1203 3
1204 3
1205 3
1206 3
1207 3
1208 3
1209 3
1210 3
1211 3
1212 3
1213 3
1214 3
1215 3
1216 3
1217 3
1218 3
1219 3
1220 3
1221 3
1222 3
1223 3
1224 3
1225 3
1226 3
1227 3
1228 3
1229 3
1230 3
1231 3
1232 3
1233 3
1234 3
1235 3
1236 3
1237 3
1238 3
1239 3
1240 3
1241 3
1242 3
1243 3
1244 3
1245 3
1246 3
1247 3
1248 3
1249 3
1250 3
1251 3
1252 3
1253 3
1254 3
1255 3
1256 3
1257 3
1258 3
1259 3
1260 3
1261 3
1262 3
1263 3
1264 3
1265 3
1266 3
1267 3
1268 3
1269 3
1270 3
1271 3
1272 3
1273 3
1274 3
1275 3
1276 3
1277 3
1278 3
1279 3
1280 3
1281 3
1282 3
1283 3
1284 3
1285 3
1286 3
1287 3
1288 3
1289 3
1290 3
1291 3
1292 3
1293 3
1294 3
1295 3
1296 3
1297 3
1298 3
1299 3
1300 3
1301 3
1302 3
1303 3
1304 3
1305 3
1306 3
1307 3
1308 3
1309 3
1310 3
1311 3
1312 3
1313 3
1314 3
1315 3
1316 3
1317 3
1318 3
1319 3
1320 3
1321 3
1322 3
1323 3
1324 3
1325 3
1326 3
1327 3
1328 3
1329 3
1330 3
1331 3
1332 3
$EndElementData
