$MeshFormat
4.1 0 8
$EndMeshFormat
$PhysicalNames
1
1 1 "Material:Structural Steel (AISI 4130)"
$EndPhysicalNames
$Entities
0 1 0 0
1 0 12.5 0 20 17.6 40 1 1 0
$EndEntities
$Nodes
1 66 1 66
1 1 0 66
1
2
3
4
5
6
7
8
9
10
11
12
13
14
15
16
17
18
19
20
21
22
23
24
25
26
27
28
29
30
31
32
33
34
35
36
37
38
39
40
41
42
43
44
45
46
47
48
49
50
51
52
53
54
55
56
57
58
59
60
61
62
63
64
65
66
0 16 0
4 16.32 0
8 16.64 0
12 16.96 0
16 17.28 0
20 17.6 0
0 12.5 0
4 13.12 0
8 13.74 0
12 14.36 0
16 14.98 0
0 16 8
4 16.32 8
8 16.64 8
12 16.96 8
16 17.28 8
20 17.6 8
0 12.5 8
4 13.12 8
8 13.74 8
12 14.36 8
16 14.98 8
0 16 16
4 16.32 16
8 16.64 16
12 16.96 16
16 17.28 16
20 17.6 16
0 12.5 16
4 13.12 16
8 13.74 16
12 14.36 16
16 14.98 16
0 16 24
4 16.32 24
8 16.64 24
12 16.96 24
16 17.28 24
20 17.6 24
0 12.5 24
4 13.12 24
8 13.74 24
12 14.36 24
16 14.98 24
0 16 32
4 16.32 32
8 16.64 32
12 16.96 32
16 17.28 32
20 17.6 32
0 12.5 32
4 13.12 32
8 13.74 32
12 14.36 32
16 14.98 32
0 16 40
4 16.32 40
8 16.64 40
12 16.96 40
16 17.28 40
20 17.6 40
0 12.5 40
4 13.12 40
8 13.74 40
12 14.36 40
16 14.98 40
$EndNodes
$Elements
1 264 1 264
1 1 1 264
1 1 2
2 1 7
3 1 8
4 1 12
5 1 13
6 1 19
7 2 3
8 2 8
9 2 9
10 2 13
11 2 14
12 2 20
13 3 4
14 3 9
15 3 10
16 3 14
17 3 15
18 3 21
19 4 5
20 4 10
21 4 11
22 4 15
23 4 16
24 4 22
25 5 6
26 5 11
27 5 16
28 5 17
29 6 11
30 6 17
31 7 8
32 7 12
33 7 18
34 7 19
35 8 9
36 8 13
37 8 19
38 8 20
39 9 10
40 9 14
41 9 20
42 9 21
43 10 11
44 10 15
45 10 21
46 10 22
47 11 16
48 11 17
49 11 22
50 12 13
51 12 18
52 12 19
53 12 23
54 12 24
55 12 30
56 13 14
57 13 19
58 13 20
59 13 24
60 13 25
61 13 31
62 14 15
63 14 20
64 14 21
65 14 25
66 14 26
67 14 32
68 15 16
69 15 21
70 15 22
71 15 26
72 15 27
73 15 33
74 16 17
75 16 22
76 16 27
77 16 28
78 17 22
79 17 28
80 18 19
81 18 23
82 18 29
83 18 30
84 19 20
85 19 24
86 19 30
87 19 31
88 20 21
89 20 25
90 20 31
91 20 32
92 21 22
93 21 26
94 21 32
95 21 33
96 22 27
97 22 28
98 22 33
99 23 24
100 23 29
101 23 30
102 23 34
103 23 35
104 23 41
105 24 25
106 24 30
107 24 31
108 24 35
109 24 36
110 24 42
111 25 26
112 25 31
113 25 32
114 25 36
115 25 37
116 25 43
117 26 27
118 26 32
119 26 33
120 26 37
121 26 38
122 26 44
123 27 28
124 27 33
125 27 38
126 27 39
127 28 33
128 28 39
129 29 30
130 29 34
131 29 40
132 29 41
133 30 31
134 30 35
135 30 41
136 30 42
137 31 32
138 31 36
139 31 42
140 31 43
141 32 33
142 32 37
143 32 43
144 32 44
145 33 38
146 33 39
147 33 44
148 34 35
149 34 40
150 34 41
151 34 45
152 34 46
153 34 52
154 35 36
155 35 41
156 35 42
157 35 46
158 35 47
159 35 53
160 36 37
161 36 42
162 36 43
163 36 47
164 36 48
165 36 54
166 37 38
167 37 43
168 37 44
169 37 48
170 37 49
171 37 55
172 38 39
173 38 44
174 38 49
175 38 50
176 39 44
177 39 50
178 40 41
179 40 45
180 40 51
181 40 52
182 41 42
183 41 46
184 41 52
185 41 53
186 42 43
187 42 47
188 42 53
189 42 54
190 43 44
191 43 48
192 43 54
193 43 55
194 44 49
195 44 50
196 44 55
197 45 46
198 45 51
199 45 52
200 45 56
201 45 57
202 45 63
203 46 47
204 46 52
205 46 53
206 46 57
207 46 58
208 46 64
209 47 48
210 47 53
211 47 54
212 47 58
213 47 59
214 47 65
215 48 49
216 48 54
217 48 55
218 48 59
219 48 60
220 48 66
221 49 50
222 49 55
223 49 60
224 49 61
225 50 55
226 50 61
227 51 52
228 51 56
229 51 62
230 51 63
231 52 53
232 52 57
233 52 63
234 52 64
235 53 54
236 53 58
237 53 64
238 53 65
239 54 55
240 54 59
241 54 65
242 54 66
243 55 60
244 55 61
245 55 66
246 56 57
247 56 62
248 56 63
249 57 58
250 57 63
251 57 64
252 58 59
253 58 64
254 58 65
255 59 60
256 59 65
257 59 66
258 60 61
259 60 66
260 61 66
261 62 63
262 63 64
263 64 65
264 65 66
$EndElements
$NodeData
1
"Fixity"
1
0
3
0
3
66
1 1 1 1
2 0 0 0
3 0 0 0
4 0 0 0
5 0 0 0
6 0 0 0
7 1 1 1
8 0 0 0
9 0 0 0
10 0 0 0
11 0 0 0
12 1 1 1
13 0 0 0
14 0 0 0
15 0 0 0
16 0 0 0
17 0 0 0
18 1 1 1
19 0 0 0
20 0 0 0
21 0 0 0
22 0 0 0
23 1 1 1
24 0 0 0
25 0 0 0
26 0 0 0
27 0 0 0
28 0 0 0
29 1 1 1
30 0 0 0
31 0 0 0
32 0 0 0
33 0 0 0
34 1 1 1
35 0 0 0
36 0 0 0
37 0 0 0
38 0 0 0
39 0 0 0
40 1 1 1
41 0 0 0
42 0 0 0
43 0 0 0
44 0 0 0
45 1 1 1
46 0 0 0
47 0 0 0
48 0 0 0
49 0 0 0
50 0 0 0
51 1 1 1
52 0 0 0
53 0 0 0
54 0 0 0
55 0 0 0
56 1 1 1
57 0 0 0
58 0 0 0
59 0 0 0
60 0 0 0
61 0 0 0
62 1 1 1
63 0 0 0
64 0 0 0
65 0 0 0
66 0 0 0
$EndNodeData
$NodeData
1
"NodalForce"
1
0
3
0
3
66
1 0 0 0
2 0 -7500 0
3 0 -7500 0
4 0 -7500 0
5 0 -7500 0
6 0 -7500 0
7 0 0 0
8 0 0 0
9 0 0 0
10 0 0 0
11 0 0 0
12 0 0 0
13 0 -15000 0
14 0 -15000 0
15 0 -15000 0
16 0 -15000 0
17 0 -15000 0
18 0 0 0
19 0 0 0
20 0 0 0
21 0 0 0
22 0 0 0
23 0 0 0
24 0 -15000 0
25 0 -15000 0
26 0 -15000 0
27 0 -15000 0
28 0 -15000 0
29 0 0 0
30 0 0 0
31 0 0 0
32 0 0 0
33 0 0 0
34 0 0 0
35 0 -15000 0
36 0 -15000 0
37 0 -15000 0
38 0 -15000 0
39 0 -15000 0
40 0 0 0
41 0 0 0
42 0 0 0
43 0 0 0
44 0 0 0
45 0 0 0
46 0 -15000 0
47 0 -15000 0
48 0 -15000 0
49 0 -15000 0
50 0 -15000 0
51 0 0 0
52 0 0 0
53 0 0 0
54 0 0 0
55 0 0 0
56 0 0 0
57 0 -7500 0
58 0 -7500 0
59 0 -7500 0
60 0 -7500 0
61 0 -7500 0
62 0 0 0
63 0 0 0
64 0 0 0
65 0 0 0
66 0 0 0
$EndNodeData
$ElementData
1
"CrossSectionArea"
1
0
3
0
1
264
1 0.006
2 0.003
3 0.003
4 0.0012000000000000001
5 0.0012000000000000001
6 0.0012000000000000001
7 0.006
8 0.003
9 0.003
10 0.0012000000000000001
11 0.0012000000000000001
12 0.0012000000000000001
13 0.006
14 0.003
15 0.003
16 0.0012000000000000001
17 0.0012000000000000001
18 0.0012000000000000001
19 0.006
20 0.003
21 0.003
22 0.0012000000000000001
23 0.0012000000000000001
24 0.0012000000000000001
25 0.006
26 0.003
27 0.0012000000000000001
28 0.0012000000000000001
29 0.006
30 0.0012000000000000001
31 0.006
32 0.0012000000000000001
33 0.0012000000000000001
34 0.0012000000000000001
35 0.006
36 0.0012000000000000001
37 0.0012000000000000001
38 0.0012000000000000001
39 0.006
40 0.0012000000000000001
41 0.0012000000000000001
42 0.0012000000000000001
43 0.006
44 0.0012000000000000001
45 0.0012000000000000001
46 0.0012000000000000001
47 0.0012000000000000001
48 0.0012000000000000001
49 0.0012000000000000001
50 0.006
51 0.003
52 0.003
53 0.0012000000000000001
54 0.0012000000000000001
55 0.0012000000000000001
56 0.006
57 0.003
58 0.003
59 0.0012000000000000001
60 0.0012000000000000001
61 0.0012000000000000001
62 0.006
63 0.003
64 0.003
65 0.0012000000000000001
66 0.0012000000000000001
67 0.0012000000000000001
68 0.006
69 0.003
70 0.003
71 0.0012000000000000001
72 0.0012000000000000001
73 0.0012000000000000001
74 0.006
75 0.003
76 0.0012000000000000001
77 0.0012000000000000001
78 0.006
79 0.0012000000000000001
80 0.006
81 0.0012000000000000001
82 0.0012000000000000001
83 0.0012000000000000001
84 0.006
85 0.0012000000000000001
86 0.0012000000000000001
87 0.0012000000000000001
88 0.006
89 0.0012000000000000001
90 0.0012000000000000001
91 0.0012000000000000001
92 0.006
93 0.0012000000000000001
94 0.0012000000000000001
95 0.0012000000000000001
96 0.0012000000000000001
97 0.0012000000000000001
98 0.0012000000000000001
99 0.006
100 0.003
101 0.003
102 0.0012000000000000001
103 0.0012000000000000001
104 0.0012000000000000001
105 0.006
106 0.003
107 0.003
108 0.0012000000000000001
109 0.0012000000000000001
110 0.0012000000000000001
111 0.006
112 0.003
113 0.003
114 0.0012000000000000001
115 0.0012000000000000001
116 0.0012000000000000001
117 0.006
118 0.003
119 0.003
120 0.0012000000000000001
121 0.0012000000000000001
122 0.0012000000000000001
123 0.006
124 0.003
125 0.0012000000000000001
126 0.0012000000000000001
127 0.006
128 0.0012000000000000001
129 0.006
130 0.0012000000000000001
131 0.0012000000000000001
132 0.0012000000000000001
133 0.006
134 0.0012000000000000001
135 0.0012000000000000001
136 0.0012000000000000001
137 0.006
138 0.0012000000000000001
139 0.0012000000000000001
140 0.0012000000000000001
141 0.006
142 0.0012000000000000001
143 0.0012000000000000001
144 0.0012000000000000001
145 0.0012000000000000001
146 0.0012000000000000001
147 0.0012000000000000001
148 0.006
149 0.003
150 0.003
151 0.0012000000000000001
152 0.0012000000000000001
153 0.0012000000000000001
154 0.006
155 0.003
156 0.003
157 0.0012000000000000001
158 0.0012000000000000001
159 0.0012000000000000001
160 0.006
161 0.003
162 0.003
163 0.0012000000000000001
164 0.0012000000000000001
165 0.0012000000000000001
166 0.006
167 0.003
168 0.003
169 0.0012000000000000001
170 0.0012000000000000001
171 0.0012000000000000001
172 0.006
173 0.003
174 0.0012000000000000001
175 0.0012000000000000001
176 0.006
177 0.0012000000000000001
178 0.006
179 0.0012000000000000001
180 0.0012000000000000001
181 0.0012000000000000001
182 0.006
183 0.0012000000000000001
184 0.0012000000000000001
185 0.0012000000000000001
186 0.006
187 0.0012000000000000001
188 0.0012000000000000001
189 0.0012000000000000001
190 0.006
191 0.0012000000000000001
192 0.0012000000000000001
193 0.0012000000000000001
194 0.0012000000000000001
195 0.0012000000000000001
196 0.0012000000000000001
197 0.006
198 0.003
199 0.003
200 0.0012000000000000001
201 0.0012000000000000001
202 0.0012000000000000001
203 0.006
204 0.003
205 0.003
206 0.0012000000000000001
207 0.0012000000000000001
208 0.0012000000000000001
209 0.006
210 0.003
211 0.003
212 0.0012000000000000001
213 0.0012000000000000001
214 0.0012000000000000001
215 0.006
216 0.003
217 0.003
218 0.0012000000000000001
219 0.0012000000000000001
220 0.0012000000000000001
221 0.006
222 0.003
223 0.0012000000000000001
224 0.0012000000000000001
225 0.006
226 0.0012000000000000001
227 0.006
228 0.0012000000000000001
229 0.0012000000000000001
230 0.0012000000000000001
231 0.006
232 0.0012000000000000001
233 0.0012000000000000001
234 0.0012000000000000001
235 0.006
236 0.0012000000000000001
237 0.0012000000000000001
238 0.0012000000000000001
239 0.006
240 0.0012000000000000001
241 0.0012000000000000001
242 0.0012000000000000001
243 0.0012000000000000001
244 0.0012000000000000001
245 0.0012000000000000001
246 0.006
247 0.003
248 0.003
249 0.006
250 0.003
251 0.003
252 0.006
253 0.003
254 0.003
255 0.006
256 0.003
257 0.003
258 0.006
259 0.003
260 0.006
261 0.006
262 0.006
263 0.006
264 0.006
$EndElementData
$ElementData
1
"MaterialID"
1
0
3
0
1
264
1 0
2 0
3 0
4 0
5 0
6 0
7 0
8 0
9 0
10 0
11 0
12 0
13 0
14 0
15 0
16 0
17 0
18 0
19 0
20 0
21 0
22 0
23 0
24 0
25 0
26 0
27 0
28 0
29 0
30 0
31 0
32 0
33 0
34 0
35 0
36 0
37 0
38 0
39 0
40 0
41 0
42 0
43 0
44 0
45 0
46 0
47 0
48 0
49 0
50 0
51 0
52 0
53 0
54 0
55 0
56 0
57 0
58 0
59 0
60 0
61 0
62 0
63 0
64 0
65 0
66 0
67 0
68 0
69 0
70 0
71 0
72 0
73 0
74 0
75 0
76 0
77 0
78 0
79 0
80 0
81 0
82 0
83 0
84 0
85 0
86 0
87 0
88 0
89 0
90 0
91 0
92 0
93 0
94 0
95 0
96 0
97 0
98 0
99 0
100 0
101 0
102 0
103 0
104 0
105 0
106 0
107 0
108 0
109 0
110 0
111 0
112 0
113 0
114 0
115 0
116 0
117 0
118 0
119 0
120 0
121 0
122 0
123 0
124 0
125 0
126 0
127 0
128 0
129 0
130 0
131 0
132 0
133 0
134 0
135 0
136 0
137 0
138 0
139 0
140 0
141 0
142 0
143 0
144 0
145 0
146 0
147 0
148 0
149 0
150 0
151 0
152 0
153 0
154 0
155 0
156 0
157 0
158 0
159 0
160 0
161 0
162 0
163 0
164 0
165 0
166 0
167 0
168 0
169 0
170 0
171 0
172 0
173 0
174 0
175 0
176 0
177 0
178 0
179 0
180 0
181 0
182 0
183 0
184 0
185 0
186 0
187 0
188 0
189 0
190 0
191 0
192 0
193 0
194 0
195 0
196 0
197 0
198 0
199 0
200 0
201 0
202 0
203 0
204 0
205 0
206 0
207 0
208 0
209 0
210 0
211 0
212 0
213 0
214 0
215 0
216 0
217 0
218 0
219 0
220 0
221 0
222 0
223 0
224 0
225 0
226 0
227 0
228 0
229 0
230 0
231 0
232 0
233 0
234 0
235 0
236 0
237 0
238 0
239 0
240 0
241 0
242 0
243 0
244 0
245 0
246 0
247 0
248 0
249 0
250 0
251 0
252 0
253 0
254 0
255 0
256 0
257 0
258 0
259 0
260 0
261 0
262 0
263 0
264 0
$EndElementData
