$MeshFormat
4.1 0 8
$EndMeshFormat
$PhysicalNames
1
1 1 "Material:Structural Steel S355 (EN 10025)"
$EndPhysicalNames
$Entities
0 1 0 0
1 -161.17628816144565 -2.395167923673315 -52.453024081282535 161.17628816144565 127.27674553274856 3.8382926323303272 1 1 0
$EndEntities
$Nodes
1 183 1 183
1 1 0 183
1
2
3
4
5
6
7
8
9
10
11
12
13
14
15
16
17
18
19
20
21
22
23
24
25
26
27
28
29
30
31
32
33
34
35
36
37
38
39
40
41
42
43
44
45
46
47
48
49
50
51
52
53
54
55
56
57
58
59
60
61
62
63
64
65
66
67
68
69
70
71
72
73
74
75
76
77
78
79
80
81
82
83
84
85
86
87
88
89
90
91
92
93
94
95
96
97
98
99
100
101
102
103
104
105
106
107
108
109
110
111
112
113
114
115
116
117
118
119
120
121
122
123
124
125
126
127
128
129
130
131
132
133
134
135
136
137
138
139
140
141
142
143
144
145
146
147
148
149
150
151
152
153
154
155
156
157
158
159
160
161
162
163
164
165
166
167
168
169
170
171
172
173
174
175
176
177
178
179
180
181
182
183
-161.17628816144565 2.01824705606888 -0.8154247408664257
-155.66185591927717 0.37692086760443533 3.8382926323303272
-155.66185591927717 -2.395167923673315 -3.0228678914639
-155.8932643194632 10.15309985152751 -4.102118613540151
-150.42836784026838 8.435513981184428 0.5824096711094184
-150.42836784026838 5.663425189906677 -6.278750852684809
-150.60766020463305 18.016031994249033 -7.278949411161869
-145.19616989768346 16.21901591227501 -2.562329237889765
-145.19616989768346 13.44692712099726 -9.423489761683992
-145.3192292521617 25.60712793638418 -10.345951254615308
-139.96538537391913 23.727384434800854 -5.595907034225373
-139.96538537391913 20.9552956435231 -12.457067558019599
-140.0276993042952 32.92646891084839 -13.303156964128702
-134.7361503478524 30.960578932304223 -8.518307307783283
-134.7361503478524 28.188490141026474 -15.37946783157751
-134.73277024831475 39.97413073141351 -16.150597170454155
-129.50861487584262 37.91856149789919 -11.32951474318744
-129.50861487584262 35.14647270662143 -18.190675266981664
-129.43411162085852 46.75018101971384 -18.888299194505365
-124.28294418957074 44.6012983207686 -14.029515679980994
-124.28294418957073 41.829209529490846 -20.89067620377522
-124.13136026299415 53.254675745204075 -21.516285649409866
-119.05931986850293 51.00876141618516 -16.618298811600198
-119.05931986850293 48.236672624907406 -23.479459335394424
-118.82411814808101 59.487654950823526 -24.034572713565307
-113.83794092595949 57.14093076267911 -19.095856048846187
-113.83794092595949 54.36884197140136 -25.957016572640413
-113.5119505533028 65.44913752695298 -26.443168019180938
-108.6190247233486 62.99779691506017 -21.462183575614382
-108.6190247233486 60.22570812378242 -28.32334409940861
-108.1943848077852 71.1391148923676 -28.742068099216876
-103.4028075961074 68.57936416394067 -23.717283125424686
-103.4028075961074 65.80727537266291 -30.578443649218915
-102.87090992697061 76.55754344793351 -30.931255338479613
-98.1895450365147 73.8856543088876 -25.861163505873883
-98.1895450365147 71.11356551760984 -32.722324029668115
-97.54097753484848 81.70433569323662 -33.010694384507076
-92.97951123257576 78.91671110010799 -27.893842393192998
-92.97951123257576 76.14462230883024 -34.75500291698722
-92.2040045810786 86.57934994680865 -34.98032799427038
-87.7729977094607 83.67260537833596 -29.81534840889646
-87.7729977094607 80.9005165870582 -36.67650893269069
-86.85937847373619 91.18237869797517 -36.8400723280149
-82.57031076313191 88.15344089890876 -31.6257234728616
-82.57031076313191 85.38135210763099 -38.48688399665582
-81.50646535947506 95.51313575524772 -38.58981175687371
-77.37176732026246 92.35936075757058 -33.32502539952187
-77.37176732026246 89.58727196629283 -40.186185923316096
-76.14462237238794 99.5712425556914 -40.22939333149295
-72.17768881380603 96.2905542357889 -34.9133306635542
-72.17768881380603 93.51846544451115 -41.774491187348424
-70.7732147111412 103.35621427248478 -41.75862116912179
-66.9883926444294 99.94726374697444 -36.390737206334016
-66.9883926444294 97.17517495569669 -43.251897730128235
-65.3916383490202 106.86744670729502 -43.17725115778816
-61.8041808254899 103.3297913902936 -37.75736708384734
-61.804180825489894 100.55770259901584 -44.61852760764157
-59.99934897922465 110.10420536874662 -44.4849865437137
-56.625325510387675 106.43850441143414 -39.01336867298336
-56.625325510387675 103.66641562015639 -45.87452919677759
-54.59589738683574 113.06561858251553 -45.68147514761112
-51.45205130658213 109.27383864755808 -40.15891806338572
-51.45205130658213 106.50174985628033 -47.020078587179945
-49.18097076308667 115.7506768823784 -46.766309118652075
-46.28451461845667 111.83629883177709 -41.194219180468586
-46.28451461845667 109.06421004049933 -48.05537970426281
-43.75443850746029 118.15824118370227 -47.73902823677142
-41.122780746269854 114.12645450640767 -42.11950213426456
-41.122780746269854 111.35436571512992 -48.98066265805878
-38.31639982739088 120.28706219221412 -48.599127754319056
-35.96680008630456 116.14493031858632 -42.93501929859865
-35.96680008630456 113.37284152730855 -49.796179822392865
-32.86722906620227 122.13581298565796 -49.34607155990392
-30.816385466898865 117.892389729441 -43.64103872916639
-30.816385466898865 115.12030093816325 -50.502199252960615
-27.407613409302073 123.70313558785278 -49.97931099553483
-25.671193295348964 119.36951172706227 -44.2378347549634
-25.671193295348964 116.59742293578452 -51.09899527875763
-21.938576793591093 124.98770059656509 -50.49830894784477
-20.530711603204452 120.5769610125669 -44.72567593267319
-20.530711603204452 117.80487222128914 -51.58683645646742
-16.46148388935111 125.98827666693823 -50.902567921218605
-15.394258055324444 121.5153532583831 -45.10481101010329
-15.394258055324443 118.74326446710532 -51.9659715338975
-10.978019286080558 126.70380425327612 -51.191659831407634
-10.260990356959722 122.18521823735904 -45.375454029378076
-10.26099035695972 119.41312944608129 -52.2366145531723
-5.490139612510652 127.13346603524276 -51.36525445956123
-5.129930193744674 122.58696460966262 -45.53777009992286
-5.129930193744674 119.81487581838486 -52.398930623717085
0 127.27674553274856 -51.423143134178055
0 122.72085061533869 -45.59186355748831
0 119.94876182406094 -52.453024081282535
5.490139612510653 127.13346603524276 -51.36525445956123
5.1299301937446735 122.58696460966262 -45.53777009992286
5.1299301937446735 119.81487581838486 -52.398930623717085
10.978019286080558 126.70380425327612 -51.191659831407634
10.260990356959722 122.18521823735904 -45.375454029378076
10.26099035695972 119.41312944608129 -52.2366145531723
16.461483889351115 125.98827666693823 -50.902567921218605
15.394258055324443 121.5153532583831 -45.10481101010329
15.394258055324443 118.74326446710532 -51.9659715338975
21.938576793591093 124.98770059656509 -50.49830894784477
20.530711603204452 120.5769610125669 -44.72567593267319
20.530711603204452 117.80487222128914 -51.58683645646742
27.407613409302073 123.70313558785278 -49.97931099553483
25.671193295348964 119.36951172706227 -44.2378347549634
25.671193295348964 116.59742293578452 -51.09899527875763
32.86722906620227 122.13581298565796 -49.34607155990392
30.816385466898865 117.892389729441 -43.64103872916639
30.816385466898865 115.12030093816325 -50.502199252960615
38.31639982739088 120.28706219221412 -48.599127754319056
35.96680008630456 116.1449303185863 -42.93501929859864
35.96680008630456 113.37284152730854 -49.79617982239286
43.754438507460286 118.15824118370227 -47.73902823677142
41.122780746269854 114.12645450640767 -42.11950213426456
41.122780746269854 111.35436571512992 -48.98066265805878
49.18097076308667 115.7506768823784 -46.766309118652075
46.28451461845667 111.83629883177709 -41.194219180468586
46.28451461845667 109.06421004049933 -48.05537970426281
54.59589738683574 113.06561858251554 -45.681475147611124
51.45205130658213 109.2738386475581 -40.15891806338573
51.45205130658213 106.50174985628034 -47.02007858717995
59.99934897922465 110.10420536874662 -44.4849865437137
56.625325510387675 106.43850441143414 -39.01336867298336
56.625325510387675 103.66641562015639 -45.87452919677759
65.3916383490202 106.86744670729503 -43.17725115778816
61.8041808254899 103.32979139029361 -37.75736708384734
61.804180825489894 100.55770259901585 -44.61852760764157
70.7732147111412 103.35621427248478 -41.75862116912179
66.9883926444294 99.94726374697444 -36.390737206334016
66.9883926444294 97.17517495569669 -43.251897730128235
76.14462237238794 99.57124255569143 -40.22939333149296
72.17768881380603 96.29055423578892 -34.913330663554206
72.17768881380603 93.51846544451116 -41.77449118734843
81.50646535947506 95.51313575524772 -38.58981175687371
77.37176732026246 92.35936075757058 -33.32502539952187
77.37176732026246 89.58727196629283 -40.186185923316096
86.85937847373619 91.18237869797517 -36.8400723280149
82.57031076313191 88.15344089890876 -31.6257234728616
82.57031076313191 85.38135210763099 -38.48688399665582
92.2040045810786 86.57934994680865 -34.98032799427038
87.7729977094607 83.67260537833596 -29.81534840889646
87.7729977094607 80.9005165870582 -36.67650893269069
97.54097753484848 81.7043356932366 -33.01069438450707
92.97951123257576 78.91671110010799 -27.89384239319299
92.97951123257576 76.14462230883024 -34.75500291698722
102.87090992697061 76.55754344793351 -30.931255338479613
98.1895450365147 73.8856543088876 -25.861163505873883
98.1895450365147 71.11356551760984 -32.722324029668115
108.1943848077852 71.1391148923676 -28.742068099216876
103.4028075961074 68.57936416394067 -23.717283125424686
103.4028075961074 65.80727537266291 -30.578443649218915
113.5119505533028 65.44913752695298 -26.443168019180938
108.6190247233486 62.99779691506017 -21.462183575614382
108.6190247233486 60.22570812378242 -28.32334409940861
118.82411814808101 59.487654950823526 -24.034572713565307
113.83794092595949 57.14093076267911 -19.095856048846187
113.83794092595949 54.36884197140136 -25.957016572640413
124.13136026299415 53.254675745204075 -21.516285649409866
119.05931986850293 51.00876141618516 -16.618298811600198
119.05931986850293 48.236672624907406 -23.479459335394424
129.43411162085852 46.75018101971384 -18.888299194505365
124.28294418957074 44.6012983207686 -14.029515679980994
124.28294418957073 41.829209529490846 -20.89067620377522
134.73277024831475 39.97413073141354 -16.150597170454166
129.50861487584262 37.91856149789922 -11.32951474318745
129.50861487584262 35.14647270662146 -18.190675266981675
140.0276993042952 32.92646891084839 -13.303156964128702
134.7361503478524 30.960578932304223 -8.518307307783283
134.7361503478524 28.188490141026474 -15.37946783157751
145.3192292521617 25.607127936384206 -10.345951254615319
139.96538537391913 23.727384434800882 -5.595907034225384
139.96538537391913 20.95529564352313 -12.45706755801961
150.60766020463305 18.016031994249033 -7.278949411161869
145.19616989768346 16.21901591227501 -2.562329237889765
145.19616989768346 13.44692712099726 -9.423489761683992
155.8932643194632 10.153099851527537 -4.102118613540162
150.42836784026838 8.435513981184455 0.5824096711094069
150.42836784026838 5.663425189906704 -6.278750852684819
161.17628816144565 2.01824705606888 -0.8154247408664257
155.66185591927717 0.37692086760443533 3.8382926323303272
155.66185591927717 -2.395167923673315 -3.0228678914639
$EndNodes
$Elements
1 543 1 543
1 1 1 543
1 1 2
2 1 3
3 1 4
4 1 5
5 2 3
6 2 5
7 3 4
8 3 5
9 3 6
10 4 5
11 4 6
12 4 7
13 4 9
14 5 6
15 5 7
16 5 8
17 5 9
18 6 9
19 7 8
20 7 9
21 7 10
22 7 11
23 8 9
24 8 11
25 9 10
26 9 11
27 9 12
28 10 11
29 10 12
30 10 13
31 10 15
32 11 12
33 11 13
34 11 14
35 11 15
36 12 15
37 13 14
38 13 15
39 13 16
40 13 17
41 14 15
42 14 17
43 15 16
44 15 17
45 15 18
46 16 17
47 16 18
48 16 19
49 16 21
50 17 18
51 17 19
52 17 20
53 17 21
54 18 21
55 19 20
56 19 21
57 19 22
58 19 23
59 20 21
60 20 23
61 21 22
62 21 23
63 21 24
64 22 23
65 22 24
66 22 25
67 22 27
68 23 24
69 23 25
70 23 26
71 23 27
72 24 27
73 25 26
74 25 27
75 25 28
76 25 29
77 26 27
78 26 29
79 27 28
80 27 29
81 27 30
82 28 29
83 28 30
84 28 31
85 28 33
86 29 30
87 29 31
88 29 32
89 29 33
90 30 33
91 31 32
92 31 33
93 31 34
94 31 35
95 32 33
96 32 35
97 33 34
98 33 35
99 33 36
100 34 35
101 34 36
102 34 37
103 34 39
104 35 36
105 35 37
106 35 38
107 35 39
108 36 39
109 37 38
110 37 39
111 37 40
112 37 41
113 38 39
114 38 41
115 39 40
116 39 41
117 39 42
118 40 41
119 40 42
120 40 43
121 40 45
122 41 42
123 41 43
124 41 44
125 41 45
126 42 45
127 43 44
128 43 45
129 43 46
130 43 47
131 44 45
132 44 47
133 45 46
134 45 47
135 45 48
136 46 47
137 46 48
138 46 49
139 46 51
140 47 48
141 47 49
142 47 50
143 47 51
144 48 51
145 49 50
146 49 51
147 49 52
148 49 53
149 50 51
150 50 53
151 51 52
152 51 53
153 51 54
154 52 53
155 52 54
156 52 55
157 52 57
158 53 54
159 53 55
160 53 56
161 53 57
162 54 57
163 55 56
164 55 57
165 55 58
166 55 59
167 56 57
168 56 59
169 57 58
170 57 59
171 57 60
172 58 59
173 58 60
174 58 61
175 58 63
176 59 60
177 59 61
178 59 62
179 59 63
180 60 63
181 61 62
182 61 63
183 61 64
184 61 65
185 62 63
186 62 65
187 63 64
188 63 65
189 63 66
190 64 65
191 64 66
192 64 67
193 64 69
194 65 66
195 65 67
196 65 68
197 65 69
198 66 69
199 67 68
200 67 69
201 67 70
202 67 71
203 68 69
204 68 71
205 69 70
206 69 71
207 69 72
208 70 71
209 70 72
210 70 73
211 70 75
212 71 72
213 71 73
214 71 74
215 71 75
216 72 75
217 73 74
218 73 75
219 73 76
220 73 77
221 74 75
222 74 77
223 75 76
224 75 77
225 75 78
226 76 77
227 76 78
228 76 79
229 76 81
230 77 78
231 77 79
232 77 80
233 77 81
234 78 81
235 79 80
236 79 81
237 79 82
238 79 83
239 80 81
240 80 83
241 81 82
242 81 83
243 81 84
244 82 83
245 82 84
246 82 85
247 82 87
248 83 84
249 83 85
250 83 86
251 83 87
252 84 87
253 85 86
254 85 87
255 85 88
256 85 89
257 86 87
258 86 89
259 87 88
260 87 89
261 87 90
262 88 89
263 88 90
264 88 91
265 88 93
266 89 90
267 89 91
268 89 92
269 89 93
270 90 93
271 91 92
272 91 93
273 91 94
274 91 95
275 92 93
276 92 95
277 93 94
278 93 95
279 93 96
280 94 95
281 94 96
282 94 97
283 94 99
284 95 96
285 95 97
286 95 98
287 95 99
288 96 99
289 97 98
290 97 99
291 97 100
292 97 101
293 98 99
294 98 101
295 99 100
296 99 101
297 99 102
298 100 101
299 100 102
300 100 103
301 100 105
302 101 102
303 101 103
304 101 104
305 101 105
306 102 105
307 103 104
308 103 105
309 103 106
310 103 107
311 104 105
312 104 107
313 105 106
314 105 107
315 105 108
316 106 107
317 106 108
318 106 109
319 106 111
320 107 108
321 107 109
322 107 110
323 107 111
324 108 111
325 109 110
326 109 111
327 109 112
328 109 113
329 110 111
330 110 113
331 111 112
332 111 113
333 111 114
334 112 113
335 112 114
336 112 115
337 112 117
338 113 114
339 113 115
340 113 116
341 113 117
342 114 117
343 115 116
344 115 117
345 115 118
346 115 119
347 116 117
348 116 119
349 117 118
350 117 119
351 117 120
352 118 119
353 118 120
354 118 121
355 118 123
356 119 120
357 119 121
358 119 122
359 119 123
360 120 123
361 121 122
362 121 123
363 121 124
364 121 125
365 122 123
366 122 125
367 123 124
368 123 125
369 123 126
370 124 125
371 124 126
372 124 127
373 124 129
374 125 126
375 125 127
376 125 128
377 125 129
378 126 129
379 127 128
380 127 129
381 127 130
382 127 131
383 128 129
384 128 131
385 129 130
386 129 131
387 129 132
388 130 131
389 130 132
390 130 133
391 130 135
392 131 132
393 131 133
394 131 134
395 131 135
396 132 135
397 133 134
398 133 135
399 133 136
400 133 137
401 134 135
402 134 137
403 135 136
404 135 137
405 135 138
406 136 137
407 136 138
408 136 139
409 136 141
410 137 138
411 137 139
412 137 140
413 137 141
414 138 141
415 139 140
416 139 141
417 139 142
418 139 143
419 140 141
420 140 143
421 141 142
422 141 143
423 141 144
424 142 143
425 142 144
426 142 145
427 142 147
428 143 144
429 143 145
430 143 146
431 143 147
432 144 147
433 145 146
434 145 147
435 145 148
436 145 149
437 146 147
438 146 149
439 147 148
440 147 149
441 147 150
442 148 149
443 148 150
444 148 151
445 148 153
446 149 150
447 149 151
448 149 152
449 149 153
450 150 153
451 151 152
452 151 153
453 151 154
454 151 155
455 152 153
456 152 155
457 153 154
458 153 155
459 153 156
460 154 155
461 154 156
462 154 157
463 154 159
464 155 156
465 155 157
466 155 158
467 155 159
468 156 159
469 157 158
470 157 159
471 157 160
472 157 161
473 158 159
474 158 161
475 159 160
476 159 161
477 159 162
478 160 161
479 160 162
480 160 163
481 160 165
482 161 162
483 161 163
484 161 164
485 161 165
486 162 165
487 163 164
488 163 165
489 163 166
490 163 167
491 164 165
492 164 167
493 165 166
494 165 167
495 165 168
496 166 167
497 166 168
498 166 169
499 166 171
500 167 168
501 167 169
502 167 170
503 167 171
504 168 171
505 169 170
506 169 171
507 169 172
508 169 173
509 170 171
510 170 173
511 171 172
512 171 173
513 171 174
514 172 173
515 172 174
516 172 175
517 172 177
518 173 174
519 173 175
520 173 176
521 173 177
522 174 177
523 175 176
524 175 177
525 175 178
526 175 179
527 176 177
528 176 179
529 177 178
530 177 179
531 177 180
532 178 179
533 178 180
534 178 181
535 178 183
536 179 180
537 179 181
538 179 182
539 179 183
540 180 183
541 181 182
542 181 183
543 182 183
$EndElements
$NodeData
1
"Fixity"
1
0
3
0
3
183
1 1 1 1
2 1 1 1
3 1 1 1
4 0 0 0
5 0 0 0
6 0 0 0
7 0 0 0
8 0 0 0
9 0 0 0
10 0 0 0
11 0 0 0
12 0 0 0
13 0 0 0
14 0 0 0
15 0 0 0
16 0 0 0
17 0 0 0
18 0 0 0
19 0 0 0
20 0 0 0
21 0 0 0
22 0 0 0
23 0 0 0
24 0 0 0
25 0 0 0
26 0 0 0
27 0 0 0
28 0 0 0
29 0 0 0
30 0 0 0
31 0 0 0
32 0 0 0
33 0 0 0
34 0 0 0
35 0 0 0
36 0 0 0
37 0 0 0
38 0 0 0
39 0 0 0
40 0 0 0
41 0 0 0
42 0 0 0
43 0 0 0
44 0 0 0
45 0 0 0
46 0 0 0
47 0 0 0
48 0 0 0
49 0 0 0
50 0 0 0
51 0 0 0
52 0 0 0
53 0 0 0
54 0 0 0
55 0 0 0
56 0 0 0
57 0 0 0
58 0 0 0
59 0 0 0
60 0 0 0
61 0 0 0
62 0 0 0
63 0 0 0
64 0 0 0
65 0 0 0
66 0 0 0
67 0 0 0
68 0 0 0
69 0 0 0
70 0 0 0
71 0 0 0
72 0 0 0
73 0 0 0
74 0 0 0
75 0 0 0
76 0 0 0
77 0 0 0
78 0 0 0
79 0 0 0
80 0 0 0
81 0 0 0
82 0 0 0
83 0 0 0
84 0 0 0
85 0 0 0
86 0 0 0
87 0 0 0
88 0 0 0
89 0 0 0
90 0 0 0
91 0 0 0
92 0 0 0
93 0 0 0
94 0 0 0
95 0 0 0
96 0 0 0
97 0 0 0
98 0 0 0
99 0 0 0
100 0 0 0
101 0 0 0
102 0 0 0
103 0 0 0
104 0 0 0
105 0 0 0
106 0 0 0
107 0 0 0
108 0 0 0
109 0 0 0
110 0 0 0
111 0 0 0
112 0 0 0
113 0 0 0
114 0 0 0
115 0 0 0
116 0 0 0
117 0 0 0
118 0 0 0
119 0 0 0
120 0 0 0
121 0 0 0
122 0 0 0
123 0 0 0
124 0 0 0
125 0 0 0
126 0 0 0
127 0 0 0
128 0 0 0
129 0 0 0
130 0 0 0
131 0 0 0
132 0 0 0
133 0 0 0
134 0 0 0
135 0 0 0
136 0 0 0
137 0 0 0
138 0 0 0
139 0 0 0
140 0 0 0
141 0 0 0
142 0 0 0
143 0 0 0
144 0 0 0
145 0 0 0
146 0 0 0
147 0 0 0
148 0 0 0
149 0 0 0
150 0 0 0
151 0 0 0
152 0 0 0
153 0 0 0
154 0 0 0
155 0 0 0
156 0 0 0
157 0 0 0
158 0 0 0
159 0 0 0
160 0 0 0
161 0 0 0
162 0 0 0
163 0 0 0
164 0 0 0
165 0 0 0
166 0 0 0
167 0 0 0
168 0 0 0
169 0 0 0
170 0 0 0
171 0 0 0
172 0 0 0
173 0 0 0
174 0 0 0
175 0 0 0
176 0 0 0
177 0 0 0
178 0 0 0
179 0 0 0
180 0 0 0
181 1 1 1
182 1 1 1
183 1 1 1
$EndNodeData
$NodeData
1
"NodalForce"
1
0
3
0
3
183
1 0 0 0
2 0 0 0
3 0 0 0
4 0 0 0
5 0 0 0
6 0 0 0
7 0 0 0
8 0 -106006.01201955325 66239.90802915061
9 0 -106006.01201955325 66239.90802915061
10 0 0 0
11 0 -106006.01201955325 66239.90802915061
12 0 -106006.01201955325 66239.90802915061
13 0 0 0
14 0 -106006.01201955325 66239.90802915061
15 0 -106006.01201955325 66239.90802915061
16 0 0 0
17 0 -106006.01201955325 66239.90802915061
18 0 -106006.01201955325 66239.90802915061
19 0 0 0
20 0 -106006.01201955325 66239.90802915061
21 0 -106006.01201955325 66239.90802915061
22 0 0 0
23 0 -106006.01201955325 66239.90802915061
24 0 -106006.01201955325 66239.90802915061
25 0 0 0
26 0 -106006.01201955325 66239.90802915061
27 0 -106006.01201955325 66239.90802915061
28 0 0 0
29 0 -106006.01201955325 66239.90802915061
30 0 -106006.01201955325 66239.90802915061
31 0 0 0
32 0 -106006.01201955325 66239.90802915061
33 0 -106006.01201955325 66239.90802915061
34 0 0 0
35 0 -106006.01201955325 66239.90802915061
36 0 -106006.01201955325 66239.90802915061
37 0 0 0
38 0 -106006.01201955325 66239.90802915061
39 0 -106006.01201955325 66239.90802915061
40 0 0 0
41 0 -106006.01201955325 66239.90802915061
42 0 -106006.01201955325 66239.90802915061
43 0 0 0
44 0 -106006.01201955325 66239.90802915061
45 0 -106006.01201955325 66239.90802915061
46 0 0 0
47 0 -106006.01201955325 66239.90802915061
48 0 -106006.01201955325 66239.90802915061
49 0 0 0
50 0 -106006.01201955325 66239.90802915061
51 0 -106006.01201955325 66239.90802915061
52 0 0 0
53 0 -106006.01201955325 66239.90802915061
54 0 -106006.01201955325 66239.90802915061
55 0 0 0
56 0 -106006.01201955325 66239.90802915061
57 0 -106006.01201955325 66239.90802915061
58 0 0 0
59 0 -106006.01201955325 66239.90802915061
60 0 -106006.01201955325 66239.90802915061
61 0 0 0
62 0 -106006.01201955325 66239.90802915061
63 0 -106006.01201955325 66239.90802915061
64 0 0 0
65 0 -106006.01201955325 66239.90802915061
66 0 -106006.01201955325 66239.90802915061
67 0 0 0
68 0 -106006.01201955325 66239.90802915061
69 0 -106006.01201955325 66239.90802915061
70 0 0 0
71 0 -106006.01201955325 66239.90802915061
72 0 -106006.01201955325 66239.90802915061
73 0 0 0
74 0 -106006.01201955325 66239.90802915061
75 0 -106006.01201955325 66239.90802915061
76 0 0 0
77 0 -106006.01201955325 66239.90802915061
78 0 -106006.01201955325 66239.90802915061
79 0 0 0
80 0 -106006.01201955325 66239.90802915061
81 0 -106006.01201955325 66239.90802915061
82 0 0 0
83 0 -106006.01201955325 66239.90802915061
84 0 -106006.01201955325 66239.90802915061
85 0 0 0
86 0 -106006.01201955325 66239.90802915061
87 0 -106006.01201955325 66239.90802915061
88 0 0 0
89 0 -106006.01201955325 66239.90802915061
90 0 -106006.01201955325 66239.90802915061
91 0 0 0
92 0 -106006.01201955325 66239.90802915061
93 0 -106006.01201955325 66239.90802915061
94 0 0 0
95 0 -106006.01201955325 66239.90802915061
96 0 -106006.01201955325 66239.90802915061
97 0 0 0
98 0 -106006.01201955325 66239.90802915061
99 0 -106006.01201955325 66239.90802915061
100 0 0 0
101 0 -106006.01201955325 66239.90802915061
102 0 -106006.01201955325 66239.90802915061
103 0 0 0
104 0 -106006.01201955325 66239.90802915061
105 0 -106006.01201955325 66239.90802915061
106 0 0 0
107 0 -106006.01201955325 66239.90802915061
108 0 -106006.01201955325 66239.90802915061
109 0 0 0
110 0 -106006.01201955325 66239.90802915061
111 0 -106006.01201955325 66239.90802915061
112 0 0 0
113 0 -106006.01201955325 66239.90802915061
114 0 -106006.01201955325 66239.90802915061
115 0 0 0
116 0 -106006.01201955325 66239.90802915061
117 0 -106006.01201955325 66239.90802915061
118 0 0 0
119 0 -106006.01201955325 66239.90802915061
120 0 -106006.01201955325 66239.90802915061
121 0 0 0
122 0 -106006.01201955325 66239.90802915061
123 0 -106006.01201955325 66239.90802915061
124 0 0 0
125 0 -106006.01201955325 66239.90802915061
126 0 -106006.01201955325 66239.90802915061
127 0 0 0
128 0 -106006.01201955325 66239.90802915061
129 0 -106006.01201955325 66239.90802915061
130 0 0 0
131 0 -106006.01201955325 66239.90802915061
132 0 -106006.01201955325 66239.90802915061
133 0 0 0
134 0 -106006.01201955325 66239.90802915061
135 0 -106006.01201955325 66239.90802915061
136 0 0 0
137 0 -106006.01201955325 66239.90802915061
138 0 -106006.01201955325 66239.90802915061
139 0 0 0
140 0 -106006.01201955325 66239.90802915061
141 0 -106006.01201955325 66239.90802915061
142 0 0 0
143 0 -106006.01201955325 66239.90802915061
144 0 -106006.01201955325 66239.90802915061
145 0 0 0
146 0 -106006.01201955325 66239.90802915061
147 0 -106006.01201955325 66239.90802915061
148 0 0 0
149 0 -106006.01201955325 66239.90802915061
150 0 -106006.01201955325 66239.90802915061
151 0 0 0
152 0 -106006.01201955325 66239.90802915061
153 0 -106006.01201955325 66239.90802915061
154 0 0 0
155 0 -106006.01201955325 66239.90802915061
156 0 -106006.01201955325 66239.90802915061
157 0 0 0
158 0 -106006.01201955325 66239.90802915061
159 0 -106006.01201955325 66239.90802915061
160 0 0 0
161 0 -106006.01201955325 66239.90802915061
162 0 -106006.01201955325 66239.90802915061
163 0 0 0
164 0 -106006.01201955325 66239.90802915061
165 0 -106006.01201955325 66239.90802915061
166 0 0 0
167 0 -106006.01201955325 66239.90802915061
168 0 -106006.01201955325 66239.90802915061
169 0 0 0
170 0 -106006.01201955325 66239.90802915061
171 0 -106006.01201955325 66239.90802915061
172 0 0 0
173 0 -106006.01201955325 66239.90802915061
174 0 -106006.01201955325 66239.90802915061
175 0 0 0
176 0 -106006.01201955325 66239.90802915061
177 0 -106006.01201955325 66239.90802915061
178 0 0 0
179 0 0 0
180 0 0 0
181 0 0 0
182 0 0 0
183 0 0 0
$EndNodeData
$ElementData
1
"CrossSectionArea"
1
0
3
0
1
543
1 0.015000000000000001
2 0.015000000000000001
3 0.045000000000000005
4 0.012
5 0.015000000000000001
6 0.045000000000000005
7 0.012
8 0.012
9 0.045000000000000005
10 0.015000000000000001
11 0.015000000000000001
12 0.045000000000000005
13 0.012
14 0.015000000000000001
15 0.012
16 0.045000000000000005
17 0.012
18 0.045000000000000005
19 0.015000000000000001
20 0.015000000000000001
21 0.045000000000000005
22 0.012
23 0.015000000000000001
24 0.045000000000000005
25 0.012
26 0.012
27 0.045000000000000005
28 0.015000000000000001
29 0.015000000000000001
30 0.045000000000000005
31 0.012
32 0.015000000000000001
33 0.012
34 0.045000000000000005
35 0.012
36 0.045000000000000005
37 0.015000000000000001
38 0.015000000000000001
39 0.045000000000000005
40 0.012
41 0.015000000000000001
42 0.045000000000000005
43 0.012
44 0.012
45 0.045000000000000005
46 0.015000000000000001
47 0.015000000000000001
48 0.045000000000000005
49 0.012
50 0.015000000000000001
51 0.012
52 0.045000000000000005
53 0.012
54 0.045000000000000005
55 0.015000000000000001
56 0.015000000000000001
57 0.045000000000000005
58 0.012
59 0.015000000000000001
60 0.045000000000000005
61 0.012
62 0.012
63 0.045000000000000005
64 0.015000000000000001
65 0.015000000000000001
66 0.045000000000000005
67 0.012
68 0.015000000000000001
69 0.012
70 0.045000000000000005
71 0.012
72 0.045000000000000005
73 0.015000000000000001
74 0.015000000000000001
75 0.045000000000000005
76 0.012
77 0.015000000000000001
78 0.045000000000000005
79 0.012
80 0.012
81 0.045000000000000005
82 0.015000000000000001
83 0.015000000000000001
84 0.045000000000000005
85 0.012
86 0.015000000000000001
87 0.012
88 0.045000000000000005
89 0.012
90 0.045000000000000005
91 0.015000000000000001
92 0.015000000000000001
93 0.045000000000000005
94 0.012
95 0.015000000000000001
96 0.045000000000000005
97 0.012
98 0.012
99 0.045000000000000005
100 0.015000000000000001
101 0.015000000000000001
102 0.045000000000000005
103 0.012
104 0.015000000000000001
105 0.012
106 0.045000000000000005
107 0.012
108 0.045000000000000005
109 0.015000000000000001
110 0.015000000000000001
111 0.045000000000000005
112 0.012
113 0.015000000000000001
114 0.045000000000000005
115 0.012
116 0.012
117 0.045000000000000005
118 0.015000000000000001
119 0.015000000000000001
120 0.045000000000000005
121 0.012
122 0.015000000000000001
123 0.012
124 0.045000000000000005
125 0.012
126 0.045000000000000005
127 0.015000000000000001
128 0.015000000000000001
129 0.045000000000000005
130 0.012
131 0.015000000000000001
132 0.045000000000000005
133 0.012
134 0.012
135 0.045000000000000005
136 0.015000000000000001
137 0.015000000000000001
138 0.045000000000000005
139 0.012
140 0.015000000000000001
141 0.012
142 0.045000000000000005
143 0.012
144 0.045000000000000005
145 0.015000000000000001
146 0.015000000000000001
147 0.045000000000000005
148 0.012
149 0.015000000000000001
150 0.045000000000000005
151 0.012
152 0.012
153 0.045000000000000005
154 0.015000000000000001
155 0.015000000000000001
156 0.045000000000000005
157 0.012
158 0.015000000000000001
159 0.012
160 0.045000000000000005
161 0.012
162 0.045000000000000005
163 0.015000000000000001
164 0.015000000000000001
165 0.045000000000000005
166 0.012
167 0.015000000000000001
168 0.045000000000000005
169 0.012
170 0.012
171 0.045000000000000005
172 0.015000000000000001
173 0.015000000000000001
174 0.045000000000000005
175 0.012
176 0.015000000000000001
177 0.012
178 0.045000000000000005
179 0.012
180 0.045000000000000005
181 0.015000000000000001
182 0.015000000000000001
183 0.045000000000000005
184 0.012
185 0.015000000000000001
186 0.045000000000000005
187 0.012
188 0.012
189 0.045000000000000005
190 0.015000000000000001
191 0.015000000000000001
192 0.045000000000000005
193 0.012
194 0.015000000000000001
195 0.012
196 0.045000000000000005
197 0.012
198 0.045000000000000005
199 0.015000000000000001
200 0.015000000000000001
201 0.045000000000000005
202 0.012
203 0.015000000000000001
204 0.045000000000000005
205 0.012
206 0.012
207 0.045000000000000005
208 0.015000000000000001
209 0.015000000000000001
210 0.045000000000000005
211 0.012
212 0.015000000000000001
213 0.012
214 0.045000000000000005
215 0.012
216 0.045000000000000005
217 0.015000000000000001
218 0.015000000000000001
219 0.045000000000000005
220 0.012
221 0.015000000000000001
222 0.045000000000000005
223 0.012
224 0.012
225 0.045000000000000005
226 0.015000000000000001
227 0.015000000000000001
228 0.045000000000000005
229 0.012
230 0.015000000000000001
231 0.012
232 0.045000000000000005
233 0.012
234 0.045000000000000005
235 0.015000000000000001
236 0.015000000000000001
237 0.045000000000000005
238 0.012
239 0.015000000000000001
240 0.045000000000000005
241 0.012
242 0.012
243 0.045000000000000005
244 0.015000000000000001
245 0.015000000000000001
246 0.045000000000000005
247 0.012
248 0.015000000000000001
249 0.012
250 0.045000000000000005
251 0.012
252 0.045000000000000005
253 0.015000000000000001
254 0.015000000000000001
255 0.045000000000000005
256 0.012
257 0.015000000000000001
258 0.045000000000000005
259 0.012
260 0.012
261 0.045000000000000005
262 0.015000000000000001
263 0.015000000000000001
264 0.045000000000000005
265 0.012
266 0.015000000000000001
267 0.012
268 0.045000000000000005
269 0.012
270 0.045000000000000005
271 0.015000000000000001
272 0.015000000000000001
273 0.045000000000000005
274 0.012
275 0.015000000000000001
276 0.045000000000000005
277 0.012
278 0.012
279 0.045000000000000005
280 0.015000000000000001
281 0.015000000000000001
282 0.045000000000000005
283 0.012
284 0.015000000000000001
285 0.012
286 0.045000000000000005
287 0.012
288 0.045000000000000005
289 0.015000000000000001
290 0.015000000000000001
291 0.045000000000000005
292 0.012
293 0.015000000000000001
294 0.045000000000000005
295 0.012
296 0.012
297 0.045000000000000005
298 0.015000000000000001
299 0.015000000000000001
300 0.045000000000000005
301 0.012
302 0.015000000000000001
303 0.012
304 0.045000000000000005
305 0.012
306 0.045000000000000005
307 0.015000000000000001
308 0.015000000000000001
309 0.045000000000000005
310 0.012
311 0.015000000000000001
312 0.045000000000000005
313 0.012
314 0.012
315 0.045000000000000005
316 0.015000000000000001
317 0.015000000000000001
318 0.045000000000000005
319 0.012
320 0.015000000000000001
321 0.012
322 0.045000000000000005
323 0.012
324 0.045000000000000005
325 0.015000000000000001
326 0.015000000000000001
327 0.045000000000000005
328 0.012
329 0.015000000000000001
330 0.045000000000000005
331 0.012
332 0.012
333 0.045000000000000005
334 0.015000000000000001
335 0.015000000000000001
336 0.045000000000000005
337 0.012
338 0.015000000000000001
339 0.012
340 0.045000000000000005
341 0.012
342 0.045000000000000005
343 0.015000000000000001
344 0.015000000000000001
345 0.045000000000000005
346 0.012
347 0.015000000000000001
348 0.045000000000000005
349 0.012
350 0.012
351 0.045000000000000005
352 0.015000000000000001
353 0.015000000000000001
354 0.045000000000000005
355 0.012
356 0.015000000000000001
357 0.012
358 0.045000000000000005
359 0.012
360 0.045000000000000005
361 0.015000000000000001
362 0.015000000000000001
363 0.045000000000000005
364 0.012
365 0.015000000000000001
366 0.045000000000000005
367 0.012
368 0.012
369 0.045000000000000005
370 0.015000000000000001
371 0.015000000000000001
372 0.045000000000000005
373 0.012
374 0.015000000000000001
375 0.012
376 0.045000000000000005
377 0.012
378 0.045000000000000005
379 0.015000000000000001
380 0.015000000000000001
381 0.045000000000000005
382 0.012
383 0.015000000000000001
384 0.045000000000000005
385 0.012
386 0.012
387 0.045000000000000005
388 0.015000000000000001
389 0.015000000000000001
390 0.045000000000000005
391 0.012
392 0.015000000000000001
393 0.012
394 0.045000000000000005
395 0.012
396 0.045000000000000005
397 0.015000000000000001
398 0.015000000000000001
399 0.045000000000000005
400 0.012
401 0.015000000000000001
402 0.045000000000000005
403 0.012
404 0.012
405 0.045000000000000005
406 0.015000000000000001
407 0.015000000000000001
408 0.045000000000000005
409 0.012
410 0.015000000000000001
411 0.012
412 0.045000000000000005
413 0.012
414 0.045000000000000005
415 0.015000000000000001
416 0.015000000000000001
417 0.045000000000000005
418 0.012
419 0.015000000000000001
420 0.045000000000000005
421 0.012
422 0.012
423 0.045000000000000005
424 0.015000000000000001
425 0.015000000000000001
426 0.045000000000000005
427 0.012
428 0.015000000000000001
429 0.012
430 0.045000000000000005
431 0.012
432 0.045000000000000005
433 0.015000000000000001
434 0.015000000000000001
435 0.045000000000000005
436 0.012
437 0.015000000000000001
438 0.045000000000000005
439 0.012
440 0.012
441 0.045000000000000005
442 0.015000000000000001
443 0.015000000000000001
444 0.045000000000000005
445 0.012
446 0.015000000000000001
447 0.012
448 0.045000000000000005
449 0.012
450 0.045000000000000005
451 0.015000000000000001
452 0.015000000000000001
453 0.045000000000000005
454 0.012
455 0.015000000000000001
456 0.045000000000000005
457 0.012
458 0.012
459 0.045000000000000005
460 0.015000000000000001
461 0.015000000000000001
462 0.045000000000000005
463 0.012
464 0.015000000000000001
465 0.012
466 0.045000000000000005
467 0.012
468 0.045000000000000005
469 0.015000000000000001
470 0.015000000000000001
471 0.045000000000000005
472 0.012
473 0.015000000000000001
474 0.045000000000000005
475 0.012
476 0.012
477 0.045000000000000005
478 0.015000000000000001
479 0.015000000000000001
480 0.045000000000000005
481 0.012
482 0.015000000000000001
483 0.012
484 0.045000000000000005
485 0.012
486 0.045000000000000005
487 0.015000000000000001
488 0.015000000000000001
489 0.045000000000000005
490 0.012
491 0.015000000000000001
492 0.045000000000000005
493 0.012
494 0.012
495 0.045000000000000005
496 0.015000000000000001
497 0.015000000000000001
498 0.045000000000000005
499 0.012
500 0.015000000000000001
501 0.012
502 0.045000000000000005
503 0.012
504 0.045000000000000005
505 0.015000000000000001
506 0.015000000000000001
507 0.045000000000000005
508 0.012
509 0.015000000000000001
510 0.045000000000000005
511 0.012
512 0.012
513 0.045000000000000005
514 0.015000000000000001
515 0.015000000000000001
516 0.045000000000000005
517 0.012
518 0.015000000000000001
519 0.012
520 0.045000000000000005
521 0.012
522 0.045000000000000005
523 0.015000000000000001
524 0.015000000000000001
525 0.045000000000000005
526 0.012
527 0.015000000000000001
528 0.045000000000000005
529 0.012
530 0.012
531 0.045000000000000005
532 0.015000000000000001
533 0.015000000000000001
534 0.045000000000000005
535 0.012
536 0.015000000000000001
537 0.012
538 0.045000000000000005
539 0.012
540 0.045000000000000005
541 0.015000000000000001
542 0.015000000000000001
543 0.015000000000000001
$EndElementData
$ElementData
1
"MaterialID"
1
0
3
0
1
543
1 3
2 3
3 3
4 3
5 3
6 3
7 3
8 3
9 3
10 3
11 3
12 3
13 3
14 3
15 3
16 3
17 3
18 3
19 3
20 3
21 3
22 3
23 3
24 3
25 3
26 3
27 3
28 3
29 3
30 3
31 3
32 3
33 3
34 3
35 3
36 3
37 3
38 3
39 3
40 3
41 3
42 3
43 3
44 3
45 3
46 3
47 3
48 3
49 3
50 3
51 3
52 3
53 3
54 3
55 3
56 3
57 3
58 3
59 3
60 3
61 3
62 3
63 3
64 3
65 3
66 3
67 3
68 3
69 3
70 3
71 3
72 3
73 3
74 3
75 3
76 3
77 3
78 3
79 3
80 3
81 3
82 3
83 3
84 3
85 3
86 3
87 3
88 3
89 3
90 3
91 3
92 3
93 3
94 3
95 3
96 3
97 3
98 3
99 3
100 3
101 3
102 3
103 3
104 3
105 3
106 3
107 3
108 3
109 3
110 3
111 3
112 3
113 3
114 3
115 3
116 3
117 3
118 3
119 3
120 3
121 3
122 3
123 3
124 3
125 3
126 3
127 3
128 3
129 3
130 3
131 3
132 3
133 3
134 3
135 3
136 3
137 3
138 3
139 3
140 3
141 3
142 3
143 3
144 3
145 3
146 3
147 3
148 3
149 3
150 3
151 3
152 3
153 3
154 3
155 3
156 3
157 3
158 3
159 3
160 3
161 3
162 3
163 3
164 3
165 3
166 3
167 3
168 3
169 3
170 3
171 3
172 3
173 3
174 3
175 3
176 3
177 3
178 3
179 3
180 3
181 3
182 3
183 3
184 3
185 3
186 3
187 3
188 3
189 3
190 3
191 3
192 3
193 3
194 3
195 3
196 3
197 3
198 3
199 3
200 3
201 3
202 3
203 3
204 3
205 3
206 3
207 3
208 3
209 3
210 3
211 3
212 3
213 3
214 3
215 3
216 3
217 3
218 3
219 3
220 3
221 3
222 3
223 3
224 3
225 3
226 3
227 3
228 3
229 3
230 3
231 3
232 3
233 3
234 3
235 3
236 3
237 3
238 3
239 3
240 3
241 3
242 3
243 3
244 3
245 3
246 3
247 3
248 3
249 3
250 3
251 3
252 3
253 3
254 3
255 3
256 3
257 3
258 3
259 3
260 3
261 3
262 3
263 3
264 3
265 3
266 3
267 3
268 3
269 3
270 3
271 3
272 3
273 3
274 3
275 3
276 3
277 3
278 3
279 3
280 3
281 3
282 3
283 3
284 3
285 3
286 3
287 3
288 3
289 3
290 3
291 3
292 3
293 3
294 3
295 3
296 3
297 3
298 3
299 3
300 3
301 3
302 3
303 3
304 3
305 3
306 3
307 3
308 3
309 3
310 3
311 3
312 3
313 3
314 3
315 3
316 3
317 3
318 3
319 3
320 3
321 3
322 3
323 3
324 3
325 3
326 3
327 3
328 3
329 3
330 3
331 3
332 3
333 3
334 3
335 3
336 3
337 3
338 3
339 3
340 3
341 3
342 3
343 3
344 3
345 3
346 3
347 3
348 3
349 3
350 3
351 3
352 3
353 3
354 3
355 3
356 3
357 3
358 3
359 3
360 3
361 3
362 3
363 3
364 3
365 3
366 3
367 3
368 3
369 3
370 3
371 3
372 3
373 3
374 3
375 3
376 3
377 3
378 3
379 3
380 3
381 3
382 3
383 3
384 3
385 3
386 3
387 3
388 3
389 3
390 3
391 3
392 3
393 3
394 3
395 3
396 3
397 3
398 3
399 3
400 3
401 3
402 3
403 3
404 3
405 3
406 3
407 3
408 3
409 3
410 3
411 3
412 3
413 3
414 3
415 3
416 3
417 3
418 3
419 3
420 3
421 3
422 3
423 3
424 3
425 3
426 3
427 3
428 3
429 3
430 3
431 3
432 3
433 3
434 3
435 3
436 3
437 3
438 3
439 3
440 3
441 3
442 3
443 3
444 3
445 3
446 3
447 3
448 3
449 3
450 3
451 3
452 3
453 3
454 3
455 3
456 3
457 3
458 3
459 3
460 3
461 3
462 3
463 3
464 3
465 3
466 3
467 3
468 3
469 3
470 3
471 3
472 3
473 3
474 3
475 3
476 3
477 3
478 3
479 3
480 3
481 3
482 3
483 3
484 3
485 3
486 3
487 3
488 3
489 3
490 3
491 3
492 3
493 3
494 3
495 3
496 3
497 3
498 3
499 3
500 3
501 3
502 3
503 3
504 3
505 3
506 3
507 3
508 3
509 3
510 3
511 3
512 3
513 3
514 3
515 3
516 3
517 3
518 3
519 3
520 3
521 3
522 3
523 3
524 3
525 3
526 3
527 3
528 3
529 3
530 3
531 3
532 3
533 3
534 3
535 3
536 3
537 3
538 3
539 3
540 3
541 3
542 3
543 3
$EndElementData
