$MeshFormat
4.1 0 8
$EndMeshFormat
$PhysicalNames
1
1 1 "Material:Aluminum 6061-T6"
$EndPhysicalNames
$Entities
0 1 0 0
1 -9.82246946376846 0 -9.794320854864143 9.82246946376846 11.875924740850799 9.794320854864143 1 1 0
$EndEntities
$Nodes
1 61 1 61
1 1 0 61
1
2
3
4
5
6
7
8
9
10
11
12
13
14
15
16
17
18
19
20
21
22
23
24
25
26
27
28
29
30
31
32
33
34
35
36
37
38
39
40
41
42
43
44
45
46
47
48
49
50
51
52
53
54
55
56
57
58
59
60
61
-2.76393202250021 6.3480606958503785 8.5065080835204
-5.554364634966284 7.025103936330147 6.529547236576095
-4.898760822129859 3.5923178060105823 8.547288298252083
-7.946544722917661 3.7518494817015986 5.773502691896257
-6.615153887289642 0.15953167569101656 7.300255741640024
-8.98715076528585 0.15953167569101656 4.035482123351976
-7.92636151296249 7.025103936330147 3.2647736182880474
-9.642754578122274 3.5923178060105823 2.017741061675988
-8.94427190999916 6.3480606958503785 0
0 11.875924740850799 0
-3.4327861303195655 11.268260945623583 0
-1.0607892523233586 11.268260945623583 3.2647736182880474
-4.911234731884231 9.82246946376846 3.5682208977308996
-2.1215785046467177 9.146682440976866 6.529547236576095
-6.865572260639131 9.146682440976864 0
-2.76393202250021 6.3480606958503785 -8.5065080835204
-5.554364634966284 7.025103936330147 -6.529547236576095
-2.1215785046467177 9.146682440976866 -6.529547236576095
-4.911234731884231 9.82246946376846 -3.5682208977308996
-1.0607892523233586 11.268260945623583 -3.2647736182880474
-7.92636151296249 7.025103936330147 -3.2647736182880474
-8.98715076528585 0.15953167569101656 -4.035482123351976
-6.615153887289642 0.15953167569101656 -7.300255741640024
-7.946544722917661 3.7518494817015986 -5.773502691896257
-4.898760822129859 3.5923178060105823 -8.547288298252083
-9.642754578122274 3.5923178060105823 -2.017741061675988
-9.82246946376846 4.440892098500626e-16 0
7.236067977499791 6.3480606958503785 5.257311121191336
5.554364634966284 9.146682440976866 4.035482123351977
4.493575382642925 7.025103936330147 7.300255741640024
1.8759247408507993 9.82246946376846 5.773502691896257
0.6556038128364241 7.025103936330147 8.547288298252083
2.777182317483141 11.268260945623583 2.017741061675988
1.0607892523233589 0.15953167569101634 9.794320854864143
-3.035309991033431 0 9.341723589627156
-1.0607892523233589 3.5923178060105823 9.794320854864143
1.0607892523233589 0.15953167569101634 -9.794320854864143
-3.035309991033431 0 -9.341723589627156
-1.0607892523233589 3.5923178060105823 -9.794320854864143
7.236067977499791 6.3480606958503785 -5.257311121191336
4.493575382642925 7.025103936330147 -7.300255741640024
5.554364634966284 9.146682440976866 -4.035482123351977
1.8759247408507993 9.82246946376846 -5.773502691896257
2.777182317483141 11.268260945623583 -2.017741061675988
0.6556038128364241 7.025103936330147 -8.547288298252083
4.898760822129859 0.15953167569101634 8.547288298252083
7.946544722917661 0 5.773502691896257
6.615153887289642 3.5923178060105823 7.300255741640024
8.98715076528585 3.5923178060105823 4.035482123351976
9.642754578122274 0.15953167569101656 2.017741061675988
8.98715076528585 3.5923178060105823 -4.035482123351976
6.615153887289642 3.5923178060105823 -7.300255741640024
7.946544722917661 0 -5.773502691896257
4.898760822129859 0.15953167569101634 -8.547288298252083
9.642754578122274 0.15953167569101656 -2.017741061675988
8.331546952449425 7.025103936330147 2.0177410616759883
9.82246946376846 3.751849481701598 0
8.331546952449425 7.025103936330147 -2.0177410616759883
3.035309991033431 3.7518494817015986 9.341723589627156
3.035309991033431 3.7518494817015986 -9.341723589627156
6.070619982066862 9.82246946376846 0
$EndNodes
$Elements
1 150 1 150
1 1 1 150
1 1 2
2 1 3
3 1 14
4 1 32
5 1 36
6 2 3
7 2 4
8 2 7
9 2 13
10 2 14
11 3 4
12 3 5
13 3 35
14 3 36
15 4 5
16 4 6
17 4 7
18 4 8
19 6 8
20 7 8
21 7 9
22 7 13
23 7 15
24 8 9
25 8 26
26 8 27
27 9 15
28 9 21
29 9 26
30 10 11
31 10 12
32 10 20
33 10 33
34 10 44
35 11 12
36 11 13
37 11 15
38 11 19
39 11 20
40 12 13
41 12 14
42 12 31
43 12 33
44 13 14
45 13 15
46 14 31
47 14 32
48 15 19
49 15 21
50 16 17
51 16 18
52 16 25
53 16 39
54 16 45
55 17 18
56 17 19
57 17 21
58 17 24
59 17 25
60 18 19
61 18 20
62 18 43
63 18 45
64 19 20
65 19 21
66 20 43
67 20 44
68 21 24
69 21 26
70 22 24
71 22 26
72 23 24
73 23 25
74 24 25
75 24 26
76 25 38
77 25 39
78 26 27
79 28 29
80 28 30
81 28 48
82 28 49
83 28 56
84 29 30
85 29 31
86 29 33
87 29 56
88 29 61
89 30 31
90 30 32
91 30 48
92 30 59
93 31 32
94 31 33
95 32 36
96 32 59
97 33 44
98 33 61
99 34 36
100 34 59
101 35 36
102 36 59
103 37 39
104 37 60
105 38 39
106 39 45
107 39 60
108 40 41
109 40 42
110 40 51
111 40 52
112 40 58
113 41 42
114 41 43
115 41 45
116 41 52
117 41 60
118 42 43
119 42 44
120 42 58
121 42 61
122 43 44
123 43 45
124 44 61
125 45 60
126 46 48
127 46 59
128 47 48
129 47 49
130 48 49
131 48 59
132 49 50
133 49 56
134 49 57
135 50 57
136 51 52
137 51 53
138 51 55
139 51 57
140 51 58
141 52 53
142 52 54
143 52 60
144 54 60
145 55 57
146 56 57
147 56 58
148 56 61
149 57 58
150 58 61
$EndElements
$NodeData
1
"Fixity"
1
0
3
0
3
61
1 0 0 0
2 0 0 0
3 1 1 1
4 1 1 1
5 1 1 1
6 1 1 1
7 0 0 0
8 1 1 1
9 0 0 0
10 0 0 0
11 0 0 0
12 0 0 0
13 0 0 0
14 0 0 0
15 0 0 0
16 0 0 0
17 0 0 0
18 0 0 0
19 0 0 0
20 0 0 0
21 0 0 0
22 1 1 1
23 1 1 1
24 1 1 1
25 1 1 1
26 1 1 1
27 1 1 1
28 0 0 0
29 0 0 0
30 0 0 0
31 0 0 0
32 0 0 0
33 0 0 0
34 1 1 1
35 1 1 1
36 1 1 1
37 1 1 1
38 1 1 1
39 1 1 1
40 0 0 0
41 0 0 0
42 0 0 0
43 0 0 0
44 0 0 0
45 0 0 0
46 1 1 1
47 1 1 1
48 1 1 1
49 1 1 1
50 1 1 1
51 1 1 1
52 1 1 1
53 1 1 1
54 1 1 1
55 1 1 1
56 0 0 0
57 1 1 1
58 0 0 0
59 1 1 1
60 1 1 1
61 0 0 0
$EndNodeData
$NodeData
1
"NodalForce"
1
0
3
0
3
61
1 0 -4000 0
2 0 -4000 0
3 0 0 0
4 0 0 0
5 0 0 0
6 0 0 0
7 0 -4000 0
8 0 0 0
9 0 -4000 0
10 0 -4000 0
11 0 -4000 0
12 0 -4000 0
13 0 -4000 0
14 0 -4000 0
15 0 -4000 0
16 0 -4000 0
17 0 -4000 0
18 0 -4000 0
19 0 -4000 0
20 0 -4000 0
21 0 -4000 0
22 0 0 0
23 0 0 0
24 0 0 0
25 0 0 0
26 0 0 0
27 0 0 0
28 0 -4000 0
29 0 -4000 0
30 0 -4000 0
31 0 -4000 0
32 0 -4000 0
33 0 -4000 0
34 0 0 0
35 0 0 0
36 0 0 0
37 0 0 0
38 0 0 0
39 0 0 0
40 0 -4000 0
41 0 -4000 0
42 0 -4000 0
43 0 -4000 0
44 0 -4000 0
45 0 -4000 0
46 0 0 0
47 0 0 0
48 0 0 0
49 0 0 0
50 0 0 0
51 0 0 0
52 0 0 0
53 0 0 0
54 0 0 0
55 0 0 0
56 0 -4000 0
57 0 0 0
58 0 -4000 0
59 0 0 0
60 0 0 0
61 0 -4000 0
$EndNodeData
$ElementData
1
"CrossSectionArea"
1
0
3
0
1
150
1 0.0012000000000000001
2 0.0012000000000000001
3 0.0012000000000000001
4 0.0012000000000000001
5 0.0012000000000000001
6 0.0012000000000000001
7 0.0012000000000000001
8 0.0012000000000000001
9 0.0012000000000000001
10 0.0012000000000000001
11 0.0012000000000000001
12 0.0012000000000000001
13 0.0012000000000000001
14 0.0012000000000000001
15 0.0012000000000000001
16 0.0012000000000000001
17 0.0012000000000000001
18 0.0012000000000000001
19 0.0012000000000000001
20 0.0012000000000000001
21 0.0012000000000000001
22 0.0012000000000000001
23 0.0012000000000000001
24 0.0012000000000000001
25 0.0012000000000000001
26 0.0012000000000000001
27 0.0012000000000000001
28 0.0012000000000000001
29 0.0012000000000000001
30 0.0012000000000000001
31 0.0012000000000000001
32 0.0012000000000000001
33 0.0012000000000000001
34 0.0012000000000000001
35 0.0012000000000000001
36 0.0012000000000000001
37 0.0012000000000000001
38 0.0012000000000000001
39 0.0012000000000000001
40 0.0012000000000000001
41 0.0012000000000000001
42 0.0012000000000000001
43 0.0012000000000000001
44 0.0012000000000000001
45 0.0012000000000000001
46 0.0012000000000000001
47 0.0012000000000000001
48 0.0012000000000000001
49 0.0012000000000000001
50 0.0012000000000000001
51 0.0012000000000000001
52 0.0012000000000000001
53 0.0012000000000000001
54 0.0012000000000000001
55 0.0012000000000000001
56 0.0012000000000000001
57 0.0012000000000000001
58 0.0012000000000000001
59 0.0012000000000000001
60 0.0012000000000000001
61 0.0012000000000000001
62 0.0012000000000000001
63 0.0012000000000000001
64 0.0012000000000000001
65 0.0012000000000000001
66 0.0012000000000000001
67 0.0012000000000000001
68 0.0012000000000000001
69 0.0012000000000000001
70 0.0012000000000000001
71 0.0012000000000000001
72 0.0012000000000000001
73 0.0012000000000000001
74 0.0012000000000000001
75 0.0012000000000000001
76 0.0012000000000000001
77 0.0012000000000000001
78 0.0012000000000000001
79 0.0012000000000000001
80 0.0012000000000000001
81 0.0012000000000000001
82 0.0012000000000000001
83 0.0012000000000000001
84 0.0012000000000000001
85 0.0012000000000000001
86 0.0012000000000000001
87 0.0012000000000000001
88 0.0012000000000000001
89 0.0012000000000000001
90 0.0012000000000000001
91 0.0012000000000000001
92 0.0012000000000000001
93 0.0012000000000000001
94 0.0012000000000000001
95 0.0012000000000000001
96 0.0012000000000000001
97 0.0012000000000000001
98 0.0012000000000000001
99 0.0012000000000000001
100 0.0012000000000000001
101 0.0012000000000000001
102 0.0012000000000000001
103 0.0012000000000000001
104 0.0012000000000000001
105 0.0012000000000000001
106 0.0012000000000000001
107 0.0012000000000000001
108 0.0012000000000000001
109 0.0012000000000000001
110 0.0012000000000000001
111 0.0012000000000000001
112 0.0012000000000000001
113 0.0012000000000000001
114 0.0012000000000000001
115 0.0012000000000000001
116 0.0012000000000000001
117 0.0012000000000000001
118 0.0012000000000000001
119 0.0012000000000000001
120 0.0012000000000000001
121 0.0012000000000000001
122 0.0012000000000000001
123 0.0012000000000000001
124 0.0012000000000000001
125 0.0012000000000000001
126 0.0012000000000000001
127 0.0012000000000000001
128 0.0012000000000000001
129 0.0012000000000000001
130 0.0012000000000000001
131 0.0012000000000000001
132 0.0012000000000000001
133 0.0012000000000000001
134 0.0012000000000000001
135 0.0012000000000000001
136 0.0012000000000000001
137 0.0012000000000000001
138 0.0012000000000000001
139 0.0012000000000000001
140 0.0012000000000000001
141 0.0012000000000000001
142 0.0012000000000000001
143 0.0012000000000000001
144 0.0012000000000000001
145 0.0012000000000000001
146 0.0012000000000000001
147 0.0012000000000000001
148 0.0012000000000000001
149 0.0012000000000000001
150 0.0012000000000000001
$EndElementData
$ElementData
1
"MaterialID"
1
0
3
0
1
150
1 1
2 1
3 1
4 1
5 1
6 1
7 1
8 1
9 1
10 1
11 1
12 1
13 1
14 1
15 1
16 1
17 1
18 1
19 1
20 1
21 1
22 1
23 1
24 1
25 1
26 1
27 1
28 1
29 1
30 1
31 1
32 1
33 1
34 1
35 1
36 1
37 1
38 1
39 1
40 1
41 1
42 1
43 1
44 1
45 1
46 1
47 1
48 1
49 1
50 1
51 1
52 1
53 1
54 1
55 1
56 1
57 1
58 1
59 1
60 1
61 1
62 1
63 1
64 1
65 1
66 1
67 1
68 1
69 1
70 1
71 1
72 1
73 1
74 1
75 1
76 1
77 1
78 1
79 1
80 1
81 1
82 1
83 1
84 1
85 1
86 1
87 1
88 1
89 1
90 1
91 1
92 1
93 1
94 1
95 1
96 1
97 1
98 1
99 1
100 1
101 1
102 1
103 1
104 1
105 1
106 1
107 1
108 1
109 1
110 1
111 1
112 1
113 1
114 1
115 1
116 1
117 1
118 1
119 1
120 1
121 1
122 1
123 1
124 1
125 1
126 1
127 1
128 1
129 1
130 1
131 1
132 1
133 1
134 1
135 1
136 1
137 1
138 1
139 1
140 1
141 1
142 1
143 1
144 1
145 1
146 1
147 1
148 1
149 1
150 1
$EndElementData
