$MeshFormat
4.1 0 8
$EndMeshFormat
$PhysicalNames
1
1 1 "Material:Structural Steel (AISI 4130)"
$EndPhysicalNames
$Entities
0 1 0 0
1 0 12 0 24 14.1 24 1 1 0
$EndEntities
$Nodes
1 145 1 145
1 1 0 145
1
2
3
4
5
6
7
8
9
10
11
12
13
14
15
16
17
18
19
20
21
22
23
24
25
26
27
28
29
30
31
32
33
34
35
36
37
38
39
40
41
42
43
44
45
46
47
48
49
50
51
52
53
54
55
56
57
58
59
60
61
62
63
64
65
66
67
68
69
70
71
72
73
74
75
76
77
78
79
80
81
82
83
84
85
86
87
88
89
90
91
92
93
94
95
96
97
98
99
100
101
102
103
104
105
106
107
108
109
110
111
112
113
114
115
116
117
118
119
120
121
122
123
124
125
126
127
128
129
130
131
132
133
134
135
136
137
138
139
140
141
142
143
144
145
0 14.1 0
0 14.1 3
0 14.1 6
0 14.1 9
0 14.1 12
0 14.1 15
0 14.1 18
0 14.1 21
0 14.1 24
3 14.1 0
3 14.1 3
3 14.1 6
3 14.1 9
3 14.1 12
3 14.1 15
3 14.1 18
3 14.1 21
3 14.1 24
6 14.1 0
6 14.1 3
6 14.1 6
6 14.1 9
6 14.1 12
6 14.1 15
6 14.1 18
6 14.1 21
6 14.1 24
9 14.1 0
9 14.1 3
9 14.1 6
9 14.1 9
9 14.1 12
9 14.1 15
9 14.1 18
9 14.1 21
9 14.1 24
12 14.1 0
12 14.1 3
12 14.1 6
12 14.1 9
12 14.1 12
12 14.1 15
12 14.1 18
12 14.1 21
12 14.1 24
15 14.1 0
15 14.1 3
15 14.1 6
15 14.1 9
15 14.1 12
15 14.1 15
15 14.1 18
15 14.1 21
15 14.1 24
18 14.1 0
18 14.1 3
18 14.1 6
18 14.1 9
18 14.1 12
18 14.1 15
18 14.1 18
18 14.1 21
18 14.1 24
21 14.1 0
21 14.1 3
21 14.1 6
21 14.1 9
21 14.1 12
21 14.1 15
21 14.1 18
21 14.1 21
21 14.1 24
24 14.1 0
24 14.1 3
24 14.1 6
24 14.1 9
24 14.1 12
24 14.1 15
24 14.1 18
24 14.1 21
24 14.1 24
1.5 12 1.5
1.5 12 4.5
1.5 12 7.5
1.5 12 10.5
1.5 12 13.5
1.5 12 16.5
1.5 12 19.5
1.5 12 22.5
4.5 12 1.5
4.5 12 4.5
4.5 12 7.5
4.5 12 10.5
4.5 12 13.5
4.5 12 16.5
4.5 12 19.5
4.5 12 22.5
7.5 12 1.5
7.5 12 4.5
7.5 12 7.5
7.5 12 10.5
7.5 12 13.5
7.5 12 16.5
7.5 12 19.5
7.5 12 22.5
10.5 12 1.5
10.5 12 4.5
10.5 12 7.5
10.5 12 10.5
10.5 12 13.5
10.5 12 16.5
10.5 12 19.5
10.5 12 22.5
13.5 12 1.5
13.5 12 4.5
13.5 12 7.5
13.5 12 10.5
13.5 12 13.5
13.5 12 16.5
13.5 12 19.5
13.5 12 22.5
16.5 12 1.5
16.5 12 4.5
16.5 12 7.5
16.5 12 10.5
16.5 12 13.5
16.5 12 16.5
16.5 12 19.5
16.5 12 22.5
19.5 12 1.5
19.5 12 4.5
19.5 12 7.5
19.5 12 10.5
19.5 12 13.5
19.5 12 16.5
19.5 12 19.5
19.5 12 22.5
22.5 12 1.5
22.5 12 4.5
22.5 12 7.5
22.5 12 10.5
22.5 12 13.5
22.5 12 16.5
22.5 12 19.5
22.5 12 22.5
$EndNodes
$Elements
1 512 1 512
1 1 1 512
1 1 2
2 1 10
3 1 82
4 2 3
5 2 11
6 2 82
7 2 83
8 3 4
9 3 12
10 3 83
11 3 84
12 4 5
13 4 13
14 4 84
15 4 85
16 5 6
17 5 14
18 5 85
19 5 86
20 6 7
21 6 15
22 6 86
23 6 87
24 7 8
25 7 16
26 7 87
27 7 88
28 8 9
29 8 17
30 8 88
31 8 89
32 9 18
33 9 89
34 10 11
35 10 19
36 10 82
37 10 90
38 11 12
39 11 20
40 11 82
41 11 83
42 11 90
43 11 91
44 12 13
45 12 21
46 12 83
47 12 84
48 12 91
49 12 92
50 13 14
51 13 22
52 13 84
53 13 85
54 13 92
55 13 93
56 14 15
57 14 23
58 14 85
59 14 86
60 14 93
61 14 94
62 15 16
63 15 24
64 15 86
65 15 87
66 15 94
67 15 95
68 16 17
69 16 25
70 16 87
71 16 88
72 16 95
73 16 96
74 17 18
75 17 26
76 17 88
77 17 89
78 17 96
79 17 97
80 18 27
81 18 89
82 18 97
83 19 20
84 19 28
85 19 90
86 19 98
87 20 21
88 20 29
89 20 90
90 20 91
91 20 98
92 20 99
93 21 22
94 21 30
95 21 91
96 21 92
97 21 99
98 21 100
99 22 23
100 22 31
101 22 92
102 22 93
103 22 100
104 22 101
105 23 24
106 23 32
107 23 93
108 23 94
109 23 101
110 23 102
111 24 25
112 24 33
113 24 94
114 24 95
115 24 102
116 24 103
117 25 26
118 25 34
119 25 95
120 25 96
121 25 103
122 25 104
123 26 27
124 26 35
125 26 96
126 26 97
127 26 104
128 26 105
129 27 36
130 27 97
131 27 105
132 28 29
133 28 37
134 28 98
135 28 106
136 29 30
137 29 38
138 29 98
139 29 99
140 29 106
141 29 107
142 30 31
143 30 39
144 30 99
145 30 100
146 30 107
147 30 108
148 31 32
149 31 40
150 31 100
151 31 101
152 31 108
153 31 109
154 32 33
155 32 41
156 32 101
157 32 102
158 32 109
159 32 110
160 33 34
161 33 42
162 33 102
163 33 103
164 33 110
165 33 111
166 34 35
167 34 43
168 34 103
169 34 104
170 34 111
171 34 112
172 35 36
173 35 44
174 35 104
175 35 105
176 35 112
177 35 113
178 36 45
179 36 105
180 36 113
181 37 38
182 37 46
183 37 106
184 37 114
185 38 39
186 38 47
187 38 106
188 38 107
189 38 114
190 38 115
191 39 40
192 39 48
193 39 107
194 39 108
195 39 115
196 39 116
197 40 41
198 40 49
199 40 108
200 40 109
201 40 116
202 40 117
203 41 42
204 41 50
205 41 109
206 41 110
207 41 117
208 41 118
209 42 43
210 42 51
211 42 110
212 42 111
213 42 118
214 42 119
215 43 44
216 43 52
217 43 111
218 43 112
219 43 119
220 43 120
221 44 45
222 44 53
223 44 112
224 44 113
225 44 120
226 44 121
227 45 54
228 45 113
229 45 121
230 46 47
231 46 55
232 46 114
233 46 122
234 47 48
235 47 56
236 47 114
237 47 115
238 47 122
239 47 123
240 48 49
241 48 57
242 48 115
243 48 116
244 48 123
245 48 124
246 49 50
247 49 58
248 49 116
249 49 117
250 49 124
251 49 125
252 50 51
253 50 59
254 50 117
255 50 118
256 50 125
257 50 126
258 51 52
259 51 60
260 51 118
261 51 119
262 51 126
263 51 127
264 52 53
265 52 61
266 52 119
267 52 120
268 52 127
269 52 128
270 53 54
271 53 62
272 53 120
273 53 121
274 53 128
275 53 129
276 54 63
277 54 121
278 54 129
279 55 56
280 55 64
281 55 122
282 55 130
283 56 57
284 56 65
285 56 122
286 56 123
287 56 130
288 56 131
289 57 58
290 57 66
291 57 123
292 57 124
293 57 131
294 57 132
295 58 59
296 58 67
297 58 124
298 58 125
299 58 132
300 58 133
301 59 60
302 59 68
303 59 125
304 59 126
305 59 133
306 59 134
307 60 61
308 60 69
309 60 126
310 60 127
311 60 134
312 60 135
313 61 62
314 61 70
315 61 127
316 61 128
317 61 135
318 61 136
319 62 63
320 62 71
321 62 128
322 62 129
323 62 136
324 62 137
325 63 72
326 63 129
327 63 137
328 64 65
329 64 73
330 64 130
331 64 138
332 65 66
333 65 74
334 65 130
335 65 131
336 65 138
337 65 139
338 66 67
339 66 75
340 66 131
341 66 132
342 66 139
343 66 140
344 67 68
345 67 76
346 67 132
347 67 133
348 67 140
349 67 141
350 68 69
351 68 77
352 68 133
353 68 134
354 68 141
355 68 142
356 69 70
357 69 78
358 69 134
359 69 135
360 69 142
361 69 143
362 70 71
363 70 79
364 70 135
365 70 136
366 70 143
367 70 144
368 71 72
369 71 80
370 71 136
371 71 137
372 71 144
373 71 145
374 72 81
375 72 137
376 72 145
377 73 74
378 73 138
379 74 75
380 74 138
381 74 139
382 75 76
383 75 139
384 75 140
385 76 77
386 76 140
387 76 141
388 77 78
389 77 141
390 77 142
391 78 79
392 78 142
393 78 143
394 79 80
395 79 143
396 79 144
397 80 81
398 80 144
399 80 145
400 81 145
401 82 83
402 82 90
403 83 84
404 83 91
405 84 85
406 84 92
407 85 86
408 85 93
409 86 87
410 86 94
411 87 88
412 87 95
413 88 89
414 88 96
415 89 97
416 90 91
417 90 98
418 91 92
419 91 99
420 92 93
421 92 100
422 93 94
423 93 101
424 94 95
425 94 102
426 95 96
427 95 103
428 96 97
429 96 104
430 97 105
431 98 99
432 98 106
433 99 100
434 99 107
435 100 101
436 100 108
437 101 102
438 101 109
439 102 103
440 102 110
441 103 104
442 103 111
443 104 105
444 104 112
445 105 113
446 106 107
447 106 114
448 107 108
449 107 115
450 108 109
451 108 116
452 109 110
453 109 117
454 110 111
455 110 118
456 111 112
457 111 119
458 112 113
459 112 120
460 113 121
461 114 115
462 114 122
463 115 116
464 115 123
465 116 117
466 116 124
467 117 118
468 117 125
469 118 119
470 118 126
471 119 120
472 119 127
473 120 121
474 120 128
475 121 129
476 122 123
477 122 130
478 123 124
479 123 131
480 124 125
481 124 132
482 125 126
483 125 133
484 126 127
485 126 134
486 127 128
487 127 135
488 128 129
489 128 136
490 129 137
491 130 131
492 130 138
493 131 132
494 131 139
495 132 133
496 132 140
497 133 134
498 133 141
499 134 135
500 134 142
501 135 136
502 135 143
503 136 137
504 136 144
505 137 145
506 138 139
507 139 140
508 140 141
509 141 142
510 142 143
511 143 144
512 144 145
$EndElements
$NodeData
1
"Fixity"
1
0
3
0
3
145
1 1 1 1
2 0 1 0
3 0 1 0
4 0 1 0
5 0 1 0
6 0 1 0
7 0 1 0
8 0 1 0
9 1 1 1
10 0 1 0
11 0 0 0
12 0 0 0
13 0 0 0
14 0 0 0
15 0 0 0
16 0 0 0
17 0 0 0
18 0 1 0
19 0 1 0
20 0 0 0
21 0 0 0
22 0 0 0
23 0 0 0
24 0 0 0
25 0 0 0
26 0 0 0
27 0 1 0
28 0 1 0
29 0 0 0
30 0 0 0
31 0 0 0
32 0 0 0
33 0 0 0
34 0 0 0
35 0 0 0
36 0 1 0
37 0 1 0
38 0 0 0
39 0 0 0
40 0 0 0
41 0 0 0
42 0 0 0
43 0 0 0
44 0 0 0
45 0 1 0
46 0 1 0
47 0 0 0
48 0 0 0
49 0 0 0
50 0 0 0
51 0 0 0
52 0 0 0
53 0 0 0
54 0 1 0
55 0 1 0
56 0 0 0
57 0 0 0
58 0 0 0
59 0 0 0
60 0 0 0
61 0 0 0
62 0 0 0
63 0 1 0
64 0 1 0
65 0 0 0
66 0 0 0
67 0 0 0
68 0 0 0
69 0 0 0
70 0 0 0
71 0 0 0
72 0 1 0
73 1 1 1
74 0 1 0
75 0 1 0
76 0 1 0
77 0 1 0
78 0 1 0
79 0 1 0
80 0 1 0
81 1 1 1
82 0 0 0
83 0 0 0
84 0 0 0
85 0 0 0
86 0 0 0
87 0 0 0
88 0 0 0
89 0 0 0
90 0 0 0
91 0 0 0
92 0 0 0
93 0 0 0
94 0 0 0
95 0 0 0
96 0 0 0
97 0 0 0
98 0 0 0
99 0 0 0
100 0 0 0
101 0 0 0
102 0 0 0
103 0 0 0
104 0 0 0
105 0 0 0
106 0 0 0
107 0 0 0
108 0 0 0
109 0 0 0
110 0 0 0
111 0 0 0
112 0 0 0
113 0 0 0
114 0 0 0
115 0 0 0
116 0 0 0
117 0 0 0
118 0 0 0
119 0 0 0
120 0 0 0
121 0 0 0
122 0 0 0
123 0 0 0
124 0 0 0
125 0 0 0
126 0 0 0
127 0 0 0
128 0 0 0
129 0 0 0
130 0 0 0
131 0 0 0
132 0 0 0
133 0 0 0
134 0 0 0
135 0 0 0
136 0 0 0
137 0 0 0
138 0 0 0
139 0 0 0
140 0 0 0
141 0 0 0
142 0 0 0
143 0 0 0
144 0 0 0
145 0 0 0
$EndNodeData
$NodeData
1
"NodalForce"
1
0
3
0
3
145
1 0 -2250 0
2 0 -4500 0
3 0 -4500 0
4 0 -4500 0
5 0 -4500 0
6 0 -4500 0
7 0 -4500 0
8 0 -4500 0
9 0 -2250 0
10 0 -4500 0
11 0 -9000 0
12 0 -9000 0
13 0 -9000 0
14 0 -9000 0
15 0 -9000 0
16 0 -9000 0
17 0 -9000 0
18 0 -4500 0
19 0 -4500 0
20 0 -9000 0
21 0 -9000 0
22 0 -9000 0
23 0 -9000 0
24 0 -9000 0
25 0 -9000 0
26 0 -9000 0
27 0 -4500 0
28 0 -4500 0
29 0 -9000 0
30 0 -9000 0
31 0 -9000 0
32 0 -9000 0
33 0 -9000 0
34 0 -9000 0
35 0 -9000 0
36 0 -4500 0
37 0 -4500 0
38 0 -9000 0
39 0 -9000 0
40 0 -9000 0
41 0 -9000 0
42 0 -9000 0
43 0 -9000 0
44 0 -9000 0
45 0 -4500 0
46 0 -4500 0
47 0 -9000 0
48 0 -9000 0
49 0 -9000 0
50 0 -9000 0
51 0 -9000 0
52 0 -9000 0
53 0 -9000 0
54 0 -4500 0
55 0 -4500 0
56 0 -9000 0
57 0 -9000 0
58 0 -9000 0
59 0 -9000 0
60 0 -9000 0
61 0 -9000 0
62 0 -9000 0
63 0 -4500 0
64 0 -4500 0
65 0 -9000 0
66 0 -9000 0
67 0 -9000 0
68 0 -9000 0
69 0 -9000 0
70 0 -9000 0
71 0 -9000 0
72 0 -4500 0
73 0 -2250 0
74 0 -4500 0
75 0 -4500 0
76 0 -4500 0
77 0 -4500 0
78 0 -4500 0
79 0 -4500 0
80 0 -4500 0
81 0 -2250 0
82 0 0 0
83 0 0 0
84 0 0 0
85 0 0 0
86 0 0 0
87 0 0 0
88 0 0 0
89 0 0 0
90 0 0 0
91 0 0 0
92 0 0 0
93 0 0 0
94 0 0 0
95 0 0 0
96 0 0 0
97 0 0 0
98 0 0 0
99 0 0 0
100 0 0 0
101 0 0 0
102 0 0 0
103 0 0 0
104 0 0 0
105 0 0 0
106 0 0 0
107 0 0 0
108 0 0 0
109 0 0 0
110 0 0 0
111 0 0 0
112 0 0 0
113 0 0 0
114 0 0 0
115 0 0 0
116 0 0 0
117 0 0 0
118 0 0 0
119 0 0 0
120 0 0 0
121 0 0 0
122 0 0 0
123 0 0 0
124 0 0 0
125 0 0 0
126 0 0 0
127 0 0 0
128 0 0 0
129 0 0 0
130 0 0 0
131 0 0 0
132 0 0 0
133 0 0 0
134 0 0 0
135 0 0 0
136 0 0 0
137 0 0 0
138 0 0 0
139 0 0 0
140 0 0 0
141 0 0 0
142 0 0 0
143 0 0 0
144 0 0 0
145 0 0 0
$EndNodeData
$ElementData
1
"CrossSectionArea"
1
0
3
0
1
512
1 0.002
2 0.002
3 0.0012000000000000001
4 0.002
5 0.002
6 0.0012000000000000001
7 0.0012000000000000001
8 0.002
9 0.002
10 0.0012000000000000001
11 0.0012000000000000001
12 0.002
13 0.002
14 0.0012000000000000001
15 0.0012000000000000001
16 0.002
17 0.002
18 0.0012000000000000001
19 0.0012000000000000001
20 0.002
21 0.002
22 0.0012000000000000001
23 0.0012000000000000001
24 0.002
25 0.002
26 0.0012000000000000001
27 0.0012000000000000001
28 0.002
29 0.002
30 0.0012000000000000001
31 0.0012000000000000001
32 0.002
33 0.0012000000000000001
34 0.002
35 0.002
36 0.0012000000000000001
37 0.0012000000000000001
38 0.002
39 0.002
40 0.0012000000000000001
41 0.0012000000000000001
42 0.0012000000000000001
43 0.0012000000000000001
44 0.002
45 0.002
46 0.0012000000000000001
47 0.0012000000000000001
48 0.0012000000000000001
49 0.0012000000000000001
50 0.002
51 0.002
52 0.0012000000000000001
53 0.0012000000000000001
54 0.0012000000000000001
55 0.0012000000000000001
56 0.002
57 0.002
58 0.0012000000000000001
59 0.0012000000000000001
60 0.0012000000000000001
61 0.0012000000000000001
62 0.002
63 0.002
64 0.0012000000000000001
65 0.0012000000000000001
66 0.0012000000000000001
67 0.0012000000000000001
68 0.002
69 0.002
70 0.0012000000000000001
71 0.0012000000000000001
72 0.0012000000000000001
73 0.0012000000000000001
74 0.002
75 0.002
76 0.0012000000000000001
77 0.0012000000000000001
78 0.0012000000000000001
79 0.0012000000000000001
80 0.002
81 0.0012000000000000001
82 0.0012000000000000001
83 0.002
84 0.002
85 0.0012000000000000001
86 0.0012000000000000001
87 0.002
88 0.002
89 0.0012000000000000001
90 0.0012000000000000001
91 0.0012000000000000001
92 0.0012000000000000001
93 0.002
94 0.002
95 0.0012000000000000001
96 0.0012000000000000001
97 0.0012000000000000001
98 0.0012000000000000001
99 0.002
100 0.002
101 0.0012000000000000001
102 0.0012000000000000001
103 0.0012000000000000001
104 0.0012000000000000001
105 0.002
106 0.002
107 0.0012000000000000001
108 0.0012000000000000001
109 0.0012000000000000001
110 0.0012000000000000001
111 0.002
112 0.002
113 0.0012000000000000001
114 0.0012000000000000001
115 0.0012000000000000001
116 0.0012000000000000001
117 0.002
118 0.002
119 0.0012000000000000001
120 0.0012000000000000001
121 0.0012000000000000001
122 0.0012000000000000001
123 0.002
124 0.002
125 0.0012000000000000001
126 0.0012000000000000001
127 0.0012000000000000001
128 0.0012000000000000001
129 0.002
130 0.0012000000000000001
131 0.0012000000000000001
132 0.002
133 0.002
134 0.0012000000000000001
135 0.0012000000000000001
136 0.002
137 0.002
138 0.0012000000000000001
139 0.0012000000000000001
140 0.0012000000000000001
141 0.0012000000000000001
142 0.002
143 0.002
144 0.0012000000000000001
145 0.0012000000000000001
146 0.0012000000000000001
147 0.0012000000000000001
148 0.002
149 0.002
150 0.0012000000000000001
151 0.0012000000000000001
152 0.0012000000000000001
153 0.0012000000000000001
154 0.002
155 0.002
156 0.0012000000000000001
157 0.0012000000000000001
158 0.0012000000000000001
159 0.0012000000000000001
160 0.002
161 0.002
162 0.0012000000000000001
163 0.0012000000000000001
164 0.0012000000000000001
165 0.0012000000000000001
166 0.002
167 0.002
168 0.0012000000000000001
169 0.0012000000000000001
170 0.0012000000000000001
171 0.0012000000000000001
172 0.002
173 0.002
174 0.0012000000000000001
175 0.0012000000000000001
176 0.0012000000000000001
177 0.0012000000000000001
178 0.002
179 0.0012000000000000001
180 0.0012000000000000001
181 0.002
182 0.002
183 0.0012000000000000001
184 0.0012000000000000001
185 0.002
186 0.002
187 0.0012000000000000001
188 0.0012000000000000001
189 0.0012000000000000001
190 0.0012000000000000001
191 0.002
192 0.002
193 0.0012000000000000001
194 0.0012000000000000001
195 0.0012000000000000001
196 0.0012000000000000001
197 0.002
198 0.002
199 0.0012000000000000001
200 0.0012000000000000001
201 0.0012000000000000001
202 0.0012000000000000001
203 0.002
204 0.002
205 0.0012000000000000001
206 0.0012000000000000001
207 0.0012000000000000001
208 0.0012000000000000001
209 0.002
210 0.002
211 0.0012000000000000001
212 0.0012000000000000001
213 0.0012000000000000001
214 0.0012000000000000001
215 0.002
216 0.002
217 0.0012000000000000001
218 0.0012000000000000001
219 0.0012000000000000001
220 0.0012000000000000001
221 0.002
222 0.002
223 0.0012000000000000001
224 0.0012000000000000001
225 0.0012000000000000001
226 0.0012000000000000001
227 0.002
228 0.0012000000000000001
229 0.0012000000000000001
230 0.002
231 0.002
232 0.0012000000000000001
233 0.0012000000000000001
234 0.002
235 0.002
236 0.0012000000000000001
237 0.0012000000000000001
238 0.0012000000000000001
239 0.0012000000000000001
240 0.002
241 0.002
242 0.0012000000000000001
243 0.0012000000000000001
244 0.0012000000000000001
245 0.0012000000000000001
246 0.002
247 0.002
248 0.0012000000000000001
249 0.0012000000000000001
250 0.0012000000000000001
251 0.0012000000000000001
252 0.002
253 0.002
254 0.0012000000000000001
255 0.0012000000000000001
256 0.0012000000000000001
257 0.0012000000000000001
258 0.002
259 0.002
260 0.0012000000000000001
261 0.0012000000000000001
262 0.0012000000000000001
263 0.0012000000000000001
264 0.002
265 0.002
266 0.0012000000000000001
267 0.0012000000000000001
268 0.0012000000000000001
269 0.0012000000000000001
270 0.002
271 0.002
272 0.0012000000000000001
273 0.0012000000000000001
274 0.0012000000000000001
275 0.0012000000000000001
276 0.002
277 0.0012000000000000001
278 0.0012000000000000001
279 0.002
280 0.002
281 0.0012000000000000001
282 0.0012000000000000001
283 0.002
284 0.002
285 0.0012000000000000001
286 0.0012000000000000001
287 0.0012000000000000001
288 0.0012000000000000001
289 0.002
290 0.002
291 0.0012000000000000001
292 0.0012000000000000001
293 0.0012000000000000001
294 0.0012000000000000001
295 0.002
296 0.002
297 0.0012000000000000001
298 0.0012000000000000001
299 0.0012000000000000001
300 0.0012000000000000001
301 0.002
302 0.002
303 0.0012000000000000001
304 0.0012000000000000001
305 0.0012000000000000001
306 0.0012000000000000001
307 0.002
308 0.002
309 0.0012000000000000001
310 0.0012000000000000001
311 0.0012000000000000001
312 0.0012000000000000001
313 0.002
314 0.002
315 0.0012000000000000001
316 0.0012000000000000001
317 0.0012000000000000001
318 0.0012000000000000001
319 0.002
320 0.002
321 0.0012000000000000001
322 0.0012000000000000001
323 0.0012000000000000001
324 0.0012000000000000001
325 0.002
326 0.0012000000000000001
327 0.0012000000000000001
328 0.002
329 0.002
330 0.0012000000000000001
331 0.0012000000000000001
332 0.002
333 0.002
334 0.0012000000000000001
335 0.0012000000000000001
336 0.0012000000000000001
337 0.0012000000000000001
338 0.002
339 0.002
340 0.0012000000000000001
341 0.0012000000000000001
342 0.0012000000000000001
343 0.0012000000000000001
344 0.002
345 0.002
346 0.0012000000000000001
347 0.0012000000000000001
348 0.0012000000000000001
349 0.0012000000000000001
350 0.002
351 0.002
352 0.0012000000000000001
353 0.0012000000000000001
354 0.0012000000000000001
355 0.0012000000000000001
356 0.002
357 0.002
358 0.0012000000000000001
359 0.0012000000000000001
360 0.0012000000000000001
361 0.0012000000000000001
362 0.002
363 0.002
364 0.0012000000000000001
365 0.0012000000000000001
366 0.0012000000000000001
367 0.0012000000000000001
368 0.002
369 0.002
370 0.0012000000000000001
371 0.0012000000000000001
372 0.0012000000000000001
373 0.0012000000000000001
374 0.002
375 0.0012000000000000001
376 0.0012000000000000001
377 0.002
378 0.0012000000000000001
379 0.002
380 0.0012000000000000001
381 0.0012000000000000001
382 0.002
383 0.0012000000000000001
384 0.0012000000000000001
385 0.002
386 0.0012000000000000001
387 0.0012000000000000001
388 0.002
389 0.0012000000000000001
390 0.0012000000000000001
391 0.002
392 0.0012000000000000001
393 0.0012000000000000001
394 0.002
395 0.0012000000000000001
396 0.0012000000000000001
397 0.002
398 0.0012000000000000001
399 0.0012000000000000001
400 0.0012000000000000001
401 0.002
402 0.002
403 0.002
404 0.002
405 0.002
406 0.002
407 0.002
408 0.002
409 0.002
410 0.002
411 0.002
412 0.002
413 0.002
414 0.002
415 0.002
416 0.002
417 0.002
418 0.002
419 0.002
420 0.002
421 0.002
422 0.002
423 0.002
424 0.002
425 0.002
426 0.002
427 0.002
428 0.002
429 0.002
430 0.002
431 0.002
432 0.002
433 0.002
434 0.002
435 0.002
436 0.002
437 0.002
438 0.002
439 0.002
440 0.002
441 0.002
442 0.002
443 0.002
444 0.002
445 0.002
446 0.002
447 0.002
448 0.002
449 0.002
450 0.002
451 0.002
452 0.002
453 0.002
454 0.002
455 0.002
456 0.002
457 0.002
458 0.002
459 0.002
460 0.002
461 0.002
462 0.002
463 0.002
464 0.002
465 0.002
466 0.002
467 0.002
468 0.002
469 0.002
470 0.002
471 0.002
472 0.002
473 0.002
474 0.002
475 0.002
476 0.002
477 0.002
478 0.002
479 0.002
480 0.002
481 0.002
482 0.002
483 0.002
484 0.002
485 0.002
486 0.002
487 0.002
488 0.002
489 0.002
490 0.002
491 0.002
492 0.002
493 0.002
494 0.002
495 0.002
496 0.002
497 0.002
498 0.002
499 0.002
500 0.002
501 0.002
502 0.002
503 0.002
504 0.002
505 0.002
506 0.002
507 0.002
508 0.002
509 0.002
510 0.002
511 0.002
512 0.002
$EndElementData
$ElementData
1
"MaterialID"
1
0
3
0
1
512
1 0
2 0
3 0
4 0
5 0
6 0
7 0
8 0
9 0
10 0
11 0
12 0
13 0
14 0
15 0
16 0
17 0
18 0
19 0
20 0
21 0
22 0
23 0
24 0
25 0
26 0
27 0
28 0
29 0
30 0
31 0
32 0
33 0
34 0
35 0
36 0
37 0
38 0
39 0
40 0
41 0
42 0
43 0
44 0
45 0
46 0
47 0
48 0
49 0
50 0
51 0
52 0
53 0
54 0
55 0
56 0
57 0
58 0
59 0
60 0
61 0
62 0
63 0
64 0
65 0
66 0
67 0
68 0
69 0
70 0
71 0
72 0
73 0
74 0
75 0
76 0
77 0
78 0
79 0
80 0
81 0
82 0
83 0
84 0
85 0
86 0
87 0
88 0
89 0
90 0
91 0
92 0
93 0
94 0
95 0
96 0
97 0
98 0
99 0
100 0
101 0
102 0
103 0
104 0
105 0
106 0
107 0
108 0
109 0
110 0
111 0
112 0
113 0
114 0
115 0
116 0
117 0
118 0
119 0
120 0
121 0
122 0
123 0
124 0
125 0
126 0
127 0
128 0
129 0
130 0
131 0
132 0
133 0
134 0
135 0
136 0
137 0
138 0
139 0
140 0
141 0
142 0
143 0
144 0
145 0
146 0
147 0
148 0
149 0
150 0
151 0
152 0
153 0
154 0
155 0
156 0
157 0
158 0
159 0
160 0
161 0
162 0
163 0
164 0
165 0
166 0
167 0
168 0
169 0
170 0
171 0
172 0
173 0
174 0
175 0
176 0
177 0
178 0
179 0
180 0
181 0
182 0
183 0
184 0
185 0
186 0
187 0
188 0
189 0
190 0
191 0
192 0
193 0
194 0
195 0
196 0
197 0
198 0
199 0
200 0
201 0
202 0
203 0
204 0
205 0
206 0
207 0
208 0
209 0
210 0
211 0
212 0
213 0
214 0
215 0
216 0
217 0
218 0
219 0
220 0
221 0
222 0
223 0
224 0
225 0
226 0
227 0
228 0
229 0
230 0
231 0
232 0
233 0
234 0
235 0
236 0
237 0
238 0
239 0
240 0
241 0
242 0
243 0
244 0
245 0
246 0
247 0
248 0
249 0
250 0
251 0
252 0
253 0
254 0
255 0
256 0
257 0
258 0
259 0
260 0
261 0
262 0
263 0
264 0
265 0
266 0
267 0
268 0
269 0
270 0
271 0
272 0
273 0
274 0
275 0
276 0
277 0
278 0
279 0
280 0
281 0
282 0
283 0
284 0
285 0
286 0
287 0
288 0
289 0
290 0
291 0
292 0
293 0
294 0
295 0
296 0
297 0
298 0
299 0
300 0
301 0
302 0
303 0
304 0
305 0
306 0
307 0
308 0
309 0
310 0
311 0
312 0
313 0
314 0
315 0
316 0
317 0
318 0
319 0
320 0
321 0
322 0
323 0
324 0
325 0
326 0
327 0
328 0
329 0
330 0
331 0
332 0
333 0
334 0
335 0
336 0
337 0
338 0
339 0
340 0
341 0
342 0
343 0
344 0
345 0
346 0
347 0
348 0
349 0
350 0
351 0
352 0
353 0
354 0
355 0
356 0
357 0
358 0
359 0
360 0
361 0
362 0
363 0
364 0
365 0
366 0
367 0
368 0
369 0
370 0
371 0
372 0
373 0
374 0
375 0
376 0
377 0
378 0
379 0
380 0
381 0
382 0
383 0
384 0
385 0
386 0
387 0
388 0
389 0
390 0
391 0
392 0
393 0
394 0
395 0
396 0
397 0
398 0
399 0
400 0
401 0
402 0
403 0
404 0
405 0
406 0
407 0
408 0
409 0
410 0
411 0
412 0
413 0
414 0
415 0
416 0
417 0
418 0
419 0
420 0
421 0
422 0
423 0
424 0
425 0
426 0
427 0
428 0
429 0
430 0
431 0
432 0
433 0
434 0
435 0
436 0
437 0
438 0
439 0
440 0
441 0
442 0
443 0
444 0
445 0
446 0
447 0
448 0
449 0
450 0
451 0
452 0
453 0
454 0
455 0
456 0
457 0
458 0
459 0
460 0
461 0
462 0
463 0
464 0
465 0
466 0
467 0
468 0
469 0
470 0
471 0
472 0
473 0
474 0
475 0
476 0
477 0
478 0
479 0
480 0
481 0
482 0
483 0
484 0
485 0
486 0
487 0
488 0
489 0
490 0
491 0
492 0
493 0
494 0
495 0
496 0
497 0
498 0
499 0
500 0
501 0
502 0
503 0
504 0
505 0
506 0
507 0
508 0
509 0
510 0
511 0
512 0
$EndElementData
