$MeshFormat
4.1 0 8
$EndMeshFormat
$PhysicalNames
1
1 1 "Material:Structural Steel (AISI 4130)"
$EndPhysicalNames
$Entities
0 1 0 0
1 -18.385066634855473 0 -18.385066634855473 18.385066634855473 8.573097367523054 18.385066634855473 1 1 0
$EndEntities
$Nodes
1 81 1 81
1 1 0 81
1
2
3
4
5
6
7
8
9
10
11
12
13
14
15
16
17
18
19
20
21
22
23
24
25
26
27
28
29
30
31
32
33
34
35
36
37
38
39
40
41
42
43
44
45
46
47
48
49
50
51
52
53
54
55
56
57
58
59
60
61
62
63
64
65
66
67
68
69
70
71
72
73
74
75
76
77
78
79
80
81
18.385066634855473 0 0
16.98558676779913 0 7.035660404087383
13.000205290072845 0 13.000205290072843
7.035660404087384 0 16.98558676779913
1.1257606503243278e-15 0 18.385066634855473
-7.035660404087382 0 16.98558676779913
-13.000205290072843 0 13.000205290072845
-16.98558676779913 0 7.035660404087385
-18.385066634855473 0 2.2515213006486556e-15
-16.98558676779913 0 -7.035660404087381
-13.000205290072847 0 -13.000205290072843
-7.035660404087394 0 -16.985586767799127
-3.377281950972983e-15 0 -18.385066634855473
7.035660404087388 0 -16.985586767799127
13.000205290072842 0 -13.000205290072847
16.985586767799127 0 -7.035660404087395
15.426902632476946 2.9581640023785276 0
14.25259959218994 2.9581640023785276 5.903620050158317
10.90846746412905 2.9581640023785276 10.908467464129048
5.903620050158318 2.9581640023785276 14.25259959218994
9.446253464810384e-16 2.9581640023785276 15.426902632476946
-5.903620050158316 2.9581640023785276 14.25259959218994
-10.908467464129048 2.9581640023785276 10.90846746412905
-14.25259959218994 2.9581640023785276 5.9036200501583185
-15.426902632476946 2.9581640023785276 1.889250692962077e-15
-14.252599592189942 2.9581640023785276 -5.903620050158315
-10.908467464129052 2.9581640023785276 -10.908467464129048
-5.903620050158326 2.9581640023785276 -14.252599592189936
-2.8338760394431152e-15 2.9581640023785276 -15.426902632476946
5.90362005015832 2.9581640023785276 -14.252599592189938
10.908467464129046 2.9581640023785276 -10.908467464129052
14.252599592189936 2.9581640023785276 -5.9036200501583265
11.999999999999998 5.3577070583495825 0
11.08655439013544 5.3577070583495825 4.592201188381076
8.48528137423857 5.3577070583495825 8.485281374238568
4.592201188381077 5.3577070583495825 11.08655439013544
7.347880794884118e-16 5.3577070583495825 11.999999999999998
-4.592201188381076 5.3577070583495825 11.08655439013544
-8.485281374238568 5.3577070583495825 8.48528137423857
-11.08655439013544 5.3577070583495825 4.592201188381078
-11.999999999999998 5.3577070583495825 1.4695761589768236e-15
-11.08655439013544 5.3577070583495825 -4.592201188381075
-8.485281374238571 5.3577070583495825 -8.485281374238568
-4.592201188381083 5.3577070583495825 -11.086554390135436
-2.2043642384652354e-15 5.3577070583495825 -11.999999999999998
4.592201188381079 5.3577070583495825 -11.086554390135438
8.485281374238568 5.3577070583495825 -8.485281374238571
11.086554390135436 5.3577070583495825 -4.592201188381084
8.20848343981605 7.125720266384853 0
7.583649843003891 7.125720266384853 3.1412506172608046
5.804274303551407 7.125720266384853 5.804274303551406
3.141250617260805 7.125720266384853 7.583649843003891
5.02624648521239e-16 7.125720266384853 8.20848343981605
-3.141250617260804 7.125720266384853 7.583649843003891
-5.804274303551406 7.125720266384853 5.804274303551407
-7.583649843003891 7.125720266384853 3.1412506172608055
-8.20848343981605 7.125720266384853 1.005249297042478e-15
-7.583649843003892 7.125720266384853 -3.1412506172608037
-5.8042743035514075 7.125720266384853 -5.804274303551406
-3.1412506172608095 7.125720266384853 -7.583649843003889
-1.507873945563717e-15 7.125720266384853 -8.20848343981605
3.1412506172608063 7.125720266384853 -7.58364984300389
5.804274303551405 7.125720266384853 -5.8042743035514075
7.583649843003889 7.125720266384853 -3.14125061726081
4.167556264006327 8.208483439816046 0
3.8503199329046502 8.208483439816046 1.5948547356845717
2.9469072952553477 8.208483439816046 2.9469072952553472
1.594854735684572 8.208483439816046 3.8503199329046502
2.5518922194909253e-16 8.208483439816046 4.167556264006327
-1.5948547356845715 8.208483439816046 3.8503199329046502
-2.9469072952553472 8.208483439816046 2.9469072952553477
-3.8503199329046502 8.208483439816046 1.5948547356845721
-4.167556264006327 8.208483439816046 5.103784438981851e-16
-3.8503199329046507 8.208483439816046 -1.594854735684571
-2.946907295255348 8.208483439816046 -2.9469072952553472
-1.594854735684574 8.208483439816046 -3.8503199329046494
-7.655676658472775e-16 8.208483439816046 -4.167556264006327
1.5948547356845726 8.208483439816046 -3.85031993290465
2.946907295255347 8.208483439816046 -2.946907295255348
3.8503199329046494 8.208483439816046 -1.5948547356845741
0 8.573097367523054 0
$EndNodes
$Elements
1 224 1 224
1 1 1 224
1 1 2
2 1 16
3 1 17
4 1 18
5 2 3
6 2 18
7 2 19
8 3 4
9 3 19
10 3 20
11 4 5
12 4 20
13 4 21
14 5 6
15 5 21
16 5 22
17 6 7
18 6 22
19 6 23
20 7 8
21 7 23
22 7 24
23 8 9
24 8 24
25 8 25
26 9 10
27 9 25
28 9 26
29 10 11
30 10 26
31 10 27
32 11 12
33 11 27
34 11 28
35 12 13
36 12 28
37 12 29
38 13 14
39 13 29
40 13 30
41 14 15
42 14 30
43 14 31
44 15 16
45 15 31
46 15 32
47 16 17
48 16 32
49 17 18
50 17 32
51 17 33
52 17 34
53 18 19
54 18 34
55 18 35
56 19 20
57 19 35
58 19 36
59 20 21
60 20 36
61 20 37
62 21 22
63 21 37
64 21 38
65 22 23
66 22 38
67 22 39
68 23 24
69 23 39
70 23 40
71 24 25
72 24 40
73 24 41
74 25 26
75 25 41
76 25 42
77 26 27
78 26 42
79 26 43
80 27 28
81 27 43
82 27 44
83 28 29
84 28 44
85 28 45
86 29 30
87 29 45
88 29 46
89 30 31
90 30 46
91 30 47
92 31 32
93 31 47
94 31 48
95 32 33
96 32 48
97 33 34
98 33 48
99 33 49
100 33 50
101 34 35
102 34 50
103 34 51
104 35 36
105 35 51
106 35 52
107 36 37
108 36 52
109 36 53
110 37 38
111 37 53
112 37 54
113 38 39
114 38 54
115 38 55
116 39 40
117 39 55
118 39 56
119 40 41
120 40 56
121 40 57
122 41 42
123 41 57
124 41 58
125 42 43
126 42 58
127 42 59
128 43 44
129 43 59
130 43 60
131 44 45
132 44 60
133 44 61
134 45 46
135 45 61
136 45 62
137 46 47
138 46 62
139 46 63
140 47 48
141 47 63
142 47 64
143 48 49
144 48 64
145 49 50
146 49 64
147 49 65
148 49 66
149 50 51
150 50 66
151 50 67
152 51 52
153 51 67
154 51 68
155 52 53
156 52 68
157 52 69
158 53 54
159 53 69
160 53 70
161 54 55
162 54 70
163 54 71
164 55 56
165 55 71
166 55 72
167 56 57
168 56 72
169 56 73
170 57 58
171 57 73
172 57 74
173 58 59
174 58 74
175 58 75
176 59 60
177 59 75
178 59 76
179 60 61
180 60 76
181 60 77
182 61 62
183 61 77
184 61 78
185 62 63
186 62 78
187 62 79
188 63 64
189 63 79
190 63 80
191 64 65
192 64 80
193 65 66
194 65 80
195 65 81
196 66 67
197 66 81
198 67 68
199 67 81
200 68 69
201 68 81
202 69 70
203 69 81
204 70 71
205 70 81
206 71 72
207 71 81
208 72 73
209 72 81
210 73 74
211 73 81
212 74 75
213 74 81
214 75 76
215 75 81
216 76 77
217 76 81
218 77 78
219 77 81
220 78 79
221 78 81
222 79 80
223 79 81
224 80 81
$EndElements
$NodeData
1
"Fixity"
1
0
3
0
3
81
1 1 1 1
2 1 1 1
3 1 1 1
4 1 1 1
5 1 1 1
6 1 1 1
7 1 1 1
8 1 1 1
9 1 1 1
10 1 1 1
11 1 1 1
12 1 1 1
13 1 1 1
14 1 1 1
15 1 1 1
16 1 1 1
17 0 0 0
18 0 0 0
19 0 0 0
20 0 0 0
21 0 0 0
22 0 0 0
23 0 0 0
24 0 0 0
25 0 0 0
26 0 0 0
27 0 0 0
28 0 0 0
29 0 0 0
30 0 0 0
31 0 0 0
32 0 0 0
33 0 0 0
34 0 0 0
35 0 0 0
36 0 0 0
37 0 0 0
38 0 0 0
39 0 0 0
40 0 0 0
41 0 0 0
42 0 0 0
43 0 0 0
44 0 0 0
45 0 0 0
46 0 0 0
47 0 0 0
48 0 0 0
49 0 0 0
50 0 0 0
51 0 0 0
52 0 0 0
53 0 0 0
54 0 0 0
55 0 0 0
56 0 0 0
57 0 0 0
58 0 0 0
59 0 0 0
60 0 0 0
61 0 0 0
62 0 0 0
63 0 0 0
64 0 0 0
65 0 0 0
66 0 0 0
67 0 0 0
68 0 0 0
69 0 0 0
70 0 0 0
71 0 0 0
72 0 0 0
73 0 0 0
74 0 0 0
75 0 0 0
76 0 0 0
77 0 0 0
78 0 0 0
79 0 0 0
80 0 0 0
81 0 0 0
$EndNodeData
$NodeData
1
"NodalForce"
1
0
3
0
3
81
1 0 0 0
2 0 0 0
3 0 0 0
4 0 0 0
5 0 0 0
6 0 0 0
7 0 0 0
8 0 0 0
9 0 0 0
10 0 0 0
11 0 0 0
12 0 0 0
13 0 0 0
14 0 0 0
15 0 0 0
16 0 0 0
17 0 -12000 0
18 0 -12000 0
19 0 -12000 0
20 0 -12000 0
21 0 -12000 0
22 0 -12000 0
23 0 -12000 0
24 0 -12000 0
25 0 -12000 0
26 0 -12000 0
27 0 -12000 0
28 0 -12000 0
29 0 -12000 0
30 0 -12000 0
31 0 -12000 0
32 0 -12000 0
33 0 -12000 0
34 0 -12000 0
35 0 -12000 0
36 0 -12000 0
37 0 -12000 0
38 0 -12000 0
39 0 -12000 0
40 0 -12000 0
41 0 -12000 0
42 0 -12000 0
43 0 -12000 0
44 0 -12000 0
45 0 -12000 0
46 0 -12000 0
47 0 -12000 0
48 0 -12000 0
49 0 -12000 0
50 0 -12000 0
51 0 -12000 0
52 0 -12000 0
53 0 -12000 0
54 0 -12000 0
55 0 -12000 0
56 0 -12000 0
57 0 -12000 0
58 0 -12000 0
59 0 -12000 0
60 0 -12000 0
61 0 -12000 0
62 0 -12000 0
63 0 -12000 0
64 0 -12000 0
65 0 -12000 0
66 0 -12000 0
67 0 -12000 0
68 0 -12000 0
69 0 -12000 0
70 0 -12000 0
71 0 -12000 0
72 0 -12000 0
73 0 -12000 0
74 0 -12000 0
75 0 -12000 0
76 0 -12000 0
77 0 -12000 0
78 0 -12000 0
79 0 -12000 0
80 0 -12000 0
81 0 -12000 0
$EndNodeData
$ElementData
1
"CrossSectionArea"
1
0
3
0
1
224
1 0.004
2 0.004
3 0.0025
4 0.0015
5 0.004
6 0.0025
7 0.0015
8 0.004
9 0.0025
10 0.0015
11 0.004
12 0.0025
13 0.0015
14 0.004
15 0.0025
16 0.0015
17 0.004
18 0.0025
19 0.0015
20 0.004
21 0.0025
22 0.0015
23 0.004
24 0.0025
25 0.0015
26 0.004
27 0.0025
28 0.0015
29 0.004
30 0.0025
31 0.0015
32 0.004
33 0.0025
34 0.0015
35 0.004
36 0.0025
37 0.0015
38 0.004
39 0.0025
40 0.0015
41 0.004
42 0.0025
43 0.0015
44 0.004
45 0.0025
46 0.0015
47 0.0015
48 0.0025
49 0.0025
50 0.0025
51 0.0025
52 0.0015
53 0.0025
54 0.0025
55 0.0015
56 0.0025
57 0.0025
58 0.0015
59 0.0025
60 0.0025
61 0.0015
62 0.0025
63 0.0025
64 0.0015
65 0.0025
66 0.0025
67 0.0015
68 0.0025
69 0.0025
70 0.0015
71 0.0025
72 0.0025
73 0.0015
74 0.0025
75 0.0025
76 0.0015
77 0.0025
78 0.0025
79 0.0015
80 0.0025
81 0.0025
82 0.0015
83 0.0025
84 0.0025
85 0.0015
86 0.0025
87 0.0025
88 0.0015
89 0.0025
90 0.0025
91 0.0015
92 0.0025
93 0.0025
94 0.0015
95 0.0015
96 0.0025
97 0.0025
98 0.0025
99 0.0025
100 0.0015
101 0.0025
102 0.0025
103 0.0015
104 0.0025
105 0.0025
106 0.0015
107 0.0025
108 0.0025
109 0.0015
110 0.0025
111 0.0025
112 0.0015
113 0.0025
114 0.0025
115 0.0015
116 0.0025
117 0.0025
118 0.0015
119 0.0025
120 0.0025
121 0.0015
122 0.0025
123 0.0025
124 0.0015
125 0.0025
126 0.0025
127 0.0015
128 0.0025
129 0.0025
130 0.0015
131 0.0025
132 0.0025
133 0.0015
134 0.0025
135 0.0025
136 0.0015
137 0.0025
138 0.0025
139 0.0015
140 0.0025
141 0.0025
142 0.0015
143 0.0015
144 0.0025
145 0.0025
146 0.0025
147 0.0025
148 0.0015
149 0.0025
150 0.0025
151 0.0015
152 0.0025
153 0.0025
154 0.0015
155 0.0025
156 0.0025
157 0.0015
158 0.0025
159 0.0025
160 0.0015
161 0.0025
162 0.0025
163 0.0015
164 0.0025
165 0.0025
166 0.0015
167 0.0025
168 0.0025
169 0.0015
170 0.0025
171 0.0025
172 0.0015
173 0.0025
174 0.0025
175 0.0015
176 0.0025
177 0.0025
178 0.0015
179 0.0025
180 0.0025
181 0.0015
182 0.0025
183 0.0025
184 0.0015
185 0.0025
186 0.0025
187 0.0015
188 0.0025
189 0.0025
190 0.0015
191 0.0015
192 0.0025
193 0.0025
194 0.0025
195 0.0025
196 0.0025
197 0.0025
198 0.0025
199 0.0025
200 0.0025
201 0.0025
202 0.0025
203 0.0025
204 0.0025
205 0.0025
206 0.0025
207 0.0025
208 0.0025
209 0.0025
210 0.0025
211 0.0025
212 0.0025
213 0.0025
214 0.0025
215 0.0025
216 0.0025
217 0.0025
218 0.0025
219 0.0025
220 0.0025
221 0.0025
222 0.0025
223 0.0025
224 0.0025
$EndElementData
$ElementData
1
"MaterialID"
1
0
3
0
1
224
1 0
2 0
3 0
4 0
5 0
6 0
7 0
8 0
9 0
10 0
11 0
12 0
13 0
14 0
15 0
16 0
17 0
18 0
19 0
20 0
21 0
22 0
23 0
24 0
25 0
26 0
27 0
28 0
29 0
30 0
31 0
32 0
33 0
34 0
35 0
36 0
37 0
38 0
39 0
40 0
41 0
42 0
43 0
44 0
45 0
46 0
47 0
48 0
49 0
50 0
51 0
52 0
53 0
54 0
55 0
56 0
57 0
58 0
59 0
60 0
61 0
62 0
63 0
64 0
65 0
66 0
67 0
68 0
69 0
70 0
71 0
72 0
73 0
74 0
75 0
76 0
77 0
78 0
79 0
80 0
81 0
82 0
83 0
84 0
85 0
86 0
87 0
88 0
89 0
90 0
91 0
92 0
93 0
94 0
95 0
96 0
97 0
98 0
99 0
100 0
101 0
102 0
103 0
104 0
105 0
106 0
107 0
108 0
109 0
110 0
111 0
112 0
113 0
114 0
115 0
116 0
117 0
118 0
119 0
120 0
121 0
122 0
123 0
124 0
125 0
126 0
127 0
128 0
129 0
130 0
131 0
132 0
133 0
134 0
135 0
136 0
137 0
138 0
139 0
140 0
141 0
142 0
143 0
144 0
145 0
146 0
147 0
148 0
149 0
150 0
151 0
152 0
153 0
154 0
155 0
156 0
157 0
158 0
159 0
160 0
161 0
162 0
163 0
164 0
165 0
166 0
167 0
168 0
169 0
170 0
171 0
172 0
173 0
174 0
175 0
176 0
177 0
178 0
179 0
180 0
181 0
182 0
183 0
184 0
185 0
186 0
187 0
188 0
189 0
190 0
191 0
192 0
193 0
194 0
195 0
196 0
197 0
198 0
199 0
200 0
201 0
202 0
203 0
204 0
205 0
206 0
207 0
208 0
209 0
210 0
211 0
212 0
213 0
214 0
215 0
216 0
217 0
218 0
219 0
220 0
221 0
222 0
223 0
224 0
$EndElementData
