$MeshFormat
4.1 0 8
$EndMeshFormat
$PhysicalNames
1
1 1 "Material:Carbon Steel AISI 1020 (hot rolled)"
$EndPhysicalNames
$Entities
0 1 0 0
1 -62.5 0 -62.5 62.5 300 62.5 1 1 0
$EndEntities
$Nodes
1 100 1 100
1 1 0 100
1
2
3
4
5
6
7
8
9
10
11
12
13
14
15
16
17
18
19
20
21
22
23
24
25
26
27
28
29
30
31
32
33
34
35
36
37
38
39
40
41
42
43
44
45
46
47
48
49
50
51
52
53
54
55
56
57
58
59
60
61
62
63
64
65
66
67
68
69
70
71
72
73
74
75
76
77
78
79
80
81
82
83
84
85
86
87
88
89
90
91
92
93
94
95
96
97
98
99
100
-62.5 0 -62.5
62.5 0 -62.5
62.5 0 62.5
-62.5 0 62.5
-53.365662630991544 12.5 -53.365662630991544
53.365662630991544 12.5 -53.365662630991544
53.365662630991544 12.5 53.365662630991544
-53.365662630991544 12.5 53.365662630991544
-45.63361297914046 25 -45.63361297914046
45.63361297914046 25 -45.63361297914046
45.63361297914046 25 45.63361297914046
-45.63361297914046 25 45.63361297914046
-39.08857425290169 37.5 -39.08857425290169
39.08857425290169 37.5 -39.08857425290169
39.08857425290169 37.5 39.08857425290169
-39.08857425290169 37.5 39.08857425290169
-33.54831858243922 50 -33.54831858243922
33.54831858243922 50 -33.54831858243922
33.54831858243922 50 33.54831858243922
-33.54831858243922 50 33.54831858243922
-28.858593406171153 62.5 -28.858593406171153
28.858593406171153 62.5 -28.858593406171153
28.858593406171153 62.5 28.858593406171153
-28.858593406171153 62.5 28.858593406171153
-24.88882674970082 75 -24.88882674970082
24.88882674970082 75 -24.88882674970082
24.88882674970082 75 24.88882674970082
-24.88882674970082 75 24.88882674970082
-21.52849182291856 87.5 -21.52849182291856
21.52849182291856 87.5 -21.52849182291856
21.52849182291856 87.5 21.52849182291856
-21.52849182291856 87.5 21.52849182291856
-18.684029717885743 100 -18.684029717885743
18.684029717885743 100 -18.684029717885743
18.684029717885743 100 18.684029717885743
-18.684029717885743 100 18.684029717885743
-16.276244528831576 112.5 -16.276244528831576
16.276244528831576 112.5 -16.276244528831576
16.276244528831576 112.5 16.276244528831576
-16.276244528831576 112.5 16.276244528831576
-14.23809836883493 125 -14.23809836883493
14.23809836883493 125 -14.23809836883493
14.23809836883493 125 14.23809836883493
-14.23809836883493 125 14.23809836883493
-12.512844891741787 137.5 -12.512844891741787
12.512844891741787 137.5 -12.512844891741787
12.512844891741787 137.5 12.512844891741787
-12.512844891741787 137.5 12.512844891741787
-11.052449352578456 150 -11.052449352578456
11.052449352578456 150 -11.052449352578456
11.052449352578456 150 11.052449352578456
-11.052449352578456 150 11.052449352578456
-9.81625121756492 162.5 -9.81625121756492
9.81625121756492 162.5 -9.81625121756492
9.81625121756492 162.5 9.81625121756492
-9.81625121756492 162.5 9.81625121756492
-8.769832087932102 175 -8.769832087932102
8.769832087932102 175 -8.769832087932102
8.769832087932102 175 8.769832087932102
-8.769832087932102 175 8.769832087932102
-7.884057418121978 187.5 -7.884057418121978
7.884057418121978 187.5 -7.884057418121978
7.884057418121978 187.5 7.884057418121978
-7.884057418121978 187.5 7.884057418121978
-7.134265347756692 200 -7.134265347756692
7.134265347756692 200 -7.134265347756692
7.134265347756692 200 7.134265347756692
-7.134265347756692 200 7.134265347756692
-6.4995800627245774 212.5 -6.4995800627245774
6.4995800627245774 212.5 -6.4995800627245774
6.4995800627245774 212.5 6.4995800627245774
-6.4995800627245774 212.5 6.4995800627245774
-5.962330567887905 225 -5.962330567887905
5.962330567887905 225 -5.962330567887905
5.962330567887905 225 5.962330567887905
-5.962330567887905 225 5.962330567887905
-5.5075586888019465 237.5 -5.5075586888019465
5.5075586888019465 237.5 -5.5075586888019465
5.5075586888019465 237.5 5.5075586888019465
-5.5075586888019465 237.5 5.5075586888019465
-5.122602604161518 250 -5.122602604161518
5.122602604161518 250 -5.122602604161518
5.122602604161518 250 5.122602604161518
-5.122602604161518 250 5.122602604161518
-4.796744313627951 262.5 -4.796744313627951
4.796744313627951 262.5 -4.796744313627951
4.796744313627951 262.5 4.796744313627951
-4.796744313627951 262.5 4.796744313627951
-4.520911225787191 275 -4.520911225787191
4.520911225787191 275 -4.520911225787191
4.520911225787191 275 4.520911225787191
-4.520911225787191 275 4.520911225787191
-4.287423557809839 287.5 -4.287423557809839
4.287423557809839 287.5 -4.287423557809839
4.287423557809839 287.5 4.287423557809839
-4.287423557809839 287.5 4.287423557809839
-4.089780513879684 300 -4.089780513879684
4.089780513879684 300 -4.089780513879684
4.089780513879684 300 4.089780513879684
-4.089780513879684 300 4.089780513879684
$EndNodes
$Elements
1 412 1 412
1 1 1 412
1 1 2
2 1 4
3 1 5
4 1 6
5 1 8
6 2 3
7 2 5
8 2 6
9 2 7
10 3 4
11 3 6
12 3 7
13 3 8
14 4 5
15 4 7
16 4 8
17 5 6
18 5 7
19 5 8
20 5 9
21 5 10
22 5 12
23 6 7
24 6 9
25 6 10
26 6 11
27 7 8
28 7 10
29 7 11
30 7 12
31 8 9
32 8 11
33 8 12
34 9 10
35 9 11
36 9 12
37 9 13
38 9 14
39 9 16
40 10 11
41 10 13
42 10 14
43 10 15
44 11 12
45 11 14
46 11 15
47 11 16
48 12 13
49 12 15
50 12 16
51 13 14
52 13 15
53 13 16
54 13 17
55 13 18
56 13 20
57 14 15
58 14 17
59 14 18
60 14 19
61 15 16
62 15 18
63 15 19
64 15 20
65 16 17
66 16 19
67 16 20
68 17 18
69 17 19
70 17 20
71 17 21
72 17 22
73 17 24
74 18 19
75 18 21
76 18 22
77 18 23
78 19 20
79 19 22
80 19 23
81 19 24
82 20 21
83 20 23
84 20 24
85 21 22
86 21 23
87 21 24
88 21 25
89 21 26
90 21 28
91 22 23
92 22 25
93 22 26
94 22 27
95 23 24
96 23 26
97 23 27
98 23 28
99 24 25
100 24 27
101 24 28
102 25 26
103 25 27
104 25 28
105 25 29
106 25 30
107 25 32
108 26 27
109 26 29
110 26 30
111 26 31
112 27 28
113 27 30
114 27 31
115 27 32
116 28 29
117 28 31
118 28 32
119 29 30
120 29 31
121 29 32
122 29 33
123 29 34
124 29 36
125 30 31
126 30 33
127 30 34
128 30 35
129 31 32
130 31 34
131 31 35
132 31 36
133 32 33
134 32 35
135 32 36
136 33 34
137 33 35
138 33 36
139 33 37
140 33 38
141 33 40
142 34 35
143 34 37
144 34 38
145 34 39
146 35 36
147 35 38
148 35 39
149 35 40
150 36 37
151 36 39
152 36 40
153 37 38
154 37 39
155 37 40
156 37 41
157 37 42
158 37 44
159 38 39
160 38 41
161 38 42
162 38 43
163 39 40
164 39 42
165 39 43
166 39 44
167 40 41
168 40 43
169 40 44
170 41 42
171 41 43
172 41 44
173 41 45
174 41 46
175 41 48
176 42 43
177 42 45
178 42 46
179 42 47
180 43 44
181 43 46
182 43 47
183 43 48
184 44 45
185 44 47
186 44 48
187 45 46
188 45 47
189 45 48
190 45 49
191 45 50
192 45 52
193 46 47
194 46 49
195 46 50
196 46 51
197 47 48
198 47 50
199 47 51
200 47 52
201 48 49
202 48 51
203 48 52
204 49 50
205 49 51
206 49 52
207 49 53
208 49 54
209 49 56
210 50 51
211 50 53
212 50 54
213 50 55
214 51 52
215 51 54
216 51 55
217 51 56
218 52 53
219 52 55
220 52 56
221 53 54
222 53 55
223 53 56
224 53 57
225 53 58
226 53 60
227 54 55
228 54 57
229 54 58
230 54 59
231 55 56
232 55 58
233 55 59
234 55 60
235 56 57
236 56 59
237 56 60
238 57 58
239 57 59
240 57 60
241 57 61
242 57 62
243 57 64
244 58 59
245 58 61
246 58 62
247 58 63
248 59 60
249 59 62
250 59 63
251 59 64
252 60 61
253 60 63
254 60 64
255 61 62
256 61 63
257 61 64
258 61 65
259 61 66
260 61 68
261 62 63
262 62 65
263 62 66
264 62 67
265 63 64
266 63 66
267 63 67
268 63 68
269 64 65
270 64 67
271 64 68
272 65 66
273 65 67
274 65 68
275 65 69
276 65 70
277 65 72
278 66 67
279 66 69
280 66 70
281 66 71
282 67 68
283 67 70
284 67 71
285 67 72
286 68 69
287 68 71
288 68 72
289 69 70
290 69 71
291 69 72
292 69 73
293 69 74
294 69 76
295 70 71
296 70 73
297 70 74
298 70 75
299 71 72
300 71 74
301 71 75
302 71 76
303 72 73
304 72 75
305 72 76
306 73 74
307 73 75
308 73 76
309 73 77
310 73 78
311 73 80
312 74 75
313 74 77
314 74 78
315 74 79
316 75 76
317 75 78
318 75 79
319 75 80
320 76 77
321 76 79
322 76 80
323 77 78
324 77 79
325 77 80
326 77 81
327 77 82
328 77 84
329 78 79
330 78 81
331 78 82
332 78 83
333 79 80
334 79 82
335 79 83
336 79 84
337 80 81
338 80 83
339 80 84
340 81 82
341 81 83
342 81 84
343 81 85
344 81 86
345 81 88
346 82 83
347 82 85
348 82 86
349 82 87
350 83 84
351 83 86
352 83 87
353 83 88
354 84 85
355 84 87
356 84 88
357 85 86
358 85 87
359 85 88
360 85 89
361 85 90
362 85 92
363 86 87
364 86 89
365 86 90
366 86 91
367 87 88
368 87 90
369 87 91
370 87 92
371 88 89
372 88 91
373 88 92
374 89 90
375 89 91
376 89 92
377 89 93
378 89 94
379 89 96
380 90 91
381 90 93
382 90 94
383 90 95
384 91 92
385 91 94
386 91 95
387 91 96
388 92 93
389 92 95
390 92 96
391 93 94
392 93 95
393 93 96
394 93 97
395 93 98
396 93 100
397 94 95
398 94 97
399 94 98
400 94 99
401 95 96
402 95 98
403 95 99
404 95 100
405 96 97
406 96 99
407 96 100
408 97 98
409 97 99
410 97 100
411 98 99
412 99 100
$EndElements
$NodeData
1
"Fixity"
1
0
3
0
3
100
1 1 1 1
2 1 1 1
3 1 1 1
4 1 1 1
5 0 0 0
6 0 0 0
7 0 0 0
8 0 0 0
9 0 0 0
10 0 0 0
11 0 0 0
12 0 0 0
13 0 0 0
14 0 0 0
15 0 0 0
16 0 0 0
17 0 0 0
18 0 0 0
19 0 0 0
20 0 0 0
21 0 0 0
22 0 0 0
23 0 0 0
24 0 0 0
25 0 0 0
26 0 0 0
27 0 0 0
28 0 0 0
29 0 0 0
30 0 0 0
31 0 0 0
32 0 0 0
33 0 0 0
34 0 0 0
35 0 0 0
36 0 0 0
37 0 0 0
38 0 0 0
39 0 0 0
40 0 0 0
41 0 0 0
42 0 0 0
43 0 0 0
44 0 0 0
45 0 0 0
46 0 0 0
47 0 0 0
48 0 0 0
49 0 0 0
50 0 0 0
51 0 0 0
52 0 0 0
53 0 0 0
54 0 0 0
55 0 0 0
56 0 0 0
57 0 0 0
58 0 0 0
59 0 0 0
60 0 0 0
61 0 0 0
62 0 0 0
63 0 0 0
64 0 0 0
65 0 0 0
66 0 0 0
67 0 0 0
68 0 0 0
69 0 0 0
70 0 0 0
71 0 0 0
72 0 0 0
73 0 0 0
74 0 0 0
75 0 0 0
76 0 0 0
77 0 0 0
78 0 0 0
79 0 0 0
80 0 0 0
81 0 0 0
82 0 0 0
83 0 0 0
84 0 0 0
85 0 0 0
86 0 0 0
87 0 0 0
88 0 0 0
89 0 0 0
90 0 0 0
91 0 0 0
92 0 0 0
93 0 0 0
94 0 0 0
95 0 0 0
96 0 0 0
97 0 0 0
98 0 0 0
99 0 0 0
100 0 0 0
$EndNodeData
$NodeData
1
"NodalForce"
1
0
3
0
3
100
1 0 0 0
2 0 0 0
3 0 0 0
4 0 0 0
5 120072.74091973096 0 0
6 120072.74091973096 0 0
7 120072.74091973096 0 0
8 120072.74091973096 0 0
9 102675.62920306603 0 0
10 102675.62920306603 0 0
11 102675.62920306603 0 0
12 102675.62920306603 0 0
13 87949.29206902879 0 0
14 87949.29206902879 0 0
15 87949.29206902879 0 0
16 87949.29206902879 0 0
17 75483.71681048824 0 0
18 75483.71681048824 0 0
19 75483.71681048824 0 0
20 75483.71681048824 0 0
21 64931.83516388508 -2e+06 0
22 64931.83516388508 -2e+06 0
23 64931.83516388508 -2e+06 0
24 64931.83516388508 -2e+06 0
25 55999.860186826845 0 0
26 55999.860186826845 0 0
27 55999.860186826845 0 0
28 55999.860186826845 0 0
29 48439.10660156675 0 0
30 48439.10660156675 0 0
31 48439.10660156675 0 0
32 48439.10660156675 0 0
33 42039.06686524292 0 0
34 42039.06686524292 0 0
35 42039.06686524292 0 0
36 42039.06686524292 0 0
37 36621.55018987104 -1e+06 0
38 36621.55018987104 -1e+06 0
39 36621.55018987104 -1e+06 0
40 36621.55018987104 -1e+06 0
41 32035.72132987859 0 0
42 32035.72132987859 0 0
43 32035.72132987859 0 0
44 32035.72132987859 0 0
45 28153.90100641902 0 0
46 28153.90100641902 0 0
47 28153.90100641902 0 0
48 28153.90100641902 0 0
49 24868.011043301525 0 0
50 24868.011043301525 0 0
51 24868.011043301525 0 0
52 24868.011043301525 0 0
53 22086.56523952107 0 0
54 22086.56523952107 0 0
55 22086.56523952107 0 0
56 22086.56523952107 0 0
57 19732.122197847228 0 0
58 19732.122197847228 0 0
59 19732.122197847228 0 0
60 19732.122197847228 0 0
61 17739.12919077445 0 0
62 17739.12919077445 0 0
63 17739.12919077445 0 0
64 17739.12919077445 0 0
65 16052.097032452555 0 0
66 16052.097032452555 0 0
67 16052.097032452555 0 0
68 16052.097032452555 0 0
69 14624.055141130297 0 0
70 14624.055141130297 0 0
71 14624.055141130297 0 0
72 14624.055141130297 0 0
73 13415.243777747786 0 0
74 13415.243777747786 0 0
75 13415.243777747786 0 0
76 13415.243777747786 0 0
77 12392.007049804379 0 0
78 12392.007049804379 0 0
79 12392.007049804379 0 0
80 12392.007049804379 0 0
81 11525.855859363415 0 0
82 11525.855859363415 0 0
83 11525.855859363415 0 0
84 11525.855859363415 0 0
85 10792.674705662888 0 0
86 10792.674705662888 0 0
87 10792.674705662888 0 0
88 10792.674705662888 0 0
89 10172.050258021178 -3e+05 0
90 10172.050258021178 -3e+05 0
91 10172.050258021178 -3e+05 0
92 10172.050258021178 -3e+05 0
93 9646.703005072139 0 0
94 9646.703005072139 0 0
95 9646.703005072139 0 0
96 9646.703005072139 0 0
97 9202.006156229289 0 0
98 9202.006156229289 0 0
99 9202.006156229289 0 0
100 9202.006156229289 0 0
$EndNodeData
$ElementData
1
"CrossSectionArea"
1
0
3
0
1
412
1 0.026000000000000002
2 0.026000000000000002
3 0.16
4 0.026000000000000002
5 0.026000000000000002
6 0.026000000000000002
7 0.026000000000000002
8 0.16
9 0.026000000000000002
10 0.026000000000000002
11 0.026000000000000002
12 0.16
13 0.026000000000000002
14 0.026000000000000002
15 0.026000000000000002
16 0.16
17 0.025133333333333334
18 0.025133333333333334
19 0.025133333333333334
20 0.154
21 0.025133333333333334
22 0.025133333333333334
23 0.025133333333333334
24 0.025133333333333334
25 0.154
26 0.025133333333333334
27 0.025133333333333334
28 0.025133333333333334
29 0.154
30 0.025133333333333334
31 0.025133333333333334
32 0.025133333333333334
33 0.154
34 0.024266666666666666
35 0.024266666666666666
36 0.024266666666666666
37 0.14800000000000002
38 0.024266666666666666
39 0.024266666666666666
40 0.024266666666666666
41 0.024266666666666666
42 0.14800000000000002
43 0.024266666666666666
44 0.024266666666666666
45 0.024266666666666666
46 0.14800000000000002
47 0.024266666666666666
48 0.024266666666666666
49 0.024266666666666666
50 0.14800000000000002
51 0.0234
52 0.0234
53 0.0234
54 0.14200000000000002
55 0.0234
56 0.0234
57 0.0234
58 0.0234
59 0.14200000000000002
60 0.0234
61 0.0234
62 0.0234
63 0.14200000000000002
64 0.0234
65 0.0234
66 0.0234
67 0.14200000000000002
68 0.022533333333333336
69 0.022533333333333336
70 0.022533333333333336
71 0.136
72 0.022533333333333336
73 0.022533333333333336
74 0.022533333333333336
75 0.022533333333333336
76 0.136
77 0.022533333333333336
78 0.022533333333333336
79 0.022533333333333336
80 0.136
81 0.022533333333333336
82 0.022533333333333336
83 0.022533333333333336
84 0.136
85 0.02166666666666667
86 0.02166666666666667
87 0.02166666666666667
88 0.13
89 0.02166666666666667
90 0.02166666666666667
91 0.02166666666666667
92 0.02166666666666667
93 0.13
94 0.02166666666666667
95 0.02166666666666667
96 0.02166666666666667
97 0.13
98 0.02166666666666667
99 0.02166666666666667
100 0.02166666666666667
101 0.13
102 0.0208
103 0.0208
104 0.0208
105 0.124
106 0.0208
107 0.0208
108 0.0208
109 0.0208
110 0.124
111 0.0208
112 0.0208
113 0.0208
114 0.124
115 0.0208
116 0.0208
117 0.0208
118 0.124
119 0.01993333333333333
120 0.01993333333333333
121 0.01993333333333333
122 0.11800000000000001
123 0.01993333333333333
124 0.01993333333333333
125 0.01993333333333333
126 0.01993333333333333
127 0.11800000000000001
128 0.01993333333333333
129 0.01993333333333333
130 0.01993333333333333
131 0.11800000000000001
132 0.01993333333333333
133 0.01993333333333333
134 0.01993333333333333
135 0.11800000000000001
136 0.01906666666666667
137 0.01906666666666667
138 0.01906666666666667
139 0.112
140 0.01906666666666667
141 0.01906666666666667
142 0.01906666666666667
143 0.01906666666666667
144 0.112
145 0.01906666666666667
146 0.01906666666666667
147 0.01906666666666667
148 0.112
149 0.01906666666666667
150 0.01906666666666667
151 0.01906666666666667
152 0.112
153 0.0182
154 0.0182
155 0.0182
156 0.10600000000000002
157 0.0182
158 0.0182
159 0.0182
160 0.0182
161 0.10600000000000002
162 0.0182
163 0.0182
164 0.0182
165 0.10600000000000002
166 0.0182
167 0.0182
168 0.0182
169 0.10600000000000002
170 0.017333333333333336
171 0.017333333333333336
172 0.017333333333333336
173 0.1
174 0.017333333333333336
175 0.017333333333333336
176 0.017333333333333336
177 0.017333333333333336
178 0.1
179 0.017333333333333336
180 0.017333333333333336
181 0.017333333333333336
182 0.1
183 0.017333333333333336
184 0.017333333333333336
185 0.017333333333333336
186 0.1
187 0.016466666666666668
188 0.016466666666666668
189 0.016466666666666668
190 0.09399999999999999
191 0.016466666666666668
192 0.016466666666666668
193 0.016466666666666668
194 0.016466666666666668
195 0.09399999999999999
196 0.016466666666666668
197 0.016466666666666668
198 0.016466666666666668
199 0.09399999999999999
200 0.016466666666666668
201 0.016466666666666668
202 0.016466666666666668
203 0.09399999999999999
204 0.015599999999999998
205 0.015599999999999998
206 0.015599999999999998
207 0.08800000000000001
208 0.015599999999999998
209 0.015599999999999998
210 0.015599999999999998
211 0.015599999999999998
212 0.08800000000000001
213 0.015599999999999998
214 0.015599999999999998
215 0.015599999999999998
216 0.08800000000000001
217 0.015599999999999998
218 0.015599999999999998
219 0.015599999999999998
220 0.08800000000000001
221 0.014733333333333334
222 0.014733333333333334
223 0.014733333333333334
224 0.08199999999999999
225 0.014733333333333334
226 0.014733333333333334
227 0.014733333333333334
228 0.014733333333333334
229 0.08199999999999999
230 0.014733333333333334
231 0.014733333333333334
232 0.014733333333333334
233 0.08199999999999999
234 0.014733333333333334
235 0.014733333333333334
236 0.014733333333333334
237 0.08199999999999999
238 0.013866666666666664
239 0.013866666666666664
240 0.013866666666666664
241 0.076
242 0.013866666666666664
243 0.013866666666666664
244 0.013866666666666664
245 0.013866666666666664
246 0.076
247 0.013866666666666664
248 0.013866666666666664
249 0.013866666666666664
250 0.076
251 0.013866666666666664
252 0.013866666666666664
253 0.013866666666666664
254 0.076
255 0.013000000000000001
256 0.013000000000000001
257 0.013000000000000001
258 0.07
259 0.013000000000000001
260 0.013000000000000001
261 0.013000000000000001
262 0.013000000000000001
263 0.07
264 0.013000000000000001
265 0.013000000000000001
266 0.013000000000000001
267 0.07
268 0.013000000000000001
269 0.013000000000000001
270 0.013000000000000001
271 0.07
272 0.012133333333333333
273 0.012133333333333333
274 0.012133333333333333
275 0.064
276 0.012133333333333333
277 0.012133333333333333
278 0.012133333333333333
279 0.012133333333333333
280 0.064
281 0.012133333333333333
282 0.012133333333333333
283 0.012133333333333333
284 0.064
285 0.012133333333333333
286 0.012133333333333333
287 0.012133333333333333
288 0.064
289 0.011266666666666664
290 0.011266666666666664
291 0.011266666666666664
292 0.05799999999999999
293 0.011266666666666664
294 0.011266666666666664
295 0.011266666666666664
296 0.011266666666666664
297 0.05799999999999999
298 0.011266666666666664
299 0.011266666666666664
300 0.011266666666666664
301 0.05799999999999999
302 0.011266666666666664
303 0.011266666666666664
304 0.011266666666666664
305 0.05799999999999999
306 0.010400000000000001
307 0.010400000000000001
308 0.010400000000000001
309 0.05200000000000001
310 0.010400000000000001
311 0.010400000000000001
312 0.010400000000000001
313 0.010400000000000001
314 0.05200000000000001
315 0.010400000000000001
316 0.010400000000000001
317 0.010400000000000001
318 0.05200000000000001
319 0.010400000000000001
320 0.010400000000000001
321 0.010400000000000001
322 0.05200000000000001
323 0.009533333333333331
324 0.009533333333333331
325 0.009533333333333331
326 0.046
327 0.009533333333333331
328 0.009533333333333331
329 0.009533333333333331
330 0.009533333333333331
331 0.046
332 0.009533333333333331
333 0.009533333333333331
334 0.009533333333333331
335 0.046
336 0.009533333333333331
337 0.009533333333333331
338 0.009533333333333331
339 0.046
340 0.008666666666666668
341 0.008666666666666668
342 0.008666666666666668
343 0.04
344 0.008666666666666668
345 0.008666666666666668
346 0.008666666666666668
347 0.008666666666666668
348 0.04
349 0.008666666666666668
350 0.008666666666666668
351 0.008666666666666668
352 0.04
353 0.008666666666666668
354 0.008666666666666668
355 0.008666666666666668
356 0.04
357 0.007799999999999999
358 0.007799999999999999
359 0.007799999999999999
360 0.03399999999999999
361 0.007799999999999999
362 0.007799999999999999
363 0.007799999999999999
364 0.007799999999999999
365 0.03399999999999999
366 0.007799999999999999
367 0.007799999999999999
368 0.007799999999999999
369 0.03399999999999999
370 0.007799999999999999
371 0.007799999999999999
372 0.007799999999999999
373 0.03399999999999999
374 0.006933333333333332
375 0.006933333333333332
376 0.006933333333333332
377 0.02799999999999999
378 0.006933333333333332
379 0.006933333333333332
380 0.006933333333333332
381 0.006933333333333332
382 0.02799999999999999
383 0.006933333333333332
384 0.006933333333333332
385 0.006933333333333332
386 0.02799999999999999
387 0.006933333333333332
388 0.006933333333333332
389 0.006933333333333332
390 0.02799999999999999
391 0.0060666666666666655
392 0.0060666666666666655
393 0.0060666666666666655
394 0.022000000000000013
395 0.0060666666666666655
396 0.0060666666666666655
397 0.0060666666666666655
398 0.0060666666666666655
399 0.022000000000000013
400 0.0060666666666666655
401 0.0060666666666666655
402 0.0060666666666666655
403 0.022000000000000013
404 0.0060666666666666655
405 0.0060666666666666655
406 0.0060666666666666655
407 0.022000000000000013
408 0.005199999999999996
409 0.005199999999999996
410 0.005199999999999996
411 0.005199999999999996
412 0.005199999999999996
$EndElementData
$ElementData
1
"MaterialID"
1
0
3
0
1
412
1 6
2 6
3 6
4 6
5 6
6 6
7 6
8 6
9 6
10 6
11 6
12 6
13 6
14 6
15 6
16 6
17 6
18 6
19 6
20 6
21 6
22 6
23 6
24 6
25 6
26 6
27 6
28 6
29 6
30 6
31 6
32 6
33 6
34 6
35 6
36 6
37 6
38 6
39 6
40 6
41 6
42 6
43 6
44 6
45 6
46 6
47 6
48 6
49 6
50 6
51 6
52 6
53 6
54 6
55 6
56 6
57 6
58 6
59 6
60 6
61 6
62 6
63 6
64 6
65 6
66 6
67 6
68 6
69 6
70 6
71 6
72 6
73 6
74 6
75 6
76 6
77 6
78 6
79 6
80 6
81 6
82 6
83 6
84 6
85 6
86 6
87 6
88 6
89 6
90 6
91 6
92 6
93 6
94 6
95 6
96 6
97 6
98 6
99 6
100 6
101 6
102 6
103 6
104 6
105 6
106 6
107 6
108 6
109 6
110 6
111 6
112 6
113 6
114 6
115 6
116 6
117 6
118 6
119 6
120 6
121 6
122 6
123 6
124 6
125 6
126 6
127 6
128 6
129 6
130 6
131 6
132 6
133 6
134 6
135 6
136 6
137 6
138 6
139 6
140 6
141 6
142 6
143 6
144 6
145 6
146 6
147 6
148 6
149 6
150 6
151 6
152 6
153 6
154 6
155 6
156 6
157 6
158 6
159 6
160 6
161 6
162 6
163 6
164 6
165 6
166 6
167 6
168 6
169 6
170 6
171 6
172 6
173 6
174 6
175 6
176 6
177 6
178 6
179 6
180 6
181 6
182 6
183 6
184 6
185 6
186 6
187 6
188 6
189 6
190 6
191 6
192 6
193 6
194 6
195 6
196 6
197 6
198 6
199 6
200 6
201 6
202 6
203 6
204 6
205 6
206 6
207 6
208 6
209 6
210 6
211 6
212 6
213 6
214 6
215 6
216 6
217 6
218 6
219 6
220 6
221 6
222 6
223 6
224 6
225 6
226 6
227 6
228 6
229 6
230 6
231 6
232 6
233 6
234 6
235 6
236 6
237 6
238 6
239 6
240 6
241 6
242 6
243 6
244 6
245 6
246 6
247 6
248 6
249 6
250 6
251 6
252 6
253 6
254 6
255 6
256 6
257 6
258 6
259 6
260 6
261 6
262 6
263 6
264 6
265 6
266 6
267 6
268 6
269 6
270 6
271 6
272 6
273 6
274 6
275 6
276 6
277 6
278 6
279 6
280 6
281 6
282 6
283 6
284 6
285 6
286 6
287 6
288 6
289 6
290 6
291 6
292 6
293 6
294 6
295 6
296 6
297 6
298 6
299 6
300 6
301 6
302 6
303 6
304 6
305 6
306 6
307 6
308 6
309 6
310 6
311 6
312 6
313 6
314 6
315 6
316 6
317 6
318 6
319 6
320 6
321 6
322 6
323 6
324 6
325 6
326 6
327 6
328 6
329 6
330 6
331 6
332 6
333 6
334 6
335 6
336 6
337 6
338 6
339 6
340 6
341 6
342 6
343 6
344 6
345 6
346 6
347 6
348 6
349 6
350 6
351 6
352 6
353 6
354 6
355 6
356 6
357 6
358 6
359 6
360 6
361 6
362 6
363 6
364 6
365 6
366 6
367 6
368 6
369 6
370 6
371 6
372 6
373 6
374 6
375 6
376 6
377 6
378 6
379 6
380 6
381 6
382 6
383 6
384 6
385 6
386 6
387 6
388 6
389 6
390 6
391 6
392 6
393 6
394 6
395 6
396 6
397 6
398 6
399 6
400 6
401 6
402 6
403 6
404 6
405 6
406 6
407 6
408 6
409 6
410 6
411 6
412 6
$EndElementData
