$MeshFormat
4.1 0 8
$EndMeshFormat
$PhysicalNames
1
1 1 "Material:Structural Steel (AISI 4130)"
$EndPhysicalNames
$Entities
0 1 0 0
1 0 0 -0.8 24 2.2 0.8 1 1 0
$EndEntities
$Nodes
1 27 1 27
1 1 0 27
1
2
3
4
5
6
7
8
9
10
11
12
13
14
15
16
17
18
19
20
21
22
23
24
25
26
27
0 0 -0.8
0 0 0.8
0 2.2 0
3 0 -0.8
3 0 0.8
3 2.2 0
6 0 -0.8
6 0 0.8
6 2.2 0
9 0 -0.8
9 0 0.8
9 2.2 0
12 0 -0.8
12 0 0.8
12 2.2 0
15 0 -0.8
15 0 0.8
15 2.2 0
18 0 -0.8
18 0 0.8
18 2.2 0
21 0 -0.8
21 0 0.8
21 2.2 0
24 0 -0.8
24 0 0.8
24 2.2 0
$EndNodes
$Elements
1 75 1 75
1 1 1 75
1 1 2
2 1 3
3 1 4
4 1 5
5 1 6
6 2 3
7 2 5
8 2 6
9 3 6
10 4 5
11 4 6
12 4 7
13 4 8
14 4 9
15 5 6
16 5 8
17 5 9
18 6 9
19 7 8
20 7 9
21 7 10
22 7 11
23 7 12
24 8 9
25 8 11
26 8 12
27 9 12
28 10 11
29 10 12
30 10 13
31 10 14
32 10 15
33 11 12
34 11 14
35 11 15
36 12 15
37 13 14
38 13 15
39 13 16
40 13 17
41 13 18
42 14 15
43 14 17
44 14 18
45 15 18
46 16 17
47 16 18
48 16 19
49 16 20
50 16 21
51 17 18
52 17 20
53 17 21
54 18 21
55 19 20
56 19 21
57 19 22
58 19 23
59 19 24
60 20 21
61 20 23
62 20 24
63 21 24
64 22 23
65 22 24
66 22 25
67 22 26
68 22 27
69 23 24
70 23 26
71 23 27
72 24 27
73 25 26
74 25 27
75 26 27
$EndElements
$NodeData
1
"Fixity"
1
0
3
0
3
27
1 1 1 1
2 1 1 1
3 1 1 1
4 0 0 0
5 0 0 0
6 0 0 0
7 0 0 0
8 0 0 0
9 0 0 0
10 0 0 0
11 0 0 0
12 0 0 0
13 0 0 0
14 0 0 0
15 0 0 0
16 0 0 0
17 0 0 0
18 0 0 0
19 0 0 0
20 0 0 0
21 0 0 0
22 0 0 0
23 0 0 0
24 0 0 0
25 0 0 0
26 0 0 0
27 0 0 0
$EndNodeData
$NodeData
1
"NodalForce"
1
0
3
0
3
27
1 0 0 0
2 0 0 0
3 0 0 0
4 0 0 0
5 0 0 0
6 0 0 0
7 0 0 0
8 0 0 0
9 0 0 0
10 0 0 0
11 0 0 0
12 0 0 0
13 0 0 0
14 0 0 0
15 0 0 0
16 0 0 0
17 0 0 0
18 0 0 0
19 0 0 0
20 0 0 0
21 0 0 0
22 0 0 0
23 0 0 0
24 0 0 0
25 0 -15000 0
26 0 -15000 0
27 0 0 0
$EndNodeData
$ElementData
1
"CrossSectionArea"
1
0
3
0
1
75
1 0.0012000000000000001
2 0.0012000000000000001
3 0.006
4 0.0012000000000000001
5 0.0012000000000000001
6 0.0012000000000000001
7 0.006
8 0.0012000000000000001
9 0.006
10 0.0012000000000000001
11 0.0012000000000000001
12 0.006
13 0.0012000000000000001
14 0.0012000000000000001
15 0.0012000000000000001
16 0.006
17 0.0012000000000000001
18 0.006
19 0.0012000000000000001
20 0.0012000000000000001
21 0.006
22 0.0012000000000000001
23 0.0012000000000000001
24 0.0012000000000000001
25 0.006
26 0.0012000000000000001
27 0.006
28 0.0012000000000000001
29 0.0012000000000000001
30 0.006
31 0.0012000000000000001
32 0.0012000000000000001
33 0.0012000000000000001
34 0.006
35 0.0012000000000000001
36 0.006
37 0.0012000000000000001
38 0.0012000000000000001
39 0.006
40 0.0012000000000000001
41 0.0012000000000000001
42 0.0012000000000000001
43 0.006
44 0.0012000000000000001
45 0.006
46 0.0012000000000000001
47 0.0012000000000000001
48 0.006
49 0.0012000000000000001
50 0.0012000000000000001
51 0.0012000000000000001
52 0.006
53 0.0012000000000000001
54 0.006
55 0.0012000000000000001
56 0.0012000000000000001
57 0.006
58 0.0012000000000000001
59 0.0012000000000000001
60 0.0012000000000000001
61 0.006
62 0.0012000000000000001
63 0.006
64 0.0012000000000000001
65 0.0012000000000000001
66 0.006
67 0.0012000000000000001
68 0.0012000000000000001
69 0.0012000000000000001
70 0.006
71 0.0012000000000000001
72 0.006
73 0.0012000000000000001
74 0.0012000000000000001
75 0.0012000000000000001
$EndElementData
$ElementData
1
"MaterialID"
1
0
3
0
1
75
1 0
2 0
3 0
4 0
5 0
6 0
7 0
8 0
9 0
10 0
11 0
12 0
13 0
14 0
15 0
16 0
17 0
18 0
19 0
20 0
21 0
22 0
23 0
24 0
25 0
26 0
27 0
28 0
29 0
30 0
31 0
32 0
33 0
34 0
35 0
36 0
37 0
38 0
39 0
40 0
41 0
42 0
43 0
44 0
45 0
46 0
47 0
48 0
49 0
50 0
51 0
52 0
53 0
54 0
55 0
56 0
57 0
58 0
59 0
60 0
61 0
62 0
63 0
64 0
65 0
66 0
67 0
68 0
69 0
70 0
71 0
72 0
73 0
74 0
75 0
$EndElementData
