$MeshFormat
4.1 0 8
$EndMeshFormat
$PhysicalNames
1
1 1 "Material:Structural Steel (AISI 4130)"
$EndPhysicalNames
$Entities
0 1 0 0
1 -7 0 -4 7 30 4 1 1 0
$EndEntities
$Nodes
1 30 1 30
1 1 0 30
1
2
3
4
5
6
7
8
9
10
11
12
13
14
15
16
17
18
19
20
21
22
23
24
25
26
27
28
29
30
-4 0 -4
4 0 -4
4 0 4
-4 0 4
-3.5 5 -3.5
3.5 5 -3.5
3.5 5 3.5
-3.5 5 3.5
-3 10 -3
3 10 -3
3 10 3
-3 10 3
-2.5 15 -2.5
2.5 15 -2.5
2.5 15 2.5
-2.5 15 2.5
-2 20 -2
2 20 -2
2 20 2
-2 20 2
-1.5 25 -1.5
1.5 25 -1.5
1.5 25 1.5
-1.5 25 1.5
-1 30 -1
1 30 -1
1 30 1
-1 30 1
7 29 0
-7 29 0
$EndNodes
$Elements
1 114 1 114
1 1 1 114
1 1 2
2 1 4
3 1 5
4 1 6
5 1 8
6 2 3
7 2 5
8 2 6
9 2 7
10 3 4
11 3 6
12 3 7
13 3 8
14 4 5
15 4 7
16 4 8
17 5 6
18 5 7
19 5 8
20 5 9
21 5 10
22 5 12
23 6 7
24 6 9
25 6 10
26 6 11
27 7 8
28 7 10
29 7 11
30 7 12
31 8 9
32 8 11
33 8 12
34 9 10
35 9 11
36 9 12
37 9 13
38 9 14
39 9 16
40 10 11
41 10 13
42 10 14
43 10 15
44 11 12
45 11 14
46 11 15
47 11 16
48 12 13
49 12 15
50 12 16
51 13 14
52 13 15
53 13 16
54 13 17
55 13 18
56 13 20
57 14 15
58 14 17
59 14 18
60 14 19
61 15 16
62 15 18
63 15 19
64 15 20
65 16 17
66 16 19
67 16 20
68 17 18
69 17 19
70 17 20
71 17 21
72 17 22
73 17 24
74 18 19
75 18 21
76 18 22
77 18 23
78 19 20
79 19 22
80 19 23
81 19 24
82 20 21
83 20 23
84 20 24
85 21 22
86 21 23
87 21 24
88 21 25
89 21 26
90 21 28
91 21 30
92 22 23
93 22 25
94 22 26
95 22 27
96 22 29
97 23 24
98 23 26
99 23 27
100 23 28
101 23 29
102 24 25
103 24 27
104 24 28
105 24 30
106 25 26
107 25 27
108 25 28
109 25 30
110 26 27
111 26 29
112 27 28
113 27 29
114 28 30
$EndElements
$NodeData
1
"Fixity"
1
0
3
0
3
30
1 1 1 1
2 1 1 1
3 1 1 1
4 1 1 1
5 0 0 0
6 0 0 0
7 0 0 0
8 0 0 0
9 0 0 0
10 0 0 0
11 0 0 0
12 0 0 0
13 0 0 0
14 0 0 0
15 0 0 0
16 0 0 0
17 0 0 0
18 0 0 0
19 0 0 0
20 0 0 0
21 0 0 0
22 0 0 0
23 0 0 0
24 0 0 0
25 0 0 0
26 0 0 0
27 0 0 0
28 0 0 0
29 0 0 0
30 0 0 0
$EndNodeData
$NodeData
1
"NodalForce"
1
0
3
0
3
30
1 0 0 0
2 0 0 0
3 0 0 0
4 0 0 0
5 0 0 1500
6 0 0 1500
7 0 0 1500
8 0 0 1500
9 0 0 1500
10 0 0 1500
11 0 0 1500
12 0 0 1500
13 0 0 1500
14 0 0 1500
15 0 0 1500
16 0 0 1500
17 0 0 1500
18 0 0 1500
19 0 0 1500
20 0 0 1500
21 0 0 1500
22 0 0 1500
23 0 0 1500
24 0 0 1500
25 0 0 1500
26 0 0 1500
27 0 0 1500
28 0 0 1500
29 0 -20000 6000
30 0 -20000 6000
$EndNodeData
$ElementData
1
"CrossSectionArea"
1
0
3
0
1
114
1 0.0018000000000000002
2 0.0018000000000000002
3 0.0045000000000000005
4 0.0018000000000000002
5 0.0018000000000000002
6 0.0018000000000000002
7 0.0018000000000000002
8 0.0045000000000000005
9 0.0018000000000000002
10 0.0018000000000000002
11 0.0018000000000000002
12 0.0045000000000000005
13 0.0018000000000000002
14 0.0018000000000000002
15 0.0018000000000000002
16 0.0045000000000000005
17 0.0018000000000000002
18 0.0018000000000000002
19 0.0018000000000000002
20 0.0045000000000000005
21 0.0018000000000000002
22 0.0018000000000000002
23 0.0018000000000000002
24 0.0018000000000000002
25 0.0045000000000000005
26 0.0018000000000000002
27 0.0018000000000000002
28 0.0018000000000000002
29 0.0045000000000000005
30 0.0018000000000000002
31 0.0018000000000000002
32 0.0018000000000000002
33 0.0045000000000000005
34 0.0018000000000000002
35 0.0018000000000000002
36 0.0018000000000000002
37 0.0045000000000000005
38 0.0018000000000000002
39 0.0018000000000000002
40 0.0018000000000000002
41 0.0018000000000000002
42 0.0045000000000000005
43 0.0018000000000000002
44 0.0018000000000000002
45 0.0018000000000000002
46 0.0045000000000000005
47 0.0018000000000000002
48 0.0018000000000000002
49 0.0018000000000000002
50 0.0045000000000000005
51 0.0018000000000000002
52 0.0018000000000000002
53 0.0018000000000000002
54 0.0045000000000000005
55 0.0018000000000000002
56 0.0018000000000000002
57 0.0018000000000000002
58 0.0018000000000000002
59 0.0045000000000000005
60 0.0018000000000000002
61 0.0018000000000000002
62 0.0018000000000000002
63 0.0045000000000000005
64 0.0018000000000000002
65 0.0018000000000000002
66 0.0018000000000000002
67 0.0045000000000000005
68 0.0018000000000000002
69 0.0018000000000000002
70 0.0018000000000000002
71 0.0045000000000000005
72 0.0018000000000000002
73 0.0018000000000000002
74 0.0018000000000000002
75 0.0018000000000000002
76 0.0045000000000000005
77 0.0018000000000000002
78 0.0018000000000000002
79 0.0018000000000000002
80 0.0045000000000000005
81 0.0018000000000000002
82 0.0018000000000000002
83 0.0018000000000000002
84 0.0045000000000000005
85 0.0018000000000000002
86 0.0018000000000000002
87 0.0018000000000000002
88 0.0045000000000000005
89 0.0018000000000000002
90 0.0018000000000000002
91 0.0018000000000000002
92 0.0018000000000000002
93 0.0018000000000000002
94 0.0045000000000000005
95 0.0018000000000000002
96 0.0018000000000000002
97 0.0018000000000000002
98 0.0018000000000000002
99 0.0045000000000000005
100 0.0018000000000000002
101 0.0018000000000000002
102 0.0018000000000000002
103 0.0018000000000000002
104 0.0045000000000000005
105 0.0018000000000000002
106 0.0018000000000000002
107 0.0018000000000000002
108 0.0018000000000000002
109 0.0018000000000000002
110 0.0018000000000000002
111 0.0018000000000000002
112 0.0018000000000000002
113 0.0018000000000000002
114 0.0018000000000000002
$EndElementData
$ElementData
1
"MaterialID"
1
0
3
0
1
114
1 0
2 0
3 0
4 0
5 0
6 0
7 0
8 0
9 0
10 0
11 0
12 0
13 0
14 0
15 0
16 0
17 0
18 0
19 0
20 0
21 0
22 0
23 0
24 0
25 0
26 0
27 0
28 0
29 0
30 0
31 0
32 0
33 0
34 0
35 0
36 0
37 0
38 0
39 0
40 0
41 0
42 0
43 0
44 0
45 0
46 0
47 0
48 0
49 0
50 0
51 0
52 0
53 0
54 0
55 0
56 0
57 0
58 0
59 0
60 0
61 0
62 0
63 0
64 0
65 0
66 0
67 0
68 0
69 0
70 0
71 0
72 0
73 0
74 0
75 0
76 0
77 0
78 0
79 0
80 0
81 0
82 0
83 0
84 0
85 0
86 0
87 0
88 0
89 0
90 0
91 0
92 0
93 0
94 0
95 0
96 0
97 0
98 0
99 0
100 0
101 0
102 0
103 0
104 0
105 0
106 0
107 0
108 0
109 0
110 0
111 0
112 0
113 0
114 0
$EndElementData
